<?xml version="1.0" encoding="utf-8"?>
<!-- Generator: Adobe Illustrator 19.2.1, SVG Export Plug-In . SVG Version: 6.00 Build 0)  -->
<svg version="1.1" id="Layer_1" xmlns="http://www.w3.org/2000/svg" xmlns:xlink="http://www.w3.org/1999/xlink" x="0px" y="0px"
	 viewBox="0 0 160.1 126.1" style="enable-background:new 0 0 160.1 126.1;" xml:space="preserve">
<style type="text/css">
	.st0{fill:#082432;}
</style>
<g>
	<path class="st0" d="M153.9,115.2h1.7v4.1c0,0.8,0.1,1.7,0.7,2.3c0.7,0.7,1.8,0.8,2,0.8s0.3,0,0.4-0.1l1.4-1.2l-0.3-0.3
		c-0.3,0.2-0.8,0.5-1.4,0.5c-1.2,0-1.5-1.2-1.5-2.1v-4h2.5l0.2-0.7h-2.8v-2.6l-0.2,0.1c-0.7,1.4-1.7,2.4-2.8,3.1v0.1H153.9z
		 M147.2,122.3c0.6,0,1.3-0.1,1.9-0.1c0.6,0,1.3,0,1.7,0.1v-0.6h-0.3c-0.7,0-0.8-0.1-0.8-0.9v-3.1c0-1.7,1.1-2.2,1.8-2.2
		c0.5,0,1,0.1,1.1,0.6h0.3v-1.6c-0.2-0.1-0.6-0.2-1-0.2c-0.9,0-1.6,0.6-2.2,1.8l0,0v-1.8h-0.2c-0.7,0.5-1.6,0.9-2.3,1.3v0.5
		c0.2-0.1,0.5-0.2,0.7-0.2c0.4,0,0.6,0.3,0.6,0.8v3.8c0,1-0.1,1.2-0.9,1.2h-0.3v0.6H147.2z M138.1,118.2c0,2.6,2,4.2,4,4.2
		c2.4,0,4-1.8,4-3.8c0-2.3-1.6-4.3-4.1-4.3C139.4,114.3,138.1,116.3,138.1,118.2 M144.6,118.9c0,1.7-0.6,2.9-2.3,2.9
		c-1.9,0-2.8-2.2-2.8-3.9c0-2,1.1-3,2.1-3C143.6,114.9,144.6,116.9,144.6,118.9 M130.2,116.3c0.6-0.5,1.3-1,2.2-1
		c1.2,0,2.7,0.9,2.7,3.4c0,1.7-0.9,3-2.7,3c-1.1,0-1.6-0.4-2.2-0.9V116.3z M127.6,126c0.6,0,1.4-0.1,2.1-0.1c0.6,0,1.3,0,1.8,0.1
		v-0.5h-0.3c-0.7,0-1-0.2-1-1.1v-2.5c0.3,0.2,1.1,0.4,1.9,0.4c2.9,0,4.3-2.3,4.3-4.3c0-1.9-1.1-3.8-3.3-3.8c-1.2,0-2.2,0.7-2.9,1.3
		v-1.3H130c-0.5,0.3-1.7,1-2.4,1.3v0.5c0.2-0.1,0.5-0.2,0.8-0.2s0.5,0.2,0.5,0.9v7.7c0,0.8-0.3,1.1-1.1,1.1h-0.2L127.6,126
		L127.6,126z M120.7,122.3c0.6,0,1.3-0.1,1.9-0.1c0.6,0,1.3,0,1.7,0.1v-0.6H124c-0.7,0-0.8-0.1-0.8-0.9v-3.1c0-1.7,1.1-2.2,1.8-2.2
		c0.5,0,1,0.1,1.1,0.6h0.3v-1.6c-0.2-0.1-0.6-0.2-1-0.2c-0.9,0-1.6,0.6-2.2,1.8l0,0v-1.8H123c-0.7,0.5-1.6,0.9-2.3,1.3v0.5
		c0.2-0.1,0.5-0.2,0.7-0.2c0.4,0,0.6,0.3,0.6,0.8v3.8c0,1-0.1,1.2-0.9,1.2h-0.4V122.3z M116.5,111.6c0,0.5,0.4,0.9,0.9,0.9
		s0.9-0.4,0.9-0.9s-0.4-0.9-0.9-0.9S116.5,111.2,116.5,111.6 M115.3,122.3c0.7,0,1.5-0.1,2-0.1s1.4,0,2,0.1v-0.6H119
		c-0.6,0-1-0.2-1-1.5v-6h-0.2c-0.5,0.3-1.7,1-2.4,1.3v0.5c0.2-0.1,0.5-0.2,0.8-0.2s0.5,0.2,0.5,0.9v3.5c0,1.2-0.4,1.5-1,1.5h-0.3
		L115.3,122.3L115.3,122.3z M101,122.3c0.4,0,1.1-0.1,1.7-0.1c0.8,0,1.5,0,2.1,0.1v-0.6h-0.4c-0.5,0-0.7-0.2-0.7-0.6
		c0-0.4,0.2-0.9,0.3-1.3l0.9-2.8h4.1l1.3,3.1c0.1,0.2,0.2,0.6,0.2,0.9c0,0.4-0.3,0.6-0.9,0.6h-0.4v0.5c0.6,0,1.5-0.1,2.4-0.1
		s1.7,0,2.4,0.1v-0.4h-0.3c-0.8,0-1.3-0.7-1.8-1.7l-4.5-10.7h-0.3l-4,10.5c-0.5,1.5-0.9,1.9-1.9,1.9H101
		C101,121.7,101,122.3,101,122.3z M108.8,116.5h-3.6l1.6-4.8L108.8,116.5z M80.9,122.3c0.6,0,1.2-0.1,1.9-0.1c0.7,0,1.3,0,2,0.1
		v-0.6h-0.3c-0.6,0-0.9-0.2-0.9-1v-4.4c0.7-0.5,1.3-1,2.1-1c1.1,0,1.8,0.7,1.8,1.9v3.7c0,0.8-0.2,0.9-1,0.9h-0.2v0.5
		c0.7,0,1.3-0.1,2-0.1c0.6,0,1.2,0,1.8,0.1v-0.6h-0.4c-0.6,0-0.9-0.2-0.9-0.9v-4.5c0.7-0.5,1.3-1,2.1-1c1.2,0,1.8,0.6,1.8,1.9v3.3
		c0,1-0.1,1.4-1,1.4h-0.2v0.5c0.7,0,1.3-0.1,1.9-0.1s1.2,0,1.8,0.1v-0.7h-0.3c-0.7,0-0.9-0.1-0.9-1.1v-3.4c0-1-0.1-1.6-0.5-2.1
		s-1-0.8-1.9-0.8c-1.3,0-2.3,0.9-3,1.5c-0.5-1.1-1.4-1.5-2.5-1.5s-1.9,0.8-2.7,1.4v-1.4h-0.2c-0.7,0.5-1.6,0.9-2.3,1.1v0.5
		c0.2-0.1,0.5-0.2,0.6-0.2c0.4,0,0.6,0.3,0.6,1.8v3c0,1-0.1,1.2-0.9,1.2h-0.3V122.3z M77.2,119.9c0,0.4,0,0.6,0.1,0.8
		c-0.6,0.4-1,0.8-1.6,0.8c-0.9,0-1.4-0.8-1.4-1.3c0-0.8,0.8-1.1,1.2-1.3l1.8-0.8L77.2,119.9L77.2,119.9z M77.2,117.6l-2.5,1
		c-1.2,0.5-1.8,0.9-1.8,1.9c0,0.9,0.7,1.9,2,1.9c0.7,0,1.2-0.2,2.4-1c0.1,0.5,0.2,1,0.4,1c0.1,0,0.1,0,0.3-0.1l1.7-0.8V121
		c-0.3,0.1-0.6,0.2-0.8,0.2c-0.3,0-0.4-0.2-0.4-1.1v-3.5c0-0.8-0.3-2.3-2.5-2.3c-0.3,0-0.9,0.2-1.6,0.6c-0.8,0.5-1.2,0.8-1.2,1.4
		c0,0.3,0.1,0.6,0.3,0.9l1.1-0.5c-0.1-0.3-0.2-0.5-0.2-0.8c0-0.5,0.9-1,1.3-1c1,0,1.5,1.1,1.5,2C77.2,116.9,77.2,117.6,77.2,117.6z
		 M62.3,122.3c0.5,0,1.3-0.1,2-0.1c0.7,0,1.5,0,1.9,0.1v-0.6H66c-0.8,0-0.9-0.2-0.9-1.1v-4.4c0.6-0.4,1.4-1,2.2-1
		c0.7,0,1.2,0.3,1.4,0.7c0.3,0.5,0.3,1,0.3,1.5v2.7c0,1.3-0.2,1.5-0.9,1.5h-0.3v0.5c0.4,0,1.2-0.1,1.7-0.1c0.7,0,1.6,0,2.1,0.1v-0.4
		h-0.3c-0.8,0-1-0.2-1-1.3v-2.7c0-1.1-0.1-1.8-0.5-2.4s-1-1-2-1s-1.9,0.7-2.7,1.3v-3.9c0-1.7,0-2.9,0.1-3.3H65
		c-1,0.6-1.8,0.9-2.6,1.3v0.6c0.1-0.1,0.4-0.2,0.7-0.2c0.4,0,0.6,0.3,0.6,0.9v9.3c0,1.2-0.5,1.5-1.1,1.5h-0.3
		C62.3,121.8,62.3,122.3,62.3,122.3z M55.6,116.7c0-1.1,0.7-1.9,1.6-1.9c0.9,0,1.7,0.7,1.7,2.4c0,1-0.5,1.8-1.6,1.8
		S55.6,117.8,55.6,116.7 M54.8,123.8c0-1.5,1.8-1.5,2.5-1.5c1.5,0,2.8,0.3,2.8,1.5s-1.3,1.6-2.6,1.6
		C55.6,125.5,54.8,124.6,54.8,123.8 M61.6,114.6h-2.9c-0.4-0.2-0.8-0.3-1.5-0.3c-1.6,0-3,1.1-3,2.7c0,1,0.7,1.9,1.8,2.3l-0.1,0.1
		c-1,0.7-1.5,1-1.5,1.6c0,0.8,0.9,1,1.2,1.1l0,0c-0.9,0.2-1.8,0.7-1.8,1.8c0,1.8,2.3,2.2,3.6,2.2c1.9,0,3.7-0.8,3.7-2.6
		c0-1.9-1.4-2.3-3.7-2.4c-1-0.1-1.8-0.1-1.8-0.6c0-0.3,0.8-0.8,1-1c0.1,0,0.4,0.1,0.7,0.1c1.1,0,2.8-0.8,2.8-2.6
		c0-0.9-0.4-1.3-0.6-1.6H61L61.6,114.6z M44,122.3c0.6,0,1.3-0.1,1.9-0.1c0.6,0,1.3,0,1.7,0.1v-0.6h-0.3c-0.7,0-0.8-0.1-0.8-0.9
		v-4.5c0.4-0.4,1.2-1,2-1c0.6,0,1,0.2,1.2,0.4c0.5,0.5,0.6,0.9,0.6,1.9v2.7c0,1.1-0.1,1.5-0.8,1.5h-0.3v0.5c0.5,0,1.3-0.1,1.9-0.1
		c0.6,0,1.4,0,1.8,0.1v-0.6h-0.3c-0.9,0-1-0.2-1-0.9v-3.1c0-0.7-0.1-1.5-0.4-2.1c-0.5-1-1.5-1.3-2.1-1.3c-1.1,0-2,0.9-2.7,1.5v-1.5
		h-0.2c-0.7,0.5-1.6,0.9-2.3,1.1v0.5c0.2-0.1,0.5-0.2,0.6-0.2c0.4,0,0.6,0.3,0.6,1.8v3c0,1-0.1,1.2-0.9,1.2h-0.3L44,122.3L44,122.3z
		 M39.8,111.6c0,0.5,0.4,0.9,0.9,0.9s0.9-0.4,0.9-0.9s-0.4-0.9-0.9-0.9C40.2,110.8,39.8,111.2,39.8,111.6 M38.6,122.3
		c0.7,0,1.5-0.1,2-0.1c0.6,0,1.4,0,2,0.1v-0.6h-0.4c-0.6,0-1-0.2-1-1.5v-6H41c-0.5,0.3-1.7,1-2.4,1.3v0.5c0.2-0.1,0.5-0.2,0.8-0.2
		s0.5,0.2,0.5,0.9v3.5c0,1.2-0.4,1.5-1,1.5h-0.3C38.6,121.7,38.6,122.3,38.6,122.3z M23,122.3c0.6,0,1.2-0.1,1.9-0.1s1.3,0,2,0.1
		v-0.6h-0.3c-0.6,0-0.9-0.2-0.9-1v-4.4c0.7-0.5,1.3-1,2.1-1c1.1,0,1.8,0.7,1.8,1.9v3.7c0,0.8-0.2,0.9-1,0.9h-0.2v0.5
		c0.7,0,1.3-0.1,2-0.1c0.6,0,1.2,0,1.8,0.1v-0.6h-0.5c-0.6,0-0.9-0.2-0.9-0.9v-4.5c0.7-0.5,1.3-1,2.1-1c1.2,0,1.8,0.6,1.8,1.9v3.3
		c0,1-0.1,1.4-1,1.4h-0.2v0.5c0.7,0,1.3-0.1,1.9-0.1c0.6,0,1.2,0,1.8,0.1v-0.7h-0.3c-0.7,0-0.9-0.1-0.9-1.1v-3.4
		c0-1-0.1-1.6-0.5-2.1s-1-0.8-1.9-0.8c-1.3,0-2.3,0.9-3,1.5c-0.5-1.1-1.4-1.5-2.5-1.5s-1.9,0.8-2.7,1.4v-1.4h-0.2
		c-0.7,0.5-1.6,0.9-2.3,1.1v0.5c0.2-0.1,0.5-0.2,0.6-0.2c0.4,0,0.6,0.3,0.6,1.8v3c0,1-0.1,1.2-0.9,1.2h-0.3v0.6H23z M16.1,122.3
		c0.6,0,1.3-0.1,1.9-0.1c0.6,0,1.3,0,1.7,0.1v-0.6h-0.3c-0.7,0-0.8-0.1-0.8-0.9v-3.1c0-1.7,1.1-2.2,1.8-2.2c0.5,0,1,0.1,1.1,0.6h0.3
		v-1.6c-0.2-0.1-0.6-0.2-1-0.2c-0.9,0-1.6,0.6-2.2,1.8l0,0v-1.8h-0.2c-0.7,0.5-1.6,0.9-2.3,1.3v0.5c0.2-0.1,0.5-0.2,0.7-0.2
		c0.4,0,0.6,0.3,0.6,0.8v3.8c0,1-0.1,1.2-0.9,1.2h-0.3v0.6H16.1z M11.9,111.6c0,0.5,0.4,0.9,0.9,0.9s0.9-0.4,0.9-0.9
		s-0.4-0.9-0.9-0.9C12.3,110.8,11.9,111.2,11.9,111.6 M10.7,122.3c0.7,0,1.5-0.1,2-0.1c0.6,0,1.4,0,2,0.1v-0.6h-0.3
		c-0.6,0-1-0.2-1-1.5v-6h-0.2c-0.5,0.3-1.7,1-2.4,1.3v0.5c0.2-0.1,0.5-0.2,0.8-0.2s0.5,0.2,0.5,0.9v3.5c0,1.2-0.4,1.5-1,1.5h-0.4
		V122.3z M3,111.3c0-0.6,0.1-0.9,1.3-0.9c1.4,0,2.9,0.8,2.9,2.9c0,2-2.2,2.1-3.2,2.1c-0.3,0-0.6,0-1-0.1V111.3z M3,116.2
		c0.2-0.1,0.5-0.1,1-0.1c0.9,0,1.6,0.1,2.4,0.6c1,0.7,1.3,1.7,1.3,2.7c0,1.5-1.1,2.3-2.9,2.3c-1.5,0-1.8-0.8-1.8-1.6V116.2z
		 M0,122.3c0.6,0,1.4-0.1,2.2-0.1s1.7,0.1,2.5,0.1c1.6,0,2.4-0.2,3.1-0.8c1.2-0.9,1.4-2,1.4-2.7c0-1.9-1.3-3-2.9-3.2l0,0
		c1.4-0.7,2.2-1.5,2.2-3c0-2.3-1.9-2.8-3.7-2.8c-0.9,0-1.9,0.1-2.6,0.1c-0.8,0-1.6,0-2.2-0.1v0.5h0.3c0.8,0,1.2,0.3,1.2,1.4v8.5
		c0,1.1-0.3,1.4-1.2,1.4H0V122.3z"/>
	<path class="st0" d="M111.9,91.7c-0.1,0-0.1-0.1-0.1-0.2C111.8,91.5,111.9,91.6,111.9,91.7 M119.4,84.2c0,0.8-0.1,1.4-0.3,2
		c-0.2,0.6-0.4,1.2-0.6,1.8c-0.1,0.2-0.1,0.4-0.1,0.4s0,0,0.1-0.1l-0.2,0.3c-0.1,0.1-0.1,0.2-0.2,0.3c0,0.1-0.1,0.1-0.2,0.1
		c-0.1,0.1-0.1,0.2,0,0.2c-0.3,0.3-0.6,0.6-1,0.9s-0.8,0.6-1.2,0.7c-0.1,0.1-0.3,0.1-0.5,0.1s-0.3,0-0.4-0.1c-0.1,0.1-0.1,0.1-0.2,0
		c-0.1,0-0.1-0.1-0.3-0.1v-0.1v-0.1c-0.1,0.1-0.1,0.1-0.1,0s0,0-0.1,0c0,0.1,0,0.1,0.1,0.1s0.1,0,0,0.1c-0.1,0-0.1,0-0.2,0
		s-0.1,0-0.1-0.1v0.1c-0.1-0.1-0.1-0.1-0.2-0.1s-0.2,0-0.3-0.1c0.1-0.3,0.1-0.5,0.1-0.7s0-0.4,0-0.6c0-0.1,0-0.1,0-0.1s0-0.1,0-0.2
		l0,0V89c0-0.2,0-0.3,0-0.4c0-0.2,0-0.3,0-0.3v0.1c0,0.1,0,0.1,0,0.2c0,0,0.1,0,0.2-0.2c0.1-0.1,0.2-0.3,0.3-0.4
		c0.1-0.1,0.2-0.2,0.4-0.4c0.1-0.1,0.2-0.2,0.3-0.3c0.1-0.1,0.2-0.2,0.3-0.3h0.1c0-0.1,0.1-0.1,0.1-0.1c0.1-0.1,0.3-0.3,0.5-0.5
		s0.4-0.4,0.7-0.6c0.1-0.1,0.3-0.2,0.4-0.3c0.1-0.1,0.3-0.2,0.4-0.3h0.1c0.2-0.1,0.4-0.2,0.6-0.4c0.2-0.1,0.4-0.2,0.6-0.4v-0.2
		c0.1-0.1,0.3-0.1,0.4-0.2s0.3-0.2,0.5-0.3c0,0.1,0,0.1,0,0.2C119.5,84.1,119.5,84.1,119.4,84.2L119.4,84.2z M129.6,76.6
		c0.1,0,0.2,0,0.1-0.1c-0.2,0.3-0.7,0.7-1.3,1.1s-1.3,0.8-2,1.2c-0.7,0.4-1.4,0.7-2.1,1c-0.7,0.3-1.2,0.5-1.5,0.5
		c-0.1-0.2-0.2-0.5-0.3-0.7s-0.1-0.5-0.2-0.7c-0.2-0.6-0.4-1.3-0.6-2c-0.2-0.7-0.4-1.4-0.6-2c-0.1-0.1-0.1-0.1-0.1-0.2v-0.2
		c-0.1-0.1-0.1-0.2-0.1-0.4c0-0.1,0-0.2,0-0.4c0-0.1,0-0.3-0.1-0.5c0-0.2,0-0.3,0-0.5c-0.1-0.3-0.1-0.5-0.1-0.8
		c-0.1-0.1-0.2-0.3-0.3-0.4c0-0.2-0.1-0.4-0.1-0.7c-0.2-0.2-0.4-0.3-0.7-0.1c-0.1,0-0.1,0-0.2-0.1c0-0.1-0.1-0.1-0.2-0.2
		c0,0.1,0,0.1-0.1,0.1c0,0-0.1-0.1-0.2,0c-0.1-0.1-0.2-0.1-0.3-0.1c-0.1,0-0.2,0-0.3,0c-0.1,0.1-0.3,0.2-0.4,0.3
		c-0.1,0.1-0.2,0.2-0.3,0.2c-0.2,0.3-0.3,0.5-0.4,0.7c0,0.1-0.1,0.3-0.1,0.4s-0.1,0.2-0.1,0.3c-0.1,0.2-0.1,0.5,0.1,0.9
		c0.2,0.3,0.3,0.7,0.5,1c0.2,0.4,0.3,0.7,0.5,1c0.1,0.3,0.1,0.5-0.1,0.6c-0.1,0.1-0.1,0.2-0.3,0.4c-0.1,0.2-0.2,0.4-0.4,0.6
		c-0.1,0.2-0.3,0.3-0.4,0.5c-0.1,0.1-0.2,0.2-0.3,0.3c-0.2,0.3-0.4,0.5-0.4,0.6c-0.1,0.1-0.2,0.3-0.2,0.4c-0.1,0.1-0.2,0.3-0.3,0.4
		c-0.1,0.2-0.3,0.4-0.5,0.6s-0.3,0.4-0.3,0.5s-0.2,0.3-0.4,0.6c0,0-0.1,0.1-0.2,0.2s-0.2,0.3-0.4,0.4c-0.1,0.2-0.3,0.3-0.4,0.4
		s-0.2,0.2-0.2,0.2c-0.1,0.1-0.3,0.3-0.4,0.4s-0.2,0.2-0.3,0.4c-0.1,0.3-0.4,0.6-0.8,0.8c-0.4,0.2-0.7,0.5-0.7,0.7
		c0.1,0,0.2,0,0.3,0c0.1,0.1,0.3,0.1,0.4,0c0,0.1,0,0,0.1,0c0-0.1,0.1-0.1,0.2-0.1c0.1,0.1,0.1,0.1,0.2,0.1s0.1,0,0,0.1
		c0,0.1,0,0.1-0.1,0.1s-0.1,0,0,0c0,0.1,0,0.1,0,0.1c-0.1,0-0.1,0.1,0,0.1c0.1-0.1,0.1-0.1,0.3-0.2c0.1-0.1,0.2-0.1,0.2-0.1
		c0.1-0.1,0.1-0.1,0.1,0s0,0.1,0,0c0.1,0,0,0.1-0.1,0.1s-0.1,0,0,0c0,0,0,0.1,0.1,0.1c0.1-0.2,0.3-0.3,0.4-0.4s0.2-0.2,0.3-0.2
		c0.1-0.1,0.1-0.1,0.2-0.1c0.2-0.1,0.4-0.1,0.6-0.2s0.3-0.2,0.3-0.4c0,0,0,0,0.1-0.1s0.2-0.2,0.4-0.4c0.1-0.1,0.3-0.3,0.6-0.5
		c0.2-0.2,0.4-0.4,0.5-0.6s0.3-0.3,0.5-0.5c0,0,0.1-0.1,0.2-0.2s0.2-0.3,0.4-0.5c0.1-0.2,0.2-0.3,0.4-0.5c0.1-0.1,0.2-0.2,0.2-0.3
		c0.1,0,0.2-0.1,0.4-0.4c0.2-0.3,0.3-0.5,0.4-0.7c0-0.1,0.1-0.1,0.1,0s0.1,0.2,0.1,0.4c0,0.2,0,0.4,0,0.5c0,0.2,0,0.3,0,0.4
		c0,0,0.1,0,0.2,0c0,0.3,0.1,0.5,0.1,0.7c0.1,0.2,0.1,0.4,0.2,0.6c0,0.2,0.1,0.4,0.1,0.6s0.1,0.5,0.1,0.8c-1.2,0.7-2.4,1.4-3.6,2.2
		c-1.2,0.8-2.2,1.7-3.1,2.8v0.2c-0.1,0-0.2,0.2-0.4,0.4c-0.1,0.2-0.2,0.5-0.4,0.8c-0.1,0.3-0.2,0.6-0.2,0.9
		c-0.1,0.3-0.1,0.6-0.1,0.9c-0.1,0.1-0.1,0.1-0.1,0.2s0,0.1,0.1,0.1v-0.1c0,0,0,0,0-0.1c0,0.1,0,0.1,0,0.2s0.1,0.2,0.1,0.2
		c0,0.1-0.1,0.1-0.1,0.1s0,0,0,0.1s0.1,0.1,0.1,0.1v0.1c0.1,0.1,0.2,0.2,0.4,0.4c0.1,0.1,0.2,0.1,0.3,0.2c0.1,0.1,0.1,0.1,0.3,0.2
		c0.2,0.5,0.5,0.8,1,1c0.1,0.1,0.3,0.1,0.4,0.1s0.3,0.1,0.5,0.1v0.2h-0.1c0.1,0,0.1,0.1,0.1,0.2s0,0.2,0.1,0.2
		c0.2,0,0.5-0.1,0.7-0.2c0.3-0.1,0.5-0.2,0.7-0.2c0.1,0,0.1,0,0.1,0.1s0,0.1,0.1,0.1s0.1,0,0.1-0.1c0,0,0.1-0.1,0.2-0.1
		c0,0.1,0.1,0.2,0.1,0.3c0.2-0.1,0.4-0.2,0.5-0.4c0.1,0,0.1,0,0.1,0.1s0,0.1,0,0.1c0.1-0.1,0.1-0.1,0.3-0.1c0.1-0.2,0.2-0.3,0.5-0.4
		c0.1-0.1,0.1-0.2,0.2-0.3c0.1-0.1,0.1-0.1,0.2-0.2c0.1,0,0.1,0,0.1,0s0,0,0.1,0c0.1-0.1,0.1-0.2,0.2-0.2s0.2,0,0.3-0.1
		c0.1-0.1,0.1-0.2,0.2-0.3c0.1-0.1,0.1-0.2,0.2-0.3l0,0l0,0c0.1-0.1,0.1-0.1,0.1-0.2s0.1-0.2,0.2-0.3c0-0.1,0.1-0.1,0.1-0.1h0.1
		c0.1-0.1,0.1-0.2,0.2-0.3s0.1-0.1,0.2,0c0,0.1,0,0.2,0,0.2s0,0,0,0.1c0,0,0-0.1,0-0.2c0.1-0.1,0.3-0.2,0.4-0.3
		c0.1-0.1,0.2-0.2,0.2-0.3c0.1,0.1,0.1,0.1,0.1,0c0-0.2,0.1-0.2,0.2-0.2c0.1,0,0.1,0,0,0.1v0.1c0.1-0.1,0.1-0.3,0.2-0.4
		c0-0.2,0.1-0.3,0.2-0.3c0.1-0.1,0.1-0.2,0-0.3c0.1,0.1,0.2,0,0.2-0.1s0.1-0.2,0.2-0.2v0.1v0.1c0.1-0.1,0.2-0.2,0.3-0.4
		c0.1-0.2,0.2-0.4,0.2-0.6s0.1-0.4,0.1-0.6s0.1-0.3,0.1-0.4c0.2-0.8,0.4-1.6,0.4-2.5s0-1.7-0.1-2.5c0.4-0.1,1-0.3,1.8-0.7
		c0.7-0.4,1.5-0.7,2.2-1.1s1.4-0.8,1.9-1.2c0.5-0.4,0.8-0.6,0.7-0.8c0.1-0.1,0.1-0.1,0.3-0.1c0,0,0-0.1,0.1-0.1s0.1-0.1,0.1-0.1
		c-0.1,0-0.1,0-0.1,0s0,0,0.1,0h0.1c0,0,0,0-0.1,0c-0.2,0.1-0.4,0.1-0.4,0.1l0,0l0,0c0,0-0.1,0-0.4,0.1c-0.1,0-0.1-0.1-0.1-0.2
		c0.1-0.1,0.3-0.1,0.5-0.2s0.4-0.2,0.5-0.2c0.2-0.1,0.2-0.1,0.2-0.1s-0.1,0-0.1,0.1c-0.1,0-0.1,0.1-0.1,0.1s0,0,0.2,0
		c0.1,0,0.2-0.1,0.2-0.1l0,0l0,0c0,0,0,0,0.2-0.1c-0.1,0-0.2,0-0.3,0.1c-0.1,0-0.2,0-0.2,0c0.1-0.1,0.2-0.2,0.4-0.2s0.3,0,0.4-0.2
		c0-0.1,0-0.2,0.1-0.2c0,0,0.1-0.1,0.2-0.2c0-0.1-0.1-0.1-0.1-0.2c0.1-0.1,0.2-0.1,0.3,0c0-0.1,0-0.1-0.1-0.1h-0.2
		c-0.2,0-0.4,0.1-0.6,0.1c-0.2,0-0.4,0.1-0.6,0.1c0-0.1,0-0.1-0.1-0.1s-0.1,0-0.1-0.1c0.1,0,0.1-0.1,0.2-0.2
		C129.8,76.7,129.7,76.7,129.6,76.6c0,0.1-0.1,0.1-0.2,0.1C129.4,76.7,129.4,76.6,129.6,76.6 M100.7,71.3c-0.1,0-0.2,0-0.2,0
		s-0.1,0-0.1,0.1c-0.1,0.1-0.2,0.1-0.4,0.2c-0.1,0.1-0.1,0.3-0.2,0.4s-0.1,0.3-0.2,0.4c0,0.1-0.1,0.1-0.1,0.2s-0.1,0.1-0.1,0.2
		c-0.1,0.1-0.1,0.1-0.1,0.2s0,0.2-0.1,0.2c-0.1,0.1-0.1,0.3-0.1,0.5s0,0.4-0.1,0.5c0,0.1-0.1,0.3-0.1,0.5s-0.1,0.3-0.1,0.5
		c-0.2,0.9-0.5,1.9-0.7,2.8s-0.4,1.9-0.6,2.9c-0.1,0.2-0.1,0.4-0.1,0.5c0,0.3,0,0.5-0.1,0.8c-0.1,0.2-0.1,0.5-0.2,0.7
		c-0.1,0.3-0.1,0.6-0.2,1c-0.1,0.3-0.1,0.6-0.2,1c-0.1,0.3-0.1,0.7-0.2,1c-0.1,0.4-0.1,0.7-0.1,1.1v0.5c0,0.3,0,0.6,0.1,0.9
		c0.1,0.1,0.1,0.2,0.2,0.3c0,0.1,0.1,0.2,0.3,0.3v-0.1v-0.1c0,0,0,0,0,0.1V89l0,0l0,0l0.3,0.1c0-0.1,0.1-0.1,0.1,0
		c0.1,0,0.1,0,0.2,0l0,0c0.1-0.1,0.2-0.1,0.2-0.2c0.1-0.1,0.1-0.1,0.3-0.2l0,0l0,0c0.1,0,0.1,0,0.1,0h0.1c0-0.1,0-0.2,0-0.3
		c0-0.1,0-0.2,0.1-0.3c0.1-0.1,0.1-0.2,0.1-0.1l0,0c0-0.1,0-0.1,0.1-0.1c0,0.1,0,0.1,0,0.2s0,0.1,0,0.2l0.1-0.3l0,0l0,0l0.1-0.1
		c0,0,0.1-0.1,0-0.2v0.1l0,0v-0.1v-0.1c0.1,0,0.1,0.1,0.1,0.1v0.1c0,0,0,0,0.1-0.1v-0.3l0.1-0.1V87h0.1h0.1c0.1-0.4,0.3-0.8,0.5-1.1
		c0.1-0.1,0.1-0.1,0.1-0.1v-0.2l0.1-0.2c0,0,0-0.1,0.1-0.1c0-0.1,0-0.2,0-0.4c0.1-0.2,0.3-0.4,0.4-0.6s0.2-0.4,0.4-0.6l0.1-0.1
		c0,0,0-0.1,0.1-0.1l0,0l0.4-0.5c0.1-0.2,0.2-0.4,0.3-0.7l0,0l0.1-0.1c0.2-0.4,0.4-0.7,0.7-1c0.3-0.3,0.5-0.6,0.7-1l0,0
		c0.1-0.1,0.1-0.1,0.1-0.2s0.1-0.1,0.2-0.2c0.1-0.2,0.3-0.4,0.4-0.6s0.3-0.4,0.4-0.6c0.1-0.1,0.3-0.3,0.4-0.6
		c0.1-0.2,0.3-0.4,0.5-0.5c0.2-0.2,0.4-0.3,0.5-0.5c0.1-0.1,0.2-0.1,0.3-0.2c0.1-0.1,0.2-0.2,0.3-0.3c0.2-0.1,0.3-0.3,0.5-0.5
		c0.1-0.2,0.3-0.4,0.5-0.5s0.4-0.1,0.6-0.2s0.4-0.2,0.6-0.2c-0.1,0.3-0.2,0.5-0.3,0.8c-0.1,0.2-0.2,0.5-0.3,0.8
		c-0.1,0.3-0.2,0.5-0.2,0.8c-0.1,0.3-0.1,0.6-0.2,0.9c-0.2,0.5-0.4,1-0.6,1.5s-0.4,1-0.6,1.5c-0.1,0.2-0.2,0.5-0.3,0.8
		c-0.1,0.3-0.2,0.5-0.2,0.8l-0.1,0.9c-0.1,0.4-0.2,0.8-0.4,1.2c-0.2,0.4-0.2,0.8-0.2,1.3c0,0.2,0,0.3,0,0.5c0,0.1,0.1,0.3,0.1,0.4
		s0.1,0.1,0.1,0.2s0,0.2,0.1,0.2c0,0.1,0,0.1,0,0.2s0.1,0.1,0.1,0.2c0.3,0.3,0.7,0.5,1.2,0.8c0.1,0,0.3,0,0.5,0s0.3,0,0.5,0.1
		c0.3,0,0.6,0,0.9-0.1c0.2-0.1,0.4-0.1,0.6-0.2s0.4-0.1,0.6-0.2s0.3-0.1,0.4-0.1h0.1l0,0l0,0h0.1c0,0,0,0,0.1,0
		c0.1-0.1,0.2-0.1,0.2-0.2c0.1-0.1,0.2-0.2,0.4-0.2c0.3-0.2,0.5-0.4,0.6-0.4s0.2-0.2,0.5-0.5c0-0.1,0-0.1,0.1-0.2s0.2-0.1,0.3-0.2
		c0.1-0.1,0.2-0.1,0.3-0.2c0.3-0.2,0.6-0.5,0.9-0.7s0.6-0.4,0.9-0.7c0-0.1,0-0.1,0.1-0.2c0.1,0,0.1-0.1,0.1-0.2
		c-0.3,0.3-0.7,0.5-1,0.8s-0.7,0.5-1.1,0.7c0.1-0.1,0.2-0.3,0.4-0.4c0.1-0.1,0.2-0.2,0.4-0.3c0.1-0.1,0.1-0.1,0.1-0.1l0.1-0.1
		c0,0,0-0.1,0.1-0.1c0,0,0-0.1,0.1-0.1c0.2-0.2,0.4-0.3,0.5-0.4l0,0l0,0l0,0l0,0c0.1-0.1,0.2-0.3,0.4-0.4c0.1-0.1,0.2-0.3,0.4-0.4
		c0-0.1,0.1-0.2,0.1-0.3c0.1-0.1,0.1-0.2,0.1-0.3l0,0l0,0c-0.1,0-0.1,0-0.1,0h-0.1h-0.2c-0.1,0.1-0.2,0.1-0.3,0.2
		c-0.1,0.1-0.2,0.1-0.3,0.2c-0.1,0-0.1,0-0.1,0h-0.1c-0.1,0-0.1,0.1-0.1,0.1l-0.1,0.1c0,0-0.1,0-0.2,0s-0.1,0-0.1,0.1
		c-0.1,0.1-0.2,0.1-0.2,0.2c-0.1,0.1-0.2,0.1-0.2,0.2c-0.1,0.1-0.3,0.3-0.5,0.3c-0.2,0.1-0.4,0.2-0.5,0.2c-0.1-0.1-0.1-0.1-0.1-0.1
		c-0.1,0.1-0.2,0.1-0.2,0.2s-0.1,0.2-0.3,0.2c-0.1,0.1-0.2,0.2-0.3,0.2l-0.1,0.1c0,0-0.1,0-0.2,0.1c-0.1,0-0.2,0.1-0.3,0.2
		c-0.3,0.1-0.7,0.3-1,0.4s-0.7,0.2-1.2,0.2c-0.1-0.1-0.2-0.3-0.4-0.3s-0.3-0.2-0.3-0.5c0-0.1,0-0.2,0-0.2c0-0.1,0-0.2,0-0.2
		c0-0.2,0.1-0.5,0.1-0.7s0.1-0.4,0.1-0.5s0-0.1,0.1-0.2c0-0.1,0.1-0.1,0.1-0.2s0-0.2,0.1-0.3c0-0.2,0.1-0.3,0.2-0.5l0,0
		c0.2-0.4,0.4-0.8,0.5-1.3c0.2-0.4,0.3-0.9,0.5-1.3c0.1-0.2,0.2-0.5,0.2-0.7s0.2-0.4,0.2-0.6c0.1-0.3,0.2-0.5,0.3-0.6
		c0-0.1,0.1-0.1,0.1-0.2s0-0.1,0.1-0.2c0-0.1,0-0.1,0-0.2s0-0.1,0-0.2v-0.1c0,0,0,0,0-0.1s0-0.2,0-0.2c0-0.1,0-0.1,0-0.2
		s0-0.1,0-0.2l0.1-0.2c0-0.1,0-0.1,0-0.2s0-0.1,0-0.2c0.1-0.6,0.2-1.3,0.3-1.9v-0.5c0.1-0.1,0.1-0.2,0.1-0.4c0-0.1,0-0.1-0.1-0.2
		c-0.1,0-0.1-0.1-0.1-0.2c0,0,0,0,0-0.1s0-0.1,0-0.2s0-0.2,0-0.2c0-0.3-0.2-0.4-0.4-0.5c-0.3-0.2-0.6-0.2-1.1-0.2
		c-0.4,0-0.7,0.1-1,0.3c-0.3,0.1-0.6,0.3-0.8,0.4c-0.1,0.1-0.1,0.1-0.2,0.1s-0.1,0.1-0.2,0.1c-0.1,0.1-0.1,0.1-0.2,0.1
		s-0.1,0.1-0.2,0.1c-0.3,0.3-0.6,0.6-0.9,0.9s-0.6,0.6-0.9,0.9c0,0.1-0.1,0.1-0.1,0.2c-0.1,0-0.1,0.1-0.1,0.1s-0.1,0-0.1,0.1
		c-0.2,0.1-0.4,0.3-0.4,0.4c-0.1,0.1-0.2,0.3-0.2,0.4c-0.1,0.1-0.2,0.2-0.3,0.3c-0.1,0.1-0.2,0.2-0.3,0.3c-0.1,0.1-0.2,0.2-0.3,0.3
		c-0.1,0.1-0.2,0.2-0.2,0.4c-0.1,0.1-0.2,0.2-0.3,0.4c0-0.1,0-0.2,0-0.3c0-0.1,0-0.2,0-0.3c0-0.1,0-0.1,0-0.1v-0.1
		c0-0.2,0.1-0.5,0.1-0.7s0-0.4,0.1-0.7V75v-0.6c0-0.3,0-0.6,0-0.7c0-0.2,0-0.3,0-0.4c-0.1-0.1-0.1-0.1-0.1-0.2s0-0.1,0-0.1v-0.1
		c-0.1-0.1-0.1-0.1-0.1-0.2s-0.1-0.2-0.1-0.2c-0.1-0.2-0.1-0.4-0.2-0.5c-0.1-0.2-0.2-0.4-0.4-0.4c-0.1-0.1-0.1-0.1-0.2-0.1
		s-0.1,0-0.2,0s-0.1,0-0.2,0s-0.3,0-0.4,0h-0.3C100.9,71.3,100.8,71.3,100.7,71.3 M87,87.7C87,87.7,87,87.8,87,87.7
		C87,87.8,87,87.8,87,87.7 M91.2,72.7c-0.1,0.1-0.2,0.1-0.4,0.2h-0.1h-0.1l0,0V73h-0.1h-0.1c-0.1,0.1-0.2,0.1-0.3,0.3
		c-0.1,0.1-0.2,0.2-0.2,0.3l-0.1,0.1c0,0.1,0,0.1,0,0.2c-0.2,0.6-0.4,1.3-0.6,1.8s-0.4,1.2-0.7,1.8c-0.1,0.2-0.1,0.3-0.1,0.4
		s-0.1,0.3-0.1,0.4s-0.1,0.2-0.1,0.4c-0.1,0.1-0.1,0.2-0.1,0.3c0,0.1-0.1,0.2-0.1,0.4c-0.1,0.4-0.2,0.7-0.3,1.1
		c-0.1,0.4-0.2,0.8-0.3,1.2c0,0.1,0,0.3,0,0.4v0.4c0,0.3,0,0.6,0,0.8c0,0.3-0.1,0.5-0.1,0.8c-0.1,0.3-0.1,0.6-0.1,0.9
		s-0.1,0.6-0.1,0.9v0.5c0,0.1,0,0.2,0,0.4s0,0.2,0,0.4c0,0.1,0,0.2,0,0.4c0,0.1,0,0.2,0.1,0.3c0.1,0.2,0.2,0.4,0.3,0.5
		c0.1,0.1,0.2,0.3,0.3,0.5c0,0.1,0,0.1,0,0.1v0.1c0.1,0.2,0.2,0.4,0.3,0.5c0.1,0.1,0.1,0.1,0.2,0.2c0,0,0.1,0.1,0.2,0.2
		s0.3,0.2,0.6,0.3h0.2c0.3,0,0.5-0.1,0.8-0.2c0.1,0,0.1,0,0.1,0l0,0c0,0,0,0,0.1,0c0.2-0.1,0.3-0.2,0.4-0.2h0l0.1-0.1
		c0,0,0.1-0.1,0.2-0.1c0.6-0.4,1.1-0.7,1.5-1.1c0.5-0.4,0.9-0.8,1.4-1.2c0.1-0.1,0.2-0.2,0.3-0.2c0.1-0.1,0.2-0.1,0.3-0.2
		c0.1-0.1,0.1-0.1,0.1-0.1l0.1-0.1c0.1,0,0.2-0.1,0.3-0.2l0.1-0.1c0.1-0.1,0.1-0.1,0.2-0.3c0.1-0.1,0.3-0.1,0.4-0.2s0.2-0.2,0.3-0.3
		v-0.1c0,0,0,0,0-0.1c0.2-0.3,0.4-0.5,0.7-0.7c0.1-0.1,0.1-0.1,0.2-0.2s0.2-0.2,0.2-0.2c0.1-0.1,0.3-0.3,0.4-0.5s0.2-0.4,0.4-0.6
		c0,0,0.1-0.1,0.2-0.3c0.1-0.1,0.1-0.2,0.2-0.3c0.1-0.1,0.1-0.2,0.2-0.3c0,0,0-0.1,0.1-0.1c0.1-0.1,0.1-0.2,0.1-0.1
		c0-0.1,0-0.2,0-0.2c0-0.1,0-0.1,0-0.2v-0.1c0,0,0,0,0-0.1c0.2-0.3,0.4-0.5,0.6-0.7c-0.1-0.1-0.1-0.2,0-0.2c0-0.1,0.1-0.1,0.1-0.2
		c-0.2,0-0.4,0-0.5,0.1s-0.3,0.1-0.4,0.2h-0.1c-0.1,0-0.1,0-0.2,0c0,0-0.1,0.1-0.2,0.1c-0.2,0.2-0.5,0.4-0.7,0.7
		c-0.2,0.2-0.4,0.4-0.7,0.6c-0.1,0-0.1,0.1-0.3,0.2c-0.2,0.1-0.3,0.2-0.5,0.4c-0.2,0.1-0.3,0.2-0.5,0.4c-0.1,0.1-0.3,0.2-0.4,0.3
		c-0.1,0.1-0.2,0.2-0.4,0.3L94.3,84c-0.3,0.3-0.6,0.6-0.8,0.7c-0.2,0.1-0.5,0.4-0.8,0.6c-0.1,0.1-0.2,0.2-0.5,0.4
		c-0.1,0.1-0.1,0.1-0.2,0.2s-0.2,0.2-0.2,0.2c-0.1,0.1-0.3,0.2-0.4,0.3c-0.1,0.1-0.3,0.2-0.5,0.2c-0.1,0.1-0.1,0.1-0.1,0.1h-0.3
		h-0.3c-0.1-0.4,0-0.7,0.2-0.9c0.2-0.2,0.3-0.5,0.4-0.8c0-0.1,0-0.1,0-0.2s0-0.1,0-0.2s0-0.1,0-0.1v-0.1c0.1-0.6,0.3-1.1,0.5-1.4
		c0.2-0.4,0.4-0.8,0.6-1.3c0.1-0.3,0.2-0.5,0.3-0.8c0.1-0.3,0.2-0.6,0.2-0.9c0-0.1,0.1-0.1,0.1-0.2s0-0.2,0.1-0.2
		c0-0.1,0.1-0.1,0.1-0.2s0-0.2,0-0.2c0-0.1,0-0.3,0.1-0.4c0-0.1,0.1-0.2,0.1-0.3c0,0,0-0.1,0.1-0.2c0-0.1,0-0.2,0-0.2
		c0-0.1,0.1-0.2,0.1-0.3c0-0.1,0.1-0.2,0.1-0.3v-0.1v-0.1v-0.1v-0.1c0,0,0,0,0-0.1s0-0.1,0-0.1v-0.1l0,0v-0.1c0,0,0-0.1,0.1-0.1
		v-0.1c0,0,0,0,0-0.1s0-0.1,0-0.2v-0.3c0-0.5-0.1-0.9-0.3-1.1c0,0,0-0.1-0.1-0.2c0-0.1,0-0.1,0-0.2s0-0.2,0-0.3
		c0-0.2-0.1-0.3-0.1-0.5c0-0.1-0.1-0.3-0.2-0.4s-0.3-0.2-0.4-0.3c-0.1,0-0.2,0-0.3,0c-0.1,0-0.2,0-0.4-0.1h-0.3
		C91.4,72.6,91.3,72.6,91.2,72.7 M93.1,71C93.1,71,93.1,70.9,93.1,71c0.2-0.1,0.3-0.2,0.3-0.2c0.1,0,0.1-0.1,0.2-0.1
		c0.1-0.1,0.3-0.1,0.4-0.2c0.2-0.1,0.3-0.2,0.3-0.3c0.1-0.3,0.2-0.6,0.3-0.9c0.1-0.3,0.2-0.7,0.2-1.2s-0.1-0.8-0.2-1.1
		c-0.1-0.1-0.3-0.3-0.4-0.4s-0.3-0.2-0.5-0.3c-0.2,0.1-0.4,0.1-0.5,0.1c-0.2,0-0.4,0.1-0.6,0.1c0,0.1,0,0.2-0.1,0.2
		c-0.4,0.2-0.8,0.5-1.1,1c-0.3,0.4-0.4,0.9-0.4,1.4c0,0.2,0,0.3,0.1,0.4s0.1,0.3,0.2,0.4c0,0.2,0.1,0.4,0.2,0.5s0.1,0.2,0.2,0.4h0.2
		c0.1-0.1,0.1-0.1,0.1-0.2s0.1-0.1,0.2-0.1c0.1,0.1,0.1,0.1,0.1,0.2s0,0.2,0.1,0.3c0.1,0,0.1-0.1,0.1-0.2s0.1-0.2,0.2-0.2
		s0.2,0.1,0.3,0.2c0,0.1,0.1,0.2,0.3,0.2C93.1,71.1,93.1,71.1,93.1,71 M77.4,86.2L77.4,86.2C77.5,86.2,77.5,86.2,77.4,86.2
		C77.5,86.2,77.4,86.2,77.4,86.2L77.4,86.2z M63.2,85.6L63.2,85.6C63.2,85.7,63.2,85.7,63.2,85.6C63.3,85.7,63.2,85.7,63.2,85.6
		C63.2,85.8,63.2,85.7,63.2,85.6 M63.3,85.7L63.3,85.7C63.3,85.6,63.3,85.7,63.3,85.7S63.4,85.7,63.3,85.7c0.1,0.1,0.1,0.1,0.1,0.2
		C63.4,85.9,63.3,85.9,63.3,85.7C63.3,85.8,63.3,85.8,63.3,85.7L63.3,85.7C63.3,85.7,63.3,85.8,63.3,85.7
		C63.4,85.8,63.4,85.7,63.3,85.7 M63.2,85.5L63.2,85.5c0,0.1,0,0.1,0,0.2l0,0V85.5z M63.5,85.6C63.5,85.5,63.5,85.5,63.5,85.6
		C63.4,85.6,63.4,85.6,63.5,85.6L63.5,85.6C63.4,85.5,63.4,85.5,63.5,85.6C63.5,85.6,63.5,85.5,63.5,85.6
		C63.5,85.5,63.5,85.5,63.5,85.6L63.5,85.6C63.5,85.5,63.5,85.5,63.5,85.6L63.5,85.6L63.5,85.6C63.5,85.7,63.5,85.7,63.5,85.6
		C63.4,85.7,63.5,85.6,63.5,85.6 M63.5,85.4C63.5,85.4,63.6,85.4,63.5,85.4C63.5,85.5,63.5,85.5,63.5,85.4
		C63.4,85.4,63.4,85.4,63.5,85.4C63.4,85.4,63.5,85.4,63.5,85.4 M63.4,85.3C63.5,85.3,63.5,85.3,63.4,85.3L63.4,85.3L63.4,85.3z
		 M63.7,85.2c0-0.1,0.1-0.1,0.1-0.2C63.8,85.1,63.8,85.1,63.7,85.2C63.8,85.3,63.7,85.2,63.7,85.2C63.7,85.3,63.7,85.3,63.7,85.2
		C63.7,85.3,63.7,85.3,63.7,85.2C63.6,85.3,63.7,85.3,63.7,85.2 M63.7,85.1C63.7,85.1,63.7,85,63.7,85.1
		C63.7,85,63.7,85.1,63.7,85.1L63.7,85.1L63.7,85.1L63.7,85.1 M64.5,70.6c-0.2,0.2-0.5,0.4-0.7,0.5c0,0.1-0.1,0.2-0.2,0.3
		c0,0.1,0,0.1,0,0.1l-0.1,0.2v0.1c0,0.1-0.1,0.1-0.1,0.2c-0.1,0.2-0.2,0.5-0.3,0.7C63,73,63,73.2,62.9,73.5c-0.2,1-0.4,1.9-0.6,2.9
		s-0.4,1.9-0.7,2.8c-0.1,0.6-0.3,1.2-0.4,1.8c-0.1,0.6-0.3,1.3-0.4,1.9c-0.1,0.7-0.2,1.4-0.2,2.1s-0.1,1.5-0.1,2.2l0,0v0.5
		c0,0.1,0,0.2,0,0.3v0.1c0,0.1,0,0.1,0,0.2s0,0.1,0,0.2c0.1,0.2,0.2,0.3,0.3,0.4l0,0c0.1,0,0.1-0.1,0-0.1c0,0,0,0,0-0.1
		c0.2-0.1,0.4-0.1,0.6-0.2s0.4-0.2,0.4-0.4c0.1,0,0.1-0.1,0.1-0.1l0.1-0.1c0.1-0.3,0.2-0.6,0.4-0.9l0.2-0.2h0.2
		c0.1-0.1,0.1-0.2,0.1-0.3c0-0.1,0.1-0.2,0.1-0.4l0,0l0,0c0-0.1,0.1-0.1,0.1-0.2s0.1-0.2,0.1-0.3c0.1,0,0.1,0,0.1,0s0,0,0.1,0
		c0-0.2,0-0.4,0.1-0.6c0.1-0.1,0.1-0.3,0.1-0.6c0.1,0,0.2,0,0.2,0c0,0.1,0,0.1,0,0.1s0,0,0,0.1v-0.1v-0.1h0.1c0,0,0,0,0.1,0
		c0.1-0.1,0.2-0.4,0.2-0.6c0-0.3,0-0.5,0.1-0.6h0.1c0-0.1,0.1-0.3,0.1-0.4s0.1-0.3,0.2-0.4c0.1-0.4,0.3-0.7,0.5-1.1s0.3-0.7,0.4-1.1
		c0-0.1,0-0.2,0-0.3c0,0,0-0.1,0.1-0.1c0.1-0.1,0.1-0.3,0.2-0.5c0-0.2,0.1-0.3,0.2-0.4c0-0.1,0-0.1,0-0.1v-0.1
		c0.1-0.1,0.1-0.3,0.2-0.4s0.1-0.1,0.2-0.2s0.1-0.1,0.2-0.2l0.6-0.6c0.2-0.2,0.4-0.5,0.5-0.7c0.2-0.2,0.4-0.4,0.6-0.6
		s0.5-0.4,0.7-0.5c0.2-0.2,0.5-0.4,0.7-0.5c0.1-0.1,0.3-0.2,0.4-0.3c0.1-0.1,0.2-0.2,0.4-0.3c0.1-0.1,0.2-0.2,0.4-0.2
		c0.1-0.1,0.3-0.1,0.5-0.1c0.1,0.1,0.1,0.2,0,0.3c0,0.1-0.1,0.2,0,0.4c0,0.1,0,0.1,0,0.1V75c0,0.1,0,0.3,0,0.4s-0.1,0.2-0.1,0.4
		c0,0.1,0,0.2,0,0.3c0,0.1,0,0.2,0,0.3c0,0.1,0,0.2,0,0.2c0,0.1,0,0.2,0,0.2c-0.2,0.7-0.4,1.4-0.6,2c-0.2,0.7-0.4,1.3-0.6,2
		c0,0.1-0.1,0.2-0.1,0.3c0,0.1-0.1,0.2-0.1,0.3c0,0.1-0.1,0.2-0.1,0.2c0,0.1-0.1,0.1-0.1,0.2c0,0.2,0,0.5-0.1,0.7
		c-0.1,0.3,0,0.5,0.2,0.6h0.4l0.1-0.4c0.2-0.1,0.4-0.2,0.5-0.4c0.1-0.2,0.2-0.4,0.5-0.5c-0.1,0.1-0.1,0.2-0.2,0.3
		c-0.1,0.1-0.1,0.2-0.2,0.3c0.1,0,0.1,0,0.1-0.1l0.1-0.1c0-0.1,0.1-0.2,0.2-0.3c0.1-0.1,0.2-0.2,0.2-0.3c0.4-0.4,0.8-0.9,1.1-1.3
		c0.4-0.4,0.8-0.8,1.2-1.2c0.5-0.5,1-0.9,1.5-1.4s1-0.9,1.6-1.3c0.4-0.3,0.8-0.5,1.2-0.7c0.4-0.2,0.8-0.5,1.3-0.7
		c0,0.2-0.1,0.4-0.2,0.5c-0.1,0.2-0.2,0.3-0.2,0.5c-0.2,0.4-0.4,0.8-0.5,1.3c-0.2,0.4-0.3,0.9-0.5,1.3c-0.1,0.1-0.1,0.3-0.2,0.5
		s-0.2,0.4-0.2,0.5s-0.1,0.4-0.2,0.6s-0.1,0.4-0.2,0.6c-0.1,0.5-0.2,1-0.3,1.5c-0.1,0.5-0.1,1.1-0.2,1.6h-0.1c0,0,0,0-0.1,0
		c0,0.1,0.1,0.3,0.1,0.4s0,0.3,0,0.5v0.1l0.1,0.1v0.4c0,0.2,0.1,0.4,0.2,0.5s0.2,0.3,0.2,0.4c0.1,0,0.1,0,0.1,0l0.1,0.1
		c0.1,0.2,0.2,0.4,0.4,0.6c0.1,0.2,0.3,0.3,0.5,0.4l0.2,0.1v0.1c0,0,0,0,0,0.1c0.1,0.1,0.3,0.2,0.4,0.3c0.2,0,0.3-0.1,0.5-0.2
		c0.1,0,0.1,0,0.1,0s0,0,0.1,0s0.1,0,0.1,0s0,0,0.1,0s0.1,0,0.1,0H80l0,0l0,0h0.1c0.1,0,0.2,0,0.3,0s0.2,0,0.3,0
		c0.3-0.1,0.6-0.1,0.9-0.2s0.5-0.2,0.8-0.2l0.1-0.2c0.1,0,0.2,0,0.3-0.1c0.1-0.1,0.1-0.2,0.2-0.2l0.1-0.1c0,0,0.1-0.1,0.2-0.1
		c0.3-0.2,0.6-0.4,0.9-0.6s0.6-0.5,0.8-0.8v-0.1c0.4-0.2,0.8-0.5,1.1-0.8c0.3-0.3,0.7-0.6,1-0.9l0.1-0.1v-0.1c0,0,0,0,0-0.1
		c0.1-0.1,0.1-0.1,0.1-0.2l0,0c-0.3,0.3-0.6,0.5-0.9,0.8s-0.6,0.5-0.9,0.7l0,0c0.2-0.2,0.5-0.5,0.8-0.7c0-0.2,0.1-0.3,0.2-0.4
		s0.2-0.2,0.4-0.3l0,0l0,0c0.1-0.1,0.2-0.3,0.4-0.4c0.1-0.1,0.2-0.3,0.4-0.4c0-0.1,0-0.2,0.1-0.2c0,0,0.1-0.1,0.1-0.2v-0.1
		c-0.1-0.1-0.1-0.1-0.1-0.2c-0.1,0-0.2,0-0.4,0c-0.1,0-0.3,0.1-0.4,0.2S86.8,82,86.7,82c-0.1,0-0.1,0-0.1,0h-0.1l0.2,0.8
		c-0.1,0.1-0.1,0.1-0.1,0.1s-0.1,0-0.1,0.1c-0.1,0.1-0.3,0.3-0.4,0.4s-0.3,0.2-0.4,0.4c-0.1,0-0.1,0.1-0.1,0.1s-0.1,0-0.1,0.1
		c-0.1,0.1-0.2,0.1-0.3,0.1l0,0c0,0,0,0-0.1,0s-0.1,0-0.1,0.1s-0.1,0.1-0.1,0.1c-0.1,0.1-0.2,0.1-0.3,0.2c-0.4,0.4-0.8,0.7-1.3,1
		c-0.4,0.3-1,0.6-1.5,0.8v-0.1v-0.1V86v-0.1c0-0.1,0-0.2,0-0.3c0-0.1,0-0.2,0-0.2c0-0.1,0-0.3,0-0.5c0-0.1,0-0.2,0-0.5
		c0-0.1,0-0.1,0-0.2s0-0.1,0-0.2s0-0.3,0-0.5c0-0.1,0-0.3,0.1-0.4c0.1-0.5,0.3-1,0.5-1.6c0.2-0.5,0.3-1,0.5-1.5l0.1-0.4v-0.1
		c0-0.1,0-0.2,0.1-0.2c0.1-0.3,0.2-0.6,0.3-0.9c0.1-0.3,0.2-0.6,0.3-0.9c0-0.1,0-0.2,0-0.3s0-0.2,0.1-0.3c0-0.1,0.1-0.2,0.1-0.3
		c0-0.1,0-0.2,0-0.3c0-0.3,0.1-0.6,0.2-0.8c0-0.1,0-0.1,0-0.1v-0.1v-0.2c0-0.1,0-0.2,0-0.2c0-0.1,0-0.1,0-0.1s0,0,0-0.1s0-0.1,0-0.2
		s0-0.2,0-0.3c0,0,0-0.1,0-0.2c-0.1-0.1-0.1-0.3,0-0.6c0-0.1,0-0.3-0.1-0.4s-0.2-0.2-0.3-0.2c-0.1-0.1-0.3-0.1-0.4-0.2
		c-0.3-0.1-0.6-0.2-1-0.2c-0.1,0-0.3,0.1-0.4,0.1s-0.3,0.1-0.4,0.2c-0.4,0.1-0.6,0.2-0.8,0.3c-0.3,0.1-0.5,0.2-0.8,0.3
		c-0.3,0.1-0.5,0.2-0.7,0.3c-0.8,0.4-1.5,0.7-2.2,1.2c-0.7,0.4-1.3,0.9-2,1.4c-0.2,0.2-0.4,0.3-0.6,0.5S74,77,73.8,77.2
		c-0.1,0.1-0.2,0.1-0.3,0.3c-0.1,0.1-0.3,0.3-0.4,0.4s-0.3,0.3-0.4,0.4c0.1-0.3,0.1-0.6,0.2-0.9s0.1-0.6,0.2-0.9s0.1-0.6,0.2-0.9
		s0.1-0.6,0-0.9c-0.1,0-0.1,0.1,0,0.2c0,0.1,0,0.1,0,0.2c-0.1,0-0.1-0.1,0-0.1s0-0.1,0-0.1c0-0.1,0-0.1-0.1-0.1c0,0-0.1,0-0.1-0.1
		c-0.1-0.2-0.1-0.4-0.2-0.6s-0.2-0.3-0.2-0.5c-0.2-0.1-0.5-0.2-0.8-0.1s-0.5,0.2-0.7,0.2c-0.1,0.1-0.2,0.1-0.3,0.2
		c-0.1,0-0.2,0.1-0.3,0.2c-0.5,0.3-1,0.7-1.4,1c-0.4,0.4-0.9,0.7-1.3,1c0.1-0.3,0.1-0.7,0.2-1c0-0.4,0.1-0.8,0.1-1.2v-0.4
		c0-0.1,0-0.1,0-0.2s0-0.1,0-0.2s0-0.3,0-0.4s0-0.2-0.1-0.4c0-0.2,0-0.4-0.1-0.7c-0.1-0.3-0.4-0.5-0.8-0.7c-0.1,0-0.1,0-0.2,0
		l-0.1-0.1c0,0,0-0.1-0.1-0.1c-0.1-0.1-0.1-0.1-0.2-0.1s-0.2,0-0.3-0.1c-0.1,0-0.1-0.1-0.2-0.1s-0.2,0-0.2,0h-0.3
		C65.1,70.3,64.8,70.4,64.5,70.6 M45.5,59.2c0.1,0,0.2,0,0.2-0.1l0,0C45.7,59.2,45.6,59.3,45.5,59.2c0,0.1-0.1,0.1-0.1,0.2
		c-0.1-0.1-0.1-0.1-0.1-0.1C45.3,59.2,45.4,59.2,45.5,59.2 M49.1,56.5L49.1,56.5C49.2,56.6,49.2,56.6,49.1,56.5
		C49.1,56.6,49,56.5,49.1,56.5C49,56.5,49,56.5,49.1,56.5c-0.1,0.1-0.2,0.2-0.4,0.2c-0.1,0-0.3,0.1-0.4,0.1l0.1-0.1h0.1
		c0.1-0.1,0.1-0.1,0.2-0.1c0.1,0,0.2,0,0.2,0C48.9,56.5,49,56.5,49.1,56.5L49.1,56.5 M55,55.3c0.1,0,0.2,0,0.2-0.1v0.1
		C55.1,55.3,55.1,55.3,55,55.3c-0.1,0.2-0.2,0.2-0.3,0.1C54.8,55.3,54.9,55.2,55,55.3 M54.2,55.2c0.5-0.1,1-0.1,1.5-0.2l0,0
		c-0.2,0.1-0.4,0.1-0.6,0.1c-0.2,0-0.4,0-0.6,0.1c0,0.1,0.1,0.1,0.1,0.1c0.1-0.1,0.1-0.1,0.2,0c-0.1,0.1-0.2,0.1-0.4,0.1
		c-0.4,0.1-0.7,0.1-1.1,0.2c-0.4,0.1-0.8,0.1-1.2,0.2c-0.2,0.1-0.4,0.1-0.5,0.2c-0.2,0-0.3,0.1-0.4,0c0,0.1-0.1,0.1-0.1,0
		c0,0,0,0-0.1,0c0,0,0,0,0-0.1c-0.2,0.1-0.4,0.2-0.7,0.2c-0.3,0.1-0.6,0.1-0.8,0.2l0,0c-0.1-0.1-0.1-0.1-0.1,0h-0.1
		c0-0.1,0.1-0.1,0.2-0.1c0.1,0,0.1,0,0.2-0.1c0.1,0,0.2-0.1,0.4-0.1c0.1,0,0.3-0.1,0.4-0.1c0.3-0.1,0.6-0.2,0.9-0.3
		c0.2-0.1,0.5-0.2,0.9-0.2c0.1-0.1,0.2-0.1,0.3-0.1s0.2-0.1,0.3-0.1C53.2,55.3,53.7,55.2,54.2,55.2 M47.6,56.9
		c0.2-0.1,0.4-0.1,0.5-0.1c-0.5,0.2-1,0.4-1.5,0.6s-1,0.4-1.6,0.5c0,0.1,0,0.1,0.1,0c0.1,0,0.1,0,0.1,0.1c-0.1,0.1-0.2,0.2-0.3,0.2
		s-0.2,0.2-0.2,0.3c0.1,0,0.2,0,0.4,0.1v0.2c-0.2,0.1-0.3,0.2-0.4,0.3c0.1-0.1,0.2-0.1,0.3,0c0.1,0,0.1,0,0.2,0
		c0.1,0.1,0.2,0.1,0.2,0.3c0,0.1,0.1,0.2,0.2,0.2c0.1-0.1,0.3-0.1,0.4-0.1s0.2,0,0.4,0c0.1,0,0.2,0,0.4-0.1c0.1,0,0.2-0.1,0.4-0.2
		c0.4-0.1,0.9-0.3,1.3-0.4c0.4-0.1,0.8-0.3,1.3-0.4v-0.1v-0.1c0.1,0,0.3,0,0.4-0.1c0.1,0,0.2-0.1,0.2-0.1c0.4-0.1,0.7-0.2,1.1-0.3
		c0.4-0.1,0.8-0.2,1.1-0.4c-0.1,0-0.3,0-0.5,0.1c-0.2,0-0.3,0-0.5,0c0.1-0.1,0.2-0.2,0.3-0.2s0.3-0.1,0.4-0.1
		c0.2-0.1,0.4-0.1,0.6-0.2c0.2,0,0.4-0.1,0.6-0.2c0.4-0.1,0.9-0.2,1.4-0.3c0.5-0.1,1-0.1,1.5-0.2h0.4c0.1,0,0.2,0,0.2,0
		s0.1,0.1,0.2,0.1s0.1,0,0.2,0s0.2,0,0.2,0c-0.1,0.3-0.1,0.6-0.2,0.8c-0.1,0.2-0.1,0.5-0.1,0.8c-0.3,0.4-0.5,1-0.7,1.6
		c-0.1,0.3-0.3,0.6-0.5,0.9s-0.3,0.6-0.4,0.9c-0.1,0.2-0.3,0.4-0.4,0.7c-0.1,0.2-0.2,0.5-0.4,0.7c-0.1,0.3-0.2,0.6-0.3,0.9
		c-0.2,0.3-0.3,0.6-0.4,0.9c0,0-0.1,0-0.1,0.1v0.2c-0.5,0.9-0.9,1.8-1.3,2.8c-0.4,1-0.8,1.9-1.3,2.8c-0.7,0.1-1.3,0.3-1.9,0.4
		c-0.6,0.1-1.2,0.4-1.6,0.7h-0.1h-0.1c-0.1,0.1-0.3,0.3-0.5,0.4s-0.3,0.3-0.4,0.4c0.1,0.1,0.3,0.2,0.4,0.2s0.3,0,0.5,0
		c0,0.1-0.1,0.2-0.3,0.2s-0.3,0.1-0.4,0.1c0,0.1,0.1,0.2,0.2,0.1c0.1,0,0.2-0.1,0.2-0.1c0.1,0.1,0.2,0.1,0.3,0
		c0.1,0,0.2-0.1,0.3-0.1s0.1,0,0.2,0c0.1,0,0.1,0,0.2,0c0.3-0.1,0.7-0.2,1-0.4c0.4-0.2,0.7-0.2,1.1-0.2c0,0.1,0,0.1-0.1,0.2
		c0,0-0.1,0.1-0.1,0.2c-0.4,0.1-0.7,0.2-1.1,0.3c-0.3,0.1-0.6,0.2-1,0.4c0.4-0.1,0.7-0.2,1-0.3c0.3-0.1,0.6-0.2,0.9-0.2
		c0,0.1,0,0.3-0.1,0.3c-0.1,0.1-0.1,0.2-0.2,0.3c-0.7,1.3-1.4,2.8-1.9,4.3c-0.6,1.5-1.1,3.1-1.5,4.7c-0.3,0.9-0.5,2-0.7,3.1
		s-0.2,2.3,0.1,3.5c0.2,0.2,0.3,0.4,0.4,0.6c0.1,0,0.2,0,0.3,0c0.1,0.1,0.1,0.1,0.2,0.2c0,0.1,0.1,0.1,0.2,0.2
		c0.1,0,0.1-0.1,0.1-0.2s0-0.1,0.1-0.2c0.1,0.1,0.1,0.1,0,0.2c0,0.1,0,0.1,0,0.2c0.1-0.1,0.1-0.3,0.1-0.5s0.1-0.3,0.2-0.4
		c0.1,0.1,0.1,0.2,0,0.4h0.1c0,0,0.1,0,0.1,0.1c0.1-0.1,0.1-0.2,0.2-0.3c0-0.1,0.1-0.2,0.2-0.3c0,0.1,0,0.1,0,0.1
		c0.1-0.1,0.1-0.1,0.1-0.2s0-0.1,0.1-0.1h0.1l0,0c0.1-0.1,0.2-0.2,0.2-0.4c0-0.2,0.2-0.3,0.3-0.2c0-0.1,0-0.2,0.1-0.3
		c0-0.1,0.1-0.2,0.1-0.3c0.1,0,0.1,0,0.1,0l0,0c0.2-1,0.5-2,0.9-2.9s0.7-1.8,1-2.8c0.1-0.1,0.1-0.2,0.2-0.4c0-0.1,0.1-0.2,0.1-0.4
		c0-0.1,0.1-0.1,0.1-0.2s0.1-0.1,0.1-0.2s0-0.1,0-0.2s0-0.1,0-0.2c0.1-0.2,0.2-0.4,0.2-0.6c0.1-0.2,0.2-0.4,0.2-0.6
		c0.1-0.1,0.1-0.3,0.2-0.4c0.1-0.1,0.1-0.3,0.2-0.5c0.1,0,0.1-0.1,0.1-0.1l0.1-0.1c0.1-0.3,0.2-0.5,0.3-0.7s0.2-0.5,0.3-0.7
		c0.1-0.1,0.2-0.2,0.2-0.4c0.1-0.1,0.1-0.2,0.2-0.4c0.4-0.7,0.7-1.4,0.9-2c0.1-0.1,0.2-0.3,0.3-0.6c0.1-0.1,0.1-0.1,0.2-0.2
		c0-0.1,0.1-0.2,0.1-0.2c0-0.1,0.1-0.1,0.1-0.2s0.1-0.1,0.1-0.2s0-0.1,0.1-0.2c0-0.1,0-0.1,0.1-0.2s0.2-0.2,0.5-0.2
		c0.2,0,0.4-0.1,0.6-0.1c0.1,0,0.3-0.1,0.4-0.1s0.3-0.1,0.4-0.1c0-0.1,0.1-0.1,0.1-0.1l0.1-0.1c0.3-0.1,0.5-0.1,0.8-0.2
		s0.5-0.1,0.7-0.2c0.1-0.1,0.1-0.1,0.2-0.1s0.2,0,0.3-0.1c0.1,0,0.1-0.1,0.1-0.1s0.1,0,0.1-0.1c0.1,0,0.3,0,0.5,0s0.3-0.1,0.3-0.2
		c-0.1-0.1-0.2-0.1-0.4-0.1c-0.1,0-0.2-0.1-0.3-0.2c-0.5,0-1,0-1.5,0s-1-0.1-1.5-0.2c-0.1-0.1-0.2-0.2-0.2-0.3
		c0-0.1,0.1-0.2,0.1-0.3c0.1-0.2,0.2-0.3,0.2-0.5c0.1-0.2,0.1-0.3,0.3-0.5c0.1-0.1,0.1-0.3,0.2-0.4s0.2-0.2,0.2-0.4v-0.1
		c0-0.1,0.1-0.2,0.1-0.2c0-0.1,0.1-0.1,0.2-0.2c0.1-0.2,0.2-0.4,0.3-0.6c0.1-0.2,0.2-0.4,0.2-0.6c0.3-0.4,0.5-0.7,0.7-1.2
		c0.2-0.4,0.4-0.8,0.6-1.2c0.1-0.2,0.1-0.3,0.2-0.5c0.1-0.1,0.2-0.3,0.2-0.5c0.2-0.3,0.4-0.7,0.5-1.1c0.1-0.1,0.2-0.3,0.2-0.4
		c0-0.2,0.1-0.3,0.2-0.5V60c0.1-0.1,0.2-0.3,0.2-0.5s0.1-0.4,0.2-0.5c-0.1-0.1-0.1-0.2,0-0.2c0.1-0.1,0.1-0.1,0-0.3
		c0.1-0.1,0.1-0.3,0.1-0.4c0-0.2,0.1-0.3,0.2-0.4c0-0.2,0-0.4,0.1-0.7c0-0.2,0.1-0.5,0-0.7c0.2-0.1,0.5-0.2,0.8-0.1s0.6,0.1,0.8,0
		c0.1-0.1,0.1-0.1,0.1-0.2s0-0.2,0.1-0.2s0.3,0,0.4,0c0.1,0.1,0.2,0.1,0.3,0c-0.2-0.1-0.3-0.2-0.2-0.4c0-0.1,0.1-0.1,0.1-0.1
		s0.1,0,0.1-0.1c-0.1-0.1-0.2-0.1-0.4-0.1c-0.1,0-0.2-0.1-0.2-0.4c0.1-0.1,0.3-0.1,0.4,0c0.1,0,0.2,0.1,0.4,0.1
		c-0.2-0.1-0.5-0.2-0.8-0.3c-0.3-0.1-0.6-0.1-1-0.2c-0.1,0-0.1,0-0.1-0.1c0,0,0,0,0-0.1c-0.1,0-0.1,0-0.1,0s0,0-0.1,0
		C62.4,54,62.4,54,62.4,54c-0.2-0.1-0.4-0.1-0.6-0.1s-0.4-0.1-0.6-0.1c-0.2-0.3-0.4-0.5-0.7-0.6c-0.1,0-0.1,0-0.2,0c0,0-0.1,0-0.2,0
		s-0.1,0-0.1,0l-0.1-0.1c-0.2-0.1-0.4-0.1-0.6,0c-0.2,0-0.4,0.1-0.6,0.2c0,0.1,0,0.1,0,0.1c-0.1,0.1-0.2,0.1-0.3,0.2
		c-0.1,0.1-0.1,0.2-0.2,0.3V54c0,0,0,0,0,0.1c-0.1,0.1-0.1,0.2-0.2,0.2h-0.3c-0.3,0-0.6,0.1-0.9,0.1c-0.3,0-0.6,0.1-0.9,0.2
		c-0.3,0.1-0.5,0.1-0.7,0.1s-0.4,0.1-0.6,0.1l-2,0.4c-0.3,0.1-0.6,0.1-0.9,0.2c-0.3,0.1-0.6,0.2-0.9,0.2c-1,0.3-2.1,0.6-3.1,0.8
		c-1.1,0.2-2.1,0.5-3.1,0.9c0.2-0.1,0.4-0.1,0.7-0.2c0.2,0,0.5-0.1,0.6-0.2c0.3,0,0.6,0,0.9-0.1c0.3-0.1,0.5-0.1,0.7,0l0,0
		C47.8,56.8,47.7,56.9,47.6,56.9 M32.8,64.9c-0.1,0.1-0.1,0.3-0.2,0.4c0-0.3,0.1-0.5,0.2-0.8c0.1-0.2,0.2-0.5,0.2-0.7
		c0.1-0.1,0.2-0.3,0.3-0.6c0,0,0,0,0,0.1c-0.1,0.1-0.2,0.3-0.2,0.5C33,64,33,64.2,32.9,64.4C32.9,64.7,32.8,64.8,32.8,64.9
		 M34.4,61.3c0,0,0.1-0.1,0.1-0.2C34.5,61.2,34.5,61.2,34.4,61.3L34.4,61.3L34.4,61.3 M34.6,57.1c0,0,0.1-0.1,0.1-0.2
		c0,0.1,0,0.2-0.1,0.3C34.5,57.2,34.5,57.2,34.6,57.1 M32.1,69.2C32,69.2,32,69.2,32.1,69.2c0.1-0.6,0.2-1.1,0.4-1.6
		s0.4-0.9,0.5-1.5c0.5-1,0.9-2.1,1.2-3.3c0.3-1.1,0.7-2.3,1.1-3.4c0-0.1,0-0.2,0.1-0.3c0.1-0.1,0.1-0.2,0-0.3h-0.1
		c-0.1,0.1-0.1,0.2-0.1,0.3c0,0.1-0.1,0.2-0.1,0.2c0.1-0.1,0.1-0.1,0.1-0.2s0-0.2,0-0.2c-0.1,0.3-0.3,0.7-0.4,1
		c-0.1,0.4-0.2,0.7-0.4,1c0.2-0.7,0.4-1.4,0.6-2.1c0.2-0.7,0.4-1.4,0.5-2.1v0.1l0,0c0-0.2,0.1-0.3,0.2-0.5c0.1-0.2,0.1-0.3,0-0.5
		c-0.1,0.5-0.3,1-0.5,1.5s-0.4,1-0.5,1.5c-0.2,0.6-0.4,1.2-0.5,1.7c-0.2,0.6-0.4,1.1-0.6,1.6c0.2-0.8,0.5-1.7,0.7-2.5
		s0.5-1.6,0.7-2.5c0-0.1,0-0.1,0-0.1v-0.1c0.1-0.1,0.1-0.2,0.1-0.3c0-0.1,0-0.2,0.1-0.3c0-0.1,0-0.3,0-0.4s0.1-0.2,0.1-0.3
		c-0.1-0.1-0.1-0.1-0.1-0.2s-0.1-0.1-0.1-0.1c-0.1,0.1-0.1,0.3-0.2,0.4c-0.1,0.1-0.1,0.3-0.2,0.5c0-0.1,0-0.1-0.1-0.1
		c-0.1-0.2-0.1-0.3-0.2-0.3c-0.1,0.2-0.2,0.4-0.3,0.7c-0.1,0.2-0.2,0.5-0.2,0.7c-0.1,0.1-0.1,0.1-0.1,0.2s-0.1,0.1-0.1,0.2
		c-0.3,0.7-0.6,1.5-0.8,2.3s-0.5,1.6-0.8,2.4c0,0.2,0,0.4-0.1,0.6s-0.1,0.3-0.2,0.5c-0.3,0.6-0.5,1.1-0.7,1.6
		c-0.1,0.3-0.3,0.6-0.4,0.8c-0.1,0.3-0.2,0.6-0.4,0.9c-0.2,0.6-0.3,1.3-0.5,1.9c-0.1,0.6-0.3,1.3-0.4,2c-0.1,0.1-0.1,0.2-0.2,0.3
		c-0.1,0-0.1,0-0.1,0.1L29,71.1c-0.1,0.1-0.1,0.2-0.2,0.3c0,0.1-0.1,0.2-0.2,0.3c0,0.1,0,0.1,0,0.2s0,0.1,0,0.2
		c0.2,0.1,0.4,0.1,0.6,0.1c0.2,0,0.4,0,0.5,0.2c0,0.1,0,0.1,0,0.2c0.1,0,0.2,0,0.3,0s0.2-0.1,0.3-0.1c0,0.1,0,0.1,0,0.2
		c-0.1,0.1-0.1,0.1-0.2,0.1c0,0-0.1,0-0.2,0c0,0.1,0,0.1,0,0.2s0,0.1-0.1,0.1c0.1,0.1,0.3,0.1,0.4,0.1c0.1,0,0.2,0,0.4,0.1
		c0.3-0.1,0.6-0.2,0.9-0.1c0.4,0.1,0.7,0.1,0.9,0l0,0c0,0,0,0,0.1,0c0.3,0,0.6-0.1,0.9-0.1c0.3,0,0.6-0.1,0.9-0.2
		c0.4-0.1,1-0.1,1.6-0.2c0.7,0,1.2-0.1,1.7-0.2c0.1-0.1,0.3-0.2,0.5-0.2c-0.1,0.5-0.2,0.9-0.3,1.3s-0.3,0.9-0.4,1.3
		c-0.2,0.8-0.4,1.6-0.6,2.4c-0.2,0.8-0.4,1.6-0.5,2.5c-0.1,0.7-0.2,1.4-0.3,2.1s-0.1,1.4-0.2,2.1c0,0.4-0.1,0.9-0.1,1.4s0,1,0,1.5
		s0.1,1,0.2,1.5c0.1,0.5,0.2,0.9,0.4,1.3c0.1,0,0.3,0.1,0.3,0.3c0.1,0.2,0.2,0.3,0.3,0.3c0-0.1,0-0.2,0.2-0.2s0.3,0.1,0.3,0.2
		c0.1-0.2,0.1-0.4,0.2-0.7l0,0l0,0c0.1-0.1,0.2-0.2,0.2-0.3c0-0.2,0-0.3,0.1-0.4V89c0,0.1,0,0.1,0,0.1c0.1,0,0.1,0,0.1,0V89
		c0.1,0,0.1,0.1,0.2,0.1c0-0.1,0-0.1,0-0.1v-0.1c0,0.1,0.1,0,0.2,0c0-0.1,0-0.3,0.1-0.4s0.1-0.2,0.1-0.4c0.1-0.1,0.2-0.3,0.2-0.7
		c0,0.1,0,0.1,0,0.2s0,0.2,0,0.2c0-0.1,0-0.1,0-0.2s0-0.1,0.1-0.1v0.1l0,0c0.8,0.3,0.8,0.2,0.8,0.1s0-0.2,0.1-0.3l0.1,0.1
		c-0.1-0.4,0-0.7,0.1-1l0,0l0,0c0-0.8,0.1-1.6,0.2-2.3c0.1-0.7,0.2-1.5,0.3-2.2c0-0.1,0.1-0.3,0.1-0.5c0.1-0.2,0.1-0.3,0.2-0.5
		c0.1-0.4,0.1-0.8,0.2-1.1c0.1-0.3,0.2-0.7,0.2-1.1c0.1-0.2,0.1-0.4,0.2-0.6c0-0.2,0.1-0.4,0.1-0.6c0.1-0.5,0.3-0.9,0.4-1.4
		c0.2-0.5,0.3-0.9,0.4-1.4c0.1-0.2,0.1-0.4,0.1-0.6s0.1-0.4,0.2-0.5c0-0.1,0-0.2,0-0.3c0-0.1,0-0.1,0-0.3c0.1-0.2,0.2-0.5,0.2-0.7
		c0.1-0.2,0.1-0.5,0.2-0.7c0.1,0,0.1,0,0.2,0c0,0,0.1-0.1,0.2-0.1c0.1-0.1,0.2-0.1,0.4-0.1c0.1,0,0.2,0,0.4,0c0.1,0,0.1-0.1,0.1-0.1
		s0.1,0,0.1-0.1c0.2-0.1,0.5-0.1,0.7-0.1s0.4-0.1,0.7-0.1C45.9,71,45.9,71,46,71c0.1,0,0.2,0,0.2-0.1c-0.4,0-0.7,0-1.1,0.1
		c-0.4,0.1-0.6,0.1-0.8,0c0-0.1,0.1-0.2,0.2-0.3c0.1,0,0.2-0.1,0.2-0.1c0.2-0.1,0.4-0.1,0.7-0.1c0.2,0,0.5,0,0.7-0.1
		s0.5-0.1,0.7-0.1s0.5-0.1,0.6-0.2c0-0.1,0-0.1,0-0.1s0-0.1,0-0.2c-0.1-0.1-0.2-0.1-0.2-0.2s0.1-0.1,0.2-0.2c0.1,0,0.2-0.1,0.3-0.1
		s0.2-0.1,0.2-0.1l-0.1-0.1L47.7,69c-0.2,0.1-0.4,0.1-0.6,0.1c-0.2,0-0.4,0-0.5,0c-0.2-0.1-0.3-0.1-0.4-0.2c0.1-0.1,0.3-0.1,0.5-0.1
		s0.4,0,0.5-0.2c-0.4,0.1-0.8,0.1-1.2,0.2c-0.4,0-0.8,0.1-1.2,0.1c-0.2,0-0.3,0.1-0.5,0.1s-0.3,0-0.5,0c0.1-0.9,0.3-1.7,0.4-2.6
		c0.2-0.8,0.3-1.7,0.4-2.6c0.1-0.3,0.2-0.6,0.2-0.9c0-0.4,0.1-0.7,0.2-0.9c0-0.3,0-0.5,0.1-0.7s0.1-0.4,0.1-0.7
		c0.1-0.3,0.1-0.6,0.2-0.9c0.1-0.3,0.1-0.6,0.1-0.9c0.1-0.5,0.2-1.1,0.1-1.8c-0.1-0.7-0.2-1.2-0.4-1.6c-0.1-0.1-0.2-0.2-0.4-0.3
		c-0.1-0.1-0.2-0.2-0.4-0.3c-0.1-0.1-0.1-0.1-0.2-0.2c0-0.1-0.1-0.1-0.2-0.2h-0.1c0,0,0,0-0.1-0.1v-0.1c0,0,0,0,0-0.1
		c-0.1-0.1-0.3-0.2-0.5-0.2s-0.4,0-0.6,0c-0.1,0-0.2,0.1-0.3,0.1s-0.3,0.1-0.4,0.1c-0.2,0.1-0.4,0.3-0.5,0.6
		c-0.1,0.2-0.2,0.5-0.4,0.7v0.2c0,0.1,0,0.1,0,0.1C41,55.8,41,55.9,41,55.9s0,0.2-0.1,0.3c0,0.1,0,0.1,0,0.1v0.1
		c-0.1,0.1-0.1,0.2,0,0.3c0,0.1,0,0.2,0,0.3c0,0.1,0,0.1,0,0.2s0,0.1,0,0.2s0,0.1,0,0.2c0,0,0,0.1,0,0.2c0,0.2-0.1,0.4-0.1,0.5
		c0,0.2-0.1,0.4-0.1,0.5c0,0.4-0.1,0.7-0.1,1c-0.1,0.3-0.1,0.7-0.1,1c-0.1,0.3-0.1,0.5-0.1,0.8s0,0.6,0,0.9
		c-0.1,0.1-0.1,0.2-0.1,0.4c0,0.2,0,0.3-0.1,0.4c0,0.1,0,0.3,0,0.4s-0.1,0.2,0,0.4c-0.1,0.9-0.3,1.8-0.4,2.6
		c-0.1,0.9-0.3,1.7-0.5,2.6c-0.3,0-0.5,0-0.8,0.1s-0.6,0.1-0.8,0.1c-0.1,0-0.1,0-0.1,0h-0.1c-0.1,0-0.1,0-0.1,0s0,0-0.1,0
		c-0.1,0.1-0.3,0.1-0.4,0.1c-0.1,0-0.3,0-0.4,0c-0.5,0.1-1,0.1-1.5,0.1s-1,0-1.5,0c0-0.1,0-0.1,0-0.1s0.1,0,0.1-0.1
		c-0.2,0-0.5,0.1-0.8,0.1c-0.3,0.1-0.5,0.1-0.8,0.2C31.9,69.6,32,69.4,32.1,69.2C32,69.5,32.1,69.3,32.1,69.2L32.1,69.2"/>
	<polygon class="st0" points="78.2,29.9 78.3,29.8 78.4,29.5 	"/>
	<path class="st0" d="M78,28.9c0.5-0.3,0,0.4,0.2,0.4l0.1-0.1l-0.4,0.4C78,29.4,78.2,29,78,28.9"/>
	<path class="st0" d="M76.8,29.1C77,29,76.9,28.9,76.8,29.1C76.9,29.2,76.9,29.2,76.8,29.1L76.8,29.1"/>
	<path class="st0" d="M76.8,29.2C76.8,29.3,76.6,29.2,76.8,29.2"/>
	<path class="st0" d="M76.8,28.6l-0.1,0.3c-0.1,0-0.2-0.1-0.3,0C76.5,28.7,76.6,28.6,76.8,28.6"/>
	<path class="st0" d="M77.2,28.3L77.2,28.3C77.1,28.4,77,28.4,77.2,28.3"/>
	<path class="st0" d="M77,28.7l0.1-0.2c0.1,0,0.3-0.1,0,0.1C77.2,28.4,77.1,28.5,77,28.7"/>
	<path class="st0" d="M77.1,28.7c0.1,0,0.2,0.1,0.4-0.1C77.4,28.8,77.1,29,77.1,28.7"/>
	<path class="st0" d="M78.5,28.6h0.2H78.5C78.6,28.6,78.4,28.7,78.5,28.6"/>
	<path class="st0" d="M76.4,27.8c0.1,0,0.3,0,0.5-0.1l-0.2,0.2C76.7,27.9,76.6,27.8,76.4,27.8"/>
	<path class="st0" d="M76.9,27.7l0.2-0.2C77.1,27.7,77,27.7,76.9,27.7"/>
	<path class="st0" d="M77.8,28.1l-0.4,0.4c0,0,0.1-0.1,0.2-0.2C77.7,28.1,77.7,28,77.8,28.1L77.8,28.1z"/>
	<path class="st0" d="M76.9,27.3c-0.1,0-0.3,0-0.3,0H76.9L76.9,27.3z"/>
	<path class="st0" d="M76.9,27.3L76.9,27.3C76.9,27.2,76.9,27.2,76.9,27.3C76.9,27.1,76.9,27.2,76.9,27.3"/>
	<path class="st0" d="M76.9,27.3L76.9,27.3C77,27.3,77,27.3,76.9,27.3"/>
	<path class="st0" d="M77.4,27.8c0.2-0.1,0.3-0.4,0.6-0.3C77.8,27.6,77.6,27.6,77.4,27.8"/>
	<path class="st0" d="M77.4,27.3L77.4,27.3c0,0.1-0.1,0.1-0.2,0.2L77.4,27.3z"/>
	<polygon class="st0" points="77.3,27.2 77.4,27.3 77.4,27.2 	"/>
	<path class="st0" d="M76.8,26.6c0.1-0.1,0.1-0.2,0.2-0.2c0.1,0.1,0.1,0.2,0.1,0.2C76.9,26.6,76.8,26.7,76.8,26.6"/>
	<path class="st0" d="M76.9,26.9L76.9,26.9L76.9,26.9"/>
	<path class="st0" d="M76.9,25.6L76.9,25.6L76.9,25.6L76.9,25.6z"/>
	<path class="st0" d="M77.1,26.6c0.1,0.1,0,0.1-0.1,0.2C77,26.7,77,26.7,77.1,26.6L77.1,26.6"/>
	<path class="st0" d="M76.6,26.1c0.1,0,0.1,0.1,0.2,0.1C76.7,26.2,76.5,26.2,76.6,26.1"/>
	<path class="st0" d="M76.8,26.9L76.8,26.9C76.7,26.9,76.7,26.9,76.8,26.9"/>
	<path class="st0" d="M76.8,26.9c0,0,0.1-0.1,0.2-0.1C77,26.8,76.9,26.9,76.8,26.9C76.9,26.9,76.8,26.9,76.8,26.9"/>
	<path class="st0" d="M79,25.4c-0.3,0-0.6,0.1-0.3,0.2c-0.2,0.1-1.2,0.1-1.8,0c0.1,0,0.3,0,0.4-0.1c0.2,0.1,0.4,0.3,0.7,0.2
		c0.2-0.2-0.1-0.1-0.3-0.2c0.4,0.1,0.5-0.2,1.1-0.1l-0.1,0C78.8,25.4,78.9,25.4,79,25.4"/>
	<path class="st0" d="M77,25.9L77,25.9c-0.1,0-0.2,0-0.4-0.1c0.1-0.1,0.3-0.1,0.4-0.1V25.9L77,25.9z"/>
	<path class="st0" d="M77,26.2c0.3-0.1,0.5-0.2,0.8-0.2c0,0.2-0.3,0.1-0.4,0.2C77.4,26,77.2,26.4,77,26.2c0,0.1,0,0.1,0,0.2
		c0,0-0.1-0.1-0.2-0.1l0,0l0,0l0,0c0,0,0.1,0,0,0l0,0C76.9,26.2,76.9,26.2,77,26.2C76.9,26.1,76.9,26.2,77,26.2L77,26.2L77,26.2
		l0.1-0.3C77,26,77,26.1,77,26.2"/>
	<path class="st0" d="M78.7,27.2C78.7,27.2,78.6,27.2,78.7,27.2C78.7,27.1,78.7,27.1,78.7,27.2"/>
	<path class="st0" d="M78.5,27.1C78.5,27.1,78.3,27.2,78.5,27.1c0,0.1,0.1,0.1,0.2,0c-0.1,0.1-0.2,0.2-0.4,0.1l0,0
		c-0.1-0.1-0.5-0.1-0.6-0.1C78,27.2,78.2,27.1,78.5,27.1"/>
	<path class="st0" d="M77.8,26.7l0.1-0.2l0.3,0.1H78C78.1,26.7,77.9,26.7,77.8,26.7"/>
	<polygon class="st0" points="76.4,25.6 76.7,25.6 76.9,25.5 	"/>
	<polygon class="st0" points="76.5,25.3 76.8,25.3 76.7,25.2 	"/>
	<path class="st0" d="M82.2,13.2L82.2,13.2C82.3,13.2,82.2,13.2,82.2,13.2"/>
	<path class="st0" d="M82.2,13.6L82.2,13.6L82.2,13.6"/>
	<path class="st0" d="M77.5,19.1c-0.3-0.2-0.7-0.4-0.3-0.3l0.3,0.1C77.4,19,77.4,19.1,77.5,19.1"/>
	<path class="st0" d="M80,16C80,16.1,80.1,16.1,80,16c0,0-0.1,0-0.2,0C79.9,16,79.9,16,80,16"/>
	<path class="st0" d="M81.3,16.4l-0.2-0.2C81.2,16.3,81.3,16.4,81.3,16.4"/>
	<path class="st0" d="M82.8,11.3l0.3,0.1C83.2,11.5,83,11.4,82.8,11.3"/>
	<path class="st0" d="M77.1,22.5c-0.1-0.1-0.2-0.2-0.2-0.2C77.1,22.4,77.4,22.6,77.1,22.5"/>
	<path class="st0" d="M78.8,12.2c0.1,0,0.1,0,0.2,0C78.9,12.2,78.9,12.2,78.8,12.2"/>
	<path class="st0" d="M77,22.1L77,22.1c0,0.1,0,0.1,0,0.2C76.8,22.2,76.7,22.1,77,22.1"/>
	<path class="st0" d="M83.7,4C83.7,4,83.7,3.9,83.7,4C83.7,3.9,83.7,4,83.7,4"/>
	<path class="st0" d="M80.8,0.7C80.7,0.7,80.7,0.8,80.8,0.7C80.7,0.8,80.7,0.8,80.8,0.7"/>
	<path class="st0" d="M76.7,24.1C76.7,24.2,76.7,24.1,76.7,24.1"/>
	<path class="st0" d="M78,24.6c0,0,0.1,0,0.2,0C78.1,24.6,78,24.6,78,24.6"/>
	<path class="st0" d="M79,22.2L79,22.2C79.1,22.2,79.1,22.2,79,22.2"/>
	<path class="st0" d="M76.8,24.2L76.8,24.2L76.8,24.2"/>
	<path class="st0" d="M76.7,24.2L76.7,24.2C76.7,24.3,76.6,24.2,76.7,24.2"/>
	<path class="st0" d="M76.7,24L76.7,24C76.7,24.1,76.7,24.1,76.7,24C76.7,24.1,76.7,24.1,76.7,24"/>
	<path class="st0" d="M82.2,7.6L82.2,7.6C82.3,7.5,82.3,7.6,82.2,7.6"/>
	<path class="st0" d="M81,19.1L81,19.1L81,19.1L81,19.1z"/>
	<path class="st0" d="M81.3,19c-0.4-0.1-0.4,0-0.3,0.1l-0.9-0.4L81.3,19z"/>
	<path class="st0" d="M79.9,6.2L79.9,6.2C80.1,6.3,80,6.2,79.9,6.2 M77.2,23.8c-0.1,0-0.1,0-0.2,0C77.1,23.8,77.1,23.8,77.2,23.8
		C77.2,23.7,77.3,23.7,77.2,23.8 M77,23.5L77,23.5C76.9,23.4,77,23.5,77,23.5 M80.7,16.5c0.1,0,0.1,0-0.1-0.1
		C80.6,16.4,80.6,16.5,80.7,16.5 M81.9,14.1c0.1,0,0.3,0,0.1-0.1C81.6,13.9,81.8,14,81.9,14.1 M82.4,12.4l0.3,0.2
		c0.5,0,0.3-0.1,0.7,0.1c-1-0.3-0.2,0.4-1.2,0.1l0.2,0.2c0,0,0.1,0,0,0c0.5,0.3-0.7-0.1-0.6,0.1c0.1,0.1,0.2,0.2,0.3,0.2l-0.3,0.1
		c0,0.1,0.2,0.1,0.2,0l-0.1,0.2l0,0c-0.2,0-0.4,0-0.5,0c0.1,0.1,0.1,0,0.2,0.1h-0.3c0.3,0.1,0.5,0.1,0.5,0c1,0.5-0.3,0,0.3,0.5
		l0.1-0.1c0.6,0.3,0.3,0.3,0.7,0.6c-0.2-0.1-0.9-0.6-1.1-0.5c0.1,0.1,0.1,0.1-0.1,0.1c0.4,0.1,0.3,0.2,0.2,0.3l0.5,0.2
		c-0.2,0.1-0.4,0-0.6-0.1c0,0.1,0.4,0.3,0.7,0.4c0,0.2-0.6-0.3-0.7-0.1c0.2,0.2-0.1,0.2-0.4,0.3c0.1,0.2,0.3,0.1,0.4,0.2h-0.4
		c0,0,0.1,0.1,0.2,0.1c-0.2,0-0.5-0.2-0.6-0.1c-0.5-0.1,0.7,0.5,0.1,0.5c0.1,0.1,0.3,0.1,0.5,0.2c-0.4,0.1-0.3,0.1-0.9,0.1l0.3,0.3
		c-0.3-0.2-0.8-0.2-1.1-0.2c-0.2-0.1-0.3-0.2-0.4-0.2l-0.3,0.1c0.1,0.1,0.2,0.1,0.4,0.1h-0.1c0.2,0.1,0.4,0.2,0.7,0.2
		c-0.1-0.1-0.2-0.1-0.3-0.2c0.3,0.1,0.6,0.1,0.9,0.2c-0.1,0-0.1,0-0.1,0c0.1,0,0.2,0,0.2,0.1c0,0-0.1,0-0.2,0l0.5,0.2L81,16.8
		l0.3,0.4c-0.6,0-1.4-0.1-1.6,0.1c0.4,0.1,0.6,0.2,1.1,0.4c-0.5-0.2,0.2-0.1,0.2-0.3c0,0.1,0.3,0.2,0.3,0.2l-0.5,0.1
		c0.4,0.1,0.3,0.2,0.4,0.3c-0.7-0.3-0.5,0-0.8,0.1c0.2,0.1,0.5,0.2,0.5,0c0.5,0.3-0.9-0.1-0.4,0.2c0,0,0-0.1,0.1,0
		c-0.2,0-0.1,0.2,0.1,0.3l0,0c0.1,0.2-0.1,0.6-0.7,0.5c0.1,0,0.8,0.2,0.9,0.3L78.7,19c0.5,0.2,1.8,0.7,2.1,0.7
		c0.1,0.1,0.2,0.2-0.1,0.2c-0.1-0.1-0.8-0.4-0.8-0.3c0.6,0.3,0.3,0.2,0.8,0.5c-0.1-0.1-1-0.3-0.9-0.2c0.1,0,0.8,0.3,0.9,0.3
		l-0.9-0.1c0.2,0,0.7,0.2,0.9,0.4c-0.2-0.1,0,0.2-0.1,0.2l0.1-0.8c0.1,0.3-1.2-0.2-1.2,0.1c0.2,0,1.1,0.3,1.2,0.5
		c-0.4-0.1-2.1-0.5-2.4-0.4l0.2,0.1l-0.3,0.1c0.7,0.1,2,0.3,2.6,0.4c0.2,0.2,0.3,0.1,0.2,0.2c0.2,0.1,0.4,0.1,0.4,0l0.1,0.3
		C81,21,81,21.3,80.6,21.1l0.6-0.1c-0.5-0.2-1.4-0.3-1.4-0.1c0.2,0.1,0.9,0.3,1.1,0.3c-0.2,0-0.4,0.1-0.2,0.1H81
		c0.2,0.2-0.7,0-0.2,0.3c0,0.1,0.6,0.4,0.3,0.3c-0.6-0.3-2.3-0.9-2.7-1c0,0,0.5,0.4,0.8,0.6c0.4,0.2,1.1,0.2,1.5,0.4
		c-0.1,0-0.3-0.1-0.4-0.1c0.1,0.1,0.4,0.1,0.3,0.2c-0.5-0.2,0,0.2-0.4-0.1c-0.2,0.1,0.1,0.1,0,0.3c-0.3-0.2-1.1-0.3-1.3-0.2
		c0.1,0,0.3,0.1,0.4,0.2c0,0.2,0.2,0.4,0.2,0.6c0.1,0.1,0.3,0.2,0.5,0.2c-0.1,0-0.3,0-0.3,0c0.4,0.2,0.1-0.1,0.6,0.1
		c-0.3-0.1-0.4,0-0.6,0.1c-0.5-0.1-0.1-0.2,0.1-0.3c-0.6-0.2-1.3-0.2-1.6,0c-0.2,0.1,0.4,0.2,0.3,0.2c0.1,0.4-1.1,0-0.7,0.4
		c0.4,0.2,0.8,0.2,1.1,0.3c0.2-0.1-0.2-0.3-0.2-0.4l0.2,0.2c0.1,0,0.3-0.1,0.1-0.2c0.4,0.2,0,0.6,0.3,0.9c-0.1,0-0.3,0.1-0.4,0
		l0.1-0.1c-0.3-0.1-0.5,0.1-0.6,0c-0.2,0.1-0.6,0.2-0.4,0.4l0.5,0.1c-0.1,0-0.3-0.1-0.1-0.2c-0.2,0,0.6,0.3,0,0.3l-0.7,0
		c-0.2,0.1-0.7,0.2-0.6,0.4c-0.5-0.1,0.1,0-0.5-0.2c0.7,0.2,0-0.4,0.7-0.2c-0.6-0.2-0.3-0.2-0.8-0.5c0.2,0,0.3,0.1,0.2-0.1h0.1l0,0
		l0,0l0,0c0.1,0,0.1,0.1,0.2,0.1c0.4,0,0.4-0.2,0.5-0.3c-0.1-0.1-0.2,0-0.3-0.1l0.3-0.1c-0.3-0.1-0.5-0.3-0.8-0.2v-0.2
		c-0.2-0.1-0.2-0.3-0.1-0.3C76.5,23,77,23,76.7,23l0.2-0.2h-0.1c0-0.3,0.6-0.4,0-0.8c0.1-0.1,0.2-0.1,0.1-0.3l0,0
		c0.1-0.1-0.2-0.4,0.1-0.4c-0.8-0.4-0.1-0.6-0.2-0.8l0.4,0.1c0-0.1,0.1-0.2,0.3-0.3l0.3,0.1c0.3,0-0.2-0.4-0.1-0.6
		c-0.1,0-0.1,0,0,0.1c-0.7-0.5,0.6-0.3,0.1-0.7c0.1,0,0.1-0.1,0-0.1l0,0l0,0c-0.1,0-0.1-0.1-0.2-0.1c0.1,0,0.1,0.1,0.2,0.1
		c0,0,0.1-0.1,0.2-0.1l-0.4-0.1l0,0c-0.1-0.1,0.2,0,0.4,0.1c0.1,0,0.1,0,0.2,0c-0.6-0.2,0.2-0.1-0.4-0.4c0.3,0.1,0.3-0.2,0.9,0
		c-0.1,0-0.1-0.1-0.1,0c-0.1-0.1-0.1-0.2,0.1-0.2l-0.4-0.2l0.6,0.1c-0.3-0.2-0.4-0.3-0.8-0.3c0.6,0,0.2-0.1,0.8-0.1l-0.3-0.1
		c0-0.1,0.4,0,0.2-0.1c-0.5-0.3,0-0.7-0.4-1.3c0.9,0.4-0.4-0.3,0.3-0.1c-0.2-0.1-0.3-0.2-0.5-0.2c0.2-0.1-0.3-0.4,0.3-0.3
		c-0.2-0.1-0.3-0.1-0.4-0.1c0,0,0.2,0,0.1-0.1s-0.2,0-0.3,0c0.1-0.2,0.7,0,1.3,0.2c-0.3-0.2-0.2-0.2,0.2-0.2
		c-0.2-0.1-0.4-0.2-0.5-0.1c0-0.1-0.2-0.5,0.3-0.4c-0.1-0.1,0-0.1,0-0.1c0-0.2,0-0.2,0-0.3l0.1,0.1c0.6,0.1,0.1-0.1,0.2-0.2h-0.1
		c-0.4-0.4,0.2-0.1-0.2-0.5l0.4,0.1c0.8,0.2-0.4-0.4-0.1-0.4l0.2,0.1c0.3,0-1-0.6-1.1-0.7c-0.1,0-0.1,0-0.2,0
		c-0.4-0.4,0.5,0.1,0.6,0c-0.2-0.1-0.6-0.2-0.7-0.3c-0.2-0.1,0.9,0,0.4-0.4c0.2,0.1,0.4,0.2,0.5,0.2c0.1-0.1-0.7-0.6-0.1-0.5
		L79,12.1c0.2,0,0.3-0.2,0.6-0.1c-1.2-0.5,0.7-0.4-0.4-0.8l0.1-0.3h-0.1c0-0.2,0.2-0.2,0.5-0.1c-0.1-0.1-0.2-0.1-0.2-0.1
		c-0.2-0.3-0.1-0.4,0.5-0.4l-0.4-0.1c0.2,0-0.5-0.6-0.1-0.7c0,0-0.1,0-0.2,0c0.5-0.1-0.9-1,0.4-0.7l0.4-0.1C80.2,9,80.7,8.9,80.9,9
		c0.1-0.1-0.4-0.4-0.5-0.3h0.1c-0.7-0.2-0.2-0.4-0.7-0.5c0.1-0.5-0.2-1.1-0.2-1.5l0.5,0.2V6.7c-0.1-0.1-0.4-0.2-0.4-0.1
		c-0.3-0.2,0.3-0.1,0.4-0.1c-0.2-0.3-0.6-0.1-0.6-0.2l0.1-0.1h0.1c0.2,0,0.5,0.1,0.5-0.1c-0.1-0.1-0.3-0.2-0.3-0.2s-0.1,0,0-0.1V5.6
		l0.4,0.2c0.2,0,0-0.2,0.5,0.1c-0.7-0.4-0.2-0.8-0.4-1c0.3,0,0.3-0.1,0.3-0.3c0.1,0.1,0.6,0.3,0.5,0.1c-1-0.3-0.4-0.4-1.1-0.7
		c0.5,0.3,0.2-0.3,0.8,0c-0.1-0.1-0.4-0.1-0.6-0.3c0.4-0.1-0.2-0.7,0-0.9c0.1,0,0.3,0.2,0.5,0.2l-0.6-0.4c0.1,0,0.8,0.2,0.3-0.1
		c0.1,0.1,0.3,0.1,0.3,0.1c-0.5-0.8,0.7-1.1-0.4-2.2c0.2,0.2,0.3,0.1,0.3,0.1c0.1,0.1,0.3,0.1,0.5,0.2l-0.4-0.4
		c0.5,0.1,0.1-0.3,0.5-0.1l-0.1,0.1c0.6,0.1,1.2,0.6,1.9,0.8C82.5,1,84,1.8,83,1.7c0.1,0.1,0.2,0,0.4,0.1c-0.3-0.1-0.4,0-0.3,0.2
		h0.1c-0.1,0.3,0.2,0.6,0.3,1l-0.3-0.1c0,0.1,0.1,0.2,0.2,0.2c-0.5-0.1,0-0.2-0.6-0.4c0.7,0.4-0.1,0.6,0.7,0.9
		c0,0.1-0.4-0.2-0.4-0.1l0.2,0.1l-0.2,0.1c0,0.1,0.3,0.2,0.5,0.3c0,0,0.1,0,0.1-0.1c0.2,0.2-0.1,0.3-0.1,0.3L83.5,4
		c-0.3,0.3,0,0.8-0.5,0.9l-0.2-0.1c-0.3,0.1,0.2,0.3,0,0.5l0,0c-0.2,0-0.3,0-0.3,0.1c0.2,0,0.4,0.3,0.6,0.2c-0.4,0.2-0.3,0-0.9,0
		l0.3,0.1c-0.3,0-0.4-0.1-0.5,0c0.3,0,0.4,0.2,0.7,0.2c0.6,0.5-0.7,0.2,0.2,0.6c-0.8-0.1-0.4-0.4-0.6-0.4c-0.2-0.1-0.6-0.1-0.5,0
		c0,0.1,0.9,0.5,0.9,0.7h0.1c0.2,0.2-0.3,0.1,0,0.3c-0.5-0.1,0,0.1-0.6,0l0.2-0.2c-0.2,0.1-0.9-0.1-0.6,0.3c0.1,0,0.3,0,0.4,0
		c0.2,0.1-0.1,0.1,0,0.2c0.6,0.2,0.2-0.2,0.6-0.2C83,7.3,82.3,7.3,83,7.4c-0.8-0.2,0.1,0.3-0.6,0.2l0.4,0.1c-0.1,0-0.2,0-0.2,0
		l0.5,0.1c-0.4,0,0.3,0.4,0.1,0.4c0-0.2-0.4-0.2-0.7-0.4c-0.5,0.1,0.9,0.5,0.7,0.8c0.1,0-0.2-0.2-0.4-0.2c0.1,0.1,0.2,0.2,0.4,0.3
		c-0.1,0.2-0.4-0.2-0.6-0.1c0.4,0.2-0.2,0.1-0.3,0.1l0.4,0.1c0.2,0.3-0.8-0.2-0.5,0.1L82.7,9l-0.1,0.1L83,9.2
		c-0.3,0-0.2,0.1-0.2,0.3c-0.2-0.1-0.7-0.2-0.7-0.1c0.2,0.2,0.3,0.1,0.3,0.2c0.2,0,0.5,0.1,0.2-0.1c0.1,0,0.2,0,0.3,0.1
		c0.2,0.2,0,0.2,0,0.3c0,0,0-0.1-0.1-0.1l-0.5,0.1c0.1,0.1,0.2,0.1,0.3,0.1c0,0-0.2,0-0.3,0.1c0.3,0.1,0.6,0.2,0.7,0.1l-0.2,0.5
		c0.1,0.1,0.3,0.2,0.4,0.2c0.2,0.2-0.6,0.1-0.4,0.4c-0.1,0-0.1,0-0.2,0c0,0.2,0.4,0.4,0,0.5l0.5,0.3c-0.1,0.1-0.6-0.4-0.9-0.2
		c-0.2,0.1,0.4,0.2,0.6,0.3C82.5,12.2,82,12.2,82.4,12.4C82.5,12.5,82.4,12.4,82.4,12.4"/>
	<path class="st0" d="M81.2,16.4c-0.1,0-0.1-0.1-0.2-0.1C81.1,16.3,81.1,16.3,81.2,16.4"/>
	<path class="st0" d="M82.8,11.3L82.8,11.3L82.8,11.3z"/>
	<path class="st0" d="M80.5,22c0-0.1-0.1-0.1-0.2-0.1C80.5,21.9,80.5,22,80.5,22"/>
	<path class="st0" d="M76.5,24.7L76.5,24.7c0.1,0,0.2,0,0.2,0C76.6,24.7,76.5,24.7,76.5,24.7"/>
	<path class="st0" d="M78.7,25.8C78.7,25.9,78.7,25.9,78.7,25.8l-0.2,0.1C78.5,25.8,78.7,25.8,78.7,25.8"/>
	<path class="st0" d="M77.7,24.9c0.3,0,0.2,0.1,0.1,0.2l0,0C77.4,25.1,77.6,25,77.7,24.9"/>
	<path class="st0" d="M77.8,25.1C77.8,25.2,77.8,25.2,77.8,25.1C77.6,25.2,77.8,25.2,77.8,25.1"/>
	<path class="st0" d="M77,24c0.1,0.1-0.4,0-0.3,0C76.3,23.9,77.2,23.8,77,24"/>
	<polygon class="st0" points="78.3,25 78.7,25.1 78.6,25 	"/>
	<path class="st0" d="M78.5,24.5L78.5,24.5C78.5,24.6,78.5,24.6,78.5,24.5C78.4,24.5,78.4,24.4,78.5,24.5"/>
	<path class="st0" d="M78.4,24.6C78.4,24.7,78.4,24.7,78.4,24.6C78.4,24.7,78.4,24.6,78.4,24.6"/>
	<polygon class="st0" points="78.8,24.9 78.8,24.9 78.7,24.8 	"/>
	<path class="st0" d="M78.5,23.2L78.5,23.2c0.2-0.1,0.3,0,0.2,0C78.7,23.2,78.6,23.2,78.5,23.2"/>
	<path class="st0" d="M79.5,23.8c-0.1-0.1-0.2-0.1-0.3-0.1l0.5,0.1H79.5z"/>
	<path class="st0" d="M79.6,23.5c0.1,0,0.4-0.1,0.3,0.1C79.9,23.5,79.7,23.6,79.6,23.5"/>
	<polygon class="st0" points="79.3,21.4 79.3,21.4 78.6,21.2 	"/>
	<path class="st0" d="M81.4,20.4c0.2,0.2-0.5-0.1-0.3,0.1c-0.2,0-0.2-0.2-0.3-0.2C81,20.2,80.9,20.1,81.4,20.4"/>
	<path class="st0" d="M80.8,20.3L80.8,20.3C80.7,20.3,80.7,20.3,80.8,20.3"/>
	<polygon class="st0" points="80.4,0.2 80.5,0.2 80.3,0.1 	"/>
	<path class="st0" d="M81,0.2L80.5,0L81,0.2C80.9,0.2,80.9,0.2,81,0.2"/>
	<path class="st0" d="M82.9,14.7h-0.2c-0.1-0.1-0.1-0.1-0.1-0.1L82.9,14.7z"/>
	<polygon class="st0" points="82.7,13.3 82.7,13.3 82.3,13.1 	"/>
	<path class="st0" d="M83.4,12.4c0,0.1-0.1,0.1-0.1,0.1C83.4,12.4,82.9,12.2,83.4,12.4"/>
</g>
</svg>
