<?xml version="1.0" encoding="utf-8"?>
<!-- Generator: Adobe Illustrator 19.2.1, SVG Export Plug-In . SVG Version: 6.00 Build 0)  -->
<svg version="1.1" id="Layer_1" xmlns="http://www.w3.org/2000/svg" xmlns:xlink="http://www.w3.org/1999/xlink" x="0px" y="0px"
	 viewBox="0 0 108.3 115.7" style="enable-background:new 0 0 108.3 115.7;" xml:space="preserve">
<style type="text/css">
	.st0{fill:#082432;}
</style>
<path class="st0" d="M86.8,115.4c0.6,0,1.2-0.1,1.9-0.1c0.7,0,1.3,0,2,0.1v-0.5h-0.3c-0.6,0-0.9-0.2-0.9-1v-4.4c0.7-0.5,1.3-1,2.1-1
	c1.1,0,1.8,0.7,1.8,1.9v3.7c0,0.8-0.2,0.9-1,0.9h-0.2v0.5c0.7,0,1.3-0.1,2-0.1c0.6,0,1.2,0,1.8,0.1V115h-0.4c-0.6,0-0.9-0.2-0.9-0.9
	v-4.5c0.7-0.5,1.3-1,2.1-1c1.2,0,1.8,0.6,1.8,1.9v3.3c0,1-0.1,1.4-1,1.4h-0.2v0.5c0.7,0,1.3-0.1,1.9-0.1s1.2,0,1.8,0.1v-0.5h-0.3
	c-0.7,0-0.9-0.1-0.9-1.1v-3.4c0-1-0.1-1.6-0.5-2.2c-0.4-0.5-1-0.8-1.9-0.8c-1.3,0-2.3,0.9-3,1.5c-0.5-1.1-1.4-1.5-2.5-1.5
	s-1.9,0.8-2.7,1.4v-1.4h-0.2c-0.7,0.5-1.6,0.9-2.3,1.1v0.5c0.2-0.1,0.5-0.2,0.6-0.2c0.4,0,0.6,0.3,0.6,1.8v3c0,1-0.1,1.2-0.9,1.2
	h-0.3V115.4z M83,113c0,0.4,0,0.6,0.1,0.8c-0.6,0.4-1,0.8-1.6,0.8c-0.9,0-1.4-0.8-1.4-1.3c0-0.8,0.8-1.1,1.2-1.3l1.8-0.8L83,113
	L83,113z M83,110.7l-2.5,1c-1.2,0.5-1.8,0.9-1.8,1.9c0,0.9,0.7,1.9,2,1.9c0.7,0,1.2-0.2,2.4-1c0.1,0.5,0.2,1,0.4,1
	c0.1,0,0.1,0,0.3-0.1l1.7-0.8v-0.5c-0.3,0.1-0.6,0.2-0.8,0.2c-0.3,0-0.4-0.2-0.4-1.1v-3.5c0-0.8-0.3-2.3-2.5-2.3
	c-0.3,0-0.9,0.2-1.6,0.6c-0.8,0.5-1.2,0.8-1.2,1.4c0,0.3,0.1,0.6,0.3,0.9l1.1-0.5c-0.1-0.3-0.2-0.5-0.2-0.8c0-0.5,0.9-1,1.3-1
	c1,0,1.5,1.1,1.5,2C83,110,83,110.7,83,110.7z M68.2,115.4c0.5,0,1.3-0.1,2-0.1s1.5,0,1.9,0.1v-0.5h-0.2c-0.8,0-0.9-0.2-0.9-1.1
	v-4.4c0.6-0.4,1.4-1,2.2-1c0.7,0,1.2,0.3,1.4,0.7c0.3,0.5,0.3,1,0.3,1.5v2.7c0,1.3-0.2,1.5-0.9,1.5h-0.3v0.5c0.4,0,1.2-0.1,1.7-0.1
	c0.7,0,1.6,0,2.1,0.1v-0.5h-0.3c-0.8,0-1-0.2-1-1.3v-2.8c0-1.1-0.1-1.8-0.5-2.4s-1-1-2-1s-1.9,0.7-2.7,1.3v-3.9c0-1.7,0-2.9,0.1-3.3
	h-0.2c-1,0.6-1.8,0.9-2.6,1.3v0.6c0.1-0.1,0.4-0.2,0.7-0.2c0.4,0,0.6,0.3,0.6,0.9v9.3c0,1.2-0.5,1.4-1.1,1.4h-0.3V115.4z M58,115.4
	c0.6,0,1.3-0.1,1.9-0.1s1.3,0,1.7,0.1v-0.5h-0.3c-0.7,0-0.8-0.1-0.8-0.9v-4.5c0.4-0.4,1.2-1,2-1c0.6,0,1,0.2,1.2,0.4
	c0.5,0.5,0.6,0.9,0.6,1.9v2.7c0,1.1-0.1,1.4-0.8,1.4h-0.3v0.5c0.5,0,1.3-0.1,1.9-0.1s1.4,0,1.8,0.1v-0.5h-0.3c-0.9,0-1-0.2-1-0.9
	v-3.2c0-0.7-0.1-1.5-0.4-2.1c-0.5-1-1.5-1.3-2.1-1.3c-1.1,0-2,0.9-2.7,1.5v-1.5h-0.2c-0.7,0.5-1.6,0.9-2.3,1.1v0.5
	c0.2-0.1,0.5-0.2,0.6-0.2c0.4,0,0.6,0.3,0.6,1.8v3c0,1-0.1,1.2-0.9,1.2h-0.3v0.6H58z M51.1,110.2c0-0.6,0.6-2.2,2.2-2.2
	c0.5,0,2.1,0.3,2.1,2.2H51.1z M56.7,114c-0.4,0.3-1.2,0.7-2.4,0.7c-2.2,0-3.1-1.7-3.2-4h5.7v-0.2c0-1.9-1.2-3.2-3.4-3.2
	c-2,0-3.8,1.9-3.8,4c0,1.9,1.3,4.1,4.1,4.1c1.3,0,2.3-0.5,3-0.9C56.7,114.5,56.7,114,56.7,114z M42.7,108.3h1.7v4.1
	c0,0.8,0.1,1.7,0.7,2.3c0.7,0.7,1.8,0.8,2,0.8s0.3,0,0.4-0.1l1.4-1.2l-0.3-0.3c-0.3,0.2-0.8,0.5-1.4,0.5c-1.2,0-1.5-1.2-1.5-2.1v-4
	h2.5l0.2-0.7h-2.8V105l-0.2,0.1c-0.7,1.4-1.7,2.4-2.8,3.1v0.1H42.7z M38.3,103.4c0.1-0.1,0.4-0.2,0.7-0.2c0.4,0,0.6,0.3,0.6,0.9v9.3
	c0,1.2-0.4,1.4-1,1.4h-0.4v0.5c0.7,0,1.5-0.1,2-0.1c0.6,0,1.4,0,2,0.1v-0.5h-0.3c-0.6,0-1-0.2-1-1.4v-8.6c0-1.7,0-2.9,0.1-3.3h-0.2
	c-1,0.6-1.8,0.9-2.6,1.3L38.3,103.4L38.3,103.4z M31.4,110.2c0-0.6,0.6-2.2,2.2-2.2c0.5,0,2.1,0.3,2.1,2.2H31.4z M37,114
	c-0.4,0.3-1.2,0.7-2.4,0.7c-2.2,0-3.1-1.7-3.2-4h5.7v-0.2c0-1.9-1.2-3.2-3.4-3.2c-2,0-3.8,1.9-3.8,4c0,1.9,1.3,4.1,4.1,4.1
	c1.3,0,2.3-0.5,3-0.9C37,114.5,37,114,37,114z M19.8,115.4c0.5,0,1.3-0.1,2-0.1s1.5,0,1.9,0.1v-0.5h-0.2c-0.8,0-0.9-0.2-0.9-1.1
	v-4.4c0.6-0.4,1.4-1,2.2-1c0.7,0,1.2,0.3,1.4,0.7c0.3,0.5,0.3,1,0.3,1.5v2.7c0,1.3-0.2,1.5-0.9,1.5h-0.3v0.5c0.4,0,1.2-0.1,1.7-0.1
	c0.7,0,1.6,0,2.1,0.1v-0.5h-0.3c-0.8,0-1-0.2-1-1.3v-2.8c0-1.1-0.1-1.8-0.5-2.4s-1-1-2-1s-1.9,0.7-2.7,1.3v-3.9c0-1.7,0-2.9,0.1-3.3
	h-0.2c-1,0.6-1.8,0.9-2.6,1.3v0.6c0.1-0.1,0.4-0.2,0.7-0.2c0.4,0,0.6,0.3,0.6,0.9v9.3c0,1.2-0.5,1.4-1.1,1.4h-0.3V115.4z
	 M18.2,103.7c-0.2,0-0.5-0.1-0.9-0.2c-0.6-0.2-2.3-0.7-4-0.7c-4.1,0-6.5,3.5-6.5,6.9c0,3.5,2.7,6,6.7,6c2.7,0,4.2-1.4,4.8-2v-1.3
	h-0.1c-0.8,1-2.1,2.6-4.8,2.6c-1.8,0-4.8-1.4-4.8-5.6c0-2.6,1.1-5.8,4.7-5.8c3.3,0,4.1,1.7,4.6,2.6h0.3V103.7z"/>
<path class="st0" d="M88.2,84.8c-0.1,0-0.1-0.1-0.1-0.2C88.2,84.6,88.2,84.7,88.2,84.8 M95.8,77.3c0,0.8-0.1,1.4-0.3,2
	c-0.2,0.6-0.4,1.2-0.6,1.8c-0.1,0.2-0.1,0.4-0.1,0.4s0,0,0.1-0.1l-0.2,0.3c-0.1,0.1-0.1,0.2-0.2,0.3c0,0.1-0.1,0.1-0.2,0.1
	c-0.1,0.1-0.1,0.2,0,0.2c-0.3,0.3-0.6,0.6-1,0.9s-0.8,0.6-1.2,0.7C92,84,91.8,84,91.6,84s-0.3,0-0.4-0.1c-0.1,0.1-0.1,0.1-0.2,0
	c-0.1,0-0.1-0.1-0.3-0.1v-0.1v-0.1c-0.1,0.1-0.1,0.1-0.1,0c0,0,0,0-0.1,0c0,0.1,0,0.1,0.1,0.1s0.1,0,0,0.1c-0.1,0-0.1,0-0.2,0
	s-0.1,0-0.1-0.1v0.1c-0.1-0.1-0.1-0.1-0.2-0.1s-0.2,0-0.3-0.1c0.1-0.3,0.1-0.5,0.1-0.7s0-0.4,0-0.6c0-0.1,0-0.1,0-0.1s0-0.1,0-0.2
	l0,0v0.1c0-0.2,0-0.3,0-0.4c0-0.2,0-0.3,0-0.3v0.1c0,0.1,0,0.1,0,0.2c0,0,0.1,0,0.2-0.2c0.1-0.1,0.2-0.3,0.3-0.4
	c0.1-0.1,0.2-0.2,0.4-0.4c0.1-0.1,0.2-0.2,0.3-0.3s0.2-0.2,0.3-0.3h0.1c0-0.1,0.1-0.1,0.1-0.1c0.1-0.1,0.3-0.3,0.6-0.5
	c0.2-0.2,0.4-0.4,0.7-0.6c0.1-0.1,0.3-0.2,0.4-0.3c0.1-0.1,0.3-0.2,0.4-0.3h0.1c0.2-0.1,0.4-0.2,0.6-0.4c0.2-0.1,0.4-0.2,0.6-0.4
	v-0.2c0.1-0.1,0.3-0.1,0.4-0.2s0.3-0.2,0.5-0.3c0,0.1,0,0.1,0,0.2S95.9,77.2,95.8,77.3L95.8,77.3z M105.9,69.7c0.1,0,0.2,0,0.1-0.1
	c-0.2,0.3-0.7,0.7-1.3,1.1c-0.6,0.4-1.3,0.8-2,1.2c-0.7,0.4-1.4,0.7-2.1,1s-1.2,0.5-1.5,0.5c-0.1-0.2-0.2-0.5-0.3-0.7
	c-0.1-0.2-0.1-0.5-0.2-0.7c-0.2-0.6-0.4-1.3-0.6-2s-0.4-1.4-0.6-2c-0.1-0.1-0.1-0.1-0.1-0.2v-0.2c-0.1-0.1-0.1-0.2-0.1-0.4
	c0-0.1,0-0.2,0-0.4c0-0.1,0-0.3-0.1-0.5c0-0.2,0-0.3,0-0.5C97,65.5,97,65.3,97,65c-0.1-0.1-0.2-0.3-0.3-0.4c0-0.2-0.1-0.4-0.1-0.7
	c-0.2-0.2-0.4-0.3-0.7-0.1c-0.1,0-0.1,0-0.2-0.1s-0.1-0.1-0.2-0.2c0,0.1,0,0.1-0.1,0.1s-0.1-0.1-0.2,0c-0.1-0.1-0.2-0.1-0.3-0.1
	c-0.1,0-0.2,0-0.3,0c-0.1,0.1-0.3,0.2-0.4,0.3C94.1,63.9,94,64,93.9,64c-0.2,0.3-0.3,0.5-0.4,0.7c0,0.1-0.1,0.3-0.1,0.4
	s-0.1,0.2-0.1,0.3c-0.1,0.2-0.1,0.5,0.1,0.9c0.2,0.3,0.3,0.7,0.5,1c0.2,0.4,0.3,0.7,0.5,1c0.1,0.3,0.1,0.5-0.1,0.6
	c-0.1,0.1-0.1,0.2-0.3,0.4c-0.1,0.2-0.2,0.4-0.4,0.6c-0.1,0.2-0.3,0.3-0.4,0.5c-0.1,0.1-0.2,0.2-0.3,0.3c-0.2,0.3-0.4,0.5-0.4,0.6
	c-0.1,0.1-0.2,0.3-0.2,0.4c-0.1,0.1-0.2,0.3-0.3,0.4c-0.1,0.2-0.3,0.4-0.5,0.6s-0.3,0.4-0.3,0.5s-0.2,0.3-0.4,0.6
	c0,0-0.1,0.1-0.2,0.2s-0.2,0.3-0.4,0.4c-0.1,0.2-0.3,0.3-0.4,0.4S89.6,75,89.6,75c-0.1,0.1-0.3,0.3-0.4,0.4s-0.2,0.2-0.3,0.4
	c-0.1,0.3-0.4,0.6-0.8,0.8c-0.4,0.2-0.7,0.5-0.7,0.7c0.1,0,0.2,0,0.3,0c0.1,0.1,0.3,0.1,0.4,0c0,0.1,0,0,0.1,0
	c0-0.1,0.1-0.1,0.2-0.1c0.1,0.1,0.1,0.1,0.2,0.1s0.1,0,0,0.1c0,0.1,0,0.1-0.1,0.1s-0.1,0,0,0c0,0.1,0,0.1,0,0.1
	c-0.1,0-0.1,0.1,0,0.1c0.1-0.1,0.1-0.1,0.3-0.2c0.1-0.1,0.2-0.1,0.2-0.1c0.1-0.1,0.1-0.1,0.1,0s0,0.1,0,0c0.1,0,0,0.1-0.1,0.1
	s-0.1,0,0,0c0,0,0,0.1,0.1,0.1c0.1-0.2,0.3-0.3,0.4-0.4s0.2-0.2,0.3-0.2c0.1-0.1,0.1-0.1,0.2-0.1c0.2-0.1,0.4-0.1,0.6-0.2
	s0.3-0.2,0.3-0.4c0,0,0,0,0.1-0.1s0.2-0.2,0.4-0.4c0.1-0.1,0.3-0.3,0.6-0.5c0.2-0.2,0.4-0.4,0.5-0.6s0.3-0.3,0.5-0.5
	c0,0,0.1-0.1,0.2-0.2s0.2-0.3,0.4-0.5c0.1-0.2,0.2-0.3,0.4-0.5c0.1-0.1,0.2-0.2,0.2-0.3c0.1,0,0.2-0.1,0.4-0.4
	c0.2-0.3,0.3-0.5,0.4-0.7c0-0.1,0.1-0.1,0.1,0s0.1,0.2,0.1,0.4c0,0.2,0,0.4,0,0.5c0,0.2,0,0.3,0,0.4c0,0,0.1,0,0.2,0
	c0,0.3,0.1,0.5,0.1,0.7c0.1,0.2,0.1,0.4,0.2,0.6c0,0.2,0.1,0.4,0.1,0.6s0.1,0.5,0.1,0.8c-1.2,0.7-2.4,1.4-3.6,2.2
	c-1.2,0.8-2.2,1.7-3.1,2.8v0.2c-0.1,0-0.2,0.2-0.4,0.4c-0.1,0.2-0.2,0.5-0.4,0.8c-0.1,0.3-0.2,0.6-0.2,0.9c-0.1,0.3-0.1,0.6-0.1,0.9
	C88,83.9,88,83.9,88,84s0,0.1,0.1,0.1V84c0,0,0,0,0-0.1c0,0.1,0,0.1,0,0.2s0.1,0.2,0.1,0.2c0,0.1-0.1,0.1-0.1,0.1s0,0,0,0.1
	s0.1,0.1,0.1,0.1v0.1c0.1,0.1,0.2,0.2,0.4,0.4c0.1,0.1,0.2,0.1,0.3,0.2c0.1,0.1,0.1,0.1,0.3,0.2c0.2,0.5,0.5,0.8,1,1
	c0.1,0.1,0.3,0.1,0.4,0.1s0.3,0.1,0.5,0.1v0.2H91c0.1,0,0.1,0.1,0.1,0.2s0,0.2,0.1,0.2c0.2,0,0.5-0.1,0.7-0.2
	c0.3-0.1,0.5-0.2,0.7-0.2c0.1,0,0.1,0,0.1,0.1s0,0.1,0.1,0.1s0.1,0,0.1-0.1s0.1-0.1,0.2-0.1c0,0.1,0.1,0.2,0.1,0.3
	c0.2-0.1,0.4-0.2,0.5-0.4c0.1,0,0.1,0,0.1,0.1s0,0.1,0,0.1c0.1-0.1,0.1-0.1,0.3-0.1c0.1-0.2,0.2-0.3,0.5-0.4
	c0.1-0.1,0.1-0.2,0.2-0.3s0.1-0.1,0.2-0.2c0.1,0,0.1,0,0.1,0s0,0,0.1,0c0.1-0.1,0.1-0.2,0.2-0.2s0.2,0,0.3-0.1
	c0.1-0.1,0.1-0.2,0.2-0.3s0.1-0.2,0.2-0.3l0,0l0,0c0.1-0.1,0.1-0.1,0.1-0.2s0.1-0.2,0.2-0.3c0-0.1,0.1-0.1,0.1-0.1
	c0.1,0,0.1,0,0.1,0c0.1-0.1,0.1-0.2,0.2-0.3c0-0.1,0.1-0.1,0.2,0c0,0.1,0,0.2,0,0.2s0,0,0,0.1c0,0,0-0.1,0-0.2
	c0.1-0.1,0.3-0.2,0.4-0.3c0.1-0.1,0.2-0.2,0.2-0.3c0.1,0.1,0.1,0.1,0.1,0s0.1-0.2,0.2-0.2s0.1,0,0,0.1v0.1c0.1-0.1,0.1-0.3,0.2-0.4
	c0-0.2,0.1-0.3,0.2-0.3c0.1-0.1,0.1-0.2,0-0.3c0.1,0.1,0.2,0,0.2-0.1s0.1-0.2,0.2-0.2v0.1v0.1c0.1-0.1,0.2-0.2,0.3-0.4
	c0.1-0.2,0.2-0.4,0.2-0.6s0.1-0.4,0.1-0.6s0.1-0.3,0.1-0.4c0.2-0.8,0.4-1.6,0.4-2.5s0-1.7-0.1-2.5c0.4-0.1,1-0.3,1.8-0.7
	c0.7-0.4,1.5-0.7,2.2-1.1c0.7-0.4,1.4-0.8,1.9-1.2c0.5-0.4,0.8-0.6,0.7-0.8c0.1-0.1,0.1-0.1,0.3-0.1c0,0,0-0.1,0.1-0.1
	s0.1-0.1,0.1-0.1c-0.1,0-0.1,0-0.1,0s0,0,0.1,0h0.1c0,0,0,0-0.1,0c-0.2,0.1-0.4,0.1-0.4,0.1l0,0l0,0c0,0-0.1,0-0.4,0.1
	c-0.1,0-0.1-0.1-0.1-0.2c0.1-0.1,0.3-0.1,0.5-0.2s0.4-0.2,0.5-0.2c0.2-0.1,0.2-0.1,0.2-0.1s-0.1,0-0.1,0.1c-0.1,0-0.1,0.1-0.1,0.1
	s0,0,0.2,0c0.1,0,0.2-0.1,0.2-0.1l0,0l0,0c0,0,0,0,0.2-0.1c-0.1,0-0.2,0-0.3,0.1c-0.1,0-0.2,0-0.2,0c0.1-0.1,0.2-0.2,0.4-0.2
	s0.3,0,0.4-0.2c0-0.1,0-0.2,0.1-0.2c0,0,0.1-0.1,0.2-0.2c0-0.1-0.1-0.1-0.1-0.2c0.1-0.1,0.2-0.1,0.3,0c0-0.1,0-0.1-0.1-0.1H108
	c-0.2,0-0.4,0.1-0.6,0.1c-0.2,0-0.4,0.1-0.6,0.1c0-0.1,0-0.1-0.1-0.1s-0.1,0-0.1-0.1c0.1,0,0.1-0.1,0.2-0.2
	C106.2,69.8,106,69.8,105.9,69.7c0,0.1-0.1,0.1-0.2,0.1C105.7,69.8,105.8,69.7,105.9,69.7 M77,64.4c-0.1,0-0.2,0-0.2,0
	s-0.1,0-0.1,0.1c-0.1,0.1-0.2,0.1-0.4,0.2c-0.1,0.1-0.1,0.3-0.2,0.4s-0.1,0.3-0.2,0.4c0,0.1-0.1,0.1-0.1,0.2s-0.1,0.1-0.1,0.2
	c-0.1,0.1-0.1,0.1-0.1,0.2s0,0.2-0.1,0.2c-0.1,0.1-0.1,0.3-0.1,0.5s0,0.4-0.1,0.5c0,0.1-0.1,0.3-0.1,0.5s-0.1,0.3-0.1,0.5
	c-0.2,0.9-0.5,1.9-0.7,2.8S74,73,73.8,74c-0.1,0.2-0.1,0.4-0.1,0.5c0,0.3,0,0.5-0.1,0.8c-0.1,0.2-0.1,0.5-0.2,0.7
	c-0.1,0.3-0.1,0.6-0.2,1c-0.1,0.3-0.1,0.6-0.2,1c-0.1,0.3-0.1,0.7-0.2,1c-0.1,0.4-0.1,0.7-0.1,1.1v0.5c0,0.3,0,0.6,0.1,0.9
	c0.1,0.1,0.1,0.2,0.2,0.3c0,0.1,0.1,0.2,0.3,0.3V82v-0.1c0,0,0,0,0,0.1s0,0.1,0,0.1l0,0l0,0l0.3,0.1c0-0.1,0.1-0.1,0.1,0
	c0.1,0,0.1,0,0.2,0l0,0c0.1-0.1,0.2-0.1,0.2-0.2c0.1-0.1,0.1-0.1,0.3-0.2l0,0l0,0c0.1,0,0.1,0,0.1,0h0.1c0-0.1,0-0.2,0-0.3
	c0-0.1,0-0.2,0.1-0.3c0.1-0.1,0.1-0.2,0.1-0.1l0,0c0-0.1,0-0.1,0.1-0.1c0,0.1,0,0.1,0,0.2s0,0.1,0,0.2l0.1-0.3l0,0l0,0l0.1-0.1
	c0,0,0.1-0.1,0-0.2v0.1l0,0v-0.1v-0.1c0.1,0,0.1,0.1,0.1,0.1v0.1c0,0,0,0,0.1-0.1v-0.3l0.1-0.1v-0.3h0.1h0.1
	c0.1-0.4,0.3-0.8,0.5-1.1c0.1-0.1,0.1-0.1,0.1-0.1v-0.2l0.1-0.2c0,0,0-0.1,0.1-0.1c0-0.1,0-0.2,0-0.4c0.1-0.2,0.3-0.4,0.4-0.6
	s0.2-0.4,0.4-0.6l0.1-0.1c0,0,0-0.1,0.1-0.1l0,0l0.4-0.5c0.1-0.2,0.2-0.4,0.3-0.7l0,0l0.1-0.1c0.2-0.4,0.4-0.7,0.7-1
	c0.3-0.3,0.5-0.6,0.7-1l0,0c0.1-0.1,0.1-0.1,0.1-0.2s0.1-0.1,0.2-0.2c0.1-0.2,0.3-0.4,0.4-0.6s0.3-0.4,0.4-0.6
	c0.1-0.1,0.3-0.3,0.4-0.6c0.1-0.2,0.3-0.4,0.5-0.5c0.2-0.2,0.4-0.3,0.5-0.5c0.1-0.1,0.2-0.1,0.3-0.2c0.1-0.1,0.2-0.2,0.3-0.3
	c0.2-0.1,0.3-0.3,0.5-0.5c0.1-0.2,0.3-0.4,0.5-0.5s0.4-0.1,0.6-0.2s0.4-0.2,0.6-0.2c-0.1,0.3-0.2,0.5-0.3,0.8
	c-0.1,0.2-0.2,0.5-0.3,0.8c-0.1,0.3-0.2,0.5-0.2,0.8c-0.1,0.3-0.1,0.6-0.2,0.9c-0.2,0.5-0.4,1-0.6,1.5s-0.4,1-0.6,1.5
	c-0.1,0.2-0.2,0.5-0.3,0.8c-0.1,0.3-0.2,0.5-0.2,0.8L82.1,77c-0.1,0.4-0.2,0.8-0.4,1.2c-0.2,0.4-0.2,0.8-0.2,1.3c0,0.2,0,0.3,0,0.5
	c0,0.1,0.1,0.3,0.1,0.4s0.1,0.1,0.1,0.2s0,0.2,0.1,0.2c0,0.1,0,0.1,0,0.2s0.1,0.1,0.1,0.2c0.3,0.3,0.7,0.5,1.2,0.8
	c0.1,0,0.3,0,0.5,0s0.3,0,0.5,0.1c0.3,0,0.6,0,0.9-0.1c0.2-0.1,0.4-0.1,0.6-0.2s0.4-0.1,0.6-0.2s0.3-0.1,0.4-0.1h0.1l0,0l0,0h0.1
	c0,0,0,0,0.1,0c0.1-0.1,0.2-0.1,0.2-0.2c0.1-0.1,0.2-0.2,0.4-0.2c0.3-0.2,0.5-0.4,0.6-0.4s0.2-0.2,0.5-0.5c0-0.1,0-0.1,0.1-0.2
	s0.2-0.1,0.3-0.2c0.1-0.1,0.2-0.1,0.3-0.2c0.3-0.2,0.6-0.5,0.9-0.7s0.6-0.4,0.9-0.7c0-0.1,0-0.1,0.1-0.2c0.1,0,0.1-0.1,0.1-0.2
	c-0.3,0.3-0.7,0.5-1,0.8s-0.7,0.5-1.1,0.7c0.1-0.1,0.2-0.3,0.4-0.4c0.1-0.1,0.2-0.2,0.4-0.3c0.1-0.1,0.1-0.1,0.1-0.1l0.1-0.1
	l0.1-0.1c0,0,0-0.1,0.1-0.1c0.2-0.2,0.4-0.3,0.5-0.4l0,0l0,0l0,0l0,0c0.1-0.1,0.2-0.3,0.4-0.4c0.1-0.1,0.2-0.3,0.4-0.4
	c0-0.1,0.1-0.2,0.1-0.3c0.1-0.1,0.1-0.2,0.1-0.3l0,0l0,0c-0.1,0-0.1,0-0.1,0h-0.1h-0.2c-0.1,0.1-0.2,0.1-0.3,0.2
	c-0.1,0.1-0.2,0.1-0.3,0.2c-0.1,0-0.1,0-0.1,0h-0.1c-0.1,0-0.1,0.1-0.1,0.1L90.5,77c-0.1,0-0.1,0-0.2,0s-0.1,0-0.1,0.1
	c-0.1,0.1-0.2,0.1-0.2,0.2s-0.2,0.1-0.2,0.2c-0.1,0.1-0.3,0.3-0.5,0.3c-0.2,0.1-0.4,0.2-0.5,0.2c-0.1-0.1-0.1-0.1-0.1-0.1
	c-0.1,0.1-0.2,0.1-0.2,0.2s-0.1,0.2-0.3,0.2c-0.1,0.1-0.2,0.2-0.3,0.2l-0.1,0.1c0,0-0.1,0-0.2,0.1c-0.1,0-0.2,0.1-0.3,0.2
	c-0.3,0.1-0.7,0.3-1,0.4s-0.7,0.2-1.2,0.2c-0.1-0.1-0.2-0.3-0.4-0.3c-0.2-0.1-0.3-0.2-0.3-0.5c0-0.1,0-0.2,0-0.2c0-0.1,0-0.2,0-0.2
	c0-0.2,0-0.5,0.1-0.7c0-0.2,0.1-0.4,0.1-0.5s0-0.1,0.1-0.2c0-0.1,0.1-0.1,0.1-0.2s0-0.2,0.1-0.3c0-0.2,0.1-0.3,0.2-0.5l0,0
	c0.2-0.4,0.4-0.8,0.5-1.3c0.2-0.4,0.3-0.9,0.5-1.3c0.1-0.2,0.2-0.5,0.2-0.7c0.1-0.2,0.2-0.4,0.2-0.6c0.1-0.3,0.2-0.5,0.3-0.6
	c0-0.1,0.1-0.1,0.1-0.2s0-0.1,0.1-0.2c0-0.1,0-0.1,0-0.2s0-0.1,0-0.2v-0.1c0,0,0,0,0-0.1s0-0.2,0-0.2c0-0.1,0-0.1,0-0.2s0-0.1,0-0.2
	l0.1-0.2c0-0.1,0-0.1,0-0.2s0-0.1,0-0.2c0.1-0.6,0.2-1.3,0.3-1.9v-0.4c0.1-0.1,0.1-0.2,0.1-0.4c0-0.1,0-0.1-0.1-0.2
	s-0.1-0.1-0.1-0.2c0,0,0,0,0-0.1s0-0.1,0-0.2s0-0.2,0-0.2c0-0.3-0.2-0.4-0.4-0.5c-0.3-0.2-0.6-0.2-1.1-0.2c-0.4,0-0.7,0.1-1,0.3
	c-0.3,0.1-0.6,0.3-0.8,0.4c-0.1,0.1-0.1,0.1-0.2,0.1s-0.1,0.1-0.2,0.1c-0.1,0.1-0.1,0.1-0.2,0.1S83.3,66,83.2,66
	c-0.3,0.3-0.6,0.6-0.9,0.9s-0.6,0.6-0.9,0.9c0,0.1-0.1,0.1-0.1,0.2c-0.1,0-0.1,0.1-0.1,0.1s-0.1,0-0.1,0.1c-0.2,0.1-0.4,0.3-0.4,0.4
	c-0.1,0.1-0.2,0.3-0.2,0.4c-0.1,0.1-0.2,0.2-0.3,0.3c-0.1,0.1-0.2,0.2-0.3,0.3c-0.1,0.1-0.2,0.2-0.3,0.3c-0.1,0.1-0.2,0.2-0.2,0.4
	c-0.1,0.1-0.2,0.2-0.3,0.4c0-0.1,0-0.2,0-0.3c0-0.1,0-0.2,0-0.3c0-0.1,0-0.1,0-0.1v-0.1c0-0.2,0.1-0.5,0.1-0.7s0-0.4,0.1-0.7v-0.3
	v-0.6c0-0.3,0-0.6,0-0.7c0-0.2,0-0.3,0-0.4c-0.1-0.1-0.1-0.1-0.1-0.2s0-0.1,0-0.1v-0.1c-0.1-0.1-0.1-0.1-0.1-0.2S79,65.7,79,65.7
	c-0.1-0.2-0.1-0.4-0.2-0.5c-0.1-0.2-0.2-0.4-0.4-0.4c-0.1-0.1-0.1-0.1-0.2-0.1s-0.1,0-0.2,0s-0.1,0-0.2,0s-0.3,0-0.4,0h-0.3
	C77.2,64.4,77.1,64.4,77,64.4 M63.3,80.8C63.3,80.9,63.4,80.9,63.3,80.8C63.3,80.9,63.3,80.9,63.3,80.8 M67.5,65.8
	c-0.1,0.1-0.2,0.1-0.4,0.2H67h-0.1l0,0v0.1h-0.1h-0.1c-0.1,0.1-0.2,0.1-0.3,0.3c-0.1,0.1-0.2,0.2-0.2,0.3l-0.1,0.1
	c0,0.1,0,0.1,0,0.2c-0.2,0.6-0.4,1.3-0.6,1.8c-0.2,0.6-0.4,1.2-0.7,1.8c-0.1,0.2-0.1,0.3-0.1,0.4s-0.1,0.3-0.1,0.4s-0.1,0.2-0.1,0.4
	c-0.1,0.1-0.1,0.2-0.1,0.3c0,0.1-0.1,0.2-0.1,0.4c-0.1,0.4-0.2,0.7-0.3,1.1c-0.1,0.4-0.2,0.8-0.3,1.2c0,0.1,0,0.3,0,0.4v0.4
	c0,0.3,0,0.6,0,0.8s-0.1,0.5-0.1,0.8c-0.3,0.4-0.4,0.7-0.4,1s-0.1,0.6-0.1,0.9v0.5c0,0.1,0,0.2,0,0.4s0,0.2,0,0.4c0,0.1,0,0.2,0,0.4
	c0,0.1,0,0.2,0.1,0.3c0.1,0.2,0.2,0.4,0.3,0.5c0.1,0.1,0.2,0.3,0.3,0.5c0,0.1,0,0.1,0,0.1v0.1c0.1,0.2,0.2,0.4,0.3,0.5
	c0.1,0.1,0.1,0.1,0.2,0.2c0,0,0.1,0.1,0.2,0.2s0.3,0.2,0.6,0.3h0.2c0.3,0,0.5-0.1,0.8-0.2c0.1,0,0.1,0,0.1,0l0,0c0,0,0,0,0.1,0
	c0.2-0.1,0.3-0.2,0.4-0.2h0.2L67,83c0,0,0.1-0.1,0.2-0.1c0.6-0.4,1.1-0.7,1.5-1.1c0.5-0.4,0.9-0.8,1.4-1.2c0.1-0.1,0.2-0.2,0.3-0.2
	s0.2-0.1,0.3-0.2c0.1-0.1,0.1-0.1,0.1-0.1l0.1-0.1c0.1,0,0.2-0.1,0.3-0.2l0.1-0.1c0.1-0.1,0.1-0.1,0.2-0.3c0.1-0.1,0.3-0.1,0.4-0.2
	s0.2-0.2,0.3-0.3v-0.1c0,0,0,0,0-0.1c0.2-0.3,0.4-0.5,0.7-0.7c0.1-0.1,0.1-0.1,0.2-0.2s0.2-0.2,0.2-0.2c0.1-0.1,0.3-0.3,0.4-0.5
	s0.2-0.4,0.4-0.6c0,0,0.1-0.1,0.2-0.3c0.1-0.1,0.1-0.2,0.2-0.3c0.1-0.1,0.1-0.2,0.2-0.3c0,0,0-0.1,0.1-0.1c0.1-0.1,0.1-0.2,0.1-0.1
	c0-0.1,0-0.2,0-0.2c0-0.1,0-0.1,0-0.2v-0.1c0,0,0,0,0-0.1c0.2-0.3,0.4-0.5,0.6-0.7c-0.1-0.1-0.1-0.2,0-0.2c0-0.1,0.1-0.1,0.1-0.2
	c-0.2,0-0.4,0-0.5,0.1s-0.3,0.1-0.4,0.2h-0.1c-0.1,0-0.1,0-0.2,0c0,0-0.1,0.1-0.2,0.1c-0.2,0.2-0.5,0.4-0.7,0.7
	c-0.2,0.2-0.4,0.4-0.7,0.6c-0.1,0-0.1,0.1-0.3,0.2c-0.2,0.1-0.3,0.2-0.5,0.4c-0.2,0.1-0.3,0.2-0.5,0.4c-0.1,0.1-0.3,0.2-0.4,0.3
	c-0.1,0.1-0.2,0.2-0.4,0.3l-0.2,0.2c-0.3,0.3-0.6,0.6-0.8,0.7c-0.2,0.1-0.5,0.4-0.8,0.6c-0.1,0.1-0.2,0.2-0.5,0.4
	c-0.1,0.1-0.1,0.1-0.2,0.2S68,79.3,68,79.3c-0.1,0.1-0.3,0.2-0.4,0.3c-0.1,0.1-0.3,0.2-0.5,0.2C67,79.9,67,79.9,67,79.9h-0.3h-0.3
	c-0.1-0.4,0-0.7,0.2-0.9c0.2-0.2,0.3-0.5,0.4-0.8c0-0.1,0-0.1,0-0.2s0-0.1,0-0.2s0-0.1,0-0.1v-0.1c0.1-0.6,0.3-1.1,0.5-1.4
	c0.2-0.4,0.4-0.8,0.6-1.3c0.1-0.3,0.2-0.5,0.3-0.8c0.1-0.3,0.2-0.6,0.2-0.9c0-0.1,0.1-0.1,0.1-0.2s0-0.2,0.1-0.2
	c0-0.1,0.1-0.1,0.1-0.2s0-0.2,0-0.2c0-0.1,0.1-0.3,0.1-0.4s0.1-0.2,0.1-0.3c0,0,0-0.1,0.1-0.2c0-0.1,0-0.2,0-0.2
	c0-0.1,0.1-0.2,0.1-0.3c0-0.1,0.1-0.2,0.1-0.3v-0.1v-0.1v-0.1v-0.1c0,0,0,0,0-0.1s0-0.1,0-0.1V70l0,0v-0.1c0,0,0-0.1,0.1-0.1v-0.1
	c0,0,0,0,0-0.1s0-0.1,0-0.2v-0.3c0-0.5-0.1-0.9-0.3-1.1c0,0,0-0.1-0.1-0.2c0-0.1,0-0.1,0-0.2s0-0.2,0-0.3c0-0.2-0.1-0.3-0.1-0.5
	c0-0.1-0.1-0.3-0.2-0.4s-0.3-0.2-0.4-0.3c-0.1,0-0.2,0-0.3,0c-0.1,0-0.2,0-0.4-0.1h-0.3C67.7,65.7,67.6,65.7,67.5,65.8 M69.5,64.1
	C69.4,64.1,69.5,64,69.5,64.1c0.2-0.1,0.3-0.2,0.3-0.2c0.1,0,0.1-0.1,0.2-0.1c0.1-0.1,0.3-0.1,0.4-0.2c0.2-0.1,0.3-0.2,0.3-0.3
	c0.1-0.3,0.2-0.6,0.3-0.9c0.1-0.3,0.2-0.7,0.2-1.2s-0.1-0.8-0.2-1.1c-0.1-0.1-0.3-0.3-0.4-0.4s-0.3-0.2-0.5-0.3
	c-0.2,0.1-0.4,0.1-0.5,0.1c-0.2,0-0.4,0.1-0.6,0.1c0,0.1,0,0.2-0.1,0.2c-0.4,0.2-0.8,0.5-1.1,1c-0.3,0.4-0.4,0.9-0.4,1.4
	c0,0.2,0,0.3,0.1,0.4s0.1,0.3,0.2,0.4c0,0.2,0.1,0.4,0.2,0.5s0.1,0.2,0.2,0.4h0.2c0.1-0.1,0.1-0.1,0.1-0.2s0.1-0.1,0.2-0.1
	c0.1,0.1,0.1,0.1,0.1,0.2s0,0.2,0.1,0.3c0.1,0,0.1-0.1,0.1-0.2s0.1-0.2,0.2-0.2s0.2,0.1,0.3,0.2c0,0.1,0.1,0.2,0.3,0.2
	C69.4,64.2,69.5,64.2,69.5,64.1 M53.7,79.3L53.7,79.3C53.8,79.3,53.8,79.3,53.7,79.3C53.8,79.3,53.8,79.3,53.7,79.3L53.7,79.3z
	 M39.5,78.8L39.5,78.8C39.6,78.8,39.6,78.8,39.5,78.8C39.6,78.9,39.5,78.9,39.5,78.8L39.5,78.8 M39.7,78.8
	C39.6,78.8,39.6,78.8,39.7,78.8L39.7,78.8L39.7,78.8c0.1,0.1,0.1,0.1,0.1,0.2C39.7,79,39.7,79,39.7,78.8
	C39.7,78.9,39.7,78.9,39.7,78.8L39.7,78.8C39.7,78.8,39.7,78.9,39.7,78.8C39.7,78.9,39.7,78.8,39.7,78.8 M39.5,78.6
	C39.6,78.6,39.6,78.6,39.5,78.6c0,0.1,0,0.1,0,0.2l0,0V78.6z M39.8,78.7C39.8,78.6,39.8,78.6,39.8,78.7
	C39.7,78.7,39.7,78.7,39.8,78.7L39.8,78.7C39.7,78.6,39.7,78.6,39.8,78.7C39.8,78.7,39.8,78.6,39.8,78.7
	C39.8,78.6,39.8,78.6,39.8,78.7L39.8,78.7C39.9,78.6,39.9,78.6,39.8,78.7C39.9,78.7,39.9,78.7,39.8,78.7L39.8,78.7
	C39.8,78.8,39.8,78.8,39.8,78.7C39.8,78.8,39.8,78.7,39.8,78.7 M39.8,78.5C39.9,78.5,39.9,78.5,39.8,78.5
	C39.9,78.6,39.8,78.6,39.8,78.5C39.8,78.5,39.8,78.6,39.8,78.5L39.8,78.5 M39.8,78.4L39.8,78.4L39.8,78.4L39.8,78.4z M40,78.3
	c0-0.1,0.1-0.1,0.1-0.2C40.1,78.2,40.1,78.2,40,78.3C40.1,78.4,40.1,78.3,40,78.3C40,78.4,40,78.4,40,78.3C40,78.4,40,78.4,40,78.3
	C40,78.4,40,78.4,40,78.3 M40,78.2C40,78.2,40,78.1,40,78.2C40.1,78.2,40.1,78.2,40,78.2L40,78.2L40,78.2C40,78.2,40,78.3,40,78.2
	 M40.9,63.7c-0.2,0.2-0.5,0.4-0.7,0.5c0,0.1-0.1,0.2-0.2,0.3c0,0.1,0,0.1,0,0.1l-0.1,0.2v0.1c0,0.1-0.1,0.1-0.1,0.2
	c-0.1,0.2-0.2,0.5-0.3,0.7c-0.1,0.3-0.1,0.5-0.2,0.8c-0.2,1-0.4,1.9-0.6,2.9c-0.2,1-0.4,1.9-0.7,2.8c-0.1,0.6-0.3,1.2-0.4,1.8
	c-0.1,0.6-0.3,1.3-0.4,1.9c-0.1,0.7-0.2,1.4-0.2,2.1s-0.1,1.5-0.1,2.2l0,0v0.5c0,0.1,0,0.2,0,0.3v0.1c0,0.1,0,0.1,0,0.2s0,0.1,0,0.2
	c0.1,0.2,0.2,0.3,0.3,0.4l0,0c0.1,0,0.1-0.1,0-0.1c0,0,0,0,0-0.1c0.2-0.1,0.4-0.1,0.6-0.2c0.2-0.1,0.4-0.2,0.4-0.4
	c0.1,0,0.1-0.1,0.1-0.1l0.1-0.1c0.1-0.3,0.2-0.6,0.4-0.9l0.4,0.1h0.2c0.1-0.1,0.1-0.2,0.1-0.3c0-0.1,0.1-0.2,0.1-0.4l0,0l0,0
	c0-0.1,0.1-0.1,0.1-0.2s0.1-0.2,0.1-0.3c0.1,0,0.1,0,0.1,0s0,0,0.1,0c0-0.2,0-0.4,0.1-0.6c0.1-0.1,0.1-0.3,0.1-0.6
	c0.1,0,0.2,0,0.2,0c0,0.1,0,0.1,0,0.1s0,0,0,0.1v-0.1v-0.1h0.1c0,0,0,0,0.1,0c0.1-0.1,0.2-0.4,0.2-0.6c0-0.3,0-0.5,0.1-0.6H41
	c0-0.1,0.1-0.3,0.1-0.4s0.1-0.3,0.2-0.4c0.1-0.4,0.3-0.7,0.5-1.1s0.3-0.7,0.4-1.1c0-0.1,0-0.2,0-0.3c0,0,0-0.1,0.1-0.1
	c0.1-0.1,0.1-0.3,0.2-0.5c0-0.2,0.1-0.3,0.2-0.4c0-0.1,0-0.1,0-0.1v-0.1c0.1-0.1,0.1-0.3,0.2-0.4s0.1-0.1,0.2-0.2
	c0,0,0.1-0.1,0.2-0.2l0.6-0.6c0.2-0.2,0.4-0.5,0.5-0.7c0.2-0.2,0.4-0.4,0.6-0.6s0.5-0.4,0.7-0.5c0.2-0.2,0.5-0.4,0.7-0.5
	c0.1-0.1,0.3-0.2,0.4-0.3c0.1-0.1,0.2-0.2,0.4-0.3c0.1-0.1,0.2-0.2,0.4-0.2c0.1-0.1,0.3-0.1,0.5-0.1c0.1,0.1,0.1,0.2,0,0.3
	c0,0.1-0.1,0.2,0,0.4c0,0.1,0,0.1,0,0.1v0.1c0,0.1,0,0.3,0,0.4S48,69,48,69.2c0,0.1,0,0.2,0,0.3c0,0.1,0,0.2,0,0.3
	c0,0.1,0,0.2,0,0.2c0,0.1,0,0.2,0,0.2c-0.2,0.7-0.4,1.4-0.6,2c-0.2,0.7-0.4,1.3-0.6,2c0,0.1-0.1,0.2-0.1,0.3c0,0.1-0.1,0.2-0.1,0.3
	c0,0.1-0.1,0.2-0.1,0.2c0,0.1-0.1,0.1-0.1,0.2c0,0.2,0,0.5-0.1,0.7c-0.1,0.3,0,0.5,0.2,0.6h0.4l0.1-0.4c0.2-0.1,0.4-0.2,0.5-0.4
	c0.1-0.2,0.2-0.4,0.5-0.5c-0.1,0.1-0.1,0.2-0.2,0.3c-0.1,0.1-0.1,0.2-0.2,0.3c0.1,0,0.1,0,0.1-0.1l0.1-0.1c0-0.1,0.1-0.2,0.2-0.3
	c0.1-0.1,0.2-0.2,0.2-0.3c0.4-0.4,0.8-0.9,1.1-1.3c0.4-0.4,0.8-0.8,1.2-1.2c0.5-0.5,1-0.9,1.5-1.4s1-0.9,1.6-1.3
	c0.4-0.3,0.8-0.5,1.2-0.7c0.4-0.2,0.8-0.5,1.3-0.7c0,0.2-0.1,0.4-0.2,0.5c-0.1,0.2-0.2,0.3-0.2,0.5c-0.2,0.4-0.4,0.8-0.5,1.3
	c-0.2,0.4-0.3,0.9-0.5,1.3c-0.1,0.1-0.1,0.3-0.2,0.5s-0.2,0.4-0.2,0.5c0,0.2-0.1,0.4-0.2,0.6S54,74,53.9,74.2
	c-0.1,0.5-0.2,1-0.3,1.5s-0.1,1.1-0.2,1.6h-0.1c0,0,0,0-0.1,0c0,0.1,0.1,0.3,0.1,0.4s0,0.3,0,0.5v0.1l0.1,0.1v0.4
	c0,0.2,0.1,0.4,0.2,0.5s0.2,0.3,0.2,0.4c0.1,0,0.1,0,0.1,0l0.1,0.1c0.1,0.2,0.2,0.4,0.4,0.6c0.1,0.2,0.3,0.3,0.5,0.4l0.2,0.1V81
	c0,0,0,0,0,0.1c0.1,0.1,0.3,0.2,0.4,0.3c0.2,0,0.3-0.1,0.5-0.2c0.1,0,0.1,0,0.1,0s0,0,0.1,0h0.1c0,0,0,0,0.1,0s0.1,0,0.1,0h0.1l0,0
	l0,0h0.1c0.1,0,0.2,0,0.3,0c0.1,0,0.2,0,0.3,0c0.3-0.1,0.6-0.1,0.9-0.2s0.5-0.2,0.8-0.2l0.1-0.2c0.1,0,0.2,0,0.3-0.1
	c0.1-0.1,0.1-0.2,0.2-0.2l0.1-0.1c0,0,0.1-0.1,0.2-0.1c0.3-0.2,0.6-0.4,0.9-0.6s0.6-0.5,0.8-0.8v-0.1c0.4-0.2,0.8-0.5,1.1-0.8
	c0.3-0.3,0.7-0.6,1-0.9l0.1-0.1v-0.1c0,0,0,0,0-0.1c0.1-0.1,0.1-0.1,0.1-0.2l0,0c-0.3,0.3-0.6,0.5-0.9,0.8s-0.6,0.5-0.9,0.7l0,0
	c0.2-0.2,0.5-0.5,0.8-0.7c0-0.2,0.1-0.3,0.2-0.4s0.2-0.2,0.4-0.3l0,0l0,0c0.1-0.1,0.2-0.3,0.4-0.4c0.1-0.1,0.2-0.3,0.4-0.4
	c0-0.1,0-0.2,0.1-0.2c0,0,0.1-0.1,0.1-0.2v-0.1c-0.1-0.1-0.1-0.1-0.1-0.2c-0.1,0-0.2,0-0.4,0c-0.1,0-0.3,0.1-0.4,0.2
	s-0.2,0.2-0.3,0.2c-0.1,0-0.1,0-0.1,0h-0.1l-0.2,0.2c-0.1,0.1-0.1,0.1-0.1,0.1s-0.1,0-0.1,0.1c-0.1,0.1-0.3,0.3-0.4,0.4
	s-0.3,0.2-0.4,0.4c-0.1,0-0.1,0.1-0.1,0.1s-0.1,0-0.1,0.1c-0.1,0.1-0.2,0.1-0.3,0.1l0,0c0,0,0,0-0.1,0s-0.1,0-0.1,0.1
	s-0.1,0.1-0.1,0.1c-0.1,0.1-0.2,0.1-0.3,0.2c-0.4,0.4-0.8,0.7-1.3,1c-0.4,0.3-1,0.6-1.5,0.8V79v-0.1v-0.1v-0.1c0-0.1,0-0.2,0-0.3
	c0-0.1,0-0.2,0-0.2c0-0.1,0-0.3,0-0.5c0-0.1,0-0.2,0-0.5c0-0.1,0-0.1,0-0.2s0-0.1,0-0.2s0-0.3,0-0.5c0-0.1,0-0.3,0.1-0.4
	c0.1-0.5,0.3-1,0.5-1.6c0.2-0.5,0.3-1,0.6-1.5l0.1-0.4v-0.1c0-0.1,0-0.2,0.1-0.2c0.1-0.3,0.2-0.6,0.3-0.9c0.1-0.3,0.2-0.6,0.3-0.9
	c0-0.1,0-0.2,0-0.3s0-0.2,0.1-0.3c0-0.1,0.1-0.2,0.1-0.3c0-0.1,0-0.2,0-0.3c0-0.3,0.1-0.6,0.2-0.8c0-0.1,0-0.1,0-0.1v-0.1v-0.2
	c0-0.1,0-0.2,0-0.2c0-0.1,0-0.1,0-0.1s0,0,0-0.1s0-0.1,0-0.2s0-0.2,0-0.3c0,0,0-0.1,0-0.2c-0.1-0.1-0.1-0.3,0-0.6
	c0-0.1,0-0.3-0.1-0.4s-0.2-0.2-0.3-0.2c-0.1-0.1-0.3-0.1-0.4-0.2c-0.3-0.1-0.6-0.2-1-0.2c-0.1,0-0.3,0.1-0.4,0.1s-0.3,0.1-0.4,0.2
	c-0.4,0.1-0.6,0.2-0.8,0.3c-0.3,0.1-0.5,0.2-0.8,0.3c-0.3,0.1-0.5,0.2-0.7,0.3c-0.8,0.4-1.5,0.7-2.2,1.2c-0.7,0.4-1.3,0.9-2,1.4
	c-0.2,0.2-0.4,0.3-0.6,0.5s-0.4,0.3-0.6,0.5c-0.1,0.1-0.2,0.1-0.3,0.3c-0.1,0.1-0.3,0.3-0.4,0.4S49.1,71,49,71.1
	c0.1-0.3,0.1-0.6,0.2-0.9s0.1-0.6,0.2-0.9s0.1-0.6,0.2-0.9s0.1-0.6,0-0.9c-0.1,0-0.1,0.1,0,0.2c0,0.1,0,0.1,0,0.2
	c-0.1,0-0.1-0.1,0-0.1v-0.1c0-0.1,0-0.1-0.1-0.1c0,0-0.1,0-0.1-0.1c-0.1-0.2-0.1-0.4-0.2-0.6S49,66.6,49,66.4
	c-0.2-0.1-0.5-0.2-0.8-0.1s-0.5,0.2-0.7,0.2c-0.1,0.1-0.2,0.1-0.3,0.2c-0.1,0-0.2,0.1-0.3,0.2c-0.5,0.3-1,0.7-1.4,1
	c-0.4,0.4-0.9,0.7-1.3,1c0.1-0.3,0.1-0.7,0.2-1c0-0.4,0.1-0.8,0.1-1.2v-0.4c0-0.1,0-0.1,0-0.2s0-0.1,0-0.2s0-0.3,0-0.4
	s0-0.2-0.1-0.4c0-0.2,0-0.4-0.1-0.7c-0.1-0.3-0.4-0.5-0.8-0.7c-0.1,0-0.1,0-0.2,0l-0.1-0.1c0,0,0-0.1-0.1-0.1
	c-0.1-0.1-0.1-0.1-0.2-0.1s-0.2,0-0.3-0.1c-0.1,0-0.1-0.1-0.2-0.1s-0.2,0-0.2,0h-0.3C41.4,63.4,41.1,63.5,40.9,63.7 M20,80.5
	c0.1,0,0.1,0.1,0.1,0.2c-0.1,0-0.1,0-0.2,0c0,0-0.1-0.1-0.2-0.1C19.9,80.5,20,80.5,20,80.5 M36.7,80.1c0.2,0,0.4,0,0.6,0
	c-0.3,0.1-0.7,0.2-1.2,0.1C36.3,80.2,36.5,80.1,36.7,80.1 M38.1,79.8c-0.1,0.1-0.3,0.1-0.4,0.1c-0.2,0-0.3,0.1-0.5,0.1
	C37.5,79.9,37.8,79.8,38.1,79.8 M19.6,78.8c0-0.3-0.1-0.6-0.2-0.9C19.5,78.2,19.6,78.4,19.6,78.8c0.2,0.3,0.2,0.6,0.3,0.8
	C19.7,79.4,19.7,79.1,19.6,78.8 M20,75.9L20,75.9c0-0.1,0.1-0.2,0.2-0.1l0,0v-0.1c0.1-0.1,0.2-0.3,0.2-0.5s0-0.4,0.1-0.5
	c0,0.1,0,0.3,0,0.7c0.1,0,0.1-0.1,0-0.2c0-0.1,0-0.1,0-0.2s0-0.1,0-0.1c0.1,0,0.1,0,0.1,0c0-0.1,0-0.3,0-0.5s0-0.3,0.1-0.5
	c0.2-0.1,0.4-0.3,0.5-0.4c0.2-0.1,0.4-0.2,0.7-0.3c0.4-0.1,0.7-0.2,1.2-0.2c0.4-0.1,0.9-0.1,1.3,0.1c-0.6-0.1-1.2-0.2-1.8,0
	c-0.6,0.1-1.2,0.3-1.5,0.6c0,0,0-0.1,0.1-0.2c0-0.3,0-0.3,0.1-0.3c0-0.1,0-0.1,0-0.1s0.1,0,0.1-0.1c0.4-0.1,0.8-0.3,1.3-0.4
	s1-0.2,1.6-0.1c0.1,0,0.1,0,0.2,0c0.1,0,0.1,0,0.2,0c0.1,0,0.2,0,0.2,0c0.1,0,0.1,0,0.2,0.1c-0.1,0.3-0.2,0.6-0.3,0.9
	s-0.2,0.6-0.4,0.9c-0.1,0.4-0.1,0.7-0.3,1c-0.1,0.3-0.2,0.6-0.3,0.9c-0.1,0.4-0.3,0.8-0.4,1.2c-0.1,0.5-0.3,0.9-0.4,1.3
	c-0.2,0.4-0.4,0.7-0.7,0.9c-0.3,0.2-0.7,0.3-1.2,0.4c-0.1,0-0.1,0-0.1,0l0,0c-0.3,0-0.5,0-0.6-0.1s-0.2-0.3-0.3-0.4
	C20,79.4,20,79.2,20,79s-0.1-0.4-0.1-0.5h-0.1h-0.1c0-0.1,0-0.2,0-0.2c0-0.3,0-0.6-0.1-1C19.8,76.8,19.8,76.4,20,75.9L20,75.9
	C20.1,75.8,20.1,75.8,20,75.9 M40.6,77.5C40.6,77.4,40.7,77.4,40.6,77.5l0.2-0.2c-0.1,0.1-0.1,0.1-0.1,0s0-0.1,0-0.1
	c-0.2,0.1-0.5,0.2-0.7,0.2c-0.1-0.1-0.1-0.3-0.1-0.4c0-0.2,0.1-0.3,0.1-0.4c-0.4,0.2-0.8,0.4-1.3,0.6c-0.4,0.2-0.9,0.4-1.4,0.6
	C37,77.9,36.8,78,36.6,78c-0.2,0.1-0.5,0.1-0.7,0c-0.2-0.1-0.4-0.1-0.6-0.2c-0.4-0.1-0.7-0.2-1.1-0.4c-0.4-0.2-0.7-0.3-1-0.5
	c-0.3-0.3-0.6-0.6-1-0.7c-0.4-0.1-0.7-0.4-1-0.7c-0.1,0-0.2-0.1-0.2-0.1c0-0.1-0.1-0.1-0.2-0.1c-0.1-0.2-0.3-0.3-0.5-0.4
	s-0.3-0.3-0.5-0.5c0.1-0.4,0.3-0.8,0.5-1.1c0.2-0.3,0.4-0.7,0.4-1.1c0.1,0,0.1,0,0.1,0l0.1-0.1c0.1-0.3,0.2-0.6,0.3-0.8
	c0.2-0.2,0.3-0.4,0.3-0.8c0.2-0.2,0.3-0.4,0.4-0.7c0.1-0.3,0.2-0.5,0.4-0.7c0.1-0.3,0.2-0.6,0.3-0.8c0.1-0.3,0.2-0.5,0.3-0.8
	c0.1-0.1,0.2-0.3,0.2-0.4s0.1-0.2,0.2-0.4l0.1-0.1c0-0.1,0.1-0.1,0.1-0.2s0-0.2,0.1-0.2c0.1-0.3,0.3-0.6,0.5-0.9
	c0.2-0.3,0.3-0.6,0.4-0.9c0.2-0.2,0.3-0.4,0.4-0.7c0.1-0.3,0.2-0.5,0.3-0.7c0.1,0,0.1,0,0.1,0s0,0,0.1,0c0.1-0.2,0.1-0.4,0.3-0.6
	c0.1-0.2,0.2-0.4,0.3-0.6c0-0.1,0.1-0.1,0.1-0.2c0,0,0.1-0.1,0.1-0.2c0.1-0.1,0.1-0.3,0.1-0.4s0.1-0.2,0.2-0.4l0,0l0,0
	c0.1-0.1,0.2-0.3,0.3-0.4c0.1-0.2,0.1-0.3,0.2-0.5c0.2-0.3,0.3-0.6,0.5-0.9c0.1-0.3,0.3-0.6,0.4-1c0.1-0.1,0.1-0.2,0.1-0.3
	c0-0.1,0.1-0.3,0.1-0.4s0.1-0.2,0.1-0.4c0.1-0.1,0.1-0.3,0-0.4c0.1-0.2,0.3-0.5,0.4-0.8c0.1-0.3,0.2-0.6,0.2-0.9
	c0.2-0.4,0.3-0.8,0.4-1.2c0.1-0.4,0.1-0.9,0-1.3c0-0.1,0-0.2,0-0.4c-0.1-0.1-0.1-0.3-0.2-0.5c0-0.2-0.1-0.4-0.1-0.5
	c-0.1-0.2-0.2-0.4-0.4-0.7c-0.2-0.2-0.3-0.4-0.2-0.5c-0.1-0.1-0.1-0.1-0.1,0c0,0,0,0.1-0.1,0c-0.2-0.4-0.5-0.7-0.9-1
	c-0.4-0.2-0.7-0.5-1-0.7c-0.2-0.1-0.4-0.1-0.5-0.2s-0.2-0.1-0.4-0.2c-1.5-0.1-2.9,0.1-4.2,0.7c-1.3,0.6-2.3,1.4-3.1,2.2
	c-0.2,0.1-0.3,0.3-0.5,0.5c-0.1,0.2-0.3,0.3-0.4,0.5c-0.2,0.2-0.3,0.4-0.4,0.6c-0.1,0.1-0.2,0.3-0.4,0.5c0,0.1-0.1,0.1-0.1,0.2
	s-0.1,0.1-0.2,0.2c-0.1,0.2-0.2,0.4-0.3,0.5s-0.2,0.3-0.2,0.5c-0.1,0.3-0.2,0.6-0.3,0.9c0,0.3-0.1,0.6-0.2,0.9
	c-0.1,0.3-0.1,0.6-0.1,0.9c0,0.2-0.1,0.4-0.1,0.6s-0.1,0.4,0,0.5c0,0.1,0,0.1,0,0.1v0.1c0.1,0.2,0.1,0.5,0.1,0.8s0.1,0.5,0.2,0.8
	c0.1,0.1,0.3,0.2,0.4,0.2c0.1,0.1,0.3,0.1,0.6,0c0.1,0,0.1-0.1,0.2-0.1c0,0,0.1,0,0.2,0c0.1-0.3,0.2-0.7,0.3-1.1
	c0-0.4,0.1-0.8,0-1.2c0.1-0.3,0.1-0.5,0.2-0.7c0.1-0.2,0.1-0.5,0.2-0.8c0.1-0.1,0.2-0.3,0.2-0.5s0-0.3,0.1-0.4l0,0l0,0
	c0.1-0.2,0.2-0.4,0.3-0.7c0.1-0.1,0.1-0.2,0.2-0.3s0.1-0.2,0.2-0.4c0,0,0,0,0.1,0c0.1-0.1,0.2-0.2,0.2-0.4c0.1-0.1,0.2-0.3,0.2-0.4
	c0.1-0.1,0.1-0.1,0.2-0.2c0.1-0.1,0.1-0.1,0.2-0.2c0.1-0.1,0.1-0.1,0.1-0.2s0.1-0.1,0.1-0.2h0.1c0.1-0.1,0.1-0.2,0.1-0.2
	c0.1-0.1,0.2-0.2,0.3-0.2s0.2-0.1,0.3-0.2s0.1-0.1,0.2-0.2c0.1-0.1,0.1-0.1,0.2-0.2c0.1-0.1,0.3-0.2,0.4-0.3
	c0.1-0.1,0.3-0.2,0.4-0.2l0.1-0.1c0,0,0.1,0,0.1-0.1c0.3-0.1,0.5-0.1,0.6-0.3c0.2,0,0.4-0.1,0.6-0.2c0.2-0.1,0.4-0.1,0.6,0
	c0,0.1,0,0.1,0.1,0.1c0,0,0.1,0,0,0.1c0.4,0.3,0.6,0.7,0.7,1.1c0,0.2,0,0.5,0,0.7c-0.1,0.3-0.1,0.5-0.2,0.8
	c-0.1,0.2-0.1,0.4-0.1,0.5c0,0.2,0,0.4-0.1,0.5c-0.1,0.3-0.1,0.6-0.2,0.9s-0.2,0.6-0.3,0.9c-0.1,0.2-0.2,0.4-0.3,0.6
	c0,0.2-0.1,0.4-0.3,0.6c-0.1,0.3-0.2,0.5-0.4,0.8c-0.1,0.3-0.3,0.6-0.5,0.8c0,0.1,0,0.1,0,0.1s0,0,0,0.1c-0.1,0.2-0.2,0.4-0.2,0.5
	c-0.2,0.3-0.3,0.5-0.5,0.9c-0.2,0.3-0.3,0.6-0.5,0.9c-0.6,1.3-1.2,2.6-1.8,4c-0.1,0.4-0.2,0.6-0.3,0.8c-0.1,0.3-0.2,0.6-0.3,0.9
	c-0.2,0.3-0.3,0.6-0.3,0.9c-0.1,0.1-0.1,0.3-0.2,0.4c-0.1,0.1-0.1,0.2-0.2,0.4c-0.1,0.4-0.3,0.7-0.4,1.1c-0.1,0.4-0.3,0.7-0.4,0.9
	c0,0.1,0,0.1,0,0.1s0,0,0,0.1c-0.1,0.1-0.2,0.3-0.3,0.5c0,0.2-0.1,0.4-0.3,0.5c-0.2-0.1-0.4-0.2-0.4-0.4c-0.2-0.1-0.4-0.2-0.6-0.2
	c-0.2,0-0.4-0.1-0.6-0.2c0.2,0.1,0.4,0.1,0.5,0.1c0.2,0,0.3,0,0.5,0.1c-0.1-0.1-0.3-0.2-0.5-0.3c-0.5-0.1-1-0.2-1.6,0
	c-0.5,0.1-1,0.3-1.3,0.4c-0.1,0.1-0.3,0.1-0.5,0.1s-0.3,0.1-0.5,0.1c-0.2,0.1-0.4,0.2-0.7,0.4c-0.3,0.2-0.6,0.5-0.9,0.9
	c-0.2,0.3-0.4,0.7-0.5,1.1c0,0.1-0.1,0.2-0.1,0.3c0,0.1-0.1,0.2-0.1,0.4c-0.1,0.3-0.1,0.6-0.1,0.9c0,0.4,0,0.7,0,0.9
	c0.1,0.4,0.1,0.8,0.1,1.1c0,0.4,0.1,0.7,0.2,0.9c0.1,0.1,0.1,0.1,0.1,0.2s0.1,0.2,0.1,0.3c0.1,0.1,0.1,0.2,0.2,0.3
	c-0.1,0.4-0.1,0.6-0.1,0.7s0.1,0.3,0.1,0.4s0.1,0.2,0.2,0.3c0.1,0.1,0.1,0.2,0.2,0.3c0.1,0.1,0.1,0.2,0.2,0.3
	c0.1,0.1,0.2,0.2,0.3,0.3c0,0.2,0.1,0.4,0.1,0.6c0.1,0.2,0.1,0.3,0,0.5c0.1,0.1,0.2,0.2,0.4,0.2l0,0c0.1,0,0.1,0,0.2,0
	c0,0,0.1,0.1,0.2,0.1c0.2,0,0.4,0,0.5,0c0.2-0.1,0.4-0.1,0.5,0c0.1,0,0.2,0,0.2,0.1c0.1,0,0.1,0.1,0.2,0.1c0.1,0,0.2,0,0.3,0
	s0.2,0,0.3,0s0.1,0.1,0.1,0.1s0,0.1,0.1,0.1s0.2,0,0.3-0.1c0-0.1,0.1-0.1,0.2-0.2H24c0.2-0.1,0.4-0.3,0.5-0.5s0.3-0.4,0.7-0.4
	c0.1-0.1,0.1-0.2,0.2-0.2c0.1-0.1,0.2-0.1,0.2-0.2c0.2,0,0.4-0.1,0.5-0.3c0.1-0.2,0.2-0.4,0.4-0.6h0.1c0.1-0.5,0.4-0.7,0.8-0.7
	c0.1-0.2,0.1-0.5,0.2-0.7c0.1-0.2,0.2-0.4,0.4-0.5c0-0.1,0.1-0.1,0.1-0.2s0-0.1,0.1-0.2l0,0c0.1-0.2,0.2-0.4,0.2-0.6
	s0.1-0.4,0.2-0.7c0.1-0.1,0.1-0.3,0.2-0.4c0-0.1,0.1-0.2,0.2-0.3c0.3,0.1,0.5,0.3,0.7,0.6c0.2,0.2,0.4,0.5,0.6,0.7
	c0.4,0.3,0.7,0.5,1.1,0.8c0.4,0.2,0.7,0.5,1.1,0.8c0.1,0,0.1,0,0.1,0h0.1c0.1,0.1,0.1,0.2,0.2,0.2c0.1,0,0.2,0.1,0.3,0.2
	c0.5,0.3,1.1,0.6,1.7,0.8c0.6,0.2,1.3,0.4,1.9,0.5c0,0,0,0,0-0.1c0,0,0-0.1,0.1,0v0.1l0,0c0.6-0.1,1-0.2,1.4-0.4
	c0.4-0.2,0.8-0.4,1.2-0.6c-0.1-0.1-0.1-0.1-0.1-0.1s0,0,0-0.1c0.1-0.1,0.3-0.2,0.4-0.3c0.1-0.1,0.3-0.2,0.4-0.3c-0.1,0-0.2,0-0.2,0
	c-0.1,0-0.1,0-0.2,0c0,0,0-0.1,0-0.3c0.2-0.1,0.4-0.2,0.6-0.4c0.2-0.1,0.4-0.3,0.5-0.4l0,0C40.7,77.5,40.7,77.5,40.6,77.5 M4.2,58.1
	c-0.1,0.1-0.1,0.3-0.2,0.4c0-0.3,0.1-0.5,0.2-0.8c0.1-0.2,0.2-0.5,0.2-0.7c0.1-0.1,0.2-0.3,0.3-0.6c0,0,0,0,0,0.1
	c-0.1,0.1-0.2,0.3-0.2,0.5c-0.1,0.2-0.1,0.4-0.2,0.6C4.3,57.8,4.3,57.9,4.2,58.1 M5.8,54.4c0,0,0.1-0.1,0.1-0.2
	C5.9,54.3,5.9,54.3,5.8,54.4L5.8,54.4C5.8,54.5,5.8,54.4,5.8,54.4 M6,50.3c0,0,0.1-0.1,0.1-0.2c0,0.1,0,0.2-0.1,0.3
	C5.9,50.3,5.9,50.3,6,50.3 M3.5,62.3L3.5,62.3c0.1-0.6,0.2-1.1,0.4-1.6c0.2-0.5,0.4-0.9,0.5-1.5c0.5-1,0.9-2.1,1.2-3.3
	c0.3-1.1,0.7-2.3,1.1-3.4c0-0.1,0-0.2,0.1-0.3c0.1-0.1,0.1-0.2,0-0.3H6.7c-0.1,0.1-0.1,0.2-0.1,0.3c0,0.1-0.1,0.2-0.1,0.2
	c0.1-0.1,0.1-0.1,0.1-0.2s0-0.2,0-0.2c-0.1,0.3-0.3,0.7-0.4,1c-0.1,0.4-0.2,0.7-0.4,1c0.2-0.7,0.4-1.4,0.6-2.1s0.4-1.4,0.5-2.1v0.1
	l0,0c0-0.2,0.1-0.3,0.2-0.5s0.1-0.3,0-0.5c-0.1,0.5-0.3,1-0.5,1.5s-0.4,1-0.5,1.5c-0.2,0.6-0.4,1.2-0.5,1.7
	c-0.2,0.6-0.4,1.1-0.6,1.6c0.2-0.8,0.5-1.7,0.7-2.5s0.5-1.6,0.7-2.5c0-0.1,0-0.1,0-0.1V50c0.1-0.1,0.1-0.2,0.1-0.3s0-0.2,0.1-0.3
	c0-0.1,0-0.3,0-0.4s0.1-0.2,0.1-0.3c-0.1-0.1-0.1-0.1-0.1-0.2s-0.1-0.1-0.1-0.1c-0.1,0.1-0.1,0.3-0.2,0.4s-0.1,0.3-0.2,0.5
	c0-0.1,0-0.1-0.1-0.1c-0.1-0.2-0.1-0.3-0.2-0.3c-0.1,0.2-0.2,0.4-0.3,0.7c-0.1,0.2-0.2,0.5-0.2,0.7c-0.1,0.1-0.1,0.1-0.1,0.2
	s-0.1,0.1-0.1,0.2c-0.3,0.7-0.6,1.5-0.8,2.3c-0.2,0.8-0.5,1.6-0.8,2.4c0,0.2,0,0.4-0.1,0.6s-0.1,0.3-0.2,0.5
	c-0.3,0.6-0.5,1.1-0.7,1.6c-0.1,0.3-0.3,0.6-0.4,0.8s-0.2,0.6-0.4,0.9c-0.2,0.6-0.3,1.3-0.5,1.9c-0.1,0.6-0.3,1.3-0.4,2
	c-0.1,0.1-0.1,0.2-0.2,0.3c-0.1,0-0.1,0-0.1,0.1l-0.1,0.1c-0.1,0.1-0.1,0.2-0.2,0.3c0,0.1-0.1,0.2-0.2,0.3c0,0.1,0,0.1,0,0.2
	s0,0.1,0,0.2c0.2,0.1,0.4,0.1,0.6,0.1s0.4,0,0.5,0.2c0,0.1,0,0.1,0,0.2c0.1,0,0.2,0,0.3,0c0.1,0,0.2-0.1,0.3-0.1c0,0.1,0,0.1,0,0.2
	c0.2,0.4,0.2,0.4,0.1,0.4c0,0-0.1,0-0.2,0c0,0.1,0,0.1,0,0.2s0,0.1-0.1,0.1c0.1,0.1,0.3,0.1,0.4,0.1s0.2,0,0.4,0.1
	c0.3-0.1,0.6-0.2,0.9-0.1c0.4,0.1,0.7,0.1,0.9,0l0,0c0,0,0,0,0.1,0c0.3,0,0.6-0.1,0.9-0.1s0.6-0.1,0.9-0.2c0.4-0.1,1-0.1,1.6-0.2
	c0.7,0,1.2-0.1,1.7-0.2c0.1-0.1,0.3-0.2,0.5-0.2c-0.1,0.5-0.2,0.9-0.3,1.3s-0.3,0.9-0.4,1.3c-0.2,0.8-0.4,1.6-0.6,2.4
	c-0.2,0.8-0.4,1.6-0.5,2.5c-0.1,0.7-0.2,1.4-0.3,2.1c-0.1,0.7-0.1,1.4-0.2,2.1c0,0.4-0.1,0.9-0.1,1.4s0,1,0,1.5s0.1,1,0.2,1.5
	s0.2,0.9,0.4,1.3c0.1,0,0.3,0.1,0.3,0.3c0.1,0.2,0.2,0.3,0.3,0.3c0-0.1,0-0.2,0.2-0.2s0.3,0.1,0.3,0.2c0.1-0.2,0.1-0.4,0.2-0.7l0,0
	l0,0c0.1-0.1,0.2-0.2,0.2-0.3c0-0.2,0-0.3,0.1-0.4v0.1c0,0.1,0,0.1,0,0.1c0.1,0,0.1,0,0.1,0v-0.1c0.1,0,0.1,0.1,0.2,0.1
	c0-0.1,0-0.1,0-0.1v-0.1c0,0.1,0.1,0,0.2,0c0-0.1,0-0.3,0.1-0.4s0.1-0.2,0.1-0.4c0.1-0.1,0.2-0.3,0.2-0.7c0,0.1,0,0.1,0,0.2
	s0,0.2,0,0.2c0-0.1,0-0.1,0-0.2s0-0.1,0.1-0.1V81l0,0c0.1-0.1,0.1-0.2,0.1-0.3c0-0.1,0-0.2,0.1-0.3l0.1,0.1c-0.1-0.4,0-0.7,0.1-1
	l0,0l0,0c0-0.8,0.1-1.6,0.2-2.3c0.1-0.7,0.2-1.5,0.3-2.2c0-0.1,0.1-0.3,0.1-0.5c0.1-0.2,0.1-0.3,0.2-0.5c0.1-0.4,0.1-0.8,0.2-1.1
	c0.1-0.3,0.2-0.7,0.2-1.1c0.1-0.2,0.1-0.4,0.2-0.6c0-0.2,0.1-0.4,0.1-0.6c0.1-0.5,0.3-0.9,0.4-1.4c0.2-0.5,0.3-0.9,0.4-1.4
	c0.1-0.2,0.1-0.4,0.1-0.6s0.1-0.4,0.2-0.5c0-0.1,0-0.2,0-0.3s0-0.1,0-0.3c0.1-0.2,0.2-0.5,0.2-0.7c0.1-0.2,0.1-0.5,0.2-0.7
	c0.1,0,0.1,0,0.2,0c0,0,0.1-0.1,0.2-0.1c0.1-0.1,0.2-0.1,0.4-0.1c0.1,0,0.2,0,0.4,0c0.1,0,0.1-0.1,0.1-0.1s0.1,0,0.1-0.1
	c0.2-0.1,0.5-0.1,0.7-0.1s0.4-0.1,0.7-0.1C16.9,64,16.9,64,17,64c0.1,0,0.2,0,0.2-0.1c-0.4,0-0.7,0-1.1,0.1c-0.4,0.1-0.6,0.1-0.8,0
	c0-0.1,0.1-0.2,0.2-0.3c0.1,0,0.2-0.1,0.2-0.1c0.2-0.1,0.4-0.1,0.7-0.1c0.2,0,0.5,0,0.7-0.1s0.5-0.1,0.7-0.1s0.5-0.1,0.6-0.2
	c0-0.1,0-0.1,0-0.1s0-0.1,0-0.2c-0.1-0.1-0.2-0.1-0.2-0.2s0.1-0.1,0.2-0.2c0.1,0,0.2-0.1,0.3-0.1s0.2-0.1,0.2-0.1l-0.1-0.1L18.7,62
	c-0.2,0.1-0.4,0.1-0.6,0.1c-0.2,0-0.4,0-0.5,0c-0.2-0.1-0.3-0.1-0.4-0.2c0.1-0.1,0.3-0.1,0.5-0.1s0.4,0,0.5-0.2
	c-0.4,0.1-0.8,0.1-1.2,0.2c-0.4,0-0.8,0.1-1.2,0.1c-0.2,0-0.3,0.1-0.5,0.1s-0.3,0-0.5,0c0.1-0.9,0.3-1.7,0.4-2.6
	c0.2-0.8,0.3-1.7,0.4-2.6c0.1-0.3,0.2-0.6,0.2-0.9c0-0.4,0.1-0.7,0.2-0.9c0-0.3,0-0.5,0.1-0.7s0.1-0.4,0.1-0.7
	c0.1-0.3,0.1-0.6,0.2-0.9c0.1-0.3,0.1-0.6,0.1-0.9c0.1-0.5,0.2-1.1,0.1-1.8c-0.1-0.7-0.2-1.2-0.4-1.6c-0.1-0.1-0.2-0.2-0.4-0.3
	c-0.1-0.1-0.2-0.2-0.4-0.3c-0.1-0.1-0.1-0.1-0.2-0.2c0-0.1-0.1-0.1-0.2-0.2h-0.1c0,0,0,0-0.1-0.1v-0.1c0,0,0,0,0-0.1
	c-0.1-0.1-0.3-0.2-0.5-0.2s-0.4,0-0.6,0c-0.1,0-0.2,0.1-0.3,0.1s-0.3,0.1-0.4,0.1c-0.2,0.1-0.4,0.3-0.5,0.6
	c-0.1,0.2-0.2,0.5-0.4,0.7v0.2c0,0.1,0,0.1,0,0.1C12,48.8,12,48.9,12,48.9c0,0.1,0,0.2-0.1,0.3c0,0.1,0,0.1,0,0.1v0.1
	c-0.1,0.1-0.1,0.2,0,0.3c0,0.1,0,0.2,0,0.3c0,0.1,0,0.1,0,0.2s0,0.1,0,0.2s0,0.1,0,0.2c0,0,0,0.1,0,0.2c0,0.2-0.1,0.4-0.1,0.5
	c0,0.2-0.1,0.4-0.1,0.5c0,0.4-0.1,0.7-0.1,1c-0.1,0.3-0.1,0.7-0.1,1c-0.1,0.3-0.1,0.5-0.1,0.8s0,0.6,0,0.9c-0.1,0.1-0.1,0.2-0.1,0.4
	c0,0.2,0,0.3-0.1,0.4c0,0.1,0,0.3,0,0.4s-0.1,0.2,0,0.4c-0.1,0.9-0.3,1.8-0.4,2.6c-0.1,0.9-0.3,1.7-0.6,2.6c-0.3,0-0.5,0-0.8,0.1
	s-0.6,0.1-0.8,0.1c-0.1,0-0.1,0-0.1,0H8.4c-0.1,0-0.1,0-0.1,0s0,0-0.1,0c-0.1,0.1-0.3,0.1-0.4,0.1s-0.3,0-0.4,0
	c-0.5,0.1-1,0.1-1.5,0.1s-1,0-1.5,0c0-0.1,0-0.1,0-0.1s0.1,0,0.1-0.1c-0.2,0-0.5,0.1-0.8,0.1c-0.3,0.1-0.5,0.1-0.8,0.2
	c-0.1-0.2,0-0.4,0-0.6C3.5,62.6,3.5,62.4,3.5,62.3L3.5,62.3"/>
<polygon class="st0" points="52.1,30 52.2,29.8 52.3,29.6 "/>
<path class="st0" d="M51.9,29c0.5-0.3,0,0.4,0.2,0.4l0.1-0.1l-0.4,0.4C51.9,29.5,52.1,29.1,51.9,29"/>
<path class="st0" d="M50.7,29.2C50.9,29.1,50.8,29,50.7,29.2C50.8,29.3,50.8,29.3,50.7,29.2L50.7,29.2"/>
<path class="st0" d="M50.7,29.3C50.7,29.4,50.5,29.3,50.7,29.3"/>
<path class="st0" d="M50.7,28.7l-0.2,0.2c-0.1,0-0.2-0.1-0.3,0C50.4,28.7,50.5,28.7,50.7,28.7"/>
<path class="st0" d="M51.1,28.4L51.1,28.4C50.9,28.5,50.9,28.5,51.1,28.4"/>
<path class="st0" d="M50.9,28.7l0.1-0.2c0.1,0,0.3-0.1,0,0.1C51.1,28.5,51,28.6,50.9,28.7"/>
<path class="st0" d="M51,28.8c0.1,0,0.2,0.1,0.4-0.1C51.3,28.9,50.9,29.1,51,28.8"/>
<path class="st0" d="M52.4,28.6h0.2l-0.1,0.2C52.5,28.7,52.2,28.7,52.4,28.6"/>
<path class="st0" d="M50.3,27.9c0.1,0,0.3,0,0.5-0.1l-0.1,0.1C50.5,28,50.4,27.9,50.3,27.9"/>
<path class="st0" d="M50.7,27.8l0.2-0.2C50.9,27.8,50.9,27.8,50.7,27.8"/>
<path class="st0" d="M51.6,28.1l-0.4,0.4c0,0,0.1-0.1,0.2-0.2C51.5,28.2,51.6,28.1,51.6,28.1L51.6,28.1z"/>
<path class="st0" d="M50.8,27.4c-0.1,0-0.3,0-0.3,0H50.8L50.8,27.4z"/>
<path class="st0" d="M50.8,27.3L50.8,27.3C50.8,27.2,50.8,27.2,50.8,27.3L50.8,27.3"/>
<path class="st0" d="M50.8,27.4L50.8,27.4C50.8,27.4,50.9,27.4,50.8,27.4"/>
<path class="st0" d="M51.3,27.9c0.2-0.1,0.3-0.4,0.6-0.3C51.7,27.7,51.5,27.7,51.3,27.9"/>
<path class="st0" d="M51.2,27.4L51.2,27.4c0,0.1-0.1,0.1-0.2,0.2L51.2,27.4z"/>
<polygon class="st0" points="51.2,27.3 51.2,27.4 51.3,27.3 "/>
<path class="st0" d="M50.6,26.7c0.1-0.1,0.1-0.2,0.2-0.2c0.1,0.1,0.1,0.2,0.1,0.2C50.8,26.7,50.6,26.8,50.6,26.7"/>
<path class="st0" d="M50.7,27L50.7,27C50.8,27,50.8,27,50.7,27"/>
<path class="st0" d="M50.8,25.7L50.8,25.7L50.8,25.7L50.8,25.7z"/>
<path class="st0" d="M51,26.7c0.1,0.1,0,0.1-0.1,0.2C50.9,26.8,50.9,26.7,51,26.7L51,26.7"/>
<path class="st0" d="M50.5,26.2c0.1,0,0.1,0.1,0.2,0.1C50.5,26.3,50.4,26.2,50.5,26.2"/>
<path class="st0" d="M50.7,27L50.7,27C50.6,27,50.6,27,50.7,27"/>
<path class="st0" d="M50.7,27c0,0,0.1-0.1,0.2-0.1C50.8,26.9,50.8,26.9,50.7,27L50.7,27"/>
<path class="st0" d="M52.9,25.5c-0.3,0-0.6,0.1-0.3,0.2c-0.2,0.1-1.2,0.1-1.8,0c0.1,0,0.3,0,0.4-0.1c0.2,0.1,0.4,0.3,0.7,0.2
	c0.2-0.2-0.1-0.1-0.3-0.2c0.4,0.1,0.5-0.2,1.1-0.1l-0.2,0.1C52.6,25.5,52.8,25.5,52.9,25.5"/>
<path class="st0" d="M50.9,26L50.9,26c-0.1,0-0.2,0-0.4-0.1c0.1-0.1,0.3-0.1,0.4-0.1V26L50.9,26z"/>
<path class="st0" d="M50.8,26.3c0.3-0.1,0.5-0.2,0.8-0.2c0,0.2-0.3,0.1-0.4,0.2C51.3,26.1,51.1,26.5,50.8,26.3c0,0.1,0,0.1,0,0.2
	c0,0-0.1-0.1-0.2-0.1l0,0l0,0l0,0c0,0,0.1,0,0,0l0,0C50.8,26.3,50.8,26.3,50.8,26.3C50.7,26.2,50.7,26.3,50.8,26.3L50.8,26.3
	L50.8,26.3l0.1-0.3C50.9,26.1,50.9,26.2,50.8,26.3"/>
<path class="st0" d="M52.6,27.2C52.5,27.2,52.5,27.3,52.6,27.2C52.5,27.2,52.6,27.2,52.6,27.2"/>
<path class="st0" d="M52.4,27.2C52.4,27.2,52.2,27.3,52.4,27.2c0,0.1,0.1,0.1,0.2,0c-0.1,0.1-0.2,0.2-0.4,0.1l0,0
	c-0.1-0.1-0.5-0.1-0.6-0.1C51.9,27.3,52.1,27.2,52.4,27.2"/>
<path class="st0" d="M51.7,26.8l0.1-0.2l0.3,0.1h-0.2C52,26.8,51.8,26.8,51.7,26.8"/>
<polygon class="st0" points="50.3,25.7 50.6,25.7 50.8,25.6 "/>
<polygon class="st0" points="50.4,25.4 50.7,25.4 50.5,25.3 "/>
<path class="st0" d="M56.1,13.3L56.1,13.3L56.1,13.3"/>
<path class="st0" d="M56,13.7L56,13.7C56,13.7,56,13.7,56,13.7"/>
<path class="st0" d="M51.4,19.2c-0.3-0.2-0.7-0.4-0.3-0.3l0.3,0.1C51.3,19.1,51.3,19.2,51.4,19.2"/>
<path class="st0" d="M53.9,16.1C53.9,16.1,53.9,16.2,53.9,16.1c0,0-0.1,0-0.2,0C53.7,16.1,53.8,16.1,53.9,16.1"/>
<path class="st0" d="M55.2,16.5L55,16.3C55.1,16.4,55.2,16.5,55.2,16.5"/>
<path class="st0" d="M56.7,11.4l0.3,0.1C57,11.6,56.9,11.5,56.7,11.4"/>
<path class="st0" d="M51,22.6c-0.1-0.1-0.2-0.2-0.2-0.2C51,22.5,51.3,22.7,51,22.6"/>
<path class="st0" d="M52.6,12.3c0.1,0,0.1,0,0.2,0C52.8,12.3,52.7,12.3,52.6,12.3"/>
<path class="st0" d="M50.8,22.2C50.9,22.2,50.9,22.2,50.8,22.2c0,0.1,0,0.1,0,0.2C50.7,22.3,50.6,22.2,50.8,22.2"/>
<path class="st0" d="M57.6,4C57.6,4,57.5,4,57.6,4L57.6,4"/>
<path class="st0" d="M54.6,0.8C54.6,0.8,54.6,0.9,54.6,0.8C54.6,0.9,54.6,0.8,54.6,0.8"/>
<path class="st0" d="M50.6,24.2C50.5,24.3,50.5,24.2,50.6,24.2"/>
<path class="st0" d="M51.8,24.7c0,0,0.1,0,0.2,0C51.9,24.6,51.9,24.6,51.8,24.7"/>
<path class="st0" d="M52.9,22.3L52.9,22.3C53,22.3,53,22.3,52.9,22.3"/>
<path class="st0" d="M50.7,24.3C50.7,24.3,50.6,24.3,50.7,24.3C50.6,24.2,50.7,24.3,50.7,24.3"/>
<path class="st0" d="M50.6,24.3L50.6,24.3C50.5,24.3,50.5,24.3,50.6,24.3"/>
<path class="st0" d="M50.6,24.1L50.6,24.1C50.6,24.2,50.6,24.2,50.6,24.1C50.6,24.2,50.6,24.2,50.6,24.1"/>
<path class="st0" d="M56.1,7.7C56.1,7.6,56.1,7.6,56.1,7.7C56.2,7.6,56.2,7.6,56.1,7.7"/>
<path class="st0" d="M54.9,19.1L54.9,19.1L54.9,19.1L54.9,19.1z"/>
<path class="st0" d="M55.2,19.1c-0.4-0.1-0.4,0-0.3,0.1L54,18.8L55.2,19.1z"/>
<path class="st0" d="M53.8,6.3L53.8,6.3C54,6.3,53.9,6.3,53.8,6.3 M51.1,23.8c-0.1,0-0.1,0-0.2,0C51,23.8,51,23.8,51.1,23.8
	C51.1,23.8,51.1,23.8,51.1,23.8 M50.9,23.6L50.9,23.6C50.8,23.5,50.8,23.5,50.9,23.6 M54.5,16.6C54.6,16.6,54.6,16.6,54.5,16.6
	C54.4,16.5,54.4,16.5,54.5,16.6 M55.8,14.2c0.1,0,0.3,0,0.1-0.1C55.5,14,55.7,14.1,55.8,14.2 M56.3,12.5l0.3,0.2
	c0.5,0,0.3-0.1,0.7,0.1c-1-0.3-0.2,0.4-1.2,0.1l0.2,0.2c0,0,0.1,0,0,0c0.5,0.3-0.7-0.1-0.6,0.1c0.1,0.1,0.2,0.2,0.3,0.2l-0.3,0.1
	c0,0.1,0.2,0.1,0.2,0l-0.1,0.2l0,0c-0.2,0-0.4,0-0.5,0c0.1,0.1,0.1,0,0.2,0.1h-0.3c0.3,0.1,0.5,0.1,0.5,0c1,0.5-0.3,0,0.3,0.5
	l0.1-0.1c0.6,0.3,0.3,0.3,0.7,0.6c-0.2-0.1-0.9-0.6-1.1-0.5c0.1,0.1,0.1,0.1-0.1,0.1c0.4,0.1,0.3,0.2,0.2,0.3l0.5,0.2
	c-0.2,0.1-0.4,0-0.6-0.1c0,0.1,0.4,0.3,0.7,0.4c0,0.2-0.6-0.3-0.7-0.1c0.2,0.2-0.1,0.2-0.4,0.3c0.1,0.2,0.3,0.1,0.4,0.2h-0.4
	c0,0,0.1,0.1,0.2,0.1c-0.2,0-0.5-0.2-0.6-0.1c-0.5-0.1,0.7,0.5,0.1,0.5c0.1,0.1,0.3,0.1,0.5,0.2c-0.4,0.1-0.3,0.1-0.9,0.1l0.3,0.3
	c-0.3-0.2-0.8-0.2-1.1-0.2c-0.2-0.1-0.3-0.2-0.4-0.2L53.2,16c0.1,0.1,0.2,0.1,0.4,0.1h-0.1c0.2,0.1,0.4,0.2,0.7,0.2
	c0,0-0.1-0.1-0.2-0.1c0.3,0.1,0.6,0.1,0.9,0.2c-0.1,0-0.1,0-0.1,0c0.1,0,0.2,0,0.2,0.1c0,0-0.1,0-0.2,0l0.5,0.2l-0.2-0.1l0.3,0.4
	c-0.6,0-1.4-0.1-1.6,0.1c0.4,0.1,0.6,0.2,1.1,0.4c-0.5-0.2,0.2-0.1,0.2-0.3c0,0.1,0.3,0.2,0.3,0.2l-0.5,0.1c0.4,0.1,0.3,0.2,0.4,0.3
	c-0.7-0.3-0.5,0-0.8,0.1c0.2,0.1,0.5,0.2,0.5,0c0.5,0.3-0.9-0.1-0.4,0.2c0,0,0-0.1,0.1,0c-0.2,0-0.1,0.2,0.1,0.3l0,0
	c0.1,0.2-0.1,0.6-0.7,0.5c0.1,0,0.8,0.2,0.9,0.3l-2.2-0.4c0.5,0.2,1.8,0.7,2.1,0.7c0.1,0.1,0.2,0.2-0.1,0.2
	c-0.1-0.1-0.8-0.4-0.8-0.3c0.6,0.3,0.3,0.2,0.8,0.5c-0.1-0.1-1-0.3-0.9-0.2c0.1,0,0.8,0.3,0.9,0.3l-0.9-0.1c0.2,0,0.7,0.2,0.9,0.4
	c-0.2-0.1,0,0.2-0.1,0.2l-0.2-0.2c0.1,0.3-1.2-0.2-1.2,0.1c0.2,0,1.1,0.3,1.2,0.5c-0.4-0.1-2.1-0.5-2.4-0.4l0.2,0.1L52,20.7
	c0.7,0.1,2,0.3,2.6,0.4c0.2,0.2,0.3,0.1,0.2,0.2c0.2,0.1,0.4,0.1,0.4,0l0.1,0.3c-0.5-0.2-0.5,0.1-0.9-0.1l0.6-0.1
	c-0.5-0.2-1.4-0.3-1.4-0.1c0.2,0.1,0.9,0.3,1.1,0.3c-0.2,0-0.4,0.1-0.2,0.1h0.3c0.2,0.2-0.7,0-0.2,0.3c0,0.1,0.6,0.4,0.3,0.3
	c-0.6-0.3-2.3-0.9-2.7-1c0,0,0.5,0.4,0.8,0.6c0.4,0.2,1.1,0.2,1.5,0.4c-0.1,0-0.3-0.1-0.4-0.1c0.1,0.1,0.4,0.1,0.3,0.2
	c-0.5-0.2,0,0.2-0.4-0.1c-0.2,0.1,0.1,0.1,0,0.3c-0.3-0.2-1.1-0.3-1.3-0.2c0.1,0,0.3,0.1,0.4,0.2c0,0.2,0.2,0.4,0.2,0.6
	c0.1,0.1,0.3,0.2,0.5,0.2c-0.1,0-0.3,0-0.3,0c0.4,0.2,0.1-0.1,0.6,0.1c-0.3-0.1-0.4,0-0.6,0.1c-0.7-0.4-0.3-0.4-0.1-0.5
	c-0.6-0.2-1.3-0.2-1.6,0c-0.2,0.1,0.4,0.2,0.3,0.2c0.1,0.4-1.1,0-0.7,0.4c0.4,0.2,0.8,0.2,1.1,0.3c0.2-0.1-0.2-0.3-0.2-0.4l0.2,0.2
	c0.1,0,0.3-0.1,0.1-0.2c0.4,0.2,0,0.6,0.3,0.9c-0.1,0-0.3,0.1-0.4,0l0.1-0.1c-0.3-0.1-0.5,0.1-0.6,0c-0.2,0.1-0.6,0.2-0.4,0.4
	l0.5,0.1c-0.1,0-0.3-0.1-0.1-0.2c-0.2,0,0.6,0.3,0,0.3l-0.3-0.2c-0.2,0.1-0.7,0.2-0.6,0.4c-0.5-0.1,0.1,0-0.5-0.2
	c0.7,0.2,0-0.4,0.7-0.2c-0.6-0.2-0.3-0.2-0.8-0.5c0.2,0,0.3,0.1,0.2-0.1h0.1l0,0l0,0l0,0c0.1,0,0.1,0.1,0.2,0.1
	c0.4,0,0.4-0.2,0.5-0.3c-0.1-0.1-0.2,0-0.3-0.1l0.3-0.1c-0.3-0.1-0.5-0.3-0.8-0.2v-0.2c-0.2-0.1-0.2-0.3-0.1-0.3
	C50.5,23,51,23,50.7,23l0.2-0.2h-0.1c0-0.3,0.6-0.4,0-0.8c0.1-0.1,0.2-0.1,0.1-0.3l-0.3-0.1c0.1-0.1-0.2-0.4,0.1-0.4
	c-0.8-0.4-0.1-0.6-0.2-0.8l0.4,0.1c0-0.1,0.1-0.2,0.3-0.3l0.3,0.1c0.3,0-0.2-0.4-0.1-0.6c-0.1,0-0.1,0,0,0.1
	c-0.7-0.5,0.6-0.3,0.1-0.7c0.1,0,0.1-0.1,0-0.1l0,0l0,0c-0.1,0-0.1-0.1-0.2-0.1c0.1,0,0.1,0.1,0.2,0.1c0,0,0.1-0.1,0.2-0.1l-0.4-0.1
	l0,0c-0.1-0.1,0.2,0,0.4,0.1c0.1,0,0.1,0,0.2,0c-0.6-0.2,0.2-0.1-0.4-0.4c0.3,0.1,0.3-0.2,0.9,0c-0.1,0-0.1-0.1-0.1,0
	c-0.1-0.1-0.1-0.2,0.1-0.2L52,18.1l0.6,0.1c-0.3-0.2-0.4-0.3-0.8-0.3c0.6,0,0.2-0.1,0.8-0.1l-0.3-0.1c0-0.1,0.4,0,0.2-0.1
	c-0.5-0.3,0-0.7-0.4-1.3c0.9,0.4-0.4-0.3,0.3-0.1c-0.2-0.1-0.3-0.2-0.5-0.2c0.2-0.1-0.3-0.4,0.3-0.3c-0.2-0.1-0.3-0.1-0.4-0.1
	c0,0,0.2,0,0.1-0.1s-0.2,0-0.3,0c0.1-0.2,0.7,0,1.3,0.2c-0.3-0.2-0.2-0.2,0.2-0.2c-0.2-0.1-0.4-0.2-0.5-0.1c0-0.1-0.2-0.5,0.3-0.4
	c-0.1-0.1,0-0.1,0-0.1c0-0.2,0-0.2,0-0.3l0.1,0.1c0.6,0.1,0.1-0.1,0.2-0.2h-0.1c-0.4-0.4,0.2-0.1-0.2-0.5l0.4,0.1
	c0.8,0.2-0.4-0.4-0.1-0.4l0.2,0.1c0.3,0-1-0.6-1.1-0.7c-0.1,0-0.1,0-0.2,0c-0.4-0.4,0.5,0.1,0.6,0c-0.2-0.1-0.6-0.2-0.7-0.3
	c-0.2-0.1,0.9,0,0.4-0.4c0.2,0.1,0.4,0.2,0.5,0.2c0.1-0.1-0.7-0.6-0.1-0.5c-0.1,0-0.1-0.1-0.1-0.1c0.2,0,0.3-0.2,0.6-0.1
	c-1.2-0.5,0.7-0.4-0.4-0.8l0.1-0.3h-0.1c0-0.2,0.2-0.2,0.5-0.1c-0.1-0.1-0.2-0.1-0.2-0.1c-0.2-0.3-0.1-0.4,0.5-0.4l-0.4-0.1
	c0.2,0-0.5-0.6-0.1-0.7c0,0-0.1,0-0.2,0c0.5-0.1-0.9-1,0.4-0.7l0.4-0.1c0.1,0.3,0.6,0.2,0.8,0.3c0.1-0.1-0.4-0.4-0.5-0.3h0.1
	c-0.7-0.2-0.2-0.4-0.7-0.5c0.1-0.5-0.2-1.1-0.2-1.5l0.5,0.2V6.6c-0.1-0.1-0.4-0.2-0.4-0.1c-0.3-0.2,0.3-0.1,0.4-0.1
	c-0.2-0.3-0.6-0.1-0.6-0.2l0.1-0.1h0.1c0.2,0,0.5,0.1,0.5-0.1c-0.1-0.1-0.3-0.2-0.3-0.2s-0.1,0,0-0.1V5.5L54,5.7
	c0.2,0,0-0.2,0.5,0.1c-0.7-0.4-0.2-0.8-0.4-1c0.3,0,0.3-0.1,0.3-0.3c0.1,0.1,0.6,0.3,0.5,0.1c-1-0.3-0.4-0.4-1.1-0.7
	c0.5,0.3,0.2-0.3,0.8,0c-0.1-0.1-0.4-0.1-0.6-0.3c0.4-0.1-0.2-0.7,0-0.9c0.1,0,0.3,0.2,0.5,0.2l-0.6-0.4c0.1,0,0.8,0.2,0.3-0.1
	c0.1,0.1,0.3,0.1,0.3,0.1c-0.5-0.8,0.7-1.1-0.4-2.2c0.2,0.2,0.3,0.1,0.3,0.1c0.1,0.1,0.3,0.1,0.5,0.2l-0.5-0.4
	c0.5,0.1,0.1-0.3,0.5-0.1l-0.1,0.1C55.4,0.3,56,0.8,56.7,1c-0.6-0.1,0.9,0.7-0.1,0.6c0.1,0.1,0.2,0,0.4,0.1c-0.3-0.1-0.4,0-0.3,0.2
	h0.1c-0.1,0.3,0.2,0.6,0.3,1l-0.3-0.1C56.8,2.9,56.9,3,57,3c-0.5-0.1,0-0.2-0.6-0.4c0.7,0.4-0.1,0.6,0.7,0.9c0,0.1-0.4-0.2-0.4-0.1
	l0.2,0.1l-0.3-0.1c0,0.1,0.3,0.2,0.5,0.3c0,0,0.1,0,0.1-0.1c0.2,0.2-0.1,0.3-0.1,0.3l0.3,0.3c-0.3,0.3,0,0.8-0.5,0.9L56.7,5
	c-0.3,0.1,0.2,0.3,0,0.5l0,0c-0.2,0-0.3,0-0.3,0.1c0.2,0,0.4,0.3,0.6,0.2c-0.4,0.2-0.3,0-0.9,0l0.3,0.1c-0.3,0-0.4-0.1-0.5,0
	c0.3,0,0.4,0.2,0.7,0.2c0.6,0.5-0.7,0.2,0.2,0.6c-0.8-0.1-0.4-0.4-0.6-0.4c-0.2-0.1-0.6-0.1-0.5,0c0,0.1,0.9,0.5,0.9,0.7h0.1
	c0.2,0.2-0.3,0.1,0,0.3c-0.5-0.1,0,0.1-0.6,0l0.2-0.2c-0.2,0.1-0.9-0.1-0.6,0.3c0.1,0,0.3,0,0.4,0c0.2,0.1-0.1,0.1,0,0.2
	c0.6,0.2,0.2-0.2,0.6-0.2c0.2,0.1-0.5,0.1,0.2,0.2c-0.8-0.2,0.1,0.3-0.6,0.2l0.4,0.1c-0.1,0-0.2,0-0.2,0L57,8
	c-0.4,0,0.3,0.4,0.1,0.4c0-0.2-0.4-0.2-0.7-0.4c-0.5,0.1,0.9,0.5,0.7,0.8c0.1,0-0.2-0.2-0.4-0.2c0.1,0.1,0.2,0.2,0.4,0.3
	c-0.1,0.2-0.4-0.2-0.6-0.1c0.4,0.2-0.2,0.1-0.3,0.1L56.6,9c0.2,0.3-0.8-0.2-0.5,0.1l0.5,0.1l-0.1,0.1l0.4,0.1
	c-0.3,0-0.2,0.1-0.2,0.3C56.5,9.6,56,9.5,56,9.6c0.2,0.2,0.3,0.1,0.3,0.2c0.2,0,0.5,0.1,0.2-0.1c0.1,0,0.2,0,0.3,0.1
	c0.2,0.2,0,0.2,0,0.3c0,0,0-0.1-0.1-0.1l-0.5,0.1c0.1,0.1,0.2,0.1,0.4,0.1c0,0-0.2,0-0.3,0.1c0.3,0.1,0.6,0.2,0.7,0.1l-0.4,0.1
	c0.1,0.1,0.3,0.2,0.4,0.2c0.2,0.2-0.6,0.1-0.4,0.4c-0.1,0-0.1,0-0.2,0c0,0.2,0.4,0.4,0,0.5l0.5,0.3c-0.1,0.1-0.6-0.4-0.9-0.2
	c-0.2,0.1,0.4,0.2,0.6,0.3c-0.3,0-0.8,0-0.4,0.3C56.3,12.6,56.3,12.5,56.3,12.5"/>
<path class="st0" d="M55.1,16.5c-0.1,0-0.1-0.1-0.2-0.1C54.9,16.4,55,16.4,55.1,16.5"/>
<path class="st0" d="M56.7,11.4L56.7,11.4L56.7,11.4z"/>
<path class="st0" d="M54.4,22.1c0-0.1-0.1-0.1-0.2-0.1C54.3,22,54.4,22.1,54.4,22.1"/>
<path class="st0" d="M50.4,24.8L50.4,24.8c0.1,0,0.2,0,0.2,0C50.5,24.8,50.4,24.8,50.4,24.8"/>
<path class="st0" d="M52.6,25.9C52.6,26,52.6,26,52.6,25.9L52.4,26C52.4,25.9,52.5,25.9,52.6,25.9"/>
<path class="st0" d="M51.6,25c0.3,0,0.2,0.1,0.1,0.2l0,0C51.3,25.2,51.4,25.1,51.6,25"/>
<path class="st0" d="M51.7,25.2C51.7,25.3,51.7,25.3,51.7,25.2C51.5,25.3,51.7,25.3,51.7,25.2"/>
<path class="st0" d="M50.8,24c0.1,0.1-0.4,0-0.3,0C50.2,24,51.1,23.9,50.8,24"/>
<polygon class="st0" points="52.2,25.1 52.6,25.2 52.5,25.1 "/>
<path class="st0" d="M52.3,24.6L52.3,24.6C52.3,24.7,52.3,24.7,52.3,24.6C52.3,24.6,52.2,24.5,52.3,24.6"/>
<path class="st0" d="M52.3,24.7C52.3,24.7,52.3,24.8,52.3,24.7C52.2,24.8,52.3,24.7,52.3,24.7"/>
<polygon class="st0" points="52.6,25 52.7,25 52.6,24.9 "/>
<path class="st0" d="M52.4,23.2L52.4,23.2c0.2-0.1,0.3,0,0.2,0C52.6,23.3,52.5,23.3,52.4,23.2"/>
<path class="st0" d="M53.4,23.9c-0.1-0.1-0.2-0.1-0.3-0.1l0.5,0.1H53.4z"/>
<path class="st0" d="M53.5,23.5c0.1,0,0.4-0.1,0.3,0.1C53.7,23.6,53.6,23.7,53.5,23.5"/>
<polygon class="st0" points="53.2,21.5 53.2,21.5 52.4,21.3 "/>
<path class="st0" d="M55.2,20.4c0.2,0.2-0.5-0.1-0.3,0.1c-0.2,0-0.2-0.2-0.3-0.2C54.9,20.3,54.8,20.2,55.2,20.4"/>
<path class="st0" d="M54.7,20.3L54.7,20.3C54.6,20.3,54.6,20.3,54.7,20.3"/>
<polygon class="st0" points="54.3,0.3 54.4,0.3 54.2,0.2 "/>
<path class="st0" d="M54.9,0.3l-0.5-0.2L54.9,0.3C54.8,0.2,54.8,0.3,54.9,0.3"/>
<path class="st0" d="M56.7,14.8L56.7,14.8c-0.2-0.1-0.2-0.1-0.2-0.1L56.7,14.8z"/>
<polygon class="st0" points="56.6,13.4 56.6,13.4 56.1,13.2 "/>
<path class="st0" d="M57.3,12.5c0,0.1-0.1,0.1-0.1,0.1C57.3,12.5,56.7,12.3,57.3,12.5"/>
</svg>
