<?xml version="1.0" encoding="utf-8"?>
<!-- Generator: Adobe Illustrator 19.2.1, SVG Export Plug-In . SVG Version: 6.00 Build 0)  -->
<svg version="1.1" id="Layer_1" xmlns="http://www.w3.org/2000/svg" xmlns:xlink="http://www.w3.org/1999/xlink" x="0px" y="0px"
	 viewBox="0 0 1112.6 67.4" style="enable-background:new 0 0 1112.6 67.4;" xml:space="preserve">
<style type="text/css">
	.st0{fill:#082432;}
</style>
<path class="st0" d="M1111.6,44.4c1.4-0.1,0.8-0.3,0.9-0.4C1110.2,44.3,1111.7,44.4,1111.6,44.4"/>
<polygon class="st0" points="1085.5,47.7 1088.4,47.2 1088.8,47.1 "/>
<path class="st0" d="M1066.3,49.3c2.4,0.2,8-0.8,12-1h0.7l1.5-0.5C1075.9,48.3,1069.8,49.1,1066.3,49.3"/>
<path class="st0" d="M1053.9,49.4c0.8,0.1-2.5,0.4,2.8-0.2c-0.3,0-0.4,0-0.5,0C1055.7,49.3,1055.1,49.3,1053.9,49.4"/>
<path class="st0" d="M1056.2,49.2C1058.5,49,1054.6,49.2,1056.2,49.2"/>
<path class="st0" d="M1045.5,50.3l3-0.4c-0.7,0-3.5,0.2-2.5,0C1042.9,50.2,1043.6,50.3,1045.5,50.3"/>
<path class="st0" d="M1042.8,50.9l1.6-0.2C1044,50.6,1043.6,50.7,1042.8,50.9"/>
<path class="st0" d="M1047.6,50.2l-3.3,0.4c0.5,0,0.6,0.2,1.5-0.2C1045.7,50.6,1046.2,50.4,1047.6,50.2"/>
<path class="st0" d="M1049.6,50.1c1.8-0.1,4-0.2,1.1,0.2C1056.5,49.8,1055.4,49.5,1049.6,50.1"/>
<path class="st0" d="M1065.5,49.9l2.4-0.1l1.9-0.3C1068.8,49.6,1065.3,49.7,1065.5,49.9"/>
<path class="st0" d="M1026.2,51.7c-0.1,0.1,1.2,0.2,1.5,0.3l2.2-0.3C1028.7,51.7,1026.5,51.9,1026.2,51.7"/>
<path class="st0" d="M1027.7,52l-3.3,0.4C1027.4,52.2,1028,52.1,1027.7,52"/>
<polygon class="st0" points="1041.5,51.5 1042.5,51.4 1047.9,50.6 "/>
<polygon class="st0" points="1011.8,53.1 1013.2,52.8 1015,52.4 "/>
<path class="st0" d="M1004.6,53.6c1.3-0.3-2.1-0.1-0.7-0.4c-2.3,0.2-4.2,0.5-6,0.8C999.8,53.8,1001.9,53.6,1004.6,53.6"/>
<path class="st0" d="M995.1,54.4c0.9-0.1,1.9-0.3,2.9-0.4C997,54.1,996,54.3,995.1,54.4"/>
<path class="st0" d="M1018.6,52.9c-0.3,0-0.9-0.1-2.8,0l1.5,0.2C1017.6,53,1018.1,52.9,1018.6,52.9"/>
<path class="st0" d="M1017.3,53L1017.3,53c-1.5,0.1-2.5,0.2-3,0.2C1014.7,53.2,1015.6,53.1,1017.3,53"/>
<path class="st0" d="M1018.9,52.9c-0.1,0-0.2,0-0.3,0C1018.7,52.9,1018.8,52.9,1018.9,52.9"/>
<path class="st0" d="M1033.5,52c-1.9,0.3-6,0.8-1.8,0.7C1033,52.4,1030.6,52.4,1033.5,52"/>
<path class="st0" d="M1020.8,53.1l3.6-0.2c-0.1-0.1-0.8-0.1,0.1-0.3L1020.8,53.1z"/>
<polygon class="st0" points="1019.4,53.1 1019.1,53.3 1020.8,53.1 "/>
<path class="st0" d="M1001.4,54.2c-1.5,0.2-3.2,0.4-5.1,0.6c2.1-0.1,4.3-0.3,6.3-0.4C1002.8,54.2,1003.6,54,1001.4,54.2"/>
<path class="st0" d="M1009.1,53.7c-0.1,0-0.2,0-0.3,0C1009,53.7,1009.2,53.7,1009.1,53.7"/>
<path class="st0" d="M977.2,56.2c0.1,0,0.2,0,0.3,0c0,0,0,0,0-0.1L977.2,56.2z"/>
<path class="st0" d="M1002.9,54.4c1.6-0.1,2.5-0.2,3.3-0.4c-1.1,0.1-2.4,0.2-3.7,0.3C1002.5,54.4,1002.4,54.4,1002.9,54.4"/>
<path class="st0" d="M989.8,55c0.8,0,1.8,0,2.8-0.1C991.8,54.9,990.1,54.9,989.8,55"/>
<path class="st0" d="M1008.2,53.7c0.1,0,0.1,0,0.2,0C1007.9,53.6,1008,53.6,1008.2,53.7"/>
<path class="st0" d="M1008.2,53.7c-0.8,0.1-1.4,0.2-2,0.3c0.9-0.1,1.8-0.2,2.5-0.3C1008.6,53.7,1008.4,53.7,1008.2,53.7"/>
<path class="st0" d="M972.3,58.4c0.2-0.3,4.1-0.8,7.8-0.8c3.4-0.4,0.7-1.1-2.6-1.3c-0.1,0.1,0,0.2-3.5,0.6c1.3,0,8.1-0.3,5.2,0.2
	c-4.7,0.5-3.9,0.2-6.3,0.3c2.1,0.2-5.8,0.9-4.6,1.3l4.1-0.5C972.6,58.2,971.1,58.4,972.3,58.4"/>
<path class="st0" d="M984.4,55.8l1.5-0.1c-1.7,0.1-3,0.1-5.3,0.1c-2.4,0.3-2.9,0.4-3,0.5l7.3-0.5H984.4z"/>
<path class="st0" d="M992.5,55.1c-1,0.4-4.5,0.7-2.2,0.9c4.3-0.3,2.9-0.5,5.4-0.8C988.8,55.8,997.7,54.9,992.5,55.1
	c1.4-0.1,2.6-0.2,3.8-0.3c-1.3,0.1-2.5,0.1-3.7,0.2c0.1,0,0.1,0,0.2,0l0,0l0,0c0.3,0,0.4,0,0.1,0h-0.1
	C992.7,55,992.6,55.1,992.5,55.1c-2.1,0.1-0.4,0,0.3-0.1h0.1l0,0l-7,0.6C987.4,55.5,989.2,55.4,992.5,55.1"/>
<path class="st0" d="M1028.3,53.6c-0.2,0-0.2,0-0.3,0C1027.6,53.6,1027.5,53.6,1028.3,53.6"/>
<path class="st0" d="M1025.3,53.6c0.5-0.1,0.8-0.2,2.5-0.3c1.5,0,0.1,0.1,0.2,0.2c1-0.2,3.4-0.5,0.2-0.4l-0.5,0.1
	c-2.9,0.1-6.7,0.1-6.2,0C1022.5,53.5,1023.3,53.6,1025.3,53.6"/>
<path class="st0" d="M1008.7,54.5l-5.7,0.6h3.1l-0.2-0.1C1009.2,54.7,1008.4,54.6,1008.7,54.5"/>
<polygon class="st0" points="973.9,56.4 976.5,56.1 977.1,55.8 "/>
<polygon class="st0" points="967.1,56.7 968.9,56.7 969.1,56.5 "/>
<path class="st0" d="M535.3,56.1l-1.8-0.1C534.3,56.1,534.9,56.1,535.3,56.1"/>
<path class="st0" d="M547.7,57.1l0.4-0.1C547.5,57,547.2,57,547.7,57.1"/>
<path class="st0" d="M780.8,64.1c-2.5-0.2-5.4-0.6-5.1-0.3l0.8,0.3C778.3,64,779.6,64.1,780.8,64.1"/>
<path class="st0" d="M650.9,62.1c0.2,0,0.5,0.1,0.7,0.1c0.6-0.1,1.3-0.1,1.8-0.2C652.7,62.1,651.8,62.1,650.9,62.1"/>
<path class="st0" d="M648.7,63.2l-3.3-0.3C646.2,62.9,647.2,63,648.7,63.2"/>
<path class="st0" d="M467.2,51.1l-2.2,0.1C468.2,51.5,466.9,51.2,467.2,51.1"/>
<path class="st0" d="M890.9,61.5c-2.2,0-4,0-5.5,0.1C888.1,61.7,890.3,61.8,890.9,61.5"/>
<path class="st0" d="M541.7,53.6c-1.1,0-1.6,0-1.6,0.1C541.2,53.7,541.9,53.7,541.7,53.6"/>
<path class="st0" d="M879.1,61.9c0.4,0,0.8,0,1.2,0c1.6-0.1,3.2-0.2,5.1-0.3C883.4,61.6,881.2,61.6,879.1,61.9"/>
<path class="st0" d="M220.6,34.6c-0.2,0-0.4,0-0.6-0.1C219.9,34.6,220.2,34.6,220.6,34.6"/>
<path class="st0" d="M148,30.2c0.7,0,1.9,0,3,0C150.5,30.2,149.6,30.1,148,30.2"/>
<path class="st0" d="M938.3,58.7C939.9,58.6,938.5,58.6,938.3,58.7"/>
<path class="st0" d="M946.6,59.2c-0.3,0.1-0.6,0.1-0.6,0.2C946.1,59.3,946.3,59.3,946.6,59.2"/>
<path class="st0" d="M863.4,64.2L863.4,64.2C863.7,64.3,863.6,64.3,863.4,64.2"/>
<path class="st0" d="M940.8,58.6c-0.6,0-1.3,0-2.1,0.1C939,58.7,939.6,58.7,940.8,58.6"/>
<path class="st0" d="M940.4,58.5c0.6,0,1,0,1.4-0.1C942,58.4,941.8,58.4,940.4,58.5"/>
<path class="st0" d="M936,58.8c0.9-0.1,1.8-0.1,2.6-0.1c-0.3,0-0.5,0-0.4,0C937.8,58.7,937.1,58.8,936,58.8"/>
<path class="st0" d="M353.6,41.3c-0.1,0-0.2,0-0.3,0C351.6,41.3,352.3,41.3,353.6,41.3"/>
<path class="st0" d="M737.9,66.5c0.1,0,0.1,0,0.2,0C738,66.5,737.9,66.5,737.9,66.5L737.9,66.5z"/>
<path class="st0" d="M731.9,66.6c2.6-0.3,4-0.2,5.9-0.1l-1.8-0.8L731.9,66.6z"/>
<path class="st0" d="M337.3,38.1l1,0.2C335.9,38.2,336.6,38.2,337.3,38.1 M926.2,59.8c0.5-0.1,0.5-0.1,0.2-0.1
	c-0.4,0.1-1.6,0.2-3,0.2C923.9,60,924.6,60,926.2,59.8 M920.7,60L920.7,60C917.9,60,918.8,60,920.7,60 M659.7,63.2
	c-0.9,0.1-2.3-0.1-3.8-0.3C657.1,62.9,658.4,63,659.7,63.2 M566.4,58.3c-1.2,0-3.7,0-4.4-0.2C563.4,57.8,564.4,58,566.4,58.3
	 M505.4,53.9l3.9,0.6c-5.1,0-8.6-0.4-5,0.2c1-0.8,15.8,1.1,16.9,0.3l2.6,0.4c-0.8-0.1-0.9,0-1.7-0.1c5,0.8,4.2-0.3,10.9,0.3
	c2.3,0.2,3.9,0.5,2.2,0.5l5.3,0.2c1.5,0.1,1.1,0.2-0.4,0.1l8,0.5H548c1.2,0,3.9-0.1,5.2-0.1c2,0.3-1.1,0-0.6,0.2l4.5,0.1
	c1.7,0.4-2.1,0.3-5.1,0c3.7,1.1,3.8,0.1,12.4,1.2l-4.2-0.2c2.5,0.7,5.8,0.7,10.4,1.3c-1-0.2-9.1-1.4-4.2-1.3
	c1.3,0.2,3.1,0.3,5.8,0.3c-0.1,0.3,2.4,0.4,5.6,0.6l-0.4,0.4c3.5,0.1,3.3-0.1,5.4-0.1c3.8,0.3,4.4,0.7,5.2,1c6.1,0.5-4-0.8,3.3-0.4
	c5,0.5,8.7,0.6,14.9,0.7c3.5,0.4-0.7,0.2,0.5,0.4l3.3-0.1c0.8,0.1,0.5,0.1,0.3,0.2c2.7,0,0.4-0.4,4.6-0.2c1.3-0.4,8.3,1.2,13.7,1
	c1.2,0.2-0.7,0.2-0.4,0.4c7.3,0.1,6.2,0.1,12.2,0l4.9,0.5c-3.6-0.5,1.3-0.6,5.5-0.7c-1.2-0.2-2.3-0.4-3-0.5l6.6,0.1
	c0.8,0.1,0.1,0.2-1.1,0.3c0.5,0,0.9,0,1.2,0c2.3,0.3,1,0.4-0.8,0.6c-0.8-0.1-1.5-0.2-2.3-0.4c-1.7,0.2-3.3,0.4-3.1,0.6
	c0.4,0,1.3,0,2.2,0c-0.4,0-0.7,0.1-0.6,0.1c0.2,0.1,0.9,0,2,0l1.3,0.5l0.4-0.2l8.5,0.7c6.3-0.2,11.9-0.6,21.7-0.4
	c-2.5,0.2-0.7,0.5-0.9,0.9c-2.5-0.5-7.6-0.2-12.7-0.5c2.6,0.2,2,0.3,1.3,0.4h9.1c-0.3,0.3,1.8,0.3,4.2,0.6
	c-1.6-0.7,6.9-0.2,10.6-0.2c0.2,0.2-0.8,0.4-5.2,0.2c4.8,0.7,6.6-0.5,11.4,0.1c-1.1,0-1.7-0.1-2.1,0c2.6-0.1,8.8,0.3,7.3,0.4h-1.1
	c7.3,0.3,22.2,0.7,23.4,0.1c0.1,0.1-1.1,0.6-1.5,0.7l13.3-1.5c-1.2,0.4,3.1,1.6-3,1.8c1.7,0.1,3.9,0.2,7.6,0.1
	c-1.2-0.1-2.9-0.7-1.3-0.7c4.4,0.6,3.1,0.3,8.5,0.8c-1.8-0.1,0.3-0.8,3.1-0.8c-0.4,0.1,0.2,0.7-0.9,0.8l7.1-0.6
	c-1.8,0.1-0.4,0.6,1.2,0.8c-0.7-0.2,6.1,0.1,7.9,0l-1.5-0.1c-0.7,0-1.5-0.1-1.5-0.1c7.9,0.1,7.8-1,15.7-0.9c-0.9,0.1-2.3,0.9,1.7,1
	c0.9-0.2,2.9-0.6,5.6-1.1c2.6-0.4,5.9-0.9,9.4-1.1l1.3,0.2l5.3-0.3c-3.2,0.6-12.5,1.8-17.6,2.3c3,0.2,0.8,0.2,5.3,0.2
	c1.6,0.2-2.4,0.3-3.7,0.3h10.4c-0.5-0.4,7.9-0.5,7.5-0.8L797.8,67c-0.5-0.4,6.4-1.3,13.7-1.3c1.9,0.1-1.3,0.8-1.2,0.9
	c0.9-0.2,6.9-0.4,7.6-0.3l-3.1,0.3c4.1,0.1,6.6-0.7,11.5-0.4c1.7,0,5.1,0.5,5.4,0.2c-2.8-0.4-3.6-1.9-1.8-2.3
	c0.6,0,8.9,0.2,10.8,0.4c2.8,0.3-4,1-1.6,1.3c0.1-0.1,1.6-0.3,2.2-0.4c1.8,0-0.7,0.4,3.2,0.2c0.6-0.4,7.8-0.2,1.7-0.4
	c3.7-0.2,4,0,8.4-0.2c-1.5-0.2,3.7-1.1,7.4-1.3c-0.2,0.1,0.7,0.2,1.1,0.3c3.8-0.1,6.8-0.2,9.7-0.2c2.9-0.1,5.7-0.1,9.3-0.3
	c0.7,0.1,4.2,0,2.8,0.3c1-0.1,1.9-0.3,4.1-0.4c4.4,0.2-4.9,0.3-1.5,0.6c0.2-0.3,5.6-0.6,8.7-0.9c-1.1-0.3-7.3,0.3-10.4,0.6
	c-0.2-0.5,5.1-1.3,12.4-1.9c5.9-0.4,2.7,0.2,3.7,0.1c11.1-0.5,9.1-1.4,18.4-1.6c3.8,0.1,0.4,0.7,1.3,0.9c-4.8,0.4-7.5,0.2-10.7,0.4
	l4.1-0.1c-1.5,0.2-4.7,0.5-6.5,0.5c1.6,0.1,6.3-0.2,11.7-0.5s11.4-0.6,15.8-0.8c1.5-0.2,4-0.5,2.7-0.6l-2.7,0.2
	c-2.6-0.1,4.9-0.7,1.4-0.6c3.5-0.4,7.4-1,12.6-1.2l1.1,0.3c-0.2-0.1-3.4,0-4.8,0.2c2-0.3,8,0,10.1-0.7h-3.7
	c3.5-0.4,7.8-1.2,12.3-1.4c-2.2-0.2-1,0.1-4.4-0.1c3,0.4-11.5,0.8-6.8,1c-3.5-0.3-5.8,0.2-10.3,0c0.2,0.1,1.6,0.1-2.2,0.3
	c-0.2,0-0.5,0.1-0.8,0.2c-0.1,0-0.2,0-0.3,0c0.1,0,0.1,0,0.2,0c-0.2,0-0.2,0,0.1,0c0.9,0,1.7,0,2,0.1c-1.7,0.4-7.8,0.8-9.7,1.1
	c-2.3,0.1,0.9-0.2-0.4-0.3l-2.9,0.4c-0.4-0.3-6.2-0.1-0.9-0.6l-4.8,0.3c-2.9,0-6.8,0.2-9.1,0.4c-2.3,0.1-5.6,0.6-3.7,0.3l-7.4,0.6
	l-0.1-0.1c-3.7,0.2-7.5,0.5-11.4,0.7s-8,0.4-12.3,0.3c-2.5,0.2-5,0.4-9.2,0.5l-0.9-0.2c-3.2,0.2-9.7,0.1-11,0.4
	c-1.8-0.3-5.7-0.1-9.9,0s-8.6,0.4-11.4,0.4l-0.2,0.3c-3.9,0.1-7.6,0.3-12.4,0.5l0.3,0.3c-4.1,0.3-10.8,0-17.3,0.1
	c0.4-0.1,2.1-0.1,3.3-0.1c-7.9-0.6-16.6,0.6-23.8,0.2c-1.8,0.1-3.1,0.1-4.3,0c0.2,0,0.3,0,0.4,0c-0.2,0-0.5,0-0.7,0
	c-0.8,0-1.6-0.1-2.5-0.2c0.7,0.1,1.5,0.1,2.1,0.2c-1.4,0-3.5,0-5.5,0.1l-0.9-0.3c-0.2,0-0.3,0-0.5,0c-2-0.1-1.6,0.1-0.5,0.4
	c-1,0-2,0.1-2.7,0.2c-0.8-0.2-2.1-0.2-3.6-0.2c-1.4,0-2.9,0-4-0.2c-1.4,0.2-10.3,0.1-11.4,0.6c-0.1-0.1-0.7-0.1,0.4-0.1
	c-2.3-0.1-4.5-0.2-6.6-0.1l-0.9-0.4l-5,0.4c-3-0.3-4.2-0.5-1.2-0.7c-7.3,0.3-5.9,0.1-12.1,0.4l0.3-0.2c-2.2,0-5.8,0.2-7.1-0.1
	c-2.4-0.3-8.5-0.5-15.5-0.7c-7-0.3-15-0.6-21.3-1c2.2,0.8-5.8-0.6-6.4,0c-0.7-0.2-2.4-0.4-0.3-0.4c-6.5-0.1-9.6-0.7-14.1-0.4
	c-0.7-0.2,1.5-0.2,0.8-0.3c-0.5,0-2.1,0-2.7-0.1c-0.6-0.1,1-0.1,2-0.1c-6.5-0.3-7.4,0.2-8.1,0.7c-3.2-0.4-4.9-0.5-7.4-0.2
	c-1.1-0.2-3-0.5,1.1-0.3c-2.3-0.1-13.9-1-14.3-0.6c-0.7-0.1-3.2-0.2-3.8-0.2c-5.1-0.3-5.6-0.4-10.6-0.6l1.4,0.2
	c-2.2,0.4-4.2-0.1-8.3-0.3h0.1c-9.1-0.9-4.1-0.1-13.1-1l0.4,0.3c-1.1,0.6-7.9-0.9-13.4-1l1.8,0.3c-3,0-7.7-1.4-10.6-1.7
	c-0.6-0.1,1,0,1.9,0c-7.4-0.9-1.2,0.3-6.9,0c-0.9-0.3,1.6-0.4-2.2-0.7c-1.8-0.3-11.4-0.1-16.4-0.9c1.1,0.2,2.1,0.5-0.6,0.4
	c-4.1-0.2-10.6-1.4-14.5-1.2c-0.5-0.1-0.7-0.1-0.7-0.2c-3.1-0.1-10.1-0.5-12.1-0.4c-2.3-1.2-19.4-1-18.8-1.9l-9.5-0.7l0.3-0.1
	c-6-0.5-8.3-0.5-10.5-0.4c-1.4-0.2-0.3-0.2-0.1-0.2c-8.7-0.9-9.6-0.9-17.3-1l-0.6-0.4c-2.1,0-12.5-1.5-21.4-1.8c0.1,0,0.3-0.1,1-0.1
	c-10-0.4-22.9-2.7-27.1-1.9l-6.6-0.2c8.3,0.7-1.5,0.4,1.8,0.8c-3.3-0.2-8.3-1-4.2-0.7l0.6,0.1c1.8-0.5-10.2-1-9.8-1.4
	c-16.4-1.3-32.3-2.8-47.7-3.9l1.5,0.6l-5.4-0.4c-1.4-0.2-1.7-0.5,2.1-0.2c-1.9-0.4-6.6-0.2-6.7-0.1c-7.4-0.7,3.2-0.3,0.9-0.5
	l-3.2-0.2l0.7,0.1c-2.6,0-3,0.2-7.6-0.2c-2.9-0.3-1.4-0.4-2.5-0.5c0,0-0.4-0.1-1.8-0.1l-6.8-0.5L331,38c-3.1,0-6.4-0.4-3.4,0.2
	c-2.2-0.5-8.5-0.9-14.6-1.3s-12.1-0.7-13.4-0.9c-4.3,0-8.5-0.3-13.7-0.6c1.3,0.1,1.9,0.6-2.6,0.3c2-0.7-8-0.8-11.4-1.6
	c3.1,0.6-12.8-0.5-7.9,0.3c-3.7-0.3-0.1-0.3-2.9-0.7c-9-0.2-19.6-1.1-30.7-1.5c-0.2,0.1,1.6,0.3-0.8,0.4l-5.7-0.8
	c-2.2,0-2.2,0.6-6.1,0c0.5,0.1,1.3,0.3-0.1,0.3c-21.6-1.3-44.4-0.9-66.4-2.1c3,0.2,1,0.2-1.3,0.2c1.5,0.1-0.1,0.3,0.2,0.4
	c0,0-2.3-0.1-4.6-0.3c-2.3-0.1-4.6-0.2-4.6-0.2c-1.7,0.4-9.9,0-10.9,0.4l2.9-0.1c-3.9,0.5,5.4,1.1,4.8,1.7c2.2-0.3,5-0.1,8.2,0.1
	s6.7,0.4,10.3,0c1.6,0.1-1.4,0.2-0.5,0.3c1.8-0.2,4-0.3,8-0.1l-0.5,0.1c5.7,0,9.7,0.2,13.9,0.3c4.2,0.2,8.6,0.3,14.9,0.6l-0.9-0.3
	c2.7,0.1,3.3,0.2,4.5,0.3c3.2-0.4-7.7-0.2-4.7-0.7c3.5,0.7,19.3,0.5,21.5,1.4c4.2,0.2-1.1-0.4,3-0.2l1.1,0.2l1.1-0.2
	c2.7,0.1,4.1,0.4,4.1,0.6c-0.7,0-1.9,0-2.6,0c3.5,0.4,10.1,0.3,11.3,0.4l-4-0.3c11.5,0.3,25.3,1.1,36.5,1.4l-0.8-0.2
	c8.5,0.2,6.7,0.5,16,0.9h-0.3c1.9,0,4.4,0,6.9,0.2c-2.4,0,4.3,0.6,1.1,0.6c9.2,0.2,4.6,0,10.8-0.1l1.3,0.3c2.1-0.1,2.4-0.2,7,0
	c-3.9,0,2.8,0.5-1.6,0.5c9.4,1.1,14.5,0.4,18.6,1.4c4.7-0.3-8.2-0.9-5.6-0.9c-2-0.3,3.9-0.2,6.9,0c3.1,0.2,4.9,1.2,12.6,1.7
	c-0.8-0.1-0.8,0-1.6-0.1c2.8,0.4,5.8,0.2,9.2,0.7c2.2-0.2,4.6,0.3,5.4-0.1l-7.1-0.4c4.1,0.2,8.1-0.2,14.6,0.6c-0.6,0.1-2.6,0-4,0
	c1.9,0.3,3.8,0.2,5.7,0.5c-0.8,0.4-8.7-0.5-13.2-0.4c2,0.4,8.3,0.2,5.9,0.6c3.5-0.5,7.6,0.6,13,0.5l-0.5,0.3c0.9,0,2.6,0,4.2,0.1
	l-3,0.2c4.4,0,8,0.9,12.1,1c-8.5-0.6-1.7-0.5-5.2-1c10.7,0.4,5.6,1.2,17.4,2c-1.6-0.1-5.9-0.6-3.3-0.6c2.2,0.2,5.1,0.6,6.4,0.8
	c7.8,0.5-1-0.4,2.4-0.3c2.4,0.6,3.9,0.2,7.4,0.3l-0.1,0.3c8.7,0.9,2.7-0.4,10.5,0.4l-3.6,0.2l4.2,0.2l-1,0.3c4.7,0.1,6,0.3,10.4,0.7
	c-0.9-0.3,0.9-0.5,4.8-0.2c2.6,0.4-1.7,0.2,3.9,0.6c-1.4,0.1-2.9,0.2-5.1-0.3c-0.3,0.1-1.3,0.1-1.6,0.2c2.8,0.4,7.2,0.6,9.2,0.8
	c-0.8-0.1-1.7-0.2-2.1-0.2l8.3,0.2c1.2,0.2,0.1,0.2-0.9,0.2c1.6,0.1,2.9,0.1,5.3,0.2c-0.8,0.2-0.7,0.5-4.2,0.3l7.8,0.3
	c0.5,0.1,3.8,0.6,2.7,0.6c4.2,0.5,10.7,0.4,16.2,1c0.3,0,0.9,0,2.1,0c5.3,0.5,9.8,1.1,16.3,1.3l3.3,0.7c5,0.3-4.5-0.9,3.8-0.4
	c5.9,0.3,2,0.5,3.9,0.8c3,0,8.3-0.1,13.4,0.7C508.4,54.2,507.1,54,505.4,53.9"/>
<path class="st0" d="M649,63.1c-0.3-0.1-0.4-0.1-0.5-0.2C648.1,62.9,648,62.9,649,63.1"/>
<path class="st0" d="M467.6,51.1h-0.2c-0.1,0-0.2,0-0.2,0H467.6z"/>
<path class="st0" d="M841.5,66.1c-1.2,0-1.8-0.1-2.2-0.1C839.2,66.1,839.7,66.2,841.5,66.1"/>
<path class="st0" d="M954.9,57.4l-3.5,0.3c1.7-0.1,2.3-0.1,3.2-0.1C954.5,57.6,953.8,57.5,954.9,57.4"/>
<path class="st0" d="M986.2,57.1c0.5-0.1,1.1-0.1,1.6-0.2l-0.2-0.1C985.3,57,983.9,57.2,986.2,57.1"/>
<path class="st0" d="M958.6,58.2c0.4,0.2,2.6,0,5-0.2c-0.1,0-0.3,0-0.4,0C963.7,57.6,961.2,57.9,958.6,58.2"/>
<path class="st0" d="M964.2,57.9c0.7-0.1,1.5-0.1,2.3-0.2C966.6,57.6,965.5,57.8,964.2,57.9"/>
<path class="st0" d="M933.1,59.2c1.2,0,0.6-0.4,1.3-0.3C935.5,58.5,926.8,59.8,933.1,59.2"/>
<polygon class="st0" points="958.7,59 961,58.9 960,58.7 "/>
<path class="st0" d="M941.5,60l4-0.2c-0.1,0,0.4-0.1,1-0.2C944.1,59.8,941.4,59.9,941.5,60"/>
<path class="st0" d="M946.5,59.6c1.3-0.1,2.5-0.2,3.1-0.3C948.9,59.4,947.5,59.5,946.5,59.6"/>
<polygon class="st0" points="954.5,59.4 951.7,59.6 955.7,59.4 "/>
<path class="st0" d="M899.2,62.3l-4.3,0.3c-0.4,0.1,0.8,0.1,2.4,0C898.3,62.5,899.9,62.4,899.2,62.3"/>
<path class="st0" d="M912.5,62.5c-1.2,0-1.3-0.1-2-0.1v0.4L912.5,62.5z"/>
<path class="st0" d="M900,63.3c-0.4,0.1-6.2,0.6-0.7,0.3C899.7,63.5,904,63.2,900,63.3"/>
<polygon class="st0" points="834.6,65.2 835.7,65.2 835.4,64.6 "/>
<path class="st0" d="M776.8,67.4c5.2,0.2,1.2-0.4,5.9-0.2c1.2-0.1-3.8-0.2-2.6-0.3C777,67.1,775.4,67,776.8,67.4"/>
<path class="st0" d="M780.1,66.9c0.5,0,1-0.1,1.6-0.1C780.8,66.8,780.4,66.9,780.1,66.9"/>
<polygon class="st0" points="134.6,29.9 135.8,29.8 132.5,29.7 "/>
<path class="st0" d="M129.4,30.3l-0.8-0.4l-2,0.4C127.4,30.2,128.8,30.2,129.4,30.3"/>
<path class="st0" d="M575,59.7l0.3-0.1c-0.5-0.1-1.2-0.2-2.7-0.3L575,59.7z"/>
<polygon class="st0" points="531,56.2 531.7,56.3 530.5,55.8 "/>
<path class="st0" d="M493.7,53.8c1.5,0.1,3.3,0.2,4.8,0.3C495.2,53.9,493.5,53.3,493.7,53.8"/>
<path class="st0" d="M19.9,14c0.9,0.1,1.6,0,2.4-0.3s1.6-0.7,2.3-1.2c0.7-0.5,0.9-1,1.3-1.6c0.4-0.7,0.8-1.3,0.9-1.7
	C27.1,8.8,28,6.3,28,6.3C28,6.2,28.1,6,28.3,5c-3.8,2.6-7.8,5.2-11.7,7.8C17.8,13.8,19,14,19.9,14 M32.5,14
	c3.7-0.1,11.4-0.2,17.4-0.4h2c0.3,0,0.3-0.1,0.3-0.3l-1.3-9.1c0-0.1-0.1-0.3-0.3-0.3c-4.1,0.4-8.1,0.9-14.1,2.2
	c-0.7,0.1-1.3,0.3-2,0.4c-0.1,0-0.1,0.1-0.3,0.1c-0.5,1.6-1.2,4-1.9,7C32.1,13.9,32.3,14,32.5,14 M53.5,13.4c0,0.1,0.1,0.3,0.3,0.3
	c4.1-0.1,13.4-0.3,14.7-0.3c0,0,3.4-0.1,3.6-0.1c0.3,0,0.4-0.3,0.3-0.4s-4.9-6.6-6.1-8.3c-0.5-0.7-1.1-1-2-1
	c-4.2,0-8.2,0.1-11.8,0.5c-0.3,0-0.3,0.1-0.3,0.3C52.6,7.1,53.1,10.2,53.5,13.4 M74.7,12.7c0.3,0,0.5-0.1,0.9-0.1
	c1.3-0.3,2.7-0.5,3.8-1.3C77,8.6,74.5,6,71.7,3.6c-1.1,0.1-1.9,0.4-2.8,0.5c-0.3,0-0.3,0.3-0.1,0.4c1.3,1.8,3.2,4.6,5.6,8.1
	C74.6,12.7,74.6,12.8,74.7,12.7 M0.2,25.7h1.1c0.3,0,0.4,0,0.5-0.4s0.3-0.9,0.4-1.6c0.1-0.5,0.4-1,0.7-1.3C3,22.1,3.2,22,3.3,22
	s0.1-0.1,0.3-0.1v-0.3c0-0.1-0.1-0.1-0.1-0.3c0-0.1,0-0.1,0.4-0.7c0.4-0.4,1.2-1,2.4-2c1.2-0.9,2.8-2.1,4.4-3c1.6-1,3.1-1.8,4-2.3
	c0.8-0.4,1.2-0.7,1.7-0.5c4-2.6,8-5.3,11.8-7.9c0.1-0.4,0.3-0.7,0.3-0.8c0.1-0.3,0.3-0.3,1.1-0.5C30.4,3.3,32,2.9,35,2.4
	c2.9-0.5,7.3-1.3,11.3-1.7c4-0.5,7.6-0.7,11.1-0.7C61,0,64.6,0.3,67,0.7c2.5,0.3,3.8,0.7,4.6,1c0.9,0.3,1.3,0.5,1.5,0.7
	c0.3,0.1,0.3,0.3,0.3,0.4s-0.1,0.1-0.1,0.1V3c0,0,0.1,0.1,0.1,0.3c0,0.1,0,0.3-0.1,0.3c2.8,2.3,5.2,4.8,7.6,7.6c0.1-0.1,0.3,0,0.5,0
	c0.1,0.1,0.4,0.3,0.5,0.3c0.1,0.1,0.3,0.1,2.4,0.4s6.2,0.9,10.1,1.6c4,0.8,7.7,1.7,10.5,2.3c2.8,0.8,4.6,1.3,6.2,2.1
	c1.6,0.8,2.8,2,3.7,3s1.6,2,2,2.5s2.1,2.9,2.4,3c0.4,0,0.4,0.1,0.3,0.4c-0.1,0.3-0.5,0.7-0.9,1c-0.3,0.4-0.5,0.7-1.2,0.9
	s-1.9,0.5-3.7,0.8c-1.6,1.2-2.8,1.8-3.4,2.2c-0.8,0.4-1.2,0.7-1.7,0.7s-1.1,0-2.7-1.2c-1.6,7.7-12.1,9.4-16.1,2.5
	c-20.7-0.5-41.4-1-62.1-1.7C25,40.6,12.4,39.7,11,31c-1.3-0.5-2.5-0.7-3.6-0.8s-1.9-0.3-3.7-0.3H3.6c-0.1-0.3-0.4-0.5-0.5-0.8
	c-0.1-0.1,0-0.3,0.1-0.3l-0.5-0.9v-0.7c-0.4,0-0.7-0.1-1.1-0.3c-0.3-0.1-0.7-0.4-0.9-0.7c-0.3-0.3-0.3-0.5-0.4-0.7
	C-0.1,25.9-0.1,25.7,0.2,25.7"/>
</svg>
