<?xml version="1.0" encoding="utf-8"?>
<!-- Generator: Adobe Illustrator 19.2.1, SVG Export Plug-In . SVG Version: 6.00 Build 0)  -->
<svg version="1.1" id="Layer_1" xmlns="http://www.w3.org/2000/svg" xmlns:xlink="http://www.w3.org/1999/xlink" x="0px" y="0px"
	 viewBox="0 0 97.1 109.5" style="enable-background:new 0 0 97.1 109.5;" xml:space="preserve">
<style type="text/css">
	.st0{fill:#082432;}
</style>
<path class="st0" d="M67.5,109.2c0.6,0,1.2-0.1,1.9-0.1c0.7,0,1.3,0,2,0.1v-0.5h-0.3c-0.6,0-0.9-0.2-0.9-1v-4.4c0.7-0.5,1.3-1,2.1-1
	c1.1,0,1.8,0.7,1.8,1.9v3.7c0,0.8-0.2,0.9-1,0.9h-0.2v0.5c0.7,0,1.3-0.1,2-0.1c0.6,0,1.2,0,1.8,0.1v-0.5h-0.4
	c-0.6,0-0.9-0.2-0.9-0.9v-4.5c0.7-0.5,1.3-1,2.1-1c1.2,0,1.8,0.6,1.8,1.9v3.3c0,1-0.1,1.4-1,1.4h-0.2v0.5c0.7,0,1.3-0.1,1.9-0.1
	c0.6,0,1.2,0,1.8,0.1V109h-0.3c-0.7,0-0.9-0.1-0.9-1.1v-3.4c0-1-0.1-1.6-0.5-2.1s-1-0.8-1.9-0.8c-1.3,0-2.3,0.9-3,1.5
	c-0.5-1.1-1.4-1.5-2.5-1.5c-1.1,0-1.9,0.8-2.7,1.4v-1.4h-0.2c-0.7,0.5-1.6,0.9-2.3,1.1v0.5c0.2-0.1,0.5-0.2,0.6-0.2
	c0.4,0,0.6,0.3,0.6,1.8v3c0,1-0.1,1.2-0.9,1.2h-0.3L67.5,109.2L67.5,109.2z M63.8,106.8c0,0.4,0,0.6,0.1,0.8c-0.6,0.4-1,0.8-1.6,0.8
	c-0.9,0-1.4-0.8-1.4-1.3c0-0.8,0.8-1.1,1.2-1.3l1.8-0.8L63.8,106.8L63.8,106.8z M63.8,104.5l-2.5,1c-1.2,0.5-1.8,0.9-1.8,1.9
	c0,0.9,0.7,1.9,2,1.9c0.7,0,1.2-0.2,2.4-1c0.1,0.5,0.2,1,0.4,1c0.1,0,0.1,0,0.3-0.1l1.7-0.8v-0.5c-0.3,0.1-0.6,0.2-0.8,0.2
	c-0.3,0-0.4-0.2-0.4-1.1v-3.5c0-0.8-0.3-2.3-2.5-2.3c-0.3,0-0.9,0.2-1.6,0.6c-0.8,0.5-1.2,0.8-1.2,1.4c0,0.3,0.1,0.6,0.3,0.9
	l1.1-0.5c-0.1-0.3-0.2-0.5-0.2-0.8c0-0.5,0.9-1,1.3-1c1,0,1.5,1.1,1.5,2C63.8,103.8,63.8,104.5,63.8,104.5z M48.9,109.2
	c0.5,0,1.3-0.1,2-0.1s1.5,0,1.9,0.1v-0.5h-0.2c-0.8,0-0.9-0.2-0.9-1.1v-4.4c0.6-0.4,1.4-1,2.2-1c0.7,0,1.2,0.3,1.4,0.7
	c0.3,0.5,0.3,1,0.3,1.5v2.7c0,1.3-0.2,1.5-0.9,1.5h-0.3v0.5c0.4,0,1.2-0.1,1.7-0.1c0.7,0,1.6,0,2.1,0.1v-0.5h-0.3
	c-0.8,0-1-0.2-1-1.3v-2.8c0-1.1-0.1-1.8-0.5-2.4s-1-1-2-1s-1.9,0.7-2.7,1.3v-3.9c0-1.7,0-2.9,0.1-3.3h-0.2c-1,0.6-1.8,0.9-2.6,1.3
	v0.6c0.1-0.1,0.4-0.2,0.7-0.2c0.4,0,0.6,0.3,0.6,0.9v9.3c0,1.2-0.5,1.5-1.1,1.5h-0.3C48.9,108.6,48.9,109.2,48.9,109.2z M47.6,101.5
	c-0.5-0.1-1.2-0.3-2.1-0.3c-2,0-2.7,1.3-2.7,2.2c0,1.2,0.9,1.7,1.4,1.9l1.3,0.7c0.6,0.3,1.2,0.6,1.2,1.4c0,1-0.8,1.3-1.7,1.3
	c-1.1,0-1.8-0.7-1.9-1.9h-0.5c0,0.3,0.1,0.6,0.1,1s0,0.7-0.1,1c0.6,0.2,1.4,0.5,2.4,0.5c1.9,0,2.8-1.1,2.8-2.4s-1.1-1.8-1.6-2.1
	l-1-0.4c-0.7-0.3-1.3-0.7-1.3-1.4c0-0.5,0.4-1.2,1.5-1.2c1.4,0,1.7,0.9,1.9,1.6h0.3L47.6,101.5z M35.4,104c0-0.6,0.6-2.2,2.2-2.2
	c0.5,0,2.1,0.3,2.1,2.2H35.4z M41.1,107.8c-0.4,0.3-1.2,0.7-2.4,0.7c-2.2,0-3.1-1.7-3.2-4h5.7v-0.2c0-1.9-1.2-3.2-3.4-3.2
	c-2,0-3.8,1.9-3.8,4c0,1.9,1.3,4.1,4.1,4.1c1.3,0,2.3-0.5,3-0.9C41.1,108.3,41.1,107.8,41.1,107.8z M25.1,101.8c0.8,0,1,0.4,1.3,1.1
	l2.4,5.8c0.1,0.2,0.1,0.4,0.2,0.6h0.5l2.5-6.2c0.4-1,0.8-1.2,1.3-1.2h0.2v-0.5c-0.4,0-1.1,0.1-1.6,0.1c-0.4,0-0.8,0-1.2-0.1v0.5h0.1
	c0.4,0,0.8,0.1,0.8,0.6c0,0.3-0.3,1.1-0.4,1.4l-1.4,3.7l-1.8-4.5c0-0.1-0.2-0.6-0.2-0.8c0-0.3,0.2-0.4,0.6-0.4h0.2v-0.5
	c-0.5,0-1,0.1-1.7,0.1s-1.2,0-1.6-0.1v0.4H25.1z M15,109.2c0.6,0,2.1-0.1,4.3-0.1c1.9,0,3.8,0,4.8,0.1c0.1-1.1,0.2-2.1,0.3-3.2h-0.5
	c-0.3,1.9-1,2.5-4,2.5h-0.5c-1.1,0-1.5-0.3-1.5-1.3V103h1.7c2,0,2,0.4,2.1,1.2h0.6c0-0.3,0-0.9,0-1.6c0-0.8,0-1.3,0-1.7h-0.5
	c0,1-0.1,1.4-2.2,1.4h-1.5v-4.9h1.7c3.1,0,3.2,1.1,3.4,2.3h0.5c-0.1-0.9-0.1-1.9-0.2-3c-1.2,0-2,0.1-4.1,0.1c-1.7,0-3.7,0-4.3-0.1
	v0.5h0.2c0.8,0,1.2,0.3,1.2,1.4v8.5c0,1.1-0.3,1.4-1.2,1.4H15V109.2z"/>
<path class="st0" d="M77,85.3c-0.1,0-0.1-0.1-0.1-0.2C76.9,85.2,77,85.2,77,85.3 M84.5,77.8c0,0.8-0.1,1.4-0.3,2s-0.4,1.2-0.6,1.8
	c-0.1,0.2-0.1,0.4-0.1,0.4s0,0,0.1-0.1l-0.2,0.3c-0.1,0.1-0.1,0.2-0.2,0.3c0,0.1-0.1,0.1-0.2,0.1c-0.1,0.1-0.1,0.2,0,0.2
	c-0.3,0.3-0.6,0.6-1,0.9s-0.8,0.6-1.2,0.7c-0.1,0.1-0.3,0.1-0.5,0.1s-0.3,0-0.4-0.1c-0.1,0.1-0.1,0.1-0.2,0c-0.1,0-0.1-0.1-0.3-0.1
	v-0.1v-0.1c-0.1,0.1-0.1,0.1-0.1,0s0,0-0.1,0c0,0.1,0,0.1,0.1,0.1s0.1,0,0,0.1c-0.1,0-0.1,0-0.2,0c-0.1,0-0.1,0-0.1-0.1v0.1
	c-0.1-0.1-0.1-0.1-0.2-0.1c-0.1,0-0.2,0-0.3-0.1c0.1-0.3,0.1-0.5,0.1-0.7s0-0.4,0-0.6c0-0.1,0-0.1,0-0.1s0-0.1,0-0.2l0,0v0.1
	c0-0.2,0-0.3,0-0.4c0-0.2,0-0.3,0-0.3V82c0,0.1,0,0.1,0,0.2c0,0,0.1,0,0.2-0.2c0.1-0.1,0.2-0.3,0.3-0.4s0.2-0.2,0.4-0.4
	c0.1-0.1,0.2-0.2,0.3-0.3c0.1-0.1,0.2-0.2,0.3-0.3h0.1c0-0.1,0.1-0.1,0.1-0.1c0.1-0.1,0.3-0.3,0.5-0.5s0.4-0.4,0.7-0.6
	c0.1-0.1,0.3-0.2,0.4-0.3c0.1-0.1,0.3-0.2,0.4-0.3h0.1c0.2-0.1,0.4-0.2,0.6-0.4c0.2-0.1,0.4-0.2,0.6-0.4v-0.1
	c0.1-0.1,0.3-0.1,0.4-0.2c0.1-0.1,0.3-0.2,0.5-0.3c0,0.1,0,0.1,0,0.2C84.6,77.7,84.6,77.8,84.5,77.8L84.5,77.8z M94.7,70.3
	c0.1,0,0.2,0,0.1-0.1c-0.2,0.3-0.7,0.7-1.3,1.1s-1.3,0.8-2,1.2c-0.7,0.4-1.4,0.7-2.1,1c-0.7,0.3-1.2,0.5-1.5,0.5
	c-0.1-0.2-0.2-0.5-0.3-0.7s-0.1-0.5-0.2-0.7c-0.2-0.6-0.4-1.3-0.6-2c-0.2-0.7-0.4-1.4-0.6-2c-0.1-0.1-0.1-0.1-0.1-0.2v-0.2
	C86,68.1,86,68,86,67.8c0-0.1,0-0.2,0-0.4c0-0.1,0-0.3-0.1-0.5c0-0.2,0-0.3,0-0.5c-0.1-0.3-0.1-0.5-0.1-0.8
	c-0.1-0.1-0.2-0.3-0.3-0.4s-0.1-0.4-0.1-0.7c-0.2-0.2-0.4-0.3-0.7-0.1c-0.1,0-0.1,0-0.2-0.1c0-0.1-0.1-0.1-0.2-0.2
	c0,0.1,0,0.1-0.1,0.1c0,0-0.1-0.1-0.2,0c-0.1-0.1-0.2-0.1-0.3-0.1s-0.2,0-0.3,0c-0.1,0.1-0.3,0.2-0.4,0.3c-0.1,0.1-0.2,0.2-0.3,0.2
	c-0.2,0.3-0.3,0.5-0.4,0.7c0,0.1-0.1,0.3-0.1,0.4s-0.1,0.2-0.1,0.3c-0.1,0.2-0.1,0.5,0.1,0.9c0.2,0.3,0.3,0.7,0.5,1
	c0.2,0.4,0.3,0.7,0.5,1c0.1,0.3,0.1,0.5-0.1,0.6c-0.1,0.1-0.1,0.2-0.3,0.4s-0.2,0.4-0.4,0.5c-0.1,0.2-0.3,0.3-0.4,0.5
	c-0.1,0.1-0.2,0.2-0.3,0.3c-0.2,0.3-0.4,0.5-0.4,0.6c-0.1,0.1-0.2,0.3-0.2,0.4c-0.1,0.1-0.2,0.3-0.3,0.4s-0.3,0.4-0.5,0.6
	S80,73.6,80,73.7s-0.2,0.3-0.4,0.6c0,0-0.1,0.1-0.2,0.2c-0.1,0.1-0.2,0.3-0.4,0.4c-0.1,0.2-0.3,0.3-0.4,0.4
	c-0.1,0.1-0.2,0.2-0.2,0.2c-0.1,0.1-0.3,0.3-0.4,0.4c-0.1,0.1-0.2,0.2-0.3,0.4c-0.1,0.3-0.4,0.6-0.8,0.8c-0.4,0.2-0.7,0.5-0.7,0.7
	c0.1,0,0.2,0,0.3,0c0.1,0.1,0.3,0.1,0.4,0c0,0.1,0,0,0.1,0c0-0.1,0.1-0.1,0.2-0.1c0.1,0.1,0.1,0.1,0.2,0.1s0.1,0,0,0.1
	c0,0.1,0,0.1-0.1,0.1s-0.1,0,0,0c0,0.1,0,0.1,0,0.1c-0.1,0-0.1,0.1,0,0.1c0.1-0.1,0.1-0.1,0.3-0.2c0.1-0.1,0.2-0.1,0.2-0.1
	c0.1-0.1,0.1-0.1,0.1,0s0,0.1,0,0c0.1,0,0,0.1-0.1,0.1s-0.1,0,0,0c0,0,0,0.1,0.1,0.1c0.1-0.2,0.3-0.3,0.4-0.4
	c0.1-0.1,0.2-0.2,0.3-0.2c0.1-0.1,0.1-0.1,0.2-0.1c0.2-0.1,0.4-0.1,0.6-0.2c0.2-0.1,0.3-0.2,0.3-0.4c0,0,0,0,0.1-0.1
	s0.2-0.2,0.4-0.4c0.1-0.1,0.3-0.3,0.6-0.5c0.2-0.2,0.4-0.4,0.5-0.6s0.3-0.3,0.5-0.5c0,0,0.1-0.1,0.2-0.2c0.1-0.1,0.2-0.3,0.4-0.5
	c0.1-0.2,0.2-0.3,0.4-0.5c0.1-0.1,0.2-0.2,0.2-0.3c0.1,0,0.2-0.1,0.4-0.4s0.3-0.5,0.4-0.7c0-0.1,0.1-0.1,0.1,0s0.1,0.2,0.1,0.4
	c0,0.2,0,0.4,0,0.5c0,0.2,0,0.3,0,0.4c0,0,0.1,0,0.2,0c0,0.3,0.1,0.5,0.1,0.7c0.1,0.2,0.1,0.4,0.2,0.5c0,0.2,0.1,0.4,0.1,0.6
	s0.1,0.5,0.1,0.8c-1.2,0.7-2.4,1.4-3.6,2.2C79.9,79,78.9,79.9,78,81v0.2c-0.1,0-0.2,0.2-0.4,0.4c-0.1,0.2-0.2,0.5-0.4,0.8
	C77.1,82.7,77,83,77,83.3c-0.1,0.3-0.1,0.6-0.1,0.9c-0.1,0.1-0.1,0.1-0.1,0.2s0,0.1,0.1,0.1v-0.1c0,0,0,0,0-0.1c0,0.1,0,0.1,0,0.2
	s0.1,0.2,0.1,0.2c0,0.1-0.1,0.1-0.1,0.1s0,0,0,0.1S77,85,77,85s0,0,0,0.1c0.1,0.1,0.2,0.2,0.4,0.4c0.1,0.1,0.2,0.1,0.3,0.2
	s0.1,0.1,0.3,0.2c0.2,0.5,0.5,0.8,1,1c0.1,0.1,0.3,0.1,0.4,0.1c0.1,0,0.3,0.1,0.5,0.1v0.2h-0.1c0.1,0,0.1,0.1,0.1,0.2s0,0.2,0.1,0.2
	c0.2,0,0.5-0.1,0.7-0.2c0.3-0.1,0.5-0.2,0.7-0.2c0.1,0,0.1,0,0.1,0.1s0,0.1,0.1,0.1s0.1,0,0.1-0.1s0.1-0.1,0.2-0.1
	c0,0.1,0.1,0.2,0.1,0.3c0.2-0.1,0.4-0.2,0.5-0.4c0.1,0,0.1,0,0.1,0.1v0.1c0.1-0.1,0.1-0.1,0.3-0.1c0.1-0.2,0.2-0.3,0.5-0.4
	c0.1-0.1,0.1-0.2,0.2-0.3c0.1-0.1,0.1-0.1,0.2-0.2c0.1,0,0.1,0,0.1,0s0,0,0.1,0c0.1-0.1,0.1-0.2,0.2-0.2c0.1,0,0.2,0,0.3-0.1
	s0.1-0.2,0.2-0.3c0.1-0.1,0.1-0.2,0.2-0.3l0,0l0,0c0.1-0.1,0.1-0.1,0.1-0.2s0.1-0.2,0.2-0.3c0-0.1,0.1-0.1,0.1-0.1
	c0.1,0,0.1,0,0.1,0c0.1-0.1,0.1-0.2,0.2-0.3c0-0.1,0.1-0.1,0.2,0c0,0.1,0,0.2,0,0.2s0,0,0,0.1c0,0,0-0.1,0-0.2
	c0.1-0.1,0.3-0.2,0.4-0.3c0.1-0.1,0.2-0.2,0.2-0.3c0.1,0.1,0.1,0.1,0.1,0c0-0.2,0.1-0.2,0.2-0.2c0.1,0,0.1,0,0,0.1v0.1
	c0.1-0.1,0.1-0.3,0.2-0.4c0-0.2,0.1-0.3,0.2-0.3c0.1-0.1,0.1-0.2,0-0.3c0.1,0.1,0.2,0,0.2-0.1s0.1-0.2,0.2-0.2v0.1c0,0,0,0,0,0.1
	c0.1-0.1,0.2-0.2,0.3-0.4c0.1-0.2,0.2-0.4,0.2-0.6s0.1-0.4,0.1-0.6s0.1-0.3,0.1-0.4c0.2-0.8,0.4-1.6,0.4-2.5s0-1.7-0.1-2.5
	c0.4-0.1,1-0.3,1.8-0.7c0.7-0.4,1.5-0.7,2.2-1.1s1.4-0.8,1.9-1.2c0.5-0.4,0.8-0.6,0.7-0.8c0.1-0.1,0.1-0.1,0.3-0.1
	c0,0,0-0.1,0.1-0.1s0.1-0.1,0.1-0.1c-0.1,0-0.1,0-0.1,0s0,0,0.1,0h0.1c0,0,0,0-0.1,0C95.4,72,95.2,72,95.2,72l0,0l0,0
	c0,0-0.1,0-0.4,0.1c-0.1,0-0.1-0.1-0.1-0.2c0.1-0.1,0.3-0.1,0.5-0.2s0.4-0.2,0.5-0.2c0.2-0.1,0.2-0.1,0.2-0.1s-0.1,0-0.1,0.1
	s-0.1,0.1-0.1,0.1s0,0,0.2,0c0.1,0,0.2-0.1,0.2-0.1l0,0l0,0c0,0,0,0,0.2-0.1c-0.1,0-0.2,0-0.3,0.1c-0.1,0-0.2,0-0.2,0
	c0.1-0.1,0.2-0.2,0.4-0.2s0.3,0,0.4-0.2c0-0.1,0-0.2,0.1-0.2c0,0,0.1-0.1,0.2-0.2c0-0.1-0.1-0.1-0.1-0.2c0.1-0.1,0.2-0.1,0.3,0
	c0-0.1,0-0.1-0.1-0.1h-0.2c-0.2,0-0.4,0.1-0.6,0.1s-0.4,0.1-0.6,0.1c0-0.1,0-0.1-0.1-0.1s-0.1,0-0.1-0.1c0.1,0,0.1-0.1,0.2-0.2
	C94.9,70.3,94.8,70.3,94.7,70.3c0,0.1-0.1,0.1-0.2,0.1C94.4,70.3,94.5,70.3,94.7,70.3 M65.8,65c-0.1,0-0.2,0-0.2,0s-0.1,0-0.1,0.1
	c-0.1,0.1-0.2,0.1-0.4,0.2c-0.1,0.1-0.1,0.3-0.2,0.4s-0.1,0.3-0.2,0.4c0,0.1-0.1,0.1-0.1,0.2s-0.1,0.1-0.1,0.2
	c-0.1,0.1-0.1,0.1-0.1,0.2s0,0.2-0.1,0.2c-0.1,0.1-0.1,0.3-0.1,0.5s0,0.4-0.1,0.5c0,0.1-0.1,0.3-0.1,0.5s-0.1,0.3-0.1,0.5
	c-0.2,0.9-0.5,1.9-0.7,2.8s-0.4,1.9-0.6,2.9c-0.1,0.2-0.1,0.4-0.1,0.5c0,0.3,0,0.5-0.1,0.8c-0.1,0.2-0.1,0.5-0.2,0.7
	c-0.1,0.3-0.1,0.6-0.2,1c-0.1,0.3-0.1,0.6-0.2,1c-0.1,0.3-0.1,0.7-0.2,1c-0.1,0.4-0.1,0.7-0.1,1.1v0.5c0,0.3,0,0.6,0.1,0.9
	c0.1,0.1,0.1,0.2,0.2,0.3c0,0.1,0.1,0.2,0.3,0.3v-0.1v-0.1c0,0,0,0,0,0.1s0,0.1,0,0.1l0,0l0,0l0.3,0.1c0-0.1,0.1-0.1,0.1,0
	c0.1,0,0.1,0,0.2,0l0,0c0.1-0.1,0.2-0.1,0.2-0.2c0.1-0.1,0.1-0.1,0.3-0.2l0,0l0,0c0.1,0,0.1,0,0.1,0h0.1c0-0.1,0-0.2,0-0.3
	c0-0.1,0-0.2,0.1-0.3c0.1-0.1,0.1-0.2,0.1-0.1l0,0c0-0.1,0-0.1,0.1-0.1c0,0.1,0,0.1,0,0.2s0,0.1,0,0.2l0.1-0.3l0,0l0,0l0.1-0.1
	c0,0,0.1-0.1,0-0.2v0.1l0,0v-0.1v-0.1c0.1,0,0.1,0.1,0.1,0.1v0.1c0,0,0,0,0.1-0.1v-0.3l0.1-0.1v-0.3h0.1h0.1
	c0.1-0.4,0.3-0.8,0.5-1.1c0.1-0.1,0.1-0.1,0.1-0.1v-0.2l0.1-0.2c0,0,0-0.1,0.1-0.1c0-0.1,0-0.2,0-0.4c0.1-0.2,0.3-0.4,0.4-0.5
	c0.1-0.2,0.2-0.4,0.4-0.6l0.1-0.1c0,0,0-0.1,0.1-0.1l0,0l0.4-0.5c0.1-0.2,0.2-0.4,0.3-0.7l0,0L67,76c0.2-0.4,0.4-0.7,0.7-1
	c0.3-0.3,0.5-0.6,0.7-1l0,0c0.1-0.1,0.1-0.1,0.1-0.2s0.1-0.1,0.2-0.2c0.1-0.2,0.3-0.4,0.4-0.6s0.3-0.4,0.4-0.6
	c0.1-0.1,0.3-0.3,0.4-0.6c0.1-0.2,0.3-0.4,0.5-0.5c0.2-0.2,0.4-0.3,0.5-0.5c0.1-0.1,0.2-0.1,0.3-0.2c0.1-0.1,0.2-0.2,0.3-0.3
	c0.2-0.1,0.3-0.3,0.5-0.5c0.1-0.2,0.3-0.4,0.5-0.6c0.2-0.1,0.4-0.1,0.6-0.2s0.4-0.2,0.6-0.2c-0.1,0.3-0.2,0.5-0.3,0.8
	c-0.1,0.2-0.2,0.5-0.3,0.8s-0.2,0.5-0.2,0.8c-0.1,0.3-0.1,0.6-0.2,0.9c-0.2,0.5-0.4,1-0.6,1.5c-0.2,0.5-0.4,1-0.6,1.5
	c-0.1,0.2-0.2,0.5-0.3,0.8c-0.1,0.3-0.2,0.5-0.2,0.8l-0.1,0.9c-0.1,0.4-0.2,0.9-0.4,1.2c-0.2,0.4-0.2,0.8-0.2,1.3c0,0.2,0,0.3,0,0.5
	c0,0.1,0.1,0.3,0.1,0.4s0.1,0.1,0.1,0.2s0,0.2,0.1,0.2c0,0.1,0,0.1,0,0.2s0.1,0.1,0.1,0.2c0.3,0.3,0.7,0.5,1.2,0.8
	c0.1,0,0.3,0,0.5,0s0.3,0,0.5,0.1c0.3,0,0.6,0,0.9-0.1c0.2-0.1,0.4-0.1,0.6-0.2c0.2-0.1,0.4-0.1,0.6-0.2c0.2-0.1,0.3-0.1,0.4-0.1
	h0.1l0,0l0,0h0.1c0,0,0,0,0.1,0c0.1-0.1,0.2-0.1,0.2-0.2c0.1-0.1,0.2-0.2,0.4-0.2c0.3-0.2,0.5-0.4,0.6-0.4s0.2-0.2,0.5-0.5
	c0-0.1,0-0.1,0.1-0.2s0.2-0.1,0.3-0.2s0.2-0.1,0.3-0.2c0.3-0.2,0.6-0.5,0.9-0.7c0.3-0.2,0.6-0.4,0.9-0.7c0-0.1,0-0.1,0.1-0.2
	c0.1,0,0.1-0.1,0.1-0.2c-0.3,0.3-0.7,0.5-1,0.8s-0.7,0.5-1.1,0.7c0.1-0.1,0.2-0.3,0.4-0.4c0.1-0.1,0.2-0.2,0.4-0.3
	c0.1-0.1,0.1-0.1,0.1-0.1L79,79l0.1-0.1c0,0,0-0.1,0.1-0.1c0.2-0.2,0.4-0.3,0.5-0.4l0,0l0,0l0,0l0,0c0.1-0.1,0.2-0.3,0.4-0.4
	c0.1-0.1,0.2-0.3,0.4-0.4c0-0.1,0.1-0.2,0.1-0.3c0.1-0.1,0.1-0.2,0.1-0.3l0,0l0,0c-0.1,0-0.1,0-0.1,0h-0.1h-0.2
	c-0.1,0.1-0.2,0.1-0.3,0.2s-0.2,0.1-0.3,0.2c-0.1,0-0.1,0-0.1,0h-0.1c-0.1,0-0.1,0.1-0.1,0.1l-0.1,0.1c-0.1,0-0.1,0-0.2,0
	c0,0-0.1,0-0.1,0.1c-0.1,0.1-0.2,0.1-0.2,0.2c-0.1,0.1-0.2,0.1-0.2,0.2c-0.1,0.1-0.3,0.3-0.5,0.3c-0.2,0.1-0.4,0.2-0.5,0.2
	c-0.1-0.1-0.1-0.1-0.1-0.1c-0.1,0.1-0.2,0.1-0.2,0.2s-0.1,0.2-0.3,0.2c-0.1,0.1-0.2,0.2-0.3,0.2l-0.1,0.1c0,0-0.1,0-0.2,0.1
	c-0.1,0-0.2,0.1-0.3,0.2c-0.3,0.1-0.7,0.3-1,0.4s-0.7,0.2-1.2,0.2c-0.1-0.1-0.2-0.3-0.4-0.3c-0.2-0.1-0.3-0.2-0.3-0.5
	c0-0.1,0-0.2,0-0.2c0-0.1,0-0.2,0-0.2c0-0.2,0.1-0.5,0.1-0.7s0.1-0.4,0.1-0.5s0-0.1,0.1-0.2c0-0.1,0.1-0.1,0.1-0.2s0-0.2,0.1-0.3
	c0-0.2,0.1-0.3,0.2-0.5l0,0c0.2-0.4,0.4-0.8,0.5-1.3c0.2-0.4,0.3-0.9,0.5-1.3c0.1-0.2,0.2-0.5,0.2-0.7c0.1-0.2,0.2-0.4,0.2-0.6
	c0.1-0.3,0.2-0.5,0.3-0.6c0-0.1,0.1-0.1,0.1-0.2s0-0.1,0.1-0.2c0-0.1,0-0.1,0-0.2s0-0.1,0-0.2c0,0,0,0,0-0.1c0,0,0,0,0-0.1
	s0-0.2,0-0.2c0-0.1,0-0.1,0-0.2s0-0.1,0-0.2l0.1-0.2c0-0.1,0-0.1,0-0.2s0-0.1,0-0.2c0.1-0.6,0.2-1.3,0.3-1.9v-0.4
	c0.1-0.1,0.1-0.2,0.1-0.4c0-0.1,0-0.1-0.1-0.2c-0.1,0-0.1-0.1-0.1-0.2c0,0,0,0,0-0.1s0-0.1,0-0.2s0-0.2,0-0.2c0-0.3-0.2-0.4-0.4-0.5
	c-0.3-0.2-0.6-0.2-1.1-0.2c-0.4,0-0.7,0.1-1,0.3c-0.3,0.1-0.6,0.3-0.8,0.4c-0.1,0.1-0.1,0.1-0.2,0.1c-0.1,0-0.1,0.1-0.2,0.1
	c-0.1,0.1-0.1,0.1-0.2,0.1s-0.1,0.1-0.2,0.1c-0.3,0.3-0.6,0.6-0.9,0.9s-0.6,0.6-0.9,0.9c0,0.1-0.1,0.1-0.1,0.2
	c-0.1,0-0.1,0.1-0.1,0.1s-0.1,0-0.1,0.1c-0.2,0.1-0.4,0.3-0.4,0.4c-0.1,0.1-0.2,0.3-0.2,0.4c-0.1,0.1-0.2,0.2-0.3,0.3
	c-0.1,0.1-0.2,0.2-0.3,0.3c-0.1,0.1-0.2,0.2-0.3,0.3c-0.1,0.1-0.2,0.2-0.2,0.4c-0.1,0.1-0.2,0.2-0.3,0.4c0-0.1,0-0.2,0-0.3
	c0-0.1,0-0.2,0-0.3c0-0.1,0-0.1,0-0.1v-0.1c0-0.2,0-0.5,0.1-0.7c0-0.2,0-0.4,0.1-0.7v-0.3v-0.6c0-0.3,0-0.6,0-0.7c0-0.2,0-0.3,0-0.4
	C68,67,68,67,68,66.9s0-0.1,0-0.1v-0.1c-0.1-0.1-0.1-0.1-0.1-0.2s-0.1-0.2-0.1-0.2c-0.1-0.2-0.1-0.4-0.2-0.5
	c-0.1-0.2-0.2-0.4-0.4-0.4c-0.1-0.1-0.1-0.1-0.2-0.1s-0.1,0-0.2,0s-0.1,0-0.2,0s-0.3,0-0.4,0h-0.3C66,65,65.9,65,65.8,65 M52.1,81.4
	L52.1,81.4C52.1,81.5,52.1,81.5,52.1,81.4 M56.3,66.3c-0.1,0.1-0.2,0.1-0.4,0.2h-0.1h-0.1l0,0v0.1h-0.1h-0.1
	c-0.1,0.1-0.2,0.1-0.3,0.3C55.1,67,55,67.1,55,67.2l-0.1,0.1c0,0.1,0,0.1,0,0.2c-0.2,0.6-0.4,1.3-0.6,1.8c-0.2,0.6-0.4,1.2-0.7,1.8
	c-0.1,0.2-0.1,0.3-0.1,0.4s-0.1,0.3-0.1,0.4s-0.1,0.2-0.1,0.4c-0.1,0.1-0.1,0.2-0.1,0.3s-0.1,0.2-0.1,0.4c-0.1,0.4-0.2,0.7-0.3,1.1
	c-0.1,0.4-0.2,0.8-0.3,1.2c0,0.1,0,0.3,0,0.4v0.4c0,0.3,0,0.6,0,0.8c0,0.3-0.1,0.5-0.1,0.8c-0.1,0.3-0.1,0.6-0.1,0.9
	s-0.1,0.6-0.1,0.9V80c0,0.1,0,0.2,0,0.4c0,0.1,0,0.2,0,0.4c0,0.1,0,0.2,0,0.4s0,0.2,0.1,0.3c0.1,0.2,0.2,0.4,0.3,0.5
	c0.1,0.1,0.2,0.3,0.3,0.5c0,0.1,0,0.1,0,0.1v0.1c0.1,0.2,0.2,0.4,0.3,0.5c0.1,0.1,0.1,0.1,0.2,0.2c0,0,0.1,0.1,0.2,0.2
	s0.3,0.2,0.6,0.3h0.2c0.3,0,0.5-0.1,0.8-0.2c0.1,0,0.1,0,0.1,0l0,0c0,0,0,0,0.1,0c0.2-0.1,0.3-0.2,0.4-0.2H56l0.1-0.1
	c0,0,0.1-0.1,0.2-0.1c0.6-0.4,1.1-0.7,1.5-1.1c0.5-0.4,0.9-0.8,1.4-1.2c0.1-0.1,0.2-0.2,0.3-0.2c0.1-0.1,0.2-0.1,0.3-0.2
	c0.1-0.1,0.1-0.1,0.1-0.1l0.1-0.1c0.1,0,0.2-0.1,0.3-0.2l0.1-0.1c0.1-0.1,0.1-0.1,0.2-0.3c0.1-0.1,0.3-0.1,0.4-0.2s0.2-0.2,0.3-0.3
	v-0.1c0,0,0,0,0-0.1c0.2-0.3,0.4-0.5,0.7-0.7c0.1-0.1,0.1-0.1,0.2-0.2s0.2-0.2,0.2-0.2c0.1-0.1,0.3-0.3,0.4-0.5s0.2-0.4,0.4-0.5
	c0,0,0.1-0.1,0.2-0.3c0.1-0.1,0.1-0.2,0.2-0.3c0.1-0.1,0.1-0.2,0.2-0.3c0,0,0-0.1,0.1-0.1c0.1-0.1,0.1-0.2,0.1-0.1
	c0-0.1,0-0.2,0-0.2c0-0.1,0-0.1,0-0.2v-0.1c0,0,0,0,0-0.1c0.2-0.3,0.4-0.5,0.6-0.7c-0.1-0.1-0.1-0.2,0-0.2c0-0.1,0.1-0.1,0.1-0.2
	c-0.2,0-0.4,0-0.5,0.1s-0.3,0.1-0.4,0.2h-0.5c-0.1,0-0.1,0-0.2,0c0,0-0.1,0.1-0.2,0.1c-0.2,0.2-0.5,0.4-0.7,0.7
	c-0.2,0.2-0.4,0.4-0.7,0.6c-0.1,0-0.1,0.1-0.3,0.2c-0.2,0.1-0.3,0.2-0.5,0.4c-0.2,0.1-0.3,0.2-0.5,0.4c-0.1,0.1-0.3,0.2-0.4,0.3
	c-0.1,0.1-0.2,0.2-0.4,0.3l-0.2,0.2c-0.3,0.3-0.6,0.6-0.8,0.7c-0.2,0.1-0.5,0.4-0.8,0.6c-0.1,0.1-0.2,0.2-0.5,0.4
	c-0.1,0.1-0.1,0.1-0.2,0.2s-0.2,0.2-0.2,0.2c-0.1,0.1-0.3,0.2-0.4,0.3c-0.1,0.1-0.3,0.2-0.5,0.2c-0.1,0.1-0.1,0.1-0.1,0.1h-0.3h-0.3
	c-0.1-0.4,0-0.7,0.2-0.9c0.2-0.2,0.3-0.5,0.4-0.8c0-0.1,0-0.1,0-0.2s0-0.1,0-0.2s0-0.1,0-0.1v-0.1c0.1-0.6,0.3-1.1,0.5-1.4
	c0.2-0.4,0.4-0.8,0.6-1.3c0.1-0.3,0.2-0.5,0.3-0.8c0.1-0.3,0.2-0.6,0.2-0.9c0-0.1,0.1-0.1,0.1-0.2s0-0.2,0.1-0.2
	c0-0.1,0.1-0.1,0.1-0.2s0-0.2,0-0.2c0-0.1,0.1-0.3,0.1-0.4s0.1-0.2,0.1-0.3c0,0,0-0.1,0.1-0.2c0-0.1,0-0.2,0-0.2
	c0-0.1,0.1-0.2,0.1-0.3s0.1-0.2,0.1-0.3v-0.1V71v-0.1v-0.1c0,0,0,0,0-0.1s0-0.1,0-0.1v-0.1l0,0v-0.1c0,0,0-0.1,0.1-0.1v-0.1
	c0,0,0,0,0-0.1s0-0.1,0-0.2v-0.3c0-0.5-0.1-0.9-0.3-1.1c0,0,0-0.1-0.1-0.2c0-0.1,0-0.1,0-0.2s0-0.2,0-0.3c0-0.2-0.1-0.3-0.1-0.5
	c0-0.1-0.1-0.3-0.2-0.4s-0.3-0.2-0.4-0.3c-0.1,0-0.2,0-0.3,0c-0.1,0-0.2,0-0.4-0.1h-0.3C56.5,66.2,56.4,66.3,56.3,66.3 M58.2,64.7
	C58.2,64.6,58.2,64.6,58.2,64.7c0.2-0.1,0.3-0.2,0.3-0.2c0.1,0,0.1-0.1,0.2-0.1c0.1-0.1,0.3-0.1,0.4-0.2c0.2-0.1,0.3-0.2,0.3-0.3
	c0.1-0.3,0.2-0.6,0.3-0.9c0.1-0.3,0.2-0.7,0.2-1.2s-0.1-0.8-0.2-1.1c-0.1-0.1-0.3-0.3-0.4-0.4S59,60.1,58.8,60
	c-0.2,0.1-0.4,0.1-0.5,0.1c-0.2,0-0.4,0.1-0.6,0.1c0,0.1,0,0.2-0.1,0.2c-0.4,0.2-0.8,0.5-1.1,1c-0.3,0.4-0.4,0.9-0.4,1.4
	c0,0.2,0,0.3,0.1,0.4s0.1,0.3,0.2,0.4c0,0.2,0.1,0.4,0.2,0.5s0.1,0.2,0.2,0.4H57c0.1-0.1,0.1-0.1,0.1-0.2s0.1-0.1,0.2-0.1
	c0.1,0.1,0.1,0.1,0.1,0.2s0,0.2,0.1,0.3c0.1,0,0.1-0.1,0.1-0.2s0.1-0.2,0.2-0.2s0.2,0.1,0.3,0.2c0,0.1,0.1,0.2,0.3,0.2
	C58.2,64.8,58.2,64.7,58.2,64.7 M42.5,79.8L42.5,79.8C42.6,79.8,42.6,79.9,42.5,79.8C42.5,79.9,42.5,79.9,42.5,79.8L42.5,79.8z
	 M28.2,79.3L28.2,79.3C28.3,79.3,28.3,79.4,28.2,79.3C28.3,79.4,28.2,79.4,28.2,79.3C28.3,79.4,28.2,79.4,28.2,79.3 M28.4,79.4
	C28.4,79.4,28.3,79.3,28.4,79.4C28.4,79.3,28.4,79.3,28.4,79.4L28.4,79.4c0.1,0.1,0.1,0.1,0.1,0.2C28.5,79.6,28.4,79.5,28.4,79.4
	C28.4,79.5,28.4,79.5,28.4,79.4L28.4,79.4L28.4,79.4C28.5,79.4,28.4,79.4,28.4,79.4 M28.2,79.1C28.3,79.1,28.3,79.2,28.2,79.1
	c0,0.1,0,0.1,0,0.2l0,0V79.1z M28.6,79.2C28.6,79.2,28.5,79.2,28.6,79.2C28.5,79.2,28.5,79.2,28.6,79.2L28.6,79.2
	C28.5,79.2,28.5,79.2,28.6,79.2C28.5,79.2,28.6,79.2,28.6,79.2C28.6,79.1,28.6,79.1,28.6,79.2L28.6,79.2L28.6,79.2
	C28.6,79.2,28.6,79.3,28.6,79.2C28.6,79.3,28.6,79.3,28.6,79.2C28.6,79.3,28.6,79.3,28.6,79.2C28.5,79.3,28.5,79.3,28.6,79.2
	 M28.6,79C28.6,79,28.6,79.1,28.6,79C28.6,79.1,28.6,79.1,28.6,79C28.5,79.1,28.5,79.1,28.6,79C28.5,79.1,28.5,79,28.6,79
	 M28.5,78.9C28.5,78.9,28.6,78.9,28.5,78.9L28.5,78.9L28.5,78.9z M28.8,78.9c0-0.1,0.1-0.1,0.1-0.2C28.9,78.8,28.9,78.8,28.8,78.9
	C28.8,78.8,28.8,78.9,28.8,78.9C28.8,79,28.8,79,28.8,78.9C28.8,79,28.8,79,28.8,78.9C28.7,79,28.7,78.9,28.8,78.9 M28.8,78.8
	C28.8,78.8,28.8,78.7,28.8,78.8C28.8,78.7,28.8,78.7,28.8,78.8L28.8,78.8L28.8,78.8C28.7,78.8,28.8,78.8,28.8,78.8 M29.6,64.2
	c-0.2,0.2-0.5,0.4-0.7,0.5c0,0.1-0.1,0.2-0.2,0.3c0,0.1,0,0.1,0,0.1l-0.1,0.2v0.1c0,0.1-0.1,0.1-0.1,0.2c-0.1,0.2-0.2,0.5-0.3,0.7
	s-0.1,0.5-0.2,0.8c-0.2,1-0.4,1.9-0.6,2.9s-0.4,1.9-0.7,2.8c-0.1,0.6-0.3,1.2-0.4,1.8c-0.1,0.6-0.3,1.3-0.4,1.9
	c-0.1,0.7-0.2,1.4-0.2,2.1s-0.1,1.5-0.1,2.2l0,0v0.5c0,0.1,0,0.2,0,0.3v0.1c0,0.1,0,0.1,0,0.2s0,0.1,0,0.2c0.1,0.2,0.2,0.3,0.3,0.4
	l0,0c0.1,0,0.1-0.1,0-0.1c0,0,0,0,0-0.1c0.2-0.1,0.4-0.1,0.6-0.2s0.4-0.2,0.4-0.4c0.1,0,0.1-0.1,0.1-0.1l0.1-0.1
	c0.1-0.3,0.2-0.6,0.4-0.9l0.2-0.2h0.2c0.1-0.1,0.1-0.2,0.1-0.3c0-0.1,0.1-0.2,0.1-0.4l0,0l0,0c0-0.1,0.1-0.1,0.1-0.2
	s0.1-0.2,0.1-0.3c0.1,0,0.1,0,0.1,0s0,0,0.1,0c0-0.2,0-0.4,0.1-0.6c0.1-0.1,0.1-0.3,0.1-0.6c0.1,0,0.2,0,0.2,0c0,0.1,0,0.1,0,0.1
	s0,0,0,0.1v-0.1V78H29c0,0,0,0,0.1,0c0.1-0.1,0.2-0.4,0.2-0.6c0-0.3,0-0.5,0.1-0.6h0.1c0-0.1,0.1-0.3,0.1-0.4s0.1-0.3,0.2-0.4
	c0.1-0.4,0.3-0.7,0.5-1.1s0.3-0.7,0.4-1.1c0-0.1,0-0.2,0-0.3c0,0,0-0.1,0.1-0.1c0.1-0.1,0.1-0.3,0.2-0.5c0-0.2,0.1-0.3,0.2-0.4
	c0-0.1,0-0.1,0-0.1v-0.1c0.1-0.1,0.1-0.3,0.2-0.4s0.1-0.1,0.2-0.2c0,0,0.1-0.1,0.2-0.2l0.6-0.6c0.2-0.2,0.4-0.5,0.5-0.7
	c0.2-0.2,0.4-0.4,0.6-0.6s0.5-0.4,0.7-0.5c0.2-0.2,0.5-0.4,0.7-0.5c0.1-0.1,0.3-0.2,0.4-0.3c0.1-0.1,0.2-0.2,0.4-0.3
	c0.1-0.1,0.2-0.2,0.4-0.2c0.1-0.1,0.3-0.1,0.5-0.1c0.1,0.1,0.1,0.2,0,0.3c0,0.1-0.1,0.2,0,0.4c0,0.1,0,0.1,0,0.1v0.1
	c0,0.1,0,0.3,0,0.4s-0.1,0.2-0.1,0.4c0,0.1,0,0.2,0,0.3c0,0.1,0,0.2,0,0.3c0,0.1,0,0.2,0,0.2v0.2c-0.2,0.7-0.4,1.4-0.6,2
	c-0.2,0.7-0.4,1.3-0.6,2c0,0.1-0.1,0.2-0.1,0.3c0,0.1-0.1,0.2-0.1,0.3c0,0.1-0.1,0.2-0.1,0.2c0,0.1-0.1,0.1-0.1,0.2
	c0,0.2,0,0.5-0.1,0.7c-0.1,0.3,0,0.5,0.2,0.6h0.4l0.1-0.4c0.2-0.1,0.4-0.2,0.5-0.4c0.1-0.2,0.2-0.4,0.5-0.5
	c-0.1,0.1-0.1,0.2-0.2,0.3c-0.1,0.1-0.1,0.2-0.2,0.3c0.1,0,0.1,0,0.1-0.1s0.1-0.1,0.1-0.1c0-0.1,0.1-0.2,0.2-0.3
	c0.1-0.1,0.2-0.2,0.2-0.3c0.4-0.4,0.8-0.9,1.1-1.3c0.4-0.4,0.8-0.8,1.2-1.2c0.5-0.5,1-0.9,1.5-1.4s1-0.9,1.6-1.3
	c0.4-0.3,0.8-0.5,1.2-0.7c0.4-0.2,0.8-0.5,1.3-0.7c0,0.2-0.1,0.4-0.2,0.6s-0.2,0.3-0.2,0.5c-0.2,0.4-0.4,0.8-0.5,1.3
	c-0.2,0.4-0.3,0.9-0.5,1.3c-0.1,0.1-0.1,0.3-0.2,0.5s-0.2,0.4-0.2,0.5c0,0.2-0.1,0.4-0.2,0.6s-0.1,0.4-0.2,0.6
	c-0.1,0.5-0.2,1-0.3,1.5c-0.1,0.5-0.1,1.1-0.2,1.6h-0.1c0,0,0,0-0.1,0c0,0.1,0.1,0.3,0.1,0.4s0,0.3,0,0.5v0.1l0.1,0.1v0.4
	c0,0.2,0.1,0.4,0.2,0.5s0.2,0.3,0.2,0.4c0.1,0,0.1,0,0.1,0l0.1,0.1c0.1,0.2,0.2,0.4,0.4,0.5c0.1,0.2,0.3,0.3,0.5,0.4l0.2,0.1v0.1
	c0,0,0,0,0,0.1c0.1,0.1,0.3,0.2,0.4,0.3c0.2,0,0.3-0.1,0.5-0.2c0.1,0,0.1,0,0.1,0s0,0,0.1,0c0,0,0,0,0.1,0c0,0,0,0,0.1,0
	s0.1,0,0.1,0h0.1l0,0l0,0h0.1c0.1,0,0.2,0,0.3,0c0.1,0,0.2,0,0.3,0c0.3-0.1,0.6-0.1,0.9-0.2s0.5-0.2,0.8-0.2l0.1-0.2
	c0.1,0,0.2,0,0.3-0.1c0.1-0.1,0.1-0.2,0.2-0.2l0.1-0.1c0,0,0.1-0.1,0.2-0.1c0.3-0.2,0.6-0.4,0.9-0.6s0.6-0.5,0.8-0.8v-0.1
	c0.4-0.2,0.8-0.5,1.1-0.8c0.3-0.3,0.7-0.6,1-0.9l0.1-0.1v-0.1c0,0,0,0,0-0.1c0.1-0.1,0.1-0.1,0.1-0.2l0,0c-0.3,0.3-0.6,0.5-0.9,0.8
	s-0.6,0.5-0.9,0.7l0,0c0.2-0.2,0.5-0.5,0.8-0.7c0-0.2,0.1-0.3,0.2-0.4s0.2-0.2,0.4-0.3l0,0l0,0c0.1-0.1,0.2-0.3,0.4-0.4
	c0.1-0.1,0.2-0.3,0.4-0.4c0-0.1,0-0.2,0.1-0.2c0,0,0.1-0.1,0.1-0.2v0.4c-0.1-0.1-0.1-0.1-0.1-0.2c-0.1,0-0.2,0-0.4,0
	c-0.1,0-0.3,0.1-0.4,0.2s-0.2,0.2-0.3,0.2c-0.1,0-0.1,0-0.1,0h-0.1l-0.2,0.2c-0.1,0.1-0.1,0.1-0.1,0.1s-0.1,0-0.1,0.1
	c-0.1,0.1-0.3,0.3-0.4,0.4s-0.3,0.2-0.4,0.4c-0.1,0-0.1,0.1-0.1,0.1s-0.1,0-0.1,0.1c-0.1,0.1-0.2,0.1-0.3,0.1l0,0c0,0,0,0-0.1,0
	s-0.1,0-0.1,0.1s-0.1,0.1-0.1,0.1c-0.1,0.1-0.2,0.1-0.3,0.2c-0.4,0.4-0.8,0.7-1.3,1c-0.4,0.3-1,0.6-1.5,0.8v-0.1v-0.1v-0.1v-0.1
	c0-0.1,0-0.2,0-0.3c0-0.1,0-0.2,0-0.2c0-0.1,0-0.3,0-0.5c0-0.1,0-0.2,0-0.5c0-0.1,0-0.1,0-0.2s0-0.1,0-0.2s0-0.3,0-0.5
	c0-0.1,0-0.3,0.1-0.4c0.1-0.5,0.3-1,0.5-1.6c0.2-0.5,0.3-1,0.6-1.5l0.1-0.4v-0.2c0-0.1,0-0.2,0.1-0.2c0.1-0.3,0.2-0.6,0.3-0.9
	c0.1-0.3,0.2-0.6,0.3-0.9c0-0.1,0-0.2,0-0.3c0-0.1,0-0.2,0.1-0.3c0-0.1,0.1-0.2,0.1-0.3c0-0.1,0-0.2,0-0.3c0-0.3,0.1-0.6,0.2-0.8
	c0-0.1,0-0.1,0-0.1v-0.1v-0.2c0-0.1,0-0.2,0-0.2c0-0.1,0-0.1,0-0.1s0,0,0-0.1s0-0.1,0-0.2s0-0.2,0-0.3c0,0,0-0.1,0-0.2
	c-0.1-0.1-0.1-0.3,0-0.6c0-0.1,0-0.3-0.1-0.4s-0.2-0.2-0.3-0.2c-0.1-0.1-0.3-0.1-0.4-0.2c-0.3-0.1-0.6-0.2-1-0.2
	c-0.1,0-0.3,0.1-0.4,0.1s-0.3,0.1-0.4,0.2c-0.4,0.1-0.6,0.2-0.8,0.3c-0.3,0.1-0.5,0.2-0.8,0.3c-0.3,0.1-0.5,0.2-0.7,0.3
	c-0.8,0.4-1.5,0.7-2.2,1.2c-0.7,0.4-1.3,0.9-2,1.4c-0.2,0.2-0.4,0.3-0.6,0.5s-0.4,0.3-0.6,0.5c-0.1,0.1-0.2,0.1-0.3,0.3
	c-0.1,0.1-0.3,0.3-0.4,0.4s-0.3,0.3-0.4,0.4c0.1-0.3,0.1-0.6,0.2-0.9s0.1-0.6,0.2-0.9s0.1-0.6,0.2-0.9s0.1-0.6,0-0.9
	c-0.1,0-0.1,0.1,0,0.2c0,0.1,0,0.1,0,0.2c-0.1,0-0.1-0.1,0-0.1s0-0.1,0-0.1c0-0.1,0-0.1-0.1-0.1s-0.1,0-0.1-0.1
	c-0.1-0.2-0.1-0.4-0.2-0.5c-0.1-0.2-0.2-0.3-0.2-0.6c-0.2-0.1-0.5-0.2-0.8-0.1s-0.5,0.2-0.7,0.2c-0.1,0.1-0.2,0.1-0.3,0.2
	c-0.1,0-0.2,0.1-0.3,0.2c-0.5,0.3-1,0.7-1.4,1c-0.4,0.4-0.9,0.7-1.3,1c0.1-0.3,0.1-0.7,0.2-1c0-0.4,0.1-0.8,0.1-1.2v-0.4
	c0-0.1,0-0.1,0-0.2s0-0.1,0-0.2s0-0.3,0-0.4s0-0.2-0.1-0.4c0-0.2,0-0.4-0.1-0.7c-0.1-0.3-0.4-0.5-0.8-0.7c-0.1,0-0.1,0-0.2,0
	l-0.1-0.1c0,0,0-0.1-0.1-0.1C31.5,64,31.5,64,31.4,64s-0.2,0-0.3-0.1c-0.1,0-0.1-0.1-0.2-0.1s-0.2,0-0.2,0h-0.3
	C30.2,63.9,29.9,64,29.6,64.2 M23.9,71.1c0-0.1,0.1-0.2,0.1-0.2c0.1,0.1,0,0.3-0.1,0.4C23.8,71.3,23.8,71.2,23.9,71.1 M12.9,71.8
	c-0.1-0.1-0.1-0.2-0.1-0.3c0-0.1,0-0.2,0-0.3l0,0h-0.1c0-0.1-0.1-0.3-0.2-0.4s-0.1-0.3-0.2-0.4h-0.1c-0.1-0.1-0.2-0.2-0.2-0.3
	c0-0.1-0.1-0.3-0.1-0.5c-0.1,0.1-0.1,0.1-0.2,0.1s-0.2,0-0.2-0.1v-0.2c-0.1,0-0.1,0-0.1-0.1s0-0.1,0-0.2c-0.1,0.1-0.1,0.2-0.1,0.4
	c0,0.1,0,0.2-0.1,0.3c-0.1,0.1-0.2,0.1-0.3,0c-0.1-0.1-0.2-0.2-0.2-0.3c-0.1,0.2-0.1,0.5-0.2,0.7c0,0.2-0.1,0.4-0.1,0.7
	c-0.1,0.4-0.1,0.8-0.1,1.2c0,0.4,0,0.8,0.1,1.2c0,0.4,0.1,0.8,0.1,1.1c0,0.4,0.1,0.7,0.2,1c0.1,1.1,0.4,2.2,0.6,3.3
	c0.3,1.1,0.6,2.1,1,3c0.1,0.1,0.2,0.1,0.2,0.2c0.1,0,0.2,0.1,0.2,0.2c0.1,0.1,0.1,0.2,0.1,0.2c0.1,0,0.1,0.1,0.1,0.1
	s0.1,0.1,0.1,0.2c0.1,0.1,0.3,0.3,0.5,0.4s0.4,0.2,0.6,0.3c0.2,0.1,0.4,0.1,0.5,0c0.1,0.1,0.2,0.1,0.2,0.1c0.1,0,0.2,0,0.3,0
	c0.1,0,0.2-0.1,0.4-0.1c0.1,0,0.3,0,0.4-0.1c0.1,0,0.2,0,0.2,0s0.1,0,0.2,0s0.1,0,0.1,0h0.1c0.1,0,0.2,0,0.2,0c0.1,0,0.2,0,0.2,0
	c0.3-0.2,0.6-0.3,0.9-0.5c0.3-0.1,0.6-0.3,0.8-0.6c0.1-0.1,0.3-0.2,0.4-0.3c0.1-0.1,0.2-0.2,0.4-0.3c0.1-0.1,0.1-0.1,0.1-0.1h0.1
	c0-0.1,0-0.1,0-0.1v-0.1c0.1-0.2,0.2-0.3,0.4-0.4c0.1-0.1,0.2-0.2,0.3-0.4c0.1-0.1,0.2-0.2,0.4-0.3c0.1-0.2,0.2-0.4,0.3-0.5
	c0.1-0.2,0.2-0.4,0.2-0.6c0.1-0.1,0.2-0.2,0.2-0.4c0-0.2,0.1-0.3,0.2-0.5l0,0c0,0-0.1,0,0,0c0.1-0.1,0.2-0.3,0.3-0.5
	c0.1-0.2,0.2-0.3,0.4-0.4c0-0.1,0-0.1,0.1-0.2c0-0.1,0.1-0.1,0.1-0.3c0.1,0,0.1,0,0.1,0h0.1c-0.1-0.2-0.1-0.4,0-0.5s0.2-0.2,0.2-0.4
	c0-0.1,0-0.2,0-0.3v-0.1c0,0,0,0,0-0.1c0.1-0.2,0.1-0.4,0-0.5c0-0.2,0-0.3,0-0.5c0.1,0,0.1,0,0,0c0-0.1,0-0.1,0-0.2c0,0,0-0.1,0-0.2
	c0.1-0.1,0.1-0.2,0.1-0.4c0.1-0.2,0.1-0.4,0.2-0.5c0.1-0.2,0.1-0.4,0.2-0.6V72c0-0.1,0-0.3,0.1-0.4c0-0.1,0-0.1,0,0l0,0
	c0.1-0.1,0.1-0.2,0.1-0.3c0-0.1,0.1-0.3,0.1-0.4c0,0,0,0-0.1,0c0,0-0.1,0,0,0c0-0.1,0-0.1,0.1-0.3c0-0.1,0-0.2,0-0.3
	c-0.1,0-0.1,0.1-0.1,0.2c0.1,0.1,0,0.1-0.1,0.1l0.1-0.2c0-0.5,0-1,0.1-1.6c0.1-0.5,0.1-1,0.1-1.6c-0.1-0.5-0.1-1-0.3-1.4
	c-0.1-0.5-0.3-0.9-0.4-1.3c-0.2-0.2-0.4-0.4-0.5-0.7c-0.1-0.1-0.2-0.2-0.3-0.3c-0.1-0.1-0.2-0.2-0.3-0.2c-0.2-0.1-0.4-0.1-0.5-0.2
	s-0.3-0.2-0.4-0.3c0.1-0.1,0.2-0.2,0.4-0.3c0.1-0.1,0.1-0.1,0.2-0.2c0,0,0.1-0.1,0.2-0.2s0.2-0.2,0.2-0.2c0.1-0.1,0.1-0.1,0.2-0.2
	l0.3-0.3c0.1-0.1,0.2-0.2,0.2-0.4c0.1-0.1,0.2-0.2,0.3-0.3c0.1-0.1,0.2-0.2,0.2-0.4c0.1-0.1,0.2-0.2,0.3-0.3
	c0.1-0.1,0.2-0.3,0.3-0.4v-0.1c0.1,0,0.1,0,0.1,0v-0.1c0.1-0.3,0.2-0.5,0.4-0.7s0.3-0.5,0.3-0.8c0.1-0.1,0.1-0.2,0.1-0.3
	c0-0.1,0-0.2,0-0.3c0.1,0,0.1,0,0.1-0.1c0.1-0.3,0.1-0.7,0.2-1c0.1-0.4,0.2-0.7,0.3-1c-0.1,0-0.1-0.1,0-0.1V55c0.1,0,0.1-0.1,0-0.1
	c0-0.1,0-0.1,0-0.1c0.1-0.5,0.1-1,0.2-1.4s0-0.9-0.1-1.4c-0.1-0.1-0.1-0.3-0.2-0.5s-0.1-0.3,0-0.5c-0.1-0.1-0.1-0.1-0.1-0.2
	s0-0.1-0.1-0.2s-0.2-0.3-0.3-0.5c-0.1-0.2-0.2-0.4-0.4-0.5c-0.1-0.3-0.4-0.6-0.6-0.8c-0.3-0.2-0.5-0.4-0.8-0.6
	c-0.4-0.2-0.8-0.3-1.2-0.4c-0.4-0.1-0.9-0.1-1.4,0c-0.4,0.1-0.8,0.3-1.3,0.5c-0.4,0.2-0.8,0.4-1.1,0.6c-0.1,0-0.2,0.1-0.3,0.2
	c-0.1,0.1-0.3,0.3-0.5,0.4s-0.3,0.2-0.4,0.4c-0.1,0.1-0.2,0.1-0.3,0.2c-0.1,0.1-0.1,0.1-0.2,0.2c-0.3,0.1-0.5,0.3-0.7,0.6
	c-0.2,0.2-0.5,0.5-0.7,0.7c-0.1,0.1-0.2,0.3-0.3,0.5c-0.1,0.2-0.2,0.3-0.4,0.4c-0.1,0.4-0.3,0.8-0.5,1.2c-0.2,0.4-0.4,0.8-0.4,1.3
	c-0.1,0.3,0,0.5,0.3,0.7c0.1,0.1,0.2,0.1,0.3,0.1c0.3,0,0.5-0.1,0.6-0.2c0.1-0.2,0.2-0.4,0.4-0.5c0-0.1,0.1-0.1,0.1-0.2l0.2-0.2
	c0.2-0.3,0.5-0.5,0.7-0.8c0.2-0.2,0.4-0.5,0.5-0.8c0.1-0.1,0.3-0.3,0.4-0.4s0.2-0.2,0.3-0.4c0.5-0.4,0.9-0.8,1.4-1.1
	c0.3-0.1,0.6-0.3,0.9-0.4s0.6-0.3,0.9-0.4h0.1c0,0,0,0,0.1,0c0.6-0.1,0.9,0,1.1,0.4c0.1,0.1,0.1,0.2,0.1,0.3v0.3c0,0.1,0,0.1,0,0.1
	v0.1c0,0.1,0,0.3,0,0.4s-0.1,0.3-0.1,0.4v0.2c0,0.1-0.1,0.1-0.1,0.1l-0.1,0.1c-0.1,0.1-0.1,0.2-0.1,0.4v0.4
	c-0.1,0.1-0.1,0.2-0.2,0.2c0,0.1-0.1,0.1,0,0.2c-0.1,0.2-0.2,0.4-0.3,0.7s-0.1,0.5-0.2,0.7v0.1c-0.1,0.1-0.1,0.1-0.1,0.2
	s0,0.2-0.1,0.3c-0.1,0.1-0.1,0.2-0.2,0.2c0,0.1,0,0.2,0,0.3c-0.1,0.1-0.1,0.1-0.2,0.2s-0.1,0.2,0,0.2c-0.1,0-0.1,0.1-0.2,0.3
	c-0.1,0.2-0.3,0.4-0.4,0.6c-0.2,0.2-0.3,0.4-0.5,0.6s-0.5,0.5-0.7,0.7s-0.4,0.5-0.7,0.7c-0.1,0.1-0.1,0.1-0.2,0.2s-0.2,0.1-0.2,0.2
	c-0.3,0.3-0.6,0.6-0.9,0.9s-0.6,0.6-0.9,0.8c-0.1,0.1-0.3,0.2-0.4,0.4c-0.1,0.1-0.2,0.2-0.4,0.3c-0.1,0.2-0.1,0.4-0.1,0.5
	c0,0.2-0.1,0.4-0.1,0.5c0.1,0.1,0.1,0.1,0.1,0.2s0,0.2,0,0.2c0,0.1,0,0.2,0.1,0.3c0.1,0.1,0.1,0.2,0,0.3c0.1,0.1,0.2,0.2,0.2,0.3
	c0,0.1,0.1,0.2,0.2,0.3c0.1,0.2,0.4,0.3,0.7,0.3c0.3,0,0.6,0.1,0.8,0.1c0.2-0.1,0.5-0.1,0.7-0.1s0.4-0.1,0.5-0.2s0.2-0.1,0.2-0.2
	c0.1,0,0.1-0.1,0.2-0.2c0.1,0,0.1-0.1,0.2-0.1c0.1-0.1,0.2-0.1,0.2-0.1c0.1,0,0.1-0.1,0.2-0.2s0.3-0.1,0.4-0.2s0.2-0.2,0.4-0.2
	c0.1,0.1,0.3,0.1,0.5,0.1s0.3,0,0.5,0.1c0.3,0.1,0.6,0.4,0.9,0.9c0.3,0.4,0.5,0.8,0.5,1.2c0.3,1.1,0.2,2.3-0.1,3.5
	c-0.1,0.3-0.2,0.6-0.2,0.8c-0.1,0.3-0.2,0.5-0.2,0.7c-0.3,0.9-0.7,1.6-1.1,2.3l0,0c0,0,0,0.1-0.1,0c-0.1,0.2-0.3,0.5-0.4,0.7
	s-0.3,0.4-0.5,0.6c-0.1,0.2-0.3,0.5-0.5,0.7s-0.4,0.4-0.5,0.7c-0.1,0-0.1,0-0.1,0s0,0.1-0.1,0.1c-0.1,0.2-0.3,0.4-0.5,0.6
	s-0.4,0.4-0.5,0.6c-0.2,0.2-0.4,0.4-0.6,0.6s-0.4,0.4-0.8,0.5c-0.2-0.2-0.4-0.5-0.6-0.8s-0.3-0.6-0.3-1c-0.1-0.3-0.1-0.5-0.1-0.7
	s-0.1-0.5-0.1-0.8c0.1-0.2,0.2-0.3,0.1-0.5c-0.1,0-0.1,0-0.1,0h-0.1c-0.1-0.1-0.1-0.2-0.1-0.3v-0.3h0.1l0.1,0.5
	c-0.1-0.1-0.2-0.2-0.2-0.3c0-0.1-0.1-0.3-0.1-0.4s0-0.3-0.1-0.5c0-0.2-0.1-0.3-0.2-0.4c-0.1-0.2-0.1-0.4-0.2-0.5
	c0,0.1,0,0.2-0.1,0.3c-0.1-0.1-0.2-0.2-0.2-0.4c0-0.2,0-0.3-0.1-0.5c0-0.1-0.1-0.2-0.1-0.3c0-0.1-0.1-0.2-0.1-0.2l0,0
	C13.1,71.8,13,71.8,12.9,71.8 M5.4,48.9C5.3,49,5.3,49,5.1,49C5.2,48.9,5.3,48.9,5.4,48.9 M4.4,49.7l-0.2,0.2L4.4,49.7z M10.5,49.9
	c0-0.2-0.1-0.4-0.2-0.5c-0.1-0.2-0.1-0.3-0.2-0.5v-0.1c-0.1-0.2-0.2-0.4-0.4-0.6c-0.2-0.2-0.3-0.4-0.5-0.6c-0.1,0.1-0.1,0-0.2,0
	s-0.1-0.1-0.1-0.2c-0.1,0-0.1,0-0.2,0s-0.1,0-0.2,0c0,0-0.1,0-0.1-0.1c-0.2,0.1-0.4,0.1-0.5,0c-0.2,0-0.3,0-0.4,0.1
	c-0.1,0-0.2,0.1-0.4,0.1c-0.1,0-0.2,0-0.4,0.1c-0.1,0.1-0.2,0.2-0.4,0.3c-0.1,0.3-0.2,0.5-0.4,0.7c-0.2,0.1-0.4,0.3-0.6,0.4
	c-0.1-0.1-0.1-0.1-0.2-0.1c0,0-0.1,0-0.2-0.1c0.1,0,0.2-0.1,0.2-0.3c-0.1,0-0.2,0-0.2,0c0.1-0.1,0.2-0.1,0.3-0.2
	c0.1,0,0.2-0.1,0.3-0.2c-0.2,0-0.4,0.1-0.6,0.2c-0.1,0.1-0.3,0.2-0.5,0.4C4.3,48.8,4.1,48.9,4,49c-0.1,0.1-0.3,0.2-0.4,0.3
	c-0.7,0.6-1.3,1.2-1.9,1.8c-0.6,0.6-1.1,1.4-1.5,2.2c0,0.1,0,0.2-0.1,0.2c-0.1,0.1-0.1,0.1,0,0.3c0.1,0,0.1-0.1,0.2-0.1
	c0.1,0,0.1,0,0.2,0.1c0-0.1,0.1-0.1,0.1-0.2c0.1-0.1,0.1-0.2,0.2-0.3c0.1-0.1,0.1-0.2,0.2-0.2c0.1,0,0.1,0,0.2,0
	C1.1,53.2,1,53.3,1,53.5c-0.1,0.1-0.1,0.2-0.2,0.4c0.1-0.1,0.1-0.1,0.1-0.2S1,53.6,1,53.6c-0.1,0.1-0.1,0.3-0.2,0.4
	c-0.1,0.1-0.2,0.3-0.2,0.4c0-0.1,0.1-0.1,0.1-0.2c0,0,0.1-0.1,0.1-0.2c0.2-0.1,0.3-0.2,0.4-0.3c0.1-0.2,0.2-0.3,0.3-0.3
	c0,0.1,0,0.2-0.1,0.3c-0.1,0.1-0.1,0.1-0.1,0.2c0.1-0.1,0.1-0.2,0.2-0.3c0.1-0.1,0.1-0.2,0.3-0.2v0.1c0.1-0.1,0.1-0.1,0.2-0.2
	c0-0.1,0.1-0.1,0.2-0.2c0.2-0.1,0.4-0.2,0.5-0.4c0.1-0.2,0.2-0.4,0.4-0.5C3,52.5,2.8,52.8,2.6,53c-0.2,0.2-0.4,0.5-0.5,0.8
	c0.1-0.1,0.2-0.2,0.2-0.3h0.1v-0.1c0.1,0.1,0.1,0,0.2-0.1c0-0.1,0.1-0.1,0.2-0.1c-0.1,0.1-0.1,0.2-0.2,0.3c-0.2,0.2-0.3,0.3-0.3,0.4
	c0.2-0.2,0.4-0.5,0.5-0.7C3,53,3.2,52.8,3.5,52.7c0.3-0.3,0.5-0.6,0.9-0.9C4.7,51.5,5,51.2,5.3,51c0.1-0.1,0.3-0.2,0.4-0.2
	c-0.1,0.1-0.1,0.2-0.2,0.3c-0.1,0.1-0.2,0.1-0.3,0.2c-0.2,0.2-0.4,0.4-0.6,0.6c-0.2,0.2-0.4,0.4-0.5,0.6c0.3-0.2,0.5-0.4,0.7-0.7
	c0.2-0.3,0.5-0.5,0.8-0.6c-0.2,1.1-0.5,2.3-0.7,3.4c-0.2,1.2-0.4,2.4-0.7,3.6c-0.1,0.7-0.2,1.4-0.4,2.1c-0.1,0.7-0.3,1.5-0.4,2.2
	c-0.1,0.6-0.2,1.4-0.4,2.2c-0.2,0.8-0.3,1.6-0.4,2.4s-0.2,1.5-0.4,2.2c-0.1,0.7-0.1,1.2-0.1,1.5c0,0.1,0,0.3-0.1,0.5
	s-0.1,0.5-0.2,0.8c-0.1,0.3-0.1,0.5-0.2,0.8c-0.1,0.2-0.1,0.4-0.1,0.5c0.1,0.4,0.1,0.7,0,1.1s-0.1,0.8-0.1,1.2
	c0,0.4-0.1,0.8-0.1,1.2c-0.1,0.4-0.2,0.9-0.3,1.3c-0.1,0.5-0.2,1-0.3,1.5s-0.1,1-0.1,1.5s0.1,0.9,0.2,1.3C0.9,82.6,0.9,82.8,1,83
	c0.1,0.2,0.2,0.3,0.4,0.4c0,0.1,0.1,0.1,0.1,0.2s0.1,0.1,0.2,0.1c-0.1-0.1-0.1-0.2-0.2-0.4c0-0.1,0-0.2,0.2-0.3c0,0.1,0,0.1,0,0.2
	s0,0.1,0.1,0.1c0-0.1,0-0.1,0-0.1l0,0c0.1,0,0.1,0,0.1,0s0-0.1,0.1,0s0.1,0.2,0.2,0.2c0.1,0.1,0.2,0.1,0.2,0.2l0,0l0,0l0,0
	c0-0.1,0-0.2,0-0.3c0-0.1,0.1-0.2,0.2-0.2c0.1,0.1,0.1,0.1,0.2,0.2c0,0.1,0.1,0.1,0.2,0.2c-0.1-0.1-0.1-0.3,0-0.4c0.1,0,0.1,0,0.1,0
	h0.1c0-0.1,0-0.2,0-0.2c0-0.1,0-0.1,0-0.2c0,0,0.1,0,0.1,0.1s0,0,0,0c0-0.1,0-0.1,0-0.1v-0.1h0.1c0-0.1,0-0.1,0.1-0.2l0.1-0.1v-0.4
	c0-0.1,0.1-0.1,0.2-0.2c0-0.1,0-0.1,0-0.2c0,0,0-0.1,0-0.2C3.9,81.2,4,81.2,4,81.1s0-0.2,0-0.4c0-0.1,0.1-0.2,0.1-0.2
	c0-0.1,0-0.1,0-0.2c0.1-0.1,0.1-0.1,0.1-0.2L4.3,80l0,0l0,0c0-0.1,0.1-0.1,0.1-0.2s0.1-0.2,0.1-0.2c0.1,0.1,0.1,0.1,0,0.2v0.1
	c0.1-0.1,0.2-0.2,0.2-0.4c0.1-0.1,0.1-0.3,0.2-0.4H5C5,79,5,79,5,79s0,0,0-0.1s0-0.1,0,0s0,0.1-0.1,0c0.2-0.3,0.3-0.7,0.4-1.1
	c0.1-0.4,0.2-0.7,0.3-1.1c0.1-0.3,0.1-0.5,0.2-0.8c0.1-0.3,0.1-0.5,0.2-0.8c0.1-0.3,0.1-0.5,0.1-0.8s0-0.5,0-0.7c0-0.3,0-0.6,0.1-1
	s0.1-0.8,0.2-1.2c0.1-0.4,0.1-0.8,0.2-1.1c0.1-0.4,0.1-0.6,0.1-0.9c0.1-0.2,0.2-0.7,0.3-1.5c0.1-0.7,0.3-1.5,0.4-2.4
	c0.1-0.8,0.3-1.6,0.4-2.3c0.1-0.7,0.2-1.1,0.3-1.3c0.1-0.2,0.2-0.4,0.2-0.6c0.2-0.6,0.3-1.2,0.4-1.8c0.1-0.6,0.2-1.2,0.3-1.9v-0.1
	c0,0,0,0,0-0.1c0-0.4,0.1-0.8,0.2-1.2c0-0.1,0.1-0.3,0.1-0.4s0.1-0.2,0.2-0.4c0-0.3,0-0.5,0-0.6s0-0.1,0-0.1v-0.1c0-0.1,0-0.3,0-0.4
	s0-0.3,0-0.4c0.1-0.4,0.1-0.8,0.1-1.2c0.1,0,0.1,0,0.1-0.1c0.1-0.3,0.1-0.6,0.2-0.9s0.1-0.6,0.2-1.1v-0.6H10.5z"/>
<polygon class="st0" points="46.6,29.8 46.7,29.7 46.8,29.4 "/>
<path class="st0" d="M46.4,28.9c0.5-0.3,0,0.4,0.2,0.4l0.1-0.1l-0.4,0.4C46.4,29.3,46.6,28.9,46.4,28.9"/>
<path class="st0" d="M45.2,29C45.4,29,45.3,28.8,45.2,29C45.3,29.1,45.3,29.1,45.2,29C45.2,29.1,45.2,29.1,45.2,29"/>
<path class="st0" d="M45.2,29.1C45.2,29.3,45,29.2,45.2,29.1"/>
<path class="st0" d="M45.2,28.6L45,28.8c-0.1,0-0.2-0.1-0.3,0C44.8,28.6,45,28.6,45.2,28.6"/>
<path class="st0" d="M45.5,28.3L45.5,28.3C45.4,28.4,45.4,28.4,45.5,28.3"/>
<path class="st0" d="M45.3,28.6l0.1-0.2c0.1,0,0.3-0.1,0,0.1C45.6,28.4,45.4,28.5,45.3,28.6"/>
<path class="st0" d="M45.4,28.7c0.1,0,0.2,0.1,0.4-0.1C45.8,28.8,45.4,29,45.4,28.7"/>
<path class="st0" d="M46.9,28.5h0.2L47,28.7C47,28.6,46.7,28.6,46.9,28.5"/>
<path class="st0" d="M44.8,27.8c0.1,0,0.3,0,0.5-0.1l-0.1,0.1C45,27.8,44.9,27.7,44.8,27.8"/>
<path class="st0" d="M45.2,27.7l0.2-0.2C45.4,27.6,45.3,27.7,45.2,27.7"/>
<path class="st0" d="M46.1,28l-0.4,0.4c0,0,0.1-0.1,0.2-0.2C46,28.1,46.1,28,46.1,28L46.1,28z"/>
<path class="st0" d="M45.3,27.3c-0.1,0-0.3,0-0.3,0H45.3L45.3,27.3z"/>
<path class="st0" d="M45.3,27.2L45.3,27.2C45.3,27.1,45.3,27.1,45.3,27.2C45.3,27.1,45.3,27.1,45.3,27.2"/>
<path class="st0" d="M45.3,27.3L45.3,27.3L45.3,27.3"/>
<path class="st0" d="M45.8,27.8c0.2-0.1,0.3-0.4,0.6-0.3C46.2,27.6,46,27.5,45.8,27.8"/>
<path class="st0" d="M45.7,27.2L45.7,27.2c0,0.1-0.1,0.1-0.2,0.2L45.7,27.2z"/>
<polygon class="st0" points="45.7,27.2 45.7,27.2 45.8,27.1 "/>
<path class="st0" d="M45.1,26.5c0.1-0.1,0.1-0.2,0.2-0.2c0.1,0.1,0.1,0.2,0.1,0.2C45.3,26.6,45.1,26.6,45.1,26.5"/>
<path class="st0" d="M45.2,26.9L45.2,26.9C45.3,26.8,45.3,26.9,45.2,26.9"/>
<path class="st0" d="M45.3,25.6L45.3,25.6L45.3,25.6L45.3,25.6z"/>
<path class="st0" d="M45.5,26.6c0.1,0.1,0,0.1-0.1,0.2C45.4,26.7,45.4,26.6,45.5,26.6C45.4,26.5,45.5,26.5,45.5,26.6"/>
<path class="st0" d="M45,26.1c0.1,0,0.1,0.1,0.2,0.1C45,26.2,44.9,26.1,45,26.1"/>
<path class="st0" d="M45.2,26.8L45.2,26.8C45.1,26.8,45.1,26.8,45.2,26.8"/>
<path class="st0" d="M45.2,26.8c0,0,0.1-0.1,0.2-0.1C45.3,26.8,45.3,26.8,45.2,26.8L45.2,26.8"/>
<path class="st0" d="M47.4,25.4c-0.3,0-0.6,0.1-0.3,0.2c-0.2,0.1-1.2,0.1-1.8,0c0.1,0,0.3,0,0.4-0.1c0.2,0.1,0.4,0.3,0.7,0.2
	c0.2-0.2-0.1-0.1-0.3-0.2c0.4,0.1,0.5-0.2,1.1-0.1L47,25.5C47.1,25.4,47.3,25.3,47.4,25.4"/>
<path class="st0" d="M45.4,25.8L45.4,25.8c-0.1,0-0.2,0-0.4-0.1c0.1-0.1,0.3-0.1,0.4-0.1V25.8L45.4,25.8z"/>
<path class="st0" d="M45.3,26.2c0.3-0.1,0.5-0.2,0.8-0.2c0,0.2-0.3,0.1-0.4,0.2C45.8,26,45.6,26.3,45.3,26.2c0,0.1,0,0.1,0,0.2
	c0,0-0.1-0.1-0.2-0.1l0,0l0,0l0,0c0,0,0.1,0,0,0l0,0C45.3,26.2,45.3,26.2,45.3,26.2C45.2,26.1,45.2,26.2,45.3,26.2L45.3,26.2
	L45.3,26.2v-0.3C45.4,25.9,45.4,26,45.3,26.2"/>
<path class="st0" d="M47.1,27.1C47,27.1,47,27.1,47.1,27.1C47,27.1,47.1,27.1,47.1,27.1"/>
<path class="st0" d="M46.9,27.1C46.9,27.1,46.7,27.2,46.9,27.1c0,0.1,0.1,0.1,0.2,0c-0.1,0.1-0.2,0.2-0.4,0.1l0,0
	c-0.1-0.1-0.5-0.1-0.6-0.1C46.4,27.1,46.6,27.1,46.9,27.1"/>
<path class="st0" d="M46.2,26.7l0.1-0.2l0.3,0.1h-0.2C46.5,26.6,46.3,26.6,46.2,26.7"/>
<polygon class="st0" points="44.8,25.6 45.1,25.5 45.3,25.4 "/>
<polygon class="st0" points="44.9,25.2 45.2,25.2 45,25.2 "/>
<path class="st0" d="M50.6,13.2L50.6,13.2L50.6,13.2"/>
<path class="st0" d="M50.5,13.6L50.5,13.6C50.5,13.5,50.5,13.5,50.5,13.6"/>
<path class="st0" d="M45.9,19.1c-0.3-0.2-0.7-0.4-0.3-0.3l0.3,0.1C45.8,19,45.8,19,45.9,19.1"/>
<path class="st0" d="M48.4,16L48.4,16c0,0-0.1,0-0.2,0C48.2,16,48.3,16,48.4,16"/>
<path class="st0" d="M49.7,16.4l-0.2-0.2C49.6,16.3,49.6,16.3,49.7,16.4"/>
<path class="st0" d="M51.2,11.3l0.3,0.1C51.5,11.4,51.4,11.3,51.2,11.3"/>
<path class="st0" d="M45.5,22.5c-0.1-0.1-0.2-0.2-0.2-0.2C45.5,22.4,45.7,22.5,45.5,22.5"/>
<path class="st0" d="M47.1,12.1c0.1,0,0.1,0,0.2,0C47.3,12.2,47.2,12.2,47.1,12.1"/>
<path class="st0" d="M45.3,22C45.4,22,45.4,22.1,45.3,22c0,0.1,0,0.1,0,0.2C45.2,22.1,45.1,22,45.3,22"/>
<path class="st0" d="M52.1,3.9C52,3.9,52,3.9,52.1,3.9L52.1,3.9"/>
<path class="st0" d="M49.1,0.7L49.1,0.7L49.1,0.7"/>
<path class="st0" d="M45.1,24.1C45,24.1,45,24.1,45.1,24.1"/>
<path class="st0" d="M46.3,24.5c0,0,0.1,0,0.2,0C46.4,24.5,46.4,24.5,46.3,24.5"/>
<path class="st0" d="M47.4,22.1L47.4,22.1C47.5,22.2,47.5,22.2,47.4,22.1"/>
<path class="st0" d="M45.2,24.2C45.2,24.1,45.1,24.1,45.2,24.2C45.1,24.1,45.2,24.1,45.2,24.2"/>
<path class="st0" d="M45,24.1C45.1,24.2,45.1,24.2,45,24.1C45,24.2,45,24.2,45,24.1"/>
<path class="st0" d="M45.1,24L45.1,24C45.1,24.1,45.1,24.1,45.1,24L45.1,24"/>
<path class="st0" d="M50.6,7.5L50.6,7.5C50.7,7.5,50.7,7.5,50.6,7.5"/>
<path class="st0" d="M49.4,19L49.4,19L49.4,19L49.4,19z"/>
<path class="st0" d="M49.7,18.9c-0.4-0.1-0.4,0-0.3,0.1l-0.9-0.4L49.7,18.9z"/>
<path class="st0" d="M48.3,6.2L48.3,6.2C48.5,6.2,48.4,6.2,48.3,6.2 M45.5,23.7c-0.1,0-0.1,0-0.2,0C45.4,23.7,45.4,23.7,45.5,23.7
	C45.6,23.6,45.6,23.7,45.5,23.7 M45.4,23.5L45.4,23.5C45.3,23.4,45.3,23.4,45.4,23.5 M49,16.5C49.1,16.5,49.1,16.5,49,16.5
	C48.9,16.4,48.9,16.4,49,16.5 M50.3,14C50.4,14,50.6,14,50.3,14C50,13.8,50.2,13.9,50.3,14 M50.8,12.3l0.3,0.2
	c0.5,0,0.3-0.1,0.7,0.1c-1-0.3-0.2,0.4-1.2,0.1l0.2,0.2c0,0,0.1,0,0,0c0.5,0.3-0.7-0.1-0.6,0.1c0.1,0.1,0.2,0.2,0.3,0.2l-0.3,0.1
	c0,0.1,0.2,0.1,0.2,0l-0.1,0.2l0,0c-0.2,0-0.4,0-0.5,0c0.1,0.1,0.1,0,0.2,0.1h-0.3c0.3,0.1,0.5,0.1,0.5,0c1,0.5-0.3,0,0.3,0.5
	l0.1-0.1c0.6,0.3,0.3,0.3,0.7,0.6c-0.2-0.1-0.9-0.6-1.1-0.5c0.1,0.1,0.1,0.1-0.1,0.1c0.4,0.1,0.3,0.2,0.2,0.3l0.5,0.2
	c-0.2,0.1-0.4,0-0.6-0.1c0,0.1,0.4,0.3,0.7,0.4c0,0.2-0.6-0.3-0.7-0.1c0.2,0.2-0.1,0.2-0.4,0.3c0.1,0.2,0.3,0.1,0.4,0.2h-0.4
	c0,0,0.1,0.1,0.2,0.1c-0.2,0-0.5-0.2-0.6-0.1c-0.5-0.1,0.7,0.5,0.1,0.5c0.1,0.1,0.3,0.1,0.5,0.2c-0.4,0.1-0.3,0.1-0.9,0.1l0.3,0.3
	c-0.3-0.2-0.8-0.2-1.1-0.2c-0.2-0.1-0.3-0.2-0.4-0.2l-0.3,0.1c0.1,0.1,0.2,0.1,0.4,0.1h-0.1c0.2,0.1,0.4,0.2,0.7,0.2
	c-0.1-0.1-0.2-0.1-0.3-0.2c0.3,0.1,0.6,0.1,0.9,0.2c-0.1,0-0.1,0-0.1,0c0.1,0,0.2,0,0.2,0.1c0,0-0.1,0-0.2,0l0.5,0.2l-0.2-0.1
	l0.3,0.4c-0.6,0-1.4-0.1-1.6,0.1c0.4,0.1,0.6,0.2,1.1,0.4c-0.5-0.2,0.2-0.1,0.2-0.3c0,0.1,0.3,0.2,0.3,0.2l-0.5,0.1
	c0.4,0.1,0.3,0.2,0.4,0.3c-0.7-0.3-0.5,0-0.8,0.1c0.2,0.1,0.5,0.2,0.5,0c0.5,0.3-0.9-0.1-0.4,0.2c0,0,0-0.1,0.1,0
	c-0.2,0-0.1,0.2,0.1,0.3l0,0c0.1,0.2-0.1,0.6-0.7,0.5c0.1,0,0.8,0.2,0.9,0.3l-2.2-0.4c0.5,0.2,1.8,0.7,2.1,0.7
	c0.1,0.1,0.1,0.2-0.1,0.2c-0.1-0.1-0.8-0.4-0.8-0.3c0.6,0.3,0.3,0.2,0.8,0.5c-0.1-0.1-1-0.3-0.9-0.2c0.1,0,0.8,0.3,0.9,0.3L48.2,20
	c0.2,0,0.7,0.2,0.9,0.4c-0.2-0.1,0,0.2-0.1,0.2l-0.2-0.2c0.1,0.3-1.2-0.2-1.2,0.1c0.2,0,1.1,0.3,1.2,0.5c-0.4-0.1-2.1-0.5-2.4-0.4
	l0.2,0.1l-0.3,0.1c0.7,0.1,2,0.3,2.6,0.4c0.2,0.2,0.3,0.1,0.2,0.2c0.2,0.1,0.4,0.1,0.4,0l0.1,0.3c-0.5-0.2-0.5,0.1-0.9-0.1l0.6-0.1
	c-0.5-0.2-1.4-0.3-1.4-0.1c0.2,0.1,0.9,0.3,1.1,0.3c-0.2,0-0.4,0.1-0.2,0.1h0.3c0.2,0.2-0.7,0-0.2,0.3c0,0.1,0.6,0.4,0.3,0.3
	c-0.6-0.3-2.3-0.9-2.7-1c0,0,0.5,0.4,0.8,0.6c0.4,0.2,1.1,0.2,1.5,0.4c-0.1,0-0.3-0.1-0.4-0.1c0.1,0.1,0.4,0.1,0.3,0.2
	c-0.5-0.2,0,0.2-0.4-0.1c-0.2,0.1,0.1,0.1,0,0.3c-0.3-0.2-1.1-0.3-1.3-0.2c0.1,0,0.3,0.1,0.4,0.2c0,0.2,0.2,0.4,0.2,0.6
	c0.1,0.1,0.3,0.2,0.5,0.2c-0.1,0-0.3,0-0.3,0c0.4,0.2,0.1-0.1,0.6,0.1c-0.3-0.1-0.4,0-0.6,0.1c-0.5-0.1-0.1-0.2,0.1-0.3
	c-0.6-0.2-1.3-0.2-1.6,0c-0.2,0.1,0.4,0.2,0.3,0.2c0.1,0.4-1.1,0-0.7,0.4c0.4,0.2,0.8,0.2,1.1,0.3c0.2-0.1-0.2-0.3-0.2-0.4l0.2,0.2
	c0.1,0,0.3-0.1,0.1-0.2c0.4,0.2,0,0.6,0.3,0.9c-0.1,0-0.3,0.1-0.4,0l0.1-0.1c-0.3-0.1-0.5,0.1-0.6,0c-0.2,0.1-0.6,0.2-0.4,0.4
	l0.5,0.1c-0.1,0-0.3-0.1-0.1-0.2c-0.2,0,0.6,0.3,0,0.3l-0.3-0.2c-0.2,0.1-0.7,0.2-0.6,0.4c-0.5-0.1,0.1,0-0.5-0.2
	c0.7,0.2,0-0.4,0.7-0.2c-0.6-0.2-0.3-0.2-0.8-0.5c0.2,0,0.3,0.1,0.2-0.1h0.1l0,0l0,0l0,0c0.1,0,0.1,0.1,0.2,0.1
	c0.4,0,0.4-0.2,0.5-0.3c-0.1-0.1-0.2,0-0.3-0.1l0.3-0.1c-0.3-0.1-0.5-0.3-0.8-0.2v-0.2c-0.2-0.1-0.2-0.3-0.1-0.3
	c-0.1-0.1,0.4-0.1,0.1-0.1l0.2-0.2h-0.1c0-0.3,0.6-0.4,0-0.8c0.1-0.1,0.2-0.1,0.1-0.3l-0.3-0.1c0.1-0.1-0.2-0.4,0.1-0.4
	c-0.8-0.4-0.1-0.6-0.2-0.8l0.4,0.1c0-0.1,0.1-0.2,0.3-0.3l0.3,0.1c0.3,0-0.2-0.4-0.1-0.6c-0.1,0-0.1,0,0,0.1
	c-0.7-0.5,0.6-0.3,0.1-0.7c0.1,0,0.1-0.1,0-0.1l0,0l0,0c-0.1,0-0.1-0.1-0.2-0.1c0.1,0,0.1,0.1,0.2,0.1c0,0,0.1-0.1,0.2-0.1l-0.4-0.1
	l0,0c-0.1-0.1,0.2,0,0.4,0.1c0.1,0,0.1,0,0.2,0c-0.6-0.2,0.2-0.1-0.4-0.4c0.3,0.1,0.3-0.2,0.9,0c-0.1,0-0.1-0.1-0.1,0
	c-0.1-0.1-0.1-0.2,0.1-0.2l-0.4-0.2l0.6,0.1c-0.3-0.2-0.4-0.3-0.8-0.3c0.6,0,0.2-0.1,0.8-0.1L46.8,18c0-0.1,0.4,0,0.2-0.1
	c-0.5-0.3,0-0.7-0.4-1.3c0.9,0.4-0.4-0.3,0.3-0.1c-0.2-0.1-0.3-0.2-0.5-0.2c0.2-0.1-0.3-0.4,0.3-0.3c-0.2-0.1-0.3-0.1-0.4-0.1
	c0,0,0.2,0,0.1-0.1s-0.2,0-0.3,0c0.1-0.2,0.7,0,1.3,0.2c-0.3-0.2-0.2-0.2,0.2-0.2c-0.2-0.1-0.4-0.2-0.5-0.1c0-0.1-0.2-0.5,0.3-0.4
	c-0.1-0.1,0-0.1,0-0.1c0-0.2,0-0.2,0-0.3l0.1,0.1c0.6,0.1,0.1-0.1,0.2-0.2h-0.1c-0.4-0.4,0.2-0.1-0.2-0.5l0.4,0.1
	c0.8,0.2-0.4-0.4-0.1-0.4l0.2,0.1c0.3,0-1-0.6-1.1-0.7c-0.1,0-0.1,0-0.2,0c-0.4-0.4,0.5,0.1,0.6,0c-0.2-0.1-0.6-0.2-0.7-0.3
	c-0.2-0.1,0.9,0,0.4-0.4c0.2,0.1,0.4,0.2,0.5,0.2c0.1-0.1-0.7-0.6-0.1-0.5l-0.1-0.1c0.2,0,0.3-0.2,0.6-0.1c-1.2-0.5,0.7-0.4-0.4-0.8
	l0.1-0.3h-0.1c0-0.2,0.2-0.2,0.5-0.1c-0.1-0.1-0.2-0.1-0.2-0.1c-0.2-0.3-0.1-0.4,0.5-0.4l-0.4-0.1c0.2,0-0.5-0.6-0.1-0.7
	c0,0-0.1,0-0.2,0c0.5-0.1-0.9-1,0.4-0.7l0.4-0.1c0.1,0.3,0.6,0.2,0.8,0.3c0.1-0.1-0.4-0.4-0.5-0.3h0.1C48,8.7,48.5,8.5,48,8.4
	c0.1-0.5-0.2-1.1-0.2-1.5l0.5,0.2V6.9c-0.1-0.1-0.4-0.2-0.4-0.1c-0.3-0.2,0.3-0.1,0.4-0.1c-0.2-0.3-0.6-0.1-0.6-0.2l0.1-0.1h0.1
	c0.2,0,0.5,0.1,0.5-0.1c-0.1-0.1-0.3-0.2-0.3-0.2s-0.1,0,0-0.1V5.8L48.5,6c0.2,0,0-0.2,0.5,0.1c-0.7-0.4-0.2-0.8-0.4-1
	c0.3,0,0.3-0.1,0.3-0.3c0.1,0.1,0.6,0.3,0.5,0.1c-1-0.3-0.4-0.4-1.1-0.7c0.5,0.3,0.2-0.3,0.8,0c-0.1-0.1-0.4-0.1-0.6-0.3
	c0.4-0.1-0.2-0.7,0-0.9c0.1,0,0.3,0.2,0.5,0.2l-0.6-0.4c0.1,0,0.8,0.2,0.3-0.1C48.8,2.8,49,2.8,49,2.8c-0.5-0.8,0.7-1.1-0.4-2.2
	c0.2,0.2,0.3,0.1,0.3,0.1c0.1,0.1,0.3,0.1,0.5,0.2L49,0.5c0.5,0.1,0.1-0.3,0.6-0.1l-0.1,0.1c0.6,0.1,1.2,0.6,1.9,0.8
	c-0.6-0.1,0.9,0.7-0.1,0.6c0.1,0.1,0.2,0,0.4,0.1c-0.3-0.1-0.4,0-0.3,0.2h0.1c-0.1,0.3,0.2,0.6,0.3,1l-0.3-0.1
	c0,0.1,0.1,0.2,0.2,0.2c-0.5-0.1,0-0.2-0.6-0.4c0.7,0.4-0.1,0.6,0.7,0.9c0,0.1-0.4-0.2-0.4-0.1l0.2,0.1l-0.3-0.1
	c0,0.1,0.3,0.2,0.5,0.3c0,0,0.1,0,0.1-0.1c0.2,0.2-0.1,0.3-0.1,0.3L51.7,4c-0.3,0.3,0,0.8-0.5,0.9L51,4.8c-0.3,0.1,0.2,0.3,0,0.5
	l0,0c-0.2,0-0.3,0-0.3,0.1c0.2,0,0.4,0.3,0.6,0.2c-0.4,0.2-0.3,0-0.9,0l0.3,0.1c-0.3,0-0.4-0.1-0.5,0c0.3,0,0.4,0.2,0.7,0.2
	c0.6,0.5-0.7,0.2,0.2,0.6c-0.8-0.1-0.4-0.4-0.6-0.4C50.3,6,49.9,6,50,6.1c0,0.1,0.9,0.5,0.9,0.7H51c0.2,0.2-0.3,0.1,0,0.3
	c-0.5-0.1,0,0.1-0.6,0l0.2-0.2C50.4,7,49.7,6.8,50,7.2c0.1,0,0.3,0,0.4,0c0.2,0.1-0.1,0.1,0,0.2C51,7.6,50.6,7.2,51,7.2
	c0.2,0.1-0.5,0.1,0.2,0.2c-0.8-0.2,0.1,0.3-0.6,0.2L51,7.7c-0.1,0-0.2,0-0.2,0l0.5,0.1c-0.4,0,0.3,0.4,0.1,0.4C51.4,8,51,8,50.7,7.8
	c-0.5,0.1,0.9,0.5,0.7,0.8c0.1,0-0.2-0.2-0.4-0.2c0.1,0.1,0.2,0.2,0.4,0.3c-0.1,0.2-0.4-0.2-0.6-0.1c0.4,0.2-0.2,0.1-0.3,0.1
	l0.4,0.1c0.2,0.3-0.8-0.2-0.5,0.1L50.9,9l-0.1,0.1l0.4,0.1c-0.3,0-0.2,0.1-0.2,0.3c-0.2-0.1-0.7-0.2-0.7-0.1
	c0.2,0.2,0.3,0.1,0.3,0.2c0.2,0,0.5,0.1,0.2-0.1c0.1,0,0.2,0,0.3,0.1c0.2,0.2,0,0.2,0,0.3c0,0,0-0.1-0.1-0.1l-0.5,0.1
	c0.1,0.1,0.2,0.1,0.3,0.1c0,0-0.2,0-0.3,0.1c0.3,0.1,0.6,0.2,0.7,0.1l-0.4,0.1c0.1,0.1,0.3,0.2,0.4,0.2c0.2,0.2-0.6,0.1-0.4,0.4
	c-0.1,0-0.1,0-0.2,0c0,0.2,0.4,0.4,0,0.5l0.5,0.3c-0.1,0.1-0.6-0.4-0.9-0.2c-0.2,0.1,0.4,0.2,0.6,0.3c-0.3,0-0.8,0-0.4,0.3
	C50.8,12.4,50.7,12.4,50.8,12.3"/>
<path class="st0" d="M49.6,16.3c-0.1,0-0.1-0.1-0.2-0.1C49.4,16.3,49.5,16.3,49.6,16.3"/>
<polygon class="st0" points="51.2,11.3 51.2,11.3 51.1,11.3 "/>
<path class="st0" d="M48.9,22c0-0.1-0.1-0.1-0.2-0.1C48.8,21.9,48.9,21.9,48.9,22"/>
<path class="st0" d="M44.9,24.7L44.9,24.7c0.1,0,0.2,0,0.2,0C45,24.7,44.9,24.6,44.9,24.7"/>
<path class="st0" d="M47.1,25.8L47.1,25.8l-0.2,0.1C46.9,25.8,47,25.7,47.1,25.8"/>
<path class="st0" d="M46.1,24.9c0.3,0,0.2,0.1,0.1,0.2l0,0C45.8,25.1,45.9,25,46.1,24.9"/>
<path class="st0" d="M46.2,25.1L46.2,25.1C46,25.2,46.2,25.1,46.2,25.1"/>
<path class="st0" d="M45.3,23.9c0.1,0.1-0.4,0-0.3,0C44.7,23.9,45.5,23.7,45.3,23.9"/>
<polygon class="st0" points="46.7,25 47.1,25 47,25 "/>
<path class="st0" d="M46.8,24.4L46.8,24.4C46.8,24.5,46.8,24.5,46.8,24.4C46.8,24.5,46.7,24.4,46.8,24.4"/>
<path class="st0" d="M46.8,24.6L46.8,24.6C46.7,24.6,46.7,24.6,46.8,24.6"/>
<path class="st0" d="M47.1,24.8L47.1,24.8L47.1,24.8z"/>
<path class="st0" d="M46.9,23.1L46.9,23.1c0.2-0.1,0.3,0,0.2,0C47.1,23.1,47,23.1,46.9,23.1"/>
<path class="st0" d="M47.9,23.7c-0.1-0.1-0.2-0.1-0.3-0.1l0.5,0.1H47.9z"/>
<path class="st0" d="M48,23.4c0.1,0,0.4-0.1,0.3,0.1C48.2,23.4,48.1,23.5,48,23.4"/>
<polygon class="st0" points="47.7,21.4 47.7,21.4 46.9,21.1 "/>
<path class="st0" d="M49.7,20.3c0.2,0.2-0.5-0.1-0.3,0.1c-0.2,0-0.2-0.2-0.3-0.2C49.3,20.2,49.2,20.1,49.7,20.3"/>
<path class="st0" d="M49.1,20.2L49.1,20.2C49.1,20.2,49.1,20.2,49.1,20.2"/>
<polygon class="st0" points="48.8,0.2 48.9,0.2 48.6,0 "/>
<path class="st0" d="M49.4,0.2L48.9,0L49.4,0.2C49.3,0.1,49.3,0.1,49.4,0.2"/>
<path class="st0" d="M51.2,14.6L51.2,14.6C51,14.5,51,14.5,51,14.5L51.2,14.6z"/>
<polygon class="st0" points="51.1,13.2 51.1,13.2 50.6,13.1 "/>
<path class="st0" d="M51.8,12.3c0,0.1-0.1,0.1-0.1,0.1C51.8,12.4,51.2,12.1,51.8,12.3"/>
</svg>
