<?xml version="1.0" encoding="utf-8"?>
<!-- Generator: Adobe Illustrator 19.2.1, SVG Export Plug-In . SVG Version: 6.00 Build 0)  -->
<svg version="1.1" id="Layer_1" xmlns="http://www.w3.org/2000/svg" xmlns:xlink="http://www.w3.org/1999/xlink" x="0px" y="0px"
	 viewBox="0 0 175.5 125.6" style="enable-background:new 0 0 175.5 125.6;" xml:space="preserve">
<style type="text/css">
	.st0{fill:#082432;}
</style>
<path class="st0" d="M112.7,123.8c-0.5,0.4-1.2,0.8-2.2,0.8c-1.9,0-2.6-2-2.6-3.6s0.9-3,2.6-3c1,0,1.7,0.6,2.2,1V123.8z M115.4,124
	c-0.3,0.2-0.6,0.2-0.8,0.2c-0.4,0-0.6-0.3-0.6-1.4v-8c0-1.7,0-2.9,0.1-3.3h-0.2c-1,0.6-1.8,0.9-2.6,1.3v0.6c0.1-0.1,0.4-0.2,0.7-0.2
	c0.4,0,0.6,0.3,0.6,0.9v3.8c-0.8-0.3-1.3-0.5-2.1-0.5c-2.3,0-4,2-4,4.3c0,2.6,1.8,3.8,3.4,3.8c1.1,0,2-0.5,2.8-1.1
	c0,0.4,0.1,1,0.4,1.2c0.9-0.4,1.7-0.8,2.4-1.1V124H115.4z M99.7,125.4c0.6,0,1.3-0.1,1.9-0.1s1.3,0,1.7,0.1v-0.5H103
	c-0.7,0-0.8-0.1-0.8-0.9v-3.1c0-1.7,1.1-2.2,1.8-2.2c0.5,0,1,0.1,1.1,0.6h0.3v-1.6c-0.2-0.1-0.6-0.2-1-0.2c-0.9,0-1.6,0.6-2.2,1.8
	l0,0v-1.8H102c-0.7,0.5-1.6,0.9-2.3,1.3v0.5c0.2-0.1,0.5-0.2,0.7-0.2c0.4,0,0.6,0.3,0.6,0.8v3.8c0,1-0.1,1.2-0.9,1.2h-0.3
	L99.7,125.4L99.7,125.4z M90.6,121.3c0,2.6,2,4.2,4,4.2c2.4,0,4-1.8,4-3.8c0-2.3-1.6-4.3-4.1-4.3S90.6,119.4,90.6,121.3 M97.1,122
	c0,1.7-0.6,2.9-2.3,2.9c-1.9,0-2.8-2.2-2.8-3.9c0-2,1.1-3,2.1-3C96.2,118,97.1,120,97.1,122 M84.9,125.4c0.5,0,1.3-0.1,2-0.1
	s1.3,0,1.9,0.1v-0.5h-0.3c-0.9,0-1-0.2-1-1.5v-5h2.3l0.4-0.7h-2.7v-3.2c0-1,0.5-2,1.6-2c1.3,0,1.7,1.1,1.7,1.6h0.4V112
	c-0.5-0.1-0.9-0.2-1.4-0.2c-2.7,0-3.7,1.9-3.7,3.6v2.3h-1.5l-0.1,0.7h1.6v5c0,1.4-0.1,1.5-1,1.5h-0.3L84.9,125.4L84.9,125.4z
	 M74.7,125.4c0.4,0,1-0.1,1.5-0.1s1.2,0,1.6,0.1v-0.5h-0.2c-0.4,0-0.5-0.1-0.5-0.3c0-0.1,0.2-0.4,0.4-0.7l1.3-1.7l1.2,1.7
	c0.2,0.3,0.5,0.6,0.5,0.8c0,0.1-0.1,0.2-0.5,0.2h-0.2v0.5c0.5,0,1-0.1,1.7-0.1s1.5,0,2.1,0.1v-0.5h-0.2c-0.8,0-1-0.1-1.6-0.8
	l-2.1-2.9l1.4-1.9c0.8-1.1,1.2-1.3,2.1-1.3h0.2v-0.5c-0.4,0-1,0.1-1.7,0.1c-0.6,0-1.2,0-1.5-0.1v0.5c0.5,0.1,0.7,0.2,0.7,0.4
	c0,0.1,0,0.3-0.3,0.8l-1.2,1.6l-1.3-1.7c-0.3-0.4-0.4-0.6-0.4-0.7c0-0.2,0.2-0.3,0.8-0.3h0.2v-0.5c-0.5,0-1.3,0.1-1.9,0.1
	c-1.2,0-1.8,0-2.2-0.1v0.5h0.1c0.8,0,1.1,0.2,1.4,0.5l2.4,3.2l-1.7,2.1c-0.7,0.9-0.9,1-1.7,1h-0.3v0.5H74.7z M71.2,119.3
	c0,3.2-1.5,5.6-4.7,5.6c-3,0-4.9-3.1-4.9-5.9c0-4.1,2.3-5.6,4.8-5.6C69.4,113.4,71.2,116.5,71.2,119.3 M59.8,119.3
	c0,3.5,2.7,6.3,6.5,6.3c4.2,0,6.6-3.4,6.6-6.4c0-3.6-3-6.4-6.5-6.4C63,112.7,59.8,115.4,59.8,119.3"/>
<path class="st0" d="M155.4,94.8c-0.1,0-0.1-0.1-0.1-0.2C155.3,94.6,155.4,94.7,155.4,94.8 M162.9,87.3c0,0.8-0.1,1.4-0.3,2
	s-0.4,1.2-0.6,1.8c-0.1,0.2-0.1,0.4-0.1,0.4s0,0,0.1-0.1l-0.2,0.3c-0.1,0.1-0.1,0.2-0.2,0.3c0,0.1-0.1,0.1-0.2,0.1
	c-0.1,0.1-0.1,0.2,0,0.2c-0.3,0.3-0.6,0.6-1,0.9s-0.8,0.6-1.2,0.7c-0.1,0.1-0.3,0.1-0.5,0.1s-0.3,0-0.4-0.1c-0.1,0.1-0.1,0.1-0.2,0
	c-0.1,0-0.1-0.1-0.3-0.1v-0.1v-0.1c-0.1,0.1-0.1,0.1-0.1,0c0,0,0,0-0.1,0c0,0.1,0,0.1,0.1,0.1s0.1,0,0,0.1c-0.1,0-0.1,0-0.2,0
	c-0.1,0-0.1,0-0.1-0.1v0.1c-0.1-0.1-0.1-0.1-0.2-0.1c-0.1,0-0.2,0-0.3-0.1c0.1-0.3,0.1-0.5,0.1-0.7s0-0.4,0-0.6c0-0.1,0-0.1,0-0.1
	s0-0.1,0-0.2l0,0v0.1c0-0.2,0-0.3,0-0.4c0-0.2,0-0.3,0-0.3v0.1c0,0.1,0,0.1,0,0.2c0,0,0.1,0,0.2-0.2c0.1-0.1,0.2-0.3,0.3-0.4
	s0.2-0.2,0.4-0.4c0.1-0.1,0.2-0.2,0.3-0.3c0.1-0.1,0.2-0.2,0.3-0.3h0.1c0-0.1,0.1-0.1,0.1-0.1c0.1-0.1,0.3-0.3,0.5-0.5
	s0.4-0.4,0.7-0.6c0.1-0.1,0.3-0.2,0.4-0.3c0.1-0.1,0.3-0.2,0.4-0.3h0.1c0.2-0.1,0.4-0.2,0.6-0.4c0.2-0.1,0.4-0.2,0.6-0.4v-0.2
	c0.1-0.1,0.3-0.1,0.4-0.2c0.1-0.1,0.3-0.2,0.5-0.3c0,0.1,0,0.1,0,0.2C163,87.2,163,87.2,162.9,87.3L162.9,87.3z M173.1,79.7
	c0.1,0,0.2,0,0.1-0.1c-0.2,0.3-0.7,0.7-1.3,1.1s-1.3,0.8-2,1.2c-0.7,0.4-1.4,0.7-2.1,1c-0.7,0.3-1.2,0.5-1.5,0.5
	c-0.1-0.2-0.2-0.5-0.3-0.7s-0.1-0.5-0.2-0.7c-0.2-0.6-0.4-1.3-0.6-2c-0.2-0.7-0.4-1.4-0.6-2c-0.1-0.1-0.1-0.1-0.1-0.2v-0.2
	c-0.1-0.1-0.1-0.2-0.1-0.4c0-0.1,0-0.2,0-0.4c0-0.1,0-0.3-0.1-0.5c0-0.2,0-0.3,0-0.5c-0.1-0.3-0.1-0.5-0.1-0.8
	c-0.1-0.1-0.2-0.3-0.3-0.4c0-0.2-0.1-0.4-0.1-0.7c-0.2-0.2-0.4-0.3-0.7-0.1c-0.1,0-0.1,0-0.2-0.1c0-0.1-0.1-0.1-0.2-0.2
	c0,0.1,0,0.1-0.1,0.1c0,0-0.1-0.1-0.2,0c-0.1-0.1-0.2-0.1-0.3-0.1s-0.2,0-0.3,0c-0.1,0.1-0.3,0.2-0.4,0.3c-0.1,0.1-0.2,0.2-0.3,0.2
	c-0.2,0.3-0.3,0.5-0.4,0.7c0,0.1-0.1,0.3-0.1,0.4s-0.1,0.2-0.1,0.3c-0.1,0.2-0.1,0.5,0.1,0.9c0.2,0.3,0.3,0.7,0.5,1
	c0.2,0.4,0.3,0.7,0.5,1c0.1,0.3,0.1,0.5-0.1,0.6c-0.1,0.1-0.1,0.2-0.3,0.4c-0.1,0.2-0.2,0.4-0.4,0.5c-0.1,0.2-0.3,0.3-0.4,0.5
	c-0.1,0.1-0.2,0.2-0.3,0.3c-0.2,0.3-0.4,0.5-0.4,0.6c-0.1,0.1-0.2,0.3-0.2,0.4c-0.1,0.1-0.2,0.3-0.3,0.4c-0.1,0.2-0.3,0.4-0.5,0.6
	s-0.3,0.4-0.3,0.5s-0.2,0.3-0.4,0.6c0,0-0.1,0.1-0.2,0.2c-0.1,0.1-0.2,0.3-0.4,0.4c-0.1,0.2-0.3,0.3-0.4,0.4
	c-0.1,0.1-0.2,0.2-0.2,0.2c-0.1,0.1-0.3,0.3-0.4,0.4c-0.1,0.1-0.2,0.2-0.3,0.4c-0.1,0.3-0.4,0.6-0.8,0.8c-0.4,0.2-0.7,0.5-0.7,0.7
	c0.1,0,0.2,0,0.3,0c0.1,0.1,0.3,0.1,0.4,0c0,0.1,0,0,0.1,0s0.1-0.1,0.2-0.1c0.1,0.1,0.1,0.1,0.2,0.1s0.1,0,0,0.1
	c0,0.1,0,0.1-0.1,0.1s-0.1,0,0,0c0,0.1,0,0.1,0,0.1c-0.1,0-0.1,0.1,0,0.1c0.1-0.1,0.1-0.1,0.3-0.2c0.1-0.1,0.2-0.1,0.2-0.1
	c0.1-0.1,0.1-0.1,0.1,0s0,0.1,0,0c0.1,0,0,0.1-0.1,0.1s-0.1,0,0,0c0,0,0,0.1,0.1,0.1c0.1-0.2,0.3-0.3,0.4-0.4
	c0.1-0.1,0.2-0.2,0.3-0.2c0.1-0.1,0.1-0.1,0.2-0.1c0.2-0.1,0.4-0.1,0.6-0.2c0.2-0.1,0.3-0.2,0.3-0.4c0,0,0,0,0.1-0.1
	s0.2-0.2,0.4-0.4c0.1-0.1,0.3-0.3,0.6-0.5c0.2-0.2,0.4-0.4,0.5-0.6s0.3-0.3,0.5-0.5c0,0,0.1-0.1,0.2-0.2c0.1-0.1,0.2-0.3,0.4-0.5
	c0.1-0.2,0.2-0.3,0.4-0.5c0.1-0.1,0.2-0.2,0.2-0.3c0.1,0,0.2-0.1,0.4-0.4s0.3-0.5,0.4-0.7c0-0.1,0.1-0.1,0.1,0s0.1,0.2,0.1,0.4
	c0,0.2,0,0.4,0,0.5c0,0.2,0,0.3,0,0.4c0,0,0.1,0,0.2,0c0,0.3,0.1,0.5,0.1,0.7c0.1,0.2,0.1,0.4,0.2,0.6s0.1,0.4,0.1,0.6
	s0.1,0.5,0.1,0.8c-1.2,0.7-2.4,1.4-3.6,2.2c-1.2,0.8-2.2,1.7-3.1,2.8v0.2c-0.1,0-0.2,0.2-0.4,0.4c-0.1,0.2-0.2,0.5-0.4,0.8
	c-0.1,0.3-0.2,0.6-0.2,0.9c-0.1,0.3-0.1,0.6-0.1,0.9c-0.1,0.1-0.1,0.1-0.1,0.2s0,0.1,0.1,0.1v-0.1c0,0,0,0,0-0.1c0,0.1,0,0.1,0,0.2
	s0.1,0.2,0.1,0.2c0,0.1-0.1,0.1-0.1,0.1s0,0,0,0.1s0.1,0.1,0.1,0.1v0.1c0.1,0.1,0.2,0.2,0.4,0.4c0.1,0.1,0.2,0.1,0.3,0.2
	s0.1,0.1,0.3,0.2c0.2,0.5,0.5,0.8,1,1c0.1,0.1,0.3,0.1,0.4,0.1c0.1,0,0.3,0.1,0.5,0.1v0.2h-0.1c0.1,0,0.1,0.1,0.1,0.2s0,0.2,0.1,0.2
	c0.2,0,0.5-0.1,0.7-0.2c0.3-0.1,0.5-0.2,0.7-0.2c0.1,0,0.1,0,0.1,0.1s0,0.1,0.1,0.1s0.1,0,0.1-0.1c0,0,0.1-0.1,0.2-0.1
	c0,0.1,0.1,0.2,0.1,0.3c0.2-0.1,0.4-0.2,0.5-0.4c0.1,0,0.1,0,0.1,0.1s0,0.1,0,0.1c0.1-0.1,0.1-0.1,0.3-0.1c0.1-0.2,0.2-0.3,0.5-0.4
	c0.1-0.1,0.1-0.2,0.2-0.3c0.1-0.1,0.1-0.1,0.2-0.2c0.1,0,0.1,0,0.1,0s0,0,0.1,0c0.1-0.1,0.1-0.2,0.2-0.2c0.1,0,0.2,0,0.3-0.1
	s0.1-0.2,0.2-0.3c0.1-0.1,0.1-0.2,0.2-0.3l0,0l0,0c0.1-0.1,0.1-0.1,0.1-0.2s0.1-0.2,0.2-0.3c0-0.1,0.1-0.1,0.1-0.1
	c0.1,0,0.1,0,0.1,0c0.1-0.1,0.1-0.2,0.2-0.3c0-0.1,0.1-0.1,0.2,0c0,0.1,0,0.2,0,0.2s0,0,0,0.1c0,0,0-0.1,0-0.2
	c0.1-0.1,0.3-0.2,0.4-0.3c0.1-0.1,0.2-0.2,0.2-0.3c0.1,0.1,0.1,0.1,0.1,0c0-0.2,0.1-0.2,0.2-0.2c0.1,0,0.1,0,0,0.1v0.1
	c0.1-0.1,0.1-0.3,0.2-0.4c0-0.2,0.1-0.3,0.2-0.3c0.1-0.1,0.1-0.2,0-0.3c0.1,0.1,0.2,0,0.2-0.1s0.1-0.2,0.2-0.2v0.1v0.1
	c0.1-0.1,0.2-0.2,0.3-0.4c0.1-0.2,0.2-0.4,0.2-0.6s0.1-0.4,0.1-0.6s0.1-0.3,0.1-0.4c0.2-0.8,0.4-1.6,0.4-2.5s0-1.7-0.1-2.5
	c0.4-0.1,1-0.3,1.8-0.7c0.7-0.4,1.5-0.7,2.2-1.1s1.4-0.8,1.9-1.2c0.5-0.4,0.8-0.6,0.7-0.8c0.1-0.1,0.1-0.1,0.3-0.1
	c0,0,0-0.1,0.1-0.1s0.1-0.1,0.1-0.1c-0.1,0-0.1,0-0.1,0s0,0,0.1,0h0.1c0,0,0,0-0.1,0c-0.2,0.1-0.4,0.1-0.4,0.1l0,0l0,0
	c0,0-0.1,0-0.4,0.1c-0.1,0-0.1-0.1-0.1-0.2c0.1-0.1,0.3-0.1,0.5-0.2s0.4-0.2,0.5-0.2c0.2-0.1,0.2-0.1,0.2-0.1s-0.1,0-0.1,0.1
	c-0.1,0-0.1,0.1-0.1,0.1s0,0,0.2,0c0.1,0,0.2-0.1,0.2-0.1l0,0l0,0c0,0,0,0,0.2-0.1c-0.1,0-0.2,0-0.3,0.1c-0.1,0-0.2,0-0.2,0
	c0.1-0.1,0.2-0.2,0.4-0.2s0.3,0,0.4-0.2c0-0.1,0-0.2,0.1-0.2c0,0,0.1-0.1,0.2-0.2c0-0.1-0.1-0.1-0.1-0.2c0.1-0.1,0.2-0.1,0.3,0
	c0-0.1,0-0.1-0.1-0.1h-0.2c-0.2,0-0.4,0.1-0.6,0.1c-0.2,0-0.4,0.1-0.6,0.1c0-0.1,0-0.1-0.1-0.1s-0.1,0-0.1-0.1
	c0.1,0,0.1-0.1,0.2-0.2C173.3,79.8,173.2,79.8,173.1,79.7c0,0.1-0.1,0.1-0.2,0.1C172.8,79.8,172.9,79.7,173.1,79.7 M144.2,74.4
	c-0.1,0-0.2,0-0.2,0s-0.1,0-0.1,0.1c-0.1,0.1-0.2,0.1-0.4,0.2c-0.1,0.1-0.1,0.3-0.2,0.4c-0.1,0.1-0.1,0.3-0.2,0.4
	c0,0.1-0.1,0.1-0.1,0.2s-0.1,0.1-0.1,0.2c-0.1,0.1-0.1,0.1-0.1,0.2s0,0.2-0.1,0.2c-0.1,0.1-0.1,0.3-0.1,0.5s0,0.4-0.1,0.5
	c0,0.1-0.1,0.3-0.1,0.5s-0.1,0.3-0.1,0.5c-0.2,0.9-0.5,1.9-0.7,2.8S141.2,83,141,84c-0.1,0.2-0.1,0.4-0.1,0.5c0,0.3,0,0.5-0.1,0.8
	c-0.1,0.2-0.1,0.5-0.2,0.7c-0.1,0.3-0.1,0.6-0.2,1c-0.1,0.3-0.1,0.6-0.2,1c-0.1,0.3-0.1,0.7-0.2,1c-0.1,0.4-0.1,0.7-0.1,1.1v0.5
	c0,0.3,0,0.6,0.1,0.9c0.1,0.1,0.1,0.2,0.2,0.3c0,0.1,0.1,0.2,0.3,0.3V92v-0.1c0,0,0,0,0,0.1v0.1l0,0l0,0l0.3,0.1
	c0-0.1,0.1-0.1,0.1,0c0.1,0,0.1,0,0.2,0l0,0c0.1-0.1,0.2-0.1,0.2-0.2c0.1-0.1,0.1-0.1,0.3-0.2l0,0l0,0c0.1,0,0.1,0,0.1,0s0,0,0.1,0
	c0-0.1,0-0.2,0-0.3c0-0.1,0-0.2,0.1-0.3c0.1-0.1,0.1-0.2,0.1-0.1l0,0c0-0.1,0-0.1,0.1-0.1c0,0.1,0,0.1,0,0.2c0,0,0,0.1,0,0.2
	l0.1-0.3l0,0l0,0l0.1-0.1c0,0,0.1-0.1,0-0.2v0.1l0,0v-0.1v-0.1c0.1,0,0.1,0.1,0.1,0.1v0.1c0,0,0,0,0.1-0.1v-0.3l0.1-0.1v-0.3h0.1
	h0.1c0.1-0.4,0.3-0.8,0.5-1.1c0.1-0.1,0.1-0.1,0.1-0.1v-0.2l0.1-0.2c0,0,0-0.1,0.1-0.1c0-0.1,0-0.2,0-0.4c0.1-0.2,0.3-0.4,0.4-0.5
	c0.1-0.2,0.2-0.4,0.4-0.6l0.1-0.1c0,0,0-0.1,0.1-0.1l0,0l0.4-0.5c0.1-0.2,0.2-0.4,0.3-0.7l0,0l0.1-0.1c0.2-0.4,0.4-0.7,0.7-1
	s0.5-0.6,0.7-1l0,0c0.1-0.1,0.1-0.1,0.1-0.2s0.1-0.1,0.2-0.2c0.1-0.2,0.3-0.4,0.4-0.6s0.3-0.4,0.4-0.6c0.1-0.1,0.3-0.3,0.4-0.6
	c0.1-0.2,0.3-0.4,0.5-0.5c0.2-0.2,0.4-0.3,0.5-0.5c0.1-0.1,0.2-0.1,0.3-0.2l0.3-0.3c0.2-0.1,0.3-0.3,0.5-0.5
	c0.1-0.2,0.3-0.4,0.5-0.5s0.4-0.1,0.6-0.2c0.2-0.1,0.4-0.2,0.6-0.2c-0.1,0.3-0.2,0.5-0.3,0.8c-0.1,0.2-0.2,0.5-0.3,0.8
	s-0.2,0.5-0.2,0.8c-0.1,0.3-0.1,0.6-0.2,0.9c-0.2,0.5-0.4,1-0.6,1.5c-0.2,0.5-0.4,1-0.6,1.5c-0.1,0.2-0.2,0.5-0.3,0.8
	s-0.2,0.5-0.2,0.8l-0.1,0.9c-0.1,0.4-0.2,0.9-0.4,1.2c-0.2,0.4-0.2,0.8-0.2,1.3c0,0.2,0,0.3,0,0.5c0,0.1,0.1,0.3,0.1,0.4
	s0.1,0.1,0.1,0.2s0,0.2,0.1,0.2c0,0.1,0,0.1,0,0.2s0.1,0.1,0.1,0.2c0.3,0.3,0.7,0.5,1.2,0.8c0.1,0,0.3,0,0.5,0s0.3,0,0.5,0.1
	c0.3,0,0.6,0,0.9-0.1c0.2-0.1,0.4-0.1,0.6-0.2c0.2-0.1,0.4-0.1,0.6-0.2c0.2-0.1,0.3-0.1,0.4-0.1h0.1l0,0l0,0h0.1c0,0,0,0,0.1,0
	c0.1-0.1,0.2-0.1,0.2-0.2c0.1-0.1,0.2-0.2,0.4-0.2c0.3-0.2,0.5-0.4,0.6-0.4s0.2-0.2,0.5-0.6c0-0.1,0-0.1,0.1-0.2s0.2-0.1,0.3-0.2
	s0.2-0.1,0.3-0.2c0.3-0.2,0.6-0.5,0.9-0.7c0.3-0.2,0.6-0.4,0.9-0.7c0-0.1,0-0.1,0.1-0.2c0.1,0,0.1-0.1,0.1-0.2
	c-0.3,0.3-0.7,0.5-1,0.8s-0.7,0.5-1.1,0.7c0.1-0.1,0.2-0.3,0.4-0.4c0.1-0.1,0.2-0.2,0.4-0.3c0.1-0.1,0.1-0.1,0.1-0.1l0.1-0.1
	l0.1-0.1c0,0,0-0.1,0.1-0.1c0.2-0.2,0.4-0.3,0.5-0.4l0,0l0,0l0,0l0,0c0.1-0.1,0.2-0.3,0.4-0.4c0.1-0.1,0.2-0.3,0.4-0.4
	c0-0.1,0.1-0.2,0.1-0.3c0.1-0.1,0.1-0.2,0.1-0.3l0,0l0,0c-0.1,0-0.1,0-0.1,0h-0.1h-0.2c-0.1,0.1-0.2,0.1-0.3,0.2s-0.2,0.1-0.3,0.2
	c-0.1,0-0.1,0-0.1,0h-0.1c-0.1,0-0.1,0.1-0.1,0.1l-0.1,0.1c-0.1,0-0.1,0-0.2,0c0,0-0.1,0-0.1,0.1c-0.1,0.1-0.2,0.1-0.2,0.2
	c-0.1,0.1-0.2,0.1-0.2,0.2c-0.1,0.1-0.3,0.3-0.5,0.3c-0.2,0.1-0.4,0.2-0.5,0.2c-0.1-0.1-0.1-0.1-0.1-0.1c-0.1,0.1-0.2,0.1-0.2,0.2
	s-0.1,0.2-0.3,0.2c-0.1,0.1-0.2,0.2-0.3,0.2l-0.1,0.1c0,0-0.1,0-0.2,0.1c-0.1,0-0.2,0.1-0.3,0.2c-0.3,0.1-0.7,0.3-1,0.4
	s-0.7,0.2-1.2,0.2c-0.1-0.1-0.2-0.3-0.4-0.3c-0.2-0.1-0.3-0.2-0.3-0.5c0-0.1,0-0.2,0-0.2c0-0.1,0-0.2,0-0.2c0-0.2,0.1-0.5,0.1-0.7
	s0.1-0.4,0.1-0.6c0-0.1,0-0.1,0.1-0.2c0-0.1,0.1-0.1,0.1-0.2s0-0.2,0.1-0.3c0-0.2,0.1-0.3,0.2-0.5l0,0c0.2-0.4,0.4-0.8,0.5-1.3
	c0.2-0.4,0.3-0.9,0.5-1.3c0.1-0.2,0.2-0.5,0.2-0.7c0.1-0.2,0.2-0.4,0.2-0.6c0.1-0.3,0.2-0.5,0.3-0.6c0-0.1,0.1-0.1,0.1-0.2
	s0-0.1,0.1-0.2c0-0.1,0-0.1,0-0.2s0-0.1,0-0.2v-0.1c0,0,0,0,0-0.1s0-0.2,0-0.2c0-0.1,0-0.1,0-0.2s0-0.1,0-0.2l0.1-0.2
	c0-0.1,0-0.1,0-0.2s0-0.1,0-0.2c0.1-0.6,0.2-1.3,0.3-1.9v-0.4c0.1-0.1,0.1-0.2,0.1-0.4c0-0.1,0-0.1-0.1-0.2c-0.1,0-0.1-0.1-0.1-0.2
	c0,0,0,0,0-0.1s0-0.1,0-0.2s0-0.2,0-0.2c0-0.3-0.2-0.4-0.4-0.5c-0.3-0.2-0.6-0.2-1.1-0.2c-0.4,0-0.7,0.1-1,0.3
	c-0.3,0.1-0.6,0.3-0.8,0.4c-0.1,0.1-0.1,0.1-0.2,0.1c-0.1,0-0.1,0.1-0.2,0.1c-0.1,0.1-0.1,0.1-0.2,0.1c-0.1,0-0.1,0.1-0.2,0.1
	c-0.3,0.3-0.6,0.6-0.9,0.9c-0.3,0.3-0.6,0.6-0.9,0.9c0,0.1-0.1,0.1-0.1,0.2c-0.1,0-0.1,0.1-0.1,0.1s-0.1,0-0.1,0.1
	c-0.2,0.1-0.4,0.3-0.4,0.4c-0.1,0.1-0.2,0.3-0.2,0.4c-0.1,0.1-0.2,0.2-0.3,0.3c-0.1,0.1-0.2,0.2-0.3,0.3c-0.1,0.1-0.2,0.2-0.3,0.3
	c-0.1,0.1-0.2,0.2-0.2,0.4c-0.1,0.1-0.2,0.2-0.3,0.4c0-0.1,0-0.2,0-0.3c0-0.1,0-0.2,0-0.3c0-0.1,0-0.1,0-0.1v-0.1
	c0-0.2,0.1-0.5,0.1-0.7s0-0.4,0.1-0.7v-0.3v-0.6c0-0.3,0-0.6,0-0.7c0-0.2,0-0.3,0-0.4c-0.1-0.1-0.1-0.1-0.1-0.2s0-0.1,0-0.1V76
	c-0.1-0.1-0.1-0.1-0.1-0.2s-0.1-0.2-0.1-0.2c-0.1-0.2-0.1-0.4-0.2-0.5c-0.1-0.2-0.2-0.4-0.4-0.4c-0.1-0.1-0.1-0.1-0.2-0.1
	c-0.1,0-0.1,0-0.2,0c-0.1,0-0.1,0-0.2,0c-0.1,0-0.3,0-0.4,0h-0.3C144.4,74.4,144.3,74.4,144.2,74.4 M130.5,90.8
	C130.5,90.9,130.5,90.9,130.5,90.8C130.5,90.9,130.5,90.9,130.5,90.8 M134.7,75.8c-0.1,0.1-0.2,0.1-0.4,0.2h-0.1H134l0,0v0.1h-0.1
	h-0.1c-0.1,0.1-0.2,0.1-0.3,0.3c-0.1,0.1-0.2,0.2-0.2,0.3l-0.1,0.1c0,0.1,0,0.1,0,0.2c-0.2,0.6-0.4,1.3-0.6,1.8s-0.4,1.2-0.7,1.8
	c-0.1,0.2-0.1,0.3-0.1,0.4s-0.1,0.3-0.1,0.4s-0.1,0.2-0.1,0.4c-0.1,0.1-0.1,0.2-0.1,0.3c0,0.1-0.1,0.2-0.1,0.4
	c-0.1,0.4-0.2,0.7-0.3,1.1s-0.2,0.8-0.3,1.2c0,0.1,0,0.3,0,0.4v0.4c0,0.3,0,0.6,0,0.8c0,0.3-0.1,0.5-0.1,0.8
	c-0.1,0.3-0.1,0.6-0.1,0.9s-0.1,0.6-0.1,0.9v0.5c0,0.1,0,0.2,0,0.4c0,0.1,0,0.2,0,0.4c0,0.1,0,0.2,0,0.4c0,0.1,0,0.2,0.1,0.3
	c0.1,0.2,0.2,0.4,0.3,0.5s0.2,0.3,0.3,0.5c0,0.1,0,0.1,0,0.1v0.1c0.1,0.2,0.2,0.4,0.3,0.5s0.1,0.1,0.2,0.2c0,0,0.1,0.1,0.2,0.2
	c0.1,0.1,0.3,0.2,0.6,0.3h0.2c0.3,0,0.5-0.1,0.8-0.2c0.1,0,0.1,0,0.1,0l0,0c0,0,0,0,0.1,0c0.2-0.1,0.3-0.2,0.4-0.2h0.2l0.1-0.1
	c0,0,0.1-0.1,0.2-0.1c0.6-0.4,1.1-0.7,1.5-1.1c0.5-0.4,0.9-0.8,1.4-1.2c0.1-0.1,0.2-0.2,0.3-0.2s0.2-0.1,0.3-0.2s0.1-0.1,0.1-0.1
	l0.1-0.1c0.1,0,0.2-0.1,0.3-0.2l0.1-0.1c0.1-0.1,0.1-0.1,0.2-0.3c0.1-0.1,0.3-0.1,0.4-0.2c0.1-0.1,0.2-0.2,0.3-0.3v-0.1
	c0,0,0,0,0-0.1c0.2-0.3,0.4-0.5,0.7-0.7c0.1-0.1,0.1-0.1,0.2-0.2c0.1-0.1,0.2-0.2,0.2-0.2c0.1-0.1,0.3-0.3,0.4-0.5
	c0.1-0.2,0.2-0.4,0.4-0.5c0,0,0.1-0.1,0.2-0.3c0.1-0.1,0.1-0.2,0.2-0.3c0.1-0.1,0.1-0.2,0.2-0.3c0,0,0-0.1,0.1-0.1
	c0.1-0.1,0.1-0.2,0.1-0.1c0-0.1,0-0.2,0-0.2c0-0.1,0-0.1,0-0.2v-0.1c0,0,0,0,0-0.1c0.2-0.3,0.4-0.5,0.6-0.7c-0.1-0.1-0.1-0.2,0-0.2
	c0-0.1,0.1-0.1,0.1-0.2c-0.2,0-0.4,0-0.5,0.1s-0.3,0.1-0.4,0.2H142c-0.1,0-0.1,0-0.2,0c0,0-0.1,0.1-0.2,0.1
	c-0.2,0.2-0.5,0.4-0.7,0.7c-0.2,0.2-0.4,0.4-0.7,0.6c-0.1,0-0.1,0.1-0.3,0.2s-0.3,0.2-0.5,0.4c-0.2,0.1-0.3,0.2-0.5,0.4
	c-0.1,0.1-0.3,0.2-0.4,0.3c-0.1,0.1-0.2,0.2-0.4,0.3l-0.2,0.2c-0.3,0.3-0.6,0.6-0.8,0.7s-0.5,0.4-0.8,0.6c-0.1,0.1-0.2,0.2-0.5,0.4
	c-0.1,0.1-0.1,0.1-0.2,0.2c-0.1,0.1-0.2,0.2-0.2,0.2c-0.1,0.1-0.3,0.2-0.4,0.3c-0.1,0.1-0.3,0.2-0.5,0.2c-0.1,0.1-0.1,0.1-0.1,0.1
	h-0.3h-0.3c-0.1-0.4,0-0.7,0.2-0.9c0.2-0.2,0.3-0.5,0.4-0.8c0-0.1,0-0.1,0-0.2s0-0.1,0-0.2s0-0.1,0-0.1v-0.1
	c0.1-0.6,0.3-1.1,0.5-1.4c0.2-0.4,0.4-0.8,0.6-1.3c0.1-0.3,0.2-0.5,0.3-0.8s0.2-0.6,0.2-0.9c0-0.1,0.1-0.1,0.1-0.2s0-0.2,0.1-0.2
	c0-0.1,0.1-0.1,0.1-0.2s0-0.2,0-0.2c0-0.1,0.1-0.3,0.1-0.4s0.1-0.2,0.1-0.3c0,0,0-0.1,0.1-0.2c0-0.1,0-0.2,0-0.2
	c0-0.1,0.1-0.2,0.1-0.3c0-0.1,0.1-0.2,0.1-0.3v-0.1v-0.1v-0.1v-0.1c0,0,0,0,0-0.1s0-0.1,0-0.1V80l0,0v-0.1c0,0,0-0.1,0.1-0.1v-0.1
	c0,0,0,0,0-0.1s0-0.1,0-0.2v-0.3c0-0.5-0.1-0.9-0.3-1.1c0,0,0-0.1-0.1-0.2c0-0.1,0-0.1,0-0.2s0-0.2,0-0.3c0-0.2-0.1-0.3-0.1-0.5
	c0-0.1-0.1-0.3-0.2-0.4c-0.1-0.1-0.3-0.2-0.4-0.3c-0.1,0-0.2,0-0.3,0s-0.2,0-0.4-0.1H135C134.9,75.7,134.8,75.7,134.7,75.8
	 M136.6,74.1C136.6,74.1,136.6,74,136.6,74.1c0.2-0.1,0.3-0.2,0.3-0.2c0.1,0,0.1-0.1,0.2-0.1c0.1-0.1,0.3-0.1,0.4-0.2
	c0.2-0.1,0.3-0.2,0.3-0.3c0.1-0.3,0.2-0.6,0.3-0.9s0.2-0.7,0.2-1.2s-0.1-0.8-0.2-1.1c-0.1-0.1-0.3-0.3-0.4-0.4
	c-0.1-0.1-0.3-0.2-0.5-0.3c-0.2,0.1-0.4,0.1-0.5,0.1c-0.2,0-0.4,0.1-0.6,0.1c0,0.1,0,0.2-0.1,0.2c-0.4,0.2-0.8,0.5-1.1,1
	c-0.3,0.4-0.4,0.9-0.4,1.4c0,0.2,0,0.3,0.1,0.4s0.1,0.3,0.2,0.4c0,0.2,0.1,0.4,0.2,0.5c0.1,0.1,0.1,0.2,0.2,0.4h0.2
	c0.1-0.1,0.1-0.1,0.1-0.2s0.1-0.1,0.2-0.1c0.1,0.1,0.1,0.1,0.1,0.2s0,0.2,0.1,0.3c0.1,0,0.1,0,0.1-0.2c0-0.1,0.1-0.2,0.2-0.2
	c0.1,0,0.2,0.1,0.3,0.2c0,0.1,0.1,0.2,0.3,0.2C136.6,74.2,136.6,74.2,136.6,74.1 M120.9,89.3L120.9,89.3
	C121,89.3,121,89.3,120.9,89.3L120.9,89.3L120.9,89.3z M106.6,88.8L106.6,88.8C106.7,88.8,106.7,88.8,106.6,88.8
	C106.7,88.9,106.6,88.9,106.6,88.8C106.7,88.9,106.6,88.8,106.6,88.8 M106.8,88.8L106.8,88.8L106.8,88.8L106.8,88.8
	c0.1,0.1,0.1,0.1,0.1,0.2C106.9,89,106.8,89,106.8,88.8C106.8,88.9,106.8,88.9,106.8,88.8L106.8,88.8
	C106.8,88.8,106.8,88.9,106.8,88.8C106.9,88.9,106.8,88.8,106.8,88.8 M106.6,88.6C106.7,88.6,106.7,88.6,106.6,88.6
	c0,0.1,0,0.1,0,0.2l0,0V88.6z M107,88.7C107,88.6,106.9,88.6,107,88.7C106.9,88.7,106.9,88.7,107,88.7L107,88.7
	C106.9,88.6,106.9,88.6,107,88.7C106.9,88.7,107,88.6,107,88.7C107,88.6,107,88.6,107,88.7L107,88.7C107,88.6,107,88.6,107,88.7
	L107,88.7L107,88.7C107,88.8,107,88.8,107,88.7C106.9,88.8,106.9,88.7,107,88.7 M107,88.5L107,88.5C107,88.6,107,88.6,107,88.5
	C106.9,88.5,106.9,88.6,107,88.5C106.9,88.5,106.9,88.5,107,88.5 M106.9,88.4C106.9,88.4,107,88.4,106.9,88.4L106.9,88.4L106.9,88.4
	z M107.2,88.3c0-0.1,0.1-0.1,0.1-0.2C107.3,88.2,107.3,88.2,107.2,88.3C107.2,88.3,107.2,88.3,107.2,88.3
	C107.2,88.4,107.2,88.4,107.2,88.3C107.2,88.4,107.2,88.4,107.2,88.3C107.1,88.4,107.1,88.4,107.2,88.3 M107.2,88.2
	C107.2,88.2,107.2,88.1,107.2,88.2C107.2,88.2,107.2,88.2,107.2,88.2L107.2,88.2L107.2,88.2C107.1,88.2,107.2,88.3,107.2,88.2
	 M108,73.7c-0.2,0.2-0.5,0.4-0.7,0.5c0,0.1-0.1,0.2-0.2,0.3c0,0.1,0,0.1,0,0.1l-0.1,0.2v0.1c0,0.1-0.1,0.1-0.1,0.2
	c-0.1,0.2-0.2,0.5-0.3,0.7c-0.1,0.3-0.1,0.5-0.2,0.8c-0.2,1-0.4,1.9-0.6,2.9s-0.4,1.9-0.7,2.8c-0.1,0.6-0.3,1.2-0.4,1.8
	c-0.1,0.6-0.3,1.3-0.4,1.9c-0.1,0.7-0.2,1.4-0.2,2.1s-0.1,1.5-0.1,2.2l0,0v0.5c0,0.1,0,0.2,0,0.3v0.1c0,0.1,0,0.1,0,0.2s0,0.1,0,0.2
	c0.1,0.2,0.2,0.3,0.3,0.4l0,0c0.1,0,0.1-0.1,0-0.1c0,0,0,0,0-0.1c0.2-0.1,0.4-0.1,0.6-0.2s0.4-0.2,0.4-0.4c0.1,0,0.1-0.1,0.1-0.1
	l0.1-0.1c0.1-0.3,0.2-0.6,0.4-0.9l0.2-0.2h0.2c0.1-0.1,0.1-0.2,0.1-0.3c0-0.1,0.1-0.2,0.1-0.4l0,0l0,0c0-0.1,0.1-0.1,0.1-0.2
	s0.1-0.2,0.1-0.3c0.1,0,0.1,0,0.1,0s0,0,0.1,0c0-0.2,0-0.4,0.1-0.6c0.1-0.1,0.1-0.3,0.1-0.6c0.1,0,0.2,0,0.2,0c0,0.1,0,0.1,0,0.1
	s0,0,0,0.1v-0.1v-0.1h0.1c0,0,0,0,0.1,0c0.1-0.1,0.2-0.4,0.2-0.6c0-0.3,0-0.5,0.1-0.6h0.1c0-0.1,0.1-0.3,0.1-0.4s0.1-0.3,0.2-0.4
	c0.1-0.4,0.3-0.7,0.5-1.1s0.3-0.7,0.4-1.1c0-0.1,0-0.2,0-0.3c0,0,0-0.1,0.1-0.1c0.1-0.1,0.1-0.3,0.2-0.5c0-0.2,0.1-0.3,0.2-0.4
	c0-0.1,0-0.1,0-0.1v-0.1c0.1-0.1,0.1-0.3,0.2-0.4s0.1-0.1,0.2-0.2s0.1-0.1,0.2-0.2l0.6-0.6c0.2-0.2,0.4-0.5,0.6-0.7s0.4-0.4,0.6-0.6
	s0.5-0.4,0.7-0.5c0.2-0.2,0.5-0.4,0.7-0.5c0.1-0.1,0.3-0.2,0.4-0.3c0.1-0.1,0.2-0.2,0.4-0.3c0.1-0.1,0.2-0.2,0.4-0.2
	c0.1-0.1,0.3-0.1,0.5-0.1c0.1,0.1,0.1,0.2,0,0.3c0,0.1-0.1,0.2,0,0.4c0,0.1,0,0.1,0,0.1v0.1c0,0.1,0,0.3,0,0.4s-0.1,0.2-0.1,0.4
	c0,0.1,0,0.2,0,0.3s0,0.2,0,0.3c0,0.1,0,0.2,0,0.2c0,0.1,0,0.2,0,0.2c-0.2,0.7-0.4,1.4-0.6,2c-0.2,0.7-0.4,1.3-0.6,2
	c0,0.1-0.1,0.2-0.1,0.3c0,0.1-0.1,0.2-0.1,0.3c0,0.1-0.1,0.2-0.1,0.2c0,0.1-0.1,0.1-0.1,0.2c0,0.2,0,0.5-0.1,0.7
	c-0.1,0.3,0,0.5,0.2,0.6h0.4l0.1-0.4c0.2-0.1,0.4-0.2,0.5-0.4c0.1-0.2,0.2-0.4,0.5-0.5c-0.1,0.1-0.1,0.2-0.2,0.3
	c-0.1,0.1-0.1,0.2-0.2,0.3c0.1,0,0.1,0,0.1-0.1l0.1-0.1c0-0.1,0.1-0.2,0.2-0.3c0.1-0.1,0.2-0.2,0.2-0.3c0.4-0.4,0.8-0.9,1.1-1.3
	c0.4-0.4,0.8-0.8,1.2-1.2c0.5-0.5,1-0.9,1.5-1.4s1-0.9,1.6-1.3c0.4-0.3,0.8-0.5,1.2-0.7c0.4-0.2,0.8-0.5,1.3-0.7
	c0,0.2-0.1,0.4-0.2,0.6s-0.2,0.3-0.2,0.5c-0.2,0.4-0.4,0.8-0.5,1.3c-0.2,0.4-0.3,0.9-0.5,1.3c-0.1,0.1-0.1,0.3-0.2,0.5
	s-0.2,0.4-0.2,0.5c0,0.2-0.1,0.4-0.2,0.6s-0.1,0.4-0.2,0.6c-0.1,0.5-0.2,1-0.3,1.5c-0.1,0.5-0.1,1.1-0.2,1.6h-0.1c0,0,0,0-0.1,0
	c0,0.1,0.1,0.3,0.1,0.4s0,0.3,0,0.5v0.1l0.1,0.1v0.4c0,0.2,0.1,0.4,0.2,0.5s0.2,0.3,0.2,0.4c0.1,0,0.1,0,0.1,0l0.1,0.1
	c0.1,0.2,0.2,0.4,0.4,0.5c0.1,0.2,0.3,0.3,0.5,0.4l0.2,0.1v0.1c0,0,0,0,0,0.1c0.1,0.1,0.3,0.2,0.4,0.3c0.2,0,0.3-0.1,0.5-0.2
	c0.1,0,0.1,0,0.1,0s0,0,0.1,0h0.1c0,0,0,0,0.1,0h0.1h0.1l0,0l0,0h0.1c0.1,0,0.2,0,0.3,0s0.2,0,0.3,0c0.3-0.1,0.6-0.1,0.9-0.2
	c0.3-0.1,0.5-0.2,0.8-0.2l0.1-0.2c0.1,0,0.2,0,0.3-0.1s0.1-0.2,0.2-0.2l0.1-0.1c0,0,0.1-0.1,0.2-0.1c0.3-0.2,0.6-0.4,0.9-0.6
	c0.3-0.2,0.6-0.5,0.8-0.8v-0.1c0.4-0.2,0.8-0.5,1.1-0.8s0.7-0.6,1-0.9l0.1-0.1v-0.1c0,0,0,0,0-0.1c0.1-0.1,0.1-0.1,0.1-0.2l0,0
	c-0.3,0.3-0.6,0.5-0.9,0.8c-0.3,0.3-0.6,0.5-0.9,0.7l0,0c0.2-0.2,0.5-0.5,0.8-0.7c0-0.2,0.1-0.3,0.2-0.4c0.1-0.1,0.2-0.2,0.4-0.3
	l0,0l0,0c0.1-0.1,0.2-0.3,0.4-0.4c0.1-0.1,0.2-0.3,0.4-0.4c0-0.1,0-0.2,0.1-0.2c0,0,0.1-0.1,0.1-0.2v-0.1c-0.1-0.1-0.1-0.1-0.1-0.2
	c-0.1,0-0.2,0-0.4,0c-0.1,0-0.3,0.1-0.4,0.2c-0.1,0.1-0.2,0.2-0.3,0.2s-0.1,0-0.1,0h-0.1l-0.2,0.2c-0.1,0.1-0.1,0.1-0.1,0.1
	s-0.1,0-0.1,0.1c-0.1,0.1-0.3,0.3-0.4,0.4c-0.1,0.1-0.3,0.2-0.4,0.4c-0.1,0-0.1,0.1-0.1,0.1s-0.1,0-0.1,0.1
	c-0.1,0.1-0.2,0.1-0.3,0.1l0,0c0,0,0,0-0.1,0s-0.1,0-0.1,0.1s-0.1,0.1-0.1,0.1c-0.1,0.1-0.2,0.1-0.3,0.2c-0.4,0.4-0.8,0.7-1.3,1
	c-0.4,0.3-1,0.6-1.5,0.8v-0.1v-0.1v-0.1v-0.1c0-0.1,0-0.2,0-0.3c0-0.1,0-0.2,0-0.2c0-0.1,0-0.3,0-0.5c0-0.1,0-0.2,0-0.5
	c0-0.1,0-0.1,0-0.2s0-0.1,0-0.2s0-0.3,0-0.5c0-0.1,0-0.3,0.1-0.4c0.1-0.5,0.3-1,0.5-1.6c0.2-0.5,0.3-1,0.5-1.5l0.1-0.4V82
	c0-0.1,0-0.2,0.1-0.2c0.1-0.3,0.2-0.6,0.3-0.9s0.2-0.6,0.3-0.9c0-0.1,0-0.2,0-0.3c0-0.1,0-0.2,0.1-0.3c0-0.1,0.1-0.2,0.1-0.3
	c0-0.1,0-0.2,0-0.3c0-0.3,0.1-0.6,0.2-0.8c0-0.1,0-0.1,0-0.1v-0.1v-0.2c0-0.1,0-0.2,0-0.2c0-0.1,0-0.1,0-0.1s0,0,0-0.1s0-0.1,0-0.2
	s0-0.2,0-0.3c0,0,0-0.1,0-0.2c-0.1-0.1-0.1-0.3,0-0.6c0-0.1,0-0.3-0.1-0.4s-0.2-0.2-0.3-0.2c-0.1-0.1-0.3-0.1-0.4-0.2
	c-0.3-0.1-0.6-0.2-1-0.2c-0.1,0-0.3,0.1-0.4,0.1s-0.3,0.1-0.4,0.2c-0.4,0.1-0.6,0.2-0.8,0.3c-0.3,0.1-0.5,0.2-0.8,0.3
	c-0.3,0.1-0.5,0.2-0.7,0.3c-0.8,0.4-1.5,0.7-2.2,1.2c-0.7,0.4-1.3,0.9-2,1.4c-0.2,0.2-0.4,0.3-0.6,0.5s-0.4,0.3-0.6,0.5
	c-0.1,0.1-0.2,0.1-0.3,0.3c-0.1,0.1-0.3,0.3-0.4,0.4s-0.3,0.3-0.4,0.4c0.1-0.3,0.1-0.6,0.2-0.9s0.1-0.6,0.2-0.9s0.1-0.6,0.2-0.9
	s0.1-0.6,0-0.9c-0.1,0-0.1,0.1,0,0.2s0,0.1,0,0.2c-0.1,0-0.1-0.1,0-0.1s0-0.1,0-0.1c0-0.1,0-0.1-0.1-0.1s-0.1,0-0.1-0.1
	c-0.1-0.2-0.1-0.4-0.2-0.5c-0.1-0.2-0.2-0.3-0.2-0.5c-0.2-0.1-0.5-0.2-0.8-0.1s-0.5,0.2-0.7,0.2c-0.1,0.1-0.2,0.1-0.3,0.2
	c-0.1,0-0.2,0.1-0.3,0.2c-0.5,0.3-1,0.7-1.4,1c-0.4,0.4-0.9,0.7-1.3,1c0.1-0.3,0.1-0.7,0.2-1c0-0.4,0.1-0.8,0.1-1.2v-0.4
	c0-0.1,0-0.1,0-0.2s0-0.1,0-0.2s0-0.3,0-0.4s0-0.2-0.1-0.4c0-0.2,0-0.4-0.1-0.7c-0.1-0.3-0.4-0.5-0.8-0.7c-0.1,0-0.1,0-0.2,0
	s-0.1-0.1-0.1-0.1s0-0.1-0.1-0.1c-0.1-0.1-0.1-0.1-0.2-0.1s-0.2,0-0.3-0.1c-0.1,0-0.1-0.1-0.2-0.1s-0.2,0-0.2,0h-0.3
	C108.6,73.4,108.3,73.5,108,73.7 M80.9,91c-0.2,0.1-0.3,0.1-0.5,0.1c-0.1-0.1-0.2-0.3-0.2-0.5s-0.1-0.4-0.1-0.6S80,89.6,80,89.5
	c-0.1-0.2,0-0.3,0-0.5c-0.1-0.4-0.1-0.9-0.2-1.3c-0.1-0.5-0.1-0.9,0-1.3c0.1,0,0.1,0,0.1,0s0,0,0.1,0c0-0.5,0-0.9,0-1.3s0-0.8,0-1.3
	c0-0.4,0.1-0.8,0.2-1.2c0.1-0.4,0.2-0.8,0.3-1.2c0.1-0.3,0.2-0.6,0.2-1s0.1-0.7,0.2-1.1c0-0.1,0.1-0.4,0.2-0.7
	c0-0.2,0.1-0.4,0.2-0.6v-0.1c0.1-0.1,0.2-0.2,0.2-0.3c0-0.1,0.1-0.2,0.2-0.3c0.3-0.1,0.5-0.2,0.8-0.4c0.3-0.1,0.6-0.2,0.9-0.3
	c0-0.1,0-0.1-0.1,0s-0.1,0-0.1-0.1s0.1-0.1,0.3-0.2c0.1-0.1,0.2-0.1,0.4-0.1c0.1,0,0.2-0.1,0.4-0.1c0.4-0.1,0.7-0.1,1-0.1l0.1,0.1
	c0,0,0.1,0,0.1,0.1h0.1c0,0,0.1,0,0.2,0c0.2,0.1,0.5,0.1,0.8,0.1s0.5,0.1,0.8,0.1c0,0.1,0.1,0.1,0.1,0.1s0.1,0,0.1,0.1
	c0.1,0.1,0.2,0.2,0.5,0.4c0.2,0.1,0.3,0.1,0.4,0.2s0.2,0.2,0.2,0.5c0.1,0.2,0.2,0.4,0.2,0.5c0.1,0.1,0.1,0.3,0,0.6
	c-0.1,0.7-0.4,1.3-0.7,2c-0.3,0.6-0.6,1.2-0.8,1.7l-0.1,0.1c-0.2,0.4-0.4,0.8-0.5,1.3c-0.2,0.4-0.4,0.9-0.5,1.3
	c-0.2,0.4-0.4,0.9-0.5,1.3c-0.2,0.5-0.3,0.9-0.6,1.3c-0.1,0.4-0.3,0.7-0.5,0.9c-0.2,0.3-0.4,0.5-0.6,0.8c-0.3,0.2-0.5,0.5-0.8,0.7
	s-0.6,0.4-1,0.4c-0.1,0.1-0.3,0.1-0.4,0.1s-0.2,0.1-0.4,0.1C81.2,90.9,81.1,90.9,80.9,91 M91.5,78.1c0,0.2,0,0.3,0,0.3
	C91.5,78.4,91.5,78.3,91.5,78.1c0.1-0.1,0.1-0.4,0.2-0.8c-0.1-0.1-0.2-0.3-0.2-0.4s0-0.3,0-0.4c-0.1,0-0.2-0.1-0.2-0.2
	s-0.1-0.3-0.2-0.5c-0.1,0-0.1,0-0.1,0s-0.1,0-0.1-0.1s-0.1-0.2-0.2-0.3c0-0.1,0-0.2-0.1-0.2s-0.2-0.1-0.2-0.2s-0.1-0.1-0.1,0
	c0,0,0,0.1-0.1,0c-0.1-0.3-0.2-0.4-0.4-0.5c-0.1-0.1-0.1,0,0.2,0.4c-0.5-0.1-0.8-0.2-1-0.4c-0.1,0-0.2,0-0.3,0
	c-0.1,0-0.2-0.1-0.3-0.1c-0.2,0.1-0.4,0.1-0.6,0v0.1c0,0,0,0-0.1,0c-0.1-0.1-0.3-0.1-0.4-0.1s-0.2,0-0.3,0.1c-0.1-0.1-0.2-0.1-0.4,0
	c-0.1,0.1-0.2,0.1-0.3,0c0.1-0.1,0.1-0.1,0.3-0.2c0.1,0,0.2-0.1,0.3-0.1c-0.1,0-0.3,0.1-0.4,0.1s-0.3,0.1-0.5,0.1v0.1v0.1v-0.1
	l-0.1,0.1c0,0-0.1,0.1-0.1,0c-0.1,0-0.1,0,0-0.1s0-0.1,0-0.1c-0.6,0.1-1.2,0.3-1.7,0.4S83,75,82.5,75c0-0.1,0-0.3,0.1-0.4
	s0.1-0.3,0.2-0.4s0.1-0.3,0.1-0.4s0.1-0.3,0.2-0.4v-0.2c0.2-0.5,0.4-1,0.6-1.5s0.4-0.9,0.6-1.4c0-0.3,0.1-0.6,0.2-0.8
	c0.1-0.2,0.2-0.4,0.3-0.7c0.1,0,0.1,0,0.1-0.1c0,0,0-0.1,0.1-0.1c0.1-0.2,0.2-0.4,0.3-0.6c0.1-0.2,0.2-0.4,0.3-0.7
	c0.1-0.1,0.2-0.3,0.3-0.4c0-0.2,0.1-0.3,0.2-0.5c0-0.1,0-0.1,0-0.1s0,0,0-0.1c0.1-0.1,0.3-0.3,0.4-0.5s0.2-0.4,0.3-0.6
	c0.1-0.1,0.3-0.3,0.3-0.4c0.1-0.2,0.2-0.4,0.2-0.5c0.2-0.3,0.4-0.7,0.6-1s0.3-0.8,0.3-1.3c0.1-0.2,0.1-0.4,0.1-0.5
	c0-0.2,0-0.4,0.1-0.6c0-0.1,0-0.1,0-0.1v-0.1c0-0.3,0-0.6-0.1-0.8c-0.1-0.2-0.2-0.5-0.3-0.7c-0.2-0.2-0.4-0.5-0.6-0.8
	s-0.4-0.5-0.7-0.6c-0.1,0-0.2,0-0.2,0c-0.1,0-0.2,0-0.2,0c-0.5,0.1-0.9,0.2-1.2,0.5c-0.3,0.2-0.7,0.5-0.9,0.8c0,0.1,0,0.1,0,0.1
	s0,0,0,0.1c-0.2,0.2-0.4,0.4-0.5,0.7c-0.1,0.3-0.2,0.5-0.4,0.8c-0.1,0.1-0.2,0.2-0.2,0.3c0,0.1-0.1,0.2-0.1,0.3
	c0,0.1-0.1,0.2-0.1,0.3c-0.1,0.3-0.2,0.5-0.3,0.8c-0.1,0.2-0.2,0.5-0.3,0.8c-0.1,0.1-0.1,0.2-0.2,0.2c0,0.1-0.1,0.2-0.1,0.3
	c-0.2,0.3-0.4,0.6-0.4,0.9c-0.1,0.3-0.3,0.7-0.4,1s-0.2,0.7-0.3,1.1c-0.1,0.2-0.3,0.5-0.4,0.8s-0.2,0.6-0.2,0.9
	c-0.1,0.4-0.3,0.7-0.4,1.1s-0.3,0.7-0.5,1.1v0.2c-0.1,0.1-0.1,0.2-0.1,0.2c0,0.1,0,0.2,0,0.3c-0.2,0.4-0.3,0.9-0.4,1.3
	c-0.1,0.5-0.2,0.9-0.4,1.4c0,0.1-0.1,0.1-0.1,0.2s-0.1,0.1,0,0.2c-0.1,0.4-0.2,0.7-0.3,1c-0.1,0.3-0.2,0.7-0.2,1
	c-0.1,0.4-0.3,0.9-0.4,1.3c-0.1,0.5-0.2,1-0.2,1.5c-0.2,1-0.4,2.1-0.5,3.3c-0.1,1.2-0.1,2.4,0.1,3.6c0.1,0.5,0.1,1,0.2,1.5
	s0.2,0.9,0.3,1.3c0.1,0.2,0.1,0.4,0.2,0.6s0.1,0.3,0.2,0.5c0,0.1,0.1,0.2,0.1,0.3c0,0.1,0.1,0.2,0.1,0.2c0,0.1,0.1,0.1,0.1,0.1
	l0.1,0.1c0,0.1,0,0.1,0,0.2s0,0.1,0,0.2c0.1,0.5,0.3,0.9,0.6,1.1c0.3,0.6,0.7,0.9,1.4,1c0.1,0.2,0.3,0.3,0.6,0.4
	c0.2,0.1,0.5,0.1,0.7,0.1h0.4c0.1,0,0.3,0,0.4-0.1c0.1,0,0.2-0.1,0.3-0.1c0.1-0.1,0.2-0.1,0.3-0.2c0.3-0.1,0.5-0.2,0.8-0.3
	c0.3-0.1,0.6-0.2,0.9-0.3c0.1-0.1,0.2-0.3,0.3-0.3c0.1-0.1,0.2-0.2,0.3-0.3c0.3-0.2,0.5-0.4,0.7-0.7c0.2-0.2,0.4-0.5,0.6-0.7
	c0-0.2,0.1-0.3,0.2-0.4c0.2-0.4,0.4-0.7,0.6-1.1s0.4-0.7,0.6-1.1c0.1-0.1,0.1-0.3,0.2-0.4c0-0.1,0.1-0.2,0.2-0.4
	c0.1-0.4,0.3-0.8,0.4-1.1c0.1-0.4,0.3-0.7,0.5-1.1c0.1-0.1,0.1-0.2,0.2-0.3c0-0.1,0.1-0.2,0.2-0.2c0,0.1,0,0.1,0,0.1
	c0.1-0.2,0.1-0.4,0.2-0.5c0.1-0.2,0.2-0.4,0.2-0.5c-0.1,0-0.1,0.1-0.1,0.1s0,0.1-0.1,0c0.1-0.2,0.1-0.5,0.3-0.7
	c0.1-0.2,0.2-0.4,0.3-0.7c0.2-0.3,0.3-0.6,0.4-0.9s0.2-0.7,0.3-1c0.1-0.4,0.3-0.9,0.4-1.4s0.2-0.9,0.3-1.4v-0.2
	C91.4,77.6,91.4,77.9,91.5,78.1 M58.2,90.5c0.1,0,0.1,0.1,0.1,0.2c-0.1,0-0.1,0-0.2,0c0,0-0.1-0.1-0.2-0.1
	C58,90.5,58.1,90.5,58.2,90.5 M74.8,90.1c0.2,0,0.4,0,0.6,0c-0.3,0.1-0.7,0.2-1.2,0.1C74.4,90.2,74.6,90.2,74.8,90.1 M76.2,89.8
	c-0.1,0.1-0.3,0.1-0.4,0.1S75.5,90,75.3,90C75.7,89.9,76,89.8,76.2,89.8 M57.7,88.8c0-0.3-0.1-0.6-0.2-0.9
	C57.6,88.2,57.7,88.4,57.7,88.8c0.2,0.3,0.2,0.6,0.3,0.8C57.9,89.4,57.8,89.1,57.7,88.8 M58.2,85.9C58.1,85.9,58.1,85.9,58.2,85.9
	c0-0.1,0.1-0.2,0.2-0.1l0,0v-0.1c0.1-0.1,0.2-0.3,0.2-0.5s0-0.4,0.1-0.6c0,0.1,0,0.3,0,0.7c0.1,0,0.1-0.1,0-0.2c0-0.1,0-0.1,0-0.2
	s0-0.1,0-0.1c0.1,0,0.1,0,0.1,0c0-0.1,0-0.3,0-0.5s0-0.3,0.1-0.6c0.2-0.1,0.4-0.3,0.5-0.4c0.2-0.1,0.4-0.2,0.7-0.3
	c0.4-0.1,0.7-0.2,1.2-0.2c0.4-0.1,0.9-0.1,1.3,0.1c-0.6-0.1-1.2-0.2-1.8,0c-0.6,0.1-1.2,0.3-1.5,0.6c0,0,0-0.1,0.1-0.2
	s0.1-0.1,0.2-0.1c0-0.1,0-0.1,0-0.1s0.1,0,0.1-0.1c0.4-0.1,0.8-0.3,1.3-0.4s1-0.2,1.6-0.1c0.1,0,0.1,0,0.2,0s0.1,0,0.2,0
	s0.2,0,0.2,0c0.1,0,0.1,0,0.2,0.1c-0.1,0.3-0.2,0.6-0.3,0.9c-0.1,0.3-0.2,0.6-0.4,0.9c-0.1,0.4-0.1,0.7-0.3,1
	c-0.1,0.3-0.2,0.6-0.3,0.9c-0.1,0.4-0.3,0.8-0.4,1.2c-0.1,0.5-0.3,0.9-0.4,1.3c-0.2,0.4-0.4,0.7-0.7,0.9c-0.3,0.2-0.7,0.3-1.2,0.4
	c-0.1,0-0.1,0-0.1,0l0,0c-0.3,0-0.5,0-0.6-0.1s-0.2-0.3-0.3-0.4c-0.1-0.2-0.1-0.4-0.1-0.6s-0.1-0.4-0.1-0.5h-0.1H58
	c0-0.1,0-0.2,0-0.2c0-0.3,0-0.6-0.1-1C57.9,86.8,58,86.4,58.2,85.9L58.2,85.9C58.2,85.8,58.2,85.8,58.2,85.9 M78.8,87.5
	C78.8,87.4,78.9,87.4,78.8,87.5l0.2-0.2c-0.1,0.1-0.1,0.1-0.1,0s0-0.1,0-0.1c-0.2,0.1-0.5,0.2-0.7,0.2c-0.1-0.1-0.1-0.3-0.1-0.4
	c0-0.2,0.1-0.3,0.1-0.4c-0.4,0.2-0.8,0.4-1.3,0.6c-0.4,0.2-0.9,0.4-1.4,0.5c-0.3,0.1-0.5,0.2-0.7,0.2c-0.2,0.1-0.5,0.1-0.7,0
	s-0.4-0.1-0.6-0.2c-0.4-0.1-0.7-0.2-1.1-0.4c-0.4-0.2-0.7-0.3-1-0.5c-0.3-0.3-0.6-0.6-1-0.7s-0.7-0.4-1-0.7c-0.1,0-0.2-0.1-0.2-0.1
	c0-0.1-0.1-0.1-0.2-0.1c-0.1-0.2-0.3-0.3-0.5-0.4s-0.3-0.3-0.5-0.5c0.1-0.4,0.3-0.8,0.5-1.1c0.2-0.3,0.4-0.7,0.4-1.1
	c0.1,0,0.1,0,0.1,0l0.1-0.1c0.1-0.3,0.2-0.6,0.3-0.8c0.2-0.2,0.3-0.4,0.3-0.8c0.2-0.2,0.3-0.4,0.4-0.7c0.1-0.3,0.2-0.5,0.4-0.7
	c0.1-0.3,0.2-0.6,0.3-0.8c0.1-0.3,0.2-0.5,0.3-0.8c0.1-0.1,0.2-0.3,0.2-0.4s0.1-0.2,0.2-0.4l0.1-0.1c0-0.1,0.1-0.1,0.1-0.2
	s0-0.2,0.1-0.2c0.1-0.3,0.3-0.6,0.5-0.9s0.3-0.6,0.4-0.9c0.2-0.2,0.3-0.4,0.4-0.7c0.1-0.3,0.2-0.5,0.3-0.7c0.1,0,0.1,0,0.1,0
	s0,0,0.1,0c0.1-0.2,0.1-0.4,0.3-0.6c0.1-0.2,0.2-0.4,0.3-0.6c0-0.1,0.1-0.1,0.1-0.2s0.1-0.1,0.1-0.2c0.1-0.1,0.1-0.3,0.1-0.4
	s0.1-0.2,0.2-0.4l0,0l0,0c0.1-0.1,0.2-0.3,0.3-0.4c0.1-0.2,0.1-0.3,0.2-0.5c0.2-0.3,0.3-0.6,0.5-0.9c0.1-0.3,0.3-0.6,0.4-1
	c0.1-0.1,0.1-0.2,0.1-0.3c0-0.1,0.1-0.3,0.1-0.4s0.1-0.2,0.1-0.4c0.1-0.1,0.1-0.3,0-0.4c0.1-0.2,0.3-0.5,0.4-0.8s0.2-0.6,0.2-0.9
	c0.2-0.4,0.3-0.8,0.4-1.2c0.1-0.4,0.1-0.9,0-1.3c0-0.1,0-0.2,0-0.4c-0.1-0.1-0.1-0.3-0.2-0.5c0-0.2-0.1-0.4-0.1-0.5
	c-0.1-0.2-0.2-0.4-0.4-0.7c-0.2-0.2-0.3-0.4-0.2-0.5c-0.1-0.1-0.1-0.1-0.1,0c0,0,0,0.1-0.1,0c-0.2-0.4-0.5-0.7-0.9-1
	c-0.4-0.2-0.7-0.5-1-0.7c-0.2-0.1-0.4-0.1-0.5-0.2s-0.2-0.1-0.4-0.2c-1.5-0.1-2.8,0.1-4.2,0.7c-1.3,0.6-2.3,1.4-3.1,2.2
	c-0.2,0.1-0.3,0.3-0.5,0.5c-0.1,0.2-0.3,0.3-0.4,0.5c-0.2,0.2-0.3,0.4-0.4,0.6c-0.1,0.1-0.2,0.3-0.4,0.5c0,0.1-0.1,0.1-0.1,0.2
	s-0.1,0.1-0.2,0.2c-0.1,0.2-0.2,0.4-0.3,0.5c-0.1,0.1-0.2,0.3-0.2,0.5c-0.1,0.3-0.2,0.6-0.3,0.9c0,0.3-0.1,0.6-0.2,0.9
	s-0.1,0.6-0.1,0.9c0,0.2-0.1,0.4-0.1,0.6s-0.1,0.4,0,0.5c0,0.1,0,0.1,0,0.1v0.1c0.1,0.2,0.1,0.5,0.1,0.8s0.1,0.5,0.2,0.8
	c0.1,0.1,0.3,0.2,0.4,0.2c0.1,0.1,0.3,0.1,0.6,0c0.1,0,0.1-0.1,0.2-0.1c0,0,0.1,0,0.2,0c0.1-0.3,0.2-0.7,0.3-1.1
	c0-0.4,0.1-0.8,0-1.2c0.1-0.3,0.1-0.5,0.2-0.7s0.1-0.5,0.2-0.8c0.1-0.1,0.2-0.3,0.2-0.5s0-0.3,0.1-0.4l0,0l0,0
	c0.1-0.2,0.2-0.4,0.3-0.7c0.1-0.1,0.1-0.2,0.2-0.3c0-0.1,0.1-0.2,0.2-0.4c0,0,0,0,0.1,0c0.1-0.1,0.2-0.2,0.2-0.4
	c0.1-0.1,0.2-0.3,0.2-0.4c0.1-0.1,0.1-0.1,0.2-0.2s0.1-0.1,0.2-0.2s0.1-0.1,0.1-0.2s0.1-0.1,0.1-0.2h0.1c0.1-0.1,0.1-0.2,0.1-0.2
	c0.1-0.1,0.2-0.2,0.3-0.2c0.1,0,0.2-0.1,0.3-0.2c0.1-0.1,0.1-0.1,0.2-0.2s0.1-0.1,0.2-0.2s0.3-0.2,0.4-0.3c0.1-0.1,0.3-0.2,0.4-0.2
	l0.1-0.1c0,0,0.1,0,0.1-0.1c0.3-0.1,0.5-0.1,0.6-0.3c0.2,0,0.4-0.1,0.6-0.2s0.4-0.1,0.6,0c0,0.1,0,0.1,0.1,0.1c0,0,0.1,0,0,0.1
	c0.4,0.3,0.6,0.7,0.7,1.1c0,0.2,0,0.5,0,0.7c-0.1,0.3-0.1,0.5-0.2,0.8C72,62.5,72,62.7,72,62.8c0,0.2,0,0.4-0.1,0.5
	c-0.1,0.3-0.1,0.6-0.2,0.9c-0.1,0.3-0.2,0.6-0.3,0.9c-0.1,0.2-0.2,0.4-0.3,0.6s-0.1,0.4-0.3,0.6c-0.1,0.3-0.2,0.5-0.4,0.8
	c-0.1,0.3-0.3,0.6-0.5,0.8c0,0.1,0,0.1,0,0.1s0,0,0,0.1c-0.1,0.2-0.2,0.4-0.2,0.5c-0.2,0.3-0.3,0.5-0.5,0.9
	c-0.2,0.3-0.3,0.6-0.5,0.9c-0.6,1.3-1.2,2.6-1.8,4c-0.1,0.4-0.2,0.6-0.3,0.8c-0.1,0.3-0.2,0.6-0.3,0.9C66.1,76.4,66,76.7,66,77
	c-0.1,0.1-0.1,0.3-0.2,0.4s-0.1,0.2-0.2,0.4c-0.1,0.4-0.3,0.7-0.4,1.1s-0.3,0.7-0.4,0.9c0,0.1,0,0.1,0,0.1s0,0,0,0.1
	c-0.1,0.1-0.2,0.3-0.3,0.5c0,0.2-0.1,0.4-0.3,0.5c-0.2-0.1-0.4-0.2-0.4-0.4c-0.2-0.1-0.4-0.2-0.6-0.2s-0.4-0.1-0.6-0.2
	c0.2,0.1,0.4,0.1,0.5,0.1c0.2,0,0.3,0,0.5,0.1c-0.1-0.1-0.3-0.2-0.5-0.3c-0.5-0.1-1-0.2-1.6,0c-0.5,0.1-1,0.3-1.3,0.4
	c-0.1,0.1-0.3,0.1-0.5,0.1s-0.3,0.1-0.5,0.1c-0.2,0.1-0.4,0.2-0.7,0.4c-0.3,0.2-0.6,0.5-0.9,0.9s-0.4,0.7-0.5,1.1
	c0,0.1-0.1,0.2-0.1,0.3c0,0.1-0.1,0.2-0.1,0.4c-0.1,0.3-0.1,0.6-0.1,0.9c0,0.4,0,0.7,0,0.9c0.1,0.4,0.1,0.8,0.1,1.1
	c0,0.4,0.1,0.7,0.2,0.9c0.1,0.1,0.1,0.1,0.1,0.2s0.1,0.2,0.1,0.3c0.1,0.1,0.1,0.2,0.2,0.3c0.1,0.2,0.1,0.3,0.1,0.5
	c0,0.1,0.1,0.3,0.1,0.4s0.1,0.2,0.2,0.3c0.1,0.1,0.1,0.2,0.2,0.3c0.1,0.1,0.1,0.2,0.2,0.3c0.1,0.1,0.2,0.2,0.3,0.3
	c0,0.2,0.1,0.4,0.1,0.6c0.1,0.2,0.1,0.3,0,0.5c0.1,0.1,0.2,0.2,0.4,0.2l0,0c0.1,0,0.1,0,0.2,0c0,0,0.1,0.1,0.2,0.1
	c0.2,0,0.4,0,0.5,0c0.2-0.1,0.4-0.1,0.5,0c0.1,0,0.2,0,0.2,0.1c0.1,0,0.1,0.1,0.2,0.1s0.2,0,0.3,0c0.1,0,0.2,0,0.3,0
	c0.1,0,0.1,0.1,0.1,0.1s0,0.1,0.1,0.1s0.2,0,0.3-0.1c0-0.1,0.1-0.1,0.2-0.2H62c0.2-0.1,0.4-0.3,0.5-0.5s0.3-0.4,0.7-0.4
	c0.1-0.1,0.1-0.2,0.2-0.2c0.1-0.1,0.2-0.1,0.2-0.2c0.2,0,0.4-0.1,0.5-0.3c0.1-0.2,0.2-0.4,0.4-0.6h0.1c0.1-0.5,0.4-0.7,0.8-0.7
	c0.1-0.2,0.1-0.5,0.2-0.7s0.2-0.4,0.4-0.5c0,0.3,0,0.3,0,0.2s0.1-0.1,0.1-0.2h0.1c0.1-0.2,0.2-0.4,0.2-0.6s0.1-0.4,0.2-0.7
	c0.1-0.1,0.1-0.3,0.2-0.4c0-0.1,0.1-0.2,0.2-0.3c0.3,0.1,0.5,0.3,0.7,0.6c0.2,0.2,0.4,0.5,0.6,0.7c0.4,0.3,0.7,0.5,1.1,0.8
	c0.4,0.2,0.7,0.5,1.1,0.8c0.1,0,0.1,0,0.1,0h0.1c0.1,0.1,0.1,0.2,0.2,0.2s0.2,0.1,0.3,0.2c0.5,0.3,1.1,0.6,1.7,0.8
	c0.6,0.2,1.3,0.4,1.9,0.5c0,0,0,0,0-0.1s0-0.1,0.1,0v0.1l0,0c0.6-0.1,1-0.2,1.4-0.4c0.4-0.2,0.8-0.4,1.2-0.6
	c-0.1-0.1-0.1-0.1-0.1-0.1s0,0,0-0.1c0.1-0.1,0.3-0.2,0.4-0.3c0.1-0.1,0.3-0.2,0.4-0.3c-0.1,0-0.2,0-0.2,0c-0.1,0-0.1,0-0.2,0
	c0,0,0-0.1,0-0.3c0.2-0.1,0.4-0.2,0.6-0.4C78.6,87.9,78.8,87.7,78.8,87.5L78.8,87.5C78.9,87.5,78.8,87.5,78.8,87.5 M35.8,90L35.8,90
	L35.8,90L35.8,90L35.8,90z M32.3,76c0.1-0.1,0.2-0.2,0.3-0.2c0.2,0.1,0.4,0.1,0.4,0.3c0.1,0.1,0.2,0.2,0.2,0.4c0,0.1,0,0.1-0.1,0.2
	C33,76.9,33,77.2,33,77.5s-0.1,0.5-0.1,0.8c-0.4,0.1-0.7,0.2-1.1,0.2c-0.2,0-0.4,0-0.5-0.1s-0.1-0.1-0.1-0.2s0.1-0.2,0.2-0.3v-0.1
	c0,0,0,0,0-0.1c0.1-0.1,0.1-0.1,0.1-0.1c0.1-0.1,0.1-0.2,0.2-0.3c0.1-0.1,0.1-0.2,0.2-0.3c0.1-0.1,0.2-0.3,0.4-0.6
	C32.2,76.1,32.2,76.1,32.3,76 M37.4,92.8h0.2c0.1-0.1,0.2-0.1,0.2-0.1h0.1c0,0,0,0,0.1,0c0.2,0,0.3,0,0.4-0.1
	c0.1-0.1,0.2-0.1,0.4-0.2c0.1-0.1,0.3-0.1,0.4-0.2c0.1-0.1,0.2-0.2,0.3-0.3c0.1-0.1,0.1-0.1,0.2-0.1c0.1,0,0.1-0.1,0.2-0.1
	c0.2-0.1,0.4-0.3,0.5-0.4c0.1-0.2,0.3-0.3,0.5-0.4c0.1-0.1,0.2-0.3,0.3-0.4s0.2-0.2,0.3-0.4c0.4-0.3,0.7-0.6,1.1-1
	c0.4-0.3,0.7-0.7,1-1.1c0.1-0.1,0.2-0.2,0.3-0.2c0.1-0.1,0.2-0.2,0.3-0.3v-0.1v-0.1c0.1-0.1,0.2-0.2,0.3-0.3
	c0.1-0.1,0.2-0.2,0.3-0.3c0.1-0.1,0.1-0.2,0.2-0.3c0.1-0.1,0.1-0.2,0.2-0.2l0.2-0.2c0-0.1,0.1-0.1,0.1-0.1s0,0,0.1,0
	c0-0.1,0-0.1,0-0.2s0-0.1,0-0.1l0,0c0-0.1,0-0.1,0-0.1c0-0.1,0.1-0.2,0.2-0.3c-0.1-0.1-0.1-0.1-0.1-0.1V85v-0.1
	c0-0.1,0.1-0.2,0.1-0.3c-0.1,0-0.1-0.1-0.2-0.1c0,0-0.1,0-0.2,0h-0.1c-0.1,0-0.2,0-0.3,0.1s-0.2,0.2-0.3,0.2
	c-0.2,0.2-0.4,0.4-0.6,0.5c-0.2,0.2-0.4,0.4-0.5,0.5c-0.4,0.4-0.8,0.7-1.2,1s-0.8,0.7-1.2,1c-0.1,0-0.1,0.1-0.1,0.1L41,88
	c0,0.2,0,0.2,0,0.3c0,0-0.1,0-0.1,0.1c-0.3,0.2-0.6,0.4-0.9,0.6c-0.2,0.2-0.5,0.4-0.9,0.6c-0.1,0.1-0.1,0.1-0.2,0.2
	c-0.1,0-0.2,0.1-0.3,0.1s-0.2-0.1-0.2-0.2s0-0.2,0-0.2c0-0.1,0-0.1,0-0.1s0,0,0-0.1c0.1-0.1,0.1-0.1,0.1-0.2s0-0.1,0-0.2
	s0-0.1,0-0.2c0-0.2,0.1-0.4,0.1-0.5c0-0.2,0-0.4,0-0.6c0-0.1,0-0.1,0-0.1v-0.1l0,0l0,0c0-0.1,0-0.1,0-0.1v-0.1v-0.1v-0.3
	c0-0.3,0.1-0.5,0.2-0.7c0.1-0.2,0.1-0.4,0.2-0.7c0-0.1,0-0.2,0-0.2c0-0.1,0-0.1,0-0.1s0,0,0-0.1s0-0.1,0-0.2
	c0.1-0.1,0.1-0.2,0.1-0.2c0-0.1,0-0.1,0-0.2s0-0.1,0-0.2s0-0.1,0-0.2c0,0,0-0.1,0-0.2c0.1-0.1,0.1-0.2,0.1-0.3c0-0.1,0-0.1,0-0.2
	s0-0.1,0-0.2l0.1-0.2c0.1-0.3,0.3-0.6,0.4-0.9c0.1-0.3,0.2-0.6,0.4-0.9c0.1-0.1,0.1-0.1,0.1-0.2s0-0.1,0-0.1v-0.1
	c0.1-0.1,0.1-0.2,0.2-0.3c0-0.1,0.1-0.2,0.1-0.3V80c0,0,0,0,0-0.1c0,0,0-0.1,0.1-0.1c0.1-0.1,0.1-0.1,0.1-0.2s0.1-0.2,0.1-0.2
	c0-0.1,0.1-0.1,0.1-0.1l0.1-0.1c0.1-0.1,0.1-0.2,0.2-0.5c0-0.1,0-0.1,0-0.2s0-0.1,0-0.2v-0.1v-0.1c0.1-0.3,0.1-0.6,0.1-0.9
	c-0.1-0.3-0.2-0.6-0.4-0.8h-0.1v-0.1c0,0,0,0,0-0.1c-0.2-0.3-0.5-0.6-0.8-0.8c-0.1-0.1-0.2-0.1-0.4-0.3c-0.1-0.1-0.3-0.1-0.5,0
	c-0.2,0-0.3,0.1-0.5,0.1c-0.1,0.1-0.3,0.1-0.4,0.2c-0.1,0-0.2,0.1-0.4,0.2c-0.6,0.3-1.3,0.5-1.9,0.8c-0.6,0.3-1.3,0.6-1.9,0.9
	c-0.1,0.1-0.2,0.1-0.4,0.2c-0.1,0-0.3,0.1-0.4,0.1c0-0.1,0.1-0.3,0.1-0.4s0.1-0.2,0.1-0.4v-0.3c0.1-0.1,0.1-0.2,0.1-0.3
	c0-0.1,0-0.2,0.1-0.3c0-0.1,0-0.1,0-0.2s0-0.1,0-0.2c0.1-0.1,0.1-0.2,0.1-0.3l-0.1-0.1c0.1-0.2,0.1-0.4,0-0.5
	c-0.1-0.2-0.2-0.3-0.3-0.4s-0.2-0.2-0.4-0.3s-0.2-0.2-0.3-0.2c-0.1,0.1-0.1,0.1-0.2,0l0,0c-0.1,0-0.1,0.1-0.1,0.1v0.1
	C32.1,74,31.8,74,31.6,74s-0.5,0.1-0.7,0.1c-0.1,0-0.3,0-0.4,0c-0.1,0-0.2,0-0.3,0c-0.2,0.1-0.3,0.1-0.5,0.2s-0.3,0.2-0.4,0.4
	c0.7,0.5,0.5,1,0.2,1.5c-0.1,0.1-0.1,0.2-0.1,0.2c0,0.1-0.1,0.2-0.1,0.2c0,0.1-0.1,0.2-0.1,0.3c0,0.1,0,0.2,0,0.3c0,0.1,0,0.1,0,0.2
	s0,0.1,0,0.2v0.1v0.1c0,0.1,0,0.3,0,0.6c0,0.1,0,0.3,0.1,0.5l0.1,0.1c0.1,0.1,0.1,0.1,0.1,0.2s0.1,0.1,0.1,0.2
	c0.1,0.1,0.1,0.1,0.2,0.1c0.4,0.3,1,0.5,1.7,0.6c-0.1,0.2-0.2,0.4-0.3,0.6c-0.1,0.3-0.3,0.5-0.5,0.8s-0.3,0.5-0.5,0.8
	c-0.1,0.2-0.2,0.4-0.3,0.5c-0.1,0.2-0.2,0.4-0.3,0.5s-0.1,0.2-0.2,0.3c0,0.1-0.1,0.2-0.2,0.2c-0.1,0.1-0.1,0.1-0.2,0.3
	c0,0.1-0.1,0.1-0.1,0.1l-0.1,0.1v0.1v0.1c-0.1,0.1-0.1,0.2-0.2,0.3c0,0.1-0.1,0.2-0.2,0.3c-0.1,0.1-0.1,0.3-0.2,0.4
	c-0.1,0.1-0.1,0.2-0.2,0.4V86c0,0.1-0.1,0.1-0.1,0.1l-0.1,0.1l0,0c0,0.1,0.1,0,0.2,0h0.1h0.1c-0.1,0.2,0,0.4,0.1,0.5
	c0.1,0.2,0.3,0.3,0.5,0.2c0.1,0,0.2-0.1,0.2-0.2c0.2,0,0.4-0.1,0.5-0.3c0.1-0.1,0.2-0.1,0.3-0.2s0.2-0.1,0.3-0.2s0.2-0.2,0.3-0.3
	c0.1-0.1,0.2-0.2,0.2-0.4c0-0.1,0.1-0.2,0.1-0.3c0-0.1,0.1-0.1,0.1-0.2c0.1-0.1,0.2-0.3,0.3-0.5c0,0,0,0,0-0.1c0,0,0-0.1,0.1-0.1
	s0.1-0.1,0.1-0.1h0.1c0-0.1,0-0.1,0-0.2c0.1-0.1,0.1-0.2,0.3-0.4c-0.1,0.1-0.2,0.2-0.2,0.3c0.1-0.4,0.3-0.8,0.5-1.1
	c0-0.1,0.1-0.1,0.1-0.2s0.1-0.1,0.1-0.2c0.1-0.1,0.1-0.1,0.2-0.2c0.1,0,0.1-0.1,0.1-0.2c0-0.2,0-0.3,0-0.4c0,0,0-0.1,0.1-0.2
	c0-0.1,0.1-0.1,0.1-0.1s0-0.1,0.1-0.1c0.1-0.1,0.1-0.1,0.1-0.2s0-0.2,0-0.2c0-0.1,0.1-0.2,0.1-0.3c0.1-0.1,0.1-0.2,0.2-0.2
	c0.2-0.2,0.3-0.4,0.4-0.5c0.7-0.2,1.3-0.5,2-0.7c0.6-0.2,1.3-0.5,2-0.7c0,0.1,0,0.3-0.1,0.5s-0.2,0.4-0.3,0.6s-0.2,0.4-0.3,0.6
	c-0.1,0.1-0.1,0.3-0.2,0.4c-0.1,0.1-0.1,0.3-0.2,0.4c-0.1,0.1-0.1,0.2-0.1,0.4c0,0.1-0.1,0.2-0.1,0.4c0,0.1,0,0.2,0,0.3
	c-0.1,0.1-0.1,0.1-0.1,0.2v0.1c0,0.1,0,0.1,0,0.1v0.1L36,83c-0.1,0.1-0.1,0.2-0.1,0.2c0,0.1-0.1,0.2-0.1,0.2
	c-0.1,0.2-0.1,0.4-0.2,0.6c-0.1,0.2-0.1,0.4-0.2,0.5c-0.1,0.2-0.1,0.4-0.1,0.6s0,0.4-0.1,0.6L35.1,87c0,0.1-0.1,0.2-0.1,0.3
	c0,0.1,0,0.2,0,0.3c-0.1,0.3-0.1,0.7,0,1c0,0.3,0.1,0.7,0.2,0.9c0.1,0.6,0.3,1.1,0.6,1.5c0.1,0.1,0.1,0.1,0.2,0.2
	c0,0.1,0.1,0.1,0.2,0.2l0.1,0.1c0.1,0,0.1,0,0.2,0.1c0.1,0.1,0.1,0.1,0.2,0.2c0,0.1,0.1,0.2,0.2,0.3c0.1,0.1,0.1,0.3,0.2,0.4
	s0.2,0.2,0.4,0.2h-0.1V92.8z M15.3,82.7l-0.1,0.1c0-0.1,0-0.2,0-0.3c0-0.1,0-0.2,0-0.3V82l0,0l0,0c0-0.1,0.1-0.2,0.1-0.4
	c0.1-0.4,0.1-0.7,0.2-1.1s0.2-0.7,0.3-1c0-0.1,0-0.1,0-0.1v-0.1c0-0.1,0-0.2,0-0.2c0.1-0.1,0.1-0.2,0.1-0.3c0-0.1,0.1-0.2,0.1-0.4
	c0-0.1,0-0.1,0-0.2s0-0.1,0-0.2c0.1-0.1,0.1-0.2,0.1-0.4c0-0.1,0-0.2,0.1-0.4c0.1-0.4,0.1-0.7,0.2-1s0.2-0.7,0.2-1
	c0-0.1,0.1-0.3,0.1-0.4s0.1-0.2,0.1-0.4c0.1-0.1,0.1-0.3,0.1-0.4s0.1-0.2,0.1-0.4c0.1-0.1,0.1-0.3,0.1-0.4s0.1-0.3,0.1-0.4
	s0-0.2,0-0.4c0.1-0.4,0.2-0.7,0.3-1c0-0.1,0-0.1,0-0.2c0,0,0-0.1,0-0.2s0-0.2,0-0.4c0-0.1,0-0.2,0-0.3c0-0.1,0.1-0.2,0.1-0.3
	c0-0.1,0-0.1,0-0.2c0,0,0-0.1,0-0.2s0-0.1,0-0.2s0-0.1,0-0.2v-0.1c0,0,0,0,0-0.1s0-0.1,0-0.1v-0.1c0-0.1,0-0.1,0-0.1s0,0,0-0.1v-0.2
	v-0.1l0.1-0.1c0.1-0.1,0.1-0.1,0.1-0.2s0.1-0.1,0.1-0.2c0,0,0-0.1,0.1-0.2l0.1-0.4l0.3-0.8c0-0.1,0-0.1,0-0.2s0-0.2,0-0.3v-0.1v-0.1
	c0.1-0.1,0.1-0.2,0.2-0.5c0.1-0.1,0.1-0.2,0.1-0.3c0-0.1,0-0.2,0-0.3c0-0.2,0.1-0.4,0.2-0.6c0.1-0.2,0.1-0.4,0.2-0.6
	c0-0.1,0.1-0.2,0.1-0.4c0-0.1,0.1-0.2,0.2-0.2h0.1c0.1,0.1,0.1,0.1,0.1,0.2v0.1v0.1l0.1,0.1c0.1,0.1,0.2,0.3,0.2,0.6L20,65v0.6v0.1
	c0,0.2,0,0.4,0,0.6s0,0.4-0.1,0.5c-0.1,0.6-0.1,1.1-0.2,1.6s-0.2,1-0.2,1.5c0,0.1-0.1,0.3-0.1,0.4s-0.1,0.2-0.1,0.4
	c-0.1,0.1-0.1,0.1-0.1,0.2c-0.1,0.2-0.2,0.5-0.2,0.7c-0.1,0.2-0.1,0.4-0.2,0.7c-0.1,0.2-0.1,0.3-0.2,0.4s-0.1,0.2-0.1,0.3
	c0,0.1-0.1,0.2-0.1,0.3c-0.1,0.1-0.1,0.1-0.1,0.2v0.4l-0.1,0.5l-0.4,0.9c-0.1,0.1-0.1,0.2-0.1,0.2c0,0.1-0.1,0.1-0.1,0.2
	c-0.1,0.2-0.1,0.3-0.1,0.4c-0.1,0.2-0.1,0.3-0.2,0.5c0.8,0.6,0.7,0.8,0.7,0.9c-0.1,0.1-0.1,0.1-0.1,0.1l-0.1,0.2
	c-0.1,0.4-0.3,0.9-0.5,1.3s-0.4,0.8-0.6,1.3c-0.2,0.3-0.3,0.6-0.5,0.9s-0.3,0.6-0.5,0.9c0,0.1-0.1,0.1-0.1,0.2c0,0-0.1,0.1-0.1,0.2
	C15.4,82.7,15.4,82.7,15.3,82.7 M19.6,61.3c-0.1,0.1-0.2,0.1-0.3,0.2s-0.2,0-0.4,0.1h-0.1h-0.1v0.1c0,0,0,0,0,0.1
	c-0.3,0.2-0.6,0.5-0.8,0.8c-0.2,0.3-0.4,0.6-0.6,0.9c-0.1,0.1-0.2,0.3-0.3,0.5c-0.1,0.2-0.2,0.4-0.3,0.5v0.1v0.1l-0.1,0.1
	c-0.1,0-0.1,0.1-0.1,0.1s-0.1,0.1-0.1,0.2c-0.1,0.2-0.3,0.5-0.3,0.7c-0.1,0.2-0.2,0.5-0.2,0.7c-0.2,0.7-0.4,1.4-0.6,2.1
	s-0.4,1.4-0.5,2.2c-0.1,0.4-0.2,0.7-0.2,1.1c-0.1,0.4-0.2,0.7-0.3,1l0,0c0,0.1,0,0.2,0,0.3c-0.1,0.7-0.3,1.4-0.5,2
	c-0.2,0.7-0.3,1.4-0.4,2.1c-0.1,0.2-0.1,0.4-0.1,0.5c0,0.2-0.1,0.4-0.1,0.6c-0.1,0.4-0.2,0.7-0.2,1.1c-0.1,0.4-0.1,0.8-0.2,1.2
	c-0.1,0.2-0.1,0.4-0.1,0.6s-0.1,0.4-0.1,0.6c0,0.1,0,0.1,0,0.1s0,0,0,0.1l0,0c-0.1,0.4-0.1,0.9-0.2,1.3s-0.1,0.9-0.2,1.3
	c0,0.1,0,0.3-0.1,0.6c-0.1,0.3-0.2,0.6-0.3,1c-0.2,0.7-0.4,1.4-0.5,2.1s-0.2,1.5-0.3,2.3v0.5c0,0.2,0,0.4,0,0.5s0,0.2,0,0.3
	c0,0.1,0,0.2,0,0.3c0,0.1,0,0.1,0,0.1v0.1c0.1,0.1,0.1,0.3,0.1,0.5s0.1,0.3,0.2,0.5c0.1,0.1,0.2,0.1,0.2,0.1l0,0l0,0l0,0v-0.1
	c0,0,0,0,0.1-0.1c0,0.1,0.1,0.1,0.2,0.1s0.1,0,0.1,0.1c0.1-0.1,0.1-0.1,0.2,0c0-0.2,0-0.3,0.1-0.3c0-0.2,0.1-0.4,0.3-0.6l0.1,0.1
	c0-0.1,0.1-0.2,0.1-0.4c0-0.1,0.1-0.2,0.1-0.3l0,0c0,0,0,0,0.1,0c0,0,0,0,0.1,0c0,0,0.1,0,0.2,0.1c0-0.1,0-0.3,0.1-0.4
	c0-0.1,0.1-0.1,0.1-0.2s0-0.2,0.1-0.2l0.1-0.1c0-0.1,0-0.2,0-0.2s0-0.1,0-0.2l0.1-0.1c0-0.1,0-0.2,0-0.3c0.1-0.1,0.1-0.3,0.1-0.4
	s0.1-0.2,0.1-0.4H14l0.1-0.1c0.1-0.1,0.1-0.1,0.2-0.2c0-0.1,0-0.2,0-0.3c0.2-0.4,0.3-0.8,0.5-1.3c0.2-0.4,0.4-0.8,0.6-1.1v-0.1
	c0,0,0,0,0-0.1v-0.1l0,0c0-0.1,0-0.1,0.1-0.1s0.1-0.1,0-0.2c0.1,0,0.2-0.1,0.2-0.2c0.1-0.1,0.1-0.1,0.2-0.2l0,0
	c0.3-0.3,0.5-0.6,0.8-0.8c0.3-0.3,0.6-0.5,0.9-0.8c0.3-0.2,0.5-0.5,0.7-0.7s0.5-0.5,0.7-0.8c0.1,0,0.1-0.1,0.2-0.2s0.1-0.1,0.2-0.1
	s0.1-0.1,0.2-0.1c0.2-0.2,0.5-0.4,0.7-0.6c0.3-0.2,0.5-0.4,0.8-0.6c0.2-0.1,0.3-0.2,0.5-0.4c0.1,0,0.1-0.1,0.2-0.1v-0.1
	c0,0,0,0,0-0.1c0.2-0.4,0.5-0.6,0.9-0.7c-0.2,0.4-0.4,0.8-0.7,1.1l-0.1,0.1c0,0.1-0.1,0.1-0.1,0.2s0,0.1-0.1,0.2s-0.1,0.3-0.2,0.5
	s-0.1,0.3-0.2,0.5c-0.1,0.3-0.2,0.5-0.3,0.6c-0.2,0.5-0.4,1-0.6,1.6c-0.1,0.6-0.3,1.2-0.4,1.8c-0.1,0.2-0.1,0.5-0.2,0.7
	s-0.1,0.5-0.2,0.7s-0.1,0.5-0.2,0.7c0,0.2-0.1,0.5-0.1,0.8c0,0.5,0,1,0.1,1.4s0.2,0.8,0.3,1.3c0,0.1,0.1,0.1,0.1,0.2
	c0,0,0,0.1,0,0.2c0,0.2,0,0.4,0,0.4c0.1,0.8,0.4,1.6,0.8,2.2c0.1,0,0.3,0,0.4-0.1c0.1,0.1,0.2,0.1,0.4,0.1l0.1,0.1
	c0.1,0.1,0.4,0.2,0.6,0.2h0.1h0.1l0,0V95h0.1c0.6-0.2,1.2-0.5,1.7-0.8l0.8-0.5c0.1-0.1,0.2-0.2,0.4-0.3c0.1-0.1,0.2-0.2,0.3-0.4
	c0,0,0,0,0.1,0l0.1-0.1l0.1-0.1H26l0,0l0,0l0,0l0.1-0.1c0.1,0,0.1-0.1,0.2-0.1c0,0,0.1,0,0.2,0l0,0c0-0.1,0.1-0.1,0.1-0.1
	s0.1-0.1,0.2-0.1c0.1-0.1,0.1-0.1,0.1-0.1l0.1-0.1c0.1-0.1,0.2-0.2,0.3-0.2c0-0.1,0.1-0.2,0.2-0.3c0.1-0.1,0.2-0.2,0.2-0.3
	c0.2-0.3,0.4-0.5,0.7-0.7c0.2-0.2,0.5-0.4,0.8-0.7c0-0.1,0.1-0.2,0.1-0.2c0-0.1,0.1-0.1,0.2-0.2c0.1-0.1,0.3-0.3,0.4-0.4
	c0.1-0.1,0.2-0.3,0.4-0.4c0.1-0.1,0.1-0.2,0.2-0.4c0.1-0.1,0.1-0.1,0.1-0.2s0-0.1,0.1-0.2s0.1-0.2,0.2-0.3c0.1-0.1,0.1-0.1,0.2-0.2
	l0.1-0.1c0-0.1,0-0.1,0-0.2V87c0-0.1,0-0.1,0.1-0.1h0.1c0-0.2,0-0.3,0.1-0.4l0,0h-0.1c0,0-0.1,0.1-0.1,0s0-0.1,0-0.1l0.1-0.1
	c-0.1,0.1-0.3,0.1-0.4,0.2c-0.1,0.1-0.3,0.2-0.5,0.2c0-0.1,0.1-0.2,0.2-0.2c0.1,0,0.1-0.1,0.2-0.2h-0.1c0,0-0.1,0-0.2,0
	c0,0-0.1,0-0.1,0.1l-0.1,0.1c-0.3,0.2-0.5,0.5-0.8,0.7s-0.5,0.4-0.7,0.7c-0.3,0.3-0.6,0.5-0.9,0.8c-0.3,0.2-0.6,0.5-0.9,0.7
	c-0.4,0.3-0.8,0.6-1.2,0.9c-0.4,0.3-0.8,0.6-1.3,0.8c-0.1,0-0.1,0.1-0.2,0.2s-0.2,0.1-0.3,0.2l-0.4,0.4c-0.1,0.1-0.1,0.1-0.2,0.2
	s-0.2,0.1-0.3,0.2c-0.1,0-0.1,0-0.2-0.1c0-0.1,0-0.2,0-0.3c-0.1-0.2-0.1-0.5,0-0.7c0-0.2,0.1-0.5,0.1-0.7l0.1-0.9
	c0-0.1,0.1-0.3,0.1-0.4s0.1-0.3,0.1-0.4s0-0.3,0.1-0.4s0.1-0.2,0.1-0.4c0,0,0-0.1,0-0.3v-0.1v-0.1c0.1-0.1,0.1-0.1,0.1-0.1v-0.1
	c0,0,0-0.1,0-0.2c0.1-0.2,0.1-0.4,0.2-0.6s0.1-0.4,0.2-0.6c0-0.1,0-0.1,0-0.1v-0.1v-0.3c0-0.2,0.1-0.3,0.2-0.5s0.1-0.3,0.2-0.5
	c0-0.1,0.1-0.2,0.1-0.2c0-0.1,0-0.2,0.1-0.2c0.1-0.2,0.1-0.4,0.2-0.4c0-0.1,0-0.2,0-0.2c0-0.1,0.1-0.2,0.1-0.2c0-0.1,0-0.1,0-0.2
	s0-0.1,0-0.1v-0.1c0.1-0.3,0.2-0.5,0.3-0.8c0.1-0.2,0.2-0.5,0.3-0.7c0.1-0.1,0.1-0.3,0.2-0.5c0-0.2,0.1-0.3,0.1-0.5
	c0-0.1,0-0.2,0-0.3c0-0.1,0-0.2,0-0.3c0-0.1,0-0.1,0-0.2c0,0,0-0.1,0-0.2s0-0.1,0-0.1v-0.1c0-0.1,0-0.2,0.1-0.3s0.1-0.2,0.1-0.3
	c0-0.1,0-0.2-0.1-0.3c-0.1-0.1-0.1-0.3-0.2-0.4c0-0.1-0.1-0.3-0.2-0.5c0,0,0,0,0,0.1v0.1c0,0,0-0.1,0-0.2s0-0.2-0.1-0.2
	s-0.1,0-0.1,0.1s0,0.1,0,0.1c-0.1-0.1-0.1-0.1-0.1-0.2s-0.1-0.1-0.1-0.2c-0.1-0.1-0.1-0.1-0.2-0.1s-0.1-0.1-0.2-0.1H25l0,0l0,0l0,0
	c-0.6,0.1-1,0.2-1.4,0.3c-0.1,0.1-0.2,0.1-0.3,0.2c-0.1,0.1-0.2,0.1-0.3,0.2c-0.1,0.1-0.2,0.1-0.3,0.2c-0.1,0.1-0.2,0.2-0.3,0.2
	c0-0.1,0-0.1-0.1-0.1s-0.1,0.1-0.1,0.1c-0.4,0.4-0.8,0.7-1.2,1.1c-0.4,0.4-0.7,0.7-1.1,1.1c-0.2,0.2-0.4,0.4-0.6,0.6
	s-0.4,0.4-0.6,0.6l-1.2,1.2c0.1-0.3,0.2-0.5,0.4-0.8c0.1-0.3,0.2-0.6,0.4-0.8c0.1-0.1,0.1-0.3,0.2-0.4s0.1-0.2,0.2-0.4
	c0.1-0.1,0.1-0.2,0.2-0.4c0.1-0.1,0.1-0.3,0.2-0.5c0,0,0.1-0.1,0.1-0.2c0.1-0.1,0.1-0.2,0.1-0.4c0-0.1,0.1-0.3,0.1-0.4
	c0,0,0.1-0.1,0.1-0.2s0.1-0.1,0.1-0.1s0-0.1,0.1-0.1c0.1-0.3,0.2-0.5,0.2-0.8c0.1-0.3,0.2-0.5,0.3-0.8c0.1-0.1,0.1-0.3,0.2-0.4
	s0.1-0.3,0.2-0.4v-0.1l0,0c0-0.1,0.1-0.1,0.1-0.1s0,0,0-0.1s0-0.1,0-0.2s0-0.1,0-0.2c0.1-0.1,0.1-0.2,0.1-0.3v-0.1v-0.1V74
	c0,0,0,0,0-0.1v-0.1v-0.1c0-0.1,0.1-0.1,0.1-0.2s0.1-0.2,0.1-0.3c0.1-0.1,0.1-0.2,0.1-0.3c0-0.1,0.1-0.3,0.1-0.4s0-0.2,0.1-0.4
	c0-0.1,0.1-0.2,0.1-0.3c0-0.1,0-0.1,0-0.2s0-0.1,0-0.2s0.1-0.2,0.1-0.3c0-0.1,0.1-0.2,0.1-0.4c0.1-0.2,0.1-0.4,0.1-0.6
	s0.1-0.4,0.1-0.7v-0.2v-0.1c0,0,0,0,0-0.1v-0.1v-0.1v-0.4v-0.1v-0.1c0.1-0.1,0.1-0.2,0.1-0.4c0-0.1,0-0.2,0.1-0.4
	c0.1-0.1,0.1-0.3,0.1-0.5s0-0.3,0-0.5c0-0.3,0.1-0.6,0.1-0.9s0-0.6,0-0.8c0-0.1,0-0.2,0-0.3s0-0.2,0-0.2s0-0.1-0.1-0.2
	c0-0.1-0.1-0.1-0.1-0.2s0-0.2-0.1-0.2c0-0.1,0-0.1,0-0.1v-0.1c-0.1-0.1-0.2-0.2-0.3-0.5c0-0.1-0.1-0.1-0.1-0.1l-0.1-0.1
	c0,0-0.1-0.1-0.1-0.2c-0.1-0.1-0.1-0.2-0.2-0.3C21,62.1,20.9,62,20.9,62c0.2-0.7,0.1-0.8,0-0.8c-0.1-0.1-0.2-0.1-0.3-0.2
	c-0.1,0-0.1,0-0.2,0s-0.1,0-0.2,0H20C19.9,61,19.7,61.1,19.6,61.3 M5.4,58.4c-0.1,0.1-0.1,0.1-0.3,0.1C5.2,58.4,5.2,58.4,5.4,58.4
	 M4.3,59.2l-0.1,0.1L4.3,59.2z M10.5,59.3c0-0.2-0.1-0.4-0.2-0.5s-0.1-0.3-0.2-0.5v-0.1C10,58,9.9,57.8,9.7,57.6S9.4,57.2,9.2,57
	c-0.1,0.1-0.1,0-0.2,0c0-0.1-0.1-0.1-0.1-0.2c-0.1,0-0.1,0-0.2,0c-0.1,0-0.1,0-0.2,0c0,0-0.1,0-0.1-0.1c-0.2,0.1-0.4,0.1-0.5,0
	c-0.2,0-0.3,0-0.4,0.1c-0.1,0-0.2,0.1-0.4,0.1c-0.1,0-0.2,0-0.4,0.1c-0.1,0.1-0.2,0.2-0.4,0.3c-0.1,0.3-0.2,0.5-0.4,0.7
	c-0.2,0.1-0.4,0.3-0.6,0.4c-0.1-0.1-0.1-0.1-0.2-0.1c0,0-0.1,0-0.2-0.1c0.1,0,0.2-0.1,0.2-0.3c-0.1,0-0.2,0-0.2,0
	c0.1-0.1,0.2-0.1,0.3-0.2c0.1,0,0.2-0.1,0.3-0.2c-0.2,0-0.4,0.1-0.6,0.2c-0.1,0.1-0.3,0.2-0.5,0.4c-0.1,0.1-0.3,0.2-0.4,0.3
	c-0.1,0.1-0.3,0.2-0.4,0.3c-0.7,0.6-1.3,1.2-1.9,1.8c-0.6,0.6-1.1,1.4-1.5,2.2c0,0.1,0,0.2-0.1,0.2C0,63,0,63,0.1,63.2
	c0.3,0,0.3,0,0.4,0s0.1,0,0.2,0.1c0-0.1,0.1-0.1,0.1-0.2C0.9,62.9,1,62.8,1,62.7c0.1-0.1,0.1-0.2,0.2-0.2s0.1,0,0.2,0
	c-0.1,0.1-0.2,0.2-0.2,0.4C1.1,63,1,63.2,1,63.3c0.1-0.1,0.1-0.1,0.1-0.2S1.2,63,1.2,63c0,0.2-0.1,0.3-0.2,0.5
	c-0.1,0.1-0.2,0.3-0.2,0.4c0-0.1,0.1-0.1,0.1-0.2s0.1,0,0.1-0.1c0.2-0.1,0.3-0.2,0.4-0.3C1.5,63.1,1.6,63,1.7,63
	c0,0.1,0,0.2-0.1,0.3c-0.1,0.1-0.1,0.1-0.1,0.2c0.1-0.1,0.1-0.2,0.2-0.3C1.8,63.1,1.8,63,2,63v0.1c-0.1-0.2,0-0.2,0-0.3
	s0.1-0.1,0.2-0.2c0.2-0.1,0.4-0.2,0.5-0.4c0.1-0.2,0.2-0.4,0.4-0.5C3,62,2.8,62.3,2.6,62.5c-0.2,0.2-0.4,0.5-0.5,0.8
	c0.1-0.1,0.2-0.2,0.2-0.3h0.1v-0.1c0.1,0.1,0.1,0,0.2-0.1c0-0.1,0.1-0.1,0.2-0.1c-0.1,0.1-0.1,0.2-0.2,0.3c-0.1,0.1-0.1,0.2-0.1,0.3
	c0.2-0.2,0.4-0.5,0.5-0.7c0-0.2,0.2-0.4,0.5-0.5c0.3-0.3,0.5-0.6,0.9-0.9c0.3-0.3,0.6-0.6,0.9-0.8c0.1-0.1,0.3-0.2,0.4-0.2
	c-0.1,0.1-0.1,0.2-0.2,0.3c-0.1,0.1-0.2,0.1-0.3,0.2c-0.2,0.2-0.4,0.4-0.6,0.6c-0.2,0.2-0.4,0.4-0.5,0.6c0.3-0.2,0.5-0.4,0.7-0.7
	c0.2-0.3,0.5-0.5,0.8-0.6c-0.2,1.1-0.5,2.3-0.7,3.5c-0.2,1.2-0.4,2.4-0.7,3.6c-0.1,0.7-0.2,1.4-0.4,2.1c-0.1,0.7-0.3,1.5-0.4,2.2
	c-0.1,0.6-0.2,1.4-0.4,2.2c-0.2,0.8-0.3,1.6-0.4,2.4s-0.3,1.5-0.4,2.2S2.1,80,2.1,80.3c0,0.1,0,0.3-0.1,0.5
	c-0.1,0.2-0.1,0.5-0.2,0.8s-0.1,0.5-0.2,0.8c-0.1,0.2-0.1,0.4-0.1,0.6c0.1,0.4,0.1,0.7,0,1.1s-0.1,0.8-0.1,1.2
	c0,0.4-0.1,0.8-0.1,1.2c-0.1,0.4-0.2,0.9-0.3,1.3c-0.1,0.5-0.2,1-0.3,1.5c-0.1,0.5-0.1,1-0.1,1.5s0.1,0.9,0.2,1.3
	c0.1,0.1,0.1,0.3,0.2,0.5s0.2,0.3,0.4,0.4c0,0.1,0.1,0.1,0.1,0.2s0.1,0.1,0.2,0.1c-0.1-0.1-0.1-0.2-0.2-0.4s0-0.2,0.2-0.3
	c0,0.1,0,0.1,0,0.2s0,0.1,0.1,0.1c0-0.1,0-0.1,0-0.1l0,0c0.1,0,0.1,0,0.1,0s0-0.1,0.1,0C2.1,92.9,2.1,93,2.2,93
	c0.1,0.1,0.2,0.1,0.2,0.2l0,0l0,0l0,0c0-0.1,0-0.2,0-0.3c0-0.1,0.1-0.2,0.2-0.2c0.1,0.1,0.1,0.1,0.2,0.2C2.8,93,2.9,93,3,93.1
	c-0.1-0.1-0.1-0.3,0-0.4c0.1,0,0.1,0,0.1,0h0.1c0-0.1,0-0.2,0-0.2c0-0.1,0-0.1,0-0.2c0,0,0.1,0,0.1,0.1l0,0c0-0.1,0-0.1,0-0.1v-0.1
	h0.1c0-0.1,0-0.1,0.1-0.2l0.1-0.1v-0.3c0-0.1,0.1-0.1,0.2-0.2c0-0.1,0-0.1,0-0.2s0.1-0.1,0-0.2C3.9,90.9,4,90.9,4,90.8s0-0.2,0-0.4
	c0-0.1,0.1-0.2,0.1-0.2c0-0.1,0-0.1,0-0.2c0.1-0.1,0.1-0.1,0.1-0.2s0.1-0.1,0.1-0.1l0,0l0,0c0-0.1,0.1-0.1,0.1-0.2s0.1-0.2,0.1-0.2
	c0.1,0.1,0.1,0.1,0,0.2v0.1c0.1-0.1,0.2-0.2,0.2-0.4c0.1-0.1,0.1-0.3,0.2-0.4H5c0-0.1,0-0.1,0-0.1s0,0,0-0.1s0-0.1,0,0s0,0.1-0.1,0
	c0.2-0.3,0.3-0.7,0.4-1.1c0.1-0.4,0.2-0.7,0.3-1.1c0.1-0.3,0.1-0.5,0.2-0.8c0.1-0.3,0.1-0.5,0.2-0.8c0.1-0.3,0.1-0.5,0.1-0.8
	s0-0.5,0-0.7c0-0.3,0-0.6,0.1-1s0.1-0.8,0.2-1.2c0.1-0.4,0.1-0.8,0.2-1.1c0.1-0.4,0.1-0.6,0.1-0.9c0.1-0.2,0.2-0.7,0.3-1.5
	s0.3-1.5,0.4-2.4c0.1-0.8,0.3-1.6,0.4-2.3c0.1-0.7,0.2-1.1,0.3-1.3c0.1-0.2,0.2-0.4,0.2-0.6c0.2-0.6,0.3-1.2,0.4-1.8
	C8.8,68.6,8.9,68,9,67.3v-0.1c0,0,0,0,0-0.1c0-0.4,0.1-0.8,0.2-1.2c0-0.1,0.1-0.3,0.1-0.4s0.1-0.2,0.2-0.4c0-0.3,0-0.5,0-0.6
	s0-0.1,0-0.1v-0.1c0-0.1,0-0.3,0-0.4s0-0.3,0-0.4C10,63,10,62.6,10,62.2c0.1,0,0.1,0,0.1-0.1c0.1-0.3,0.1-0.6,0.2-0.9
	c0.1-0.3,0.1-0.6,0.2-1.1V59.3z"/>
<polygon class="st0" points="89.4,29.8 89.5,29.9 89.3,29.5 "/>
<path class="st0" d="M89.7,29c-0.5-0.3,0,0.4-0.2,0.4l-0.1-0.1l0.4,0.4C89.7,29.4,89.5,29,89.7,29"/>
<path class="st0" d="M90.9,29.1C90.7,29,90.8,28.9,90.9,29.1C90.8,29.2,90.8,29.2,90.9,29.1C90.9,29.2,90.9,29.2,90.9,29.1"/>
<path class="st0" d="M90.9,29.2C90.9,29.3,91.1,29.2,90.9,29.2"/>
<path class="st0" d="M90.9,28.6l0.2,0.2c0.1,0,0.2-0.1,0.3,0C91.2,28.7,91.1,28.6,90.9,28.6"/>
<path class="st0" d="M90.5,28.3L90.5,28.3C90.7,28.5,90.7,28.4,90.5,28.3"/>
<path class="st0" d="M90.7,28.7l-0.1-0.2c-0.1,0-0.3-0.1,0,0.1C90.5,28.5,90.6,28.5,90.7,28.7"/>
<path class="st0" d="M90.6,28.7c-0.1,0-0.2,0.1-0.4-0.1C90.3,28.9,90.6,29,90.6,28.7"/>
<path class="st0" d="M89.2,28.6H89l0.1,0.2C89.1,28.6,89.4,28.7,89.2,28.6"/>
<path class="st0" d="M91.3,27.8c-0.1,0-0.3,0-0.5-0.1l0.1,0.1C91.1,27.9,91.1,27.8,91.3,27.8"/>
<path class="st0" d="M90.9,27.8l-0.2-0.2C90.7,27.7,90.7,27.7,90.9,27.8"/>
<path class="st0" d="M90,28.1l0.4,0.4c0,0-0.1-0.1-0.2-0.2C90.1,28.1,90,28,90,28.1L90,28.1z"/>
<path class="st0" d="M90.8,27.3c0.1,0,0.3,0,0.3,0H90.8L90.8,27.3z"/>
<path class="st0" d="M90.8,27.3L90.8,27.3C90.8,27.2,90.8,27.2,90.8,27.3C90.8,27.2,90.8,27.2,90.8,27.3"/>
<path class="st0" d="M90.8,27.3L90.8,27.3C90.7,27.3,90.7,27.3,90.8,27.3"/>
<path class="st0" d="M90.3,27.8c-0.2-0.1-0.3-0.4-0.6-0.3C89.9,27.6,90.1,27.6,90.3,27.8"/>
<path class="st0" d="M90.4,27.3L90.4,27.3c0,0.1,0.1,0.1,0.2,0.2L90.4,27.3z"/>
<polygon class="st0" points="90.4,27.3 90.4,27.3 90.3,27.2 "/>
<path class="st0" d="M91,26.6c-0.1-0.1-0.1-0.2-0.2-0.2c-0.1,0.1-0.1,0.2-0.1,0.2C90.8,26.6,91,26.7,91,26.6"/>
<path class="st0" d="M90.8,26.9L90.8,26.9L90.8,26.9"/>
<path class="st0" d="M90.8,25.6L90.8,25.6L90.8,25.6L90.8,25.6z"/>
<path class="st0" d="M90.6,26.6c-0.1,0.1,0,0.1,0.1,0.2C90.7,26.7,90.7,26.7,90.6,26.6L90.6,26.6"/>
<path class="st0" d="M91.1,26.1c0,0.1-0.1,0.1-0.2,0.1C91.1,26.2,91.2,26.2,91.1,26.1"/>
<path class="st0" d="M90.9,26.9L90.9,26.9C91,26.9,91,26.9,90.9,26.9"/>
<path class="st0" d="M90.9,26.9c0,0-0.1-0.1-0.2-0.1C90.7,26.8,90.8,26.9,90.9,26.9L90.9,26.9"/>
<path class="st0" d="M88.7,25.4c0.3,0,0.6,0.1,0.3,0.2c0.2,0.1,1.2,0.1,1.8,0c-0.1,0-0.3,0-0.4-0.1c-0.2,0.1-0.4,0.3-0.7,0.2
	c-0.2-0.2,0.1-0.1,0.3-0.2c-0.4,0.1-0.5-0.2-1.1-0.1l0.2,0.1C88.9,25.4,88.8,25.4,88.7,25.4"/>
<path class="st0" d="M90.7,25.9L90.7,25.9c0.1,0,0.2,0,0.4-0.1c-0.1-0.1-0.3-0.1-0.4-0.1V25.9L90.7,25.9z"/>
<path class="st0" d="M90.7,26.2c-0.3-0.1-0.5-0.2-0.8-0.2c0,0.2,0.3,0.1,0.4,0.2C90.3,26,90.5,26.4,90.7,26.2c0,0.1,0,0.1,0,0.2
	c0,0,0.1-0.1,0.2-0.1l0,0l0,0l0,0c0,0-0.1,0,0,0l0,0C90.8,26.2,90.8,26.2,90.7,26.2C90.8,26.1,90.8,26.2,90.7,26.2L90.7,26.2
	L90.7,26.2l-0.1-0.3C90.7,26,90.7,26.1,90.7,26.2"/>
<path class="st0" d="M89,27.2C89,27.2,89.1,27.2,89,27.2C89.1,27.2,89,27.1,89,27.2"/>
<path class="st0" d="M89.2,27.1C89.2,27.1,89.4,27.2,89.2,27.1c0,0.1-0.1,0.1-0.2,0c0.1,0.1,0.2,0.2,0.4,0.1l0,0c0.2,0,0.6,0,0.6,0
	C89.7,27.2,89.5,27.2,89.2,27.1"/>
<path class="st0" d="M89.9,26.7l-0.1-0.2l-0.3,0.1h0.2C89.6,26.7,89.8,26.7,89.9,26.7"/>
<polygon class="st0" points="91,25.6 91.3,25.6 90.8,25.5 "/>
<polygon class="st0" points="90.9,25.3 91.2,25.3 91.1,25.2 "/>
<path class="st0" d="M85.5,13.2L85.5,13.2L85.5,13.2"/>
<path class="st0" d="M85.6,13.6L85.6,13.6C85.6,13.6,85.6,13.6,85.6,13.6"/>
<path class="st0" d="M90.2,19.2c0.3-0.2,0.7-0.4,0.3-0.3L90.2,19C90.3,19,90.3,19.1,90.2,19.2"/>
<path class="st0" d="M87.7,16C87.7,16.1,87.7,16.1,87.7,16c0,0,0.1,0,0.2,0C87.9,16,87.8,16,87.7,16"/>
<path class="st0" d="M86.4,16.4l0.2-0.2C86.5,16.3,86.4,16.4,86.4,16.4"/>
<path class="st0" d="M84.9,11.3l-0.3,0.1C84.5,11.5,84.7,11.4,84.9,11.3"/>
<path class="st0" d="M90.6,22.5c0.1-0.1,0.2-0.2,0.2-0.2C90.6,22.4,90.3,22.6,90.6,22.5"/>
<path class="st0" d="M88.9,12.2c-0.1,0-0.1,0-0.2,0C88.8,12.2,88.9,12.2,88.9,12.2"/>
<path class="st0" d="M90.8,22.1C90.7,22.1,90.7,22.1,90.8,22.1c0,0.1,0,0.1,0,0.2C90.9,22.2,91,22.1,90.8,22.1"/>
<path class="st0" d="M84,4L84,4L84,4"/>
<path class="st0" d="M86.9,0.7C87,0.7,87,0.8,86.9,0.7C87,0.8,87,0.8,86.9,0.7"/>
<path class="st0" d="M91,24.1C91.1,24.2,91.1,24.1,91,24.1"/>
<path class="st0" d="M89.7,24.6c0,0-0.1,0-0.2,0C89.7,24.6,89.7,24.6,89.7,24.6"/>
<path class="st0" d="M88.7,22.2L88.7,22.2C88.6,22.2,88.6,22.2,88.7,22.2"/>
<path class="st0" d="M90.9,24.2C90.9,24.2,91,24.2,90.9,24.2C91,24.2,90.9,24.2,90.9,24.2"/>
<path class="st0" d="M91,24.2L91,24.2C91.1,24.3,91.1,24.2,91,24.2"/>
<path class="st0" d="M91,24L91,24C91,24.1,91,24.1,91,24C91,24.1,91,24.1,91,24"/>
<path class="st0" d="M85.5,7.6L85.5,7.6C85.4,7.6,85.4,7.6,85.5,7.6"/>
<path class="st0" d="M86.7,19.1L86.7,19.1L86.7,19.1L86.7,19.1z"/>
<path class="st0" d="M86.4,19c0.4-0.1,0.4,0,0.3,0.1l0.9-0.4L86.4,19z"/>
<path class="st0" d="M87.8,6.2L87.8,6.2C87.6,6.3,87.7,6.3,87.8,6.2 M90.5,23.8c0.1,0,0.1,0,0.2,0C90.6,23.8,90.6,23.8,90.5,23.8
	C90.5,23.7,90.5,23.7,90.5,23.8 M90.7,23.5L90.7,23.5C90.8,23.4,90.7,23.5,90.7,23.5 M87.1,16.5c-0.1,0-0.1,0,0.1-0.1
	C87.2,16.4,87.2,16.5,87.1,16.5 M85.8,14.1c-0.1,0-0.3,0-0.1-0.1C86.1,13.9,85.9,14,85.8,14.1 M85.3,12.4L85,12.6
	c-0.5,0-0.3-0.1-0.7,0.1c1-0.3,0.2,0.4,1.2,0.1L85.3,13c0,0-0.1,0,0,0c-0.5,0.3,0.7-0.1,0.6,0.1c-0.1,0.1-0.2,0.2-0.3,0.2l0.3,0.1
	c0,0.1-0.2,0.1-0.2,0l0.1,0.2l0,0c0.2,0,0.4,0,0.5,0c-0.1,0.1-0.1,0-0.2,0.1h0.3c-0.3,0.1-0.5,0.1-0.5,0c-1,0.5,0.3,0-0.3,0.5
	l-0.1-0.1c-0.6,0.3-0.3,0.3-0.7,0.6c0.2-0.1,0.9-0.6,1.1-0.5c-0.1,0.1-0.1,0.1,0.1,0.1c-0.4,0.1-0.3,0.2-0.2,0.3l-0.5,0.2
	c0.2,0.1,0.4,0,0.6-0.1c0,0.1-0.4,0.3-0.7,0.4c0,0.2,0.6-0.3,0.7-0.1c-0.2,0.2,0.1,0.2,0.4,0.3c-0.1,0.2-0.3,0.1-0.4,0.2h0.4
	c0,0-0.1,0.1-0.2,0.1c0.2,0,0.5-0.2,0.6-0.1c0.5-0.1-0.7,0.5-0.1,0.5c-0.1,0.1-0.3,0.1-0.5,0.2c0.4,0.1,0.3,0.1,0.9,0.1l-0.3,0.3
	c0.3-0.2,0.8-0.2,1.1-0.2c0.2-0.1,0.3-0.2,0.4-0.2l0.3,0.1c-0.1,0.1-0.2,0.1-0.4,0.1h0.1c-0.2,0.1-0.4,0.2-0.7,0.2
	c0.1-0.1,0.2-0.1,0.3-0.2c-0.3,0.1-0.6,0.1-0.9,0.2c0.1,0,0.1,0,0.1,0c-0.1,0-0.2,0-0.2,0.1c0,0,0.1,0,0.2,0l-0.5,0.2l0.2-0.1
	l-0.3,0.4c0.6,0,1.4-0.1,1.6,0.1c-0.4,0.1-0.6,0.2-1.1,0.4c0.5-0.2-0.2-0.1-0.2-0.3c0,0.1-0.3,0.2-0.3,0.2l0.5,0.1
	c-0.4,0.1-0.3,0.2-0.4,0.3c0.7-0.3,0.5,0,0.8,0.1c-0.2,0.1-0.5,0.2-0.5,0c-0.5,0.3,0.9-0.1,0.4,0.2c0,0,0-0.1-0.1,0
	c0.2,0,0.1,0.2-0.1,0.3l0,0c-0.1,0.2,0.1,0.6,0.7,0.5c-0.1,0-0.8,0.2-0.9,0.3L89,19c-0.5,0.2-1.8,0.7-2.1,0.7
	c-0.1,0.1-0.2,0.2,0.1,0.2c0.1-0.1,0.8-0.4,0.8-0.3c-0.6,0.3-0.3,0.2-0.8,0.5c0.1-0.1,1-0.3,0.9-0.2c-0.1,0-0.8,0.3-0.9,0.3l0.9-0.1
	c-0.2,0-0.7,0.2-0.9,0.4c0.2-0.1,0,0.2,0.1,0.2l0.2-0.2c-0.1,0.3,1.2-0.2,1.2,0.1c-0.2,0-1.1,0.3-1.2,0.5c0.4-0.1,2.1-0.5,2.4-0.4
	l-0.2,0.1l0.3,0.1c-0.7,0.1-2,0.3-2.6,0.4c-0.2,0.2-0.3,0.1-0.2,0.2c-0.2,0.1-0.4,0.1-0.4,0l-0.4-0.3c0.5-0.2,0.5,0.1,0.9-0.1
	L86.5,21c0.5-0.2,1.4-0.3,1.4-0.1c-0.2,0.1-0.9,0.3-1.1,0.3c0.2,0,0.4,0.1,0.2,0.1h-0.3c-0.2,0.2,0.7,0,0.2,0.3
	c0,0.1-0.6,0.4-0.3,0.3c0.6-0.3,2.3-0.9,2.7-1c0,0-0.5,0.4-0.8,0.6c-0.4,0.2-1.1,0.2-1.5,0.4c0.1,0,0.3-0.1,0.4-0.1
	c-0.1,0.1-0.4,0.1-0.3,0.2c0.5-0.2,0,0.2,0.4-0.1c0.2,0.1-0.1,0.1,0,0.3c0.3-0.2,1.1-0.3,1.3-0.2c-0.1,0-0.3,0.1-0.4,0.2
	c0,0.2-0.2,0.4-0.2,0.6c-0.1,0.1-0.3,0.2-0.5,0.2c0.1,0,0.3,0,0.3,0c-0.4,0.2-0.1-0.1-0.6,0.1c0.3-0.1,0.4,0,0.6,0.1
	c0.5-0.1,0.1-0.2-0.1-0.3c0.6-0.2,1.3-0.2,1.6,0c0.2,0.1-0.4,0.2-0.3,0.2c-0.1,0.4,1.1,0,0.7,0.4c-0.4,0.2-0.8,0.2-1.1,0.3
	c-0.2-0.1,0.2-0.3,0.2-0.4l-0.2,0.2c-0.1,0-0.3-0.1-0.1-0.2c-0.4,0.2,0,0.6-0.3,0.9c0.1,0,0.3,0.1,0.4,0H89c0.3-0.1,0.5,0.1,0.6,0
	c0.2,0.1,0.6,0.2,0.4,0.4l-0.5,0.1c0.1,0,0.3-0.1,0.1-0.2c0.2,0-0.6,0.3,0,0.3l0.3-0.2c0.2,0.1,0.7,0.2,0.6,0.4
	c0.5-0.1-0.1,0,0.5-0.2c-0.7,0.2,0-0.4-0.7-0.2c0.6-0.2,0.3-0.2,0.8-0.5c-0.2,0-0.3,0.1-0.2-0.1h-0.1l0,0l0,0l0,0
	c-0.1,0-0.1,0.1-0.2,0.1c-0.4,0-0.4-0.2-0.5-0.3c0.1-0.1,0.2,0,0.3-0.1l-0.3-0.1c0.3-0.1,0.5-0.3,0.8-0.2v-0.2
	c0.2-0.1,0.2-0.3,0.1-0.3c0.1-0.1-0.4-0.1-0.1-0.1l-0.2-0.2h0.1c0-0.3-0.6-0.4,0-0.8c-0.1-0.1-0.2-0.1-0.1-0.3l0.3-0.1
	c-0.1-0.1,0.2-0.4-0.1-0.4c0.8-0.4,0.1-0.6,0.2-0.8l-0.4,0.1c0-0.1-0.1-0.2-0.3-0.3L90,20.6c-0.3,0,0.2-0.4,0.1-0.6
	c0.1,0,0.1,0,0,0.1c0.7-0.5-0.6-0.3-0.1-0.7c-0.1,0-0.1-0.1,0-0.1l0,0l0,0c0.1,0,0.1-0.1,0.2-0.1c-0.1,0-0.1,0.1-0.2,0.1
	c0,0-0.1-0.1-0.2-0.1l0.4-0.1l0,0c0.1-0.1-0.2,0-0.4,0.1c-0.1,0-0.1,0-0.2,0c0.6-0.2-0.2-0.1,0.4-0.4c-0.3,0.1-0.3-0.2-0.9,0
	c0.1,0,0.1-0.1,0.1,0c0.1-0.1,0.1-0.2-0.1-0.2l0.4-0.2l-0.6,0.1c0.3-0.2,0.4-0.3,0.8-0.3c-0.6,0-0.2-0.1-0.8-0.1l0.3-0.1
	c0-0.1-0.4,0-0.2-0.1c0.5-0.3,0-0.7,0.4-1.3c-0.9,0.4,0.4-0.3-0.3-0.1c0.2-0.1,0.3-0.2,0.5-0.2c-0.2-0.1,0.3-0.4-0.3-0.3
	c0.2-0.1,0.3-0.1,0.4-0.1c0,0-0.2,0-0.1-0.1s0.2,0,0.3,0c-0.1-0.2-0.7,0-1.3,0.2c0.3-0.2,0.2-0.2-0.2-0.2c0.2-0.1,0.4-0.2,0.5-0.1
	c0-0.1,0.2-0.5-0.3-0.4c0.1-0.1,0-0.1,0-0.1c0-0.2,0-0.2,0-0.3L88.5,15c-0.6,0.1-0.1-0.1-0.2-0.2h0.1c0.4-0.4-0.2-0.1,0.2-0.5
	l-0.4,0.1c-0.8,0.2,0.4-0.4,0.1-0.4l-0.2,0.1c-0.3,0,1-0.6,1.1-0.7c0.1,0,0.1,0,0.2,0c0.4-0.4-0.5,0.1-0.6,0
	c0.2-0.1,0.6-0.2,0.7-0.3c0.2-0.1-0.9,0-0.4-0.4c-0.2,0.1-0.4,0.2-0.5,0.2c-0.1-0.1,0.7-0.6,0.1-0.5l0.1-0.1c-0.2,0-0.3-0.2-0.6-0.1
	c1.2-0.5-0.7-0.4,0.4-0.8l-0.1-0.3h0.1c0-0.2-0.2-0.2-0.5-0.1c0.1-0.1,0.2-0.1,0.2-0.1c0.2-0.3,0.1-0.4-0.5-0.4l0.4-0.1
	c-0.2,0,0.5-0.6,0.1-0.7c0,0,0.1,0,0.2,0c-0.5-0.1,0.9-1-0.4-0.7l-0.4-0.1c-0.1,0.3-0.6,0.2-0.8,0.3c-0.1-0.1,0.4-0.4,0.5-0.3h-0.1
	C88,8.7,87.5,8.5,88,8.4c-0.1-0.5,0.2-1.1,0.2-1.5l-0.5,0.2V6.9c0.1-0.1,0.4-0.2,0.4-0.1c0.3-0.2-0.3-0.1-0.4-0.1
	c0.2-0.3,0.6-0.1,0.6-0.2l-0.1-0.1h-0.1c-0.2,0-0.5,0.1-0.5-0.1c0.1-0.1,0.3-0.2,0.3-0.2s0.1,0,0-0.1V5.8l-0.4,0.4
	c-0.2,0,0-0.2-0.5,0.1c0.7-0.4,0.2-0.8,0.4-1c-0.3,0-0.3-0.1-0.3-0.3c-0.1,0.1-0.6,0.3-0.5,0.1c1-0.3,0.4-0.4,1.1-0.7
	c-0.5,0.3-0.2-0.3-0.8,0c0.1-0.1,0.4-0.1,0.6-0.3c-0.4-0.1,0.2-0.7,0-0.9c-0.1,0-0.3,0.2-0.5,0.2L87.6,3c-0.1,0-0.8,0.2-0.3-0.1
	C87.2,3,87,3,87,3c0.5-0.8-0.7-1.1,0.4-2.2C87,0.9,87,0.9,87,0.8c-0.1,0.1-0.3,0.1-0.5,0.2l0.4-0.4c-0.5,0.1-0.1-0.3-0.5-0.1
	l0.1,0.1c-0.6,0.1-1.2,0.6-1.9,0.8c0.6-0.1-0.9,0.7,0.1,0.6c-0.1,0.1-0.2,0-0.4,0.1c0.3-0.1,0.4,0,0.3,0.2h-0.1
	c0.1,0.3-0.2,0.6-0.3,1l0.3-0.1c0,0.1-0.1,0.2-0.2,0.2c0.5-0.1,0-0.2,0.6-0.4c-0.7,0.4,0.1,0.6-0.7,0.9c0,0.1,0.4-0.2,0.4-0.1
	l-0.2,0.1l0.3-0.1c0,0.1-0.3,0.2-0.5,0.3c0,0-0.1,0-0.1-0.1c-0.2,0.2,0.1,0.3,0.1,0.3l0.1-0.2c0.3,0.3,0,0.8,0.5,0.9L85,4.9
	c0.3,0.1-0.2,0.3,0,0.5l0,0c0.2,0,0.3,0,0.3,0.1c-0.2,0-0.4,0.3-0.6,0.2c0.4,0.2,0.3,0,0.9,0l-0.3,0.1c0.3,0,0.4-0.1,0.5,0
	c-0.3,0-0.4,0.2-0.7,0.2c-0.6,0.5,0.7,0.2-0.2,0.6c0.8-0.1,0.4-0.4,0.6-0.4c0.2-0.1,0.6-0.1,0.5,0c0,0.1-0.9,0.5-0.9,0.7H85
	c-0.2,0.2,0.3,0.1,0,0.3c0.5-0.1,0,0.1,0.6,0L85.4,7c0.2,0.1,0.9-0.1,0.6,0.3c-0.1,0-0.3,0-0.4,0c-0.2,0.1,0.1,0.1,0,0.2
	C85,7.7,85.4,7.3,85,7.3c-0.2,0.1,0.5,0.1-0.2,0.2c0.8-0.2-0.1,0.3,0.6,0.2L85,7.8c0.1,0,0.2,0,0.2,0l-0.5,0.1
	c0.4,0-0.3,0.4-0.1,0.4c0-0.2,0.4-0.2,0.7-0.4c0.5,0.1-0.9,0.5-0.7,0.8c-0.1,0,0.2-0.2,0.4-0.2c-0.1,0.1-0.2,0.2-0.4,0.3
	C84.7,9,85,8.6,85.2,8.7c-0.4,0.2,0.2,0.1,0.3,0.1l-0.4,0.1c-0.2,0.3,0.8-0.2,0.5,0.1l-0.5,0.1l0.1,0.1l-0.4,0.1
	c0.3,0,0.2,0.1,0.2,0.3c0.2-0.1,0.7-0.2,0.7-0.1c-0.2,0.2-0.3,0.1-0.3,0.2c-0.2,0-0.5,0.1-0.2-0.1c-0.1,0-0.2,0-0.3,0.1
	c-0.2,0.2,0,0.2,0,0.3c0,0,0-0.1,0.1-0.1l0.5,0.1c-0.1,0.1-0.2,0.1-0.3,0.1c0,0,0.2,0,0.3,0.1c-0.3,0.1-0.6,0.2-0.7,0.1l0.4,0.1
	c-0.1,0.1-0.3,0.2-0.4,0.2c-0.2,0.2,0.6,0.1,0.4,0.4c0.1,0,0.1,0,0.2,0c0,0.2-0.4,0.4,0,0.5l-0.5,0.3c0.1,0.1,0.6-0.4,0.9-0.2
	c0.2,0.1-0.4,0.2-0.6,0.3c0.3,0,0.8,0,0.4,0.3C85.3,12.5,85.3,12.4,85.3,12.4"/>
<path class="st0" d="M86.5,16.4c0.1,0,0.1-0.1,0.2-0.1C86.7,16.3,86.6,16.3,86.5,16.4"/>
<path class="st0" d="M84.9,11.3L84.9,11.3L84.9,11.3z"/>
<path class="st0" d="M87.2,22.1c0-0.1,0.1-0.1,0.2-0.1C87.3,22,87.2,22,87.2,22.1"/>
<path class="st0" d="M91.2,24.7L91.2,24.7c-0.1,0-0.2,0-0.2,0C91.1,24.7,91.2,24.7,91.2,24.7"/>
<path class="st0" d="M89,25.9L89,25.9l0.2,0.1C89.2,25.8,89,25.8,89,25.9"/>
<path class="st0" d="M90,25c-0.3,0-0.2,0.1-0.1,0.2l0,0C90.3,25.1,90.2,25,90,25"/>
<path class="st0" d="M89.9,25.2L89.9,25.2C90.1,25.2,89.9,25.2,89.9,25.2"/>
<path class="st0" d="M90.8,24c-0.1,0.1,0.4,0,0.3,0C91.4,24,90.5,23.8,90.8,24"/>
<polygon class="st0" points="89,25.1 89.4,25 89.1,25 "/>
<path class="st0" d="M89.3,24.5L89.3,24.5C89.3,24.6,89.3,24.6,89.3,24.5C89.3,24.5,89.4,24.5,89.3,24.5"/>
<path class="st0" d="M89.3,24.6C89.3,24.7,89.3,24.7,89.3,24.6C89.4,24.7,89.3,24.6,89.3,24.6"/>
<polygon class="st0" points="88.9,24.9 89,24.9 89,24.8 "/>
<path class="st0" d="M89.2,23.2L89.2,23.2c-0.2-0.1-0.3,0-0.2,0C89,23.2,89.1,23.2,89.2,23.2"/>
<path class="st0" d="M88.2,23.8c0.1-0.1,0.2-0.1,0.3-0.1L88,23.8H88.2z"/>
<path class="st0" d="M88.1,23.5c-0.1,0-0.4-0.1-0.3,0.1C87.9,23.5,88,23.6,88.1,23.5"/>
<polygon class="st0" points="88.4,21.4 88.4,21.5 89.2,21.2 "/>
<path class="st0" d="M86.3,20.4c-0.2,0.2,0.5-0.1,0.3,0.1c0.2,0,0.2-0.2,0.3-0.2C86.7,20.2,86.8,20.2,86.3,20.4"/>
<path class="st0" d="M86.9,20.3L86.9,20.3C87,20.3,87,20.3,86.9,20.3"/>
<polygon class="st0" points="87.2,0.2 87.3,0.2 87.4,0.1 "/>
<path class="st0" d="M86.7,0.2L87.2,0L86.7,0.2C86.8,0.2,86.8,0.2,86.7,0.2"/>
<path class="st0" d="M84.9,14.7L84.9,14.7c0.2-0.1,0.2-0.1,0.2-0.1L84.9,14.7z"/>
<polygon class="st0" points="85,13.3 85,13.3 85.4,13.1 "/>
<path class="st0" d="M84.3,12.4c0,0.1,0.1,0.1,0.1,0.1C84.3,12.4,84.8,12.2,84.3,12.4"/>
</svg>
