<?xml version="1.0" encoding="utf-8"?>
<!-- Generator: Adobe Illustrator 19.2.1, SVG Export Plug-In . SVG Version: 6.00 Build 0)  -->
<svg version="1.1" id="Layer_1" xmlns="http://www.w3.org/2000/svg" xmlns:xlink="http://www.w3.org/1999/xlink" x="0px" y="0px"
	 viewBox="0 0 156.8 121.9" style="enable-background:new 0 0 156.8 121.9;" xml:space="preserve">
<style type="text/css">
	.st0{fill:#082432;}
</style>
<path class="st0" d="M147.9,118.1c0.6,0,1.3-0.1,1.9-0.1c0.6,0,1.3,0,1.7,0.1v-0.5h-0.3c-0.7,0-0.8-0.1-0.8-0.9v-4.5
	c0.4-0.4,1.2-1,2-1c0.6,0,1,0.2,1.2,0.4c0.5,0.5,0.6,0.9,0.6,1.9v2.7c0,1.1-0.1,1.5-0.8,1.5h-0.3v0.5c0.5,0,1.3-0.1,1.9-0.1
	c0.6,0,1.4,0,1.8,0.1v-0.5h-0.3c-0.9,0-1-0.2-1-0.9v-3.2c0-0.7-0.1-1.5-0.4-2.1c-0.5-1-1.5-1.3-2.1-1.3c-1.1,0-2,0.9-2.7,1.5v-1.5
	h-0.2c-0.7,0.5-1.6,0.9-2.3,1.1v0.5c0.2-0.1,0.5-0.2,0.6-0.2c0.4,0,0.6,0.3,0.6,1.8v3c0,1-0.1,1.2-0.9,1.2h-0.3v0.5H147.9z
	 M138.8,114c0,2.6,2,4.2,4,4.2c2.4,0,4-1.8,4-3.8c0-2.3-1.6-4.3-4.1-4.3C140.2,110.1,138.8,112.2,138.8,114 M145.3,114.7
	c0,1.7-0.6,2.9-2.3,2.9c-1.9,0-2.8-2.2-2.8-3.9c0-2,1.1-3,2.1-3C144.3,110.7,145.3,112.7,145.3,114.7 M129.8,110.8
	c0.8,0,1,0.4,1.3,1.1l2.4,5.8c0.1,0.2,0.1,0.4,0.2,0.6h0.5l2.5-6.2c0.4-1,0.8-1.2,1.3-1.2h0.2v-0.5c-0.4,0-1.1,0.1-1.6,0.1
	c-0.4,0-0.8,0-1.2-0.1v0.5h0.1c0.4,0,0.8,0.1,0.8,0.6c0,0.3-0.3,1.1-0.4,1.4l-1.4,3.7l-1.8-4.5c0-0.1-0.2-0.6-0.2-0.8
	c0-0.3,0.2-0.4,0.6-0.4h0.2v-0.5c-0.5,0-1,0.1-1.7,0.1s-1.2,0-1.6-0.1v0.4H129.8z M117.3,118.1c0.4,0,1.1-0.1,1.7-0.1
	c0.8,0,1.5,0,2.1,0.1v-0.5h-0.4c-0.5,0-0.7-0.2-0.7-0.6c0-0.4,0.2-0.9,0.3-1.3l0.9-2.8h4.1l1.3,3.1c0.1,0.2,0.2,0.6,0.2,0.9
	c0,0.4-0.3,0.6-0.9,0.6h-0.4v0.5c0.6,0,1.5-0.1,2.4-0.1s1.7,0,2.4,0.1v-0.5H130c-0.8,0-1.3-0.7-1.8-1.7l-4.5-10.7h-0.3l-4,10.5
	c-0.5,1.4-0.9,1.9-1.9,1.9h-0.2V118.1z M125.1,112.3h-3.6l1.6-4.8L125.1,112.3z M102.7,118.1c0.6,0,1.3-0.1,1.9-0.1s1.3,0,1.7,0.1
	v-0.5H106c-0.7,0-0.8-0.1-0.8-0.9v-4.5c0.4-0.4,1.2-1,2-1c0.6,0,1,0.2,1.2,0.4c0.5,0.5,0.6,0.9,0.6,1.9v2.7c0,1.1-0.1,1.5-0.8,1.5
	h-0.3v0.5c0.5,0,1.3-0.1,1.9-0.1s1.4,0,1.8,0.1v-0.5h-0.3c-0.9,0-1-0.2-1-0.9v-3.2c0-0.7-0.1-1.5-0.4-2.1c-0.5-1-1.5-1.3-2.1-1.3
	c-1.1,0-2,0.9-2.7,1.5v-1.5H105c-0.7,0.5-1.6,0.9-2.3,1.1v0.5c0.2-0.1,0.5-0.2,0.6-0.2c0.4,0,0.6,0.3,0.6,1.8v3c0,1-0.1,1.2-0.9,1.2
	h-0.3C102.7,117.6,102.7,118.1,102.7,118.1z M93.6,114c0,2.6,2,4.2,4,4.2c2.4,0,4-1.8,4-3.8c0-2.3-1.6-4.3-4.1-4.3
	C95,110.1,93.6,112.2,93.6,114 M100.1,114.7c0,1.7-0.6,2.9-2.3,2.9c-1.9,0-2.8-2.2-2.8-3.9c0-2,1.1-3,2.2-3
	C99.2,110.7,100.1,112.7,100.1,114.7 M85.8,112.2c0.6-0.5,1.3-1,2.2-1c1.2,0,2.7,0.9,2.7,3.4c0,1.7-0.9,3-2.7,3
	c-1.1,0-1.6-0.4-2.2-0.9V112.2z M83.1,121.9c0.6,0,1.4-0.1,2.1-0.1c0.6,0,1.3,0,1.8,0.1v-0.5h-0.3c-0.7,0-1-0.2-1-1.1v-2.5
	c0.3,0.2,1.1,0.4,1.9,0.4c2.9,0,4.3-2.3,4.3-4.3c0-1.9-1.1-3.8-3.3-3.8c-1.2,0-2.2,0.7-2.9,1.3v-1.3h-0.2c-0.5,0.3-1.7,1-2.4,1.3
	v0.5c0.2-0.1,0.5-0.2,0.8-0.2s0.5,0.2,0.5,0.9v7.7c0,0.8-0.3,1.1-1.1,1.1h-0.2C83.1,121.4,83.1,121.9,83.1,121.9z M74.6,114.7
	c0,1.2,0.1,1.9,0.5,2.5s1,0.9,1.9,0.9c1,0,2.1-0.7,3-1.3c0,0.4,0.1,1,0.2,1.3l0.1,0.1l2.3-1v-0.5c-0.3,0.1-0.7,0.3-0.9,0.3
	c-0.2,0-0.4-0.1-0.4-0.8V110H81c-0.8,0.5-1.7,0.9-2.4,1.1v0.5c0.3-0.1,0.5-0.2,0.7-0.2c0.4,0,0.6,0.3,0.6,0.8v3.9
	c-0.7,0.5-1.6,1-2.2,1c-1.5,0-1.8-1.2-1.8-2.6v-4.6h-0.2c-0.8,0.5-1.7,0.9-2.5,1.1v0.5c0.2-0.1,0.5-0.2,0.8-0.2
	c0.4,0,0.6,0.3,0.6,0.8V114.7z M64.8,116.5c-0.5,0.4-1.2,0.8-2.2,0.8c-1.9,0-2.6-2-2.6-3.6s0.9-3,2.6-3c1,0,1.7,0.6,2.2,1V116.5z
	 M67.6,116.7c-0.3,0.2-0.6,0.2-0.8,0.2c-0.4,0-0.6-0.3-0.6-1.4v-8c0-1.7,0-2.9,0.1-3.3H66c-1,0.6-1.8,0.9-2.6,1.3v0.6
	c0.1-0.1,0.4-0.2,0.7-0.2c0.4,0,0.6,0.3,0.6,0.9v3.8c-0.8-0.3-1.3-0.5-2.1-0.5c-2.3,0-4,2-4,4.3c0,2.6,1.8,3.8,3.4,3.8
	c1.1,0,2-0.5,2.8-1.1c0,0.4,0.1,1,0.4,1.2c0.9-0.4,1.7-0.8,2.4-1.1C67.6,117.2,67.6,116.7,67.6,116.7z M51.9,118.1
	c0.6,0,1.3-0.1,1.9-0.1s1.3,0,1.7,0.1v-0.5h-0.3c-0.7,0-0.8-0.1-0.8-0.9v-3.2c0-1.7,1.1-2.2,1.8-2.2c0.5,0,1,0.1,1.1,0.6h0.3v-1.6
	c-0.2-0.1-0.6-0.2-1-0.2c-0.9,0-1.6,0.6-2.2,1.8l0,0v-1.8h-0.2c-0.7,0.5-1.6,0.9-2.3,1.3v0.5c0.2-0.1,0.5-0.2,0.7-0.2
	c0.4,0,0.6,0.3,0.6,0.8v3.8c0,1-0.1,1.2-0.9,1.2H52L51.9,118.1L51.9,118.1z M42.8,114c0,2.6,2,4.2,4,4.2c2.4,0,4-1.8,4-3.8
	c0-2.3-1.6-4.3-4.1-4.3C44.1,110.1,42.8,112.2,42.8,114 M49.3,114.7c0,1.7-0.6,2.9-2.3,2.9c-1.9,0-2.8-2.2-2.8-3.9c0-2,1.1-3,2.2-3
	C48.3,110.7,49.3,112.7,49.3,114.7 M37.1,118.1c0.5,0,1.3-0.1,2-0.1s1.3,0,1.9,0.1v-0.5h-0.3c-0.9,0-1-0.2-1-1.5v-5H42l0.4-0.7h-2.7
	v-3.2c0-1,0.5-2,1.6-2c1.3,0,1.7,1.1,1.7,1.6h0.4v-2.3c-0.5-0.1-0.9-0.2-1.4-0.2c-2.7,0-3.7,1.9-3.7,3.6v2.3h-1.5l-0.1,0.7h1.6v5
	c0,1.4-0.1,1.5-1,1.5H37L37.1,118.1L37.1,118.1z M29.8,111h1.7v4.1c0,0.8,0.1,1.7,0.7,2.3c0.7,0.7,1.8,0.8,2,0.8s0.3,0,0.4-0.1
	l1.4-1.2l-0.3-0.3c-0.3,0.2-0.8,0.5-1.4,0.5c-1.2,0-1.5-1.2-1.5-2.1v-4h2.5l0.2-0.7h-2.8v-2.6l-0.2,0.1c-0.7,1.4-1.7,2.4-2.8,3.1
	L29.8,111L29.8,111z M26.9,115.7c0,0.4,0,0.6,0.1,0.8c-0.6,0.4-1,0.8-1.6,0.8c-0.9,0-1.4-0.8-1.4-1.3c0-0.8,0.8-1.1,1.2-1.3l1.8-0.8
	L26.9,115.7L26.9,115.7z M26.9,113.4l-2.5,1c-1.2,0.5-1.8,0.9-1.8,1.9c0,0.9,0.7,1.9,2,1.9c0.7,0,1.2-0.2,2.4-1c0.1,0.5,0.2,1,0.4,1
	c0.1,0,0.1,0,0.3-0.1l1.7-0.8v-0.5c-0.3,0.1-0.6,0.2-0.8,0.2c-0.3,0-0.4-0.2-0.4-1.1v-3.5c0-0.8-0.3-2.3-2.5-2.3
	c-0.3,0-0.9,0.2-1.6,0.6c-0.8,0.5-1.2,0.8-1.2,1.4c0,0.3,0.1,0.6,0.3,0.9l1.1-0.5c-0.1-0.3-0.2-0.5-0.2-0.8c0-0.5,0.9-1,1.3-1
	c1,0,1.5,1.1,1.5,2V113.4z M15.6,118.1c0.6,0,1.3-0.1,1.9-0.1s1.3,0,1.7,0.1v-0.5h-0.3c-0.7,0-0.8-0.1-0.8-0.9v-3.2
	c0-1.7,1.1-2.2,1.8-2.2c0.5,0,1,0.1,1.1,0.6h0.3v-1.6c-0.2-0.1-0.6-0.2-1-0.2c-0.9,0-1.6,0.6-2.2,1.8l0,0v-1.8h-0.2
	c-0.7,0.5-1.6,0.9-2.3,1.3v0.5c0.2-0.1,0.5-0.2,0.7-0.2c0.4,0,0.6,0.3,0.6,0.8v3.8c0,1-0.1,1.2-0.9,1.2h-0.3v0.6H15.6z M8.6,111h1.7
	v4.1c0,0.8,0.1,1.7,0.7,2.3c0.7,0.7,1.8,0.8,2,0.8s0.3,0,0.4-0.1l1.4-1.2l-0.3-0.3c-0.3,0.2-0.8,0.5-1.4,0.5c-1.2,0-1.5-1.2-1.5-2.1
	v-4h2.5l0.2-0.7h-2.8v-2.6l-0.2,0.1c-0.7,1.4-1.7,2.4-2.8,3.1L8.6,111L8.6,111z M7.2,105.9c-1.1-0.2-2.2-0.5-3.3-0.5
	c-2.4,0-3.9,1.6-3.9,3.4c0,1.4,0.9,2.4,2.3,3l1.9,0.9c1,0.5,2.2,1.1,2.2,2.6s-1.3,2.4-2.8,2.4s-2.8-1.1-3-2.7H0l0.1,2.9
	c1.3,0.4,2.8,0.4,3.1,0.4c2.9,0,4.4-1.6,4.4-3.8c0-1.7-1.3-2.7-2.6-3.3l-1.6-0.7c-1.5-0.7-2-1.4-2-2.4c0-1.1,0.9-2.1,2.4-2.1
	c2.6,0,2.8,2.2,2.8,2.7h0.6C7.2,108.7,7.2,105.9,7.2,105.9z"/>
<path class="st0" d="M111.6,87.5c-0.1,0-0.1-0.1-0.1-0.2C111.6,87.3,111.6,87.4,111.6,87.5 M119.2,80c0,0.8-0.1,1.4-0.3,2
	s-0.4,1.2-0.6,1.8c-0.1,0.2-0.1,0.4-0.1,0.4s0,0,0.1-0.1l-0.2,0.3c-0.1,0.1-0.1,0.2-0.2,0.3c0,0.1-0.1,0.1-0.2,0.1
	c-0.1,0.1-0.1,0.2,0,0.2c-0.3,0.3-0.6,0.6-1,0.9s-0.8,0.6-1.2,0.7c-0.1,0.1-0.3,0.1-0.5,0.1s-0.3,0-0.4-0.1c-0.1,0.1-0.1,0.1-0.2,0
	c-0.1,0-0.1-0.1-0.3-0.1v-0.1v-0.1c-0.1,0.1-0.1,0.1-0.1,0c0,0,0,0-0.1,0c0,0.1,0,0.1,0.1,0.1s0.1,0,0,0.1c-0.1,0-0.1,0-0.2,0
	s-0.1,0-0.1-0.1v0.1c-0.1-0.1-0.1-0.1-0.2-0.1s-0.2,0-0.3-0.1c0.1-0.3,0.1-0.5,0.1-0.7s0-0.4,0-0.6c0-0.1,0-0.1,0-0.1s0-0.1,0-0.2
	l0,0v0.1c0-0.2,0-0.3,0-0.4c0-0.2,0-0.3,0-0.3v0.1c0,0.1,0,0.1,0,0.2c0,0,0.1,0,0.2-0.2c0.1-0.1,0.2-0.3,0.3-0.4
	c0.1-0.1,0.2-0.2,0.4-0.4c0.1-0.1,0.2-0.2,0.3-0.3s0.2-0.2,0.3-0.3h0.1c0-0.1,0.1-0.1,0.1-0.1c0.1-0.1,0.3-0.3,0.5-0.5
	s0.4-0.4,0.7-0.6c0.1-0.1,0.3-0.2,0.4-0.3c0.1-0.1,0.3-0.2,0.4-0.3h0.1c0.2-0.1,0.4-0.2,0.6-0.4c0.2-0.1,0.4-0.2,0.6-0.4V80
	c0.1-0.1,0.3-0.1,0.4-0.2c0.1-0.1,0.3-0.2,0.5-0.3c0,0.1,0,0.1,0,0.2C119.3,79.9,119.3,79.9,119.2,80L119.2,80z M129.3,72.5
	c0.1,0,0.2,0,0.1-0.1c-0.2,0.3-0.7,0.7-1.3,1.1s-1.3,0.8-2,1.2c-0.7,0.4-1.4,0.7-2.1,1c-0.7,0.3-1.2,0.5-1.5,0.5
	c-0.1-0.2-0.2-0.5-0.3-0.7s-0.1-0.5-0.2-0.7c-0.2-0.6-0.4-1.3-0.6-2c-0.2-0.7-0.4-1.4-0.6-2c-0.1-0.1-0.1-0.1-0.1-0.2v-0.2
	c-0.1-0.1-0.1-0.2-0.1-0.4c0-0.1,0-0.2,0-0.4c0-0.1,0-0.3-0.1-0.5c0-0.2,0-0.3,0-0.5c-0.1-0.3-0.1-0.5-0.1-0.8
	c-0.1-0.1-0.2-0.3-0.3-0.4c0-0.2-0.1-0.4-0.1-0.7c-0.2-0.2-0.4-0.3-0.7-0.1c-0.1,0-0.1,0-0.2-0.1c0-0.1-0.1-0.1-0.2-0.2
	c0,0.1,0,0.1-0.1,0.1c0,0-0.1-0.1-0.2,0c-0.1-0.1-0.2-0.1-0.3-0.1s-0.2,0-0.3,0c-0.1,0.1-0.3,0.2-0.4,0.3c-0.1,0.1-0.2,0.2-0.3,0.2
	c-0.2,0.3-0.3,0.5-0.4,0.7c0,0.1-0.1,0.3-0.1,0.4s-0.1,0.2-0.1,0.3c-0.1,0.2-0.1,0.5,0.1,0.9c0.2,0.3,0.3,0.7,0.5,1
	c0.2,0.4,0.3,0.7,0.5,1c0.1,0.3,0.1,0.5-0.1,0.6c-0.1,0.1-0.1,0.2-0.3,0.4c-0.1,0.2-0.2,0.4-0.4,0.6c-0.1,0.2-0.3,0.3-0.4,0.5
	c-0.1,0.1-0.2,0.2-0.3,0.3c-0.2,0.3-0.4,0.5-0.4,0.6c-0.1,0.1-0.2,0.3-0.2,0.4c-0.1,0.1-0.2,0.3-0.3,0.4c-0.1,0.2-0.3,0.4-0.5,0.6
	s-0.3,0.4-0.3,0.5s-0.2,0.3-0.4,0.6c0,0-0.1,0.1-0.2,0.2s-0.2,0.3-0.4,0.4c-0.1,0.2-0.3,0.3-0.4,0.4s-0.2,0.2-0.2,0.2
	c-0.1,0.1-0.3,0.3-0.4,0.4s-0.2,0.2-0.3,0.4c-0.1,0.3-0.4,0.6-0.8,0.8c-0.4,0.2-0.7,0.5-0.7,0.7c0.1,0,0.2,0,0.3,0
	c0.1,0.1,0.3,0.1,0.4,0c0,0.1,0,0,0.1,0c0-0.1,0.1-0.1,0.2-0.1c0.1,0.1,0.1,0.1,0.2,0.1s0.1,0,0,0.1c0,0.1,0,0.1-0.1,0.1s-0.1,0,0,0
	c0,0.1,0,0.1,0,0.1c-0.1,0-0.1,0.1,0,0.1c0.1-0.1,0.1-0.1,0.3-0.2c0.1-0.1,0.2-0.1,0.2-0.1c0.1-0.1,0.1-0.1,0.1,0s0,0.1,0,0
	c0.1,0,0,0.1-0.1,0.1s-0.1,0,0,0c0,0,0,0.1,0.1,0.1c0.1-0.2,0.3-0.3,0.4-0.4s0.2-0.2,0.3-0.2c0.1-0.1,0.1-0.1,0.2-0.1
	c0.2-0.1,0.4-0.1,0.6-0.2s0.3-0.2,0.3-0.4c0,0,0,0,0.1-0.1s0.2-0.2,0.4-0.4c0.1-0.1,0.3-0.3,0.6-0.5c0.2-0.2,0.4-0.4,0.5-0.6
	s0.3-0.3,0.5-0.5c0,0,0.1-0.1,0.2-0.2c0.1-0.1,0.2-0.3,0.4-0.5c0.1-0.2,0.2-0.3,0.4-0.5c0.1-0.1,0.2-0.2,0.2-0.3
	c0.1,0,0.2-0.1,0.4-0.4s0.3-0.5,0.4-0.7c0-0.1,0.1-0.1,0.1,0s0.1,0.2,0.1,0.4c0,0.2,0,0.4,0,0.5c0,0.2,0,0.3,0,0.4c0,0,0.1,0,0.2,0
	c0,0.3,0.1,0.5,0.1,0.7c0.1,0.2,0.1,0.4,0.2,0.5c0,0.2,0.1,0.4,0.1,0.6s0.1,0.5,0.1,0.8c-1.2,0.7-2.4,1.4-3.6,2.2
	c-1.2,0.8-2.2,1.7-3.1,2.8v0.2c-0.1,0-0.2,0.2-0.4,0.4c-0.1,0.2-0.2,0.5-0.4,0.8c-0.1,0.3-0.2,0.6-0.2,0.9c-0.1,0.3-0.1,0.6-0.1,0.9
	c-0.1,0.1-0.1,0.1-0.1,0.2s0,0.1,0.1,0.1v-0.1c0,0,0,0,0-0.1c0,0.1,0,0.1,0,0.2s0.1,0.2,0.1,0.2c0,0.1-0.1,0.1-0.1,0.1s0,0,0,0.1
	s0.1,0.1,0.1,0.1v0.1c0.1,0.1,0.2,0.2,0.4,0.4c0.1,0.1,0.2,0.1,0.3,0.2c0.1,0.1,0.1,0.1,0.3,0.2c0.2,0.5,0.5,0.8,1,1
	c0.1,0.1,0.3,0.1,0.4,0.1s0.3,0.1,0.5,0.1v0.2h-0.1c0.1,0,0.1,0.1,0.1,0.2s0,0.2,0.1,0.2c0.2,0,0.5-0.1,0.7-0.2
	c0.3-0.1,0.5-0.2,0.7-0.2c0.1,0,0.1,0,0.1,0.1s0,0.1,0.1,0.1s0.1,0,0.1-0.1c0,0,0.1-0.1,0.2-0.1c0,0.1,0.1,0.2,0.1,0.3
	c0.2-0.1,0.4-0.2,0.5-0.4c0.1,0,0.1,0,0.1,0.1s0,0.1,0,0.1c0.1-0.1,0.1-0.1,0.3-0.1c0.1-0.2,0.2-0.3,0.5-0.4
	c0.1-0.1,0.1-0.2,0.2-0.3c0.1-0.1,0.1-0.1,0.2-0.2c0.1,0,0.1,0,0.1,0s0,0,0.1,0c0.1-0.1,0.1-0.2,0.2-0.2c0.1,0,0.2,0,0.3-0.1
	s0.1-0.2,0.2-0.3c0.1-0.1,0.1-0.2,0.2-0.3l0,0l0,0c0.1-0.1,0.1-0.1,0.1-0.2s0.1-0.2,0.2-0.3c0-0.1,0.1-0.1,0.1-0.1
	c0.1,0,0.1,0,0.1,0c0.1-0.1,0.1-0.2,0.2-0.3c0-0.1,0.1-0.1,0.2,0c0,0.1,0,0.2,0,0.2s0,0,0,0.1c0,0,0-0.1,0-0.2
	c0.1-0.1,0.3-0.2,0.4-0.3c0.1-0.1,0.2-0.2,0.2-0.3c0.1,0.1,0.1,0.1,0.1,0c0-0.2,0.1-0.2,0.2-0.2c0.1,0,0.1,0,0,0.1v0.1
	c0.1-0.1,0.1-0.3,0.2-0.4c0-0.2,0.1-0.3,0.2-0.3c0.1-0.1,0.1-0.2,0-0.3c0.1,0.1,0.2,0,0.2-0.1s0.1-0.2,0.2-0.2v0.1v0.1
	c0.1-0.1,0.2-0.2,0.3-0.4c0.1-0.2,0.2-0.4,0.2-0.6s0.1-0.4,0.1-0.6s0.1-0.3,0.1-0.4c0.2-0.8,0.4-1.6,0.4-2.5s0-1.7-0.1-2.5
	c0.4-0.1,1-0.3,1.8-0.7c0.7-0.4,1.5-0.7,2.2-1.1s1.4-0.8,1.9-1.2c0.5-0.4,0.8-0.6,0.7-0.8c0.1-0.1,0.1-0.1,0.3-0.1
	c0,0,0-0.1,0.1-0.1s0.1-0.1,0.1-0.1c-0.1,0-0.1,0-0.1,0s0,0,0.1,0h0.1c0,0,0,0-0.1,0c-0.2,0.1-0.4,0.1-0.4,0.1l0,0l0,0
	c0,0-0.1,0-0.4,0.1c-0.1,0-0.1-0.1-0.1-0.2c0.1-0.1,0.3-0.1,0.5-0.2s0.4-0.2,0.5-0.2c0.2-0.1,0.2-0.1,0.2-0.1s-0.1,0-0.1,0.1
	c-0.1,0-0.1,0.1-0.1,0.1s0,0,0.2,0c0.1,0,0.2-0.1,0.2-0.1l0,0l0,0c0,0,0,0,0.2-0.1c-0.1,0-0.2,0-0.3,0.1c-0.1,0-0.2,0-0.2,0
	c0.1-0.1,0.2-0.2,0.4-0.2s0.3,0,0.4-0.2c0-0.1,0-0.2,0.1-0.2c0,0,0.1-0.1,0.2-0.2c0-0.1-0.1-0.1-0.1-0.2c0.1-0.1,0.2-0.1,0.3,0
	c0-0.1,0-0.1-0.1-0.1H131c-0.2,0-0.4,0.1-0.6,0.1c-0.2,0-0.4,0.1-0.6,0.1c0-0.1,0-0.1-0.1-0.1s-0.1,0-0.1-0.1c0.1,0,0.1-0.1,0.2-0.2
	C129.6,72.5,129.4,72.5,129.3,72.5c0,0.1-0.1,0.1-0.2,0.1C129.1,72.5,129.2,72.5,129.3,72.5 M100.4,67.2c-0.1,0-0.2,0-0.2,0
	s-0.1,0-0.1,0.1c-0.1,0.1-0.2,0.1-0.4,0.2c-0.1,0.1-0.1,0.3-0.2,0.4s-0.1,0.3-0.2,0.4c0,0.1-0.1,0.1-0.1,0.2s-0.1,0.1-0.1,0.2
	C99,68.8,99,68.8,99,68.9s0,0.2-0.1,0.2c-0.1,0.1-0.1,0.3-0.1,0.5s0,0.4-0.1,0.5c0,0.1-0.1,0.3-0.1,0.5s-0.1,0.3-0.1,0.5
	C98.3,72,98,73,97.8,73.9s-0.4,1.9-0.6,2.9c-0.1,0.2-0.1,0.4-0.1,0.5c0,0.3,0,0.5-0.1,0.8c-0.1,0.2-0.1,0.5-0.2,0.7
	c-0.1,0.3-0.1,0.6-0.2,1c-0.1,0.3-0.1,0.6-0.2,1c-0.1,0.3-0.1,0.7-0.2,1c-0.1,0.4-0.1,0.7-0.1,1.1v0.5c0,0.3,0,0.6,0.1,0.9
	c0.1,0.1,0.1,0.2,0.2,0.3c0,0.1,0.1,0.2,0.3,0.3v-0.1v-0.1c0,0,0,0,0,0.1v0.1l0,0l0,0L97,85c0-0.1,0.1-0.1,0.1,0c0.1,0,0.1,0,0.2,0
	l0,0c0.1-0.1,0.2-0.1,0.2-0.2c0.1-0.1,0.1-0.1,0.3-0.2l0,0l0,0c0.1,0,0.1,0,0.1,0H98c0-0.1,0-0.2,0-0.3c0-0.1,0-0.2,0.1-0.3
	c0.1-0.1,0.1-0.2,0.1-0.1l0,0c0-0.1,0-0.1,0.1-0.1c0,0.1,0,0.1,0,0.2c0,0,0,0.1,0,0.2l0.1-0.3l0,0l0,0l0.1-0.1c0,0,0.1-0.1,0-0.2
	v0.1l0,0v-0.1v-0.1c0.1,0,0.1,0.1,0.1,0.1v0.1c0,0,0,0,0.1-0.1v-0.3l0.1-0.1v-0.3h0.1H99c0.1-0.4,0.3-0.8,0.5-1.1
	c0.1-0.1,0.1-0.1,0.1-0.1v-0.2l0.1-0.2c0,0,0-0.1,0.1-0.1c0-0.1,0-0.2,0-0.4c0.1-0.2,0.3-0.4,0.4-0.6s0.2-0.4,0.4-0.6
	c0,0,0-0.1,0.1-0.1c0,0,0-0.1,0.1-0.1l0,0l0.4-0.5c0.1-0.2,0.2-0.4,0.3-0.7l0,0l0.1-0.1c0.2-0.4,0.4-0.7,0.7-1
	c0.3-0.3,0.5-0.6,0.7-1l0,0c0.1-0.1,0.1-0.1,0.1-0.2s0.1-0.1,0.2-0.2c0.1-0.2,0.3-0.4,0.4-0.6s0.3-0.4,0.4-0.6
	c0.1-0.1,0.3-0.3,0.4-0.6c0.1-0.2,0.3-0.4,0.5-0.5c0.2-0.2,0.4-0.3,0.6-0.5c0.1-0.1,0.2-0.1,0.3-0.2c0.1-0.1,0.2-0.2,0.3-0.3
	c0.2-0.1,0.3-0.3,0.5-0.5c0.1-0.2,0.3-0.4,0.5-0.5s0.4-0.1,0.6-0.2s0.4-0.2,0.6-0.2c-0.1,0.3-0.2,0.5-0.3,0.8
	c-0.1,0.2-0.2,0.5-0.3,0.8c-0.1,0.3-0.2,0.5-0.2,0.8c-0.1,0.3-0.1,0.6-0.2,0.9c-0.2,0.5-0.4,1-0.6,1.5s-0.4,1-0.6,1.5
	c-0.1,0.2-0.2,0.5-0.3,0.8c-0.1,0.3-0.2,0.5-0.2,0.8l-0.1,0.9c-0.1,0.4-0.2,0.8-0.4,1.2c-0.2,0.4-0.2,0.8-0.2,1.3c0,0.2,0,0.3,0,0.5
	c0,0.1,0.1,0.3,0.1,0.4s0.1,0.1,0.1,0.2s0,0.2,0.1,0.2c0,0.1,0,0.1,0,0.2s0.1,0.1,0.1,0.2c0.3,0.3,0.7,0.5,1.2,0.8
	c0.1,0,0.3,0,0.5,0s0.3,0,0.5,0.1c0.3,0,0.6,0,0.9-0.1c0.2-0.1,0.4-0.1,0.6-0.2s0.4-0.1,0.6-0.2s0.3-0.1,0.4-0.1h0.1l0,0l0,0h0.1
	c0,0,0,0,0.1,0c0.1-0.1,0.2-0.1,0.2-0.2c0.1-0.1,0.2-0.2,0.4-0.2c0.3-0.2,0.5-0.4,0.6-0.4s0.2-0.2,0.5-0.5c0-0.1,0-0.1,0.1-0.2
	s0.2-0.1,0.3-0.2c0.1-0.1,0.2-0.1,0.3-0.2c0.3-0.2,0.6-0.5,0.9-0.7s0.6-0.4,0.9-0.7c0-0.1,0-0.1,0.1-0.2c0.1,0,0.1-0.1,0.1-0.2
	c-0.3,0.3-0.7,0.5-1,0.8s-0.7,0.5-1.1,0.7c0.1-0.1,0.2-0.3,0.4-0.4c0.1-0.1,0.2-0.2,0.4-0.3c0.1-0.1,0.1-0.1,0.1-0.1l0.1-0.1
	l0.1-0.1c0,0,0-0.1,0.1-0.1c0.2-0.2,0.4-0.3,0.5-0.4l0,0l0,0l0,0l0,0c0.1-0.1,0.2-0.3,0.4-0.4c0.1-0.1,0.2-0.3,0.4-0.4
	c0-0.1,0.1-0.2,0.1-0.3c0.1-0.1,0.1-0.2,0.1-0.3l0,0l0,0c-0.1,0-0.1,0-0.1,0h-0.1H115c-0.1,0.1-0.2,0.1-0.3,0.2
	c-0.1,0.1-0.2,0.1-0.3,0.2c-0.1,0-0.1,0-0.1,0h-0.1c-0.1,0-0.1,0.1-0.1,0.1l-0.1,0.1c-0.1,0-0.1,0-0.2,0s-0.1,0-0.1,0.1
	c-0.1,0.1-0.2,0.1-0.2,0.2c-0.1,0.1-0.2,0.1-0.2,0.2c-0.1,0.1-0.3,0.3-0.5,0.3c-0.2,0.1-0.4,0.2-0.5,0.2c-0.1-0.1-0.1-0.1-0.1-0.1
	c-0.1,0.1-0.2,0.1-0.2,0.2s-0.1,0.2-0.3,0.2c-0.1,0.1-0.2,0.2-0.3,0.2l-0.1,0.1c0,0-0.1,0-0.2,0.1c-0.1,0-0.2,0.1-0.3,0.2
	c-0.3,0.1-0.7,0.3-1,0.4s-0.7,0.2-1.2,0.2c-0.1-0.1-0.2-0.3-0.4-0.3s-0.3-0.2-0.3-0.5c0-0.1,0-0.2,0-0.2c0-0.1,0-0.2,0-0.2
	c0-0.2,0.1-0.5,0.1-0.7s0.1-0.4,0.1-0.5s0-0.1,0.1-0.2c0-0.1,0.1-0.1,0.1-0.2s0-0.2,0.1-0.3c0-0.2,0.1-0.3,0.2-0.5l0,0
	c0.2-0.4,0.4-0.8,0.5-1.3c0.2-0.4,0.3-0.9,0.5-1.3c0.1-0.2,0.2-0.5,0.2-0.7c0.1-0.2,0.2-0.4,0.2-0.6c0.1-0.3,0.2-0.5,0.3-0.6
	c0-0.1,0-0.1,0.1-0.2c0-0.1,0-0.1,0.1-0.2s0-0.1,0-0.2s0-0.1,0-0.2v-0.1c0,0,0,0,0-0.1s0-0.2,0-0.2c0-0.1,0-0.1,0-0.2s0-0.1,0-0.2
	l0.1-0.2c0-0.1,0-0.1,0-0.2s0-0.1,0-0.2c0.1-0.6,0.2-1.3,0.3-1.9v-0.4c0.1-0.1,0.1-0.2,0.1-0.4c0-0.1,0-0.1-0.1-0.2
	c-0.1,0-0.1-0.1-0.1-0.2c0,0,0,0,0-0.1s0-0.1,0-0.2s0-0.2,0-0.2c0-0.3-0.2-0.4-0.4-0.5c-0.3-0.2-0.6-0.2-1.1-0.2
	c-0.4,0-0.7,0.1-1,0.3c-0.3,0.1-0.6,0.3-0.8,0.4c-0.1,0.1-0.1,0.1-0.2,0.1s-0.1,0.1-0.2,0.1c-0.1,0.1-0.1,0.1-0.2,0.1
	s-0.1,0.1-0.2,0.1c-0.3,0.3-0.6,0.6-0.9,0.9s-0.6,0.6-0.9,0.9c0,0.1-0.1,0.1-0.1,0.2c-0.1,0-0.1,0.1-0.1,0.1s-0.1,0-0.1,0.1
	c-0.2,0.1-0.4,0.3-0.4,0.4c-0.1,0.1-0.2,0.3-0.2,0.4c-0.1,0.1-0.2,0.2-0.3,0.3c-0.1,0.1-0.2,0.2-0.3,0.3c-0.1,0.1-0.2,0.2-0.3,0.3
	c-0.1,0.1-0.2,0.2-0.2,0.4c-0.1,0.1-0.2,0.2-0.3,0.4c0-0.1,0-0.2,0-0.3c0-0.1,0-0.2,0-0.3c0-0.1,0-0.1,0-0.1v-0.1
	c0-0.2,0.1-0.5,0.1-0.7s0-0.4,0.1-0.7V71v-0.6c0-0.3,0-0.6,0-0.7c0-0.2,0-0.3,0-0.4c-0.1-0.1-0.1-0.1-0.1-0.2s0-0.1,0-0.1v-0.1
	c-0.1-0.1-0.1-0.1-0.1-0.2s-0.1-0.2-0.1-0.2c-0.1-0.2-0.1-0.4-0.2-0.5c-0.1-0.2-0.2-0.4-0.4-0.4c-0.1-0.1-0.1-0.1-0.2-0.1
	s-0.1,0-0.2,0s-0.1,0-0.2,0s-0.3,0-0.4,0h-0.3C100.6,67.1,100.5,67.2,100.4,67.2 M86.7,83.6C86.7,83.6,86.8,83.6,86.7,83.6
	C86.7,83.7,86.7,83.6,86.7,83.6 M90.9,68.5c-0.1,0.1-0.2,0.1-0.4,0.2h-0.1h-0.1l0,0v0.1h-0.1h-0.1c-0.1,0.1-0.2,0.1-0.3,0.3
	c-0.1,0.1-0.2,0.2-0.2,0.3l-0.1,0.1c0,0.1,0,0.1,0,0.2c-0.2,0.6-0.4,1.3-0.6,1.8c-0.2,0.6-0.4,1.2-0.7,1.8c-0.1,0.2-0.1,0.3-0.1,0.4
	S88,74,88,74.1s-0.1,0.2-0.1,0.4c-0.1,0.1-0.1,0.2-0.1,0.3c0,0.1-0.1,0.2-0.1,0.4c-0.1,0.4-0.2,0.7-0.3,1.1
	c-0.1,0.4-0.2,0.8-0.3,1.2c0,0.1,0,0.3,0,0.4v0.4c0,0.3,0,0.6,0,0.8c0,0.3-0.1,0.5-0.1,0.8c-0.1,0.3-0.1,0.6-0.1,0.9
	s-0.1,0.6-0.1,0.9v0.5c0,0.1,0,0.2,0,0.4c0,0.1,0,0.2,0,0.4c0,0.1,0,0.2,0,0.4c0,0.1,0,0.2,0.1,0.3c0.1,0.2,0.2,0.4,0.3,0.5
	c0.1,0.1,0.2,0.3,0.3,0.5c0,0.1,0,0.1,0,0.1v0.1c0.1,0.2,0.2,0.4,0.3,0.5c0.1,0.1,0.1,0.1,0.2,0.2c0,0,0.1,0.1,0.2,0.2
	s0.3,0.2,0.6,0.3H89c0.3,0,0.5-0.1,0.8-0.2c0.1,0,0.1,0,0.1,0l0,0c0,0,0,0,0.1,0c0.2-0.1,0.3-0.2,0.4-0.2h0.2l0.1-0.1
	c0,0,0.1-0.1,0.2-0.1c0.6-0.4,1.1-0.7,1.5-1.1c0.5-0.4,0.9-0.8,1.4-1.2c0.1-0.1,0.2-0.2,0.3-0.2c0.1-0.1,0.2-0.1,0.3-0.2
	c0.1-0.1,0.1-0.1,0.1-0.1l0.1-0.1c0.1,0,0.2-0.1,0.3-0.2l0.1-0.1c0.1-0.1,0.1-0.1,0.2-0.3c0.1-0.1,0.3-0.1,0.4-0.2s0.2-0.2,0.3-0.3
	v-0.1c0,0,0,0,0-0.1c0.2-0.3,0.4-0.5,0.7-0.7c0.1-0.1,0.1-0.1,0.2-0.2s0.2-0.2,0.2-0.2c0.1-0.1,0.3-0.3,0.4-0.5s0.2-0.4,0.4-0.5
	c0,0,0.1-0.1,0.2-0.3c0.1-0.1,0.1-0.2,0.2-0.3c0.1-0.1,0.1-0.2,0.2-0.3c0,0,0-0.1,0.1-0.1c0.1-0.1,0.1-0.2,0.1-0.1
	c0-0.1,0-0.2,0-0.2c0-0.1,0-0.1,0-0.2v-0.1c0,0,0,0,0-0.1c0.2-0.3,0.4-0.5,0.6-0.7c-0.1-0.1-0.1-0.2,0-0.2s0.1-0.1,0.1-0.2
	c-0.2,0-0.4,0-0.5,0.1s-0.3,0.1-0.4,0.2H98c-0.1,0-0.1,0-0.2,0s-0.1,0.1-0.2,0.1c-0.2,0.2-0.5,0.4-0.7,0.7c-0.2,0.2-0.4,0.4-0.7,0.6
	c-0.1,0-0.1,0.1-0.3,0.2c-0.2,0.1-0.3,0.2-0.5,0.4c-0.2,0.1-0.3,0.2-0.5,0.4c-0.1,0.1-0.3,0.2-0.4,0.3c-0.1,0.1-0.2,0.2-0.4,0.3
	l-0.2,0.2c-0.3,0.3-0.6,0.6-0.8,0.7c-0.2,0.1-0.5,0.4-0.8,0.6c-0.1,0.1-0.2,0.2-0.5,0.4c-0.1,0.1-0.1,0.1-0.2,0.2S91.4,82,91.4,82
	c-0.1,0.1-0.3,0.2-0.4,0.3c-0.1,0.1-0.3,0.2-0.5,0.2c-0.1,0.1-0.1,0.1-0.1,0.1h-0.3h-0.3c-0.1-0.4,0-0.7,0.2-0.9
	c0.2-0.2,0.3-0.5,0.4-0.8c0-0.1,0-0.1,0-0.2s0-0.1,0-0.2s0-0.1,0-0.1v-0.1c0.1-0.6,0.3-1.1,0.5-1.4c0.2-0.4,0.4-0.8,0.6-1.3
	c0.1-0.3,0.2-0.5,0.3-0.8c0.1-0.3,0.2-0.6,0.2-0.9c0-0.1,0.1-0.1,0.1-0.2s0-0.2,0.1-0.2c0-0.1,0.1-0.1,0.1-0.2s0-0.2,0-0.2
	c0-0.1,0.1-0.3,0.1-0.4s0.1-0.2,0.1-0.3c0,0,0-0.1,0.1-0.2c0-0.1,0-0.2,0-0.2c0-0.1,0.1-0.2,0.1-0.3s0.1-0.2,0.1-0.3v-0.1v-0.1v-0.1
	V73c0,0,0,0,0-0.1s0-0.1,0-0.1v-0.1l0,0v-0.1c0,0,0-0.1,0.1-0.1v-0.1c0,0,0,0,0-0.1s0-0.1,0-0.2v-0.3c0-0.5-0.1-0.9-0.3-1.1
	c0,0,0-0.1-0.1-0.2c0-0.1,0-0.1,0-0.2s0-0.2,0-0.3c0-0.2-0.1-0.3-0.1-0.5c0-0.1-0.1-0.3-0.2-0.4s-0.3-0.2-0.4-0.3
	c-0.1,0-0.2,0-0.3,0c-0.1,0-0.2,0-0.4-0.1h-0.3C91.1,68.4,91,68.5,90.9,68.5 M92.9,66.9C92.8,66.8,92.9,66.8,92.9,66.9
	c0.2-0.1,0.3-0.2,0.3-0.2c0.1,0,0.1-0.1,0.2-0.1c0.1-0.1,0.3-0.1,0.4-0.2c0.2-0.1,0.3-0.2,0.3-0.3c0.1-0.3,0.2-0.6,0.3-0.9
	c0.1-0.3,0.2-0.7,0.2-1.2s-0.1-0.8-0.2-1.1c-0.1-0.1-0.3-0.3-0.4-0.4s-0.3-0.2-0.5-0.3c-0.2,0.1-0.4,0.1-0.5,0.1
	c-0.2,0-0.4,0.1-0.6,0.1c0,0.1,0,0.2-0.1,0.2c-0.4,0.2-0.8,0.5-1.1,1c-0.3,0.4-0.4,0.9-0.4,1.4c0,0.2,0,0.3,0.1,0.4s0.1,0.3,0.2,0.4
	c0,0.2,0.1,0.4,0.2,0.5s0.1,0.2,0.2,0.4h0.2c0.1-0.1,0.1-0.1,0.1-0.2s0.1-0.1,0.2-0.1c0.1,0.1,0.1,0.1,0.1,0.2s0,0.2,0.1,0.3
	c0.1,0,0.1-0.1,0.1-0.2s0.1-0.2,0.2-0.2s0.2,0.1,0.3,0.2c0,0.1,0.1,0.2,0.3,0.2C92.8,67,92.9,66.9,92.9,66.9 M77.1,82L77.1,82
	C77.2,82,77.2,82.1,77.1,82C77.2,82.1,77.2,82.1,77.1,82L77.1,82z M62.9,81.5L62.9,81.5C63,81.5,63,81.5,62.9,81.5
	C63,81.6,62.9,81.6,62.9,81.5C62.9,81.6,62.9,81.6,62.9,81.5 M63,81.6C63,81.5,63,81.5,63,81.6C63.1,81.5,63.1,81.5,63,81.6
	C63.1,81.6,63.1,81.6,63,81.6c0.1,0.1,0.1,0.1,0.1,0.2C63.1,81.8,63.1,81.7,63,81.6C63,81.7,63,81.7,63,81.6L63,81.6
	C63.1,81.6,63.1,81.6,63,81.6C63.1,81.6,63.1,81.6,63,81.6 M62.9,81.3C63,81.3,63,81.3,62.9,81.3c0,0.1,0,0.1,0,0.2l0,0V81.3z
	 M63.2,81.4L63.2,81.4C63.1,81.4,63.1,81.4,63.2,81.4L63.2,81.4C63.1,81.4,63.1,81.4,63.2,81.4L63.2,81.4
	C63.2,81.3,63.2,81.3,63.2,81.4L63.2,81.4C63.3,81.3,63.3,81.4,63.2,81.4C63.3,81.4,63.3,81.4,63.2,81.4
	C63.2,81.4,63.2,81.5,63.2,81.4C63.2,81.5,63.2,81.5,63.2,81.4C63.2,81.5,63.2,81.5,63.2,81.4 M63.2,81.2
	C63.3,81.2,63.3,81.2,63.2,81.2C63.3,81.3,63.2,81.3,63.2,81.2C63.2,81.3,63.2,81.3,63.2,81.2C63.2,81.3,63.2,81.2,63.2,81.2
	 M63.2,81.1L63.2,81.1L63.2,81.1L63.2,81.1z M63.4,81.1c0-0.1,0.1-0.1,0.1-0.2C63.5,81,63.5,81,63.4,81.1
	C63.5,81,63.5,81.1,63.4,81.1C63.4,81.2,63.4,81.2,63.4,81.1C63.4,81.2,63.4,81.2,63.4,81.1L63.4,81.1 M63.4,80.9
	C63.4,80.9,63.4,80.8,63.4,80.9C63.5,80.9,63.5,80.9,63.4,80.9L63.4,80.9L63.4,80.9C63.4,81,63.4,81,63.4,80.9 M64.3,66.4
	c-0.2,0.2-0.5,0.4-0.7,0.5c0,0.1-0.1,0.2-0.2,0.3c0,0.1,0,0.1,0,0.1l-0.2,0.2v0.1c0,0.1-0.1,0.1-0.1,0.2c-0.1,0.2-0.2,0.5-0.3,0.7
	c-0.1,0.3-0.1,0.5-0.2,0.8c-0.2,1-0.4,1.9-0.6,2.9s-0.4,1.9-0.7,2.8c-0.1,0.6-0.3,1.2-0.4,1.8c-0.1,0.6-0.3,1.3-0.4,1.9
	c-0.1,0.7-0.2,1.4-0.2,2.1s-0.1,1.5-0.1,2.2l0,0v0.5c0,0.1,0,0.2,0,0.3v0.1c0,0.1,0,0.1,0,0.2s0,0.1,0,0.2c0.1,0.2,0.2,0.3,0.3,0.4
	l0,0c0.1,0,0.1-0.1,0-0.1c0,0,0,0,0-0.1c0.2-0.1,0.4-0.1,0.6-0.2s0.4-0.2,0.4-0.4c0.1,0,0.1-0.1,0.1-0.1l0.1-0.1
	c0.1-0.3,0.2-0.6,0.4-0.9l0.2-0.2h0.2c0.1-0.1,0.1-0.2,0.1-0.3c0-0.1,0.1-0.2,0.1-0.4l0,0l0,0c0-0.1,0.1-0.1,0.1-0.2
	s0.1-0.2,0.1-0.3c0.1,0,0.1,0,0.1,0s0,0,0.1,0c0-0.2,0-0.4,0.1-0.6c0.1-0.1,0.1-0.3,0.1-0.6c0.1,0,0.2,0,0.2,0c0,0.1,0,0.1,0,0.1
	s0,0,0,0.1v-0.1v-0.1h0.1c0,0,0,0,0.1,0c0.1-0.1,0.2-0.4,0.2-0.6c0-0.3,0-0.5,0.1-0.6h0.1c0-0.1,0.1-0.3,0.1-0.4s0.1-0.3,0.2-0.4
	c0.1-0.4,0.3-0.7,0.5-1.1s0.3-0.7,0.4-1.1c0-0.1,0-0.2,0-0.3c0,0,0-0.1,0.1-0.1c0.1-0.1,0.1-0.3,0.2-0.5c0-0.2,0.1-0.3,0.2-0.4
	c0-0.1,0-0.1,0-0.1v-0.1c0.1-0.1,0.1-0.3,0.2-0.4s0.1-0.1,0.2-0.2c0,0,0.1-0.1,0.2-0.2l0.6-0.6c0.2-0.2,0.4-0.5,0.5-0.7
	c0.2-0.2,0.4-0.4,0.6-0.6s0.5-0.4,0.7-0.5c0.2-0.2,0.5-0.4,0.7-0.5c0.1-0.1,0.3-0.2,0.4-0.3c0.1-0.1,0.2-0.2,0.4-0.3
	c0.1-0.1,0.2-0.2,0.4-0.2c0.1-0.1,0.3-0.1,0.5-0.1c0.1,0.1,0.1,0.2,0,0.3c0,0.1-0.1,0.2,0,0.4c0,0.1,0,0.1,0,0.1v0.1
	c0,0.1,0,0.3,0,0.4s-0.1,0.2-0.1,0.4c0,0.1,0,0.2,0,0.3c0,0.1,0,0.2,0,0.3c0,0.1,0,0.2,0,0.2c0,0.1,0,0.2,0,0.2
	c-0.2,0.7-0.4,1.4-0.6,2c-0.2,0.7-0.4,1.3-0.6,2c0,0.1-0.1,0.2-0.1,0.3c0,0.1-0.1,0.2-0.1,0.3c0,0.1-0.1,0.2-0.1,0.2
	c0,0.1-0.1,0.1-0.1,0.2c0,0.2,0,0.5-0.1,0.7c-0.1,0.3,0,0.5,0.2,0.6H70l0.1-0.4c0.2-0.1,0.4-0.2,0.5-0.4c0.1-0.2,0.2-0.4,0.5-0.5
	c-0.1,0.1-0.1,0.2-0.2,0.3c0.1,0.5,0.1,0.6,0,0.7c0.1,0,0.1,0,0.1-0.1l0.1-0.1c0-0.1,0.1-0.2,0.2-0.3c0.1-0.1,0.2-0.2,0.2-0.3
	c0.4-0.4,0.8-0.9,1.1-1.3c0.4-0.4,0.8-0.8,1.2-1.2c0.5-0.5,1-0.9,1.5-1.4s1-0.9,1.6-1.3c0.4-0.3,0.8-0.5,1.2-0.7
	c0.4-0.2,0.8-0.5,1.3-0.7c0,0.2-0.1,0.4-0.2,0.5C79.1,71.9,79,72,79,72.2c-0.2,0.4-0.4,0.8-0.5,1.3c-0.2,0.4-0.3,0.9-0.5,1.3
	c-0.1,0.1-0.1,0.3-0.2,0.5s-0.2,0.4-0.2,0.5c0,0.2-0.1,0.4-0.2,0.6s-0.1,0.4-0.2,0.6c-0.1,0.5-0.2,1-0.3,1.5
	c-0.1,0.5-0.1,1.1-0.2,1.6h-0.1c0,0,0,0-0.1,0c0,0.1,0.1,0.3,0.1,0.4s0,0.3,0,0.5v0.1l0.1,0.1v0.4c0,0.2,0.1,0.4,0.2,0.5
	s0.2,0.3,0.2,0.4c0.1,0,0.1,0,0.1,0l0.1,0.1c0.1,0.2,0.2,0.4,0.4,0.6c0.1,0.2,0.3,0.3,0.5,0.4l0.2,0.1v0.1c0,0,0,0,0,0.1
	c0.1,0.1,0.3,0.2,0.4,0.3c0.2,0,0.3-0.1,0.5-0.2c0.1,0,0.1,0,0.1,0s0,0,0.1,0h0.1c0,0,0,0,0.1,0h0.1h0.1l0,0l0,0H80
	c0.1,0,0.2,0,0.3,0c0.1,0,0.2,0,0.3,0c0.3-0.1,0.6-0.1,0.9-0.2s0.6-0.2,0.8-0.2l0.1-0.2c0.1,0,0.2,0,0.3-0.1
	c0.1-0.1,0.1-0.2,0.2-0.2L83,83c0,0,0.1-0.1,0.2-0.1c0.3-0.2,0.6-0.4,0.9-0.6s0.6-0.5,0.8-0.8v-0.1c0.4-0.2,0.8-0.5,1.1-0.8
	c0.3-0.3,0.7-0.6,1-0.9l0.1-0.1v-0.1c0,0,0,0,0-0.1c0.1-0.1,0.1-0.1,0.1-0.2l0,0c-0.3,0.3-0.6,0.5-0.9,0.8s-0.6,0.5-0.9,0.7l0,0
	c0.2-0.2,0.5-0.5,0.8-0.7c0-0.2,0.1-0.3,0.2-0.4s0.2-0.2,0.4-0.3l0,0l0,0c0.1-0.1,0.2-0.3,0.4-0.4c0.1-0.1,0.2-0.3,0.4-0.4
	c0-0.1,0-0.2,0.1-0.2s0.1-0.1,0.1-0.2V78c-0.1-0.1-0.1-0.1-0.1-0.2c-0.1,0-0.2,0-0.4,0c-0.1,0-0.3,0.1-0.4,0.2s-0.2,0.2-0.3,0.2
	c-0.1,0-0.1,0-0.1,0h-0.1l-0.2,0.2c-0.1,0.1-0.1,0.1-0.1,0.1s-0.1,0-0.1,0.1c-0.1,0.1-0.3,0.3-0.4,0.4s-0.3,0.2-0.4,0.4
	c-0.1,0-0.1,0.1-0.1,0.1s-0.1,0-0.1,0.1c-0.1,0.1-0.2,0.1-0.3,0.1l0,0c0,0,0,0-0.1,0s-0.1,0-0.1,0.1s-0.1,0.1-0.1,0.1
	c-0.1,0.1-0.2,0.1-0.3,0.2c-0.4,0.4-0.8,0.7-1.3,1s-1,0.6-1.5,0.8v-0.1v-0.1v-0.1v-0.1c0-0.1,0-0.2,0-0.3c0-0.1,0-0.2,0-0.2
	c0-0.1,0-0.3,0-0.5c0-0.1,0-0.2,0-0.5c0-0.1,0-0.1,0-0.2s0-0.1,0-0.2s0-0.3,0-0.5c0-0.1,0-0.3,0.1-0.4c0.1-0.5,0.3-1,0.5-1.6
	c0.2-0.5,0.3-1,0.5-1.5l0.1-0.4v-0.1c0-0.1,0-0.2,0.1-0.2c0.1-0.3,0.2-0.6,0.3-0.9c0.1-0.3,0.2-0.6,0.3-0.9c0-0.1,0-0.2,0-0.3
	s0-0.2,0.1-0.3c0-0.1,0.1-0.2,0.1-0.3c0-0.1,0-0.2,0-0.3c0-0.3,0.1-0.6,0.2-0.8c0-0.1,0-0.1,0-0.1v-0.1v-0.2c0-0.1,0-0.2,0-0.2
	c0-0.1,0-0.1,0-0.1s0,0,0-0.1s0-0.1,0-0.2s0-0.2,0-0.3c0,0,0-0.1,0-0.2c-0.1-0.1-0.1-0.3,0-0.6c0-0.1,0-0.3-0.1-0.4
	s-0.2-0.2-0.3-0.2c-0.1-0.1-0.3-0.1-0.4-0.2c-0.3-0.1-0.6-0.2-1-0.2c-0.1,0-0.3,0.1-0.4,0.1s-0.3,0.1-0.4,0.2
	c-0.4,0.1-0.6,0.2-0.8,0.3c-0.3,0.1-0.5,0.2-0.8,0.3c-0.3,0.1-0.5,0.2-0.7,0.3c-0.8,0.4-1.5,0.7-2.2,1.2c-0.7,0.4-1.3,0.9-2,1.4
	c-0.2,0.2-0.4,0.3-0.6,0.5s-0.4,0.3-0.6,0.5c-0.1,0.1-0.2,0.1-0.3,0.3c-0.1,0.1-0.3,0.3-0.4,0.4s-0.3,0.3-0.4,0.4
	c0.1-0.3,0.1-0.6,0.2-0.9s0.1-0.6,0.2-0.9s0.1-0.6,0.2-0.9s0.1-0.6,0-0.9c-0.1,0-0.1,0.1,0,0.2c0,0.1,0,0.1,0,0.2
	c-0.1,0-0.1-0.1,0-0.1v-0.1c0-0.1,0-0.1-0.1-0.1c0,0-0.1,0-0.1-0.1c-0.1-0.2-0.1-0.4-0.2-0.5c-0.1-0.2-0.2-0.3-0.2-0.5
	c-0.2-0.1-0.5-0.2-0.8-0.1s-0.5,0.2-0.7,0.2c-0.1,0.1-0.2,0.1-0.3,0.2c-0.1,0-0.2,0.1-0.3,0.2c-0.5,0.3-1,0.7-1.4,1
	c-0.4,0.4-0.9,0.7-1.3,1c0.1-0.3,0.1-0.7,0.2-1c0-0.4,0.1-0.8,0.1-1.2v-0.4c0-0.1,0-0.1,0-0.2s0-0.1,0-0.2s0-0.3,0-0.4
	s0-0.2-0.1-0.4c0-0.2,0-0.4-0.1-0.7c-0.1-0.3-0.4-0.5-0.8-0.7c-0.1,0-0.1,0-0.2,0l-0.1-0.1c0,0,0-0.1-0.1-0.1
	c-0.1-0.1-0.1-0.1-0.2-0.1s-0.2,0-0.3-0.1c-0.1,0-0.1-0.1-0.2-0.1s-0.2,0-0.2,0h-0.3C64.8,66.1,64.5,66.2,64.3,66.4 M53.8,68.4H54
	c0.1,0.1,0.2,0.1,0.4,0.2c0.1,0,0.2,0.1,0.3,0.1c0.1,0,0.1,0,0.1,0.1l0.1,0.1c0.2,0.1,0.4,0.2,0.6,0.3c0.2,0.1,0.4,0.2,0.6,0.3v0.1
	c0,0,0,0,0,0.1c0.1,0.1,0.2,0.2,0.3,0.3c0.1,0.1,0.2,0.2,0.2,0.4c0.2,0.4,0.4,0.9,0.6,1.4c0.2,0.4,0.3,0.8,0.3,1.1
	c0,0.4,0.1,0.8,0.1,1.3c0,0.3,0,0.5,0,0.8c0,0.2,0,0.5-0.1,0.7v0.5c0,0.2,0,0.3-0.1,0.4c-0.1,0.8-0.4,1.5-0.7,2.1
	c-0.3,0.6-0.7,1.2-1.1,1.7c-0.6,0.8-1.3,1.3-2.2,1.6c-1,0.3-2.1,0.3-3.4,0.1c-0.3,0-0.5-0.1-0.8-0.2s-0.5-0.2-0.8-0.2
	c-0.3-0.1-0.6-0.2-0.8-0.4c-0.1-0.1-0.1-0.1-0.2-0.1c-0.1,0-0.1-0.1-0.2-0.1C47.1,81,47,80.8,47,80.6s0-0.3,0-0.5c0-0.1,0-0.3,0-0.5
	v-0.5c0.1-1.1,0.3-2.1,0.8-3s0.9-1.8,1.5-2.6c0.2-0.1,0.3-0.3,0.4-0.4c0.3-0.3,0.5-0.5,0.6-0.7c0.2-0.2,0.5-0.4,0.7-0.6
	c0.2-0.2,0.4-0.4,0.7-0.6c0.1-0.1,0.2-0.1,0.3-0.3c0-0.2,0.1-0.4,0.2-0.6c0.1-0.1,0.2-0.2,0.2-0.3c0.2-0.1,0.3-0.3,0.5-0.5v-0.3
	C53,69.1,53,69,53.1,69s0.1-0.1,0.2-0.2C53.5,68.7,53.6,68.6,53.8,68.4 M54.5,64.6C54.4,64.6,54.4,64.6,54.5,64.6c0-0.1,0-0.1,0-0.2
	c-0.2,0.1-0.3,0.2-0.5,0.3c-0.1,0.1-0.3,0.2-0.5,0.3c-0.3,0.1-0.5,0.1-0.8,0.2c-0.2,0.1-0.5,0.1-0.9,0.1c-0.3,0-0.5-0.1-0.7-0.4
	c-0.1-0.2-0.3-0.4-0.4-0.6c0-0.1,0-0.2,0-0.3c0-0.1,0-0.2,0-0.4c0.1-0.1,0.1-0.1,0.1-0.2s0-0.1,0-0.2c0.1-0.3,0.1-0.6,0.2-0.9
	s0.1-0.5,0.2-0.8c0.1-0.2,0.2-0.5,0.3-0.7c0-0.2,0.1-0.5,0.3-0.7c0.1-0.4,0.2-0.7,0.4-1c0.2-0.3,0.3-0.7,0.4-1
	c0.1-0.1,0.2-0.2,0.3-0.4c0.1-0.1,0.1-0.3,0.3-0.4c0-0.1,0-0.1,0.1-0.2V57c0-0.1,0-0.1,0.1-0.1c0,0,0.1-0.1,0-0.1
	c0.2-0.4,0.4-0.8,0.7-1.1c0.2-0.4,0.5-0.8,0.7-1.2c0.1-0.1,0.2-0.3,0.3-0.4c0.1-0.2,0.2-0.3,0.2-0.4s0.1-0.1,0.2-0.2
	s0.1-0.1,0.2-0.2c0.3,0.1,0.5,0.2,0.7,0.4c0.2,0.2,0.3,0.4,0.5,0.7c0.1,0.2,0.2,0.5,0.3,0.8c0.1,0.3,0.1,0.6,0.2,0.9s0.2,0.6,0.2,1
	s0,0.8,0,1.1c-0.1,0.1-0.1,0.3,0,0.4c0,0.1,0,0.2,0,0.4c0,0.1,0,0.1,0,0.2s0,0.1,0,0.2v0.2c-0.1,0.5-0.1,0.8-0.3,1.1
	c-0.1,0.2-0.1,0.5-0.2,0.7c-0.1,0.3-0.2,0.5-0.4,0.8c-0.1,0.1-0.1,0.3-0.1,0.4s-0.1,0.2-0.1,0.3L54.5,64.6z M56.7,51.2
	c0-0.1,0-0.2,0-0.3c-0.1-0.1-0.1-0.1-0.1-0.1s0-0.1-0.1-0.1c0-0.3-0.1-0.5-0.2-0.6s-0.2-0.3-0.2-0.5c-0.1-0.1-0.2-0.1-0.3-0.2
	c-0.1-0.1-0.2-0.1-0.4-0.2c-0.2-0.1-0.4-0.1-0.6,0c-0.2,0-0.4,0.1-0.5,0.1c-0.1,0.1-0.3,0.1-0.4,0.3c-0.1,0.1-0.2,0.2-0.3,0.3
	c-0.1,0.1-0.2,0.1-0.3,0.2c-0.1,0.1-0.2,0.2-0.2,0.3L53,50.5c-0.2,0.2-0.4,0.5-0.6,0.8h-0.1c0,0,0,0-0.1,0c0,0.1-0.1,0.3-0.2,0.4
	s-0.2,0.2-0.3,0.3v0.1l-0.3,0.3c-0.1,0.1-0.1,0.2-0.2,0.3S51.1,52.9,51,53c-0.1,0.1-0.2,0.3-0.3,0.4s-0.2,0.3-0.3,0.4
	c0,0.1-0.1,0.3-0.2,0.5c-0.1,0.2-0.2,0.3-0.2,0.5c-0.1,0.1-0.2,0.3-0.2,0.4c-0.1,0.1-0.1,0.2-0.2,0.4l-0.1,0.1c0,0.1,0,0.1,0,0.2
	s0,0.1,0,0.2c-0.1,0.1-0.1,0.1-0.1,0.2s-0.1,0.1-0.1,0.2s-0.1,0.2-0.1,0.2c-0.1,0.3-0.2,0.5-0.4,0.8c-0.1,0.3-0.2,0.5-0.3,0.7
	s-0.1,0.4-0.2,0.6c-0.1,0.2-0.1,0.4-0.2,0.6C48,59.5,48,59.7,48,59.9s-0.1,0.4-0.1,0.5c-0.1,0.1-0.1,0.2-0.1,0.3
	c0,0.1,0,0.2-0.1,0.3c-0.1,0.3-0.1,0.7-0.2,1.1c-0.1,0.4-0.1,0.8,0,1.1c-0.1,0.4-0.1,0.7,0,1.1s0.2,0.8,0.3,1.1
	c0.2,0.4,0.4,0.7,0.5,1.1c0.1,0,0.1,0,0.1,0.1s0.1,0.1,0.1,0.2c0.1,0.1,0.3,0.3,0.5,0.4s0.4,0.2,0.6,0.3c-0.4,0.4-0.7,0.7-1.1,1
	c-0.4,0.3-0.8,0.6-1.1,1c-0.1,0.1-0.2,0.3-0.3,0.4s-0.2,0.3-0.3,0.4c-0.4,0.4-0.7,0.7-1,1.2c-0.3,0.4-0.5,0.9-0.8,1.3
	c-0.4,0.9-0.8,1.8-1.1,2.8s-0.4,2.1-0.3,3.3c0,0.4,0.1,0.7,0.2,1.2c0.1,0.4,0.2,0.8,0.3,1.3c0.1,0.1,0.1,0.3,0.2,0.6
	c0.1,0.1,0.1,0.3,0.2,0.4c0.1,0.1,0.2,0.2,0.2,0.4c0.1,0.3,0.3,0.5,0.6,0.7c0.2,0.2,0.5,0.4,0.7,0.6c0.4,0.2,0.9,0.4,1.4,0.6
	s1.1,0.4,1.6,0.5h0.2h1.5c0.4,0,0.8,0,1.1,0c0.4,0,0.7-0.1,1-0.1c0.3-0.1,0.6-0.1,0.9-0.2s0.6-0.2,0.9-0.2c0.3-0.1,0.6-0.2,0.9-0.3
	c0.3-0.1,0.6-0.3,0.7-0.5v-0.2c0.2-0.2,0.4-0.4,0.6-0.6s0.4-0.4,0.6-0.6c-0.1,0-0.1,0-0.1,0c0.1-0.1,0.3-0.3,0.4-0.5
	s0.3-0.4,0.4-0.6l0.1-0.1l0.1-0.1c0-0.1,0.1-0.1,0.1-0.2c0.1-0.1,0.1-0.1,0.1-0.2v-0.3c0.1-0.1,0.2-0.3,0.2-0.4
	c0.1-0.1,0.1-0.2,0.2-0.4c0-0.1,0.1-0.1,0.1-0.2s0.1-0.2,0.1-0.2c0.1-0.1,0.1-0.3,0.2-0.4s0.1-0.3,0.2-0.4c0-0.1,0.1-0.1,0.1-0.1
	s0,0,0.1-0.1c0.1-0.2,0.1-0.5,0.2-0.8c0-0.3,0.1-0.6,0.1-0.9c0,0,0-0.1,0.1-0.2c0.1-0.9,0.1-1.8,0-2.5c-0.1-0.8-0.2-1.5-0.4-2.3
	c-0.1-0.1-0.2-0.2-0.2-0.4c0-0.2-0.1-0.3-0.1-0.4s-0.1-0.1-0.1-0.1l-0.1-0.1c-0.1-0.1-0.1-0.2-0.1-0.3c0-0.1-0.1-0.2-0.1-0.3
	c-0.1-0.1-0.1-0.1-0.2-0.2c0-0.1-0.1-0.1,0-0.2c-0.1-0.1-0.2-0.2-0.2-0.3c-0.1-0.1-0.2-0.2-0.3-0.3c-0.1-0.1-0.1-0.3-0.2-0.4
	s-0.2-0.2-0.2-0.3c-0.3-0.1-0.6-0.2-0.7-0.3c-0.2-0.2-0.4-0.3-0.6-0.4c-0.1-0.1-0.2-0.2-0.3-0.2c-0.1,0-0.3-0.1-0.4-0.2
	c-0.1,0-0.1,0-0.2-0.1s-0.2-0.1-0.3,0c0,0,0,0,0.1,0s0.1,0,0.1,0.1c-0.2,0.1-0.3,0.1-0.5,0c-0.2,0-0.3-0.1-0.3-0.2
	c0.1-0.1,0.1-0.1,0.2-0.1s0.2-0.1,0.2-0.2c-0.2-0.1-0.2-0.2-0.1-0.4c0.1-0.1,0.2-0.2,0.3-0.3c0.2-0.1,0.4-0.2,0.5-0.3
	c0.1-0.1,0.2-0.3,0.4-0.4c0.1-0.1,0.1-0.1,0.2-0.2s0.2-0.1,0.2-0.2c0.1-0.2,0.3-0.4,0.4-0.6s0.3-0.4,0.5-0.5
	c0.1-0.1,0.1-0.1,0.2-0.2c0-0.1,0.1-0.1,0.2-0.2c0.3-0.6,0.6-1.3,0.9-1.9s0.5-1.3,0.7-2c0-0.1,0.1-0.1,0.1-0.2
	c0.1-0.2,0.1-0.3,0.1-0.4s0-0.3,0-0.4s0-0.3,0.1-0.4c0,0.1,0,0.1,0,0.2s0,0.1,0,0.2c0.1-0.1,0.1-0.2,0.1-0.3c0-0.2,0-0.3,0-0.3
	c0.1,0,0.1,0,0.1,0V58c0-0.3,0-0.6,0.1-0.9s0.1-0.6,0-0.8c0.1-0.2,0.1-0.5,0.1-0.7s-0.1-0.5-0.1-0.7l0,0c0-0.2-0.1-0.4-0.2-0.7
	c0,0,0,0-0.1,0h-0.1c-0.1-0.3-0.3-0.6-0.4-0.9s-0.4-0.4-0.7-0.5c-0.1-0.1-0.3-0.2-0.4-0.4c-0.1-0.1-0.3-0.2-0.4-0.4
	c-0.1,0-0.2-0.1-0.4-0.2c-0.1,0-0.1-0.1-0.2-0.1s-0.1-0.1-0.2-0.1s-0.1-0.1-0.2-0.1s-0.2-0.1-0.2-0.1C56.8,51.4,56.8,51.3,56.7,51.2
	 M27.2,83.3c0.1,0,0.1,0.1,0.1,0.2c-0.1,0-0.1,0-0.2,0s-0.1-0.1-0.2-0.1C27.1,83.2,27.1,83.2,27.2,83.3 M43.9,82.9
	c0.2,0,0.4,0,0.6,0c-0.3,0.1-0.7,0.2-1.2,0.1C43.5,82.9,43.7,82.9,43.9,82.9 M45.3,82.5c-0.1,0.1-0.3,0.1-0.4,0.1
	c-0.2,0-0.3,0.1-0.5,0.1C44.7,82.7,45,82.6,45.3,82.5 M26.8,81.5c0-0.3-0.1-0.6-0.2-0.9C26.7,80.9,26.8,81.1,26.8,81.5
	c0.2,0.3,0.2,0.6,0.3,0.8C26.9,82.1,26.8,81.8,26.8,81.5 M27.2,78.6C27.2,78.7,27.2,78.7,27.2,78.6s0.1-0.2,0.2-0.1l0,0v-0.1
	c0.1-0.1,0.2-0.3,0.2-0.5s0-0.4,0.1-0.5c0,0.1,0,0.3,0,0.7c0.1,0,0.1-0.1,0-0.2c0-0.1,0-0.1,0-0.2s0-0.1,0-0.1c0.1,0,0.1,0,0.1,0
	c0-0.1,0-0.3,0-0.5s0-0.3,0.1-0.5c0.2-0.1,0.4-0.3,0.5-0.4c0.2-0.1,0.4-0.2,0.7-0.3c0.4-0.1,0.7-0.2,1.2-0.2
	c0.4-0.1,0.9-0.1,1.3,0.1c-0.6-0.1-1.2-0.2-1.8,0c-0.6,0.1-1.2,0.3-1.5,0.6c0,0,0-0.1,0.1-0.2s0.1-0.1,0.2-0.1c0-0.1,0-0.1,0-0.1
	s0.1,0,0.1-0.1c0.4-0.1,0.8-0.3,1.3-0.4s1-0.2,1.6-0.1c0.1,0,0.1,0,0.2,0c0.1,0,0.1,0,0.2,0c0.1,0,0.2,0,0.2,0s0.1,0,0.2,0.1
	c-0.1,0.3-0.2,0.6-0.3,0.9s-0.2,0.6-0.4,0.9c-0.1,0.4-0.1,0.7-0.3,1c-0.1,0.3-0.2,0.6-0.3,0.9c-0.1,0.4-0.3,0.8-0.4,1.2
	c-0.1,0.5-0.3,0.9-0.4,1.3c-0.2,0.4-0.4,0.7-0.7,0.9c-0.3,0.2-0.7,0.3-1.2,0.4c-0.1,0-0.1,0-0.1,0l0,0c-0.3,0-0.5,0-0.6-0.1
	s-0.2-0.3-0.3-0.4c-0.1-0.2-0.1-0.4-0.1-0.6s-0.1-0.4-0.1-0.5h-0.1H27c0-0.1,0-0.2,0-0.2c0-0.3,0-0.6-0.1-1
	C27,79.5,27,79.1,27.2,78.6L27.2,78.6L27.2,78.6 M47.8,80.3C47.8,80.2,47.9,80.2,47.8,80.3l0.2-0.2c-0.1,0.1-0.1,0.1-0.1,0
	s0-0.1,0-0.1c-0.2,0.1-0.5,0.2-0.7,0.2c-0.1-0.1-0.1-0.3-0.1-0.4c0-0.2,0.1-0.3,0.1-0.4c-0.4,0.2-0.8,0.4-1.3,0.6
	c-0.4,0.2-0.9,0.4-1.4,0.6c-0.3,0.1-0.5,0.2-0.7,0.2c-0.2,0.1-0.5,0.1-0.7,0s-0.4-0.1-0.6-0.2c-0.4-0.1-0.7-0.2-1.1-0.4
	c-0.4-0.2-0.7-0.3-1-0.5c-0.3-0.3-0.6-0.6-1-0.7s-0.7-0.4-1-0.7c-0.1,0-0.2-0.1-0.2-0.1c0-0.1-0.1-0.1-0.2-0.1
	c-0.1-0.2-0.3-0.3-0.5-0.4s-0.3-0.3-0.5-0.5c0.1-0.4,0.3-0.8,0.5-1.1c0.2-0.3,0.4-0.7,0.4-1.1c0.1,0,0.1,0,0.1,0l0.1-0.1
	c0.1-0.3,0.2-0.6,0.3-0.8c0.2-0.2,0.3-0.4,0.3-0.8c0.2-0.2,0.3-0.4,0.4-0.7c0.1-0.3,0.2-0.5,0.4-0.7c0.1-0.3,0.2-0.6,0.3-0.8
	s0.2-0.5,0.3-0.8c0.1-0.1,0.2-0.3,0.2-0.4s0.1-0.2,0.2-0.4l0.1-0.1c0-0.1,0.1-0.1,0.1-0.2s0-0.2,0.1-0.2c0.1-0.3,0.3-0.6,0.5-0.9
	s0.3-0.6,0.4-0.9c0.2-0.2,0.3-0.4,0.4-0.7c0.1-0.3,0.2-0.5,0.3-0.7c0.1,0,0.1,0,0.1,0s0,0,0.1,0c0.1-0.2,0.1-0.4,0.3-0.6
	c0.1-0.2,0.2-0.4,0.3-0.6c0-0.1,0.1-0.1,0.1-0.2s0.1-0.1,0.1-0.2c0.1-0.1,0.1-0.3,0.1-0.4s0.1-0.2,0.2-0.4l0,0l0,0
	c0.1-0.1,0.2-0.3,0.3-0.4c0.1-0.2,0.1-0.3,0.2-0.5c0.2-0.3,0.3-0.6,0.5-0.9c0.1-0.3,0.3-0.6,0.4-1c0.1-0.1,0.1-0.2,0.1-0.3
	c0-0.1,0.1-0.3,0.1-0.4s0.1-0.2,0.1-0.4c0.1-0.1,0.1-0.3,0-0.4c0.1-0.2,0.3-0.5,0.4-0.8c0.1-0.3,0.2-0.6,0.2-0.9
	c0.2-0.4,0.3-0.8,0.4-1.2c0.1-0.4,0.1-0.9,0-1.3c0-0.1,0-0.2,0-0.4c-0.1-0.1-0.1-0.3-0.2-0.5c0-0.2-0.1-0.4-0.1-0.5
	c-0.1-0.2-0.2-0.4-0.4-0.7c-0.2-0.2-0.3-0.4-0.2-0.5c-0.1-0.1-0.1-0.1-0.1,0c0,0,0,0.1-0.1,0c-0.2-0.4-0.5-0.7-0.9-1
	c-0.4-0.2-0.7-0.5-1-0.7c-0.2-0.1-0.4-0.1-0.5-0.2c-0.1-0.1-0.2-0.1-0.4-0.2c-1.5-0.1-2.9,0.1-4.2,0.7c-1.3,0.6-2.3,1.4-3.1,2.2
	c-0.2,0.1-0.3,0.3-0.5,0.5c-0.1,0.2-0.3,0.3-0.4,0.5c-0.2,0.2-0.3,0.4-0.4,0.6c-0.1,0.1-0.2,0.3-0.4,0.5c0,0.1-0.1,0.1-0.1,0.2
	s-0.1,0.1-0.2,0.2c-0.1,0.2-0.2,0.4-0.3,0.5s-0.2,0.3-0.2,0.5c-0.1,0.3-0.2,0.6-0.3,0.9c0,0.3-0.1,0.6-0.2,0.9
	c-0.1,0.3-0.1,0.6-0.1,0.9c0,0.2-0.1,0.4-0.1,0.6s-0.1,0.4,0,0.6c0,0.1,0,0.1,0,0.1v0.1c0.1,0.2,0.1,0.5,0.1,0.8s0.1,0.5,0.2,0.8
	c0.1,0.1,0.3,0.2,0.4,0.2c0.1,0.1,0.3,0.1,0.6,0c0.1,0,0.1-0.1,0.2-0.1c0,0,0.1,0,0.2,0c0.1-0.3,0.2-0.7,0.3-1.1
	c0-0.4,0.1-0.8,0-1.2c0.1-0.3,0.1-0.5,0.2-0.7c0.1-0.2,0.1-0.5,0.2-0.8c0.1-0.1,0.2-0.3,0.2-0.5s0-0.3,0.1-0.4l0,0l0,0
	c0.1-0.2,0.2-0.4,0.3-0.7c0.1-0.1,0.1-0.2,0.2-0.3c0-0.1,0.1-0.2,0.2-0.4c0,0,0,0,0.1,0c0.1-0.1,0.2-0.2,0.2-0.4
	c0.1-0.1,0.2-0.3,0.2-0.4c0.1-0.1,0.1-0.1,0.2-0.2c0.1-0.1,0.1-0.1,0.2-0.2c0.1-0.1,0.1-0.1,0.1-0.2s0.1-0.1,0.1-0.2h0.1
	c0.1-0.1,0.1-0.2,0.1-0.2c0.1-0.1,0.2-0.2,0.3-0.2s0.2-0.1,0.3-0.2s0.1-0.1,0.2-0.2c0.1-0.1,0.1-0.1,0.2-0.2
	c0.1-0.1,0.3-0.2,0.4-0.3c0.1-0.1,0.3-0.2,0.4-0.2l0.1-0.1c0,0,0.1,0,0.1-0.1c0.3-0.1,0.5-0.1,0.6-0.3c0.2,0,0.4-0.1,0.6-0.2
	c0.2-0.1,0.4-0.1,0.6,0c0,0.1,0,0.1,0.1,0.1s0.1,0,0,0.1c0.4,0.3,0.6,0.7,0.7,1.1c0,0.2,0,0.5,0,0.7c-0.1,0.3-0.1,0.5-0.2,0.8
	C41,55.5,41,55.7,41,55.8c0,0.2,0,0.4-0.1,0.5c-0.1,0.3-0.1,0.6-0.2,0.9c-0.1,0.3-0.2,0.6-0.3,0.9c-0.1,0.2-0.2,0.4-0.3,0.6
	c0,0.2-0.1,0.4-0.3,0.6c-0.1,0.3-0.2,0.5-0.4,0.8s-0.3,0.6-0.5,0.8c0,0.1,0,0.1,0,0.1s0,0,0,0.1c-0.1,0.2-0.2,0.4-0.2,0.5
	c-0.2,0.3-0.3,0.6-0.5,0.9s-0.3,0.6-0.5,0.9c-0.6,1.3-1.2,2.6-1.8,4c-0.1,0.4-0.2,0.6-0.3,0.8c-0.1,0.3-0.2,0.6-0.3,0.9
	C35.1,69.4,35,69.7,35,70c-0.1,0.1-0.1,0.3-0.2,0.4c-0.1,0.1-0.1,0.2-0.2,0.4c-0.1,0.4-0.3,0.7-0.4,1.1c-0.1,0.4-0.3,0.7-0.4,0.9
	c0,0.1,0,0.1,0,0.1s0,0,0,0.1c-0.1,0.1-0.2,0.3-0.3,0.5c0,0.2-0.1,0.4-0.3,0.5c-0.2-0.1-0.4-0.2-0.4-0.4c-0.2-0.1-0.4-0.2-0.6-0.2
	c-0.2,0-0.4-0.1-0.6-0.2c0.2,0.1,0.4,0.1,0.5,0.1c0.2,0,0.3,0,0.5,0.1c-0.1-0.1-0.3-0.2-0.5-0.3c-0.5-0.1-1-0.2-1.6,0
	c-0.5,0.1-1,0.3-1.3,0.4c-0.1,0.1-0.3,0.1-0.5,0.1s-0.3,0.1-0.5,0.1c-0.2,0.1-0.4,0.2-0.7,0.4c-0.3,0.2-0.6,0.5-0.9,0.9
	c-0.2,0.3-0.4,0.7-0.5,1.1c0,0.1-0.1,0.2-0.1,0.3c0,0.1-0.1,0.2-0.1,0.4c-0.1,0.3-0.1,0.6-0.1,0.9c0,0.4,0,0.7,0,0.9
	c0.1,0.4,0.1,0.8,0.1,1.1c0,0.4,0.1,0.7,0.2,0.9c0.1,0.1,0.1,0.1,0.1,0.2s0.1,0.2,0.1,0.3c0.1,0.1,0.1,0.2,0.2,0.3
	c0.1,0.2,0.1,0.3,0.1,0.5c0,0.1,0.1,0.3,0.1,0.4s0.1,0.2,0.2,0.3c0.1,0.1,0.1,0.2,0.2,0.3c0.1,0.1,0.1,0.2,0.2,0.3
	c0.1,0.1,0.2,0.2,0.3,0.3c0,0.2,0.1,0.4,0.1,0.6c0.1,0.2,0.1,0.3,0,0.5c0.1,0.1,0.2,0.2,0.4,0.2l0,0c0.1,0,0.1,0,0.2,0
	c0,0,0.1,0.1,0.2,0.1c0.2,0,0.4,0,0.6,0c0.2-0.1,0.4-0.1,0.5,0c0.1,0,0.2,0,0.2,0.1c0.1,0,0.1,0.1,0.2,0.1c0.1,0,0.2,0,0.3,0
	s0.2,0,0.3,0s0.1,0.1,0.1,0.1s0,0.1,0.1,0.1s0.2,0,0.3-0.1s0.1-0.1,0.2-0.2h0.2c0.2-0.1,0.4-0.3,0.5-0.5s0.3-0.4,0.7-0.4
	c0.1-0.1,0.1-0.2,0.2-0.2c0.1-0.1,0.2-0.1,0.2-0.2c0.2,0,0.4-0.1,0.5-0.3s0.2-0.4,0.4-0.6h0.1c0.1-0.5,0.4-0.7,0.8-0.7
	c0.1-0.2,0.1-0.5,0.2-0.7c0.1-0.2,0.2-0.4,0.4-0.5c0-0.1,0.1-0.1,0.1-0.2s0.1-0.1,0.1-0.2h0.1c0.1-0.2,0.2-0.4,0.2-0.6
	s0.1-0.4,0.2-0.7c0.1-0.1,0.1-0.3,0.2-0.4c0-0.1,0.1-0.2,0.2-0.3c0.3,0.1,0.5,0.3,0.7,0.6c0.2,0.2,0.4,0.5,0.6,0.7
	c0.4,0.3,0.7,0.5,1.1,0.8c0.4,0.2,0.7,0.5,1.1,0.8c0.1,0,0.1,0,0.1,0h0.1c0.1,0.1,0.1,0.2,0.2,0.2c0.1,0,0.2,0.1,0.3,0.2
	c0.5,0.3,1.1,0.6,1.7,0.8c0.6,0.2,1.3,0.4,1.9,0.5c0,0,0,0,0-0.1c0,0,0-0.1,0.1,0v0.1l0,0c0.6-0.1,1-0.2,1.4-0.4
	c0.4-0.2,0.8-0.4,1.2-0.6C47,82,47,82,47,82s0,0,0-0.1c0.1-0.1,0.3-0.2,0.4-0.3s0.3-0.2,0.4-0.3c-0.1,0-0.2,0-0.2,0
	c-0.1,0-0.1,0-0.2,0c0,0,0-0.1,0-0.3c0.2-0.1,0.4-0.2,0.6-0.4c0.2-0.1,0.4-0.3,0.5-0.4l0,0C47.9,80.2,47.9,80.3,47.8,80.3"/>
<polygon class="st0" points="76.5,29.9 76.6,29.8 76.7,29.5 "/>
<path class="st0" d="M76.3,29c0.5-0.3,0,0.4,0.2,0.4l0.1-0.1l-0.4,0.4C76.3,29.4,76.5,29,76.3,29"/>
<path class="st0" d="M75.1,29.1C75.3,29,75.2,28.9,75.1,29.1C75.2,29.2,75.2,29.2,75.1,29.1C75.1,29.2,75.1,29.2,75.1,29.1"/>
<path class="st0" d="M75.1,29.2C75.2,29.3,75,29.2,75.1,29.2"/>
<path class="st0" d="M75.1,28.7L75,28.9c-0.1,0-0.2-0.1-0.3,0C74.8,28.7,74.9,28.7,75.1,28.7"/>
<path class="st0" d="M75.5,28.4L75.5,28.4C75.4,28.5,75.4,28.5,75.5,28.4"/>
<path class="st0" d="M75.3,28.7l0.1-0.2c0.1,0,0.3-0.1,0,0.1C75.5,28.5,75.4,28.6,75.3,28.7"/>
<path class="st0" d="M75.4,28.7c0.1,0,0.2,0.1,0.4-0.1C75.8,28.9,75.4,29,75.4,28.7"/>
<path class="st0" d="M76.8,28.6H77l-0.1,0.2C76.9,28.7,76.7,28.7,76.8,28.6"/>
<path class="st0" d="M74.7,27.9c0.1,0,0.3,0,0.5-0.1l-0.1,0.1C75,27.9,74.9,27.8,74.7,27.9"/>
<path class="st0" d="M75.2,27.8l0.2-0.2C75.4,27.7,75.3,27.7,75.2,27.8"/>
<path class="st0" d="M76.1,28.1l-0.4,0.4c0,0,0.1-0.1,0.2-0.2C76,28.1,76.1,28,76.1,28.1L76.1,28.1z"/>
<path class="st0" d="M75.3,27.3c-0.1,0-0.3,0-0.3,0H75.3L75.3,27.3z"/>
<path class="st0" d="M75.3,27.3L75.3,27.3C75.3,27.2,75.3,27.2,75.3,27.3C75.2,27.2,75.2,27.2,75.3,27.3"/>
<path class="st0" d="M75.3,27.3L75.3,27.3L75.3,27.3"/>
<path class="st0" d="M75.7,27.8c0.2-0.1,0.3-0.4,0.6-0.3C76.1,27.7,76,27.6,75.7,27.8"/>
<path class="st0" d="M75.7,27.3L75.7,27.3c0,0.1-0.1,0.1-0.2,0.2L75.7,27.3z"/>
<polygon class="st0" points="75.6,27.3 75.7,27.3 75.8,27.2 "/>
<path class="st0" d="M75.1,26.6c0.1-0.1,0.1-0.2,0.2-0.2c0.1,0.1,0.1,0.2,0.1,0.2C75.2,26.7,75.1,26.7,75.1,26.6"/>
<path class="st0" d="M75.2,26.9L75.2,26.9L75.2,26.9"/>
<path class="st0" d="M75.2,25.6C75.2,25.6,75.3,25.6,75.2,25.6L75.2,25.6L75.2,25.6z"/>
<path class="st0" d="M75.4,26.6c0.1,0.1,0,0.1-0.1,0.2C75.3,26.7,75.4,26.7,75.4,26.6L75.4,26.6"/>
<path class="st0" d="M74.9,26.2c0.1,0,0.1,0.1,0.2,0.1C75,26.2,74.8,26.2,74.9,26.2"/>
<path class="st0" d="M75.1,26.9L75.1,26.9C75,26.9,75.1,26.9,75.1,26.9"/>
<path class="st0" d="M75.1,26.9c0,0,0.1-0.1,0.2-0.1C75.3,26.8,75.3,26.9,75.1,26.9C75.2,26.9,75.1,26.9,75.1,26.9"/>
<path class="st0" d="M77.3,25.5c-0.3,0-0.6,0.1-0.3,0.2c-0.2,0.1-1.2,0.1-1.8,0c0.1,0,0.3,0,0.4-0.1c0.2,0.1,0.4,0.3,0.7,0.2
	c0.2-0.2-0.1-0.1-0.3-0.2c0.4,0.1,0.5-0.2,1.1-0.1l-0.1,0C77.1,25.5,77.2,25.4,77.3,25.5"/>
<path class="st0" d="M75.3,25.9L75.3,25.9c-0.1,0-0.2,0-0.4-0.1c0.1-0.1,0.3-0.1,0.4-0.1V25.9L75.3,25.9z"/>
<path class="st0" d="M75.3,26.2c0.3-0.1,0.5-0.2,0.8-0.2c0,0.2-0.3,0.1-0.4,0.2C75.8,26,75.5,26.4,75.3,26.2c0,0.1,0,0.1,0,0.2
	c0,0-0.1-0.1-0.2-0.1l0,0l0,0l0,0c0,0,0.1,0,0,0l0,0C75.2,26.2,75.2,26.2,75.3,26.2C75.2,26.1,75.2,26.2,75.3,26.2L75.3,26.2
	L75.3,26.2l0.1-0.3C75.3,26,75.3,26.1,75.3,26.2"/>
<path class="st0" d="M77,27.2L77,27.2L77,27.2"/>
<path class="st0" d="M76.8,27.1C76.8,27.1,76.6,27.2,76.8,27.1c0,0.1,0.1,0.1,0.2,0c-0.1,0.1-0.2,0.2-0.4,0.1l0,0
	c-0.1-0.1-0.5-0.1-0.6-0.1C76.3,27.2,76.5,27.2,76.8,27.1"/>
<path class="st0" d="M76.1,26.7l0.1-0.2l0.3,0.1h-0.2C76.5,26.7,76.2,26.7,76.1,26.7"/>
<polygon class="st0" points="74.7,25.6 75.1,25.6 75.2,25.5 "/>
<polygon class="st0" points="74.8,25.3 75.1,25.3 75,25.2 "/>
<path class="st0" d="M80.5,13.3L80.5,13.3C80.6,13.2,80.5,13.3,80.5,13.3"/>
<path class="st0" d="M80.5,13.6L80.5,13.6L80.5,13.6"/>
<path class="st0" d="M75.8,19.2c-0.3-0.2-0.7-0.4-0.3-0.3l0.3,0.1C75.7,19.1,75.8,19.1,75.8,19.2"/>
<path class="st0" d="M78.3,16.1C78.3,16.1,78.4,16.1,78.3,16.1c0,0-0.1,0-0.2,0C78.2,16.1,78.2,16.1,78.3,16.1"/>
<path class="st0" d="M79.7,16.5l-0.2-0.2C79.5,16.3,79.6,16.4,79.7,16.5"/>
<path class="st0" d="M81.2,11.4l0.3,0.1C81.5,11.5,81.3,11.4,81.2,11.4"/>
<path class="st0" d="M75.4,22.5c-0.1-0.1-0.2-0.2-0.2-0.2C75.4,22.4,75.7,22.6,75.4,22.5"/>
<path class="st0" d="M77.1,12.2c0.1,0,0.1,0,0.2,0C77.2,12.3,77.2,12.3,77.1,12.2"/>
<path class="st0" d="M75.3,22.1L75.3,22.1c0,0.1,0,0.1,0,0.2C75.1,22.2,75,22.1,75.3,22.1"/>
<path class="st0" d="M82,4L82,4L82,4"/>
<path class="st0" d="M79.1,0.7C79.1,0.8,79.1,0.8,79.1,0.7C79,0.8,79,0.8,79.1,0.7"/>
<path class="st0" d="M75,24.1C75,24.2,75,24.1,75,24.1"/>
<path class="st0" d="M76.3,24.6c0,0,0.1,0,0.2,0C76.4,24.6,76.3,24.6,76.3,24.6"/>
<path class="st0" d="M77.4,22.2L77.4,22.2C77.4,22.3,77.4,22.2,77.4,22.2"/>
<path class="st0" d="M75.1,24.2L75.1,24.2L75.1,24.2"/>
<path class="st0" d="M75,24.2C75,24.2,75,24.3,75,24.2C75,24.3,74.9,24.3,75,24.2"/>
<path class="st0" d="M75,24.1L75,24.1C75,24.1,75,24.1,75,24.1L75,24.1"/>
<path class="st0" d="M80.6,7.6C80.5,7.6,80.5,7.6,80.6,7.6S80.6,7.6,80.6,7.6"/>
<path class="st0" d="M79.4,19.1L79.4,19.1C79.3,19.1,79.3,19.1,79.4,19.1L79.4,19.1z"/>
<path class="st0" d="M79.6,19c-0.4-0.1-0.4,0-0.3,0.1l-0.9-0.4L79.6,19z"/>
<path class="st0" d="M78.2,6.3L78.2,6.3C78.4,6.3,78.3,6.3,78.2,6.3 M75.5,23.8c-0.1,0-0.1,0-0.2,0C75.4,23.8,75.4,23.8,75.5,23.8
	C75.5,23.7,75.6,23.7,75.5,23.8 M75.4,23.6L75.4,23.6C75.2,23.4,75.3,23.5,75.4,23.6 M79,16.6c0.1,0,0.1,0-0.1-0.1
	C78.9,16.4,78.9,16.5,79,16.6 M80.2,14.1c0.1,0,0.3,0,0.1-0.1C79.9,13.9,80.1,14,80.2,14.1 M80.7,12.4l0.3,0.2
	c0.5,0,0.3-0.1,0.7,0.1c-1-0.3-0.2,0.4-1.2,0.1l0.2,0.2c0,0,0.1,0,0,0c0.5,0.3-0.7-0.1-0.6,0.1c0.1,0.1,0.2,0.2,0.3,0.2l-0.3,0.1
	c0,0.1,0.2,0.1,0.2,0l-0.1,0.2l0,0c-0.2,0-0.4,0-0.5,0c0.1,0.1,0.1,0,0.2,0.1h-0.3c0.3,0.1,0.5,0.1,0.5,0c1,0.5-0.3,0,0.3,0.5
	l0.1-0.1c0.6,0.3,0.3,0.3,0.7,0.6c-0.2-0.1-0.9-0.6-1.1-0.5c0.1,0.1,0.1,0.1-0.1,0.1c0.4,0.1,0.3,0.2,0.2,0.3l0.5,0.2
	c-0.2,0.1-0.4,0-0.6-0.1c0,0.1,0.4,0.3,0.7,0.4c0,0.2-0.6-0.3-0.7-0.1c0.2,0.2-0.1,0.2-0.4,0.3c0.1,0.2,0.3,0.1,0.4,0.2h-0.4
	c0,0,0.1,0.1,0.2,0.1c-0.2,0-0.5-0.2-0.6-0.1C78.8,15.4,80,16,79.4,16c0.1,0.1,0.3,0.1,0.5,0.2c-0.4,0.1-0.3,0.1-0.9,0.1l0.3,0.3
	c-0.3-0.2-0.8-0.2-1.1-0.2c-0.2-0.1-0.3-0.2-0.4-0.2l-0.3,0.1c0.1,0.1,0.2,0.1,0.4,0.1h-0.1c0.2,0.1,0.4,0.2,0.7,0.2
	c-0.1-0.1-0.2-0.1-0.3-0.2c0.3,0.1,0.6,0.1,0.9,0.2c-0.1,0-0.1,0-0.1,0c0.1,0,0.2,0,0.2,0.1c0,0-0.1,0-0.2,0l0.5,0.2l-0.2-0.1
	l0.3,0.4c-0.6,0-1.4-0.1-1.6,0.1c0.4,0.1,0.6,0.2,1.1,0.4c-0.5-0.2,0.2-0.1,0.2-0.3c0,0.1,0.3,0.2,0.3,0.2l-0.5,0.1
	c0.4,0.1,0.3,0.2,0.4,0.3c-0.7-0.3-0.5,0-0.8,0.1c0.2,0.1,0.5,0.2,0.5,0c0.5,0.3-0.9-0.1-0.4,0.2c0,0,0-0.1,0.1,0
	c-0.2,0-0.1,0.2,0.1,0.3l0,0c0.1,0.2-0.1,0.6-0.7,0.5c0.1,0,0.8,0.2,0.9,0.3L77,19c0.5,0.2,1.8,0.7,2.1,0.7c0.1,0.1,0.2,0.2-0.1,0.2
	c-0.1-0.1-0.8-0.4-0.8-0.3c0.6,0.3,0.3,0.2,0.8,0.5c-0.1-0.1-1-0.3-0.9-0.2c0.1,0,0.8,0.3,0.9,0.3l-0.6-0.7c0.2,0,0.7,0.2,0.9,0.4
	c-0.2-0.1,0,0.2-0.1,0.2L79,19.9c0.1,0.3-1.2-0.2-1.2,0.1c0.2,0,1.1,0.3,1.2,0.5c-0.4-0.1-2.1-0.5-2.4-0.4l0.2,0.1l-0.3,0.1
	c0.7,0.1,2,0.3,2.6,0.4c0.2,0.2,0.3,0.1,0.2,0.2c0.2,0.1,0.4,0.1,0.4,0l0.1,0.3c-0.5-0.2-0.5,0.1-0.9-0.1l0.6-0.1
	c-0.5-0.2-1.4-0.3-1.4-0.1c0.2,0.1,0.9,0.3,1.1,0.3c-0.2,0-0.4,0.1-0.2,0.1h0.3c0.2,0.2-0.7,0-0.2,0.3c0,0.1,0.6,0.4,0.3,0.3
	c-0.6-0.3-2.3-0.9-2.7-1c0,0,0.5,0.4,0.8,0.6c0.4,0.2,1.1,0.2,1.5,0.4c-0.1,0-0.3-0.1-0.4-0.1c0.1,0.1,0.4,0.1,0.3,0.2
	c-0.5-0.2,0,0.2-0.4-0.1c-0.2,0.1,0.1,0.1,0,0.3c-0.3-0.2-1.1-0.3-1.3-0.2c0.1,0,0.3,0.1,0.4,0.2c0,0.2,0.2,0.4,0.2,0.6
	c0.1,0.1,0.3,0.2,0.5,0.2c-0.1,0-0.3,0-0.3,0c0.4,0.2,0.1-0.1,0.6,0.1c-0.3-0.1-0.4,0-0.6,0.1c-0.5-0.1-0.1-0.2,0.1-0.3
	c-0.6-0.2-1.3-0.2-1.6,0c-0.2,0.1,0.4,0.2,0.3,0.2c0.1,0.4-1.1,0-0.7,0.4c0.4,0.2,0.8,0.2,1.1,0.3c0.2-0.1-0.2-0.3-0.2-0.4l0.2,0.2
	c0.1,0,0.3-0.1,0.1-0.2c0.4,0.2,0,0.6,0.3,0.9c-0.1,0-0.3,0.1-0.4,0l0.1-0.1c-0.3-0.1-0.5,0.1-0.6,0c-0.2,0.1-0.6,0.2-0.4,0.4
	l0.5,0.1c-0.1,0-0.3-0.1-0.1-0.2c-0.2,0,0.6,0.3,0,0.3H76c-0.2,0.1-0.7,0.2-0.6,0.4c-0.5-0.1,0.1,0-0.5-0.2c0.7,0.2,0-0.4,0.7-0.2
	c-0.6-0.2-0.3-0.2-0.8-0.5c0.2,0,0.3,0.1,0.2-0.1h0.1l0,0l0,0l0,0c0.1,0,0.1,0.1,0.2,0.1c0.4,0,0.4-0.2,0.5-0.3
	c-0.1-0.1-0.2,0-0.3-0.1l0.3-0.1c-0.3-0.1-0.5-0.3-0.8-0.2v-0.2c-0.2-0.1-0.2-0.3-0.1-0.3C74.8,23,75.3,23,75,23l0.2-0.2h-0.1
	c0-0.3,0.6-0.4,0-0.8c0.1-0.1,0.2-0.1,0.1-0.3l-0.3-0.1c0.1-0.1-0.2-0.4,0.1-0.4c-0.8-0.4-0.1-0.6-0.2-0.8l0.4,0.1
	c0-0.1,0.1-0.2,0.3-0.3l0.3,0.1c0.3,0-0.2-0.4-0.1-0.6c-0.1,0-0.1,0,0,0.1c-0.7-0.5,0.6-0.3,0.1-0.7c0.1,0,0.1-0.1,0-0.1l0,0l0,0
	c-0.1,0-0.1-0.1-0.2-0.1c0.1,0,0.1,0.1,0.2,0.1c0,0,0.1-0.1,0.2-0.1l-0.4-0.1l0,0c-0.1-0.1,0.2,0,0.4,0.1c0.1,0,0.1,0,0.2,0
	c-0.6-0.2,0.2-0.1-0.4-0.4c0.3,0.1,0.3-0.2,0.9,0c-0.1,0-0.1-0.1-0.1,0c-0.1-0.1-0.1-0.2,0.1-0.2l-0.4-0.2l0.6,0.1
	c-0.3-0.2-0.4-0.3-0.8-0.3c0.6,0,0.2-0.1,0.8-0.1l-0.3-0.1c0-0.1,0.4,0,0.2-0.1c-0.5-0.3,0-0.7-0.4-1.3c0.9,0.4-0.4-0.3,0.3-0.1
	c-0.2-0.1-0.3-0.2-0.5-0.2c0.2-0.1-0.3-0.4,0.3-0.3c-0.2-0.1-0.3-0.1-0.4-0.1c0,0,0.2,0,0.1-0.1s-0.2,0-0.3,0c0.1-0.2,0.7,0,1.3,0.2
	c-0.3-0.2-0.2-0.2,0.2-0.2c-0.2-0.1-0.4-0.2-0.5-0.1c0-0.1-0.2-0.5,0.3-0.4c-0.1-0.1,0-0.1,0-0.1c0-0.2,0-0.2,0-0.3l0.1,0.1
	c0.6,0.1,0.1-0.1,0.2-0.2h-0.1c-0.4-0.4,0.2-0.1-0.2-0.5l0.4,0.1c0.8,0.2-0.4-0.4-0.1-0.4l0.2,0.1c0.3,0-1-0.6-1.1-0.7
	c-0.1,0-0.1,0-0.2,0c-0.4-0.4,0.5,0.1,0.6,0c-0.2-0.1-0.6-0.2-0.7-0.3c-0.2-0.1,0.9,0,0.4-0.4c0.2,0.1,0.4,0.2,0.5,0.2
	c0.1-0.1-0.7-0.6-0.1-0.5L77,12c0.2,0,0.3-0.2,0.6-0.1c-1.2-0.5,0.7-0.4-0.4-0.8l0.1-0.3h-0.1c0-0.2,0.2-0.2,0.5-0.1
	c-0.1-0.1-0.2-0.1-0.2-0.1c-0.2-0.3-0.1-0.4,0.5-0.4l-0.4-0.1c0.2,0-0.5-0.6-0.1-0.7c0,0-0.1,0-0.2,0c0.5-0.1-0.9-1,0.4-0.7l0.4-0.1
	c0.1,0.3,0.6,0.2,0.8,0.3c0.1-0.1-0.4-0.4-0.5-0.3h0.1c-0.7-0.2-0.2-0.4-0.7-0.5c0.1-0.5-0.2-1.1-0.2-1.5l0.5,0.2V6.6
	c-0.1-0.1-0.4-0.2-0.4-0.1c-0.3-0.2,0.3-0.1,0.4-0.1c-0.2-0.3-0.6-0.1-0.6-0.2l0.1-0.1h0.1c0.2,0,0.5,0.1,0.5-0.1
	c-0.1-0.1-0.3-0.2-0.3-0.2s-0.1,0,0-0.1V5.5l0.4,0.2c0.2,0,0-0.2,0.5,0.1c-0.7-0.4-0.2-0.8-0.4-1c0.3,0,0.3-0.1,0.3-0.3
	c0.1,0.1,0.6,0.3,0.5,0.1c-1-0.3-0.4-0.4-1.1-0.7c0.5,0.3,0.2-0.3,0.8,0c-0.1-0.1-0.4-0.1-0.6-0.3c0.4-0.1-0.2-0.7,0-0.9
	c0.1,0,0.3,0.2,0.5,0.2l-0.6-0.4c0.1,0,0.8,0.2,0.3-0.1c0.1,0.1,0.3,0.1,0.3,0.1c-0.5-0.8,0.7-1.1-0.4-2.2c0.2,0.2,0.3,0.1,0.3,0.1
	c0.1,0.1,0.3,0.1,0.5,0.2l-0.4-0.4c0.5,0.1,0.1-0.3,0.5-0.1l0.2,0.4c0.6,0.1,1.2,0.6,1.9,0.8c-0.6-0.1,0.9,0.7-0.1,0.6
	c0.1,0.1,0.2,0,0.4,0.1c-0.3-0.1-0.4,0-0.3,0.2h0.1c-0.1,0.3,0.2,0.6,0.3,1l-0.3-0.1c0,0.1,0.1,0.2,0.2,0.2c-0.5-0.1,0-0.2-0.6-0.4
	c0.7,0.4-0.1,0.6,0.7,0.9c0,0.1-0.4-0.2-0.4-0.1l0.2,0.1l-0.3-0.1c0,0.1,0.3,0.2,0.5,0.3c0,0,0.1,0,0.1-0.1c0.2,0.2-0.1,0.3-0.1,0.3
	L81.7,4c-0.3,0.3,0,0.8-0.5,0.9L81,4.8c-0.3,0.1,0.2,0.3,0,0.5l0,0c-0.2,0-0.3,0-0.3,0.1c0.2,0,0.4,0.3,0.6,0.2
	c-0.4,0.2-0.3,0-0.9,0l0.3,0.1c-0.3,0-0.4-0.1-0.5,0c0.3,0,0.4,0.2,0.7,0.2c0.6,0.5-0.7,0.2,0.2,0.6c-0.8-0.1-0.4-0.4-0.6-0.4
	C80.3,6,79.9,6,80,6.1c0,0.1,0.9,0.5,0.9,0.7H81c0.2,0.2-0.3,0.1,0,0.3c-0.5-0.1,0,0.1-0.6,0l0.2-0.2C80.4,7,79.7,6.8,80,7.2
	c0.1,0,0.3,0,0.4,0c0.2,0.1-0.1,0.1,0,0.2C81,7.6,80.6,7.2,81,7.2c0.2,0.1-0.5,0.1,0.2,0.2c-0.8-0.2,0.1,0.3-0.6,0.2L81,7.7
	c-0.1,0-0.2,0-0.2,0l0.5,0.1c-0.4,0,0.3,0.4,0.1,0.4C81.4,8,81,8,80.7,7.8c-0.5,0.1,0.9,0.5,0.7,0.8c0.1,0-0.2-0.2-0.4-0.2
	c0.1,0.1,0.2,0.2,0.4,0.3c-0.1,0.2-0.4-0.2-0.6-0.1c0.4,0.2-0.2,0.1-0.3,0.1l0.4,0.1c0.2,0.3-0.8-0.2-0.5,0.1L80.9,9l-0.1,0.1
	l0.4,0.1c-0.3,0-0.2,0.1-0.2,0.3c-0.2-0.1-0.7-0.2-0.7-0.1c0.2,0.2,0.3,0.1,0.3,0.2c0.2,0,0.5,0.1,0.2-0.1c0.1,0,0.2,0,0.3,0.1
	c0.2,0.2,0,0.2,0,0.3c0,0,0-0.1-0.1-0.1l-0.5,0.1c0.1,0.1,0.2,0.1,0.3,0.1c0,0-0.2,0-0.3,0.1c0.3,0.1,0.6,0.2,0.7,0.1l-0.4,0.1
	c0.1,0.1,0.3,0.2,0.4,0.2c0.2,0.2-0.6,0.1-0.4,0.4c-0.1,0-0.1,0-0.2,0c0,0.2,0.4,0.4,0,0.5l0.5,0.3c-0.1,0.1-0.6-0.4-0.9-0.2
	c-0.2,0.1,0.4,0.2,0.6,0.3c-0.3,0-0.8,0-0.4,0.3C80.8,12.5,80.7,12.4,80.7,12.4"/>
<path class="st0" d="M79.5,16.4c-0.1,0-0.1-0.1-0.2-0.1C79.4,16.3,79.4,16.4,79.5,16.4"/>
<polygon class="st0" points="81.1,11.4 81.2,11.4 81.1,11.3 "/>
<path class="st0" d="M78.9,22.1c0-0.1-0.1-0.1-0.2-0.1C78.8,22,78.8,22,78.9,22.1"/>
<path class="st0" d="M74.8,24.8L74.8,24.8c0.1,0,0.2,0,0.2,0C74.9,24.7,74.8,24.7,74.8,24.8"/>
<path class="st0" d="M77.1,25.9C77,25.9,77.1,25.9,77.1,25.9L76.9,26C76.8,25.9,77,25.8,77.1,25.9"/>
<path class="st0" d="M76,25c0.3,0,0.2,0.1,0.1,0.2l0,0C75.7,25.1,75.9,25,76,25"/>
<path class="st0" d="M76.1,25.2L76.1,25.2C76,25.2,76.1,25.2,76.1,25.2"/>
<path class="st0" d="M75.3,24c0.1,0.1-0.4,0-0.3,0C74.6,24,75.5,23.8,75.3,24"/>
<polygon class="st0" points="76.7,25.1 77,25.1 77,25 "/>
<path class="st0" d="M76.8,24.5L76.8,24.5C76.8,24.6,76.8,24.6,76.8,24.5C76.7,24.6,76.7,24.5,76.8,24.5"/>
<path class="st0" d="M76.7,24.6C76.8,24.7,76.7,24.7,76.7,24.6C76.7,24.7,76.7,24.7,76.7,24.6"/>
<polygon class="st0" points="77.1,24.9 77.2,25 77,24.8 "/>
<path class="st0" d="M76.8,23.2L76.8,23.2c0.2-0.1,0.3,0,0.2,0C77,23.2,76.9,23.2,76.8,23.2"/>
<path class="st0" d="M77.8,23.8c-0.1-0.1-0.2-0.1-0.3-0.1l0.5,0.1H77.8z"/>
<path class="st0" d="M78,23.5c0.1,0,0.4-0.1,0.3,0.1C78.2,23.5,78.1,23.6,78,23.5"/>
<polygon class="st0" points="77.6,21.5 77.6,21.4 76.9,21.2 "/>
<path class="st0" d="M79.7,20.4c0.2,0.2-0.5-0.1-0.3,0.1c-0.2,0-0.2-0.2-0.3-0.2C79.3,20.3,79.2,20.2,79.7,20.4"/>
<path class="st0" d="M79.1,20.3L79.1,20.3L79.1,20.3"/>
<polygon class="st0" points="78.7,0.3 78.8,0.3 78.6,0.1 "/>
<path class="st0" d="M79.3,0.3l-0.5-0.2L79.3,0.3C79.3,0.2,79.2,0.2,79.3,0.3"/>
<path class="st0" d="M81.2,14.7L81.2,14.7C81,14.6,81,14.6,81,14.6L81.2,14.7z"/>
<polygon class="st0" points="81,13.3 81,13.3 80.6,13.1 "/>
<path class="st0" d="M81.7,12.4c0,0.1-0.1,0.1-0.1,0.1C81.7,12.4,81.2,12.2,81.7,12.4"/>
</svg>
