<?xml version="1.0" encoding="utf-8"?>
<!-- Generator: Adobe Illustrator 19.2.1, SVG Export Plug-In . SVG Version: 6.00 Build 0)  -->
<svg version="1.1" id="Layer_1" xmlns="http://www.w3.org/2000/svg" xmlns:xlink="http://www.w3.org/1999/xlink" x="0px" y="0px"
	 viewBox="0 0 101.2 123.5" style="enable-background:new 0 0 101.2 123.5;" xml:space="preserve">
<style type="text/css">
	.st0{fill:#082432;}
</style>
<path class="st0" d="M83.6,123.3c0.6,0,1.3-0.1,1.9-0.1c0.6,0,1.3,0,1.7,0.1v-0.5h-0.3c-0.7,0-0.8-0.1-0.8-0.9v-3.1
	c0-1.7,1.1-2.2,1.8-2.2c0.5,0,1,0.1,1.1,0.6h0.3v-1.6c-0.2-0.1-0.6-0.2-1-0.2c-0.9,0-1.6,0.6-2.2,1.8l0,0v-1.8h-0.2
	c-0.7,0.5-1.6,0.9-2.3,1.3v0.5c0.2-0.1,0.5-0.2,0.7-0.2c0.4,0,0.6,0.3,0.6,0.8v3.8c0,1-0.1,1.2-0.9,1.2h-0.3v0.5H83.6z M76.6,118.1
	c0-0.6,0.6-2.2,2.2-2.2c0.5,0,2.1,0.3,2.1,2.2H76.6z M82.2,121.9c-0.4,0.3-1.2,0.7-2.4,0.7c-2.2,0-3.1-1.7-3.2-4h5.7v-0.2
	c0-1.9-1.2-3.2-3.4-3.2c-2,0-3.8,1.9-3.8,4c0,1.9,1.3,4.1,4.1,4.1c1.3,0,2.3-0.5,3-0.9L82.2,121.9L82.2,121.9z M68.3,116.2H70v4.1
	c0,0.8,0.1,1.7,0.7,2.3c0.7,0.7,1.8,0.8,2,0.8s0.3,0,0.4-0.1l1.4-1.2l-0.3-0.3c-0.3,0.2-0.8,0.5-1.4,0.5c-1.2,0-1.5-1.2-1.5-2.1v-4
	h2.5l0.2-0.7h-2.8v-2.6L71,113c-0.7,1.4-1.7,2.4-2.8,3.1v0.1H68.3z M66.9,115.6c-0.5-0.1-1.2-0.3-2.1-0.3c-2,0-2.7,1.3-2.7,2.2
	c0,1.2,0.9,1.7,1.4,1.9l1.3,0.7c0.6,0.3,1.2,0.6,1.2,1.4c0,1-0.8,1.3-1.7,1.3c-1.1,0-1.8-0.7-1.9-1.9H62c0,0.3,0.1,0.6,0.1,1
	s0,0.7-0.1,1c0.6,0.2,1.4,0.5,2.4,0.5c1.9,0,2.8-1.1,2.8-2.4c0-1.3-1.1-1.8-1.6-2.1l-1-0.4c-0.7-0.3-1.3-0.7-1.3-1.4
	c0-0.5,0.4-1.2,1.5-1.2c1.4,0,1.7,0.9,1.9,1.6H67L66.9,115.6z M54.8,118.1c0-0.6,0.6-2.2,2.2-2.2c0.5,0,2.1,0.3,2.1,2.2H54.8z
	 M60.4,121.9c-0.4,0.3-1.2,0.7-2.4,0.7c-2.2,0-3.1-1.7-3.2-4h5.7v-0.2c0-1.9-1.2-3.2-3.4-3.2c-2,0-3.8,1.9-3.8,4
	c0,1.9,1.3,4.1,4.1,4.1c1.3,0,2.3-0.5,3-0.9C60.4,122.4,60.4,121.9,60.4,121.9z M52.2,121.8c-1,0.6-1.8,0.7-2.3,0.7
	c-1.8,0-3.2-1.9-3.2-3.9c0-1.4,0.9-2.7,2.5-2.7c1,0,2.1,0.6,2.7,1.6H52l-0.1-1.6c-0.4-0.2-1.3-0.5-2.4-0.5c-2.7,0-4.2,2.3-4.2,4.1
	c0,2.3,1.8,4,3.9,4c1.2,0,2.2-0.5,3-1.1V121.8z M38.6,123.3c0.6,0,1.3-0.1,1.9-0.1s1.3,0,1.7,0.1v-0.5h-0.3c-0.7,0-0.8-0.1-0.8-0.9
	v-3.1c0-1.7,1.1-2.2,1.8-2.2c0.5,0,1,0.1,1.1,0.6h0.3v-1.6c-0.2-0.1-0.6-0.2-1-0.2c-0.9,0-1.6,0.6-2.2,1.8l0,0v-1.8h-0.2
	c-0.7,0.5-1.6,0.9-2.3,1.3v0.5c0.2-0.1,0.5-0.2,0.7-0.2c0.4,0,0.6,0.3,0.6,0.8v3.8c0,1-0.1,1.2-0.9,1.2h-0.3L38.6,123.3L38.6,123.3z
	 M29.5,119.2c0,2.6,2,4.2,4,4.2c2.4,0,4-1.8,4-3.8c0-2.3-1.6-4.3-4.1-4.3C30.8,115.3,29.5,117.3,29.5,119.2 M36,119.9
	c0,1.7-0.6,2.9-2.3,2.9c-1.9,0-2.8-2.2-2.8-3.9c0-2,1.1-3,2.1-3C35,115.9,36,117.9,36,119.9 M11.5,111.3h0.3c0.6,0,1.2,0.2,1.5,1.2
	l3.7,10.9h0.6l3-10.1l0,0l3.2,10.1h0.6l3.5-11c0.3-1,0.7-1.2,1.4-1.2h0.3v-0.5c-0.6,0-1.3,0.1-1.9,0.1s-1.4,0-1.9-0.1v0.5h0.4
	c0.5,0,0.8,0.2,0.8,0.7c0,0.4-0.2,1.2-0.3,1.5l-2.2,7.1l0,0l-3.2-10.1h-0.6l-3,10.2l0,0l-2.6-7.9c-0.1-0.4-0.2-0.7-0.2-0.9
	c0-0.5,0.4-0.7,0.8-0.7H16v-0.5c-0.8,0-1.5,0.1-2.3,0.1s-1.6,0-2.3-0.1v0.7H11.5z"/>
<path class="st0" d="M81.2,92.7c-0.1,0-0.1-0.1-0.1-0.2C81.1,92.5,81.2,92.6,81.2,92.7 M88.7,85.2c0,0.8-0.1,1.4-0.3,2
	S88,88.4,87.8,89c-0.1,0.2-0.1,0.4-0.1,0.4s0,0,0.1-0.1l-0.2,0.3c-0.1,0.1-0.1,0.2-0.2,0.3c0,0.1-0.1,0.1-0.2,0.1
	c-0.1,0.1-0.1,0.2,0,0.2c-0.3,0.3-0.6,0.6-1,0.9s-0.8,0.6-1.2,0.7c-0.1,0.1-0.3,0.1-0.5,0.1s-0.3,0-0.4-0.1c-0.1,0.1-0.1,0.1-0.2,0
	s-0.1-0.1-0.3-0.1v-0.1v-0.1c-0.1,0.1-0.1,0.1-0.1,0c0,0,0,0-0.1,0c0,0.1,0,0.1,0.1,0.1s0.1,0,0,0.1c-0.1,0-0.1,0-0.2,0
	c-0.1,0-0.1,0-0.1-0.1v0.1c-0.1-0.1-0.1-0.1-0.2-0.1c-0.1,0-0.2,0-0.3-0.1c0.1-0.3,0.1-0.5,0.1-0.7s0-0.4,0-0.6c0-0.1,0-0.1,0-0.1
	s0-0.1,0-0.2l0,0V90c0-0.2,0-0.3,0-0.4c0-0.2,0-0.3,0-0.3v0.1c0,0.1,0,0.1,0,0.2c0,0,0.1,0,0.2-0.2c0.1-0.1,0.2-0.3,0.3-0.4
	s0.2-0.2,0.4-0.4c0.1-0.1,0.2-0.2,0.3-0.3c0.1-0.1,0.2-0.2,0.3-0.3h0.1c0-0.1,0.1-0.1,0.1-0.1c0.1-0.1,0.3-0.3,0.5-0.5
	s0.4-0.4,0.7-0.6c0.1-0.1,0.3-0.2,0.4-0.3c0.1-0.1,0.3-0.2,0.4-0.3h0.1c0.2-0.1,0.4-0.2,0.6-0.4s0.4-0.2,0.6-0.4v-0.2
	c0.1-0.1,0.3-0.1,0.4-0.2c0.1-0.1,0.3-0.2,0.5-0.3c0,0.1,0,0.1,0,0.2C88.8,85.1,88.8,85.1,88.7,85.2L88.7,85.2z M98.9,77.6
	c0.1,0,0.2,0,0.1-0.1c-0.2,0.3-0.7,0.7-1.3,1.1s-1.3,0.8-2,1.2c-0.7,0.4-1.4,0.7-2.1,1c-0.7,0.3-1.2,0.5-1.5,0.5
	c-0.1-0.2-0.2-0.5-0.3-0.7s-0.1-0.5-0.2-0.7c-0.2-0.6-0.4-1.3-0.6-2c-0.2-0.7-0.4-1.4-0.6-2c-0.1-0.1-0.1-0.1-0.1-0.2v-0.2
	c-0.1-0.1-0.1-0.2-0.1-0.4c0-0.1,0-0.2,0-0.4c0-0.1,0-0.3-0.1-0.5c0-0.2,0-0.3,0-0.5C90,73.4,90,73.2,90,72.9
	c-0.1-0.1-0.2-0.3-0.3-0.4c0-0.2-0.1-0.4-0.1-0.7c-0.2-0.2-0.4-0.3-0.7-0.1c-0.1,0-0.1,0-0.2-0.1c0-0.1-0.1-0.1-0.2-0.2
	c0,0.1,0,0.1-0.1,0.1s-0.1-0.1-0.2,0c-0.1-0.1-0.2-0.1-0.3-0.1s-0.2,0-0.3,0c-0.1,0.1-0.3,0.2-0.4,0.3c-0.1,0.1-0.2,0.2-0.3,0.2
	c-0.2,0.3-0.3,0.5-0.4,0.7c0,0.1-0.1,0.3-0.1,0.4s-0.1,0.2-0.1,0.3c-0.1,0.2-0.1,0.5,0.1,0.9c0.2,0.3,0.3,0.7,0.5,1
	c0.2,0.4,0.3,0.7,0.5,1s0.1,0.5-0.1,0.6c-0.1,0.1-0.1,0.2-0.3,0.4c-0.1,0.2-0.2,0.4-0.4,0.6c-0.1,0.2-0.3,0.3-0.4,0.5
	c-0.1,0.1-0.2,0.2-0.3,0.3c-0.2,0.3-0.4,0.5-0.4,0.6c-0.1,0.1-0.2,0.3-0.2,0.4c-0.1,0.1-0.2,0.3-0.3,0.4c-0.1,0.2-0.3,0.4-0.6,0.6
	c-0.2,0.2-0.3,0.4-0.3,0.5s-0.2,0.3-0.4,0.6c0,0-0.1,0.1-0.2,0.2c-0.1,0.1-0.2,0.3-0.4,0.4c-0.1,0.2-0.3,0.3-0.4,0.4
	s-0.2,0.2-0.2,0.2c-0.1,0.1-0.3,0.3-0.4,0.4c-0.1,0.1-0.2,0.2-0.3,0.4c-0.1,0.3-0.4,0.6-0.8,0.8c-0.4,0.2-0.7,0.5-0.7,0.7
	c0.1,0,0.2,0,0.3,0c0.1,0.1,0.3,0.1,0.4,0c0,0.1,0,0,0.1,0c0-0.1,0.1-0.1,0.2-0.1c0.1,0.1,0.1,0.1,0.2,0.1c0.1,0,0.1,0,0,0.1
	c0,0.1,0,0.1-0.1,0.1s-0.1,0,0,0c0,0.1,0,0.1,0,0.1c-0.1,0-0.1,0.1,0,0.1c0.1-0.1,0.1-0.1,0.3-0.2c0.1-0.1,0.2-0.1,0.2-0.1
	c0.1-0.1,0.1-0.1,0.1,0s0,0.1,0,0c0.1,0,0,0.1-0.1,0.1s-0.1,0,0,0c0,0,0,0.1,0.1,0.1c0.1-0.2,0.3-0.3,0.4-0.4s0.2-0.2,0.3-0.2
	c0.1-0.1,0.1-0.1,0.2-0.1c0.2-0.1,0.4-0.1,0.6-0.2c0.2-0.1,0.3-0.2,0.3-0.4c0,0,0,0,0.1-0.1s0.2-0.2,0.4-0.4
	c0.1-0.1,0.3-0.3,0.6-0.5c0.2-0.2,0.4-0.4,0.5-0.6s0.3-0.3,0.5-0.5c0,0,0.1-0.1,0.2-0.2c0.1-0.1,0.2-0.3,0.4-0.5s0.2-0.3,0.4-0.5
	c0.1-0.1,0.2-0.2,0.2-0.3c0.1,0,0.2-0.1,0.4-0.4s0.3-0.5,0.4-0.7c0-0.1,0.1-0.1,0.1,0s0.1,0.2,0.1,0.4c0,0.2,0,0.4,0,0.5
	c0,0.2,0,0.3,0,0.4c0,0,0.1,0,0.2,0c0,0.3,0.1,0.5,0.1,0.7c0.1,0.2,0.1,0.4,0.2,0.5c0,0.2,0.1,0.4,0.1,0.6s0.1,0.5,0.1,0.8
	c-1.2,0.7-2.4,1.4-3.6,2.2c-1.2,0.8-2.2,1.7-3.1,2.8v0.2c-0.1,0-0.2,0.2-0.4,0.4c-0.1,0.2-0.2,0.5-0.4,0.8c-0.1,0.3-0.2,0.6-0.2,0.9
	C81,91,81,91.3,81,91.6c-0.1,0.1-0.1,0.1-0.1,0.2s0,0.1,0.1,0.1v-0.1c0,0,0,0,0-0.1c0,0.1,0,0.1,0,0.2s0.1,0.2,0.1,0.2
	c0,0.1-0.1,0.1-0.1,0.1s0,0,0,0.1s0.1,0.1,0.1,0.1v0.1c0.1,0.1,0.2,0.2,0.4,0.4c0.1,0.1,0.2,0.1,0.3,0.2s0.1,0.1,0.3,0.2
	c0.2,0.5,0.5,0.8,1,1c0.1,0.1,0.3,0.1,0.4,0.1c0.1,0,0.3,0.1,0.5,0.1v0.2h-0.1c0.1,0,0.1,0.1,0.1,0.2s0,0.2,0.1,0.2
	c0.2,0,0.5-0.1,0.7-0.2c0.3-0.1,0.5-0.2,0.7-0.2c0.1,0,0.1,0,0.1,0.1s0,0.1,0.1,0.1s0.1,0,0.1-0.1c0,0,0.1-0.1,0.2-0.1
	c0,0.1,0.1,0.2,0.1,0.3c0.2-0.1,0.4-0.2,0.5-0.4c0.1,0,0.1,0,0.1,0.1v0.1c0.1-0.1,0.1-0.1,0.3-0.1c0.1-0.2,0.2-0.3,0.5-0.4
	c0.1-0.1,0.1-0.2,0.2-0.3c0.1-0.1,0.1-0.1,0.2-0.2c0.1,0,0.1,0,0.1,0s0,0,0.1,0c0.1-0.1,0.1-0.2,0.2-0.2c0.1,0,0.2,0,0.3-0.1
	s0.1-0.2,0.2-0.3c0.1-0.1,0.1-0.2,0.2-0.3l0,0l0,0c0.1-0.1,0.1-0.1,0.1-0.2s0.1-0.2,0.2-0.3c0-0.1,0.1-0.1,0.1-0.1
	c0.1,0,0.1,0,0.1,0c0.1-0.1,0.1-0.2,0.2-0.3c0-0.1,0.1-0.1,0.2,0c0,0.1,0,0.2,0,0.2s0,0,0,0.1c0,0,0-0.1,0-0.2
	c0.1-0.1,0.3-0.2,0.4-0.3c0.1-0.1,0.2-0.2,0.2-0.3c0.1,0.1,0.1,0.1,0.1,0c0-0.2,0.1-0.2,0.2-0.2c0.1,0,0.1,0,0,0.1v0.1
	c0.1-0.1,0.1-0.3,0.2-0.4c0-0.2,0.1-0.3,0.2-0.3c0.1-0.1,0.1-0.2,0-0.3c0.1,0.1,0.2,0,0.2-0.1s0.1-0.2,0.2-0.2v0.1v0.1
	c0.1-0.1,0.2-0.2,0.3-0.4c0.1-0.2,0.2-0.4,0.2-0.6s0.1-0.4,0.1-0.6s0.1-0.3,0.1-0.4c0.2-0.8,0.4-1.6,0.4-2.5s0-1.7-0.1-2.5
	c0.4-0.1,1-0.3,1.8-0.7c0.7-0.4,1.5-0.7,2.2-1.1s1.4-0.8,1.9-1.2c0.5-0.4,0.8-0.6,0.7-0.8c0.1-0.1,0.1-0.1,0.3-0.1
	c0,0,0-0.1,0.1-0.1s0.1-0.1,0.1-0.1c-0.1,0-0.1,0-0.1,0s0,0,0.1,0h0.1c0,0,0,0-0.1,0c-0.2,0.1-0.4,0.1-0.4,0.1l0,0l0,0
	c0,0-0.1,0-0.4,0.1c-0.1,0-0.1-0.1-0.1-0.2c0.1-0.1,0.3-0.1,0.5-0.2s0.4-0.2,0.5-0.2c0.2-0.1,0.2-0.1,0.2-0.1s-0.1,0-0.1,0.1
	c-0.1,0-0.1,0.1-0.1,0.1s0,0,0.2,0c0.1,0,0.2-0.1,0.2-0.1l0,0l0,0c0,0,0,0,0.2-0.1c-0.1,0-0.2,0-0.3,0.1c-0.1,0-0.2,0-0.2,0
	c0.1-0.1,0.2-0.2,0.4-0.2s0.3,0,0.4-0.2c0-0.1,0-0.2,0.1-0.2c0,0,0.1-0.1,0.2-0.2c0-0.1-0.1-0.1-0.1-0.2c0.1-0.1,0.2-0.1,0.3,0
	c0-0.1,0-0.1-0.1-0.1h-0.2c-0.2,0-0.4,0.1-0.6,0.1c-0.2,0-0.4,0.1-0.6,0.1c0-0.1,0-0.1-0.1-0.1s-0.1,0-0.1-0.1
	c0.1,0,0.1-0.1,0.2-0.2C99.1,77.7,99,77.7,98.9,77.6c0,0.1-0.1,0.1-0.2,0.1C98.7,77.7,98.7,77.6,98.9,77.6 M70,72.3
	c-0.1,0-0.2,0-0.2,0s-0.1,0-0.1,0.1c-0.1,0.1-0.2,0.1-0.4,0.2c-0.1,0.1-0.1,0.3-0.2,0.4c-0.1,0.1-0.1,0.3-0.2,0.4
	c0,0.1-0.1,0.1-0.1,0.2s-0.1,0.1-0.1,0.2c-0.1,0.1-0.1,0.1-0.1,0.2s0,0.2-0.1,0.2c-0.1,0.1-0.1,0.3-0.1,0.5s0,0.4-0.1,0.5
	c0,0.1-0.1,0.3-0.1,0.5s-0.1,0.3-0.1,0.5c-0.2,0.9-0.5,1.9-0.7,2.8s-0.4,1.9-0.6,2.9c-0.1,0.2-0.1,0.4-0.1,0.5c0,0.3,0,0.5-0.1,0.8
	c-0.1,0.3-0.1,0.5-0.2,0.7c-0.1,0.3-0.1,0.6-0.2,1c-0.1,0.3-0.1,0.6-0.2,1c-0.1,0.3-0.1,0.7-0.2,1c-0.1,0.4-0.1,0.7-0.1,1.1v0.5
	c0,0.3,0,0.6,0.1,0.9c0.1,0.1,0.1,0.2,0.2,0.3c0,0.1,0.1,0.2,0.3,0.3v-0.1v-0.1c0,0,0,0,0,0.1V90l0,0l0,0l0.3,0.1
	c0-0.1,0.1-0.1,0.1,0c0.1,0,0.1,0,0.2,0l0,0c0.1-0.1,0.2-0.1,0.2-0.2c0.1-0.1,0.1-0.1,0.3-0.2l0,0l0,0c0.1,0,0.1,0,0.1,0h0.1
	c0-0.1,0-0.2,0-0.3c0-0.1,0-0.2,0.1-0.3c0.1-0.1,0.1-0.2,0.1-0.1l0,0c0-0.1,0-0.1,0.1-0.1c0,0.1,0,0.1,0,0.2c0,0,0,0.1,0,0.2L68,89
	l0,0l0,0l0.1-0.1c0,0,0-0.1,0-0.2v0.1l0,0v-0.1v-0.1c0.1,0,0.1,0.1,0.1,0.1v0.1c0,0,0,0,0.1-0.1v-0.3l0.1-0.1V88h0.1h0.1
	c0.1-0.4,0.3-0.8,0.5-1.1c0.1-0.1,0.1-0.1,0.1-0.1v-0.2l0.1-0.2c0,0,0-0.1,0.1-0.1c0-0.1,0-0.2,0-0.4c0.1-0.2,0.3-0.4,0.4-0.6
	c0.1-0.2,0.2-0.4,0.4-0.6l0.1-0.1c0,0,0-0.1,0.1-0.1l0,0l0.4-0.5c0.1-0.2,0.2-0.4,0.3-0.7l0,0l0.1-0.1c0.2-0.4,0.4-0.7,0.7-1
	c0.3-0.3,0.5-0.6,0.7-1l0,0c0.1-0.1,0.1-0.1,0.1-0.2s0.1-0.1,0.2-0.2c0.1-0.2,0.3-0.4,0.4-0.6c0.1-0.2,0.3-0.4,0.4-0.6
	c0.1-0.1,0.3-0.3,0.4-0.6c0.1-0.2,0.3-0.4,0.5-0.5c0.2-0.2,0.4-0.3,0.6-0.5c0.1-0.1,0.2-0.1,0.3-0.2s0.2-0.2,0.3-0.3
	c0.2-0.1,0.3-0.3,0.5-0.5c0.1-0.2,0.3-0.4,0.5-0.5s0.4-0.1,0.6-0.2c0.2-0.1,0.4-0.2,0.6-0.2c-0.1,0.3-0.2,0.5-0.3,0.8
	s-0.2,0.5-0.3,0.8s-0.2,0.5-0.2,0.8c-0.1,0.3-0.1,0.6-0.2,0.9c-0.2,0.5-0.4,1-0.6,1.5c-0.2,0.5-0.4,1-0.6,1.5
	c-0.1,0.2-0.2,0.5-0.3,0.8s-0.2,0.5-0.2,0.8l-0.1,0.9c-0.1,0.4-0.2,0.8-0.4,1.2c-0.2,0.4-0.2,0.8-0.2,1.3c0,0.2,0,0.3,0,0.5
	s0.1,0.3,0.1,0.4s0.1,0.1,0.1,0.2s0,0.2,0.1,0.2c0,0.1,0,0.1,0,0.2S75,89,75,89.1c0.3,0.3,0.7,0.5,1.2,0.8c0.1,0,0.3,0,0.5,0
	s0.3,0,0.5,0.1c0.3,0,0.6,0,0.9-0.1c0.2-0.1,0.4-0.1,0.6-0.2c0.2-0.1,0.4-0.1,0.6-0.2c0.2-0.1,0.3-0.1,0.4-0.1h0.1l0,0l0,0h0.1
	c0,0,0,0,0.1,0c0.1-0.1,0.2-0.1,0.2-0.2c0.1-0.1,0.2-0.2,0.4-0.2c0.3-0.2,0.5-0.4,0.6-0.4s0.2-0.2,0.5-0.5c0-0.1,0-0.1,0.1-0.2
	s0.2-0.1,0.3-0.2s0.2-0.1,0.3-0.2c0.3-0.2,0.6-0.5,0.9-0.7c0.3-0.2,0.6-0.4,0.9-0.7c0-0.1,0-0.1,0.1-0.2c0.1,0,0.1-0.1,0.1-0.2
	c-0.3,0.3-0.7,0.5-1,0.8s-0.7,0.5-1.1,0.7c0.1-0.1,0.2-0.3,0.4-0.4c0.1-0.1,0.2-0.2,0.4-0.3c0.1-0.1,0.1-0.1,0.1-0.1l0.1-0.1
	l0.1-0.1c0,0,0-0.1,0.1-0.1c0.2-0.2,0.4-0.3,0.5-0.4l0,0l0,0l0,0l0,0c0.1-0.1,0.2-0.3,0.4-0.4c0.1-0.1,0.2-0.3,0.4-0.4
	c0-0.1,0.1-0.2,0.1-0.3c0.1-0.1,0.1-0.2,0.1-0.3l0,0l0,0c-0.1,0-0.1,0-0.1,0h-0.1h-0.2c-0.1,0.1-0.2,0.1-0.3,0.2s-0.2,0.1-0.3,0.2
	c-0.1,0-0.1,0-0.1,0h-0.1c-0.1,0-0.1,0.1-0.1,0.1l-0.1,0.1c-0.1,0-0.1,0-0.2,0c0,0-0.1,0-0.1,0.1c-0.1,0.1-0.2,0.1-0.2,0.2
	c-0.1,0.1-0.2,0.1-0.2,0.2c-0.1,0.1-0.3,0.3-0.5,0.3c-0.2,0.1-0.4,0.2-0.5,0.2c-0.1-0.1-0.1-0.1-0.1-0.1c-0.1,0.1-0.2,0.1-0.2,0.2
	s-0.1,0.2-0.3,0.2c-0.1,0.1-0.2,0.2-0.3,0.2l-0.1,0.1c0,0-0.1,0-0.2,0.1c-0.1,0-0.2,0.1-0.3,0.2c-0.3,0.1-0.7,0.3-1,0.4
	s-0.7,0.2-1.2,0.2c-0.1-0.1-0.2-0.3-0.4-0.3s-0.3-0.2-0.3-0.5c0-0.1,0-0.2,0-0.2c0-0.1,0-0.2,0-0.2c0-0.2,0.1-0.5,0.1-0.7
	s0.1-0.4,0.1-0.5s0-0.1,0.1-0.2c0-0.1,0-0.1,0.1-0.2c0-0.1,0-0.2,0.1-0.3c0-0.2,0.1-0.3,0.2-0.5l0,0c0.2-0.4,0.4-0.8,0.6-1.3
	c0.2-0.4,0.3-0.9,0.5-1.3c0.1-0.2,0.2-0.5,0.2-0.7c0.1-0.2,0.2-0.4,0.2-0.6c0.1-0.3,0.2-0.5,0.3-0.6c0-0.1,0.1-0.1,0.1-0.2
	s0-0.1,0.1-0.2c0-0.1,0-0.1,0-0.2s0-0.1,0-0.2v-0.1c0,0,0,0,0-0.1s0-0.2,0-0.2c0-0.1,0-0.1,0-0.2s0-0.1,0-0.2l0.1-0.2
	c0-0.1,0-0.1,0-0.2s0-0.1,0-0.2c0.1-0.6,0.2-1.3,0.3-1.9v-0.4c0.1-0.1,0.1-0.2,0.1-0.4c0-0.1,0-0.1-0.1-0.2c-0.1,0-0.1-0.1-0.1-0.2
	c0,0,0,0,0-0.1s0-0.1,0-0.2s0-0.2,0-0.2c0-0.3-0.2-0.4-0.4-0.5c-0.3-0.2-0.6-0.2-1.1-0.2c-0.4,0-0.7,0.1-1,0.3
	c-0.3,0.1-0.6,0.3-0.8,0.4c-0.1,0.1-0.1,0.1-0.2,0.1c-0.1,0-0.1,0.1-0.2,0.1c-0.1,0.1-0.1,0.1-0.2,0.1c-0.1,0-0.1,0.1-0.2,0.1
	c-0.3,0.3-0.6,0.6-0.9,0.9c-0.3,0.3-0.6,0.6-0.9,0.9c0,0.1-0.1,0.1-0.1,0.2c-0.1,0-0.1,0.1-0.1,0.1s-0.1,0-0.1,0.1
	c-0.2,0.1-0.4,0.3-0.4,0.4c-0.1,0.1-0.2,0.3-0.2,0.4c-0.1,0.1-0.2,0.2-0.3,0.3c-0.1,0.1-0.2,0.2-0.3,0.3c-0.1,0.1-0.2,0.2-0.3,0.3
	c-0.1,0.1-0.2,0.2-0.2,0.4c-0.1,0.1-0.2,0.2-0.3,0.4c0-0.1,0-0.2,0-0.3c0-0.1,0-0.2,0-0.3c0-0.1,0-0.1,0-0.1v-0.1
	c0-0.2,0.1-0.5,0.1-0.7s0-0.4,0.1-0.7v-0.3v-0.6c0-0.3,0-0.6,0-0.7c0-0.2,0-0.3,0-0.4c-0.1-0.1-0.1-0.1-0.1-0.2s0-0.1,0-0.1V74
	c-0.1-0.1-0.1-0.1-0.1-0.2s-0.1-0.2-0.1-0.2c-0.1-0.2-0.1-0.4-0.2-0.5c-0.1-0.2-0.2-0.4-0.4-0.4c-0.1-0.1-0.1-0.1-0.2-0.1
	c-0.1,0-0.1,0-0.2,0c-0.1,0-0.1,0-0.2,0c-0.1,0-0.3,0-0.4,0h-0.3C70.2,72.3,70.1,72.3,70,72.3 M56.3,88.7
	C56.3,88.8,56.3,88.8,56.3,88.7C56.3,88.8,56.3,88.8,56.3,88.7 M60.5,73.7c-0.1,0.1-0.2,0.1-0.4,0.2H60h-0.1l0,0V74h-0.1h-0.1
	c-0.1,0.1-0.2,0.1-0.3,0.3c-0.1,0.1-0.2,0.2-0.2,0.3l-0.1,0.1c0,0.1,0,0.1,0,0.2c-0.2,0.6-0.4,1.3-0.6,1.8c-0.2,0.6-0.4,1.2-0.7,1.8
	c-0.1,0.2-0.1,0.3-0.1,0.4s-0.1,0.3-0.1,0.4s-0.1,0.2-0.1,0.4c-0.1,0.1-0.1,0.2-0.1,0.3c0,0.1-0.1,0.2-0.1,0.4
	c-0.1,0.4-0.2,0.7-0.3,1.1c-0.1,0.4-0.2,0.8-0.3,1.2c0,0.1,0,0.3,0,0.4v0.4c0,0.3,0,0.6,0,0.8c0,0.3-0.1,0.5-0.1,0.8
	c-0.1,0.3-0.1,0.6-0.1,0.9s-0.1,0.6-0.1,0.9v0.5c0,0.1,0,0.2,0,0.4c0,0.1,0,0.2,0,0.4c0,0.1,0,0.2,0,0.4c0,0.1,0,0.2,0.1,0.3
	c0.1,0.2,0.2,0.4,0.3,0.5c0.1,0.1,0.2,0.3,0.3,0.5c0,0.1,0,0.1,0,0.1v0.1c0.1,0.2,0.2,0.4,0.3,0.5c0.1,0.1,0.1,0.1,0.2,0.2
	c0,0,0.1,0.1,0.2,0.2s0.3,0.2,0.6,0.3h0.2c0.3,0,0.5-0.1,0.8-0.2c0.1,0,0.1,0,0.1,0l0,0c0,0,0,0,0.1,0c0.2-0.1,0.3-0.2,0.4-0.2h0.2
	l0.1-0.1c0,0,0.1-0.1,0.2-0.1c0.6-0.4,1.1-0.7,1.5-1.1c0.5-0.4,0.9-0.8,1.4-1.2c0.1-0.1,0.2-0.2,0.3-0.2c0.1-0.1,0.2-0.1,0.3-0.2
	c0.1-0.1,0.1-0.1,0.1-0.1l0.1-0.1c0.1,0,0.2-0.1,0.3-0.2l0.1-0.1c0.1-0.1,0.1-0.1,0.2-0.3c0.1-0.1,0.3-0.1,0.4-0.2
	c0.1-0.1,0.2-0.2,0.3-0.3v-0.1c0,0,0,0,0-0.1c0.2-0.3,0.4-0.5,0.7-0.7c0.1-0.1,0.1-0.1,0.2-0.2c0.1-0.1,0.2-0.2,0.2-0.2
	c0.1-0.1,0.3-0.3,0.4-0.5c0.1-0.2,0.2-0.4,0.4-0.5c0,0,0.1-0.1,0.2-0.3c0.1-0.1,0.1-0.2,0.2-0.3c0.1-0.1,0.1-0.2,0.2-0.3
	c0,0,0-0.1,0.1-0.1c0.1-0.1,0.1-0.2,0.1-0.1c0-0.1,0-0.2,0-0.2c0-0.1,0-0.1,0-0.2v-0.1c0,0,0,0,0-0.1c0.2-0.3,0.4-0.5,0.6-0.7
	c-0.1-0.1-0.1-0.2,0-0.2c0.1,0,0.1-0.1,0.1-0.2c-0.2,0-0.4,0-0.5,0.1c-0.1,0.1-0.3,0.1-0.4,0.2h-0.1c-0.1,0-0.1,0-0.2,0
	c-0.1,0-0.1,0.1-0.2,0.1c-0.2,0.2-0.5,0.4-0.7,0.7c-0.2,0.2-0.4,0.4-0.7,0.6c-0.1,0-0.1,0.1-0.3,0.2s-0.3,0.2-0.5,0.4
	c-0.2,0.1-0.3,0.2-0.5,0.4c-0.1,0.1-0.3,0.2-0.4,0.3c-0.1,0.1-0.2,0.2-0.4,0.3l-0.2,0.2c-0.3,0.3-0.6,0.6-0.8,0.7
	c-0.2,0.1-0.5,0.4-0.8,0.6c-0.1,0.1-0.2,0.2-0.5,0.4c-0.1,0.1-0.1,0.1-0.2,0.2s-0.2,0.2-0.2,0.2c-0.1,0.1-0.3,0.2-0.4,0.3
	c-0.1,0.1-0.3,0.2-0.5,0.2c-0.1,0.1-0.1,0.1-0.1,0.1H60h-0.3c-0.1-0.4,0-0.7,0.2-0.9c0.2-0.2,0.3-0.5,0.4-0.8c0-0.1,0-0.1,0-0.2
	s0-0.1,0-0.2s0-0.1,0-0.1v-0.1c0.1-0.6,0.3-1.1,0.5-1.4c0.2-0.4,0.4-0.8,0.6-1.3c0.1-0.3,0.2-0.5,0.3-0.8c0.1-0.3,0.2-0.6,0.2-0.9
	c0-0.1,0.1-0.1,0.1-0.2s0-0.2,0.1-0.2c0-0.1,0.1-0.1,0.1-0.2s0-0.2,0-0.2c0-0.1,0.1-0.3,0.1-0.4s0.1-0.2,0.1-0.3c0,0,0-0.1,0.1-0.2
	c0-0.1,0-0.2,0-0.2c0-0.1,0.1-0.2,0.1-0.3s0.1-0.2,0.1-0.3v-0.1v-0.1v-0.1v-0.1c0,0,0,0,0-0.1s0-0.1,0-0.1v-0.1l0,0v-0.1
	c0,0,0-0.1,0.1-0.1v-0.1c0,0,0,0,0-0.1s0-0.1,0-0.2V77c0-0.5-0.1-0.9-0.3-1.1c0,0,0-0.1-0.1-0.2c0-0.1,0-0.1,0-0.2s0-0.2,0-0.3
	c0-0.2-0.1-0.3-0.1-0.5c0-0.1-0.1-0.3-0.2-0.4s-0.3-0.2-0.4-0.3c-0.1,0-0.2,0-0.3,0c-0.1,0-0.2,0-0.4-0.1h-0.3
	C60.7,73.6,60.6,73.6,60.5,73.7 M62.4,72C62.4,72,62.4,71.9,62.4,72c0.2-0.1,0.3-0.2,0.3-0.2c0.1,0,0.1-0.1,0.2-0.1
	c0.1-0.1,0.3-0.1,0.4-0.2c0.2-0.1,0.3-0.2,0.3-0.3c0.1-0.3,0.2-0.6,0.3-0.9c0.1-0.3,0.2-0.7,0.2-1.2S64,68.3,63.9,68
	c-0.1-0.1-0.3-0.3-0.4-0.4s-0.3-0.2-0.5-0.3c-0.2,0.1-0.4,0.1-0.5,0.1c-0.2,0-0.4,0.1-0.6,0.1c0,0.1,0,0.2-0.1,0.2
	c-0.4,0.2-0.8,0.5-1.1,1c-0.3,0.4-0.4,0.9-0.4,1.4c0,0.2,0,0.3,0.1,0.4s0.1,0.3,0.2,0.4c0,0.2,0.1,0.4,0.2,0.5s0.1,0.2,0.2,0.4h0.2
	c0.1-0.1,0.1-0.1,0.1-0.2s0.1-0.1,0.2-0.1c0.1,0.1,0.1,0.1,0.1,0.2s0,0.2,0.1,0.3c0.1,0,0.1-0.1,0.1-0.2s0.1-0.2,0.2-0.2
	s0.2,0.1,0.3,0.2c0,0.1,0.1,0.2,0.3,0.2C62.4,72.1,62.4,72.1,62.4,72 M46.7,87.2L46.7,87.2C46.8,87.2,46.8,87.2,46.7,87.2
	C46.8,87.2,46.7,87.2,46.7,87.2L46.7,87.2z M32.5,86.7L32.5,86.7C32.6,86.7,32.5,86.7,32.5,86.7C32.6,86.8,32.5,86.8,32.5,86.7
	L32.5,86.7 M32.6,86.7L32.6,86.7L32.6,86.7C32.6,86.7,32.7,86.7,32.6,86.7c0.1,0.1,0.1,0.1,0.1,0.2C32.7,86.9,32.6,86.9,32.6,86.7
	C32.6,86.8,32.6,86.8,32.6,86.7L32.6,86.7C32.6,86.7,32.6,86.8,32.6,86.7C32.7,86.8,32.7,86.7,32.6,86.7 M32.5,86.5L32.5,86.5
	c0,0.1,0,0.1,0,0.2l0,0V86.5z M32.8,86.6C32.8,86.5,32.8,86.5,32.8,86.6C32.7,86.6,32.7,86.6,32.8,86.6L32.8,86.6
	C32.7,86.5,32.7,86.5,32.8,86.6C32.8,86.6,32.8,86.5,32.8,86.6C32.8,86.5,32.8,86.5,32.8,86.6L32.8,86.6
	C32.8,86.5,32.9,86.5,32.8,86.6L32.8,86.6L32.8,86.6C32.8,86.7,32.8,86.7,32.8,86.6C32.7,86.7,32.8,86.6,32.8,86.6 M32.8,86.4
	C32.8,86.4,32.9,86.4,32.8,86.4C32.8,86.5,32.8,86.5,32.8,86.4C32.7,86.4,32.7,86.5,32.8,86.4C32.7,86.4,32.8,86.4,32.8,86.4
	 M32.7,86.3C32.8,86.3,32.8,86.3,32.7,86.3L32.7,86.3L32.7,86.3z M33,86.2c0-0.1,0.1-0.1,0.1-0.2C33.1,86.1,33.1,86.1,33,86.2
	C33.1,86.3,33,86.2,33,86.2C33,86.3,33,86.3,33,86.2C33,86.3,33,86.3,33,86.2C32.9,86.3,33,86.3,33,86.2 M33,86.1
	C33,86.1,33,86,33,86.1C33.1,86.1,33,86.1,33,86.1L33,86.1L33,86.1C33,86.1,33,86.2,33,86.1 M33.9,71.6c-0.2,0.2-0.5,0.4-0.7,0.5
	c0,0.1-0.1,0.2-0.2,0.3c0,0.1,0,0.1,0,0.1l-0.1,0.2v0.1c0,0.1-0.1,0.1-0.1,0.2c-0.1,0.2-0.2,0.5-0.3,0.7c-0.1,0.3-0.1,0.5-0.2,0.8
	c-0.2,1-0.4,1.9-0.6,2.9s-0.4,1.9-0.7,2.8c-0.1,0.6-0.3,1.2-0.4,1.8c-0.1,0.6-0.3,1.3-0.4,1.9C30.1,84.6,30,85.3,30,86
	s-0.1,1.5-0.1,2.2l0,0v0.5c0,0.1,0,0.2,0,0.3v0.1c0,0.1,0,0.1,0,0.2s0,0.1,0,0.2c0.1,0.2,0.2,0.3,0.3,0.4l0,0c0.1,0,0.1-0.1,0-0.1
	c0,0,0,0,0-0.1c0.2-0.1,0.4-0.1,0.6-0.2s0.4-0.2,0.4-0.4c0.1,0,0.1-0.1,0.1-0.1l0.1-0.1c0.1-0.3,0.2-0.6,0.4-0.9l0.2-0.2h0.2
	c0.1-0.1,0.1-0.2,0.1-0.3c0-0.1,0.1-0.2,0.1-0.4l0,0l0,0c0-0.1,0.1-0.1,0.1-0.2s0.1-0.2,0.1-0.3c0.1,0,0.1,0,0.1,0s0,0,0.1,0
	c0-0.2,0-0.4,0.1-0.6c0.1-0.1,0.1-0.3,0.1-0.6c0.1,0,0.2,0,0.2,0c0,0.1,0,0.1,0,0.1s0,0,0,0.1v-0.1v-0.1h0.1c0,0,0,0,0.1,0
	c0.1-0.1,0.2-0.4,0.2-0.6c0-0.3,0-0.5,0.1-0.6h0.1c0-0.1,0.1-0.3,0.1-0.4s0.1-0.3,0.2-0.4c0.1-0.4,0.3-0.7,0.5-1.1s0.3-0.7,0.4-1.1
	c0-0.1,0-0.2,0-0.3c0,0,0-0.1,0.1-0.1c0.1-0.1,0.1-0.3,0.2-0.5c0-0.2,0.1-0.3,0.2-0.4c0-0.1,0-0.1,0-0.1v-0.1
	c0.1-0.1,0.1-0.3,0.2-0.4s0.1-0.1,0.2-0.2c0,0,0.1-0.1,0.2-0.2l0.6-0.6c0.2-0.2,0.4-0.5,0.6-0.7s0.4-0.4,0.6-0.6s0.5-0.4,0.7-0.5
	c0.2-0.2,0.5-0.4,0.7-0.5c0.1-0.1,0.3-0.2,0.4-0.3c0.1-0.1,0.2-0.2,0.4-0.3c0.1-0.1,0.2-0.2,0.4-0.2c0.1-0.1,0.3-0.1,0.5-0.1
	c0.1,0.1,0.1,0.2,0,0.3c0,0.1-0.1,0.2,0,0.4c0,0.1,0,0.1,0,0.1V76c0,0.1,0,0.3,0,0.4s-0.1,0.2-0.1,0.4c0,0.1,0,0.2,0,0.3
	c0,0.1,0,0.2,0,0.3c0,0.1,0,0.2,0,0.2c0,0.1,0,0.2,0,0.2c-0.2,0.7-0.4,1.4-0.6,2c-0.2,0.7-0.4,1.3-0.6,2c0,0.1-0.1,0.2-0.1,0.3
	c0,0.1-0.1,0.2-0.1,0.3c0,0.1-0.1,0.2-0.1,0.2c0,0.1-0.1,0.1-0.1,0.2c0,0.2,0,0.5-0.1,0.7c-0.1,0.3,0,0.5,0.2,0.6h0.4l0.1-0.4
	c0.2-0.1,0.4-0.2,0.5-0.4c0.1-0.2,0.2-0.4,0.5-0.5c-0.1,0.1-0.1,0.2-0.2,0.3c-0.1,0.1-0.1,0.2-0.2,0.3c0.1,0,0.1,0,0.1-0.1l0.1-0.1
	c0-0.1,0.1-0.2,0.2-0.3c0.1-0.1,0.2-0.2,0.2-0.3c0.4-0.4,0.8-0.9,1.1-1.3c0.4-0.4,0.8-0.8,1.2-1.2c0.5-0.5,1-0.9,1.5-1.4
	s1-0.9,1.6-1.3c0.4-0.3,0.8-0.5,1.2-0.7c0.4-0.2,0.8-0.5,1.3-0.7c0,0.2-0.1,0.4-0.2,0.5c-0.1,0.2-0.2,0.3-0.2,0.5
	c-0.2,0.4-0.4,0.8-0.5,1.3c-0.2,0.4-0.3,0.9-0.5,1.3c-0.1,0.1-0.1,0.3-0.2,0.5s-0.2,0.4-0.2,0.5c0,0.2-0.1,0.4-0.2,0.6
	s-0.1,0.4-0.2,0.6c-0.1,0.5-0.2,1-0.3,1.5c-0.1,0.5-0.1,1.1-0.2,1.6h-0.1c0,0,0,0-0.1,0c0,0.1,0.1,0.3,0.1,0.4s0,0.3,0,0.5v0.1
	l0.1,0.1v0.4c0,0.2,0.1,0.4,0.2,0.5s0.2,0.3,0.2,0.4c0.1,0,0.1,0,0.1,0l0.1,0.1c0.1,0.2,0.2,0.4,0.4,0.5c0.1,0.2,0.3,0.3,0.5,0.4
	l0.2,0.1v0.1c0,0,0,0,0,0.1c0.1,0.1,0.3,0.2,0.4,0.3c0.2,0,0.3-0.1,0.5-0.2c0.1,0,0.1,0,0.1,0s0,0,0.1,0h0.1c0,0,0,0,0.1,0h0.1h0.1
	l0,0l0,0h0.1c0.1,0,0.2,0,0.3,0c0.1,0,0.2,0,0.3,0c0.3-0.1,0.6-0.1,0.9-0.2s0.6-0.2,0.8-0.2l0.1-0.2c0.1,0,0.2,0,0.3-0.1
	c0.1-0.1,0.1-0.2,0.2-0.2l0.1-0.1c0,0,0.1-0.1,0.2-0.1c0.3-0.2,0.6-0.4,0.9-0.6s0.6-0.5,0.8-0.8v-0.1c0.4-0.2,0.8-0.5,1.1-0.8
	c0.3-0.3,0.7-0.6,1-0.9l0.1-0.1v-0.1c0,0,0,0,0-0.1c0.1-0.1,0.1-0.1,0.1-0.2l0,0c-0.3,0.3-0.6,0.5-0.9,0.8s-0.6,0.5-0.9,0.7l0,0
	c0.2-0.2,0.5-0.5,0.8-0.7c0-0.2,0.1-0.3,0.2-0.4s0.2-0.2,0.4-0.3l0,0l0,0c0.1-0.1,0.2-0.3,0.4-0.4c0.1-0.1,0.2-0.3,0.4-0.4
	c0-0.1,0-0.2,0.1-0.2c0,0,0.1-0.1,0.1-0.2v-0.1c-0.1-0.1-0.1-0.1-0.1-0.2c-0.1,0-0.2,0-0.4,0c-0.1,0-0.3,0.1-0.4,0.2
	s-0.2,0.2-0.3,0.2c-0.1,0-0.1,0-0.1,0H56l-0.2,0.2c-0.1,0.1-0.1,0.1-0.1,0.1s-0.1,0-0.1,0.1c-0.1,0.1-0.3,0.3-0.4,0.4
	s-0.3,0.2-0.4,0.4c-0.1,0-0.1,0.1-0.1,0.1s-0.1,0-0.1,0.1c-0.1,0.1-0.2,0.1-0.3,0.1l0,0c0,0,0,0-0.1,0s-0.1,0-0.1,0.1
	S54,84.6,54,84.6c-0.1,0.1-0.2,0.1-0.3,0.2c-0.4,0.4-0.8,0.7-1.3,1c-0.4,0.3-1,0.6-1.5,0.8v-0.1v-0.1v-0.1v-0.1c0-0.1,0-0.2,0-0.3
	c0-0.1,0-0.2,0-0.2c0-0.1,0-0.3,0-0.5c0-0.1,0-0.2,0-0.5c0-0.1,0-0.1,0-0.2s0-0.1,0-0.2s0-0.3,0-0.5c0-0.1,0-0.3,0.1-0.4
	c0.1-0.5,0.3-1,0.5-1.6c0.2-0.5,0.3-1,0.5-1.5l0.1-0.4v-0.1c0-0.1,0-0.2,0.1-0.2c0.1-0.3,0.2-0.6,0.3-0.9c0.1-0.3,0.2-0.6,0.3-0.9
	c0-0.1,0-0.2,0-0.3s0-0.2,0.1-0.3c0-0.1,0.1-0.2,0.1-0.3c0-0.1,0-0.2,0-0.3c0-0.3,0.1-0.6,0.2-0.8c0-0.1,0-0.1,0-0.1v-0.1v-0.2
	c0-0.1,0-0.2,0-0.2c0-0.1,0-0.1,0-0.1s0,0,0-0.1s0-0.1,0-0.2s0-0.2,0-0.3c0,0,0-0.1,0-0.2c-0.1-0.1-0.1-0.3,0-0.6
	c0-0.1,0-0.3-0.1-0.4s-0.2-0.2-0.3-0.2c-0.1-0.1-0.3-0.1-0.4-0.2c-0.3-0.1-0.6-0.2-1-0.2c-0.1,0-0.3,0.1-0.4,0.1s-0.3,0.1-0.4,0.2
	c-0.4,0.1-0.6,0.2-0.8,0.3c-0.3,0.1-0.5,0.2-0.8,0.3c-0.3,0.1-0.5,0.2-0.7,0.3c-0.8,0.4-1.5,0.7-2.2,1.2c-0.7,0.4-1.3,0.9-2,1.4
	c-0.2,0.2-0.4,0.3-0.6,0.5s-0.4,0.3-0.6,0.5c0.2,0.6,0.1,0.6,0,0.8c-0.1,0.1-0.3,0.3-0.4,0.4s-0.3,0.3-0.4,0.4
	c0.1-0.3,0.1-0.6,0.2-0.9s0.1-0.6,0.2-0.9s0.1-0.6,0.2-0.9s0.1-0.6,0-0.9c-0.1,0-0.1,0.1,0,0.2c0,0.1,0,0.1,0,0.2
	c-0.1,0-0.1-0.1,0-0.1v-0.1c0-0.1,0-0.1-0.1-0.1c0,0-0.1,0-0.1-0.1c-0.1-0.2-0.1-0.4-0.2-0.5c-0.1-0.2-0.2-0.3-0.2-0.5
	c-0.2-0.1-0.5-0.2-0.8-0.1s-0.5,0.2-0.7,0.2c-0.1,0.1-0.2,0.1-0.3,0.2c-0.1,0-0.2,0.1-0.3,0.2c-0.5,0.3-1,0.7-1.4,1
	c-0.4,0.4-0.9,0.7-1.3,1c0.1-0.3,0.1-0.7,0.2-1c0-0.4,0.1-0.8,0.1-1.2v-0.4c0-0.1,0-0.1,0-0.2s0-0.1,0-0.2s0-0.3,0-0.4
	s0-0.2-0.1-0.4c0-0.2,0-0.4-0.1-0.7c-0.1-0.3-0.4-0.5-0.8-0.7c-0.1,0-0.1,0-0.2,0l-0.1-0.1c0,0,0-0.1-0.1-0.1
	c-0.1-0.1-0.1-0.1-0.2-0.1s-0.2,0-0.3-0.1c-0.1,0-0.1-0.1-0.2-0.1s-0.2,0-0.2,0H35C34.4,71.3,34.1,71.4,33.9,71.6 M14.8,60.2
	c0.1,0,0.2,0,0.2-0.1l0,0C15,60.3,14.9,60.3,14.8,60.2c0,0.1-0.1,0.1-0.1,0.2c-0.1-0.1-0.1-0.1-0.1-0.1
	C14.6,60.2,14.7,60.2,14.8,60.2 M18.4,57.6L18.4,57.6C18.5,57.6,18.5,57.6,18.4,57.6C18.4,57.6,18.3,57.5,18.4,57.6
	C18.3,57.5,18.3,57.6,18.4,57.6c-0.1,0.1-0.2,0.1-0.4,0.1c-0.1,0-0.3,0.1-0.4,0.1l0.1-0.1h0.1c0.1-0.1,0.1-0.1,0.2-0.1s0.2,0,0.2,0
	C18.3,57.5,18.3,57.5,18.4,57.6C18.4,57.5,18.4,57.6,18.4,57.6 M24.3,56.3c0.1,0,0.2,0,0.2-0.1v0.1C24.5,56.3,24.4,56.3,24.3,56.3
	c-0.1,0.2-0.2,0.2-0.3,0.1C24.1,56.3,24.2,56.2,24.3,56.3 M23.5,56.2c0.5-0.1,1-0.1,1.5-0.2l0,0c-0.2,0.1-0.4,0.1-0.6,0.1
	s-0.4,0-0.6,0.1c0,0.1,0.1,0.1,0.1,0.1c0.1-0.1,0.1-0.1,0.2,0c-0.1,0.1-0.2,0.1-0.4,0.1c-0.4,0.1-0.7,0.1-1.1,0.2s-0.8,0.1-1.2,0.2
	c-0.2,0.1-0.4,0.1-0.5,0.2c-0.2,0-0.3,0.1-0.4,0c0,0.1-0.1,0.1-0.1,0c0,0,0,0-0.1,0c0,0,0,0,0-0.1c-0.2,0.1-0.4,0.2-0.7,0.2
	c-0.3,0.1-0.6,0.1-0.8,0.2l0,0c-0.1-0.1-0.1-0.1-0.1,0h-0.1c0-0.1,0.1-0.1,0.2-0.1s0.1,0,0.2-0.1c0.1,0,0.2-0.1,0.4-0.1
	c0.1,0,0.3-0.1,0.4-0.1c0.3-0.1,0.6-0.2,0.9-0.3c0.2-0.1,0.5-0.2,0.9-0.2c0.1-0.1,0.2-0.1,0.3-0.1c0.1,0,0.2-0.1,0.3-0.1
	C22.5,56.3,23,56.3,23.5,56.2 M16.9,58c0.2-0.1,0.4-0.1,0.5-0.1c-0.5,0.2-1,0.4-1.5,0.6s-1,0.4-1.6,0.5c0,0.1,0,0.1,0.1,0
	c0.1,0,0.1,0,0.1,0.1c-0.1,0.1-0.2,0.2-0.3,0.2c-0.1,0-0.2,0.1-0.2,0.2c0.1,0,0.2,0,0.4,0.1v0.2c-0.2,0.1-0.3,0.2-0.4,0.3
	c0.1-0.1,0.2-0.1,0.3,0c0.1,0,0.1,0,0.2,0c0.1,0.1,0.2,0.1,0.2,0.3c0,0.1,0.1,0.2,0.2,0.2c0.1-0.1,0.3-0.1,0.4-0.1s0.2,0,0.4,0
	c0.1,0,0.2,0,0.4-0.1c0.1,0,0.2-0.1,0.4-0.2c0.4-0.1,0.9-0.3,1.3-0.4s0.8-0.3,1.3-0.4v-0.1v-0.1c0.1,0,0.3,0,0.4-0.1
	c0.1,0,0.2-0.1,0.2-0.1c0.4-0.1,0.7-0.2,1.1-0.3c0.4-0.1,0.8-0.2,1.1-0.4c-0.1,0-0.3,0-0.5,0.1c-0.2,0-0.3,0-0.5,0
	c0.1-0.1,0.2-0.2,0.3-0.2c0.1,0,0.3-0.1,0.4-0.1c0.2-0.1,0.4-0.1,0.6-0.2s0.4-0.1,0.6-0.2c0.4-0.1,0.9-0.2,1.4-0.3
	c0.5-0.1,1-0.1,1.5-0.2h0.4c0.1,0,0.2,0,0.2,0c0.1,0,0.1,0.1,0.2,0.1s0.1,0,0.2,0s0.2,0,0.2,0c-0.1,0.3-0.1,0.6-0.2,0.8
	c-0.1,0.2-0.1,0.5-0.1,0.8c-0.3,0.4-0.5,1-0.7,1.6c-0.1,0.3-0.3,0.6-0.5,0.9S25.1,62,25,62.3c-0.1,0.2-0.3,0.4-0.4,0.7
	c-0.1,0.2-0.2,0.5-0.4,0.7c-0.1,0.3-0.2,0.6-0.3,0.9c-0.2,0.3-0.3,0.6-0.4,0.9c0,0-0.1,0-0.1,0.1v0.2c-0.5,0.9-0.9,1.8-1.3,2.8
	s-0.8,1.9-1.3,2.8c-0.7,0.1-1.3,0.3-1.9,0.4s-1.2,0.4-1.6,0.7h-0.1h-0.1c-0.1,0.1-0.3,0.3-0.5,0.4s-0.3,0.3-0.4,0.4
	c0.1,0.1,0.3,0.2,0.4,0.2s0.3,0,0.5,0c0,0.1-0.1,0.2-0.3,0.2c-0.2,0-0.3,0.1-0.4,0.1c0,0.1,0.1,0.2,0.2,0.1c0.1,0,0.2-0.1,0.2-0.1
	c0.1,0.1,0.2,0.1,0.3,0c0.1,0,0.2-0.1,0.3-0.1c0.1,0,0.1,0,0.2,0s0.1,0,0.2,0c0.3-0.1,0.7-0.2,1-0.4c0.4-0.2,0.7-0.2,1.1-0.2
	c0,0.1,0,0.1-0.1,0.2s-0.1,0.1-0.1,0.2c-0.4,0.1-0.7,0.2-1.1,0.3c-0.3,0.1-0.6,0.2-1,0.4c0.4-0.1,0.7-0.2,1-0.3
	c0.3-0.1,0.6-0.2,0.9-0.2c0,0.1,0,0.3-0.1,0.3c-0.1,0.1-0.1,0.2-0.2,0.3c-0.7,1.3-1.4,2.8-1.9,4.3c-0.6,1.5-1.1,3.1-1.5,4.7
	c-0.3,0.9-0.5,2-0.7,3.1s-0.2,2.3,0.1,3.5c0.2,0.2,0.3,0.4,0.4,0.6c0.1,0,0.2,0,0.3,0c0.1,0.1,0.1,0.1,0.2,0.2
	c0,0.1,0.1,0.1,0.2,0.2c0.1,0,0.1-0.1,0.1-0.2s0-0.1,0.1-0.2c0.1,0.1,0.1,0.1,0,0.2c0,0.1,0,0.1,0,0.2c0.1-0.1,0.1-0.3,0.1-0.5
	s0.1-0.3,0.2-0.4c0.1,0.1,0.1,0.2,0,0.4h0.1c0,0,0.1,0,0.1,0.1c0.1-0.1,0.1-0.2,0.2-0.3c0-0.1,0.1-0.2,0.2-0.3c0,0.1,0,0.1,0,0.1
	c0.1-0.1,0.1-0.1,0.1-0.2c0,0,0-0.1,0.1-0.1h0.1l0,0c0.1-0.1,0.2-0.2,0.2-0.4s0.2-0.3,0.3-0.2c0-0.1,0-0.2,0.1-0.3
	c0-0.1,0.1-0.2,0.1-0.3c0.1,0,0.1,0,0.1,0l0,0c0.2-1,0.5-2,0.9-2.9s0.7-1.8,1-2.8c0.1-0.1,0.1-0.2,0.2-0.4c0-0.1,0.1-0.2,0.1-0.4
	c0-0.1,0.1-0.1,0.1-0.2s0.1-0.1,0.1-0.2s0-0.1,0-0.2s0-0.1,0-0.2c0.1-0.2,0.2-0.4,0.2-0.6c0.1-0.2,0.2-0.4,0.2-0.6
	c0.1-0.1,0.1-0.3,0.2-0.4s0.1-0.3,0.2-0.5c0.1,0,0.1-0.1,0.1-0.1l0.1-0.1c0.1-0.3,0.2-0.5,0.3-0.7c0.1-0.2,0.2-0.5,0.3-0.7
	c0.1-0.1,0.2-0.2,0.2-0.4c0.1-0.1,0.1-0.2,0.2-0.4c0.4-0.7,0.7-1.4,0.9-2c0.1-0.1,0.2-0.3,0.3-0.6c0.1-0.1,0.1-0.1,0.2-0.2
	c0-0.1,0.1-0.2,0.1-0.2c0-0.1,0.1-0.1,0.1-0.2s0.1-0.1,0.1-0.2s0.1-0.1,0.1-0.2s0-0.1,0.1-0.2s0.2-0.2,0.5-0.2
	c0.2,0,0.4-0.1,0.6-0.1c0.1,0,0.3-0.1,0.4-0.1s0.3-0.1,0.4-0.1c0-0.1,0.1-0.1,0.1-0.1l0.1-0.1c0.3-0.1,0.5-0.1,0.8-0.2
	s0.5-0.1,0.7-0.2c0.1-0.1,0.1-0.1,0.2-0.1s0.2,0,0.3-0.1c0.1,0,0.1-0.1,0.1-0.1s0.1,0,0.1-0.1c0.1,0,0.3,0,0.5,0s0.3-0.1,0.3-0.2
	c-0.1-0.1-0.2-0.1-0.4-0.1s-0.2-0.1-0.3-0.2c-0.5,0-1,0-1.5,0s-1-0.1-1.5-0.2c-0.1-0.1-0.2-0.2-0.2-0.3c0-0.1,0.1-0.2,0.1-0.3
	c0.1-0.2,0.2-0.3,0.2-0.5c0.1-0.2,0.1-0.3,0.3-0.5c0.1-0.1,0.1-0.3,0.2-0.4s0.2-0.2,0.2-0.4v-0.1c0-0.1,0.1-0.2,0.1-0.2
	s0.1-0.1,0.2-0.2c0.1-0.2,0.2-0.4,0.3-0.6c0.1-0.2,0.2-0.4,0.2-0.6c0.3-0.4,0.5-0.7,0.7-1.2c0.2-0.4,0.4-0.8,0.6-1.2
	c0.1-0.2,0.1-0.3,0.2-0.5c0.1-0.1,0.2-0.3,0.2-0.5c0.2-0.3,0.4-0.7,0.5-1.1c0.1-0.1,0.2-0.3,0.2-0.4c0-0.2,0.1-0.3,0.2-0.5v-0.1
	c0.1-0.1,0.2-0.3,0.2-0.5s0.1-0.4,0.2-0.5c-0.1-0.1-0.1-0.2,0-0.2c0.1-0.1,0.1-0.1,0-0.3c0.1-0.1,0.1-0.3,0.1-0.4
	c0-0.2,0.1-0.3,0.2-0.4c0-0.2,0-0.4,0.1-0.7c0-0.2,0-0.5,0-0.7c0.2-0.1,0.5-0.2,0.8-0.1s0.6,0.1,0.8,0c0.1-0.1,0.1-0.1,0.1-0.2
	s0-0.2,0.1-0.2s0.3,0,0.4,0c0.1,0.1,0.2,0.1,0.3,0c-0.2-0.1-0.3-0.2-0.2-0.4c0-0.1,0.1-0.1,0.1-0.1s0.1,0,0.1-0.1
	c-0.1-0.1-0.2-0.1-0.4-0.1c-0.1,0-0.2-0.1-0.2-0.4c0.1-0.1,0.3-0.1,0.4,0c0.1,0,0.2,0.1,0.4,0.1c-0.2-0.1-0.5-0.2-0.8-0.3
	c-0.3-0.1-0.6-0.1-1-0.2c-0.1,0-0.1-0.1-0.1-0.1s0,0,0-0.1c-0.1,0-0.1,0-0.1,0s0,0-0.1,0c-0.1-0.1-0.1-0.1-0.1-0.1c0.2,0,0,0-0.3,0
	S31,55,30.8,55c-0.2-0.3-0.4-0.5-0.7-0.6c-0.1,0-0.1,0-0.2,0c0,0-0.1,0-0.2,0s-0.1,0-0.1,0l-0.1-0.1c-0.2-0.1-0.4-0.1-0.6,0
	c-0.2,0-0.4,0.1-0.6,0.2c0,0.1,0,0.1,0,0.1c-0.1,0.1-0.2,0.1-0.3,0.2c-0.1,0.1-0.1,0.2-0.2,0.3v0.1c0,0,0,0,0,0.1
	c-0.1,0.1-0.1,0.2-0.2,0.2h-0.3c-0.3,0-0.6,0.1-0.9,0.1s-0.6,0.1-0.9,0.2s-0.5,0.1-0.7,0.1S24.4,56,24.2,56l-2,0.4
	c-0.3,0.1-0.6,0.1-0.9,0.2s-0.6,0.2-0.9,0.2c-1,0.3-2.1,0.6-3.1,0.8c-1.1,0.2-2.1,0.5-3.1,0.9c0.2-0.1,0.4-0.1,0.7-0.2
	c0.2,0,0.5-0.1,0.6-0.2c0.3,0,0.6,0,0.9-0.1s0.5-0.1,0.7,0l0,0C17.1,57.9,17,57.9,16.9,58 M13.6,78.4c0-0.1,0.1-0.2,0.1-0.2
	c0.1,0.1,0,0.3-0.1,0.4C13.6,78.6,13.6,78.6,13.6,78.4 M2.7,79.2c-0.1-0.1-0.1-0.2-0.1-0.3c0-0.1,0-0.2,0-0.3l0,0H2.5
	c0-0.1-0.1-0.3-0.2-0.4c-0.1-0.1-0.1-0.3-0.2-0.4H2c-0.1-0.1-0.2-0.2-0.2-0.3c0-0.1-0.1-0.3-0.1-0.5c-0.1,0.1-0.1,0.1-0.2,0.1
	c-0.1,0-0.2,0-0.2-0.1v-0.2c-0.1,0-0.1,0-0.1-0.1s0-0.1,0-0.2C1,76.6,1,76.7,1,76.9c0,0.1,0,0.2-0.1,0.3c-0.1,0.1-0.2,0.1-0.3,0
	S0.4,77,0.4,76.9c-0.1,0.2-0.1,0.5-0.2,0.7c0,0.2-0.1,0.4-0.1,0.7C0,78.7,0,79.1,0,79.5c0,0.4,0,0.8,0.1,1.2c0,0.4,0.1,0.8,0.1,1.1
	c0,0.4,0.1,0.7,0.2,1C0.5,83.9,0.8,85,1,86.1c0.3,1.1,0.6,2.1,1,3c0.1,0.1,0.2,0.1,0.2,0.2c0.1,0,0.2,0.1,0.2,0.2
	c0.1,0.1,0.1,0.2,0.1,0.2c0.1,0,0.1,0.1,0.1,0.1s0.1,0.1,0.1,0.2c0.1,0.1,0.3,0.3,0.5,0.4s0.4,0.2,0.6,0.3c0.2,0.1,0.4,0.1,0.5,0
	c0.1,0.1,0.2,0.1,0.2,0.1c0.1,0,0.2,0,0.3,0s0.2-0.1,0.4-0.1c0.1,0,0.3,0,0.4-0.1c0.1,0,0.2,0,0.2,0c0.1,0,0.1,0,0.2,0
	c0.1,0,0.1,0,0.1,0h0.1c0.1,0,0.2,0,0.2,0c0.1,0,0.2,0,0.2,0c0.3-0.2,0.6-0.3,0.9-0.5c0.3-0.1,0.6-0.3,0.8-0.5
	c0.1-0.1,0.3-0.2,0.4-0.3c0.1-0.1,0.2-0.2,0.4-0.3c0.1-0.1,0.1-0.1,0.1-0.1h0.1c0-0.1,0-0.1,0-0.1v-0.1c0.1-0.2,0.2-0.3,0.4-0.4
	c0.1-0.1,0.2-0.2,0.3-0.4c0.1-0.1,0.2-0.2,0.4-0.3c0.1-0.2,0.2-0.4,0.3-0.6c0.1-0.2,0.2-0.4,0.2-0.6c0.1-0.1,0.2-0.2,0.2-0.4
	c0-0.2,0.1-0.3,0.2-0.5l0,0c0,0-0.1,0,0,0c0.1-0.1,0.2-0.3,0.3-0.5c0.1-0.2,0.2-0.3,0.4-0.4c0-0.1,0-0.1,0.1-0.2
	c0-0.1,0.1-0.1,0.1-0.3c0.1,0,0.1,0,0.1,0h0.1c-0.1-0.2-0.1-0.4,0-0.5s0.2-0.2,0.2-0.4c0-0.1,0-0.2,0-0.3v-0.1c0,0,0,0,0-0.1
	c0.1-0.2,0.1-0.4,0-0.5c0-0.2,0-0.3,0-0.5c0.1,0,0.1,0,0,0c0-0.1,0-0.1,0-0.2c0,0,0-0.1,0-0.2c0.1-0.1,0.1-0.2,0.1-0.4
	c0.1-0.2,0.1-0.4,0.2-0.5c0.1-0.2,0.1-0.4,0.2-0.6v-0.4c0-0.1,0-0.3,0.1-0.4c0-0.1,0-0.1,0,0s0,0,0,0c0.1-0.1,0.1-0.2,0.1-0.3
	c0-0.1,0.1-0.3,0.1-0.4c0,0,0,0-0.1,0s-0.1,0,0,0c0-0.1,0-0.1,0.1-0.3c0-0.1,0-0.2,0-0.3c-0.1,0-0.1,0.1-0.1,0.2
	c0.1,0.1,0,0.1-0.1,0.1l0.1-0.2c0-0.5,0-1,0.1-1.6c0.1-0.5,0.1-1,0.1-1.6c-0.1-0.5-0.1-1-0.3-1.4c-0.1-0.5-0.3-0.9-0.4-1.3
	c-0.2-0.2-0.4-0.4-0.5-0.7c-0.1-0.1-0.2-0.2-0.3-0.3c-0.1-0.1-0.2-0.2-0.3-0.2c-0.2-0.1-0.4-0.1-0.6-0.2c-0.1-0.1-0.3-0.2-0.4-0.3
	c0.1-0.1,0.2-0.2,0.4-0.3c0.1-0.1,0.1-0.1,0.2-0.2c0,0,0.1-0.1,0.2-0.2s0.2-0.2,0.2-0.2c0.1-0.1,0.1-0.1,0.2-0.2s0.2-0.2,0.3-0.3
	c0.1-0.1,0.2-0.2,0.2-0.4c0.1-0.1,0.2-0.2,0.3-0.3c0.1-0.1,0.2-0.2,0.2-0.4c0.1-0.1,0.2-0.2,0.3-0.3c0.1-0.1,0.2-0.3,0.3-0.4v-0.1
	c0.1,0,0.1,0,0.1,0v-0.1c0.1-0.3,0.2-0.5,0.4-0.7c0.2-0.2,0.3-0.5,0.3-0.8c0.1-0.1,0.1-0.2,0.1-0.3c0-0.1,0-0.2,0-0.3
	c0.1,0,0.1,0,0.1-0.1c0.1-0.3,0.1-0.7,0.2-1c0.1-0.4,0.2-0.7,0.3-1c-0.1,0-0.1-0.1,0-0.1v-0.1c0.1,0,0.1-0.1,0-0.1
	c0-0.1,0-0.1,0-0.1c0.1-0.5,0.1-1,0.2-1.4s0-0.9-0.1-1.4c-0.1-0.1-0.1-0.3-0.2-0.5s-0.1-0.3,0-0.6c-0.1-0.1-0.1-0.1-0.1-0.2
	s0-0.1-0.1-0.2s-0.2-0.3-0.3-0.5c-0.1-0.2-0.2-0.4-0.4-0.5c-0.1-0.3-0.4-0.6-0.6-0.8c-0.3-0.2-0.5-0.4-0.8-0.6
	c-0.4-0.2-0.8-0.3-1.2-0.4C11,55,10.5,55,10,55.1c-0.4,0.1-0.8,0.3-1.3,0.5c-0.4,0.2-0.8,0.4-1.1,0.5c-0.1,0-0.2,0.1-0.3,0.2
	S7,56.6,6.8,56.7s-0.3,0.2-0.4,0.4c-0.1,0.1-0.2,0.1-0.3,0.2S6,57.4,5.9,57.5c-0.3,0.1-0.5,0.3-0.7,0.6c-0.2,0.2-0.5,0.5-0.7,0.7
	c-0.1,0.1-0.2,0.3-0.3,0.5S4,59.6,3.8,59.7c-0.1,0.4-0.3,0.8-0.5,1.2c-0.2,0.4-0.4,0.8-0.4,1.3c-0.1,0.3,0,0.5,0.3,0.7
	C3.3,63,3.4,63,3.5,63c0.3,0,0.5-0.1,0.6-0.2c0.1-0.2,0.2-0.4,0.4-0.6c0-0.1,0.1-0.1,0.1-0.2c0,0,0.1-0.1,0.2-0.2
	C5,61.5,5.3,61.3,5.5,61c0.2-0.2,0.4-0.5,0.5-0.8c0.1-0.1,0.3-0.3,0.4-0.4c0.1-0.1,0.2-0.2,0.3-0.4c0.5-0.4,0.9-0.8,1.4-1.1
	C8.4,58.2,8.7,58,9,57.9c0.3-0.1,0.6-0.3,0.9-0.4H10h0.1c0.6-0.1,0.9,0,1.1,0.4c0.1,0.1,0.1,0.2,0.1,0.3v0.3c0,0.1,0,0.1,0,0.1v0.1
	c0,0.1,0,0.3,0,0.4s-0.1,0.3-0.1,0.4v0.2c0,0.1-0.1,0.1-0.1,0.1L11,59.9c-0.1,0.1-0.1,0.2-0.1,0.4v0.8c-0.1,0.1-0.1,0.2-0.2,0.2
	c0,0.1-0.1,0.1,0,0.2c-0.1,0.2-0.2,0.4-0.3,0.7c0,0.2-0.1,0.5-0.2,0.7v0.2c-0.1,0.1-0.1,0.1-0.1,0.2s0,0.2-0.1,0.3
	c-0.1,0.1-0.1,0.2-0.2,0.2c0,0.1,0,0.2,0,0.3c-0.1,0.1-0.1,0.1-0.2,0.2c-0.1,0.1-0.1,0.2,0,0.2c-0.1,0-0.1,0.1-0.2,0.3
	C9.3,65,9.1,65.2,9,65.4c-0.2,0.2-0.3,0.4-0.5,0.6S8,66.5,7.8,66.7s-0.4,0.5-0.7,0.7C7,67.5,7,67.5,6.9,67.6
	c-0.1,0.1-0.2,0.1-0.2,0.2c-0.3,0.3-0.6,0.6-0.9,0.9c-0.3,0.3-0.6,0.6-0.9,0.8c-0.1,0.1-0.3,0.2-0.4,0.4c-0.1,0.1-0.2,0.2-0.4,0.3
	C4,70.4,4,70.6,4,70.7c0,0.2-0.1,0.4-0.1,0.5C4,71.3,4,71.3,4,71.4s0,0.2,0,0.2c0,0.1,0,0.2,0.1,0.3c0.1,0.1,0.1,0.2,0,0.3
	c0.1,0.1,0.2,0.2,0.2,0.3c0,0.1,0.1,0.2,0.2,0.3c0.1,0.2,0.4,0.3,0.7,0.3s0.6,0.1,0.8,0.1c0.2-0.1,0.5-0.1,0.7-0.1s0.4-0.1,0.5-0.2
	s0.2-0.1,0.2-0.2c0.1,0,0.1-0.1,0.2-0.2c0.1,0,0.1-0.1,0.2-0.1C7.9,72.3,8,72.3,8,72.3c0.1,0,0.1-0.1,0.2-0.2
	C8.3,72,8.5,72,8.6,71.9c0.1-0.1,0.2-0.2,0.4-0.2c0.7,0.4,0.8,0.4,1,0.4c0.2,0,0.3,0,0.5,0.1c0.3,0.1,0.6,0.4,0.9,0.9
	c0.3,0.4,0.5,0.8,0.5,1.2c0.3,1.1,0.2,2.3-0.1,3.5c-0.1,0.3-0.2,0.6-0.2,0.8c-0.1,0.3-0.2,0.5-0.2,0.7c-0.3,0.9-0.7,1.6-1.1,2.3l0,0
	c0,0,0,0.1-0.1,0c-0.1,0.2-0.3,0.5-0.4,0.7c-0.1,0.2-0.3,0.4-0.5,0.6c-0.1,0.2-0.3,0.5-0.5,0.7S8.4,84,8.3,84.3c-0.1,0-0.1,0-0.1,0
	s0,0.1-0.1,0.1C8,84.6,7.8,84.8,7.6,85s-0.4,0.4-0.5,0.6c-0.2,0.2-0.4,0.4-0.6,0.6c-0.2,0.2-0.4,0.4-0.8,0.6
	c-0.2-0.2-0.4-0.5-0.6-0.8c-0.2-0.3-0.3-0.6-0.3-1c-0.1-0.3-0.1-0.5-0.1-0.7s-0.1-0.5-0.1-0.8c0.1-0.2,0.2-0.3,0.1-0.5
	c-0.1,0-0.1,0-0.1,0H4.5c-0.1-0.1-0.1-0.2-0.1-0.3v-0.3h0.1l-0.1-0.3C4.1,82.1,4,82,4,81.9s-0.1-0.3-0.1-0.4s0-0.3-0.1-0.5
	c0-0.2-0.1-0.3-0.2-0.4c-0.1-0.2-0.1-0.4-0.2-0.5c0,0.1,0,0.2-0.1,0.3c-0.1-0.1-0.2-0.2-0.2-0.4c0-0.2,0-0.3-0.1-0.5
	c0-0.1-0.1-0.2-0.1-0.3c0-0.1-0.1-0.2-0.1-0.2l0,0C2.9,79.1,2.8,79.2,2.7,79.2"/>
<polygon class="st0" points="48.5,29.9 48.6,29.7 48.7,29.5 "/>
<path class="st0" d="M48.3,28.9c0.5-0.3,0,0.4,0.2,0.4l0.1-0.1l-0.4,0.4C48.3,29.4,48.5,29,48.3,28.9"/>
<path class="st0" d="M47.1,29.1C47.3,29,47.3,28.9,47.1,29.1C47.2,29.2,47.2,29.2,47.1,29.1L47.1,29.1"/>
<path class="st0" d="M47.2,29.2C47.2,29.3,47,29.2,47.2,29.2"/>
<path class="st0" d="M47.1,28.6l-0.2,0.2c-0.1,0-0.2-0.1-0.3,0C46.8,28.6,46.9,28.6,47.1,28.6"/>
<path class="st0" d="M47.5,28.3L47.5,28.3C47.4,28.4,47.4,28.4,47.5,28.3"/>
<path class="st0" d="M47.3,28.6l0.1-0.2c0.1,0,0.3-0.1,0,0.1C47.5,28.4,47.4,28.5,47.3,28.6"/>
<path class="st0" d="M47.4,28.7c0.1,0,0.2,0.1,0.4-0.1C47.8,28.8,47.4,29,47.4,28.7"/>
<path class="st0" d="M48.8,28.5H49l-0.1,0.2C48.9,28.6,48.7,28.6,48.8,28.5"/>
<path class="st0" d="M46.7,27.8c0.1,0,0.3,0,0.5-0.1l-0.1,0.1C47,27.8,46.9,27.8,46.7,27.8"/>
<path class="st0" d="M47.2,27.7l0.2-0.2C47.4,27.6,47.3,27.7,47.2,27.7"/>
<path class="st0" d="M48.1,28l-0.4,0.4c0,0,0.1-0.1,0.2-0.2C48,28.1,48.1,28,48.1,28L48.1,28z"/>
<path class="st0" d="M47.3,27.3c-0.1,0-0.3,0-0.3,0H47.3L47.3,27.3z"/>
<path class="st0" d="M47.3,27.2L47.3,27.2C47.3,27.1,47.3,27.1,47.3,27.2C47.2,27.1,47.2,27.2,47.3,27.2"/>
<path class="st0" d="M47.3,27.3L47.3,27.3L47.3,27.3"/>
<path class="st0" d="M47.7,27.8c0.2-0.1,0.3-0.4,0.6-0.3C48.1,27.6,48,27.6,47.7,27.8"/>
<path class="st0" d="M47.7,27.3L47.7,27.3c0,0.1-0.1,0.1-0.2,0.2L47.7,27.3z"/>
<polygon class="st0" points="47.6,27.2 47.7,27.3 47.8,27.2 "/>
<path class="st0" d="M47.1,26.6c0.1-0.1,0.1-0.2,0.2-0.2c0.1,0.1,0.1,0.2,0.1,0.2C47.3,26.6,47.1,26.7,47.1,26.6"/>
<path class="st0" d="M47.2,26.9L47.2,26.9C47.2,26.9,47.3,26.9,47.2,26.9"/>
<path class="st0" d="M47.2,25.6C47.2,25.6,47.3,25.6,47.2,25.6L47.2,25.6L47.2,25.6z"/>
<path class="st0" d="M47.4,26.6c0.1,0.1,0,0.1-0.1,0.2C47.3,26.7,47.4,26.6,47.4,26.6L47.4,26.6"/>
<path class="st0" d="M46.9,26.1c0.1,0,0.1,0.1,0.2,0.1C47,26.2,46.8,26.1,46.9,26.1"/>
<path class="st0" d="M47.1,26.9L47.1,26.9C47,26.9,47.1,26.9,47.1,26.9"/>
<path class="st0" d="M47.1,26.9c0,0,0.1-0.1,0.2-0.1C47.3,26.8,47.3,26.8,47.1,26.9C47.2,26.9,47.2,26.9,47.1,26.9"/>
<path class="st0" d="M49.3,25.4c-0.3,0-0.6,0.1-0.3,0.2c-0.2,0.1-1.2,0.1-1.8,0c0.1,0,0.3,0,0.4-0.1c0.2,0.1,0.4,0.3,0.7,0.2
	c0.2-0.2-0.1-0.1-0.3-0.2c0.4,0.1,0.5-0.2,1.1-0.1l-0.2,0.1C49.1,25.4,49.2,25.4,49.3,25.4"/>
<path class="st0" d="M47.3,25.9L47.3,25.9c-0.1,0-0.2,0-0.4-0.1c0.1-0.1,0.3-0.1,0.4-0.1V25.9L47.3,25.9z"/>
<path class="st0" d="M47.3,26.2c0.3-0.1,0.5-0.2,0.8-0.2c0,0.2-0.3,0.1-0.4,0.2C47.8,26,47.5,26.4,47.3,26.2c0,0.1,0,0.1,0,0.2
	c0,0-0.1-0.1-0.2-0.1l0,0l0,0l0,0c0,0,0.1,0,0,0l0,0C47.2,26.2,47.3,26.2,47.3,26.2C47.2,26.1,47.2,26.2,47.3,26.2L47.3,26.2
	L47.3,26.2l0.1-0.3C47.3,26,47.3,26.1,47.3,26.2"/>
<path class="st0" d="M49,27.1L49,27.1L49,27.1"/>
<path class="st0" d="M48.8,27.1C48.8,27.1,48.6,27.2,48.8,27.1c0,0.1,0.1,0.1,0.2,0c-0.1,0.1-0.2,0.2-0.4,0.1l0,0
	c-0.1-0.1-0.5-0.1-0.6-0.1C48.3,27.2,48.5,27.1,48.8,27.1"/>
<path class="st0" d="M48.1,26.7l0.1-0.2l0.3,0.1h-0.2C48.5,26.6,48.3,26.7,48.1,26.7"/>
<polygon class="st0" points="46.7,25.6 47.1,25.6 47.2,25.5 "/>
<polygon class="st0" points="46.8,25.3 47.1,25.3 47,25.2 "/>
<path class="st0" d="M52.5,13.2L52.5,13.2C52.6,13.2,52.6,13.2,52.5,13.2"/>
<path class="st0" d="M52.5,13.6L52.5,13.6L52.5,13.6"/>
<path class="st0" d="M47.8,19.1c-0.3-0.2-0.7-0.4-0.3-0.3l0.3,0.1C47.7,19,47.8,19.1,47.8,19.1"/>
<path class="st0" d="M50.3,16C50.4,16,50.4,16,50.3,16c0,0-0.1,0-0.2,0C50.2,16,50.3,16,50.3,16"/>
<path class="st0" d="M51.7,16.4l-0.2-0.2C51.5,16.3,51.6,16.3,51.7,16.4"/>
<path class="st0" d="M53.2,11.3l0.3,0.1C53.5,11.5,53.3,11.4,53.2,11.3"/>
<path class="st0" d="M47.4,22.5c-0.1-0.1-0.2-0.2-0.2-0.2C47.4,22.4,47.7,22.5,47.4,22.5"/>
<path class="st0" d="M49.1,12.2c0.1,0,0.1,0,0.2,0C49.2,12.2,49.2,12.2,49.1,12.2"/>
<path class="st0" d="M47.3,22.1L47.3,22.1c0,0.1,0,0.1,0,0.2C47.1,22.2,47.1,22.1,47.3,22.1"/>
<path class="st0" d="M54,3.9L54,3.9L54,3.9"/>
<path class="st0" d="M51.1,0.7L51.1,0.7C51,0.8,51,0.7,51.1,0.7"/>
<path class="st0" d="M47,24.1C47,24.2,47,24.1,47,24.1"/>
<path class="st0" d="M48.3,24.5c0,0,0.1,0,0.2,0C48.4,24.5,48.3,24.5,48.3,24.5"/>
<path class="st0" d="M49.4,22.2L49.4,22.2L49.4,22.2"/>
<path class="st0" d="M47.2,24.2C47.1,24.2,47.1,24.1,47.2,24.2C47.1,24.1,47.1,24.2,47.2,24.2"/>
<path class="st0" d="M47,24.2L47,24.2C47,24.2,46.9,24.2,47,24.2"/>
<path class="st0" d="M47,24L47,24C47,24.1,47,24.1,47,24C47,24.1,47,24.1,47,24"/>
<path class="st0" d="M52.6,7.5C52.6,7.5,52.5,7.5,52.6,7.5S52.6,7.5,52.6,7.5"/>
<path class="st0" d="M51.4,19L51.4,19C51.3,19,51.3,19,51.4,19L51.4,19z"/>
<path class="st0" d="M51.6,18.9c-0.4-0.1-0.4,0-0.3,0.1l-0.9-0.4L51.6,18.9z"/>
<path class="st0" d="M50.2,6.2L50.2,6.2C50.4,6.2,50.3,6.2,50.2,6.2 M47.5,23.7c-0.1,0-0.1,0-0.2,0C47.4,23.7,47.4,23.7,47.5,23.7
	C47.5,23.7,47.6,23.7,47.5,23.7 M47.4,23.5L47.4,23.5C47.2,23.4,47.3,23.4,47.4,23.5 M51,16.5c0.1,0,0.1,0-0.1-0.1
	C50.9,16.4,50.9,16.4,51,16.5 M52.2,14.1c0.1,0,0.3,0,0.1-0.1C51.9,13.9,52.1,14,52.2,14.1 M52.8,12.4l0.3,0.2
	c0.5,0,0.3-0.1,0.7,0.1c-1-0.3-0.2,0.4-1.2,0.1l0.2,0.2c0,0,0.1,0,0,0c0.5,0.3-0.7-0.1-0.6,0.1c0.1,0.1,0.2,0.2,0.3,0.2l-0.3,0.1
	c0,0.1,0.2,0.1,0.2,0l-0.1,0.2l0,0c-0.2,0-0.4,0-0.5,0c0.1,0.1,0.1,0,0.2,0.1h-0.3c0.3,0.1,0.5,0.1,0.5,0c1,0.5-0.3,0,0.3,0.5
	l0.1-0.1c0.6,0.3,0.3,0.3,0.7,0.6c-0.2-0.1-0.9-0.6-1.1-0.5c0.1,0.1,0.1,0.1-0.1,0.1c0.4,0.1,0.3,0.2,0.2,0.3l0.5,0.2
	c-0.2,0.1-0.4,0-0.6-0.1c0,0.1,0.4,0.3,0.7,0.4c0,0.2-0.6-0.3-0.7-0.1c0.2,0.2-0.1,0.2-0.4,0.3c0.1,0.2,0.3,0.1,0.4,0.2h-0.4
	c0,0,0.1,0.1,0.2,0.1c-0.2,0-0.5-0.2-0.6-0.1c-0.5-0.1,0.7,0.5,0.1,0.5c0.1,0.1,0.3,0.1,0.5,0.2c-0.4,0.1-0.3,0.1-0.9,0.1l0.3,0.3
	c-0.3-0.2-0.8-0.2-1.1-0.2c-0.2-0.1-0.3-0.2-0.4-0.2l-0.3,0.1c0.1,0.1,0.2,0.1,0.4,0.1h-0.1c0.2,0.1,0.4,0.2,0.7,0.2
	c-0.1-0.1-0.2-0.1-0.3-0.2c0.3,0.1,0.6,0.1,0.9,0.2c-0.1,0-0.1,0-0.1,0c0.1,0,0.2,0,0.2,0.1c0,0-0.1,0-0.2,0l0.5,0.2l-0.2-0.1
	l0.3,0.4c-0.6,0-1.4-0.1-1.6,0.1c0.4,0.1,0.6,0.2,1.1,0.4c-0.5-0.2,0.2-0.1,0.2-0.3c0,0.1,0.3,0.2,0.3,0.2l-0.5,0.1
	c0.4,0.1,0.3,0.2,0.4,0.3c-0.7-0.3-0.5,0-0.8,0.1c0.2,0.1,0.5,0.2,0.5,0c0.5,0.3-0.9-0.1-0.4,0.2c0,0,0-0.1,0.1,0
	c-0.2,0-0.1,0.2,0.1,0.3l0,0c0.1,0.2-0.1,0.6-0.7,0.5c0.1,0,0.8,0.2,0.9,0.3L49.1,19c0.5,0.2,1.8,0.7,2.1,0.7
	c0.1,0.1,0.1,0.2-0.1,0.2c-0.1-0.1-0.8-0.4-0.8-0.3c0.6,0.3,0.3,0.2,0.8,0.5c-0.1-0.1-1-0.3-0.9-0.2c0.1,0,0.8,0.3,0.9,0.3l-0.9-0.1
	c0.2,0,0.7,0.2,0.9,0.4c-0.2-0.1,0,0.2-0.1,0.2l-0.2-0.2c0.1,0.3-1.2-0.2-1.2,0.1c0.2,0,1.1,0.3,1.2,0.5c-0.4-0.1-2.1-0.5-2.4-0.4
	l0.2,0.1l-0.3,0.1c0.7,0.1,2,0.3,2.6,0.4c0.2,0.2,0.3,0.1,0.2,0.2c0.2,0.1,0.4,0.1,0.4,0l0.1,0.3c-0.5-0.2-0.5,0.1-0.9-0.1l0.6-0.1
	c-0.5-0.2-1.4-0.3-1.4-0.1c0.2,0.1,0.9,0.3,1.1,0.3c-0.2,0-0.4,0.1-0.2,0.1h0.3c0.2,0.2-0.7,0-0.2,0.3c0,0.1,0.6,0.4,0.3,0.3
	c-0.6-0.3-2.3-0.9-2.7-1c0,0,0.5,0.4,0.8,0.6c0.4,0.2,1.1,0.2,1.5,0.4c-0.1,0-0.3-0.1-0.4-0.1c0.1,0.1,0.4,0.1,0.3,0.2
	c-0.5-0.2,0,0.2-0.4-0.1c-0.2,0.1,0.1,0.1,0,0.3c-0.3-0.2-1.1-0.3-1.3-0.2c0.1,0,0.3,0.1,0.4,0.2c0,0.2,0.2,0.4,0.2,0.6
	c0.1,0.1,0.3,0.2,0.5,0.2c-0.1,0-0.3,0-0.3,0c0.4,0.2,0.1-0.1,0.6,0.1c-0.3-0.1-0.4,0-0.6,0.1c-0.5-0.1-0.1-0.2,0.1-0.3
	c-0.6-0.2-1.3-0.2-1.6,0c-0.2,0.1,0.4,0.2,0.3,0.2c0.1,0.4-1.1,0-0.7,0.4c0.4,0.2,0.8,0.2,1.1,0.3c0.2-0.1-0.2-0.3-0.2-0.4l0.2,0.2
	c0.1,0,0.3-0.1,0.1-0.2c0.4,0.2,0,0.6,0.3,0.9c-0.1,0-0.3,0.1-0.4,0l0.1-0.1c-0.3-0.1-0.5,0.1-0.6,0c-0.2,0.1-0.6,0.2-0.4,0.4
	l0.5,0.1c-0.1,0-0.3-0.1-0.1-0.2c-0.2,0,0.6,0.3,0,0.3l-0.3-0.2c-0.2,0.1-0.7,0.2-0.6,0.4c-0.5-0.1,0.1,0-0.5-0.2
	c0.7,0.2,0-0.4,0.7-0.2C47.2,25,47.5,25,47,24.7c0.2,0,0.3,0.1,0.2-0.1h0.1l0,0l0,0l0,0c0.1,0,0.1,0.1,0.2,0.1
	c0.4,0,0.4-0.2,0.5-0.3c-0.1-0.1-0.2,0-0.3-0.1l0.3-0.1c-0.3-0.1-0.5-0.3-0.8-0.2v-0.2c-0.2-0.1-0.2-0.3-0.1-0.3
	c-0.1-0.1,0.4-0.1,0.1-0.1l0.2-0.2h-0.1c0-0.3,0.6-0.4,0-0.8c0.1-0.1,0.2-0.1,0.1-0.3L47.1,22c0.1-0.1-0.2-0.4,0.1-0.4
	c-0.8-0.4-0.1-0.6-0.2-0.8l0.4,0.1c0-0.1,0.1-0.2,0.3-0.3l0.3,0.1c0.3,0-0.2-0.4-0.1-0.6c-0.1,0-0.1,0,0,0.1
	c-0.7-0.5,0.6-0.3,0.1-0.7c0.1,0,0.1-0.1,0-0.1l0,0l0,0c-0.1,0-0.1-0.1-0.2-0.1c0.1,0,0.1,0.1,0.2,0.1c0,0,0.1-0.1,0.2-0.1l-0.4-0.1
	l0,0c-0.1-0.1,0.2,0,0.4,0.1c0.1,0,0.1,0,0.2,0c-0.6-0.2,0.2-0.1-0.4-0.4c0.3,0.1,0.3-0.2,0.9,0c-0.1,0-0.1-0.1-0.1,0
	c-0.1-0.1-0.1-0.2,0.1-0.2l-0.4-0.2l0.6,0.1c-0.3-0.2-0.4-0.3-0.8-0.3c0.6,0,0.2-0.1,0.8-0.1l-0.3-0.1c0-0.1,0.4,0,0.2-0.1
	c-0.5-0.3,0-0.7-0.4-1.3c0.9,0.4-0.4-0.3,0.3-0.1c-0.2-0.1-0.3-0.2-0.5-0.2c0.2-0.1-0.3-0.4,0.3-0.3C48.5,16,48.4,16,48.3,16
	c0,0,0.2,0,0.1-0.1c-0.1-0.1-0.2,0-0.3,0c0.1-0.2,0.7,0,1.3,0.2c-0.3-0.2-0.2-0.2,0.2-0.2c-0.2-0.1-0.4-0.2-0.5-0.1
	c0-0.1-0.2-0.5,0.3-0.4c-0.1-0.1,0-0.1,0-0.1c0-0.2,0-0.2,0-0.3l0.1,0.1c0.6,0.1,0.1-0.1,0.2-0.2h-0.1c-0.4-0.4,0.2-0.1-0.2-0.5
	l0.4,0.1c0.8,0.2-0.4-0.4-0.1-0.4l0.2,0.1c0.3,0-1-0.6-1.1-0.7c-0.1,0-0.1,0-0.2,0c-0.4-0.4,0.5,0.1,0.6,0c-0.2-0.1-0.6-0.2-0.7-0.3
	c-0.2-0.1,0.9,0,0.4-0.4c0.2,0.1,0.4,0.2,0.5,0.2c0.1-0.1-0.7-0.6-0.1-0.5l-0.1-0.1c0.2,0,0.3-0.2,0.6-0.1c-1.2-0.5,0.7-0.4-0.4-0.8
	l0.1-0.3h-0.1c0-0.2,0.2-0.2,0.5-0.1C49.8,11,49.7,11,49.7,11c-0.2-0.3-0.1-0.4,0.5-0.4l-0.4-0.1c0.2,0-0.5-0.6-0.1-0.7
	c0,0-0.1,0-0.2,0c0.5-0.1-0.9-1,0.4-0.7L50.3,9c0.1,0.3,0.6,0.2,0.8,0.3c0.1-0.1-0.4-0.4-0.5-0.3h0.1C50,8.8,50.5,8.6,50,8.5
	C50.1,8,49.8,7.4,49.8,7l0.5,0.2V7c-0.1-0.1-0.4-0.2-0.4-0.1c-0.3-0.2,0.3-0.1,0.4-0.1c-0.2-0.3-0.6-0.1-0.6-0.2l0.1-0.1h0.1
	c0.2,0,0.5,0.1,0.5-0.1c-0.1-0.1-0.3-0.2-0.3-0.2s-0.1,0,0-0.1V5.9l0.4,0.2c0.2,0,0-0.2,0.5,0.1c-0.7-0.4-0.2-0.8-0.4-1
	c0.3,0,0.3-0.1,0.3-0.3C51,5,51.5,5.2,51.4,5c-1-0.3-0.4-0.4-1.1-0.7c0.5,0.3,0.2-0.3,0.8,0C51,4.2,50.7,4.2,50.5,4
	c0.4-0.1-0.2-0.7,0-0.9c0.1,0,0.3,0.2,0.5,0.2l-0.6-0.4c0.1,0,0.8,0.2,0.3-0.1C50.8,2.9,51,2.9,51,2.9c-0.5-0.8,0.7-1.1-0.4-2.2
	c0.2,0.2,0.3,0.1,0.3,0.1C51,0.9,51.2,0.9,51.4,1L51,0.6c0.5,0.1,0.1-0.3,0.6-0.1l-0.1,0.1c0.6,0.1,1.2,0.6,1.9,0.8
	c-0.6-0.1,0.9,0.7-0.1,0.6c0.1,0.1,0.2,0,0.4,0.1c-0.3-0.1-0.4,0-0.3,0.2h0.1c-0.1,0.3,0.2,0.6,0.3,1l-0.3-0.1
	c0,0.1,0.1,0.2,0.2,0.2c-0.5-0.1,0-0.2-0.6-0.4c0.7,0.4-0.1,0.6,0.7,0.9c0,0.1-0.4-0.2-0.4-0.1l0.2,0.1l-0.3-0.1
	c0,0.1,0.3,0.2,0.5,0.3c0,0,0.1,0,0.1-0.1c0.2,0.2-0.1,0.3-0.1,0.3l-0.1-0.2c-0.3,0.3,0,0.8-0.5,0.9L53,4.9c-0.3,0.1,0.2,0.3,0,0.5
	l0,0c-0.2,0-0.3,0-0.3,0.1c0.2,0,0.4,0.3,0.6,0.2c-0.4,0.2-0.3,0-0.9,0l0.3,0.1c-0.3,0-0.4-0.1-0.5,0c0.3,0,0.4,0.2,0.7,0.2
	c0.6,0.5-0.7,0.2,0.2,0.6c-0.8-0.1-0.4-0.4-0.6-0.4c-0.2-0.1-0.6-0.1-0.5,0c0,0.1,0.9,0.5,0.9,0.7H53c0.2,0.2-0.3,0.1,0,0.3
	c-0.5-0.1,0,0.1-0.6,0L52.6,7c-0.2,0.1-0.9-0.1-0.6,0.3c0.1,0,0.3,0,0.4,0c0.2,0.1-0.1,0.1,0,0.2C53,7.7,52.6,7.3,53,7.3
	c0.2,0.1-0.5,0.1,0.2,0.2c-0.8-0.2,0.1,0.3-0.6,0.2L53,7.8c-0.1,0-0.2,0-0.2,0l0.5,0.1c-0.4,0,0.3,0.4,0.1,0.4
	c0-0.2-0.4-0.2-0.7-0.4c-0.5,0.1,0.9,0.5,0.7,0.8c0.1,0-0.2-0.2-0.4-0.2c0.1,0.1,0.2,0.2,0.4,0.3C53.3,9,53,8.6,52.8,8.7
	c0.4,0.2-0.2,0.1-0.3,0.1l0.4,0.1c0.2,0.3-0.8-0.2-0.5,0.1l0.5,0.1l-0.1,0.1l0.4,0.1c-0.3,0-0.2,0.1-0.2,0.3
	c-0.2-0.1-0.7-0.2-0.7-0.1c0.2,0.2,0.3,0.1,0.3,0.2c0.2,0,0.5,0.1,0.2-0.1c0.1,0,0.2,0,0.3,0.1c0.2,0.2,0,0.2,0,0.3
	c0,0,0-0.1-0.1-0.1L52.5,10c0.1,0.1,0.2,0.1,0.3,0.1c0,0-0.2,0-0.3,0.1c0.3,0.1,0.6,0.2,0.7,0.1l-0.4,0.1c0.1,0.1,0.3,0.2,0.4,0.2
	c0.2,0.2-0.6,0.1-0.4,0.4c-0.1,0-0.1,0-0.2,0c0,0.2,0.4,0.4,0,0.5l0.5,0.3c-0.1,0.1-0.6-0.4-0.9-0.2c-0.2,0.1,0.4,0.2,0.6,0.3
	c-0.3,0-0.8,0-0.4,0.3C52.8,12.5,52.7,12.4,52.8,12.4"/>
<path class="st0" d="M51.5,16.4c-0.1,0-0.1-0.1-0.2-0.1C51.4,16.3,51.5,16.3,51.5,16.4"/>
<path class="st0" d="M53.1,11.3L53.1,11.3L53.1,11.3z"/>
<path class="st0" d="M50.9,22c0-0.1-0.1-0.1-0.2-0.1C50.8,21.9,50.9,22,50.9,22"/>
<path class="st0" d="M46.8,24.7L46.8,24.7c0.1,0,0.2,0,0.2,0C46.9,24.7,46.8,24.7,46.8,24.7"/>
<path class="st0" d="M49.1,25.8C49,25.8,49.1,25.9,49.1,25.8l-0.2,0.1C48.9,25.8,49,25.8,49.1,25.8"/>
<path class="st0" d="M48,24.9c0.3,0,0.2,0.1,0.1,0.2l0,0C47.7,25.1,47.9,25,48,24.9"/>
<path class="st0" d="M48.2,25.1C48.1,25.1,48.1,25.2,48.2,25.1C48,25.2,48.1,25.2,48.2,25.1"/>
<path class="st0" d="M47.3,23.9c0.1,0.1-0.4,0-0.3,0C46.6,23.9,47.5,23.7,47.3,23.9"/>
<polygon class="st0" points="48.7,25 49,25.1 49,25 "/>
<path class="st0" d="M48.8,24.4L48.8,24.4C48.8,24.5,48.8,24.5,48.8,24.4C48.7,24.5,48.7,24.4,48.8,24.4"/>
<path class="st0" d="M48.8,24.6C48.8,24.6,48.7,24.7,48.8,24.6C48.7,24.7,48.7,24.6,48.8,24.6"/>
<polygon class="st0" points="49.1,24.9 49.2,24.9 49.1,24.8 "/>
<path class="st0" d="M48.8,23.1L48.8,23.1c0.2-0.1,0.3,0,0.2,0C49,23.1,49,23.2,48.8,23.1"/>
<path class="st0" d="M49.8,23.8c-0.1-0.1-0.2-0.1-0.3-0.1l0.5,0.1H49.8z"/>
<path class="st0" d="M50,23.4c0.1,0,0.4-0.1,0.3,0.1C50.2,23.5,50.1,23.6,50,23.4"/>
<polygon class="st0" points="49.6,21.4 49.6,21.4 48.9,21.2 "/>
<path class="st0" d="M51.7,20.3c0.2,0.2-0.5-0.1-0.3,0.1c-0.2,0-0.2-0.2-0.3-0.2C51.3,20.2,51.2,20.1,51.7,20.3"/>
<path class="st0" d="M51.1,20.2L51.1,20.2L51.1,20.2"/>
<polygon class="st0" points="50.7,0.2 50.8,0.2 50.6,0.1 "/>
<path class="st0" d="M51.3,0.2L50.8,0L51.3,0.2C51.3,0.1,51.2,0.2,51.3,0.2"/>
<path class="st0" d="M53.2,14.7L53.2,14.7C53,14.6,53,14.6,53,14.6L53.2,14.7z"/>
<polygon class="st0" points="53,13.3 53,13.3 52.6,13.1 "/>
<path class="st0" d="M53.7,12.3c0,0.1-0.1,0.1-0.1,0.1C53.7,12.4,53.2,12.1,53.7,12.3"/>
</svg>
