<svg id="Layer_1" data-name="Layer 1" xmlns="http://www.w3.org/2000/svg" xmlns:xlink="http://www.w3.org/1999/xlink" viewBox="0 0 265.11 315"><defs><style>.cls-1{fill:none;}.cls-2{clip-path:url(#clip-path);}.cls-3{fill:#f7f5db;}</style><clipPath id="clip-path"><rect class="cls-1" width="265.11" height="315"/></clipPath></defs><title>flower-left-top</title><g class="cls-2"><path class="cls-3" d="M144.34,106.92l-1.28-.29a1.8,1.8,0,0,0,.1.9c0.6,0.63.77-.19,1.15-0.34,0-.09,0-0.18,0-0.27m-0.92-3.16a3.47,3.47,0,0,0,.31,1.25,1.07,1.07,0,0,0,1,.24c0.52-.24.38-0.66,0-1s-0.69-.51-1-0.77l-0.25.24m0.29,5.62-1.46-1.45a1,1,0,0,0-.21,1.67c0.55,0.66,1.08.23,1.67-.22M130.54,87.93a8.67,8.67,0,0,1,4.46,4l0.3-.2a9.32,9.32,0,0,0-1.14-2c-0.73-.78-1.68-1.34-2.49-2-0.46-.4-0.72-0.24-1.12.3m4.23,16.82c1.38-.58,1.69-3.34.44-4.77l-0.44,4.77m6.18,4.65c-1,.65-0.5,1.3-0.33,1.84a10.56,10.56,0,0,0,1,2.2c0.31,0.52.78,0.45,1.26,0l-1.91-4m0.29-14.12a0.86,0.86,0,0,0,.36-1.47c-0.67-.94-1.22-2-1.91-2.91a3,3,0,0,0-1-.58,3,3,0,0,0,.16,1.08c0.55,0.92,1.19,1.79,1.78,2.69,0.24,0.37.43,0.78,0.66,1.21m-2.46,4.11a1.94,1.94,0,0,0,.35-0.95c-0.64-1.65-1.37-3.26-2.07-4.89l-0.45.05a2.64,2.64,0,0,0-.12,1.08c0.58,1.58,1.24,3.14,1.87,4.7h0.42m-0.89,1c-0.34-1-.68-2-1.08-3.06a0.62,0.62,0,0,0-.53-0.29,0.64,0.64,0,0,0-.32.53c0.09,1,.25,2,0.36,3,0,0.3,0,.61,0,0.91a4.58,4.58,0,0,0,.25.8,1.92,1.92,0,0,0,.78-0.43,8.34,8.34,0,0,0,.54-1.5m-0.3-9.66a1.74,1.74,0,0,0-.06,2.19c0.68,1.08,1.45,2.11,2.23,3.12a2,2,0,0,0,.8.35,2.05,2.05,0,0,0-.07-0.82c-0.91-1.57-1.86-3.12-2.89-4.83m-7.41-5.17,2.73,2.13a28,28,0,0,0,2.92,2.1,1.88,1.88,0,0,0-.14-1c-1-.92-2.06-1.77-3.1-2.64a10.39,10.39,0,0,1-1-.81c-0.46-.49-0.88-0.57-1.42.16m8.16,23.57a10,10,0,0,0-.21,2.53c0.3,1.79.77,3.56,1.24,5.32a2.6,2.6,0,0,0,.82,1.1,0.82,0.82,0,0,0,.76,0,0.73,0.73,0,0,0,.08-0.7c-1.16-1.85-1.15-4-1.52-6a3.5,3.5,0,0,0-.83-2.25h-0.35m8.86,4.6c-1.26,1.19-.35,2.49-0.58,3.78l-0.42-1c-0.73.21-1,.8-0.76,1.84a11.08,11.08,0,0,0,2.22,5.15c0.27,0.32.39,0.93,1,.57s0-.8-0.12-1.16a24.43,24.43,0,0,1-1.25-3.22c0.32,0.38.63,0.78,1,1.12a0.59,0.59,0,0,0,.54.06,0.63,0.63,0,0,0,.08-0.5c-0.37-1.82-.73-3.65-1.14-5.46a6.37,6.37,0,0,0-.52-1.16M137,118.46a1.85,1.85,0,0,1-.56-0.32c-0.67-1.41-1.33-2.83-2-4.25-1-2.07-.43-4.31-0.65-6.46a25.84,25.84,0,0,1,.47-4.62c0.25-3,.94-5.92.46-8.92a5.33,5.33,0,0,0-2.1-3.77c-0.91-.62-1.89-1.13-2.8-1.75a13.18,13.18,0,0,0-5.25-1.68,15.35,15.35,0,0,0-2.73,0V86.34a8.71,8.71,0,0,0,1-.14c1.94-.49,3.86-1,5.82-1.48a4.52,4.52,0,0,1,2.31,0c1.71,0.59,3.36,1.35,5,2.1a12.21,12.21,0,0,1,5.1,4.15A37.68,37.68,0,0,1,146,101.16a15.06,15.06,0,0,1,.66,2c0.28,1.77.46,3.55,0.7,5.32,0.12,0.9.29,1.78,0.39,2.68a16.79,16.79,0,0,0,.33,3.15,23.9,23.9,0,0,0,3.71,7.28,22.48,22.48,0,0,0,6.3,6c0.62,0.37,1.18.85,1.77,1.28a16.4,16.4,0,0,1-2.33-.44c-2.49-.55-5-1.05-7.47-1.67a3.87,3.87,0,0,1-1.81-1,10.77,10.77,0,0,1-1.7-2.48c-0.63-1.26-1.11-2.6-1.72-4.06a2.49,2.49,0,0,0-.59,1,14,14,0,0,0,.6,2.71,19.53,19.53,0,0,0,1.1,2.27l-0.17.14a9.06,9.06,0,0,1-.9-0.94,13.81,13.81,0,0,1-.77-1.36l-0.66,1.07c-1.85-1.51-4.22-2.4-5.3-4.8,0.53-.25.74-0.57,0.23-1.06a0.9,0.9,0,0,1-.23-0.47c-0.37-2.06-.71-4.13-1.1-6.19a11.69,11.69,0,0,0-.52-1.57l-0.39.06c-0.68,1.3-.23,2.72-0.29,4.1L135,110.86c-0.73.25-.53,0.78-0.37,1.18,0.74,1.86,1.54,3.7,2.3,5.55a4.94,4.94,0,0,1,.14.87m6.6-34.22c0.6,0.57,1.65.34,2.41-.52-0.66-.72-1.13-0.63-2.41.52m24.24,6.53c-0.81-.25-1.52-0.49-2.25-0.66a0.81,0.81,0,0,0-.51.41,0.53,0.53,0,0,0,.08.47c0.39,0.5,2,.45,2.67-0.21m-16-5a2.07,2.07,0,0,0-2.87.34c0.62,0.81,1.58.71,2.87-.34m13.69,2.8a2.19,2.19,0,0,0-2.66-.81,1.91,1.91,0,0,0-.54.75,2.43,2.43,0,0,0,.83.42,7.38,7.38,0,0,0,1.47-.14c0.26,0,.52-0.12.9-0.22m3.09,4.81c0.63-.21,1.26-0.39,1.87-0.65A1.61,1.61,0,0,0,171,92.2a1.47,1.47,0,0,0-.62-0.34c-0.87.08-1.73,0.22-2.59,0.37a0.51,0.51,0,0,0-.32.35,1.13,1.13,0,0,0,.4.63,2,2,0,0,0,.78.09Zm-19.32-8.63a2.15,2.15,0,0,0-2.45-.43c-0.47.15-1.33,0-1.07,0.9s1,0.54,1.56.34,1.31-.54,2-0.81m5.4,2.57a3.08,3.08,0,0,0-3.26-.34,0.66,0.66,0,0,0-.22.54,1.47,1.47,0,0,0,.77.7,4.37,4.37,0,0,0,2.72-.9M175.28,93c-0.77-.83-1.66-0.24-2.41-0.17a27,27,0,0,0-4,.87,4.42,4.42,0,0,0-.93.49c0.46,0.87,1.21.66,1.86,0.5,1.66-.39,3.31-0.83,5-1.28a1.75,1.75,0,0,0,.5-0.42m-17.5-4.39a4.07,4.07,0,0,0-1.26-.32c-1.51.12-3,.31-4.51,0.52a2.06,2.06,0,0,0-.7.46,2.26,2.26,0,0,0,.86.75,13.13,13.13,0,0,0,5-.74,2.79,2.79,0,0,0,.58-0.36l0-.31m-7,2.92a4.87,4.87,0,0,0,1.33.48,25.1,25.1,0,0,0,8-1.31,0.75,0.75,0,0,0,.19-0.25,7.74,7.74,0,0,0-4.74,0c-1.55.38-3.27-.22-4.72,0.7,0,0.13,0,.27,0,0.4m22.85,4.66c1.1-.49,2.21-1,3.3-1.48a17.72,17.72,0,0,0,1.78-.92,1.5,1.5,0,0,0,.32-0.62,1.52,1.52,0,0,0-.67-0.15c-1.57.51-3.13,1.07-4.69,1.61-0.57.2-1.15,0.38-1.73,0.59-0.36.13-.71,0.3-1.07,0.45,0,0.13,0,.26,0,0.39a10.14,10.14,0,0,0,1.37.22,11,11,0,0,0,1.41-.13l-0.88.87c0.86,0.93,1.73-.11,2.59.13-1.62.63-3.26,1.17-4.92,1.65a4.09,4.09,0,0,1-1.17,0c-0.78,0-1.56-.06-2.34,0C165.47,98.86,164,99,162.6,99c1.72-.48,3.55-0.39,5.21-1.2-0.43-.87-1.07-0.49-1.59-0.45-2.21.16-4.41,0.39-6.62,0.56a7,7,0,0,1-1.35-.15c2.69-.36,5.36-0.5,7.92-1.47a1.38,1.38,0,0,0-.87-0.49c-2.48.07-5,.18-7.45,0.29-0.45,0-.91.23-1.35,0.21a12.63,12.63,0,0,1-1.72-.29l0.06-.18,8.94-1,0-.43a4,4,0,0,0-1.28-.43c-3.23.08-6.45,0.22-9.68,0.33a5.66,5.66,0,0,1-1-.12V94A35.15,35.15,0,0,0,162,92.68a1.63,1.63,0,0,0-.94-0.46c-1.08,0-2.15-.06-3.23,0a22.31,22.31,0,0,0-2.69.35c-1.08.19-2.14,0.45-3.21,0.68-0.58.13-1.14,0.42-1.68-.21a34.85,34.85,0,0,0-2.57-2.75c-1.83-1.72-3.65-3.45-5.6-5A6.93,6.93,0,0,0,138,83.43c-0.9,0-1.8-.21-2.71-0.3a33.26,33.26,0,0,0-5-.4,36.68,36.68,0,0,0-5.79.92,7.3,7.3,0,0,0-4,2.56,2.31,2.31,0,0,1-1,.74c-0.83.25-1.69,0.38-2.45,0.54-0.17-1.14-.34-2.24-0.49-3.34a2.1,2.1,0,0,1,0-.89,2.31,2.31,0,0,0-.12-2A1,1,0,0,1,117,80l0.54,6.69a0.4,0.4,0,0,0,.32-0.3,1.8,1.8,0,0,1,0-.44c0.91-2,.5-4.15.5-6.24a0.69,0.69,0,0,0-.1-0.33c-0.63-1.1-.5-1.58.66-2.19v7.74l0.54-.62a2.47,2.47,0,0,0,.34.92A2,2,0,0,0,121,84.9c0.78-.48,1.49-1.07,2.27-1.56a13.79,13.79,0,0,1,5.44-2.23c1.69-.24,3.39-0.36,5.08-0.52a16.58,16.58,0,0,1,2.2-.16c2.1,0.08,4.21.21,6.31,0.35a24.69,24.69,0,0,1,4.21.4c3.07,0.75,6.11,1.64,9.14,2.57,1.37,0.42,2.67,1.08,4,1.64,1.75,0.73,3.47,1.51,5.24,2.17,1.3,0.48,2.66.76,4,1.19a27.71,27.71,0,0,0,8,1.14c1.08,0,2.16-.1,3.24-0.08,0.86,0,1.69-.54,2.56-0.12a1,1,0,0,0,.31-0.13l3.32-.76A26,26,0,0,1,183,92.23a10.32,10.32,0,0,1-2.31,1.37,26.41,26.41,0,0,1-2.49,1l-4.59,1.63m-4.42-26.7c0.59,0.7,1,.64,1.3.22a1.25,1.25,0,0,0,0-.61l-1.32.39m-2.09-2.22a1.06,1.06,0,0,0,1.74,0,0.78,0.78,0,0,0,0-.64,1.43,1.43,0,0,0-1.77.67m-4.13-2.6c-1.51-.9-3.21-0.92-5.23-0.89a2.73,2.73,0,0,0,.68.72c0.66,0.22,1.34.36,2,.51a8.42,8.42,0,0,0,1.45.25,5.17,5.17,0,0,0,1.1-.18l0-.42m-1.69-2.29c-1.41-1-6.32-1.69-7.63-.84,0.9,0.32,1.83,1,2.68.88a14.54,14.54,0,0,1,4.16.36,1.89,1.89,0,0,0,.79-0.41m-4.05-6.83-2.65-.71c-1.85-.49-3.7-1-5.56-1.44a8.78,8.78,0,0,0-1.38-.12,4.12,4.12,0,0,0,1.06.82c2,0.65,4,1.26,6,1.83a8.13,8.13,0,0,0,1.91.26,1.71,1.71,0,0,0,.69-0.38l0-.27m-7.83,1.11c2.54,1.15,9.62,2.29,10.49,1.67-0.69-1-1.82-.78-2.77-1-2.11-.41-4.23-0.7-6.35-1a9.41,9.41,0,0,0-1.37,0c0,0.11,0,.22,0,0.33M148,52.93l0.21-.31a2,2,0,0,0-.37-0.57c-1-.75-2.07-1.5-3.13-2.2-1.41-.93-2.86-1.8-4.25-2.75a12.87,12.87,0,0,1-1.43-1.32l0.21-.23c1.14,0.63,2.3,1.21,3.41,1.88s2.25,1.49,3.4,2.19a2.23,2.23,0,0,0,.91.09l0.17-.44-7.83-5.71,0.1-.16,7.47,4.44c0.6-.38.62-0.77,0.1-1.15-1.08-.79-2.15-1.61-3.27-2.34-1.28-.84-2.61-1.59-3.9-2.4a3,3,0,0,1-.53-0.55,1.42,1.42,0,0,1,.93.15c1.72,1,3.42,2.12,5.15,3.15,0.9,0.54,1.82,1,2.76,1.48a1.6,1.6,0,0,0,.79-0.15,1.47,1.47,0,0,0-.25-0.67c-1.12-.79-2.24-1.58-3.41-2.3-1.79-1.09-3.63-2.11-5.43-3.2a2.83,2.83,0,0,1-.59-0.73l0.19-.17c1.75,1,3.49,2,5.25,2.9,1.94,1,3.89,2,5.85,3a9.4,9.4,0,0,1,2.07,1c1.83,1.65,3.57,3.39,5.34,5.11,0.29,0.29.51,0.64,0.8,0.93,0.85,0.89,1.77,1.72,2.57,2.66A30.76,30.76,0,0,1,165.42,62a1,1,0,0,1,.17.66c-0.33.75,0.2,0.88,0.68,1,0.65,0.12.74,0.33,0.39,0.89a0.88,0.88,0,0,0,.1.83,1.53,1.53,0,0,0,1.68-.37c0.2-.34.37-0.71-0.29-0.81a1.05,1.05,0,0,1-.72-0.46,10.71,10.71,0,0,1-.5-1.71c-0.2-.79-0.37-1.59-0.57-2.46L172,61.63c0,0.87,0,1.49,0,2.11s0.45,1.3.13,2a1.42,1.42,0,0,0,.18.7,0.68,0.68,0,0,1,.08.35,0.67,0.67,0,0,0,.11,1.1,0.52,0.52,0,0,1,.18.41c-0.15.79-.36,1.57-0.5,2.35-0.22,1.24-.56,1.62-1.44,1.31-1.16-.41-2.28-0.92-3.4-1.44-0.75-.35-1.42-0.89-2.18-1.18a12.29,12.29,0,0,1-4.56-2.95,1.26,1.26,0,0,0-.28-0.28c-1.71-.84-3.42-1.68-5.14-2.51-0.43-.21-0.9-0.36-1.42-0.56l0.54-.3c-0.93-.57-1.78-1.17-2.7-1.64-1.82-.92-4.07-0.85-5.6-2.45a1.18,1.18,0,0,0-.47-0.22l-3.13-1a4.63,4.63,0,0,1-1-.31,17.56,17.56,0,0,1-1.77-1.24A5.05,5.05,0,0,1,139,55a1.28,1.28,0,0,1,.35-0.12,1.39,1.39,0,0,1,.39.17A16.82,16.82,0,0,0,146,57.9c0.65,0.15,1.31.26,1.94,0.46,1.94,0.59,3.86,1.27,5.82,1.8a16.43,16.43,0,0,0,2.85.33c0.45,0,.92,0,1.37,0,0.64,0,1.41.62,1.86-.54a5.29,5.29,0,0,0-1.21-.46c-1.28-.17-2.59-0.15-3.85-0.4-2.44-.49-4.87-1.11-7.29-1.72a8.81,8.81,0,0,0-2-.71c-1.45,0-2.48-.77-3.62-1.38s-2-1.15-3-1.78a1.52,1.52,0,0,1-.1-0.77c1.85,1.39,9.19,4.8,10.07,4.48a2.16,2.16,0,0,0-.46-0.52c-2.15-1.17-4.32-2.3-6.46-3.47a26.7,26.7,0,0,1-2.79-1.74,2.31,2.31,0,0,1-.4-1c2.94,2,9.16,5.13,10.07,4.59a4.32,4.32,0,0,0-.92-0.67,49.24,49.24,0,0,1-6.13-3.77c-0.86-.69-1.78-1.3-2.64-2a2.3,2.3,0,0,1-.26-0.95c3.05,2.15,5.85,4.18,9.16,5.27M109,0h8.9l0,0.06c0.15,0.38.49,0.69,0.6,1.07A4.36,4.36,0,0,0,120.92,4c0.7,0.34,1.46.58,2.43,1-2.3.36-4.24,1.36-6.4,0.86,1.15-.34,2.5,0,3.65-1.18a6.23,6.23,0,0,0-1.48-.34c-1.47.07-2.93,0.28-4.4,0.31-0.59,0-1.37.07-1.62-.65l1.64-.82-0.07-.36a7,7,0,0,0-1.14-.28c-0.59,0-1.19,0-1.79,0a1.27,1.27,0,0,1-1.45-1,1,1,0,0,0-.4-0.55A2.17,2.17,0,0,1,109,0m10.86,0h9.81c0.14,0.41.29,0.81,0.44,1.21,0.42,1.07,1,2.09,1.47,3.2l-6.23-.83c0.19-.77,1-0.37,1.47-0.39a10.74,10.74,0,0,1,1.93.16c0.56,0.08,1.12.21,1.67,0.31-1.56-1.32-3.47-.88-5.33-1.08l1.23-.5c-1.2-1.31-2.79-.81-4.1-1.21a1.88,1.88,0,0,0-.89.25A1.84,1.84,0,0,1,119.89,0m35.31,39.23c-1-1.71-1.87-3.3-2.81-4.85a1.23,1.23,0,0,0-.9-0.6c-0.63.16-.3,0.67-0.19,1.08a9.3,9.3,0,0,0,3,4.26,1.84,1.84,0,0,0,.87.1m-0.89-4.86a2.64,2.64,0,0,0,0,1.05c0.57,1.17,1.21,2.3,1.83,3.43a5,5,0,0,0,.72,1.16,1.33,1.33,0,0,0,1,.42c0.56-.13.39-0.67,0.2-1q-1.26-2.26-2.62-4.47a3,3,0,0,0-.82-0.64l-0.32,0m-7.53-3.52c0.48,3.07,2.55,5.06,4.84,7.21a2,2,0,0,0,.13-0.89c-0.74-1-1.55-1.94-2.3-2.93a6.37,6.37,0,0,1-.54-1c-0.34-.67-0.66-1.34-1-2a0.68,0.68,0,0,0-1.12-.36M161,42.19c-2.61-.81-5-1.58-7.43-2.3-1.27-.38-2.51-0.61-3.45-1.81a46,46,0,0,1-5-7.24,1.79,1.79,0,0,0-.54-0.49,2.64,2.64,0,0,1-.74-0.55c-0.5-.86-0.92-1.77-1.38-2.66,0.74-.34.72-0.33,1,0.43s0.44,1.91,1.54,2.25a2.66,2.66,0,0,0,.63.05,2.22,2.22,0,0,0,0-.62c-0.3-.84-0.62-1.68-1-2.57a4,4,0,0,1,1.27-.19,28.44,28.44,0,0,1,4.37,1.14,42.45,42.45,0,0,1,12.36,7.27,31.7,31.7,0,0,1,3.53,4.35,0.92,0.92,0,0,0,.5.36,1.18,1.18,0,0,0,.55-0.6,1.45,1.45,0,0,0-.12-0.84,15,15,0,0,0-1.82-2.49c-1.26-1.93-3.2-3-4.83-4.44a23.59,23.59,0,0,0-2.62-2A17,17,0,0,0,155.45,28a2.22,2.22,0,0,0-1,.22l0.34-.54-2.4-1.21c1-1-.45-1.62-0.3-2.5,0.92-.18.66,0.72,0.76,1.1,0.15,0.53.34,0.76,0.83,0.59s0.88-.32.51-1a1.76,1.76,0,0,1,0-.69,2.68,2.68,0,0,0,3.27-.39,1.87,1.87,0,0,0-.19-1.17,6.85,6.85,0,0,0-.77-1.14,6.14,6.14,0,0,1,1.37.28,34.39,34.39,0,0,1,4.85,2.66,12.7,12.7,0,0,1,3.47,3.86,20.31,20.31,0,0,1,2.47,5.14c0.19,0.75.38,1.51,0.59,2.25a25.81,25.81,0,0,1,.8,2.82c0.25,1.61.36,3.24,0.56,5.08-0.61,0-1.15,0-1.69,0-1.54-.09-3.21.15-4.21-1.49a0.5,0.5,0,0,0-.49-0.1,0.77,0.77,0,0,0-.38.5,3.2,3.2,0,0,0,.32.94,5,5,0,0,1-1.57-.94,13,13,0,0,0-1.79-2.63,5.74,5.74,0,0,1-1-1.55,0.62,0.62,0,0,0-1-.23,1,1,0,0,0-.11.83,14.67,14.67,0,0,0,.74,1.66,0.88,0.88,0,0,0,.28.41c1-.15.84,0.79,1.25,1.39m5.13-31.7,0.33-.1A2.62,2.62,0,0,0,166,9.3c-1.28-1-2.62-2-4-3l0.35-.64a2.72,2.72,0,0,0-2.18-1.22c-1.12,0-2.24-.17-3.36-0.16-1.63,0-3.26,0-4.88.18-1.3.11-2.58,0.4-3.88,0.6-0.69.11-1.39,0.15-2.07,0.3a9.88,9.88,0,0,0-1.37.51A17.37,17.37,0,0,0,146.59,0h15.55l0.5,0.51a52.08,52.08,0,0,1,4.52,5.31,16.21,16.21,0,0,1,2.89,6c0.28,1.31-.13,1.87-1.49,1.88a2,2,0,0,0-1.12.11,3.64,3.64,0,0,1-2.14.62,6,6,0,0,0-1,.3c-1.09.37-2.17,0.78-3.28,1.11a10.07,10.07,0,0,0-4.37,2.09c-0.41.39-.63,0.28-0.84-0.18-0.92-2-1.83-4.06-2.77-6.08a1.63,1.63,0,0,0-.54-0.58c-1.92-1.36-3.84-2.71-5.83-4.11a17.46,17.46,0,0,1,2.18.8c2,1,3.95,2.15,5.93,3.2a2,2,0,0,0,.77.05l0.07-.33L150.2,6.89a1.37,1.37,0,0,1,.63,0c1.59,0.89,3.15,1.81,4.72,2.73,0.78,0.46,1.53.94,2.32,1.39a1.14,1.14,0,0,0,.53,0,1,1,0,0,0-.16-0.44C157.14,9.7,156,8.82,154.89,8c-0.88-.62-1.83-1.14-2.74-1.7l0.1-.23a11.22,11.22,0,0,1,2.46.78c1.91,1.12,3.73,2.38,5.59,3.58l1.94,1.25,0.24-.36a77.26,77.26,0,0,0-6.81-5.39,0.68,0.68,0,0,1,.44.12,31.28,31.28,0,0,1,8,5.12,1.23,1.23,0,0,0,.62,0A25.86,25.86,0,0,0,158.09,6c3.47,0,5.57,2.61,8.05,4.46M78.06,24.27l0.17-.07a4.45,4.45,0,0,1,0-1c0.19-.82.43-1.63,0.65-2.45s0.42-1.62.64-2.42c0.15-.56.16-1.43,0.51-1.6a2.79,2.79,0,0,0,1.18-1.47,16,16,0,0,1,3.55-4c2.11-1.91,4.76-2.28,7.3-3a1.2,1.2,0,0,1,.54.22c-1.71.79-1.49,6.82,0.23,8.06a0.5,0.5,0,0,0,.15-0.2c0-1.6-.1-3.2-0.13-4.79A0.83,0.83,0,0,1,93,10.9a1.11,1.11,0,0,0,.72-1.26C93.84,8.85,94,8.08,94.89,8c-1.54,3.08-1.25,6.33-.82,9.6a12.26,12.26,0,0,0-3.16.9,10.35,10.35,0,0,0-3.06,1.83c-0.52.37-.86,1-1.36,1.37-0.8.67-.76,1.45,0,1.87,0.78-.73,1.49-1.44,2.25-2.08a14.6,14.6,0,0,1,5.56-2.59,0.62,0.62,0,0,1,.9.63c0.13,1.22-.22,2.4.07,3.66a36.28,36.28,0,0,1,.54,5.39,1.76,1.76,0,0,1-.24.65,2.59,2.59,0,0,1-.39-0.58C95,28,94.77,27.31,94.54,26.55a2,2,0,0,0-.64.36c0.07,0.89.18,1.77,0.29,2.7-1,.12-2.08.31-3.13,0.36-1.26.06-2.53,0-3.8,0-0.8,0-1.6-.05-2.39-0.14-2-.21-3.94-0.48-5.92-0.69-0.63-.06-1.62-1.06-1.42-1.59a6.18,6.18,0,0,0,.1-3.9l0.42,0.62M133.67,61h0l0.14-.2,1.4,1.08c-0.92.27-1.18-.37-1.54-0.88m-12.81-9.66h0l-0.18.44a4.35,4.35,0,0,1-1.06-.19,1.8,1.8,0,0,1-.68-0.63,2.74,2.74,0,0,1-.25-0.74,1.72,1.72,0,0,1,.85,0,12.09,12.09,0,0,1,1.33,1.14m10.76,3.13h0c0.57,0.59,1,1.15,1.59,1.65s1.13,0.9,1.76,1.4l-0.53.59c-0.57-.22-0.72-0.71-1.28-0.86a3.22,3.22,0,0,1-1.43-1.41c-0.23-.34-0.8-0.83-0.11-1.37m3.62,5.6h0c-0.86.84-3.31-.85-3.74-2.69,1.38,0.69,2.43,1.87,3.74,2.69m-3.59-8.42h0.26c0.57,0.67,1.11,1.36,1.72,2s1.24,1.14,1.84,1.73a1.4,1.4,0,0,1,.18.57,1.6,1.6,0,0,1-.51,0,7.36,7.36,0,0,1-3.47-3.58,1.6,1.6,0,0,1,0-.67m1.22-1.91h0c0.67,0,2.13,1.65,3.78,4.1-0.5.59-.87,0.12-1.24-0.16-1.33-1-1.78-2.53-2.54-3.95m-4.74-5.18c-0.46,1-.38,1.31.5,1.89a4.35,4.35,0,0,1,.85.62,2.44,2.44,0,0,1,.32.73,3.15,3.15,0,0,1-1.06.21,2.72,2.72,0,0,1-.87-0.52l-0.26.14a5.54,5.54,0,0,0,.52,1.42,6.12,6.12,0,0,0,1.19,1l0,0.3-1.71.21c0.23,0.39.45,0.8,0.71,1.18,0.11,0.17.33,0.28,0.43,0.45a1.11,1.11,0,0,1,.26.71,2.66,2.66,0,0,1-.94.48c0.26,0.69.56,1.56,0.92,2.41s0.78,1.73,1.16,2.61a1,1,0,0,1-.06.45,1.9,1.9,0,0,1-.45-0.08,5.51,5.51,0,0,1-2.31-2.51,8.68,8.68,0,0,1-.81-2,12.72,12.72,0,0,1-.52-2.46c-0.09-1,0-2.09,0-3.14a1.06,1.06,0,0,0-.39-0.55c-0.88-.82-1.74-1.66-2.67-2.43a1.25,1.25,0,0,0-1,0l3.67,3.38a0.89,0.89,0,0,1-1.53.11,18.34,18.34,0,0,0-1.63-1.67,2.5,2.5,0,0,0-1.11-.18l-0.1.29,2.82,2.66a0.81,0.81,0,0,1-1.38,0c-0.39-.42-0.75-0.87-1.16-1.28a1,1,0,0,0-.56-0.2,0.35,0.35,0,0,0-.22.24,1.41,1.41,0,0,0,.27.41l0.81,1c-1.72.18-1.87,0.05-1.88-1L119,48.64l0.82-.67L120,48.18a1.06,1.06,0,0,0-.62-1.38l-0.23-.12c-0.47-.3-1.14-0.58-0.77-1.25s0.81,0.06,1.22.14a2.33,2.33,0,0,1,.55.27c0.41-1.14.32-1.33-.82-1.84-0.71-.32-1.41-0.67-2.29-1.1,0.1,1.14-.32,2.12.35,3a0.56,0.56,0,0,1,.15.4c-0.56,1.4.32,2.69,0.32,4.05a5.44,5.44,0,0,0,.27,1.63,7.37,7.37,0,0,0,.83,1.95,30.41,30.41,0,0,0,9.49,8.59,10.84,10.84,0,0,0,4.85,1.62,2.9,2.9,0,0,1,1.23.42,5.58,5.58,0,0,0,3.35.79A4.69,4.69,0,0,0,139,65l-0.3-.18c-0.32-2.26-.55-4.53-1-6.77a22.74,22.74,0,0,1-.62-6.76c-0.83.68-1.22,0.11-1.63-.57-0.58-1-1.23-1.91-1.85-2.86l0.13-.27a1.84,1.84,0,0,1,.81.28c0.78,0.94,1.5,1.93,2.26,2.93,0.89-2.59-1-4.27-2.14-6.26,0.8-.45.95,0.37,1.3,0.64a7.89,7.89,0,0,1,1.07,1.2,2.08,2.08,0,0,0-.59-2.74,1.84,1.84,0,0,1-.44-0.45,4.77,4.77,0,0,1-.29-0.7,1.76,1.76,0,0,1,.69.24,5.67,5.67,0,0,1,.62,1c0.81-1.34.58-2.37-.34-3.07a31,31,0,0,0-2.54-1.89L135,39.79c-0.66.89-.79,0.91-1.65,0.24a0.94,0.94,0,0,0-.51-0.3,3.86,3.86,0,0,0-.85.44,2.39,2.39,0,0,0,.4.48c0.38,0.27.78,0.49,1.25,0.78-0.59.57-1,.92-1.79,0.42-0.58-.35-1.19-1.22-2.1-0.57a1.15,1.15,0,0,0-.14.26l3.08,1.73a1.56,1.56,0,0,1-2.46.25c-0.53-.39-1.08-0.75-1.66-1.15a0.92,0.92,0,0,0,.45,1.37c0.81,0.59,1.53,1.3,2.33,2-0.93.6-1.88,0.21-3.25-1.21m52-21.4-1.83-1.79-0.11.1,1.72,1.9,0.22-.2m-10.9,6.74a13.59,13.59,0,0,0,1.6-.45,1.54,1.54,0,0,0,.43-0.6,2.4,2.4,0,0,0-.86-0.33,18,18,0,0,0-1.91.27l-0.06-.26a3.52,3.52,0,0,1,2.42-.8,21.48,21.48,0,0,1,3.28.49c2,0.31,4.05.54,6.06,0.93a5.08,5.08,0,0,1,1.53,1l-0.14.18-2-.45-0.1.32c0.6,0.3,1.18.63,1.79,0.89,0.79,0.34,1.65.55,2.41,1a21.07,21.07,0,0,1,1.71,1.28,1.91,1.91,0,0,0,.76.12,3,3,0,0,0-.21-0.77c-1.55-2.58-4.16-4.08-6.27-6.09a11.49,11.49,0,0,0-2.09-1.39,17.3,17.3,0,0,0-2.48-1.36c-1.69-.66-3.4-1.27-5.14-1.76a21.45,21.45,0,0,0-3.11-.4,4.94,4.94,0,0,1-1.38-.23c-1.73-.77-3.42-1.63-5.15-2.41a11.58,11.58,0,0,0-1.84-.47A3.86,3.86,0,0,1,159,18.2c1.12-.51,2.16.19,3.09,0.48a43.45,43.45,0,0,1,6,2.67c0.57,0.27.85,0.18,1.16-.61l-6.67-3.43a2,2,0,0,1,.44,0c2,0.55,4.09,1.11,6.15,1.64a4.1,4.1,0,0,0,1.07-.07c-1.52-1.92-3.67-1.86-5.41-2.68,5,0,8.93,2.6,12.91,5.18L178,21c-3-1.92-5.54-4.71-9.23-5.83l3,0.52,0.08-.28-0.8-.76,0.13-.24a29.92,29.92,0,0,1,4.25,2.81,30.56,30.56,0,0,1,4,3.34,46.8,46.8,0,0,1,3.24,4.15l0.35-.13a1.76,1.76,0,0,0-.11-0.76,20.6,20.6,0,0,0-2.1-2.62c-1.46-1.41-3-2.76-4.56-4-1.24-1-2.57-1.92-3.9-2.82-0.68-.47-0.72-0.86,0-1.4,1.52,1.1,3,2.22,4.55,3.29a29.88,29.88,0,0,1,3.18,2.09,33.55,33.55,0,0,1,5.88,7,24.46,24.46,0,0,1,3.61,9.58,1.18,1.18,0,0,1-1.25,1.42A22.56,22.56,0,0,1,181,35.07a10.07,10.07,0,0,0-5.88,0c-1.18.39-2.42,0.62-3.64,0.92l-2.18-6.1M121.6,176.21a1.64,1.64,0,0,0-.17-1.81,0.41,0.41,0,0,0-.37-0.1,0.45,0.45,0,0,0-.28.3c0.12,0.56.27,1.12,0.42,1.68l0.4-.06m0.87-3.55a3.09,3.09,0,0,0-.88-2.8,0.73,0.73,0,0,0-.76.76c0.39,0.76.51,1.79,1.64,2m0.57-2.83c-0.53-1.06-1.05-2.13-1.62-3.17a1.32,1.32,0,0,0-.62-0.26,1.54,1.54,0,0,0-.19.75,6.23,6.23,0,0,0,2.09,2.84l0.34-.15m1.39-8.61c0.74,0.29,1.3.55,1.88,0.72,2.14,0.63,3.09,2.44,3.65,4.24s-0.13,3.51-.84,5.11a25.84,25.84,0,0,1-2.26,3.57,14,14,0,0,1-7.18,5.83c-0.38.13-.74,0.38-1-0.37a27.25,27.25,0,0,0-1.4-3.55c-0.76-1.72-1.56-3.42-2.34-5.12a16.83,16.83,0,0,1-1.18-2.6,37.14,37.14,0,0,1-1.47-5.07c-0.2-1.68-.1-3.13,1.29-4.33,0.82-.71,1.45-1.64,2.27-2.36a1.9,1.9,0,0,1,1.4-.42,6.26,6.26,0,0,1,3.56,2.36c1.44,1.62,1.62,3.48,1.67,5.56l-1.19-.6a16.5,16.5,0,0,0,.75,1.87c0.61,1.08,1.28,2.12,1.94,3.16a0.31,0.31,0,1,0,.57-0.25c-0.07-.31-0.27-0.59-0.33-0.9a1.07,1.07,0,0,1,0-.79c0.92-.74.4-1.76,0.47-2.62a17.33,17.33,0,0,0-.37-3.43m33.7,0.23c-1.18,0-1.85,1.16-2.89,1.52a1.39,1.39,0,0,0-.12.63l0.22,0.13,3-2-0.17-.27m-4.66,2a17.3,17.3,0,0,0,3.51-3.21c-3.23,1.8-4,2.54-3.51,3.21m-1.63-.9,3.34-3-0.27-.35-2.42,1.73c-0.22.16-.41,0.37-0.64,0.52-0.58.38-.6,0.48,0,1.11m1.84-5.09c-1.7,1.44-3.4,2.87-5.09,4.32-0.39.33-.64,0.72,0.07,1.11a36,36,0,0,0,5.38-5.07l-0.35-.36m-5.57,11.45a1.78,1.78,0,0,0,.16-0.62c-0.32-1.89-.69-3.78-1-5.67a1.46,1.46,0,0,1,.22-1.12c1.35-1.27,2.78-2.46,4.15-3.7a4.64,4.64,0,0,0,.61-0.87l-0.21-.23c-2,1-3.63,2.75-5.73,3.76a2,2,0,0,1,.58-1.11c1.11-1,2.25-2,3.38-3l-0.08-.29a2,2,0,0,0-.92,0c-1,.61-1.93,1.3-2.9,1.93a5,5,0,0,1-.87.36l-0.11-.19,2.83-2.69c-1.73-.77-2.42,1-3.63,1.26l-0.14-.21,2.32-2.18a1.76,1.76,0,0,0-.7-0.39c-0.87.44-1.69,0.95-2.55,1.44-0.36-.65.46-0.7,0.65-1.08s0.26-.58.38-0.86a3.57,3.57,0,0,0-1.09-.1,5.54,5.54,0,0,0-1.16.55l-0.1-.17,0.87-1.31a5.07,5.07,0,0,0-1.1,0,1.22,1.22,0,0,1-1.71-1.12l-3.64-1.54c1.85-1.39,3.38-2.71,3.89-5.07a37.28,37.28,0,0,1,5.69,1.5,17.39,17.39,0,0,1,5.14,3.22,80.23,80.23,0,0,1,5.83,6.83c0.68,0.82,1.26,1.72,1.9,2.58a4.8,4.8,0,0,1,.63.74,13.84,13.84,0,0,1,1.64,4.93c0.06,1.12-.05,1.41-0.9,1.52-2.15.27-4.31,0.48-6.41,0.93a13.36,13.36,0,0,0-5.29,1.86,1.37,1.37,0,0,1-.63,0M123.91,32.22c0.49,0.36,1,.75,1.47,1.06,1,0.58,1,.92.11,1.57-0.43.31-.82,0.67-1.23,1s-0.73.83-.26,1.26a1.18,1.18,0,0,0,1.15-.06,42.29,42.29,0,0,0,3.18-3.14,14.1,14.1,0,0,0,.7-1.46,3.82,3.82,0,0,0,.45-3.21,26.92,26.92,0,0,0-1.06-3.42c-0.3-1-.53-2-0.9-2.9a1.09,1.09,0,0,1,1-1.68c0.49,0,1,.1,1.48.15,0.66,0.07.94,0.32,0.59,1a1,1,0,0,0,0,.7,16.74,16.74,0,0,0,3.71,5.47,5.08,5.08,0,0,1,1.39,3.66,7.13,7.13,0,0,1-2,4.5,14.1,14.1,0,0,1-3.83,2.82c-2,1.09-3.94,2.36-5.93,3.52a21.64,21.64,0,0,1-2,.93c-0.23-.58-0.42-1-0.55-1.44a3.48,3.48,0,0,0-1.13-2.12A10.63,10.63,0,0,1,117,36c-0.64-1.27-.1-2.78-0.84-4a0.54,0.54,0,0,1,.14-0.29,4.22,4.22,0,0,0,.69-1.06c0.46-1.74.85-3.49,1.27-5.27a13.1,13.1,0,0,1,1.87,0,29.3,29.3,0,0,1,5.69,1.54,1.8,1.8,0,0,1,1.47,2,0.59,0.59,0,0,1-.25-0.06,10.64,10.64,0,0,0-4.71-2.36,1.2,1.2,0,0,0-1.53.5c2.51,0.79,5,1.63,6.91,3.51l-0.25.91c-1.3-.36-2.29-1.55-3.69-1.53l-0.14.31,3.59,2.3-0.53.81c-1.07-1.49-2.07-1.89-2.77-1.07M58.75,124.11L56,126.38c1.15-.59,2.06-1.13,3-1.53s1.92-1.09,3.05-.21l-3.74,1.82,0.09,0.28c0.35-.06.7-0.1,1-0.19,0.9-.23,1.78-0.53,2.69-0.69a3.34,3.34,0,0,1,1.22.41l-1.93.83,0.12,0.17c0.57,0.13,1.13.29,1.7,0.37a0.63,0.63,0,0,0,.54-0.26c0.19-.58.17-0.6,0.59-0.22l3.8,3.5a5.51,5.51,0,0,0-1.1-3.65,14,14,0,0,0-7.25-5,18,18,0,0,0-5.56-.72,3,3,0,0,0-2,.77c-1.47,1.21-2.95,2.42-4.4,3.67-0.6.52-1.13,1.14-1.71,1.7a1.93,1.93,0,0,1-.8.48,26.42,26.42,0,0,1,5.88-6.25c-1.65-.28-2.62.65-3.5,1.58-2,2.12-3.91,4.3-5.84,6.47-0.61.69-1.17,1.43-1.79,2.12a1.94,1.94,0,0,1-.69.3l-0.25-.36c1.23-1.54,2.43-3.11,3.69-4.63s2.58-3,3.87-4.48l0.4,0.32a1,1,0,0,0-.31-0.22,10.49,10.49,0,0,0-2,1.31c-1.46,1.47-2.76,3.09-4.24,4.53a23.29,23.29,0,0,1-5.4,4.16,1,1,0,0,1-.76,0l7.49-6.7a1.57,1.57,0,0,0-.67-0.1,14.15,14.15,0,0,0-2.67,1.88,27.21,27.21,0,0,1-6.44,4.87,23.75,23.75,0,0,1-3.16,1.4,1.12,1.12,0,0,1-.8-0.41c2.86-1.34,5.75-2.56,8.07-4.81-1.95.2-3.38,1.3-4.93,2.18a9.56,9.56,0,0,1-5.11,1.65,3.89,3.89,0,0,1-1.51-.41l6-1.73-0.06-.31-1.07.08a1.83,1.83,0,0,1-.61.05c-1.69-.52-3.19.53-4.8,0.58-0.44,0-.88,0-1.43,0,0.54-1.18,1.65-.4,2.29-1.14a18.5,18.5,0,0,1-7.28-3.58l-0.21.22a20.48,20.48,0,0,0,1.46,2.3,46.11,46.11,0,0,0,3.37,3.7A12,12,0,0,0,24.73,134c2.16,1.3,4.65,1.71,7,2.4a8.69,8.69,0,0,0,6.51-.59c1.51-.78,3-1.58,4.49-2.4,1.27-.7,2.51-1.46,3.79-2.14s2.74-1.38,4.14-2S53,127,54.35,126.14c1.14-.75,2.26-1.54,3.41-2.27a2.48,2.48,0,0,1,.88-0.15l0.11,0.39M68.95,0h1.82l-0.3.2C69.68,0.73,69.25,2,68,1.63a2.45,2.45,0,0,1-.71-0.53A6.39,6.39,0,0,1,68.07.34c0.19-.13.53-0.07,0.71-0.21Zm-2.7,0L66,0.53C66.21,0.35,66.42.19,66.6,0H66.24Zm80.82,19a2.78,2.78,0,0,0-2.3.8,0.36,0.36,0,0,0,0,.3,0.28,0.28,0,0,0,.27.06c0.67-.38,1.33-0.77,2-1.16m-0.45-1.52c-2.89-3.15-6.24-3.12-10-2.32,0.64-1,1.13-1.86,1.66-2.67A11.22,11.22,0,0,1,139.46,11a3.77,3.77,0,0,1,1.3-1.06,8.79,8.79,0,0,1,4.44-.2,7.85,7.85,0,0,1,4,1.55c0.42,0.36.92,0.63,1.32,1a10.33,10.33,0,0,1,2.14,2.25,26,26,0,0,1,1.5,4c0.49,1.44.95,2.88,1.39,4.26-0.62-.14-1.19-0.31-1.77-0.38s-0.9,0-1.35,0a4.58,4.58,0,0,0-2.77.33,1.29,1.29,0,0,1-.35,0,12.14,12.14,0,0,0-2.22.42c-1,.37-1.84,1-2.79,1.36s-2,.7-3.05,1c-0.66.2-1.34,0.35-2,.52-0.31.1-.58,0.47-0.92,0.55a8.5,8.5,0,0,1-1.78.11,2.27,2.27,0,0,1-1-.07,5.27,5.27,0,0,1-3-4.37,0.59,0.59,0,0,1,.14-0.47c0.73-.17.81-0.59,0.59-1.23a0.76,0.76,0,0,1,.31-0.58c1.38-1.08,2.75-2.17,4.2-3.16a7.23,7.23,0,0,1,1.9-.63l0.09,0.26-0.36.2a13.92,13.92,0,0,0-5.8,5.79,2.25,2.25,0,0,0-.09.7c0.76-.64,1.21-1.41,1.87-1.92,1.93-1.5,3.93-2.93,5.94-4.33a4.05,4.05,0,0,1,1.43-.33l0.07,0.24-0.55.37c-1.29.83-2.6,1.65-3.88,2.5a1.71,1.71,0,0,0-.73,1.67c2.11-1.31,4.2-2.63,6.32-3.91a2.94,2.94,0,0,1,.94-0.19,5.26,5.26,0,0,1-1.3.9c-1,.6-2,1.2-2.92,1.88a2.36,2.36,0,0,0-.32,1.06l6.21-3.69M105.53,163.27a2.84,2.84,0,0,1-.06.59c-0.39,1.21-.82,2.42-1.16,3.64a2,2,0,0,0,.32.92,1.82,1.82,0,0,0,.72-0.52c0.47-1.3.84-2.64,1.3-3.94a3.4,3.4,0,0,1,.65-0.84l0.23,0.15c-0.18.63-.4,1.25-0.52,1.9-0.22,1.1-.37,2.22-0.56,3.33a0.75,0.75,0,0,1-.18.46c-0.9.58-1.79,1.19-2.74,1.69-1.6.84-3.32,1.5-4.85,2.44-1.31.8-1.34,1.85-.41,2.68,0.46-.35.89-0.71,1.36-1,1.06-.66,2.13-1.33,3.23-1.93,1.62-.87,3.3-1.66,4.92-2.54a11.11,11.11,0,0,0,1.52-1.22,1.38,1.38,0,0,1,0,.37c-0.72,2.17-1.43,4.33-2.18,6.49a1.11,1.11,0,0,1-.54.62c-1.32.51-2.64,1-4,1.44-2.95.93-5.95,1.71-8.64,3.3-0.77.46-1.49,1-2.24,1.49s-1,.26-1-0.52a28.22,28.22,0,0,1,1.1-8c0.49-1.89,1.22-3.71,1.83-5.57a10.5,10.5,0,0,1,.38-1.22c0.22-.45.54-0.84,0.79-1.28a15.9,15.9,0,0,1,1.27-2.3c0.68-.84,1.67-0.74,2.64-0.48a2.17,2.17,0,0,0-.06.92,0.82,0.82,0,0,0,.68.39,1.56,1.56,0,0,0,.81-0.8,1,1,0,0,1,1.28-.91,3.24,3.24,0,0,1-.06.8c-0.22.63-.51,1.22-0.72,1.85a0.94,0.94,0,0,0,.05.73,0.64,0.64,0,0,0,.62.11,2.8,2.8,0,0,0,.81-1,20.14,20.14,0,0,0,.52-2.28c0.51,0,.67.17,0.47,0.75a23.93,23.93,0,0,0-.78,2.67,1.85,1.85,0,0,0,.3.82,1.87,1.87,0,0,0,.87-0.42c0.5-1.16.91-2.37,1.38-3.65l0.65-.12m-48.65-99c0.67-.37,1.28-0.72,1.91-1.06a3.58,3.58,0,0,1,3.13-.31,12.82,12.82,0,0,1,5.33,4.49,9.39,9.39,0,0,1,2.22,5.82,38.32,38.32,0,0,0,.4,4.36c-0.71-.15-1.3-0.32-1.9-0.39-1.05-.12-2.12-0.16-3.17-0.27-1.31-.13-2.63-0.24-3.92-0.47a44.41,44.41,0,0,1-4.57-1,9.64,9.64,0,0,1-2.64-1.21,10,10,0,0,1-1.6-1.71,1.6,1.6,0,0,0-.42-0.44c-1.71-.74-1.3-2.43-1.68-3.76a1.16,1.16,0,0,1,.63-0.49c0.71,0.47,1.24,0,1.74-.31a8.15,8.15,0,0,0,1.79-1.43c0.77-.85,1.56-0.5,2.31-0.14a18,18,0,0,1,4.27,3.5,10.37,10.37,0,0,0,1.93,1.31,1.33,1.33,0,0,0,.67-0.1,1.08,1.08,0,0,0-.2-0.53,2.69,2.69,0,0,1-1.51-1.88,0.81,0.81,0,0,0-.31-0.31l-4.42-3.65M103.43,0h4a9.54,9.54,0,0,0,1.27,2.24c0.9,1.18,1.77,2.47,3.34,2.94a2.11,2.11,0,0,1,.61.65l-0.72.35c-1.7.81-3.39,1.63-5.11,2.42a1.27,1.27,0,0,1-1.57-.33,20.76,20.76,0,0,0,5.28-2.49,3.27,3.27,0,0,0-1.57,0c-1.38.47-2.71,1.05-4.08,1.55a0.83,0.83,0,0,1-1.24-.93l3-1.09c-1.43-.89-2.55.18-3.78,0,0-.77,0-1.51,0-2.25A4.91,4.91,0,0,1,102.93,2c0.16-.65.33-1.3,0.5-2M96.78,0h4.49c-0.15.61-.24,1.26-0.33,1.88a10.37,10.37,0,0,0-.13,3c0.16,1,1.08,1.79,1.23,2.88a1.16,1.16,0,0,0,.36.38c0.55,0.6,1.35,1,1.4,2a1,1,0,0,0,.7.36c0.53,0.08,1.08.08,1.74,0.11l-2,1.37a2.23,2.23,0,0,0,.85.29,11.87,11.87,0,0,0,2.56-.81,2.49,2.49,0,0,1,2.37.2l-2.45,1.57c0.2,0.66.68,0.43,1.06,0.28,0.93-.37,1.84-0.82,2.77-1.2a3.22,3.22,0,0,1,.86-0.1,0.52,0.52,0,0,1-.24.42,7.65,7.65,0,0,0-2.41,1.31c-1.15,1.4-2.62,1.17-4.08,1.22a5.76,5.76,0,0,1-2-.62,7.42,7.42,0,0,1-3-2.13c-0.69-.73-0.92-1.87-1.57-2.66C98,8.62,98.28,6.92,97,6a0.77,0.77,0,0,1,0-.32,14,14,0,0,0-.2-3.42A4,4,0,0,1,96.78,0M95.1,36.32l0.15,0a14.11,14.11,0,0,0,1.11,2.9,26.68,26.68,0,0,0,3,3.76c0.65,0.69.61,1.18,0,2l-3-3.83-0.3.25a4.5,4.5,0,0,0,.39,1.37,23,23,0,0,0,2.26,2.74A1.26,1.26,0,0,1,99,47.34c-0.44-.29-0.6-1.12-1.4-0.8a2.67,2.67,0,0,0,.28,1.2A3.54,3.54,0,0,1,99.14,50a2.7,2.7,0,0,0,.57.86,1.77,1.77,0,0,0,.25-0.38c0.44-1.59.85-3.2,1.32-4.78a1.21,1.21,0,0,1,.61-0.67c0.49-.22.62-0.48,0.22-0.85a0.8,0.8,0,0,1-.06-1.23l2,0.48c-0.39-.72-0.77-1.37-1.09-2a2.1,2.1,0,0,1-.05-0.75,3.1,3.1,0,0,1,.69.51,7.55,7.55,0,0,1,.58,1l0.27-.1-0.6-3h-0.27l1.13-1.57c-0.4,1.14.14,2.07,0.51,3a2.58,2.58,0,0,0,.6.66,1.9,1.9,0,0,0,.43-0.77,12.55,12.55,0,0,0-.26-1.73l1.15,1.71a4.68,4.68,0,0,0-.71-4.11l-0.92.8c0.37-1.27,1.39-1.08,2.21-1.17a14.64,14.64,0,0,0,.2,2.28,2.71,2.71,0,0,0,.81.9,3,3,0,0,0,.55-1,5.92,5.92,0,0,0-.29-1.54c-0.15-.67.07-1,0.75-1a4.38,4.38,0,0,0,.23,2.8,2.06,2.06,0,0,0,.91.55,2.16,2.16,0,0,0,.37-0.86c-0.06-.81-0.23-1.62-0.37-2.42-0.1-.62,0-0.7.58-0.73a23.61,23.61,0,0,1,.84,2.56c0.17,0.79,1.23,1.24.8,2.24a2,2,0,0,0,.47.54,1.81,1.81,0,0,0,.23-0.65c-0.23-1.44-.44-2.88-0.78-4.3-0.21-.84-0.28-1.24,0-1.47,0.65,1.4,1.31,2.82,2,4.24,0.26,0.58.62,1.17,0,1.76s-1.06,1-1.55,1.49c-0.64.7-1.68,0.9-2.11,1.87a3.27,3.27,0,0,1-.91.93c-0.8.7-1.63,1.38-2.42,2.1a9.12,9.12,0,0,0-.54.76c-0.83.94-1.65,1.89-2.54,2.78-0.55.55-.64,1.43-1.49,1.79-0.45.19-.39,0.68-0.15,1.25a0.78,0.78,0,0,1-.31.35,1.87,1.87,0,0,0-.3.11c-0.73,1.14-1.44,2.29-2.17,3.46L101.19,57a2.24,2.24,0,0,0-.94.52c-0.15.53-.42,0.72-0.89,0.52a2.19,2.19,0,0,1-1-.66c-0.69-1.1-1.17-2.35-2-3.37-1.06-1.4,0-3.22-1.17-4.61-0.42-.5-0.28-1.46-0.4-2.2A30.09,30.09,0,0,1,94.65,39c0.1-.91.3-1.81,0.45-2.71m40.83,115a18.73,18.73,0,0,1,2.9,1.88,43.44,43.44,0,0,1,3.05,3.5,4.65,4.65,0,0,1,.78.85c1.13,2.38,2.49,4.69,2.92,7.34a16.49,16.49,0,0,1,0,6.68,17.51,17.51,0,0,0-.63,1.79,2.34,2.34,0,0,1-1.72,2,1.92,1.92,0,0,1-2.19-1.2,10.09,10.09,0,0,0-3.4-4.79c-1.74-1.42-3.58-2.72-5.44-4-1.31-.88-1.84-1.87-1.3-3a17.51,17.51,0,0,1,1-1.83c0.92-1.47,1-1.52,2.52-.88,1.76,0.71,3.5,1.51,4.41,3.35,0.27,0.55.51,1.11,0.77,1.66,0.37,0.78.85,0,1.28,0.08a4.93,4.93,0,0,0,0-.82,4.35,4.35,0,0,0-.26-0.7c0.45-.22.27-0.78-0.1-1.25-0.68-.84-1.43-1.62-2.2-2.47l0.54-1.59a1,1,0,0,0-1.3.65c-0.37.56-.72,0.47-1,0.15,0.33-.54.6-0.94,0.83-1.37s0.43-.82-0.09-1a1.15,1.15,0,0,0-.91.44,11.54,11.54,0,0,0-.92,1.62,1.73,1.73,0,0,1-.07-0.56c0.33-.8.69-1.59,1-2.39a0.64,0.64,0,0,0-.55-1l-1.62,3-0.08,0,1.74-6.05M37.77,118.4c-2.53.41-4.1,2.12-6,3.29a36,36,0,0,1-7,3.93,3.45,3.45,0,0,1-.72.1L24,125.46l6.07-3.55L30,121.71l-1.27.52a16.48,16.48,0,0,1-7.23,1.4,16.27,16.27,0,0,1-3.18-.76c-0.42-.11-0.83-0.24-1.25-0.34a0.43,0.43,0,0,0-.28.09,0.73,0.73,0,0,0,.13.44c1,0.8,2,1.65,3.12,2.35a37.45,37.45,0,0,0,3.52,1.95,4.47,4.47,0,0,0,1.67.51,53.2,53.2,0,0,0,6.66.2,10.5,10.5,0,0,0,3.69-1.26c2.33-1.14,4.6-2.4,6.88-3.63,0.74-.4,1.41-0.95,2.18-1.3,1.74-.8,3.32-2,5.32-2.18,0.89-.09,1.75-0.47,2.64-0.54a15.63,15.63,0,0,1,7.43.76,38.49,38.49,0,0,0,4.29,1.57c-0.72-.72-1.4-1.47-2.16-2.14a11.5,11.5,0,0,0-4.75-2.73C56,116.29,54.55,115.7,53,116s-3.29.21-4.92,0.42a5,5,0,0,0-1.37.79c-0.85.45-1.75,0.81-2.56,1.32-1.31.82-2.56,1.73-3.83,2.6a1.47,1.47,0,0,1-.6.25,11.65,11.65,0,0,1,5.73-4.66,1.17,1.17,0,0,0-.49,0,22.75,22.75,0,0,0-4.3,2.23c-1,.66-1.84,1.46-2.77,2.17s-1.91,1.65-2.87,2.48c-0.53.46-1.07,0.91-1.78,1.5a1.87,1.87,0,0,1,.1-0.7,23,23,0,0,1,5.15-4.65c1-.7,2.06-1.45,3.17-2.24a5,5,0,0,0-3,.82c-2,1.62-3.88,3.32-5.87,4.93-1.35,1.1-2.79,2.1-4.2,3.13a1.48,1.48,0,0,1-.52.13l-0.15-.24,9.84-7.8M136.28,3.49h0A1.88,1.88,0,0,1,135.63,3a0.64,0.64,0,0,1,.26-0.57,14.67,14.67,0,0,1,1.82-.75,0.58,0.58,0,0,1,.49.17,0.48,0.48,0,0,1-.1.45c-0.58.41-1.19,0.78-1.83,1.18m-2,1.49h0c1-1.15,3-1.65,3.58-.9-0.93,1.11-2.74,1.58-3.58.9M134.1,0c0,0.41-.09.81-0.16,1.22A13.64,13.64,0,0,1,133,3.72a1,1,0,0,0-.11.22c-0.06,1-.12,1.94-0.18,2.92,1.63,0.2,2.88-1.4,4.73-.86a6.83,6.83,0,0,1-4.31,2c-0.23.56,0,.79,0.56,0.65,1-.26,1.94-0.57,2.89-0.92a1.22,1.22,0,0,1,1.54.43c-1.26,1.37-3,1.28-4.76,1.89a2,2,0,0,0,.87.39,21.13,21.13,0,0,0,2.36-.58c0.22-.06.42-0.23,0.64-0.28a5.29,5.29,0,0,0,3.4-2.26c0.67-.93,1.66-1.61,2.41-2.48A6.63,6.63,0,0,0,144.6,0h-5.46a0.56,0.56,0,0,1-.16.18c-0.66.46-1.28,1.21-2.3,0.52A1.46,1.46,0,0,1,137.09,0h-3Zm-1.83,2.38A8.86,8.86,0,0,0,133,.81c0.06-.27.1-0.54,0.14-0.81h-2c0.15,0.3.31,0.6,0.44,0.91s0.35,0.79.67,1.47M104,158a2.71,2.71,0,0,0-2.29-1.06,2,2,0,0,0-.81.63,5.91,5.91,0,0,0,.76.4,4.61,4.61,0,0,0,1.25.34A3.74,3.74,0,0,0,104,158m9.32-7.06,0.4-.31a10.63,10.63,0,0,0-.91-1.72c-0.63-.81-1.39-1.53-2.08-2.3a9.5,9.5,0,0,1-.6-0.88,2.21,2.21,0,0,1,.62.2c1.15,1.14,2.32,2.26,3.41,3.46a1.32,1.32,0,0,1,0,1c-0.23.62-.57,1.19-0.91,1.87-0.28-.11-0.59-0.26-0.92-0.36a7.06,7.06,0,0,0-2-.55,27,27,0,0,0-4.59.36,5,5,0,0,0-3.32,1.64,22.23,22.23,0,0,0-1.23,2.06c1.25,0.57,2.42,1.12,3.61,1.64a0.78,0.78,0,0,0,.5,0,1,1,0,0,0,0-.72,16.48,16.48,0,0,0-1.51-1.09l-0.72-.5,0.1-.22a4,4,0,0,1,.9.17c0.93,0.4,1.84.86,2.77,1.26a4.57,4.57,0,0,0,1,.19l0.2-.41-2.71-2.21a2.91,2.91,0,0,1,.85.15c1.39,0.73,2.76,1.51,4.14,2.25a2.31,2.31,0,0,0,.69.13,2.71,2.71,0,0,0,0-.71,1.05,1.05,0,0,0-.37-0.43c-0.65-.52-1.31-1-2-1.52a0.52,0.52,0,0,1,.45.05c1.35,1,2.72,1.91,4,2.94a1.2,1.2,0,0,1-.15,1.07,11.08,11.08,0,0,1-1.69,1.55,25.09,25.09,0,0,1-2.76,2,6.87,6.87,0,0,1-4.24.62c-2-.18-4,0.11-6,0.08a6.27,6.27,0,0,1-1.78-.59c0-.76,0-1.48,0-2.2,0.09-1.64.19-3.29,0.36-4.93a6.5,6.5,0,0,1,.56-2.45,38.36,38.36,0,0,1,2.55-3.74,2.87,2.87,0,0,1,.71-0.52l0,0.33,2.1,0.72c0.62-1.44-1.16-.92-1.18-1.74,0.77-.56.76-0.54,1.48,0,0.93,0.67,1.88,1.31,2.82,2l0.24-.23c0.06-1.42-1.58-1.69-2.23-2.92a3.47,3.47,0,0,1,.94.3c0.56,0.44,1.08.92,1.6,1.4,1,0.93,2,1.88,3,2.79a1.54,1.54,0,0,0,.68.14,1.68,1.68,0,0,0-.11-0.76,22.74,22.74,0,0,0-1.78-2c-0.63-.61-1.32-1.15-2-1.72l0.32-.43a5.11,5.11,0,0,1,1.61.68c1.41,1.33,2.72,2.77,4.08,4.15,0.35,0.36.77,0.66,1.15,1m24.91,27.09a2.24,2.24,0,0,1,0,.43,23,23,0,0,1-3.21,8.39c-1.46,2.23-3.62,3.72-5.62,5.36A38.11,38.11,0,0,1,125.1,195a1.76,1.76,0,0,1-1,.32,1.15,1.15,0,0,1-.78-0.63c-0.39-1.06-.68-2.15-1-3.23-0.19-.65-0.84-1.29,0-2a1.39,1.39,0,0,0,.22-0.74,32,32,0,0,0,.91-7.14,2.55,2.55,0,0,1,.25-0.78c0.55,2.58-.53,5.17.54,7.69a3.32,3.32,0,0,0,.54-1.42c0.13-1.68.17-3.37,0.29-5.06,0-.75-0.26-1.56.23-2.24l0.37,0,0.64,4.25a1.11,1.11,0,0,0,.51-0.74,16.35,16.35,0,0,0-.05-3.84c-0.23-1.07.31-1.41,0.91-1.92l0.57,2.48,0.49-.06v-4.35h0.37a12.92,12.92,0,0,0,.13,1.82,11.18,11.18,0,0,0,.61,1.64l0.27-.08a1.14,1.14,0,0,0,.12-0.4c-0.09-1.17-.22-2.33-0.29-3.51a6.66,6.66,0,0,1,.21-1.31c0.93,1.2,1.57,2.19,1.37,3.57-0.29,2-.46,4-0.62,6a8.21,8.21,0,0,0,.2,1.65,0.82,0.82,0,0,0,.58-0.41c0.43-1.34.84-2.69,1.25-4a3.84,3.84,0,0,1,.54-1.6,16.55,16.55,0,0,0,3.05-4c0.36-.63.8-1.21,1.21-1.82L138,173.3a5.75,5.75,0,0,1-.44,1.22c-0.83,1.3-1.74,2.55-2.57,3.86a3.66,3.66,0,0,0-.28,1.13L135,179.6l3.06-4.21,0.32,0.15-1.7,4.32,0.26,0.09,1.25-1.9M89.07,4.24c-3.85.59-8.23,3.41-7.65,4.69,2.37-1.27,4.76-2.52,7.12-3.82a2.59,2.59,0,0,0,.53-0.87M76.77,0h2C78.4,0.26,78,.54,77.66.8,76.3,1.76,75.11,3,73.81,4a2.43,2.43,0,0,1-1.26.53,2.3,2.3,0,0,1-1-.48,3.48,3.48,0,0,1,.53-0.73A35.9,35.9,0,0,1,75,1.09C75.6,0.71,76.18.35,76.77,0m4.78,0H92.7a2,2,0,0,0,.77.37,4.53,4.53,0,0,1,1.29.71l0,0.17c0.09,1,.16,1.92.28,2.87a8.85,8.85,0,0,0,.35,1.69c0.18,0.53,0,.71-0.49.76-1.09.11-2.17,0.21-3.25,0.36C91,7,90.29,7.18,89.59,7.31l0-.12,1.7-1.11L91.2,5.76a6.31,6.31,0,0,0-1.1.12c-2.18.62-3.62,2.4-5.47,3.55-1.36.84-2.43,1.65-3.91,0.46a1.73,1.73,0,0,0-.33-0.12L77.8,8.56,85,4.11a1.13,1.13,0,0,0-1.69-.39q-1.81,1.05-3.54,2.22c-1,.65-1.9,1.38-2.87,2.1a2.26,2.26,0,0,0-.47-0.57C75.61,7,76.21,6.6,76.6,6.31c0.61-.46,1.28-0.82,1.92-1.23,1.05-.68,2.1-1.35,3.14-2,0.73-.49,1.44-1,2.28-1.62a1.44,1.44,0,0,0-1.8-.14C80,2.7,77.88,4.13,75.72,5.52a9.14,9.14,0,0,1-1.7.67c-0.18-.69-0.2-1,0.39-1.14a1.83,1.83,0,0,0,.64-0.44c1.22-1,2.42-2,3.68-2.85C79.64,1.11,80.6.57,81.55,0m39.75,127.74c-0.24.51-.49,1-0.69,1.55a0.55,0.55,0,0,0,.23.4,0.41,0.41,0,0,0,.35-0.15c0.19-.55.35-1.11,0.52-1.67l-0.4-.13m-4.5-8.27c-0.86.46-1,.92-0.5,1.43a1.46,1.46,0,0,0,.73.12l-0.23-1.54m1.64,1.67a1.72,1.72,0,0,0,.08,2.64,2.08,2.08,0,0,0-.08-2.64m1.93,2.19c-1.11,1.09-1.53,3.23-.82,4.21,0.87-.79,1.42-3.6.82-4.21m-0.15,7.15-0.33-.11a4.13,4.13,0,0,1-.55.69,0.74,0.74,0,0,1-.59.16c-1.42-.53-2.8-1.19-4.25-1.64-1.68-.52-1.71-0.44-1.63-2.15,0-.24,0-0.48,0-0.71,0-.91-0.09-1.82-0.15-2.73-0.13-1.85-.23-3.71-0.42-5.56-0.11-1.07.07-1.31,1.13-1.39a11.25,11.25,0,0,1,5.7,1.36,27.89,27.89,0,0,1,3.87,2.47,22.88,22.88,0,0,1,4,4.29,1.06,1.06,0,0,1,.16.75c-0.22,1.86-.44,3.71-0.72,5.56a4.46,4.46,0,0,1-.49,1.1l-0.21-.09,0.62-7.32-0.31-.09a3,3,0,0,0-.46.74,20.64,20.64,0,0,0-.71,3c-0.2,1.79-.24,3.59-0.4,5.38a3.77,3.77,0,0,1-.48,1.08l-0.17-.08,0.9-8.12-0.5-.1c-1.23,2.2-1.09,4.78-1.61,7.23-1.11-.79-0.62-1.79-0.54-2.72s0.2-1.87.31-2.8l-0.3-.06c-1,1-.89,2.49-1.44,3.68h-0.25q-0.09-.94-0.18-1.89m5.23,12.76a1.66,1.66,0,0,1-1-1.89c0.54-2.09.75-4.25,1.9-6.21a9.91,9.91,0,0,1,5.64-4.66,25,25,0,0,1,2.79-.7,1.12,1.12,0,0,1,1.48.59c0.56,1.25,1.24,2.45,1.77,3.72a10.36,10.36,0,0,1,.93,3,22.49,22.49,0,0,1-.07,4.81,33.63,33.63,0,0,1-1.17,4.36l-0.86-1.34-0.32.06a4.73,4.73,0,0,0,.07,1c0.33,1.13.28,1.27-.79,1.73-0.21-1-.41-2-0.64-3a2.8,2.8,0,0,0-.39-0.68,2.72,2.72,0,0,0-.31.82c0,1.07,0,2.14,0,3.22a2.06,2.06,0,0,1-.23.62l-0.29-.07v-1.31a24.64,24.64,0,0,0,0-3.41,5.42,5.42,0,0,1,.35-3.24c0.6-1.27.13-2.52-.37-3.71a2.28,2.28,0,0,0-.94-0.55l-0.25,3.49-0.4.08c-0.49-1.35-.48-2.94-1.81-4.25a6.79,6.79,0,0,0-.1,1.63c0.27,1.28.65,2.53,1,3.81a4.41,4.41,0,0,1,0,1h-0.27c-0.33-1.46-.55-3-1.67-4.13a16,16,0,0,0,.12,3.4c0.1,0.72.36,1.41,0.45,2.13a1.27,1.27,0,0,1-.32.84,1.25,1.25,0,0,1-.65.09c0-.25,0-0.51-0.08-0.76-0.16-.94-0.31-1.89-0.5-2.83a3.59,3.59,0,0,0-.4-0.81l-0.32.06L127.39,145a0.83,0.83,0,0,1-.63-1.36,1.44,1.44,0,0,0-.46-2.06l-0.85,1.72M45.92,61.5a3.2,3.2,0,0,0-2.84,1,1.54,1.54,0,0,0-.29.69c-0.15.52-.29,1.06-0.42,1.59-0.23.92-.93,0.87-1.6,0.71-0.39-.09-0.88-0.27-0.56-0.93a2.26,2.26,0,0,0,.21-1.19,1,1,0,0,0-.51-0.74,1.87,1.87,0,0,0-1.31.08,6.34,6.34,0,0,0-2.22,3.45,27,27,0,0,0-1.22,4.61,19.7,19.7,0,0,0,.24,3c0,1.6,1.11,2.64,1.87,3.85a0.76,0.76,0,0,0,.67.28A38.61,38.61,0,0,0,44,74.49c1.95-1.57,3.62-3.58,3.58-6.4a0.68,0.68,0,0,1,.12-0.41c0.63-.76.19-1.31-0.32-1.87-0.85-.93-1.14-1.77-1.5-4.31m70.37,93.37a1.64,1.64,0,0,0,2-.82,25,25,0,0,1,3.31-3.55,0.89,0.89,0,0,1,.36-0.12l0.22,0.21-3.64,4.75a0.9,0.9,0,0,0,1.37.12c0.34-.27.55-0.69,0.87-1a8.16,8.16,0,0,1,1-.69L122,154c-0.37.63-.72,1.26-1.11,1.87s-0.28.73,0.35,1c0.37-.68.71-1.38,1.12-2a1.71,1.71,0,0,1,.61-0.38,1.52,1.52,0,0,1,0,.67,8.86,8.86,0,0,1-.82,1.42,1.05,1.05,0,0,0,.13,1.66l1-1.1,0.26,0.09L123,159a4.84,4.84,0,0,1,.87.31,1.33,1.33,0,0,0,2.16-.56,0.85,0.85,0,0,1,.38-0.37,4.68,4.68,0,0,1,.77-0.22,5.25,5.25,0,0,1-.18.72c-0.18.45-.4,0.89-0.6,1.34l0.17,0.22a2.49,2.49,0,0,0,.76-0.43c0.72-.88,1.39-1.81,2.11-2.69A1.52,1.52,0,0,1,130,157a1.44,1.44,0,0,1-.06.6c-0.66,1-1.34,2-2.17,3.29a1.86,1.86,0,0,0,.89-0.06c0.51-.58.93-1.25,1.41-1.87,0.27-.35.58-0.67,1-1.18,0-1.24-.08-2.77,0-4.29a9.65,9.65,0,0,0-.74-4.22,6.48,6.48,0,0,0-.76-1.65,2.11,2.11,0,0,0-1.29-.85,5.14,5.14,0,0,1-3.82-1.7,6.3,6.3,0,0,0-.76-0.76,1.08,1.08,0,0,0-1.67,0,6.93,6.93,0,0,1-2.08,1.38c-1.26.54-1.4,1.74-1.86,2.8l2.19-1.55,0.2,0.23A21.85,21.85,0,0,1,117,152c1.22-1,2.37-2.2,4-2.42l0.23,0.28-5,5m-36-69.17c-0.72-.83-0.14-3.5.79-3.76l0.63,1.86L82,83.73a16.18,16.18,0,0,1,.53-2.26,2.6,2.6,0,0,1,1-1.35,14.9,14.9,0,0,1,6.2-1.67c2.73-.15,5.47-0.21,8.22-0.32-2.68,2.48-5.83,7.1-5.33,7.64,1.27-1.45,2.54-2.91,3.83-4.35,0.89-1,1.8-2,2.74-2.91a2,2,0,0,1,1.15-.74,4.54,4.54,0,0,0,2.24-.42,28.19,28.19,0,0,0,3-1.14c1-.48,1.84-1.14,2.76-1.72l0.25,0.18c-0.53.9-1,1.83-1.62,2.69-0.83,1.2-1.7,2.37-2.64,3.49a10.74,10.74,0,0,1-1.8,1.64c-1,.76-2.08,1.46-3.12,2.17l-0.07-.36a29.23,29.23,0,0,1-4,1.64,6.71,6.71,0,0,1-4.18-.06l0.79-2.09,0.22,0.15,4-5.49a1.15,1.15,0,0,0-.52,0c-1.62,1.61-3.23,3.23-4.94,5l1.71-2.89-0.23-.19c-1.92,1.08-2.9,3-3.92,4.89-2.59,0-5.33-1.37-7.89.47m39.66-68.86,0.89-1.15-0.28-.28c-0.32.28-.66,0.55-1,0.85a2.85,2.85,0,0,0,.35.57m2.47-1.61c-1.2.42-1.45,0.94-.76,1.55,0.44-.42,1-0.74.76-1.55m1.71-.5a1.89,1.89,0,0,0-.5.51,9.83,9.83,0,0,0-.43,1.49,1.3,1.3,0,0,0,.11.5,0.88,0.88,0,0,0,.43-0.18c0.27-.7.5-1.43,0.74-2.14l-0.34-.19m5.81-1.05a7.91,7.91,0,0,0-.43.76c-0.79,1.8-1.55,3.62-2.37,5.4a2.93,2.93,0,0,1-.86.75,0.56,0.56,0,0,1-.12-0.52,9.71,9.71,0,0,0,1.78-4.51,2,2,0,0,0,0-.45,1.27,1.27,0,0,0-.53.13,1.74,1.74,0,0,0-.38.58c-0.53,1.1-1,2.21-1.57,3.3a1.2,1.2,0,0,1-.44.3,1.48,1.48,0,0,1,0-.53c0.41-1.21.85-2.41,1.28-3.61l-0.38-.21a2.8,2.8,0,0,0-.56.61,13.53,13.53,0,0,0-.94,2.25c-0.2.72-.59,0.71-1.12,0.54-0.76-.25-1.51-0.51-2.27-0.78a2.32,2.32,0,0,0-2,.57,1.28,1.28,0,0,0-.64,0c-0.86.65-1.26,0.19-1.52-.6a3.17,3.17,0,0,1-.23-1,6.7,6.7,0,0,1,.85-3.43c1.2-2,2.54-3.7,5.18-3.56,0.52,0,.92-0.06.65-0.76a0.59,0.59,0,0,1,.32-0.46,38.81,38.81,0,0,1,4.3-.7,4.13,4.13,0,0,1,2.43.46c1.12,0.74,1.52,2.1,2.16,3.25a1.07,1.07,0,0,1-.22,1.63,2.7,2.7,0,0,1,.91,2.9c-0.1.46-.33,0.9-0.4,1.36-0.17,1.11-1.13,1.67-1.71,2.49a1.18,1.18,0,0,1-.53,0,11.41,11.41,0,0,0,1.08-5.69,1.11,1.11,0,0,0-.55.59c-0.38,1.31-.7,2.64-1.11,3.94-0.31,1-.58,1.08-1.51.79,2-4.74,2.1-5.08,1.44-5.7M89.84,271.6c-1.6-.83-2.13-2.47-3.14-3.84a1.32,1.32,0,0,0,.26,1.44,16.5,16.5,0,0,1,1.75,3.6c0.81,2.34,1.48,4.73,2.32,7.13,0-1.89-.21-3.79-0.12-5.68a18.74,18.74,0,0,0-1.78-8.87c-0.8-1.74-1.75-3.4-2.6-5.11-0.24-.47-0.39-1-0.58-1.49l0.31-.2a3.15,3.15,0,0,1,.56.57c0.77,1.3,1.51,2.63,2.27,3.94a1.39,1.39,0,0,0,.59.58c-0.44-1.17-.79-2.37-1.32-3.49-0.72-1.49-1.6-2.9-2.36-4.37a4,4,0,0,1-.19-1.22l0.33-.13,2.62,3.66A5.65,5.65,0,0,0,87.3,255c-1-1.24-2.12-2.44-3.13-3.7a10.87,10.87,0,0,1-1.1-1.87,2.43,2.43,0,0,1,.21-0.92l4.08,4.7A4.34,4.34,0,0,0,86,250.29c-0.59-.64-1.13-1.34-1.65-2a0.67,0.67,0,0,1-.1-0.6c0.77-1.06-.24-1.51-0.73-2-1.64-1.77-3.89-2.94-5-5.23,1.72,0.42,2.74,1.88,4.22,3a4.33,4.33,0,0,0-.2-0.73,11.34,11.34,0,0,0-3.24-3.83,37.8,37.8,0,0,1-3.47-3.24,1.39,1.39,0,0,1-.18-0.58,1.4,1.4,0,0,1,.57.1c0.76,0.54,1.49,1.12,2.24,1.69a2.25,2.25,0,0,0,.79.43,35.37,35.37,0,0,0-6.73-5.46l-0.28.18,1,2.14c0.26,0.52.48,1.07,0.77,1.57,0.65,1.1,1.38,2.15,2,3.25S77.11,241,77.67,242s1.19,1.9,1.69,2.9c0.37,0.74.54,1.58,0.85,2.35a6.88,6.88,0,0,0,.66,1.12,11.92,11.92,0,0,1,1.56,4,32.14,32.14,0,0,0,1.44,3.55,15.93,15.93,0,0,1,.4,2.05c0.05,0.24.24,0.46,0.29,0.7,0.16,0.7.27,1.41,0.41,2.12,0.1,0.47.23,0.94,0.36,1.41,0,0.07.17,0.13,0.16,0.17a4.18,4.18,0,0,0,.88,3c0.63,1,1.22,2,1.79,3s1.12,2.15,1.67,3.23M73.92,14.41c-0.54-.86-1.07-1.55-1.93-0.19a18.22,18.22,0,0,1-2,2.28c0.54,1.5,1.6,2.81,1.69,4.44-1.52-.92-1.75-2.49-2.3-3.9-0.79.26-.93,0.63-0.51,1.46a51.27,51.27,0,0,0,4,6.63,4.82,4.82,0,0,1,.65.82,1.17,1.17,0,0,1,0,1,0.67,0.67,0,0,1-1.12-.18c-1.22-1.84-2.46-3.67-3.65-5.53a23.77,23.77,0,0,0-1.52-2.41,2.51,2.51,0,0,0,.11,1C68.65,21.9,70,24,71.41,25.95c1.31,1.8,2.75,3.5,4.14,5.24,0.36,0.45.41,0.83-.27,1.14a50.16,50.16,0,0,1-9.06-11.76l-0.28.08A4.17,4.17,0,0,0,66.17,22c1,1.75,1.92,3.52,3,5.17a30.34,30.34,0,0,0,2.63,3c0.51,0.57,1,1.12,1.53,1.72,0.7,0.87,1.77.64,2.65,1a3,3,0,0,0,3.91-1.26,2.31,2.31,0,0,1,.86-0.46l-0.29-.39c-0.91-.14-1.82-0.28-2.73-0.4a3.62,3.62,0,0,1-1.9-2.27,30.28,30.28,0,0,1,.21-3.54,31.65,31.65,0,0,1,1.07-3.61,1,1,0,0,0,.13-0.22c-0.13-1.31.62-2.38,1-3.57a12.14,12.14,0,0,0,.31-2.34c0.09-1,.15-2.06.16-3.08a0.87,0.87,0,0,0-.38-0.67,10.24,10.24,0,0,0-1.53-.44c0.42,1.86,1.24,3.55.61,5.45-1.32-.66-0.88-1.84-1.16-2.75A21.1,21.1,0,0,1,75.8,11a10.23,10.23,0,0,0-1.71,1.17,1.32,1.32,0,0,0,.12,1.05c0.23,0.49.36,0.88-.29,1.2M16.12,48.46h0a2.2,2.2,0,0,1-.62-0.8A1.92,1.92,0,0,1,16,47a1.68,1.68,0,0,1,.43.62,2.41,2.41,0,0,1-.36.87m-2.18-1.67h0l0.41,0.07a11.36,11.36,0,0,1,0,1.33,0.55,0.55,0,0,1-.39.35,0.68,0.68,0,0,1-.44-0.4,11.14,11.14,0,0,1,.44-1.36m4.71-.54h0c0,0.62,0,1.17,0,1.7a0.68,0.68,0,0,1-.44.42,0.62,0.62,0,0,1-.52-0.2c-0.29-.38.36-1.75,1-1.92M19.81,49h0c-0.59-.84.1-1.68,0-2.49a0.64,0.64,0,0,1,1-.65c-0.9.86,0.55,2.33-1,3.15m1.3,0.6h0l0.23-.24a7.24,7.24,0,0,0,.48-1.08c0.29-1.1.53-2.22,0.81-3.32A0.94,0.94,0,0,1,23,44.68a0.93,0.93,0,0,1,.23.42c-0.27,1.43-.55,2.85-0.9,4.26a1,1,0,0,1-.67.44,1.21,1.21,0,0,1-.57-0.2m-0.27,7.16a10.14,10.14,0,0,1,3.1-4,2.94,2.94,0,0,0,.43-1.3c0.54-1.66,1.13-3.3,1.63-5a7.17,7.17,0,0,0,.12-1.58l-0.43-.07-2.17,7-0.37,0A2.06,2.06,0,0,1,23,50.92c0.76-2.22,1.53-4.43,2.39-6.61,0.33-.85.24-1.25-0.66-1.26-1.75,0-3.5,0-5.24.11a7.71,7.71,0,0,0-1.94.61,32.9,32.9,0,0,0-5,1.85A7.49,7.49,0,0,0,9.3,48.2a2.16,2.16,0,0,0-.14.4,8.66,8.66,0,0,1,4,2.91,7.46,7.46,0,0,0,1.61,1.18,6.65,6.65,0,0,1,.7.49,18.09,18.09,0,0,0,4.65,3.1,7.46,7.46,0,0,1,.72.46M33.31,74.82L33.67,75a3.32,3.32,0,0,1-.26,1.11c-0.44.67-1,1.26-1.48,1.91a1.13,1.13,0,0,0,0,.53,1.18,1.18,0,0,0,.55,0,4.66,4.66,0,0,0,.68-0.7l1.28-1.44,0.72,1.41-1.51,1.59,0.11,0.3a4.4,4.4,0,0,0,.95-0.17,6.18,6.18,0,0,0,.93-0.57c1,1.34,1.53,1.51,2.88.79,2-1.07,4-2.1,5.89-3.34a26.48,26.48,0,0,0,3.17-2.87l0.16,0.18c-0.7,1.07-1.3,2.15-2.07,3.1a44.22,44.22,0,0,1-3.71,4.19c-1,1-2.5,1.61-3.44,2.69-1.25,1.43-2.92,2.54-3.64,4.42a3.17,3.17,0,0,1-.43.66c-2.84-1.39-4-4-5.21-6.31-0.79-1.52-.77-3.44-1.29-5.12a6.85,6.85,0,0,1,1.29-6.39,18.77,18.77,0,0,1,2-2.53,8.07,8.07,0,0,1,2-1l0.18,0.26c-0.5.56-1,1.14-1.51,1.68a25,25,0,0,0-3.66,5.62c-0.21.38-.22,0.72,0.18,0.82a1,1,0,0,0,.73-0.5c0.66-1.12,1.2-2.32,1.9-3.4a30.33,30.33,0,0,1,2-2.51l0.36,0.19a12.64,12.64,0,0,1-.82,2c-0.6,1-1.4,1.86-2,2.85-0.42.69-1.22,1.26-1,2.27l0.58,0.12,0.6,1a4.81,4.81,0,0,0,.67-0.57c0.63-.76,1.23-1.55,1.85-2.32M27.12,61.47h0c-0.57-.61-1.15-1.2-1.66-1.84a1.51,1.51,0,0,1,0-.77,1.84,1.84,0,0,1,.68.18,9.08,9.08,0,0,1,1,1,0.91,0.91,0,0,1,0,1.43m-0.47,2.45h0a1.79,1.79,0,0,1-.36,0A0.63,0.63,0,0,1,26,63.84c-1.29-1.08-2.62-2.13-3.21-3.81-0.2-.58-0.23-0.57.23-0.91l2.83,3a1.93,1.93,0,0,1,.84,1.83m1.33-4A3.56,3.56,0,0,1,27.12,59a1.06,1.06,0,0,1,0-1,5.82,5.82,0,0,1,3.59-1.6,24.64,24.64,0,0,0,3-.27,1.32,1.32,0,0,0,.58-1,1.73,1.73,0,0,0-1.58-1.81H32.58c-2-1.25-4-.44-6,0.09a5.06,5.06,0,0,0-3.81,4.21c-0.23,1.14-.52,2.27-0.68,3.41a1.37,1.37,0,0,0,.44,1.05c1.63,1.34,3.4,2.52,4.94,3.94,1.08,1,2.07.81,3.24,0.43a5.9,5.9,0,0,0,3-1.64A6.52,6.52,0,0,0,35,60.22a3.35,3.35,0,0,0-.73-1.56,2.14,2.14,0,0,0-2-.87A6.1,6.1,0,0,0,28,59.87M49.83,87.38L51.93,84c-0.47-.84-0.92-0.6-1.32-0.05s-0.55.91-.82,1.36A1.59,1.59,0,0,1,49.73,84c0.92-1.42,1.94-2.79,2.92-4.18-0.65-.46-0.88-0.5-1.32,0-0.71.8-1.36,1.64-2,2.47L49,82.16a11.65,11.65,0,0,1,1.08-2c0.69-.85,1.57-1.55,2.3-2.37a18.9,18.9,0,0,0,1.23-1.66c0.75,0.31,1.7.68,2.64,1.11a0.68,0.68,0,0,1,.25.51,24.65,24.65,0,0,1-.39,6.74A48.82,48.82,0,0,1,54.1,91a34.08,34.08,0,0,1-2.22,4.29,1.38,1.38,0,0,1-.91.64,8.86,8.86,0,0,1-3.2-2.83,10.62,10.62,0,0,0-1.91-1.93c-0.58-.52-1.24-1-1.77-1.35,1.82-2.21,1.94-5,3.55-7.25,0.12,1,.21,1.9.34,2.77A15.6,15.6,0,0,0,48.49,88c0.21,0.63-.41,1.65.67,1.8a1.61,1.61,0,0,0,.08,1.61,0.93,0.93,0,0,0,.83.22c0.34-.11.22-0.38,0.14-0.73a1.65,1.65,0,0,1,.29-1.67,1.89,1.89,0,0,0,.61-1.87l-1.28.07M43.17,46.76a9.42,9.42,0,0,1,2.1-4.84,7.43,7.43,0,0,1,6.21-2.63c1.52,0,3,.13,4.57.16a0.86,0.86,0,0,1,.86,1,11.32,11.32,0,0,1,.15,1.49c0,1.74.35,3.51-.23,5.23a10.65,10.65,0,0,1-2,3,5.08,5.08,0,0,1-2.6,1.64,2,2,0,0,1-1.37-.13,3.1,3.1,0,0,1-1.25-1.08A2.63,2.63,0,0,1,49,48.78a14.83,14.83,0,0,1,1.8-3.26A19.76,19.76,0,0,1,52.43,44a2.3,2.3,0,0,0,.23-1,2.24,2.24,0,0,0-1.08,0,9.59,9.59,0,0,0-4.16,4.46,0.75,0.75,0,0,1-.62.36c-1.21-.3-2.39-0.67-3.62-1m40.33,0.85a10.17,10.17,0,0,1-.6-1.45c-0.35-1.5-.64-3-1-4.53a0.57,0.57,0,0,0-.43-0.34,0.59,0.59,0,0,0-.42.35,1.42,1.42,0,0,0,0,.71c0.41,2,.56,4.1,1.68,5.92a2.53,2.53,0,0,1,0,1.21l-0.27,0c-0.22-.5-0.42-1-0.65-1.49-0.85-1.8-1.71-3.59-2.55-5.4-0.43-.91-0.73-1.89-1.24-2.76a2.1,2.1,0,0,1,.19-2.58,2.78,2.78,0,0,0,.31-0.65l1.81-.53L80,35.67c-0.23-.32-0.85-0.54-0.38-1.06a0.84,0.84,0,0,1,1.3,0c0.69,0.54,1.48,1,2.22,1.43A0.83,0.83,0,0,0,83,34.52a10.36,10.36,0,0,0-1.26-.77c-0.44-.21-0.86-0.42-0.65-1a1,1,0,0,1,1.42-.35C83.35,33.16,84.15,34,85,34.74a1,1,0,0,0,.9,0c0.36-.24.2-0.57-0.11-0.85-1-.93-2-1.88-3.05-2.82a0.37,0.37,0,0,1,.14-0.06c1.3-.19,2,0.7,2.8,1.5s1.52,1.8,2.31,2.66a2.1,2.1,0,0,0,.78.32,2.51,2.51,0,0,0,.09-0.91,2.85,2.85,0,0,0-.58-0.87c-0.61-.76-1.23-1.5-1.91-2.33h1.33l-0.22.15a30.77,30.77,0,0,1,3.81,5.58l-0.25.26-1.27-.76c-0.5.37-.5,0.37-0.1,1A1,1,0,0,1,89,39.24a5.44,5.44,0,0,0-.75.2c0.28,1.12.21,1.17-.79,1.49a1.53,1.53,0,0,0-.47.85c-0.16.41-.21,0.86-0.4,1.26a4.41,4.41,0,0,1-.65.8c-0.92,1.12-1.3,2.6-2.4,3.77M64.12,59.44c-2,1.12-4.14,1.33-6,2.37a37.35,37.35,0,0,0-6.48,4.28,1.36,1.36,0,0,1-1.16.16,3.21,3.21,0,0,1-2.08-2.38,22.62,22.62,0,0,1-.19-3.72,0.68,0.68,0,0,1,.44-0.43,4.09,4.09,0,0,1,1.47-.21c2,0.27,4,.63,6.06.89a2.15,2.15,0,0,0,.93-0.51,2,2,0,0,0-.56-0.81,10.43,10.43,0,0,0-2.08-.47c-0.89-.13-1.79-0.19-2.9-0.3,0.4-1.43.7-2.83,1.2-4.14A2,2,0,0,1,54,52.94a7,7,0,0,1,3.76.65c1,0.55,1.87,1.16,2.76,1.8a13.47,13.47,0,0,1,3.59,4m8.52-2.19a2,2,0,0,1-1.83.7,42,42,0,0,0-5.32-.06c0.4,0.58.69,1,1,1.41,0.56,0.77.33,1.25-.62,1.45s-2,.54-3.06.82l0,0.34a5.63,5.63,0,0,0,.91.49,6.46,6.46,0,0,1,2.82,2.08,10.65,10.65,0,0,0,2.05,2,2.47,2.47,0,0,0,1.58-.25,2.57,2.57,0,0,0,1.06-.93,6.31,6.31,0,0,1,1.92-1.12c0.3-.16.66-0.21,0.94-0.39a0.62,0.62,0,0,0,.27-0.51,12.7,12.7,0,0,1-.55-5.15c0.08-1.18-.06-2.37,0-3.55,0-.65.27-1.29,0.32-1.95a1,1,0,0,0-.94-1.19c-1.38-.19-2.73-0.59-4.11-0.75a1.58,1.58,0,0,0-1,.87c-0.57,1.08-1,2.24-1.57,3.31a5.08,5.08,0,0,1-1.18,1,3.89,3.89,0,0,0-.58.62,0.43,0.43,0,0,0,.07.37,0.36,0.36,0,0,0,.31.09,10.24,10.24,0,0,1,4.51-.34c0.91,0.18,1.84.27,2.76,0.41a1,1,0,0,1,.3.24M8.83,74.12C10,73.75,11,73.4,12,73.09a20.79,20.79,0,0,0,4.45-2.28A3.61,3.61,0,0,1,19,70.12a3.91,3.91,0,0,0,1.78-.66,34.67,34.67,0,0,1-1.13-5.6,33.49,33.49,0,0,1,.65-5.58c-2,.22-3.37,1.62-4.87,2.78a24.45,24.45,0,0,0-3.14,3,7.84,7.84,0,0,0-.83,1.83c-0.44.89-1,1.74-1.36,2.66a13.29,13.29,0,0,0-1.24,5.58M61.54,40.51c0.78,1,1.5,1.27,2.14,1-0.91-1.53-1.37-1.75-2.14-1M70.6,40c-0.56,1.31-1.1,2.41-1.51,3.57a36,36,0,0,1-1.73,4,12.46,12.46,0,0,0-1.44,3.61c-0.22,1.54-1.32,2.46-2,3.66a0.92,0.92,0,0,1-.81.3c-0.74-.6-1.94-0.76-1.95-2.08a2.9,2.9,0,0,0-.36-1.15c-0.57-1.2-1.2-2.38-1.75-3.58a4.37,4.37,0,0,1-.2-1.11l0.3-.09,2.05,3.68,0.8-.41A10.37,10.37,0,0,0,61.55,49c-0.65-1.26-1.37-2.48-2-3.76a4.6,4.6,0,0,1-.22-1.32c0.87,0.72,1.52,1.5,2.68,1.42l-2.21-3.48L60,41.68a16.67,16.67,0,0,0,1.75,1.43,2.21,2.21,0,0,0,1.07,0,3.33,3.33,0,0,0-.46-0.77c-0.73-.69-1.5-1.35-2.25-2L60.24,40A50.12,50.12,0,0,1,70.6,40M14.08,59.48l0.28,0.33a9.3,9.3,0,0,0-1.09.88A20.66,20.66,0,0,0,10.41,64C9.69,65.2,9,65.65,7.68,65H7.51l-5.34-.54a4.9,4.9,0,0,0-1.11-.13c-0.9.12-1.27-.17-0.94-1A13.43,13.43,0,0,1,1.73,60.1c2-2.67,4.11-5.3,7.43-6.78v3l0.34,0.13a2.45,2.45,0,0,0,.68-0.91A5.28,5.28,0,0,0,10,53.92c-0.2-.89,0-1.15.9-1.38l0.09,0.15c0.07,1.15.11,2.31,0.22,3.46a1.81,1.81,0,0,0,.42.64,1.36,1.36,0,0,0,.52-0.49c0-.76-0.14-1.51-0.19-2.27,0-.44,0-0.89,0-1.33l0.35-.1a5.53,5.53,0,0,1,.82,1.72c0.12,1.39,0,2.8,0,4.21a7.86,7.86,0,0,0-1,.25c-1.6.65-3.62,0.27-4.81,1.92a6.05,6.05,0,0,0-.39.72,3.38,3.38,0,0,0,1,0c0.38-.1.69-0.44,1.07-0.55,1.68-.5,3.37-1,5.05-1.44M24.2,41c-0.66-.57-1.35-1.1-2-1.7s-0.47-1.1.3-1.3a56.22,56.22,0,0,1,6.21-1.4,39.46,39.46,0,0,1,5.19,0c0.65,0,2-1,1.84-1.63a3.24,3.24,0,0,0-1-1.41,7.65,7.65,0,0,0-1.71-1.36c-2.1-1.13-4.24-2.2-6.37-3.27a1.36,1.36,0,0,0-1.85.46c-0.53.65-1.2,1.19-1.73,1.85A13.27,13.27,0,0,0,21,35.79a28.58,28.58,0,0,0-1.14,4.93c0,0.22,0,.44-0.07.61H24L24.2,41M41.46,61l0.88-2.24,0.31,0c0,0.3,0,.6,0,0.9s0,0.65,0,1.08c1.39-1.07.69-2.82,1.77-4v3.22c1-2.05.82-4.21,1.63-6.08a9.57,9.57,0,0,1-.75,5.74l0.22,0.19A1.5,1.5,0,0,0,46,59.39c0.39-2,.77-4,1.08-6a21.75,21.75,0,0,0,.18-2.83,1.22,1.22,0,0,0-.8-1.07c-1.41-.84-3-0.78-4.52-1.11a1,1,0,0,0-.82.24,7.65,7.65,0,0,1-3.58,2.26,1,1,0,0,0-.46,1.6c0.46,0.64,1,1.23,1.51,1.86-0.45.63-1.94-.35-2.74-2-0.15.36-.16,0.37,1,2.2,0.43,0.65.93,1.24,1.39,1.86l-0.18.16-1.71-.93-0.22.26,2,1.78L38,58,36.08,57c-0.32.6,0.16,0.78,0.58,1,1.19,0.6,2.4,1.15,3.55,1.81A7.31,7.31,0,0,1,41.46,61m64.46-26.83c-1.24.41-1.62-.38-1.94-1.8a4.58,4.58,0,0,0-.27-0.65c-1.07,1,.07,2.14-0.45,3.14l-0.76-.62L102,35.42a2.88,2.88,0,0,1-.28-0.46c-0.45-1.27-.94-2.53-1.31-3.82a15.56,15.56,0,0,1-.38-5.51,10.61,10.61,0,0,1,3-6.92,16.5,16.5,0,0,1,1.9-1.56,1.93,1.93,0,0,1,.85-0.39c0.93-.12,1.87-0.22,2.81-0.25,1.42,0,2.86-1.1,4.28,0a0.51,0.51,0,0,0,.35,0c1.08-.18,1.52.49,1.85,1.37a3.46,3.46,0,0,1-.7.24,34.39,34.39,0,0,0-4.12.41A10,10,0,0,0,107,19.94c-1.34.88-1.7,2.43-2.09,3.9a6.42,6.42,0,0,1-.42,2,2.55,2.55,0,0,0-.18,2.47c0.39,1.28,1,2.49,1.37,3.76a11.25,11.25,0,0,1,.25,2.13m45,135.55a12.57,12.57,0,0,0-2.73,1.59,2.85,2.85,0,0,0-.51,2.06c0.1,1,.56,2.06.72,3.1s-0.07,1.33-1.34,1a19.2,19.2,0,0,1-2.95,6.8c-0.32-1.56.71-2.79,1-4.2a39.48,39.48,0,0,1,1.3-4.08l-0.38-.17a2,2,0,0,0-.44.68,37.85,37.85,0,0,1-3,9.44c-0.17.4-.41,0.76-0.72,1.33,1.86,0.86,3.65,1.79,5.52,2.52,1,0.39,1.71-.51,2-1.88a7.84,7.84,0,0,1,1.3-3.69,2.61,2.61,0,0,0-.1-0.7c0.17-1.94.43-3.88,0.53-5.82s0-4,0-6c0-.62-0.11-1.25-0.18-2m-14.37,45c-0.76-1.45-.76-1.45-0.1-2.75,0.11-.21.25-0.4,0.36-0.6,0.55-1,1.12-2,1.63-3.06a2.35,2.35,0,0,0,0-.94l-0.4-.11-2.82,4a6.61,6.61,0,0,1,.12-1.92c0.65-1.55,1.43-3,2.12-4.57a11.62,11.62,0,0,0,.46-1.62c-1.27-.16-1.23,1.17-2,1.51l2.51-5.7-0.29-.18c-1.67.81-1.78,2.83-3,4a17.78,17.78,0,0,1,.71-2.41c0.6-1.64,1.23-3.27,1.81-4.91a4.12,4.12,0,0,0,.09-1.06l-0.42-.11-2.5,4.73-0.24-.1c0.33-.82.66-1.64,1-2.46,0.62-1.5,1.28-3,1.85-4.51a5.7,5.7,0,0,0,.14-1.51,6.21,6.21,0,0,0-1.26,1.22c-0.67,1.17-1.21,2.42-1.82,3.67-0.4-1.05-.78-2-1.14-3.05a0.71,0.71,0,0,1,.06-0.6c1.14-1.25,2.3-2.47,3.45-3.68a5.54,5.54,0,0,1,2.12,3.27c0.39,1.69,1,3.33,1.37,5,0.3,1.54.33,3.13,0.5,4.69,0.06,0.57.26,1.13,0.29,1.7,0.07,1.25,0,2.51.14,3.76,0.08,1.08.44,2.18-.83,2.88a2.9,2.9,0,0,0-.84.9c-1,1.47-2,3-3.11,4.5m-55.2-55.23c2.49,1.62,5.37,1.69,8.11,2.74a6.45,6.45,0,0,1-.14-1.26c0.11-1.08.3-2.15,0.42-3.22,0.06-.51.5-1.12-0.56-1.46a13.09,13.09,0,0,0,1.43-1.5,3.39,3.39,0,0,0,.57-1.48A29.8,29.8,0,0,1,93,147a0.75,0.75,0,0,0-.1-0.65,1,1,0,0,0-.72-0.3,9.54,9.54,0,0,0-3.94,2.29c-2.08,1.87-3.2,4.48-5.05,6.51-1.18,1.3-1.13,3.06-1.82,4.58M35.73,44.3c-1.11,0-2.22,0-3.32,0a1.7,1.7,0,0,0-.4.72,1.69,1.69,0,0,0,.68.32A21.24,21.24,0,0,0,35.14,45a2.09,2.09,0,0,0,.66-0.46l-0.07-.28m1.36-1.43h0c-0.74.63-6.08,1.33-6.61,0.91,1.15-1.62,5.42-2.24,6.61-.91m-3.63,9a28.13,28.13,0,0,1-2.59-1.73,4.49,4.49,0,0,1-1.73-2.74,19.39,19.39,0,0,0-1.3-3.2,0.88,0.88,0,0,1,.23-0.75,3.76,3.76,0,0,1,1-.57,23.66,23.66,0,0,1,7.79-2,2.64,2.64,0,0,0-.4-0.49A4.24,4.24,0,0,0,32.27,40c-1.47.59-2.84,1.42-4.26,2.13a3.16,3.16,0,0,1-.74.17l-0.09-.24c1.39-1.49,3.3-2.27,5.05-3.41-2.49-.5-4.12.84-5.7,2.24-1.5-.94-1-1.68.22-2.16l0.49-.18a13.39,13.39,0,0,1,5.24-.5,5.22,5.22,0,0,1,2.39.45,11.25,11.25,0,0,1,4.21,3.76,6.51,6.51,0,0,1,1.32,3.81,4.65,4.65,0,0,1-1.22,2,8.07,8.07,0,0,1-1.32,1.07c-0.18-1-.28-1.71-0.48-2.42a0.94,0.94,0,0,0-.65-0.41C35.85,46.16,35,46,33.89,45.86a1.64,1.64,0,0,0-.16.83c0.34,0.84,1.18.59,1.75,0.67,1.24,2.27-.12,3.42-2,4.5m108.1,85.38-2.81-7a4.59,4.59,0,0,1,2.65-.6,57.71,57.71,0,0,1,8.59.77c0.53,0.12.69,0.22,0.49,0.81-0.54,1.56-1.06,3.13-1.48,4.73a27.41,27.41,0,0,1-3.06,6.83,1.26,1.26,0,0,1-1.34.89c-1-.16-2-0.24-3-0.39a0.56,0.56,0,0,1-.39-0.37c0.07-.94.18-1.88,0.31-2.82a1.15,1.15,0,0,1,.27-0.74,13.92,13.92,0,0,0,4.9-5.63c0.22-.43.54-0.9-0.05-1.28a1.19,1.19,0,0,0-1.61.14,4.58,4.58,0,0,0-.64,1,12.87,12.87,0,0,1-2.79,3.6M81.7,54.29a0.74,0.74,0,0,0,.76-0.7,22.85,22.85,0,0,1,2.79-5.67c1.34-2.31,2.95-4.47,4.44-6.69,1.49,0.9,2.4,1.84,2.28,2.28-0.76-.15-1.32-1.07-2.46-0.64,0.94,0.93,1.77,1.69,2.53,2.52a4.56,4.56,0,0,1,.57,1.21c-1.9-1.16-2.3-1.26-3-.55a8.63,8.63,0,0,1,3.51,3.37c-1.05-.56-1.9-1.58-3.19-1.5l-0.15.28,3,2.52a1,1,0,0,1-1.36.14c-1.21-.71-1.46-0.66-2,0.16l1.34,0.87c-0.39.29-.67,0.52-1,0.71-1,.65-2.13,1.23-3.13,1.93-1.31.92-2.58,1.9-3.83,2.9-1,.8-1.24.82-2-0.19-1.2-1.6-2.31-3.27-3.61-4.8C76.59,51.69,77,50.77,76.5,50a9.22,9.22,0,0,1,1.05,1.38c1,1.43,2.36,2.59,2.92,4.32a0.47,0.47,0,0,0,.9.07,6.22,6.22,0,0,0,.32-1.52m28.55-27.84,0.53-.28c-1.5-1.16-2-2.84-2.54-4.45a2.13,2.13,0,0,1,.13-0.89l0.32,0a11.38,11.38,0,0,0,.58,1.79,1.06,1.06,0,0,0,1.56.44c-0.3-.88-0.6-1.72-0.85-2.57a0.62,0.62,0,0,1,.29-0.53c1.65-.21,3.31-0.41,5-0.55,0.72-.07.9,0.28,0.83,1a25.35,25.35,0,0,0-.08,4.64,9.19,9.19,0,0,1,0,2.46,1.51,1.51,0,0,1-.69,1.07c-1.39.38-1.75,1.74-2.64,2.58a20.56,20.56,0,0,0-1.6,1.91,12.4,12.4,0,0,1-4.78-7.22,26.18,26.18,0,0,0,2.19,2.85,23,23,0,0,0,2.68,2l0.25-.26c-2.19-2.15-4.21-4.4-4.43-7.67,0.85,1.37,1.59,2.84,3.31,3.61M48,37.93c-0.78-1.53-1.79-6.63-1.48-7.12L46,28.91a5.09,5.09,0,0,0-2.6,1.27c-0.58.43-1,1-1.58,1.52a0.88,0.88,0,0,1-.51.11A20.46,20.46,0,0,1,40,33.36,12.32,12.32,0,0,0,36.7,37a0.79,0.79,0,0,0,.39,1.26,7.37,7.37,0,0,1,4,4A11.51,11.51,0,0,0,42,43.58c0.22-1.55.37-3,.65-4.4a23.29,23.29,0,0,1,1-3.43,3.53,3.53,0,0,1,1-1l0.31,0.12a5.23,5.23,0,0,1-.06,1c-0.43,1.7-.9,3.39-1.39,5.24L48,37.93M95.89,136a3.21,3.21,0,0,0-3.47,0q-2.48,1.56-4.93,3.15a1.08,1.08,0,0,1-1.74-.47l8.82-5.44a5,5,0,0,0-3.72.78c-2,1.27-4,2.68-6,3.92a2.85,2.85,0,0,1-1.45-.31,4.94,4.94,0,0,1,.66-0.89c0.25-.22.67-0.25,0.91-0.48A8.19,8.19,0,0,1,88.5,134c1.32-.33,2.54-1,3.87-1.31a18.58,18.58,0,0,1,3.81-.21c1.6,0,3.19.08,4.79,0.17,2.28,0.13,2.3.14,2.61,2.45,0.17,1.29.22,2.6,0.38,3.89a8.09,8.09,0,0,0,.36,1.28c-3-2-6.43-2.51-9.71-3.77l1.28-.48m-20.27-5.71,1.5-1.3c-0.63-.68-1-0.07-1.41.18a2.17,2.17,0,0,0-.41.95l0.32,0.17m4.61-5c-0.29-.64-0.56-0.77-1-0.43s-1.06.74-1.56,1.14a1,1,0,0,0-.13.49,1,1,0,0,0,.51.08c0.74-.41,1.46-0.85,2.18-1.28M71,141.59l-2.53-5.34,0.23-.12c0.5,0.95,1,1.91,1.51,2.84a2.51,2.51,0,0,0,.73.68,0.52,0.52,0,0,0,.37-0.24,2,2,0,0,0-.11-0.87c-0.39-.91-0.85-1.79-1.24-2.7a1.53,1.53,0,0,1,0-.69c0.8,0,.56-0.72.75-1.13a2.65,2.65,0,0,1,.27-0.81,11.88,11.88,0,0,0,3-4.84,2.68,2.68,0,0,1,.38-0.59,6.52,6.52,0,0,0,1.19-3.55,2.26,2.26,0,0,1,.41-0.8l0.15,0.1v-0.9l1.1-.09a4,4,0,0,1,.26-3.34l0.84,1.1a2.78,2.78,0,0,0,.25-0.83,10.27,10.27,0,0,0-.38-2c-0.37-1.06-.4-2,0.14-2.49l1.22,3.48a4.27,4.27,0,0,0,.55,4.37c0.74-1.7,2.39-2.21,3.8-3.05a2.88,2.88,0,0,1-1.59,2.06c-1,.54-2,1.22-3,1.87a0.86,0.86,0,0,0-.1.44,1.33,1.33,0,0,0,.53,0c0.6-.32,1.19-0.68,1.78-1l0.25,0.21c-4.06,5.75-8.08,11.51-10.79,18.23m39.26-2.5h5.91c-0.78-1.24-4.45-1.16-5.91,0m5.79,8.63c-0.53-.5-1-1-1.54-1.45a7.28,7.28,0,0,0-4.65-2.18c-1.49-.1-2.08-1.13-2.63-2.15a25.1,25.1,0,0,1-1.25-3.4l5-.92c1.09-.19,2.18-0.41,3.28-0.51a1.67,1.67,0,0,1,1.21.35c2,2,2.3,4.6,2,7.24-0.12,1.1-.23,2.38-1.47,3m-10.5-16.37a14.43,14.43,0,0,1,1.77-.34c1.42-.1,2.84-0.13,4.26-0.19a5.17,5.17,0,0,1,1.36-.05,13.53,13.53,0,0,1,6.13,2.77,11.39,11.39,0,0,1,2.38,2.43,6.73,6.73,0,0,1,.3,5.92,5.1,5.1,0,0,1-2.27,2.61,10.36,10.36,0,0,0-4.15-9.66l0.68-.37a3.28,3.28,0,0,0-1-.58,12.79,12.79,0,0,0-5.69.81c-1.12.43-2.26,0.81-3.41,1.21-0.24-.67-0.12-1,0.48-1.16,1-.27,2-0.59,3-0.9,0.65-.21,1.29-0.45,1.93-0.67l-0.07-.28c-2-.65-3.58.74-5.46,1.09l-0.22-2.63m52.42,13.08h0a1.49,1.49,0,0,1,.18-0.34c0.5-.48,1-1,1.54-1.42a0.42,0.42,0,0,1,.45.7c-0.43.49-.9,0.95-1.38,1.39a0.53,0.53,0,0,1-.46.14,1.43,1.43,0,0,1-.33-0.48m-4,1.17h0c-0.46-1.58,1-3.59,2.59-4.06a1.74,1.74,0,0,1,.66.09,1.49,1.49,0,0,1-.14.66c-1,1.12-2.07,2.21-3.11,3.31m-0.45-5.18c-0.69.84-1.37,1.69-2.07,2.52s-1.41,1.65-2.24,2.61a2.1,2.1,0,0,0,.94.42,1.3,1.3,0,0,0,.79-0.72,10.52,10.52,0,0,1,3.41-4.61,2.21,2.21,0,0,1,1.14,0,2.1,2.1,0,0,1-.2.82c-1,1.23-2.09,2.43-3.13,3.64-0.39.46-.78,0.93-1.27,1.53,0.74,0.6,1.51,1.16,2.21,1.81a22.72,22.72,0,0,1,2,2.13,0.78,0.78,0,0,0,1.37.11,16,16,0,0,0,4.19-5.78c0.2-.51.4-1,0.62-1.54a0.65,0.65,0,0,0-.5-1,2.41,2.41,0,0,0-1.52,0,16,16,0,0,0-2.07,1.79c-0.52-.71.3-2,1.53-2.45a1,1,0,0,0-.22-0.33,35.86,35.86,0,0,0-3.6-1.88,19,19,0,0,0-3.59-1c-0.77-.15-1.1.43-1.26,1.24a6.61,6.61,0,0,1-.91,1.74,1.88,1.88,0,0,0-.43.74,2.84,2.84,0,0,1-1.16,2.32l0.64,0.68a24.26,24.26,0,0,1,1.75-2.46,31.16,31.16,0,0,1,2.67-2.49,1.74,1.74,0,0,1,.74-0.16l0.19,0.27M94.76,76.51l1.11-1.62-0.29-.3a8.54,8.54,0,0,1-1.15.84c-0.61.31-.82,1.17-1.76,1.09A13.7,13.7,0,0,0,90,76.7c-1.56.16-3.12,0.35-4.75,0.53l1.91-4.41-0.26-.16a5.34,5.34,0,0,0-.86.94c-0.69,1.24-1.31,2.52-2,3.77a3.16,3.16,0,0,1-.53.58l-0.25-.22c0.71-1.49,1.39-3,2.13-4.47a1.57,1.57,0,0,1,.81-0.85,32.73,32.73,0,0,1,4-.38c1.15,0,2.31.11,3.46,0.15a10,10,0,0,0,1.7-.05c0.5-.07,1-0.35,1.49-0.37,0.87,0,1.76.15,2.61,0,1.88-.28,3.74-0.69,5.86-1.1-1.63,1.68-2.2,3.92-4.06,5.22a1.85,1.85,0,0,1,.36-0.84c0.6-.9,1.21-1.79,1.79-2.7a1.66,1.66,0,0,0,.1-0.6,1.53,1.53,0,0,0-.53.24c-0.72.78-1.41,1.59-2.12,2.38a5.21,5.21,0,0,0-.8.84c-0.58,1.08-.77,1.21-1.95,1,0.66-.94,1.32-1.86,2-2.79a1.28,1.28,0,0,0,.07-0.51,1,1,0,0,0-.5.08,23,23,0,0,0-2.17,2.57,2.2,2.2,0,0,1-2.78,1m38.74,49.84c0.47,0.34.94,0.69,1.43,1l0.42-.59a6.17,6.17,0,0,0-1.22-1.24,1.92,1.92,0,0,0-.83.37l0.19,0.47m3-.42a1.8,1.8,0,0,0-.51-2.06,0.6,0.6,0,0,0-.53-0.12,0.83,0.83,0,0,0-.37.54c0.35,0.62.42,1.5,1.42,1.64m-4.88,2.94c-0.92-1.54-1.69-2.93-2.57-4.24a0.93,0.93,0,0,1,.12-1.45,13.16,13.16,0,0,1,3.93-2.74c0.62-.22,1.18-0.63,1.82-0.79A1.29,1.29,0,0,1,136,120a25.76,25.76,0,0,1,1.55,2.29c-0.93.69-.65,2,0.55,2.84,1-.64-0.14-1.51.21-2.26,0.38,0.48.71,0.94,1.09,1.36a2.85,2.85,0,0,1,.75.69,16.28,16.28,0,0,1,.39,2.6,0.8,0.8,0,0,1-.42.63c-0.54.19-1.15,0.21-1.68,0.42a1.24,1.24,0,0,1-1.5-.3A1.61,1.61,0,0,0,135,128a6.57,6.57,0,0,1-3.37.9M49.88,37.67c1,0,2.1.07,3.19,0.15s2.36,0.24,3.55.33c0.37,0,.74-0.1,1.11-0.11a0.93,0.93,0,0,1,.65.15,1.46,1.46,0,0,0,2,.3,4,4,0,0,1-.24-1.2,5,5,0,0,0-.94-2.94,29.22,29.22,0,0,0-1.65-2.86,1.11,1.11,0,0,0-1.42-.66c-1.44.44-3,.55-4.42,1A7.52,7.52,0,0,0,49.55,33a1.27,1.27,0,0,0-.35,1,3.89,3.89,0,0,0,.54,2.31,3.34,3.34,0,0,1,.14,1.39m60,139.77a13.16,13.16,0,0,0-.37,1.94,15.8,15.8,0,0,0,.83,5.7c0.48,1.44.38,1.66-1,2.33a16.57,16.57,0,0,1-2.55,1.08c-1.18.33-2.4,0.5-3.7,0.76,0-1.43,0-2.59,0-3.75,0-1.53-.11-3.07-0.17-4.6a1.22,1.22,0,0,1,1-1.43c0.92-.24,1.81-0.64,2.71-1a5.15,5.15,0,0,1,.71-0.13c0.16,2.16.16,2.16,0.85,2.73a6,6,0,0,0,.67-3.38l1.08-.29M66.51,209.61l-0.23.06c-0.09-.36-0.19-0.72-0.27-1.08a4.64,4.64,0,0,0-.37-1.91c-1.56-1.88-1-4-1-6.11a7.85,7.85,0,0,1,0-1.53c0.3-1.47.81-2.91,1-4.39,0.3-2.66,1.76-4.83,2.76-7.19,0.22-.52.66-0.92,0.86-1.52a5.4,5.4,0,0,1,1.25-1.36c1-1.11,1.89-2.23,2.83-3.35,0.07,1,.12,1.87.19,2.91a38.37,38.37,0,0,0-7,25.49m93.17-90.07-0.29.2c-2.54-3.55-5.69-6.53-8.64-9.7l-0.39.32c2.58,3.37,5,6.82,8,9.94l-0.24.22-5.51-4.19a1.05,1.05,0,0,0-.15.45,10.77,10.77,0,0,0,1.84,2.33c1.46,1.1,3.09,2,4.63,3a0.76,0.76,0,0,0,1.28-.23l0.55,1.8c-2.3-1.09-4.36-2.08-6.43-3a4.27,4.27,0,0,0-1-.2,3.56,3.56,0,0,1-1.37-1.34,17.89,17.89,0,0,1-1.44-3.24,18.26,18.26,0,0,1-1-4.72,33.09,33.09,0,0,0-.38-4.33c-0.17-1.06-.31-2.13-0.46-3.2l0.23-.06c0.62,0.81,1.2,1.65,1.87,2.42,2.14,2.47,4.32,4.91,6.46,7.38a6.67,6.67,0,0,1,.68,1.29l-8.1-8.73-0.34.21a2,2,0,0,0,.2.7c1.36,1.69,2.74,3.36,4.13,5,0.51,0.61,1,1.2,1.54,1.82,1.19,1.45,2.39,2.89,3.55,4.37a12.33,12.33,0,0,1,.89,1.52M106.11,143.7c-3.76-.19-6.36,1.83-8.9,3.84-0.95-.83-0.95-0.83-1.19-2.58l-0.86.73-4.33-3.19c2.34-1.05,4.4-2,6.49-2.89a5.51,5.51,0,0,1,1.67-.14v0.21l-3.85,2.37,0.12,0.26a2.05,2.05,0,0,0,.62-0.07c0.87-.39,1.73-0.81,2.59-1.23,1.34-.65,2.67-1.2,4,0.2-1.44.65-3.21,0.51-4.64,1.91a3.57,3.57,0,0,0,.95.1c1.38-.34,2.75-0.75,4.14-1a2.15,2.15,0,0,1,1.29.24,20.14,20.14,0,0,1,1.93,1.27m48.42-38.59-0.24.21a19.85,19.85,0,0,0-1.87-1.71c-1.62-1.15-2.61-3.14-4.76-3.58a0.56,0.56,0,0,1-.17-0.3c-0.51-1.23-1-2.47-1.54-3.68a23,23,0,0,0-4.61-7.28c-1-1-2.15-1.89-3.22-2.83a10.77,10.77,0,0,1,3.26,1.32,54,54,0,0,1,4.86,4.29,30.89,30.89,0,0,1,2.07,2.53,14.88,14.88,0,0,1,1.06,1.09c1.28,1.9,2.53,3.83,3.78,5.75a1.77,1.77,0,0,1,.14.48l-0.16.17-5.21-4c-0.62.45-.3,0.75,0,1.05,1.89,1.77,3.79,3.53,5.66,5.32a9.33,9.33,0,0,1,.92,1.21M99.73,130.85c0.27-.46.52-0.93,0.8-1.38a2.32,2.32,0,0,1,.49-0.61,0.61,0.61,0,0,1,.53-0.1,0.75,0.75,0,0,1,.17.59c-0.11.47-.3,0.92-0.49,1.43h0.87c0-.88,1.67-3.77,2.67-4.13l-1.19,3.16,0.18,0.19a2.72,2.72,0,0,0,.7-0.65c0.52-1,1-2.1,1.46-3.14a6.51,6.51,0,0,1,.79-1.25,1.24,1.24,0,0,1,.61-0.15,1.22,1.22,0,0,1,.06.52c-0.51,1.3-1,2.59-1.57,3.88a0.3,0.3,0,0,0,.09.33L108.8,124c-1.11-.35-2.23-0.71-3.35-1a4.16,4.16,0,0,0-3,.1,1.21,1.21,0,0,1-.52.07,2.23,2.23,0,0,0-2.46,2.29c-0.12,1.78,0,3.57,0,5.35l0.26,0.08M59.81,166.9c0.4,0.89.73,7.91,0.36,9.82l-0.55-2.82-0.34,0a2.74,2.74,0,0,0-.37.95c0,1.85-.31,3.76.83,5.45v0.17c-0.16,1.49-.44,3-0.46,4.46a24.07,24.07,0,0,0,.33,4.67,46.34,46.34,0,0,0,1.31,4.63,1.31,1.31,0,0,1-.68-0.61c-0.68-1.16-1.32-2.34-2-3.47s-1.63-2.3-1.28-3.85a7.8,7.8,0,0,0,.18-1.12c0.13-1.74.2-3.48,0.38-5.21s0.4-3.49.72-5.21a16.49,16.49,0,0,1,.89-4.28,1.2,1.2,0,0,0,0-.53,2.21,2.21,0,0,1,0-.68c0.24-.81.53-1.61,0.77-2.33m5.42-19.72,1.14,3.95-0.35.13-1.5-1.76-0.27.14a5,5,0,0,0,.16.74c0.3,0.78.66,1.55,0.91,2.35a1.6,1.6,0,0,1-.28.76,1.92,1.92,0,0,1-.62-0.32c-0.31-.37-0.56-0.79-1-1.36,0,0.7-.86,1.21.21,1.73A1.12,1.12,0,0,1,64,155.1a1.05,1.05,0,0,1-.84.33,2.17,2.17,0,0,1-.58-0.85c-0.26.88-.54,1.76-0.78,2.65s-0.49,1.91-.72,2.87-0.52,1.95-.72,2.94-0.29,1.9-.43,2.9c1.06,0.17.92,1.18,1.12,2,0.14,0.56.17,1.14,0.3,1.71,0.21-2.38-.7-4.76-0.19-7.13l0.4,0L62.27,167l0.35,0c0-.87,0-1.74,0-2.61,0-1.54-.13-3.07-0.13-4.61,0-.88.12-1.76,0.19-2.64l0.26-.11a2.34,2.34,0,0,1,.39.8c0,1.17,0,2.34,0,3.51h0.28l0.43-3.7,0.27,0,0.45,0.95c0.33-1.17.61-2.28,1-3.37,0.74-2.26,1.55-4.49,2.26-6.76a2,2,0,0,0-.11-1.31c-0.38-.79-0.9-1.52-1.44-2.39a2.68,2.68,0,0,0,0,.54c0.29,1.21.62,2.4,0.89,3.61a1.58,1.58,0,0,1-.24.7,2.47,2.47,0,0,1-.53-0.54c-0.33-.66-0.6-1.34-0.89-2l-0.46.15m-38.53-77,0.18,0.17c-0.36.78-.74,1.55-1.07,2.34-0.63,1.53-.11,3.05.15,4.54a17.32,17.32,0,0,0,1.13,3.26,0.88,0.88,0,0,1-.46,1.36l-4,1.63c0-2.48,0-4.66,0-6.85,0-.46-0.13-0.92-0.14-1.39A2.13,2.13,0,0,1,22.56,74c1.33-1.31,2.75-2.53,4.14-3.78m-4.8.73a3.39,3.39,0,0,1,0,1.33,20.89,20.89,0,0,1-1.48,2c-0.42.55-.86,1.09-1.29,1.63L17.65,77.7l-0.44-1.3a1.61,1.61,0,0,0-.16.35c-0.13.86-.27,1.72-0.37,2.59a17,17,0,0,0,.11,6,3.19,3.19,0,0,1-.26,1.22l-0.29,0A1.68,1.68,0,0,1,16,86c-0.19-1.36-.45-2.72-0.53-4.08-0.13-2.3-.2-4.62-0.16-6.92A3.59,3.59,0,0,1,16,73a3.78,3.78,0,0,1,1.62-1,15,15,0,0,1,1.86-.43c0.74-.19,1.48-0.41,2.43-0.68m46,12.25c-0.41,1.35-.76,2.4.18,3.6a22.07,22.07,0,0,1,2.28,4,13.32,13.32,0,0,0,2.75,3.46l2.58,2.58c0.2,0.2.41,0.39,0.45,0.43l-0.49-4.75c-1.56-.24-2.49-1.37-3.24-2.9a31.37,31.37,0,0,0-2.68-4.07c-0.53-.76-1.15-1.46-1.83-2.32M89.11,292.81c0.79-3.64,1.93-7.2,1.59-11a1.81,1.81,0,0,1-.8-1.18c-1-2.11-1.26-4.46-2.15-6.6a19.57,19.57,0,0,1-.7-2.64l-0.26,0A17.5,17.5,0,0,0,87,274c0.68,2.85,1.51,5.67,2.17,8.52,0.4,1.72.59,3.48,0.87,5.23l-0.42.11c-1.1-2.73-1.58-5.67-2.74-8.59a2.3,2.3,0,0,0-.17.66c0,0.44.16,0.88,0.22,1.32,0.19,1.34.28,2.69,0.56,4,0.39,1.85.93,3.66,1.35,5.5a18.86,18.86,0,0,1,.25,2.06m26-205.9,0.18,1.6a3,3,0,0,0,.6-0.92,18,18,0,0,0,0-2.33c-0.05-1-.16-2.05-0.27-3.33-0.44.59-.83,1-1.16,1.54a6.84,6.84,0,0,1-1.58,2.08,9.52,9.52,0,0,0-1.62,2c-0.4.52-.81,1-1.23,1.56-0.56.67-1.13,1.32-1.69,2l0.17,0.22c1.33-.26,2.67-0.49,4-0.79,1.6-.36,1.7-0.56,1.81-2.25a6.37,6.37,0,0,1,.44-1.45l0.34,0M128.62,207a1.82,1.82,0,0,1-.33-0.85,31.25,31.25,0,0,1,3.17-8.33c0.63-1.25,1.2-2.38.32-3.43-1.19,2.65-2.48,5.26-3.55,7.95s-1.81,5.22-2.71,7.83c-0.08.24-.23,0.47-0.31,0.71a0.86,0.86,0,0,0-.1.55c0.5,0.68,1,1.32,1.55,2l1.95-6.38h0a18,18,0,0,1,.57-2.26c0.71-1.83,1.49-3.64,2.28-5.45a14.71,14.71,0,0,1,.89-1.53,43,43,0,0,1,.17,4.47c0,3.27-.14,6.53.68,9.77a23.81,23.81,0,0,0,4.36,9.23c0.54,0.68,1,1.39,1.56,2.09l-0.16.16c-0.71-.39-1.44-0.74-2.11-1.19a46.45,46.45,0,0,1-4.07-2.88c-0.64-.53-1.63-0.91-1.52-2.09s0.14-2.48.18-3.72a2.55,2.55,0,0,0-.22-0.74H131a7.65,7.65,0,0,0-1,3.76,0.71,0.71,0,0,1-.1-0.4c0.26-2,.53-4,0.77-6a4.62,4.62,0,0,0-.07-0.93h-0.32c-1.06,1.93-1.2,4.11-1.58,6.47a2.41,2.41,0,0,1-.57-0.84,9,9,0,0,1,.17-2.4c0.64-2,1.09-4.15,1.58-6.24a1.89,1.89,0,0,0-.22-0.79l-0.25.05Zm-66.2-5.6-0.23.14-4.5-6.22-0.28.16a6.38,6.38,0,0,0,.48,1.31c1.73,2.73,3.45,5.47,5.28,8.13A9.34,9.34,0,0,1,65,208.58c-1.8-1.86-3.53-3.77-5.23-5.71a5.22,5.22,0,0,1-1.16-1.63,25.56,25.56,0,0,1-1.55-8.35l5.35,8.49m61.77,8.36c-0.77-.53-0.69-1.33-0.26-2.2a10.08,10.08,0,0,0,.39-1.15c1.08-3,2.26-6,3.2-9.12,0.58-1.9,2-2.78,3.64-3.78-1.35,2.82-2.7,5.43-3.85,8.13s-2.12,5.5-3.12,8.12M142,216.27l2.59,9.28a1.5,1.5,0,0,1-.37-0.18,24.94,24.94,0,0,1-4.68-5.13,1,1,0,0,1,.07-0.9c0.75-1,1.57-2,2.39-3.07M152.77,42.92c0.42,0,.92,0,1.4.13,2.66,0.46,5.33.89,8,1.43,1.56,0.32,3.08.79,4.6,1.26a2,2,0,0,1,.62.78,2.17,2.17,0,0,1-1,.41c-1.21-.24-2.39-0.65-3.6-0.91-1.79-.38-3.6-0.65-5.39-1s-3.67-.2-4.64-2.07m-71.6,19,6.88,1a10.5,10.5,0,0,0-2.83-4.28,0.64,0.64,0,0,0-.55-0.15A15.8,15.8,0,0,0,83,59.78c-0.56.52-1.07,1.11-1.59,1.68a2.13,2.13,0,0,0-.22.41m55.48-33.33c0.75-.31,1-0.16,1.2.38a5.29,5.29,0,0,0,.82,1.54c1.21,1.51,2.47,3,3.74,4.44a2.43,2.43,0,0,0,1,.18c-1.35-2.67-3.66-4.39-4.49-7.07a1.25,1.25,0,0,1,.74.49,10.46,10.46,0,0,0,.43,1c1,1.22,2,2.39,3,3.59a1.71,1.71,0,0,1,.5.6,6.39,6.39,0,0,0,2.21,3.92,6.7,6.7,0,0,1-4-2.07c-0.86-1-1.77-2-2.56-3.14s-1.68-2.53-2.56-3.87M87.11,299.27c0.18-4.14-1.67-8.21-.42-12.36,1.92,3,2.2,8.94.42,12.36M69.55,227a5.61,5.61,0,0,0-.41-1.11,5.67,5.67,0,0,1-1.21-3.07c1.53,1.8,3.89,2.4,4.8,4.57l-2.08-1.55a1.16,1.16,0,0,0,.07,1,14.06,14.06,0,0,0,2,2.1c1.46,1.13,3,2.16,3.65,4.06a1.37,1.37,0,0,1-.31-0.12c-1.59-1.14-3.19-2.25-4.74-3.43a6.25,6.25,0,0,1-1.17-1.34,8.1,8.1,0,0,1-.58-1.09M103.85,98.94a3.06,3.06,0,0,1-.35.58c-1,1-2,2-3.1,2.91A6.56,6.56,0,0,1,97,104.26a8.26,8.26,0,0,0-1.39.46l-1.25.43-0.12-.29a7.93,7.93,0,0,0,1.57-1.31,4.1,4.1,0,0,1,3-1.9,6.3,6.3,0,0,0,1.56-.51,1.21,1.21,0,0,0,.34-0.43l-0.49-.11-1-.23c1.41-1.24,3.06-1,4.69-1.42m53.43-51.11c1.55,0.32,3.07.53,4.54,1,2.22,0.63,4.41,1.38,6.59,2.13a4.31,4.31,0,0,1,1.06.81A0.55,0.55,0,0,1,169,52a34.79,34.79,0,0,0-9.09-2.32,3,3,0,0,1-2.62-1.81m12.85,7a0.89,0.89,0,0,0-.39-1.41c-3-.87-6.08-1.69-9.13-2.52a1.51,1.51,0,0,0-.44,0c0.63,1.31,1.88,1.61,3.07,1.93,2.07,0.57,4.15,1.08,6.22,1.63a3.64,3.64,0,0,1,.67.35M117,8.7l-0.14-.32a2.4,2.4,0,0,0-.67.12c-0.76.38-1.52,0.75-2.24,1.19a2.49,2.49,0,0,1-2.75.26c1.07-.72,2.12-1.45,3.21-2.12a1.44,1.44,0,0,1,1.06-.2,29.37,29.37,0,0,1,2.77,1.18,1.63,1.63,0,0,1,.4.47c-1,.83-1.47,2.12-2.83,2.38a3.23,3.23,0,0,1,.42-0.52,4.6,4.6,0,0,0,.32-0.81,4.66,4.66,0,0,0-.84.11c-0.42.13-.82,0.33-1.22,0.5l-0.08-.19,2.6-2M179.11,28c-1.09-1.45-2.75-1.41-4.26-1.72a14.42,14.42,0,0,1-2.21-.45c-1.76-.66-3.33-0.05-4.9.58a1.47,1.47,0,0,0-.39.6l0.18,0.29c0.83-.21,1.65-0.45,2.49-0.62a12.13,12.13,0,0,1,1.73-.21,0.83,0.83,0,0,1,.65.18c0.49,0.88,1.31.62,2.06,0.71,1.56,0.18,3.11.42,4.67,0.64m-56.82,46h-2l-1.4,2.95c0.75-.63,1-0.3,1.06.29l0.32,1.91a4.27,4.27,0,0,0,.5-0.65c0.48-1,1-2.08,1.4-3.14a5.23,5.23,0,0,0,.67-2.07,9.19,9.19,0,0,0-.84-2.41c-1.05.94-.93,1.43,0.31,3.12M77,40.83a5.68,5.68,0,0,1,.38.65c0.57,1.37,1.07,2.76,1.69,4.1a36.16,36.16,0,0,1,2.36,5.09c0.11,0.38.17,0.78,0.26,1.17l-0.25.09c-0.38-.59-0.81-1.15-1.13-1.77-0.86-1.64-1.67-3.31-2.51-5-0.69-1.37-1.49-2.72-.79-4.38M14.26,75.7c-1.43,3.95-.46,7.88.13,11.82,1.24-.17.81-1.11,0.77-1.72-0.15-2.22-.44-4.43-0.61-6.65-0.09-1.14,0-2.29,0-3.44H14.26M69.57,220.34c-0.43-.23-0.72-0.38-1-0.55-1.28-.75-2.07-2.26-3.76-2.41a1.27,1.27,0,0,1-.53-0.67c-0.33-.6-0.63-1.21-0.92-1.82s-0.45-1-.62-1.45c1.38,1.08,2.74,2.27,4.22,3.28a5.79,5.79,0,0,1,2.61,3.62M84,298.15c-0.33,1.15-.73,2.29-1,3.46a10.62,10.62,0,0,0,.13,1.65c-0.08,2.17-.2,4.33-0.3,6.49a2.93,2.93,0,0,0,1-2.08,23.35,23.35,0,0,0,.38-3.76c0.06-1.9,0-3.81,0-5.71l-0.24,0M168.52,48.79a10.2,10.2,0,0,1-1.5-.58,11.22,11.22,0,0,0-4.9-1.44,31,31,0,0,1-3.16-.61c-0.63-.11-1.27-0.18-1.91-0.26L155,45.63l-0.12.35a4,4,0,0,0,1.34.6A26.45,26.45,0,0,1,163,47.74c1.58,0.46,3.14,1,4.72,1.45a2,2,0,0,0,.72-0.07l0-.33M61.27,209.12c1,0.89,1.74,1.65,2.56,2.36,1,0.88,2.08,1.71,3.1,2.59a2.61,2.61,0,0,1,.86,2.2c-0.68-.5-1.2-0.87-1.7-1.27-1-.77-1.89-1.57-2.86-2.32a2.41,2.41,0,0,0-.89-0.19l-1.07-3.37M72.21,32.17c-1.36-.08-1.8-1.17-2.55-1.77A13.16,13.16,0,0,1,67.48,28c-1-1.33-1.94-2.71-2.88-4.08-0.52-.76.19-1.13,0.45-1.52,1,1.68,1.91,3.46,3.07,5.05s2.63,3.06,4.09,4.71M137.54,217a0.86,0.86,0,0,1-.36-1.48c1.18-1.55,2.37-3.1,3.56-4.64,0.25-.32.52-0.63,0.78-0.95l0.3,0.13a6.81,6.81,0,0,1-.57,2.37c-1.12,1.59-2.45,3-3.72,4.57M85.36,293.09v11.67a11,11,0,0,0,.93-2.12,10.38,10.38,0,0,0,.1-2.57c-0.07-1.38-.21-2.75-0.35-4.12-0.1-1-.24-1.91-0.36-2.86H85.36m54.46-107c-1.26,0-1.58-.46-1-1.46a31.25,31.25,0,0,0,3.39-7.05,1.7,1.7,0,0,1,.7-0.5l0.21,0.21-3.32,8.8M125.33,23.4c0-1.87-1.54-1.55-2.47-1.75a33.27,33.27,0,0,0-4.47-.42,3,3,0,0,0-.42,0c-0.18,1.3-.13,1.22,1.05,1.27,1.51,0.06,3,.35,4.51.55,0.6,0.08,1.19.21,1.8,0.33m-24.1,16.54c-1.33-2.09-2.63-4.09-3.89-6.13A2.63,2.63,0,0,1,97,31.15c0.48,0.69.87,1.2,1.21,1.75,1,1.65,1.58,3.55,2.81,5.1,0.34,0.42,1,1,.21,1.93M95.6,34.22c0.22,0.65.41,1.31,0.66,1.94a16.76,16.76,0,0,0,3.39,5.44,3.76,3.76,0,0,0,.8.5,2.58,2.58,0,0,0,.05-1.27c-0.64-1-1.45-1.91-2.14-2.9-0.86-1.24-1.65-2.52-2.48-3.78l-0.29.07m54.56,9.29-0.61-.35c-1-.59-2-1.21-3-1.75s-2.06-1-3.11-1.49c-1.42-.65-2.87-1.24-4.28-1.91a1.72,1.72,0,0,1-.41-0.74L139,37.1c0.95,0.37,1.92.67,2.83,1.12,2.39,1.17,4.78,2.36,7.1,3.65,0.53,0.29,1.55.39,1.27,1.64m21.16,14.14c-1.24-.39-2.41-0.77-3.58-1.13s-2.14-.68-3.22-0.94A1.55,1.55,0,0,1,163.27,54c0.29,0.1.58,0.22,0.88,0.31,1.93,0.54,3.85,1.1,5.79,1.6a1.7,1.7,0,0,1,1.38,1.73M109.14,94.38c-1.86.47-3.91,0.22-5.44,1.76,0.55,0,1.1,0,1.64,0a1.49,1.49,0,0,1,.53.33,1.5,1.5,0,0,1-.44.35c-0.92.26-1.85,0.48-2.78,0.73a2.3,2.3,0,0,0-.89.49c1.1-.06,2.21-0.08,3.31-0.19a1.69,1.69,0,0,0,.74-0.49q1.31-1.11,2.6-2.25c0.26-.23.48-0.5,0.72-0.75m31.64-67a2.45,2.45,0,0,1,.55.54,15.84,15.84,0,0,0,1.13,2.34c1.4,1.88,2.89,3.68,4.37,5.49,0.78,0.95,1.6,1.86,2.4,2.79a2.85,2.85,0,0,1-2.37-1.16c-0.43-.55-0.88-1.09-1.31-1.65a6.15,6.15,0,0,1-.5-0.81,24.91,24.91,0,0,0-1.45-2.7c-1.07-1.51-2.45-2.81-2.83-4.83M59.51,204.52c1.45,3.41,4.49,5.45,7,8l0.25-.16a9.56,9.56,0,0,0-1.11-1.91c-1.25-1.33-2.62-2.54-3.91-3.83-0.7-.7-1.33-1.48-2-2.22l-0.2.12M80.24,313.2c0.63-.76,1.41-1,1.41-2.14,0-2.07.29-4.15,0.43-6.22a1.74,1.74,0,0,0-.18-0.6,7.22,7.22,0,0,0-1.06,4.4,44.55,44.55,0,0,1-.6,4.57M105.95,137.7l8.07-1.76-0.12-.78a2.06,2.06,0,0,0-.59,0c-2.23.52-4.44,1.1-6.68,1.56a0.71,0.71,0,0,0-.68,1m16.71,69.41,3.57-10.43-0.13-.11a3.29,3.29,0,0,0-.51.6c-0.59,1.19-1.21,2.37-1.71,3.59s-0.9,2.52-1.34,3.79a0.91,0.91,0,0,1-.12.32c-0.83.89-.24,1.57,0.24,2.23M47,78.76c-0.31.62-.65,1.23-0.93,1.86-1.08,2.43-2.15,4.86-3.17,7.31a2.24,2.24,0,0,0,.44,1c1.36-3.13,2.65-6,3.89-9a3,3,0,0,0,0-1.1L47,78.76M75.84,52.82h0.28a17.86,17.86,0,0,0,3.71,4.64,5.46,5.46,0,0,1,.91,1.12,1.69,1.69,0,0,1,0,.8,1.88,1.88,0,0,1-.86-0.14,6.61,6.61,0,0,1-1-1.19c-0.92-1.26-1.85-2.5-2.69-3.81a4.07,4.07,0,0,1-.29-1.41M124.1,197.23a0.76,0.76,0,0,0-1.11.55,29.33,29.33,0,0,1-2.1,4.21c-0.51.83,0,1.45,0.08,2.16h0.46c0.92-2.24,1.81-4.48,2.71-6.73a0.45,0.45,0,0,0,0-.19M69.41,2.67l1,0.39,4-3.05H72.83a24.4,24.4,0,0,0-3.42,2.67m25,153.16-1,.26-1.09,6.65c0.59,0.06,1,.32,1.1-0.36,0.34-2.06.69-4.12,1-6.19a1.55,1.55,0,0,0-.06-0.36m28.13,25.79A1.56,1.56,0,0,0,121.1,183c-0.23.95-.59,1.86-0.83,2.8a1.85,1.85,0,0,0,.07,1c0.2,0.57.5,1.1,0.86,1.89l1.32-7.08m-45-80.32c-1.79-2-4.15-3.39-4.56-6.23,1.79,1.79,4.22,3.09,4.56,6.23m2.06,207.87c-0.78,2-2.37,3.58-2.84,5.83l1.45-.66a2.33,2.33,0,0,0,1.25-2.13c0.12-1,.29-2,0.44-3l-0.3-.05M18.44,78.33l-0.93-.21v7.63l0.4,0.09a3.17,3.17,0,0,0,.52-1.1c0.06-2,0-4,0-6.06,0-.09,0-0.18,0-0.34M65.1,218.51c1.42,2.55,3.92,3.76,6.08,5.55-0.24-1.69-2.57-3.77-6.08-5.55M171.65,60c0-1.16-1-1.12-1.63-1.41-1-.43-2-0.82-3-1.17-0.59-.21-1.22-0.31-2.09-0.52a4.11,4.11,0,0,0,.75,1.39,5,5,0,0,0,1.4.31c1.35,0.41,2.69.86,4,1.29a4.9,4.9,0,0,0,.52.11M144.36,176.55l0.34,0.1a3.19,3.19,0,0,1-.11.66c-1.15,3-2.3,6-3.49,8.95a1.47,1.47,0,0,1-.58.4l-0.14-.21,4-9.9M88.34,31.4c1.05,0,2-.32,2.59.7s1.09,2,1.54,3.09a11.31,11.31,0,0,1,.46,1.87l-0.36.17a12.2,12.2,0,0,0-4.24-5.83m3.07,131.19c0.1-1.05.15-2,.28-3s0.36-2.05.55-3.15l-1.39.53c0,0.44-.08,1.06-0.15,1.68-0.1,1-.16,1.93-0.35,2.87s0.55,1,1,1.1M19.77,85.3l0.47-1.71A12,12,0,0,1,20,82c0-1.55,0-3.11,0-4.65-0.64.1-.75,0.2-0.76,0.94,0,1.13,0,2.25,0,3.38A11.14,11.14,0,0,1,19,84.25c-0.2.71,0.17,0.79,0.8,1m78-56.54A1.42,1.42,0,0,0,97.46,27c-0.5-.62-0.4-1.73-0.55-2.63a2.41,2.41,0,0,1,0-.56c0.11-1.41.25-2.81,0.33-4.22,0-.53.25-1.19-0.62-1.51a17.26,17.26,0,0,0-.11,5.36,18.06,18.06,0,0,1,.19,2.42,3.21,3.21,0,0,0,1.05,2.86m-34.2-3.71,4.91,6.36a4.15,4.15,0,0,1-1.32-.54,7.65,7.65,0,0,1-2.28-2.75,2.87,2.87,0,0,0-.86-1.39,1.16,1.16,0,0,1-.45-1.68M75,100.24c0.32,2.46,2.42,3.67,3.46,5.7,0.42-1.56-1.35-4.39-3.46-5.7M147.78,101a7.56,7.56,0,0,0,.89,1.5c0.78,0.82,1.66,1.55,2.49,2.32l4,3.76c0-.47-0.45-1-2-2.51-0.89-.84-1.68-1.78-2.54-2.65s-1.74-1.69-2.61-2.53l-0.18.1M120,200.69l-0.28-.19c-0.58-2.12.9-3.5,1.8-5.14a1.3,1.3,0,0,1,.3,1.65c-0.51,1-1,2.06-1.46,3.08-0.1.21-.24,0.4-0.36,0.6M159.7,43.37c0.19-.76-0.58-0.78-1.07-0.85a28.66,28.66,0,0,1-6-1.2,2.71,2.71,0,0,0-1.52.12,19.14,19.14,0,0,0,4.08,1.23c1.44,0.28,2.89.46,4.47,0.71m-48.25,141.5c0.18-2.74.35-5.48,0.52-8.2-1.11.1-1.84,0.91-1.16,1.89,0.91,1.32-.05,2.5.25,3.72a16.88,16.88,0,0,1,.25,2.65ZM75.69,56c1.24,1.31,2.49,2.63,3.73,4a0.62,0.62,0,0,1,.17.46,1.35,1.35,0,0,1-.32.64,1.55,1.55,0,0,1-.89-0.4,28.75,28.75,0,0,0-2-2.76c-0.62-.64-1-1.18-0.73-1.91M108.3,176.09a20.44,20.44,0,0,0,.93-1.88q1.07-2.84,2-5.73a3.64,3.64,0,0,0,0-1.11l-0.26,0L108,175.94l0.33,0.15M93.9,147.26c0.78,0.13.58,0.63,0.45,1.13-0.44,1.62-.9,3.23-1.3,4.86-0.23.93-.18,0.94-0.85,1.09,0.31-1.74.58-3.49,0.95-5.22a10.86,10.86,0,0,1,.76-1.85M126.39,25.58a4.63,4.63,0,0,0-1.08-.79,19.07,19.07,0,0,0-6.44-1.07c-0.46,0-.78.05-0.56,0.62,2.79-.35,5.33.54,7.85,1.57l0.24-.34m-37.9,85.73c1.44-2.06,3.79-2.46,5.93-3.26a5,5,0,0,1-2.9,2.06,29.16,29.16,0,0,0-3,1.2m7.76,27.34a9.32,9.32,0,0,1-1.62.91A8,8,0,0,0,91,141.85c-0.27.29-.5,0.41-0.73-0.07a3.83,3.83,0,0,0-.55-0.67c1.41-.66,2.76-1.25,4.07-1.92a2.86,2.86,0,0,1,2.45-.54M136.92,171a30,30,0,0,1-2.3,3.47,3.08,3.08,0,0,0-1,2.82l2.28-3.43c0.4-.6.84-1.19,1.18-1.82a3,3,0,0,0,.16-1l-0.37-.06m-39.48-65.9c-1.93.06-5.36,1.78-6.29,3.19,2-1.41,4.69-1.05,6.29-3.19m12.77-71.36a3,3,0,0,1-1.36-.1c-1.34-1.32-2.76-2.62-2.88-4.53l4.24,4.63m-4.05,40.34,3-6.48,0.29,0.1a2.88,2.88,0,0,1-.08.83c-0.61,1.51-1.21,3-1.91,4.49a1.39,1.39,0,0,1-1.33,1.06m-84.63.93A6.06,6.06,0,0,0,21,76.69c-0.06,2.4,0,4.81,0,7.21L21.22,84a1.89,1.89,0,0,0,.43-0.77c0-1.18-.2-2.35-0.24-3.52a26.26,26.26,0,0,1,.1-2.73c0-.63.16-1.25,0.24-1.87l-0.23-.08M96.77,16.53V15.85a1.6,1.6,0,0,1-.85.07A1.16,1.16,0,0,1,95.61,15c0.24-1.79.54-3.57,0.81-5.35a0.42,0.42,0,0,0-.2-0.38c-0.17.8-.34,1.6-0.51,2.4-0.07.31-.16,0.62-0.25,0.92A6.52,6.52,0,0,0,95,14.17c0,1,.1,1.94.17,3l1.57-.62m69.4,8.85,0-.29a19.21,19.21,0,0,1,2.44-.88,12.83,12.83,0,0,1,3.26-.4,4.71,4.71,0,0,1,1.72.93l-0.11.26a1.66,1.66,0,0,1-.75-0.13A2.78,2.78,0,0,0,170,24.5c-1,.27-1.91.61-2.88,0.88a3.65,3.65,0,0,1-.94,0M61.3,197.16l-4.24-7.58-0.34.15a11,11,0,0,0,.78,2.14c1.14,1.84,2.38,3.62,3.58,5.42l0.21-.12m30-86.19c-1.86,1.05-4,1.23-5.08,3.24,1.59-1.13,4.06-.74,5.08-3.24m70.58,14.45L155,122.66a0.73,0.73,0,0,0,0,.4c0.41,0.41.86,0.8,1.31,1.17a0.86,0.86,0,0,0,.52.28c1.34-.5,2.26.68,3.43,0.84,0.51,0.07,1,.22,1.51.34l0.1-.28M113,185.14l-0.18,0c0.08-1.32.19-2.63,0.24-3.95a6.36,6.36,0,0,1,1.71-4.21c-0.38,1.54-.74,2.88-1,4.23s-0.49,2.64-.74,4m28.73,28.7c-1.17,1.28-2.36,2.55-3.49,3.87a1.63,1.63,0,0,0,.08.84,2,2,0,0,0,.58-0.31c1-1.08,2-2.15,2.89-3.27a2.6,2.6,0,0,0,.24-1.05l-0.3-.07M114.32,7.07l-0.73-.77-5,3c2.27-.05,3.77-1.48,5.73-2.21m-6.8,62.37a1.88,1.88,0,0,0-.68.51,16.88,16.88,0,0,1-2.9,4.42,1,1,0,0,0,0,.34,2,2,0,0,0,.82-0.28,14.21,14.21,0,0,0,2.92-4.78l-0.19-.21M95.93,149l-0.84-.52-1,4.46c-0.05.23-.14,0.45-0.17,0.67-0.08.5,0.11,0.72,0.45,0.61L95.93,149M69,146.55c-1-.72-2-4.2-1.44-5.23,0.73,1.69,1.82,3.21,1.44,5.23M84.1,73.07a1.71,1.71,0,0,0-1.47,1.38c-0.35,1.57-1,3.07-1.38,4.74a2,2,0,0,0,.54-0.51c0.78-1.85,1.54-3.71,2.31-5.6m-35.85-21,0.19,0a3.71,3.71,0,0,1,.24,1.1,14.07,14.07,0,0,1-1.24,5.15,0.73,0.73,0,0,1-.36.26l1.18-6.48M21.76,63c-0.23,1.08.66,1.43,1.2,1.87,1.12,0.91,2.35,1.7,3.56,2.5a2.51,2.51,0,0,0,.83.14L21.76,63M74.33,183.32c0.69-.62,1.36-1,1.49-1.93a17.63,17.63,0,0,1,.51-2c-1.36.38-2.1,1.79-2,4m33.32-53.86-0.34-.16a4.36,4.36,0,0,1,.2-0.7c0.6-1.26,1.23-2.5,1.82-3.76,0.32-.7.48-0.76,1.15-0.32l-2.83,4.94m-28.4-19c-1-1.64-2.26-2.94-2.42-4.88,1.39,1.32,2.51,2.68,2.42,4.88M42.1,87.31A1.15,1.15,0,0,1,42,85.76c0.59-1.1,1.12-2.22,1.69-3.33,0.27-.51.58-1,0.87-1.5l0.23,0.13L42.1,87.31m66.47-15.05c1.57-.55,2.78-3.59,2.4-5.43a2.61,2.61,0,0,0-.32.06c0.13,2-1.4,3.44-2.09,5.38M119.63,7.14c0.93,0.6,2,.23,3.05-0.26,0.9-.4,1.85-0.68,2.8-1a1,1,0,0,0-1.32-.3c-1.55.52-3.09,1.06-4.53,1.57M79.42,115c0.44-2.08-.6-3.44-1.76-4.91A9.87,9.87,0,0,0,79.42,115M110,175.27l2.07-5.67,0.45,0.16c-0.22.69-.44,1.39-0.67,2.09a15.76,15.76,0,0,0-.73,2.23,1.15,1.15,0,0,1-1.12,1.2M83.84,117.2c1.51-.91,3.63-0.81,4.47-2.89-1.62.86-3.5,1.14-4.47,2.89m4.21,23a1,1,0,0,0,1.38-.1c1.11-.78,2.33-1.4,3.5-2.08-1-.48-2.43.18-4.88,2.18m58.37-12.27-3.63-1.52v1.54l3.55,0.28,0.09-.3M51.72,74.75L51.91,75a0.87,0.87,0,0,1-.16.41c-0.9.53-1.8,1.06-2.72,1.53a0.78,0.78,0,0,1-.62-0.19A1,1,0,0,1,48.62,76c1-.45,2.06-0.82,3.1-1.21m24-15.68a4.16,4.16,0,0,0,1.75,3.54,0.45,0.45,0,0,0,.66-0.47c-0.28-.44-0.62-0.84-0.94-1.25l-1.47-1.83m40,119-1.18,6c0.95-.2.82-1,1-1.65a28.77,28.77,0,0,0,.54-3,9.67,9.67,0,0,0,0-1.34l-0.35,0m9.39-112.91c0.42-1.61-.48-2.64-1.23-3.77a3.22,3.22,0,0,0,1.23,3.77M65.46,30.4c-1.54-.52-2-1.84-2.54-3.15-0.58,1.34-.6,1.7.15,2.45a2.9,2.9,0,0,0,2.39.71m70.46,139.16c-0.77,1.09-1.48,2-2.09,3a3.75,3.75,0,0,0-.25,1.27l0.29,0.1c0.71-1.14,1.45-2.26,2.12-3.42a2.11,2.11,0,0,0-.07-1M76.52,84c0.63-.83,1.18-1.52,1.66-2.24a1.37,1.37,0,0,0,.07-0.8c0-.44-0.13-0.87-0.22-1.41A11.66,11.66,0,0,0,76.52,84M48.94,79.53l3.23-3.23L48.85,78.1c0,0.39.05,0.87,0.09,1.44M126.58,4.48c0.39,1,2.58,1.54,5,1.31l-5-1.31m1,126.22c1.71-1.14,1.83-2,.51-3.58l-0.51,3.58M123.13,20.51c-0.6-1.09-3.81-1.51-4.72-.47l4.72,0.47M79.39,51.32l-3-5.66a3.65,3.65,0,0,0,.12,1.39c0.86,1.51,1.81,3,2.74,4.43l0.19-.17m68.92-10.76a1.26,1.26,0,0,0-.15-0.53c-1-.5-2-1-3.06-1.42a1.56,1.56,0,0,0-.75.18,3.62,3.62,0,0,0,.56.41c0.86,0.41,1.72.81,2.59,1.19a4.22,4.22,0,0,0,.82.17m-29.14,156c0.28-1.38,1.93-2.2,1.52-3.85-0.87.39-1.86,2.76-1.52,3.85M79.34,80.42l1.59-5.11c-1.8,1.22-1.36,3.28-1.86,5l0.26,0.12m46.8-34.91-2.24-.77-0.22.33,2.15,2.05,0.31-1.61M80,177.72c-1.42,0-1.94.52-2.49,2.74l0.19,0.16,2.3-2.9m39.74-135a2.53,2.53,0,0,0-.35-0.92,16.74,16.74,0,0,0-1.76-1.14,1.35,1.35,0,0,0-.53-0.05,1.08,1.08,0,0,0,0,.53,3.21,3.21,0,0,0,.83.8,17.86,17.86,0,0,0,1.78.78M82.22,119.49c1.27-.58,2.85-0.49,3.85-2a8.08,8.08,0,0,0-3.85,2m31.52-73c-1.06.79-1.68,0.11-2.34-.29a1.41,1.41,0,0,1-.3-0.57,1.38,1.38,0,0,1,.67-0.26c0.65,0.31,1.27.71,2,1.13m23.58-6.36c-0.78-1.11-1.86-1.63-2.34-2.76,1.11-.07,2.39,1.36,2.34,2.76M25.93,68.31l-0.07.1c-1-.48-1.95-0.93-2.91-1.43-0.61-.32-1.3-0.62-1.17-1.55l4.15,2.88m98.66-.83c-1.56-1.37-1.69-1.7-.86-2.54,0.31,0.89,1.58,1.29.86,2.54m35.26,59.47,3.48,1.24,0.19-.2a2.39,2.39,0,0,0-.77-0.87,27.21,27.21,0,0,0-2.84-.43l-0.05.25M70.33,143.32l-2.15-4.67c-0.18.72,1.2,4,1.9,4.78l0.24-.11m8.25-58.83-1.22,3.07c1.35-.52,1.72-1.34,1.47-3l-0.24-.09M49.7,54.17l-1.3,3.92c0.54,0.14.94-.11,1.11-1s0.2-2,.28-3ZM133.47,156l1.36-4.86-0.24-.07c-1.1,1.42-.83,3.26-1.12,4.93M167.93,23.28h-4a1.66,1.66,0,0,0,1.7.73c0.79-.22,1.57-0.49,2.34-0.73M133.07,143.7c-1.1,1.43-.28,3-0.61,4.53l0.35,0q0.13-2.28.26-4.57M98.85,18.33l-0.56,4.56c1-1.56.81-3.06,0.8-4.53l-0.24,0m34.53,152.86c-0.38-1.15.47-1.72,0.73-2.49a1.12,1.12,0,0,1,.5-0.28,1.28,1.28,0,0,1,.15.66c-0.39.68-.85,1.33-1.38,2.11m-19-157.78A3.06,3.06,0,0,0,112,14.69c1,0.14,2.44-.63,2.37-1.28M66.44,84.12c0.57-2,.57-2,0-2.27-0.9,1.5-.9,1.68,0,2.27m16.69,92.72c-1.54-.17-1.67,1.05-2.37,1.85,1.33,0,1.66-1.06,2.37-1.85m24.94-9.54a8.75,8.75,0,0,0,.66-1.54c0.22-.94.32-1.91,0.45-2.87l-0.23,0-1,4.38ZM63.43,80.72c0.29-1.23.29-1.23-.62-1.9-0.62,1.19-.52,1.48.62,1.9M92.31,41.09l-0.67-1.61-1.14.59,1.45,1.19,0.36-.16m70.94-19.6-4-1.61-0.08.21L163.07,22l0.18-.47M57.76,49.6c0.82,0.83.35,2.36,1.9,2.8l-1.57-3-0.33.15m57.35-4.12c-0.56-.48-1.11-1-1.7-1.44a1.34,1.34,0,0,0-.69,0,1.92,1.92,0,0,0,.36.49c0.59,0.42,1.2.8,1.81,1.2l0.22-.29m-3.72,108.05,2.77,2.31c0.14-.8-1.27-2-2.77-2.31M22.53,68.24c0.23,0.25.43,0.51,0.68,0.74a3.24,3.24,0,0,1,.63.46c0.46,0.75.74,0.34,1.15-.16L22.7,68.08Zm70.68-37-0.86.31,1.08,2,0.38-.16-0.6-2.1M32.92,72.76l-1.86,2.73c1.1-.47,2.08-1.84,1.86-2.73m76.45-24.84,1.67-.13,0.06-.29a4.25,4.25,0,0,0-1.22-.6,1.93,1.93,0,0,0-.69.7l0.18,0.32M98.85,13.65c-0.15.72-.32,1.45-0.43,2.18a1,1,0,0,0,.29.44,1.09,1.09,0,0,0,.38-0.41c0-.73,0-1.46,0-2.2H98.85m24,53.24c-0.39,1.39.55,1.87,1.16,2.54l0.24-.13-1.4-2.4M112,174.44c1-.38,1.3-1.15,1-2.5l-1,2.5m28.37,5.06c0.4-.82.73-1.4,1-2a1.46,1.46,0,0,0-.2-0.71,1.32,1.32,0,0,0-.51.45c-0.12.68-.16,1.37-0.25,2.27M136.94,37.25c0.05-1.14-.22-1.5-1.3-1.46l1.05,1.63,0.25-.17M40.8,85.57l1.08-2-0.13-.18a8.08,8.08,0,0,0-1.23,1.11,2.39,2.39,0,0,0,.28,1.07m69.7,40.9L109,129.15a2.69,2.69,0,0,0,1.47-2.68M124.79,2.55l-3-.31,0,0.29,3,0.39,0-.38m13,30.47,1.58,2.23,0.32-.23-1.62-2.18-0.29.18M14.52,57.7V54.88H14.16l0.14,2.82h0.22M87.85,175.93c-1,0-1,0-1.55,1.37,0.92,0,1.1-.8,1.55-1.37M107.73,34.17l-1.38-1.78c0,1.28.26,1.64,1.38,1.78m24.6,133,0.3,1.88,0.87-1.28-1.17-.6M106.54,93.4l3.16-.66,0-.21-3.21.56,0.09,0.31M137.2,11l-2.86.66c0.62,0.38,1.43.22,2.86-.66M26,50.8l-0.23-.08,1.13-3.17,0.26,0.09L26,50.8m1.37,0.79L28,49.77l-0.43-.16-0.66,1.82,0.38,0.17M156.65,20.15l2.09-.2c-0.93-.63-1.55-0.6-2.09.2M49.51,74.54L51,74.05l-0.88-.68-0.69,1,0.12,0.2m15.5,6a7.13,7.13,0,0,0-.55,1.2,1.89,1.89,0,0,0,.52.68l0.28-1.69L65,80.52M164,0l0.68,1A4.61,4.61,0,0,0,167,0h-3Z"/><path class="cls-3" d="M238.3,38.54a1.65,1.65,0,0,1,.17-1.81,0.41,0.41,0,0,1,.38-0.1,0.45,0.45,0,0,1,.28.3c-0.12.56-.27,1.12-0.42,1.67l-0.41-.06M237.43,35a3.09,3.09,0,0,1,.88-2.8,0.73,0.73,0,0,1,.76.76c-0.39.77-.51,1.79-1.64,2m-0.57-2.83c0.53-1.06,1.05-2.13,1.62-3.17a1.33,1.33,0,0,1,.62-0.27,1.56,1.56,0,0,1,.19.76,6.24,6.24,0,0,1-2.09,2.84l-0.34-.15m-1.39-8.61c-0.74.29-1.3,0.55-1.88,0.72-2.14.63-3.09,2.44-3.65,4.24s0.13,3.51.84,5.11A25.78,25.78,0,0,0,233,37.18,14,14,0,0,0,240.22,43c0.38,0.13.74,0.38,1-.38a27.31,27.31,0,0,1,1.4-3.55c0.76-1.72,1.56-3.42,2.34-5.12a16.92,16.92,0,0,0,1.18-2.6,37.11,37.11,0,0,0,1.47-5.07c0.2-1.68.1-3.13-1.29-4.33-0.82-.71-1.45-1.64-2.27-2.36a1.91,1.91,0,0,0-1.4-.42A6.27,6.27,0,0,0,239,21.54c-1.44,1.62-1.62,3.48-1.67,5.56l1.19-.6a16.47,16.47,0,0,1-.75,1.86c-0.61,1.08-1.28,2.12-1.94,3.16a0.94,0.94,0,0,1-.42.18,1,1,0,0,1-.15-0.43c0.07-.31.27-0.59,0.33-0.9a1.07,1.07,0,0,0,0-.79c-0.93-.74-0.4-1.76-0.48-2.62a17.35,17.35,0,0,1,.37-3.43m-33.7.24c1.19,0,1.85,1.16,2.89,1.52a1.38,1.38,0,0,1,.12.63l-0.22.13-3-2,0.17-.27m4.66,2a17.27,17.27,0,0,1-3.51-3.21c3.23,1.8,4,2.54,3.51,3.21m1.63-.9-3.34-3,0.27-.35,2.42,1.73c0.22,0.16.41,0.37,0.64,0.52,0.58,0.38.6,0.48,0,1.11m-1.84-5.09c1.7,1.44,3.4,2.87,5.09,4.32,0.39,0.34.64,0.72-.07,1.11a36,36,0,0,1-5.38-5.07l0.35-.36m5.57,11.45a1.81,1.81,0,0,1-.16-0.62c0.32-1.89.69-3.78,1-5.67a1.45,1.45,0,0,0-.22-1.12c-1.35-1.27-2.78-2.46-4.15-3.7a4.65,4.65,0,0,1-.61-0.87l0.21-.23c2,1,3.63,2.75,5.73,3.76a2,2,0,0,0-.58-1.11c-1.11-1-2.25-2-3.38-3l0.08-.29a2,2,0,0,1,.92,0c1,0.61,1.93,1.3,2.9,1.93a5,5,0,0,0,.87.36l0.11-.19-2.83-2.69c1.73-.77,2.42,1,3.63,1.26l0.14-.21-2.32-2.18a1.73,1.73,0,0,1,.7-0.39c0.87,0.44,1.69.95,2.55,1.44,0.36-.65-0.46-0.7-0.64-1.08s-0.26-.57-0.38-0.86a3.53,3.53,0,0,1,1.09-.1,5.52,5.52,0,0,1,1.16.55l0.1-.16-0.87-1.31a5,5,0,0,1,1.1,0,1.22,1.22,0,0,0,1.71-1.12l3.64-1.54c-1.85-1.39-3.38-2.71-3.89-5.07a37.28,37.28,0,0,0-5.69,1.5,17.4,17.4,0,0,0-5.15,3.22,80,80,0,0,0-5.83,6.83c-0.68.82-1.26,1.72-1.9,2.58a4.8,4.8,0,0,0-.63.74,13.79,13.79,0,0,0-1.64,4.93c-0.06,1.12,0,1.41.9,1.52,2.15,0.27,4.31.48,6.41,0.93a13.39,13.39,0,0,1,5.29,1.86,1.38,1.38,0,0,0,.63,0m42.57-5.59a2.89,2.89,0,0,0,.06.59c0.39,1.22.82,2.42,1.16,3.64a2,2,0,0,1-.32.92,1.82,1.82,0,0,1-.72-0.52c-0.47-1.3-.84-2.64-1.3-3.94a3.39,3.39,0,0,0-.65-0.84l-0.23.15c0.18,0.63.4,1.25,0.52,1.89,0.22,1.11.37,2.22,0.56,3.33a0.75,0.75,0,0,0,.18.46c0.9,0.58,1.79,1.19,2.74,1.69,1.61,0.84,3.32,1.5,4.86,2.44,1.3,0.8,1.34,1.85.41,2.68-0.46-.35-0.89-0.71-1.36-1-1.06-.66-2.12-1.33-3.23-1.92-1.62-.87-3.3-1.66-4.92-2.54a11.17,11.17,0,0,1-1.52-1.22,1.4,1.4,0,0,0,0,.37c0.72,2.17,1.43,4.33,2.18,6.49a1.11,1.11,0,0,0,.54.62c1.32,0.51,2.64,1,4,1.44a47,47,0,0,1,7.79,2.83V28.6l0,0a15.92,15.92,0,0,0-1.27-2.3c-0.67-.84-1.67-0.74-2.64-0.48a2.2,2.2,0,0,1,.06.92,0.83,0.83,0,0,1-.68.39,1.56,1.56,0,0,1-.8-0.8,1,1,0,0,0-1.28-.91,3.24,3.24,0,0,0,.06.8c0.22,0.63.51,1.22,0.72,1.85a0.94,0.94,0,0,1-.05.73,0.64,0.64,0,0,1-.62.11,2.79,2.79,0,0,1-.81-1,20.17,20.17,0,0,1-.52-2.28c-0.51,0-.67.17-0.47,0.75a23.88,23.88,0,0,1,.78,2.67,1.84,1.84,0,0,1-.3.82,1.85,1.85,0,0,1-.87-0.42c-0.5-1.16-.91-2.37-1.38-3.64l-0.65-.12m-30.4-12a18.71,18.71,0,0,0-2.9,1.88A43.43,43.43,0,0,0,218,19a4.62,4.62,0,0,0-.78.85c-1.13,2.38-2.49,4.69-2.92,7.34a16.48,16.48,0,0,0,0,6.68,17.6,17.6,0,0,1,.63,1.79,2.34,2.34,0,0,0,1.72,2,1.92,1.92,0,0,0,2.19-1.2,10.08,10.08,0,0,1,3.4-4.8c1.74-1.42,3.58-2.72,5.44-4,1.31-.88,1.84-1.87,1.3-3a17.63,17.63,0,0,0-1-1.83c-0.92-1.47-1-1.52-2.52-.88-1.76.72-3.5,1.51-4.41,3.36-0.27.55-.51,1.11-0.77,1.66-0.37.78-.85,0-1.28,0.08a4.92,4.92,0,0,1,0-.82,4.28,4.28,0,0,1,.26-0.7c-0.45-.22-0.27-0.78.1-1.25,0.68-.84,1.43-1.62,2.2-2.47l-0.54-1.59a1,1,0,0,1,1.29.65c0.38,0.56.72,0.47,1,.15-0.33-.54-0.6-0.95-0.83-1.37s-0.43-.82.09-1a1.15,1.15,0,0,1,.91.44,11.62,11.62,0,0,1,.92,1.62,1.73,1.73,0,0,0,.07-0.56c-0.33-.8-0.69-1.59-1-2.39a0.64,0.64,0,0,1,.54-1l1.62,3,0.08,0L224,13.62m31.93,6.74a2.71,2.71,0,0,1,2.28-1.06,2,2,0,0,1,.81.63,5.91,5.91,0,0,1-.76.4,4.68,4.68,0,0,1-1.25.34,3.79,3.79,0,0,1-1.08-.3m-9.32-7.07-0.4-.31a10.45,10.45,0,0,1,.91-1.72c0.63-.81,1.39-1.53,2.08-2.3a9.26,9.26,0,0,0,.6-0.88,2.18,2.18,0,0,0-.62.2c-1.15,1.14-2.32,2.26-3.41,3.46a1.32,1.32,0,0,0,0,1c0.23,0.61.57,1.19,0.91,1.87,0.28-.11.6-0.26,0.92-0.36a7,7,0,0,1,2-.55,26.93,26.93,0,0,1,4.6.36,5,5,0,0,1,3.32,1.64,22.21,22.21,0,0,1,1.23,2.06c-1.25.57-2.42,1.12-3.61,1.64a0.79,0.79,0,0,1-.5,0,1,1,0,0,1,0-.72,16.48,16.48,0,0,1,1.51-1.08l0.72-.5-0.1-.22a4.11,4.11,0,0,0-.9.17c-0.93.4-1.84,0.86-2.77,1.26a4.58,4.58,0,0,1-1,.19l-0.2-.41,2.71-2.21a2.94,2.94,0,0,0-.85.15c-1.39.73-2.76,1.51-4.14,2.25a2.32,2.32,0,0,1-.69.13,2.71,2.71,0,0,1,0-.71,1.05,1.05,0,0,1,.37-0.43c0.65-.52,1.31-1,2-1.53a0.52,0.52,0,0,0-.45.06c-1.35,1-2.72,1.91-4,2.94a1.21,1.21,0,0,0,.15,1.07,11.07,11.07,0,0,0,1.69,1.55,25.1,25.1,0,0,0,2.76,2,6.86,6.86,0,0,0,4.24.62c2-.18,4,0.11,6,0.08a6.25,6.25,0,0,0,1.78-.59c0-.76,0-1.48,0-2.2-0.09-1.64-.19-3.29-0.36-4.93a6.51,6.51,0,0,0-.56-2.45A38.69,38.69,0,0,0,260,10.16a2.9,2.9,0,0,0-.71-0.52l0,0.33-2.1.72c-0.62-1.44,1.16-.92,1.18-1.74-0.77-.56-0.76-0.54-1.48,0-0.93.67-1.88,1.31-2.82,2l-0.24-.23c-0.06-1.42,1.58-1.7,2.23-2.92a3.46,3.46,0,0,0-.94.3c-0.56.44-1.08,0.92-1.6,1.4-1,.93-2,1.87-3,2.78a1.53,1.53,0,0,1-.68.14,1.68,1.68,0,0,1,.11-0.76,22.44,22.44,0,0,1,1.78-2c0.63-.61,1.32-1.15,2-1.72l-0.32-.43a5.12,5.12,0,0,0-1.61.68c-1.41,1.33-2.72,2.77-4.09,4.15-0.35.36-.76,0.66-1.15,1M221.67,40.38a2.31,2.31,0,0,0,0,.43,23,23,0,0,0,3.21,8.39c1.46,2.23,3.62,3.72,5.62,5.36a38.1,38.1,0,0,0,4.33,2.77,1.78,1.78,0,0,0,1.05.32,1.15,1.15,0,0,0,.78-0.63c0.38-1.06.68-2.15,1-3.23,0.19-.65.84-1.29,0-2a1.38,1.38,0,0,1-.22-0.74,32.07,32.07,0,0,1-.91-7.14,2.59,2.59,0,0,0-.25-0.78c-0.55,2.58.53,5.17-.54,7.69a3.31,3.31,0,0,1-.54-1.42c-0.13-1.68-.17-3.37-0.29-5.06-0.05-.75.26-1.56-0.23-2.24l-0.37,0-0.64,4.25a1.12,1.12,0,0,1-.51-0.74,16.45,16.45,0,0,1,.05-3.84c0.23-1.07-.3-1.41-0.91-1.92l-0.57,2.48-0.49-.06V38h-0.37a12.77,12.77,0,0,1-.13,1.82,11.15,11.15,0,0,1-.61,1.64l-0.27-.08a1.16,1.16,0,0,1-.13-0.39c0.09-1.17.23-2.34,0.29-3.51a6.81,6.81,0,0,0-.21-1.31c-0.93,1.2-1.57,2.19-1.37,3.57,0.28,2,.45,4,0.62,6a8.2,8.2,0,0,1-.2,1.65,0.82,0.82,0,0,1-.58-0.41c-0.43-1.35-.84-2.7-1.25-4a3.84,3.84,0,0,0-.54-1.6,16.62,16.62,0,0,1-3.05-4c-0.36-.63-0.8-1.22-1.2-1.82l-0.31.15a5.66,5.66,0,0,0,.44,1.22c0.83,1.3,1.74,2.55,2.57,3.86a3.73,3.73,0,0,1,.28,1.13l-0.33.09-3.06-4.21-0.32.15,1.7,4.32-0.26.09-1.25-1.9m4-40.38a3.77,3.77,0,0,0-.1,3A5.42,5.42,0,0,1,226,6.28a24.8,24.8,0,0,0,0,3.41V11l-0.29.07a2,2,0,0,1-.23-0.62c0-1.07,0-2.15,0-3.22a2.77,2.77,0,0,0-.31-0.82,2.8,2.8,0,0,0-.39.68c-0.24,1-.43,2-0.64,3-1.07-.46-1.11-0.6-0.79-1.73a4.67,4.67,0,0,0,.07-1L223,7.24l-0.86,1.34A33.59,33.59,0,0,1,221,4.23,22.1,22.1,0,0,1,220.84,0h4.86Zm2.51,0c-0.27.8-.39,1.61-0.66,2.35l-0.4-.08L227,0h1.22Zm6.22,5.57-0.85-1.72a1.44,1.44,0,0,0-.46,2.06,0.82,0.82,0,0,1-.63,1.36l-0.35-4.75-0.32-.06a3.57,3.57,0,0,0-.4.81c-0.2.94-.34,1.88-0.5,2.83,0,0.25-.05.51-0.08,0.76a1.26,1.26,0,0,1-.65-0.09,1.27,1.27,0,0,1-.32-0.84c0.09-.72.35-1.41,0.45-2.13a15.91,15.91,0,0,0,.12-3.4c-1.12,1.17-1.34,2.68-1.67,4.13h-0.27a4.36,4.36,0,0,1,0-1c0.28-1.18.63-2.35,0.89-3.54h5.12c0.34,1.21.54,2.46,0.86,3.68a1.67,1.67,0,0,1-1,1.9m9.17,11.62-5-5,0.23-.28c1.66,0.21,2.8,1.37,4,2.42a21.83,21.83,0,0,1-3.54-4.79l0.2-.23,2.18,1.55c-0.46-1.06-.6-2.27-1.85-2.8a6.94,6.94,0,0,1-2.08-1.38,1.08,1.08,0,0,0-1.67,0,6.38,6.38,0,0,0-.76.76,5.14,5.14,0,0,1-3.82,1.7,2.11,2.11,0,0,0-1.29.85,6.56,6.56,0,0,0-.76,1.65,9.63,9.63,0,0,0-.74,4.22c0.1,1.51,0,3,0,4.29,0.45,0.51.76,0.83,1,1.18,0.48,0.62.9,1.28,1.41,1.87a1.86,1.86,0,0,0,.89.06c-0.83-1.24-1.51-2.26-2.17-3.29a1.44,1.44,0,0,1-.06-0.6,1.53,1.53,0,0,1,.57.26c0.72,0.89,1.38,1.82,2.11,2.69a2.51,2.51,0,0,0,.76.43l0.17-.22c-0.2-.45-0.42-0.89-0.6-1.34a5.12,5.12,0,0,1-.18-0.72,4.8,4.8,0,0,1,.77.22,0.84,0.84,0,0,1,.38.37,1.33,1.33,0,0,0,2.16.56,4.9,4.9,0,0,1,.87-0.31l-0.57-1.72,0.26-.09,1,1.1a1.05,1.05,0,0,0,.13-1.66,8.86,8.86,0,0,1-.82-1.42,1.54,1.54,0,0,1,0-.67,1.74,1.74,0,0,1,.61.38c0.4,0.66.75,1.36,1.12,2,0.63-.26.69-0.47,0.35-1s-0.74-1.24-1.11-1.87l0.23-.27a8.38,8.38,0,0,1,1,.69c0.32,0.3.53,0.72,0.87,1a0.91,0.91,0,0,0,1.37-.12l-3.64-4.75,0.22-.21a0.88,0.88,0,0,1,.36.12,24.9,24.9,0,0,1,3.3,3.56,1.64,1.64,0,0,0,2,.82M208.94,32.06a12.53,12.53,0,0,1,2.73,1.59,2.85,2.85,0,0,1,.51,2.06c-0.1,1-.56,2.06-0.72,3.1s0.07,1.33,1.34,1a19.2,19.2,0,0,0,2.95,6.8c0.32-1.56-.71-2.79-1-4.2a39.22,39.22,0,0,0-1.3-4.08l0.38-.17a2,2,0,0,1,.44.67,37.9,37.9,0,0,0,3,9.44c0.17,0.4.41,0.76,0.72,1.33-1.86.87-3.65,1.79-5.52,2.52-1,.39-1.71-0.52-2-1.88a7.84,7.84,0,0,0-1.3-3.69,2.62,2.62,0,0,1,.1-0.7c-0.17-1.94-.43-3.88-0.53-5.82s0-4,0-6c0-.62.11-1.25,0.18-2m14.37,45c0.76-1.45.76-1.45,0.11-2.75-0.11-.21-0.25-0.4-0.36-0.6-0.55-1-1.12-2-1.63-3.06a2.36,2.36,0,0,1,0-.94l0.4-.11,2.82,4a6.6,6.6,0,0,0-.12-1.92c-0.65-1.55-1.43-3-2.12-4.57a11.46,11.46,0,0,1-.46-1.62c1.27-.16,1.23,1.17,2,1.51l-2.51-5.7,0.29-.18c1.67,0.81,1.78,2.83,3,4a17.78,17.78,0,0,0-.71-2.41c-0.6-1.64-1.23-3.27-1.81-4.91a4.07,4.07,0,0,1-.09-1.05l0.42-.11,2.5,4.73,0.24-.1c-0.33-.82-0.66-1.65-1-2.46-0.62-1.5-1.28-3-1.85-4.51a5.7,5.7,0,0,1-.13-1.52A6.23,6.23,0,0,1,223.49,54c0.67,1.17,1.21,2.42,1.82,3.67,0.4-1.05.78-2,1.14-3.05a0.71,0.71,0,0,0-.06-0.6c-1.14-1.25-2.3-2.47-3.44-3.68a5.53,5.53,0,0,0-2.12,3.27c-0.39,1.69-1,3.33-1.37,5-0.3,1.54-.33,3.13-0.5,4.69-0.06.57-.25,1.13-0.29,1.69-0.07,1.25,0,2.51-.14,3.76-0.08,1.08-.44,2.18.83,2.88a2.88,2.88,0,0,1,.84.9c1,1.47,2,3,3.11,4.51M216,0h-4.58A32.34,32.34,0,0,0,214,5.15,1.26,1.26,0,0,0,215.3,6c1-.16,2-0.24,3-0.39a0.56,0.56,0,0,0,.39-0.37c-0.07-.94-0.19-1.88-0.31-2.81a1.14,1.14,0,0,0-.27-0.74A11.94,11.94,0,0,1,216,0m45.6,0a21.91,21.91,0,0,0-6,2.56,7.89,7.89,0,0,0,.36-1.28C256,0.86,256,.43,256.07,0h5.53ZM249.69,1.42h-5.91c0.78-1.24,4.45-1.16,5.91,0M243.89,10c0.53-.49,1-1,1.54-1.45a7.29,7.29,0,0,1,4.65-2.18c1.49-.1,2.08-1.13,2.63-2.15A25,25,0,0,0,254,.87L249.22,0h-5c-1.81,2-2.09,4.48-1.82,7,0.12,1.1.23,2.39,1.47,3M242,0a10.15,10.15,0,0,0-1.54,6.83,5.1,5.1,0,0,1-2.27-2.61A7.37,7.37,0,0,1,237.8,0H242ZM202,6.76h0a1.38,1.38,0,0,0-.18-0.34c-0.5-.48-1-1-1.54-1.42a0.57,0.57,0,0,0-.51.17,0.57,0.57,0,0,0,.06.53c0.43,0.49.9,0.95,1.38,1.39a0.53,0.53,0,0,0,.46.14A1.4,1.4,0,0,0,202,6.76m4,1.17h0c0.46-1.58-1-3.59-2.59-4.06a1.76,1.76,0,0,0-.66.08,1.48,1.48,0,0,0,.14.66c1,1.12,2.07,2.21,3.11,3.31m0.45-5.18c0.69,0.84,1.37,1.69,2.07,2.52s1.41,1.65,2.24,2.61a2.11,2.11,0,0,1-.94.42A1.29,1.29,0,0,1,209,7.59,10.5,10.5,0,0,0,205.56,3a2.19,2.19,0,0,0-1.13,0,2.06,2.06,0,0,0,.2.82c1,1.23,2.08,2.43,3.13,3.65,0.39,0.46.78,0.93,1.27,1.53-0.74.6-1.51,1.16-2.21,1.8a22.85,22.85,0,0,0-2,2.13,0.78,0.78,0,0,1-1.37.11,15.93,15.93,0,0,1-4.19-5.78c-0.2-.51-0.4-1-0.62-1.54a0.65,0.65,0,0,1,.5-1,2.41,2.41,0,0,1,1.52,0,16,16,0,0,1,2.07,1.79c0.52-.7-0.3-2-1.53-2.45a0.94,0.94,0,0,1,.22-0.33A35.87,35.87,0,0,1,205,1.83a19,19,0,0,1,3.59-1c0.77-.15,1.1.43,1.26,1.24a6.55,6.55,0,0,0,.91,1.74,1.89,1.89,0,0,1,.44.74,2.84,2.84,0,0,0,1.16,2.32l-0.64.68A24.51,24.51,0,0,0,210,5.13a31.15,31.15,0,0,0-2.67-2.48,1.73,1.73,0,0,0-.74-0.16l-0.19.27m43.64,37a13.54,13.54,0,0,1,.37,1.94,15.81,15.81,0,0,1-.83,5.7c-0.48,1.44-.38,1.66,1,2.33a16.44,16.44,0,0,0,2.55,1.08c1.18,0.33,2.4.5,3.7,0.76,0-1.43,0-2.59,0-3.75,0-1.54.11-3.07,0.17-4.6a1.22,1.22,0,0,0-1-1.43c-0.92-.24-1.81-0.64-2.72-1a5,5,0,0,0-.71-0.14c-0.16,2.16-.16,2.16-0.85,2.73a6,6,0,0,1-.67-3.38l-1.08-.3M253.79,6c3.76-.19,6.36,1.83,8.9,3.84,0.95-.83.95-0.83,1.19-2.58L264.74,8l0.37-.27V3c-0.85-.38-1.69-0.74-2.53-1.1a5.52,5.52,0,0,0-1.67-.14c0,0.07,0,.14,0,0.2l3.85,2.37-0.12.27A2.08,2.08,0,0,1,264,4.58c-0.87-.4-1.73-0.82-2.59-1.23-1.34-.65-2.67-1.2-4,0.2,1.44,0.65,3.21.51,4.64,1.91a3.51,3.51,0,0,1-.95.1c-1.38-.34-2.75-0.75-4.14-1a2.13,2.13,0,0,0-1.29.24A20.14,20.14,0,0,0,253.79,6M231.28,69.3a1.81,1.81,0,0,0,.33-0.85,31.26,31.26,0,0,0-3.17-8.33c-0.63-1.25-1.2-2.38-.32-3.43,1.2,2.65,2.48,5.26,3.55,7.95s1.81,5.22,2.71,7.83c0.08,0.24.23,0.47,0.31,0.71a0.84,0.84,0,0,1,.1.55c-0.49.68-1,1.32-1.55,2l-1.95-6.38h0a18.2,18.2,0,0,0-.58-2.27c-0.71-1.83-1.49-3.64-2.28-5.45a15,15,0,0,0-.88-1.53,42.69,42.69,0,0,0-.17,4.47c0,3.27.14,6.53-.68,9.77a23.8,23.8,0,0,1-4.36,9.23c-0.54.68-1,1.39-1.56,2.08l0.16,0.16c0.71-.39,1.44-0.74,2.11-1.19a46.41,46.41,0,0,0,4.07-2.88c0.64-.53,1.63-0.91,1.52-2.09s-0.14-2.47-.18-3.71a2.5,2.5,0,0,1,.22-0.74h0.27a7.65,7.65,0,0,1,1,3.76,0.71,0.71,0,0,0,.1-0.4c-0.26-2-.53-4-0.78-6a4.61,4.61,0,0,1,.07-0.92h0.32c1.06,1.93,1.2,4.12,1.58,6.48a2.41,2.41,0,0,0,.57-0.84,9,9,0,0,0-.17-2.4c-0.64-2-1.09-4.15-1.58-6.24a1.89,1.89,0,0,1,.22-0.79l0.25,0.05Zm4.43,2.77c0.77-.53.69-1.33,0.26-2.2a10.12,10.12,0,0,1-.39-1.15c-1.08-3-2.26-6-3.2-9.12-0.58-1.89-2-2.78-3.64-3.78,1.35,2.82,2.7,5.43,3.85,8.12s2.12,5.5,3.12,8.12M217.89,78.6l-2.59,9.28a1.46,1.46,0,0,0,.37-0.18,24.93,24.93,0,0,0,4.68-5.13,1,1,0,0,0-.07-0.9c-0.75-1-1.57-2-2.39-3.07m4.47,0.71a0.86,0.86,0,0,0,.36-1.48c-1.18-1.56-2.37-3.1-3.56-4.65-0.25-.32-0.52-0.63-0.78-0.95l-0.3.13a6.8,6.8,0,0,0,.57,2.38c1.12,1.59,2.45,3,3.72,4.57m-2.28-30.93c1.26,0,1.58-.45,1-1.46a31.26,31.26,0,0,1-3.39-7.05,1.69,1.69,0,0,0-.7-0.5l-0.21.21,3.32,8.8M254,0l-0.12,0H254V0ZM237.25,69.44L233.68,59l0.13-.11a3.36,3.36,0,0,1,.51.6c0.59,1.19,1.21,2.37,1.71,3.59s0.9,2.52,1.34,3.79a0.92,0.92,0,0,0,.12.32c0.83,0.89.24,1.57-.24,2.24m-1.45-9.88a0.76,0.76,0,0,1,1.11.55,29.38,29.38,0,0,0,2.1,4.21c0.51,0.83,0,1.45-.08,2.16h-0.46c-0.92-2.24-1.81-4.48-2.71-6.73a0.47,0.47,0,0,1,0-.19M237.37,44a1.55,1.55,0,0,1,1.42,1.37c0.23,0.95.59,1.86,0.83,2.8a1.85,1.85,0,0,1-.07,1c-0.2.57-.5,1.1-0.87,1.89L237.37,44m-21.84-5.07-0.34.11a3.12,3.12,0,0,0,.11.66c1.15,3,2.3,6,3.48,8.95a1.46,1.46,0,0,0,.58.4l0.14-.21-4-9.9M239.9,63l0.28-.19c0.58-2.12-.9-3.5-1.8-5.14a1.3,1.3,0,0,0-.3,1.65c0.51,1,1,2.06,1.46,3.08,0.1,0.21.24,0.4,0.36,0.6m8.55-15.82L247.92,39c1.11,0.1,1.84.91,1.17,1.89-0.91,1.32.05,2.5-.25,3.72a16.87,16.87,0,0,0-.25,2.65Zm3.15-8.78a20.3,20.3,0,0,1-.93-1.88q-1.07-2.84-2-5.73a3.67,3.67,0,0,1,0-1.12l0.27,0,3.05,8.62-0.33.15M263.65,1a2.12,2.12,0,0,1,1.46,0V1.83A13.74,13.74,0,0,1,263.65,1M223,33.38a30,30,0,0,0,2.3,3.47,3.07,3.07,0,0,1,1,2.82L224,36.23c-0.4-.6-0.83-1.19-1.18-1.83a3,3,0,0,1-.16-1l0.37-.06m23.93,14.09,0.18,0c-0.08-1.32-.19-2.63-0.24-3.95a6.35,6.35,0,0,0-1.71-4.21c0.38,1.54.74,2.88,1,4.23s0.49,2.64.74,4m-28.73,28.7c1.17,1.28,2.36,2.55,3.49,3.86a1.6,1.6,0,0,1-.08.84,2,2,0,0,1-.58-0.31c-1-1.07-2-2.15-2.89-3.27a2.6,2.6,0,0,1-.24-1.05l0.3-.07M264,11.35l0.84-.52,0.3,1.35v3ZM249.91,37.6l-2.07-5.67-0.45.16c0.23,0.69.45,1.39,0.68,2.08a15.43,15.43,0,0,1,.73,2.23,1.15,1.15,0,0,0,1.13,1.2m-5.74,2.8,1.18,6c-0.95-.2-0.82-1-1-1.65a28.77,28.77,0,0,1-.54-3,9.53,9.53,0,0,1,0-1.34h0.35M224,31.89c0.77,1.09,1.48,2,2.09,3a3.77,3.77,0,0,1,.25,1.27l-0.29.1c-0.71-1.14-1.45-2.26-2.12-3.42a2.12,2.12,0,0,1,.07-1m16.74,27c-0.28-1.38-1.93-2.2-1.52-3.85,0.87,0.39,1.86,2.76,1.52,3.85m-14.3-40.59-1.36-4.86,0.24-.07c1.1,1.42.83,3.26,1.12,4.93M226.83,6c1.1,1.43.28,3,.61,4.54l-0.35,0Q227,8.31,226.83,6m-0.31,27.48c0.38-1.15-.47-1.72-0.73-2.49a1.11,1.11,0,0,0-.5-0.28,1.29,1.29,0,0,0-.15.66c0.39,0.68.85,1.33,1.38,2.11m25.3-3.89a8.82,8.82,0,0,1-.66-1.54c-0.22-.94-0.32-1.91-0.45-2.87l0.23,0,1,4.38Zm-3.31-13.76-2.77,2.31c-0.14-.8,1.27-2,2.77-2.31m-0.64,20.9c-1-.38-1.3-1.15-1-2.5l1,2.5M219.5,41.83c-0.41-.82-0.73-1.4-1-2a1.45,1.45,0,0,1,.2-0.71,1.34,1.34,0,0,1,.51.45c0.12,0.68.16,1.37,0.25,2.27m8.06-12.3-0.3,1.88-0.87-1.28,1.17-.6"/></g></svg>