<svg id="Layer_1" data-name="Layer 1" xmlns="http://www.w3.org/2000/svg" xmlns:xlink="http://www.w3.org/1999/xlink" viewBox="0 0 214.64 73.95"><defs><style>.cls-1{fill:none;}.cls-2{clip-path:url(#clip-path);}.cls-3{fill:#1d1d1b;}</style><clipPath id="clip-path"><rect class="cls-1" width="214.63" height="73.95"/></clipPath></defs><title>greenhurst-logo</title><g class="cls-2"><path class="cls-3" d="M134.32,26.28c0.78-3.87,2.84-7.37,2-14.33-0.92-8-3.77-11.38-4-12-0.26.61-.59,5.81-7.89,9.26-9.87,4.67-11.09,9-11.68,9.62-0.76.83-.9-2.94-0.9-2.94S107.21,21,105.65,24a15.13,15.13,0,0,0,3.12,18.25c-2.13,2.16-4.65,4.25-4.66,4.24A46.55,46.55,0,0,0,96.78,35a30.4,30.4,0,0,0-12.73-8.16,20.75,20.75,0,0,1,17.52,12.25c2.76-7.07-2.37-13.35-7.14-16.59a15.67,15.67,0,0,0-6.69-2.61s0.9,1.56.56,1.73c-0.84.43-3.9-1.18-9.17-1a23.44,23.44,0,0,0-9.84,2.33c-0.11.05,5.6,0.83,9.86,8.7,3.26,6,5.76,6.32,6.13,6.8s-2.17.92-2.17,0.92,9,6.8,17,2.77a20.29,20.29,0,0,1,2.79,5.68c0.34,1-.62,2.88.77,1.52s5.7-4.9,8-7.21c3.44-3.49,13.24-14.9,16.12-25.53C127.23,29,113.15,43.78,112.57,44.3c5.85,1.62,13.51-.73,18.38-6a27.54,27.54,0,0,0,6.71-12.56s-3.64,2-3.34.52"/><path class="cls-3" d="M214.62,46.33c0.09-.31-0.22-0.44-0.49-0.27a4.63,4.63,0,0,1-2.24.71c-0.63,0-1.57,0-3.23,0h-6.2a18.75,18.75,0,0,1-3.91-.18,2.4,2.4,0,0,1-1.12-.53c-0.27-.27-0.58-0.22-0.58.31,0,1.86-.27,3.64-0.27,4s0.49,0.58.63,0.13a3.5,3.5,0,0,1,1.3-1.86c1-.53,4-0.49,4.85-0.49,0.59,0,.67.13,0.67,0.89,0,0.35.09,1.38,0.09,4.53v4.4a35.69,35.69,0,0,1-.27,5.33c-0.13,1.2-1.39,1.38-3,1.82-0.45.13-.45,0.58,0.09,0.58,1.84,0,2.83-.13,4.18-0.13,1.75,0,2.92.13,4.45,0.13,0.58,0,.63-0.44.18-0.58C208,64.62,207.25,64.45,207,63a44.51,44.51,0,0,1-.13-5.15V53.61a37.09,37.09,0,0,1,.18-4.88c0-.36.09-0.49,0.67-0.49a17,17,0,0,1,3.91.31,2.53,2.53,0,0,1,1.75,1.87c0.18,0.4.58,0.31,0.63-.09a11.75,11.75,0,0,1,.58-4M196.31,70.57c0.36-.58,0-0.89-0.4-0.49a5.72,5.72,0,0,1-4.81,2c-4,0-7.23-1.73-11.09-5.28a48.32,48.32,0,0,1-8.17-9.89l-0.14-.27c-0.18-.4-0.09-0.53.13-0.67a13.34,13.34,0,0,0,1.46-1,4.78,4.78,0,0,0,1.32-3.31c0-1.29-.31-5.19-7.05-5a60,60,0,0,0-7.14.58c-0.54.09-.58,0.53,0,0.58a4.72,4.72,0,0,1,2.16.53,1.91,1.91,0,0,1,.36,1c0,0.76.18,1.82,0.18,3.42v7c0,1.73-.13,2.84-0.18,3.46-0.18,1.29-.58,1.64-2.29,2.09-0.49.13-.4,0.58,0.09,0.58,1.26,0,2.65-.13,4-0.13s2.6,0.13,3.82.13c0.54,0,.54-0.44,0-0.58-2-.53-2.29-0.93-2.56-2.35a13.45,13.45,0,0,1-.14-2.44V58.54c0-.84,0-0.93.27-0.93,0.72,0,1.44-.09,2.07-0.13h0a1.57,1.57,0,0,1,1.26.84l7,9.19c4.63,4.75,8.53,6.44,12.62,6.44,3.14,0,5.84-1.33,7.1-3.37M168.38,56.19c-0.94,0-1.48,0-2.07,0-0.36,0-.4-0.18-0.4-0.67V51.17a12.82,12.82,0,0,1,.14-2.89c0.09-.31.18-0.44,0.81-0.44a4.79,4.79,0,0,1,4.94,5,3.17,3.17,0,0,1-3.41,3.33m15.7-5.73a2.56,2.56,0,0,1,2.65-2.8A3.84,3.84,0,0,1,189.79,49a3,3,0,0,1,.81,1.56c0,0.53.63,0.53,0.63,0a12.22,12.22,0,0,1,.13-1.73,3.29,3.29,0,0,0,.14-0.8,1.08,1.08,0,0,0-.49-0.93,4.94,4.94,0,0,0-3-.84,6.85,6.85,0,0,0-4.71,2,5.11,5.11,0,0,0-1.71,3.82c0,2.31,1.44,3.73,4.49,4.8,2.38,0.84,4.13,2,4.13,4.31s-1.21,3.42-3.32,3.42a5.12,5.12,0,0,1-4.27-2.26,2.78,2.78,0,0,1-.31-1.33c0-.4-0.45-0.44-0.58-0.13s-0.54,1.38-.76,1.73a1.56,1.56,0,0,0-.36,1.11,3.22,3.22,0,0,0,1.48,1.69,7,7,0,0,0,3.46.8A7.56,7.56,0,0,0,190,64.67a6.35,6.35,0,0,0,2.78-5.06c0-3.2-2.29-4.17-4.94-5.11-1.89-.67-3.73-1.6-3.73-4m-27-3.77c-0.9,0-1.89.13-3,.13-1.3,0-2.56-.13-3.86-0.13a0.29,0.29,0,1,0-.09.58c1.35,0.44,2.11.8,2.47,1.64a9.65,9.65,0,0,1,.45,3.55v3.28c0,4.08-.67,6.22-1.84,7.28a4.82,4.82,0,0,1-3.73,1.24,6,6,0,0,1-4.22-1.64c-0.94-.8-1.57-2.57-1.57-5V54.32c0-3.06.13-5.37,0.72-6.13a2.2,2.2,0,0,1,1.66-.93c0.45-.09.4-0.58-0.13-0.58-1.62,0-2.38.13-3.73,0.13-1.12,0-1.8-.13-3.59-0.13a0.29,0.29,0,1,0,0,.58,3.07,3.07,0,0,1,2.07,1.15c0.18,0.4.27,0.8,0.27,3.24V59c0,2.53.45,3.91,1.3,5,1.26,1.51,3.32,2.22,5.79,2.22,5.21,0,8.44-3.55,8.67-8.84l0.23-5.24a11.71,11.71,0,0,1,.45-3.33,2.34,2.34,0,0,1,1.8-1.51c0.45-.09.4-0.58-0.09-0.58M132,65.2c-1.57-.44-2.38-0.76-2.56-1.78a21,21,0,0,1-.31-5V53.21c0-3.24.13-4,.36-4.75,0.14-.58.81-0.93,2-1.2,0.4-.09.4-0.58-0.09-0.58-1.62,0-2.69.13-4,.13s-2.07-.13-3.55-0.13c-0.49,0-.54.49-0.18,0.58,1.17,0.27,2,.53,2.38,1.42a12.89,12.89,0,0,1,.31,3.64v1.6c0,0.75-.13.84-0.54,0.89a30.5,30.5,0,0,1-4.4.13h-1.08a30.88,30.88,0,0,1-3.86-.09c-0.31,0-.31-0.18-0.31-0.75a40.4,40.4,0,0,1,.27-5.33c0.22-.67.54-1.15,2-1.51,0.4-.09.4-0.58-0.14-0.58-1.66,0-2.47.13-4,.13-1.21,0-2.2-.13-3.68-0.13a0.29,0.29,0,0,0-.09.58c1.71,0.49,2.33.93,2.51,1.64a23.34,23.34,0,0,1,.27,4.31V59a23.82,23.82,0,0,1-.22,4.53c-0.14.62-.58,1.06-2.11,1.64-0.36.18-.4,0.58,0.09,0.58,1.26,0,2.07-.13,3.46-0.13,1.21,0,2.83.13,3.91,0.13,0.58,0,.58-0.44.18-0.58a2.76,2.76,0,0,1-2.29-1.82,25.84,25.84,0,0,1-.22-4.35v-1.6c0-.8,0-0.84.58-0.93a31.87,31.87,0,0,1,3.91-.09h0.58c3.68,0,4.22,0,4.63.09s0.49,0.18.49,0.75v2.18a17.15,17.15,0,0,1-.31,4.35c-0.36.93-.9,1.06-2.07,1.42-0.36.13-.36,0.58,0.18,0.58,1.21,0,2.15-.13,3.41-0.13s2.69,0.13,4.27.13c0.54,0,.54-0.49.18-0.58M102.06,45.69c0.52,1.32.39,2,.31,4.48-0.06,1.65-.05,3.18-0.05,5.93v4.35c0,0.4-.09.44-0.4,0.13A150.48,150.48,0,0,1,91.75,49,4.9,4.9,0,0,1,90.59,47c0-.22-0.18-0.27-0.85-0.22s-0.9,0-1.26,0c-1,0-2.11-.18-3.37-0.18-0.49,0-.49.49-0.09,0.58a4.45,4.45,0,0,1,2.74,1.6c0.32,0.58.5,1,.5,2.93v4.62a40.77,40.77,0,0,1-.4,6.93,2.59,2.59,0,0,1-1.62,1.51l-0.9.36c-0.41.18-.41,0.58,0.18,0.58,0.94,0,2.25-.13,3.5-0.13s2.42,0.09,3.5.13c0.58,0,.58-0.44.22-0.58l-1.3-.49c-0.94-.36-1.79-0.93-1.79-6.17V54.77c0-2,0-2.75,0-3.15s0.13-.53.27-0.4c2.87,3.2,7.95,9.28,11.09,13.14a8.15,8.15,0,0,0,1.08,1,2.36,2.36,0,0,0,1.21.58c0.27,0,.54-0.09.45-0.84,0-.35-0.14-2.26-0.14-5.6v-3.2a41.71,41.71,0,0,1,.45-6.57c0.32-1.6,1.26-1.86,2.31-2.94M80.93,65.16a25.61,25.61,0,0,0,.45-3.46c0-.36-0.45-0.4-0.58,0A5.66,5.66,0,0,1,80,63.29a2.85,2.85,0,0,1-1.66.84,16.92,16.92,0,0,1-2.83.18c-1.8,0-2.78-.09-3.1-0.58S72,62.18,72,59.07V57c0-.53.14-0.58,0.81-0.58h1.35c2.34,0,3.46.27,3.91,1a3.83,3.83,0,0,1,.45,1.15,0.27,0.27,0,0,0,.54,0,31.58,31.58,0,0,1,.22-4.44c0-.31-0.27-0.4-0.4-0.18a2,2,0,0,1-1,.8,16.1,16.1,0,0,1-4,.27H72.94C72,54.9,72,54.94,72,54.41V52c0-1.38,0-2.57.09-3,0.09-.71.18-0.8,1.12-0.8h1.17a11,11,0,0,1,3.32.31,2.74,2.74,0,0,1,1.71,2.18c0.09,0.53.67,0.44,0.63-.13a15.45,15.45,0,0,1,.22-3.82,0.22,0.22,0,0,0-.18-0.31,1.21,1.21,0,0,0-.45.18,25.66,25.66,0,0,1-4.31.18H70.69c-1.39,0-2.42-.13-3.91-0.13-0.49,0-.54.49,0,0.62,1.12,0.27,2.11.76,2.29,1.91a27.8,27.8,0,0,1,.18,4.62v4.75a26.39,26.39,0,0,1-.22,4.8c-0.31,1.24-1.71,1.51-3.23,1.82-0.36,0-.36.58,0.14,0.58,1.66,0,2.83-.13,4.13-0.13,2.2,0,7.9.13,9.29,0.13,1.21,0,1.48,0,1.62-.62m-19.17,0a25.66,25.66,0,0,0,.45-3.46c0-.36-0.45-0.4-0.58,0a5.63,5.63,0,0,1-.81,1.64,2.85,2.85,0,0,1-1.66.84,16.92,16.92,0,0,1-2.83.18c-1.8,0-2.78-.09-3.1-0.58s-0.4-1.55-.4-4.66V57c0-.53.13-0.58,0.81-0.58H55c2.33,0,3.46.27,3.91,1a3.86,3.86,0,0,1,.45,1.15,0.27,0.27,0,0,0,.54,0,31.82,31.82,0,0,1,.22-4.44c0-.31-0.27-0.4-0.4-0.18a2,2,0,0,1-1,.8,16.08,16.08,0,0,1-4,.27H53.77c-0.94-.09-0.94,0-0.94-0.58V52c0-1.38,0-2.57.09-3,0.09-.71.18-0.8,1.12-0.8H55.2a11,11,0,0,1,3.32.31,2.74,2.74,0,0,1,1.71,2.18c0.09,0.53.67,0.44,0.63-.13a15.45,15.45,0,0,1,.22-3.82,0.22,0.22,0,0,0-.18-0.31,1.22,1.22,0,0,0-.45.18,25.67,25.67,0,0,1-4.31.18H51.52c-1.39,0-2.42-.13-3.91-0.13-0.49,0-.54.49,0,0.62,1.12,0.27,2.11.76,2.29,1.91A28,28,0,0,1,50,53.83v4.75a26.45,26.45,0,0,1-.22,4.8c-0.31,1.24-1.71,1.51-3.23,1.82-0.36,0-.36.58,0.13,0.58,1.66,0,2.83-.13,4.13-0.13,2.2,0,7.91.13,9.3,0.13,1.21,0,1.48,0,1.62-.62m-5.18,6.92c-4,0-7.23-1.73-11.09-5.28a48.28,48.28,0,0,1-8.17-9.89l-0.14-.27c-0.18-.4-0.09-0.53.14-0.67a13.34,13.34,0,0,0,1.46-1,4.78,4.78,0,0,0,1.32-3.31c0-1.29-.32-5.19-7.05-5a60.07,60.07,0,0,0-7.14.58c-0.54.09-.58,0.53,0,0.58a4.72,4.72,0,0,1,2.16.53,1.89,1.89,0,0,1,.36,1c0,0.76.18,1.82,0.18,3.42v7c0,1.73-.14,2.84-0.18,3.46-0.18,1.29-.58,1.64-2.29,2.09-0.49.13-.4,0.58,0.09,0.58,1.26,0,2.65-.13,4-0.13s2.6,0.13,3.82.13c0.54,0,.54-0.44,0-0.58-2-.53-2.29-0.93-2.56-2.35a13.38,13.38,0,0,1-.13-2.44V58.54c0-.84,0-0.93.27-0.93,0.72,0,1.44-.09,2.07-0.13h0a1.56,1.56,0,0,1,1.26.84l7.05,9.19c4.63,4.75,8.53,6.44,12.62,6.44,3.14,0,5.84-1.33,7.1-3.37,0.36-.58,0-0.89-0.4-0.49a5.72,5.72,0,0,1-4.81,2M33.86,56.19c-0.94,0-1.48,0-2.07,0-0.36,0-.4-0.18-0.4-0.67V51.17a12.79,12.79,0,0,1,.13-2.89c0.09-.31.18-0.44,0.81-0.44a4.79,4.79,0,0,1,4.94,5,3.17,3.17,0,0,1-3.41,3.33M22,55.48c-1.35,0-2.47.13-3.82,0.13-1.62,0-2.74-.13-4.49-0.13-0.67,0-.58.58,0,0.67,0.9,0.13,2.6.62,3.1,1.42a4.3,4.3,0,0,1,.58,2.31v1.55A5.93,5.93,0,0,1,17,64.09c-0.27.4-1.26,0.8-2.92,0.8-6.2,0-10.6-4.39-10.6-10.83,0-3.51,1.08-7,4-8.7a9.09,9.09,0,0,1,4.58-1.15,9.85,9.85,0,0,1,5.16,1.15,3.88,3.88,0,0,1,2,2.89c0,0.44.63,0.31,0.63-.09a14.69,14.69,0,0,1,.31-2.93,1.19,1.19,0,0,0-.76-1.51,12.82,12.82,0,0,0-5.7-1,18,18,0,0,0-8,2A10.78,10.78,0,0,0,0,54.59c0,6.93,4.9,11.68,12.48,11.68a32.48,32.48,0,0,0,8.08-1.47c0.4-.09.45-0.36,0.22-0.53-0.4-.35-0.58-1.15-0.58-3.37a12.43,12.43,0,0,1,.18-3.33A2.28,2.28,0,0,1,22,56.14c0.54-.18.54-0.67,0-0.67"/></g></svg>