<svg id="Layer_1" data-name="Layer 1" xmlns="http://www.w3.org/2000/svg" xmlns:xlink="http://www.w3.org/1999/xlink" viewBox="0 0 27.38 15.75"><defs><style>.cls-1{fill:none;}.cls-2{clip-path:url(#clip-path);}.cls-3{fill:#1d1d1b;}</style><clipPath id="clip-path"><rect class="cls-1" width="27.38" height="15.75"/></clipPath></defs><title>icon-email</title><g class="cls-2"><path class="cls-3" d="M19.19,7A1.09,1.09,0,0,0,19,6.83l6.45-3.37v10a0.69,0.69,0,0,1,0,.28ZM9.81,8.22A0.91,0.91,0,0,0,10,7.71l3.09,1.61a1.13,1.13,0,0,0,.55.14h0a1.14,1.14,0,0,0,.55-0.14l3.09-1.62a0.9,0.9,0,0,0,.24.5L22.95,14H4.43Zm-7-6.49H24.54L13.69,7.4ZM1.91,13.42v-10L8.36,6.83A1,1,0,0,0,8.19,7L2,13.7a0.79,0.79,0,0,1-.06-0.28M24.8,0H2.58A2.41,2.41,0,0,0,0,2.33V13.42A2.33,2.33,0,0,0,2,15.7a1.15,1.15,0,0,0,.34.05H25a1.15,1.15,0,0,0,.4-0.08,2.27,2.27,0,0,0,1.93-2.26V2.33A2.38,2.38,0,0,0,24.8,0"/></g></svg>