<svg id="Layer_1" data-name="Layer 1" xmlns="http://www.w3.org/2000/svg" xmlns:xlink="http://www.w3.org/1999/xlink" viewBox="0 0 27.2 15.75"><defs><style>.cls-1{fill:none;}.cls-2{clip-path:url(#clip-path);}.cls-3{fill:#1d1d1b;}</style><clipPath id="clip-path"><rect class="cls-1" width="27.2" height="15.75"/></clipPath></defs><title>icon-telephone</title><g class="cls-2"><path class="cls-3" d="M21.44,7h4.73a1.46,1.46,0,0,0,1-1.14H20.54A1.78,1.78,0,0,0,21.44,7M6.67,5.9H0.06A1.46,1.46,0,0,0,1,7H5.77a1.78,1.78,0,0,0,.9-1.14M17.25,9.73A3.49,3.49,0,0,1,13.6,13,3.49,3.49,0,0,1,10,9.73a3.49,3.49,0,0,1,3.65-3.3,3.49,3.49,0,0,1,3.65,3.3M16.6,4.9h-6V3.68a47.9,47.9,0,0,1,6,0V4.9Zm10.61,0A5.55,5.55,0,0,0,26.1,2c-2-2.19-12.5-2-12.5-2S3.15-.19,1.1,2A5.56,5.56,0,0,0,0,4.9H7a1.22,1.22,0,0,1,.48-0.64,5.33,5.33,0,0,1,1.7-.42V5.09L7.29,7,4.57,13.1v2a0.74,0.74,0,0,0,.78.7H21.86a0.74,0.74,0,0,0,.78-0.7v-2L19.91,7,18,5.09V3.84a5.31,5.31,0,0,1,1.7.42,1.22,1.22,0,0,1,.48.64h7Z"/></g></svg>