<?xml version="1.0" encoding="utf-8"?>
<!-- Generator: Adobe Illustrator 19.2.1, SVG Export Plug-In . SVG Version: 6.00 Build 0)  -->
<svg version="1.1" id="Layer_1" xmlns="http://www.w3.org/2000/svg" xmlns:xlink="http://www.w3.org/1999/xlink" x="0px" y="0px"
	 viewBox="0 0 54 64.7" style="enable-background:new 0 0 54 64.7;" xml:space="preserve">
<style type="text/css">
	.st0{fill:#0A2433;}
</style>
<g>
	<path class="st0" d="M19.7,21.9l7.3,7.3H12.4L19.7,21.9z M34.3,21.9l7.3,7.3H27L34.3,21.9z M27,4.8l-4.9,4.9l4.9,4.9l-7.3,7.3
		l-7.3-7.3L5,21.9l7.3,7.3V36h29.4v-6.7l7.3-7.3l-7.4-7.4l-7.3,7.3L27,14.6l4.9-4.9L27,4.8z"/>
	<path class="st0" d="M25.2,38.7C25.1,38.7,25.1,38.7,25.2,38.7C24.9,39,25,39.4,25,39.6c0.7,4.2-0.5,6.7-1.8,8.5
		c-1.1,1.6-2.3,3.1-4,4c-0.4,0.2-1.5,0.7-2,0.9c0.4-0.6,0.9-1.2,1.4-1.8c0.7-0.9,1.4-2.3,0.7-3.4c-0.9-1.4-3.6,2-4.1,2.5
		c-0.8,0.8-1.6,1.6-2.4,2.4c-0.4,0.4-0.9,0.9-1.2,1.5c-0.4,0.8,0.1,1.5,0.7,2c0.8,0.7,1.7,1.3,2.6,1.9c0.6,0.4,1.2,0.7,1.7,1
		c1.9,1.1,3.2,0.8,2.6-0.6c-0.1-0.4-0.4-0.7-0.6-1c-0.2-0.3-0.4-0.5-0.7-0.8c0.4-0.1,0.6-0.1,0.9-0.2c3.6-0.8,6.9-4,7.8-7.6
		c0.4-1.6,0.5-3.2,0.3-4.8c-0.1-0.9-0.5-4.7-1-5.2C25.6,38.7,25.4,38.6,25.2,38.7"/>
</g>
</svg>
