<svg id="Layer_1" data-name="Layer 1" xmlns="http://www.w3.org/2000/svg" xmlns:xlink="http://www.w3.org/1999/xlink" viewBox="0 0 60 60"><defs><style>.cls-1{fill:none;}.cls-2{clip-path:url(#clip-path);}.cls-3{fill:#092432;}</style><clipPath id="clip-path"><rect class="cls-1" width="60" height="60"/></clipPath></defs><title>Untitled-9</title><g class="cls-2"><path class="cls-3" d="M57.07,23.1c0.69-3.4,2.49-6.48,1.79-12.59C58.05,3.45,55.55.5,55.36,0c-0.23.54-.51,5.11-6.92,8.14-8.66,4.1-9.73,7.88-10.25,8.45C37.53,17.33,37.4,14,37.4,14s-4.12,4.48-5.49,7.11A13.31,13.31,0,0,0,34.4,36.92c-1.22,1.18-2.47,2.34-3.71,3.5-0.61-1-1.22-2-1.86-3a35.29,35.29,0,0,0-4.69-6.71A26.67,26.67,0,0,0,13,23.58,18.21,18.21,0,0,1,28.34,34.35c2.42-6.21-2.08-11.74-6.27-14.58a13.73,13.73,0,0,0-5.87-2.3S17,18.85,16.69,19c-0.74.38-3.42-1-8-.91A20.55,20.55,0,0,0,0,20.14c-0.1,0,4.92.72,8.65,7.65,2.86,5.3,5.06,5.56,5.38,6s-1.9.81-1.9,0.81,7.56,5.71,14.42,2.65c1,1.37,1.85,2.8,2.72,4.24l0.08,0.23A55.94,55.94,0,0,0,25.27,46a14.2,14.2,0,0,0-2.6,4.62,31.9,31.9,0,0,0-3.92-.06A0.91,0.91,0,0,0,18.08,52a0.85,0.85,0,0,0,.14.37,30,30,0,0,1,3.42,7,0.89,0.89,0,0,0,1.6.21,24.83,24.83,0,0,1,6.15-6.14,0.89,0.89,0,0,0-.21-1.61,32,32,0,0,0-4.53-1,17.89,17.89,0,0,1,4-5.92c1.05-1.09,2.14-2.14,3.24-3.18,1.65-1.45,3.86-3.34,5.24-4.74,3-3.07,11.62-13.1,14.14-22.44C50.85,25.49,38.5,38.48,38,38.94c5.13,1.42,11.86-.64,16.13-5.25a24.22,24.22,0,0,0,5.89-11s-3.2,1.76-2.93.45"/></g></svg>