<svg id="Layer_1" data-name="Layer 1" xmlns="http://www.w3.org/2000/svg" viewBox="0 0 71.31 59.34"><defs><style>.cls-1{fill:#082432;}</style></defs><title>Untitled-17</title><path class="cls-1" d="M65.68,3.94a0.5,0.5,0,0,1-.37.14,0.31,0.31,0,0,1,.37-0.14M64.3,5.11l-0.18.19ZM73,4.92a2.85,2.85,0,0,0-.25-0.76c-0.11-.22-0.22-0.43-0.31-0.64V3.33a2,2,0,0,0-.62-0.81,2.58,2.58,0,0,1-.69-0.81c-0.12.09-.2,0.07-0.25-0.05a0.4,0.4,0,0,0-.2-0.24,1,1,0,0,0-.25,0,0.55,0.55,0,0,1-.31,0,0.34,0.34,0,0,1-.19-0.12,1.3,1.3,0,0,1-.74.06,0.38,0.38,0,0,0-.49.18,4.16,4.16,0,0,1-.49.11l-0.49.12a1,1,0,0,1-.6.46,1.41,1.41,0,0,1-.48,1l-0.81.63a0.23,0.23,0,0,0-.22-0.08,0.22,0.22,0,0,1-.22-0.08c0.21,0,.3-0.16.29-0.45a0.48,0.48,0,0,1-.31,0L65.73,3l0.39-.23a1.26,1.26,0,0,0-.79.28,5.76,5.76,0,0,1-.72.53L64,4l-0.51.43A31.88,31.88,0,0,0,61,7.18a13.17,13.17,0,0,0-2,3.25,0.25,0.25,0,0,1-.11.31,0.26,0.26,0,0,0,0,.37A1.14,1.14,0,0,1,59.16,11a0.21,0.21,0,0,1,.25.08l0.17-.35a2.79,2.79,0,0,1,.26-0.41A1.75,1.75,0,0,1,60.11,10a0.17,0.17,0,0,1,.25,0c-0.12.17-.22,0.34-0.32,0.51a1.65,1.65,0,0,0-.19.57A0.54,0.54,0,0,0,60,10.86q0-.15.15-0.1a3.1,3.1,0,0,1-.31.63,1.07,1.07,0,0,0-.19.63,2,2,0,0,1,.11-0.22,2.18,2.18,0,0,0,.11-0.22,0.74,0.74,0,0,0,.48-0.49,0.75,0.75,0,0,1,.41-0.48,0.42,0.42,0,0,1-.17.38,0.25,0.25,0,0,0-.11.32c0.08-.13.15-0.26,0.23-0.41a0.86,0.86,0,0,1,.36-0.36v0.12a1.45,1.45,0,0,0,.2-0.29,1.47,1.47,0,0,1,.21-0.29,1.31,1.31,0,0,0,.63-0.62,2.41,2.41,0,0,1,.56-0.74A4.77,4.77,0,0,1,62,9.93a5.25,5.25,0,0,0-.69,1.15,0.49,0.49,0,0,0,.23-0.38h0.19l-0.07-.12c0.08,0.08.16,0,.21-0.13s0.15-.21.27-0.14a2.56,2.56,0,0,1-.29.39,0.54,0.54,0,0,0-.17.38c0.23-.34.47-0.67,0.7-1a2.36,2.36,0,0,1,1-.76A14.2,14.2,0,0,1,64.46,8q0.62-.65,1.28-1.24a0.56,0.56,0,0,1,.49-0.27,1.23,1.23,0,0,1-.29.42,4.24,4.24,0,0,1-.36.3q-0.48.46-.83,0.84a8,8,0,0,0-.71.9,7.82,7.82,0,0,0,1-1A3.5,3.5,0,0,1,66.18,7q-0.39,2.38-.75,4.9T64.7,17q-0.19,1.44-.43,3l-0.48,3.13q-0.13,1.37-.39,3.15t-0.47,3.46q-0.21,1.68-.36,3.12A9.64,9.64,0,0,0,62.5,35a3.76,3.76,0,0,1-.09.78q-0.1.53-.2,1.1c-0.07.38-.14,0.74-0.23,1.1a3.12,3.12,0,0,0-.12.78,2.61,2.61,0,0,1,0,1.49Q61.77,41,61.75,42t-0.11,1.74l-0.32,1.91q-0.17,1-.31,2.09a11.94,11.94,0,0,0-.1,2.08,5.05,5.05,0,0,0,.39,1.81q0.14,0.3.34,0.7a1,1,0,0,0,.52.5l0.17,0.3c0.07,0.12.14,0.16,0.22,0.12a1.85,1.85,0,0,1-.24-0.49,0.32,0.32,0,0,1,.2-0.44,0.55,0.55,0,0,1,.07.25,0.2,0.2,0,0,0,.13.18,0.16,0.16,0,0,0-.07-0.15s0,0,.06,0,0.11,0,.09,0,0-.07.09,0a1,1,0,0,0,.35.3,1.6,1.6,0,0,1,.35.23l-0.07-.06a0.06,0.06,0,0,1,.06-0.07h0.06a3.41,3.41,0,0,0-.05-0.46c0-.14.06-0.22,0.27-0.23a2.28,2.28,0,0,1,.23.24,2.5,2.5,0,0,0,.23.24,0.52,0.52,0,0,1,0-.5,0.16,0.16,0,0,1,.16.06,0.16,0.16,0,0,0,.16.05,0.49,0.49,0,0,0,0-.34,0.24,0.24,0,0,1,0-.28,0.11,0.11,0,0,1,.1.09c0,0.06,0,0,0,0a0.41,0.41,0,0,1,0-.19,0.22,0.22,0,0,0,0-.18H65A0.28,0.28,0,0,1,65,51.07l0.15-.13,0-.43a0.3,0.3,0,0,1,.3-0.26,0.17,0.17,0,0,1,0-.22,0.17,0.17,0,0,0,0-.22,0.37,0.37,0,0,0,.23-0.32,2.72,2.72,0,0,1,0-.5,1.06,1.06,0,0,1,.14-0.32,0.17,0.17,0,0,0,0-.25A0.61,0.61,0,0,0,66,48.2,0.28,0.28,0,0,1,66.17,48s0.05,0,0,0,0,0,0,0a1.17,1.17,0,0,0,.08-0.34,0.58,0.58,0,0,1,.14-0.35c0.09,0.08.1,0.15,0,.22s0,0.12,0,.15a1.44,1.44,0,0,0,.29-0.51L67,46.64h0.12c0-.08,0-0.12,0-0.12s0,0,0-.12,0-.08,0,0,0,0.09-.09,0a4.23,4.23,0,0,0,.52-1.51,6.55,6.55,0,0,1,.4-1.51l0.2-1.13q0.1-.56.2-1.19a4.09,4.09,0,0,0,0-1.12,5.77,5.77,0,0,1,0-1.06,9.76,9.76,0,0,1,.06-1.4q0.09-.84.2-1.72t0.21-1.62A8,8,0,0,0,69,32.9q0.1-.5.31-2.09l0.44-3.37q0.23-1.78.48-3.28a15.58,15.58,0,0,1,.36-1.81,2,2,0,0,0,.21-0.88,21.31,21.31,0,0,0,.48-2.53q0.16-1.28.29-2.71a0.17,0.17,0,0,0,.06-0.1,0.17,0.17,0,0,1,.06-0.1,5.87,5.87,0,0,1,.17-1.74A3.55,3.55,0,0,1,72,13.72l0.19-.57a3.71,3.71,0,0,1,0-.81,0.25,0.25,0,0,1,.05-0.19A0.18,0.18,0,0,0,72.3,12a3.18,3.18,0,0,0,0-.62,3.18,3.18,0,0,1,0-.62A8.82,8.82,0,0,0,72.48,9a0.11,0.11,0,0,0,.12-0.13,11.83,11.83,0,0,1,.25-1.31A7,7,0,0,0,73,6.1ZM56.1,50.06c0-.06,0-0.09.09-0.1a0.28,0.28,0,0,0,.24-0.1,0.2,0.2,0,0,1,.18-0.1c0.16-.09.34-0.18,0.55-0.27A0.76,0.76,0,0,0,57.57,49a2,2,0,0,1,.2-0.44A1.66,1.66,0,0,0,58,48,5.32,5.32,0,0,0,58,46.44a2.84,2.84,0,0,0-.4-1.38,2.88,2.88,0,0,0-.52-0.47,3.4,3.4,0,0,0-.7-0.34,2.6,2.6,0,0,1-.62.09,1.84,1.84,0,0,0-.68.15c0,0.12,0,.19-0.12.19a2.82,2.82,0,0,0-1.28,1.14,2.6,2.6,0,0,0-.32,1.85,1.33,1.33,0,0,0,.12.52,2.8,2.8,0,0,1,.18.52,2,2,0,0,0,.24.64,2,2,0,0,1,.24.58h0.25a0.35,0.35,0,0,1,.24-0.26,0.33,0.33,0,0,1,.2.24,0.35,0.35,0,0,0,.14.24,0.18,0.18,0,0,0,.15-0.19,0.17,0.17,0,0,1,.15-0.19,0.29,0.29,0,0,1,.32.2,0.43,0.43,0,0,0,.38.26,0.13,0.13,0,0,0,.09-0.16M49.56,39.39a11.29,11.29,0,0,1,.16-1.4q0.12-.72.21-1.71a0.08,0.08,0,0,0,.12,0,0.08,0.08,0,0,1,.12,0Zm-2.28,1.15a3.74,3.74,0,0,1-.3,1.07q-0.23.51-.45,1t-0.52,1a8.45,8.45,0,0,0-.26,1,2.15,2.15,0,0,1-.4.92,1,1,0,0,0-.24.2l-0.24.26c-0.08,0-.12.06-0.12,0s0,0-.06,0a0.05,0.05,0,0,1-.06-0.06,3.62,3.62,0,0,1-.77.93,7.62,7.62,0,0,0-.89.94,3.41,3.41,0,0,1-1,.54q-0.49.15-1.23,0.3l-0.95.29a1.54,1.54,0,0,1-1.09-.14,4,4,0,0,1-.56-0.66,4.5,4.5,0,0,1-.44-0.73V47.11a3.57,3.57,0,0,0-.14-0.4l-0.14-.27a0.67,0.67,0,0,1,0-.22,0.7,0.7,0,0,0,0-.22,4.16,4.16,0,0,0-.05-0.5A4.27,4.27,0,0,1,37.33,45a2.28,2.28,0,0,0,.11-1,1.92,1.92,0,0,1,.12-0.91,3.93,3.93,0,0,0,0-.75,5.15,5.15,0,0,1,.5-1.32q0.34-.64.69-1.33l0.64-1A5.55,5.55,0,0,0,40,37.52l0.24-.26a0.72,0.72,0,0,0,.1-0.5A1,1,0,0,0,41,36.11a7.63,7.63,0,0,1,.48-1,2.53,2.53,0,0,1,.29-0.39,2.45,2.45,0,0,0,.29-0.39,2.72,2.72,0,0,0,.25-0.63,1.77,1.77,0,0,1,.25-0.57,3.38,3.38,0,0,1,.72.74,2.88,2.88,0,0,0,.65.69,0.92,0.92,0,0,0,.64.41,0.5,0.5,0,0,0,.38.11l0.64,0.5a0.78,0.78,0,0,0,.69.19,5,5,0,0,0,.82.34,2,2,0,0,0,1,.08,1.46,1.46,0,0,1-.06.84,5.77,5.77,0,0,0-.31.79,8.4,8.4,0,0,0-.14,1,3.39,3.39,0,0,1-.21.91q0,0.31-.12.87m-1.33-10a2.58,2.58,0,0,1,.08.52l0.33,0.36a0.58,0.58,0,0,1,.17.33,1.52,1.52,0,0,0,.17.46,3.93,3.93,0,0,0,.33.39,1.77,1.77,0,0,1,.33.58v0.12a0.28,0.28,0,0,1-.31.08l-0.31-.11a2.36,2.36,0,0,1-1-.61,5.15,5.15,0,0,1-.79-1,1.3,1.3,0,0,1,0-.84,0.86,0.86,0,0,1,.63-0.62,0.43,0.43,0,0,1,.39.33m12.38,0.79a0.56,0.56,0,0,0-.28.1l-0.36.26a0.52,0.52,0,0,1-.53.05,2.43,2.43,0,0,1-.94.57q-0.64.25-1.68,0.6a2,2,0,0,1-.74.19c-0.33,0-.68.06-1.05,0.08s-0.73,0-1.09,0h-0.9a0.92,0.92,0,0,1-.28,0,0.73,0.73,0,0,0-.34,0A0.6,0.6,0,0,1,50,33.08,0.14,0.14,0,0,0,49.84,33a1.38,1.38,0,0,0-.15-0.61,0.68,0.68,0,0,1-.08-0.31,0.43,0.43,0,0,0-.14-0.3c0.05,0.2.11,0.42,0.18,0.64a2.46,2.46,0,0,1,.12.65,0.25,0.25,0,0,1-.26-0.21,1.32,1.32,0,0,1-.08-0.34q-0.14-.37-0.28-0.76a3.25,3.25,0,0,0-.34-0.7,0.68,0.68,0,0,1-.49-0.51,5,5,0,0,0-.25-0.7,2.58,2.58,0,0,0-.3-0.51,1,1,0,0,1-.18-0.58l-0.45-.29a0.17,0.17,0,0,0,.05-0.22,0.29,0.29,0,0,1-.07-0.15A0.37,0.37,0,0,1,46.83,28a0.21,0.21,0,0,0-.19-0.09,0.31,0.31,0,0,1,0,.5,0.2,0.2,0,0,1-.25,0,0.21,0.21,0,0,0-.19-0.08,0.18,0.18,0,0,0-.12.16c0,0.06,0,.09-0.12.1a0.56,0.56,0,0,0-.66-0.16,0.84,0.84,0,0,1-.72,0A4.51,4.51,0,0,0,44,29a0.53,0.53,0,0,1-.77.1,1.2,1.2,0,0,0-.2.32,0.26,0.26,0,0,1-.21.2,1.7,1.7,0,0,0-.13-0.86A2.89,2.89,0,0,0,42.3,28a7.3,7.3,0,0,0-1.05-.64,1.29,1.29,0,0,0-1.33.06,0.05,0.05,0,0,1-.06.06H39.73a7.25,7.25,0,0,0-1.05.79l-1,.91a11.14,11.14,0,0,0-.91,1.13q-0.38.54-.84,1.25a23.54,23.54,0,0,0-2.73,4.93,16.21,16.21,0,0,0-1.25,6.11v0.06a5.46,5.46,0,0,1,0,.59,1.57,1.57,0,0,1-.13.53q0.15,0.49.26,1c0.08,0.33.14,0.66,0.2,1l0,0.43,0.26,0.24a23.54,23.54,0,0,1,.88,2.35A2.94,2.94,0,0,0,35,50.64a7.92,7.92,0,0,0,1.26,1.25,3.52,3.52,0,0,0,1.68.73,1.63,1.63,0,0,0,1,0,3.81,3.81,0,0,1,.92-0.16,0.13,0.13,0,0,1,.09,0,0.12,0.12,0,0,0,.09,0,2.49,2.49,0,0,0,1.47-.4,4.09,4.09,0,0,1,1.34-.59A2.8,2.8,0,0,1,43.55,51a2.89,2.89,0,0,0,.72-0.56,1,1,0,0,1,.47-0.58,1.94,1.94,0,0,1,.3-0.26,1.1,1.1,0,0,0,.3-0.32l0.14-.32a3.18,3.18,0,0,1,.2-0.38,1.74,1.74,0,0,0,.25-0.6,6,6,0,0,1,.19-0.66,6,6,0,0,1,.67-1.05,6.08,6.08,0,0,0,.67-1.05,4.66,4.66,0,0,0,.18-0.75,4.65,4.65,0,0,1,.24-0.88v0.12a0.05,0.05,0,0,1-.06.06l0.29-.51a1.4,1.4,0,0,0,.17-0.44,2.63,2.63,0,0,0,.45-1.08c0-.08,0-0.13,0-0.12s0,0,0-.13a4.54,4.54,0,0,1,.33-1.07,10.22,10.22,0,0,0,.39-1,2,2,0,0,1-.15.72,1.19,1.19,0,0,0-.1.59,13.12,13.12,0,0,0,.59-2.17q0.15-.91.39-2.34,0.31,0,1.17-.11a16.71,16.71,0,0,0,2-.36A16.1,16.1,0,0,0,55.6,35a7,7,0,0,0,2-1.17,0.34,0.34,0,0,1,.17-0.26A0.93,0.93,0,0,0,58,33.19a1.79,1.79,0,0,0,.61-0.83,0.5,0.5,0,0,0-.12-0.61c-0.05-.25-0.12-0.37-0.2-0.36M13.1,22.83a8.14,8.14,0,0,0,.19-2,3.37,3.37,0,0,0,.16-0.66c0-.23.06-0.47,0.09-0.72a11.11,11.11,0,0,0,.09-1.56q0-.87,0-1.55a10.14,10.14,0,0,0,.13-1.22A3.48,3.48,0,0,0,13.68,14a0.72,0.72,0,0,0,.13-0.59,2.57,2.57,0,0,1,0-.71A16.6,16.6,0,0,0,13.89,11a2.71,2.71,0,0,0-.27-1.29,1.21,1.21,0,0,0-.06-0.62,3.43,3.43,0,0,1-.18-0.55q-0.54-.91-1.06-1.63a9.53,9.53,0,0,0-1.24-1.37,1.75,1.75,0,0,1-.47-0.17,0.84,0.84,0,0,0-.41-0.11,2.74,2.74,0,0,0-1,0,2.6,2.6,0,0,0-1,.35,0.11,0.11,0,0,0-.09.1,0.29,0.29,0,0,1-.15.16q-0.3.32-.47,0.49a1.82,1.82,0,0,0-.35.48,5.53,5.53,0,0,0-.53.67,1,1,0,0,0-.15.78,1.57,1.57,0,0,0-.27.94,4.11,4.11,0,0,1-.08,1,4.43,4.43,0,0,1-.13.5,4.33,4.33,0,0,0-.13.5,0.68,0.68,0,0,0,0,.22,0.71,0.71,0,0,1,0,.22c-0.06.46-.11,0.92-0.16,1.37s-0.09.91-.16,1.37a3,3,0,0,0,0,.59l0,0.59a1,1,0,0,0-.11.44,38.66,38.66,0,0,1-.56,5.73l-1,5.75a8.86,8.86,0,0,0-.14.94,9.32,9.32,0,0,1-.15.94c0,0.33-.05.67-0.08,1s-0.05.68-.08,1.06a6.69,6.69,0,0,0-.29,1.87q-0.24,1.63-.42,3.12t-0.24,3a5,5,0,0,0-.09.87,9.61,9.61,0,0,1-.16,1.4A9.48,9.48,0,0,0,2.09,43q-0.24,3-.35,6.13a36.27,36.27,0,0,0,.34,6.35,3.3,3.3,0,0,1,.22.67,1.92,1.92,0,0,0,.28.67c0.21,0,.31,0,0.31.08a0.39,0.39,0,0,0,.14.27,0.63,0.63,0,0,0,.22.15,0.27,0.27,0,0,1,.16.15,0.14,0.14,0,0,1,0,.15,0.13,0.13,0,0,0,.1.15,0.89,0.89,0,0,1,.48.38,0.89,0.89,0,0,0,.48.38,0.59,0.59,0,0,0,.37,0,1.18,1.18,0,0,1,.37-0.08,0.3,0.3,0,0,1,.22.08,0.29,0.29,0,0,0,.22.08A0.5,0.5,0,0,0,6,58.46a0.17,0.17,0,0,1,.25,0A1.15,1.15,0,0,0,6.5,58a1.75,1.75,0,0,1,.26-0.57,0.85,0.85,0,0,0,.57-0.52A3.36,3.36,0,0,0,7.5,56c0.08-.09.14-0.09,0.19,0a0.12,0.12,0,0,0,.19.05A1.4,1.4,0,0,1,8,54.8a0.84,0.84,0,0,1,.2-1c0.08-.09.14-0.1,0.18,0a0.21,0.21,0,0,0,.19.09,2.32,2.32,0,0,0,0-.93,0.81,0.81,0,0,1,.34-0.82,0.2,0.2,0,0,1,0-.22,0.21,0.21,0,0,0,0-.22,3.61,3.61,0,0,0,.34-1.35c0-.52.09-1,0.16-1.4a2,2,0,0,1,0-.5l0.1-.5a2.57,2.57,0,0,0,0-1,3.72,3.72,0,0,1,0-1A1.65,1.65,0,0,0,9.7,45l0-.56a2.46,2.46,0,0,0,.12-0.72,5.9,5.9,0,0,1,.06-0.72A6.38,6.38,0,0,1,10,42q0.13-.53.23-1.1,0.09-.81.19-1.43a12.62,12.62,0,0,0,.13-1.31,0.25,0.25,0,0,0,.14-0.26,0.56,0.56,0,0,1,0-.31c0-.17.07-0.32,0.1-0.47s0.07-.28.11-0.41a1.27,1.27,0,0,1,0-.31A1.21,1.21,0,0,1,11,36.17a0.75,0.75,0,0,1,.05-0.28c0-.1.07-0.22,0.11-0.35a1.32,1.32,0,0,0,.07-0.62,1.28,1.28,0,0,1,.07-0.62,2.19,2.19,0,0,1,.16-0.57q0.11-.25.22-0.57a13.32,13.32,0,0,1,.91-2q0.52-.92,1.1-1.82a0.92,0.92,0,0,1,.22-0.6l0.48-.42A0.54,0.54,0,0,0,14.57,28a0.54,0.54,0,0,1,.14-0.29,3,3,0,0,1,.35-0.45A0.78,0.78,0,0,0,15.24,27a2.38,2.38,0,0,1,.11-0.31,1.61,1.61,0,0,1,.33-0.26l0.39-.26a20.43,20.43,0,0,1,1.72-3.21q1-1.5,2-3a3.19,3.19,0,0,0,.83-0.84l0.7-1a0.68,0.68,0,0,1,0-.31,0.55,0.55,0,0,0,.05-0.25q0.29-.45.61-0.9a10.66,10.66,0,0,0,.61-1,5.52,5.52,0,0,1,.94-1.13q0.54-.49,1.07-1A2.59,2.59,0,0,0,25.21,13a1.49,1.49,0,0,1,.69-0.47,15.9,15.9,0,0,1-.12,2.86q-0.19,1.37-.44,2.69t-0.54,2.6q-0.29,1.29-.48,2.6a8.4,8.4,0,0,0-.14,1c0,0.31-.08.65-0.14,1Q24,26.3,23.78,27.3t-0.26,1.87q-0.07,1.18-.05,2.3a16.35,16.35,0,0,1-.12,2.24q-0.23,1.75-.47,3.47t-0.47,3.47a25.88,25.88,0,0,0-.34,3q-0.09,1.56-.14,3.11a17.24,17.24,0,0,0,0,3.44,24.64,24.64,0,0,0,.55,3.36q0.15,0.68.24,1.23a3.06,3.06,0,0,0,.35,1,4.06,4.06,0,0,0,.54.91l0.72,0.9a6.56,6.56,0,0,0,1.34,1.59,5.61,5.61,0,0,0,2,1,0.26,0.26,0,0,1,.25,0,0.55,0.55,0,0,0,.25.05,1.82,1.82,0,0,0,1,.39,3.64,3.64,0,0,0,1.33-.06,0.28,0.28,0,0,1,.08-0.25,0.48,0.48,0,0,0,.15-0.19,0.51,0.51,0,0,1-.51-0.41,0.68,0.68,0,0,1,.22,0l0.22,0.08a0.26,0.26,0,0,0-.16-0.21,0.12,0.12,0,0,1,0-.22,0.55,0.55,0,0,1,.47,0,0.74,0.74,0,0,0,.47.1,0.76,0.76,0,0,1,.3-0.2,1.61,1.61,0,0,0,.36-0.2,2.76,2.76,0,0,1-.66-0.28,1.36,1.36,0,0,1-.49-0.6c0.21,0,.25-0.07.15-0.19a0.29,0.29,0,0,1-.11-0.31,0.22,0.22,0,0,1,.28,0c0.07,0.08.14,0.08,0.22,0l-0.2-.36L31,57.08a0.2,0.2,0,0,1,.22,0q0.1,0.06.09-.07A0.21,0.21,0,0,0,31.16,57c-0.06,0-.09,0-0.1-0.12s0.08-.11.12-0.07,0.06,0,.06-0.06-0.16-.07-0.1-0.09a0.14,0.14,0,0,0,.09-0.16,0.4,0.4,0,0,1-.08-0.37,2.89,2.89,0,0,0-.59-0.69A1.91,1.91,0,0,1,30,54.58a2.58,2.58,0,0,1-.13-0.89,5.1,5.1,0,0,0-.07-1,2,2,0,0,0-.08-0.49c0-.16-0.1-0.31-0.14-0.43,0-.37,0-0.76,0-1.15s0-.78,0-1.15a4.47,4.47,0,0,1-.07-0.9q0-.4,0-0.78a3.37,3.37,0,0,0,.16-0.66,1.74,1.74,0,0,0,0-.65,8.7,8.7,0,0,0,.07-2.67q0.15-.81.39-1.82A20.93,20.93,0,0,0,30.45,40a2.09,2.09,0,0,0,0-.62,2.09,2.09,0,0,1,0-.62,1.3,1.3,0,0,0,.23-0.32,8.71,8.71,0,0,0,0-1.05,11.42,11.42,0,0,1,0-1.18c0-.21.07-0.4,0.1-0.56a2.36,2.36,0,0,0,0-.56,4.76,4.76,0,0,1,0-1.21q0.07-.59.1-1.22A1.13,1.13,0,0,0,31,32.07a1.73,1.73,0,0,1,0-.56q0.1-.56.2-1.06a4.66,4.66,0,0,0,.07-1.12,7,7,0,0,0,.11-1.12,5.54,5.54,0,0,1,.11-1.06,1,1,0,0,0,.1-0.47,1.94,1.94,0,0,1,0-.47q0.13-1.25.17-2.4t0.11-2.39A2.48,2.48,0,0,1,32,20.77a2.48,2.48,0,0,0,.06-0.65,0.76,0.76,0,0,0,0-.37,2.55,2.55,0,0,1,0-.43l0.16-1.4a4.18,4.18,0,0,0-.09-1.33q-0.08-.31-0.16-0.71a5.44,5.44,0,0,1-.1-0.83,0.81,0.81,0,0,1-.24-0.52,1.07,1.07,0,0,1,.07-0.59,1.65,1.65,0,0,1-.12-0.74,1,1,0,0,0-.25-0.73A1.41,1.41,0,0,1,31.68,12,0.87,0.87,0,0,0,32,11.43q0-.8-1.09-0.76a1.56,1.56,0,0,1-.26-0.33,1.91,1.91,0,0,0-.33-0.39,0.18,0.18,0,0,0-.13-0.06A0.47,0.47,0,0,1,30,9.84a1,1,0,0,1-.26-0.36,0.79,0.79,0,0,0-.2-0.3,0.21,0.21,0,0,0-.16-0.06A0.18,0.18,0,0,1,29.22,9l-0.29-.24a3,3,0,0,1-.29-0.24,2.38,2.38,0,0,0-1-.36,5.65,5.65,0,0,0-1.33,0,6.06,6.06,0,0,0-1.59.53,5.74,5.74,0,0,0-1.2,1l-0.59.61a5,5,0,0,0-.53.61q-0.47.52-.89,1c-0.28.32-.55,0.63-0.83,0.94l-0.39.33a1.33,1.33,0,0,0-.26.32q-0.53.71-1,1.44t-1,1.44a13.25,13.25,0,0,0-1.22,1.85q-0.52,1-1.1,1.91a8.4,8.4,0,0,0-1.1,1.91,7.65,7.65,0,0,0-.86,1.71c-0.11.21-.23,0.44-0.34,0.67a0.56,0.56,0,0,1-.48.36,11,11,0,0,1,.26-2" transform="translate(-1.72 -1.33)"/></svg>