<svg id="Layer_1" data-name="Layer 1" xmlns="http://www.w3.org/2000/svg" viewBox="0 0 141.16 62.39"><defs><style>.cls-1{fill:#082432;}</style></defs><title>Plot10-11</title><path class="cls-1" d="M134.92,3.95a0.51,0.51,0,0,1-.37.14,0.32,0.32,0,0,1,.37-0.14m-1.38,1.18-0.18.19Zm8.68-.19A2.89,2.89,0,0,0,142,4.17q-0.17-.33-0.31-0.64V3.34A2,2,0,0,0,141,2.53a2.58,2.58,0,0,1-.69-0.81c-0.12.09-.21,0.07-0.25-0.05a0.41,0.41,0,0,0-.2-0.24,1,1,0,0,0-.25,0,0.56,0.56,0,0,1-.31,0,0.34,0.34,0,0,1-.19-0.12,1.29,1.29,0,0,1-.74.06,0.39,0.39,0,0,0-.49.18,4.15,4.15,0,0,1-.49.12,4.27,4.27,0,0,0-.49.11,1,1,0,0,1-.6.46,1.42,1.42,0,0,1-.49,1L135,3.88a0.23,0.23,0,0,0-.22-0.08,0.22,0.22,0,0,1-.22-0.08q0.31,0,.29-0.45a0.49,0.49,0,0,1-.31,0L135,3l0.39-.23a1.25,1.25,0,0,0-.79.28,5.75,5.75,0,0,1-.72.53L133.28,4l-0.51.42a31.72,31.72,0,0,0-2.55,2.72,13.16,13.16,0,0,0-2,3.25,0.25,0.25,0,0,1-.11.31,0.26,0.26,0,0,0,0,.38A1.11,1.11,0,0,1,128.4,11a0.21,0.21,0,0,1,.25.08l0.17-.35a2.78,2.78,0,0,1,.26-0.41,1.64,1.64,0,0,1,.27-0.29,0.17,0.17,0,0,1,.25,0c-0.12.17-.22,0.34-0.32,0.51a1.63,1.63,0,0,0-.19.57,0.55,0.55,0,0,0,.14-0.28c0-.1.07-0.14,0.15-0.1a3.08,3.08,0,0,1-.31.63,1.08,1.08,0,0,0-.19.63,1.89,1.89,0,0,1,.11-0.22,2.16,2.16,0,0,0,.11-0.22,0.74,0.74,0,0,0,.47-0.49,0.75,0.75,0,0,1,.41-0.48,0.42,0.42,0,0,1-.17.38,0.25,0.25,0,0,0-.11.32c0.08-.13.15-0.27,0.23-0.41a0.85,0.85,0,0,1,.36-0.36v0.12a1.43,1.43,0,0,0,.21-0.29,1.47,1.47,0,0,1,.2-0.29,1.29,1.29,0,0,0,.63-0.62,2.45,2.45,0,0,1,.56-0.74,4.79,4.79,0,0,1-.69,1.21,5.24,5.24,0,0,0-.69,1.15,0.5,0.5,0,0,0,.23-0.38h0.18l-0.07-.12c0.09,0.08.16,0,.21-0.13s0.15-.21.27-0.14a2.49,2.49,0,0,1-.29.39,0.53,0.53,0,0,0-.17.38q0.35-.51.7-1a2.36,2.36,0,0,1,1-.75A14.23,14.23,0,0,1,133.7,8q0.62-.65,1.28-1.24a0.56,0.56,0,0,1,.49-0.27,1.24,1.24,0,0,1-.29.42,4.12,4.12,0,0,1-.36.29c-0.32.3-.6,0.58-0.83,0.84a8,8,0,0,0-.71.9,8,8,0,0,0,1-1A3.48,3.48,0,0,1,135.42,7q-0.39,2.38-.75,4.9T133.94,17q-0.19,1.44-.43,3L133,23.14q-0.13,1.37-.39,3.15t-0.47,3.47q-0.21,1.68-.36,3.12a9.58,9.58,0,0,0-.06,2.11,3.83,3.83,0,0,1-.09.78c-0.07.35-.13,0.72-0.2,1.09s-0.14.74-.23,1.1a3.11,3.11,0,0,0-.12.78,2.62,2.62,0,0,1,0,1.49Q131,41,131,42t-0.11,1.74l-0.32,1.91q-0.17,1-.31,2.09a11.94,11.94,0,0,0-.1,2.08,5,5,0,0,0,.39,1.81c0.09,0.2.21,0.44,0.34,0.7a1,1,0,0,0,.52.5l0.17,0.3c0.07,0.12.14,0.16,0.22,0.11a1.86,1.86,0,0,1-.24-0.49,0.32,0.32,0,0,1,.2-0.44,0.57,0.57,0,0,1,.07.24,0.2,0.2,0,0,0,.13.18,0.16,0.16,0,0,0-.07-0.15s0,0,.06,0,0.11,0,.09,0,0-.07.09,0a1,1,0,0,0,.35.3,1.59,1.59,0,0,1,.35.23l-0.06-.06a0.05,0.05,0,0,1,.06-0.06h0.06a3.38,3.38,0,0,0-.05-0.46c0-.15.06-0.22,0.27-0.23a2.19,2.19,0,0,1,.23.24,2.17,2.17,0,0,0,.23.24,0.52,0.52,0,0,1,0-.5,0.16,0.16,0,0,1,.16.06,0.16,0.16,0,0,0,.16.06,0.49,0.49,0,0,0,0-.34,0.24,0.24,0,0,1,.05-0.28,0.11,0.11,0,0,1,.1.09q0,0.09,0,0a0.41,0.41,0,0,1,0-.19,0.23,0.23,0,0,0,0-.18h0.19a0.28,0.28,0,0,1,.08-0.25l0.15-.13c0-.17,0-0.31,0-0.43a0.3,0.3,0,0,1,.3-0.26,0.17,0.17,0,0,1,0-.22,0.17,0.17,0,0,0,0-.22,0.36,0.36,0,0,0,.23-0.32,2.66,2.66,0,0,1,0-.5,1.07,1.07,0,0,1,.14-0.32,0.17,0.17,0,0,0,0-.25,0.62,0.62,0,0,0,.15-0.22,0.28,0.28,0,0,1,.15-0.16s0.05,0,0,0,0,0,0,0a1.18,1.18,0,0,0,.08-0.34,0.59,0.59,0,0,1,.14-0.35c0.09,0.08.1,0.15,0,.22s0,0.12,0,.15a1.47,1.47,0,0,0,.29-0.51l0.22-.63h0.12c0-.08,0-0.12,0-0.13s0,0,0-.12,0-.08,0,0,0,0.08-.09,0a4.26,4.26,0,0,0,.52-1.51,6.51,6.51,0,0,1,.4-1.51l0.2-1.12c0.07-.38.13-0.77,0.2-1.19a4.09,4.09,0,0,0,0-1.12,5.84,5.84,0,0,1,0-1.05,9.9,9.9,0,0,1,.06-1.4q0.09-.84.21-1.72t0.21-1.62a7.84,7.84,0,0,0,.07-1.24q0.1-.5.31-2.09L139,27.44q0.23-1.78.48-3.28a16,16,0,0,1,.35-1.82,2,2,0,0,0,.21-0.88,21.1,21.1,0,0,0,.48-2.53q0.16-1.28.29-2.71a0.18,0.18,0,0,0,.06-0.1,0.18,0.18,0,0,1,.06-0.1,5.87,5.87,0,0,1,.17-1.74,3.45,3.45,0,0,1,.13-0.56l0.19-.57a3.66,3.66,0,0,1,0-.81,0.25,0.25,0,0,1,.05-0.19,0.18,0.18,0,0,0,.06-0.13,3.25,3.25,0,0,0,0-.62,3.1,3.1,0,0,1,0-.62A9,9,0,0,0,141.72,9a0.11,0.11,0,0,0,.12-0.13,12,12,0,0,1,.25-1.31,6.94,6.94,0,0,0,.18-1.5Zm-21-.39a0.5,0.5,0,0,1-.37.14,0.32,0.32,0,0,1,.37-0.14m-1.38,1.18-0.18.19Zm8.68-.19a2.85,2.85,0,0,0-.25-0.76c-0.11-.22-0.22-0.44-0.31-0.64V3.94a2,2,0,0,0-.62-0.81,2.58,2.58,0,0,1-.69-0.81c-0.12.09-.2,0.07-0.25-0.05A0.4,0.4,0,0,0,126.2,2a1,1,0,0,0-.25,0,0.56,0.56,0,0,1-.31,0,0.34,0.34,0,0,1-.19-0.12,1.29,1.29,0,0,1-.74.06,0.38,0.38,0,0,0-.49.18,4,4,0,0,1-.49.11l-0.49.12a1,1,0,0,1-.6.46,1.41,1.41,0,0,1-.48,1l-0.81.63a0.23,0.23,0,0,0-.22-0.08,0.22,0.22,0,0,1-.22-0.08q0.31,0,.29-0.45a0.48,0.48,0,0,1-.31,0l0.39-.23,0.39-.24a1.26,1.26,0,0,0-.79.28,5.76,5.76,0,0,1-.72.53l-0.57.49-0.51.42a31.88,31.88,0,0,0-2.55,2.72,13.19,13.19,0,0,0-2,3.25,0.25,0.25,0,0,1-.11.31,0.26,0.26,0,0,0,0,.37,1.16,1.16,0,0,1,.31-0.11,0.21,0.21,0,0,1,.25.08l0.17-.35a2.71,2.71,0,0,1,.26-0.41,1.68,1.68,0,0,1,.27-0.29,0.17,0.17,0,0,1,.25,0c-0.12.17-.22,0.34-0.32,0.51a1.63,1.63,0,0,0-.19.57,0.54,0.54,0,0,0,.14-0.28c0-.1.07-0.14,0.15-0.1a3.08,3.08,0,0,1-.31.63,1.07,1.07,0,0,0-.19.63,1.9,1.9,0,0,1,.11-0.22,2.15,2.15,0,0,0,.11-0.22,0.74,0.74,0,0,0,.47-0.49,0.75,0.75,0,0,1,.41-0.48,0.42,0.42,0,0,1-.17.38,0.25,0.25,0,0,0-.11.32c0.08-.13.15-0.26,0.23-0.41a0.86,0.86,0,0,1,.36-0.36v0.12a1.42,1.42,0,0,0,.2-0.29,1.47,1.47,0,0,1,.21-0.29,1.3,1.3,0,0,0,.63-0.62,2.41,2.41,0,0,1,.56-0.74,4.8,4.8,0,0,1-.69,1.21,5.28,5.28,0,0,0-.69,1.15A0.49,0.49,0,0,0,117,11.3h0.19l-0.07-.12c0.09,0.08.16,0,.21-0.13s0.15-.21.27-0.14a2.55,2.55,0,0,1-.29.39,0.54,0.54,0,0,0-.17.38q0.35-.51.7-1a2.37,2.37,0,0,1,1-.76A14.38,14.38,0,0,1,120,8.57q0.62-.65,1.28-1.24a0.56,0.56,0,0,1,.48-0.27,1.22,1.22,0,0,1-.29.42,4.27,4.27,0,0,1-.36.3c-0.32.3-.6,0.58-0.83,0.84a8.21,8.21,0,0,0-.71.9,7.83,7.83,0,0,0,1-1,3.49,3.49,0,0,1,1.14-.92q-0.39,2.38-.75,4.9t-0.74,5.15q-0.19,1.44-.43,3l-0.48,3.12q-0.13,1.37-.39,3.15t-0.47,3.47q-0.21,1.68-.36,3.12a9.64,9.64,0,0,0-.06,2.11,3.83,3.83,0,0,1-.09.78q-0.1.53-.2,1.09t-0.23,1.1a3.11,3.11,0,0,0-.12.78,2.61,2.61,0,0,1,0,1.49q-0.09.81-.11,1.74t-0.11,1.74l-0.32,1.91q-0.17,1-.31,2.09a11.94,11.94,0,0,0-.09,2.08,5,5,0,0,0,.39,1.81c0.09,0.2.2,0.43,0.34,0.7a1,1,0,0,0,.52.5l0.17,0.3c0.07,0.12.14,0.16,0.22,0.11a1.83,1.83,0,0,1-.24-0.49,0.32,0.32,0,0,1,.2-0.44,0.55,0.55,0,0,1,.07.24,0.2,0.2,0,0,0,.13.18,0.16,0.16,0,0,0-.07-0.15s0,0,.06,0,0.11,0,.09,0,0-.07.09,0a1,1,0,0,0,.35.29,1.64,1.64,0,0,1,.35.23l-0.07-.06a0.05,0.05,0,0,1,.06-0.07h0.06a3.23,3.23,0,0,0-.05-0.46c0-.15.06-0.22,0.27-0.23a2.19,2.19,0,0,1,.23.24,2.39,2.39,0,0,0,.23.24,0.51,0.51,0,0,1,0-.49,0.16,0.16,0,0,1,.16.05,0.16,0.16,0,0,0,.16.06,0.49,0.49,0,0,0,0-.34,0.24,0.24,0,0,1,.05-0.28,0.11,0.11,0,0,1,.1.09q0,0.09,0,0a0.42,0.42,0,0,1,0-.19,0.22,0.22,0,0,0,0-.18h0.19a0.28,0.28,0,0,1,.08-0.25l0.15-.13c0-.17,0-0.31,0-0.43a0.3,0.3,0,0,1,.3-0.26,0.17,0.17,0,0,1,0-.22,0.17,0.17,0,0,0,0-.22,0.36,0.36,0,0,0,.23-0.32,2.64,2.64,0,0,1,0-.5,1,1,0,0,1,.14-0.32,0.17,0.17,0,0,0,0-.25,0.61,0.61,0,0,0,.15-0.22,0.28,0.28,0,0,1,.15-0.16s0.05,0,0,0,0,0,0,0a1.17,1.17,0,0,0,.08-0.34A0.58,0.58,0,0,1,122,48c0.09,0.08.1,0.15,0,.22s0,0.12,0,.15a1.44,1.44,0,0,0,.29-0.51l0.22-.63h0.12c0-.08,0-0.12,0-0.13s0,0,0-.12,0-.08,0,0,0,0.09-.09,0a4.23,4.23,0,0,0,.52-1.51,6.61,6.61,0,0,1,.4-1.51l0.2-1.12c0.07-.38.13-0.77,0.2-1.19a4.13,4.13,0,0,0,0-1.12,5.76,5.76,0,0,1,0-1.05,9.77,9.77,0,0,1,.06-1.4q0.09-.84.2-1.72t0.21-1.62a7.82,7.82,0,0,0,.07-1.24q0.1-.5.31-2.09L125.29,28q0.23-1.78.48-3.28a16,16,0,0,1,.35-1.81,2,2,0,0,0,.21-0.88,21.08,21.08,0,0,0,.48-2.53q0.16-1.28.28-2.71a0.17,0.17,0,0,0,.06-0.09,0.18,0.18,0,0,1,.06-0.1,5.87,5.87,0,0,1,.17-1.74,3.55,3.55,0,0,1,.13-0.56l0.19-.57a3.65,3.65,0,0,1,0-.81,0.25,0.25,0,0,1,.05-0.19,0.18,0.18,0,0,0,.06-0.13,3.17,3.17,0,0,0,0-.62,3.11,3.11,0,0,1,0-.62A8.83,8.83,0,0,0,128,9.65a0.11,0.11,0,0,0,.12-0.13,12,12,0,0,1,.25-1.31,6.94,6.94,0,0,0,.18-1.5ZM116.27,34.3a0.21,0.21,0,0,1-.1-0.18l-0.54-.19a1.27,1.27,0,0,1-.41-0.26,2.68,2.68,0,0,1-.6-0.16l-0.6-.22a0.29,0.29,0,0,0-.22,0c-0.06,0-.12,0-0.16-0.15q-1.75-.23-3-0.37t-2.34-.18a17.24,17.24,0,0,0-2.29.07q-1.17.11-2.84,0.43a0.27,0.27,0,0,0-.25,0,0.39,0.39,0,0,1-.31,0v0.06a0.05,0.05,0,0,1-.06.06q-0.43.08-.8,0.19l-0.8.25a0.6,0.6,0,0,1-.36.26,0.79,0.79,0,0,0-.36.2,2.32,2.32,0,0,0-.69.56,1.92,1.92,0,0,0-.49.92,1,1,0,0,0,.34.67,2.61,2.61,0,0,0,.7.47,1.11,1.11,0,0,1,.57.16,1.78,1.78,0,0,0,.43-0.08,2.38,2.38,0,0,1,.56-0.09,7.91,7.91,0,0,0,1.55-.1l1.6-.23c0.29,0,.58,0,0.86-0.07a4.14,4.14,0,0,1,.87,0,2.65,2.65,0,0,1,.83-0.22Q108,36,108.65,36l1.27-.12a3.79,3.79,0,0,0,1-.2q0.62,0,1.24,0a1.89,1.89,0,0,0,1-.26c0.33,0,.65,0,1-0.07A2.18,2.18,0,0,0,115,35a4.66,4.66,0,0,0,.53-0.05,5.26,5.26,0,0,1,.59-0.06,2.19,2.19,0,0,1,.24-0.23,0.27,0.27,0,0,0,.11-0.22,0.48,0.48,0,0,0-.16-0.18M93.5,17.23V17.3l0.07,0.18a1,1,0,0,1-.07-0.24m0.66,10.83a21.83,21.83,0,0,1-.43,3.71,34.59,34.59,0,0,1-.87,3.48,10.46,10.46,0,0,0-.37,1.38V36.58l-0.1.44a15.23,15.23,0,0,1-.53,2q-0.33,1-.78,2l-0.5,1.33-0.22.57a3.73,3.73,0,0,1-.39,1,1.64,1.64,0,0,1-.14.25,1.65,1.65,0,0,0-.14.26l0.06-.07-0.51,1V45.35a0.18,0.18,0,0,0-.06.09,0.18,0.18,0,0,1-.06.1,0.69,0.69,0,0,0-.12.19V45.61l-0.77.84L87.72,47c-0.12.13-.26,0.29-0.41,0.48a2.43,2.43,0,0,1-.54.49,9.24,9.24,0,0,1-.9.66l-1.66.44a0.42,0.42,0,0,0-.18,0,0.43,0.43,0,0,1-.19,0,0.28,0.28,0,0,0-.12,0,0.28,0.28,0,0,1-.12,0,1.76,1.76,0,0,1-.93,0A2.84,2.84,0,0,1,81.85,49l-0.64-.41-0.38-.23a4.62,4.62,0,0,1-.51-0.94,8.6,8.6,0,0,1-.39-1.13c0-.21,0-0.53-0.07-1a3.94,3.94,0,0,0-.2-1l-0.29-1a0.18,0.18,0,0,0,.06-0.13,2.58,2.58,0,0,0-.05-0.46,1.21,1.21,0,0,0-.1-0.27l-0.21-.61a0.41,0.41,0,0,1,0-.19,0.45,0.45,0,0,0,0-.19,2,2,0,0,0-.18-1.17,5.23,5.23,0,0,0,0-.84l0-.77L79,38.22a0.79,0.79,0,0,0,0-.34l0-.34a1.41,1.41,0,0,0,0-.44c0-.16,0-0.33,0-0.5a2.22,2.22,0,0,1,0-.37,2.73,2.73,0,0,0,0-.44l0.21-1a5.65,5.65,0,0,0,.24-1.5l0-.59a3,3,0,0,1,0-.59L79.68,32l0-.62,0.27-.88L80,30.3A0.51,0.51,0,0,0,80.21,30a2.16,2.16,0,0,0,0-.62,2.55,2.55,0,0,1,.11-0.44,0.18,0.18,0,0,1,.06-0.13l0.23-.32a1.34,1.34,0,0,1,0-.28,1.5,1.5,0,0,0,0-.28c0-.08.08-0.18,0.14-0.29A1.47,1.47,0,0,1,81,27.34a1,1,0,0,1,0-.25,0.84,0.84,0,0,0,0-.19A3.44,3.44,0,0,0,81.43,26a2.25,2.25,0,0,1,.13-0.56,12,12,0,0,1,.38-1.32,3.29,3.29,0,0,1,.69-1.15,3.69,3.69,0,0,1,0-.65,3.34,3.34,0,0,1,.16-0.66A3.64,3.64,0,0,0,83,21a3.17,3.17,0,0,0,0-.62A0.58,0.58,0,0,1,83.16,20a7.1,7.1,0,0,0,.31-0.73s0,0.05.06,0a0.1,0.1,0,0,0,.06-0.1A6.18,6.18,0,0,1,84,18.33V18.27l0.26-.45,0.32-.57L85.5,16v0.06l0.41-.51L86,15.52l0.17-.26c0.08,0,.12,0,0.12,0a0.45,0.45,0,0,1,.12-0.16l0.21-.75s0,0,.09-0.13a2.32,2.32,0,0,1,.39-0.26l0.12-.07a0.18,0.18,0,0,1,.06-0.13l0.12-.13a0.71,0.71,0,0,0,.18-0.13l0.12-.13a0.18,0.18,0,0,1,.06-0.13A0.73,0.73,0,0,0,87.85,13l-0.05.19L87.91,13l0.75-1.4a4.41,4.41,0,0,0,.18-0.78c0-.31.09-0.61,0.12-0.9l1.13,0.32,0.44,0.17a0.34,0.34,0,0,0,.13.18,1.32,1.32,0,0,0,.34.7,4.45,4.45,0,0,0,.58.5l0.51,0.35a1.53,1.53,0,0,0,0,.87,2.07,2.07,0,0,0,.4.73l0.21,0.55s0,0.06,0,.06,0,0,0,.06l0.24,1.11q0.15,0.55.23,1a2,2,0,0,0,.41.91q0,0.31.07,0.83a6.21,6.21,0,0,0,.13.83q0.17,1,.27,2a9.16,9.16,0,0,1,0,1.86l0.08,1.8q0,0.25,0,.84T94,26.89h0.25V27c0,0.17,0,.33,0,0.49a0.5,0.5,0,0,1-.11.38Zm-9.23,26c-0.08,0-.12,0-0.12.07ZM98.15,30.75q0-.43.05-0.93v0.06q0-.31.07-0.59a5.46,5.46,0,0,0,0-.59,1,1,0,0,0,0-.25,1,1,0,0,1,0-.25l-0.12-2.66A0.68,0.68,0,0,1,98,25.23l0-.68a3.2,3.2,0,0,0-.09-0.62,3.52,3.52,0,0,1-.09-0.68c0-.25,0-0.54,0-0.87a0.34,0.34,0,0,1-.13-0.18s0-.1,0-0.19l0-.56V21.4a0.45,0.45,0,0,1-.07-0.18,0.18,0.18,0,0,0-.07-0.12l-0.09-.68a4,4,0,0,0-.05-0.52q0-.21-0.12-0.52c-0.05-.2-0.09-0.4-0.12-0.58A6,6,0,0,1,97,18.14a0.91,0.91,0,0,1-.27-0.42q-0.07-.24-0.15-0.55a1.34,1.34,0,0,0,0-.31,1,1,0,0,1,0-.25,5.29,5.29,0,0,0-.17-0.92Q96.2,15.32,96,14.83a10.76,10.76,0,0,0-.48-1l-0.31-.64a4.84,4.84,0,0,1-.32-0.82,1.55,1.55,0,0,1-.4-0.67v0.12l-0.15-.61a1.47,1.47,0,0,1-.62,0,0.53,0.53,0,0,1-.27-0.42l-0.14-.24A0.41,0.41,0,0,1,93,10.43s-0.05,0,0,.09,0,0.13,0,.09l-0.14-.24c-0.13-.2-0.28-0.4-0.43-0.6a2,2,0,0,0-.67-0.53h0.06a8.59,8.59,0,0,0-2.59-1.13l-0.37,0L89,8.18a1,1,0,0,1-.38-0.11,1.79,1.79,0,0,1-.09-0.62L88.28,7.1V7.16a1,1,0,0,1-.4-0.54l-1-1.2-0.19,0a1,1,0,0,0-.25,0,2.84,2.84,0,0,0-1.3,0,1.73,1.73,0,0,0-.52.21l-0.45.27h0.06L84,6l-0.43.08-0.23.32h0.06a1.4,1.4,0,0,1-.4.2l-0.58.21q-0.18.26-.35,0.48c-0.12.15-.28,0.33-0.47,0.55S81.22,8.3,81,8.47a1.84,1.84,0,0,0-.43.76,3.47,3.47,0,0,0-.32.45L80,10.19,79.51,11c0.08-.09.09,0,0,0.15a1,1,0,0,1-.2.41l-0.12.07a4.71,4.71,0,0,0-.41.51,1.48,1.48,0,0,0-.22.69,3.8,3.8,0,0,0-.64,1q-0.28.63-.62,1.33l-0.74,1.52a2.94,2.94,0,0,1-.14.38,1.2,1.2,0,0,1-.2.32,4.7,4.7,0,0,0-.26.51,1.21,1.21,0,0,0-.13.5,1.28,1.28,0,0,0-.34.76V19.07a3.38,3.38,0,0,0-.17.44,0.6,0.6,0,0,1-.23.32,2.87,2.87,0,0,1-.12.72,4.44,4.44,0,0,1-.26.54l-0.1.63q-0.11.38-.21,0.78a3,3,0,0,1-.34.79,2.34,2.34,0,0,0-.16.5,5,5,0,0,1-.22.69c0.08-.09.07,0.08,0,0.5V24.93a27.54,27.54,0,0,0-1.06,4.86,41.82,41.82,0,0,0-.35,5.44l0.07,1.49a1.17,1.17,0,0,1-.1.63v0.25a1.6,1.6,0,0,0,.08.49,0.68,0.68,0,0,0,0,.22,0.71,0.71,0,0,1,0,.22,4.42,4.42,0,0,1,0,.56,3.46,3.46,0,0,1-.13.63,1.48,1.48,0,0,1,.24.58,5.29,5.29,0,0,1,.06.59,4.17,4.17,0,0,0,.09.68,3.24,3.24,0,0,0,.22.67,10.4,10.4,0,0,0,.27,1.91,2.47,2.47,0,0,1,.42,1,1.93,1.93,0,0,0,.15.55,2.25,2.25,0,0,0,.14.3c0.18,0.24.22,0.41,0.15,0.49a1.77,1.77,0,0,1,.46.66q0.14,0.37.28,0.79a5.45,5.45,0,0,0,.41.82,3.19,3.19,0,0,0,.59.75,3.75,3.75,0,0,0,.43.69c0.2,0.26.38,0.49,0.56,0.69L76.79,51a0.57,0.57,0,0,0,.26.18,0.2,0.2,0,0,0,.19.12,2.48,2.48,0,0,0,.39.39q0.19,0.15.58,0.38H78.14a0.24,0.24,0,0,0,.26.18l0.13,0.18a0.91,0.91,0,0,0,.71.53,0.62,0.62,0,0,0,.45.29h0.06l0.1,0.09L80,53.51a2.17,2.17,0,0,1,.95.33L81.23,54l0.29,0.14a4.83,4.83,0,0,0,1.31.19,7.08,7.08,0,0,0,1.61-.13,0.61,0.61,0,0,1,.28-0.07h0.22a2.57,2.57,0,0,1,1.1-.48l0.15,0a0.65,0.65,0,0,1,.22,0l0.4,0a0.77,0.77,0,0,0,.34-0.08h0.28a0.62,0.62,0,0,0,.28-0.07H87.63a3.43,3.43,0,0,1,.8-0.16L88.6,53a0.85,0.85,0,0,0,.55-0.15H89a4,4,0,0,0,.91-0.54,2.39,2.39,0,0,0,.54-0.52H90.41L91,51.35a4,4,0,0,0,.57-0.52l0.48-.39a1,1,0,0,1,.24-0.2,1,1,0,0,0,.24-0.2l0.12-.13a1.45,1.45,0,0,0,.17-0.38v0.12L93,49.47l0.75-1.4,0.35-.57a0.54,0.54,0,0,1,.05-0.25,0.18,0.18,0,0,0,.06-0.13A0.18,0.18,0,0,1,94.24,47v0.06l0.23-.51a3.65,3.65,0,0,0,.43-0.83,6.23,6.23,0,0,0,.3-1v0.06c0.07-.25.14-0.49,0.22-0.72a2.3,2.3,0,0,1,.34-0.67V43.14L96,42.51l0.39-1a0.12,0.12,0,0,1,0-.09,0.24,0.24,0,0,0,0-.16,2.71,2.71,0,0,1,.1-0.44V40.75a0.12,0.12,0,0,1,0-.09,0.13,0.13,0,0,0,0-.09v0.19a1.66,1.66,0,0,0,.35-0.57,1.2,1.2,0,0,1,.16-0.63V39.42a0.18,0.18,0,0,1,.06-0.13,0.51,0.51,0,0,1,.11-0.38,2.63,2.63,0,0,0,.28-0.76q0-.31.15-0.75v0.06a2,2,0,0,0,.09-0.75V36.47A2.24,2.24,0,0,1,97.82,36,5.9,5.9,0,0,1,98,35.35a1.05,1.05,0,0,1,0-.25,1.05,1.05,0,0,0,0-.25l0.1-.66q0-.34.15-0.78a2,2,0,0,1,.1-0.62,2.4,2.4,0,0,0,.07-0.44,6.72,6.72,0,0,0,0-.74c-0.17,0-.25,0-0.25.07a4.66,4.66,0,0,1-.07-0.93M65.07,7a0.5,0.5,0,0,1-.37.14A0.31,0.31,0,0,1,65.07,7M63.69,8.17l-0.18.19ZM72.37,8a2.85,2.85,0,0,0-.25-0.76C72,7,71.91,6.78,71.81,6.58V6.39a2,2,0,0,0-.62-0.81,2.58,2.58,0,0,1-.69-0.81c-0.12.09-.2,0.07-0.25-0.05A0.4,0.4,0,0,0,70,4.48a1,1,0,0,0-.25,0,0.55,0.55,0,0,1-.31,0,0.34,0.34,0,0,1-.19-0.12,1.3,1.3,0,0,1-.74.06,0.38,0.38,0,0,0-.49.18,4.16,4.16,0,0,1-.49.11l-0.49.12a1,1,0,0,1-.6.46,1.41,1.41,0,0,1-.48,1l-0.81.63A0.22,0.22,0,0,0,65,6.84a0.22,0.22,0,0,1-.22-0.08c0.21,0,.3-0.16.29-0.45a0.48,0.48,0,0,1-.31,0L65.12,6l0.39-.23a1.26,1.26,0,0,0-.79.28,5.76,5.76,0,0,1-.72.53l-0.57.49-0.51.43a31.88,31.88,0,0,0-2.55,2.72,13.17,13.17,0,0,0-2,3.25,0.25,0.25,0,0,1-.11.31,0.26,0.26,0,0,0,0,.37,1.14,1.14,0,0,1,.31-0.11,0.21,0.21,0,0,1,.25.08L59,13.81a2.79,2.79,0,0,1,.26-0.41,1.75,1.75,0,0,1,.27-0.29,0.17,0.17,0,0,1,.25,0c-0.12.17-.22,0.34-0.32,0.51a1.65,1.65,0,0,0-.19.57,0.54,0.54,0,0,0,.14-0.29q0-.15.15-0.1a3.1,3.1,0,0,1-.31.63,1.07,1.07,0,0,0-.19.63,2,2,0,0,1,.11-0.22,2.18,2.18,0,0,0,.11-0.22,0.74,0.74,0,0,0,.48-0.49,0.75,0.75,0,0,1,.41-0.48A0.42,0.42,0,0,1,60,14a0.25,0.25,0,0,0-.11.32c0.08-.13.15-0.26,0.23-0.41a0.86,0.86,0,0,1,.36-0.36v0.12a1.45,1.45,0,0,0,.2-0.29,1.47,1.47,0,0,1,.21-0.29,1.31,1.31,0,0,0,.63-0.62A2.41,2.41,0,0,1,62,11.78,4.77,4.77,0,0,1,61.36,13a5.25,5.25,0,0,0-.69,1.15,0.49,0.49,0,0,0,.23-0.38h0.19L61,13.63c0.08,0.08.16,0,.21-0.13s0.15-.21.27-0.14a2.56,2.56,0,0,1-.29.39,0.54,0.54,0,0,0-.17.38c0.23-.34.47-0.67,0.7-1a2.36,2.36,0,0,1,1-.76A14.2,14.2,0,0,1,63.85,11q0.62-.65,1.28-1.24a0.56,0.56,0,0,1,.49-0.27,1.23,1.23,0,0,1-.29.42,4.24,4.24,0,0,1-.36.3q-0.48.46-.83,0.84a8,8,0,0,0-.71.9,7.82,7.82,0,0,0,1-1A3.5,3.5,0,0,1,65.57,10q-0.39,2.38-.75,4.9t-0.74,5.15q-0.19,1.44-.43,3l-0.48,3.13q-0.13,1.37-.39,3.15t-0.47,3.46q-0.21,1.68-.36,3.12A9.71,9.71,0,0,0,61.89,38a3.76,3.76,0,0,1-.09.78q-0.1.53-.2,1.1c-0.07.38-.14,0.74-0.23,1.1a3.12,3.12,0,0,0-.12.78,2.61,2.61,0,0,1,0,1.49q-0.09.81-.11,1.74T61,46.77l-0.32,1.91q-0.17,1-.31,2.09a11.94,11.94,0,0,0-.1,2.08,5.05,5.05,0,0,0,.39,1.81q0.14,0.3.34,0.7a1,1,0,0,0,.52.5l0.17,0.3c0.07,0.12.14,0.16,0.22,0.12a1.85,1.85,0,0,1-.24-0.49,0.32,0.32,0,0,1,.2-0.44,0.55,0.55,0,0,1,.07.25,0.2,0.2,0,0,0,.13.18A0.16,0.16,0,0,0,62,55.63s0,0,.06,0,0.11,0,.09,0,0-.07.09,0a1,1,0,0,0,.35.3,1.6,1.6,0,0,1,.35.23L62.92,56A0.06,0.06,0,0,1,63,55.93H63A3.26,3.26,0,0,0,63,55.46c0-.14.06-0.22,0.27-0.23a2.28,2.28,0,0,1,.23.24,2.5,2.5,0,0,0,.23.24,0.52,0.52,0,0,1,0-.5,0.16,0.16,0,0,1,.16.06,0.16,0.16,0,0,0,.16.05A0.49,0.49,0,0,0,64,55a0.24,0.24,0,0,1,0-.28,0.11,0.11,0,0,1,.1.09c0,0.06,0,0,0,0a0.41,0.41,0,0,1,0-.19,0.22,0.22,0,0,0,0-.18h0.19a0.28,0.28,0,0,1,.08-0.25L64.58,54l0-.43a0.3,0.3,0,0,1,.3-0.26,0.17,0.17,0,0,1,0-.22,0.17,0.17,0,0,0,0-.22,0.37,0.37,0,0,0,.23-0.32,2.72,2.72,0,0,1,0-.5,1.06,1.06,0,0,1,.14-0.32,0.17,0.17,0,0,0,0-.25,0.61,0.61,0,0,0,.14-0.22,0.28,0.28,0,0,1,.15-0.16s0.05,0,0,0,0,0,0,0a1.17,1.17,0,0,0,.08-0.34,0.58,0.58,0,0,1,.14-0.35c0.09,0.08.1,0.15,0,.22s0,0.12,0,.15a1.44,1.44,0,0,0,.29-0.51l0.22-.63h0.12c0-.08,0-0.12,0-0.12s0,0,0-.12,0-.08,0,0,0,0.09-.09,0A4.23,4.23,0,0,0,67,47.93a6.55,6.55,0,0,1,.4-1.51l0.2-1.13q0.1-.56.2-1.19a4.09,4.09,0,0,0,0-1.12,5.77,5.77,0,0,1,0-1.06,9.76,9.76,0,0,1,.06-1.4q0.09-.84.2-1.72t0.21-1.62A8,8,0,0,0,68.38,36q0.1-.5.31-2.09l0.44-3.37q0.23-1.78.48-3.28A15.58,15.58,0,0,1,70,25.4a2,2,0,0,0,.21-0.88A21.31,21.31,0,0,0,70.66,22q0.16-1.28.29-2.71a0.17,0.17,0,0,0,.06-0.1,0.17,0.17,0,0,1,.06-0.1,5.87,5.87,0,0,1,.17-1.74,3.55,3.55,0,0,1,.13-0.56l0.19-.57a3.71,3.71,0,0,1,0-.81,0.25,0.25,0,0,1,.05-0.19,0.18,0.18,0,0,0,.06-0.13,3.18,3.18,0,0,0,0-.62,3.18,3.18,0,0,1,0-.62,8.82,8.82,0,0,0,.11-1.74A0.11,0.11,0,0,0,72,12a11.83,11.83,0,0,1,.25-1.31,7,7,0,0,0,.18-1.5ZM55.49,53.12c0-.06,0-0.09.09-0.1a0.28,0.28,0,0,0,.24-0.1,0.2,0.2,0,0,1,.18-0.1c0.16-.09.34-0.18,0.55-0.27A0.76,0.76,0,0,0,57,52.09a2,2,0,0,1,.2-0.44,1.66,1.66,0,0,0,.19-0.57,5.32,5.32,0,0,0,.09-1.59,2.84,2.84,0,0,0-.4-1.38,2.88,2.88,0,0,0-.52-0.47,3.4,3.4,0,0,0-.7-0.34,2.6,2.6,0,0,1-.62.09,1.84,1.84,0,0,0-.68.15c0,0.12,0,.19-0.12.19a2.82,2.82,0,0,0-1.28,1.14,2.6,2.6,0,0,0-.32,1.85,1.33,1.33,0,0,0,.12.52,2.8,2.8,0,0,1,.18.52,2,2,0,0,0,.24.64,2,2,0,0,1,.24.58h0.25a0.35,0.35,0,0,1,.24-0.26,0.33,0.33,0,0,1,.2.24,0.35,0.35,0,0,0,.14.24A0.18,0.18,0,0,0,54.55,53a0.17,0.17,0,0,1,.15-0.19A0.29,0.29,0,0,1,55,53a0.43,0.43,0,0,0,.38.26,0.13,0.13,0,0,0,.09-0.16M48.95,42.45A11.29,11.29,0,0,1,49.1,41q0.12-.72.21-1.71a0.08,0.08,0,0,0,.12,0,0.08,0.08,0,0,1,.12,0Zm-2.28,1.15a3.74,3.74,0,0,1-.3,1.07q-0.23.51-.45,1t-0.52,1a8.45,8.45,0,0,0-.26,1,2.15,2.15,0,0,1-.4.92,1,1,0,0,0-.24.2L44.27,49c-0.08,0-.12.06-0.12,0s0,0-.06,0A0.05,0.05,0,0,1,44,48.94a3.62,3.62,0,0,1-.77.93,7.71,7.71,0,0,0-.89.94,3.4,3.4,0,0,1-1,.54q-0.49.15-1.23,0.3l-0.95.29a1.54,1.54,0,0,1-1.09-.14,4,4,0,0,1-.56-0.66,4.5,4.5,0,0,1-.44-0.73V50.17a3.57,3.57,0,0,0-.14-0.4l-0.14-.27a0.67,0.67,0,0,1,0-.22,0.7,0.7,0,0,0,0-.22,4.16,4.16,0,0,0-.05-0.5A4.27,4.27,0,0,1,36.72,48a2.28,2.28,0,0,0,.11-1,1.92,1.92,0,0,1,.12-0.91,3.93,3.93,0,0,0,0-.75,5.15,5.15,0,0,1,.5-1.32q0.34-.64.69-1.33l0.64-1a5.55,5.55,0,0,0,.57-1.17l0.24-.26a0.72,0.72,0,0,0,.1-0.5,1,1,0,0,0,.69-0.65,7.63,7.63,0,0,1,.48-1,2.53,2.53,0,0,1,.29-0.39,2.45,2.45,0,0,0,.29-0.39,2.72,2.72,0,0,0,.25-0.63A1.77,1.77,0,0,1,42,36.18a3.38,3.38,0,0,1,.72.74,2.88,2.88,0,0,0,.65.69A0.92,0.92,0,0,0,44,38a0.5,0.5,0,0,0,.38.11L45,38.62a0.78,0.78,0,0,0,.69.19,5,5,0,0,0,.82.34,2,2,0,0,0,1,.08,1.46,1.46,0,0,1-.06.84,5.77,5.77,0,0,0-.31.79,8.4,8.4,0,0,0-.14,1,3.39,3.39,0,0,1-.21.91q0,0.31-.12.87m-1.33-10a2.58,2.58,0,0,1,.08.52l0.33,0.36a0.58,0.58,0,0,1,.17.33,1.52,1.52,0,0,0,.17.46,3.93,3.93,0,0,0,.33.39,1.77,1.77,0,0,1,.33.58V36.4a0.28,0.28,0,0,1-.31.08l-0.31-.11a2.36,2.36,0,0,1-1-.61,5.15,5.15,0,0,1-.79-1,1.3,1.3,0,0,1,0-.84A0.86,0.86,0,0,1,45,33.32a0.43,0.43,0,0,1,.39.33m12.38,0.79a0.56,0.56,0,0,0-.28.1l-0.36.26a0.52,0.52,0,0,1-.52.05,2.43,2.43,0,0,1-.94.57Q55,35.67,53.94,36a2,2,0,0,1-.74.19c-0.33,0-.68.06-1.05,0.08s-0.73,0-1.09,0h-0.9a0.92,0.92,0,0,1-.28,0,0.73,0.73,0,0,0-.34,0,0.6,0.6,0,0,1-.16-0.21A0.14,0.14,0,0,0,49.23,36a1.38,1.38,0,0,0-.15-0.61A0.68,0.68,0,0,1,49,35.13a0.43,0.43,0,0,0-.14-0.3C48.91,35,49,35.24,49,35.47a2.46,2.46,0,0,1,.12.65,0.25,0.25,0,0,1-.26-0.21,1.32,1.32,0,0,1-.08-0.34q-0.14-.37-0.28-0.76a3.29,3.29,0,0,0-.34-0.7,0.68,0.68,0,0,1-.49-0.51,5,5,0,0,0-.25-0.7,2.58,2.58,0,0,0-.3-0.51A1,1,0,0,1,47,31.8l-0.45-.29a0.17,0.17,0,0,0,.05-0.22,0.29,0.29,0,0,1-.07-0.15,0.37,0.37,0,0,1-.31-0.08A0.21,0.21,0,0,0,46,31a0.31,0.31,0,0,1,0,.5,0.2,0.2,0,0,1-.25,0,0.21,0.21,0,0,0-.19-0.08,0.18,0.18,0,0,0-.12.16c0,0.06,0,.09-0.12.1a0.56,0.56,0,0,0-.66-0.16,0.84,0.84,0,0,1-.72,0,4.51,4.51,0,0,0-.56.58,0.53,0.53,0,0,1-.77.1,1.2,1.2,0,0,0-.2.32,0.26,0.26,0,0,1-.21.2,1.7,1.7,0,0,0-.13-0.86,2.89,2.89,0,0,0-.43-0.66,7.3,7.3,0,0,0-1.05-.64,1.29,1.29,0,0,0-1.33.06,0.05,0.05,0,0,1-.06.06H39.12a7.25,7.25,0,0,0-1.05.79l-1,.91a11.14,11.14,0,0,0-.91,1.13q-0.38.54-.84,1.25A23.54,23.54,0,0,0,32.6,39.6a16.21,16.21,0,0,0-1.25,6.11v0.06a5.46,5.46,0,0,1,0,.59,1.57,1.57,0,0,1-.13.53q0.15,0.49.26,1c0.08,0.33.14,0.66,0.2,1l0,0.43,0.26,0.24a23.54,23.54,0,0,1,.88,2.35,2.94,2.94,0,0,0,1.54,1.83,7.92,7.92,0,0,0,1.26,1.25,3.52,3.52,0,0,0,1.68.73,1.63,1.63,0,0,0,1,0,3.81,3.81,0,0,1,.92-0.16,0.13,0.13,0,0,1,.09,0,0.12,0.12,0,0,0,.09,0,2.49,2.49,0,0,0,1.47-.4,4.09,4.09,0,0,1,1.34-.59A2.8,2.8,0,0,1,42.94,54a2.89,2.89,0,0,0,.72-0.56,1,1,0,0,1,.47-0.58,1.94,1.94,0,0,1,.3-0.26,1.1,1.1,0,0,0,.3-0.32L44.87,52a3.18,3.18,0,0,1,.2-0.38,1.74,1.74,0,0,0,.25-0.6,6,6,0,0,1,.19-0.66,6,6,0,0,1,.67-1.05,6.08,6.08,0,0,0,.67-1.05A4.66,4.66,0,0,0,47,47.5a4.65,4.65,0,0,1,.24-0.88v0.12a0.05,0.05,0,0,1-.06.06l0.29-.51a1.4,1.4,0,0,0,.17-0.44,2.63,2.63,0,0,0,.45-1.08c0-.08,0-0.13,0-0.12s0,0,0-.13a4.54,4.54,0,0,1,.33-1.07,10.22,10.22,0,0,0,.39-1,2,2,0,0,1-.15.72,1.19,1.19,0,0,0-.1.59,13.12,13.12,0,0,0,.59-2.17q0.15-.91.39-2.34,0.31,0,1.17-.11a16.71,16.71,0,0,0,2-.36A16.1,16.1,0,0,0,55,38.06a7,7,0,0,0,2-1.17,0.34,0.34,0,0,1,.17-0.26,0.93,0.93,0,0,0,.29-0.39A1.79,1.79,0,0,0,58,35.41a0.5,0.5,0,0,0-.12-0.61c-0.05-.25-0.12-0.37-0.2-0.36M12.49,25.89a8.14,8.14,0,0,0,.19-2,3.37,3.37,0,0,0,.16-0.66c0-.23.06-0.47,0.09-0.72A11,11,0,0,0,13,20.93q0-.87,0-1.55a10.14,10.14,0,0,0,.13-1.22A3.48,3.48,0,0,0,13.07,17a0.72,0.72,0,0,0,.13-0.59,2.57,2.57,0,0,1,0-.71A16.6,16.6,0,0,0,13.28,14,2.71,2.71,0,0,0,13,12.74a1.21,1.21,0,0,0-.06-0.62,3.43,3.43,0,0,1-.18-0.55q-0.54-.91-1.06-1.63a9.53,9.53,0,0,0-1.24-1.37A1.75,1.75,0,0,1,10,8.41,0.84,0.84,0,0,0,9.58,8.3a2.74,2.74,0,0,0-1,0,2.6,2.6,0,0,0-1,.35,0.11,0.11,0,0,0-.09.1,0.29,0.29,0,0,1-.15.16Q7,9.22,6.84,9.38a1.82,1.82,0,0,0-.35.48,5.53,5.53,0,0,0-.53.67,1,1,0,0,0-.15.78,1.57,1.57,0,0,0-.27.94,4.11,4.11,0,0,1-.08,1,4.43,4.43,0,0,1-.13.5,4.33,4.33,0,0,0-.13.5,0.68,0.68,0,0,0,0,.22,0.71,0.71,0,0,1,0,.22c-0.06.46-.11,0.92-0.16,1.37S5,17,5,17.44a3,3,0,0,0,0,.59l0,0.59a1,1,0,0,0-.11.44,38.66,38.66,0,0,1-.56,5.73l-1,5.75a8.86,8.86,0,0,0-.14.94,9.32,9.32,0,0,1-.15.94c0,0.33-.05.67-0.08,1s-0.05.68-.08,1.06a6.69,6.69,0,0,0-.29,1.87Q2.31,38,2.13,39.47t-0.24,3a5,5,0,0,0-.09.87,9.61,9.61,0,0,1-.16,1.4A9.48,9.48,0,0,0,1.49,46q-0.24,3-.35,6.13a36.27,36.27,0,0,0,.34,6.35,3.3,3.3,0,0,1,.22.67,1.92,1.92,0,0,0,.28.67c0.21,0,.31,0,0.31.08a0.39,0.39,0,0,0,.14.27,0.63,0.63,0,0,0,.22.15,0.27,0.27,0,0,1,.16.15,0.14,0.14,0,0,1,0,.15,0.13,0.13,0,0,0,.1.15,0.89,0.89,0,0,1,.48.38,0.89,0.89,0,0,0,.48.38,0.59,0.59,0,0,0,.37,0,1.18,1.18,0,0,1,.37-0.08,0.3,0.3,0,0,1,.22.08,0.29,0.29,0,0,0,.22.08,0.5,0.5,0,0,0,.31-0.11,0.17,0.17,0,0,1,.25,0A1.15,1.15,0,0,0,5.9,61a1.75,1.75,0,0,1,.26-0.57,0.85,0.85,0,0,0,.57-0.52,3.36,3.36,0,0,0,.18-0.88C7,59,7,59,7.08,59.05a0.12,0.12,0,0,0,.19.05,1.4,1.4,0,0,1,.13-1.25,0.84,0.84,0,0,1,.2-1c0.08-.09.14-0.1,0.18,0A0.21,0.21,0,0,0,8,56.9,2.32,2.32,0,0,0,8,56a0.81,0.81,0,0,1,.34-0.82,0.2,0.2,0,0,1,0-.22,0.21,0.21,0,0,0,0-.22,3.61,3.61,0,0,0,.34-1.35c0-.52.09-1,0.16-1.4a2,2,0,0,1,0-.5L9,51a2.57,2.57,0,0,0,0-1,3.72,3.72,0,0,1,0-1,1.65,1.65,0,0,0,.15-0.94l0-.56a2.46,2.46,0,0,0,.12-0.72,5.9,5.9,0,0,1,.06-0.72,6.38,6.38,0,0,1,.17-1q0.13-.53.23-1.1,0.09-.81.19-1.43A12.62,12.62,0,0,0,10,41.24,0.25,0.25,0,0,0,10.11,41a0.56,0.56,0,0,1,0-.31c0-.17.07-0.32,0.1-0.47s0.07-.28.11-0.41a1.27,1.27,0,0,1,0-.31,1.21,1.21,0,0,1,.08-0.25,0.75,0.75,0,0,1,.05-0.28c0-.1.07-0.22,0.11-0.35A1.32,1.32,0,0,0,10.66,38a1.28,1.28,0,0,1,.07-0.62,2.19,2.19,0,0,1,.16-0.57q0.11-.25.22-0.57a13.32,13.32,0,0,1,.91-2q0.52-.92,1.1-1.82a0.92,0.92,0,0,1,.22-0.6l0.48-.42A0.54,0.54,0,0,0,14,31.1a0.54,0.54,0,0,1,.14-0.29,3,3,0,0,1,.35-0.45A0.78,0.78,0,0,0,14.63,30a2.38,2.38,0,0,1,.11-0.31,1.61,1.61,0,0,1,.33-0.26l0.39-.26A20.43,20.43,0,0,1,17.18,26q1-1.5,2-3A3.19,3.19,0,0,0,20,22.12l0.7-1a0.68,0.68,0,0,1,0-.31,0.55,0.55,0,0,0,.05-0.25q0.29-.45.61-0.9a10.66,10.66,0,0,0,.61-1A5.52,5.52,0,0,1,23,17.55q0.54-.49,1.07-1A2.59,2.59,0,0,0,24.6,16a1.49,1.49,0,0,1,.69-0.47,15.9,15.9,0,0,1-.12,2.86q-0.19,1.37-.44,2.69t-0.54,2.6Q23.9,25,23.71,26.3a8.4,8.4,0,0,0-.14,1c0,0.31-.08.65-0.14,1q-0.08,1.06-.25,2.06t-0.26,1.87q-0.07,1.18-.05,2.3a16.35,16.35,0,0,1-.12,2.24q-0.23,1.75-.47,3.47T21.8,43.7a25.88,25.88,0,0,0-.34,3q-0.09,1.56-.14,3.11a17.24,17.24,0,0,0,0,3.44,24.64,24.64,0,0,0,.55,3.36q0.15,0.68.24,1.23a3.06,3.06,0,0,0,.35,1,4,4,0,0,0,.54.91l0.72,0.9a6.56,6.56,0,0,0,1.34,1.59,5.61,5.61,0,0,0,2,1,0.26,0.26,0,0,1,.25,0,0.55,0.55,0,0,0,.25.05,1.82,1.82,0,0,0,1,.39,3.64,3.64,0,0,0,1.33-.06A0.28,0.28,0,0,1,30,63.39a0.48,0.48,0,0,0,.15-0.19,0.51,0.51,0,0,1-.51-0.41,0.68,0.68,0,0,1,.22,0L30,62.89a0.26,0.26,0,0,0-.16-0.21,0.12,0.12,0,0,1,0-.22,0.55,0.55,0,0,1,.47,0,0.74,0.74,0,0,0,.47.1,0.76,0.76,0,0,1,.3-0.2,1.61,1.61,0,0,0,.36-0.2,2.76,2.76,0,0,1-.66-0.28,1.36,1.36,0,0,1-.49-0.6c0.21,0,.25-0.07.15-0.19a0.29,0.29,0,0,1-.11-0.31,0.22,0.22,0,0,1,.28,0c0.07,0.08.14,0.08,0.22,0l-0.2-.36-0.2-.36a0.2,0.2,0,0,1,.22,0q0.1,0.06.09-.07A0.21,0.21,0,0,0,30.55,60c-0.06,0-.09,0-0.1-0.12s0.08-.11.12-0.07,0.06,0,.06-0.06-0.16-.07-0.1-0.09a0.14,0.14,0,0,0,.09-0.16,0.4,0.4,0,0,1-.08-0.37A2.89,2.89,0,0,0,30,58.45a1.91,1.91,0,0,1-.53-0.81,2.58,2.58,0,0,1-.13-0.89,5.1,5.1,0,0,0-.07-1,2,2,0,0,0-.08-0.49c0-.16-0.1-0.31-0.14-0.43,0-.37,0-0.76,0-1.15s0-.78,0-1.15a4.47,4.47,0,0,1-.07-0.9q0-.4,0-0.78A3.37,3.37,0,0,0,29,50.24a1.74,1.74,0,0,0,0-.65,8.7,8.7,0,0,0,.07-2.67q0.15-.81.39-1.82A20.93,20.93,0,0,0,29.84,43a2.09,2.09,0,0,0,0-.62,2.09,2.09,0,0,1,0-.62,1.3,1.3,0,0,0,.23-0.32,8.52,8.52,0,0,0,0-1.05,11.72,11.72,0,0,1,0-1.18c0-.21.07-0.4,0.1-0.56a2.36,2.36,0,0,0,0-.56,4.76,4.76,0,0,1,0-1.21q0.07-.59.1-1.22a1.13,1.13,0,0,0,.07-0.56,1.73,1.73,0,0,1,0-.56q0.1-.56.2-1.06a4.66,4.66,0,0,0,.07-1.12,7,7,0,0,0,.11-1.12,5.54,5.54,0,0,1,.11-1.06,1,1,0,0,0,.1-0.47,1.94,1.94,0,0,1,0-.47q0.13-1.25.17-2.4t0.11-2.39a2.48,2.48,0,0,1,.07-0.65,2.48,2.48,0,0,0,.06-0.65,0.76,0.76,0,0,0,0-.37,2.55,2.55,0,0,1,0-.43L31.58,21a4.18,4.18,0,0,0-.09-1.33q-0.08-.31-0.16-0.71a5.44,5.44,0,0,1-.1-0.83A0.81,0.81,0,0,1,31,17.57,1.07,1.07,0,0,1,31.06,17a1.65,1.65,0,0,1-.12-0.74,1,1,0,0,0-.25-0.73A1.41,1.41,0,0,1,31.07,15a0.87,0.87,0,0,0,.32-0.54q0-.8-1.09-0.76A1.56,1.56,0,0,1,30,13.4,1.91,1.91,0,0,0,29.71,13,0.18,0.18,0,0,0,29.58,13a0.47,0.47,0,0,1-.19-0.05,1,1,0,0,1-.26-0.36,0.79,0.79,0,0,0-.2-0.3,0.21,0.21,0,0,0-.16-0.06,0.18,0.18,0,0,1-.16-0.12l-0.29-.24A3,3,0,0,1,28,11.59a2.38,2.38,0,0,0-1-.36,5.65,5.65,0,0,0-1.33,0,6.06,6.06,0,0,0-1.59.53,5.74,5.74,0,0,0-1.2,1l-0.59.61a5,5,0,0,0-.53.61q-0.47.52-.89,1c-0.28.32-.55,0.63-0.83,0.94l-0.39.33a1.33,1.33,0,0,0-.26.32q-0.53.71-1,1.44t-1,1.44a13.25,13.25,0,0,0-1.22,1.85q-0.52,1-1.1,1.91a8.4,8.4,0,0,0-1.1,1.91,7.65,7.65,0,0,0-.86,1.71c-0.11.21-.23,0.44-0.34,0.67a0.56,0.56,0,0,1-.48.36,11,11,0,0,1,.26-2" transform="translate(-1.11 -1.34)"/></svg>