<svg id="Layer_1" data-name="Layer 1" xmlns="http://www.w3.org/2000/svg" viewBox="0 0 123.45 62.07"><defs><style>.cls-1{fill:#082432;}</style></defs><title>Plot5-7</title><path class="cls-1" d="M98.16,11.14A0.33,0.33,0,0,0,98.46,11V11.1a0.35,0.35,0,0,1-.24.13,0.36,0.36,0,0,0-.24.14,0.35,0.35,0,0,1-.13-0.18,0.51,0.51,0,0,1,.31,0m4.92-4h0.06s0,0.05,0,0a0.38,0.38,0,0,1-.16-0.09,0.05,0.05,0,0,0,.07.06,1.32,1.32,0,0,1-.46.21L102,7.53l0.15-.16c0.06-.06.09-0.06,0.09,0a0.78,0.78,0,0,1,.3-0.2,0.28,0.28,0,0,1,.31,0,0.24,0.24,0,0,1,.24-0.2c0,0.08,0,.12,0,0.12M111.26,5a0.45,0.45,0,0,0,.34-0.11V5.06a0.25,0.25,0,0,0-.34,0,0.28,0.28,0,0,1-.4,0,0.66,0.66,0,0,1,.4-0.11m-1.09,0,2-.34V4.66a5.45,5.45,0,0,1-.89.19L110.43,5c0,0.16.11,0.2,0.19,0.12a0.16,0.16,0,0,1,.25,0,0.65,0.65,0,0,1-.55.21l-1.51.31Q108,5.78,107.18,6q-0.37.14-.73,0.25a1.07,1.07,0,0,1-.56.06q-0.06.13-.09,0.07s-0.05,0-.09.07-0.06,0-.07-0.12a4,4,0,0,1-1,.35A7.12,7.12,0,0,0,103.5,7s0,0,0,.06S103.35,7,103.32,7a0.25,0.25,0,0,1-.18.07A0.22,0.22,0,0,1,103.34,7a0.22,0.22,0,0,0,.21-0.13l0.55-.18,0.55-.18A10.39,10.39,0,0,0,105.85,6,6,6,0,0,1,107,5.63a1.57,1.57,0,0,1,.46-0.17A1.53,1.53,0,0,0,108,5.28l2.22-.35M101,7.82a3.48,3.48,0,0,1,.68-0.15l-2.07,1a12.34,12.34,0,0,1-2.26.78c0,0.08.06,0.1,0.16,0.06s0.15,0,.16.12a0.74,0.74,0,0,1-.39.3,0.47,0.47,0,0,0-.32.35,1.11,1.11,0,0,1,.5.1v0.31a2.38,2.38,0,0,0-.6.46A0.44,0.44,0,0,1,97.22,11a0.4,0.4,0,0,0,.31,0,0.75,0.75,0,0,1,.3.36,0.47,0.47,0,0,0,.35.29,1.54,1.54,0,0,1,.55-0.15,2,2,0,0,0,.49-0.08,1.43,1.43,0,0,0,.49-0.12,5.18,5.18,0,0,0,.49-0.24l1.77-.7,1.77-.7a0.18,0.18,0,0,0,.06-0.13,0.18,0.18,0,0,1,.06-0.13,1.11,1.11,0,0,0,.49-0.11l0.3-.17,1.59-.47a7.24,7.24,0,0,0,1.46-.59,3.24,3.24,0,0,0-.71.12,1,1,0,0,1-.65,0,0.56,0.56,0,0,1,.39-0.33,3.76,3.76,0,0,0,.58-0.21q0.43-.14.89-0.26t0.89-.26A10.05,10.05,0,0,1,111,6.64q1-.17,2.06-0.4l0.5,0a0.71,0.71,0,0,1,.31,0l0.31,0.11a0.4,0.4,0,0,0,.31,0,0.4,0.4,0,0,1,.31,0q-0.1.63-.2,1.13a7.7,7.7,0,0,0-.14,1.12,7.82,7.82,0,0,0-.89,2.33q-0.28.7-.6,1.3a7.18,7.18,0,0,0-.53,1.36,5,5,0,0,0-.49,1,7.9,7.9,0,0,1-.48,1,3.63,3.63,0,0,1-.41,1.26,4.75,4.75,0,0,0-.47,1.26,0.34,0.34,0,0,0-.18.13v0.25a34.14,34.14,0,0,0-1.72,4,34.31,34.31,0,0,1-1.72,4l-2.67.71a7,7,0,0,0-2.28,1.06,0.12,0.12,0,0,0-.09,0,0.24,0.24,0,0,1-.15,0,4.49,4.49,0,0,1-.66.59,1.19,1.19,0,0,0-.47.64,0.65,0.65,0,0,0,.6.22,3.06,3.06,0,0,1,.65-0.09,0.35,0.35,0,0,1-.36.33,1.49,1.49,0,0,0-.55.21,0.18,0.18,0,0,0,.28.14,1,1,0,0,1,.34-0.11,0.56,0.56,0,0,0,.44,0l0.37-.14,0.28,0a0.42,0.42,0,0,0,.28,0,10.59,10.59,0,0,0,1.43-.59,3.75,3.75,0,0,1,1.5-.41,0.3,0.3,0,0,1-.08.22,0.3,0.3,0,0,0-.08.22q-0.8.22-1.47,0.47a12.48,12.48,0,0,0-1.34.59,5.52,5.52,0,0,0,1.41-.47,4,4,0,0,1,1.29-.4,0.63,0.63,0,0,1-.14.47,0.88,0.88,0,0,0-.2.47,45,45,0,0,0-2.46,6.19q-1,3.27-1.88,6.66-0.47,2-.83,4.41a11.7,11.7,0,0,0,.37,5,3.87,3.87,0,0,1,.53.78,1.18,1.18,0,0,0,.37-0.08,2.27,2.27,0,0,1,.23.24,2.39,2.39,0,0,0,.23.24,0.23,0.23,0,0,0,.18-0.23,0.38,0.38,0,0,1,.11-0.28,0.24,0.24,0,0,1,.07.28,0.15,0.15,0,0,0,.07.21,1.31,1.31,0,0,0,.16-0.69,0.48,0.48,0,0,1,.29-0.51,0.54,0.54,0,0,1,.09.56H103a0.35,0.35,0,0,1,.19.12c0.08-.17.14-0.31,0.2-0.41s0.12-.24.2-0.41c0,0.08,0,.12.07,0.12a0.35,0.35,0,0,0,.11-0.22,0.18,0.18,0,0,1,.12-0.16,0.08,0.08,0,0,0,.12,0s0.06,0,.07.06a1.25,1.25,0,0,0,.25-0.63q0.07-.44.45-0.27a0.77,0.77,0,0,1,.08-0.41,1.55,1.55,0,0,0,.14-0.41c0.08,0,.11,0,0.1.06s0,0,0,0a29.53,29.53,0,0,1,1.06-4.14q0.66-2,1.19-4a1.4,1.4,0,0,0,.23-0.51,4.2,4.2,0,0,1,.16-0.57c0-.08.08-0.18,0.14-0.28l0.14-.29a0.56,0.56,0,0,0,.05-0.25,0.54,0.54,0,0,1,.05-0.25c0.11-.29.21-0.58,0.3-0.85l0.3-.91c0.07-.21.16-0.42,0.25-0.63a2.41,2.41,0,0,0,.19-0.69,0.29,0.29,0,0,0,.15-0.16,0.29,0.29,0,0,1,.15-0.16A6,6,0,0,1,110,36a6,6,0,0,0,.42-1.07c0.12-.17.22-0.34,0.32-0.51a3.48,3.48,0,0,0,.25-0.57A21.44,21.44,0,0,0,112.12,31a1.64,1.64,0,0,0,.34-0.82,0.46,0.46,0,0,0,.2-0.32,0.55,0.55,0,0,1,.14-0.32,1.65,1.65,0,0,1,.14-0.25,1.56,1.56,0,0,0,.14-0.25,1.17,1.17,0,0,0,.08-0.28,1.1,1.1,0,0,1,.08-0.28,0.84,0.84,0,0,1,.64-0.31,3.31,3.31,0,0,0,.83-0.19l0.58-.15,0.52-.15a0.72,0.72,0,0,1,.12-0.19,0.73,0.73,0,0,0,.12-0.19l1.14-.3a4,4,0,0,0,.95-0.35,0.58,0.58,0,0,1,.33-0.17l0.46-.11,0.15-.1,0.15-.1a2.26,2.26,0,0,1,.65-0.06,0.41,0.41,0,0,0,.45-0.3,0.75,0.75,0,0,0-.5-0.07,0.39,0.39,0,0,1-.45-0.26q-1.06,0-2.17,0a6.4,6.4,0,0,1-2.06-.22,0.43,0.43,0,0,1-.24-0.39,1,1,0,0,1,.14-0.41,6.83,6.83,0,0,0,.28-0.73,5.15,5.15,0,0,1,.34-0.79A1.85,1.85,0,0,1,116,22.4a1.88,1.88,0,0,0,.29-0.54V21.68a1.74,1.74,0,0,1,.14-0.35,1.45,1.45,0,0,1,.21-0.29q0.17-.44.37-0.85a4.18,4.18,0,0,0,.3-0.85,7.55,7.55,0,0,0,.86-1.68,12,12,0,0,1,.79-1.74,2.74,2.74,0,0,1,.28-0.66,2.56,2.56,0,0,0,.28-0.72,6,6,0,0,0,.68-1.58,1.1,1.1,0,0,0,.28-0.6,2,2,0,0,1,.22-0.66V11.43a1.52,1.52,0,0,0,.28-0.76,1.51,1.51,0,0,1,.28-0.76,0.22,0.22,0,0,1,0-.31,0.37,0.37,0,0,0,0-.37,2.18,2.18,0,0,0,.16-0.6A1.38,1.38,0,0,1,121.6,8a5.08,5.08,0,0,1,.05-0.93,3.23,3.23,0,0,0,0-1,1.28,1.28,0,0,1,1.08-.2,1.93,1.93,0,0,0,1.14-.08,0.34,0.34,0,0,0,.08-0.31A0.33,0.33,0,0,1,124,5.2a1,1,0,0,1,.59,0,0.46,0.46,0,0,0,.46,0,0.37,0.37,0,0,1-.33-0.54,0.13,0.13,0,0,1,.15-0.1,0.12,0.12,0,0,0,.15-0.1,1.1,1.1,0,0,0-.5-0.13q-0.31,0-.27-0.51a0.76,0.76,0,0,1,.56-0.06,3.54,3.54,0,0,0,.57.13,3.34,3.34,0,0,0-1.2-.38l-1.37-.19a0.21,0.21,0,0,1-.13-0.09,0.17,0.17,0,0,0-.07-0.09,0.24,0.24,0,0,1-.16,0,0.13,0.13,0,0,0-.09,0A0.35,0.35,0,0,0,122.19,3a6.33,6.33,0,0,0-.91-0.15,6.18,6.18,0,0,1-.91-0.15,2.11,2.11,0,0,0-1-.76,0.29,0.29,0,0,0-.22,0,0.28,0.28,0,0,1-.22,0,0.16,0.16,0,0,1-.16-0.06,0.35,0.35,0,0,0-.16-0.12,1.91,1.91,0,0,0-.9,0,4.83,4.83,0,0,0-.82.32c0,0.08,0,.13-0.06.13a1.23,1.23,0,0,0-.39.33,4.3,4.3,0,0,0-.26.38,0.18,0.18,0,0,0-.06.1,0.18,0.18,0,0,1-.06.1,0.69,0.69,0,0,1-.23.32l-0.37,0c-0.45.06-.87,0.13-1.26,0.21l-1.26.27-1,.23-0.83.22L108.38,5q-0.55.15-1.22,0.4a6.42,6.42,0,0,1-1.23.33q-2.14.78-4.38,1.37A33.85,33.85,0,0,0,97.3,8.54a9.61,9.61,0,0,1,1-.26A6.33,6.33,0,0,0,99.14,8a4,4,0,0,0,1.2-.24,1.78,1.78,0,0,1,1-.11l-0.06.06q-0.13-.12-0.31.08M101.69,35a0.21,0.21,0,0,1-.1-0.18l-0.54-.19a1.3,1.3,0,0,1-.42-0.26,2.69,2.69,0,0,1-.6-0.16L99.45,34a0.29,0.29,0,0,0-.22,0c-0.06,0-.12,0-0.16-0.15q-1.75-.23-3-0.37t-2.34-.18a17.24,17.24,0,0,0-2.29.07q-1.17.11-2.84,0.44a0.27,0.27,0,0,0-.25,0,0.39,0.39,0,0,1-.31,0v0.06a0.06,0.06,0,0,1-.06.06,8,8,0,0,0-.8.19l-0.8.25a0.6,0.6,0,0,1-.36.26,0.78,0.78,0,0,0-.36.2,2.3,2.3,0,0,0-.69.56,1.92,1.92,0,0,0-.49.92,1,1,0,0,0,.34.67,2.61,2.61,0,0,0,.7.47,1.12,1.12,0,0,1,.57.16,1.78,1.78,0,0,0,.43-0.08,2.37,2.37,0,0,1,.56-0.09,7.91,7.91,0,0,0,1.55-.1l1.6-.23c0.29,0,.58,0,0.87-0.07A4.14,4.14,0,0,1,92,37a2.65,2.65,0,0,1,.83-0.22q0.59-.09,1.24-0.15l1.27-.12a3.79,3.79,0,0,0,1-.2q0.62,0,1.24,0a1.89,1.89,0,0,0,1-.26c0.33,0,.65,0,1-0.07a2.18,2.18,0,0,0,.83-0.25l0.53-.05a5.26,5.26,0,0,1,.59-0.06,2.18,2.18,0,0,1,.24-0.23,0.27,0.27,0,0,0,.11-0.22,0.48,0.48,0,0,0-.16-0.18M64.11,52.13A0.18,0.18,0,0,1,64,52a0.52,0.52,0,0,0-.07-0.22c0.12,0,.19.12,0.2,0.36M61.49,42.5a1,1,0,0,1-.14.26,1.42,1.42,0,0,1,0-.28,0.43,0.43,0,0,0,0-.28,13,13,0,0,0,.41,5.19,25.09,25.09,0,0,0,1.68,4.46,5.71,5.71,0,0,1-1.21-2.06,13.23,13.23,0,0,1-.61-2.64,0.12,0.12,0,0,1,0,.09s0,0,0,0a2.65,2.65,0,0,0-.28-0.8,4.68,4.68,0,0,1-.19-1.51,2.92,2.92,0,0,0-.31-1.45,0.28,0.28,0,0,0,0,.22,0.14,0.14,0,0,1,0,.16,0.53,0.53,0,0,0-.3.2,1.34,1.34,0,0,1-.2.47,0.89,0.89,0,0,0-.13.53,4.15,4.15,0,0,0,0,1.18,7.37,7.37,0,0,0,.21,1.23,23.19,23.19,0,0,0,.82,3,12.77,12.77,0,0,0,1.23,2.61,7.38,7.38,0,0,0,1.76,2,6.11,6.11,0,0,0,2.35,1.11,0.42,0.42,0,0,1,.17-0.38,0.18,0.18,0,0,1,.13.12s0,0.06.13,0.06,0-.19.12-0.19a2.29,2.29,0,0,0,.87.06,3.19,3.19,0,0,1,1,0,0.76,0.76,0,0,0,.44.1l0.56-.06a5.77,5.77,0,0,1,.59-0.06,0.63,0.63,0,0,1,.47.17l0.46-.14a0.28,0.28,0,0,1,.35.11,0.57,0.57,0,0,1,.49-0.15,1,1,0,0,0,.5,0A0.58,0.58,0,0,0,73,55.53a0.44,0.44,0,0,1,.36-0.26,0.25,0.25,0,0,0,0,.15,0.25,0.25,0,0,1,0,.15c0.08,0,.12,0,0.12-0.07s0-.06.12-0.07a0.25,0.25,0,0,0,.32.11,2.15,2.15,0,0,1,.26-0.35,2.32,2.32,0,0,0,.26-0.35,0.16,0.16,0,0,1,.16.06,0.1,0.1,0,0,0,.1.06A1.66,1.66,0,0,0,75,54.6a0.3,0.3,0,0,1,.36-0.17,1.07,1.07,0,0,1,.14-0.32l0.2-.32a0.46,0.46,0,0,0,.37-0.08q0.62-1.39,1.34-2.7a13.05,13.05,0,0,0,1.15-2.87,6.15,6.15,0,0,0,.62-1.52q0.21-.82.49-1.57a2.61,2.61,0,0,1,.16-0.66A2.84,2.84,0,0,0,80,43.8a23.84,23.84,0,0,0,1.29-3.07q0.55-1.61,1.16-3.18a0.16,0.16,0,0,1,0-.15,0.25,0.25,0,0,0,0-.16A0.36,0.36,0,0,0,82.56,37a0.2,0.2,0,0,1,.12-0.19A1.56,1.56,0,0,1,82.89,36a1.56,1.56,0,0,0,.21-0.75,1,1,0,0,0,.22-0.63,2.78,2.78,0,0,1,.09-0.75,0.34,0.34,0,0,0,.12-0.19,4.17,4.17,0,0,0,.08-1,5,5,0,0,1,.08-1.09l0.11-.38a1.4,1.4,0,0,0,0-.44,0.45,0.45,0,0,0,0-.18,0.42,0.42,0,0,1,0-.18c0-.21.08-0.43,0.13-0.66A2.43,2.43,0,0,0,84,29.11a3.08,3.08,0,0,0,0-.87A1.1,1.1,0,0,1,84,27.49a6.32,6.32,0,0,0-.94-3A4.34,4.34,0,0,0,81,22.78a0.18,0.18,0,0,0-.13-0.12s-0.06,0-.07-0.12l-0.92-.36a3.2,3.2,0,0,0-1-.24,0.24,0.24,0,0,0-.15,0,0.25,0.25,0,0,1-.15,0A0.25,0.25,0,0,1,78.43,22a0.26,0.26,0,0,0-.19-0.05q-0.37,0-.74.06a1.73,1.73,0,0,0-.61.18,1.14,1.14,0,0,0-.74,0,14.27,14.27,0,0,0-2.6.86q-1.25.55-2.34,1.09-0.49.27-.91,0.54a2.53,2.53,0,0,1-1,.35,3.2,3.2,0,0,1-.16-0.89,2.62,2.62,0,0,1,.09-0.84,6,6,0,0,1,.61-0.9,2.08,2.08,0,0,0,.42-1.07,2,2,0,0,0,.54-1.23,1.77,1.77,0,0,1,.54-1.17,3.69,3.69,0,0,1,.23-1.13,2.94,2.94,0,0,0,.17-1.19,0.1,0.1,0,0,1,.06-0.09,0.1,0.1,0,0,0,.06-0.1,10.44,10.44,0,0,1,.25-1.28,9.91,9.91,0,0,0,.25-1.35q0-.31.13-0.63a2.14,2.14,0,0,0,.07-0.62,2,2,0,0,1,.09-0.75,1.45,1.45,0,0,0,0-.75,1.39,1.39,0,0,0,.17-0.44A1.34,1.34,0,0,1,73,10.16q1.9-.52,3.68-0.88t3.51-.74l1.85-.33q1-.17,2-0.28a0.56,0.56,0,0,1,.24-0.17,0.54,0.54,0,0,0,.24-0.17,0.31,0.31,0,0,0-.26-0.27,0.31,0.31,0,0,1-.2-0.39,0.64,0.64,0,0,1,.52-0.08,0.5,0.5,0,0,0,.52-0.15,2.83,2.83,0,0,1-.56,0,1.69,1.69,0,0,1-.54-0.16,0.44,0.44,0,0,1-.26-0.3,0.55,0.55,0,0,1,.32-0.45C83.53,5.71,83,5.68,82.5,5.68a16,16,0,0,1-1.62-.08l-0.25-.08a1.18,1.18,0,0,1-.25-0.08l-1.08,0a6,6,0,0,0-1.14.17,0.05,0.05,0,0,1-.06-0.06S78,5.53,78,5.54l-2,.31Q75.06,6,73.83,6.21A7.45,7.45,0,0,1,71.73,7a8,8,0,0,0-2,.68,19.37,19.37,0,0,0-2,.68l-1.92.8a0.6,0.6,0,0,1-.21.16,0.62,0.62,0,0,0-.21.16,0.4,0.4,0,0,0-.34.14,0.4,0.4,0,0,1-.34.14,1,1,0,0,1-.32.48,1,1,0,0,0-.32.48,0.22,0.22,0,0,0,.19,0,0.19,0.19,0,0,1,.19.08v0.31A0.92,0.92,0,0,0,65,11a0.38,0.38,0,0,1,.4,0c0.09,0.12.08,0.17,0,.16s-0.15,0-.15.16a0.68,0.68,0,0,0,.31-0.07,0.71,0.71,0,0,1,.31-0.08,0.1,0.1,0,0,1,0,.12s0,0.08.1,0.12l1.19-.39a8,8,0,0,1,1.26-.27V11a0.68,0.68,0,0,1-.31.08,0.42,0.42,0,0,0-.3.14,2.15,2.15,0,0,0,1-.2,1.83,1.83,0,0,1,.92-0.19l-0.17,1.74a13.65,13.65,0,0,0,0,1.93,9.72,9.72,0,0,0-.18,1,3,3,0,0,1-.3,1,0.18,0.18,0,0,1-.12.13,0.18,0.18,0,0,0-.12.13,0.55,0.55,0,0,0-.05.25,0.55,0.55,0,0,1-.05.25,0.69,0.69,0,0,0-.23.38,4.1,4.1,0,0,0-.12.84,4.3,4.3,0,0,1-.12.84l-0.11.25a1.89,1.89,0,0,0,0,.31,0.51,0.51,0,0,1,0,.31,0.92,0.92,0,0,1,0,.34,1.1,1.1,0,0,0,0,.4,11.86,11.86,0,0,0-.1,1.37,5.21,5.21,0,0,1-.16,1.25A4.47,4.47,0,0,0,66,26.85,6.46,6.46,0,0,1,65.38,28a2.36,2.36,0,0,0-.47,1.29c0,0.08,0,.21,0,0.37a0.75,0.75,0,0,0,.14.43,1.44,1.44,0,0,0,.71.59,5.76,5.76,0,0,0,.95.39,0.4,0.4,0,0,0,.4,0,1,1,0,0,1,.4-0.11,3.43,3.43,0,0,1,1-1q0.6-.4,1.27-0.8a0.12,0.12,0,0,0,.09,0A0.12,0.12,0,0,1,70,29a0.77,0.77,0,0,1,.33-0.2,2.69,2.69,0,0,0,.46-0.21,2.29,2.29,0,0,0,.39-0.27l0.33-.26A0.69,0.69,0,0,0,71.81,28,0.7,0.7,0,0,0,72,27.89a0.76,0.76,0,0,1,.18-0.13A8.92,8.92,0,0,1,73.56,27c0.25-.09.5-0.18,0.77-0.25s0.52-.16.76-0.25a0.39,0.39,0,0,0,.21-0.07,0.38,0.38,0,0,1,.21-0.07,0.24,0.24,0,0,1,.22,0,1.34,1.34,0,0,0,.28,0,1.68,1.68,0,0,1,.81.09,2.58,2.58,0,0,1,.19.77,4.38,4.38,0,0,1,0,.9,6.15,6.15,0,0,1-.15.94c-0.07.29-.14,0.61-0.21,0.94v0.25a0.83,0.83,0,0,1-.08.38,0.83,0.83,0,0,0-.08.38,2.47,2.47,0,0,0-.06.87,1,1,0,0,1-.12.69,0.67,0.67,0,0,0,.08.31,19.08,19.08,0,0,0-.65,2.2,19.42,19.42,0,0,1-.65,2.2l-0.78,2.14q-0.39,1.07-.71,2.14-0.59,2.2-1.17,4.43a24.15,24.15,0,0,1-1.55,4.26,3.87,3.87,0,0,0-.46.83,6.66,6.66,0,0,1-1.25.64,8.73,8.73,0,0,1-1.5.47,2,2,0,0,1-1.15,0,2.44,2.44,0,0,1-.73-0.46l-0.29-.24-0.29-.24a1.72,1.72,0,0,0-1.05.11,6,6,0,0,1-.81-1.52,17.54,17.54,0,0,1-.61-1.93q-0.26-1-.43-2A15.59,15.59,0,0,1,62.14,44a4.1,4.1,0,0,0,.08,1.74,27.64,27.64,0,0,0,.65,2.83,11.79,11.79,0,0,0,1,2.5,4.45,4.45,0,0,0,.3.36,0.46,0.46,0,0,1,.05.49,9.44,9.44,0,0,1-1.29-2.61,15.78,15.78,0,0,1-.75-3,1,1,0,0,1,0-.25,0.19,0.19,0,0,0,0-.18,1.41,1.41,0,0,1-.09-0.71,1.42,1.42,0,0,0,0-.59c0-.16-0.05-0.23-0.13-0.18s-0.06.09-.05,0.25,0,0.31,0,.43-0.12,0-.1-0.09,0-.07-0.09,0a1.71,1.71,0,0,0,0,.34,0.43,0.43,0,0,1,0,.28A6.64,6.64,0,0,1,61.58,44a5.61,5.61,0,0,0-.12-1.42l0-.06M56.33,53.12c0-.06,0-0.09.09-0.1a0.28,0.28,0,0,0,.24-0.1,0.2,0.2,0,0,1,.18-0.1c0.16-.09.34-0.18,0.55-0.27a0.76,0.76,0,0,0,.42-0.45,2,2,0,0,1,.2-0.44,1.66,1.66,0,0,0,.19-0.57,5.32,5.32,0,0,0,.09-1.59,2.84,2.84,0,0,0-.4-1.38,2.88,2.88,0,0,0-.52-0.47,3.4,3.4,0,0,0-.7-0.34,2.6,2.6,0,0,1-.62.09,1.84,1.84,0,0,0-.68.15c0,0.12,0,.19-0.12.19A2.82,2.82,0,0,0,54,48.88a2.6,2.6,0,0,0-.32,1.85,1.33,1.33,0,0,0,.12.52,2.8,2.8,0,0,1,.18.52,2,2,0,0,0,.24.64,2,2,0,0,1,.24.58h0.25a0.35,0.35,0,0,1,.24-0.26,0.33,0.33,0,0,1,.2.24,0.35,0.35,0,0,0,.14.24A0.18,0.18,0,0,0,55.39,53a0.17,0.17,0,0,1,.15-0.19,0.29,0.29,0,0,1,.32.2,0.43,0.43,0,0,0,.38.26,0.13,0.13,0,0,0,.09-0.16M49.79,42.45a11.29,11.29,0,0,1,.16-1.4q0.12-.72.21-1.71a0.08,0.08,0,0,0,.12,0,0.08,0.08,0,0,1,.12,0Zm-2.28,1.15a3.74,3.74,0,0,1-.3,1.07q-0.23.51-.45,1t-0.52,1a8.45,8.45,0,0,0-.26,1,2.15,2.15,0,0,1-.4.92,1,1,0,0,0-.24.2L45.11,49C45,49,45,49,45,49s0,0-.06,0a0.05,0.05,0,0,1-.06-0.06,3.62,3.62,0,0,1-.77.93,7.71,7.71,0,0,0-.89.94,3.4,3.4,0,0,1-1,.54q-0.49.15-1.23,0.3L40,51.94a1.54,1.54,0,0,1-1.09-.14,4,4,0,0,1-.56-0.66,4.5,4.5,0,0,1-.44-0.73V50.17a3.57,3.57,0,0,0-.14-0.4l-0.14-.27a0.67,0.67,0,0,1,0-.22,0.7,0.7,0,0,0,0-.22,4.16,4.16,0,0,0-.05-0.5A4.27,4.27,0,0,1,37.56,48a2.28,2.28,0,0,0,.11-1,1.92,1.92,0,0,1,.12-0.91,3.93,3.93,0,0,0,0-.75,5.15,5.15,0,0,1,.5-1.32q0.34-.64.69-1.33l0.64-1a5.55,5.55,0,0,0,.57-1.17l0.24-.26a0.72,0.72,0,0,0,.1-0.5,1,1,0,0,0,.69-0.65,7.63,7.63,0,0,1,.48-1A2.53,2.53,0,0,1,42,37.76a2.45,2.45,0,0,0,.29-0.39,2.72,2.72,0,0,0,.25-0.63,1.77,1.77,0,0,1,.25-0.57,3.38,3.38,0,0,1,.72.74,2.88,2.88,0,0,0,.65.69,0.92,0.92,0,0,0,.64.41,0.5,0.5,0,0,0,.38.11l0.64,0.5a0.78,0.78,0,0,0,.69.19,5,5,0,0,0,.82.34,2,2,0,0,0,1,.08,1.46,1.46,0,0,1-.06.84,5.77,5.77,0,0,0-.31.79,8.4,8.4,0,0,0-.14,1,3.39,3.39,0,0,1-.21.91q0,0.31-.12.87m-1.33-10a2.58,2.58,0,0,1,.08.52l0.33,0.36a0.58,0.58,0,0,1,.17.33,1.52,1.52,0,0,0,.17.46,3.93,3.93,0,0,0,.33.39,1.77,1.77,0,0,1,.33.58V36.4a0.28,0.28,0,0,1-.31.08L47,36.37a2.36,2.36,0,0,1-1-.61,5.15,5.15,0,0,1-.79-1,1.3,1.3,0,0,1,0-.84,0.86,0.86,0,0,1,.63-0.62,0.43,0.43,0,0,1,.39.33m12.38,0.79a0.56,0.56,0,0,0-.28.1l-0.36.26a0.52,0.52,0,0,1-.52.05,2.43,2.43,0,0,1-.94.57q-0.64.25-1.68,0.6a2,2,0,0,1-.74.19c-0.33,0-.68.06-1.05,0.08s-0.73,0-1.09,0H51a0.92,0.92,0,0,1-.28,0,0.73,0.73,0,0,0-.34,0,0.6,0.6,0,0,1-.16-0.21A0.14,0.14,0,0,0,50.07,36a1.38,1.38,0,0,0-.15-0.61,0.68,0.68,0,0,1-.08-0.31,0.43,0.43,0,0,0-.14-0.3c0.05,0.2.11,0.42,0.18,0.64a2.46,2.46,0,0,1,.12.65,0.25,0.25,0,0,1-.26-0.21,1.32,1.32,0,0,1-.08-0.34q-0.14-.37-0.28-0.76a3.29,3.29,0,0,0-.34-0.7,0.68,0.68,0,0,1-.49-0.51,5,5,0,0,0-.25-0.7,2.58,2.58,0,0,0-.3-0.51,1,1,0,0,1-.18-0.58l-0.45-.29a0.17,0.17,0,0,0,.05-0.22,0.29,0.29,0,0,1-.07-0.15,0.37,0.37,0,0,1-.31-0.08A0.21,0.21,0,0,0,46.87,31a0.31,0.31,0,0,1,0,.5,0.2,0.2,0,0,1-.25,0,0.21,0.21,0,0,0-.19-0.08,0.18,0.18,0,0,0-.12.16c0,0.06,0,.09-0.12.1a0.56,0.56,0,0,0-.66-0.16,0.84,0.84,0,0,1-.72,0,4.51,4.51,0,0,0-.56.58,0.53,0.53,0,0,1-.77.1,1.2,1.2,0,0,0-.2.32,0.26,0.26,0,0,1-.21.2A1.7,1.7,0,0,0,43,31.77a2.89,2.89,0,0,0-.43-0.66,7.3,7.3,0,0,0-1.05-.64,1.29,1.29,0,0,0-1.33.06,0.05,0.05,0,0,1-.06.06H40a7.25,7.25,0,0,0-1.05.79l-1,.91A11.14,11.14,0,0,0,37,33.42q-0.38.54-.84,1.25a23.54,23.54,0,0,0-2.73,4.93,16.21,16.21,0,0,0-1.25,6.11v0.06a5.46,5.46,0,0,1,0,.59,1.57,1.57,0,0,1-.13.53q0.15,0.49.26,1c0.08,0.33.14,0.66,0.2,1l0,0.43,0.26,0.24a23.54,23.54,0,0,1,.88,2.35A2.94,2.94,0,0,0,35.2,53.7a7.92,7.92,0,0,0,1.26,1.25,3.52,3.52,0,0,0,1.68.73,1.63,1.63,0,0,0,1,0,3.81,3.81,0,0,1,.92-0.16,0.13,0.13,0,0,1,.09,0,0.12,0.12,0,0,0,.09,0,2.49,2.49,0,0,0,1.47-.4,4.09,4.09,0,0,1,1.34-.59A2.8,2.8,0,0,1,43.78,54a2.89,2.89,0,0,0,.72-0.56A1,1,0,0,1,45,52.9a1.94,1.94,0,0,1,.3-0.26,1.1,1.1,0,0,0,.3-0.32L45.7,52a3.33,3.33,0,0,1,.2-0.38,1.74,1.74,0,0,0,.25-0.6,6,6,0,0,1,.19-0.66A6,6,0,0,1,47,49.31a6.08,6.08,0,0,0,.67-1.05,4.66,4.66,0,0,0,.18-0.75,4.65,4.65,0,0,1,.24-0.88v0.12a0.05,0.05,0,0,1-.06.06l0.29-.51a1.4,1.4,0,0,0,.17-0.44A2.63,2.63,0,0,0,49,44.78c0-.08,0-0.13,0-0.12s0,0,0-.13a4.54,4.54,0,0,1,.33-1.07,10.22,10.22,0,0,0,.39-1,2,2,0,0,1-.15.72,1.19,1.19,0,0,0-.1.59,13.12,13.12,0,0,0,.59-2.17q0.15-.91.39-2.34,0.31,0,1.17-.11a16.71,16.71,0,0,0,2-.36,16.1,16.1,0,0,0,2.23-.72,7,7,0,0,0,2-1.17A0.34,0.34,0,0,1,58,36.63a0.93,0.93,0,0,0,.29-0.39,1.79,1.79,0,0,0,.61-0.83,0.5,0.5,0,0,0-.12-0.61c-0.05-.25-0.12-0.37-0.2-0.36M13.33,25.89a8.14,8.14,0,0,0,.19-2,3.37,3.37,0,0,0,.16-0.66c0-.23.06-0.47,0.09-0.72a11,11,0,0,0,.09-1.56q0-.87,0-1.55A10.14,10.14,0,0,0,14,18.17,3.48,3.48,0,0,0,13.91,17,0.72,0.72,0,0,0,14,16.43a2.57,2.57,0,0,1,0-.71A16.6,16.6,0,0,0,14.12,14a2.71,2.71,0,0,0-.27-1.29,1.21,1.21,0,0,0-.06-0.62,3.43,3.43,0,0,1-.18-0.55q-0.54-.91-1.06-1.63A9.53,9.53,0,0,0,11.3,8.57a1.75,1.75,0,0,1-.47-0.17,0.84,0.84,0,0,0-.41-0.11,2.74,2.74,0,0,0-1,0,2.6,2.6,0,0,0-1,.35,0.11,0.11,0,0,0-.09.1,0.29,0.29,0,0,1-.15.16q-0.3.32-.47,0.49a1.82,1.82,0,0,0-.35.48,5.53,5.53,0,0,0-.53.67,1,1,0,0,0-.15.78,1.57,1.57,0,0,0-.27.94,4.11,4.11,0,0,1-.08,1,4.43,4.43,0,0,1-.13.5,4.33,4.33,0,0,0-.13.5,0.68,0.68,0,0,0,0,.22,0.71,0.71,0,0,1,0,.22C6,15.15,6,15.61,6,16.07s-0.09.91-.16,1.37a3,3,0,0,0,0,.59l0,0.59a1,1,0,0,0-.11.44,38.66,38.66,0,0,1-.56,5.73l-1,5.75a8.86,8.86,0,0,0-.14.94,9.32,9.32,0,0,1-.15.94c0,0.33-.05.67-0.08,1s-0.05.68-.08,1.06a6.69,6.69,0,0,0-.29,1.87Q3.15,38,3,39.47t-0.24,3a5,5,0,0,0-.09.87,9.61,9.61,0,0,1-.16,1.4A9.48,9.48,0,0,0,2.32,46Q2.08,49,2,52.14a36.27,36.27,0,0,0,.34,6.35,3.3,3.3,0,0,1,.22.67,1.92,1.92,0,0,0,.28.67c0.21,0,.31,0,0.31.08a0.39,0.39,0,0,0,.14.27,0.63,0.63,0,0,0,.22.15,0.27,0.27,0,0,1,.16.15,0.14,0.14,0,0,1,0,.15,0.13,0.13,0,0,0,.1.15,0.89,0.89,0,0,1,.48.38,0.89,0.89,0,0,0,.48.38,0.59,0.59,0,0,0,.37,0,1.18,1.18,0,0,1,.37-0.08,0.3,0.3,0,0,1,.22.08,0.29,0.29,0,0,0,.22.08,0.5,0.5,0,0,0,.31-0.11,0.17,0.17,0,0,1,.25,0A1.15,1.15,0,0,0,6.73,61,1.75,1.75,0,0,1,7,60.46a0.85,0.85,0,0,0,.57-0.52,3.36,3.36,0,0,0,.18-0.88c0.08-.09.14-0.09,0.19,0a0.12,0.12,0,0,0,.19.05,1.4,1.4,0,0,1,.13-1.25,0.84,0.84,0,0,1,.2-1c0.08-.09.14-0.1,0.18,0a0.21,0.21,0,0,0,.19.09,2.32,2.32,0,0,0,0-.93,0.81,0.81,0,0,1,.34-0.82,0.2,0.2,0,0,1,0-.22,0.21,0.21,0,0,0,0-.22,3.61,3.61,0,0,0,.34-1.35c0-.52.09-1,0.16-1.4a2,2,0,0,1,0-.5L9.8,51a2.57,2.57,0,0,0,0-1,3.72,3.72,0,0,1,0-1,1.65,1.65,0,0,0,.15-0.94l0-.56A2.43,2.43,0,0,0,10,46.83a5.9,5.9,0,0,1,.06-0.72,6.38,6.38,0,0,1,.17-1q0.13-.53.23-1.1,0.09-.81.19-1.43a12.62,12.62,0,0,0,.13-1.31A0.25,0.25,0,0,0,10.95,41a0.56,0.56,0,0,1,0-.31c0-.17.07-0.32,0.1-0.47s0.07-.28.11-0.41a1.27,1.27,0,0,1,0-.31,1.21,1.21,0,0,1,.08-0.25,0.75,0.75,0,0,1,.05-0.28c0-.1.07-0.22,0.11-0.35A1.32,1.32,0,0,0,11.5,38a1.28,1.28,0,0,1,.07-0.62,2.19,2.19,0,0,1,.16-0.57q0.11-.25.22-0.57a13.32,13.32,0,0,1,.91-2q0.52-.92,1.1-1.82a0.92,0.92,0,0,1,.22-0.6l0.48-.42a0.54,0.54,0,0,0,.14-0.28,0.54,0.54,0,0,1,.14-0.29,3,3,0,0,1,.35-0.45A0.78,0.78,0,0,0,15.47,30a2.38,2.38,0,0,1,.11-0.31,1.61,1.61,0,0,1,.33-0.26l0.39-.26A20.43,20.43,0,0,1,18,26q1-1.5,2-3a3.19,3.19,0,0,0,.83-0.84l0.7-1a0.68,0.68,0,0,1,0-.31,0.55,0.55,0,0,0,.05-0.25q0.29-.45.61-0.9a10.66,10.66,0,0,0,.61-1,5.52,5.52,0,0,1,.94-1.13q0.54-.49,1.07-1A2.59,2.59,0,0,0,25.44,16a1.49,1.49,0,0,1,.69-0.47A15.9,15.9,0,0,1,26,18.42q-0.19,1.37-.44,2.69T25,23.71q-0.29,1.29-.48,2.6a8.4,8.4,0,0,0-.14,1q0,0.47-.14,1-0.08,1.06-.25,2.06t-0.26,1.87q-0.07,1.18-.05,2.3a16.35,16.35,0,0,1-.12,2.24q-0.23,1.75-.47,3.47T22.64,43.7a25.88,25.88,0,0,0-.34,3q-0.09,1.56-.14,3.11a17.24,17.24,0,0,0,0,3.44,24.64,24.64,0,0,0,.55,3.36q0.15,0.68.24,1.23a3.06,3.06,0,0,0,.35,1,4.06,4.06,0,0,0,.54.91l0.72,0.9a6.56,6.56,0,0,0,1.34,1.59,5.61,5.61,0,0,0,2,1,0.26,0.26,0,0,1,.25,0,0.55,0.55,0,0,0,.25.05,1.82,1.82,0,0,0,1,.39,3.64,3.64,0,0,0,1.33-.06,0.28,0.28,0,0,1,.08-0.25,0.48,0.48,0,0,0,.15-0.19,0.51,0.51,0,0,1-.51-0.41,0.68,0.68,0,0,1,.22,0l0.22,0.08a0.26,0.26,0,0,0-.16-0.21,0.12,0.12,0,0,1,0-.22,0.55,0.55,0,0,1,.47,0,0.74,0.74,0,0,0,.47.1,0.76,0.76,0,0,1,.3-0.2,1.61,1.61,0,0,0,.36-0.2,2.76,2.76,0,0,1-.66-0.28,1.36,1.36,0,0,1-.49-0.6c0.21,0,.25-0.07.15-0.19a0.29,0.29,0,0,1-.11-0.31,0.22,0.22,0,0,1,.28,0c0.07,0.08.14,0.08,0.22,0l-0.2-.36-0.2-.36a0.2,0.2,0,0,1,.22,0q0.1,0.06.09-.07A0.21,0.21,0,0,0,31.39,60c-0.06,0-.09,0-0.1-0.12s0.08-.11.12-0.07,0.06,0,.06-0.06-0.16-.07-0.1-0.09a0.14,0.14,0,0,0,.09-0.16,0.4,0.4,0,0,1-.08-0.37,2.89,2.89,0,0,0-.59-0.69,1.91,1.91,0,0,1-.53-0.81,2.58,2.58,0,0,1-.13-0.89,5.1,5.1,0,0,0-.07-1A2,2,0,0,0,30,55.29c0-.16-0.1-0.31-0.14-0.43,0-.37,0-0.76,0-1.15s0-.78,0-1.15a4.47,4.47,0,0,1-.07-0.9q0-.4,0-0.78a3.37,3.37,0,0,0,.16-0.66,1.74,1.74,0,0,0,0-.65,8.7,8.7,0,0,0,.07-2.67q0.15-.81.39-1.82A20.93,20.93,0,0,0,30.68,43a2.09,2.09,0,0,0,0-.62,2.09,2.09,0,0,1,0-.62,1.3,1.3,0,0,0,.23-0.32,8.52,8.52,0,0,0,0-1.05,11.72,11.72,0,0,1,0-1.18c0-.21.07-0.4,0.1-0.56a2.36,2.36,0,0,0,0-.56,4.76,4.76,0,0,1,0-1.21q0.07-.59.1-1.22a1.13,1.13,0,0,0,.07-0.56,1.73,1.73,0,0,1,0-.56q0.1-.56.2-1.06a4.66,4.66,0,0,0,.07-1.12,7,7,0,0,0,.11-1.12,5.54,5.54,0,0,1,.11-1.06,1,1,0,0,0,.1-0.47,1.94,1.94,0,0,1,0-.47q0.13-1.25.17-2.4t0.11-2.39a2.48,2.48,0,0,1,.07-0.65,2.48,2.48,0,0,0,.06-0.65,0.76,0.76,0,0,0,0-.37,2.55,2.55,0,0,1,0-.43L32.42,21a4.18,4.18,0,0,0-.09-1.33q-0.08-.31-0.16-0.71a5.44,5.44,0,0,1-.1-0.83,0.81,0.81,0,0,1-.24-0.52A1.07,1.07,0,0,1,31.9,17a1.65,1.65,0,0,1-.12-0.74,1,1,0,0,0-.25-0.73A1.41,1.41,0,0,1,31.91,15a0.87,0.87,0,0,0,.32-0.54q0-.8-1.09-0.76a1.56,1.56,0,0,1-.26-0.33A1.91,1.91,0,0,0,30.55,13,0.18,0.18,0,0,0,30.42,13a0.47,0.47,0,0,1-.19-0.05A1,1,0,0,1,30,12.54a0.79,0.79,0,0,0-.2-0.3,0.21,0.21,0,0,0-.16-0.06,0.18,0.18,0,0,1-.16-0.12l-0.29-.24a3,3,0,0,1-.29-0.24,2.38,2.38,0,0,0-1-.36,5.65,5.65,0,0,0-1.33,0,6.06,6.06,0,0,0-1.59.53,5.74,5.74,0,0,0-1.2,1l-0.59.61a5,5,0,0,0-.53.61q-0.47.52-.89,1c-0.28.32-.55,0.63-0.83,0.94l-0.39.33a1.33,1.33,0,0,0-.26.32q-0.53.71-1,1.44t-1,1.44a13.25,13.25,0,0,0-1.22,1.85q-0.52,1-1.1,1.91a8.4,8.4,0,0,0-1.1,1.91,7.65,7.65,0,0,0-.86,1.71c-0.11.21-.23,0.44-0.34,0.67a0.56,0.56,0,0,1-.48.36,11,11,0,0,1,.26-2" transform="translate(-1.95 -1.67)"/></svg>