<svg id="Layer_1" data-name="Layer 1" xmlns="http://www.w3.org/2000/svg" viewBox="0 0 176.37 64.38"><defs><style>.cls-1{fill:#082432;}</style></defs><title>Plot24-27</title><path class="cls-1" d="M150.7,9.3A0.33,0.33,0,0,0,151,9.2V9.26a0.35,0.35,0,0,1-.24.13,0.36,0.36,0,0,0-.24.14,0.34,0.34,0,0,1-.13-0.18,0.5,0.5,0,0,1,.31,0m4.92-4h0.06s0,0.05,0,0a0.39,0.39,0,0,1-.16-0.09,0.05,0.05,0,0,0,.07.06,1.37,1.37,0,0,1-.46.21l-0.58.15,0.15-.16c0.06-.06.09-0.06,0.09,0a0.79,0.79,0,0,1,.3-0.2,0.28,0.28,0,0,1,.31,0,0.24,0.24,0,0,1,.24-0.2c0,0.08,0,.12,0,0.12m8.19-2.19A0.45,0.45,0,0,0,164.14,3V3.22a0.25,0.25,0,0,0-.34,0,0.28,0.28,0,0,1-.4,0,0.66,0.66,0,0,1,.4-0.11m-1.09,0,2-.34V2.82a5.36,5.36,0,0,1-.89.19L163,3.15c0,0.16.11,0.2,0.19,0.12a0.16,0.16,0,0,1,.25,0,0.64,0.64,0,0,1-.55.21l-1.51.31q-0.77.16-1.63,0.38c-0.24.09-.49,0.18-0.73,0.25a1.05,1.05,0,0,1-.56.06q-0.06.13-.09,0.07s-0.05,0-.09.07-0.06,0-.07-0.12a4,4,0,0,1-1,.35,7.17,7.17,0,0,0-1.13.36s0,0,0,.06-0.15-.1-0.19-0.05a0.25,0.25,0,0,1-.18.07,0.22,0.22,0,0,1,.21-0.13A0.22,0.22,0,0,0,156.1,5l0.55-.18,0.55-.18a10.26,10.26,0,0,0,1.19-.46,6,6,0,0,1,1.19-.39A1.55,1.55,0,0,1,160,3.62a1.49,1.49,0,0,0,.46-0.17l2.22-.35M153.54,6a3.44,3.44,0,0,1,.68-0.15l-2.07,1a12.27,12.27,0,0,1-2.26.78c0,0.08.06,0.1,0.16,0.06s0.15,0,.16.12a0.74,0.74,0,0,1-.39.3,0.48,0.48,0,0,0-.33.36,1.09,1.09,0,0,1,.5.1V8.8a2.37,2.37,0,0,0-.6.46,0.45,0.45,0,0,1,.37-0.08,0.4,0.4,0,0,0,.31,0,0.75,0.75,0,0,1,.29.36,0.47,0.47,0,0,0,.35.29,1.51,1.51,0,0,1,.55-0.15,2.05,2.05,0,0,0,.49-0.08,1.38,1.38,0,0,0,.49-0.12,5.18,5.18,0,0,0,.49-0.24l1.77-.7,1.77-.7a0.18,0.18,0,0,0,.06-0.13,0.18,0.18,0,0,1,.06-0.13,1.12,1.12,0,0,0,.49-0.11l0.3-.17,1.59-.47a7.23,7.23,0,0,0,1.46-.59,3.18,3.18,0,0,0-.71.12,1,1,0,0,1-.65,0A0.57,0.57,0,0,1,159.28,6a3.65,3.65,0,0,0,.58-0.21c0.28-.09.58-0.18,0.89-0.26s0.6-.16.89-0.26a10,10,0,0,1,1.93-.52q1-.17,2.06-0.4l0.5,0a0.69,0.69,0,0,1,.31,0l0.32,0.11a0.4,0.4,0,0,0,.31,0,0.41,0.41,0,0,1,.31,0q-0.1.63-.2,1.13A7.58,7.58,0,0,0,167,6.76a7.82,7.82,0,0,0-.89,2.33q-0.28.7-.59,1.3a7.08,7.08,0,0,0-.53,1.36,5.14,5.14,0,0,0-.49,1,7.64,7.64,0,0,1-.48,1,3.6,3.6,0,0,1-.41,1.26,4.75,4.75,0,0,0-.47,1.26,0.35,0.35,0,0,0-.18.13v0.25a33.9,33.9,0,0,0-1.72,4,34.05,34.05,0,0,1-1.72,4l-2.67.71a7,7,0,0,0-2.28,1.06,0.13,0.13,0,0,0-.09,0,0.25,0.25,0,0,1-.15,0,4.38,4.38,0,0,1-.66.59,1.19,1.19,0,0,0-.47.64,0.65,0.65,0,0,0,.6.22,3.07,3.07,0,0,1,.65-0.09,0.35,0.35,0,0,1-.36.33,1.47,1.47,0,0,0-.55.21,0.18,0.18,0,0,0,.29.14,0.92,0.92,0,0,1,.34-0.11,0.56,0.56,0,0,0,.44,0l0.37-.14,0.28,0a0.42,0.42,0,0,0,.28,0,10.41,10.41,0,0,0,1.43-.59,3.77,3.77,0,0,1,1.5-.41,0.3,0.3,0,0,1-.08.22,0.3,0.3,0,0,0-.08.22q-0.8.22-1.47,0.47a12.82,12.82,0,0,0-1.34.59,5.47,5.47,0,0,0,1.41-.46,4.05,4.05,0,0,1,1.29-.4,0.63,0.63,0,0,1-.13.47,0.89,0.89,0,0,0-.2.47A45,45,0,0,0,155.42,35q-1,3.27-1.88,6.66-0.47,2-.83,4.41a11.69,11.69,0,0,0,.37,5,3.79,3.79,0,0,1,.53.78,1.21,1.21,0,0,0,.37-0.08,2.19,2.19,0,0,1,.23.24,2.26,2.26,0,0,0,.23.24,0.23,0.23,0,0,0,.18-0.23,0.38,0.38,0,0,1,.11-0.28,0.24,0.24,0,0,1,.08.28,0.15,0.15,0,0,0,.07.21,1.3,1.3,0,0,0,.16-0.69,0.48,0.48,0,0,1,.29-0.51,0.54,0.54,0,0,1,.09.55h0.19a0.35,0.35,0,0,1,.19.12c0.07-.17.14-0.31,0.2-0.41s0.12-.24.2-0.41c0,0.08,0,.12.07,0.12a0.35,0.35,0,0,0,.11-0.22,0.18,0.18,0,0,1,.12-0.16,0.08,0.08,0,0,0,.12,0s0.06,0,.06.06a1.23,1.23,0,0,0,.25-0.63c0-.29.2-0.38,0.45-0.27a0.77,0.77,0,0,1,.07-0.41,1.51,1.51,0,0,0,.14-0.41c0.08,0,.11,0,0.1.06s0,0,0,0a29.67,29.67,0,0,1,1.06-4.14q0.66-2,1.19-4a1.38,1.38,0,0,0,.23-0.51,4.24,4.24,0,0,1,.16-0.57l0.14-.28c0.06-.1.1-0.2,0.14-0.28a0.56,0.56,0,0,0,.05-0.25,0.54,0.54,0,0,1,.05-0.25q0.17-.44.3-0.85l0.3-.91q0.11-.31.25-0.63a2.39,2.39,0,0,0,.19-0.69,0.28,0.28,0,0,0,.15-0.16,0.28,0.28,0,0,1,.15-0.16,6,6,0,0,1,.42-1.07,6,6,0,0,0,.42-1.07q0.17-.26.32-0.51a3.58,3.58,0,0,0,.25-0.57,21.54,21.54,0,0,0,1.18-2.91,1.64,1.64,0,0,0,.34-0.82,0.46,0.46,0,0,0,.2-0.32,0.55,0.55,0,0,1,.14-0.32,1.52,1.52,0,0,1,.14-0.25,1.64,1.64,0,0,0,.14-0.26,1.12,1.12,0,0,0,.08-0.28,1.11,1.11,0,0,1,.08-0.28,0.84,0.84,0,0,1,.64-0.31,3.32,3.32,0,0,0,.83-0.19l0.58-.15,0.52-.15a0.71,0.71,0,0,1,.12-0.19,0.71,0.71,0,0,0,.12-0.19l1.14-.3a4,4,0,0,0,.95-0.35,0.59,0.59,0,0,1,.33-0.17l0.46-.11,0.15-.1,0.15-.1a2.34,2.34,0,0,1,.65-0.06,0.41,0.41,0,0,0,.45-0.3,0.74,0.74,0,0,0-.5-0.07,0.39,0.39,0,0,1-.45-0.26q-1.06,0-2.17,0a6.44,6.44,0,0,1-2.06-.22,0.43,0.43,0,0,1-.23-0.39,1,1,0,0,1,.14-0.41,7.16,7.16,0,0,0,.28-0.73,5.18,5.18,0,0,1,.34-0.79,1.92,1.92,0,0,1,.29-0.54,1.84,1.84,0,0,0,.29-0.54V19.84a1.65,1.65,0,0,1,.14-0.35,1.47,1.47,0,0,1,.2-0.29c0.11-.29.23-0.58,0.37-0.85a4.22,4.22,0,0,0,.3-0.85,7.52,7.52,0,0,0,.86-1.68,11.94,11.94,0,0,1,.79-1.74,2.67,2.67,0,0,1,.28-0.66,2.57,2.57,0,0,0,.28-0.73,6.07,6.07,0,0,0,.67-1.58,1.09,1.09,0,0,0,.28-0.6,1.92,1.92,0,0,1,.22-0.66V9.59a1.51,1.51,0,0,0,.28-0.76,1.51,1.51,0,0,1,.28-0.76,0.22,0.22,0,0,1,0-.31,0.37,0.37,0,0,0,0-.37,2.22,2.22,0,0,0,.16-0.6,1.37,1.37,0,0,1,.22-0.6,5.08,5.08,0,0,1,.05-0.93,3.2,3.2,0,0,0,0-1,1.28,1.28,0,0,1,1.08-.2A2,2,0,0,0,176.41,4a0.34,0.34,0,0,0,.08-0.31,0.33,0.33,0,0,1,.08-0.31,1,1,0,0,1,.59,0,0.46,0.46,0,0,0,.46,0,0.37,0.37,0,0,1-.33-0.54,0.13,0.13,0,0,1,.15-0.1,0.13,0.13,0,0,0,.15-0.1,1.09,1.09,0,0,0-.5-0.13c-0.21,0-.3-0.18-0.27-0.52a0.76,0.76,0,0,1,.56-0.06,3.5,3.5,0,0,0,.56.13,3.35,3.35,0,0,0-1.2-.38l-1.37-.19a0.2,0.2,0,0,1-.13-0.09,0.19,0.19,0,0,0-.07-0.09,0.24,0.24,0,0,1-.16,0,0.13,0.13,0,0,0-.09,0,0.35,0.35,0,0,0-.19-0.12A6.48,6.48,0,0,0,173.83,1a6.16,6.16,0,0,1-.91-0.15,2.11,2.11,0,0,0-1-.76,0.29,0.29,0,0,0-.22,0,0.28,0.28,0,0,1-.22,0A0.16,0.16,0,0,1,171.3,0a0.34,0.34,0,0,0-.16-0.12,1.91,1.91,0,0,0-.9,0,5,5,0,0,0-.82.32c0,0.08,0,.12-0.06.13a1.23,1.23,0,0,0-.39.33,4,4,0,0,0-.26.38,0.17,0.17,0,0,0-.06.1,0.17,0.17,0,0,1-.06.1,0.71,0.71,0,0,1-.23.32l-0.37,0q-0.68.09-1.26,0.21L165.47,2l-1,.23-0.83.22-2.76.68q-0.55.15-1.22,0.39a6.44,6.44,0,0,1-1.23.33q-2.14.78-4.38,1.37a33.84,33.84,0,0,0-4.25,1.43c0.28-.1.6-0.18,0.95-0.26a6.13,6.13,0,0,0,.89-0.26,4,4,0,0,0,1.2-.24,1.78,1.78,0,0,1,1-.11l-0.06.07c-0.09-.08-0.19-0.05-0.31.07m-26.67,44.2a0.62,0.62,0,0,1,.2.21,0.17,0.17,0,0,1-.22,0,0.84,0.84,0,0,0-.22-0.15,0.17,0.17,0,0,1,.25,0m23.45-1.61a6,6,0,0,1,.87-0.1,3.27,3.27,0,0,1-1.73.26l0.86-.16m2-.52a2.14,2.14,0,0,1-.58.21l-0.64.15a5.52,5.52,0,0,1,1.22-.36m-26.11-.29q-0.12-.61-0.27-1.23a5.56,5.56,0,0,1,.42,1.19q0.15,0.64.3,1.13a2.88,2.88,0,0,1-.45-1.1m0.41-4.14c0,0.06-.06.07-0.06,0,0.07-.21.18-0.26,0.3-0.14s0,0,0-.06a0.08,0.08,0,0,1,0-.12,0.88,0.88,0,0,0,.19-0.72,1.76,1.76,0,0,1,.06-0.78,4.55,4.55,0,0,1,.1.93,0.18,0.18,0,0,0,.05-0.25,0.25,0.25,0,0,1,0-.25c0-.08,0-0.11.06-0.1s0.12,0,.12,0a2.29,2.29,0,0,0,0-.65,2.11,2.11,0,0,1,.06-0.78l0.72-.65a2.18,2.18,0,0,1,.91-0.47q0.73-.22,1.66-0.41a4.06,4.06,0,0,1,1.8,0,5.83,5.83,0,0,0-2.54,0,5,5,0,0,0-2.13,1s0-.12.08-0.25a0.41,0.41,0,0,1,.27-0.2c0-.08,0-0.12.06-0.13a0.18,0.18,0,0,0,.12-0.13,17.59,17.59,0,0,1,1.86-.67,5.28,5.28,0,0,1,2.2-.19,0.79,0.79,0,0,1,.28,0,0.75,0.75,0,0,0,.28.05,0.65,0.65,0,0,0,.34,0,0.3,0.3,0,0,1,.28.08c-0.11.42-.21,0.86-0.32,1.32a7,7,0,0,1-.44,1.32,7.37,7.37,0,0,1-.31,1.41,7.49,7.49,0,0,0-.31,1.35,12.41,12.41,0,0,0-.48,1.73,10.4,10.4,0,0,1-.54,1.79,3.11,3.11,0,0,1-.91,1.28,3.16,3.16,0,0,1-1.68.57c-0.08,0-.12,0-0.1-0.06s0-.06,0-0.06a1,1,0,0,1-.81-0.15,1.54,1.54,0,0,1-.4-0.6,4.54,4.54,0,0,1-.22-0.8q-0.08-.43-0.16-0.74a0.1,0.1,0,0,0-.12,0,0.1,0.1,0,0,1-.13,0,0.5,0.5,0,0,0-.08-0.31,5,5,0,0,0-.15-1.42,3.13,3.13,0,0,1,.08-1.68l0.12-.07c0-.08,0-0.09-0.06,0m29.15,1.05a0.34,0.34,0,0,1,.12-0.16,0.33,0.33,0,0,0,.12-0.16c-0.12.09-.18,0.1-0.19,0a0.21,0.21,0,0,0-.07-0.15,2,2,0,0,1-1,.35,0.82,0.82,0,0,1-.18-0.58,1.63,1.63,0,0,1,.13-0.59q-0.85.41-1.76,0.91a12.87,12.87,0,0,1-1.89.86,3.77,3.77,0,0,1-1,.35,1.68,1.68,0,0,1-1,0l-0.91-.24a8.07,8.07,0,0,1-1.54-.49l-1.49-.62a3.2,3.2,0,0,0-1.47-.93,2.79,2.79,0,0,1-1.41-.93,0.55,0.55,0,0,1-.29-0.17,0.33,0.33,0,0,0-.28-0.11,3.22,3.22,0,0,0-.71-0.59,2.65,2.65,0,0,1-.71-0.65,8.54,8.54,0,0,1,.68-1.61,5,5,0,0,0,.55-1.61,0.16,0.16,0,0,0,.15-0.07,0.34,0.34,0,0,1,.15-0.13,2.27,2.27,0,0,1,.42-1.1,1.9,1.9,0,0,0,.35-1.1,2.24,2.24,0,0,0,.45-1,2.25,2.25,0,0,1,.45-1,4.68,4.68,0,0,1,.35-1.19,4.86,4.86,0,0,0,.35-1.13,3.42,3.42,0,0,0,.25-0.57l0.19-.57,0.18-.19a1.17,1.17,0,0,0,.08-0.35,1.12,1.12,0,0,1,.08-0.34,13,13,0,0,1,.62-1.33,7.48,7.48,0,0,0,.56-1.33,2.93,2.93,0,0,0,.51-1,8.08,8.08,0,0,1,.39-1.07c0.08,0,.11,0,0.09,0s0-.06.09-0.07a2.73,2.73,0,0,1,.33-0.88,4.29,4.29,0,0,0,.4-0.89,0.79,0.79,0,0,1,.15-0.22,0.84,0.84,0,0,0,.15-0.22,4.6,4.6,0,0,0,.16-0.56,1.51,1.51,0,0,1,.29-0.57s0-.06,0-0.06,0,0,0-.06a2,2,0,0,0,.38-0.61q0.14-.35.25-0.66a8.86,8.86,0,0,0,.63-1.27,9.1,9.1,0,0,0,.44-1.39,1.39,1.39,0,0,0,.17-0.47l0.1-.59a3.11,3.11,0,0,1,.16-0.53,1,1,0,0,0,0-.59,4.57,4.57,0,0,0,.45-1.14,12.14,12.14,0,0,0,.25-1.31,6.07,6.07,0,0,0,.42-1.76,6.56,6.56,0,0,0-.08-1.8,1.88,1.88,0,0,1-.09-0.56,1.92,1.92,0,0,1-.28-0.7,3.31,3.31,0,0,0-.22-0.7,4.68,4.68,0,0,0-.63-0.93,0.84,0.84,0,0,1-.31-0.76c-0.09-.08-0.12-0.09-0.09,0s0,0.07-.09,0a3.87,3.87,0,0,0-1.33-1.31Q148,3,147.25,2.53a2.13,2.13,0,0,1-.66-0.25,1.43,1.43,0,0,0-.6-0.19,11.37,11.37,0,0,0-5.81,1.31A13,13,0,0,0,136,6.75a7.17,7.17,0,0,0-.65.68c-0.2.24-.39,0.46-0.59,0.68a3.79,3.79,0,0,0-.58.83,5.8,5.8,0,0,0-.46.76c0,0.09-.09.18-0.14,0.29a1.42,1.42,0,0,1-.2.29l-0.37.73c-0.1.19-.2,0.41-0.31,0.67a4.15,4.15,0,0,0-.35,1.23q-0.07.59-.16,1.28a5,5,0,0,0-.13,1.31c0,0.29-.07.57-0.12,0.84a2,2,0,0,0,0,.78,0.16,0.16,0,0,0,.07.15s0,0.07-.05.16a5.94,5.94,0,0,1,.2,1.08,2.21,2.21,0,0,0,.39,1.07c0.21,0.12.42,0.22,0.63,0.31a1.15,1.15,0,0,0,.81,0l0.21-.13a0.38,0.38,0,0,1,.21-0.07,4.41,4.41,0,0,0,.34-1.53,9,9,0,0,0,0-1.64,6.62,6.62,0,0,1,.26-1,4,4,0,0,0,.2-1.09,0.92,0.92,0,0,0,.28-0.66,1.3,1.3,0,0,1,.1-0.59,0.05,0.05,0,0,1,.06-0.06,0.05,0.05,0,0,0,.06-0.06,3.66,3.66,0,0,0,.33-0.94,2.11,2.11,0,0,0,.2-0.44,5.08,5.08,0,0,1,.2-0.51s0.06-.06.18-0.07a4.58,4.58,0,0,0,.32-0.54,4.6,4.6,0,0,1,.32-0.54l0.27-.26,0.27-.26a0.83,0.83,0,0,0,.17-0.29A0.83,0.83,0,0,1,138,8.83a0.26,0.26,0,0,1,.18-0.07,0.53,0.53,0,0,1,.17-0.32,1.28,1.28,0,0,1,.39-0.3,2.5,2.5,0,0,0,.39-0.23,3.51,3.51,0,0,0,.24-0.29,1.37,1.37,0,0,1,.3-0.29l0.6-.4a4.35,4.35,0,0,1,.61-0.34A0.49,0.49,0,0,1,141,6.5a0.49,0.49,0,0,0,.12-0.1A1.63,1.63,0,0,0,141.94,6a3.38,3.38,0,0,0,.86-0.29,0.93,0.93,0,0,1,.87,0c0,0.08,0,.12.1,0.12s0.07,0,0,.12a2.33,2.33,0,0,1,1,1.57,3.11,3.11,0,0,1,0,1.06,11.32,11.32,0,0,1-.26,1.13,2.45,2.45,0,0,0-.09.78,1.36,1.36,0,0,1-.15.72,6.86,6.86,0,0,1-.29,1.25,12.36,12.36,0,0,0-.35,1.26,1.85,1.85,0,0,0-.37.82,2.34,2.34,0,0,1-.36.88q-0.22.57-.51,1.2a7.27,7.27,0,0,1-.63,1.15c0,0.08.06,0.11,0,.09s0,0,0,.09a1.9,1.9,0,0,0-.28.76,13.3,13.3,0,0,0-.66,1.24l-0.65,1.36q-1.12,2.84-2.36,5.69a2.81,2.81,0,0,1-.38,1.2,4.26,4.26,0,0,1-.41,1.32,4.26,4.26,0,0,0-.41,1.32,3.58,3.58,0,0,1-.26.57,3.51,3.51,0,0,0-.25.57q-0.28.76-.52,1.54a9.16,9.16,0,0,1-.53,1.36c0,0.08,0,.13,0,0.13s0,0,0,.13a1.28,1.28,0,0,0-.34.76,1,1,0,0,1-.34.7,1.27,1.27,0,0,1-.64-0.47,3.37,3.37,0,0,0-.82-0.24,7.64,7.64,0,0,1-.82-0.18,3.12,3.12,0,0,0,.75.12,6.37,6.37,0,0,1,.68.06,1.58,1.58,0,0,0-.76-0.34,4.19,4.19,0,0,0-2.2.07q-1.14.33-1.87,0.61a2.3,2.3,0,0,1-.64.18,2.34,2.34,0,0,0-.64.18,4.69,4.69,0,0,0-1,.66,5.6,5.6,0,0,0-1.15,1.26,4.91,4.91,0,0,0-.71,1.61c0,0.17-.07.32-0.1,0.47s-0.07.32-.1,0.53a9.64,9.64,0,0,0-.13,1.31,6.75,6.75,0,0,0,.06,1.3,14.34,14.34,0,0,1,.22,1.57,4.84,4.84,0,0,0,.27,1.32,1,1,0,0,1,.2.24,1.34,1.34,0,0,0,.2.43,4.12,4.12,0,0,1,.27.42,3.29,3.29,0,0,1,.19.67,2.21,2.21,0,0,0,.18.61,0.83,0.83,0,0,0,.24.39,1.54,1.54,0,0,1,.3.39l0.27,0.45a1.18,1.18,0,0,0,.45.38,4.56,4.56,0,0,0,.22.8,1.33,1.33,0,0,1,.09.68,0.56,0.56,0,0,0,.51.29v0.06a0.37,0.37,0,0,1,.22.05l0.22,0.11a1.69,1.69,0,0,0,.77-0.1,1,1,0,0,1,.71,0,0.51,0.51,0,0,1,.31.08,1.57,1.57,0,0,0,.26.14,0.67,0.67,0,0,0,.4,0,0.66,0.66,0,0,1,.4,0,0.34,0.34,0,0,1,.16.12,0.49,0.49,0,0,0,.1.12,0.44,0.44,0,0,0,.4-0.17,0.52,0.52,0,0,1,.33-0.23h0.25a2.06,2.06,0,0,0,.71-0.81,1.22,1.22,0,0,1,.9-0.63,1.1,1.1,0,0,1,.3-0.32,1.1,1.1,0,0,0,.3-0.32,0.7,0.7,0,0,0,.73-0.4q0.23-.45.46-0.83h0.12a1.09,1.09,0,0,1,1.13-1c0.07-.33.14-0.65,0.21-0.94a1.19,1.19,0,0,1,.47-0.7,1.12,1.12,0,0,0,.08-0.28,0.54,0.54,0,0,1,.14-0.29h0.19a3.31,3.31,0,0,0,.24-0.85c0-.31.11-0.64,0.18-1l0.19-.57a0.76,0.76,0,0,1,.26-0.38,2.77,2.77,0,0,1,1,.76,6,6,0,0,0,.91.89,12,12,0,0,0,1.56,1,12.12,12.12,0,0,1,1.56,1,0.16,0.16,0,0,1,.16.06s0.07,0,.16,0a0.75,0.75,0,0,0,.35.26,2.66,2.66,0,0,1,.41.2,11.25,11.25,0,0,0,2.4,1,13.15,13.15,0,0,0,2.75.53s0.05,0,0-.09,0-.07.09,0a0.1,0.1,0,0,1-.06.09s0,0,.06,0a7.29,7.29,0,0,0,2-.68,17.92,17.92,0,0,0,1.6-1c-0.09-.08-0.12-0.13-0.1-0.15s0-.05,0-0.09c0.2-.17.39-0.33,0.57-0.46s0.37-.28.57-0.46a1.23,1.23,0,0,1-.31,0,0.56,0.56,0,0,0-.31,0,0.64,0.64,0,0,1-.08-0.37l0.88-.57A4,4,0,0,0,156,44.6h-0.06a0.24,0.24,0,0,1-.18.07M125.32,34.4a0.2,0.2,0,0,1-.1-0.18L124.68,34a1.29,1.29,0,0,1-.41-0.26,2.7,2.7,0,0,1-.6-0.16l-0.6-.22a0.29,0.29,0,0,0-.22,0c-0.06,0-.12,0-0.16-0.15q-1.75-.23-3-0.37t-2.33-.18a17.09,17.09,0,0,0-2.29.07q-1.17.11-2.83,0.43a0.27,0.27,0,0,0-.25,0,0.39,0.39,0,0,1-.31,0v0.06a0.06,0.06,0,0,1-.06.06,7.9,7.9,0,0,0-.8.19l-0.8.25a0.6,0.6,0,0,1-.36.26,0.78,0.78,0,0,0-.36.2,2.3,2.3,0,0,0-.69.56,1.92,1.92,0,0,0-.49.92,1,1,0,0,0,.34.67,2.6,2.6,0,0,0,.7.47,1.12,1.12,0,0,1,.57.16,1.82,1.82,0,0,0,.43-0.08,2.32,2.32,0,0,1,.56-0.09,7.9,7.9,0,0,0,1.55-.1l1.6-.23c0.29,0,.58,0,0.87-0.07a4.13,4.13,0,0,1,.87,0,2.65,2.65,0,0,1,.83-0.22q0.59-.09,1.23-0.15l1.27-.12a3.8,3.8,0,0,0,1-.2q0.62,0,1.24,0a1.89,1.89,0,0,0,1-.26q0.5,0,1-.07a2.17,2.17,0,0,0,.83-0.25l0.52-.05a5.26,5.26,0,0,1,.59-0.06,2.27,2.27,0,0,1,.24-0.23,0.27,0.27,0,0,0,.11-0.22,0.49,0.49,0,0,0-.16-0.18M90.06,20l-0.22.63a4,4,0,0,1,.23-1.1,7.52,7.52,0,0,0,.3-1,2.66,2.66,0,0,0,.4-0.82s0.07,0.06.07,0.18a2.55,2.55,0,0,0-.31.73c-0.09.31-.17,0.58-0.24,0.79L90.06,20m2.1-5.27a0.29,0.29,0,0,0,.08-0.22,0.15,0.15,0,0,1,0,.19,0.26,0.26,0,0,0-.05.19c-0.08,0-.1-0.09,0-0.15M92.08,8.94a0.3,0.3,0,0,0,.08-0.22,0.53,0.53,0,0,1-.11.44,0.17,0.17,0,0,1,0-.22M89.29,26s0,0,0,.06a7.66,7.66,0,0,1,.55-2.29,12.31,12.31,0,0,0,.68-2.11A27.76,27.76,0,0,0,92,17q0.57-2.45,1.28-4.84a0.6,0.6,0,0,1,.11-0.44,0.47,0.47,0,0,0,0-.44H93.28a1,1,0,0,0-.14.41,0.58,0.58,0,0,1-.14.35,0.42,0.42,0,0,0,.11-0.32,0.69,0.69,0,0,1,0-.31A7.94,7.94,0,0,0,92.73,13a8.14,8.14,0,0,1-.43,1.48Q92.66,13,93,11.48t0.61-3a0.12,0.12,0,0,1,0,.09s0,0,0,0a2.8,2.8,0,0,1,.19-0.72,0.8,0.8,0,0,0,0-.65,13.36,13.36,0,0,1-.59,2.2,21.38,21.38,0,0,0-.65,2.14Q92.22,12.76,91.9,14t-0.7,2.36q0.42-1.82.87-3.58t0.87-3.51a0.42,0.42,0,0,0,0-.19,0.26,0.26,0,0,1,0-.12A0.67,0.67,0,0,0,93,8.56a0.65,0.65,0,0,1,.11-0.38,1.57,1.57,0,0,1,0-.5c0-.13.07-0.27,0.1-0.44A0.93,0.93,0,0,1,93,7a0.2,0.2,0,0,0-.19-0.12,4.33,4.33,0,0,1-.28.63,1.93,1.93,0,0,0-.22.69c0-.08-0.07-0.12-0.19-0.12a0.54,0.54,0,0,0-.27-0.42,4.62,4.62,0,0,0-.36.95q-0.13.5-.3,1a0.54,0.54,0,0,0-.14.26,0.56,0.56,0,0,1-.14.25,22.71,22.71,0,0,0-1,3.33A33.52,33.52,0,0,1,89,16.87a2,2,0,0,1-.12.84,5.43,5.43,0,0,0-.25.79,22.1,22.1,0,0,0-1,2.34q-0.28.63-.51,1.2T86.72,23.3q-0.31,1.38-.56,2.72a26.69,26.69,0,0,0-.37,2.9,1.46,1.46,0,0,1-.23.38,0.2,0.2,0,0,0-.18.1,0.21,0.21,0,0,1-.18.1A2,2,0,0,0,85,30a0.66,0.66,0,0,1-.32.42,0.56,0.56,0,0,1,.07.24,0.55,0.55,0,0,0,.07.24,1.75,1.75,0,0,0,.84.12,1.21,1.21,0,0,1,.78.18,0.31,0.31,0,0,0,.08.31A1.68,1.68,0,0,0,87,31.42l0.4-.14a0.7,0.7,0,0,1,.07.31,0.22,0.22,0,0,1-.21.1,0.29,0.29,0,0,0-.22,0A0.54,0.54,0,0,0,87,32a0.2,0.2,0,0,1-.12.19,1.12,1.12,0,0,0,.56.07,0.86,0.86,0,0,1,.5.07,2,2,0,0,1,1.32-.24A3.57,3.57,0,0,0,90.58,32a0.06,0.06,0,0,1,.06.06s0,0.06.13,0.06L92,31.94a8.11,8.11,0,0,0,1.23-.3q0.86-.16,2.28-0.32a13.76,13.76,0,0,0,2.4-.45,1.59,1.59,0,0,1,.73-0.34,10.92,10.92,0,0,1-.32,1.91q-0.24.91-.51,1.85-0.36,1.69-.69,3.41t-0.56,3.53q-0.19,1.44-.28,2.93t-0.15,3q0,0.93,0,2a18.9,18.9,0,0,0,.16,2.16,17.21,17.21,0,0,0,.4,2.09,8.66,8.66,0,0,0,.67,1.8,0.64,0.64,0,0,1,.48.38,0.64,0.64,0,0,0,.48.38q-0.08-.31.32-0.35a0.37,0.37,0,0,1,.48.26,9.06,9.06,0,0,0,.21-1s0,0,0,0,0,0.05,0,0a0.43,0.43,0,0,0,.2-0.47,1.07,1.07,0,0,1,.07-0.59,0.18,0.18,0,0,1,0,.18,0.19,0.19,0,0,0,0,.18c0.08,0,.11,0,0.09,0a0.14,0.14,0,0,1,0-.16,1,1,0,0,1,.26.17,0.22,0.22,0,0,1,0-.18,0.46,0.46,0,0,0,0-.19c0,0.08.13,0.06,0.25-.07a0.75,0.75,0,0,1,.13-0.5,0.57,0.57,0,0,0,.07-0.5,1.32,1.32,0,0,0,.21-0.94,0.7,0.7,0,0,1,.07.31,0.68,0.68,0,0,0,.07.31,0.35,0.35,0,0,0,0-.25A0.15,0.15,0,0,1,101,52a0.1,0.1,0,0,1,0,.12s0,0.06,0,.06a0.68,0.68,0,0,0,.07-0.47,0.67,0.67,0,0,1,.07-0.47l0.13,0.12a2,2,0,0,1,.13-1.37,0.06,0.06,0,0,1,.06.06s0,0,.06-0.06a27.28,27.28,0,0,1,.17-3.27q0.18-1.59.3-3.09a4.3,4.3,0,0,1,.16-0.66c0.07-.23.14-0.45,0.22-0.66a10.66,10.66,0,0,1,.27-1.59,11,11,0,0,0,.28-1.53,3.49,3.49,0,0,0,.21-0.85,6.75,6.75,0,0,1,.15-0.84q0.2-1,.5-2t0.5-2a6.52,6.52,0,0,0,.15-0.88,2,2,0,0,1,.21-0.75,0.86,0.86,0,0,1,0-.37,0.57,0.57,0,0,0,0-.37,8.52,8.52,0,0,0,.26-1q0.1-.53.2-1a0.39,0.39,0,0,0,.21-0.07l0.21-.13a0.86,0.86,0,0,1,.49-0.11,1.32,1.32,0,0,0,.49-0.05l0.15-.1,0.15-.1a9.46,9.46,0,0,1,.92-0.23l0.92-.16a0.38,0.38,0,0,1,.34-0.11,0.24,0.24,0,0,0,.28-0.1,9.11,9.11,0,0,0-1.48.19,4,4,0,0,1-1.17.11,0.33,0.33,0,0,1,.2-0.38,1.93,1.93,0,0,0,.34-0.14,3.36,3.36,0,0,1,.92-0.16,4.1,4.1,0,0,0,1-.17,5.64,5.64,0,0,1,1-.2,1.76,1.76,0,0,0,.89-0.32,0.26,0.26,0,0,0-.07-0.18,0.25,0.25,0,0,1,0-.25c-0.21-.07-0.31-0.15-0.29-0.24a0.37,0.37,0,0,1,.21-0.23,2.36,2.36,0,0,1,.4-0.17,0.42,0.42,0,0,0,.27-0.2l-0.13-.09a0.87,0.87,0,0,1-.19-0.15,4.58,4.58,0,0,1-.77.22,2.39,2.39,0,0,1-.77,0,0.85,0.85,0,0,1-.51-0.23,1.05,1.05,0,0,1,.71-0.19,1.08,1.08,0,0,0,.76-0.25,12.51,12.51,0,0,1-1.69.32q-0.83.1-1.7,0.26l-0.71.15a1.15,1.15,0,0,1-.65,0q0.17-1.87.46-3.62a25.34,25.34,0,0,0,.33-3.74,4.05,4.05,0,0,0,.25-1.31,4,4,0,0,1,.25-1.31,2.22,2.22,0,0,1,.14-1,2.4,2.4,0,0,0,.14-1.06q0.09-.69.22-1.25a4.92,4.92,0,0,0,.1-1.31,6.73,6.73,0,0,0,.08-2.49,5.62,5.62,0,0,0-.72-2.26,2.84,2.84,0,0,0-.51-0.38,2.81,2.81,0,0,1-.51-0.38,1.45,1.45,0,0,1-.23-0.27,1.49,1.49,0,0,0-.23-0.27,0.18,0.18,0,0,0-.1-0.06,0.21,0.21,0,0,1-.1-0.12,0.17,0.17,0,0,1-.07-0.09,0.18,0.18,0,0,0-.07-0.09,1.06,1.06,0,0,0-.79-0.28,6.57,6.57,0,0,0-.9.1l-0.46.14a2.29,2.29,0,0,0-.52.21,1.76,1.76,0,0,0-.68.87,6.93,6.93,0,0,1-.48,1c0,0.08,0,.17,0,0.25a0.26,0.26,0,0,1-.05.19,0.62,0.62,0,0,0-.11.35,1.44,1.44,0,0,1-.1.47,0.16,0.16,0,0,1-.06.16,0.16,0.16,0,0,0-.06.16,0.63,0.63,0,0,0,0,.47,1.53,1.53,0,0,1,.08.4,0.56,0.56,0,0,1-.05.25,0.56,0.56,0,0,0-.05.25,0.68,0.68,0,0,0,0,.22,0.68,0.68,0,0,1,0,.22c0,0.25-.07.5-0.12,0.75s-0.09.5-.12,0.75a13.22,13.22,0,0,1-.12,1.46,7.75,7.75,0,0,0-.06,1.46,9.86,9.86,0,0,0-.14,1.19q0,0.62,0,1.24a0.63,0.63,0,0,0-.13.53,0.81,0.81,0,0,1-.07.53,0.77,0.77,0,0,1,0,.5,0.78,0.78,0,0,0,0,.5q-0.23,1.87-.43,3.74a31.16,31.16,0,0,1-.61,3.69,2.94,2.94,0,0,0-1.17.17,4.09,4.09,0,0,1-1.17.24,0.4,0.4,0,0,1-.19,0,0.23,0.23,0,0,0-.19,0c-0.08,0-.12,0-0.12,0s0,0-.12,0a1.2,1.2,0,0,1-.58.12,1.94,1.94,0,0,0-.59.06q-1,.17-2,0.28a17.7,17.7,0,0,1-2.11.09,0.16,0.16,0,0,1,.06-0.16,0.48,0.48,0,0,0,.12-0.1q-0.49.08-1.08,0.23l-1.07.29a1.26,1.26,0,0,1,0-.87A2.08,2.08,0,0,0,89.32,26s0,0.06,0,.06M63,53a0.61,0.61,0,0,1,.19.21,0.17,0.17,0,0,1-.22,0A0.83,0.83,0,0,0,62.77,53,0.17,0.17,0,0,1,63,53m23.45-1.61a6.15,6.15,0,0,1,.86-0.1,3.27,3.27,0,0,1-1.73.26l0.86-.16m2-.52a2.16,2.16,0,0,1-.58.21l-0.65.15a5.49,5.49,0,0,1,1.22-.36m-26.11-.29c-0.08-.41-0.17-0.82-0.27-1.23a5.62,5.62,0,0,1,.42,1.19q0.15,0.65.3,1.14a2.87,2.87,0,0,1-.45-1.1m0.41-4.14c0,0.06-.06.07-0.06,0,0.07-.21.17-0.26,0.31-0.14s0,0,0-.06a0.08,0.08,0,0,1,0-.12,0.88,0.88,0,0,0,.18-0.72,1.78,1.78,0,0,1,.06-0.78,4.6,4.6,0,0,1,.1.93,0.18,0.18,0,0,0,.05-0.25,0.25,0.25,0,0,1,0-.25c0-.08,0-0.11.06-0.09s0.13,0,.12,0a2.29,2.29,0,0,0,0-.65,2.13,2.13,0,0,1,.06-0.78l0.72-.65a2.18,2.18,0,0,1,.91-0.47q0.73-.22,1.66-0.41a4.07,4.07,0,0,1,1.8,0,5.83,5.83,0,0,0-2.54,0A5,5,0,0,0,64,43s0-.12.08-0.25a0.41,0.41,0,0,1,.27-0.2c0-.08,0-0.12.06-0.13a0.18,0.18,0,0,0,.12-0.13,17.61,17.61,0,0,1,1.86-.67,5.27,5.27,0,0,1,2.19-.19,0.79,0.79,0,0,1,.28,0,0.74,0.74,0,0,0,.28.05,0.65,0.65,0,0,0,.34,0,0.3,0.3,0,0,1,.28.08q-0.16.63-.31,1.32A7,7,0,0,1,69,44.24a7.44,7.44,0,0,1-.31,1.41A7.47,7.47,0,0,0,68.4,47a12.69,12.69,0,0,0-.48,1.73,10.4,10.4,0,0,1-.54,1.79,3.13,3.13,0,0,1-.91,1.28,3.17,3.17,0,0,1-1.68.57c-0.08,0-.11,0-0.1-0.06s0-.06,0-0.06a1,1,0,0,1-.81-0.15,1.55,1.55,0,0,1-.4-0.6,4.45,4.45,0,0,1-.22-0.8c-0.05-.29-0.11-0.53-0.16-0.74a0.1,0.1,0,0,0-.12,0,0.1,0.1,0,0,1-.12,0,0.49,0.49,0,0,0-.08-0.31,5,5,0,0,0-.15-1.42,3.14,3.14,0,0,1,.08-1.68l0.12-.07c0-.08,0-0.09-0.06,0m29.15,1.05A0.33,0.33,0,0,1,92,47.3a0.33,0.33,0,0,0,.12-0.16c-0.12.09-.18,0.1-0.18,0A0.22,0.22,0,0,0,91.86,47a2,2,0,0,1-1,.35,0.82,0.82,0,0,1-.18-0.58,1.61,1.61,0,0,1,.13-0.59q-0.85.41-1.76,0.91a12.86,12.86,0,0,1-1.89.86,3.79,3.79,0,0,1-1,.35,1.67,1.67,0,0,1-1,0l-0.91-.24a8,8,0,0,1-1.54-.49L81.25,47a3.19,3.19,0,0,0-1.47-.93,2.79,2.79,0,0,1-1.41-.93A0.55,0.55,0,0,1,78.09,45a0.33,0.33,0,0,0-.29-0.11,3.2,3.2,0,0,0-.71-0.59,2.66,2.66,0,0,1-.71-0.65A8.58,8.58,0,0,1,77.06,42a5.06,5.06,0,0,0,.55-1.61,0.16,0.16,0,0,0,.15-0.07,0.33,0.33,0,0,1,.15-0.13,2.27,2.27,0,0,1,.42-1.1,1.92,1.92,0,0,0,.36-1.1,2.25,2.25,0,0,0,.45-1,2.25,2.25,0,0,1,.45-1,4.69,4.69,0,0,1,.35-1.19,4.91,4.91,0,0,0,.35-1.13,3.59,3.59,0,0,0,.25-0.57l0.19-.57,0.18-.19A1.18,1.18,0,0,0,81,32a1.12,1.12,0,0,1,.08-0.34,13,13,0,0,1,.63-1.33A7.51,7.51,0,0,0,82.26,29a2.92,2.92,0,0,0,.51-1,7.93,7.93,0,0,1,.39-1.07c0.08,0,.11,0,0.09,0s0-.06.09-0.07a2.73,2.73,0,0,1,.33-0.88,4.28,4.28,0,0,0,.4-0.89,0.82,0.82,0,0,1,.14-0.22,0.84,0.84,0,0,0,.15-0.22A4.41,4.41,0,0,0,84.53,24a1.54,1.54,0,0,1,.29-0.57s0-.06,0-0.06,0,0,0-.06a2,2,0,0,0,.38-0.61q0.14-.35.25-0.66A8.82,8.82,0,0,0,86,20.78a9.06,9.06,0,0,0,.44-1.38,1.38,1.38,0,0,0,.17-0.47c0-.19.07-0.38,0.1-0.59a3.18,3.18,0,0,1,.16-0.53,1,1,0,0,0,0-.59,4.57,4.57,0,0,0,.45-1.14,12,12,0,0,0,.25-1.31A6,6,0,0,0,88,13a6.6,6.6,0,0,0-.08-1.8,1.87,1.87,0,0,1-.09-0.56,1.94,1.94,0,0,1-.28-0.7,3.32,3.32,0,0,0-.22-0.7,4.66,4.66,0,0,0-.63-0.93,0.84,0.84,0,0,1-.31-0.76c-0.09-.08-0.12-0.09-0.1,0s0,0.07-.09,0A3.87,3.87,0,0,0,84.9,6.25q-0.8-.46-1.5-0.93a2.18,2.18,0,0,1-.66-0.25,1.4,1.4,0,0,0-.6-0.19,11.37,11.37,0,0,0-5.81,1.31A13,13,0,0,0,72.1,9.54a6.93,6.93,0,0,0-.65.68q-0.3.35-.59,0.68a3.81,3.81,0,0,0-.58.83,5.69,5.69,0,0,0-.46.76c0,0.08-.09.18-0.14,0.28a1.46,1.46,0,0,1-.2.29l-0.37.73c-0.1.19-.2,0.41-0.31,0.66a4.13,4.13,0,0,0-.35,1.23q-0.07.59-.16,1.28a5,5,0,0,0-.13,1.31q0,0.44-.12.84a2,2,0,0,0,0,.78,0.16,0.16,0,0,0,.07.15s0,0.07-.06.16a5.75,5.75,0,0,1,.2,1.08,2.23,2.23,0,0,0,.39,1.07c0.21,0.11.42,0.22,0.64,0.31a1.15,1.15,0,0,0,.81,0l0.21-.13a0.38,0.38,0,0,1,.21-0.07,4.41,4.41,0,0,0,.34-1.53,8.86,8.86,0,0,0,0-1.64,6.62,6.62,0,0,1,.26-1,4,4,0,0,0,.2-1.1,0.92,0.92,0,0,0,.28-0.66,1.3,1.3,0,0,1,.1-0.59,0.06,0.06,0,0,1,.06-0.06,0.06,0.06,0,0,0,.06-0.07,3.69,3.69,0,0,0,.33-0.94,2.16,2.16,0,0,0,.2-0.44,5.08,5.08,0,0,1,.19-0.51s0.06-.07.18-0.07A4.59,4.59,0,0,0,73,13.25a4.59,4.59,0,0,1,.32-0.54l0.27-.26a3.34,3.34,0,0,0,.27-0.26A0.83,0.83,0,0,0,74,11.91a0.82,0.82,0,0,1,.17-0.29,0.25,0.25,0,0,1,.18-0.07,0.52,0.52,0,0,1,.17-0.32,1.28,1.28,0,0,1,.39-0.3,2.51,2.51,0,0,0,.39-0.23,3.73,3.73,0,0,0,.24-0.29,1.38,1.38,0,0,1,.3-0.29l0.6-.4a4.41,4.41,0,0,1,.61-0.34,0.5,0.5,0,0,1,.12-0.1,0.49,0.49,0,0,0,.12-0.1,1.63,1.63,0,0,0,.79-0.41,3.39,3.39,0,0,0,.86-0.29,0.93,0.93,0,0,1,.87,0c0,0.08,0,.12.1,0.12s0.07,0,0,.12a2.33,2.33,0,0,1,1,1.57,3.1,3.1,0,0,1,0,1.06,11.56,11.56,0,0,1-.26,1.13,2.39,2.39,0,0,0-.09.78,1.36,1.36,0,0,1-.15.72,6.8,6.8,0,0,1-.29,1.25,12.37,12.37,0,0,0-.35,1.26,1.87,1.87,0,0,0-.37.82,2.35,2.35,0,0,1-.36.89q-0.23.57-.51,1.2a7.35,7.35,0,0,1-.63,1.15c0,0.08.06,0.11,0,.09s0,0,0,.09a1.9,1.9,0,0,0-.28.76A13.3,13.3,0,0,0,77,22.76q-0.31.67-.65,1.36Q75.22,27,74,29.81A2.83,2.83,0,0,1,73.6,31a4.32,4.32,0,0,1-.41,1.32,4.29,4.29,0,0,0-.41,1.32,3.58,3.58,0,0,1-.25.57,3.51,3.51,0,0,0-.25.57q-0.28.76-.52,1.54a9.1,9.1,0,0,1-.53,1.36c0,0.08,0,.12,0,0.13s0,0,0,.13a1.28,1.28,0,0,0-.34.76,1,1,0,0,1-.34.7,1.27,1.27,0,0,1-.64-0.47A3.39,3.39,0,0,0,69,38.68a7.62,7.62,0,0,1-.81-0.18,3.12,3.12,0,0,0,.75.12,6.42,6.42,0,0,1,.68.06,1.58,1.58,0,0,0-.76-0.34,4.19,4.19,0,0,0-2.2.07q-1.13.33-1.87,0.61a2.28,2.28,0,0,1-.64.18,2.33,2.33,0,0,0-.64.18,4.69,4.69,0,0,0-1,.66,5.55,5.55,0,0,0-1.16,1.26,4.9,4.9,0,0,0-.71,1.61c0,0.17-.07.32-0.1,0.47s-0.07.32-.1,0.53a9.64,9.64,0,0,0-.13,1.31,6.75,6.75,0,0,0,.06,1.3,14.3,14.3,0,0,1,.22,1.57,4.84,4.84,0,0,0,.28,1.32,1,1,0,0,1,.2.24,1.34,1.34,0,0,0,.21.43,4.31,4.31,0,0,1,.27.42,3.17,3.17,0,0,1,.19.67,2.22,2.22,0,0,0,.18.61,0.83,0.83,0,0,0,.23.39,1.57,1.57,0,0,1,.3.39q0.13,0.24.27,0.45a1.17,1.17,0,0,0,.45.38,4.48,4.48,0,0,0,.22.8,1.33,1.33,0,0,1,.09.68,0.56,0.56,0,0,0,.51.29v0.06a0.38,0.38,0,0,1,.22.05l0.22,0.11a1.69,1.69,0,0,0,.77-0.1,1,1,0,0,1,.71,0,0.5,0.5,0,0,1,.31.08,1.56,1.56,0,0,0,.25.14,0.67,0.67,0,0,0,.4,0,0.66,0.66,0,0,1,.4,0,0.34,0.34,0,0,1,.16.12,0.49,0.49,0,0,0,.1.12,0.44,0.44,0,0,0,.4-0.17,0.51,0.51,0,0,1,.33-0.23h0.25a2.06,2.06,0,0,0,.71-0.81,1.22,1.22,0,0,1,.9-0.63,1.11,1.11,0,0,1,.3-0.32,1.11,1.11,0,0,0,.3-0.32,0.69,0.69,0,0,0,.73-0.4q0.23-.45.46-0.83h0.12a1.09,1.09,0,0,1,1.13-1c0.07-.33.14-0.65,0.21-0.94a1.19,1.19,0,0,1,.47-0.7A1.16,1.16,0,0,0,74,49a0.54,0.54,0,0,1,.14-0.28h0.19a3.31,3.31,0,0,0,.24-0.85c0-.31.11-0.64,0.18-1l0.19-.57A0.75,0.75,0,0,1,75.18,46a2.76,2.76,0,0,1,1,.76,6.09,6.09,0,0,0,.91.89,12,12,0,0,0,1.56,1,12.2,12.2,0,0,1,1.57,1,0.16,0.16,0,0,1,.16.06s0.07,0,.15,0a0.75,0.75,0,0,0,.35.26,2.53,2.53,0,0,1,.41.2,11.22,11.22,0,0,0,2.4,1,13.16,13.16,0,0,0,2.75.53s0.05,0,0-.09,0-.07.09,0a0.1,0.1,0,0,1-.06.09s0,0,.06,0a7.26,7.26,0,0,0,2-.68,17.64,17.64,0,0,0,1.6-1C90.11,50,90.07,50,90.1,49.93s0-.05,0-0.09q0.3-.26.57-0.46c0.18-.13.37-0.28,0.57-0.46a1.23,1.23,0,0,1-.31,0,0.57,0.57,0,0,0-.31,0,0.64,0.64,0,0,1-.08-0.37L91.38,48a4,4,0,0,0,.75-0.62H92.06a0.25,0.25,0,0,1-.18.07M55.95,53.59c0-.06,0-0.09.09-0.1a0.28,0.28,0,0,0,.24-0.1,0.2,0.2,0,0,1,.18-0.1c0.16-.09.34-0.18,0.55-0.27a0.76,0.76,0,0,0,.42-0.45,2,2,0,0,1,.2-0.44,1.66,1.66,0,0,0,.19-0.57A5.32,5.32,0,0,0,57.9,50a2.84,2.84,0,0,0-.4-1.38A2.88,2.88,0,0,0,57,48.12a3.4,3.4,0,0,0-.7-0.34,2.6,2.6,0,0,1-.62.09A1.84,1.84,0,0,0,55,48c0,0.12,0,.19-0.12.19a2.82,2.82,0,0,0-1.28,1.14,2.6,2.6,0,0,0-.32,1.85,1.33,1.33,0,0,0,.12.52,2.8,2.8,0,0,1,.18.52,2,2,0,0,0,.24.64,2,2,0,0,1,.24.58H54.3a0.35,0.35,0,0,1,.24-0.26,0.33,0.33,0,0,1,.2.24,0.35,0.35,0,0,0,.14.24A0.18,0.18,0,0,0,55,53.48a0.17,0.17,0,0,1,.15-0.19,0.29,0.29,0,0,1,.32.2,0.43,0.43,0,0,0,.38.26,0.13,0.13,0,0,0,.09-0.16M49.41,42.92a11.29,11.29,0,0,1,.16-1.4q0.12-.72.21-1.71a0.08,0.08,0,0,0,.12,0,0.08,0.08,0,0,1,.12,0Zm-2.28,1.15a3.74,3.74,0,0,1-.3,1.07q-0.23.51-.45,1t-0.52,1a8.45,8.45,0,0,0-.26,1,2.15,2.15,0,0,1-.4.92,1,1,0,0,0-.24.2l-0.24.26c-0.08,0-.12.06-0.12,0s0,0-.06,0a0.05,0.05,0,0,1-.06-0.06,3.62,3.62,0,0,1-.77.93,7.71,7.71,0,0,0-.89.94,3.4,3.4,0,0,1-1,.54q-0.49.15-1.23,0.3l-0.95.29a1.54,1.54,0,0,1-1.09-.14A4,4,0,0,1,38,51.61a4.5,4.5,0,0,1-.44-0.73V50.64a3.57,3.57,0,0,0-.14-0.4L37.24,50a0.67,0.67,0,0,1,0-.22,0.7,0.7,0,0,0,0-.22,4.16,4.16,0,0,0-.05-0.5,4.27,4.27,0,0,1-.06-0.56,2.28,2.28,0,0,0,.11-1,1.92,1.92,0,0,1,.12-0.91,3.93,3.93,0,0,0,0-.75,5.15,5.15,0,0,1,.5-1.32q0.34-.64.69-1.33l0.64-1A5.55,5.55,0,0,0,39.83,41l0.24-.26a0.72,0.72,0,0,0,.1-0.5,1,1,0,0,0,.69-0.65,7.63,7.63,0,0,1,.48-1,2.53,2.53,0,0,1,.29-0.39,2.45,2.45,0,0,0,.29-0.39,2.72,2.72,0,0,0,.25-0.63,1.77,1.77,0,0,1,.25-0.57,3.38,3.38,0,0,1,.72.74,2.88,2.88,0,0,0,.65.69,0.92,0.92,0,0,0,.64.41,0.5,0.5,0,0,0,.38.11l0.64,0.5a0.78,0.78,0,0,0,.69.19,5,5,0,0,0,.82.34,2,2,0,0,0,1,.08,1.46,1.46,0,0,1-.06.84,5.77,5.77,0,0,0-.31.79,8.4,8.4,0,0,0-.14,1,3.39,3.39,0,0,1-.21.91q0,0.31-.12.87m-1.33-10a2.58,2.58,0,0,1,.08.52L46.21,35a0.58,0.58,0,0,1,.17.33,1.52,1.52,0,0,0,.17.46,3.93,3.93,0,0,0,.33.39,1.77,1.77,0,0,1,.33.58v0.12a0.28,0.28,0,0,1-.31.08l-0.31-.11a2.36,2.36,0,0,1-1-.61,5.15,5.15,0,0,1-.79-1,1.3,1.3,0,0,1,0-.84,0.86,0.86,0,0,1,.63-0.62,0.43,0.43,0,0,1,.39.33m12.38,0.79a0.56,0.56,0,0,0-.28.1l-0.36.26a0.52,0.52,0,0,1-.52.05,2.43,2.43,0,0,1-.94.57q-0.64.25-1.68,0.6a2,2,0,0,1-.74.19c-0.33,0-.68.06-1.05,0.08s-0.73,0-1.09,0h-0.9a0.92,0.92,0,0,1-.28,0,0.73,0.73,0,0,0-.34,0,0.6,0.6,0,0,1-.16-0.21,0.14,0.14,0,0,0-.16-0.09,1.38,1.38,0,0,0-.15-0.61,0.68,0.68,0,0,1-.08-0.31,0.43,0.43,0,0,0-.14-0.3c0.05,0.2.11,0.42,0.18,0.64a2.46,2.46,0,0,1,.12.65,0.25,0.25,0,0,1-.26-0.21A1.32,1.32,0,0,1,49.29,36q-0.14-.37-0.28-0.76a3.25,3.25,0,0,0-.34-0.7,0.68,0.68,0,0,1-.49-0.51,5,5,0,0,0-.25-0.7,2.58,2.58,0,0,0-.3-0.51,1,1,0,0,1-.18-0.58L47,32a0.17,0.17,0,0,0,.05-0.22A0.29,0.29,0,0,1,47,31.61a0.37,0.37,0,0,1-.31-0.08,0.21,0.21,0,0,0-.19-0.09,0.31,0.31,0,0,1,0,.5,0.2,0.2,0,0,1-.25,0,0.21,0.21,0,0,0-.19-0.08A0.18,0.18,0,0,0,46,32c0,0.06,0,.09-0.12.1a0.56,0.56,0,0,0-.66-0.16,0.84,0.84,0,0,1-.72,0,4.51,4.51,0,0,0-.56.58,0.53,0.53,0,0,1-.77.1,1.2,1.2,0,0,0-.2.32,0.26,0.26,0,0,1-.21.2,1.7,1.7,0,0,0-.13-0.86,2.89,2.89,0,0,0-.43-0.66,7.3,7.3,0,0,0-1.05-.64,1.29,1.29,0,0,0-1.33.06,0.05,0.05,0,0,1-.06.06H39.58a7.25,7.25,0,0,0-1.05.79l-1,.91a11.14,11.14,0,0,0-.91,1.13q-0.38.54-.84,1.25a23.54,23.54,0,0,0-2.73,4.93,16.21,16.21,0,0,0-1.25,6.11v0.06a5.46,5.46,0,0,1,0,.59,1.57,1.57,0,0,1-.13.53q0.15,0.49.26,1c0.08,0.33.14,0.66,0.2,1l0,0.43L32.4,50a23.54,23.54,0,0,1,.88,2.35,2.94,2.94,0,0,0,1.54,1.83,7.92,7.92,0,0,0,1.26,1.25,3.52,3.52,0,0,0,1.68.73,1.63,1.63,0,0,0,1,0A3.81,3.81,0,0,1,39.68,56a0.13,0.13,0,0,1,.09,0,0.12,0.12,0,0,0,.09,0,2.49,2.49,0,0,0,1.47-.4,4.09,4.09,0,0,1,1.34-.59,2.8,2.8,0,0,1,.72-0.56A2.89,2.89,0,0,0,44.12,54a1,1,0,0,1,.47-0.58,1.94,1.94,0,0,1,.3-0.26,1.1,1.1,0,0,0,.3-0.32l0.14-.32a3.18,3.18,0,0,1,.2-0.38,1.74,1.74,0,0,0,.25-0.6A6,6,0,0,1,46,50.83a6,6,0,0,1,.67-1.05,6.08,6.08,0,0,0,.67-1.05A4.66,4.66,0,0,0,47.49,48a4.65,4.65,0,0,1,.24-0.88v0.12a0.05,0.05,0,0,1-.06.06L48,46.77a1.4,1.4,0,0,0,.17-0.44,2.63,2.63,0,0,0,.45-1.08c0-.08,0-0.13,0-0.12s0,0,0-.13A4.54,4.54,0,0,1,49,43.94a10.22,10.22,0,0,0,.39-1,2,2,0,0,1-.15.72,1.19,1.19,0,0,0-.1.59,13.12,13.12,0,0,0,.59-2.17q0.15-.91.39-2.34,0.31,0,1.17-.11a16.71,16.71,0,0,0,2-.36,16.1,16.1,0,0,0,2.23-.72,7,7,0,0,0,2-1.17,0.34,0.34,0,0,1,.17-0.26,0.93,0.93,0,0,0,.29-0.39,1.79,1.79,0,0,0,.61-0.83,0.5,0.5,0,0,0-.12-0.61c-0.05-.25-0.12-0.37-0.2-0.36M13,26.36a8.14,8.14,0,0,0,.19-2,3.37,3.37,0,0,0,.16-0.66c0-.23.06-0.47,0.09-0.72a11,11,0,0,0,.09-1.56q0-.87,0-1.55a10.14,10.14,0,0,0,.13-1.22,3.48,3.48,0,0,0-.11-1.14,0.72,0.72,0,0,0,.13-0.59,2.57,2.57,0,0,1,0-.71,16.6,16.6,0,0,0,.08-1.68,2.71,2.71,0,0,0-.27-1.29,1.21,1.21,0,0,0-.06-0.62A3.43,3.43,0,0,1,13.23,12q-0.54-.91-1.06-1.63A9.53,9.53,0,0,0,10.92,9a1.75,1.75,0,0,1-.47-0.17A0.84,0.84,0,0,0,10,8.77a2.74,2.74,0,0,0-1,0,2.6,2.6,0,0,0-1,.35,0.11,0.11,0,0,0-.09.1,0.29,0.29,0,0,1-.15.16q-0.3.32-.47,0.49a1.82,1.82,0,0,0-.35.48,5.53,5.53,0,0,0-.53.67,1,1,0,0,0-.15.78,1.57,1.57,0,0,0-.27.94,4.11,4.11,0,0,1-.08,1,4.43,4.43,0,0,1-.13.5,4.33,4.33,0,0,0-.13.5,0.68,0.68,0,0,0,0,.22,0.71,0.71,0,0,1,0,.22c-0.06.46-.11,0.92-0.16,1.37s-0.09.91-.16,1.37a3,3,0,0,0,0,.59l0,0.59a1,1,0,0,0-.11.44,38.66,38.66,0,0,1-.56,5.73L3.75,31a8.86,8.86,0,0,0-.14.94,9.32,9.32,0,0,1-.15.94c0,0.33-.05.67-0.08,1s-0.05.68-.08,1.06A6.69,6.69,0,0,0,3,36.82q-0.24,1.63-.42,3.12t-0.24,3a5,5,0,0,0-.09.87,9.61,9.61,0,0,1-.16,1.4,9.48,9.48,0,0,0-.16,1.28q-0.24,3-.35,6.13A36.27,36.27,0,0,0,1.93,59a3.3,3.3,0,0,1,.22.67,1.92,1.92,0,0,0,.28.67c0.21,0,.31,0,0.31.08a0.39,0.39,0,0,0,.14.27,0.63,0.63,0,0,0,.22.15,0.27,0.27,0,0,1,.16.15,0.14,0.14,0,0,1,0,.15,0.13,0.13,0,0,0,.1.15,0.89,0.89,0,0,1,.48.38,0.89,0.89,0,0,0,.48.38,0.59,0.59,0,0,0,.37,0,1.18,1.18,0,0,1,.37-0.08,0.3,0.3,0,0,1,.22.08,0.29,0.29,0,0,0,.22.08A0.5,0.5,0,0,0,5.85,62a0.17,0.17,0,0,1,.25,0,1.15,1.15,0,0,0,.26-0.51,1.75,1.75,0,0,1,.26-0.57,0.85,0.85,0,0,0,.57-0.52,3.36,3.36,0,0,0,.18-0.88c0.08-.09.14-0.09,0.19,0a0.12,0.12,0,0,0,.19.05,1.4,1.4,0,0,1,.13-1.25,0.84,0.84,0,0,1,.2-1c0.08-.09.14-0.1,0.18,0a0.21,0.21,0,0,0,.19.09,2.32,2.32,0,0,0,0-.93,0.81,0.81,0,0,1,.34-0.82,0.2,0.2,0,0,1,0-.22,0.21,0.21,0,0,0,0-.22,3.61,3.61,0,0,0,.34-1.35c0-.52.09-1,0.16-1.4a2,2,0,0,1,0-.5l0.1-.5a2.57,2.57,0,0,0,0-1,3.72,3.72,0,0,1,0-1,1.65,1.65,0,0,0,.15-0.94l0-.56a2.43,2.43,0,0,0,.12-0.72,5.9,5.9,0,0,1,.06-0.72,6.38,6.38,0,0,1,.17-1q0.13-.53.23-1.1,0.09-.81.19-1.43a12.62,12.62,0,0,0,.13-1.31,0.25,0.25,0,0,0,.14-0.26,0.56,0.56,0,0,1,0-.31c0-.17.07-0.32,0.1-0.47s0.07-.28.11-0.41a1.27,1.27,0,0,1,0-.31,1.21,1.21,0,0,1,.08-0.25,0.75,0.75,0,0,1,.05-0.28c0-.1.07-0.22,0.11-0.35a1.32,1.32,0,0,0,.07-0.62,1.28,1.28,0,0,1,.07-0.62,2.19,2.19,0,0,1,.16-0.57q0.11-.25.22-0.57a13.32,13.32,0,0,1,.91-2q0.52-.92,1.1-1.82a0.92,0.92,0,0,1,.22-0.6l0.48-.42a0.54,0.54,0,0,0,.14-0.28,0.54,0.54,0,0,1,.14-0.29,3,3,0,0,1,.35-0.45,0.78,0.78,0,0,0,.17-0.32,2.38,2.38,0,0,1,.11-0.31,1.61,1.61,0,0,1,.33-0.26l0.39-.26a20.43,20.43,0,0,1,1.72-3.21q1-1.5,2-3a3.19,3.19,0,0,0,.83-0.84l0.7-1a0.68,0.68,0,0,1,0-.31A0.55,0.55,0,0,0,21.25,21q0.29-.45.61-0.9a10.66,10.66,0,0,0,.61-1A5.52,5.52,0,0,1,23.42,18q0.54-.49,1.07-1a2.59,2.59,0,0,0,.57-0.52A1.49,1.49,0,0,1,25.75,16a15.9,15.9,0,0,1-.12,2.86q-0.19,1.37-.44,2.69t-0.54,2.6q-0.29,1.29-.48,2.6a8.4,8.4,0,0,0-.14,1q0,0.47-.14,1-0.08,1.06-.25,2.06T23.38,32.7q-0.07,1.18-.05,2.3a16.35,16.35,0,0,1-.12,2.24Q23,39,22.73,40.71t-0.47,3.47a25.88,25.88,0,0,0-.34,3q-0.09,1.56-.14,3.11a17.24,17.24,0,0,0,0,3.44,24.64,24.64,0,0,0,.55,3.36q0.15,0.68.24,1.23a3.06,3.06,0,0,0,.35,1,4.06,4.06,0,0,0,.54.91l0.72,0.9a6.56,6.56,0,0,0,1.34,1.59,5.61,5.61,0,0,0,2,1,0.26,0.26,0,0,1,.25,0,0.55,0.55,0,0,0,.25.05,1.82,1.82,0,0,0,1,.39,3.64,3.64,0,0,0,1.33-.06,0.28,0.28,0,0,1,.08-0.25,0.48,0.48,0,0,0,.15-0.19A0.51,0.51,0,0,1,30,63.25a0.68,0.68,0,0,1,.22,0l0.22,0.08a0.26,0.26,0,0,0-.16-0.21,0.12,0.12,0,0,1,0-.22,0.55,0.55,0,0,1,.47,0,0.74,0.74,0,0,0,.47.1,0.76,0.76,0,0,1,.3-0.2,1.61,1.61,0,0,0,.36-0.2,2.76,2.76,0,0,1-.66-0.28,1.36,1.36,0,0,1-.49-0.6c0.21,0,.25-0.07.15-0.19a0.29,0.29,0,0,1-.11-0.31,0.22,0.22,0,0,1,.28,0c0.07,0.08.14,0.08,0.22,0L31.06,61l-0.2-.36a0.2,0.2,0,0,1,.22,0q0.1,0.06.09-.07A0.21,0.21,0,0,0,31,60.48c-0.06,0-.09,0-0.1-0.12S31,60.26,31,60.3s0.06,0,.06-0.06-0.16-.07-0.1-0.09A0.14,0.14,0,0,0,31.08,60,0.4,0.4,0,0,1,31,59.61a2.89,2.89,0,0,0-.59-0.69,1.91,1.91,0,0,1-.53-0.81,2.58,2.58,0,0,1-.13-0.89,5.1,5.1,0,0,0-.07-1,2,2,0,0,0-.08-0.49c0-.16-0.1-0.31-0.14-0.43,0-.37,0-0.76,0-1.15s0-.78,0-1.15a4.47,4.47,0,0,1-.07-0.9q0-.4,0-0.78a3.37,3.37,0,0,0,.16-0.66,1.74,1.74,0,0,0,0-.65,8.7,8.7,0,0,0,.07-2.67q0.15-.81.39-1.82a20.93,20.93,0,0,0,.38-2.06,2.09,2.09,0,0,0,0-.62,2.09,2.09,0,0,1,0-.62,1.3,1.3,0,0,0,.23-0.32,8.52,8.52,0,0,0,0-1.05,11.72,11.72,0,0,1,0-1.18c0-.21.07-0.4,0.1-0.56a2.36,2.36,0,0,0,0-.56,4.76,4.76,0,0,1,0-1.21q0.07-.59.1-1.22a1.13,1.13,0,0,0,.07-0.56,1.73,1.73,0,0,1,0-.56q0.1-.56.2-1.06a4.66,4.66,0,0,0,.07-1.12,7,7,0,0,0,.11-1.12,5.54,5.54,0,0,1,.11-1.06,1,1,0,0,0,.1-0.47,1.94,1.94,0,0,1,0-.47q0.13-1.25.17-2.4T31.79,25a2.48,2.48,0,0,1,.07-0.65,2.48,2.48,0,0,0,.06-0.65,0.76,0.76,0,0,0,0-.37,2.55,2.55,0,0,1,0-.43L32,21.43a4.18,4.18,0,0,0-.09-1.33q-0.08-.31-0.16-0.71a5.44,5.44,0,0,1-.1-0.83A0.81,0.81,0,0,1,31.46,18a1.07,1.07,0,0,1,.07-0.59,1.65,1.65,0,0,1-.12-0.74A1,1,0,0,0,31.15,16a1.41,1.41,0,0,1,.38-0.48A0.87,0.87,0,0,0,31.85,15q0-.8-1.09-0.76a1.56,1.56,0,0,1-.26-0.33,1.91,1.91,0,0,0-.33-0.39A0.18,0.18,0,0,0,30,13.42a0.47,0.47,0,0,1-.19-0.05A1,1,0,0,1,29.59,13a0.79,0.79,0,0,0-.2-0.3,0.21,0.21,0,0,0-.16-0.06,0.18,0.18,0,0,1-.16-0.12l-0.29-.24a3,3,0,0,1-.29-0.24,2.38,2.38,0,0,0-1-.36,5.65,5.65,0,0,0-1.33,0,6.06,6.06,0,0,0-1.59.53,5.74,5.74,0,0,0-1.2,1l-0.59.61a5,5,0,0,0-.53.61q-0.47.52-.89,1c-0.28.32-.55,0.63-0.83,0.94l-0.39.33a1.33,1.33,0,0,0-.26.32q-0.53.71-1,1.44t-1,1.44a13.25,13.25,0,0,0-1.22,1.85q-0.52,1-1.1,1.91a8.4,8.4,0,0,0-1.1,1.91,7.65,7.65,0,0,0-.86,1.71c-0.11.21-.23,0.44-0.34,0.67a0.56,0.56,0,0,1-.48.36,11,11,0,0,1,.26-2" transform="translate(-1.57 0.17)"/></svg>