<?xml version="1.0" encoding="utf-8"?>
<!-- Generator: Adobe Illustrator 19.2.1, SVG Export Plug-In . SVG Version: 6.00 Build 0)  -->
<svg version="1.1" id="Layer_1" xmlns="http://www.w3.org/2000/svg" xmlns:xlink="http://www.w3.org/1999/xlink" x="0px" y="0px"
	 viewBox="0 0 25.6 20.6" style="enable-background:new 0 0 25.6 20.6;" xml:space="preserve">
<style type="text/css">
	.st0{fill:#082432;}
</style>
<path class="st0" d="M4.2,7.2c2.3,0,4.3,1.3,5.9,2.2c0.2,0.1,0.2,0.2,0,0.3c-1,0.7-3,1.8-5.3,1.8c-1.6,0-3.4-0.7-3.4-2.4
	C1.4,7.9,2.4,7.2,4.2,7.2 M20.7,7.4c2.6,0,3.6,1.2,3.6,2.4c0,1.9-1.9,2.2-3.6,2.2c-1.7,0-3.7-0.5-6.2-1.8c-0.2-0.1-0.2-0.1,0-0.3
	C15.9,8.7,18.1,7.4,20.7,7.4 M21.7,6.4c-2.1,0-4.1,0.9-5.4,1.7c-0.8,0.5-1.6,1-2.3,1.6c-0.1,0.1-0.2,0.1-0.3,0
	c-0.3-0.1-0.8-0.4-1.3-0.7c-0.2-0.1-0.2-0.2-0.1-0.3c1.4-1.1,4.2-3.4,4.2-6.5c0-1-0.4-2.2-1.8-2.2c-0.9,0-1.6,0.4-2.2,1.1
	c-0.1,0.2,0,0.3,0.2,0.3c0.1-0.1,0.5-0.3,1-0.3c1.3,0,1.3,1.5,1.3,2c0,2.2-1.6,4.2-3.2,5.5c-0.2,0.1-0.2,0.1-0.4,0.1
	c-1.8-1-3.9-2.2-6.2-2.2c-1.4,0-2.5,0.3-3.6,1.1C0.4,8.4,0,9.3,0,10.1c0,1.5,1.5,2.7,3.6,2.7c2.9,0,5.2-1.5,6.8-2.6
	c0.2-0.1,0.3-0.1,0.4,0c0.3,0.1,1,0.5,1.5,0.8c0.2,0.1,0.1,0.2,0,0.3c-2,2.1-2.9,4.2-2.9,5.9c0,1.8,1.1,3.3,3,3.4
	c1.4,0.1,2.4-0.7,3-1.7c0.2-0.3,0-0.4-0.2-0.2c-0.3,0.4-1,0.8-1.7,0.8c-1.5,0-2.5-1.4-2.5-3.2c-0.1-1.4,0.5-3.1,1.9-4.8
	c0.2-0.2,0.2-0.3,0.4-0.1c1.8,0.9,4.1,1.7,6.4,1.7c1.9,0,3.3-0.6,4.2-1.2c1-0.7,1.7-1.5,1.7-2.7C25.6,7.9,24.8,6.4,21.7,6.4"/>
</svg>
