<?xml version="1.0" encoding="utf-8"?>
<!-- Generator: Adobe Illustrator 19.2.1, SVG Export Plug-In . SVG Version: 6.00 Build 0)  -->
<svg version="1.1" id="Layer_1" xmlns="http://www.w3.org/2000/svg" xmlns:xlink="http://www.w3.org/1999/xlink" x="0px" y="0px"
	 viewBox="0 0 782.2 9" style="enable-background:new 0 0 782.2 9;" xml:space="preserve">
<style type="text/css">
	.st0{clip-path:url(#SVGID_2_);fill:#082432;}
	.st1{clip-path:url(#SVGID_4_);fill:#082432;}
	.st2{clip-path:url(#SVGID_6_);fill:#082432;}
	.st3{clip-path:url(#SVGID_8_);fill:#082432;}
	.st4{clip-path:url(#SVGID_10_);fill:#082432;}
	.st5{clip-path:url(#SVGID_12_);fill:#082432;}
	.st6{clip-path:url(#SVGID_14_);fill:#082432;}
	.st7{clip-path:url(#SVGID_16_);fill:#082432;}
	.st8{clip-path:url(#SVGID_18_);fill:#082432;}
	.st9{clip-path:url(#SVGID_20_);fill:#082432;}
	.st10{clip-path:url(#SVGID_22_);fill:#082432;}
	.st11{clip-path:url(#SVGID_24_);fill:#082432;}
	.st12{clip-path:url(#SVGID_26_);fill:#082432;}
	.st13{clip-path:url(#SVGID_28_);fill:#082432;}
	.st14{clip-path:url(#SVGID_30_);fill:#082432;}
	.st15{clip-path:url(#SVGID_32_);fill:#082432;}
	.st16{clip-path:url(#SVGID_34_);fill:#082432;}
	.st17{clip-path:url(#SVGID_36_);fill:#082432;}
	.st18{clip-path:url(#SVGID_38_);fill:#082432;}
	.st19{clip-path:url(#SVGID_40_);fill:#082432;}
	.st20{clip-path:url(#SVGID_42_);fill:#082432;}
	.st21{clip-path:url(#SVGID_44_);fill:#082432;}
	.st22{clip-path:url(#SVGID_46_);fill:#082432;}
</style>
<g>
	<g>
		<defs>
			<rect id="SVGID_1_" width="782.2" height="9"/>
		</defs>
		<clipPath id="SVGID_2_">
			<use xlink:href="#SVGID_1_"  style="overflow:visible;"/>
		</clipPath>
		<path class="st0" d="M386.6,5.4c0,0-0.6,0.4-0.2,1s1.1,0.6,1.6,0.1c0.4-0.5,0.3-1.5-0.7-1.8c-0.9-0.3-1.9,0.4-2.8,1.1
			c-1,0.7-2.3,0.6-2.9-0.3c-0.9-1.3,0.3-2.5,0.8-2.7s2-1.1,4.3,0.3s3,2.7,4.3,4c0.9,0.8,1.5,1.3,2.2,1.5c1.1,0.5,2.1,0.4,2.9,0.2
			c0,0-1.6,0.1-3.3-1.2c-1.4-1.1-2.8-2.6-3.9-3.5c-1-0.9-2.7-1.8-4.6-2.1c-1.9-0.2-3.1,0.5-3.6,1.1c-0.4,0.6-0.8,1.7,0,2.7
			c0.9,1.1,2.4,1.1,3.3,0.5c0.4-0.2,0.9-0.7,1.4-1.1c0.4-0.2,0.7-0.4,0.9-0.5c0.6-0.2,1.4,0.1,1.5,0.8c0,0.3-0.2,0.6-0.5,0.7
			c-0.2,0-0.5-0.1-0.6-0.2C386.3,5.8,386.6,5.4,386.6,5.4"/>
	</g>
	<g>
		<defs>
			<rect id="SVGID_3_" width="782.2" height="9"/>
		</defs>
		<clipPath id="SVGID_4_">
			<use xlink:href="#SVGID_3_"  style="overflow:visible;"/>
		</clipPath>
		<path class="st1" d="M381.4,1.7c0,0,1.3-1.2,3.4-1.1c2.5,0.1,4.6,1.3,6.3,2.9c1.1,1,2.6,2.6,4.1,3.7c0.9,0.6,1.8,1,2.6,1.1
			c0,0-1.6,0.4-3.6-1c-2.3-1.6-3.5-3.2-5-4.3c-1.2-0.9-3.1-2.1-5.5-2C382.1,1.2,381.4,1.7,381.4,1.7"/>
	</g>
	<g>
		<defs>
			<rect id="SVGID_5_" width="782.2" height="9"/>
		</defs>
		<clipPath id="SVGID_6_">
			<use xlink:href="#SVGID_5_"  style="overflow:visible;"/>
		</clipPath>
		<path class="st2" d="M396.4,3.6c0,0,0.6-0.4,0.2-1C396.3,2,395.5,2,395,2.5s-0.3,1.5,0.7,1.8c0.9,0.3,1.9-0.4,2.8-1.1
			c1-0.7,2.3-0.6,2.9,0.3c0.9,1.3-0.3,2.5-0.8,2.7s-2,1.1-4.3-0.3s-3-2.7-4.3-4c-0.9-0.8-1.5-1.3-2.2-1.5c-1.1-0.5-2.1-0.4-2.9-0.2
			c0,0,1.6-0.1,3.3,1.2c1.4,1.1,2.8,2.6,3.9,3.5c1,0.9,2.7,1.8,4.6,2.1c1.9,0.2,3.1-0.5,3.6-1.1c0.4-0.6,0.8-1.7,0-2.7
			c-0.9-1.1-2.4-1.1-3.3-0.5c-0.4,0.2-0.9,0.7-1.4,1.1c-0.4,0.2-0.7,0.4-0.9,0.5c-0.6,0.2-1.4-0.1-1.5-0.8c0-0.3,0.2-0.6,0.5-0.7
			c0.2,0,0.5,0.1,0.6,0.2C396.7,3.2,396.4,3.6,396.4,3.6"/>
	</g>
	<g>
		<defs>
			<rect id="SVGID_7_" width="782.2" height="9"/>
		</defs>
		<clipPath id="SVGID_8_">
			<use xlink:href="#SVGID_7_"  style="overflow:visible;"/>
		</clipPath>
		<path class="st3" d="M774,4.4H406.7L403.9,4c0.1,0.4,0.1,0.9-0.1,1.2l2.9-0.5H774l1.8-0.2L774,4.4z"/>
	</g>
	<g>
		<defs>
			<rect id="SVGID_9_" width="782.2" height="9"/>
		</defs>
		<clipPath id="SVGID_10_">
			<use xlink:href="#SVGID_9_"  style="overflow:visible;"/>
		</clipPath>
		<path class="st4" d="M778.6,5.2V4c0-0.1-0.1-0.2-0.2-0.2l0,0c-0.1,0-0.2,0.1-0.2,0.2v1.2c0,0.1,0.1,0.2,0.2,0.2l0,0
			C778.5,5.3,778.6,5.3,778.6,5.2"/>
	</g>
	<g>
		<defs>
			<rect id="SVGID_11_" width="782.2" height="9"/>
		</defs>
		<clipPath id="SVGID_12_">
			<use xlink:href="#SVGID_11_"  style="overflow:visible;"/>
		</clipPath>
		<path class="st5" d="M778.9,5.3c0.1,0,0.2-0.1,0.2-0.2V3.9c0-0.1-0.1-0.2-0.2-0.2l0,0c-0.1,0-0.2,0.1-0.2,0.2v1.2
			C778.8,5.3,778.8,5.3,778.9,5.3L778.9,5.3z"/>
	</g>
	<g>
		<defs>
			<rect id="SVGID_13_" width="782.2" height="9"/>
		</defs>
		<clipPath id="SVGID_14_">
			<use xlink:href="#SVGID_13_"  style="overflow:visible;"/>
		</clipPath>
		<path class="st6" d="M777.2,5c0.5-0.3,0.9-0.3,0.9-0.3V4.5V4.3c0,0-0.4,0-0.9-0.3s-0.6-0.9-0.6-0.9s-0.1,0.5,0.1,0.9
			c0.1,0.3,0.2,0.4,0.3,0.4c0,0-0.2,0.2-0.3,0.4c-0.2,0.4-0.1,0.9-0.1,0.9S776.7,5.4,777.2,5"/>
	</g>
	<g>
		<defs>
			<rect id="SVGID_15_" width="782.2" height="9"/>
		</defs>
		<clipPath id="SVGID_16_">
			<use xlink:href="#SVGID_15_"  style="overflow:visible;"/>
		</clipPath>
		<path class="st7" d="M776.9,4.6c-0.1,0-0.2-0.1-0.3-0.2c-0.2-0.1-0.4-0.2-0.5-0.1c-0.1,0-0.3,0.2-0.4,0.3c0.1,0.1,0.3,0.2,0.4,0.3
			c0.1,0.1,0.3,0,0.5-0.1C776.7,4.7,776.8,4.6,776.9,4.6"/>
	</g>
	<g>
		<defs>
			<rect id="SVGID_17_" width="782.2" height="9"/>
		</defs>
		<clipPath id="SVGID_18_">
			<use xlink:href="#SVGID_17_"  style="overflow:visible;"/>
		</clipPath>
		<path class="st8" d="M778.2,5.9c0-0.4-0.5-0.5-0.5-0.5s0.1,0.1,0.1,0.3c0,0.2-0.1,0.3-0.3,0.4c-0.2,0-0.5-0.1-0.4-0.5
			c0.1-0.3,0.5-0.5,0.7-0.6c0.1,0,0.1,0,0.2,0V4.9l0,0c-0.5,0.1-1,0.4-1.1,0.9c0,0.3,0,0.5,0.2,0.6c0.1,0.1,0.3,0.2,0.4,0.2
			C777.9,6.5,778.2,6.3,778.2,5.9"/>
	</g>
	<g>
		<defs>
			<rect id="SVGID_19_" width="782.2" height="9"/>
		</defs>
		<clipPath id="SVGID_20_">
			<use xlink:href="#SVGID_19_"  style="overflow:visible;"/>
		</clipPath>
		<path class="st9" d="M780,7c0.5-0.4,0.5-1.3-0.1-1.8c-0.2-0.2-0.4-0.3-0.6-0.4v0.3l0,0c0.5,0.3,0.6,0.7,0.6,1s-0.4,0.5-0.7,0.3
			s-0.1-0.6-0.1-0.6s-0.2,0-0.4,0.2c-0.1,0.1-0.2,0.5,0,0.8C778.9,7.2,779.4,7.4,780,7"/>
	</g>
	<g>
		<defs>
			<rect id="SVGID_21_" width="782.2" height="9"/>
		</defs>
		<clipPath id="SVGID_22_">
			<use xlink:href="#SVGID_21_"  style="overflow:visible;"/>
		</clipPath>
		<path class="st10" d="M777,3.5c0.1,0.4,0.6,0.8,1.1,0.9l0,0V4.3c-0.1,0-0.1,0-0.2,0c-0.2-0.1-0.6-0.2-0.7-0.6
			c-0.1-0.4,0.2-0.5,0.4-0.5s0.3,0.2,0.3,0.4c0,0.2-0.1,0.3-0.1,0.3s0.4-0.1,0.5-0.5c0-0.3-0.3-0.6-0.6-0.5c-0.2,0-0.3,0.1-0.4,0.2
			C777,3,776.9,3.3,777,3.5"/>
	</g>
	<g>
		<defs>
			<rect id="SVGID_23_" width="782.2" height="9"/>
		</defs>
		<clipPath id="SVGID_24_">
			<use xlink:href="#SVGID_23_"  style="overflow:visible;"/>
		</clipPath>
		<path class="st11" d="M779.1,3.3c0,0-0.1-0.4,0.1-0.6c0.3-0.2,0.6,0,0.7,0.3c0,0.3-0.1,0.7-0.6,1l0,0v0.3c0.2-0.1,0.4-0.2,0.6-0.4
			c0.6-0.5,0.6-1.4,0.1-1.8s-1.1-0.2-1.3,0.2c-0.2,0.3-0.1,0.7,0,0.8C778.9,3.3,779.1,3.3,779.1,3.3"/>
	</g>
	<g>
		<defs>
			<rect id="SVGID_25_" width="782.2" height="9"/>
		</defs>
		<clipPath id="SVGID_26_">
			<use xlink:href="#SVGID_25_"  style="overflow:visible;"/>
		</clipPath>
		<path class="st12" d="M779.7,4.6c0.6,0.4,0.9,0.9,0.9,0.9c0.1-0.2,0.3-0.5,1-0.6c0.3-0.1,0.5-0.2,0.6-0.3
			c-0.1-0.1-0.3-0.2-0.6-0.3c-0.7-0.2-0.8-0.5-1-0.6C780.6,3.6,780.3,4.2,779.7,4.6"/>
	</g>
	<g>
		<defs>
			<rect id="SVGID_27_" width="782.2" height="9"/>
		</defs>
		<clipPath id="SVGID_28_">
			<use xlink:href="#SVGID_27_"  style="overflow:visible;"/>
		</clipPath>
		<path class="st13" d="M8.2,4.4h368.3l2.8-0.4c-0.1,0.4-0.1,0.9,0.1,1.2l-2.9-0.5H8.2L6.4,4.5L8.2,4.4z"/>
	</g>
	<g>
		<defs>
			<rect id="SVGID_29_" width="782.2" height="9"/>
		</defs>
		<clipPath id="SVGID_30_">
			<use xlink:href="#SVGID_29_"  style="overflow:visible;"/>
		</clipPath>
		<path class="st14" d="M3.6,5.1V3.9c0-0.1,0.1-0.2,0.2-0.2l0,0C3.9,3.7,4,3.8,4,3.9v1.2c0,0.1-0.1,0.2-0.2,0.2l0,0
			C3.7,5.3,3.6,5.2,3.6,5.1"/>
	</g>
	<g>
		<defs>
			<rect id="SVGID_31_" width="782.2" height="9"/>
		</defs>
		<clipPath id="SVGID_32_">
			<use xlink:href="#SVGID_31_"  style="overflow:visible;"/>
		</clipPath>
		<path class="st15" d="M3.3,5.3c-0.1,0-0.2-0.1-0.2-0.2V3.9c0-0.1,0.1-0.2,0.2-0.2l0,0c0.1,0,0.2,0.1,0.2,0.2v1.2
			C3.4,5.2,3.4,5.3,3.3,5.3L3.3,5.3z"/>
	</g>
	<g>
		<defs>
			<rect id="SVGID_33_" width="782.2" height="9"/>
		</defs>
		<clipPath id="SVGID_34_">
			<use xlink:href="#SVGID_33_"  style="overflow:visible;"/>
		</clipPath>
		<path class="st16" d="M5,5C4.5,4.7,4.1,4.7,4.1,4.7V4.5V4.3c0,0,0.4,0,0.9-0.3s0.6-0.9,0.6-0.9S5.7,3.6,5.5,4
			C5.4,4.3,5.3,4.4,5.2,4.4c0,0,0.2,0.2,0.3,0.4c0.2,0.4,0.1,0.9,0.1,0.9S5.5,5.3,5,5"/>
	</g>
	<g>
		<defs>
			<rect id="SVGID_35_" width="782.2" height="9"/>
		</defs>
		<clipPath id="SVGID_36_">
			<use xlink:href="#SVGID_35_"  style="overflow:visible;"/>
		</clipPath>
		<path class="st17" d="M5.3,4.5c0.1,0,0.2-0.1,0.3-0.2C5.8,4.2,6,4.1,6.1,4.2c0.1,0,0.3,0.2,0.4,0.3C6.4,4.6,6.2,4.7,6.1,4.8
			C6,4.9,5.8,4.8,5.6,4.7C5.5,4.6,5.4,4.6,5.3,4.5"/>
	</g>
	<g>
		<defs>
			<rect id="SVGID_37_" width="782.2" height="9"/>
		</defs>
		<clipPath id="SVGID_38_">
			<use xlink:href="#SVGID_37_"  style="overflow:visible;"/>
		</clipPath>
		<path class="st18" d="M4,5.9c0-0.4,0.5-0.5,0.5-0.5S4.4,5.5,4.4,5.7c0,0.2,0.1,0.3,0.3,0.4c0.2,0,0.5-0.1,0.4-0.5
			C5,5.3,4.6,5.1,4.4,5C4.3,5,4.3,5,4.2,5V4.9l0,0c0.5,0.1,1,0.4,1.1,0.8c0,0.3,0,0.5-0.2,0.7C5,6.5,4.8,6.6,4.7,6.6
			C4.3,6.4,4,6.2,4,5.9"/>
	</g>
	<g>
		<defs>
			<rect id="SVGID_39_" width="782.2" height="9"/>
		</defs>
		<clipPath id="SVGID_40_">
			<use xlink:href="#SVGID_39_"  style="overflow:visible;"/>
		</clipPath>
		<path class="st19" d="M2.2,7C1.7,6.6,1.7,5.7,2.3,5.2C2.5,5,2.7,4.9,2.9,4.8v0.3l0,0c-0.5,0.3-0.6,0.7-0.6,1S2.7,6.6,3,6.4
			s0.1-0.6,0.1-0.6s0.2,0,0.4,0.2c0.1,0.1,0.2,0.5,0,0.8C3.3,7.2,2.8,7.4,2.2,7"/>
	</g>
	<g>
		<defs>
			<rect id="SVGID_41_" width="782.2" height="9"/>
		</defs>
		<clipPath id="SVGID_42_">
			<use xlink:href="#SVGID_41_"  style="overflow:visible;"/>
		</clipPath>
		<path class="st20" d="M5.2,3.5C5.1,3.9,4.6,4.3,4.1,4.4l0,0V4.3c0.1,0,0.1,0,0.2,0C4.5,4.2,4.9,4.1,5,3.7c0.1-0.4-0.2-0.5-0.4-0.5
			S4.3,3.4,4.3,3.6c0,0.2,0.1,0.3,0.1,0.3S4,3.8,3.9,3.4c0-0.3,0.3-0.6,0.6-0.5c0.2,0,0.3,0.1,0.4,0.2C5.2,3,5.3,3.2,5.2,3.5"/>
	</g>
	<g>
		<defs>
			<rect id="SVGID_43_" width="782.2" height="9"/>
		</defs>
		<clipPath id="SVGID_44_">
			<use xlink:href="#SVGID_43_"  style="overflow:visible;"/>
		</clipPath>
		<path class="st21" d="M3.1,3.2c0,0,0.1-0.4-0.1-0.6c-0.3-0.2-0.6,0-0.7,0.3c0,0.3,0.1,0.7,0.6,1l0,0v0.3C2.7,4.1,2.5,4,2.3,3.8
			C1.7,3.3,1.7,2.4,2.2,2s1.1-0.2,1.3,0.2c0.2,0.3,0.1,0.7,0,0.8C3.3,3.3,3.1,3.2,3.1,3.2"/>
	</g>
	<g>
		<defs>
			<rect id="SVGID_45_" width="782.2" height="9"/>
		</defs>
		<clipPath id="SVGID_46_">
			<use xlink:href="#SVGID_45_"  style="overflow:visible;"/>
		</clipPath>
		<path class="st22" d="M2.5,4.5C1.9,4.9,1.6,5.4,1.6,5.4c-0.1-0.2-0.3-0.5-1-0.6C0.3,4.7,0.1,4.6,0,4.5c0.1-0.1,0.3-0.2,0.6-0.3
			c0.7-0.2,0.8-0.5,1-0.6C1.6,3.6,1.9,4.2,2.5,4.5"/>
	</g>
</g>
</svg>
