<svg id="Layer_1" data-name="Layer 1" xmlns="http://www.w3.org/2000/svg" xmlns:xlink="http://www.w3.org/1999/xlink" viewBox="0 0 219.7 231.04"><defs><style>.cls-1{fill:none;}.cls-2{clip-path:url(#clip-path);}.cls-3{fill:#f7f5db;}</style><clipPath id="clip-path"><rect class="cls-1" width="219.7" height="231.04"/></clipPath></defs><title>flower-left-bot</title><g class="cls-2"><path class="cls-3" d="M41.51,52.84c-0.82.22-1.59,0.41-2.35,0.62a4,4,0,0,0-2.76,2.18,14.3,14.3,0,0,0-.81,7.74,10.48,10.48,0,0,0,2.72,6.39,42.7,42.7,0,0,1,3.05,3.82c0.46-.67.8-1.26,1.23-1.78,0.75-.91,1.57-1.77,2.34-2.67,0.95-1.12,1.93-2.22,2.79-3.41a49.62,49.62,0,0,0,2.87-4.36,10.73,10.73,0,0,0,1.19-3,11,11,0,0,0,0-2.61,1.79,1.79,0,0,1,0-.68c0.8-1.91-.83-3-1.56-4.32a1.29,1.29,0,0,0-.88.1c-0.2.92-1,1-1.65,1.1a9.09,9.09,0,0,1-2.55.23c-1.27-.09-1.64.8-2,1.68A20.07,20.07,0,0,0,42.41,60a11.54,11.54,0,0,1-.54,2.55,1.47,1.47,0,0,1-.62.43A1.19,1.19,0,0,1,41,62.36a3,3,0,0,0-.24-2.68,0.9,0.9,0,0,1,0-.49c0.24-2.08.47-4.16,0.73-6.35m6.66-10.71c1.68,2.33,2.1,3.23,2.13,4.63,0,0.85.1,1.63,1.19,1.75a0.75,0.75,0,0,1,.41.24c2.15,2.3,5.05,2.62,7.83,2.37,2.58-.22,5.08-1.22,7.61-1.92a0.86,0.86,0,0,0,.32-0.74c-0.33-1.56-.26-3.24-1.48-4.54A21.86,21.86,0,0,0,64,41.28a30.24,30.24,0,0,0-4.55-2.76A7.07,7.07,0,0,0,55,37.47a2.09,2.09,0,0,0-1.12,1,1.1,1.1,0,0,0,.16,1,2.55,2.55,0,0,0,1.08.8c0.78,0.28.52,0.8,0.27,1.18C55,42,54.47,42.6,53.58,42c-0.52-.32-1-0.65-1.57-0.95a1.69,1.69,0,0,0-.77-0.34,3.58,3.58,0,0,0-3.07,1.37m-8.9,46c-3.48.5-4.61,3.74-6.71,5.73-2.3-.76-4.55-1.52-6.93-0.9l0,0.33,3.61,1c-2.71-.06-5.26-0.12-7.81-0.16a1.28,1.28,0,0,0-.43.4l7.46,1.31,0.07-.29,2.25,1.07a7.49,7.49,0,0,1-3.31,3.28A32.57,32.57,0,0,1,23,101.72l0.23,0.35c-1.38.23-2.78,0.5-4.18,0.67a12,12,0,0,1-2.72.07c-1.61-.18-3.22-0.44-4.82-0.76-1.14-.23-2.26-0.6-3.38-0.91l0.06-.33c1.18-.24,2.4-0.4,3.54-0.75A31.47,31.47,0,0,0,15,98.67a5.05,5.05,0,0,0,2.12-1.4A2.18,2.18,0,0,1,18.57,97c1.49,0,3,.11,4.45.22,2.15,0.16,4.31.35,6.45,0.53,0-.81-6.13-2.1-10.2-2,2.29-2,4.54-4.11,6.85-6.1a16.64,16.64,0,0,1,6.27-3.45,2.91,2.91,0,0,1,1.83.33,18.23,18.23,0,0,1,2.17,1.41l0.27-.17-0.94-2c0.95-.51,3.48,1.18,3.55,2.42M62,8.59a2.68,2.68,0,0,1-1-.42A1.89,1.89,0,0,1,61,7.34a2.14,2.14,0,0,1,1,.13A2.44,2.44,0,0,1,62,8.59m0.46-3a12.29,12.29,0,0,1,1.4.75,0.75,0.75,0,0,1,0,.66,0.61,0.61,0,0,1-.59,0,13,13,0,0,1-1-1.06l0.28-.38M58.3,8.77c0.64-.34,2.22.25,2.28,0.79a0.68,0.68,0,0,1-.26.57,0.76,0.76,0,0,1-.68,0A18.86,18.86,0,0,1,58.3,8.77m1.19,3.1c-1.88.54-1.86-1.76-3.24-1.75a0.71,0.71,0,0,1,1.31-.25c0.54,0.73,1.76.87,1.93,2m-0.58,1.49a1.36,1.36,0,0,1-.3.6,1.13,1.13,0,0,1-.88.17c-1.37-.87-2.7-1.79-4-2.73a1,1,0,0,1-.14-0.52,1,1,0,0,1,.53-0.07c1.08,0.67,2.14,1.38,3.23,2a8.11,8.11,0,0,0,1.22.5h0.37m5.75,5.54A8.42,8.42,0,0,1,64.88,18a20.18,20.18,0,0,0,1.33-6.09,7.52,7.52,0,0,1,.18-0.94,8.37,8.37,0,0,0,.38-2.19,9.66,9.66,0,0,1,1-5.43,2.57,2.57,0,0,0-.42-0.21,8.37,8.37,0,0,0-4.61.43A36.74,36.74,0,0,0,57.29,5.9a8.59,8.59,0,0,0-2,1c-1.49,1.26-2.91,2.6-4.3,4-0.72.7-.48,1.1,0.44,1.53,2.38,1.09,4.71,2.28,7,3.47a2.3,2.3,0,0,1,.56.84L58.72,17l-7.15-3.93-0.29.39a7.93,7.93,0,0,0,1.32,1.18c1.7,1,3.44,1.83,5.16,2.74a3.31,3.31,0,0,0,1.35.71,11.29,11.29,0,0,1,5.56.79m4,24.17-0.17.4a3.68,3.68,0,0,0,1.07.69c0.87,0.2,1.78.24,2.67,0.39a1.25,1.25,0,0,1,.44.39,1.3,1.3,0,0,1-.47.4,5.25,5.25,0,0,1-1.09,0l-2.14-.16,0.51,1.69L71.87,47,72,47.28a5,5,0,0,1-.9.59,7,7,0,0,1-1.19.26c0.26,1.83-.06,2.4-1.71,2.86-2.43.68-4.85,1.42-7.32,1.88a29.51,29.51,0,0,1-4.77.14s0,0.17,0,.27c1.39,0.32,2.71.72,4.06,0.9a49.39,49.39,0,0,0,6.22.5c1.62,0,3.25-.63,4.84-0.5,2.11,0.18,4.32-.22,6.35.73a3.53,3.53,0,0,0,.86.19c1.21-3.31.14-6.26-.7-9.1-0.54-1.83-2-3.36-2.93-5.11a7.64,7.64,0,0,0-6-4.14,20.9,20.9,0,0,0-3.59-.47,9,9,0,0,0-2.39.67l0.06,0.35c0.84,0.06,1.68.15,2.51,0.18a27.93,27.93,0,0,1,7.29,1.68c0.46,0.15.74,0.41,0.49,0.79a1.13,1.13,0,0,1-1,.17c-1.4-.39-2.75-0.93-4.16-1.26a34.18,34.18,0,0,0-3.56-.47l-0.14.43a14.14,14.14,0,0,0,2.24,1c1.25,0.33,2.57.41,3.81,0.74,0.87,0.23,2,.07,2.52,1.08l-0.37.54,0.28,1.26a5.43,5.43,0,0,1-1,.06c-1.1-.12-2.19-0.29-3.28-0.44M63.26,27.56a1,1,0,0,1-1.13-1.12,10.07,10.07,0,0,1,0-1.59,2,2,0,0,1,.41-0.67,1.71,1.71,0,0,1,.59.62c0.09,0.91.07,1.83,0.09,2.76m2.27,1.61h0a2,2,0,0,0,.32-0.26A0.72,0.72,0,0,0,66,28.57c0.19-1.87.46-3.74-.37-5.55-0.28-.62-0.25-0.63-0.89-0.55,0,1.54,0,3.06,0,4.58a2.15,2.15,0,0,0,.74,2.12m-4.2-2.22a6.81,6.81,0,0,0-5.07,1.65,2.39,2.39,0,0,0-1,2.28,3.73,3.73,0,0,0,.62,1.82,7.27,7.27,0,0,0,4.67,2.73,6.57,6.57,0,0,0,3.7-1c1.23-.6,2.17-1.21,2.27-2.85,0.14-2.34.65-4.65,0.92-7A1.53,1.53,0,0,0,67,23.36c-1-.8-2.12-1.48-3.19-2.21a5.65,5.65,0,0,0-6.32-.43c-2,1.1-4.24,2-4.89,4.57l-0.13.15a1.93,1.93,0,0,0,.13,2.68,1.47,1.47,0,0,0,1.24.36,27.55,27.55,0,0,0,2.63-2.11,6.49,6.49,0,0,1,4.12-1.49,1.18,1.18,0,0,1,.78.74,4,4,0,0,1-.05,1.33m3.72,39L64,66.89a2.11,2.11,0,0,0,1.93,1A1.84,1.84,0,0,1,67.43,69c0.21,0.35.32,0.66,0.67,0.48a1,1,0,0,0,.5-0.82,1.8,1.8,0,0,0-1.18-1.36c0.76-1-.53-1.29-0.85-2a17.42,17.42,0,0,0-1.64-2.52c-0.57-.8-1.18-1.57-1.87-2.49,3,0.58,5.29,2.72,8.46,3.08-0.12.73-.31,1.59-0.38,2.46a11.88,11.88,0,0,0,0,3,9.9,9.9,0,0,1-.38,4.75,1.54,1.54,0,0,1-1.22.19,38,38,0,0,1-5.11-1.74,54.5,54.5,0,0,1-6.65-3.59,27.46,27.46,0,0,1-5.52-5.12,0.76,0.76,0,0,1-.2-0.6c0.43-1.07.91-2.11,1.27-2.94a21,21,0,0,0,2.27.39c1.23,0.08,2.47,0,3.68.12a13,13,0,0,1,2.41.76l-0.1.32c-1.18-.14-2.36-0.32-3.54-0.41-0.72-.06-0.88.15-1,1,1.86,0.36,3.73.67,5.58,1.1a1.78,1.78,0,0,1,1,1.08c-0.57-.16-1.13-0.35-1.71-0.46-0.74-.13-1.29,0-1,1.06L65.06,66M39,28.16c-0.71,1.24-1.38,2.45-2.11,3.63a0.83,0.83,0,0,1-.78.19,10.7,10.7,0,0,0-6.8-.37,2.5,2.5,0,0,0-.85.86,2.57,2.57,0,0,0,1,.62,21.91,21.91,0,0,1,2.48,0,16.51,16.51,0,0,1,4,1.24,2.92,2.92,0,0,1,.94,1.87A3.45,3.45,0,0,1,36.61,38a2.21,2.21,0,0,1-1,1.17,5.67,5.67,0,0,1-3.36.69A11.89,11.89,0,0,1,28.3,39c-1.8-.93-2.86-2.64-4.23-4a12.27,12.27,0,0,1-1-1.31A1,1,0,0,1,23,32.25c1.2-1.2,2.34-2.46,3.54-3.66a8.29,8.29,0,0,1,7-2.69A10.51,10.51,0,0,1,39,28.16M32,54.55c2.44-.61,4.35-2.14,6.68-2.76a41.73,41.73,0,0,1,8.52-1.58,1.51,1.51,0,0,0,1.05-.77A3.58,3.58,0,0,0,48,45.93a25.24,25.24,0,0,0-2.72-3.14,0.76,0.76,0,0,0-.69,0,4.53,4.53,0,0,0-1.34,1c-1.42,1.78-2.75,3.63-4.18,5.4a2.41,2.41,0,0,1-1.14.32,2.23,2.23,0,0,1-.18-1.09,11.71,11.71,0,0,1,1.3-2c0.61-.79,1.29-1.54,2.1-2.49-1.43-.84-2.75-1.73-4.17-2.4a2.24,2.24,0,0,0-2,0,7.79,7.79,0,0,0-2.52,3.43c-0.34,1.18-.6,2.38-0.83,3.59a15,15,0,0,0,.25,6m-8.54,4.83a2.26,2.26,0,0,0,2-.85,46.9,46.9,0,0,1,4.23-4.17c0.12,0.78.22,1.33,0.3,1.9,0.15,1.05.69,1.26,1.62,0.69s2.06-1.15,3.09-1.72L35,55.48a6.25,6.25,0,0,1-.35,1.1c0.55,5.69-5.89,11.95-19.49,11.2C15.48,55.61,22.42,51,28.25,52.57a4.25,4.25,0,0,1,.94.05,0.48,0.48,0,0,1,.23.35,0.39,0.39,0,0,1-.17.31,11.46,11.46,0,0,0-3.89,3.22c-0.59.85-1.27,1.64-1.9,2.46a1,1,0,0,0-.06.42m64.35-35.8c-1.2.57-2.28,1.07-3.34,1.61a23.12,23.12,0,0,1-5.34,1.61,4,4,0,0,0-2.56,1.41,4.36,4.36,0,0,1-1.94.85,38.71,38.71,0,0,0-3.43-5.37,37.3,37.3,0,0,0-4.84-4c1.75-1.34,4-1.3,6.07-1.52a27.25,27.25,0,0,1,4.83,0,8.75,8.75,0,0,1,2.08.83c1,0.38,2.15.62,3.15,1.08a14.81,14.81,0,0,1,5.32,3.53M19.37,37.34c0.12,1.37-.22,2.19-1,2.44-0.45-1.93-.25-2.47,1-2.44M11.72,44c1.46,0.62,2.75,1.09,4,1.7a39.94,39.94,0,0,0,4.46,1.85,13.92,13.92,0,0,1,4,1.79c1.37,1.07,3,1,4.43,1.4a1,1,0,0,0,.88-0.39c0.13-1.05,1-2.12,0-3.18a3.23,3.23,0,0,1-.6-1.21c-0.47-1.41-.88-2.84-1.36-4.24a4.83,4.83,0,0,0-.7-1l-0.32.16,1.2,4.54-1,.29a11.3,11.3,0,0,1-.73-1.5c-0.45-1.52-.82-3.06-1.3-4.57a5.14,5.14,0,0,0-.85-1.23c-0.15,1.25-.06,2.38-1.06,3.21l-0.92-4.51-0.27.05a18.44,18.44,0,0,1-.3,2.51,2.48,2.48,0,0,1-.88.81,3.71,3.71,0,0,1-.22-1c0.05-1.12.16-2.24,0.25-3.37L20.06,36a55.9,55.9,0,0,0-8.33,8M72.2,15.87l0,0.48a10.5,10.5,0,0,1,1.56-.13,23.19,23.19,0,0,1,4.84.43c1.53,0.43,2.45.24,3-1.25l0.13-.15,3.87-4.56a5.47,5.47,0,0,1,.8-1c0.82-.6.89-1.12,0-1.55A15,15,0,0,0,82.6,6.81c-3.68-.58-7.4-1.08-11.22.3l2.33,2.42-0.17.37a2.74,2.74,0,0,1-1.25-.2,5.87,5.87,0,0,1-1.08-1.49c-0.53-.87-0.85-1-1.79-0.41l0,0.19c0.84,1,1.7,1.95,2.5,3a2,2,0,0,1,.16.84,1.52,1.52,0,0,1-.8,0c-0.57-.62-1.06-1.32-1.6-2-0.32-.38-0.68-0.72-1-1.07l-0.36.19a6.18,6.18,0,0,0,.67,2c1,1.21,2.13,2.28,3.22,3.41a8.76,8.76,0,0,1,1-.56c1.79-.72,3.11-2.59,5.35-2.18a6.59,6.59,0,0,1,.87.28,3.76,3.76,0,0,1-.8.84c-0.38.21-.89,0.18-1.28,0.38-1.74.89-3.45,1.83-5.17,2.75m-22.4-7,0.41,0.06,3.4-3.27-0.53-.44a31.76,31.76,0,0,0-4.73-3.08,14.79,14.79,0,0,0-5.28-2c-0.93-.12-1.89,0-2.82-0.15A1.52,1.52,0,0,0,38.4,1.09c-0.88,2.51-1.78,5-2.59,7.56a8.54,8.54,0,0,0-.33,2.42,3.62,3.62,0,0,0,.32,1.88c0.35,0.57,2.22.39,2.74-.12a44,44,0,0,1,4.21-4,62.85,62.85,0,0,1,6.07-3.68c0.76-.44,1.28-0.08,1.24.81s-0.18,1.94-.28,2.9m1.58,29.4a8.24,8.24,0,0,1,.1-1.9c0.42-1.42,1-2.8,1.45-4.21,0.17-.49.42-1-0.3-1.24l-0.83,2.24-0.33-.1q0.12-1.49.23-3l-0.38,0-0.66,2.07H50.4c-0.1-.86-0.17-1.73-0.32-2.58-0.45-2.41-.46-2.4-0.87-2.58,0.6,1.91.16,3.86-.69,3.7-0.07-.92-0.11-1.8-0.23-2.67a1.07,1.07,0,0,0-1.61-.93,8.51,8.51,0,0,1-4.62,1,1.09,1.09,0,0,0-.85.44c-1,1.43-2.3,2.62-2.78,4.39a1.36,1.36,0,0,0,.19,1.48A24.19,24.19,0,0,0,41,36.48c1.81,1.38,3.67,2.7,5.53,4a1.66,1.66,0,0,0,.81,0l0-.32c-2-1-3.9-2-5-4,2.1,0.88,3.61,2.76,6,3.63l-2.49-2.59c1.74,0.08,2.53,2,4.48,1.81-0.33-.35-0.58-0.61-0.84-0.86s-0.49-.46-0.74-0.69l0.23-.27,2.44,1.12M43.06,20.42h0l0.16,0.28a2.32,2.32,0,0,0,.89-0.14,24.12,24.12,0,0,0,2.23-1.63,1.86,1.86,0,0,0,.29-0.79,1.91,1.91,0,0,0-.88-0.26c-0.93.81-1.8,1.69-2.69,2.54m-2.2-.1h0c1.08-.07,5.92-3.63,6-4.38-2.17-.41-6.1,2.39-6,4.38m9.87,4.41c-2.37.6-4.35,0.73-5.11-2.05,0.4-.5,1.27-1,0.89-1.89a1.8,1.8,0,0,0-.77-0.54c-0.72,1-1.34,1.75-1.91,2.58a1,1,0,0,0-.2.83c0.39,0.73.88,1.4,1.48,2.32a8.83,8.83,0,0,1-1.89.16,5.18,5.18,0,0,1-2.55-.68,7.26,7.26,0,0,1-1.88-4.08,12.54,12.54,0,0,1,.47-6.28,5.82,5.82,0,0,1,1.57-2.2,15,15,0,0,1,4.6-3.65L46,9c1.32-.53,2.32-0.35,1.85,1.57-2.35.09-4.69,0.28-6.31,2.6,2.29-.44,4.43-1.29,6.7-1.17l0.11,0.27a3.46,3.46,0,0,1-.73.44c-1.69.53-3.43,0.93-5.07,1.59a4.73,4.73,0,0,0-3.11,3.47,2.94,2.94,0,0,0,.06.7,26.43,26.43,0,0,1,7.84-4.39,4.18,4.18,0,0,1,1.22-.29,1,1,0,0,1,.77.42,21.5,21.5,0,0,0,1.43,3.58,5,5,0,0,1,.73,3.55,31,31,0,0,1-.74,3.39m-22.5.08,6.2-1c-1.83-1.11-3.51-2.11-5.18-3.14a5.92,5.92,0,0,1-.84-0.78l0.16-.33a4,4,0,0,1,1.55,0,26.16,26.16,0,0,1,3.43,2c1.32,0.92,2.55,2,3.93,3a12.79,12.79,0,0,0-.3-1.8,8.22,8.22,0,0,1,.13-6.25,0.88,0.88,0,0,0-.66-1.32c-1.93-.74-11.81-1-13.77.7l1,1.93c0.63,0.16,3.77,5,4.32,6.87M64.67,112.6l-1.09-2.39c0.84,0,1.51.75,2,1.89,0.07,0.15.15,0.31,0.24,0.45ZM20.52,92a2.45,2.45,0,0,1-3,1.34,25.6,25.6,0,0,0-3.73-.38,1.13,1.13,0,0,0-.47.33,1.44,1.44,0,0,0,.46.35c1.23,0.26,2.47.49,3.73,0.73-0.75,1.11-1,1.16-2.3.74A5.83,5.83,0,0,0,13.91,95c-1.18-.09-2.36-0.2-3.54-0.27a1.71,1.71,0,0,0-.61.22,1.81,1.81,0,0,0,.55.41c1.17,0.28,2.35.53,3.52,0.79a2.06,2.06,0,0,1,.94.4c-2.5.39-4.69-1-7.3-1.05,2-1.31,3.84-2.42,5.56-3.65,0.78-.56,1.35-1.41,2.08-2,0.42-.36,1-0.51,1.48-0.85A11.41,11.41,0,0,0,18,87.71c0.9-.92,1.72-1.93,2.67-2.79a36.33,36.33,0,0,1,3.53-2.81,1.75,1.75,0,0,1,1.31.06c1.74,0.61,3.45,1.29,5.18,1.94l0,0.37a3.55,3.55,0,0,1-.87-0.06c-1.51-.49-3-1-4.51-1.49a6,6,0,0,0-1.42-.09l-0.09.33,4.95,2.07c-1.46,1.12-2.85,2.18-4.23,3.25a15.45,15.45,0,0,0-2.26,1.89c-0.69.8-1.52,0.26-2.26,0.49a9.54,9.54,0,0,1-1.58.22c0,0.15,0,.31,0,0.46L20.52,92m6-65.94c-0.78.83-1.64,1.68-2.45,2.59s-1.71,2-2.6,3c-0.27.31-.67,0.49-1,0.78a1,1,0,0,0-.4.63,1.63,1.63,0,0,1-1.38,1.79A4.48,4.48,0,0,0,18,33.69a5.62,5.62,0,0,1-1.52-3.09A32.31,32.31,0,0,1,15.6,27a1.24,1.24,0,0,1,.63-1.63c1.49-.76,2.82-1.85,4.3-2.64A8.38,8.38,0,0,1,23.2,22a1.42,1.42,0,0,1,1,.51,4.34,4.34,0,0,1,1.35,2.28,3.72,3.72,0,0,0,1,1.23m43.78,8.2c0,0.09,0,.18,0,0.27,0.89,0.35,1.8.67,2.67,1.05,1.69,0.74,2.45,2.37,3.39,3.77A19.29,19.29,0,0,1,78,42.83a1,1,0,0,0,1.43.74l4.52-1.81c-1.92-2-3.62-3.74-5.3-5.51-0.36-.37-0.61-0.85-1-1.23a2.38,2.38,0,0,0-1.1-.93c-2.08,0-4.17.09-6.25,0.16m4.42-3.13a3.79,3.79,0,0,0,1.05,1,22.85,22.85,0,0,0,2.77.5c0.76,0.12,1.54.21,2.3,0.31l2.55,0.31-0.66-1.38a1.86,1.86,0,0,1,.4.15c0.77,0.59,1.55,1.18,2.31,1.79A19,19,0,0,1,90,38.72a3.53,3.53,0,0,0,1.15.79l0.22-.24a1.89,1.89,0,0,0-.17-0.6c-0.89-1.24-1.74-2.53-2.73-3.69-1.68-2-3.41-3.86-5.22-5.69a4,4,0,0,0-2.11-1,4.21,4.21,0,0,0-2.08.45,16.87,16.87,0,0,0-1.83,1.08c-0.74.42-1.51,0.81-2.48,1.33M47.25,76.55c1.38,0.77,2.47,1.34,2.64,3a24.69,24.69,0,0,0,1.24,5,14.87,14.87,0,0,1,.47,4.91q0,2-.08,4.07c0,0.31,0,.63,0,0.69L48.21,90c1.07-1.4.94-3,.36-4.83a35.17,35.17,0,0,1-1-5.35c-0.16-1-.2-2.07-0.32-3.28M84.61,29.05l-0.22.22c0.89,0.92,1.83,1.79,2.65,2.78C88.63,34,90.1,36,91.7,37.87c0.44,0.52.81,1.61,1.95,0.79-2.58-3.62-4.83-7.54-9-9.6M60.66,56.85l-0.14.25a3.37,3.37,0,0,0,.87.87c3.27,1.4,6.56,2.75,10.08,4.21A2.51,2.51,0,0,0,71.05,61c-2.72-1.18-5.46-2.3-8.21-3.42-0.72-.29-1.46-0.52-2.19-0.78m-7.1,41.73c-0.12-3,.71-5.93-1.15-8.54,0,2.82-1,5.75,1.15,8.54M83.28,34.4c0.12,0.14.17,0.23,0.24,0.3,1.57,1.62,3.12,3.26,4.73,4.84a3.54,3.54,0,0,0,1.27.48l0.25-.38-5.9-6.13-0.58.89M87.61,41c0.31-.69.55-1-0.17-1.46a12.41,12.41,0,0,1-2.2-1.94c-0.89-.88-1.74-1.82-2.62-2.71-0.58-.59-0.75-0.59-1.34-0.17,1.19,1.24,2.41,2.47,3.58,3.74a13,13,0,0,1,1,1.52l1.7,1M54.75,95.79c1.64,2.22.89,4.82,1.63,7.26-1.55-.93-2.31-4.58-1.63-7.26M9.52,98.89L2.08,96l-0.16.31a3.19,3.19,0,0,0,.71.61c1.66,0.74,3.31,1.49,5,2.13a1.55,1.55,0,0,0,1.89-.18M78.27,34.15a6.85,6.85,0,0,1,1.69.91c1.91,1.89,3.74,3.85,5.6,5.78l-0.1.29a2.12,2.12,0,0,1-.94-0.28c-0.88-1-1.65-2-2.53-3a29.27,29.27,0,0,0-2.2-2.11c-0.52-.47-1.09-0.88-1.64-1.32l0.13-.25M4.8,96.18c0,0.1,0,.21,0,0.31a15.83,15.83,0,0,0,6,1.58,2.24,2.24,0,0,0,.88-0.41,1.09,1.09,0,0,0-.25-0.29,18.89,18.89,0,0,1-5.75-1.32,2.1,2.1,0,0,0-.94.11M26.43,81c2.08,0.92,4.13,1.84,6.19,2.72a2.18,2.18,0,0,0,.83,0c-1.58-1.06-3.28-1.75-4.77-2.75a1.91,1.91,0,0,0-2.25,0M39,36.34l-0.18.12a4.14,4.14,0,0,0,.66,1.07,15.71,15.71,0,0,0,5,3.18,0.81,0.81,0,0,0,.5-0.07l-6-4.3M68.78,24.67c1,0.69.58,1.66,0.49,2.43-0.2,1.6-.58,3.18-0.92,4.76a2.85,2.85,0,0,1-.56.76l1-8m-9.49,82.62c-1.78-1.7-1.93-3.67-1.83-5.8,1.38,1.68,1.39,3.69,1.83,5.8M71.21,59.92a1.28,1.28,0,0,0-1.11-1.33c-1.32-.43-2.62-0.92-3.93-1.37-0.61-.21-1.24-0.36-1.86-0.54L64.23,57l7,3M6.14,99.25c-1.69.77-5-.74-6.14-2.51a2.65,2.65,0,0,1,.3-0.2c1.45,1.71,3.79,1.68,5.84,2.71M62.61,111c-2-1.33-2.17-3.23-2.39-5.31A11,11,0,0,1,62.61,111M53.76,57.27l0,0.33a1,1,0,0,0,.45.2c1.13-.27,2.26-0.54,3.38-0.88A0.87,0.87,0,0,0,58,56.29a1.11,1.11,0,0,0-.77-0.45c-1.16.42-2.29,0.94-3.43,1.42M40.95,83.86c-1.15-.18-2.12-0.31-3.08-0.52a1.53,1.53,0,0,1-.67-0.59c-0.31-.38-0.57-0.8-0.92-1.3a13,13,0,0,1,4.67,2.41M59.7,59l-5.09-.1,4-1.12,1,1.22M35.94,83.19l-5.24-2.88c2.39-.41,3.63,1.59,5.36,2.58l-0.12.3M69.51,32.14l0.14,0c0.41-1.13.85-2.26,1.23-3.4,0.25-.73.57-1.51-0.26-2.15l-1.11,5.53M39.71,85.88l3.35,1.52c-1.49.63-2.41,0.25-3.48-1.26l0.13-.26M39.46,39.16l4.08,2.15c-0.32.53-.84,0.64-1.66,0.06s-1.69-1.43-2.52-2.16Zm9.72,37c-2-1.14-2-1.14-1.74-1.85,1.88,0.51,2,.66,1.74,1.85M49,71.13c-1.18-.76-1.18-0.76-1-2,1.42,0.48,1.57.79,1,2M29.45,41.72c0,1.3,1.54,2.17.63,3.72l-1-3.59,0.39-.13M72.19,29.45c0,0.37,0,.75,0,1.12a3.64,3.64,0,0,0-.15.86c0.21,1-.34.85-1,0.76l0.92-2.73h0.26M67.34,41.12l3.61,0.75c-1.25.47-3.1,0.14-3.61-.75m3.58,16.39-2.41-.76,0-.25a9,9,0,0,1,1.85-.06,2.68,2.68,0,0,1,.6,1.08M70.47,14.78l-2.18-2.27,0.3-.28,2.07,2.38Zm-14.53,3.3-3.38-1.64,0.14-.28,3.36,1.68-0.12.25m-0.49,1.69-2-.92,0.22-.46,1.94,1-0.18.43M55.38,55.39l-1.54.73L54,54.89l1.3,0.24,0.06,0.25m149.57,0h0l-0.11.41c-0.64-.15-1.51.38-2-0.93L205,55.43m0.34-5.1h0c0,0.18,0,.35,0,0.53h-11a4.68,4.68,0,0,1,3.43-.76c0.59,0.06,1.18.16,1.77,0.17,1.95,0,3.9,0,5.84.06m-6,15.24h0l-0.23,0c0.23-.77.43-1.55,0.71-2.3a0.7,0.7,0,0,1,.57-0.36,1,1,0,0,1,.39.57,0.8,0.8,0,0,1,0,.39c-0.12,1.23-.26,2.46-0.35,3.69a15.69,15.69,0,0,1-.08,2.09,6.75,6.75,0,0,1-.79,1.57,5.47,5.47,0,0,1-.54-1.66c0-1.32.19-2.63,0.31-3.94m2.68-17h0c-1.24.16-2.42,0.32-3.61,0.45-1.56.17-3.14,0.23-4.69,0.47-1,.17-2,0.62-3,0.87a3.88,3.88,0,0,1-1.23-.17c1.48-1.69,11.51-2.92,12.57-1.63m-4.9,15.17h0.43a2.76,2.76,0,0,1,.42,1.05,34.48,34.48,0,0,1-.48,3.76,35.57,35.57,0,0,1-1,3.88,5.9,5.9,0,0,1-.94,1.59,0.78,0.78,0,0,1-.6,0,0.48,0.48,0,0,1-.12-0.4c0.14-.65.34-1.29,0.47-1.94,0.3-1.49.54-3,.87-4.49,0.26-1.16.6-2.3,0.9-3.45m-27.84,133-1.42-.33a2,2,0,0,0,.12,1c0.67,0.71.86-.21,1.28-0.38,0-.1,0-0.2,0-0.3m-1-3.53a3.85,3.85,0,0,0,.35,1.4,1.19,1.19,0,0,0,1.11.27c0.58-.26.42-0.73,0-1.08s-0.77-.57-1.16-0.85l-0.28.27m0.33,6.28-1.62-1.62a1.12,1.12,0,0,0-.24,1.86c0.62,0.74,1.2.26,1.86-.24m-14.71-23.94a9.68,9.68,0,0,1,5,4.45l0.33-.22a10.4,10.4,0,0,0-1.27-2.28c-0.81-.87-1.88-1.49-2.78-2.28-0.51-.44-0.8-0.27-1.25.34m4.72,18.77c1.54-.65,1.88-3.73.49-5.32l-0.49,5.32m6.89,5.19c-1.11.73-.56,1.46-0.37,2.05a11.69,11.69,0,0,0,1.1,2.46c0.34,0.58.87,0.5,1.4-.05l-2.13-4.45m0.33-15.75a1,1,0,0,0,.4-1.64c-0.75-1.05-1.37-2.21-2.13-3.25a3.35,3.35,0,0,0-1.17-.65,3.3,3.3,0,0,0,.18,1.2c0.61,1,1.33,2,2,3,0.27,0.41.47,0.86,0.73,1.34M163,188.33a2.16,2.16,0,0,0,.39-1.06c-0.72-1.84-1.53-3.64-2.31-5.46l-0.5.06a3,3,0,0,0-.13,1.21c0.65,1.77,1.38,3.5,2.09,5.25H163m-1,1.15c-0.38-1.1-.76-2.27-1.2-3.41a0.7,0.7,0,0,0-.6-0.33,0.72,0.72,0,0,0-.35.59c0.1,1.14.28,2.27,0.4,3.4,0,0.33-.05.68,0,1a5.21,5.21,0,0,0,.28.89,2.16,2.16,0,0,0,.87-0.48,9.43,9.43,0,0,0,.61-1.68m-0.34-10.78a1.94,1.94,0,0,0-.07,2.45c0.75,1.21,1.62,2.35,2.49,3.48a2.23,2.23,0,0,0,.89.39,2.3,2.3,0,0,0-.08-0.92c-1-1.75-2.08-3.48-3.23-5.39m-8.26-5.76,3,2.38a31.51,31.51,0,0,0,3.26,2.35,2.11,2.11,0,0,0-.16-1.07c-1.11-1-2.3-2-3.46-2.94a11.82,11.82,0,0,1-1.1-.9c-0.52-.55-1-0.63-1.59.18m9.1,26.3a11.27,11.27,0,0,0-.24,2.83c0.34,2,.86,4,1.39,5.94a2.88,2.88,0,0,0,.92,1.23,0.91,0.91,0,0,0,.85,0,0.82,0.82,0,0,0,.09-0.78c-1.3-2.07-1.28-4.45-1.69-6.73a3.9,3.9,0,0,0-.93-2.51h-0.39m9.88,5.13c-1.4,1.33-.39,2.78-0.64,4.21l-0.47-1.13c-0.81.24-1.1,0.9-.85,2a12.37,12.37,0,0,0,2.48,5.75c0.31,0.35.43,1,1.08,0.64s0-.89-0.14-1.3a27.13,27.13,0,0,1-1.39-3.59c0.36,0.42.7,0.87,1.1,1.25a0.66,0.66,0,0,0,.6.06,0.7,0.7,0,0,0,.09-0.55c-0.41-2-.82-4.07-1.27-6.09a7.07,7.07,0,0,0-.58-1.29m-11.32,5.23a2.07,2.07,0,0,1-.62-0.35c-0.75-1.58-1.48-3.16-2.22-4.74-1.07-2.31-.48-4.81-0.72-7.21-0.17-1.68.38-3.43,0.53-5.15,0.28-3.31,1.05-6.61.51-10a6,6,0,0,0-2.35-4.21c-1-.69-2.11-1.26-3.13-1.95a14.71,14.71,0,0,0-5.86-1.88,17.2,17.2,0,0,0-3,0v-0.35a9.81,9.81,0,0,0,1.13-.16c2.16-.55,4.31-1.17,6.49-1.65a5,5,0,0,1,2.58,0c1.91,0.65,3.75,1.5,5.59,2.34a13.62,13.62,0,0,1,5.69,4.63A42,42,0,0,1,171,190.3a16.49,16.49,0,0,1,.73,2.28c0.32,2,.52,4,0.78,5.94,0.13,1,.33,2,0.44,3a18.71,18.71,0,0,0,.36,3.52,26.72,26.72,0,0,0,4.14,8.12,25.14,25.14,0,0,0,7,6.72c0.69,0.41,1.32.95,2,1.42a18.35,18.35,0,0,1-2.6-.49c-2.78-.62-5.57-1.17-8.33-1.86a4.31,4.31,0,0,1-2-1.17,12,12,0,0,1-1.9-2.77c-0.71-1.41-1.24-2.9-1.92-4.53a2.79,2.79,0,0,0-.65,1.1,15.61,15.61,0,0,0,.67,3,22,22,0,0,0,1.23,2.54l-0.19.16a10.13,10.13,0,0,1-1-1.05,15.47,15.47,0,0,1-.86-1.52l-0.74,1.19c-2.07-1.69-4.71-2.68-5.92-5.36,0.59-.27.83-0.63,0.26-1.18a1,1,0,0,1-.26-0.52c-0.41-2.3-.79-4.61-1.23-6.9a13,13,0,0,0-.58-1.75l-0.43.06c-0.76,1.45-.26,3-0.33,4.57l-0.91-3.71c-0.82.28-.59,0.87-0.41,1.32,0.83,2.07,1.71,4.12,2.56,6.19a5.54,5.54,0,0,1,.16,1m7.37-38.17c0.67,0.64,1.83.38,2.69-.58-0.73-.8-1.26-0.7-2.69.58m27,7.28c-0.91-.28-1.7-0.55-2.51-0.74a0.91,0.91,0,0,0-.56.45,0.59,0.59,0,0,0,.09.52c0.43,0.55,2.28.51,3-.24m-17.87-5.56a2.31,2.31,0,0,0-3.2.38c0.7,0.91,1.76.8,3.2-.38m15.27,3.12a2.44,2.44,0,0,0-3-.9,2.15,2.15,0,0,0-.6.83,2.72,2.72,0,0,0,.92.47,8.13,8.13,0,0,0,1.65-.16c0.29,0,.58-0.14,1-0.24m3.45,5.37c0.7-.23,1.41-0.44,2.09-0.72a1.8,1.8,0,0,0,.49-0.61,1.65,1.65,0,0,0-.69-0.37c-1,.09-1.93.24-2.89,0.41a0.57,0.57,0,0,0-.35.39,1.27,1.27,0,0,0,.44.7,2.23,2.23,0,0,0,.87.1ZM174.8,172a2.4,2.4,0,0,0-2.73-.48c-0.52.17-1.48,0.05-1.2,1s1.1,0.6,1.74.38,1.47-.6,2.2-0.9m6,2.86a3.44,3.44,0,0,0-3.64-.38,0.74,0.74,0,0,0-.25.61,1.64,1.64,0,0,0,.86.78,4.9,4.9,0,0,0,3-1m22.93,6.33c-0.86-.92-1.85-0.27-2.69-0.19a30.05,30.05,0,0,0-4.43,1,4.94,4.94,0,0,0-1,.55c0.52,1,1.34.74,2.08,0.56,1.85-.43,3.69-0.93,5.53-1.42a1.93,1.93,0,0,0,.56-0.47m-19.53-4.9a4.56,4.56,0,0,0-1.4-.35c-1.68.13-3.36,0.35-5,.58a2.32,2.32,0,0,0-.78.51,2.52,2.52,0,0,0,1,.83,14.6,14.6,0,0,0,5.56-.83,3.14,3.14,0,0,0,.65-0.41l0-.34m-7.86,3.26a5.42,5.42,0,0,0,1.48.53,28,28,0,0,0,8.9-1.46,0.87,0.87,0,0,0,.21-0.28,8.64,8.64,0,0,0-5.29,0c-1.73.42-3.65-.25-5.26,0.78,0,0.15,0,.3,0,0.44m25.49,5.2c1.23-.55,2.46-1.09,3.68-1.65a20,20,0,0,0,2-1,1.69,1.69,0,0,0,.36-0.69,1.68,1.68,0,0,0-.75-0.17c-1.75.57-3.49,1.19-5.23,1.8-0.64.22-1.29,0.43-1.92,0.66-0.4.15-.8,0.33-1.19,0.5v0.44a11.2,11.2,0,0,0,1.53.25,12.08,12.08,0,0,0,1.57-.14l-1,1c1,1,1.93-.12,2.89.14-1.81.7-3.64,1.31-5.49,1.85a4.56,4.56,0,0,1-1.31,0c-0.87,0-1.74-.07-2.61,0-1.6.06-3.2,0.17-4.8,0.27,1.92-.54,4-0.43,5.82-1.33-0.48-1-1.2-.54-1.78-0.5-2.46.18-4.92,0.44-7.38,0.62a7.83,7.83,0,0,1-1.5-.17c3-.41,6-0.55,8.84-1.64a1.55,1.55,0,0,0-1-.54c-2.77.08-5.54,0.2-8.31,0.33-0.51,0-1,.26-1.51.24a14.31,14.31,0,0,1-1.92-.32l0.07-.2,10-1.13,0.05-.49a4.49,4.49,0,0,0-1.43-.48c-3.6.09-7.2,0.25-10.8,0.37a6.46,6.46,0,0,1-1.06-.14c0-.09,0-0.18,0-0.26a39.24,39.24,0,0,0,11.24-1.46,1.83,1.83,0,0,0-1-.51c-1.2,0-2.4-.07-3.6,0a24.82,24.82,0,0,0-3,.39c-1.2.22-2.39,0.5-3.58,0.76-0.65.14-1.28,0.47-1.88-.23a38.91,38.91,0,0,0-2.87-3.07c-2-1.92-4.08-3.85-6.25-5.61a7.73,7.73,0,0,0-4.54-2c-1,0-2-.24-3-0.33a37,37,0,0,0-5.53-.45,40.79,40.79,0,0,0-6.46,1,8.14,8.14,0,0,0-4.44,2.85,2.59,2.59,0,0,1-1.11.82c-0.92.28-1.89,0.42-2.74,0.6-0.19-1.27-.38-2.5-0.54-3.73a2.35,2.35,0,0,1,0-1,2.57,2.57,0,0,0-.14-2.23,1.06,1.06,0,0,1,.52-1.46l0.6,7.46a0.44,0.44,0,0,0,.36-0.34,2,2,0,0,1,0-.49c1-2.26.56-4.63,0.56-7a0.77,0.77,0,0,0-.11-0.36c-0.71-1.23-.55-1.76.73-2.44v8.64l0.6-.7a2.78,2.78,0,0,0,.38,1,2.2,2.2,0,0,0,1.25-.32c0.87-.54,1.67-1.19,2.53-1.74a15.39,15.39,0,0,1,6.07-2.49c1.88-.26,3.78-0.4,5.67-0.58a18.72,18.72,0,0,1,2.45-.18c2.35,0.09,4.69.23,7,.39a27.6,27.6,0,0,1,4.7.44c3.43,0.84,6.82,1.83,10.19,2.87,1.53,0.47,3,1.21,4.47,1.83,1.95,0.81,3.87,1.68,5.85,2.42,1.45,0.54,3,.85,4.44,1.32a30.87,30.87,0,0,0,8.89,1.28c1.21,0,2.41-.12,3.62-0.08,1,0,1.88-.6,2.86-0.13a1.22,1.22,0,0,0,.35-0.15l3.7-.84a29,29,0,0,1-3.63,3.84,11.57,11.57,0,0,1-2.58,1.53c-0.89.43-1.84,0.74-2.77,1.07l-5.12,1.82M196.93,155c0.66,0.79,1.09.72,1.45,0.25a1.38,1.38,0,0,0,0-.68l-1.47.44m-2.33-2.48a1.19,1.19,0,0,0,1.94,0,0.87,0.87,0,0,0,0-.72,1.6,1.6,0,0,0-2,.75M190,149.6c-1.69-1-3.58-1-5.83-1a3,3,0,0,0,.76.81c0.73,0.24,1.49.4,2.25,0.57a9.41,9.41,0,0,0,1.62.28,5.7,5.7,0,0,0,1.23-.2c0-.15,0-0.31,0-0.46M188.1,147c-1.58-1.16-7-1.88-8.51-.93,1,0.36,2,1.1,3,1a16.26,16.26,0,0,1,4.64.4,2.11,2.11,0,0,0,.88-0.46m-4.52-7.62-3-.79c-2.07-.54-4.13-1.1-6.2-1.61a9.59,9.59,0,0,0-1.54-.14,4.61,4.61,0,0,0,1.19.92c2.2,0.73,4.43,1.41,6.66,2a9.05,9.05,0,0,0,2.13.29,1.89,1.89,0,0,0,.77-0.42l0-.3m-8.74,1.24c2.83,1.28,10.74,2.55,11.7,1.86-0.77-1.12-2-.88-3.1-1.08-2.35-.45-4.72-0.79-7.09-1.14a10.6,10.6,0,0,0-1.52,0c0,0.12,0,.25,0,0.37m-1.5-4.17,0.24-.34a2.21,2.21,0,0,0-.42-0.64c-1.15-.84-2.31-1.67-3.5-2.46-1.57-1-3.19-2-4.74-3.07a14.45,14.45,0,0,1-1.6-1.47l0.23-.26c1.27,0.7,2.57,1.36,3.81,2.1s2.51,1.67,3.8,2.45a2.47,2.47,0,0,0,1,.1l0.19-.49L163.64,126l0.11-.18,8.34,5c0.67-.43.69-0.86,0.11-1.28-1.21-.88-2.4-1.79-3.65-2.61-1.42-.93-2.91-1.77-4.35-2.68a3.46,3.46,0,0,1-.59-0.62,1.59,1.59,0,0,1,1,.16c1.92,1.16,3.82,2.36,5.74,3.52,1,0.6,2,1.15,3.08,1.65a1.78,1.78,0,0,0,.88-0.17,1.65,1.65,0,0,0-.28-0.75c-1.25-.88-2.5-1.76-3.81-2.56-2-1.22-4-2.36-6.05-3.57a3.16,3.16,0,0,1-.66-0.81l0.21-.19c2,1.08,3.89,2.18,5.86,3.23,2.16,1.15,4.35,2.26,6.52,3.37a10.52,10.52,0,0,1,2.31,1.14c2,1.84,4,3.79,6,5.71,0.33,0.32.57,0.71,0.89,1,1,1,2,1.92,2.86,3a34.31,34.31,0,0,1,4.6,8.2,1.17,1.17,0,0,1,.19.74c-0.37.84,0.23,1,.76,1.07,0.72,0.13.83,0.37,0.43,1a1,1,0,0,0,.11.92,1.7,1.7,0,0,0,1.88-.42c0.22-.38.41-0.79-0.33-0.91a1.16,1.16,0,0,1-.8-0.51,11.88,11.88,0,0,1-.56-1.91c-0.22-.88-0.41-1.77-0.64-2.74l6.34,2.39c0,1,0,1.66,0,2.35s0.51,1.45.15,2.24a1.57,1.57,0,0,0,.2.78,0.76,0.76,0,0,1,.09.39,0.74,0.74,0,0,0,.13,1.23,0.57,0.57,0,0,1,.2.46c-0.17.88-.4,1.75-0.56,2.63-0.24,1.38-.63,1.81-1.6,1.46-1.29-.46-2.55-1-3.79-1.61-0.83-.39-1.58-1-2.44-1.32a13.7,13.7,0,0,1-5.08-3.29,1.4,1.4,0,0,0-.31-0.32c-1.91-.94-3.82-1.88-5.73-2.8-0.49-.23-1-0.4-1.58-0.63l0.6-.34c-1-.64-2-1.31-3-1.83-2-1-4.54-1-6.24-2.73a1.32,1.32,0,0,0-.53-0.25l-3.49-1.17a5.12,5.12,0,0,1-1.08-.35,19.41,19.41,0,0,1-2-1.39,5.64,5.64,0,0,1-.76-0.95,1.4,1.4,0,0,1,.39-0.13,1.46,1.46,0,0,1,.43.19,18.77,18.77,0,0,0,7,3.21c0.72,0.17,1.46.29,2.17,0.51,2.17,0.66,4.3,1.42,6.49,2a18.33,18.33,0,0,0,3.18.37c0.51,0,1,0,1.53,0,0.71,0,1.58.69,2.08-.61a5.93,5.93,0,0,0-1.35-.52c-1.43-.19-2.89-0.16-4.3-0.45-2.73-.55-5.43-1.24-8.13-1.92-0.78-.2-1.53-0.82-2.28-0.79-1.62.05-2.77-.86-4-1.55s-2.23-1.28-3.3-2a1.67,1.67,0,0,1-.12-0.86c2.07,1.55,10.25,5.35,11.23,5a2.43,2.43,0,0,0-.51-0.58c-2.4-1.3-4.82-2.56-7.21-3.87a29.67,29.67,0,0,1-3.11-1.95,2.57,2.57,0,0,1-.44-1.14c3.28,2.22,10.22,5.72,11.23,5.12a4.84,4.84,0,0,0-1-.75,54.92,54.92,0,0,1-6.84-4.21c-1-.77-2-1.45-2.94-2.22a2.57,2.57,0,0,1-.29-1.05c3.41,2.4,6.53,4.66,10.22,5.87M145.91,76.58a2,2,0,0,0-.53-0.54c-1.07-.44-2.17-0.82-3.25-1.26a4.32,4.32,0,0,1-.82-0.59,3.56,3.56,0,0,0,.61-0.63,1.06,1.06,0,0,0,.21-0.78,2.69,2.69,0,0,1-.14-2.42,8.58,8.58,0,0,0,.25-2.22,8.49,8.49,0,0,0-.24-1.77c-0.13-.61-0.32-1.2-0.51-1.88a2.47,2.47,0,0,0-1.21,2.35c-0.08,1.14-.18,2.28-0.34,3.42-0.18,1.37-.44,2.73-0.64,4.09a0.57,0.57,0,0,0,.13.45,1.72,1.72,0,0,1,.34,1.84,1.75,1.75,0,0,0,0,.86c0.17,0.42.55,0.77,0.68,1.19a4.86,4.86,0,0,0,2.64,3.16c0.79,0.38,1.63.65,2.71,1.08-2.56.4-4.73,1.52-7.15,1,1.28-.38,2.78,0,4.07-1.32a6.91,6.91,0,0,0-1.65-.38c-1.64.08-3.27,0.31-4.9,0.34-0.66,0-1.53.07-1.81-.72l1.83-.92-0.08-.4a7.89,7.89,0,0,0-1.28-.31c-0.66-.05-1.33,0-2,0A1.42,1.42,0,0,1,131.23,79a1.07,1.07,0,0,0-.45-0.62c-1.23-.73-1.32-1.88-1.26-3.13a26.52,26.52,0,0,1,0-3A29.64,29.64,0,0,1,130.63,68a25.89,25.89,0,0,1,1.28-2.83c0.37-.79.7-1.61,1.12-2.37,0.26-.46.71-0.8,1-1.25,0.44-.7.75-1.48,1.21-2.16s0.54-1.42.91-2.1c0.65-1.2.8-1.35,1.89-.65,0.84,0.55,1.67,1.14,2.51,1.69,1.72,1.12,3.5,2.16,5.15,3.38a13.2,13.2,0,0,1,2.13,2.33,7.32,7.32,0,0,1,1.41,2c0.47,1.33.65,2.77,1.07,4.13s1.05,2.82,1.56,4.24,1,2.92,1.52,4.34c0.47,1.19,1.07,2.33,1.64,3.57l-6.95-.93c0.22-.86,1.07-0.41,1.64-0.44a12,12,0,0,1,2.15.18c0.63,0.08,1.24.23,1.87,0.35-1.74-1.48-3.87-1-5.94-1.21l1.37-.56c-1.34-1.46-3.11-.9-4.58-1.35a2.08,2.08,0,0,0-1,.28c-1.12-.3-2-0.87-1.62-2.24,2.94,0.71,3.18.73,3.94,0.14m35.43,44.62c-1.1-1.91-2.08-3.68-3.13-5.41a1.38,1.38,0,0,0-1-.67c-0.7.18-.33,0.75-0.21,1.21a10.38,10.38,0,0,0,3.37,4.75,2,2,0,0,0,1,.11m-1-5.43a3,3,0,0,0,0,1.17c0.63,1.3,1.35,2.56,2,3.83a5.5,5.5,0,0,0,.81,1.29,1.48,1.48,0,0,0,1.1.47c0.62-.14.43-0.75,0.23-1.12q-1.41-2.52-2.93-5a3.41,3.41,0,0,0-.92-0.71l-0.36,0m-8.4-3.93c0.54,3.43,2.84,5.65,5.4,8a2.24,2.24,0,0,0,.14-1c-0.83-1.11-1.73-2.16-2.57-3.26a7.15,7.15,0,0,1-.6-1.15c-0.37-.74-0.73-1.5-1.12-2.23a0.76,0.76,0,0,0-1.25-.4m15.87,12.66c-2.91-.9-5.59-1.76-8.29-2.57-1.42-.42-2.8-0.68-3.85-2a51.3,51.3,0,0,1-5.61-8.08,2,2,0,0,0-.6-0.54,3,3,0,0,1-.83-0.61c-0.55-1-1-2-1.54-3,0.82-.38.8-0.37,1.12,0.47s0.5,2.13,1.71,2.51a3,3,0,0,0,.7.06,2.51,2.51,0,0,0,0-.69c-0.33-.94-0.7-1.87-1.08-2.87A4.43,4.43,0,0,1,171,107a31.75,31.75,0,0,1,4.87,1.27,47.3,47.3,0,0,1,13.8,8.11c1.55,1.34,2.63,3.22,3.94,4.85a1,1,0,0,0,.55.4,1.33,1.33,0,0,0,.61-0.67,1.61,1.61,0,0,0-.14-0.94c-0.44-1.1-1.42-1.85-2-2.78-1.4-2.15-3.57-3.34-5.39-5a26.47,26.47,0,0,0-2.92-2.2,18.88,18.88,0,0,0-2.64-1.43,2.47,2.47,0,0,0-1.1.25l0.38-.6L178.23,107c1.16-1.16-.5-1.81-0.33-2.79,1-.2.74,0.81,0.85,1.22,0.16,0.59.38,0.85,0.93,0.66s1-.36.57-1.06a2,2,0,0,1,0-.77,3,3,0,0,0,3.65-.44,2.09,2.09,0,0,0-.22-1.3,7.66,7.66,0,0,0-.86-1.27,6.79,6.79,0,0,1,1.53.32,38.25,38.25,0,0,1,5.41,3,14.17,14.17,0,0,1,3.87,4.31,22.63,22.63,0,0,1,2.76,5.73c0.21,0.84.42,1.68,0.66,2.51a28.09,28.09,0,0,1,.9,3.15c0.28,1.79.41,3.61,0.62,5.67-0.68,0-1.28,0-1.88,0-1.72-.1-3.58.17-4.7-1.67a0.57,0.57,0,0,0-.54-0.11,0.86,0.86,0,0,0-.42.56,3.58,3.58,0,0,0,.36,1,5.59,5.59,0,0,1-1.75-1,14.44,14.44,0,0,0-2-2.93,6.37,6.37,0,0,1-1.07-1.73,0.69,0.69,0,0,0-1.13-.25,1.06,1.06,0,0,0-.12.93,16.29,16.29,0,0,0,.82,1.85,1,1,0,0,0,.31.46c1.17-.17.93,0.88,1.4,1.55m5.72-35.36,0.37-.11a3,3,0,0,0-.48-1.22c-1.43-1.16-2.92-2.23-4.45-3.38l0.38-.71a3,3,0,0,0-2.43-1.36c-1.25-.05-2.5-0.19-3.74-0.18-1.82,0-3.64.05-5.44,0.21-1.45.12-2.88,0.44-4.33,0.66-0.77.12-1.55,0.17-2.31,0.34a11.12,11.12,0,0,0-1.54.56c2.29-4.62,3.61-9.14-.16-13.76,0.64,0,1.14.17,1.64,0.19,1.71,0.1,3.42-.14,5.06.72,1.15,0.6,2.72.27,3.64,1.51a0.41,0.41,0,0,0,.34.15c0.82-.49,1.42.16,2.07,0.42a19.54,19.54,0,0,1,3.69,1.63,21.58,21.58,0,0,1,3.8,3.18,58.29,58.29,0,0,1,5,5.92,18.11,18.11,0,0,1,3.23,6.72c0.31,1.46-.14,2.08-1.66,2.1a2.24,2.24,0,0,0-1.25.12,4.07,4.07,0,0,1-2.39.69,6.83,6.83,0,0,0-1.11.34c-1.22.41-2.43,0.87-3.66,1.24A11.24,11.24,0,0,0,183,97.45c-0.45.43-.71,0.32-0.94-0.2-1-2.27-2-4.53-3.09-6.79a1.82,1.82,0,0,0-.61-0.64c-2.14-1.52-4.29-3-6.5-4.58a19.47,19.47,0,0,1,2.44.89c2.23,1.16,4.41,2.4,6.62,3.58a2.25,2.25,0,0,0,.86.06l0.08-.37-6.08-4.27a1.53,1.53,0,0,1,.7,0c1.77,1,3.52,2,5.27,3.05,0.87,0.51,1.71,1.05,2.59,1.54a1.26,1.26,0,0,0,.59,0,1.12,1.12,0,0,0-.17-0.49c-1.23-1-2.46-1.94-3.74-2.84-1-.69-2-1.27-3.06-1.89l0.11-.26a12.59,12.59,0,0,1,2.75.87c2.13,1.25,4.16,2.65,6.24,4l2.17,1.39,0.27-.4c-2.29-2.29-5.07-4-7.6-6a0.76,0.76,0,0,1,.49.14,34.94,34.94,0,0,1,8.92,5.71,1.38,1.38,0,0,0,.69,0,28.8,28.8,0,0,0-7.4-5.77c3.88,0,6.21,2.91,9,5M95.27,104.52l0.19-.07a5,5,0,0,1,0-1.08c0.21-.92.49-1.82,0.73-2.73s0.47-1.8.72-2.7c0.17-.62.18-1.6,0.57-1.79A3.1,3.1,0,0,0,98.8,94.5a17.89,17.89,0,0,1,4-4.5c2.36-2.14,5.31-2.54,8.14-3.39a1.36,1.36,0,0,1,.6.25c-1.91.88-1.66,7.6,0.25,9a0.56,0.56,0,0,0,.17-0.23c0-1.78-.11-3.57-0.14-5.35a0.93,0.93,0,0,1,.19-0.67,1.24,1.24,0,0,0,.81-1.4c0.09-.88.27-1.75,1.26-1.81-1.72,3.43-1.4,7.06-.91,10.7-1.33,0-2.37.71-3.52,1a11.53,11.53,0,0,0-3.42,2c-0.57.41-1,1.07-1.51,1.53-0.89.74-.84,1.62,0,2.09,0.88-.82,1.66-1.61,2.51-2.32a16.3,16.3,0,0,1,6.2-2.89,0.69,0.69,0,0,1,1,.7c0.15,1.36-.25,2.68.08,4.08a40.73,40.73,0,0,1,.61,6,2,2,0,0,1-.27.73,2.92,2.92,0,0,1-.44-0.64c-0.26-.75-0.46-1.52-0.72-2.37a2.25,2.25,0,0,0-.71.4c0.07,1,.2,2,0.32,3-1.16.14-2.32,0.35-3.49,0.4-1.41.07-2.82,0-4.24,0-0.89,0-1.78-.06-2.67-0.16-2.2-.24-4.4-0.54-6.6-0.77-0.7-.07-1.81-1.18-1.59-1.78a6.87,6.87,0,0,0,.11-4.35l0.47,0.69m62,41h0l0.16-.22,1.56,1.21c-1,.31-1.32-0.42-1.72-1M143,134.7h0l-0.2.49a4.72,4.72,0,0,1-1.18-.21,2,2,0,0,1-.76-0.71,3,3,0,0,1-.28-0.83,1.89,1.89,0,0,1,.94,0A13.45,13.45,0,0,1,143,134.7m12,3.5h0c0.63,0.66,1.17,1.29,1.77,1.84s1.26,1,2,1.56l-0.59.66c-0.64-.25-0.8-0.79-1.43-1a3.59,3.59,0,0,1-1.6-1.57c-0.26-.38-0.9-0.93-0.12-1.53m4,6.25h0c-1,.93-3.69-0.95-4.17-3,1.54,0.77,2.71,2.09,4.17,3m-4-9.4h0.29c0.63,0.74,1.24,1.52,1.91,2.22s1.39,1.27,2.05,1.93a1.55,1.55,0,0,1,.21.63,1.79,1.79,0,0,1-.57,0,8.2,8.2,0,0,1-3.87-4,1.81,1.81,0,0,1,0-.75m1.36-2.13h0c0.75,0,2.37,1.84,4.22,4.57-0.55.66-1,.14-1.39-0.17-1.48-1.11-2-2.83-2.84-4.4m-5.28-5.78c-0.51,1.17-.43,1.46.56,2.11a4.82,4.82,0,0,1,.94.69,2.7,2.7,0,0,1,.36.81,3.51,3.51,0,0,1-1.18.23,3,3,0,0,1-1-.58l-0.3.15a6.21,6.21,0,0,0,.58,1.58,6.88,6.88,0,0,0,1.33,1.13l0,0.34-1.92.23c0.26,0.44.51,0.89,0.79,1.32,0.13,0.19.36,0.31,0.48,0.5a1.24,1.24,0,0,1,.28.79A3,3,0,0,1,151,137c0.29,0.76.63,1.74,1,2.69s0.88,1.93,1.29,2.91a1.1,1.1,0,0,1-.07.5,2.13,2.13,0,0,1-.51-0.1,6.14,6.14,0,0,1-2.58-2.81,9.7,9.7,0,0,1-.9-2.23,14.18,14.18,0,0,1-.58-2.74c-0.1-1.16,0-2.34-.05-3.5a1.18,1.18,0,0,0-.44-0.61c-1-.92-1.95-1.86-3-2.71a1.39,1.39,0,0,0-1.15,0l4.09,3.78a1,1,0,0,1-1.7.12,20.51,20.51,0,0,0-1.82-1.86,2.8,2.8,0,0,0-1.24-.2l-0.12.32,3.15,3a0.9,0.9,0,0,1-1.54,0c-0.44-.47-0.84-1-1.29-1.43a1.13,1.13,0,0,0-.62-0.22,0.39,0.39,0,0,0-.24.27,1.55,1.55,0,0,0,.3.46c0.26,0.33.53,0.65,0.9,1.11-1.92.2-2.09,0.06-2.09-1.06l-0.94-1,0.92-.75,0.19,0.23a1.19,1.19,0,0,0-.69-1.54l-0.26-.13c-0.52-.33-1.28-0.65-0.86-1.4s0.9,0.07,1.36.16a2.67,2.67,0,0,1,.62.3c0.46-1.27.35-1.48-.92-2.06-0.79-.36-1.57-0.75-2.55-1.22,0.11,1.27-.35,2.37.39,3.38a0.63,0.63,0,0,1,.16.44c-0.63,1.57.36,3,.35,4.52a6.07,6.07,0,0,0,.3,1.82,8.25,8.25,0,0,0,.92,2.17,33.94,33.94,0,0,0,10.59,9.58,12.12,12.12,0,0,0,5.41,1.8,3.2,3.2,0,0,1,1.37.47,6.23,6.23,0,0,0,3.74.89,5.19,5.19,0,0,0,1.29-.44l-0.33-.2c-0.35-2.52-.61-5.06-1.09-7.55a25.4,25.4,0,0,1-.69-7.54c-0.93.76-1.36,0.12-1.82-.64-0.65-1.09-1.37-2.13-2.06-3.2l0.14-.31a2.06,2.06,0,0,1,.9.31c0.87,1.05,1.67,2.16,2.52,3.27,1-2.89-1.1-4.76-2.39-7,0.89-.5,1.06.42,1.45,0.71a8.66,8.66,0,0,1,1.19,1.34,2.32,2.32,0,0,0-.66-3.05,2,2,0,0,1-.49-0.5,5.46,5.46,0,0,1-.33-0.78,2,2,0,0,1,.77.27,6.24,6.24,0,0,1,.69,1.09c0.91-1.5.65-2.65-.38-3.42a34.6,34.6,0,0,0-2.83-2.11l1,1.18c-0.73,1-.89,1-1.84.27a1,1,0,0,0-.57-0.34,4.34,4.34,0,0,0-.95.49,2.68,2.68,0,0,0,.45.54c0.42,0.3.87,0.55,1.4,0.87-0.66.64-1.08,1-2,.47-0.65-.39-1.33-1.36-2.35-0.63a1.22,1.22,0,0,0-.15.29l3.44,1.93c-0.72,1-1.67,1.08-2.75.28-0.59-.44-1.21-0.84-1.85-1.28a1,1,0,0,0,.5,1.53c0.91,0.66,1.71,1.46,2.6,2.23-1,.67-2.1.23-3.63-1.35m58.07-23.88-2-2-0.12.11,1.92,2.12,0.24-.23M197,110.77a15.22,15.22,0,0,0,1.79-.51,1.74,1.74,0,0,0,.48-0.67,2.69,2.69,0,0,0-1-.36,19.88,19.88,0,0,0-2.13.3l-0.07-.29a3.93,3.93,0,0,1,2.7-.89,24,24,0,0,1,3.66.54c2.25,0.34,4.52.61,6.76,1A5.68,5.68,0,0,1,211,111l-0.15.2-2.19-.5-0.11.36c0.67,0.34,1.32.7,2,1,0.89,0.38,1.84.61,2.69,1.06a23.38,23.38,0,0,1,1.91,1.43,2.14,2.14,0,0,0,.85.13,3.27,3.27,0,0,0-.23-0.86c-1.73-2.88-4.64-4.56-7-6.79a12.86,12.86,0,0,0-2.33-1.55,19.26,19.26,0,0,0-2.77-1.52c-1.88-.74-3.79-1.42-5.74-2a23.84,23.84,0,0,0-3.47-.45,5.49,5.49,0,0,1-1.54-.26c-1.93-.86-3.81-1.82-5.74-2.69a12.91,12.91,0,0,0-2.06-.53,4,4,0,0,1,.51-0.36c1.25-.57,2.42.22,3.45,0.53a48.51,48.51,0,0,1,6.72,3c0.63,0.31.94,0.21,1.29-.68l-7.44-3.83a2.2,2.2,0,0,1,.49,0c2.29,0.61,4.57,1.24,6.86,1.83a4.5,4.5,0,0,0,1.2-.08c-1.7-2.14-4.09-2.07-6-3,5.53,0,10,2.9,14.4,5.79l0.23-.47c-3.4-2.15-6.18-5.26-10.29-6.5l3.36,0.58,0.09-.32L199,93.78l0.15-.27a33.48,33.48,0,0,1,4.74,3.14,34,34,0,0,1,4.48,3.72A52.14,52.14,0,0,1,212,105l0.39-.14a2,2,0,0,0-.13-0.85,22.75,22.75,0,0,0-2.34-2.93c-1.63-1.57-3.34-3.07-5.09-4.51-1.38-1.13-2.87-2.14-4.35-3.15-0.76-.52-0.8-1,0-1.57,1.7,1.23,3.37,2.48,5.08,3.67a33.45,33.45,0,0,1,3.54,2.33,37.49,37.49,0,0,1,6.56,7.76,27.27,27.27,0,0,1,4,10.69,1.32,1.32,0,0,1-1.39,1.58c-2.84.19-5.5-.61-8.18-1.32a11.23,11.23,0,0,0-6.56,0c-1.32.43-2.7,0.69-4.07,1l-2.44-6.8m-45.7-44.16a7.13,7.13,0,0,0-.66-2A50.66,50.66,0,0,0,147,60.34a0.9,0.9,0,0,1-.2-1.17,16.14,16.14,0,0,1,4-5.5,35.15,35.15,0,0,1,4.79-3.45A8.57,8.57,0,0,1,158,48.8a22.11,22.11,0,0,1,3.69-.35l1.57-.13c2.25-.22,4.49-0.46,6.74-0.64a1,1,0,0,1,.74.51,24.67,24.67,0,0,1-.3,4.83,68.53,68.53,0,0,1-2.15,7.16c-0.67,1.95-1.49,3.84-2.29,5.74-0.27.63-.59,1.33-1.49,0.57a2.25,2.25,0,0,0-1-.06c-1.26-.13-2.69,0-3.72-0.51a15.79,15.79,0,0,1-3.48-3.12,0.9,0.9,0,0,1,.35-1.6,4.42,4.42,0,0,0,.33.48c0.8,0.89,1.59,1.79,2.43,2.65a1.62,1.62,0,0,0,.77.15,1.92,1.92,0,0,0-.13-0.83c-0.66-.86-1.36-1.68-2.07-2.49s-0.62-1.12.13-1.63l2.13,2.28,0.34-.16a7,7,0,0,0-.94-2.24,1.25,1.25,0,0,1,0-2c0.74-.72,1.38-1.53,2.08-2.31-0.95-.51-1.68-0.4-2.7.64-1.25,1.26-2.42,2.61-3.6,3.94a19.45,19.45,0,0,0-3.43,5.43c-0.18.44-.41,0.85-0.73,1.49m-4.91,46.77c0.55,0.4,1.07.84,1.64,1.18,1.09,0.65,1.12,1,.12,1.76-0.48.35-.91,0.75-1.37,1.12s-0.82.93-.29,1.4a1.32,1.32,0,0,0,1.28-.06,47.53,47.53,0,0,0,3.55-3.51,16.15,16.15,0,0,0,.78-1.63,4.26,4.26,0,0,0,.5-3.58,30.09,30.09,0,0,0-1.18-3.82c-0.34-1.08-.59-2.19-1-3.23s0-1.88,1.14-1.88c0.55,0,1.1.11,1.65,0.17,0.73,0.07,1,.35.66,1.12a1.12,1.12,0,0,0,0,.78,18.65,18.65,0,0,0,4.14,6.11,5.67,5.67,0,0,1,1.55,4.09,8,8,0,0,1-2.18,5,15.65,15.65,0,0,1-4.28,3.14c-2.25,1.22-4.4,2.64-6.61,3.93a24.55,24.55,0,0,1-2.23,1c-0.25-.65-0.46-1.12-0.62-1.61a3.88,3.88,0,0,0-1.26-2.37,11.85,11.85,0,0,1-3.74-4.9c-0.71-1.42-.12-3.1-0.94-4.5a0.59,0.59,0,0,1,.16-0.32,4.62,4.62,0,0,0,.77-1.18c0.51-1.94.95-3.89,1.42-5.88a14.54,14.54,0,0,1,2.09,0,32.6,32.6,0,0,1,6.35,1.72,2,2,0,0,1,1.64,2.18,0.67,0.67,0,0,1-.28-0.07,11.87,11.87,0,0,0-5.26-2.63,1.34,1.34,0,0,0-1.71.55c2.8,0.88,5.56,1.81,7.71,3.92l-0.28,1c-1.45-.4-2.55-1.73-4.12-1.7l-0.15.35,4,2.56-0.59.9c-1.2-1.66-2.31-2.11-3.09-1.19M73.73,215.9l-0.13-.43a2.72,2.72,0,0,0-1,.17c-1.29.81-2.54,1.69-3.81,2.53-1.51,1-2.39,2.72-4.09,3.5s-3.1,1.46-4.62,2.25-2.81,1.61-4.23,2.39c-1.66.91-3.33,1.81-5,2.68a9.69,9.69,0,0,1-7.27.66c-2.64-.77-5.42-1.22-7.83-2.67a13.49,13.49,0,0,1-2.5-1.65,51.17,51.17,0,0,1-3.76-4.12,22.77,22.77,0,0,1-1.63-2.56l0.23-.25a20.63,20.63,0,0,0,8.12,4c-0.71.82-2-.05-2.55,1.27,0.61,0,1.1,0,1.59,0,1.8-.06,3.47-1.24,5.36-0.65a2,2,0,0,0,.68-0.06l1.2-.08,0.06,0.35-6.73,1.93a4.33,4.33,0,0,0,1.69.46,10.66,10.66,0,0,0,5.7-1.84c1.74-1,3.33-2.22,5.5-2.44-2.59,2.52-5.81,3.87-9,5.37a1.25,1.25,0,0,0,.89.46,26.6,26.6,0,0,0,3.53-1.57,30.39,30.39,0,0,0,7.19-5.43,15.8,15.8,0,0,1,3-2.09,1.77,1.77,0,0,1,.75.11l-8.35,7.47a1.05,1.05,0,0,0,.85,0,26.05,26.05,0,0,0,6-4.65c1.65-1.61,3.11-3.42,4.73-5.06a11.75,11.75,0,0,1,2.18-1.46,1,1,0,0,1,.34.24l-0.45-.36c-1.44,1.66-2.91,3.3-4.32,5s-2.75,3.44-4.12,5.17l0.28,0.4a2.15,2.15,0,0,0,.76-0.34c0.69-.76,1.31-1.59,2-2.36,2.16-2.42,4.3-4.86,6.51-7.22,1-1,2.06-2.08,3.9-1.77a29.51,29.51,0,0,0-6.56,7,2.16,2.16,0,0,0,.89-0.54c0.64-.62,1.23-1.31,1.9-1.89,1.61-1.39,3.26-2.74,4.9-4.1a3.35,3.35,0,0,1,2.22-.86,20,20,0,0,1,6.2.8,15.58,15.58,0,0,1,8.09,5.57,6.13,6.13,0,0,1,1.23,4.07l-4.24-3.91c-0.46-.43-0.44-0.41-0.65.24a0.71,0.71,0,0,1-.6.29c-0.64-.09-1.27-0.27-1.9-0.41l-0.13-.19,2.16-.92a3.76,3.76,0,0,0-1.36-.46c-1,.18-2,0.51-3,0.77-0.38.1-.78,0.14-1.17,0.21l-0.1-.31,4.17-2c-1.26-1-2.35-.21-3.4.23s-2.09,1.05-3.37,1.71l3-2.54m6.6-138.52L80,77.3a3.64,3.64,0,0,1,.25-0.84c1.22-2.1,2.44-4.21,3.7-6.29,0.67-1.11,1.13-2.42,2.41-3C88.78,66.09,91.17,65,93.59,64a25.53,25.53,0,0,1,4.06-1.38c1.43-.32,2.92-0.35,4.39-0.55a13.64,13.64,0,0,0,3.42-.6,4.08,4.08,0,0,1,2.17-.4c0.46,0.06.94,0.08,1.41,0.1,1.25,0.07,2.51.11,3.75,0.25a1,1,0,0,1,.5.72c0.19,1.21.24,2.46,0.49,3.65,0.32,1.5.79,3,1.16,4.32-1.62.58-3.16,1.09-4.66,1.69a13.68,13.68,0,0,0-3.06,1.5,2.24,2.24,0,0,1-2,.3,4.58,4.58,0,0,1,1.14-.83c1.33-.65,2.7-1.24,4-1.93a3.28,3.28,0,0,0,.78-1c-0.48-.16-0.95-0.35-1.43-0.47a0.92,0.92,0,0,0-.55.18c-2,1.11-4,2.24-6.05,3.35a12.74,12.74,0,0,1-1.32.55l-0.13-.26c0.36-.31.72-0.63,1.1-0.92s0.83-.58,1.27-0.88a2.61,2.61,0,0,0-3.47.47A5.45,5.45,0,0,1,99.23,73,1.32,1.32,0,0,1,98,72.93a1.44,1.44,0,0,0-1.7-.16c-0.42.16-.85,0.28-1.27,0.42-1.26.41-2.69,0.24-3.82,1.1-1.48,1.12-2.89,2.35-4.44,3.38-0.88.58-1.36,2-2.75,1.59a2.74,2.74,0,0,1-.79-0.59,7.28,7.28,0,0,1,.87-0.84c0.22-.15.59-0.08,0.79-0.24,2-1.52,3.89-3.09,5.85-4.61a18,18,0,0,1,1.84-1.09,5.17,5.17,0,0,0-1.17-.47c-2-.19-2.95,1.6-4.53,2.29a8.06,8.06,0,0,1,1.34-1.61c0.57-.52,1.2-1,1.8-1.45l0-.28a2.48,2.48,0,0,0-1.21-.11c-1.62.93-3.24,1.9-4.06,3.72a12.37,12.37,0,0,1-.9,1.68,19.78,19.78,0,0,1-1.31,1.71,6.89,6.89,0,0,1-.72.67,29.64,29.64,0,0,1,2.87-5.47A54.35,54.35,0,0,1,88.77,68c-1.08-.6-1.85.19-2.69,0.5A1.51,1.51,0,0,0,85,70a1.36,1.36,0,0,1-.22.77c-0.36.47-.87,0.84-1.19,1.33-1.13,1.74-2.2,3.52-3.29,5.28m91.93,21.3a3.1,3.1,0,0,0-2.57.89,0.39,0.39,0,0,0,0,.34,0.32,0.32,0,0,0,.3.07c0.75-.42,1.48-0.86,2.22-1.29M171.76,97c-3.23-3.51-7-3.48-11.12-2.59,0.71-1.15,1.26-2.08,1.86-3a12.31,12.31,0,0,1,1.27-1.66,4.22,4.22,0,0,1,1.45-1.18,9.8,9.8,0,0,1,4.95-.23,8.75,8.75,0,0,1,4.48,1.73c0.47,0.4,1,.7,1.47,1.13a11.48,11.48,0,0,1,2.39,2.51,29,29,0,0,1,1.67,4.5c0.55,1.6,1.05,3.22,1.55,4.75-0.69-.15-1.32-0.34-2-0.43-0.49-.07-1,0.05-1.5,0a5.12,5.12,0,0,0-3.09.37,1.47,1.47,0,0,1-.39,0,13.39,13.39,0,0,0-2.47.47c-1.08.41-2.05,1.08-3.12,1.51s-2.26.78-3.41,1.13c-0.74.22-1.49,0.39-2.24,0.58-0.35.11-.65,0.53-1,0.62a9.5,9.5,0,0,1-2,.12,2.54,2.54,0,0,1-1.1-.07,5.88,5.88,0,0,1-3.36-4.87,0.67,0.67,0,0,1,.16-0.52c0.81-.19.9-0.65,0.65-1.37a0.85,0.85,0,0,1,.34-0.64c1.55-1.2,3.07-2.43,4.69-3.52a8.06,8.06,0,0,1,2.12-.7l0.1,0.29-0.4.22a15.53,15.53,0,0,0-6.48,6.46,2.49,2.49,0,0,0-.1.78c0.84-.72,1.35-1.57,2.08-2.14,2.16-1.68,4.38-3.27,6.63-4.83a4.54,4.54,0,0,1,1.59-.36l0.08,0.27-0.62.41c-1.44.93-2.9,1.84-4.33,2.79a1.91,1.91,0,0,0-.82,1.86c2.35-1.46,4.69-2.93,7-4.37a3.27,3.27,0,0,1,1-.22,5.89,5.89,0,0,1-1.45,1c-1.1.67-2.22,1.34-3.26,2.1a2.62,2.62,0,0,0-.35,1.18L171.76,97M133.17,45.87c2.13,1.25,4.55,1.89,5.17,1.37-1.08-1.35-2.67-1.69-4.2-2.1a2.55,2.55,0,0,0-1,.74m0.4-3.19a10.07,10.07,0,0,0-1.34.41,0.65,0.65,0,0,0-.27.55,1.3,1.3,0,0,0,.68.6c1.59,0.33,3.19.6,4.8,0.87A2,2,0,0,0,138,45a1.31,1.31,0,0,0-.16-0.67c-1-.53-1.92-1-2.92-1.47a5.48,5.48,0,0,0-1.37-.21m16.66,6.62,0.11-.46a5.49,5.49,0,0,0-1.51-.78c-1-.17-2.09-0.13-3.14-0.21A2.44,2.44,0,0,1,145,47.6l0.11-.26h2.95a3.57,3.57,0,0,0-3-1.69c-0.66-.07-1.42-0.11-1.54-0.87l1.93-.51c-1-1.39-2.25-.86-3.17-1a2,2,0,0,0,.3-0.94,1.75,1.75,0,0,0-1.84-.63,1.25,1.25,0,0,0-.79.6A1.3,1.3,0,0,0,140.3,44,6.59,6.59,0,0,1,142,45.95a20.5,20.5,0,0,1,2.15,4.87c0.21,0.9-.38,2,0.87,3-1.63.31-2.9,0.53-4.16,0.81a13.26,13.26,0,0,0-1.6.6L138.73,55a30.77,30.77,0,0,1,3.79-1.38,1.14,1.14,0,0,0,.73-0.63c0-.6-0.45-0.69-1-0.56-1.5.39-3,.82-4.5,1.16a20.52,20.52,0,0,1-3,.42,3.33,3.33,0,0,1-1.16-.52l4.71-1.87,0-.42a5.57,5.57,0,0,0-1.51-.13c-1.45.28-2.88,0.68-4.33,1a5,5,0,0,1-1.25-.06l0-.21,3.21-.81a1,1,0,0,0-1.4-1c-1.13.16-2.24,0.43-3.36,0.6a2.8,2.8,0,0,1-1-.22L129.5,50l1-.53a2.68,2.68,0,0,0-.45-0.81c-0.5-.42-0.26-0.79-0.06-1.22a23.25,23.25,0,0,0,1.1-2.58,23.44,23.44,0,0,0,.54-2.54c1.48-.66,3,0.74,4.56-0.25-1.29-1.66-2.83-1.37-4.51-.85l0.17-1.14c0.71,0.87,1.1.54,1.53-.15a2.61,2.61,0,0,0-.95-0.5c-0.89,0-1-.52-1.17-1.25s-0.57-1.65-.81-2.49-0.36-1.54-.53-2.32l0.35-.23c1.61,0.56,3.23,1.08,4.81,1.7,2.63,1,5.23,2.13,7.84,3.2,0.81,0.33,1.63.63,2.42,1a26.58,26.58,0,0,1,2.91,1.5,16.27,16.27,0,0,1,2.47,1.91c1.58,1.49,3.1,3,4.64,4.57,0.57,0.56.23,0.92-.28,1.22-1.14.68-2.26,1.37-3.43,2a1.51,1.51,0,0,1-.94.08c-1.49-.29-3-0.6-4.46-0.95a2.16,2.16,0,0,1-.67-0.55c1.67-.1,3.08.76,4.6,0.42M71.64,149.14c0.74-.41,1.43-0.81,2.13-1.18a4,4,0,0,1,3.49-.34,14.31,14.31,0,0,1,6,5,10.48,10.48,0,0,1,2.47,6.49,42.56,42.56,0,0,0,.45,4.87c-0.8-.17-1.45-0.35-2.12-0.43-1.18-.14-2.36-0.18-3.54-0.3-1.46-.15-2.93-0.26-4.38-0.52A49.69,49.69,0,0,1,71,161.58a10.77,10.77,0,0,1-2.94-1.35,11,11,0,0,1-1.78-1.91,1.79,1.79,0,0,0-.47-0.5c-1.9-.82-1.46-2.71-1.87-4.19a1.3,1.3,0,0,1,.7-0.54c0.79,0.53,1.39,0,1.94-.35a9.08,9.08,0,0,0,2-1.6c0.86-.95,1.74-0.56,2.57-0.15a20,20,0,0,1,4.76,3.9,11.53,11.53,0,0,0,2.16,1.46,1.49,1.49,0,0,0,.75-0.12,1.21,1.21,0,0,0-.22-0.59,3,3,0,0,1-1.69-2.1,0.92,0.92,0,0,0-.35-0.34l-4.93-4.07m51.54-82.82c0.82,0.83,1.52,1.52,2.19,2.23a2.33,2.33,0,0,1,.38.66A11.72,11.72,0,0,0,127,71.83a2.82,2.82,0,0,1,.59,1.89,11.52,11.52,0,0,0,.25,3,10.66,10.66,0,0,0,1.66,3.19c1,1.32,2,2.76,3.73,3.28a2.34,2.34,0,0,1,.68.73l-0.81.39c-1.9.9-3.79,1.82-5.7,2.7a1.41,1.41,0,0,1-1.75-.36c2-.83,4.14-1.4,5.9-2.78a3.64,3.64,0,0,0-1.75,0c-1.54.52-3,1.17-4.55,1.73a0.93,0.93,0,0,1-1.38-1l3.33-1.21c-1.6-1-2.84.21-4.22,0,0-.86,0-1.69,0-2.52a5.45,5.45,0,0,1,.08-1.18c0.35-1.48.78-2.94,1.11-4.42,0.19-.84-0.2-1.11-1-1-1.25.12-1.19,1.28-1.52,2a11.69,11.69,0,0,0-.82,3.4,11.56,11.56,0,0,0-.14,3.34c0.18,1.13,1.2,2,1.37,3.21a1.31,1.31,0,0,0,.4.43c0.61,0.67,1.51,1.13,1.57,2.23a1.15,1.15,0,0,0,.78.4c0.59,0.09,1.2.09,1.94,0.13l-2.21,1.53a2.49,2.49,0,0,0,.94.32,13.23,13.23,0,0,0,2.86-.91c1-.52,1.72-0.15,2.64.23l-2.74,1.75c0.23,0.74.76,0.49,1.18,0.32,1-.42,2-0.91,3.09-1.34a3.65,3.65,0,0,1,1-.11,0.58,0.58,0,0,1-.26.47c-0.91.48-2.08,0.74-2.68,1.46-1.29,1.56-2.92,1.3-4.55,1.36a6.41,6.41,0,0,1-2.26-.69,8.28,8.28,0,0,1-3.39-2.38c-0.77-.82-1-2.09-1.75-3-1-1.26-.69-3.16-2.08-4.21a0.84,0.84,0,0,1,0-.35,15.52,15.52,0,0,0-.22-3.82,4.94,4.94,0,0,1,.58-4.08q1.73-3.11,3.69-6.09c0.78-1.2,1.76-2.27,2.68-3.45M114.28,118l0.17,0a15.84,15.84,0,0,0,1.24,3.24,29.78,29.78,0,0,0,3.38,4.19c0.73,0.77.68,1.32,0,2.19l-3.39-4.28-0.33.28a5,5,0,0,0,.44,1.53,25.71,25.71,0,0,0,2.53,3.06,1.4,1.4,0,0,1,.34,2.06c-0.5-.32-0.67-1.25-1.57-0.89a3,3,0,0,0,.31,1.34,4,4,0,0,1,1.41,2.51,3,3,0,0,0,.63,1,2.11,2.11,0,0,0,.28-0.42c0.49-1.78.95-3.57,1.47-5.33a1.35,1.35,0,0,1,.68-0.75c0.55-.25.69-0.53,0.25-0.94a0.89,0.89,0,0,1-.07-1.37l2.21,0.54c-0.44-.81-0.86-1.53-1.22-2.28a2.37,2.37,0,0,1-.06-0.84,3.41,3.41,0,0,1,.77.57,8.25,8.25,0,0,1,.65,1.15l0.31-.11L124,121l-0.3,0,1.26-1.75c-0.45,1.27.16,2.31,0.57,3.36a2.82,2.82,0,0,0,.67.73,2.12,2.12,0,0,0,.48-0.85,14,14,0,0,0-.3-1.94l1.29,1.9c0.62-1.13,0-4-.79-4.58l-1,.89c0.41-1.42,1.55-1.21,2.47-1.3a16.33,16.33,0,0,0,.22,2.54,3,3,0,0,0,.9,1,3.3,3.3,0,0,0,.61-1.17,6.63,6.63,0,0,0-.32-1.71c-0.17-.74.08-1.13,0.84-1.06a4.89,4.89,0,0,0,.25,3.12,2.29,2.29,0,0,0,1,.62,2.42,2.42,0,0,0,.42-1c-0.07-.91-0.26-1.8-0.41-2.7-0.12-.69,0-0.78.65-0.81a26.45,26.45,0,0,1,.94,2.86c0.19,0.88,1.37,1.38.89,2.5a2.16,2.16,0,0,0,.53.6,2,2,0,0,0,.25-0.73c-0.26-1.6-.49-3.22-0.87-4.79-0.23-.94-0.32-1.39.05-1.64,0.72,1.57,1.46,3.14,2.18,4.73,0.29,0.64.69,1.3,0,2s-1.19,1.08-1.72,1.67c-0.71.78-1.88,1-2.36,2.08a3.64,3.64,0,0,1-1,1c-0.89.79-1.82,1.54-2.7,2.34a10.1,10.1,0,0,0-.6.85c-0.93,1-1.84,2.11-2.83,3.1-0.61.61-.72,1.59-1.66,2-0.5.21-.44,0.75-0.17,1.39a0.89,0.89,0,0,1-.35.39,2,2,0,0,0-.34.12c-0.81,1.27-1.6,2.55-2.42,3.86l0.74,0.27a2.52,2.52,0,0,0-1,.58c-0.17.59-.47,0.8-1,0.58a2.45,2.45,0,0,1-1.13-.73c-0.77-1.23-1.31-2.62-2.18-3.77-1.19-1.56,0-3.6-1.3-5.15-0.46-.56-0.32-1.62-0.45-2.46a33.64,33.64,0,0,1-.19-9.05c0.11-1,.33-2,0.5-3m-64,91.58c-2.83.46-4.57,2.36-6.65,3.67-2.53,1.6-5,3.37-7.82,4.38a3.9,3.9,0,0,1-.8.11L35,217.41l6.78-4-0.1-.21-1.42.58a18.39,18.39,0,0,1-8.07,1.56,18,18,0,0,1-3.55-.84c-0.47-.12-0.93-0.27-1.4-0.38a0.49,0.49,0,0,0-.31.1,0.82,0.82,0,0,0,.14.49c1.15,0.9,2.27,1.84,3.49,2.62a41.83,41.83,0,0,0,3.93,2.17,5,5,0,0,0,1.86.57,59.6,59.6,0,0,0,7.43.22,11.7,11.7,0,0,0,4.12-1.41c2.6-1.27,5.13-2.67,7.68-4,0.83-.45,1.58-1.06,2.43-1.45,1.94-.89,3.7-2.21,5.93-2.43,1-.1,1.95-0.52,2.94-0.6a17.46,17.46,0,0,1,8.29.85A42.69,42.69,0,0,0,79.93,213c-0.8-.8-1.56-1.64-2.41-2.39a12.83,12.83,0,0,0-5.3-3.05c-1.61-.39-3.19-1-5-0.76s-3.67.24-5.49,0.47a5.51,5.51,0,0,0-1.53.88c-0.95.5-2,.9-2.86,1.47-1.46.91-2.85,1.93-4.28,2.9a1.65,1.65,0,0,1-.66.28,13,13,0,0,1,6.39-5.2,1.31,1.31,0,0,0-.54,0A25.34,25.34,0,0,0,53.52,210c-1.11.74-2.06,1.63-3.09,2.42s-2.14,1.85-3.2,2.77c-0.59.51-1.2,1-2,1.68a2.09,2.09,0,0,1,.11-0.78,25.6,25.6,0,0,1,5.74-5.19c1.17-.78,2.29-1.62,3.54-2.5a5.57,5.57,0,0,0-3.3.91c-2.21,1.8-4.33,3.71-6.55,5.5-1.51,1.23-3.12,2.34-4.69,3.49a1.68,1.68,0,0,1-.58.15l-0.16-.26,11-8.7m110.31-138h0c0.78,0.4.31,1,.05,1.53a1.33,1.33,0,0,1-.8.7,1,1,0,0,1-.76-0.56,2.09,2.09,0,0,1,.57-1.07,4.21,4.21,0,0,1,1-.6m-0.4,9.83h0a2.13,2.13,0,0,1-.73-0.54,0.71,0.71,0,0,1,.29-0.63,16.65,16.65,0,0,1,2-.84,0.65,0.65,0,0,1,.55.19,0.53,0.53,0,0,1-.11.5c-0.65.46-1.33,0.87-2,1.32m0.11-6.88h0a11.84,11.84,0,0,0,1.39-1.28c0.62-.77.95-0.82,1.63-0.06-0.31.45-.61,0.92-0.94,1.36-0.69.91-1.29,0.95-2.08,0m0.34,3.78h0a3,3,0,0,1,2.06-1.79,3.5,3.5,0,0,1,1,.33,2.36,2.36,0,0,1-.47.87c-0.74.52-1.43,1.35-2.57,0.59M158,83h0c1.06-1.29,3.35-1.84,4-1-1,1.23-3.06,1.77-4,1m-2.27-2.9a9.86,9.86,0,0,0,.8-1.76,11.63,11.63,0,0,0,.27-2.53,5.34,5.34,0,0,0,.08-2,2.73,2.73,0,0,1,.68-0.54,2,2,0,0,1,.42.8,42.07,42.07,0,0,1-.38,4.73,15.18,15.18,0,0,1-1,2.8,1.15,1.15,0,0,0-.13.24c-0.07,1.08-.13,2.16-0.19,3.26,1.82,0.22,3.21-1.56,5.28-1a7.62,7.62,0,0,1-4.81,2.28c-0.26.62,0,.88,0.62,0.72,1.09-.29,2.17-0.64,3.22-1a1.36,1.36,0,0,1,1.71.48c-1.41,1.53-3.4,1.42-5.31,2.11a2.23,2.23,0,0,0,1,.43,23.83,23.83,0,0,0,2.64-.65c0.25-.07.47-0.26,0.71-0.31a5.9,5.9,0,0,0,3.79-2.53c0.75-1,1.85-1.8,2.69-2.77,1.76-2,1.94-4.48,1.54-7-0.2-1.28-.1-2.67-0.94-3.76-1.17-1.52-2.19-3.19-4.21-3.86a15.61,15.61,0,0,0-6.07-.58,4.52,4.52,0,0,0-3.26,2.14,7.63,7.63,0,0,0-1.15,5.54,12.94,12.94,0,0,0,1.29,3.1c0.19,0.44.4,0.88,0.74,1.65m-48.2,2.07c-4.29.66-9.19,3.8-8.54,5.23,2.65-1.41,5.31-2.82,7.94-4.26a2.87,2.87,0,0,0,.59-1m-7.88-5-0.09-.37a5.21,5.21,0,0,0-.72-0.17c-1.66-.16-2.85.9-4,1.74-1.52,1.07-2.84,2.43-4.3,3.6a2.72,2.72,0,0,1-1.4.59A2.57,2.57,0,0,1,88.06,82a3.91,3.91,0,0,1,.59-0.81,39.74,39.74,0,0,1,3.24-2.53c1.56-1,3.22-1.93,4.82-2.92a6.44,6.44,0,0,0,.89-0.83,12,12,0,0,1,3.58.08c1.14,0.36,2.26.11,3.36,0.4s2.39,0.5,3.59.74c0.13,1.18.24,1.33,1.31,0.82,1.37-.66,2,0.72,3,0.92a5,5,0,0,1,1.44.79l0,0.19c0.1,1.07.18,2.14,0.32,3.2a9.92,9.92,0,0,0,.39,1.89c0.2,0.59,0,.79-0.55.84-1.21.12-2.42,0.24-3.63,0.4-0.79.11-1.57,0.29-2.35,0.43l0-.14,1.9-1.24-0.06-.35a7.15,7.15,0,0,0-1.22.13c-2.43.69-4,2.68-6.11,4-1.51.94-2.72,1.84-4.37,0.52a1.84,1.84,0,0,0-.36-0.13L95,87l8.08-5a1.26,1.26,0,0,0-1.89-.43c-1.34.78-2.66,1.61-4,2.48-1.09.73-2.12,1.54-3.2,2.34a2.51,2.51,0,0,0-.52-0.63c-1-.55-0.3-1,0.14-1.3,0.68-.51,1.43-0.92,2.14-1.37,1.17-.76,2.34-1.51,3.5-2.29,0.82-.55,1.61-1.14,2.54-1.81a1.61,1.61,0,0,0-2-.15c-2.37,1.6-4.75,3.2-7.16,4.75a10.23,10.23,0,0,1-1.89.74c-0.21-.76-0.22-1.15.44-1.28a2,2,0,0,0,.72-0.49c1.37-1.06,2.69-2.18,4.11-3.18,1.17-.82,2.43-1.51,3.65-2.26M143.53,220c-0.26.57-.55,1.14-0.77,1.73a0.6,0.6,0,0,0,.25.45,0.46,0.46,0,0,0,.39-0.17c0.22-.61.39-1.24,0.58-1.86l-0.45-.15m-5-9.22c-1,.51-1.1,1-0.56,1.59a1.65,1.65,0,0,0,.81.13l-0.25-1.72m1.83,1.86a1.92,1.92,0,0,0,.09,2.94,2.32,2.32,0,0,0-.09-2.94m2.15,2.44c-1.24,1.22-1.71,3.6-.92,4.7,1-.88,1.59-4,0.92-4.7m-0.17,8-0.37-.12a4.73,4.73,0,0,1-.61.77,0.81,0.81,0,0,1-.66.18c-1.59-.59-3.13-1.33-4.74-1.83-1.88-.58-1.9-0.49-1.82-2.4,0-.27,0-0.53,0-0.8-0.05-1-.1-2-0.17-3-0.14-2.07-.25-4.14-0.47-6.2-0.13-1.19.08-1.46,1.26-1.55a12.55,12.55,0,0,1,6.36,1.52,31.2,31.2,0,0,1,4.31,2.76c1.87,1.31,3.05,3.14,4.47,4.79a1.19,1.19,0,0,1,.18.83c-0.24,2.07-.49,4.14-0.8,6.21a5,5,0,0,1-.54,1.22l-0.23-.1,0.69-8.17-0.35-.1a3.33,3.33,0,0,0-.52.82,22.89,22.89,0,0,0-.79,3.4c-0.23,2-.27,4-0.45,6a4.17,4.17,0,0,1-.53,1.2l-0.18-.09,1-9.06-0.55-.11c-1.37,2.46-1.22,5.34-1.79,8.07-1.24-.88-0.69-2-0.6-3s0.22-2.08.34-3.12l-0.34-.07c-1.15,1.11-1,2.77-1.6,4.11l-0.28,0-0.2-2.11m11.45,8h-5.71a11.83,11.83,0,0,1,1.16-2.82,11.06,11.06,0,0,1,6.29-5.2,27.6,27.6,0,0,1,3.11-.78,1.25,1.25,0,0,1,1.65.66c0.62,1.4,1.38,2.74,2,4.15a11.58,11.58,0,0,1,1,3.35c0,0.22,0,.43,0,0.65H157.9c-0.09-.25-0.19-0.5-0.3-0.74a2.54,2.54,0,0,0-1-.62l-0.1,1.36H155.1a5.2,5.2,0,0,0-1.28-2.12,7.58,7.58,0,0,0-.12,1.82ZM59.41,146a3.57,3.57,0,0,0-3.17,1.14,1.72,1.72,0,0,0-.32.77c-0.17.59-.32,1.18-0.47,1.77-0.25,1-1,1-1.78.8-0.44-.1-1-0.3-0.62-1a2.52,2.52,0,0,0,.23-1.33,1.1,1.1,0,0,0-.57-0.83,2.09,2.09,0,0,0-1.47.09,7.06,7.06,0,0,0-2.48,3.85,30,30,0,0,0-1.36,5.15,21.68,21.68,0,0,0,.26,3.4c0,1.78,1.24,2.94,2.08,4.3a0.85,0.85,0,0,0,.75.31c2.31-1.24,4.81-2.27,6.81-3.89,2.17-1.75,4-4,4-7.14a0.75,0.75,0,0,1,.13-0.46c0.7-.85.21-1.46-0.36-2.09-0.95-1-1.27-2-1.68-4.81M128,59.57c1-.7,2.73,0,3.24-1.76a1.46,1.46,0,0,0-.53-0.16c-0.81.08-1.62,0.18-2.42,0.31s-1.37.22-1.56-.76c1.8,0.07,2.8.27,3-1.23-1.27-.14-2.54-0.25-3.79-0.45a6,6,0,0,1-1.37-.61l2.19-1.15a8.44,8.44,0,0,0-4.71.05,2.89,2.89,0,0,0-.56-0.65,0.93,0.93,0,0,0-.72-0.1,0.85,0.85,0,0,0-.42.52,2.56,2.56,0,0,0,.78.83c1.21,0.72,2.61,1.15,3.4,2.49,1.6,2.72,3.4,5.37,3.17,8.75a2.67,2.67,0,0,0,.05.29c0,0.89.11,1.78,0.11,2.67a3,3,0,0,1-.53.9c-0.82-1.58-1.62-2.9-2.2-4.31-0.65-1.57-1.24-1.77-2.48-.66a1.34,1.34,0,0,1-1.08.37,32.63,32.63,0,0,1-3.2-1.94c-1-.68-2-1.44-3-2.17v-1.3c1.12,0.75,2.15,1.54,3.27,2.18,1.33,0.76,3,.94,3.43.46a9.08,9.08,0,0,1-1.44-.61c-1.19-.76-2.37-1.54-3.51-2.38-1.77-1.29-1.8-1.4-1.5-2.73,1.69,1.94,4.11,2.9,4.83,1.91a3,3,0,0,0-.29-0.26c-1.36-.94-2.73-1.86-4.06-2.84a0.77,0.77,0,0,1,0-1.4c1.83,2,1.83,2,2.75,1.1l-3-2.8c1,0.21.75-.59,0.72-0.87A2.59,2.59,0,0,1,117.79,49a2.22,2.22,0,0,1,1.68-.33A22.65,22.65,0,0,1,128,52c1.93,1.3,3.94,2.5,5.88,3.8a1.11,1.11,0,0,1,.43.93c-0.38,1.24-.54,2.68-2.28,2.91a8.52,8.52,0,0,1-4-.11M97.75,173c-0.81-.93-0.15-3.91.88-4.2l0.7,2.08,0.32-.07a18.09,18.09,0,0,1,.59-2.52,2.91,2.91,0,0,1,1.09-1.51,16.64,16.64,0,0,1,6.91-1.86c3-.17,6.1-0.24,9.17-0.35-3,2.76-6.5,7.93-6,8.53,1.42-1.61,2.83-3.24,4.28-4.85,1-1.11,2-2.19,3.06-3.25a2.18,2.18,0,0,1,1.28-.82,5.06,5.06,0,0,0,2.5-.46,31.19,31.19,0,0,0,3.3-1.28c1.08-.54,2.05-1.27,3.08-1.92l0.28,0.2c-0.6,1-1.14,2-1.8,3-0.93,1.33-1.9,2.64-2.94,3.89a12,12,0,0,1-2,1.83c-1.13.85-2.32,1.62-3.48,2.42l-0.08-.41a32.69,32.69,0,0,1-4.46,1.83,7.49,7.49,0,0,1-4.66-.07l0.88-2.34,0.25,0.16,4.47-6.12a1.27,1.27,0,0,0-.58,0c-1.81,1.8-3.61,3.61-5.51,5.53l1.9-3.22-0.26-.21c-2.14,1.2-3.23,3.31-4.37,5.45-2.89,0-5.95-1.53-8.81.53M142,96.22l1-1.28-0.32-.31c-0.36.31-.74,0.61-1.07,1a3.22,3.22,0,0,0,.4.64m2.76-1.8q-2,.71-0.85,1.73c0.49-.47,1.14-0.83.85-1.73m1.9-.56a2.11,2.11,0,0,0-.56.57,11,11,0,0,0-.48,1.66,1.44,1.44,0,0,0,.12.56,1,1,0,0,0,.48-0.2c0.3-.79.56-1.59,0.83-2.39l-0.38-.21m6.48-1.17a9.24,9.24,0,0,0-.48.84c-0.88,2-1.72,4-2.65,6a3.28,3.28,0,0,1-1,.84,0.63,0.63,0,0,1-.13-0.58,10.84,10.84,0,0,0,2-5,2.19,2.19,0,0,0,0-.5,1.44,1.44,0,0,0-.59.15,2,2,0,0,0-.43.65c-0.59,1.23-1.15,2.47-1.76,3.69a1.34,1.34,0,0,1-.49.33,1.69,1.69,0,0,1,0-.59c0.46-1.35,1-2.69,1.43-4l-0.42-.23a3.12,3.12,0,0,0-.62.68,15.16,15.16,0,0,0-1,2.51c-0.22.81-.66,0.79-1.25,0.6-0.85-.28-1.69-0.57-2.53-0.86a2.59,2.59,0,0,0-2.18.63,1.45,1.45,0,0,0-.71,0c-1,.72-1.41.21-1.7-0.67a3.52,3.52,0,0,1-.26-1.13,7.45,7.45,0,0,1,.95-3.83c1.34-2.24,2.83-4.12,5.78-4,0.58,0,1-.07.73-0.85a0.66,0.66,0,0,1,.36-0.52,43.06,43.06,0,0,1,4.8-.78,4.6,4.6,0,0,1,2.71.52c1.25,0.82,1.7,2.35,2.41,3.63a1.19,1.19,0,0,1-.24,1.81,3,3,0,0,1,1,3.24c-0.11.52-.37,1-0.45,1.52-0.19,1.24-1.26,1.86-1.91,2.78a1.3,1.3,0,0,1-.59,0,12.73,12.73,0,0,0,1.21-6.34,1.23,1.23,0,0,0-.61.65c-0.43,1.46-.78,2.94-1.24,4.4-0.34,1.09-.64,1.2-1.69.88,2.24-5.29,2.34-5.67,1.6-6.35m-62.5.82c-0.6-1-1.19-1.73-2.16-.21a20.43,20.43,0,0,1-2.25,2.54c0.6,1.68,1.79,3.13,1.89,5-1.69-1-2-2.78-2.57-4.35-0.89.29-1,.7-0.57,1.63a57.39,57.39,0,0,0,4.43,7.4,5.28,5.28,0,0,1,.72.92,1.3,1.3,0,0,1,0,1.08,0.74,0.74,0,0,1-1.25-.2c-1.37-2-2.74-4.09-4.07-6.17a26.87,26.87,0,0,0-1.69-2.69,2.81,2.81,0,0,0,.13,1.16c1.49,2.29,3,4.6,4.56,6.81,1.46,2,3.07,3.9,4.62,5.84,0.4,0.5.46,0.93-.31,1.27a56,56,0,0,1-10.11-13.12l-0.32.08a4.6,4.6,0,0,0,.26,1.46c1.08,2,2.14,3.92,3.39,5.77a33.82,33.82,0,0,0,2.94,3.38c0.57,0.64,1.17,1.25,1.71,1.92,0.78,1,2,.71,3,1.1a3.31,3.31,0,0,0,4.36-1.41,2.57,2.57,0,0,1,1-.51L98,111.74c-1-.15-2-0.32-3-0.45a4,4,0,0,1-2.12-2.53,33.75,33.75,0,0,1,.24-3.95,35.47,35.47,0,0,1,1.19-4,1.19,1.19,0,0,0,.14-0.25c-0.14-1.46.69-2.66,1.07-4A13.73,13.73,0,0,0,95.81,94c0.1-1.14.16-2.29,0.18-3.44a1,1,0,0,0-.42-0.75,11.52,11.52,0,0,0-1.71-.49c0.47,2.08,1.39,4,.68,6.08-1.47-.73-1-2.06-1.29-3.06a23.49,23.49,0,0,1-.49-2.6A11.33,11.33,0,0,0,90.85,91,1.47,1.47,0,0,0,91,92.17c0.26,0.55.4,1-.32,1.34m-64.49,38h0a2.45,2.45,0,0,1-.69-0.89,2.14,2.14,0,0,1,.62-0.77,1.9,1.9,0,0,1,.48.69,2.7,2.7,0,0,1-.41,1m-2.43-1.86h0l0.46,0.08a12.68,12.68,0,0,1,0,1.49,0.61,0.61,0,0,1-.44.39,0.75,0.75,0,0,1-.49-0.44,12.4,12.4,0,0,1,.49-1.51M29,129h0c0,0.69,0,1.3,0,1.9a0.76,0.76,0,0,1-.49.47,0.69,0.69,0,0,1-.58-0.23c-0.32-.43.4-1.95,1.1-2.14m1.3,3.06h0c-0.65-.93.12-1.88,0-2.78a0.71,0.71,0,0,1,1.12-.73c-1,1,.61,2.59-1.12,3.51m1.45,0.67h0L32,132.5a7.87,7.87,0,0,0,.53-1.21c0.33-1.23.59-2.48,0.91-3.71a1.06,1.06,0,0,1,.43-0.31,1.06,1.06,0,0,1,.26.47c-0.31,1.59-.62,3.18-1,4.75a1.14,1.14,0,0,1-.75.49,1.36,1.36,0,0,1-.63-0.22m-0.3,8a11.3,11.3,0,0,1,3.45-4.43,3.3,3.3,0,0,0,.48-1.45c0.61-1.85,1.26-3.68,1.82-5.55a8,8,0,0,0,.13-1.76l-0.48-.08-2.42,7.79-0.42,0a2.3,2.3,0,0,1-.18-1c0.85-2.47,1.71-4.95,2.66-7.38,0.37-.94.26-1.4-0.74-1.4-1.95,0-3.9,0-5.85.13a8.54,8.54,0,0,0-2.17.68,36.63,36.63,0,0,0-5.54,2.06,8.37,8.37,0,0,0-3.62,2.88,2.7,2.7,0,0,0-.15.44,9.67,9.67,0,0,1,4.46,3.25,8.33,8.33,0,0,0,1.79,1.32,7.41,7.41,0,0,1,.79.55,20.11,20.11,0,0,0,5.19,3.46,8.8,8.8,0,0,1,.8.52m13.91,20.16,0.4,0.17a3.71,3.71,0,0,1-.29,1.24c-0.49.75-1.12,1.41-1.65,2.13a1.27,1.27,0,0,0,0,.59,1.3,1.3,0,0,0,.62,0,5.21,5.21,0,0,0,.76-0.78l1.43-1.61,0.8,1.57L45.69,166l0.12,0.33a4.92,4.92,0,0,0,1.06-.19,6.86,6.86,0,0,0,1-.64c1.08,1.5,1.7,1.69,3.22.88,2.22-1.19,4.48-2.34,6.58-3.73a29.4,29.4,0,0,0,3.53-3.2l0.18,0.19c-0.78,1.19-1.45,2.4-2.31,3.46A49.81,49.81,0,0,1,55,167.74c-1.16,1.12-2.78,1.8-3.84,3-1.4,1.59-3.26,2.83-4.06,4.93a3.57,3.57,0,0,1-.48.73c-3.17-1.55-4.44-4.41-5.81-7-0.88-1.7-.86-3.84-1.44-5.72a7.65,7.65,0,0,1,1.44-7.13A20.91,20.91,0,0,1,43,153.68a9,9,0,0,1,2.19-1.17l0.2,0.29c-0.56.63-1.1,1.27-1.68,1.88A28,28,0,0,0,39.66,161c-0.23.43-.25,0.81,0.2,0.91a1.12,1.12,0,0,0,.82-0.56c0.74-1.25,1.34-2.58,2.13-3.8A34.11,34.11,0,0,1,45,154.7l0.4,0.21a14.12,14.12,0,0,1-.91,2.28c-0.67,1.1-1.56,2.07-2.24,3.18-0.47.77-1.36,1.4-1.07,2.53L41.86,163l0.67,1.1a5.36,5.36,0,0,0,.75-0.64c0.7-.85,1.38-1.73,2.06-2.59M38.44,146h0c-0.63-.69-1.28-1.34-1.85-2.05a1.7,1.7,0,0,1,0-.86,2,2,0,0,1,.76.2,10.24,10.24,0,0,1,1.14,1.12,1,1,0,0,1,0,1.59m-0.52,2.73h0a2,2,0,0,1-.4,0,0.7,0.7,0,0,1-.36-0.12c-1.44-1.21-2.92-2.38-3.58-4.25-0.23-.64-0.26-0.63.26-1L37,146.71a2.15,2.15,0,0,1,.93,2m1.48-4.51a4,4,0,0,1-1-.92,1.19,1.19,0,0,1,0-1.07,6.5,6.5,0,0,1,4-1.78,27.48,27.48,0,0,0,3.35-.3,1.47,1.47,0,0,0,.65-1.12,1.93,1.93,0,0,0-1.77-2l-0.2,0c-2.25-1.39-4.49-.49-6.69.1a5.65,5.65,0,0,0-4.25,4.69c-0.26,1.27-.58,2.53-0.76,3.81a1.53,1.53,0,0,0,.49,1.18c1.82,1.49,3.79,2.81,5.51,4.39,1.21,1.11,2.31.9,3.61,0.48a6.58,6.58,0,0,0,3.38-1.83,7.28,7.28,0,0,0,1.47-5.21,3.74,3.74,0,0,0-.81-1.74,2.39,2.39,0,0,0-2.27-1,6.81,6.81,0,0,0-4.8,2.32m24.38,30.69,2.34-3.77c-0.53-.94-1-0.67-1.47-0.06s-0.61,1-.91,1.52a1.77,1.77,0,0,1-.06-1.44c1-1.59,2.16-3.11,3.25-4.66-0.73-.52-1-0.55-1.47,0-0.79.89-1.51,1.83-2.26,2.76l-0.29-.16a13,13,0,0,1,1.2-2.22c0.78-.95,1.75-1.73,2.57-2.64A21.1,21.1,0,0,0,68,162.39c0.83,0.34,1.9.76,3,1.24a0.76,0.76,0,0,1,.28.57,27.51,27.51,0,0,1-.43,7.52,54.3,54.3,0,0,1-2.3,7.2,38,38,0,0,1-2.47,4.79,1.54,1.54,0,0,1-1,.71,9.89,9.89,0,0,1-3.57-3.16,11.88,11.88,0,0,0-2.13-2.15c-0.65-.58-1.39-1.06-2-1.51,2-2.46,2.17-5.56,4-8.09,0.14,1.14.23,2.11,0.38,3.09a17.52,17.52,0,0,0,.56,3c0.24,0.7-.46,1.84.75,2a1.8,1.8,0,0,0,.09,1.8,1,1,0,0,0,.93.24c0.38-.12.24-0.42,0.15-0.81a1.84,1.84,0,0,1,.32-1.86,2.1,2.1,0,0,0,.68-2.09l-1.42.08M56.35,129.6a10.49,10.49,0,0,1,2.34-5.4,8.29,8.29,0,0,1,6.92-2.94c1.7,0,3.4.15,5.1,0.18a1,1,0,0,1,1,1.1,12.36,12.36,0,0,1,.17,1.65c0,1.95.39,3.91-.26,5.83a11.85,11.85,0,0,1-2.26,3.33,5.66,5.66,0,0,1-2.9,1.83,2.21,2.21,0,0,1-1.53-.15,3.47,3.47,0,0,1-1.4-1.2,2.93,2.93,0,0,1-.62-2,16.59,16.59,0,0,1,2-3.64,21.69,21.69,0,0,1,1.8-1.7,2.57,2.57,0,0,0,.26-1.11,2.5,2.5,0,0,0-1.21,0,10.69,10.69,0,0,0-4.64,5,0.84,0.84,0,0,1-.7.4c-1.34-.34-2.67-0.75-4-1.15m45,0.94a11.23,11.23,0,0,1-.67-1.62c-0.39-1.68-.72-3.37-1.1-5a0.64,0.64,0,0,0-.47-0.38,0.66,0.66,0,0,0-.46.39,1.57,1.57,0,0,0,0,.79c0.46,2.25.63,4.57,1.87,6.61a2.83,2.83,0,0,1,0,1.35l-0.3,0c-0.24-.56-0.47-1.11-0.73-1.66-0.95-2-1.91-4-2.85-6-0.47-1-.82-2.11-1.38-3.08A2.35,2.35,0,0,1,95.4,119a3.18,3.18,0,0,0,.34-0.72l2-.59-0.29-.42c-0.26-.36-1-0.6-0.43-1.18a0.94,0.94,0,0,1,1.45-.06c0.78,0.6,1.65,1.07,2.48,1.59a0.93,0.93,0,0,0-.21-1.64,11.38,11.38,0,0,0-1.41-.86c-0.49-.24-1-0.47-0.72-1.11a1.07,1.07,0,0,1,1.58-.39c1,0.84,1.87,1.77,2.85,2.6a1.07,1.07,0,0,0,1,.06c0.41-.27.22-0.63-0.12-0.94-1.15-1-2.28-2.1-3.41-3.15a0.39,0.39,0,0,1,.15-0.06c1.45-.22,2.28.78,3.12,1.67s1.69,2,2.58,3a2.35,2.35,0,0,0,.87.36,2.76,2.76,0,0,0,.1-1,3.19,3.19,0,0,0-.64-1c-0.68-.84-1.37-1.67-2.14-2.61h1.48l-0.24.17a34.41,34.41,0,0,1,4.25,6.22l-0.28.29-1.42-.85c-0.56.42-.56,0.42-0.11,1.11a1.11,1.11,0,0,1-.81,1.77,5.91,5.91,0,0,0-.84.22c0.31,1.25.23,1.31-.88,1.66a1.7,1.7,0,0,0-.53.95c-0.18.46-.24,1-0.45,1.4a5.05,5.05,0,0,1-.73.9c-1,1.25-1.45,2.9-2.68,4.21m-21.64,13.2c-2.18,1.25-4.62,1.48-6.72,2.65a41.8,41.8,0,0,0-7.24,4.77,1.52,1.52,0,0,1-1.29.18,3.58,3.58,0,0,1-2.32-2.65,25.17,25.17,0,0,1-.22-4.14,0.76,0.76,0,0,1,.5-0.49,4.56,4.56,0,0,1,1.64-.23c2.26,0.3,4.5.71,6.76,1a2.39,2.39,0,0,0,1-.56,2.24,2.24,0,0,0-.62-0.91,11.71,11.71,0,0,0-2.32-.53c-1-.15-2-0.21-3.24-0.34,0.45-1.6.78-3.15,1.34-4.62a2.24,2.24,0,0,1,1.41-1.36,7.8,7.8,0,0,1,4.19.73c1.06,0.61,2.08,1.3,3.08,2a15,15,0,0,1,4,4.52m9.51-2.44a2.26,2.26,0,0,1-2,.78,46.77,46.77,0,0,0-5.94-.07c0.45,0.64.77,1.11,1.1,1.57,0.63,0.86.37,1.39-.69,1.62s-2.28.6-3.42,0.91l0,0.38a6.22,6.22,0,0,0,1,.55,7.2,7.2,0,0,1,3.15,2.32,11.88,11.88,0,0,0,2.29,2.21,2.77,2.77,0,0,0,1.76-.28,2.88,2.88,0,0,0,1.18-1A7,7,0,0,1,89.73,149c0.34-.17.73-0.24,1.05-0.44a0.69,0.69,0,0,0,.3-0.57,14.2,14.2,0,0,1-.61-5.75c0.09-1.31-.07-2.64,0-4,0-.73.3-1.44,0.36-2.17a1.06,1.06,0,0,0-1.05-1.33c-1.54-.21-3-0.66-4.59-0.84a1.76,1.76,0,0,0-1.1,1c-0.64,1.2-1.1,2.5-1.75,3.69A5.72,5.72,0,0,1,81,139.76a4.25,4.25,0,0,0-.64.69,0.48,0.48,0,0,0,.07.41,0.39,0.39,0,0,0,.34.11,11.44,11.44,0,0,1,5-.38c1,0.2,2.06.3,3.08,0.46a1.08,1.08,0,0,1,.33.26M18,160.13c1.26-.42,2.38-0.81,3.52-1.15a23.13,23.13,0,0,0,5-2.55,4,4,0,0,1,2.82-.76,4.36,4.36,0,0,0,2-.73,38.72,38.72,0,0,1-1.26-6.25,37.45,37.45,0,0,1,.72-6.22c-2.19.25-3.76,1.81-5.43,3.11a27.34,27.34,0,0,0-3.5,3.33,8.74,8.74,0,0,0-.93,2c-0.49,1-1.11,1.94-1.52,3A14.83,14.83,0,0,0,18,160.13m58.81-37.5c0.87,1.07,1.68,1.42,2.39,1.08-1-1.7-1.54-2-2.39-1.08M87,122.11c-0.62,1.46-1.22,2.69-1.69,4a40.08,40.08,0,0,1-1.93,4.42,13.88,13.88,0,0,0-1.61,4c-0.25,1.72-1.47,2.74-2.22,4.08a1,1,0,0,1-.9.33c-0.82-.67-2.17-0.85-2.17-2.32a3.22,3.22,0,0,0-.41-1.29c-0.64-1.34-1.34-2.65-2-4a4.88,4.88,0,0,1-.22-1.24l0.34-.1,2.29,4.1,0.89-.46a11.39,11.39,0,0,0-.51-1.58c-0.73-1.41-1.53-2.77-2.23-4.19a5.16,5.16,0,0,1-.24-1.48c1,0.8,1.69,1.67,3,1.58l-2.47-3.88,0.23-.15a18.53,18.53,0,0,0,2,1.6,2.48,2.48,0,0,0,1.2,0,3.78,3.78,0,0,0-.52-0.86c-0.82-.77-1.67-1.51-2.51-2.25l0.13-.29a55.9,55.9,0,0,1,11.56,0M23.89,143.79l0.31,0.36a10.45,10.45,0,0,0-1.21,1,23.12,23.12,0,0,0-3.19,3.67c-0.81,1.37-1.6,1.88-3,1.19h-0.2l-6-.6a5.47,5.47,0,0,0-1.24-.14c-1,.14-1.42-0.19-1-1.14a15,15,0,0,1,1.8-3.62c2.25-3,4.58-5.91,8.29-7.56v3.36l0.38,0.15a2.72,2.72,0,0,0,.76-1,5.87,5.87,0,0,0-.25-1.82c-0.22-1-.05-1.28,1-1.54l0.1,0.17c0.08,1.29.13,2.58,0.24,3.86a2,2,0,0,0,.47.72,1.53,1.53,0,0,0,.58-0.54c0-.85-0.15-1.69-0.22-2.54,0-.49,0-1,0-1.48l0.39-.11a6.15,6.15,0,0,1,.92,1.92c0.14,1.55,0,3.12,0,4.69a9,9,0,0,0-1.09.28c-1.79.72-4,.3-5.37,2.14a6.67,6.67,0,0,0-.43.81,3.78,3.78,0,0,0,1.16.05c0.42-.11.77-0.49,1.19-0.62,1.87-.56,3.76-1.08,5.64-1.61m11.29-20.56c-0.74-.63-1.51-1.23-2.21-1.9s-0.52-1.23.33-1.45a62.89,62.89,0,0,1,6.93-1.56,43.9,43.9,0,0,1,5.8-.05c0.73,0,2.2-1.17,2.06-1.82A3.61,3.61,0,0,0,47,114.88a8.58,8.58,0,0,0-1.91-1.52c-2.34-1.26-4.73-2.45-7.11-3.65a1.52,1.52,0,0,0-2.07.51c-0.59.73-1.34,1.33-1.93,2.07a14.83,14.83,0,0,0-2.44,5.09,31.89,31.89,0,0,0-1.27,5.5l-0.08.68h4.72l0.26-.32m19.25,22.28,1-2.5,0.35,0c0,0.34,0,.67-0.05,1s0,0.72,0,1.2c1.56-1.19.77-3.15,2-4.41v3.59c1.13-2.29.91-4.69,1.81-6.78,0.55,2.24-.07,4.33-0.84,6.4l0.25,0.21a1.66,1.66,0,0,0,.58-0.56c0.44-2.23.86-4.47,1.21-6.72a24.13,24.13,0,0,0,.2-3.16,1.36,1.36,0,0,0-.89-1.2c-1.57-.94-3.36-0.87-5-1.23a1.08,1.08,0,0,0-.91.27,8.53,8.53,0,0,1-4,2.52,1.07,1.07,0,0,0-.51,1.79c0.52,0.71,1.1,1.37,1.68,2.08-0.5.71-2.16-.39-3.06-2.19-0.17.41-.18,0.42,1.17,2.46,0.48,0.72,1,1.39,1.56,2.08l-0.2.18-1.91-1-0.25.29,2.24,2-0.17.3-2.15-1c-0.36.67,0.18,0.87,0.64,1.11,1.32,0.67,2.68,1.29,4,2a8.18,8.18,0,0,1,1.39,1.3m71.92-29.94c-1.38.46-1.81-.43-2.17-2a5.12,5.12,0,0,0-.3-0.73c-1.19,1.11.08,2.38-.5,3.5l-0.85-.69L121.94,117a3.14,3.14,0,0,1-.31-0.51c-0.5-1.42-1-2.82-1.46-4.26a17.38,17.38,0,0,1-.43-6.14,11.84,11.84,0,0,1,3.34-7.72,18.33,18.33,0,0,1,2.12-1.74,2.16,2.16,0,0,1,1-.43c1-.14,2.09-0.25,3.14-0.28,1.59-.05,3.19-1.22,4.78,0a0.56,0.56,0,0,0,.39,0c1.21-.2,1.7.54,2.07,1.53a3.78,3.78,0,0,1-.78.26,38.75,38.75,0,0,0-4.59.46,11.15,11.15,0,0,0-3.61,1.51c-1.5,1-1.9,2.71-2.33,4.35-0.19.74-.06,1.65-0.46,2.21a2.84,2.84,0,0,0-.2,2.75c0.43,1.42,1.09,2.78,1.53,4.2a12.68,12.68,0,0,1,.28,2.37M48,126.86c-1.23,0-2.47,0-3.7,0a1.88,1.88,0,0,0-.45.8,1.86,1.86,0,0,0,.76.36,23.69,23.69,0,0,0,2.73-.37,2.33,2.33,0,0,0,.74-0.51L48,126.86m1.52-1.59h0c-0.83.7-6.79,1.49-7.38,1,1.28-1.8,6-2.5,7.38-1m-4.05,10a31.17,31.17,0,0,1-2.88-1.93,5,5,0,0,1-1.94-3.06,21.6,21.6,0,0,0-1.45-3.57,1,1,0,0,1,.26-0.83,4.2,4.2,0,0,1,1.09-.64A26.41,26.41,0,0,1,49.28,123a2.91,2.91,0,0,0-.44-0.55,4.73,4.73,0,0,0-4.65-.34c-1.64.66-3.16,1.58-4.75,2.37a3.45,3.45,0,0,1-.83.19l-0.1-.27c1.55-1.67,3.69-2.53,5.64-3.81-2.78-.56-4.6.94-6.35,2.5-1.67-1.05-1.08-1.87.24-2.41l0.54-.2a15,15,0,0,1,5.84-.56,5.82,5.82,0,0,1,2.66.5,12.55,12.55,0,0,1,4.69,4.2,7.27,7.27,0,0,1,1.48,4.25,5.19,5.19,0,0,1-1.36,2.26,8.84,8.84,0,0,1-1.47,1.19c-0.2-1.08-.31-1.9-0.54-2.7a1,1,0,0,0-.72-0.46c-1-.2-2-0.34-3.17-0.54a1.8,1.8,0,0,0-.18.93c0.38,0.94,1.31.66,2,.74,1.38,2.53-.13,3.81-2.26,5m120.6,95.26a14.37,14.37,0,0,0,3.11-4,5.07,5.07,0,0,1,.72-1.14,1.32,1.32,0,0,1,1.79-.16c0.66,0.43.31,1,.06,1.43a17.72,17.72,0,0,1-3.07,4.36h5.11c0.22-.61.42-1.24,0.59-1.87,0.47-1.78,1-3.54,1.65-5.28,0.23-.65,0-0.77-0.55-0.9-3.16-.7-6.38-0.63-9.59-0.86a5.11,5.11,0,0,0-3,.67l3.14,7.76M99.34,138a0.83,0.83,0,0,0,.85-0.78,25.5,25.5,0,0,1,3.11-6.33c1.49-2.58,3.29-5,5-7.47,1.66,1,2.67,2.06,2.55,2.55-0.85-.17-1.48-1.2-2.74-0.71,1,1,2,1.89,2.82,2.82a5.05,5.05,0,0,1,.63,1.35c-2.11-1.29-2.57-1.4-3.31-.61a9.62,9.62,0,0,1,3.92,3.76c-1.17-.63-2.12-1.76-3.56-1.68l-0.16.31,3.33,2.81a1.1,1.1,0,0,1-1.52.16c-1.35-.8-1.63-0.74-2.23.18l1.49,1c-0.44.32-.74,0.58-1.08,0.79-1.16.72-2.37,1.37-3.49,2.16-1.47,1-2.88,2.12-4.27,3.24-1.11.89-1.39,0.92-2.23-.21-1.34-1.78-2.58-3.65-4-5.35-0.72-.86-0.25-1.88-0.82-2.69a10.46,10.46,0,0,1,1.18,1.54c1.1,1.6,2.63,2.89,3.26,4.82a0.52,0.52,0,0,0,1,.07,6.92,6.92,0,0,0,.36-1.7m31.85-31.06,0.59-.31c-1.68-1.3-2.21-3.17-2.83-5a2.34,2.34,0,0,1,.14-1l0.35,0a12.73,12.73,0,0,0,.64,2,1.19,1.19,0,0,0,1.73.49c-0.33-1-.67-1.92-0.94-2.87a0.69,0.69,0,0,1,.32-0.59c1.85-.24,3.69-0.45,5.55-0.62,0.81-.07,1,0.31.92,1.16a28.34,28.34,0,0,0-.09,5.18,10.27,10.27,0,0,1,0,2.75,1.68,1.68,0,0,1-.78,1.19c-1.55.43-2,1.94-2.95,2.88a22.92,22.92,0,0,0-1.78,2.13,13.84,13.84,0,0,1-5.33-8.06,29.13,29.13,0,0,0,2.45,3.18,25.46,25.46,0,0,0,3,2.23l0.28-.29c-2.44-2.4-4.7-4.91-4.94-8.56,1,1.53,1.78,3.17,3.69,4m-69.4,12.8c-0.87-1.71-2-7.39-1.65-8l-0.6-2.1a5.68,5.68,0,0,0-2.9,1.42c-0.65.48-1.15,1.16-1.76,1.7a1,1,0,0,1-.57.12,22.53,22.53,0,0,1-1.54,1.73c-1.35,1.24-2.81,2.35-3.64,4.09a0.88,0.88,0,0,0,.43,1.41A8.22,8.22,0,0,1,54,124.56a13.06,13.06,0,0,0,1,1.5c0.25-1.73.42-3.34,0.73-4.91a26.2,26.2,0,0,1,1.09-3.83,4,4,0,0,1,1.08-1.11l0.35,0.13a5.77,5.77,0,0,1-.06,1.15c-0.48,1.9-1,3.78-1.55,5.85l5.14-3.59m53.38,109.4-1.43.53c1.36,0.52,2.74.93,4.11,1.35H124c-0.08-1-.15-1.94-0.28-2.91-0.35-2.58-.37-2.59-2.92-2.73-1.78-.1-3.56-0.19-5.34-0.19a20.8,20.8,0,0,0-4.25.23c-1.47.31-2.84,1.1-4.31,1.46a9.13,9.13,0,0,0-3.95,2.58c-0.27.25-.73,0.29-1,0.53a5.44,5.44,0,0,0-.74,1l0.12,0h2c2.09-1.31,4.1-2.75,6.19-4.07a5.58,5.58,0,0,1,4.15-.87l-8,4.94h2.68l2.94-1.86a3.58,3.58,0,0,1,3.87,0m-22.61-6.37,1.68-1.45c-0.71-.76-1.17-0.08-1.57.2a2.46,2.46,0,0,0-.46,1.06l0.36,0.2m5.14-5.56c-0.32-.72-0.62-0.86-1.11-0.48s-1.18.82-1.74,1.27a1.16,1.16,0,0,0-.15.55,1.14,1.14,0,0,0,.57.08c0.83-.45,1.63-1,2.43-1.43M85.67,231l-0.89-1.72-0.26.14L85.27,231h0.4Zm3.65,0h-2.2c-0.32-.68-0.65-1.35-0.94-2a1.69,1.69,0,0,1,0-.76c0.9,0,.63-0.81.84-1.26a3,3,0,0,1,.3-0.9,13.23,13.23,0,0,0,3.37-5.4,3,3,0,0,1,.42-0.65,7.27,7.27,0,0,0,1.33-4,2.55,2.55,0,0,1,.46-0.89l0.16,0.11v-1l1.23-.1a4.46,4.46,0,0,1,.29-3.72l0.93,1.23a3.09,3.09,0,0,0,.28-0.93,11.43,11.43,0,0,0-.43-2.19c-0.41-1.18-.44-2.19.16-2.78l1.36,3.89a4.77,4.77,0,0,0,.62,4.88c0.83-1.9,2.66-2.47,4.24-3.4a3.21,3.21,0,0,1-1.77,2.3c-1.16.61-2.25,1.36-3.35,2.08a1,1,0,0,0-.11.49,1.48,1.48,0,0,0,.59,0c0.67-.36,1.33-0.76,2-1.14l0.28,0.24a123.88,123.88,0,0,0-10.06,16m47.9,0h-5.55L132,231c1.22-.22,2.43-0.45,3.66-0.57a1.85,1.85,0,0,1,1.35.38l0.23,0.24M125.89,224a15.81,15.81,0,0,1,2-.37c1.58-.11,3.17-0.15,4.75-0.21a5.77,5.77,0,0,1,1.52-.06,15.1,15.1,0,0,1,6.84,3.1,12.65,12.65,0,0,1,2.66,2.71,6.68,6.68,0,0,1,.76,1.9h-4.67a13.86,13.86,0,0,0-2.92-3.16l0.76-.42a3.64,3.64,0,0,0-1.14-.65,14.28,14.28,0,0,0-6.35.91c-1.25.48-2.53,0.9-3.81,1.35-0.27-.74-0.14-1.12.54-1.3,1.12-.3,2.24-0.65,3.35-1,0.73-.23,1.44-0.5,2.16-0.75l-0.08-.32c-2.2-.73-4,0.82-6.1,1.22L125.89,224m-12-61.19,1.24-1.8-0.32-.34a9.8,9.8,0,0,1-1.28.94c-0.68.35-.91,1.31-2,1.21a15.34,15.34,0,0,0-2.94.21c-1.74.18-3.48,0.39-5.3,0.59l2.13-4.92-0.29-.17a6,6,0,0,0-1,1c-0.77,1.38-1.46,2.81-2.21,4.2a3.58,3.58,0,0,1-.58.65l-0.28-.25c0.79-1.67,1.55-3.34,2.38-5a1.74,1.74,0,0,1,.9-1,36.54,36.54,0,0,1,4.49-.42c1.28,0,2.57.12,3.86,0.17a11.38,11.38,0,0,0,1.89-.06c0.56-.08,1.1-0.39,1.66-0.42,1-.05,2,0.17,2.92,0,2.1-.31,4.17-0.78,6.54-1.23-1.82,1.87-2.45,4.37-4.53,5.82a2.06,2.06,0,0,1,.4-0.94c0.67-1,1.35-2,2-3a1.82,1.82,0,0,0,.11-0.67,1.71,1.71,0,0,0-.59.27c-0.8.87-1.57,1.77-2.36,2.66a5.74,5.74,0,0,0-.89.94c-0.64,1.2-.86,1.35-2.17,1.06,0.74-1.05,1.47-2.08,2.18-3.12a1.41,1.41,0,0,0,.08-0.57,1.12,1.12,0,0,0-.56.09,25.87,25.87,0,0,0-2.42,2.86,2.46,2.46,0,0,1-3.1,1.12m43.22,55.6c0.53,0.38,1.05.77,1.6,1.11l0.48-.66a6.93,6.93,0,0,0-1.36-1.39,2.14,2.14,0,0,0-.92.41l0.21,0.53m3.37-.47a2,2,0,0,0-.57-2.3,0.66,0.66,0,0,0-.6-0.13,0.91,0.91,0,0,0-.42.6c0.39,0.69.47,1.67,1.59,1.83m-5.45,3.28c-1-1.72-1.88-3.27-2.87-4.73a1,1,0,0,1,.13-1.62,14.7,14.7,0,0,1,4.38-3.06c0.69-.25,1.32-0.7,2-0.88a1.43,1.43,0,0,1,1.22.36,28.81,28.81,0,0,1,1.74,2.56c-1,.77-0.72,2.23.61,3.16,1.11-.71-0.15-1.69.23-2.52,0.43,0.54.8,1,1.21,1.52a3.17,3.17,0,0,1,.83.78,18.15,18.15,0,0,1,.43,2.9,0.89,0.89,0,0,1-.46.7c-0.6.22-1.28,0.23-1.88,0.46a1.39,1.39,0,0,1-1.68-.34,1.8,1.8,0,0,0-2.17-.3,7.34,7.34,0,0,1-3.76,1M63.84,119.46c1.14,0.05,2.35.08,3.56,0.17s2.64,0.27,4,.37c0.41,0,.83-0.11,1.24-0.12a1,1,0,0,1,.72.17,1.63,1.63,0,0,0,2.24.34,4.45,4.45,0,0,1-.26-1.34,5.63,5.63,0,0,0-1.05-3.28,32.5,32.5,0,0,0-1.84-3.19,1.24,1.24,0,0,0-1.58-.74c-1.6.49-3.31,0.62-4.93,1.07a8.38,8.38,0,0,0-2.43,1.34,1.42,1.42,0,0,0-.39,1.09,4.34,4.34,0,0,0,.61,2.58,3.7,3.7,0,0,1,.16,1.55m122.5,91.35L186,211c-2.84-4-6.35-7.29-9.64-10.82l-0.43.36c2.88,3.76,5.62,7.61,8.88,11.09l-0.27.24-6.15-4.68a1.19,1.19,0,0,0-.17.5,12,12,0,0,0,2.05,2.6c1.63,1.23,3.44,2.21,5.16,3.31a0.85,0.85,0,0,0,1.42-.26l0.61,2c-2.57-1.22-4.86-2.32-7.17-3.39a4.76,4.76,0,0,0-1.13-.22,4,4,0,0,1-1.53-1.5,20.07,20.07,0,0,1-1.61-3.61,20.37,20.37,0,0,1-1.15-5.26,36.49,36.49,0,0,0-.43-4.83c-0.19-1.19-.35-2.38-0.52-3.57l0.26-.07c0.69,0.9,1.34,1.84,2.08,2.69,2.39,2.76,4.82,5.48,7.2,8.24a7.31,7.31,0,0,1,.76,1.44l-9-9.74-0.38.24a2.2,2.2,0,0,0,.22.78c1.52,1.89,3.06,3.75,4.6,5.62,0.56,0.68,1.16,1.34,1.72,2,1.33,1.62,2.67,3.23,4,4.88a13.58,13.58,0,0,1,1,1.69m-5.74-16.1-0.27.23a22,22,0,0,0-2.09-1.91c-1.8-1.29-2.91-3.5-5.31-4a0.61,0.61,0,0,1-.18-0.33c-0.57-1.37-1.11-2.76-1.72-4.11a25.72,25.72,0,0,0-5.15-8.13c-1.15-1.11-2.4-2.11-3.6-3.16a12,12,0,0,1,3.64,1.47,60.27,60.27,0,0,1,5.43,4.79,34.83,34.83,0,0,1,2.31,2.82,16.52,16.52,0,0,1,1.18,1.22c1.43,2.12,2.82,4.27,4.21,6.42a2,2,0,0,1,.16.53l-0.17.19-5.81-4.51c-0.7.51-.33,0.84,0,1.18,2.11,2,4.23,3.94,6.31,5.94a10.56,10.56,0,0,1,1,1.36m-61.15,28.71c0.3-.51.58-1,0.89-1.54a2.57,2.57,0,0,1,.54-0.68,0.67,0.67,0,0,1,.59-0.11,0.84,0.84,0,0,1,.19.66,16.7,16.7,0,0,1-.54,1.6h1c0-1,1.86-4.2,3-4.61l-1.33,3.53,0.2,0.21a3,3,0,0,0,.78-0.72c0.58-1.15,1.06-2.35,1.62-3.51a7.32,7.32,0,0,1,.88-1.39,1.37,1.37,0,0,1,.68-0.16,1.38,1.38,0,0,1,.06.58c-0.57,1.45-1.17,2.89-1.75,4.34a0.33,0.33,0,0,0,.1.37l3.24-6.2c-1.24-.39-2.49-0.79-3.74-1.17a4.63,4.63,0,0,0-3.32.11,1.36,1.36,0,0,1-.58.08,2.48,2.48,0,0,0-2.74,2.55c-0.14,2,0,4,0,6l0.29,0.09M38,155.73l0.2,0.19c-0.4.87-.83,1.73-1.19,2.61-0.7,1.7-.12,3.41.17,5.07a19.35,19.35,0,0,0,1.26,3.63,1,1,0,0,1-.51,1.52l-4.51,1.82c0-2.76,0-5.21,0-7.65,0-.52-0.15-1-0.16-1.55a2.37,2.37,0,0,1,.14-1.43c1.48-1.46,3.07-2.82,4.62-4.22m-5.36.81a3.8,3.8,0,0,1,0,1.48,23.18,23.18,0,0,1-1.65,2.28c-0.47.61-1,1.22-1.44,1.82l-1.62,2-0.49-1.46a1.83,1.83,0,0,0-.18.39c-0.15,1-.3,1.92-0.42,2.89a18.91,18.91,0,0,0,.12,6.66,3.55,3.55,0,0,1-.28,1.36l-0.32,0A1.89,1.89,0,0,1,26,173.4c-0.22-1.52-.5-3-0.59-4.55-0.14-2.57-.22-5.15-0.18-7.72a4,4,0,0,1,.79-2.21,4.22,4.22,0,0,1,1.81-1.12,16.72,16.72,0,0,1,2.07-.49c0.83-.21,1.65-0.46,2.71-0.76m51.33,13.66c-0.46,1.51-.85,2.68.2,4a24.58,24.58,0,0,1,2.54,4.44,14.86,14.86,0,0,0,3.07,3.86l2.88,2.88c0.22,0.22.46,0.43,0.5,0.48l-0.55-5.3c-1.74-.27-2.77-1.52-3.61-3.23a35,35,0,0,0-3-4.55c-0.59-.85-1.29-1.63-2-2.59m52.67,4.2,0.2,1.78a3.3,3.3,0,0,0,.67-1,19.8,19.8,0,0,0,0-2.6c-0.06-1.15-.18-2.29-0.3-3.71-0.49.66-.92,1.17-1.29,1.72a7.65,7.65,0,0,1-1.77,2.32,10.62,10.62,0,0,0-1.81,2.27c-0.45.58-.9,1.17-1.37,1.74-0.62.75-1.26,1.47-1.89,2.21l0.19,0.25c1.49-.29,3-0.54,4.46-0.88,1.79-.4,1.9-0.63,2-2.51a7,7,0,0,1,.5-1.62l0.38,0m42-49.08c0.47,0,1,.05,1.56.15,3,0.51,5.95,1,8.9,1.6,1.74,0.35,3.44.88,5.14,1.4a2.27,2.27,0,0,1,.69.87,2.43,2.43,0,0,1-1.08.46c-1.35-.27-2.67-0.72-4-1-2-.43-4-0.73-6-1.15s-4.1-.22-5.18-2.31M98.75,146.47l7.67,1.1a11.7,11.7,0,0,0-3.16-4.77,0.7,0.7,0,0,0-.61-0.16,17.79,17.79,0,0,0-1.89,1.5c-0.63.59-1.19,1.24-1.77,1.88a2.32,2.32,0,0,0-.24.46m61.89-37.18c0.83-.35,1.13-0.18,1.34.42a5.91,5.91,0,0,0,.92,1.71c1.35,1.68,2.75,3.33,4.17,5a2.71,2.71,0,0,0,1.11.21c-1.51-3-4.09-4.9-5-7.89a1.39,1.39,0,0,1,.83.55,11.7,11.7,0,0,0,.48,1.13c1.08,1.35,2.22,2.67,3.33,4a1.9,1.9,0,0,1,.56.67,7.13,7.13,0,0,0,2.47,4.38,7.48,7.48,0,0,1-4.49-2.31c-1-1.16-2-2.28-2.86-3.5-1-1.37-1.87-2.82-2.85-4.32m-36.59,78.53a3.31,3.31,0,0,1-.39.64c-1.14,1.09-2.28,2.19-3.46,3.25a7.31,7.31,0,0,1-3.78,2,9.21,9.21,0,0,0-1.55.52l-1.39.48-0.13-.32A9,9,0,0,0,115.1,193a4.58,4.58,0,0,1,3.3-2.12,7,7,0,0,0,1.74-.57,1.36,1.36,0,0,0,.37-0.48l-0.54-.13-1.16-.25c1.57-1.38,3.41-1.13,5.24-1.59m59.61-57c1.72,0.35,3.43.6,5.06,1.06,2.48,0.7,4.92,1.54,7.35,2.38a4.77,4.77,0,0,1,1.18.9,0.62,0.62,0,0,1-.53.27,38.77,38.77,0,0,0-10.14-2.59,3.35,3.35,0,0,1-2.93-2M198,138.63a1,1,0,0,0-.44-1.58c-3.39-1-6.79-1.89-10.18-2.81a1.72,1.72,0,0,0-.49,0c0.7,1.46,2.1,1.79,3.43,2.16,2.31,0.64,4.63,1.21,6.94,1.82a4.13,4.13,0,0,1,.74.4M138.72,87.15l-0.16-.35a2.64,2.64,0,0,0-.74.13c-0.85.42-1.7,0.84-2.5,1.33a2.78,2.78,0,0,1-3.07.29c1.2-.8,2.37-1.62,3.58-2.36A1.61,1.61,0,0,1,137,86a32.88,32.88,0,0,1,3.09,1.32,1.83,1.83,0,0,1,.45.52c-1.07.93-1.64,2.36-3.15,2.65a3.53,3.53,0,0,1,.47-0.58,5.14,5.14,0,0,0,.35-0.91,4.92,4.92,0,0,0-.94.12c-0.47.15-.91,0.37-1.37,0.55l-0.09-.21,2.9-2.28M208,108.63c-1.22-1.62-3.07-1.57-4.76-1.92a16.31,16.31,0,0,1-2.46-.5c-2-.74-3.71-0.06-5.47.65a1.64,1.64,0,0,0-.44.67l0.21,0.33c0.92-.24,1.84-0.5,2.77-0.69a13.47,13.47,0,0,1,1.94-.24,0.93,0.93,0,0,1,.72.2c0.54,1,1.46.69,2.29,0.79,1.74,0.21,3.47.47,5.21,0.72m-63.39,51.3h-2.26l-1.56,3.29c0.83-.71,1.08-0.33,1.18.32l0.36,2.13a4.8,4.8,0,0,0,.56-0.72c0.54-1.16,1.08-2.32,1.57-3.5a5.84,5.84,0,0,0,.75-2.31,10.27,10.27,0,0,0-.94-2.69c-1.17,1-1,1.6.35,3.48M94.14,123a6.21,6.21,0,0,1,.42.73c0.63,1.52,1.19,3.08,1.88,4.58A40.64,40.64,0,0,1,99.07,134c0.12,0.43.19,0.87,0.29,1.3l-0.28.1c-0.43-.65-0.9-1.28-1.26-2-1-1.83-1.87-3.69-2.8-5.54-0.77-1.53-1.66-3-.88-4.88m-70,38.9c-1.6,4.4-.51,8.79.15,13.19,1.39-.19.9-1.24,0.85-1.92-0.16-2.48-.49-4.94-0.67-7.42-0.09-1.27,0-2.56,0-3.84H24.09m172.11-30a11.29,11.29,0,0,1-1.67-.65,12.54,12.54,0,0,0-5.46-1.61,34.32,34.32,0,0,1-3.52-.68c-0.7-.13-1.42-0.2-2.13-0.29l-2.29-.29-0.14.39a4.39,4.39,0,0,0,1.5.67,29.55,29.55,0,0,1,7.6,1.28c1.76,0.51,3.51,1.1,5.27,1.62a2.24,2.24,0,0,0,.8-0.08l0-.37M88.74,113.33c-1.52-.09-2-1.31-2.84-2a14.64,14.64,0,0,1-2.43-2.67c-1.12-1.48-2.17-3-3.22-4.56-0.58-.85.21-1.26,0.51-1.7,1.12,1.88,2.13,3.86,3.42,5.64s2.94,3.41,4.56,5.26M148,103.54c-0.05-2.08-1.72-1.73-2.76-2a37,37,0,0,0-5-.46,3.36,3.36,0,0,0-.47,0c-0.2,1.46-.14,1.36,1.17,1.41,1.68,0.06,3.36.39,5,.62,0.67,0.09,1.32.24,2,.36M121.13,122c-1.48-2.33-2.94-4.57-4.34-6.84a2.93,2.93,0,0,1-.38-3c0.53,0.77,1,1.34,1.35,2,1.14,1.84,1.76,4,3.14,5.69,0.38,0.47,1.13,1.14.23,2.15m-6.29-6.38c0.24,0.72.46,1.46,0.74,2.17a18.72,18.72,0,0,0,3.79,6.07,4.24,4.24,0,0,0,.89.56,2.89,2.89,0,0,0,.06-1.42c-0.72-1.13-1.62-2.14-2.39-3.24-1-1.38-1.85-2.81-2.76-4.22l-0.32.08M175.72,126l-0.68-.39c-1.11-.65-2.21-1.35-3.35-2s-2.3-1.13-3.47-1.66c-1.59-.72-3.2-1.39-4.78-2.13A1.94,1.94,0,0,1,163,119l0.24-.17c1.05,0.41,2.14.75,3.15,1.24,2.67,1.31,5.33,2.64,7.93,4.07,0.59,0.32,1.73.44,1.41,1.83m23.61,15.77c-1.39-.44-2.69-0.86-4-1.26s-2.38-.75-3.6-1.05a1.73,1.73,0,0,1-1.39-1.75c0.33,0.11.65,0.25,1,.34,2.15,0.61,4.29,1.23,6.46,1.79a1.9,1.9,0,0,1,1.54,1.93m-69.38,41c-2.08.52-4.36,0.25-6.07,2,0.61,0,1.23,0,1.83,0a1.63,1.63,0,0,1,.59.37,1.69,1.69,0,0,1-.49.39c-1,.29-2.07.53-3.1,0.82a2.56,2.56,0,0,0-1,.54c1.23-.06,2.47-0.09,3.69-0.21a1.89,1.89,0,0,0,.83-0.55q1.46-1.24,2.9-2.51c0.29-.25.53-0.56,0.8-0.84M165.25,108a2.72,2.72,0,0,1,.62.6,17.67,17.67,0,0,0,1.26,2.61c1.56,2.09,3.23,4.1,4.88,6.12,0.87,1.06,1.79,2.07,2.68,3.11a3.18,3.18,0,0,1-2.64-1.3c-0.48-.62-1-1.21-1.46-1.84a7,7,0,0,1-.55-0.91,27.57,27.57,0,0,0-1.62-3c-1.19-1.68-2.73-3.14-3.16-5.39M126.52,231l8.87-1.93-0.13-.87a2.32,2.32,0,0,0-.66,0c-2.49.58-5,1.23-7.45,1.73a0.78,0.78,0,0,0-.77,1.1h0.14ZM60.63,165.31c-0.35.69-.73,1.37-1,2.08-1.2,2.71-2.4,5.42-3.54,8.16a2.49,2.49,0,0,0,.49,1.11c1.52-3.49,3-6.75,4.34-10a3.38,3.38,0,0,0,0-1.23l-0.28-.08m32.17-28.94H93.1a19.94,19.94,0,0,0,4.14,5.18,6.14,6.14,0,0,1,1,1.25,1.9,1.9,0,0,1,0,.89,2.08,2.08,0,0,1-1-.15,7.41,7.41,0,0,1-1.16-1.33c-1-1.4-2.06-2.79-3-4.25a4.57,4.57,0,0,1-.32-1.58m-7.17-56,1.07,0.43,7.81-5.94c-1.32-.24-7.56,4.08-8.87,5.51m9.06,110.05c-2-2.25-4.63-3.78-5.09-7,2,2,4.71,3.45,5.09,7M121.28,65.52a11.92,11.92,0,0,0-.77,1c-0.33.58-.59,0.65-1.17,0.18A16.43,16.43,0,0,0,117,65.35a2.54,2.54,0,0,1-1.36-3,10,10,0,0,0,5.61,3.21M28.76,164.83l-1-.24v8.51l0.44,0.1a3.49,3.49,0,0,0,.58-1.23c0.07-2.25,0-4.51,0-6.76,0-.1,0-0.2,0-0.38M199.7,144.4c0-1.29-1.1-1.25-1.82-1.57-1.09-.48-2.2-0.91-3.33-1.3-0.66-.23-1.37-0.34-2.33-0.58a4.6,4.6,0,0,0,.83,1.55,5.67,5.67,0,0,0,1.57.34c1.51,0.46,3,1,4.5,1.44,0.17,0.06.36,0.07,0.58,0.12m-93-31.93c1.18,0,2.26-.35,2.89.79s1.22,2.27,1.72,3.45a12.47,12.47,0,0,1,.51,2.09l-0.4.19a13.63,13.63,0,0,0-4.72-6.51m-76.5,60.14,0.52-1.9a13.32,13.32,0,0,1-.3-1.82c0-1.73,0-3.47,0-5.19-0.72.11-.83,0.22-0.85,1.05,0,1.26,0,2.51,0,3.77a12.37,12.37,0,0,1-.24,2.92c-0.22.8,0.19,0.88,0.89,1.17M82.93,69l0.35,0.31a2.86,2.86,0,0,1-.25.57c-0.56.79-1.17,1.54-1.72,2.34a23.37,23.37,0,0,0-1.25,2c-0.41.75-.73,1.55-1.16,2.28a1.5,1.5,0,0,1-.75.23L78,76.59l0.69-1.27c0.86-1.56,1.67-3.16,2.61-4.66A9.75,9.75,0,0,1,82.93,69m34.37,40.5a1.58,1.58,0,0,0-.38-1.93c-0.56-.69-0.45-1.93-0.61-2.93a2.75,2.75,0,0,1,.05-0.62c0.13-1.57.28-3.14,0.37-4.71,0-.59.28-1.32-0.69-1.68a19.25,19.25,0,0,0-.12,6,19.91,19.91,0,0,1,.21,2.7c0,1.2.07,2.36,1.17,3.19m-38.16-4.14,5.48,7.1a4.6,4.6,0,0,1-1.47-.6,8.55,8.55,0,0,1-2.55-3.07,3.2,3.2,0,0,0-1-1.56,1.29,1.29,0,0,1-.5-1.87m12.74,83.89c0.36,2.74,2.7,4.09,3.86,6.36,0.47-1.74-1.51-4.9-3.86-6.36m81.17,0.82a8.53,8.53,0,0,0,1,1.67c0.87,0.92,1.86,1.73,2.78,2.59l4.45,4.2c0-.53-0.51-1.15-2.26-2.8-1-.93-1.88-2-2.84-3s-1.94-1.88-2.92-2.82l-0.21.11m13.3-64.27c0.21-.85-0.65-0.87-1.2-0.95a32,32,0,0,1-6.65-1.34,3,3,0,0,0-1.69.13,21.38,21.38,0,0,0,4.56,1.37c1.6,0.31,3.23.51,5,.79M92.64,139.89c1.38,1.46,2.78,2.94,4.16,4.43a0.69,0.69,0,0,1,.19.51,1.51,1.51,0,0,1-.35.71,1.72,1.72,0,0,1-1-.45,32.4,32.4,0,0,0-2.2-3.08c-0.69-.71-1.14-1.31-0.81-2.13M149.19,106a5.16,5.16,0,0,0-1.21-.88,21.26,21.26,0,0,0-7.19-1.2c-0.51,0-.87.06-0.63,0.69,3.11-.39,5.95.61,8.76,1.76l0.27-.37m-42.28,95.65c1.61-2.3,4.23-2.74,6.62-3.64a5.6,5.6,0,0,1-3.24,2.29,32.59,32.59,0,0,0-3.37,1.34m10-6.88c-2.15.07-6,2-7,3.56,2.24-1.57,5.23-1.17,7-3.56m14.25-79.62a3.35,3.35,0,0,1-1.52-.11c-1.5-1.47-3.08-2.93-3.21-5.06l4.73,5.17m-4.52,45L130,152.9l0.33,0.12a3.21,3.21,0,0,1-.09.93c-0.68,1.68-1.35,3.37-2.13,5a1.55,1.55,0,0,1-1.48,1.18m-94.42,1a6.8,6.8,0,0,0-.59,1.83c-0.07,2.68,0,5.36,0,8l0.27,0.14a2.12,2.12,0,0,0,.49-0.86c0-1.31-.23-2.62-0.27-3.93a29.57,29.57,0,0,1,.12-3c0.05-.7.18-1.39,0.27-2.09l-0.26-.09m83.94-65.29V95.11a1.77,1.77,0,0,1-.94.08,1.29,1.29,0,0,1-.35-1c0.27-2,.6-4,0.91-6a0.46,0.46,0,0,0-.22-0.42c-0.19.89-.37,1.79-0.57,2.68-0.08.35-.18,0.69-0.28,1a7.22,7.22,0,0,0-.49,1.73c0,1.08.11,2.16,0.19,3.33l1.75-.69m-0.38-23.66a2.8,2.8,0,0,1-.51.53c-1.31.56-2.66,1-3.93,1.68a2.62,2.62,0,0,1-2.55,0c2.31-.81,4.22-2.38,7-2.21m77.82,33.54,0-.33a21.49,21.49,0,0,1,2.72-1A14.29,14.29,0,0,1,200,104a5.27,5.27,0,0,1,1.92,1l-0.13.29a1.83,1.83,0,0,1-.83-0.15,3.1,3.1,0,0,0-3.11-.41c-1.08.3-2.13,0.68-3.21,1a4.13,4.13,0,0,1-1.05,0M110,201.24c-2.08,1.17-4.46,1.37-5.66,3.61,1.77-1.26,4.53-.82,5.66-3.61m78.74,16.12-7.67-3.08a0.8,0.8,0,0,0,0,.45c0.46,0.46,1,.89,1.46,1.31a1,1,0,0,0,.58.32c1.5-.56,2.52.75,3.83,0.94,0.57,0.08,1.12.25,1.68,0.38l0.11-.31m-53-132-0.82-.86-5.58,3.33c2.54-.06,4.2-1.65,6.4-2.46m-7.58,69.58a2.09,2.09,0,0,0-.75.57,18.84,18.84,0,0,1-3.23,4.94,1.15,1.15,0,0,0,0,.38,2.25,2.25,0,0,0,.92-0.32,15.82,15.82,0,0,0,3.26-5.34l-0.21-.24M102,159a1.91,1.91,0,0,0-1.64,1.54c-0.39,1.75-1.12,3.43-1.53,5.29a2.19,2.19,0,0,0,.6-0.57c0.87-2.06,1.71-4.14,2.57-6.25M62,135.51l0.21,0a4.1,4.1,0,0,1,.26,1.22,15.71,15.71,0,0,1-1.39,5.75,0.82,0.82,0,0,1-.41.29L62,135.51M32.46,147.76c-0.26,1.2.73,1.59,1.33,2.08,1.25,1,2.62,1.89,4,2.8a2.88,2.88,0,0,0,.93.16l-6.23-5m95.82,74.12-0.38-.18a4.76,4.76,0,0,1,.22-0.78c0.67-1.4,1.38-2.79,2-4.2,0.36-.78.54-0.85,1.28-0.36l-3.16,5.52M96.59,200.71c-1.14-1.83-2.53-3.28-2.7-5.45,1.55,1.47,2.8,3,2.7,5.45M55.15,174.85a1.28,1.28,0,0,1-.13-1.73c0.65-1.22,1.24-2.48,1.88-3.71,0.3-.57.64-1.12,1-1.68l0.26,0.15-3,7m74.16-16.8c1.75-.61,3.1-4,2.68-6.06a2.72,2.72,0,0,0-.35.07c0.14,2.24-1.57,3.84-2.33,6M141.66,85.4c1,0.67,2.2.26,3.41-.28,1-.45,2.07-0.75,3.12-1.13a1.07,1.07,0,0,0-1.47-.33c-1.73.57-3.45,1.19-5.06,1.75M96.79,205.7c0.49-2.32-.67-3.84-2-5.48a11,11,0,0,0,2,5.48m4.93,2.49c1.68-1,4-.9,5-3.23-1.81,1-3.9,1.27-5,3.23m69.82,12-4.05-1.7v1.72l4,0.31,0.1-.33M65.88,160.83l0.21,0.25a1,1,0,0,1-.18.46c-1,.6-2,1.18-3,1.71a0.87,0.87,0,0,1-.69-0.21,1.12,1.12,0,0,1,.24-0.85c1.13-.5,2.3-0.91,3.46-1.35m26.8-17.49a4.64,4.64,0,0,0,2,4,0.5,0.5,0,0,0,.74-0.52c-0.32-.49-0.69-0.94-1.05-1.39l-1.64-2m55.1,6.8c0.47-1.8-.53-3-1.37-4.2-0.62,1.77.06,3,1.37,4.2M81.21,111.35c-1.71-.58-2.25-2.05-2.83-3.52-0.65,1.49-.67,1.89.16,2.73a3.23,3.23,0,0,0,2.67.79m12.35,59.76c0.7-.93,1.32-1.69,1.86-2.5a1.54,1.54,0,0,0,.07-0.89c0-.49-0.15-1-0.24-1.58a13,13,0,0,0-1.69,5m-30.77-4.94,3.6-3.6-3.7,2,0.1,1.6m86.62-83.74c0.43,1.1,2.88,1.72,5.59,1.46l-5.59-1.46m1.09,140.82c1.91-1.27,2-2.24.57-4l-0.57,4m-4.94-122.93c-0.67-1.22-4.25-1.68-5.27-.52l5.27,0.52m-29.39-34c0,1.54,1.15,2.16,2.25,3l0.86-.87-3.11-2.11m-19.41,68.4-3.4-6.31a4.08,4.08,0,0,0,.14,1.56c1,1.68,2,3.3,3.05,4.94l0.21-.18m76.9-12a1.41,1.41,0,0,0-.17-0.59c-1.13-.55-2.26-1.1-3.42-1.59a1.72,1.72,0,0,0-.83.2,4.1,4.1,0,0,0,.63.46c1,0.46,1.91.9,2.89,1.33a4.78,4.78,0,0,0,.91.18m0.43-56.23-0.09.27-4.43-1.46c-0.73-.24-0.58-0.62-0.22-1l4.73,2.2M96.7,167.16l1.78-5.71c-2,1.36-1.51,3.67-2.07,5.57l0.29,0.13m52.21-38.95-2.5-.86-0.25.37,2.4,2.29,0.34-1.8m-7.1-3.05a2.79,2.79,0,0,0-.4-1,18.81,18.81,0,0,0-2-1.27,1.51,1.51,0,0,0-.6-0.06,1.21,1.21,0,0,0,0,.59,3.6,3.6,0,0,0,.93.89,19.68,19.68,0,0,0,2,.87M128.56,60.95c0,1.07.34,1.38,1.45,1.13,0.35-.08.73,0,1.08-0.08a1.32,1.32,0,0,0,.8-0.63l-3.33-.42M99.92,210.75c1.41-.64,3.18-0.55,4.3-2.21a9,9,0,0,0-4.3,2.21M150.08,51.64l-3.74-1c-0.14.75,0,1.19,0.81,1.23s1.43,0.13,2.14.15a2.48,2.48,0,0,0,.79-0.39m-15,77.7c-1.18.88-1.88,0.12-2.61-.32a1.58,1.58,0,0,1-.33-0.64,1.53,1.53,0,0,1,.75-0.29c0.73,0.35,1.41.8,2.2,1.26m26.31-7.09c-0.86-1.24-2.08-1.82-2.61-3.08,1.24-.08,2.66,1.51,2.61,3.08M37.11,153.65l-0.08.11c-1.08-.53-2.17-1-3.24-1.6-0.69-.36-1.46-0.69-1.31-1.73l4.64,3.21m110.07-.93c-1.74-1.53-1.88-1.89-1-2.84,0.34,1,1.77,1.43,1,2.84m39.34,66.35,3.88,1.39,0.21-.22a2.66,2.66,0,0,0-.86-1,30.46,30.46,0,0,0-3.17-.48l-0.06.28M95.85,171.7l-1.36,3.42c1.51-.58,1.91-1.49,1.63-3.32l-0.27-.1m44.9-116.15v0.7c1.27-.39,2.68,0,3.76-0.88L144.44,55l-3.69.52M63.63,137.87l-1.45,4.38c0.6,0.16,1-.12,1.24-1.11s0.22-2.2.32-3.31Zm131.92-34.46H191a1.85,1.85,0,0,0,1.9.81c0.88-.25,1.76-0.54,2.61-0.81m-77.08-5.53L117.85,103c1.16-1.74.9-3.42,0.89-5.05l-0.27,0m17.33-5.49c-1,0-2.5.83-2.64,1.43,1.14,0.15,2.72-.7,2.64-1.43m-53.49,78.9c0.63-2.2.63-2.2,0-2.54-1,1.67-1,1.88,0,2.54M171.45,67.93l0,0.1c-0.9-.08-1.81-0.13-2.71-0.24a3.59,3.59,0,0,1-.86-0.34l0.37-.79,3.22,1.27M79,167.5c0.32-1.37.32-1.37-.69-2.12-0.69,1.33-.58,1.65.69,2.13M157.68,66l-0.18.23c-1.2-.41-1.78-1.54-2.53-2.45a1.31,1.31,0,0,1,.09-0.62L157.68,66m-46.51,57.28-0.75-1.8-1.27.65,1.61,1.33,0.4-.18m79.15-21.87-4.5-1.8-0.09.23,4.39,2.09,0.2-.52M72.62,132.77c0.91,0.93.39,2.63,2.13,3.12L73,132.6l-0.37.17m5.63-59.62L76.52,75.6l0.33,1.07,1.66-3.34-0.26-.16m58.36,55c-0.63-.54-1.23-1.11-1.9-1.6a1.52,1.52,0,0,0-.77,0,2.15,2.15,0,0,0,.4.55c0.66,0.47,1.34.9,2,1.34l0.25-.32M33.31,153.57c0.25,0.28.48,0.57,0.76,0.82a3.63,3.63,0,0,1,.71.51c0.51,0.84.83,0.38,1.28-.18l-2.55-1.33Zm78.86-41.33-1,.34,1.21,2.18,0.42-.17-0.67-2.35M44.91,158.61l-2.08,3c1.22-.53,2.32-2,2.08-3m85.3-27.72,1.86-.15,0.06-.33a4.81,4.81,0,0,0-1.36-.67,2.16,2.16,0,0,0-.76.79l0.2,0.35M118.47,92.66c-0.17.81-.36,1.61-0.49,2.43a1.14,1.14,0,0,0,.32.49,1.21,1.21,0,0,0,.42-0.46c0-.81,0-1.63,0-2.45h-0.28m26.75,59.4c-0.44,1.55.61,2.09,1.29,2.83l0.27-.15-1.56-2.68m9-87.14c-0.53,1.2-.16,1.76,1.48,2.12l-1.48-2.12M161,119c0.06-1.27-.25-1.67-1.46-1.63l1.18,1.82L161,119M53.7,172.9l1.21-2.22-0.15-.2a9,9,0,0,0-1.38,1.24,2.66,2.66,0,0,0,.32,1.19m77.77,45.64-1.64,3a3,3,0,0,0,1.64-3M147.42,80.28l-3.33-.34,0,0.32,3.32,0.44,0.05-.42m14.55,34,1.76,2.49,0.36-.26-1.81-2.43-0.32.21M24.39,141.81v-3.15H24q0.08,1.57.16,3.15h0.25m104-26.26-1.54-2c0,1.43.29,1.83,1.54,2M127,181.64l3.53-.74,0-.24-3.58.63,0.1,0.35m34.21-91.9-3.19.73c0.69,0.42,1.6.24,3.19-.73M37.14,134.12L36.88,134l1.25-3.54,0.3,0.1-1.29,3.53M38.67,135l0.79-2L39,132.78l-0.74,2L38.67,135m106-78.16c-0.73,0-1.25,0-1.77,0a1,1,0,0,0-.36.32,0.8,0.8,0,0,0,.35.24c0.53-.12,1.26.37,1.79-0.58M183,99.92l2.33-.22c-1-.71-1.73-0.67-2.33.22M63.42,160.6l1.62-.55-1-.75-0.77,1.07,0.13,0.23m17.3,6.67a8,8,0,0,0-.61,1.34,2.11,2.11,0,0,0,.58.76L81,167.47l-0.28-.21M115,74.45l-2.3,1.16c0.85-.05,1.78.08,2.3-1.16m57.55-14a1,1,0,0,1-1.25,1c-1.16-.16-1.46.17-1.26,1.21a0.8,0.8,0,0,0,.35.53q4.36,1.92,8.73,3.78a0.79,0.79,0,0,0,.73-0.2,7.59,7.59,0,0,0-.83-0.54l-5.43-2.61a1.54,1.54,0,0,1-.65-0.41,2.37,2.37,0,0,1-.16-0.83,2,2,0,0,1,.91-0.1c0.95,0.4,1.85.91,2.78,1.34s2.17,1,3.27,1.44c0.43,0.18.89,0.3,1.34,0.44l0.15-.3-4.17-2.4c0.5-.7.81-1,1.5-0.55a24.84,24.84,0,0,0,3.13,1.58,4,4,0,0,0,1.27.1l0.06-.35c-0.62-.36-1.25-0.69-1.83-1.11a1.88,1.88,0,0,1-.36-0.73,1.77,1.77,0,0,1,.84-0.34c0.7,0.21,1.34.59,2,.84a5.85,5.85,0,0,0,1.15.18L185,62.1,183.35,61l0.34-.7c1.19-.46,1.86,1.39,3.08.52-0.56-1.11-.56-1.11.26-1.76a1.7,1.7,0,0,0,2.18.45,0.49,0.49,0,0,0,.28-0.27c0.23-1,.66-1.64,1.82-1a1.43,1.43,0,0,0,.47-0.29C193.43,57,195,56,196.71,55.2a3.45,3.45,0,0,1,1.41,0l0.23,0.42c-0.25.14-.51,0.28-0.76,0.43a24.48,24.48,0,0,0-4.14,2.65c-1.44,1.36-3.25,1.89-4.85,2.86a19.86,19.86,0,0,0-2.39,2c-1,.87-2.06,1.74-3.05,2.65q-1.77,1.61-3.48,3.29c-0.53.52-.38,0.94,0.37,1.18,0.52,0.16,1.06.27,1.48,0.38,0.53-.66,1-1.26,1.49-1.84a0.52,0.52,0,0,1,.44-0.16,0.67,0.67,0,0,1,.32.48c-0.15.75-.36,1.48-0.55,2.22l0.25,0.21,2.84-3.14c0.53,0.53.55,0.54-.23,2-0.33.64-.76,1.22-1.14,1.83l0.21,0.2a2.75,2.75,0,0,0,.83-0.64c0.65-1.2,1.18-2.47,1.86-3.64,0.4-.69.68-1.69,1.89-1.51-0.08,2.57-2.24,4.25-2.82,6.61a1,1,0,0,0,1.54-.57c0.77-1.7,1.58-3.38,2.35-5.09,0.2-.46,1-0.54.8-1.26a1,1,0,0,1,.64-0.26,0.7,0.7,0,0,1,.33.61,14.26,14.26,0,0,1-.87,3.06c-0.76,1.54-1.72,3-2.59,4.46-0.36.62,0.07,1.15,1.11,1.17l4.1-10.24,0.44,0.07a2.17,2.17,0,0,1,.2.92c-0.69,2.32-1.4,4.64-2.16,6.94a15.36,15.36,0,0,1-1,2l-0.86,1.68-0.33-.56L192,78.51c2.4-.27,3.76-2.17,5.29-3.77,1.2-1.25,2.28-2.62,3.39-4a9.39,9.39,0,0,0,1.07-1.52c1.34-2.49,2.71-5,3.92-7.51a38.24,38.24,0,0,0,1.62-4.57c0.33-1-.08-1.59-1.38-2.15a18.18,18.18,0,0,1-2.71-1.43c1.69-.15,3,0.83,4.51,1.29,0.32-1.84.34-1.92-1.48-2.24-2.06-.36-4.14-0.55-6.21-0.81l-1.08-.11c1.76-.51,7.69-0.32,9.28,1.2a17.57,17.57,0,0,0,.69-3.18c0.06-2-.08-4-0.18-5.94a0.73,0.73,0,0,0-.44-0.51,4.35,4.35,0,0,0-1,.45c0-.08,0-0.22,0-0.49a1.16,1.16,0,0,0-.42.17,3.58,3.58,0,0,1-2.64,1.3,8.36,8.36,0,0,0-1.89.87,3.83,3.83,0,0,1-1.37.05,5.19,5.19,0,0,0-1,.21,25.36,25.36,0,0,1-4.2.86c-2.9.7-5.82,1.29-8.73,1.91a1.78,1.78,0,0,1-.59-0.08,1.94,1.94,0,0,1,.44-0.52c0.6-.32,1.22-0.59,1.83-0.87-0.81-.55-7.27.21-9.07,1.06l0.75,0.51a4,4,0,0,1-1.17.87c-0.72.19-1.52,0.1-2.26,0.25a5.59,5.59,0,0,0-1.76.77c1.65,0.46,3.55-.82,5.21.92a12,12,0,0,1-1.71.46c-1.63.17-3.27,0.33-4.9,0.4a1,1,0,0,0-1.15,1h4.92c-1.44,1.59-3.19,1.62-5.07,1.28l-0.55,1.16c0.84,0,1.56,0,2.28,0a0.93,0.93,0,0,1,.54.18,1,1,0,0,1,.4.57,0.66,0.66,0,0,1-.39.49,2.15,2.15,0,0,1-.7-0.34l-2.6.6v0.76h3.26c-0.75,1.59-2,.93-3,1.09a4.88,4.88,0,0,0-1.14.5,4,4,0,0,0,.86.68,3.59,3.59,0,0,0,1.06.1m-125,11.7a8.07,8.07,0,0,1,1.37.54,2.14,2.14,0,0,1,.1,1l-1.53-1.15,0.06-.34"/></g></svg>