<?xml version="1.0" encoding="utf-8"?>
<!-- Generator: Adobe Illustrator 19.2.1, SVG Export Plug-In . SVG Version: 6.00 Build 0)  -->
<svg version="1.1" id="Layer_1" xmlns="http://www.w3.org/2000/svg" xmlns:xlink="http://www.w3.org/1999/xlink" x="0px" y="0px"
	 viewBox="0 0 566.9 319.3" style="enable-background:new 0 0 566.9 319.3;" xml:space="preserve">
<style type="text/css">
	.st0{fill:#082431;}
	.st1{fill-rule:evenodd;clip-rule:evenodd;fill:#082431;}
</style>
<path class="st0" d="M176.8,268.3c0,7.5,0.2,11.8,0.3,12.6c0.2,1.7-0.4,1.9-1,1.9c-0.8,0-2-0.7-2.7-1.3c-1.2-1-2.2-2-2.4-2.3
	c-7-8.7-18.3-22.4-24.7-29.6c-0.3-0.3-0.5,0.1-0.6,0.9c-0.1,0.9-0.1,2.7-0.1,7.1v8.5c0,11.8,1.9,13.1,4,13.9l2.9,1.1
	c0.8,0.3,0.8,1.4-0.5,1.3c-2.4-0.1-5-0.3-7.8-0.3s-5.7,0.3-7.8,0.3c-1.3,0-1.3-0.9-0.4-1.3l2-0.8c1.6-0.6,3.1-1.8,3.6-3.4
	c0.5-1.9,0.9-8.2,0.9-15.6v-10.4c0-4.3-0.4-5.3-1.1-6.6c-1.2-2.1-4-3-6.1-3.6c-0.9-0.2-0.9-1.3,0.2-1.3c2.8,0,5.2,0.4,7.5,0.4
	c0.8,0,1.6,0,2.8-0.1c1.5-0.1,1.8,0,1.9,0.5c0.3,1.1,0.9,2.3,2.6,4.3c2.8,3.9,11.1,13.9,22.6,26.2c0.7,0.7,0.9,0.6,0.9-0.3v-9.8
	c0-6.2-0.3-9.4-0.7-13.1c-0.5-4.7-1.6-5.5-6.5-6.8c-1-0.2-0.8-1.3,0.2-1.3c2.7,0,5.6,0.3,8.6,0.3c2.6,0,5-0.3,7.2-0.3
	c1.2,0,1.2,0.9,0.2,1.3c-2.4,1-4.3,2-5,5.6c-0.5,2.9-1,8.2-1,14.8V268.3z"/>
<path class="st0" d="M223.9,271.8c0-2.3-0.3-3.6-0.8-4.6c-1.1-2-4.2-2.7-6.3-3.2c-0.8-0.2-0.8-1.3,0.4-1.3c4.1,0,6.1,0.3,9.1,0.3
	c2.6,0,4.7-0.3,6.9-0.3c1.5,0,1.3,1.1,0.4,1.3c-1.6,0.5-2.8,1.7-3.1,2.9c-0.3,0.9-0.3,2.4-0.3,5.5c0,4.6,0.3,6.4,0.8,7.2
	c0.4,0.5,0.2,0.9-0.4,1.1c-4.5,1.3-9.9,3-15.1,3c-15,0-24.3-9-24.3-22.5c0-7.8,3.7-14.6,11.1-18.8c4.2-2.3,9.2-3.9,15.1-3.9
	c4.7,0,8.8,0.7,11,1.9c1.2,0.6,1.6,1.1,1.6,1.9s-0.1,1.5-0.2,2.2c-0.2,1.1-0.3,2.2-0.4,4.6c-0.1,1.5-1.5,1.4-1.5,0.4
	c-0.1-2.1-1.3-3.9-3.6-5.5c-2.2-1.6-5.7-2.7-10.1-2.7c-3.8,0-6.9,1.1-9.1,2.7c-4.1,3-6.4,8.1-6.4,16.1c0,12.6,8.5,20.6,19.8,20.6
	c2.2,0,4.4-0.7,4.7-1.3c0.4-0.5,0.7-2.6,0.7-5V271.8z"/>
<path class="st0" d="M266.1,240.4c1,0.7,1.1,1.6,1.1,2.1s-0.1,1-0.3,1.8c-0.1,0.8-0.3,2.1-0.3,3.9c0,1.1-1.3,1.1-1.4-0.1
	c-0.1-0.8-0.5-2-1.8-3.5c-1.7-2-4-3-6.8-3c-3.4,0-5.9,2.3-5.9,6.3c0,5.5,4.1,7.6,8.3,9.1c5.9,2.1,11,4.3,11,11.5
	c0,5.6-3.5,9.4-6.2,11.4c-3.1,2.3-6.6,3.4-9.9,3.4c-3.2,0-5.8-0.7-7.7-1.8c-1.8-1.2-2.9-2.4-3.3-3.8c-0.2-0.7,0.3-1.8,0.8-2.5
	c0.5-0.8,1.3-3,1.7-3.9c0.3-0.7,1.2-0.6,1.3,0.3c0,0.6,0,1.5,0.7,3c1.3,2.7,5.6,5.1,9.5,5.1c4.7,0,7.4-2.6,7.4-7.7
	c0-5.3-3.9-7.8-9.2-9.7c-6.8-2.4-10-5.6-10-10.8c0-2.6,0.8-5.7,3.8-8.6c2.4-2.4,6.2-4.4,10.5-4.4
	C263.3,238.5,265.2,239.8,266.1,240.4z"/>
<path class="st0" d="M303.8,258c8,0,9.2-0.2,9.8-0.3c0.9-0.1,1.2-0.3,1.2-2v-3.6c0-3.8-0.2-7.1-0.7-8.2c-0.9-2-2.7-2.6-5.3-3.2
	c-0.8-0.2-0.7-1.3,0.4-1.3c3.3,0,5.3,0.3,7.9,0.3c2.9,0,5.3-0.3,8.9-0.3c1.1,0,1.1,1.1,0.2,1.3c-2.6,0.6-4.1,1.4-4.4,2.7
	c-0.5,1.7-0.8,3.4-0.8,10.7v11.8c0,7.7,0.3,9.2,0.7,11.2c0.4,2.3,2.2,3,5.7,4c0.8,0.2,0.8,1.3-0.4,1.3c-3.5,0-6.5-0.3-9.5-0.3
	c-2.8,0-4.9,0.3-7.6,0.3c-1.2,0-1.2-1-0.4-1.3c2.6-0.8,3.8-1.1,4.6-3.2c0.4-1.3,0.7-3.9,0.7-9.8v-4.9c0-1.3-0.3-1.6-1.1-1.7
	c-0.9-0.1-2.1-0.2-10.3-0.2h-1.3c-7.2,0-8,0.1-8.7,0.2c-1.2,0.2-1.3,0.3-1.3,2.1v3.6c0,5.3,0.2,8.4,0.5,9.8c0.6,2.3,2.5,3.4,5.1,4.1
	c0.9,0.3,0.9,1.3-0.4,1.3c-2.4,0-6-0.3-8.7-0.3c-3.1,0-4.9,0.3-7.7,0.3c-1.1,0-1-0.9-0.2-1.3c3.4-1.3,4.4-2.3,4.7-3.7
	c0.2-1.1,0.5-2.8,0.5-10.2v-13.1c0-3.4-0.1-7.7-0.6-9.7c-0.4-1.6-1.8-2.6-5.6-3.7c-0.7-0.2-0.8-1.3,0.2-1.3c3.3,0,5.5,0.3,8.2,0.3
	c3.3,0,5.1-0.3,8.8-0.3c1.2,0,1.2,1.1,0.3,1.3c-3.3,0.8-4,1.9-4.5,3.4c-0.5,1.4-0.6,10.1-0.6,12c0,1.3,0,1.6,0.7,1.7
	c0.7,0.1,1.5,0.2,8.6,0.2H303.8z"/>
<path class="st0" d="M342.8,250.6c0-5.5-0.2-6.4-0.6-7.3c-0.7-1.5-2.8-2.1-4.6-2.6c-0.9-0.1-0.9-1.3,0.1-1.3c4,0,5.5,0.3,8,0.3
	c3,0,4.7-0.3,8.3-0.3c1.2,0,1.3,1.1,0.3,1.3c-2.1,0.4-3.1,1.1-3.7,2.1c-1.3,1.7-1.6,6.9-1.6,13.8v7.4c0,5.5,1.4,9.5,3.5,11.3
	c1.8,1.8,5,3.7,9.4,3.7c2.3,0,5.8-0.1,8.3-2.8c2.6-2.4,4.1-7.2,4.1-16.4v-7.4c0-4.6-0.5-6.7-1-8c-0.8-1.9-2.5-2.7-5.5-3.7
	c-0.9-0.3-0.7-1.3,0.2-1.3c2.9,0,5.7,0.3,8.6,0.3c2.4,0,4.6-0.3,6.6-0.3c1.1,0,1.2,1.1,0.2,1.3c-1.7,0.4-3.2,1.3-4,3.4
	c-0.5,1.3-0.8,3.4-1,7.5l-0.5,11.8c-0.5,11.9-7.7,19.9-19.3,19.9c-5.5,0-10.1-1.6-12.9-5c-1.9-2.4-2.9-5.5-2.9-11.2V250.6z"/>
<path class="st0" d="M465.7,240.4c1,0.7,1.1,1.6,1.1,2.1s-0.1,1-0.3,1.8c-0.1,0.8-0.3,2.1-0.3,3.9c0,1.1-1.3,1.1-1.4-0.1
	c-0.1-0.8-0.5-2-1.8-3.5c-1.7-2-4-3-6.8-3c-3.4,0-5.9,2.3-5.9,6.3c0,5.5,4.1,7.6,8.3,9.1c5.9,2.1,11,4.3,11,11.5
	c0,5.6-3.5,9.4-6.2,11.4c-3.1,2.3-6.6,3.4-9.9,3.4c-3.2,0-5.8-0.7-7.7-1.8c-1.8-1.2-2.9-2.4-3.3-3.8c-0.2-0.7,0.3-1.8,0.8-2.5
	c0.5-0.8,1.3-3,1.7-3.9c0.3-0.7,1.2-0.6,1.3,0.3c0,0.6,0,1.5,0.7,3c1.3,2.7,5.6,5.1,9.5,5.1c4.7,0,7.4-2.6,7.4-7.7
	c0-5.3-3.9-7.8-9.2-9.7c-6.8-2.4-10-5.6-10-10.8c0-2.6,0.8-5.7,3.8-8.6c2.4-2.4,6.2-4.4,10.5-4.4
	C462.9,238.5,464.8,239.8,465.7,240.4z"/>
<path class="st0" d="M505,239.7c3.7,0,5.8-0.1,7.2-0.1c1.8-0.1,3.7-0.7,5-1.6c0.6-0.4,1.3-0.1,1.1,0.6c-1.1,2.7-1.1,5.3-1.3,9
	c-0.1,0.9-1,1.1-1.4,0.2c-0.7-1.8-1.4-3.5-3.9-4.2c-1.7-0.4-4-0.7-8.7-0.7c-1.3,0-1.4,0.3-1.5,1.1c-0.2,0.9-0.4,4.4-0.4,11v9.5
	c0,6.7,0,9.2,0.3,11.6c0.5,3.3,2.2,3.7,6.1,5c1,0.3,0.9,1.3-0.4,1.3c-3.4,0-6-0.3-9.9-0.3c-3,0-5.2,0.3-9.3,0.3
	c-1.2,0-1.2-1-0.2-1.3c3.5-1,6.3-1.4,6.6-4.1c0.2-1.4,0.6-4.5,0.6-12v-9.9c0-7.1-0.2-9.4-0.2-10.2c0-1.7-0.2-2-1.5-2
	c-2,0-8.5-0.1-10.8,1.1c-1.5,0.9-2.5,2.9-2.9,4.2c-0.3,1-1.4,0.8-1.4-0.3c0-0.9,0.6-4.9,0.6-9.1c0-1.2,0.7-1.3,1.3-0.7
	c0.6,0.6,1.4,0.9,2.5,1.2c1,0.3,3,0.4,8.7,0.4H505z"/>
<path class="st0" d="M473.2,292.6c-1.3,1.6-4.2,4.5-10.8,4.5c-8.9,0-16.3-3.9-24.9-12c-9-8.4-14.6-16.5-18.4-22.5
	c-0.1-0.2-0.2-0.4-0.3-0.6c-0.4-0.9-0.2-1.2,0.3-1.5c0,0,1.9-1.2,3.3-2.4c1.3-1.2,3-4.2,3-7.5c0-2.9-0.7-11.8-15.8-11.4
	c-6.5,0-14.6,1.1-16.1,1.3c-1.2,0.2-1.3,1.2,0,1.3c1.9,0.2,4.1,0.5,4.8,1.2c0.3,0.4,0.6,0.9,0.8,2.2c0.1,1.7,0.4,4.1,0.4,7.8v15.8
	c0,3.9-0.3,6.5-0.4,7.9c-0.4,2.9-1.3,3.7-5.1,4.7c-1.1,0.3-0.9,1.3,0.2,1.3c2.8,0,6-0.3,9-0.3c2.9,0,5.9,0.3,8.6,0.3
	c1.2,0,1.2-1,0.1-1.3c-4.4-1.2-5.1-2.1-5.8-5.4c-0.2-1.2-0.3-2.3-0.3-5.6v-4.2c0-1.9,0.1-2.1,0.6-2.1c1.6,0,3.2-0.2,4.6-0.3
	c0,0,0.1,0,0.1,0c1.4,0,2.2,1,2.8,1.9l15.8,20.9c10.4,10.8,19.2,14.6,28.4,14.6c7.1,0,13.1-3,16-7.7
	C474.9,292.4,474,291.7,473.2,292.6z M411.4,261c-2.1,0-3.3,0-4.6-0.1c-0.8-0.1-0.9-0.4-0.9-1.5v-9.8c0-4.6,0.1-6,0.3-6.6
	c0.2-0.7,0.4-1,1.8-1c7.1,0,11.1,5.4,11.1,11.4C419,259.2,414.7,261,411.4,261z"/>
<path class="st0" d="M137.8,292.4c-1.4,1.7-4.6,4.9-11.7,4.9c-9.6,0-17.2-4.5-26.6-13.2c-0.6-0.6-1.2-1.2-1.8-1.7
	c-6-5.8-10.6-11.3-14.2-16.1c-1.7-2-3.4-3.9-5-5.8c-2.1-2.4-4.1-4.8-6-7.1c-0.9-1-1-1.2-0.2-2c5.4-5,8.1-7.4,12.6-11.4
	c4.2-3.7,5.2-4.8,10.7-6.9c1-0.4,1-1.4-0.4-1.4c-3,0-5.3,0.3-8.7,0.3c-4.2,0-5.6-0.3-8.7-0.3c-1.2,0-1.3,1.1-0.2,1.4l2.2,0.8
	c3.3,1,3,2,1.8,3.9c-2.3,3.4-7.9,9.5-13.4,14.2c-2.2,1.9-3.8,2.9-4.7,3.4c-1,0.5-1.3,0.3-1.3-1v-2.6c0-11.1,0.3-13.3,0.5-14.6
	c0.3-1.7,1.6-3.1,5.2-4.1c1.2-0.3,1.2-1.4-0.2-1.4c-3.1,0-5.8,0.3-8.9,0.3c-3,0-5.3-0.3-9.1-0.3c-1.4,0-1.4,1.2-0.6,1.4
	c4.2,1.3,5.7,2.6,6.2,4.4c0.6,2.5,0.7,8.3,0.7,14.4v16.8c0,4.1-0.2,6.2-0.6,8c-0.5,2.2-3.4,3.6-6,4.5c-0.9,0.3-0.9,1.3,0.5,1.3
	c3.4,0,5.5-0.3,8.6-0.3c3.5,0,6.9,0.3,10.3,0.3c1.3,0,1.3-1,0.4-1.3c-1.9-0.6-3.4-1.1-4.7-2.1c-1.7-1.3-2.3-2.7-2.3-15.5v-3
	c0-1.9,0.1-2.3,0.8-2.8c0.6-0.5,1.3-0.8,2.2-0.8c0.8,0,2,0.3,4.4,2.9c0.7,0.8,1.5,1.7,2.3,2.6c1.3,1.4,2.6,3,4,4.6
	c17.9,24.7,35.6,34.9,45.6,34.9c7.7,0,14.2-3.3,17.3-8.3C139.7,292.2,138.7,291.4,137.8,292.4z"/>
<path class="st1" d="M109.2,237.7v-3.5l-3.8-3.8l3.8-3.8l3.8,3.8l3.8-3.8l-2.5-2.5l2.5-2.5l2.5,2.5l-2.5,2.5l3.8,3.8l3.8-3.8
	l3.8,3.8l-3.8,3.8v3.5H109.2z M116.8,234.2l-3.8-3.8l-3.8,3.8H116.8z M124.4,234.2l-3.8-3.8l-3.8,3.8H124.4z"/>
<path class="st0" d="M125.3,281.1c-2.4-0.5-4.5-1.3-5-3.6c-0.6-2.5-0.6-6.1-0.6-12.1v-8.9c0-6,0-9.8,0.5-12.2
	c0.4-2.4,2.7-3.2,4.4-3.6c1-0.2,1-1.3-0.2-1.3c0,0-0.1,0-0.1,0v0h-15.5c-1.2,0-1.3,1.1-0.5,1.3c2,0.5,4.2,1.3,4.8,3.9
	c0.4,2.1,0.4,5.9,0.4,11.9v8.9c0,6,0,9.6-0.5,12.6c-0.4,1.8-2.7,2.8-4.7,3.1c-1,0.2-0.9,1.3,0.2,1.3c3.1,0,5.6-0.3,8-0.3
	c2.8,0,5.2,0.3,8.5,0.3C126.2,282.4,126.2,281.3,125.3,281.1z"/>
<g>
	<path class="st0" d="M339.5,175.2c1.1,0,2-0.5,2.5-1.6l2.1-4c0.2-0.5,0.3-1,0.3-1.5c0.5,0.1,1,0.2,1.5,0.2c1.1,0,2-0.3,2.8-0.8
		c2.7-1.8,3.2-5.9,3.2-6.1c0-0.3-0.1-0.5-0.4-0.6c-0.2-0.1-0.5-0.1-0.7,0.1c0,0-0.7,0.7-2.1,1.8c-0.8,0.7-1.5,0.9-2.2,1.1
		c-0.5,0.1-0.9,0.3-1.4,0.5c-0.7,0.4-1.2,1.2-1.6,1.8c-1.3-1.9-3.2-3.5-5.5-4.7c2.4-1.2,4.5-3,5.4-3.8c0.8-0.5,1.6-1.3,2.4-2.2
		c-0.4,1.9-1.1,4.7-1.8,7.2c-0.1,0.2,0,0.4,0.1,0.6c0.1,0.1,0.3,0.2,0.5,0.2c0,0,0.1,0,0.1,0c0.1,0,2.9-0.5,4-4.4
		c0.1-0.3,0.2-0.7,0.2-1l0.6,2.2c0.1,0.2,0.2,0.4,0.5,0.5c0.2,0.1,0.5,0,0.6-0.2c2.7-2.8,2.7-7.9,1.7-12c0.8,1,1.6,2.2,1.9,3.1
		c0.2,0.5,0.3,1,0.8,1.1c0.2,0,0.5,0,0.7-0.2c0.8-0.8-0.5-6.5-2.2-11.4c-2-6.1-8.2-9.9-11.8-11.6c-1.7-1.2-3.6-2-5.6-1.5
		c-0.1,0-0.1,0-0.2,0c-0.3,0.1-0.6,0.2-0.9,0.4c-0.4-4.3-0.4-10.7,0.2-20.2c0.2-2.6,0.4-4.3,0.9-6.1c0.2-0.9,0.4-1.8,0.7-2.9
		c0.5-1.9,0.5-3.8,0.4-5.3l1,0.8l1.5-1.7l3.5-0.2l-0.2-3.5l-3.5,0.3l-0.2-3.5l2.3-0.2l-0.2-2.4l-2.4,0.2l0.2,2.3l-3.5,0.2l-0.2-3.5
		l-3.5,0.3l0.2,3.5l-1.5,1.7l0.7,0.6c-0.2,0-0.4,0-0.7,0c-2,0.2-3.7,1.8-4.3,2.4l-3.8,0.9l-0.3,0.1c-0.3,0.2-0.6,0.6-0.6,1.1
		c0,0.3,0.1,0.8,0.7,1.1c0.7,0.5,2.4,0.6,3.4,0.7c0.5,0.4,2,1.5,3,2.4c0.2,0.2,0.4,0.4,0.5,0.5c0.5,0.5,0.6,0.5,0.5,1.8
		c-0.8,2.7-1.5,5.2-2.2,7.7c-3.3,11.2-6,20.3-6.9,32.5c-0.1-0.3-0.1-0.5-0.2-0.8c-0.2-0.7-0.6-1.3-1-1.8V96.4l-1.1,0.3
		c-11.6,3.2-23,1.4-34.3-5l-0.4-0.2l-0.4,0.2c-7.7,4.3-15.5,6.5-23.2,6.5c-3.1,0-6.2-0.4-9.3-1.1c0-1.1-1.7-1.9-3-2
		c-1.3-0.1-4.6,0.2-5.4,6.1c-0.3,2.3-0.4,2.3-1,2.4c-1.2,0.2-3.3,0.7-7.5,5.2c-1.2-1.9-3-3.3-5.5-3.8c-2.7-0.5-4.4-1.2-5.6-1.8
		c2-0.1,3.6-1,4.6-1.9c1.1-1,1.9-0.4,2.2-0.2l1,1l0.5-1.3c0.8-2.3,0-5.2-1.3-6.4c-0.7-0.6-1.5-0.8-2.2-0.5c-1,0.4-2.7,1.2-3.7,1.8
		c0-0.1,0-0.3,0.1-0.4c0.4-1.2,2.4-2.2,3.6-2.7c0.6-0.3,1-0.5,1.2-0.7c0.3-0.2,0.5-0.6,0.6-1c0.2-1.4-1.4-3.6-1.8-4.2l-0.2-0.3
		l-0.4,0c-3.5-0.1-5.7,1.1-6.9,2.2l-1.2-2.3l1.4-4.3l-4.3-1.4l-1.4,4.3l-4.3-1.4l0.9-2.9l-2.9-0.9l-0.9,2.9l2.9,0.9l-1.4,4.3
		l-4.3-1.4l-1.4,4.3l4.3,1.4l0.4,0.8c-0.8,0.1-1.3,0.5-1.7,0.9c-1.2,1.3-1.1,3.6-0.7,4.7c0.3,0.8,0.7,1,1.1,1c0.1,0,0.2,0,0.3,0
		c-0.9,3,0.2,6.7,0.2,6.9l0.5,1.7c-0.2-0.4-0.5-0.7-0.8-1.1c-2.5-3.2-4.5-4.6-6.1-4.4c-1.9,0.3-2.7,2.4-3.5,4.3
		c-0.4,1-1,2.4-1.4,2.5c-0.2,0-0.5-0.1-1.1-0.6l-1.6-1.6l0.2,2.3c0,0.6,0.3,3.4,2,4.1c0.5,0.2,1.1,0.2,1.7,0c0,1.2-0.2,2.9-1.8,3.7
		l-2,1l2.1,0.6c0.1,0,1.4,0.4,2.8-0.5c1.1-0.7,2-2,2.6-3.9c0.6,1.1,1.5,2.2,2.8,2.5l1.8,0.4c-0.2,3.9-1.6,9.4-5.3,16.3
		c-5.8,10.7-3.1,14.1-1.6,15.1c0.7,0.5,1.5,0.7,2.4,0.7c1.2,0,2.5-0.4,3.8-1.2c-0.8,3.9,1.3,7,2.6,9c0.3,0.4,0.7,1,0.8,1.4
		c-0.2,0-0.5,0.1-1.1,0c-2.7-0.1-4.4,0.3-5.3,1.3c-1,1.1-0.8,2.5-0.7,3.8c0,0.3,0.1,0.6,0.1,0.9c0.1,1.1-0.4,3.2-0.8,5.2
		c-0.5,2.4-1,4.8-0.9,6.4c0,0.5,0.3,1,0.7,1.4c1.1,0.9,3.6,1.2,6,1.2c2.6,0,5.2-0.3,6.1-0.4c1.4-0.2,2.5-1.5,2.4-3
		c0-0.8-0.5-3.3-5.5-3.6c-1.5-0.1-2.6-0.6-3.2-1.5c-1.3-1.8-0.5-4.7-0.5-4.7l0.1-0.2l-0.1-0.2c0,0-0.2-0.7,0.4-1.4
		c0.7-0.8,2.7-2.2,8.9-2c2.2,0.1,3.8-0.4,4.8-1.5c1.8-1.9,1.5-5,1.1-8.3c-0.1-1.3-0.2-2.6-0.3-3.8c3.6,1,11.3,4.1,10,12.5
		c-3.1,1.5-5.7,3.5-7,6.1c-0.4,0.8-0.4,1.7,0,2.5l2.1,4c0.6,1.1,1.4,1.6,2.6,1.6c2.3,0,5.4-2.2,8.4-4.2c2.6-1.8,5.4-3.7,7.4-4
		c-1.6,2.1-4,3.2-6.6,4.4c-3,1.4-6.2,2.8-7.9,6l0,0.1l0,0.1c0.6,2.3,1.4,4.1,2.8,6c0,0,0.1,0.1,0.1,0.1l0,0c0.1,0.1,0.2,0.2,0.3,0.2
		c2,1.5,3.6,1.5,5.8,1.6c0.7,0,1.5,0,2.3,0.1l0.4,0l-0.2-0.4c0,0-2.3-3.6-3.4-6c0.9-0.5,1.9-0.9,2.9-1.3c4.2-1.8,8.5-3.7,7.3-8
		c-0.3-0.9-0.6-1.9-1-3c3.2,0.8,6.2,2.6,9.6,4.6c6.2,3.7,13.9,8.4,26.7,8.7c0.4,0,0.7,0,1,0c0.3,0,0.7,0,1.1,0
		c12.7-0.3,20.4-4.9,26.5-8.7c3.4-2,6.3-3.8,9.5-4.6c-0.4,0.9-0.7,1.9-1,3c-1.3,4.3,3.1,6.2,7.3,8c1,0.4,2,0.9,2.9,1.3
		c-1.1,2.4-3.3,6-3.4,6l-0.2,0.4l0.4,0c0.9-0.1,1.6-0.1,2.3-0.1c2.2-0.1,3.8-0.1,5.8-1.6c0.1-0.1,0.1-0.1,0.2-0.2l0.1-0.1
		c0-0.1,0.1-0.1,0.1-0.2c1.4-1.9,2.3-3.6,2.8-6l0-0.1l0-0.1c-1.7-3.2-4.8-4.7-7.9-6c-2.7-1.2-5.2-2.4-6.8-4.6
		c2.2,0.3,5.1,2.3,7.9,4.2C334.3,173.1,337.3,175.2,339.5,175.2z M345.7,165.4c0.3-0.2,0.7-0.3,1.1-0.4c0.7-0.2,1.7-0.5,2.7-1.3
		c0.2-0.2,0.5-0.4,0.7-0.5c-0.4,1.1-1,2.5-2.2,3.3c-0.9,0.6-2,0.8-3.4,0.5C344.8,166.3,345.2,165.7,345.7,165.4z M335.2,130.4
		c0.3-0.2,0.6-0.4,0.9-0.6c0.1,0,0.2-0.1,0.2-0.1c0.3-0.1,0.6-0.1,1-0.1c0.6,0,1.2,0.2,1.7,0.4c2.6,1.1,4.8,4.2,5.7,5.9
		c1.2,2.5,2,5.8,2.2,8.9c0,0.1,0,0.3,0,0.4c-0.3-0.4-0.6-0.8-0.9-1.1c-0.3-0.4-0.6-0.7-1-1c-0.8-0.8-1.8-1.5-2.7-2
		c-0.5-0.3-1-0.5-1.6-0.7c0,0,0,0,0,0c-0.6-0.2-1.8-0.7-3-1.4c-0.6-0.3-1.2-0.7-1.6-1.1c0,0,0,0,0,0c-0.3-0.3-0.6-0.7-0.9-1.1
		c0-0.1-0.1-0.1-0.1-0.2c-0.1-0.2-0.2-0.4-0.3-0.6c0,0,0,0,0,0c-0.6-1.3-0.8-2.8-0.5-4c0-0.2,0.1-0.3,0.2-0.5
		C334.7,131.1,334.9,130.7,335.2,130.4z M339.3,89.5l0.2,3.5l-3.7-3.3L339.3,89.5z M335.6,86.3l0.2,3.5l-3.7-3.3L335.6,86.3z
		 M318.4,138.6C318.4,138.6,318.5,138.6,318.4,138.6c0.1,0.2,0.2,0.4,0.3,0.5c0.1,0.2,0.2,0.5,0.3,0.7c0.1,0.2,0.1,0.3,0.1,0.5
		c0.3,1.2,0.3,2.5,0.1,3.3l-0.1,0.5l0.4,0.3c0.2,0.1,0.5,0.3,0.7,0.4c0.3,0.2,0.6,0.3,0.8,0.5c0.3,0.2,0.6,0.3,0.9,0.5
		c1.7,0.9,3.3,1.7,5,2.4c2.1,0.8,4.4,1.5,7.1,1.8c0,0,0,0,0.1,0l0.2-1.3c-2.7-0.3-5-1-7.2-1.9c-1.7-0.7-3.4-1.6-5.1-2.5
		c0.5-14,3.4-23.8,7-36.1c0.7-2.5,1.5-5,2.3-7.8l0-0.2c0.1-2,0-2.3-1-3.3c-0.1-0.1-0.3-0.3-0.5-0.5c-1.3-1.3-3.3-2.7-3.4-2.8
		l-0.2-0.1l-0.2,0c-0.4,0-0.9-0.1-1.3-0.1l2.5-0.6l0.2-0.2c0,0,1.6-1.9,3.4-2.1c1.8-0.2,3.2,0.6,3.2,0.6l0,0l0.3,0.3l1,0.8
		c0.1,0.6,0.6,3.7-0.1,6.7c-0.8,3.2-1.3,5.1-1.6,9.2c-0.7,10.4-0.6,17.2,0,21.8c-0.3,0.5-0.6,1-0.7,1.7c-0.6,2.6,0.5,5.9,2.4,7.6
		c0.3,0.3,0.7,0.6,1.1,0.8c1.4,0.9,3,1.6,4,1.9c0.3,0.1,0.7,0.3,1,0.4c1.4,0.7,2.6,1.6,3.7,2.8c0.3,0.4,0.6,0.7,0.9,1.1
		c0.5,0.6,1,1.2,1.2,1.6c0.2,0.2,0.2,0.3,0.3,0.3c0.2,0.2,0.4,0.3,0.7,0.3c0,0,0,0,0,0c0.1,0,0.2,0,0.2,0c0.4-0.1,0.6-0.4,0.6-0.8
		c0.2-4.2-0.7-9.1-2.5-12.7c-0.3-0.7-0.8-1.4-1.3-2.2c2.9,2,6,4.8,7.2,8.6c1.1,3.3,1.7,5.8,2,7.5c-1.3-1.9-3.1-3.7-3.2-3.8
		c-0.2-0.2-0.6-0.2-0.8-0.1c-0.3,0.2-0.3,0.5-0.2,0.8c1.8,3.9,2.3,9.5,0.4,12.6l-1.1-4.3c-0.1-0.3-0.4-0.5-0.7-0.5
		c-0.3,0-0.6,0.3-0.6,0.6c0,0-0.1,2.7-0.6,4.3c-0.5,1.6-1.2,2.5-1.9,3c2.2-8.6,2.1-9,1.7-9.3c0,0,0,0,0,0c-0.2-0.1-0.4-0.2-0.6-0.1
		c-0.2,0.1-0.4,0.2-0.4,0.4c0,0.2-0.2,0.5-0.5,0.8c-0.7,0.9-1.9,2.3-2.9,3c0-0.1,0-0.2,0-0.4c0-0.1,0-0.3,0-0.4
		c0.1-2.8,0.2-7.4-0.4-9.3c-0.1-0.3-0.4-0.5-0.7-0.5c0,0,0,0-0.1,0c-0.3,0.1-0.5,0.5-0.5,0.8c0.5,1.8,0.4,6.9,0.3,9.3
		c0,0.3,0,0.6,0,0.9c-1.1,0.9-3,2.4-5.2,3.3c-0.1,0-0.2,0.1-0.3,0.1l0,0c-3.1-1.3-6.6-2.1-9.8-2.2l0,0c-0.2-0.2-0.3-0.4-0.5-0.5
		c-0.5-0.6-0.8-1-0.8-1.1c-1.5-1.9-2.4-4.5-2.8-7.5c1.4,1,2.8,2,4.4,2.8c2,1.1,4.2,1.8,6.8,1.8c0,0,0,0,0.1,0l0-0.7l0-0.6
		c0,0,0,0-0.1,0c-2.5,0-4.6-0.8-6.6-1.9c-1.4-0.8-2.7-1.7-4.1-2.7c-0.2-0.1-0.4-0.3-0.6-0.4c-0.3-0.2-0.6-0.4-0.9-0.6c0,0,0,0-0.1,0
		c-0.3-0.2-0.5-0.4-0.8-0.6c-0.2-0.1-0.4-0.3-0.6-0.4l-0.7-0.5l-0.3,0.9c-0.1,0.4-0.5,0.9-0.9,1.5c-0.3,0.4-0.6,0.8-1,1.2
		c0.1-0.2,0.1-0.5,0.2-0.7c0.4-1.2,0.7-2.3,0.9-2.8c0-0.2,0-0.5,0-0.7c0-0.2,0-0.3,0-0.5c-0.1-0.7-0.2-1.5-0.3-2
		c0-0.2-0.1-0.3-0.1-0.4c-0.4-1.3-1-1.9-1.4-2.3c0.4,0,0.7,0.1,1,0.2l0.6,0.3l0.8,0.4l0.1,0l0.1,0.1l-0.1-0.3l0-0.1l-0.5-1.3
		c-0.1-0.2-0.2-0.4-0.3-0.6c-0.1-0.1-0.1-0.3-0.2-0.4c0.1,0,0.1,0.1,0.2,0.1C317.9,138,318.2,138.3,318.4,138.6z M313.8,155.7
		c0.9-1.4,1.7-2.9,2.4-4.3c0.9-1,2.5-2.8,3.3-4.1c0.3,0.2,0.5,0.4,0.8,0.6c0.2,4,1.3,7.4,3.2,9.8c0,0,0.2,0.3,0.5,0.7
		c-5.2,0.1-10.3,1.6-14.8,4.2c-0.5,0.3-0.9,0.5-1.4,0.8C310.2,160.8,312.2,158.2,313.8,155.7z M309.4,157.3c-0.3,0-0.4,0-0.4-0.2
		c0-0.3,0.5-0.3,1.5-0.5c0.3-0.1,0.6-0.2,0.9-0.3c-0.2,0.3-0.4,0.6-0.7,0.9c-0.1,0-0.3,0-0.5,0C309.9,157.3,309.6,157.3,309.4,157.3
		z M241.5,105.4c1.6-0.3,2-0.9,2.4-3.9c0.4-2.6,1.3-4.2,2.6-4.6c0.4-0.1,0.8-0.1,1.1,0v0c-1.1,0.7-1.7,1.8-1.7,1.8l-1.2,2.2l2.3-1
		c0.2-0.1,0.4-0.2,0.6-0.2v1.9c-0.2,0.1-0.3,0.3-0.3,0.3l-1.7,2.3l2-0.7v0.5c-1.3,0.1-2.3,0.5-2.9,1.3c-0.6,0.8-0.7,1.8-0.6,2.5
		c-4.5,0.3-6.8,4.6-7.9,8c-0.3-1.7-0.8-3.6-1.7-5.3C238.6,106,240.5,105.6,241.5,105.4z M246,108.5c0,0-0.5-1.3,0.1-2.1
		c0.3-0.4,0.8-0.6,1.6-0.6v15.9c-1,0.7-2,1.5-2.6,2.1c-1.2-1-2.7-1.1-4-1.2c-2-0.2-3.4-0.3-4.1-2.5c0,0,1-7.2,5-9.6
		c0.9-0.6,2-0.9,3.2-0.8l1.4,0.1L246,108.5z M235.9,119.8L235.9,119.8L235.9,119.8L235.9,119.8z M214.2,84.9l4.3,1.4l-5.7,2.9
		L214.2,84.9z M207.1,92.1l1.4-4.3l4.3,1.4L207.1,92.1z M204.2,115.8c-0.8-1.2-1.8-3.2-1.5-4.1c0-0.1,0.1-0.3,0.4-0.3
		c0,0,0.1,0,0.1,0c0.2,0,0.5,0.3,0.6,0.4c0.7,0.9,1.3,2.7,1.2,5.4L204.2,115.8z M199.1,147.4c-1.7-1.1-2-5.1,2.2-12.8
		c7.5-13.7,5.8-21.7,3.9-24c-0.6-0.7-1.2-1-1.9-1c-0.2,0-0.4,0-0.6,0.1c-0.7,0.2-1.2,0.7-1.5,1.4c0,0.1,0,0.1-0.1,0.2l-1-4.2
		l-0.6,4.4c-0.2,1.6-0.6,2.8-1,3.6c0.2-1.6-0.1-2.9-0.1-3l-0.3-1.4l-1.1,0.9c-0.5,0.4-1,0.6-1.2,0.5c-0.2-0.1-0.4-0.4-0.6-0.8
		c0.3,0,0.5,0,0.8,0c1.4-0.3,2-1.9,2.7-3.6c0.6-1.4,1.2-3.1,2.1-3.2c0.5-0.1,1.9,0.3,4.5,3.7c6.1,7.8,1.1,17.4-2.9,25.1
		c-2,3.8-3.6,7-3.9,9.7c-0.2,2,0.2,3.2,1.3,3.8c1.4,0.7,3.5-0.1,5.5-1.2C203.2,147.6,200.5,148.4,199.1,147.4z M207.3,108.4l0.4-0.7
		c0,0.5,0,0.9,0,1.3C207.6,108.8,207.5,108.6,207.3,108.4z M209.5,113.8c1.4,2.2,3.3,3.6,3.7,4c-0.7,2.3-0.4,4.8-0.1,7.5
		c0.2,2.2,0.5,4.5,0.3,7c-0.3,4.2-1.7,5.5-3.5,7.2c-0.5,0.5-1.1,1-1.6,1.6c-2.9,2.5-6.7,4.8-7.9,4.1c-0.4-0.2-0.5-1-0.4-2.1
		c0.3-2.3,2-5.6,3.8-9.1C207,128,210.7,120.7,209.5,113.8z M218.2,147.1L218.2,147.1l0,0.1c-0.1,1.7,0.1,3.5,0.2,5.1
		c0.3,2.9,0.6,5.7-0.7,7c-0.7,0.7-1.8,1-3.5,1c-5.3-0.2-8.8,0.7-10.3,2.7c-0.8,1-0.9,2.1-0.8,2.7c-0.2,0.8-0.7,3.8,0.8,6
		c1,1.3,2.5,2.1,4.5,2.2c2.8,0.2,3.8,1.1,3.9,1.9c0,0.6-0.5,1.2-0.9,1.2c-3.7,0.5-9.5,0.7-10.8-0.4c-0.1-0.1-0.1-0.1-0.1-0.2
		c-0.1-1.4,0.4-3.7,0.9-6c0.5-2.3,0.9-4.4,0.8-5.7c0-0.3-0.1-0.7-0.1-1.1c-0.1-1.2-0.2-1.9,0.2-2.4c0.4-0.4,1.4-0.9,4-0.8
		c1.2,0,2.4,0,2.8-0.9c0.5-0.9-0.1-1.9-1-3.2c-1.4-2.1-3.6-5.3-1.9-9.3c1.5-3.4,3.2-5,4.6-6.3c2-1.8,3.7-3.4,4.1-8.3
		c0.2-2.7-0.1-5.2-0.3-7.4c-0.5-4.6-0.9-7.9,3.1-11l-1.1-1.4c-1.4,1.1-2.3,2.2-3,3.4c-1.5-1.1-6.1-5.3-3.9-10.7l0.4-1l-1.1-0.2
		c-0.1,0-0.6-0.1-1.3,0.3c-0.3-1.9-0.4-4.6,1-5.9l-1.1-1.3c-0.3,0.2-0.9,0.5-1.2,0.6c-0.2-0.6-0.2-1.9,0.3-2.7
		c0.2-0.3,0.6-0.6,1.4-0.5l0,0.1l10.5-5.4c-0.5,0.6-0.7,1-0.7,1.1l1.6,0.7c0.1-0.1,1.5-3,6.2-3c0,0,0.1,0,0.1,0
		c0.7,1,1.2,2.1,1.3,2.5c-0.2,0.1-0.5,0.3-0.8,0.4c-1.5,0.7-3.9,1.8-4.5,3.7c-0.3,0.8-0.2,1.7,0.2,2.6l0.4,0.8l0.8-0.4
		c0,0,3.1-1.6,4.6-2.2c0,0,0.1,0,0.3,0.2c0.6,0.6,1.2,2.1,1.1,3.5c-0.3-0.1-0.6-0.2-0.9-0.2c-0.8,0-1.7,0.3-2.5,1
		c-0.9,0.8-2.5,1.6-4.3,1.5c-1.8-0.1-3.5-1.1-5-2.9l-1.3,1.1c1,1.2,2.2,2.2,3.4,2.8l0,0c0.1,0,0.4,0.3,0.6,0.5
		c1.1,1,3.1,2.9,8.5,3.8c4.8,0.8,6.3,6.4,6.8,10.2c-1.8-1.8-4.7-4-7.8-4v1.7c3.1,0,6.1,3,7.5,4.6c0.4,0.5,0.7,0.8,0.7,0.8
		c0,0,0,0.1,0,0.1c1,3.6,3.6,3.9,5.7,4.1c1.4,0.1,2.7,0.2,3.5,1.3l0.6,0.8l0.7-0.8c0.6-0.6,1.3-1.3,2-1.8c0.3-0.2,0.6-0.4,0.9-0.6h0
		c0.1-0.1,0.2-0.2,0.4-0.2c0.2-0.1,0.3-0.2,0.5-0.3c0.4-0.2,0.8-0.3,1-0.2c0.1,0,0.2,0.1,0.3,0.3c0,0,0,0,0,0
		c0.1,0.2,0.2,0.3,0.3,0.4c-0.4,0.1-3.3,1.8-3.3,1.8v0.9l0.9-0.3h0l0.2-0.1c0.1,0,0.1,0,0.2-0.1c0.2,0,0.3-0.1,0.5-0.1
		c0.9-0.2,1.9-0.2,2.3,0.1c0.1,0.1,0.1,0.2,0.1,0.4c-0.7,0-1.7,0-2.4,0.2c-0.2,0-0.3,0.1-0.5,0.2c-0.1,0-0.3,0.1-0.4,0.2l0,0
		c0,0,0,0-0.1,0l-0.8,0.5v0.5c0,0,3.1,0,3.5,0.1c0,0-0.1,0.4-0.2,0.6c0.1,0,0.1,0,0.2,0c-0.1,0.1-0.2,0.1-0.3,0.2
		c-0.5,0.4-1,0.5-1.5,0.5c-0.2,0-0.3-0.1-0.5-0.1c-0.1,0-0.2,0-0.4-0.1h0c-0.3-0.1-0.6-0.2-0.9-0.3c-0.1,0-0.1,0-0.2-0.1l0,0l0,0
		c0,0-0.1,0-0.1,0c-0.3-0.1-3.9-1-5.5-0.6l-1,0.3l0.4,0.9c0,0.1,0.1,0.2,0.1,0.3c-1.9-1.2-5.2-2.8-8.2-2.2c-1.5,0.3-2-0.4-2.8-1.9
		c-0.4-0.8-1-1.9-2-2.3c-0.5-0.2-1.1-0.3-1.8-0.2l0.3,1.7c1-0.2,1.3,0.3,2,1.6c0.5,0.9,1.1,2,2.2,2.5c0,2.2-0.8,7.7-8.2,11.2
		C219.4,141.2,218.4,144.1,218.2,147.1z M270.1,138.4l0.4-0.6l0.5,0.6l-0.4,0.6c0,0,0,0,0,0l-0.3,0.4c-2.5,3.3-2.5,7.8,0,11.2
		l0.3,0.4l0,0c0,0,0,0,0,0.1l0.6,0.8l0,9.5h-1.3v-10.1l-1.2-1.7c-2-2.7-2-6.4,0-9.1L270.1,138.4L270.1,138.4L270.1,138.4z
		 M264.5,165.9c-0.2-0.2-0.5-0.4-0.7-0.6h11l0.6,0.6H264.5z M274.3,167.6v2v1.3v2.1c-0.4-0.3-0.9-0.6-1.3-0.9v-1.7v-1.3v-1.7H274.3z
		 M271.2,167.6v1.2v1.3v1c-0.4-0.3-0.9-0.6-1.3-0.9v-0.5v-1.4v-0.7H271.2z M268.2,167.6L268.2,167.6v1.3c-0.2-0.1-0.3-0.3-0.5-0.4
		c-0.4-0.3-0.8-0.6-1.1-0.9h1.5H268.2z M274.8,163.6H262c-0.2-0.2-0.4-0.4-0.6-0.6h14L274.8,163.6z M275.2,150.1l-1,1.4v9.9h-1.3
		v-10.1l-1-1.3c-2.2-3-2.2-7,0-9.9l1.7-2.3l1.6,2.2C277.5,143,277.5,147.1,275.2,150.1z M267.3,139.5c-2.5,3.3-2.5,7.8,0,11.2
		l0.9,1.2v9.5h-1.3v-10.1l-1.2-1.7c-2-2.7-2-6.4,0-9.1l2-2.7l0.4,0.6L267.3,139.5z M264.2,139.5c-2.5,3.3-2.5,7.8,0,11.2l0.9,1.2
		v9.5h-1.3v-10l-1.3-1.7c-2-2.7-2-6.4,0-9.1l2-2.7l0.5,0.6L264.2,139.5z M261.2,139.5c-2.5,3.3-2.5,7.8,0,11.2l0.9,1.2v9.5h-1.3v-10
		l-1.3-1.7c-2-2.7-2-6.4,0-9.1l2-2.7l0.5,0.6L261.2,139.5z M227.4,138.8c4.4-3.5,5.2-7.8,5.3-10c0.2,0,0.5,0,0.7-0.1
		c3.8-0.8,8.5,3,8.5,3.1l0.7,0.6l0.5-0.7c0.3-0.5,0.3-1.3,0-2.4c1.3-0.1,2.4,0.3,3.5,0.7c0.3,0.1,0.6,0.2,0.9,0.3v7.4
		c0,6.2,1.9,12.3,5.5,18c1.6,2.6,3.6,5.1,6,7.5c-0.5-0.3-0.9-0.5-1.4-0.8c-4.7-2.8-10-4.3-15.4-4.3c-2.3,0-4.9,0.3-7.4,1
		c0.8-1.4,1.7-3.8,1.9-6.1C237.3,148.9,235.9,143.2,227.4,138.8z M220,146.6c0.2-2.3,1.1-4.3,3.6-5.5c0.8-0.4,1.6-0.8,2.3-1.3
		c5,2.5,8.1,5.6,9,9.3c1.4,5.3-1.9,9.9-1.9,9.9l0.1,0l-0.1,0.6c-0.4,0.1-0.8,0.3-1.2,0.4C232.4,152.6,226.4,148.3,220,146.6z
		 M235.3,169.9c-2.3,1.6-4.6,3.1-6.4,3.7c-0.5,0.1-0.9,0.2-1.3,0.1c-0.2,0-0.3-0.1-0.4-0.3c-0.1-0.1-0.1-0.3,0.1-0.6c0,0,0,0,0,0
		c2.8-2.9,8.1-5.5,12.9-6.3c0.1,0,0.1,0,0.2,0C238.9,167.5,237.1,168.7,235.3,169.9z M238.4,184.2c-0.1,0-0.2,0-0.3,0l-0.1,0
		c-1.9-0.1-3.2-0.1-4.8-1.1c0-0.1,0-0.1,0.1-0.1c-0.2-0.1-0.5-0.2-0.7-0.4c0.2-0.4,1.2-1.2,2.2-1.9c0.2-0.1,0.3-0.2,0.5-0.3
		c0.3-0.2,0.6-0.4,0.8-0.5C236.7,181.3,237.7,183,238.4,184.2z M246.1,172.1l-0.1,0.2l-0.4,0.4l-0.4,0.4l-0.4,0.4l-0.5,0.3l-0.5,0.3
		l-0.5,0.3v0l0,0h0l0.5-0.3l0.5-0.3l0.5-0.3l0.5-0.3l0.5-0.4l0,0c-0.2,0.4-0.5,0.8-1,1.2c-1.3,1.1-3.3,1.9-5.4,2.9
		c-0.9,0.4-1.9,0.8-2.8,1.3c-0.1,0-0.1,0.1-0.2,0.1c-0.1,0-0.1,0.1-0.2,0.1c-0.1,0.1-0.2,0.1-0.4,0.2c-0.1,0-0.1,0.1-0.2,0.1
		c-0.1,0-0.1,0.1-0.2,0.1c-0.1,0.1-0.3,0.2-0.4,0.2c-0.1,0.1-0.3,0.2-0.4,0.2c-0.1,0.1-0.2,0.1-0.4,0.2c-0.2,0.2-0.5,0.3-0.7,0.5
		c-0.1,0.1-0.3,0.2-0.4,0.3c-0.1,0.1-0.3,0.2-0.4,0.4c-0.4,0.3-0.7,0.7-1,1c0,0,0,0,0-0.1c0,0,0-0.1,0.1-0.1
		c0.1-0.1,0.1-0.2,0.2-0.3c0.2-0.3,0.6-0.6,0.9-0.9c0.1-0.1,0.3-0.2,0.4-0.4c0,0,0,0,0,0c0.1-0.1,0.3-0.2,0.4-0.3
		c0.3-0.2,0.5-0.4,0.7-0.6c0.1-0.1,0.2-0.2,0.3-0.2c0,0,0.1,0,0.1-0.1c0.2-0.1,0.3-0.2,0.4-0.3c0.1,0,0.1-0.1,0.1-0.1
		c0,0,0.1,0,0.1,0s0,0-0.1,0c0,0-0.1,0-0.1,0.1c-0.1,0-0.2,0.1-0.4,0.2c-0.1,0-0.1,0.1-0.2,0.1c-0.1,0-0.1,0.1-0.2,0.1
		c-0.2,0.1-0.4,0.3-0.7,0.4c-0.1,0.1-0.2,0.2-0.4,0.3c-0.1,0.1-0.2,0.1-0.3,0.2c0,0-0.1,0-0.1,0.1c-0.5,0.4-1,0.8-1.3,1.2
		c-0.1,0.1-0.2,0.2-0.2,0.3c-0.1-0.2-0.2-0.3-0.3-0.5c0-0.1,0.1-0.1,0.1-0.2c0.1-0.1,0.1-0.2,0.2-0.3c0.3-0.4,0.8-0.9,1.3-1.3
		c0.4-0.3,0.8-0.6,1.2-0.9c0.1-0.1,0.2-0.2,0.3-0.2c0.1,0,0.1-0.1,0.2-0.1c0.1-0.1,0.3-0.2,0.4-0.2c0.1-0.1,0.2-0.1,0.2-0.1
		c0,0,0,0,0,0s0,0,0,0c0,0-0.1,0-0.2,0.1c-0.1,0-0.2,0.1-0.3,0.2c-0.1,0-0.1,0.1-0.3,0.1c-0.1,0-0.1,0.1-0.2,0.1
		c-0.4,0.3-0.9,0.6-1.4,0.9c-0.5,0.4-1.1,0.9-1.4,1.3c-0.1,0.1-0.2,0.2-0.2,0.3c-0.1-0.2-0.2-0.4-0.3-0.5c0,0,0-0.1,0.1-0.1
		c0-0.1,0.1-0.2,0.2-0.3c0.3-0.4,0.8-0.9,1.3-1.3c0.5-0.4,1.1-0.9,1.5-1.1c0.2-0.1,0.4-0.3,0.5-0.3c0.1-0.1,0.2-0.1,0.2-0.1
		s-0.1,0-0.2,0.1c-0.1,0.1-0.3,0.2-0.5,0.3c-0.4,0.3-1,0.6-1.6,1.1c-0.5,0.4-1.1,0.9-1.4,1.3c-0.1,0.1-0.1,0.1-0.2,0.2
		c-0.1-0.2-0.2-0.4-0.2-0.6c0.1-0.1,0.1-0.2,0.2-0.3c0.3-0.4,0.8-0.9,1.3-1.3c0.5-0.4,1.1-0.9,1.5-1.1c0.2-0.1,0.4-0.3,0.5-0.3
		c0.1-0.1,0.2-0.1,0.2-0.1s-0.1,0-0.2,0.1c-0.1,0.1-0.3,0.2-0.5,0.3c-0.4,0.3-1,0.6-1.6,1c-0.6,0.4-1.1,0.9-1.4,1.3
		c0,0,0,0.1-0.1,0.1c-0.1-0.2-0.1-0.4-0.2-0.7c0,0,0,0,0-0.1c0.3-0.4,0.8-0.9,1.3-1.3c0.5-0.4,1.1-0.9,1.5-1.1
		c0.2-0.1,0.4-0.3,0.5-0.3c0.1-0.1,0.2-0.1,0.2-0.1s-0.1,0-0.2,0.1c-0.1,0.1-0.3,0.2-0.5,0.3c-0.4,0.3-1,0.6-1.6,1
		c-0.3,0.2-0.5,0.4-0.7,0.6c1.6-2.1,4-3.2,6.5-4.3c2.9-1.3,5.8-2.6,7.6-5.5c0,0,0,0.1,0.1,0.2l0,0l-0.1,0.3l-0.2,0.3l-0.2,0.3
		l-0.2,0.3l-0.2,0.3l-0.2,0.3l-0.2,0.2l-0.2,0.2l-0.3,0.2l-0.3,0.2l-0.3,0.2l-0.3,0.2l-0.3,0.2c-0.2,0.1-0.4,0.2-0.6,0.4v0l0,0l0,0
		l0,0l0,0h0c0.2-0.1,0.4-0.2,0.6-0.3l0.3-0.2l0.3-0.2l0.3-0.2l0.3-0.2l0.3-0.2l0.3-0.2l0.3-0.2l0.2-0.2l0.2-0.3l0.2-0.3l0.2-0.3
		l0.2-0.3l0,0c0.1,0.2,0.2,0.4,0.2,0.7l-0.1,0.1l-0.2,0.3L245,169l-0.2,0.3l-0.2,0.3l-0.2,0.3l-0.2,0.2l-0.2,0.2l-0.3,0.2l-0.3,0.2
		l-0.3,0.2l-0.3,0.2l-0.3,0.2c-0.2,0.1-0.4,0.2-0.6,0.4v0l0,0l0,0l0,0c0.2-0.1,0.4-0.2,0.6-0.3l0.3-0.2l0.3-0.2l0.3-0.2l0.3-0.2
		l0.3-0.2l0.3-0.2l0.3-0.2l0.2-0.2l0.2-0.3l0.2-0.3l0.2-0.3l0.1-0.2c0.1,0.2,0.2,0.5,0.2,0.7l-0.1,0.2l-0.2,0.3l-0.2,0.3l-0.2,0.3
		l-0.2,0.3l-0.2,0.2l-0.2,0.2l-0.3,0.2l-0.3,0.2l-0.3,0.2l-0.3,0.2l-0.3,0.2c-0.2,0.1-0.4,0.2-0.6,0.4l0,0l0,0l0,0
		c0.2-0.1,0.4-0.2,0.6-0.3l0.3-0.2l0.3-0.2l0.3-0.2l0.3-0.2l0.3-0.2l0.3-0.2l0.3-0.2l0.2-0.2l0.2-0.3l0.2-0.3l0.2-0.3
		c0.1,0.2,0.1,0.4,0.2,0.6c0,0.1,0,0.2,0,0.2l-0.1,0.2l-0.2,0.3l-0.2,0.3l-0.2,0.3l-0.2,0.2l-0.2,0.2l-0.3,0.2l-0.3,0.2l-0.3,0.2
		l-0.3,0.2l-0.3,0.2c-0.2,0.1-0.4,0.2-0.6,0.4v0v0l0,0l0,0l0,0l0,0l0,0c0.2-0.1,0.4-0.2,0.6-0.3l0.3-0.2l0.3-0.2l0.3-0.2l0.3-0.2
		l0.3-0.2l0.3-0.2l0.3-0.2l0.2-0.2l0.2-0.3l0.2-0.3C246.2,171.3,246.2,171.7,246.1,172.1z M256.5,170.5c-3.7-2.2-7-4.2-10.7-4.9
		c-0.1,0-0.2,0-0.3,0c-0.1,0-0.2,0-0.3,0c-0.1,0-0.2,0-0.3-0.1c0,0-0.1,0-0.1,0c-0.1,0-0.1,0-0.2,0c0,0-0.1,0-0.1,0c0,0-0.1,0-0.1,0
		c-1.3-0.1-2.7-0.1-4.2,0.1c-5.1,0.8-10.7,3.6-13.6,6.6c-0.2,0.2-0.4,0.5-0.5,0.8l-0.4-0.8c0.1-0.1,0.1-0.2,0.2-0.4
		c0.1-0.1,0.2-0.3,0.3-0.4c0.1-0.1,0.1-0.1,0.2-0.2c0.1-0.1,0.1-0.2,0.2-0.2c0.1-0.2,0.3-0.3,0.5-0.5c0.2-0.2,0.3-0.3,0.5-0.4
		c0.7-0.6,1.4-1.1,2-1.5c0.3-0.2,0.5-0.4,0.7-0.5c0.1-0.1,0.1-0.1,0.2-0.2c0,0,0.1-0.1,0.1-0.1s0,0-0.1,0.1c0,0-0.1,0.1-0.2,0.1
		c-0.2,0.1-0.4,0.3-0.7,0.4c-0.6,0.4-1.3,0.8-2.1,1.4c-0.2,0.1-0.4,0.3-0.5,0.4c-0.2,0.1-0.3,0.3-0.5,0.4c-0.1,0.1-0.1,0.2-0.2,0.2
		c-0.1,0.1-0.1,0.2-0.2,0.2c-0.1,0.2-0.2,0.3-0.3,0.5c0,0.1-0.1,0.1-0.1,0.2l-0.3-0.5c0,0,0,0,0,0c0.1-0.1,0.1-0.3,0.2-0.4
		c0.1-0.1,0.2-0.3,0.3-0.4c0.1-0.1,0.1-0.2,0.2-0.2c0.1-0.1,0.1-0.2,0.2-0.2c0.1-0.2,0.3-0.3,0.5-0.5c0.2-0.2,0.3-0.3,0.5-0.4
		c0.7-0.6,1.4-1.1,2-1.5c0.3-0.2,0.5-0.4,0.7-0.5c0.1-0.1,0.1-0.1,0.2-0.2c0,0,0.1-0.1,0.1-0.1s0,0-0.1,0.1c0,0-0.1,0.1-0.2,0.1
		c-0.2,0.1-0.4,0.3-0.7,0.4c-0.6,0.4-1.4,0.8-2.1,1.4c-0.2,0.1-0.4,0.3-0.5,0.4c-0.2,0.1-0.3,0.3-0.5,0.4c-0.1,0.1-0.1,0.2-0.2,0.2
		c-0.1,0.1-0.1,0.2-0.2,0.2c-0.1,0.2-0.2,0.3-0.3,0.5c-0.1,0.1-0.1,0.2-0.1,0.3l-0.2-0.5c0,0,0-0.1,0.1-0.1c0.1-0.1,0.1-0.3,0.2-0.4
		c0.1-0.1,0.2-0.3,0.3-0.4c0.1-0.1,0.1-0.2,0.2-0.2c0.1-0.1,0.1-0.2,0.2-0.2c0.1-0.2,0.3-0.3,0.4-0.5c0.2-0.2,0.3-0.3,0.5-0.4
		c0.7-0.6,1.4-1.1,2-1.5c0.3-0.2,0.5-0.4,0.7-0.5c0.1-0.1,0.1-0.1,0.2-0.2c0,0,0.1-0.1,0.1-0.1s0,0-0.1,0.1c0,0-0.1,0.1-0.2,0.1
		c-0.2,0.1-0.4,0.3-0.7,0.4c-0.6,0.4-1.4,0.8-2.1,1.4c-0.2,0.1-0.4,0.3-0.5,0.4c-0.2,0.1-0.3,0.3-0.5,0.4c-0.1,0.1-0.1,0.2-0.2,0.2
		c-0.1,0.1-0.1,0.2-0.2,0.2c-0.1,0.2-0.2,0.3-0.3,0.5c-0.1,0.1-0.1,0.2-0.2,0.3l-0.2-0.4c0,0,0,0,0,0c0-0.1,0-0.1,0.1-0.2
		c0-0.1,0.1-0.3,0.2-0.4c0.1-0.1,0.2-0.3,0.3-0.4c0.1-0.1,0.1-0.2,0.2-0.2c0.1-0.1,0.1-0.2,0.2-0.2c0.1-0.2,0.3-0.3,0.4-0.5
		c0.2-0.1,0.3-0.3,0.5-0.4c0.7-0.6,1.4-1.1,2-1.5c0.3-0.2,0.5-0.4,0.7-0.5c0.1-0.1,0.1-0.1,0.2-0.2c0,0,0.1-0.1,0.1-0.1s0,0-0.1,0.1
		c0,0-0.1,0.1-0.2,0.1c-0.2,0.1-0.4,0.3-0.7,0.4c-0.6,0.4-1.4,0.8-2.1,1.4c-0.2,0.1-0.4,0.3-0.5,0.4c-0.2,0.1-0.3,0.3-0.5,0.4
		c-0.1,0.1-0.1,0.2-0.2,0.2c-0.1,0.1-0.1,0.2-0.2,0.2c-0.1,0.2-0.2,0.3-0.3,0.5c-0.1,0.1-0.2,0.3-0.2,0.4L224,169c0,0,0-0.1,0-0.2
		c0,0,0,0,0-0.1c0-0.1,0-0.1,0.1-0.2c0-0.1,0-0.1,0.1-0.2c0-0.1,0.1-0.1,0.1-0.2c0.1-0.1,0.2-0.3,0.3-0.4c0.1-0.2,0.2-0.3,0.3-0.5
		c0.1-0.2,0.3-0.3,0.4-0.5c0.1-0.2,0.3-0.3,0.5-0.5c0.6-0.6,1.4-1.1,1.9-1.4c0.6-0.3,1-0.5,1-0.5s-0.4,0.2-1,0.5
		c-0.6,0.3-1.3,0.8-2,1.3c-0.2,0.1-0.3,0.3-0.5,0.4c-0.2,0.2-0.3,0.3-0.4,0.5c-0.1,0.2-0.3,0.3-0.4,0.5c-0.1,0.2-0.2,0.3-0.3,0.5
		c0,0.1-0.1,0.1-0.1,0.2c0-0.2,0-0.4,0.1-0.6c1.1-2.1,3.5-4.2,6.6-5.7c3.4-1.7,7.6-2.6,11.7-2.6c5.2,0,10.3,1.4,14.8,4.1
		c1.8,1.1,3.6,2,5.4,2.9c1.3,1.2,2.7,2.3,4.1,3.4c5.1,4,10.4,7,14.4,9.1C269.5,178.4,262.6,174.2,256.5,170.5z M284.4,177.8v-5.7
		v-1.3v-31.2c-0.6-0.3-1.1-0.6-1.7-1v32.2v1.3v5.7c-1.9-1-4.2-2.2-6.7-3.7v-2.8V170v-3.5l1.7,1.7l1.2-1.2l-2.5-2.5l2.5-2.5l-1.2-1.2
		l-1.7,1.7V152l0.7-0.9c2.7-3.6,2.7-8.5,0-12.1l-3-4l-1.5,2l-1.5-2l-1.5,2l-1.5-2l-1.5,2.1l-1.5-2.1l-1.5,2l-1.5-2l-3.3,4.5
		c-2.5,3.3-2.5,7.8,0,11.2l0.9,1.2v8.7c-1.7-1.9-3.2-3.8-4.4-5.8c-3.5-5.4-5.2-11.2-5.2-17.1v-3.8h27.1c-0.6-0.6-1.2-1.1-1.8-1.7
		h-25.3v-1.6c0.8,0,1.7-0.2,2.6-0.8c1-0.7,1.3-1.5,1.1-2.2l0.2,0l0.2-0.7c0.4-1.5-0.1-2.3-0.6-2.7c0,0,0,0,0,0l-0.1-0.8
		c-0.3-1.7-1.1-2.3-1.7-2.4c-0.5-0.2-1-0.1-1.6,0v-15.1v-0.3v-0.6v-0.6v-0.3v-1v-0.2v-0.6v-0.5v-0.6v-2v-0.4
		c0.5,0.1,1.1,0.2,1.6,0.4c0.3,0.1,0.6,0.1,1,0.2c0.1,0,0.2,0,0.4,0.1c10.2,1.8,20.3,0,30.3-5.4v36.6c0.6,0.5,1.2,1,1.7,1.5V93.9
		c10.7,5.7,21.6,7.6,33.2,4.8v33.5h-1.4v-8.3h1.2l-3-15.1h-2.1l-0.4-0.6l-3.2-5.7l-3.7,6.3h-1.7l0-2.3h-3.7l-0.1,2.3h-2.3l-3.6-6.4
		l-3.7,6.4h-2l-2.8,15.1h0.9v8.3h-1.4c0.5,0.4,1.1,0.8,1.6,1.2c0.1,0,0.1,0.1,0.2,0.1c0.2,0.1,0.4,0.3,0.6,0.4h30.6v2.6c0,0,0,0,0,0
		l-3-0.8l1.5,2.3c-0.1,0-0.3,0-0.4,0l-2.7,0.3l2,1.8c0.4,0.4,0.9,0.9,1.3,2.2c0.2,0.8,0.4,2.2,0.4,2.7c-0.2,0.7-0.8,2.6-1.3,4.2
		c-0.8,1.9-1.7,3.7-2.9,5.5c-0.1,0.1-0.2,0.3-0.3,0.4c0,0,0,0,0,0c0-0.8-0.4-0.9-0.6-1.1c-0.3-0.3,0.3-0.8,0.3-0.8
		c-0.1,0-0.1,0-0.2,0c-0.7,0-0.9,0.8-0.9,0.8s-0.2,0-0.1-0.3c0,0,0,0,0,0c0,0,0,0,0,0c0,0,0-0.1,0-0.1c-0.4,0.1-0.5,0.6-0.7,0.7
		c-0.7,0.2-1.7,0.4-2.9,0.4c-1.7,0-1.6-0.6-1.6-0.6c-0.4,0.1-0.2,0.5-0.2,0.5v0c-0.8-0.1-0.3-1-0.3-1c-0.9,0.2-0.6,1-0.6,1
		s-0.1,0-0.3,0c-0.4,0-1.2-0.1-1.2-1.1c0-0.9,1.3-1.1,2.2-1.1c0.6,0,1,0.1,1,0.1c0.2,0.3,0.8,0.4,1.1,0.4c0.1,0,0.2,0,0.2,0.1
		c0,0,0,0-0.1-0.1c0.1,0,0.1,0,0.1,0c-0.4-0.3-0.2-0.5-0.2-0.5c0.3,0.3,0.7,0.4,1,0.4c0.3,0,0.6-0.1,0.6-0.1
		c-0.7-0.1-0.7-0.4-0.7-0.4c1.4-0.2,0.7-1.6,0.7-1.6c-0.3,1.1-2.1,0.9-3.9,1.1c-1.5,0.2-2.8,0.3-2.8,1.8c0,1.7,1.9,1.8,4,1.8
		c1.2,0,2.5-0.3,2.8-0.3c0,0,0,0,0,0c0,0,0,0,0.1,0c-0.2,0.4,0.4,0.6,0.4,0.6s0-0.6,0.5-0.8c0.3-0.1,0.7-0.2,1.1-0.2
		c0.3,0,0.6,0.1,0.6,0.5c0,0.6-1,1.1-3,1.1c-0.8,0-1.9-0.1-3-0.3c-1.3-0.2-2.6-0.3-3.6-0.3c-1.2,0-2.1,0.1-2.7,0.2c0,0-0.1,0-0.1,0
		c0,0,0,0-0.1,0c0-0.2,0-0.3-0.1-0.4c0,0,0-0.1,0-0.1c0,0,0,0,0,0c0,0,0-0.1,0-0.1c0,0-0.2,0.4-0.7,0.4c-0.5,0,0-0.7,0.3-0.8
		c0.2-0.1,0.8-0.3,0.9-0.7c0,0-0.3-0.2-0.5-0.2c-0.1,0-0.1,0-0.2,0.1c0,0,0,0,0,0c0.1-0.1,0.5-0.8,0.2-1.4c0-0.2-0.1-0.3-0.3-0.5
		c0,0,0,0.1,0,0.1c0,0,0-0.1-0.1-0.1c0,0,0,0.5-0.4,0.5c-0.1,0-0.1,0-0.2,0c-0.5-0.2-0.4-0.8,0-1c0,0,0,0,0.1,0c0,0,0,0,0,0
		c0,0,0,0-0.1,0c0,0,0.1-0.1,0.1-0.1c0,0-0.2-0.1-0.4-0.1c-0.2,0-0.5,0.1-0.7,0.3c-0.3,0.4-0.4,0.6-0.6,0.6c0,0-0.1,0-0.1,0
		c-0.4-0.2,0.1-0.6,0.1-0.6s-0.1,0-0.2,0c-0.3,0-1.1,0.1-1.1,1.1c0,0.1,0,0.1-0.1,0.2c-0.1-0.1-0.2-0.2-0.6-0.2c0,0-0.2,0.7,0.4,1.3
		c0,0,0,0.7-0.4,0.7c0,0,0,0,0,0c-0.4,0-3.1-1.6-3.1-3.5c0-1.2-0.5-1.4-0.6-1.4c0,0-0.1,0-0.1,0c0.3,0.2,0.1,0.6,0.1,0.6
		c-0.3,0-0.3,0.3-0.1,0.7c0.1,0.2,0.1,0.4,0,0.4c-0.1,0-0.3-0.2-0.5-0.5c-0.2-0.4-0.5-0.6-0.7-0.6c-0.2,0-0.3,0.1-0.3,0.1
		c0.3,0.1,0.3,0.3,0.3,0.3c-0.1,0.1-0.3,0.4,0,0.6c0.3,0.2,0.7,0.4,0.7,0.4s0.1,0-0.8,0.1c-0.9,0.1-0.5,1-0.5,1
		c0-0.4,0.4-0.5,0.4-0.5c0.1,0.2,0.3,0.3,0.4,0.3c0.2,0,0.4-0.2,0.4-0.3c0,0,0,0,0,0c0.1,0.7,0.8,0.8,0.8,0.8c0,0.2-0.2,0.3-0.4,0.3
		c0,0-0.1,0-0.1,0c0,0,0,0,0,0c0,0,0,0,0,0c-0.1,0-0.1,0-0.1,0c0.1,0.5,0.6,0.5,1.1,0.5c0.4,0,0.8,0.2,0.6,0.3
		c-0.1,0-0.1,0.1-0.2,0.1c-0.1,0-0.3-0.1-0.3-0.1c0.2,0.5,0.7,0.7,0.7,0.7c0,0,0,0,0,0c-0.1,0-0.1,0-0.2,0c-0.1,0-0.2,0-0.2,0
		s0.1,0.4,0.4,0.4c0.3,0,0.5,0,0.5,0.5c0,0.2-0.1,0.2-0.2,0.2c-0.1,0-0.3-0.1-0.3-0.1c0.2,1.2,0.7,1.4,1,1.4c0,0,0,0,0,0
		c0,0,0,0,0,0c0,0,0,0,0,0c0,0,0,0,0,0c0,0.4,0,1.3,0.5,1.3c0.1,0,0.2,0,0.3-0.1c-0.2,0.2-0.7,0.6-1.5,0.6c-0.2,0-0.3,0-0.5,0
		c-1.2-0.2-1.4-1.9-1.7-2.6c-0.1-0.4-0.4-0.5-0.6-0.5c-0.1,0-0.3,0.1-0.3,0.1c0.3,0.1,0.3,0.5,0.3,0.5c-0.4,0.2-0.2,0.6-0.1,0.9
		c0,0.1,0.1,0.3,0,0.3c-0.1,0-0.2-0.1-0.4-0.6c-0.2-0.3-0.4-0.4-0.6-0.4c-0.3,0-0.6,0.2-0.6,0.2c0,0,0,0,0,0c0.3,0,0.4,0.3,0.4,0.3
		c0,0.2-0.3,0.6,0.4,0.7c0.7,0.1,0,0.3,0,0.3c-1,0.2-0.7,1-0.7,1c0-0.4,0.4-0.4,0.6-0.4c0.1,0,0.1,0,0.1,0c0.1,0.1,0.2,0.1,0.3,0.1
		c0.2,0,0.5-0.2,0.5-0.2c0,0,0,0,0,0c-0.2,0.7,0.7,0.7,0.8,0.7c0,0,0,0,0,0c0,0,0,0,0,0c-0.1,0.4-0.4,0.5-0.6,0.5c0,0,0,0-0.1,0
		c0,0,0,0,0,0c0,0-0.1,0-0.1,0c0,0,0,0,0,0c0.3,0.2,0.6,0.3,0.9,0.3c0.6,0,1.1-0.3,1.1-0.3c0.2,0,0.6-0.1,0.8-0.1
		c0.1,0,0.2,0,0.1,0.2c-0.3,0.4,0.2,0.6,0.2,0.6c0-0.4,0.9-0.6,1.2-0.7c0.1,0,0.1,0,0.1,0c-0.2,0.3,0,0.6,0,0.6s0.2-0.3,0.8-0.3
		c0.7,0,1-0.3,1-0.3c0.3,0.3,0.8,0.3,0.9,0.3c0,0,0.1,0,0.1,0c-0.2-0.1-0.4-0.3-0.3-0.5c0-0.2,0.2-0.3-0.1-0.5
		c-0.4-0.2-0.2-0.4-0.2-0.4s0.4,0.5,1.5,0.5c1,0,2.6-0.2,3.7-1.1c0.9-0.7,1.6-0.9,1.8-0.9c0,0,0,0,0.1,0c-0.2,0.2-0.8,0.7,0.2,1.1
		c1.2,0.5,1.7,0.3,1.7,0.6c0,0.1,0,0.1-0.1,0.1c-0.4,0-1.6-0.6-2.4-0.6c-1,0-0.7,0.8-0.7,0.8c0-0.2,0.3-0.3,0.4-0.3
		c0.1,0,0.2,0,0.1,0.1c-0.1,0.3,0.1,0.4,0.1,0.4c-1.2,0.5-0.4,1.2-0.4,1.2c-0.1-0.4,0.1-0.5,0.3-0.5c0.2,0,0.5,0.1,0.5,0.1
		c-0.2-0.4,0.2-0.7,0.7-0.7c0.2,0,0.4,0,0.5,0.1c0.3,0.1,0.5,0.1,0.7,0.1c0.4,0,0.6-0.1,0.6-0.1c0.2-0.1,0.3-0.2,0.4-0.2
		c0.3,0,0,0.5-0.1,0.7c0,0,0,0,0,0c0,0,0,0,0,0c0,0-0.1,0.1-0.1,0.1c0,0,0,0,0,0c0.3,0,0.6-0.4,0.6-0.4c0.6-0.2,0.3-0.8,0.3-0.8
		c0.1-0.3,0.7-0.4,1-0.4c0.1,0,0.2,0,0.2,0c-0.3-0.6-1.3-0.4-2.4-0.7c-1-0.3-0.6-1-0.6-1c0,0,0,0,0,0c0.2,0.7,1.4,0.8,2.4,0.8
		c0.7,0,1.3-0.1,1.3-0.1c0.2,0.2-0.1,0.4-0.1,0.4c0.1,0,0.2-0.1,0.4-0.1c-1.4,1.7-2.9,3.3-4.6,5c-1.4,0.2-2.6,0.3-2.6,1.8
		c0,0.2,0,0.4,0.1,0.5c0,0,0,0-0.1,0.1c-0.6,0.5-1.3,1.1-1.9,1.6c-0.4,0-0.8,0.1-1.1,0.1c0,0-0.1,0-0.1,0c0,0,0,0-0.1,0
		c0-0.1,0-0.2,0-0.3c0,0,0-0.1-0.1-0.1c0,0,0-0.1,0-0.1c0,0,0,0,0,0c0,0,0-0.1,0-0.1c0,0-0.2,0.4-0.7,0.4c-0.5,0,0-0.7,0.3-0.8
		c0.2-0.1,0.8-0.3,0.9-0.7c0,0-0.3-0.2-0.5-0.2c-0.1,0-0.1,0-0.2,0.1c0,0,0,0,0,0c0.1-0.1,0.5-0.8,0.2-1.4c0-0.2-0.1-0.3-0.3-0.5
		c0,0,0,0.1,0,0.1c0,0,0-0.1-0.1-0.1c0,0,0,0.5-0.4,0.5c-0.1,0-0.1,0-0.2,0c-0.5-0.2-0.4-0.8,0-1c0,0,0,0,0.1,0c0,0,0,0,0,0
		c0,0,0,0-0.1,0c0,0,0.1-0.1,0.1-0.1c0,0-0.2-0.1-0.4-0.1c-0.2,0-0.5,0.1-0.7,0.3c-0.3,0.4-0.4,0.6-0.6,0.6c0,0-0.1,0-0.1,0
		c-0.4-0.2,0.1-0.6,0.1-0.6s-0.1,0-0.2,0c-0.3,0-1.1,0.1-1.1,1.1c0,0.1,0,0.1-0.1,0.2c-0.1-0.1-0.2-0.2-0.6-0.2c0,0-0.2,0.7,0.4,1.3
		c0,0,0,0.7-0.4,0.7c0,0,0,0,0,0c-0.4,0-3.1-1.6-3.1-3.5c0-1.2-0.5-1.4-0.6-1.4c0,0-0.1,0-0.1,0c0.3,0.2,0.1,0.6,0.1,0.6
		c-0.3,0-0.3,0.3-0.1,0.7c0.1,0.2,0.1,0.4,0,0.4c-0.1,0-0.3-0.2-0.5-0.5c-0.2-0.4-0.5-0.6-0.7-0.6c-0.2,0-0.3,0.1-0.3,0.1
		c0.3,0.1,0.3,0.3,0.3,0.3c-0.1,0.1-0.3,0.4,0,0.6c0.3,0.2,0.7,0.4,0.7,0.4s0.1,0-0.8,0.1c-0.9,0.1-0.5,1-0.5,1
		c0-0.4,0.4-0.5,0.4-0.5c0.1,0.2,0.3,0.3,0.4,0.3c0.2,0,0.4-0.2,0.4-0.3c0,0,0,0,0,0c0.1,0.7,0.8,0.8,0.8,0.8c0,0.2-0.2,0.3-0.4,0.3
		c0,0-0.1,0-0.1,0c0,0,0,0,0,0c0,0,0,0,0,0c-0.1,0-0.1,0-0.1,0c0.1,0.5,0.6,0.5,1.1,0.5c0.4,0,0.8,0.2,0.6,0.3
		c-0.1,0-0.1,0.1-0.2,0.1c-0.1,0-0.3-0.1-0.3-0.1c0.2,0.5,0.7,0.7,0.7,0.7c0,0,0,0,0,0c-0.1,0-0.1,0-0.2,0c-0.1,0-0.2,0-0.2,0
		s0.1,0.4,0.4,0.4c0.3,0,0.5,0,0.5,0.5c0,0.2-0.1,0.2-0.2,0.2c-0.1,0-0.3-0.1-0.3-0.1c0.1,0.7,0.4,1,0.6,1.2
		c0.1,0.1,0.3,0.2,0.4,0.2c0,0,0,0,0,0c0,0,0,0,0,0c0,0,0,0,0,0c0,0,0,0,0,0c0,0.3,0,0.7,0.1,1c0.1,0.2,0.2,0.3,0.4,0.3
		c0.1,0,0.2,0,0.3-0.1c-0.2,0.2-0.7,0.6-1.5,0.6c-0.2,0-0.3,0-0.5,0c-0.3,0-0.5-0.2-0.7-0.3c-0.3-0.3-0.5-0.7-0.7-1.2
		c-0.1-0.4-0.2-0.8-0.4-1.1c-0.1-0.4-0.4-0.5-0.6-0.5c-0.1,0-0.3,0.1-0.3,0.1c0.3,0.1,0.3,0.5,0.3,0.5c-0.4,0.2-0.2,0.6-0.1,0.9
		c0,0.1,0.1,0.3,0,0.3c-0.1,0-0.2-0.1-0.4-0.6c-0.2-0.3-0.4-0.4-0.6-0.4c-0.3,0-0.6,0.2-0.6,0.2c0,0,0,0,0,0c0.3,0,0.4,0.3,0.4,0.3
		c0,0.2-0.2,0.5,0.3,0.7c0,0,0.1,0,0.1,0c0.7,0.1,0,0.3,0,0.3c-1,0.2-0.7,1-0.7,1c0-0.4,0.4-0.4,0.6-0.4c0.1,0,0.1,0,0.1,0
		c0.1,0.1,0.2,0.1,0.3,0.1c0.2,0,0.5-0.2,0.5-0.2c0,0,0,0,0,0c0,0.1,0,0.2,0,0.2c0.1,0.4,0.7,0.4,0.8,0.4c0,0,0,0,0,0c0,0,0,0,0,0
		c-0.1,0.4-0.4,0.5-0.6,0.5c0,0,0,0-0.1,0c0,0,0,0,0,0c0,0-0.1,0-0.1,0c0,0,0,0,0,0c0.3,0.2,0.6,0.3,0.9,0.3c0.6,0,1.1-0.3,1.1-0.3
		c0.2,0,0.6-0.1,0.8-0.1c0.1,0,0.2,0,0.1,0.2c-0.2,0.2,0,0.4,0.1,0.5C289.6,175.1,286.7,176.6,284.4,177.8z M312.5,129.4
		c0-0.6,0.2-1.4,0.6-2.1c0.4-0.8,1.1-1.3,1.9-1.3v3.5H312.5z M315,130.6v1.5h-2.8v-1.5H315z M312.2,126.4v-2.5h2.8v0.9
		C313.9,124.8,312.9,125.4,312.2,126.4z M305.4,122.6h-8.5h-10.6l1.9-9.5h1.3v7.6h8v-7.6h2.3l-1.9-3.2h2.8l0.1-2.3h1.3l0,2.3h2.3
		l-1.9,3.2h2.1v7.6h8v-7.6h1.5l1.9,9.5H305.4z M309.1,128.3v1.2h-0.8v-1.2H309.1z M308.4,127.1v-1.2h0.8v1.2H308.4z M308.4,130.6
		h2.7v1.5h-2.7L308.4,130.6L308.4,130.6z M310.3,129.4v-1.2h0.7v1.2H310.3z M310.3,127.1v-1.2h0.7v1.2H310.3z M308.4,124.7v-0.9h2.7
		v0.9H308.4z M307.1,130.6v1.5h-1.8v-1.5H307.1z M305.4,129.4v-3.3c0.5,0.2,0.9,0.6,1.2,1.1c0.4,0.7,0.5,1.6,0.6,2.1H305.4z
		 M305.4,124.9v-1h1.8v2.3C306.7,125.5,306.1,125.1,305.4,124.9z M301.1,124.6c-1.2,0-2.2,1-2.2,2.2v5.4h-0.8v-8.3h6.1v8.3h-0.9
		l0-5.4C303.2,125.5,302.3,124.6,301.1,124.6z M302,126.7l0,5.4h-1.9v-5.4c0-0.5,0.4-0.9,0.9-0.9S302,126.2,302,126.7z M295.1,129.4
		c0-0.6,0.2-1.4,0.6-2.1c0.3-0.6,0.7-0.9,1.2-1.2v3.3H295.1z M296.9,130.6v1.5h-2v-1.5H296.9z M294.8,126.4v-2.5h2v1
		C296,125.1,295.4,125.6,294.8,126.4z M291.7,128.3v1.2H291v-1.2H291.7z M291,127.1v-1.2h0.8v1.2H291z M291,130.6h2.7v1.5H291
		L291,130.6L291,130.6z M292.9,129.4v-1.2h0.7v1.2H292.9z M292.9,127.1v-1.2h0.7v1.2H292.9z M291,124.7v-0.9h2.7v0.9H291z
		 M289.7,130.6v1.5h-2.6v-1.5H289.7z M287.1,129.4v-3.5c0.9,0.1,1.5,0.5,2,1.3c0.4,0.7,0.5,1.6,0.6,2.1H287.1z M287.1,124.7v-0.9
		h2.6v2.3C289.1,125.3,288.2,124.8,287.1,124.7z M288.6,111l0.2-1h0.4L288.6,111z M290.9,116.9v2.3h5v-2.3h0.3v2.6h-5.6v-2.6H290.9z
		 M290.6,115.7v-2.6h0.3v0.3v0.6v1.7H290.6z M294,115.7v-0.6v-0.5h0.7v0.5v0.6H294z M294.7,116.9v1.1H294v-1.1H294.7z M292.1,113.4
		v-0.3h0.9h1h0.7v0.3H292.1z M292.8,114.7v1.1h-0.7v-1.1H292.8z M292.8,116.9v1.1h-0.7v-1.1H292.8z M295.9,115.7v-0.6v-0.8v-0.3
		v-0.6v-0.3h0.3v1.2v0.8v0.6H295.9z M294.2,111.9v-0.6c0-1.4,1-2.1,1.6-2.4l0.4,0.6l0.3,0.5h0l1.2,2h-0.2H294.2z M293.5,109.4
		c-0.5-0.9-1.3-1.4-1.8-1.7l1.7-3l1.7,3C294.7,108.1,294,108.6,293.5,109.4z M292.8,111.3v0.6h-3.4l1.8-3
		C291.8,109.2,292.8,110,292.8,111.3z M306,116.9v2.3h5v-2.3h0.3v2.6h-5.6v-2.6H306z M305.7,115.7v-2.6h0.3v0.3v0.6v1.7H305.7z
		 M309.1,115.7v-0.6v-0.5h0.7v0.5v0.6H309.1z M309.8,116.9v1.1h-0.7v-1.1H309.8z M307.2,113.4v-0.3h0.9h1h0.7v0.3H307.2z
		 M307.9,114.7v1.1h-0.7v-1.1H307.9z M307.9,116.9v1.1h-0.7v-1.1H307.9z M311,115.7v-1.7v-0.6v-0.3h0.3v2.6H311z M309.3,111.9v-0.6
		c0-1.4,1-2.1,1.6-2.4l0.6,1.1h0l1.2,2h-0.2H309.3z M308.6,109.4c-0.5-0.8-1.2-1.4-1.7-1.6l1.7-2.9l1.7,2.9
		C309.8,108.1,309.1,108.6,308.6,109.4z M307.9,111.3v0.6h-3.4l1.8-3C306.9,109.2,307.9,110,307.9,111.3z M312.9,110h0.4l0.2,1
		L312.9,110z M307.2,152.2L307.2,152.2L307.2,152.2L307.2,152.2z M304,164.5c-0.4,0.4-0.8,0.7-1.2,1.1c0,0,0,0,0,0
		C302.8,164.9,303.4,164.6,304,164.5z M333.7,183.1c-1.5,1-2.8,1.1-4.8,1.1l-0.1,0c-0.1,0-0.2,0-0.3,0c0.8-1.4,1.8-3,2.4-4.4
		c0.1,0.1,0.2,0.1,0.4,0.2c0.6,0.4,1.2,0.7,1.6,1.1c0,0,0,0,0,0.1c0.7,0.5,1.3,1.1,1.4,1.4C334.1,182.8,333.9,183,333.7,183.1
		C333.7,183.1,333.7,183.1,333.7,183.1z M329.6,172.5c2.3,1.1,4.6,2.1,6.1,3.8c-0.1,0-0.1-0.1-0.2-0.1c-0.5-0.4-1.1-0.8-1.6-1
		c-0.2-0.1-0.4-0.2-0.5-0.3c-0.1-0.1-0.2-0.1-0.2-0.1s0.1,0,0.2,0.1c0.1,0.1,0.3,0.2,0.5,0.3c0.4,0.3,1,0.7,1.5,1.1
		c0.4,0.4,0.8,0.7,1.1,1.1c0,0.1,0.1,0.1,0.1,0.2c-0.1,0.2-0.1,0.4-0.2,0.7c-0.4-0.4-0.8-0.8-1.4-1.2c-0.5-0.4-1.1-0.8-1.6-1
		c-0.2-0.1-0.4-0.2-0.5-0.3c-0.1-0.1-0.2-0.1-0.2-0.1s0.1,0,0.2,0.1c0.1,0.1,0.3,0.2,0.5,0.3c0.4,0.3,1,0.7,1.5,1.1
		c0.5,0.4,1,0.9,1.3,1.3c0,0,0,0.1,0.1,0.1c-0.1,0.2-0.2,0.4-0.2,0.6c0,0,0,0-0.1-0.1c-0.4-0.4-0.9-0.8-1.4-1.3
		c-0.5-0.4-1.1-0.8-1.6-1c-0.2-0.1-0.4-0.2-0.5-0.3c-0.1-0.1-0.2-0.1-0.2-0.1s0.1,0,0.2,0.1c0.1,0.1,0.3,0.2,0.5,0.3
		c0.4,0.3,1,0.7,1.5,1.1c0.5,0.4,1,0.9,1.3,1.3c0.1,0.1,0.1,0.2,0.2,0.2c-0.1,0.2-0.2,0.4-0.3,0.6c0,0-0.1-0.1-0.1-0.1
		c-0.3-0.4-0.9-0.8-1.4-1.3c-0.5-0.4-1.1-0.8-1.6-1c-0.1,0-0.1-0.1-0.2-0.1c-0.1-0.1-0.3-0.2-0.4-0.2c0,0-0.1,0-0.1,0
		c-0.1,0-0.1,0-0.1,0s0.1,0,0.1,0.1c0,0,0,0,0.1,0c0.1,0.1,0.3,0.2,0.4,0.3c0,0,0.1,0,0.1,0.1c0.4,0.3,1,0.7,1.5,1.1
		c0.5,0.4,1,0.9,1.3,1.3c0.1,0.1,0.1,0.2,0.2,0.3c0,0,0,0,0,0c-0.1,0.2-0.2,0.4-0.3,0.5c0-0.1-0.1-0.1-0.1-0.2
		c-0.4-0.4-0.9-0.8-1.4-1.3c-0.1-0.1-0.2-0.1-0.2-0.2c-0.1-0.1-0.3-0.2-0.4-0.3c-0.1-0.1-0.3-0.2-0.4-0.3c-0.1-0.1-0.2-0.1-0.3-0.2
		c-0.1-0.1-0.2-0.1-0.3-0.2c-0.1,0-0.1,0-0.1-0.1c-0.1-0.1-0.3-0.2-0.4-0.2c0,0,0,0,0,0c-0.1-0.1-0.2-0.1-0.2-0.1s0.1,0,0.2,0.1
		c0,0,0,0,0.1,0c0.1,0.1,0.3,0.2,0.4,0.3c0,0,0,0,0,0c0.1,0.1,0.3,0.2,0.4,0.3c0.1,0.1,0.2,0.1,0.3,0.2c0.1,0.1,0.3,0.2,0.4,0.3
		c0.1,0.1,0.2,0.2,0.4,0.3c0,0,0,0,0,0c0.5,0.4,1,0.9,1.3,1.3c0.1,0.1,0.1,0.2,0.2,0.3c0,0.1-0.1,0.1-0.1,0.2
		c-0.3-0.4-0.6-0.7-1-1.1c-0.1-0.1-0.3-0.3-0.4-0.4c-0.1-0.1-0.2-0.2-0.4-0.3c-0.1-0.1-0.2-0.1-0.3-0.2c-0.1-0.1-0.3-0.2-0.4-0.3
		c-0.1-0.1-0.2-0.1-0.4-0.2c-0.1-0.1-0.3-0.2-0.4-0.2c-0.1-0.1-0.2-0.1-0.4-0.2c-0.1,0-0.1-0.1-0.2-0.1c-0.1,0-0.1-0.1-0.2-0.1
		c-0.1,0-0.1-0.1-0.2-0.1c-0.1,0-0.1-0.1-0.2-0.1c-0.1,0-0.1-0.1-0.2-0.1c-0.1,0-0.1-0.1-0.2-0.1c-0.9-0.5-1.9-0.9-2.8-1.3
		c-2.1-0.9-4.1-1.8-5.4-2.9c-0.6-0.5-0.9-1-1.2-1.5l0.4,0.4l0.5,0.4l0.5,0.3l0.5,0.3l0.5,0.3l0.5,0.3h0l0,0l0,0v0l0,0v0l-0.5-0.3
		l-0.5-0.3l-0.5-0.3l-0.4-0.4l-0.4-0.4l-0.4-0.4l-0.3-0.4c0-0.3,0-0.7,0-1l0.1,0.2l0.2,0.3l0.2,0.3l0.2,0.2l0.3,0.2l0.3,0.2l0.3,0.2
		l0.3,0.2l0.3,0.2l0.3,0.2l0.3,0.2c0.2,0.1,0.4,0.2,0.6,0.3l0,0l0,0v0v0c-0.2-0.1-0.4-0.2-0.6-0.4l-0.3-0.2l-0.3-0.2l-0.3-0.2
		l-0.3-0.2l-0.3-0.2l-0.2-0.2l-0.2-0.2l-0.2-0.3l-0.2-0.3l-0.2-0.3l-0.2-0.3l-0.1-0.2c0,0,0,0,0,0c0.1-0.3,0.2-0.5,0.2-0.7l0.1,0.2
		l0.2,0.3l0.2,0.3l0.2,0.3l0.2,0.2l0.3,0.2l0.3,0.2l0.3,0.2l0.3,0.2l0.3,0.2l0.3,0.2l0.3,0.2c0.2,0.1,0.4,0.2,0.6,0.3h0l0,0h0
		c0,0,0,0,0,0c-0.2-0.1-0.4-0.2-0.6-0.4l-0.3-0.2l-0.3-0.2l-0.3-0.2l-0.3-0.2l-0.3-0.2l-0.2-0.2l-0.2-0.2l-0.2-0.3l-0.2-0.3
		l-0.2-0.3l-0.2-0.3l-0.2-0.3l-0.1-0.1c0.1-0.2,0.1-0.5,0.2-0.7l0,0.1l0.2,0.3l0.2,0.3l0.2,0.3l0.2,0.3l0.2,0.2l0.3,0.2l0.3,0.2
		l0.3,0.2l0.3,0.2l0.3,0.2l0.3,0.2l0.3,0.2c0.2,0.1,0.4,0.2,0.6,0.3l0,0l0,0l0,0c0,0,0,0,0,0c-0.2-0.1-0.4-0.2-0.6-0.4l-0.3-0.2
		l-0.3-0.2l-0.3-0.2l-0.3-0.2l-0.3-0.2L323,170l-0.2-0.2l-0.2-0.3l-0.2-0.3l-0.2-0.3l-0.2-0.3l-0.2-0.3l-0.1-0.3l0,0
		c0.1-0.2,0.2-0.4,0.2-0.6l0.1,0.2l0.2,0.3l0.2,0.3l0.2,0.3l0.2,0.3l0.2,0.2l0.3,0.2l0.3,0.2l0.3,0.2l0.3,0.2l0.3,0.2l0.3,0.2
		l0.3,0.2c0.2,0.1,0.4,0.2,0.6,0.3h0l0,0l0,0h0c-0.2-0.1-0.4-0.2-0.6-0.4l-0.3-0.2l-0.3-0.2l-0.3-0.2l-0.3-0.2l-0.3-0.2l-0.2-0.2
		l-0.2-0.2l-0.2-0.3l-0.2-0.3l-0.2-0.3l-0.2-0.3l-0.2-0.3l-0.1-0.3C323.9,169.9,326.8,171.2,329.6,172.5z M326.8,165.5
		C326.8,165.5,326.8,165.5,326.8,165.5c-1.5-0.2-2.9-0.3-4.2-0.1c0,0,0,0,0,0c-0.1,0-0.1,0-0.2,0c-0.1,0-0.1,0-0.2,0c0,0,0,0-0.1,0
		c-0.1,0-0.2,0-0.4,0.1c-0.1,0-0.2,0-0.3,0c-0.1,0-0.2,0-0.3,0c-3.7,0.7-7,2.7-10.6,4.9c-6.1,3.7-13,7.8-24.6,8.4
		c4-2,9.3-5.1,14.4-9c1.4-1.1,2.8-2.3,4.1-3.4c1.8-0.9,3.5-1.8,5.4-2.9c4.5-2.7,9.6-4.1,14.8-4.1c3.7,0,7.5,0.8,10.8,2.1
		c0.3,0.1,0.6,0.3,0.9,0.4c3.1,1.5,5.5,3.6,6.6,5.7c0,0.1,0,0.2,0.1,0.3c-0.1-0.1-0.1-0.2-0.2-0.4c-0.1-0.2-0.2-0.3-0.4-0.5
		c-0.1-0.2-0.3-0.3-0.4-0.5c-0.2-0.2-0.3-0.3-0.5-0.4c-0.7-0.6-1.4-1-2-1.3c-0.6-0.3-1-0.5-1-0.5s0.4,0.2,1,0.5
		c0.6,0.3,1.3,0.8,1.9,1.4c0.2,0.1,0.3,0.3,0.5,0.5c0.1,0.2,0.3,0.3,0.4,0.5c0.1,0.2,0.2,0.3,0.3,0.5c0.1,0.2,0.2,0.3,0.3,0.4
		c0,0.1,0.1,0.1,0.1,0.2c0,0.1,0.1,0.1,0.1,0.2c0,0,0,0,0,0.1c0,0.1,0,0.2-0.1,0.3l-0.1,0.3c-0.1-0.1-0.1-0.2-0.2-0.3
		c-0.1-0.1-0.2-0.3-0.3-0.5c-0.1-0.1-0.1-0.2-0.2-0.2c-0.1-0.1-0.1-0.2-0.2-0.2c-0.2-0.1-0.3-0.3-0.5-0.4c-0.2-0.1-0.3-0.3-0.5-0.4
		c-0.7-0.5-1.5-1-2.1-1.4c-0.3-0.2-0.5-0.3-0.7-0.4c-0.1-0.1-0.1-0.1-0.2-0.1c0,0-0.1-0.1-0.1-0.1s0,0,0.1,0.1c0,0,0.1,0.1,0.2,0.2
		c0.2,0.1,0.4,0.3,0.7,0.5c0.6,0.4,1.3,0.9,2,1.5c0.2,0.1,0.3,0.3,0.5,0.4c0.2,0.1,0.3,0.3,0.5,0.5c0.1,0.1,0.1,0.2,0.2,0.2
		c0.1,0.1,0.1,0.2,0.2,0.2c0.1,0.2,0.2,0.3,0.3,0.4c0.1,0.1,0.1,0.3,0.2,0.4c0,0,0,0.1,0,0.1l-0.2,0.5c0-0.1-0.1-0.2-0.1-0.2
		c-0.1-0.1-0.2-0.3-0.3-0.5c-0.1-0.1-0.1-0.2-0.2-0.2c-0.1-0.1-0.1-0.2-0.2-0.2c-0.2-0.1-0.3-0.3-0.5-0.4c-0.2-0.1-0.3-0.3-0.5-0.4
		c-0.7-0.5-1.5-1-2.1-1.4c-0.3-0.2-0.5-0.3-0.7-0.4c-0.1-0.1-0.1-0.1-0.2-0.1c0,0-0.1-0.1-0.1-0.1s0,0,0.1,0.1c0,0,0.1,0.1,0.2,0.2
		c0.2,0.1,0.4,0.3,0.7,0.5c0.6,0.4,1.3,0.9,2,1.5c0.2,0.1,0.3,0.3,0.5,0.4c0.2,0.1,0.3,0.3,0.4,0.5c0.1,0.1,0.1,0.2,0.2,0.2
		c0.1,0.1,0.1,0.2,0.2,0.2c0.1,0.2,0.2,0.3,0.3,0.4c0.1,0.1,0.1,0.3,0.2,0.4c0,0,0,0,0,0l-0.3,0.5c0-0.1-0.1-0.1-0.1-0.2
		c-0.1-0.1-0.2-0.3-0.3-0.5c-0.1-0.1-0.1-0.2-0.2-0.2c-0.1-0.1-0.1-0.2-0.2-0.2c-0.2-0.2-0.3-0.3-0.5-0.4c-0.2-0.1-0.3-0.3-0.5-0.4
		c-0.7-0.5-1.5-1-2.1-1.4c-0.3-0.2-0.5-0.3-0.7-0.4c-0.1-0.1-0.1-0.1-0.2-0.1c0,0-0.1-0.1-0.1-0.1s0,0,0.1,0.1c0,0,0.1,0.1,0.2,0.2
		c0.2,0.1,0.4,0.3,0.7,0.5c0.6,0.4,1.3,0.9,2,1.5c0.2,0.1,0.3,0.3,0.5,0.4c0.2,0.1,0.3,0.3,0.4,0.5c0.1,0.1,0.1,0.2,0.2,0.2
		c0.1,0.1,0.1,0.2,0.2,0.2c0.1,0.2,0.2,0.3,0.3,0.4c0.1,0.1,0.1,0.2,0.2,0.4l-0.3,0.5c0,0,0-0.1-0.1-0.1c-0.1-0.1-0.2-0.3-0.3-0.5
		c-0.1-0.1-0.1-0.2-0.2-0.2c-0.1-0.1-0.1-0.2-0.2-0.2c-0.2-0.1-0.3-0.3-0.5-0.4c-0.2-0.1-0.3-0.3-0.5-0.4c-0.7-0.5-1.5-1-2.1-1.4
		c-0.3-0.2-0.5-0.3-0.7-0.4c-0.1-0.1-0.1-0.1-0.2-0.1c0,0-0.1-0.1-0.1-0.1s0,0,0.1,0.1c0,0,0.1,0.1,0.2,0.2c0.2,0.1,0.4,0.3,0.7,0.5
		c0.6,0.4,1.3,0.9,2,1.5c0.2,0.1,0.3,0.3,0.5,0.4c0.2,0.1,0.3,0.3,0.4,0.5c0.1,0.1,0.1,0.2,0.2,0.2c0.1,0.1,0.1,0.2,0.2,0.2
		c0.1,0.2,0.2,0.3,0.3,0.4c0.1,0.1,0.1,0.2,0.1,0.3l-0.5,0.9c0,0,0,0,0,0c0-0.3-0.2-0.6-0.4-0.9c-2.9-3-8.4-5.7-13.4-6.6
		C326.9,165.5,326.9,165.5,326.8,165.5z M327.2,166.8c0.3,0.1,0.6,0.1,0.8,0.2c0.5,0.1,1,0.2,1.5,0.4c0.2,0,0.3,0.1,0.5,0.1
		c3.8,1.2,7.4,3.2,9.6,5.5c0,0,0,0,0,0c0.1,0.1,0.1,0.1,0.1,0.2c-0.2,0.4-0.9,0.5-1.4,0.5c-1.8-0.6-4.1-2.2-6.4-3.8
		c-1.2-0.9-2.4-1.7-3.6-2.4C327.9,167.2,327.5,167,327.2,166.8z"/>
	<path class="st0" d="M251.2,128.1c0,0-0.1,0-0.2,0c0,0.1-0.1,0.2-0.1,0.3C251,128.3,251.1,128.2,251.2,128.1z"/>
	<path class="st0" d="M250.7,122.8C250.7,122.8,250.7,122.8,250.7,122.8c0-0.1-0.1-0.2-0.3-0.3C250.5,122.5,250.6,122.6,250.7,122.8
		z"/>
	<path class="st0" d="M333.7,183.1C333.7,183.1,333.7,183.1,333.7,183.1c-1.4,0.7-3,1.1-4.8,1.1
		C330.9,184.2,332.1,184.1,333.7,183.1z"/>
	<path class="st0" d="M332.9,181.2c-0.5-0.4-1-0.8-1.6-1.1C331.7,180.4,332.3,180.8,332.9,181.2
		C332.9,181.3,332.9,181.2,332.9,181.2z"/>
	<path class="st0" d="M308.5,144.1c-0.8,0-1.9-0.1-3-0.3c-1.3-0.2-2.6-0.3-3.6-0.3c-1.2,0-2.1,0.1-2.7,0.2c0,0-0.1,0-0.1,0
		c0,0,0,0-0.1,0c0-0.2,0-0.3-0.1-0.4c0,0,0-0.1,0-0.1c0,0,0,0,0,0c0,0,0-0.1,0-0.1c0,0-0.2,0.4-0.7,0.4c-0.5,0,0-0.7,0.3-0.8
		c0.2-0.1,0.8-0.3,0.9-0.7c0,0-0.3-0.2-0.5-0.2c-0.1,0-0.1,0-0.2,0.1c0,0,0,0,0,0c0.1-0.1,0.5-0.8,0.2-1.4c0-0.1-0.1-0.3-0.2-0.4
		c0,0,0,0,0,0c0,0,0,0-0.1,0c0,0-0.1,0-0.1,0.1c0,0.1-0.1,0.3-0.3,0.3c0,0-0.1,0-0.1,0c0,0-0.1,0-0.1,0.1c0,0-0.1,0-0.1,0
		c-0.8,0.4-1.6,0.7-2.5,0.9c0,0,0,0-0.1,0c-0.1,0-0.3,0.1-0.4,0.1c0,0-0.1,0-0.1,0c0,0-0.1,0-0.1,0c0.1,0.1,0.1,0.3,0.3,0.4
		c0,0,0,0.7-0.4,0.7c0,0,0,0,0,0c-0.2,0-0.8-0.4-1.5-0.9c0,0-0.1,0-0.1,0c0,0-0.1,0-0.1,0c-0.3,0-0.5,0-0.8,0c-0.3,0-0.7,0-1.1-0.1
		c-0.1,0-0.1,0-0.2,0c0,0-0.1,0-0.1,0c0.2,0.3,0.6,0.3,1,0.3c0.4,0,0.8,0.2,0.6,0.3c-0.1,0-0.1,0.1-0.2,0.1c-0.1,0-0.3-0.1-0.3-0.1
		c0.2,0.5,0.7,0.7,0.7,0.7c0,0,0,0,0,0c-0.1,0-0.1,0-0.2,0c-0.1,0-0.2,0-0.2,0s0.1,0.4,0.4,0.4c0.3,0,0.5,0,0.5,0.5
		c0,0.2-0.1,0.2-0.2,0.2c-0.1,0-0.3-0.1-0.3-0.1c0.2,1.2,0.7,1.4,1,1.4c0,0,0,0,0,0c0,0,0,0,0,0c0,0,0,0,0,0c0,0,0,0,0,0
		c0,0.4,0,1.3,0.5,1.3c0.1,0,0.2,0,0.3-0.1c-0.2,0.2-0.7,0.6-1.5,0.6c-0.2,0-0.3,0-0.5,0c-1.2-0.2-1.4-1.9-1.7-2.6
		c-0.1-0.4-0.4-0.5-0.6-0.5c-0.1,0-0.3,0.1-0.3,0.1c0.3,0.1,0.3,0.5,0.3,0.5c-0.4,0.2-0.2,0.6-0.1,0.9c0,0.1,0.1,0.3,0,0.3
		c-0.1,0-0.2-0.1-0.4-0.6c-0.2-0.3-0.4-0.4-0.6-0.4c-0.3,0-0.6,0.2-0.6,0.2c0,0,0,0,0,0c0.3,0,0.4,0.3,0.4,0.3
		c0,0.2-0.3,0.6,0.4,0.7c0.7,0.1,0,0.3,0,0.3c-1,0.2-0.7,1-0.7,1c0-0.4,0.4-0.4,0.6-0.4c0.1,0,0.1,0,0.1,0c0.1,0.1,0.2,0.1,0.3,0.1
		c0.2,0,0.5-0.2,0.5-0.2c0,0,0,0,0,0c-0.2,0.7,0.7,0.7,0.8,0.7c0,0,0,0,0,0c0,0,0,0,0,0c-0.1,0.4-0.4,0.5-0.6,0.5c0,0,0,0-0.1,0
		c0,0,0,0,0,0c0,0-0.1,0-0.1,0c0,0,0,0,0,0c0.3,0.2,0.6,0.3,0.9,0.3c0.6,0,1.1-0.3,1.1-0.3c0.2,0,0.6-0.1,0.8-0.1
		c0.1,0,0.2,0,0.1,0.2c-0.3,0.4,0.2,0.6,0.2,0.6c0-0.4,0.9-0.6,1.2-0.7c0.1,0,0.1,0,0.1,0c-0.2,0.3,0,0.6,0,0.6s0.2-0.3,0.8-0.3
		c0.7,0,1-0.3,1-0.3c0.3,0.3,0.8,0.3,0.9,0.3c0,0,0.1,0,0.1,0c-0.2-0.1-0.4-0.3-0.3-0.5c0-0.2,0.2-0.3-0.1-0.5
		c-0.4-0.2-0.2-0.4-0.2-0.4s0.4,0.5,1.5,0.5c1,0,2.6-0.2,3.7-1.1c0.9-0.7,1.6-0.9,1.8-0.9c0,0,0,0,0.1,0c-0.2,0.2-0.8,0.7,0.2,1.1
		c1.2,0.5,1.7,0.3,1.7,0.6c0,0.1,0,0.1-0.1,0.1c-0.4,0-1.6-0.6-2.4-0.6c-1,0-0.7,0.8-0.7,0.8c0-0.2,0.3-0.3,0.4-0.3
		c0.1,0,0.2,0,0.1,0.1c-0.1,0.3,0.1,0.4,0.1,0.4c-1.2,0.5-0.4,1.2-0.4,1.2c-0.1-0.4,0.1-0.5,0.3-0.5c0.2,0,0.5,0.1,0.5,0.1
		c-0.2-0.4,0.2-0.7,0.7-0.7c0.2,0,0.4,0,0.5,0.1c0.3,0.1,0.5,0.1,0.7,0.1c0.4,0,0.6-0.1,0.6-0.1c0.2-0.1,0.3-0.2,0.4-0.2
		c0.3,0,0,0.5-0.1,0.7c0,0,0,0,0,0c0,0,0,0,0,0c0,0-0.1,0.1-0.1,0.1c0,0,0,0,0,0c0.3,0,0.6-0.4,0.6-0.4c0.6-0.2,0.3-0.8,0.3-0.8
		c0.1-0.3,0.7-0.4,1-0.4c0.1,0,0.2,0,0.2,0c-0.3-0.6-1.3-0.4-2.4-0.7c-1-0.3-0.6-1-0.6-1c0,0,0,0,0,0c0.2,0.7,1.4,0.8,2.4,0.8
		c0.7,0,1.3-0.1,1.3-0.1c0.2,0.2-0.1,0.4-0.1,0.4c1-0.1,1.7-1.1,2-1.1c0.3,0,0.3,0.4,0.3,0.7c0,0.3-0.3,0.6-1.3,0.8
		c-1,0.2-0.6,1-0.6,1c0-0.2,0.3-0.2,0.4-0.2c0,0,0.1,0,0.1,0c0.1,0.1,0.2,0.2,0.3,0.2c0.1,0,0.3-0.1,0.4-0.2
		c0.1-0.1,0.2-0.1,0.3-0.1c0.1,0,0.1,0.1,0,0.2c-0.2,0.3-0.3,0.4-0.3,0.8c0,0.5,0.3,0.6,0.3,0.6c-0.1-0.3,0-0.4,0.4-0.5
		c0.4-0.1,0.2-0.6,0.2-0.6c0.1-0.1,0.1-0.2,0.1-0.2c0.1,0,0.1,0.2,0.2,0.5c0.1,0.4,0.4,0.5,0.4,0.5c0.1,0.1,0.2,0.2,0.3,0.2
		c0.1,0,0.2-0.1,0.2-0.1c-0.1,0-0.5-0.2-0.2-0.5c0.3-0.3,0.1-0.5,0-0.6c-0.2-0.1-0.2-0.3,0-0.4c0.2-0.2,0.2-0.5,0.1-0.7
		c-0.1-0.3-0.1-0.5,0-0.8c0-0.1,0.1-0.1,0.2-0.1c0.2,0,0.4,0.2,0.4,0.2c0-0.7-0.4-0.7-0.4-0.7c0,0,0,0,0,0c0.6-1.1-0.1-1.5-0.1-1.5
		c0.1,0.4-0.3,0.7-0.4,0.8c0,0,0,0-0.1,0c0-0.2-0.1-0.3-0.1-0.3c-0.3,0.3-1,0.6-1.8,0.6c-0.3,0-0.6,0-0.8,0c-0.3,0-0.4,0-0.4-0.2
		c0-0.3,0.5-0.3,1.5-0.5c1-0.2,1.7-0.8,1.7-1.6c0-0.8-0.4-0.9-0.6-1.1c-0.3-0.3,0.3-0.8,0.3-0.8c-0.1,0-0.1,0-0.2,0
		c-0.7,0-0.9,0.8-0.9,0.8s-0.2,0-0.1-0.3c0,0,0,0,0,0c0,0,0,0,0,0c0,0,0-0.1,0-0.1c-0.4,0.1-0.5,0.6-0.7,0.7
		c-0.7,0.2-1.7,0.4-2.9,0.4c-1.7,0-1.6-0.6-1.6-0.6c-0.4,0.1-0.2,0.5-0.2,0.5l0,0c-0.8-0.1-0.3-1-0.3-1c-0.9,0.2-0.6,1-0.6,1
		s-0.1,0-0.3,0c-0.4,0-1.2-0.1-1.2-1.1c0-0.9,1.3-1.1,2.2-1.1c0.6,0,1,0.1,1,0.1c0.2,0.3,0.8,0.4,1.1,0.4c0.1,0,0.2,0,0.2,0.1
		c0,0,0,0-0.1-0.1c0.1,0,0.1,0,0.1,0c-0.4-0.3-0.2-0.5-0.2-0.5c0.3,0.3,0.7,0.4,1,0.4c0.3,0,0.6-0.1,0.6-0.1
		c-0.7-0.1-0.7-0.4-0.7-0.4c1.4-0.2,0.7-1.6,0.7-1.6c-0.3,1.1-2.1,0.9-3.9,1.1c-1.5,0.2-2.8,0.3-2.8,1.8c0,1.7,1.9,1.8,4,1.8
		c1.2,0,2.5-0.3,2.8-0.3h0c0,0,0,0,0.1,0c-0.2,0.4,0.4,0.6,0.4,0.6s0-0.6,0.5-0.8c0.3-0.1,0.7-0.2,1.1-0.2c0.3,0,0.6,0.1,0.6,0.5
		C311.5,143.6,310.5,144.1,308.5,144.1z M307.2,140.1L307.2,140.1L307.2,140.1L307.2,140.1z"/>
	<path class="st0" d="M319.1,176.6v-0.3c0-1.3-1-2.3-2.3-2.3h-0.3l-0.2-0.2c-0.4-0.4-1-0.7-1.6-0.7c-0.6,0-1.2,0.2-1.6,0.7l-0.2,0.2
		h-0.3c-1.3,0-2.3,1-2.3,2.3v0.3l-0.2,0.2c-0.9,0.9-0.9,2.4,0,3.3l0.2,0.2v0.3c0,1.3,1,2.3,2.3,2.3h0.3l0.2,0.2
		c0.4,0.4,1,0.7,1.6,0.7c0.6,0,1.2-0.2,1.6-0.7l0.2-0.2h0.3c1.3,0,2.3-1,2.3-2.3v-0.3l0.2-0.2c0.9-0.9,0.9-2.4,0-3.3L319.1,176.6z
		 M318.4,179.1l-0.6,0.6v0.9c0,0.6-0.4,1-1,1h-0.8l-0.6,0.6c-0.2,0.2-0.4,0.3-0.7,0.3c-0.3,0-0.5-0.1-0.7-0.3l-0.6-0.6h-0.8
		c-0.5,0-1-0.5-1-1v-0.9l-0.6-0.6c-0.4-0.4-0.4-1,0-1.4l0.6-0.6v-0.9c0-0.6,0.4-1,1-1h0.8l0.6-0.6c0.2-0.2,0.4-0.3,0.7-0.3
		c0.3,0,0.5,0.1,0.7,0.3l0.6,0.6h0.8c0.5,0,1,0.5,1,1v0.9l0.6,0.6C318.8,178.1,318.8,178.8,318.4,179.1z"/>
	<path class="st0" d="M314.6,176.6c-1,0-1.9,0.8-1.9,1.9c0,1,0.8,1.9,1.9,1.9c1,0,1.9-0.8,1.9-1.9
		C316.5,177.4,315.7,176.6,314.6,176.6z M314.6,179c-0.3,0-0.6-0.3-0.6-0.6c0-0.3,0.3-0.6,0.6-0.6c0.3,0,0.6,0.3,0.6,0.6
		C315.2,178.7,314.9,179,314.6,179z"/>
	<path class="st0" d="M308.6,182.3v-0.2c0-1.2-1-2.1-2.1-2.1h-0.2l-0.1-0.1c-0.4-0.4-0.9-0.6-1.5-0.6c-0.6,0-1.1,0.2-1.5,0.6
		l-0.1,0.1h-0.2c-1.2,0-2.1,1-2.1,2.1v0.2l-0.1,0.1c-0.8,0.8-0.8,2.2,0,3l0.1,0.1v0.2c0,1.2,1,2.1,2.1,2.1h0.2l0.1,0.1
		c0.4,0.4,0.9,0.6,1.5,0.6c0.6,0,1.1-0.2,1.5-0.6l0.1-0.1h0.2c1.2,0,2.1-1,2.1-2.1v-0.2l0.1-0.1c0.8-0.8,0.8-2.2,0-3L308.6,182.3z
		 M307.8,184.5l-0.5,0.5v0.7c0,0.5-0.4,0.8-0.8,0.8h-0.7l-0.5,0.5c-0.2,0.2-0.4,0.2-0.6,0.2c-0.2,0-0.4-0.1-0.6-0.2l-0.5-0.5h-0.7
		c-0.5,0-0.8-0.4-0.8-0.8V185l-0.5-0.5c-0.3-0.3-0.3-0.9,0-1.2l0.5-0.5v-0.7c0-0.5,0.4-0.8,0.8-0.8h0.7l0.5-0.5
		c0.2-0.2,0.4-0.2,0.6-0.2c0.2,0,0.4,0.1,0.6,0.2l0.5,0.5h0.7c0.5,0,0.8,0.4,0.8,0.8v0.7l0.5,0.5
		C308.1,183.6,308.1,184.2,307.8,184.5z"/>
	<path class="st0" d="M304.7,182.1c-1,0-1.8,0.8-1.8,1.8c0,1,0.8,1.8,1.8,1.8c1,0,1.8-0.8,1.8-1.8
		C306.4,182.9,305.7,182.1,304.7,182.1z M304.7,184.4c-0.3,0-0.5-0.2-0.5-0.5c0-0.3,0.2-0.5,0.5-0.5c0.3,0,0.5,0.2,0.5,0.5
		C305.1,184.2,304.9,184.4,304.7,184.4z"/>
	<path class="st0" d="M258.3,176.8l-0.2-0.2v-0.3c0-1.3-1-2.3-2.3-2.3h-0.3l-0.2-0.2c-0.4-0.4-1-0.7-1.6-0.7s-1.2,0.2-1.6,0.7
		l-0.2,0.2h-0.3c-1.3,0-2.3,1-2.3,2.3v0.3l-0.2,0.2c-0.9,0.9-0.9,2.4,0,3.3l0.2,0.2v0.3c0,1.3,1,2.3,2.3,2.3h0.3l0.2,0.2
		c0.4,0.4,1,0.7,1.6,0.7s1.2-0.2,1.6-0.7l0.2-0.2h0.3c1.3,0,2.3-1,2.3-2.3v-0.3l0.2-0.2C259.2,179.2,259.2,177.7,258.3,176.8z
		 M257.4,179.1l-0.6,0.6v0.9c0,0.6-0.4,1-1,1H255l-0.6,0.6c-0.2,0.2-0.4,0.3-0.7,0.3c-0.3,0-0.5-0.1-0.7-0.3l-0.6-0.6h-0.8
		c-0.5,0-1-0.5-1-1v-0.9l-0.6-0.6c-0.4-0.4-0.4-1,0-1.4l0.6-0.6v-0.9c0-0.6,0.4-1,1-1h0.8l0.6-0.6c0.2-0.2,0.4-0.3,0.7-0.3
		c0.3,0,0.5,0.1,0.7,0.3l0.6,0.6h0.8c0.5,0,1,0.5,1,1v0.9l0.6,0.6C257.8,178.1,257.8,178.8,257.4,179.1z"/>
	<path class="st0" d="M253.7,176.6c-1,0-1.9,0.8-1.9,1.9c0,1,0.8,1.9,1.9,1.9c1,0,1.9-0.8,1.9-1.9
		C255.5,177.4,254.7,176.6,253.7,176.6z M253.7,179c-0.3,0-0.6-0.3-0.6-0.6c0-0.3,0.3-0.6,0.6-0.6c0.3,0,0.6,0.3,0.6,0.6
		C254.2,178.7,254,179,253.7,179z"/>
	<path class="st0" d="M267.6,182.3v-0.2c0-1.2-1-2.1-2.1-2.1h-0.2l-0.1-0.1c-0.4-0.4-0.9-0.6-1.5-0.6c-0.6,0-1.1,0.2-1.5,0.6
		l-0.1,0.1h-0.2c-1.2,0-2.1,1-2.1,2.1v0.2l-0.1,0.1c-0.8,0.8-0.8,2.2,0,3l0.1,0.1v0.2c0,1.2,1,2.1,2.1,2.1h0.2l0.1,0.1
		c0.4,0.4,0.9,0.6,1.5,0.6c0.6,0,1.1-0.2,1.5-0.6l0.1-0.1h0.2c1.2,0,2.1-1,2.1-2.1v-0.2l0.1-0.1c0.8-0.8,0.8-2.2,0-3L267.6,182.3z
		 M266.8,184.5l-0.5,0.5v0.7c0,0.5-0.4,0.8-0.8,0.8h-0.7l-0.5,0.5c-0.2,0.2-0.4,0.2-0.6,0.2c-0.2,0-0.4-0.1-0.6-0.2l-0.5-0.5h-0.7
		c-0.5,0-0.8-0.4-0.8-0.8V185l-0.5-0.5c-0.3-0.3-0.3-0.9,0-1.2l0.5-0.5v-0.7c0-0.5,0.4-0.8,0.8-0.8h0.7l0.5-0.5
		c0.2-0.2,0.4-0.2,0.6-0.2c0.2,0,0.4,0.1,0.6,0.2l0.5,0.5h0.7c0.5,0,0.8,0.4,0.8,0.8v0.7l0.5,0.5
		C267.1,183.6,267.1,184.2,266.8,184.5z"/>
	<path class="st0" d="M263.6,182.1c-1,0-1.8,0.8-1.8,1.8c0,1,0.8,1.8,1.8,1.8c1,0,1.8-0.8,1.8-1.8
		C265.4,182.9,264.6,182.1,263.6,182.1z M263.6,184.4c-0.3,0-0.5-0.2-0.5-0.5c0-0.3,0.2-0.5,0.5-0.5c0.3,0,0.5,0.2,0.5,0.5
		C264.1,184.2,263.9,184.4,263.6,184.4z"/>
	<path class="st0" d="M365.5,172.5c-0.2-0.3-0.5-0.4-0.8-0.2c-0.3,0.1-0.4,0.4-0.4,0.7c0.3,1.4,3.7,5.1,5.3,6.4v0
		c1,0.8,2.2,1.2,3.5,1.2c0.9,0,1.8-0.2,2.6-0.6l0.3-0.2c0.2-0.1,0.3-0.3,0.3-0.5c0-0.2-0.1-0.4-0.2-0.6c-0.7-0.6-1.1-1.2-1.5-1.8
		c-0.6-0.9-1.2-1.9-2.8-2.7c-0.4-0.2-1.2-0.4-2.6-0.6C368.1,173.3,365.8,172.9,365.5,172.5z M373.6,177.6c0.3,0.4,0.6,0.9,1,1.4
		c-1.2,0.4-2.8,0.4-4.2-0.6v0c-1.1-0.9-2.8-2.7-3.9-4.1c0.7,0.2,1.6,0.3,2.6,0.5c0.8,0.2,2,0.4,2.2,0.5
		C372.6,176,373,176.7,373.6,177.6z"/>
	<path class="st0" d="M370.4,193.8c-0.3,0.1-0.5,0.3-0.5,0.6c0,0.3,0.2,0.6,0.5,0.6c0.7,0.1,1.5,0.7,2.4,1.7c0.7,0.7,1,1.7,1.4,2.6
		c0.4,1.1,0.9,2.2,1.7,3.1c1.5,1.6,3.2,2,4.4,2c1.1,0,1.9-0.3,2-0.3c0.2-0.1,0.4-0.3,0.4-0.5c0-0.2-0.1-0.5-0.3-0.6
		c-0.6-0.4-0.9-1.2-1.1-2l-0.1-0.3C379.9,196.5,375.5,192.7,370.4,193.8z M380,201.1l0.1,0.3c0.2,0.6,0.4,1.2,0.7,1.8
		c-1,0.1-2.6-0.1-4-1.5c-0.7-0.7-1.1-1.7-1.5-2.7c-0.4-1-0.8-2.1-1.6-3c-0.3-0.3-0.6-0.7-1-1C376.2,195.2,379,198,380,201.1z"/>
	<path class="st0" d="M374.8,203.3c0.1-0.3-0.1-0.6-0.3-0.7c-0.4-0.3-0.7-1-1-1.8c-0.5-1.4-1.3-3.3-3.4-4.6
		c-0.4-0.2-0.9-0.5-1.4-0.7c-1.2-0.6-2.5-1.2-3.2-2.4c-0.2-0.3-0.5-0.4-0.8-0.3c-0.3,0.1-0.5,0.4-0.4,0.7c0,0.3,1.2,7.6,5.9,9.9
		c0.8,0.4,1.7,0.5,2.4,0.5c0.7,0,1.3-0.1,1.7-0.2C374.5,203.8,374.7,203.6,374.8,203.3z M370.7,202.4c-2.5-1.3-3.9-4.5-4.6-6.7
		c0.6,0.4,1.3,0.8,2,1.1c0.4,0.2,0.9,0.4,1.3,0.6c0,0,0,0,0,0c1.7,1,2.3,2.6,2.9,3.9c0.2,0.5,0.4,1,0.6,1.4
		C372.2,202.8,371.5,202.7,370.7,202.4z"/>
	<path class="st0" d="M367.6,183.8c0.2,0,0.4,0,0.5,0c0.1,0.1,0.2,0.1,0.4,0.1c0.1,0,0.2,0,0.3-0.1c0.3-0.1,0.4-0.4,0.4-0.7l0-0.4
		c-0.2-1.2-0.4-3.4-2.5-5.4c-0.2-0.2-0.4-0.3-0.7-0.6c-1.2-0.9-3.1-2.5-3.7-4.9c-0.1-0.3-0.3-0.5-0.6-0.5c-0.3,0-0.6,0.2-0.6,0.5
		c0,0.2-1.1,4.4,0.2,7.4C362.7,183.3,366.1,183.6,367.6,183.8z M361.8,174.5c1,1.6,2.3,2.7,3.2,3.4c0.2,0.2,0.4,0.4,0.6,0.5
		c1.5,1.4,1.9,2.9,2,4.1c-1.4-0.1-4-0.4-5.4-3.5C361.7,177.6,361.6,175.9,361.8,174.5z"/>
	<path class="st0" d="M346.5,183.1c0.1,0.2,0.3,0.3,0.6,0.3c0,0,0.1,0,0.1,0c0.7-0.1,1.8-0.3,2.5-1.2c1.3-1.9,1-3.7,0.6-5.6
		c-0.1-0.6-0.2-1.2-0.3-1.8c-0.2-2.3,0.2-4.3,0.2-4.3c0.1-0.3-0.1-0.6-0.4-0.7c-0.3-0.1-0.6-0.1-0.8,0.2c-0.1,0.1-3,3.6-2.5,9.7
		l0,0.5c0.1,0.5,0.2,2,0,2.3C346.4,182.6,346.4,182.9,346.5,183.1z M348.7,173.4c0,0.5,0,1,0.1,1.5c0.1,0.7,0.2,1.3,0.3,2
		c0.3,1.7,0.6,3.2-0.4,4.6c-0.1,0.2-0.4,0.3-0.6,0.5c0-0.6,0-1.2-0.1-2l0-0.4C347.7,176.9,348.1,174.8,348.7,173.4z"/>
	<path class="st0" d="M361,189.2c0.1,0,0.1,0,0.2,0c0.1,0,0.3-0.1,0.4-0.1c0.2-0.1,0.3-0.3,0.3-0.5c0-0.1,0-0.2,0-0.3
		c0.1-1.1,0.5-3.9-1-7c-0.4-0.7-0.9-1.4-1.4-2c-0.8-1.1-1.7-2.2-2-3.8c-0.1-0.3-0.3-0.5-0.6-0.5c-0.3,0-0.6,0.2-0.6,0.5
		c0,0.3-1.1,6.2,0.2,9.3C356.8,185.6,358.1,188.4,361,189.2z M357.2,178.1c0.4,0.7,0.9,1.3,1.3,1.9c0.5,0.6,0.9,1.2,1.2,1.8
		c1.2,2.4,1.1,4.7,0.9,5.9c-1.9-0.9-2.8-2.8-3.1-3.5C357,182.6,357,180,357.2,178.1z"/>
	<path class="st0" d="M366.1,191.1c1.9,1.5,3.7,1.8,5.5,1.8c0.3,0,0.7,0,1,0c0.2,0,0.4-0.1,0.5-0.3c0.1-0.2,0.1-0.4,0-0.6
		c0-0.1-0.2-0.2-0.3-0.3c-1-0.8-1.4-1.6-1.8-2.4c-0.4-0.9-0.9-1.8-2-2.6c-0.8-0.6-1.8-0.8-2.7-1.1c-1.1-0.3-2.2-0.6-2.8-1.3
		c-0.2-0.2-0.5-0.3-0.8-0.2c-0.3,0.1-0.4,0.5-0.3,0.8C362.4,185,363.6,189.2,366.1,191.1z M366,186.8c0.9,0.2,1.7,0.4,2.3,0.8
		c0.9,0.6,1.2,1.3,1.6,2.1c0.3,0.6,0.6,1.2,1.1,1.8c-1.4-0.1-2.6-0.4-4.1-1.5c-1.2-0.9-2-2.5-2.6-3.8
		C364.8,186.5,365.4,186.6,366,186.8z"/>
	<path class="st0" d="M361.4,202.1c-3.3-1.8-4.5-5-4.7-5.9c-0.1-0.3-0.4-0.4-0.7-0.4c-0.3,0-0.4,0.2-0.5,0.5l0,0c0,0,0,0.1,0,0.1
		c-0.3,6.1,2.6,10,4.5,11.2c1.8,1.1,2.7,1.8,2.7,1.8c0.1,0.1,0.3,0.1,0.4,0.1c0.1,0,0.1,0,0.2,0c0.2,0,0.4-0.2,0.4-0.4
		C364.6,206.7,363.6,203.3,361.4,202.1z M362.6,207.8c-0.5-0.3-1.2-0.8-2.1-1.3c-0.9-0.5-3-2.7-3.7-6.8c0.8,1.3,2.1,2.6,3.9,3.6
		C362.1,204,362.9,206.1,362.6,207.8z"/>
	<path class="st0" d="M356.8,205.8c-0.1-1-0.2-2-0.7-2.9c-1.8-2.9-1.9-6.2-1.7-7.6c0-0.3-0.1-0.6-0.4-0.7c-0.3-0.1-0.6-0.1-0.8,0.2
		c-0.1,0.1-2.2,2.5-2.5,6.6c-0.2,2.1,0.8,6.2,5.6,7.2c0,0,0.1,0,0.1,0c0.2,0,0.4-0.1,0.5-0.2c0.2-0.2,0.2-0.4,0.1-0.7
		C357,207.2,356.9,206.5,356.8,205.8z M352.1,201.5c0.1-1.6,0.6-2.9,1-3.9c0.1,1.7,0.6,3.9,1.9,6c0.4,0.6,0.4,1.4,0.5,2.3
		c0,0.4,0.1,0.8,0.1,1.1C351.8,205.7,352.1,201.7,352.1,201.5z"/>
	<path class="st0" d="M350.8,173.3c-0.2,1.5,1.3,4.9,1.4,5.3c0.1,0.2,0.3,0.3,0.5,0.4c0,0,0.1,0,0.1,0c0.2,0,0.3-0.1,0.5-0.2
		c3.2-3.1,2.4-5.4,1.9-7c-0.6-1.9-1.5-4.6-1.5-4.6c-0.1-0.3-0.4-0.4-0.7-0.5c-0.3,0-0.5,0.2-0.6,0.5c-0.1,0.3-0.2,0.8-0.4,1.4
		C351.5,170,350.9,171.9,350.8,173.3z M352.1,173.4c0-1.1,0.5-2.6,1-3.9c0.3,0.8,0.6,1.8,0.9,2.7l0.1,0.2c0.4,1.2,0.9,2.7-0.9,4.8
		C352.5,175.8,352,174.1,352.1,173.4C352.1,173.4,352.1,173.4,352.1,173.4z"/>
	<path class="st0" d="M353.8,192.1c0.3,0.6,0.6,1.2,0.9,1.8c0.1,0.2,0.3,0.4,0.6,0.4c0,0,0,0,0,0c0.2,0,0.5-0.1,0.6-0.4
		c1-2,1.7-3.7,1-6.3c-0.2-0.8-0.6-1.5-0.9-2.2c-0.3-0.6-0.6-1.1-0.8-1.7c-0.4-1.3-0.6-3.1-0.3-3.9c0.1-0.3,0-0.6-0.3-0.8
		c-0.3-0.2-0.6-0.1-0.8,0.2c-0.1,0.1-1.5,2-1.7,5.8c-0.1,2.1,0.2,3.8,0.7,5.2C353.1,190.8,353.5,191.5,353.8,192.1z M353.4,185
		c0-0.9,0.1-1.6,0.3-2.2c0.1,0.5,0.2,1,0.3,1.3c0.2,0.7,0.5,1.3,0.8,1.9c0.3,0.6,0.6,1.2,0.8,1.9c0.4,1.7,0.2,2.9-0.3,4.2
		c-0.1-0.2-0.2-0.4-0.3-0.6c-0.3-0.6-0.7-1.2-0.9-1.8C353.5,188.4,353.3,186.9,353.4,185z"/>
	<path class="st0" d="M352.1,191.7c-2-4.2-1.3-7.3-1.3-7.4c0.1-0.3-0.1-0.6-0.3-0.7c-0.2-0.1-0.6-0.1-0.8,0.1
		c-1.4,1.2-1.9,2.9-2.5,4.8c-0.5,1.9-0.6,6.1,2.5,9.4c0.1,0.1,0.3,0.2,0.5,0.2c0.2,0,0.4-0.1,0.5-0.2
		C352.1,196.4,353.1,193.7,352.1,191.7z M350.2,196.4c-2.2-2.8-2.1-6.2-1.7-7.6c0.2-0.9,0.5-1.7,0.8-2.5c0.1,1.5,0.4,3.5,1.5,5.9
		C351.5,193.5,351.1,195.2,350.2,196.4z"/>
	<path class="st0" d="M362.5,170c1.1,1.2,2.3,1.8,3.6,1.8c0,0,0.1,0,0.1,0c2-0.1,3.3-1.6,3.4-1.6c0.1-0.2,0.2-0.4,0.1-0.6
		c-0.1-0.2-0.2-0.4-0.5-0.4c-3.7-0.9-7.3-7.8-7.4-7.9c-0.1-0.2-0.4-0.4-0.7-0.3c-0.3,0-0.5,0.3-0.5,0.5
		C360.1,164.3,361,168.3,362.5,170z M367.7,170c-0.4,0.3-1,0.5-1.6,0.5c-0.9,0-1.8-0.4-2.7-1.3c-0.9-1-1.5-3.3-1.6-5.4
		C363,165.7,365.3,168.7,367.7,170z"/>
	<path class="st0" d="M367.4,202.6c-0.4-0.2-0.7-0.3-1.1-0.5L366,202c-0.5-0.2-1-0.5-1.5-0.8c0,0,0,0,0.1,0c0.2-0.1,0.4-0.3,0.4-0.5
		c0-0.1,1.1-6.1-3.4-8.6l-0.4-0.2c-1.1-0.6-1.8-1-2.3-2.1c-0.1-0.3-0.4-0.4-0.6-0.4c-0.3,0-0.5,0.2-0.6,0.5
		c-0.1,0.2-1.4,4.8,1.3,7.8c0.8,0.9,1.8,1.5,2.8,1.9c0.8,0.4,1.5,0.8,2.1,1.4c-0.1,0-0.2,0-0.3,0.1c-0.2,0.1-0.3,0.4-0.3,0.7
		c1.2,5.5,4.1,7.5,6.3,8.1c0.2,0.1,0.5,0.1,0.7,0.2c0.3,0.1,0.8,0.1,0.9,0.2c0.1,0.1,0.2,0.1,0.4,0.1c0.1,0,0.2,0,0.3-0.1
		c0.2-0.1,0.4-0.3,0.4-0.5c0-0.1,0.4-3.1-1.7-5.3C369.6,203.5,368.5,203.1,367.4,202.6z M362.3,198.5c-0.9-0.5-1.7-0.9-2.4-1.6
		c-1.4-1.6-1.5-3.7-1.3-5.1c0.6,0.6,1.2,0.9,1.9,1.3l0.4,0.2c2.5,1.4,3,4.3,2.9,6.1C363.3,199,362.8,198.8,362.3,198.5z
		 M370.5,208.7c-0.2,0-0.4-0.1-0.6-0.1c-1.7-0.5-3.8-1.9-5-5.7c0.2,0.1,0.4,0.2,0.5,0.3l0.3,0.1c0.4,0.2,0.8,0.3,1.2,0.5
		c1,0.4,2,0.8,2.7,1.6c1.1,1.1,1.3,2.6,1.4,3.4C370.8,208.8,370.7,208.8,370.5,208.7z"/>
	<path class="st0" d="M386.5,212.4c0-0.2-1.1-4-5.7-5.1l-1-0.2c-2.1-0.4-3.7-0.8-5.5-2c-0.2-0.1-0.5-0.1-0.7,0
		c-0.2,0.2-0.3,0.4-0.3,0.7l0.1,0.2c0.4,1.8,1.3,5.5,5,7c1.1,0.4,2.3,0.6,3.4,0.6c1.4,0,2.9-0.2,4.1-0.4l-0.1-0.6l0.1,0.6
		c0.2,0,0.3-0.1,0.4-0.3C386.5,212.8,386.6,212.6,386.5,212.4z M378.9,211.8c-2.4-1-3.4-3.1-3.9-4.8c1.5,0.7,2.9,1,4.6,1.4l0.9,0.2
		c2.8,0.6,4,2.4,4.5,3.4C383,212.3,380.7,212.6,378.9,211.8z"/>
	<path class="st0" d="M370.2,165.9c0.3,0,0.5,0,0.6,0c0.2,0,0.3-0.1,0.5-0.3c0.1-0.2,0.1-0.3,0.1-0.5c-0.5-2.1-2-5-3.4-5.9
		c-3.5-2.2-5.7-6.6-5.8-6.6c-0.1-0.3-0.5-0.4-0.8-0.3c-0.3,0.1-0.5,0.4-0.4,0.7c1.1,7,3.5,9.9,3.9,10.2
		C366.6,165.6,369.1,165.9,370.2,165.9z M367.2,160.3c0.9,0.5,2,2.4,2.6,4.3c-1-0.1-2.7-0.5-4-2.2c0,0,0,0-0.1-0.1
		c0,0-1.7-1.8-2.9-6.2C364,157.6,365.4,159.2,367.2,160.3z"/>
	<path class="st0" d="M373.3,183.3c-1-0.8-2.4-1.3-2.5-1.3c-0.3-0.1-0.7,0-0.8,0.3c-0.2,0.3-0.1,0.7,0.2,0.8
		c0.9,0.6,1.6,2.3,1.7,3.6l0,0.6c0.1,1.1,0.2,2,1.1,3.3c0.4,0.5,1,1,1.6,1.4c0.3,0.2,0.5,0.4,0.7,0.5c0.1,0.1,0.3,0.2,0.4,0.2
		c0.1,0,0.1,0,0.2,0c0.2-0.1,0.4-0.3,0.4-0.5C376.9,189.2,377.5,186.4,373.3,183.3z M375.3,190.9c-0.5-0.3-1-0.7-1.2-1.1
		c-0.7-1-0.8-1.6-0.8-2.7l0-0.6c-0.1-0.7-0.2-1.4-0.5-2.1C375.6,186.7,375.7,188.6,375.3,190.9z"/>
	<path class="st0" d="M355.8,167.8c-1.2,3.2,0.9,5.7,2.1,6.6c0.1,0.1,0.2,0.1,0.4,0.1c0.1,0,0.2,0,0.3-0.1c0.2-0.1,0.4-0.3,0.4-0.5
		c0.1-0.4,0.2-1.1,0.4-1.8c0.2-0.9,0.5-1.9,0.7-3.1c0,0,0,0,0,0c0.9-5.9-1.6-10-1.7-10.2c-0.2-0.3-0.5-0.4-0.8-0.3
		c-0.3,0.1-0.5,0.4-0.4,0.7c0.5,2.5-0.3,4.9-1.2,7.8L355.8,167.8z M357.1,168.2l0.2-0.5c0.5-1.7,1-3.3,1.3-4.9
		c0.4,1.6,0.7,3.7,0.3,6.2c-0.2,1.1-0.4,2.1-0.7,2.9c-0.1,0.3-0.1,0.5-0.2,0.7C357.2,171.8,356.3,170.3,357.1,168.2z"/>
	<path class="st0" d="M347.5,185.8c-0.2-0.2-0.5-0.2-0.8-0.1c0,0-3.8,2.3-4.3,6c-0.3,1.7,0.8,4.1,2.2,5c0.1,0.1,0.2,0.1,0.3,0.1
		c0.1,0,0.1,0,0.2,0c0.2-0.1,0.3-0.2,0.4-0.4c0.3-0.7,0.9-2.5,0.9-3.6c-0.1-3.7,1.2-6.2,1.2-6.2C347.8,186.3,347.7,186,347.5,185.8z
		 M345.1,192.8c0,0.5-0.2,1.4-0.4,2.2c-0.7-0.8-1.1-2.1-1-3.1c0.2-1.5,1.1-2.7,1.9-3.6C345.3,189.4,345.1,191,345.1,192.8z"/>
	<path class="st0" d="M353.5,166.4c0.1,0.1,0.3,0.2,0.4,0.2c0.1,0,0.2,0,0.3-0.1c3.8-2.3,0.8-12.1,0.4-13.3
		c-0.1-0.3-0.4-0.5-0.7-0.4c-0.3,0.1-0.5,0.3-0.5,0.7c0.1,1.7-0.5,5.4-1.2,8.3C351.7,164.7,353.5,166.3,353.5,166.4z M353.6,162
		c0.2-0.8,0.6-2.7,0.9-4.6c0.5,2.9,0.8,6.2-0.4,7.6C353.7,164.5,353.3,163.5,353.6,162z"/>
	<path class="st0" d="M342.9,186.7c0,0.2,0.2,0.4,0.4,0.5c0.1,0,0.2,0.1,0.3,0.1c0.1,0,0.3,0,0.4-0.1c1.2-0.8,2.3-2.8,2-4.8
		c-0.4-2.5-0.1-4.8-0.1-4.8c0-0.3-0.1-0.6-0.4-0.7c-0.3-0.1-0.6,0-0.8,0.2c-1,1.2-1.9,2.3-2.3,4.3c-0.3,1.5,0,2.6,0.2,3.7
		C342.7,185.5,342.9,186.1,342.9,186.7z M343.6,181.6c0.2-0.8,0.4-1.4,0.8-2c0,0.9,0.1,1.9,0.3,3c0.2,1-0.1,2-0.7,2.7
		c0-0.2-0.1-0.4-0.2-0.6C343.6,183.7,343.4,182.8,343.6,181.6z"/>
	<path class="st0" d="M356.9,152.9c-0.1,3.3,1.4,4.7,1.5,4.8c0.1,0.1,0.3,0.2,0.4,0.2c0,0,0,0,0.1,0c0.2,0,0.3-0.1,0.5-0.3
		c3.6-4.9-2.6-13.5-2.9-13.8c-0.2-0.3-0.6-0.3-0.9-0.2c-0.3,0.2-0.4,0.5-0.2,0.8C356.8,147.5,356.9,150.1,356.9,152.9z M358.8,156.1
		c-0.3-0.6-0.6-1.6-0.6-3.1c0-1.2,0-2.4-0.1-3.7C359,151.5,359.7,154.1,358.8,156.1z"/>
	<path class="st0" d="M346.3,174.3c1.2-1.7,1.6-4.1,1.7-4.2c0.1-0.3-0.1-0.6-0.4-0.7c-0.3-0.1-0.6,0-0.8,0.2c-0.4,0.6-1.1,1-1.8,1.4
		c-0.4,0.3-0.9,0.5-1.3,0.8c-1.3,1-2.2,1.9-2.2,3.8c0,0.3,0.2,0.5,0.4,0.6c0.2,0.1,0.7,0.3,1.2,0.3C344,176.4,345.1,176,346.3,174.3
		z M342.8,175.1c0.1-0.9,0.7-1.5,1.7-2.3c0,0,0,0,0,0c0.3-0.3,0.7-0.5,1.1-0.7c0.2-0.1,0.3-0.2,0.5-0.3c-0.2,0.6-0.5,1.2-0.9,1.8
		C344.2,175,343.3,175.2,342.8,175.1z"/>
	<polygon class="st0" points="273.6,142.7 275.1,144.1 275.1,144.2 276.2,143.2 273.7,140.7 273.6,140.6 271.1,143.2 272.1,144.2 	
		"/>
	<polygon class="st0" points="273.7,144 273.6,143.9 271.1,146.5 272.1,147.5 273.6,146 275.1,147.4 275.1,147.5 276.2,146.5 	"/>
	<path class="st0" d="M289.1,140.2c0.1,0,0.1,0,0.2,0c0.2,0.1,0.4,0.1,0.7,0.2c0.1,0,0.2,0,0.3,0.1c0.4,0.1,0.9,0.1,1.3,0.1
		c0,0,0.1,0,0.1,0c0,0,0.1,0,0.1,0c0,0,0,0,0.1,0c1.2,0,2.4-0.2,3.4-0.5c0,0,0.1,0,0.1,0c0,0,0.1,0,0.1,0c0.2,0,0.3-0.1,0.5-0.1
		c0,0,0.1,0,0.1,0c0,0,0.1,0,0.1-0.1c0.4-0.1,0.7-0.3,1-0.4c0,0,0.1,0,0.1-0.1c1.5-0.8,2.7-1.8,3.6-3.1c0.4-0.6,0.2-1.1-0.1-1.4
		c-0.1-0.1-0.3-0.1-0.4-0.1c-0.2,0-0.5,0.1-0.7,0.4l0,0l0,0c-1.3,1.6-3.1,2.3-5.6,2.3c-3.2,0-6.1-1-9.4-3.5
		c-0.1-0.1-0.2-0.2-0.3-0.2c-0.6-0.4-1.1-0.9-1.7-1.4c0,0-0.1-0.1-0.1-0.1c-0.5-0.4-1-0.9-1.5-1.4l-0.9-0.9
		c-2.7-2.6-5.1-5.3-7.1-8.1c-0.9-1-1.7-2-2.6-3c-1-1.2-2.1-2.4-3-3.6c0.2-0.4,3.1-3.3,6.2-6.1l0.4-0.4c1.7-1.5,2.3-2.1,4.8-3
		c0.5-0.2,0.7-0.6,0.6-0.9c-0.1-0.3-0.4-0.6-1-0.6c-0.7,0-1.4,0-2.1,0.1c-0.7,0-1.4,0.1-2.3,0.1c-1.1,0-1.9,0-2.5-0.1
		c-0.6,0-1.1-0.1-1.9-0.1c-0.6,0-0.9,0.3-0.9,0.7c-0.1,0.4,0.2,0.8,0.7,0.9l1.1,0.4c0.9,0.3,1,0.5,1,0.5c0.1,0.2-0.2,0.6-0.3,0.8
		c-1.1,1.6-3.8,4.6-6.7,7.1c-1,0.9-1.8,1.4-2.3,1.7c0,0,0-0.1,0-0.1v-1.3c0-5.7,0.2-6.7,0.2-7.3c0.1-0.5,0.4-1.2,2.3-1.7
		c0.5-0.1,0.8-0.5,0.8-0.9c0-0.3-0.3-0.7-1-0.7c-0.8,0-1.5,0-2.3,0.1c-0.7,0-1.4,0.1-2.2,0.1c-0.7,0-1.3,0-2-0.1
		c-0.8,0-1.6-0.1-2.6-0.1c-0.6,0-1,0.4-1,0.7c0,0.4,0.2,0.7,0.6,0.8c2.1,0.6,2.6,1.2,2.8,1.9c0.3,1.2,0.3,4.3,0.3,7.1v8.5
		c0,2.2-0.1,3.2-0.3,3.9c-0.2,0.7-1.1,1.4-2.7,1.9c-0.4,0.1-0.7,0.5-0.6,0.9c0.1,0.3,0.3,0.7,1,0.7c0.9,0,1.6,0,2.3-0.1
		c0.7,0,1.3-0.1,2-0.1c0.9,0,1.8,0,2.6,0.1c0.9,0,1.7,0.1,2.6,0.1c0.6,0,0.9-0.3,1-0.6c0.1-0.4-0.2-0.7-0.6-0.9
		c-1-0.3-1.7-0.5-2.2-1c-0.7-0.5-1-1-1-7.5v-1.5c0-0.9,0-0.9,0.2-1.1c0.3-0.2,0.5-0.3,0.9-0.3c0.2,0,0.7,0,1.9,1.3l1.2,1.3
		c0.6,0.7,1.3,1.5,2,2.3c2.8,3.8,5.5,6.9,8,9.3c0.6,0.6,1.3,1.2,1.9,1.7c1.5,1.3,2.9,2.3,4.3,3.2c0.6,0.4,1.2,0.7,1.7,1.1
		c1.7,1,3.3,1.6,4.6,2C289,140.1,289.1,140.2,289.1,140.2z"/>
</g>
</svg>
