<?xml version="1.0" encoding="utf-8"?>
<!-- Generator: Adobe Illustrator 19.2.1, SVG Export Plug-In . SVG Version: 6.00 Build 0)  -->
<svg version="1.1" id="Layer_1" xmlns="http://www.w3.org/2000/svg" xmlns:xlink="http://www.w3.org/1999/xlink" x="0px" y="0px"
	 viewBox="0 0 222 41.4" style="enable-background:new 0 0 222 41.4;" xml:space="preserve">
<style type="text/css">
	.st0{fill:#092432;}
	.st1{fill-rule:evenodd;clip-rule:evenodd;fill:#092432;}
</style>
<g>
	<path class="st0" d="M64.6,24.3c0,3.4,0.1,5.3,0.1,5.6c0.1,0.8-0.2,0.9-0.4,0.9c-0.4,0-0.9-0.3-1.2-0.6c-0.5-0.4-1-0.9-1.1-1
		c-3.1-3.9-8.2-10-11.1-13.3c-0.1-0.1-0.2,0-0.3,0.4c0,0.4,0,1.2,0,3.2v3.8c0,5.3,0.9,5.9,1.8,6.2l1.3,0.5c0.4,0.1,0.4,0.6-0.2,0.6
		c-1.1,0-2.2-0.1-3.5-0.1s-2.6,0.1-3.5,0.1c-0.6,0-0.6-0.4-0.2-0.6l0.9-0.4c0.7-0.3,1.4-0.8,1.6-1.5c0.2-0.9,0.4-3.7,0.4-7v-4.7
		c0-1.9-0.2-2.4-0.5-3c-0.5-0.9-1.8-1.3-2.7-1.6c-0.4-0.1-0.4-0.6,0.1-0.6c1.3,0,2.3,0.2,3.4,0.2c0.4,0,0.7,0,1.3,0
		c0.7,0,0.8,0,0.9,0.2c0.1,0.5,0.4,1,1.2,1.9c1.3,1.7,5,6.2,10.1,11.7c0.3,0.3,0.4,0.3,0.4-0.1v-4.4c0-2.8-0.1-4.2-0.3-5.9
		c-0.2-2.1-0.7-2.5-2.9-3c-0.4-0.1-0.4-0.6,0.1-0.6c1.2,0,2.5,0.1,3.9,0.1c1.2,0,2.2-0.1,3.2-0.1c0.5,0,0.5,0.4,0.1,0.6
		c-1.1,0.4-1.9,0.9-2.2,2.5c-0.2,1.3-0.4,3.7-0.4,6.6V24.3z"/>
	<path class="st0" d="M85.7,25.8c0-1-0.1-1.6-0.4-2.1c-0.5-0.9-1.9-1.2-2.8-1.4c-0.4-0.1-0.4-0.6,0.2-0.6c1.8,0,2.7,0.1,4.1,0.1
		c1.2,0,2.1-0.1,3.1-0.1c0.7,0,0.6,0.5,0.2,0.6c-0.7,0.2-1.3,0.8-1.4,1.3c-0.1,0.4-0.1,1.1-0.1,2.5c0,2.1,0.1,2.9,0.4,3.2
		c0.2,0.2,0.1,0.4-0.2,0.5c-2,0.6-4.4,1.3-6.8,1.3c-6.7,0-10.9-4-10.9-10.1c0-3.5,1.7-6.5,5-8.4c1.9-1,4.1-1.7,6.8-1.7
		c2.1,0,3.9,0.3,4.9,0.9c0.5,0.3,0.7,0.5,0.7,0.9c0,0.4,0,0.7-0.1,1c-0.1,0.5-0.1,1-0.2,2.1c0,0.7-0.7,0.6-0.7,0.2
		c0-0.9-0.6-1.7-1.6-2.5c-1-0.7-2.6-1.2-4.5-1.2c-1.7,0-3.1,0.5-4.1,1.2c-1.8,1.3-2.9,3.6-2.9,7.2c0,5.6,3.8,9.2,8.9,9.2
		c1,0,2-0.3,2.1-0.6c0.2-0.2,0.3-1.2,0.3-2.2V25.8z"/>
	<path class="st0" d="M104.6,11.8c0.4,0.3,0.5,0.7,0.5,0.9s0,0.4-0.1,0.8c0,0.4-0.1,0.9-0.1,1.7c0,0.5-0.6,0.5-0.6,0
		c0-0.4-0.2-0.9-0.8-1.6c-0.8-0.9-1.8-1.3-3-1.3c-1.5,0-2.6,1-2.6,2.8c0,2.5,1.8,3.4,3.7,4.1c2.6,0.9,4.9,1.9,4.9,5.2
		c0,2.5-1.6,4.2-2.8,5.1c-1.4,1-3,1.5-4.4,1.5c-1.4,0-2.6-0.3-3.4-0.8c-0.8-0.5-1.3-1.1-1.5-1.7c-0.1-0.3,0.1-0.8,0.4-1.1
		c0.2-0.4,0.6-1.3,0.8-1.7c0.1-0.3,0.5-0.3,0.6,0.1c0,0.3,0,0.7,0.3,1.3c0.6,1.2,2.5,2.3,4.3,2.3c2.1,0,3.3-1.2,3.3-3.4
		c0-2.4-1.7-3.5-4.1-4.3c-3-1.1-4.5-2.5-4.5-4.8c0-1.2,0.4-2.6,1.7-3.9c1.1-1.1,2.8-2,4.7-2C103.4,10.9,104.2,11.5,104.6,11.8z"/>
	<path class="st0" d="M121.5,19.6c3.6,0,4.1-0.1,4.4-0.1c0.4,0,0.5-0.1,0.5-0.9V17c0-1.7-0.1-3.2-0.3-3.7c-0.4-0.9-1.2-1.2-2.4-1.4
		c-0.4-0.1-0.3-0.6,0.2-0.6c1.5,0,2.4,0.1,3.5,0.1c1.3,0,2.4-0.1,4-0.1c0.5,0,0.5,0.5,0.1,0.6c-1.2,0.3-1.8,0.6-2,1.2
		c-0.2,0.8-0.4,1.5-0.4,4.8v5.3c0,3.4,0.1,4.1,0.3,5c0.2,1,1,1.3,2.6,1.8c0.4,0.1,0.4,0.6-0.2,0.6c-1.6,0-2.9-0.1-4.3-0.1
		c-1.3,0-2.2,0.1-3.4,0.1c-0.5,0-0.5-0.4-0.2-0.6c1.2-0.4,1.7-0.5,2.1-1.4c0.2-0.6,0.3-1.7,0.3-4.4V22c0-0.6-0.1-0.7-0.5-0.8
		c-0.4,0-0.9-0.1-4.6-0.1h-0.6c-3.2,0-3.6,0-3.9,0.1c-0.5,0.1-0.6,0.1-0.6,0.9v1.6c0,2.4,0.1,3.8,0.2,4.4c0.3,1,1.1,1.5,2.3,1.8
		c0.4,0.1,0.4,0.6-0.2,0.6c-1.1,0-2.7-0.1-3.9-0.1c-1.4,0-2.2,0.1-3.4,0.1c-0.5,0-0.4-0.4-0.1-0.6c1.5-0.6,2-1,2.1-1.7
		c0.1-0.5,0.2-1.3,0.2-4.6v-5.9c0-1.5,0-3.4-0.3-4.3c-0.2-0.7-0.8-1.2-2.5-1.7c-0.3-0.1-0.4-0.6,0.1-0.6c1.5,0,2.5,0.1,3.7,0.1
		c1.5,0,2.3-0.1,3.9-0.1c0.5,0,0.5,0.5,0.1,0.6c-1.5,0.4-1.8,0.9-2,1.5c-0.2,0.6-0.3,4.5-0.3,5.4c0,0.6,0,0.7,0.3,0.8
		c0.3,0,0.7,0.1,3.9,0.1H121.5z"/>
	<path class="st0" d="M139,16.3c0-2.5-0.1-2.9-0.3-3.3c-0.3-0.7-1.3-0.9-2.1-1.2c-0.4,0-0.4-0.6,0-0.6c1.8,0,2.5,0.1,3.6,0.1
		c1.3,0,2.1-0.1,3.7-0.1c0.5,0,0.6,0.5,0.1,0.6c-0.9,0.2-1.4,0.5-1.7,0.9c-0.6,0.8-0.7,3.1-0.7,6.2v3.3c0,2.5,0.6,4.3,1.6,5.1
		c0.8,0.8,2.2,1.7,4.2,1.7c1,0,2.6,0,3.7-1.3c1.2-1.1,1.8-3.2,1.8-7.3v-3.3c0-2.1-0.2-3-0.4-3.6c-0.4-0.9-1.1-1.2-2.5-1.7
		c-0.4-0.1-0.3-0.6,0.1-0.6c1.3,0,2.6,0.1,3.9,0.1c1.1,0,2.1-0.1,3-0.1c0.5,0,0.5,0.5,0.1,0.6c-0.8,0.2-1.4,0.6-1.8,1.5
		c-0.2,0.6-0.4,1.5-0.4,3.4l-0.2,5.3c-0.2,5.3-3.4,8.9-8.6,8.9c-2.5,0-4.5-0.7-5.8-2.2c-0.9-1.1-1.3-2.5-1.3-5V16.3z"/>
	<path class="st0" d="M194,11.8c0.4,0.3,0.5,0.7,0.5,0.9s0,0.4-0.1,0.8c0,0.4-0.1,0.9-0.1,1.7c0,0.5-0.6,0.5-0.6,0
		c0-0.4-0.2-0.9-0.8-1.6c-0.8-0.9-1.8-1.3-3-1.3c-1.5,0-2.6,1-2.6,2.8c0,2.5,1.8,3.4,3.7,4.1c2.6,0.9,4.9,1.9,4.9,5.2
		c0,2.5-1.6,4.2-2.8,5.1c-1.4,1-3,1.5-4.4,1.5c-1.4,0-2.6-0.3-3.4-0.8c-0.8-0.5-1.3-1.1-1.5-1.7c-0.1-0.3,0.1-0.8,0.4-1.1
		c0.2-0.4,0.6-1.3,0.8-1.7c0.1-0.3,0.5-0.3,0.6,0.1c0,0.3,0,0.7,0.3,1.3c0.6,1.2,2.5,2.3,4.3,2.3c2.1,0,3.3-1.2,3.3-3.4
		c0-2.4-1.7-3.5-4.1-4.3c-3-1.1-4.5-2.5-4.5-4.8c0-1.2,0.4-2.6,1.7-3.9c1.1-1.1,2.8-2,4.7-2C192.7,10.9,193.6,11.5,194,11.8z"/>
	<path class="st0" d="M211.6,11.4c1.7,0,2.6,0,3.2,0c0.8,0,1.7-0.3,2.2-0.7c0.3-0.2,0.6,0,0.5,0.3c-0.5,1.2-0.5,2.4-0.6,4
		c0,0.4-0.4,0.5-0.6,0.1c-0.3-0.8-0.6-1.6-1.7-1.9c-0.8-0.2-1.8-0.3-3.9-0.3c-0.6,0-0.6,0.1-0.7,0.5c-0.1,0.4-0.2,2-0.2,4.9v4.3
		c0,3,0,4.1,0.1,5.2c0.2,1.5,1,1.7,2.7,2.2c0.4,0.1,0.4,0.6-0.2,0.6c-1.5,0-2.7-0.1-4.4-0.1c-1.3,0-2.3,0.1-4.2,0.1
		c-0.5,0-0.5-0.4-0.1-0.6c1.6-0.4,2.8-0.6,3-1.8c0.1-0.6,0.3-2,0.3-5.4v-4.4c0-3.2-0.1-4.2-0.1-4.6c0-0.8-0.1-0.9-0.7-0.9
		c-0.9,0-3.8,0-4.8,0.5c-0.7,0.4-1.1,1.3-1.3,1.9c-0.1,0.4-0.6,0.4-0.6-0.1c0-0.4,0.3-2.2,0.3-4.1c0-0.5,0.3-0.6,0.6-0.3
		c0.3,0.3,0.6,0.4,1.1,0.5c0.4,0.1,1.3,0.2,3.9,0.2H211.6z"/>
	<path class="st0" d="M197.4,35.1c-0.6,0.7-1.9,2-4.8,2c-4,0-7.3-1.8-11.2-5.4c-4-3.7-6.5-7.4-8.2-10.1c0-0.1-0.1-0.2-0.1-0.3
		c-0.2-0.4-0.1-0.5,0.1-0.7c0,0,0.9-0.5,1.5-1.1c0.6-0.5,1.3-1.9,1.3-3.4c0-1.3-0.3-5.3-7.1-5.1c-2.9,0-6.6,0.5-7.2,0.6
		c-0.5,0.1-0.6,0.5,0,0.6c0.9,0.1,1.9,0.2,2.2,0.5c0.1,0.2,0.3,0.4,0.4,1c0,0.8,0.2,1.9,0.2,3.5v7.1c0,1.8-0.1,2.9-0.2,3.5
		c-0.2,1.3-0.6,1.7-2.3,2.1c-0.5,0.1-0.4,0.6,0.1,0.6c1.3,0,2.7-0.1,4-0.1c1.3,0,2.6,0.1,3.8,0.1c0.5,0,0.5-0.5,0-0.6
		c-2-0.5-2.3-0.9-2.6-2.4c-0.1-0.5-0.1-1-0.1-2.5v-1.9c0-0.9,0-0.9,0.3-0.9c0.7,0,1.4-0.1,2.1-0.1c0,0,0,0,0,0c0.6,0,1,0.4,1.3,0.9
		l7.1,9.4c4.7,4.8,8.6,6.6,12.7,6.6c3.2,0,5.9-1.4,7.1-3.4C198.1,35,197.7,34.7,197.4,35.1z M169.7,21c-0.9,0-1.5,0-2.1,0
		c-0.4,0-0.4-0.2-0.4-0.7v-4.4c0-2.1,0-2.7,0.1-2.9c0.1-0.3,0.2-0.5,0.8-0.5c3.2,0,5,2.4,5,5.1C173.1,20.2,171.1,21,169.7,21z"/>
	<path class="st0" d="M47.2,35c-0.6,0.8-2.1,2.2-5.2,2.2c-4.3,0-7.7-2-11.9-5.9c-0.3-0.3-0.6-0.5-0.8-0.8c-2.7-2.6-4.8-5.1-6.4-7.2
		c-0.8-0.9-1.5-1.7-2.3-2.6c-0.9-1.1-1.8-2.2-2.7-3.2c-0.4-0.4-0.4-0.5-0.1-0.9c2.4-2.2,3.6-3.3,5.6-5.1c1.9-1.7,2.3-2.1,4.8-3.1
		c0.4-0.2,0.4-0.6-0.2-0.6c-1.3,0-2.4,0.1-3.9,0.1c-1.9,0-2.5-0.1-3.9-0.1c-0.5,0-0.6,0.5-0.1,0.6l1,0.4c1.5,0.4,1.3,0.9,0.8,1.7
		c-1,1.5-3.5,4.3-6,6.4c-1,0.9-1.7,1.3-2.1,1.5c-0.4,0.2-0.6,0.1-0.6-0.4v-1.2c0-5,0.1-6,0.2-6.5c0.1-0.8,0.7-1.4,2.3-1.8
		c0.5-0.1,0.5-0.6-0.1-0.6c-1.4,0-2.6,0.1-4,0.1c-1.3,0-2.4-0.1-4.1-0.1c-0.6,0-0.6,0.5-0.3,0.6c1.9,0.6,2.6,1.2,2.8,2
		c0.3,1.1,0.3,3.7,0.3,6.4v7.5c0,1.8-0.1,2.8-0.3,3.6c-0.2,1-1.5,1.6-2.7,2c-0.4,0.1-0.4,0.6,0.2,0.6c1.5,0,2.5-0.1,3.9-0.1
		c1.6,0,3.1,0.1,4.6,0.1c0.6,0,0.6-0.4,0.2-0.6c-0.9-0.3-1.5-0.5-2.1-0.9c-0.8-0.6-1-1.2-1-6.9v-1.3c0-0.9,0-1,0.4-1.3
		c0.3-0.2,0.6-0.4,1-0.4c0.4,0,0.9,0.1,2,1.3c0.3,0.4,0.7,0.8,1,1.2c0.6,0.6,1.2,1.3,1.8,2.1c8,11.1,16,15.6,20.4,15.6
		c3.4,0,6.4-1.5,7.7-3.7C48,35,47.6,34.6,47.2,35z"/>
	<path class="st1" d="M34.3,10.5V9l-1.7-1.7l1.7-1.7l1.7,1.7l1.7-1.7l-1.1-1.1l1.1-1.1l1.1,1.1l-1.1,1.1l1.7,1.7l1.7-1.7l1.7,1.7
		L41.2,9v1.6H34.3z M37.7,9l-1.7-1.7L34.4,9H37.7z M41.1,9l-1.7-1.7L37.8,9H41.1z"/>
	<path class="st0" d="M41.6,30c-1.1-0.2-2-0.6-2.2-1.6c-0.3-1.1-0.3-2.7-0.3-5.4v-4c0-2.7,0-4.4,0.2-5.5c0.2-1.1,1.2-1.4,2-1.6
		c0.4-0.1,0.4-0.6-0.1-0.6c0,0,0,0,0,0v0h-6.9c-0.5,0-0.6,0.5-0.2,0.6c0.9,0.2,1.9,0.6,2.1,1.7c0.2,0.9,0.2,2.6,0.2,5.3v4
		c0,2.7,0,4.3-0.2,5.6c-0.2,0.8-1.2,1.3-2.1,1.4c-0.4,0.1-0.4,0.6,0.1,0.6c1.4,0,2.5-0.1,3.6-0.1c1.3,0,2.3,0.1,3.8,0.1
		C42,30.6,42,30.1,41.6,30z"/>
</g>
</svg>
