<svg id="Layer_1" data-name="Layer 1" xmlns="http://www.w3.org/2000/svg" viewBox="0 0 294.17 60.06"><defs><style>.cls-1{fill:#082432;}</style></defs><title>Register</title><path class="cls-1" d="M294.9,37.51c0-.06,0-0.09.09-0.1a0.28,0.28,0,0,0,.24-0.1,0.21,0.21,0,0,1,.18-0.1q0.24-.14.55-0.27a0.75,0.75,0,0,0,.41-0.45,2.14,2.14,0,0,1,.2-0.44,1.66,1.66,0,0,0,.19-0.57,5.35,5.35,0,0,0,.09-1.59,2.84,2.84,0,0,0-.4-1.38,2.79,2.79,0,0,0-.52-0.47,3.36,3.36,0,0,0-.7-0.34,2.64,2.64,0,0,1-.62.09,1.81,1.81,0,0,0-.68.15c0,0.12,0,.19-0.12.19a2.81,2.81,0,0,0-1.28,1.14,2.6,2.6,0,0,0-.32,1.84,1.32,1.32,0,0,0,.12.52,2.69,2.69,0,0,1,.18.52,2,2,0,0,0,.25.64,2.09,2.09,0,0,1,.24.58h0.25a0.35,0.35,0,0,1,.24-0.26,0.33,0.33,0,0,1,.2.24,0.36,0.36,0,0,0,.13.24A0.18,0.18,0,0,0,294,37.4a0.17,0.17,0,0,1,.15-0.19,0.29,0.29,0,0,1,.32.2,0.43,0.43,0,0,0,.38.26,0.13,0.13,0,0,0,.09-0.16m-6.69.29c0-.06,0-0.09.09-0.1a0.28,0.28,0,0,0,.24-0.1,0.21,0.21,0,0,1,.18-0.1q0.24-.14.55-0.27a0.76,0.76,0,0,0,.42-0.45,2.08,2.08,0,0,1,.2-0.44,1.66,1.66,0,0,0,.19-0.57,5.36,5.36,0,0,0,.09-1.59,2.84,2.84,0,0,0-.4-1.38,2.83,2.83,0,0,0-.52-0.47,3.37,3.37,0,0,0-.7-0.34,2.65,2.65,0,0,1-.62.09,1.81,1.81,0,0,0-.68.15c0,0.12,0,.19-0.12.19a2.82,2.82,0,0,0-1.28,1.14,2.6,2.6,0,0,0-.32,1.84,1.34,1.34,0,0,0,.12.52,2.75,2.75,0,0,1,.18.52,2,2,0,0,0,.25.64,2,2,0,0,1,.24.58h0.25a0.35,0.35,0,0,1,.24-0.26,0.33,0.33,0,0,1,.2.24,0.36,0.36,0,0,0,.13.24,0.17,0.17,0,0,0,.15-0.19,0.17,0.17,0,0,1,.15-0.19,0.29,0.29,0,0,1,.32.2,0.43,0.43,0,0,0,.38.26,0.13,0.13,0,0,0,.09-0.16m-6.69.29c0-.06,0-0.09.09-0.1a0.28,0.28,0,0,0,.24-0.1,0.21,0.21,0,0,1,.18-0.1c0.16-.09.34-0.18,0.55-0.27a0.75,0.75,0,0,0,.41-0.45,2,2,0,0,1,.2-0.44,1.66,1.66,0,0,0,.19-0.57,5.36,5.36,0,0,0,.09-1.59,2.84,2.84,0,0,0-.4-1.38,2.87,2.87,0,0,0-.52-0.47,3.35,3.35,0,0,0-.7-0.34,2.6,2.6,0,0,1-.62.09,1.82,1.82,0,0,0-.68.15c0,0.12,0,.19-0.12.19a2.81,2.81,0,0,0-1.28,1.14,2.6,2.6,0,0,0-.32,1.84,1.34,1.34,0,0,0,.12.52,2.75,2.75,0,0,1,.18.52,2,2,0,0,0,.24.64,2,2,0,0,1,.24.58h0.25a0.35,0.35,0,0,1,.24-0.26,0.33,0.33,0,0,1,.2.24,0.35,0.35,0,0,0,.14.24,0.17,0.17,0,0,0,.15-0.19,0.17,0.17,0,0,1,.15-0.19,0.29,0.29,0,0,1,.32.2,0.43,0.43,0,0,0,.38.26,0.13,0.13,0,0,0,.09-0.16M270.44,21.39c0,0.18.11,0.38,0.18,0.58l0.21,0.58q0.11,0.27.17,0.21a4.43,4.43,0,0,1-.28.72,6.1,6.1,0,0,0-.28.66,0.3,0.3,0,0,1-.21.29,0.68,0.68,0,0,0-.32.42l-0.29.45a2.05,2.05,0,0,1-.23.32q-0.24.26-.57,0.55a2.53,2.53,0,0,1-.63.43q-0.53.71-1,1.22a7,7,0,0,1-1,.91q-0.89,1-1.84,2a2,2,0,0,1,.44-0.67,5.85,5.85,0,0,0,.75-2,4.55,4.55,0,0,1,.33-0.92,5.64,5.64,0,0,0,.33-0.85,2.77,2.77,0,0,0,1.09-1.38,7.08,7.08,0,0,1,.89-1.68,0.33,0.33,0,0,1,.17-0.26,0.36,0.36,0,0,0,.18-0.19,8.68,8.68,0,0,1,.83-0.9,3.68,3.68,0,0,1,1.15-.73l-0.19-.05a0.36,0.36,0,0,1,.14.27m-4,10s0.06,0,.06,0A0.87,0.87,0,0,0,267,31a1.21,1.21,0,0,1,.63-0.43,0.48,0.48,0,0,1,.18-0.07l0.43-.2,0.36-.2a0.66,0.66,0,0,0,.19.11,1,1,0,0,0,.48-0.45,0.56,0.56,0,0,1,.48-0.33,1.55,1.55,0,0,0,.39-0.3l0.39-.42a0.6,0.6,0,0,0,.4-0.11c0.06-.07.17-0.2,0.32-0.42s0.54-.56.89-0.91a4.79,4.79,0,0,0,.88-1.16,4.69,4.69,0,0,0,.4-0.85,5.15,5.15,0,0,1,.34-0.79l0.11-.32a3.29,3.29,0,0,0,.15-0.81q0-.5.14-1.06a0.56,0.56,0,0,0,.08-0.41,0.38,0.38,0,0,1,.08-0.34,1.22,1.22,0,0,0-.11-1,2,2,0,0,0-.07-0.77C274,19.54,274,19.26,273.87,19a2.93,2.93,0,0,1-.72-0.87,5.54,5.54,0,0,0-.73-1c0.08-.13.09-0.19,0.05-0.19s-0.06,0-.07-0.12a1.78,1.78,0,0,1-.58-0.53,0.74,0.74,0,0,0-.51-0.35,0.42,0.42,0,0,0-.32-0.11,0.35,0.35,0,0,1-.13-0.18,5.06,5.06,0,0,1-.75-0.12,1.33,1.33,0,0,0-.74.06,2.33,2.33,0,0,0-.92.23,0.79,0.79,0,0,1-.39.39q-0.27.14-.64,0.28a0.25,0.25,0,0,1,.07.18,4.23,4.23,0,0,0-.84.75c-0.24.28-.49,0.57-0.77,0.87a12.62,12.62,0,0,0-.84,1.31,7.48,7.48,0,0,0-.64,1.61q-1.34,2-2.52,4a27.34,27.34,0,0,0-2.07,4.5,2,2,0,0,0-.43.73,4,4,0,0,1-.37.79l-0.47,1.91a11.49,11.49,0,0,0-.29,2c0,0.45,0,.77.07,1s0.06,0.34.08,0.46a2.64,2.64,0,0,0,.11.37,2.85,2.85,0,0,1,.1.74q0.34,0.79.68,1.46a3,3,0,0,0,1,1.13,0.14,0.14,0,0,1-.09.16c-0.06,0,0,.07,0,0.15a0.17,0.17,0,0,1,.25,0,0.22,0.22,0,0,0,.25,0c0,0.08,0,.13-0.06.13s-0.06,0-.06.13a0.91,0.91,0,0,1,.78.06,0.88,0.88,0,0,0,.66.13,1.26,1.26,0,0,0,1.08-.14,1.61,1.61,0,0,1,1.07-.26l0.37,0A0.51,0.51,0,0,0,265,40.4a0.31,0.31,0,0,1,.31-0.08,0.52,0.52,0,0,1,.37,0c0.28-.14.55-0.25,0.79-0.34a2.33,2.33,0,0,1,.74-0.16q0.91-.41,1.67-0.79t1.61-.85l0.78-.59,1.26-1q0.66-.53,1.29-1t0.87-.66a5.65,5.65,0,0,1,1.16-1.11,3.58,3.58,0,0,0,1-1.22,1.28,1.28,0,0,1,.39-0.3,1.33,1.33,0,0,0,.45-0.42q0.46-.7.91-1.28l1-1.28a0.7,0.7,0,0,0-.17-0.27c-0.06-.06,0-0.15.08-0.28s0-.08-0.07-0.12a0.12,0.12,0,0,1-.07-0.18q-0.24.14-.05,0.25t0-.19a2.31,2.31,0,0,1-.56,0V28.38c-0.17-.16-0.26-0.17-0.25-0.05q-0.47.52-.92,0.94a7.72,7.72,0,0,1-.93.75L275,31.4q-0.12.13-.63,0.56a14.26,14.26,0,0,1-1.14.86l-1.17.83a3.18,3.18,0,0,1-.79.47,19.15,19.15,0,0,0-2.37,1.16,11.35,11.35,0,0,1-2.5,1,7.91,7.91,0,0,0-1.16.42,6.75,6.75,0,0,1-1.28.43,0.89,0.89,0,0,0-.46,0,0.47,0.47,0,0,1-.34,0,2.24,2.24,0,0,0-.72-0.09,0.35,0.35,0,0,1-.36-0.42,0.91,0.91,0,0,1,0-.59,2.12,2.12,0,0,0,.25-0.6,3.36,3.36,0,0,1,.36-1,2.6,2.6,0,0,0,.3-1,1.54,1.54,0,0,0,.46-0.92,0.83,0.83,0,0,1,.59-0.74,0.28,0.28,0,0,0,.25,0l0.31,0s0,0.07,0,.09,0,0,0,0c0.17,0.16.3,0.18,0.38,0.08a0.33,0.33,0,0,1,.24-0.16,0.74,0.74,0,0,1,.56.1Zm-17.86,7.11a0.18,0.18,0,0,1,.06-0.13c0,0.08,0,.13-0.06.13v0Zm-5.73-19.61a1.24,1.24,0,0,1,.39-0.33,1.14,1.14,0,0,1,.64.34,0.72,0.72,0,0,1,.27.49,0.35,0.35,0,0,1-.11.25,7.76,7.76,0,0,0-.14,1.09,8,8,0,0,1-.14,1.09,4.13,4.13,0,0,1-1.6.38,1.65,1.65,0,0,1-.75-0.15,0.59,0.59,0,0,1-.2-0.24,0.68,0.68,0,0,1,.23-0.44,0.17,0.17,0,0,0,.06-0.1,0.17,0.17,0,0,1,.06-0.1,0.34,0.34,0,0,0,.12-0.19,4,4,0,0,1,.23-0.44,4.32,4.32,0,0,0,.23-0.44,3.88,3.88,0,0,1,.46-0.83,4.15,4.15,0,0,1,.26-0.38m8.26,23.47h0.31a1,1,0,0,1,.3-0.14,0.12,0.12,0,0,1,.09,0,0.12,0.12,0,0,0,.09,0,1.38,1.38,0,0,0,.61-0.15l0.49-.27a1.89,1.89,0,0,0,.51-0.33l0.45-.39a0.54,0.54,0,0,1,.27-0.17,0.55,0.55,0,0,0,.27-0.17,2.55,2.55,0,0,0,.69-0.62,2.49,2.49,0,0,1,.69-0.62,1.15,1.15,0,0,1,.41-0.55,1.14,1.14,0,0,0,.41-0.61L258.13,37a14.23,14.23,0,0,0,1.39-1.55,2.4,2.4,0,0,1,.42-0.36,1,1,0,0,0,.35-0.42,0.28,0.28,0,0,1,0-.13,0.27,0.27,0,0,0,0-.12,3,3,0,0,1,.42-0.39,3.06,3.06,0,0,1,.42-0.39,4.23,4.23,0,0,1,.26-0.38c0.1-.13.19-0.24,0.26-0.32l0.24-.26a0.21,0.21,0,0,1,.09-0.13,0.18,0.18,0,0,0,.09-0.07,0.69,0.69,0,0,0,0-.31c0-.08,0-0.12,0-0.12s0,0,0-.06a0.25,0.25,0,0,1,.05-0.19,0.92,0.92,0,0,1,.23-0.44c-0.13-.12-0.19-0.16-0.19-0.11a0.18,0.18,0,0,1,.06-0.13,0.25,0.25,0,0,0,.05-0.19,3.23,3.23,0,0,1,.17-0.44l-0.22-.11a0.39,0.39,0,0,0-.22-0.05h-0.19a0.43,0.43,0,0,0-.43.14,2.47,2.47,0,0,1-.36.33l-0.8.78q-0.39.39-.74,0.78l-1.64,1.53q-0.81.75-1.64,1.47a0.33,0.33,0,0,0-.15.13,0.33,0.33,0,0,1-.15.13l-0.15.1-0.15.1a9.72,9.72,0,0,0-1.17,1,9.61,9.61,0,0,1-1.17,1,1.16,1.16,0,0,1-.3.23,2.67,2.67,0,0,1-.36.17,0.21,0.21,0,0,1-.26-0.2,0.78,0.78,0,0,1,0-.34,0.25,0.25,0,0,1,0-.16,0.12,0.12,0,0,0,0-.09,0.35,0.35,0,0,0,.11-0.25,0.61,0.61,0,0,0,.05-0.28,0.62,0.62,0,0,1,.05-0.28l0.09-.75a5.33,5.33,0,0,0,0-.87,0.25,0.25,0,0,0,0-.15,0.24,0.24,0,0,1,0-.15s0-.06,0-0.06,0,0,0-.06a0.54,0.54,0,0,0,.06-0.16,0.54,0.54,0,0,1,.06-0.16,0.18,0.18,0,0,1,.06-0.13l0-.37a4.94,4.94,0,0,1,.17-1c0.09-.31.17-0.64,0.24-1a0.69,0.69,0,0,1,0-.31,0.24,0.24,0,0,1,0-.16,0.13,0.13,0,0,0,0-.09,0.56,0.56,0,0,0,.05-0.25,1.07,1.07,0,0,0,.11-0.32,0.52,0.52,0,0,0,.05-0.22A0.49,0.49,0,0,1,253.7,30a0.52,0.52,0,0,0,.05-0.22,0.49,0.49,0,0,1,.05-0.22,1,1,0,0,0,.1-0.44,0.55,0.55,0,0,0,.05-0.25,0.56,0.56,0,0,1,.05-0.25l0.11-.25a9.81,9.81,0,0,0,.47-1.29,9.72,9.72,0,0,1,.47-1.29,0.36,0.36,0,0,0,.11-0.25,0.54,0.54,0,0,0,.06-0.16,0.54,0.54,0,0,1,.05-0.16c0.07-.17.14-0.33,0.2-0.47a3,3,0,0,0,.14-0.47s0-.07,0-0.09,0,0,0-.09a0.34,0.34,0,0,1,.12-0.19,0.55,0.55,0,0,0,.14-0.29,1,1,0,0,1,.14-0.35,0.69,0.69,0,0,1,.12-0.19,0.72,0.72,0,0,0,.12-0.19,2.41,2.41,0,0,0,.22-0.69,0.35,0.35,0,0,0,0-.25,0.34,0.34,0,0,1,0-.25,0.18,0.18,0,0,1,.06-0.13,0.25,0.25,0,0,0,.05-0.19,2.41,2.41,0,0,0,.07-1.34A2,2,0,0,0,256.2,19l-0.13-.06a0.13,0.13,0,0,0,0-.09,0.12,0.12,0,0,1,0-.09,7.22,7.22,0,0,0-1.16-1.07,3.72,3.72,0,0,0-.51-0.35,1.26,1.26,0,0,0-.68,0,3.38,3.38,0,0,0-.67.22l-0.55.24-0.55.24q-1.34.62-2.64,1.26l-2.64,1.32a3.89,3.89,0,0,1-.52.24,4.83,4.83,0,0,1-.58.18q0-.31.1-0.53a5.35,5.35,0,0,1,.16-0.53l0-.43a1,1,0,0,0,.14-0.38,0.92,0.92,0,0,1,.14-0.38,0.68,0.68,0,0,1,0-.22,0.7,0.7,0,0,0,0-.22,0.6,0.6,0,0,0,.1-0.44L246,17.77a0.85,0.85,0,0,0,0-.77,2.59,2.59,0,0,0-.46-0.57A2.47,2.47,0,0,0,245,16a2,2,0,0,1-.48-0.32,0.15,0.15,0,0,1-.25,0H244.2a0.18,0.18,0,0,0-.12.13A0.18,0.18,0,0,1,244,16a8.12,8.12,0,0,1-1,.23,8.32,8.32,0,0,0-1,.23,1.63,1.63,0,0,0-.49.08,0.87,0.87,0,0,0-.37.08,4.39,4.39,0,0,0-.7.34,1.36,1.36,0,0,0-.51.52,6.8,6.8,0,0,0-1.09,1.91,1.85,1.85,0,0,0-.17.35,2.05,2.05,0,0,1-.17.35l-0.1.47a1.45,1.45,0,0,0,0,.41,1.33,1.33,0,0,0,0,.28,0.43,0.43,0,0,1,0,.28,0.12,0.12,0,0,1,0,.09,0.24,0.24,0,0,0,0,.16,1.88,1.88,0,0,0,.1.8,2.16,2.16,0,0,0,.15.68l0.19,0.18a0.57,0.57,0,0,1,.16.24,0.53,0.53,0,0,0,.17.24,0.92,0.92,0,0,0,.26.17,4.77,4.77,0,0,0,2.45.76,2.94,2.94,0,0,1-.4.82q-0.29.57-.6,1.14T240.2,28l-0.37.79c-0.13.28-.26,0.54-0.37,0.79s-0.14.31-.2,0.41l-0.2.35a1.44,1.44,0,0,0-.23.38,0.74,0.74,0,0,1-.11.19,0.74,0.74,0,0,0-.12.19v0.12a0.26,0.26,0,0,0-.05.19,3.32,3.32,0,0,0-.2.38,3.33,3.33,0,0,1-.2.38,3.41,3.41,0,0,1-.25.57c-0.1.17-.18,0.34-0.26,0.51V33.4a0.28,0.28,0,0,1-.15.16,0.29,0.29,0,0,0-.15.16v0.06c0,0.08.13,0.06,0.24-.07a0.12,0.12,0,0,0,.09,0,0.24,0.24,0,0,1,.15,0,0.85,0.85,0,0,0,.19.77,0.54,0.54,0,0,0,.66.25,0.36,0.36,0,0,0,.3-0.26,1.4,1.4,0,0,0,.72-0.47l0.36-.26,0.36-.26c0.16-.17.3-0.32,0.44-0.45a1.26,1.26,0,0,0,.32-0.51,3.24,3.24,0,0,1,.17-0.44,1,1,0,0,1,.17-0.26,1.58,1.58,0,0,0,.34-0.76s0.06-.06.05-0.19a0.17,0.17,0,0,1,.09-0.13,0.47,0.47,0,0,0,.15-0.19h0.12a0.37,0.37,0,0,1,.05-0.25,3.65,3.65,0,0,0,.35-0.51,1.68,1.68,0,0,0-.29.45,7.76,7.76,0,0,1,.68-1.58,1.23,1.23,0,0,0,.08-0.25,0.55,0.55,0,0,1,.14-0.26,2.18,2.18,0,0,1,.24-0.23,0.63,0.63,0,0,0,.18-0.23,1.29,1.29,0,0,1,0-.5,0.61,0.61,0,0,1,.18-0.26A0.64,0.64,0,0,1,244,26.7a0.77,0.77,0,0,0,.09-0.16,0.43,0.43,0,0,0,.11-0.31,0.7,0.7,0,0,1,0-.31,1.4,1.4,0,0,1,.17-0.44,2,2,0,0,1,.24-0.32c0.23-.34.39-0.58,0.46-0.7q1.4-.56,2.71-1.11t2.72-1.05a0.91,0.91,0,0,1-.16.69,7.3,7.3,0,0,1-.36.92c-0.13.28-.26,0.56-0.37,0.85s-0.16.42-.25,0.63a2.47,2.47,0,0,0-.19.63,2.4,2.4,0,0,0-.16.5,2.43,2.43,0,0,1-.16.5,0.87,0.87,0,0,1,0,.37,1,1,0,0,0-.17.26v0.19a0.25,0.25,0,0,1-.05.19,0.26,0.26,0,0,0-.05.19l-0.17.38a1.81,1.81,0,0,0-.17.35c0,0.11-.07.22-0.11,0.35s-0.14.51-.21,0.78-0.14.53-.21,0.78a4.26,4.26,0,0,0-.12.87c0,0.29,0,.58-0.05.87l-0.11,1.87c0,0.13-.07.26-0.11,0.41a1.46,1.46,0,0,0,0,.41,5.14,5.14,0,0,0,0,1.4,6.55,6.55,0,0,0,.31,1.32,6.61,6.61,0,0,0,1,2.13,1.42,1.42,0,0,1,.23.27,1.45,1.45,0,0,0,.23.27l0.19,0.18a0.33,0.33,0,0,1,.26.18,1.18,1.18,0,0,1,.23.3,3.57,3.57,0,0,0,.23.36,1.57,1.57,0,0,0,.36.51,0.8,0.8,0,0,0,.6.19h0.19Zm-16.13-13.2a11.29,11.29,0,0,1,.16-1.4c0.08-.48.15-1.05,0.2-1.72a0.08,0.08,0,0,0,.12,0,0.08,0.08,0,0,1,.12,0Zm-2.28,1.16a3.71,3.71,0,0,1-.3,1.07q-0.23.51-.45,1c-0.15.3-.33,0.61-0.52,1a8.09,8.09,0,0,0-.26,1,2.16,2.16,0,0,1-.4.92,1,1,0,0,0-.24.2l-0.24.26c-0.08,0-.12.06-0.12,0s0,0-.06,0a0.05,0.05,0,0,1-.06-0.06,3.68,3.68,0,0,1-.77.93,7.56,7.56,0,0,0-.89.94,3.44,3.44,0,0,1-1,.54c-0.33.1-.74,0.2-1.23,0.3l-0.95.29a1.54,1.54,0,0,1-1.09-.14,4.13,4.13,0,0,1-.56-0.66,4.53,4.53,0,0,1-.44-0.73V36.9a3.59,3.59,0,0,0-.14-0.4l-0.14-.27a0.67,0.67,0,0,1,0-.22,0.7,0.7,0,0,0,0-.22,4,4,0,0,0-.05-0.49,4.47,4.47,0,0,1-.06-0.56,2.3,2.3,0,0,0,.11-1,1.92,1.92,0,0,1,.11-0.91,3.83,3.83,0,0,0,0-.75,5.16,5.16,0,0,1,.5-1.33q0.34-.63.69-1.33l0.64-1a5.59,5.59,0,0,0,.57-1.17L225.6,27a0.72,0.72,0,0,0,.1-0.5,1,1,0,0,0,.69-0.65,7.64,7.64,0,0,1,.48-1,2.42,2.42,0,0,1,.29-0.39,2.5,2.5,0,0,0,.29-0.38,2.76,2.76,0,0,0,.25-0.63,1.77,1.77,0,0,1,.26-0.57,3.36,3.36,0,0,1,.71.74,2.9,2.9,0,0,0,.65.69,0.92,0.92,0,0,0,.64.41,0.5,0.5,0,0,0,.38.11l0.64,0.5a0.78,0.78,0,0,0,.69.19,5,5,0,0,0,.82.34,2.06,2.06,0,0,0,1,.08,1.45,1.45,0,0,1-.06.84,5.92,5.92,0,0,0-.31.79,8.34,8.34,0,0,0-.14,1,3.44,3.44,0,0,1-.21.91c0,0.21-.07.5-0.12,0.87m-1.34-10a2.45,2.45,0,0,1,.09.52l0.33,0.36a0.6,0.6,0,0,1,.17.33,1.49,1.49,0,0,0,.18.46,4.31,4.31,0,0,0,.33.39,1.77,1.77,0,0,1,.34.58v0.12a0.28,0.28,0,0,1-.31.08l-0.32-.11a2.37,2.37,0,0,1-1-.61,5.16,5.16,0,0,1-.79-1,1.3,1.3,0,0,1,0-.84,0.86,0.86,0,0,1,.63-0.62,0.43,0.43,0,0,1,.39.33m12.38,0.79a0.56,0.56,0,0,0-.27.1l-0.36.26a0.52,0.52,0,0,1-.52.05,2.45,2.45,0,0,1-.94.57q-0.64.25-1.68,0.6a2,2,0,0,1-.74.19c-0.33,0-.68.06-1.05,0.08s-0.73,0-1.08,0h-0.9a0.89,0.89,0,0,1-.28,0,0.73,0.73,0,0,0-.34,0,0.59,0.59,0,0,1-.16-0.21,0.14,0.14,0,0,0-.16-0.09,1.39,1.39,0,0,0-.15-0.61,0.69,0.69,0,0,1-.08-0.31,0.42,0.42,0,0,0-.14-0.3c0.05,0.2.11,0.42,0.18,0.64a2.48,2.48,0,0,1,.12.65,0.25,0.25,0,0,1-.26-0.21,1.28,1.28,0,0,1-.08-0.34c-0.09-.24-0.19-0.5-0.28-0.76a3.26,3.26,0,0,0-.34-0.7,0.67,0.67,0,0,1-.49-0.51,5.09,5.09,0,0,0-.25-0.7,2.6,2.6,0,0,0-.3-0.51,1,1,0,0,1-.18-0.58l-0.45-.29a0.17,0.17,0,0,0,.05-0.22,0.3,0.3,0,0,1-.07-0.15,0.37,0.37,0,0,1-.31-0.08A0.21,0.21,0,0,0,232,17.7a0.31,0.31,0,0,1,0,.49,0.2,0.2,0,0,1-.25,0,0.21,0.21,0,0,0-.19-0.08,0.18,0.18,0,0,0-.12.16c0,0.06,0,.09-0.12.1a0.56,0.56,0,0,0-.66-0.16,0.84,0.84,0,0,1-.72,0,4.44,4.44,0,0,0-.56.58,0.53,0.53,0,0,1-.77.1,1.15,1.15,0,0,0-.2.32,0.27,0.27,0,0,1-.21.19,1.7,1.7,0,0,0-.13-0.86,2.85,2.85,0,0,0-.43-0.66,7.23,7.23,0,0,0-1.05-.64,1.29,1.29,0,0,0-1.33.06,0.05,0.05,0,0,1-.06.06h-0.12a7.37,7.37,0,0,0-1.05.79l-1,.91a11,11,0,0,0-.91,1.13q-0.38.54-.85,1.25a23.54,23.54,0,0,0-2.73,4.93,16.17,16.17,0,0,0-1.25,6.1v0.06a5.22,5.22,0,0,1,0,.59,1.56,1.56,0,0,1-.13.53q0.14,0.49.26,1t0.2,1l0,0.43,0.26,0.24a23.54,23.54,0,0,1,.88,2.35,2.94,2.94,0,0,0,1.54,1.83,7.83,7.83,0,0,0,1.26,1.25,3.52,3.52,0,0,0,1.68.73,1.64,1.64,0,0,0,1,0,3.81,3.81,0,0,1,.92-0.17,0.13,0.13,0,0,1,.1,0,0.12,0.12,0,0,0,.09,0,2.5,2.5,0,0,0,1.47-.41,4.1,4.1,0,0,1,1.34-.59,2.77,2.77,0,0,1,.72-0.56,2.89,2.89,0,0,0,.72-0.56,1,1,0,0,1,.47-0.58,2,2,0,0,1,.3-0.26,1.11,1.11,0,0,0,.3-0.32l0.14-.32a3.26,3.26,0,0,1,.2-0.38,1.71,1.71,0,0,0,.25-0.6,5.81,5.81,0,0,1,.19-0.66,6,6,0,0,1,.67-1.05,6.11,6.11,0,0,0,.67-1.05,4.67,4.67,0,0,0,.18-0.75,4.78,4.78,0,0,1,.24-0.88v0.12a0.06,0.06,0,0,1-.06.07l0.29-.51a1.37,1.37,0,0,0,.17-0.44,2.61,2.61,0,0,0,.45-1.07c0-.08,0-0.13,0-0.12s0,0,0-.13a4.54,4.54,0,0,1,.33-1.07,10.32,10.32,0,0,0,.39-1,2,2,0,0,1-.15.72,1.18,1.18,0,0,0-.1.59,13.1,13.1,0,0,0,.59-2.17q0.15-.91.39-2.35,0.31,0,1.17-.11a16.7,16.7,0,0,0,2-.36,16.1,16.1,0,0,0,2.23-.72,7,7,0,0,0,2-1.17,0.33,0.33,0,0,1,.18-0.26,0.94,0.94,0,0,0,.29-0.39,1.8,1.8,0,0,0,.62-0.83,0.5,0.5,0,0,0-.12-0.62c-0.05-.25-0.12-0.37-0.2-0.36m-37.5,18.14h0.06s0.06,0,.07.12a0.18,0.18,0,0,0-.13-0.06V39.31Zm-20.1.13h0.12a0.13,0.13,0,0,1,0,.09,0.12,0.12,0,0,0,0,.09s-0.07-.06-0.07-0.18m0.22,0.08c-0.06,0-.07,0,0-0.09a0.05,0.05,0,0,1,.06.06s0,0,.06,0a0.69,0.69,0,0,0,.08.31c-0.08,0-.13-0.06-0.13-0.18a0.06,0.06,0,0,0-.06.06V39.56a0.06,0.06,0,0,1,.06.06s0-.07,0-0.09m-0.23-.33q0.12,0,.07.09a0.11,0.11,0,0,0,0,.16h-0.06V39.19Zm0.5,0.1s-0.07,0-.09,0a0.1,0.1,0,0,1-.09.07l-0.07-.06a0.1,0.1,0,0,1,.12,0s0.06,0,.06-0.1a0.05,0.05,0,0,1,.06.06V39.17a0.1,0.1,0,0,1,0,.12s0,0.06,0,.06-0.11,0-.09.07,0,0.06-.09.07a0.34,0.34,0,0,1,.12-0.19m0-.25a0.06,0.06,0,0,1,.07.06,0.1,0.1,0,0,1-.12,0s-0.06,0-.06,0a0.11,0.11,0,0,1,.12-0.13m-0.13-.18s0.06,0,.07.12h-0.06V38.87Zm0.37-.08a3,3,0,0,1,.17-0.32,0.17,0.17,0,0,1,0,.22,0.83,0.83,0,0,0-.15.22,0.06,0.06,0,0,0-.06.07s0,0.06-.12.07a1,1,0,0,0,.18-0.26m0-.16a0.18,0.18,0,0,1,.12-0.16,0.33,0.33,0,0,1-.12.16,0.34,0.34,0,0,0-.12.16V38.61c0.09,0.08.13,0.09,0.13,0m0.31-20.55a5.91,5.91,0,0,1-1,.76,0.67,0.67,0,0,1-.23.44,0.25,0.25,0,0,1-.05.19l-0.11.25v0.19a1,1,0,0,1-.17.26,3.31,3.31,0,0,0-.39,1.07q-0.1.56-.2,1.19-0.28,2.06-.66,4.09t-0.79,4L183,33.18q-0.25,1.31-.5,2.75a22.66,22.66,0,0,0-.18,3q0,1.52,0,3.13v0.06l0,0.74a1.08,1.08,0,0,0,.08.43,0.19,0.19,0,0,0,.07.12,0.53,0.53,0,0,1,.07.24,0.57,0.57,0,0,0,.07.25,0.76,0.76,0,0,0,.46.48h0.06c0.08,0,.1-0.08.06-0.1a0.1,0.1,0,0,1-.07-0.09l0.79-.28a1,1,0,0,0,.6-0.52,0.74,0.74,0,0,0,.18-0.13,0.67,0.67,0,0,1,.18-0.13,4.23,4.23,0,0,1,.5-1.26l0.3-.32h0.31a1.38,1.38,0,0,0,.17-0.44,4.22,4.22,0,0,1,.16-0.57,0.06,0.06,0,0,1,.06.06,0.06,0.06,0,0,0,.07.06,2.51,2.51,0,0,0,.11-0.32l0.11-.38c0.08,0,.11,0,0.1.06s0,0.06.1,0.06a1.8,1.8,0,0,1,.12-0.81,1.83,1.83,0,0,0,.12-0.81,0.69,0.69,0,0,0,.31-0.08,0.24,0.24,0,0,0,0,.15,0.13,0.13,0,0,1,0,.09,0.27,0.27,0,0,1,0-.12,0.28,0.28,0,0,0,0-.13s0.07,0,.09,0a0.1,0.1,0,0,0,.1.06,1.41,1.41,0,0,0,.21-0.91,1.77,1.77,0,0,1,.15-0.91,0.25,0.25,0,0,1,.18-0.07,5,5,0,0,1,.13-0.59c0.05-.19.12-0.39,0.19-0.6q0.28-.76.62-1.52a6.76,6.76,0,0,0,.49-1.63,0.87,0.87,0,0,1,0-.37,0.35,0.35,0,0,1,.12-0.19,5.51,5.51,0,0,0,.19-0.69,1.31,1.31,0,0,1,.31-0.63,0.15,0.15,0,0,1,0-.19,0.15,0.15,0,0,0,0-.19,5,5,0,0,0,.22-0.63l0.21-.23L191,28.8l0.83-.91c0.23-.34.48-0.67,0.73-1s0.52-.63.8-0.93l1-.79,1-.79A2.62,2.62,0,0,0,195.8,24a2.51,2.51,0,0,1,.48-0.39,3.66,3.66,0,0,1,.54-0.37,1.26,1.26,0,0,1,.74-0.12,0.4,0.4,0,0,1,0,.4,0.89,0.89,0,0,0,0,.53,0.25,0.25,0,0,0,0,.15,0.25,0.25,0,0,1,0,.15,0.9,0.9,0,0,1,0,.53,2.66,2.66,0,0,0-.13.53,2.33,2.33,0,0,1,0,.37,2.22,2.22,0,0,0,0,.37,1.1,1.1,0,0,0,0,.34,1.1,1.1,0,0,1,0,.34q-0.31,1.5-.71,2.92t-0.77,2.86l-0.1.47c0,0.15-.07.3-0.1,0.47s-0.06.23-.08,0.31a0.55,0.55,0,0,1-.14.25,3.92,3.92,0,0,1-.11,1.06,0.62,0.62,0,0,0,.38.79l0.5,0,0.16-.57a1.13,1.13,0,0,0,.65-0.65,1.37,1.37,0,0,1,.65-0.71,2.32,2.32,0,0,1-.26.45,4,4,0,0,0-.26.38,0.21,0.21,0,0,0,.18-0.1,0.46,0.46,0,0,1,.18-0.16,0.68,0.68,0,0,1,.23-0.44,1.76,1.76,0,0,0,.29-0.39q0.76-1,1.53-1.9t1.6-1.78q1.07-1,2.08-2a23,23,0,0,1,2.21-1.93q0.84-.6,1.66-1.13A16.73,16.73,0,0,1,209,24a2.28,2.28,0,0,1-.21.78,4.3,4.3,0,0,0-.28.73q-0.33.88-.67,1.8t-0.6,1.92A3.8,3.8,0,0,0,207,30a3.64,3.64,0,0,0-.25.76c-0.05.25-.11,0.52-0.18,0.82a6.51,6.51,0,0,1-.21.82,20.2,20.2,0,0,0-.31,2.09q-0.11,1.09-.12,2.33a0.12,0.12,0,0,0-.09,0,0.13,0.13,0,0,1-.09,0l0.15,0.61a1.9,1.9,0,0,1,0,.68,0.25,0.25,0,0,0-.05.19L206,38.45l0,0.62a2.37,2.37,0,0,0,.25.73c0.11,0.2.24,0.4,0.37,0.61a0.25,0.25,0,0,1,.19.05,0.74,0.74,0,0,0,.19.11,8.1,8.1,0,0,0,.53.75,2.13,2.13,0,0,0,.71.56L208.5,42a0.18,0.18,0,0,1,.07.09,0.17,0.17,0,0,0,.07.09,1.51,1.51,0,0,0,.51.35,1.93,1.93,0,0,0,.67-0.28,0.26,0.26,0,0,0,.15,0,0.12,0.12,0,0,1,.09,0,0.12,0.12,0,0,1,.09,0,0.13,0.13,0,0,0,.1,0,0.27,0.27,0,0,1,.13,0,0.27,0.27,0,0,0,.13,0s0.06,0,.06,0,0,0,.06,0h0.12a2.23,2.23,0,0,0,.37,0,2.1,2.1,0,0,1,.37,0,8.29,8.29,0,0,0,1.19-.39,8.85,8.85,0,0,1,1.13-.39l0.11-.25a0.53,0.53,0,0,0,.43-0.17,3.88,3.88,0,0,1,.29-0.35,0.37,0.37,0,0,1,.15-0.1,0.63,0.63,0,0,0,.21-0.16q0.66-.46,1.29-1a5.73,5.73,0,0,0,1.1-1.13V38a8.77,8.77,0,0,0,1.53-1.22q0.68-.68,1.4-1.33l0.18-.19a0.18,0.18,0,0,0,.06-0.1,0.17,0.17,0,0,1,.06-0.1,0.36,0.36,0,0,0,.11-0.25l-0.06.06-1.19,1.17a9.81,9.81,0,0,1-1.26,1h0.06a7.67,7.67,0,0,1,1.13-1.1,0.72,0.72,0,0,1,.29-0.54,2.81,2.81,0,0,0,.48-0.42s0-.06,0-0.06,0,0,0-.06q0.23-.32.47-0.61a4.39,4.39,0,0,1,.53-0.55,0.38,0.38,0,0,1,.08-0.28,0.73,0.73,0,0,0,.14-0.29V33.06a0.36,0.36,0,0,1-.14-0.24,1.87,1.87,0,0,1-.55.09,1,1,0,0,0-.51.3,1.75,1.75,0,0,1-.45.36,0.49,0.49,0,0,1-.18.07,0.49,0.49,0,0,0-.18.07l-0.24.26a0.88,0.88,0,0,1-.18.16,0.5,0.5,0,0,0-.12.1,4.65,4.65,0,0,1-.6.55,4.65,4.65,0,0,0-.6.55l-0.18.1-0.18.1a1,1,0,0,1-.43.14s-0.06,0-.06,0,0,0-.12,0a0.2,0.2,0,0,0-.18.13,0.74,0.74,0,0,1-.12.19,0.92,0.92,0,0,1-.42.27q-0.84.78-1.74,1.47A8.87,8.87,0,0,1,212,38.87a0.18,0.18,0,0,0,.06-0.13,0.47,0.47,0,0,1,.05-0.19,0.12,0.12,0,0,1,0-.09,0.25,0.25,0,0,0,0-.16,0.77,0.77,0,0,0,0-.37,1.89,1.89,0,0,1,0-.31,2.92,2.92,0,0,0,0-.68,2.5,2.5,0,0,0,0-.68,0.75,0.75,0,0,1,0-.28,0.74,0.74,0,0,0,0-.28,2.92,2.92,0,0,0,0-.68,2,2,0,0,1,.1-0.62q0.26-1.13.55-2.23T213.69,30l0.16-.57V29.23a0.42,0.42,0,0,1,.11-0.32,13.19,13.19,0,0,0,.38-1.29q0.16-.66.31-1.35a1.21,1.21,0,0,0,0-.37,0.66,0.66,0,0,1,.11-0.38l0.11-.38a1.2,1.2,0,0,0,0-.37,2.17,2.17,0,0,1,.26-1.19,0.25,0.25,0,0,1,.05-0.19,0.18,0.18,0,0,0,.06-0.13c0-.08,0-0.2,0-0.34a0.79,0.79,0,0,0-.08-0.34,0.16,0.16,0,0,0-.07-0.15,0.1,0.1,0,0,1-.07-0.09,0.48,0.48,0,0,1,0-.34,0.68,0.68,0,0,0,0-.4,0.35,0.35,0,0,1-.07-0.24,1.47,1.47,0,0,1,0-.87,0.67,0.67,0,0,0-.21-0.49,0.92,0.92,0,0,0-.42-0.29l-0.54-.22a3.36,3.36,0,0,0-1.37-.19c-0.21.05-.41,0.11-0.61,0.18s-0.41.15-.61,0.24a3.71,3.71,0,0,0-1.1.48c-0.37.18-.73,0.35-1.1,0.51s-0.71.33-1,.51A28.91,28.91,0,0,0,205,23a26.28,26.28,0,0,0-2.67,2.07c-0.28.26-.56,0.51-0.84,0.75a8.87,8.87,0,0,0-.77.75,3,3,0,0,0-.42.39q-0.3.32-.59,0.62c-0.2.19-.4,0.38-0.6,0.55q0.1-.62.19-1.22t0.2-1.22c0.07-.42.13-0.84,0.19-1.28a3.61,3.61,0,0,0-.06-1.33,0.15,0.15,0,0,0-.05.22,0.15,0.15,0,0,1-.05.22c-0.08,0-.11-0.09-0.07-0.15a0.11,0.11,0,0,0,0-.15c0-.08,0-0.12-0.1-0.12a0.18,0.18,0,0,1-.16-0.12,3.79,3.79,0,0,0-.34-0.76,3.74,3.74,0,0,1-.34-0.76,1.39,1.39,0,0,0-1.12-.11,7,7,0,0,0-1,.39l-0.46.24a2.47,2.47,0,0,0-.39.23q-1,.73-1.92,1.51t-1.8,1.51a8,8,0,0,0,.18-1.47q0-.78.05-1.65l0-.56a1,1,0,0,1,0-.25,1.1,1.1,0,0,0,0-.25,3.81,3.81,0,0,0-.05-0.52c0-.14-0.07-0.32-0.12-0.52a3.92,3.92,0,0,0-.16-0.92,1.74,1.74,0,0,0-1.16-.88,0.35,0.35,0,0,1-.25-0.05,0.44,0.44,0,0,1-.1-0.12,0.54,0.54,0,0,0-.1-0.12,0.42,0.42,0,0,0-.31-0.11,0.66,0.66,0,0,1-.38-0.11l-0.28-.11a0.92,0.92,0,0,0-.34,0l-0.37,0a2.14,2.14,0,0,0-1.25.52m-31.78,29h0.12a0.06,0.06,0,0,1-.12,0m0.75-2.76a0.66,0.66,0,0,0-.18.13,0.16,0.16,0,0,1-.19,0c0-.08.12-0.13,0.37-0.14m-5.05-21.87h0Zm9.89-17.19a5,5,0,0,1-.51.33,0.48,0.48,0,0,1-.18.07,0.5,0.5,0,0,0-.18.07,2.19,2.19,0,0,0-.59.65,1.52,1.52,0,0,0-.53.71,11,11,0,0,0-1.26,2.41q-0.5,1.33-.94,2.65-0.27.88-.6,1.83t-0.6,1.83q-0.27.94-.51,1.92t-0.51,1.85q-0.68.15-1.32,0.37t-1.32.37l-0.27.14a0.24,0.24,0,0,1-.28,0c0,0.08-.08.13-0.24,0.13l-0.27.14-0.27.14a0.68,0.68,0,0,1-.31.08s-0.06,0-.06.13a0.17,0.17,0,0,0-.16,0,0.23,0.23,0,0,1-.15,0,5.21,5.21,0,0,0-.88.47,1.89,1.89,0,0,0-.62.71,0.36,0.36,0,0,0,.25.11s0,0-.12.07a0.2,0.2,0,0,0,.24-0.07,0.11,0.11,0,0,1-.12.13,0.11,0.11,0,0,0-.12.13,0.34,0.34,0,0,0,.18-0.13,0.12,0.12,0,0,1,.09,0,0.12,0.12,0,0,0,.09,0V22.39a0.13,0.13,0,0,1,.1.15,0.13,0.13,0,0,0,.1.15,0.28,0.28,0,0,1,.3-0.14,0.63,0.63,0,0,0,.15-0.1l0.15-.1c0,0.08,0,.12.07,0.12a0.28,0.28,0,0,1,.27-0.14,0.78,0.78,0,0,0,.34-0.08s0.05,0,0,0,0,0,0,0a0.35,0.35,0,0,1,.24-0.13,1,1,0,0,1-.66.53s0,0.06,0,.06,0,0,0,.06a0.08,0.08,0,0,0,.12,0,0.18,0.18,0,0,1,.12-0.07,0.46,0.46,0,0,1,.18-0.07,0.48,0.48,0,0,0,.18-0.07,0.05,0.05,0,0,1-.06.06s0,0,0,.06a0.18,0.18,0,0,0,.12-0.16,0.18,0.18,0,0,1,.12-0.16,0.25,0.25,0,0,0,.07.18l-0.07-.12a0.18,0.18,0,0,0,.13.06,0.3,0.3,0,0,0,.15-0.07c0.06,0,.07-0.07,0-0.06h0.12s0-.06.12-0.07a0.11,0.11,0,0,0,.12-0.13V22.4a0.17,0.17,0,0,0-.06.1,0.18,0.18,0,0,1-.06.1,1.25,1.25,0,0,0,.67-0.28,0.11,0.11,0,0,1-.13-0.12q0-.19.31-0.08a0.68,0.68,0,0,0,.22,0,0.68,0.68,0,0,1,.22,0,0.43,0.43,0,0,1,.19,0,0.42,0.42,0,0,0,.19,0,0.57,0.57,0,0,0,.37,0,0.28,0.28,0,0,1,.31,0s0,0,.06,0a0.26,0.26,0,0,1,.18-0.07,9.53,9.53,0,0,1-.26,1.1q-0.16.54-.33,1a0.57,0.57,0,0,1,0,.44,0.35,0.35,0,0,0-.05.25,2.18,2.18,0,0,1-.12.22,1.82,1.82,0,0,0-.11.22,3.59,3.59,0,0,0,0,.72,1.91,1.91,0,0,1-.09.72c-0.06.5-.13,1-0.21,1.47s-0.15.95-.22,1.41q0,0.31-.12.69a2.85,2.85,0,0,0-.06.69,4.1,4.1,0,0,0-.12.84,4.3,4.3,0,0,1-.12.84,2,2,0,0,1-.1.5l0,0.68a29.6,29.6,0,0,1-.26,3.92,2,2,0,0,0-.1.56,3.71,3.71,0,0,0,0,.81c0,0.37,0,.76,0,1.15s0,0.78,0,1.15a7.15,7.15,0,0,0,.06,1.33,7.7,7.7,0,0,0,.24,1.14,2.56,2.56,0,0,1,.14.43,0.34,0.34,0,0,1,.13.18,2.53,2.53,0,0,1,.3,1.23V46l0.13,0.12v0.43l0.07,0.12a0.4,0.4,0,0,1,.26.17A0.2,0.2,0,0,0,153,47V46.84c0.09,0.16.21,0.15,0.37,0a0.35,0.35,0,0,0,.2.33,0.8,0.8,0,0,1,.32.27,1.87,1.87,0,0,0,.13.21,0.46,0.46,0,0,0,.25.14h0.06a1.93,1.93,0,0,1,.55-0.15h0.25a0.35,0.35,0,0,0,.18-0.13l0.43,0,0.43-.14,0.43-.14h0.19a0.51,0.51,0,0,0,.3-0.2,4.25,4.25,0,0,1,.88-0.53,6.05,6.05,0,0,0,.94-0.54,0.38,0.38,0,0,1,.15-0.1,0.11,0.11,0,0,0,.09-0.1c0-.08,0-0.12-0.07-0.12a0.05,0.05,0,0,1-.06-0.06l0.12-.13a0.32,0.32,0,0,1,.31-0.08,0.17,0.17,0,0,1,.09-0.07,0.18,0.18,0,0,0,.09-0.07s0-.06-0.1-0.06-0.07,0,0-.12a0.84,0.84,0,0,0,.61-0.28,1,1,0,0,0,.23-0.38,0.69,0.69,0,0,0,.36-0.26,0.51,0.51,0,0,0,.17-0.32q1-.92,2.09-1.77T165,40.24a0.33,0.33,0,0,1,.12-0.16,0.49,0.49,0,0,0,.12-0.1,0.17,0.17,0,0,0,.06-0.1,0.17,0.17,0,0,1,.06-0.09l0.12-.13a4,4,0,0,1,.35-0.45l0.36-.39,0.53-.58a2.89,2.89,0,0,0,.41-0.58,7.18,7.18,0,0,1,.91-1.16,11,11,0,0,0,1-1.16,1.53,1.53,0,0,0,.51-0.36,2.68,2.68,0,0,0,.38-0.54s0,0-.06,0-0.06,0-.06,0a0.13,0.13,0,0,1,.1,0,0.13,0.13,0,0,0,.09,0,0.18,0.18,0,0,0-.1-0.06,0.16,0.16,0,0,1-.1-0.06,1.72,1.72,0,0,0-.34,0,1.4,1.4,0,0,1-.28,0,0.77,0.77,0,0,1-.09-0.52,1.35,1.35,0,0,1,.17-0.47c-0.29,0-.42-0.08-0.38-0.29a7.74,7.74,0,0,0-.87.69l-0.75.68-0.77.75q-0.36.36-.71,0.75a6.44,6.44,0,0,0-.78.72,6.43,6.43,0,0,1-.77.72l-0.78.69q-0.42.36-.84,0.69-0.84.72-1.65,1.34t-1.65,1.34q-0.36.33-.78,0.66t-0.9.66l-0.21.13-0.21.13-0.35.39a4.41,4.41,0,0,0-.32.42,0.51,0.51,0,0,1-.52.24c-0.17,0-.25,0-0.25-0.11s0.07,0,.09,0a0.1,0.1,0,0,0,.1.06,2.5,2.5,0,0,1-.09-0.68c0-.08,0-0.19,0-0.31a0.68,0.68,0,0,1,0-.31,0.34,0.34,0,0,1,.12-0.19,0.31,0.31,0,0,1,.08-0.34,0.24,0.24,0,0,0,0-.34l0.18-.19V41.36a1.71,1.71,0,0,1,.14-0.35,1.66,1.66,0,0,0,.14-0.35,2.35,2.35,0,0,0,.13-0.56,1,1,0,0,1,.19-0.51,1.11,1.11,0,0,1,.12-0.81A1.27,1.27,0,0,0,157.2,38V37.85a1.06,1.06,0,0,1,.11-0.32q0.16-.57.32-1.16a10.4,10.4,0,0,0,.25-1.28A3.36,3.36,0,0,0,158,34.4a3.23,3.23,0,0,1,.16-0.69,1.13,1.13,0,0,0,.11-0.32,1.6,1.6,0,0,0,.1-0.59,1.58,1.58,0,0,1,.1-0.59,0.18,0.18,0,0,1,.06-0.13,0.71,0.71,0,0,0,.12-0.19l0.11-.38,0.15-.75a2.13,2.13,0,0,1,.31-0.67,1.12,1.12,0,0,0,.18-0.72V29.19a0.41,0.41,0,0,1,0-.19,0.44,0.44,0,0,0,0-.19,0.68,0.68,0,0,1,0-.22,0.7,0.7,0,0,0,0-.22l0-.93q0.1-.5.16-0.69a2.78,2.78,0,0,0,.08-0.34,2.84,2.84,0,0,1,.08-0.35q0.33-.94.63-1.89a17.32,17.32,0,0,0,.5-2,1.92,1.92,0,0,0,.52-0.08l0.46-.14a0.06,0.06,0,0,1,.06-0.06,0.06,0.06,0,0,0,.06-0.06,0.32,0.32,0,0,0,.31,0,1.09,1.09,0,0,1,.3-0.17s0-.05.06,0,0.06,0,.06,0a0.22,0.22,0,0,0-.19,0,0.4,0.4,0,0,1-.18,0,0.48,0.48,0,0,1-.31,0,0.6,0.6,0,0,1,.43-0.14,1.22,1.22,0,0,0,.55-0.15,0.1,0.1,0,0,0,.09-0.07,0.1,0.1,0,0,1,.09-0.07l0.43,0s0.06,0,.06,0,0,0,.06,0,0.06,0,.06,0,0,0,.06,0a1.18,1.18,0,0,1,.62-0.12,0.44,0.44,0,0,0,.48-0.3,0.47,0.47,0,0,0,.5.16V20.61s0.05,0,0,.06,0,0.06,0,.06,0.06-.06.05-0.19c0.08,0,.13,0,0.12,0a0.18,0.18,0,0,1,.12-0.16,1.08,1.08,0,0,1,.44,0c0.25,0,.48,0,0.71-0.06a1.63,1.63,0,0,0,.58-0.18,1.87,1.87,0,0,0-.74.06,2.12,2.12,0,0,1-.8.07,0.27,0.27,0,0,1-.13,0,0.27,0.27,0,0,0-.12,0l-0.12.07a0.14,0.14,0,0,1-.16-0.09,0.14,0.14,0,0,0-.16-0.09,0.05,0.05,0,0,0-.06.07H165c0-.13.16-0.17,0.37-0.14a0.38,0.38,0,0,0,.43-0.14,0.17,0.17,0,0,0,.22.05,0.38,0.38,0,0,1,.21-0.07V19.77c0.25,0,.49,0,0.74-0.06a6.06,6.06,0,0,0,.68-0.12h0.25a1.1,1.1,0,0,0,.49-0.14h-0.19V19.31a0.43,0.43,0,0,0-.28,0,0.42,0.42,0,0,1-.28,0,0.12,0.12,0,0,1-.09,0,0.14,0.14,0,0,0-.09,0,0.35,0.35,0,0,0-.25,0,1,1,0,0,1-.25,0s-0.05,0,0,0,0,0,0,0a21.49,21.49,0,0,0-2.61,0q-1.36.09-2.66,0.21a1.32,1.32,0,0,1,.23-0.51s0-.06,0-0.06,0,0,0-.06a3.8,3.8,0,0,0,.3-1,6.35,6.35,0,0,1,.24-1q0.16-.5.3-1t0.3-1c0.14-.5.27-1,0.37-1.51a16.18,16.18,0,0,0,.24-1.62,1.9,1.9,0,0,0,0-.56,0.62,0.62,0,0,0,.05-0.28,0.62,0.62,0,0,1,.05-0.28,0.27,0.27,0,0,1,0-.12,0.27,0.27,0,0,0,0-.12,6.21,6.21,0,0,0,0-1.43,6.71,6.71,0,0,1,0-1.49,0.43,0.43,0,0,1,0-.19,0.42,0.42,0,0,0,0-.19,1.1,1.1,0,0,0-.14-0.3,0.78,0.78,0,0,0-.1-0.15,0.63,0.63,0,0,1-.1-0.15,2,2,0,0,1-.23-0.24A2.39,2.39,0,0,0,163.06,6a0.76,0.76,0,0,1-.2-0.3,0.4,0.4,0,0,0-.32-0.23h-0.12l-0.19-.18a0.74,0.74,0,0,0-.51-0.35h-0.19a1.63,1.63,0,0,0-.58.27M133.51,38.91a13.68,13.68,0,0,0,.13-1.4l0.21-.88A6.28,6.28,0,0,0,134,35.7a0.42,0.42,0,0,0,.23-0.41,3,3,0,0,1,0-.59,0.85,0.85,0,0,0,0-.56,3.22,3.22,0,0,0,.19-0.6,6,6,0,0,1,.19-0.66q0.1-.44.24-0.88c0.09-.29.17-0.59,0.24-0.88h0a2.26,2.26,0,0,0-.11.31c0,0.13-.06.23-0.08,0.31s0,0.06,0-.06a0.51,0.51,0,0,0,.17-0.32c0.07-.21.14-0.42,0.19-0.63a1.85,1.85,0,0,1,.31-0.63,2.44,2.44,0,0,1,.3-0.88,6.49,6.49,0,0,1,.44-0.61,3,3,0,0,0,.4-0.67,3.2,3.2,0,0,0,.2-1.13,1.49,1.49,0,0,0-.08-0.4,0.47,0.47,0,0,1,0-.34,0.25,0.25,0,0,1,.05-0.19,0.18,0.18,0,0,0,.06-0.13,4.63,4.63,0,0,0-.15-1.39q-0.19-.71-0.34-1.32a0.31,0.31,0,0,1-.14-0.37,6.78,6.78,0,0,0-1-1.23,1.78,1.78,0,0,0-1.42-.53,0.34,0.34,0,0,0-.31-0.08,0.76,0.76,0,0,1-.37,0L133,21a1,1,0,0,0-.36.26,0.13,0.13,0,0,1,0,.09,0.13,0.13,0,0,0,0,.1,2.08,2.08,0,0,0-.47.58l-0.35.63L131,24.78q-0.3.88-.55,1.7T130,28.21q-0.24.91-.55,2.29-0.4,2.19-.73,4.59a32.16,32.16,0,0,0-.28,5,15.54,15.54,0,0,0,.28,3,5.72,5.72,0,0,0,1,2.38L130,45.68a0.45,0.45,0,0,1,.17.36,3,3,0,0,0,.62.72l0.74,0.59c0.29,0,.56,0,0.81,0a2.31,2.31,0,0,0,.8-0.13,1.85,1.85,0,0,1,.6-0.46,1.92,1.92,0,0,0,.6-0.46,27.21,27.21,0,0,0,2.33-3.45,0.25,0.25,0,0,1,0-.16,0.68,0.68,0,0,0,.09-0.16,0.6,0.6,0,0,0,.23-0.38,0.55,0.55,0,0,1,.29-0.39,23.65,23.65,0,0,1,1.11-2.19l1.24-2.13a0.3,0.3,0,0,1,.08-0.22,0.17,0.17,0,0,0,0-.22,0.52,0.52,0,0,0,.21-0.26,1.21,1.21,0,0,1,.2-0.32,0.13,0.13,0,0,1,0-.09,0.24,0.24,0,0,0,0-.16s0.06-.05.06,0,0,0,.06,0A6.47,6.47,0,0,1,141,34q0.49-.89,1-1.78-0.17,1.75-.35,4a12.58,12.58,0,0,0,.41,4.39,2.24,2.24,0,0,0,.32.85,3.34,3.34,0,0,1,.38.85c0.09,0.24.2,0.51,0.31,0.79a7.07,7.07,0,0,0,.38.79,1.05,1.05,0,0,0,.64.5,4.15,4.15,0,0,1,.76.31,1.35,1.35,0,0,0,1.21,0,7,7,0,0,0,1.31-.52,1.73,1.73,0,0,0,.78-0.72,1.74,1.74,0,0,1,.65-0.71c0-.08,0-0.09.12,0s0.17,0.07.13,0a3,3,0,0,0,.23-0.35c0.12-.19.23-0.39,0.35-0.61s0.21-.4.29-0.57a0.44,0.44,0,0,1,.18-0.26l-0.28.63a4.12,4.12,0,0,1-.23.44c-0.08.13-.12,0.17-0.12,0.13a5,5,0,0,0,.71-0.81q0.23-.35.43-0.7l0.43-.73q0.23-.38.64-1a1.64,1.64,0,0,1,.29-0.45l0.65-.84,0.65-.83a1.66,1.66,0,0,0,.29-0.45,0.5,0.5,0,0,1,.11-0.38,1.39,1.39,0,0,1,.27-0.23,1.34,1.34,0,0,0,.24-0.2,0.48,0.48,0,0,0,.08-0.35,0.4,0.4,0,0,0,.13-0.53c-0.11-.14,0-0.32.19-0.54-0.17-.07-0.23-0.15-0.2-0.24a0.44,0.44,0,0,0-.08-0.37,0.59,0.59,0,0,1-.26.32l-0.46.21a0.8,0.8,0,0,0,.18-0.26l-0.24.26a4.2,4.2,0,0,1-.42.39,0.77,0.77,0,0,1-.36.2,4.71,4.71,0,0,0-.41.51,1.24,1.24,0,0,1-.42.39,0.48,0.48,0,0,1,.11-0.38,0.61,0.61,0,0,1,.17-0.32,0.75,0.75,0,0,1-.17.38q-0.18.26-.38,0.51l-0.38.48a0.59,0.59,0,0,1-.24.23,8.07,8.07,0,0,1-.7,1,4.31,4.31,0,0,1-.83.87,2.24,2.24,0,0,0-.44.52c-0.18.26-.3,0.45-0.38,0.57a8.92,8.92,0,0,0-.72.59,8.39,8.39,0,0,1-.72.59,3.55,3.55,0,0,0-.45.45,0.41,0.41,0,0,1-.18.16l-0.28.07a3.15,3.15,0,0,0-.61.24,4.32,4.32,0,0,0-.27-1.2,1.69,1.69,0,0,1-.14-1q0-1,.1-1.9t0.17-1.78a0.83,0.83,0,0,1,.15-0.22,0.25,0.25,0,0,0,.09-0.16,1.25,1.25,0,0,1,0-.56,1.83,1.83,0,0,0,.09-0.69,3.42,3.42,0,0,1,0-.68l0.11-.25a0.69,0.69,0,0,0,0-.31,13.12,13.12,0,0,1,.3-1.75,6.51,6.51,0,0,0,.17-1.81,3.55,3.55,0,0,1,.13-0.56,1.4,1.4,0,0,0,.07-0.5,5.65,5.65,0,0,0,.11-0.94,2.07,2.07,0,0,0-.13-0.8,1.6,1.6,0,0,0,.13-0.56,6.12,6.12,0,0,0,0-.62,0.13,0.13,0,0,0-.12.16c0,0.1,0,.14-0.12.1a0.93,0.93,0,0,1,.23-0.44,0.37,0.37,0,0,1-.26-0.24q-0.08-.31-0.15-0.55a4.56,4.56,0,0,0-.21-0.55c-0.12,0-.17,0-0.13-0.12a0.3,0.3,0,0,1-.44-0.23q-0.14-.37-0.21-0.61c-0.07.21-.16,0.29-0.27,0.23a1.8,1.8,0,0,0-.35-0.14,0.78,0.78,0,0,0-.55.27,1.89,1.89,0,0,0-.52,1c-0.11.42-.21,0.86-0.32,1.32A16,16,0,0,0,142,27l-1.38,1.74a3.32,3.32,0,0,0-.47.64,1.42,1.42,0,0,1-.47.52,1.51,1.51,0,0,1-.28.69,1.87,1.87,0,0,1-.44.55,1.23,1.23,0,0,0-.37.67,1.61,1.61,0,0,0-.38.45c-0.1.17-.18,0.34-0.26,0.51q-0.93,1.47-1.73,3a30.75,30.75,0,0,1-1.68,2.77c-0.19.34-.39,0.66-0.58,1a6.3,6.3,0,0,1-.65.84q0.09-.75.19-1.4m-9-4.91a11.27,11.27,0,0,1,.16-1.4q0.12-.72.2-1.72a0.08,0.08,0,0,0,.12,0,0.08,0.08,0,0,1,.12,0Zm-2.28,1.16a3.73,3.73,0,0,1-.29,1.07q-0.23.51-.46,1t-0.52,1a8.44,8.44,0,0,0-.26,1,2.16,2.16,0,0,1-.39.92,1,1,0,0,0-.24.2l-0.24.26c-0.08,0-.12.06-0.12,0s0,0-.06,0a0.06,0.06,0,0,1-.07-0.06,3.69,3.69,0,0,1-.77.93,7.62,7.62,0,0,0-.89.94,3.45,3.45,0,0,1-1,.54c-0.33.1-.74,0.2-1.23,0.3l-0.95.29a1.54,1.54,0,0,1-1.09-.14,4.08,4.08,0,0,1-.56-0.66,4.58,4.58,0,0,1-.43-0.73V41.72a3.52,3.52,0,0,0-.14-0.4L112.36,41a0.68,0.68,0,0,1,0-.22,0.7,0.7,0,0,0,0-.22,4.16,4.16,0,0,0-.05-0.49,4.49,4.49,0,0,1-.06-0.56,2.3,2.3,0,0,0,.11-1,1.92,1.92,0,0,1,.11-0.9,3.92,3.92,0,0,0,0-.75,5.19,5.19,0,0,1,.5-1.33q0.35-.63.69-1.33l0.64-1a5.54,5.54,0,0,0,.57-1.17l0.24-.26a0.72,0.72,0,0,0,.1-0.5,1,1,0,0,0,.68-0.65,7.76,7.76,0,0,1,.48-1,2.43,2.43,0,0,1,.29-0.38,2.49,2.49,0,0,0,.29-0.39,2.72,2.72,0,0,0,.25-0.63,1.77,1.77,0,0,1,.25-0.57,3.41,3.41,0,0,1,.71.74,2.85,2.85,0,0,0,.65.69,0.92,0.92,0,0,0,.64.41,0.5,0.5,0,0,0,.38.11l0.64,0.5a0.79,0.79,0,0,0,.69.19,4.92,4.92,0,0,0,.82.34,2.05,2.05,0,0,0,1,.08,1.44,1.44,0,0,1-.06.84,6.16,6.16,0,0,0-.31.79,8.6,8.6,0,0,0-.14,1,3.48,3.48,0,0,1-.21.91c0,0.21-.07.5-0.12,0.87m-1.33-10a2.46,2.46,0,0,1,.08.52l0.33,0.36a0.6,0.6,0,0,1,.17.33,1.47,1.47,0,0,0,.18.46,4.15,4.15,0,0,0,.33.39,1.79,1.79,0,0,1,.34.58V28A0.28,0.28,0,0,1,122,28l-0.32-.11a2.38,2.38,0,0,1-1-.61,5.17,5.17,0,0,1-.79-1,1.3,1.3,0,0,1,0-.84,0.86,0.86,0,0,1,.63-0.62,0.43,0.43,0,0,1,.39.32M133.3,26a0.54,0.54,0,0,0-.27.1l-0.36.26a0.52,0.52,0,0,1-.53.05,2.44,2.44,0,0,1-.94.57q-0.64.25-1.68,0.6a2,2,0,0,1-.74.19c-0.33,0-.68.06-1.05,0.08s-0.73,0-1.08,0h-0.9a0.92,0.92,0,0,1-.28,0,0.73,0.73,0,0,0-.34,0,0.6,0.6,0,0,1-.16-0.21,0.14,0.14,0,0,0-.16-0.09,1.39,1.39,0,0,0-.15-0.61,0.7,0.7,0,0,1-.08-0.31,0.42,0.42,0,0,0-.14-0.3q0.08,0.31.18,0.64a2.47,2.47,0,0,1,.12.65,0.25,0.25,0,0,1-.26-0.21,1.33,1.33,0,0,1-.08-0.34c-0.09-.24-0.19-0.5-0.28-0.76a3.29,3.29,0,0,0-.34-0.7,0.67,0.67,0,0,1-.49-0.51,5.09,5.09,0,0,0-.25-0.7,2.65,2.65,0,0,0-.3-0.51,1,1,0,0,1-.18-0.58l-0.45-.29a0.17,0.17,0,0,0,.05-0.22,0.3,0.3,0,0,1-.07-0.15,0.37,0.37,0,0,1-.31-0.08,0.21,0.21,0,0,0-.19-0.08,0.31,0.31,0,0,1,0,.49,0.2,0.2,0,0,1-.25,0,0.21,0.21,0,0,0-.19-0.08,0.18,0.18,0,0,0-.12.16c0,0.06,0,.1-0.12.1a0.56,0.56,0,0,0-.66-0.16,0.85,0.85,0,0,1-.71,0,4.44,4.44,0,0,0-.57.58,0.52,0.52,0,0,1-.77.1,1.15,1.15,0,0,0-.2.32,0.27,0.27,0,0,1-.21.19,1.7,1.7,0,0,0-.13-0.86,2.88,2.88,0,0,0-.43-0.66,7.36,7.36,0,0,0-1.05-.64,1.29,1.29,0,0,0-1.33.06,0.05,0.05,0,0,1-.06.06H114.7a7.32,7.32,0,0,0-1.05.79l-1,.91a11,11,0,0,0-.91,1.13q-0.38.54-.85,1.25a23.51,23.51,0,0,0-2.73,4.93,16.17,16.17,0,0,0-1.25,6.11v0.06a5.47,5.47,0,0,1,0,.59,1.54,1.54,0,0,1-.13.53c0.1,0.33.18,0.65,0.26,1s0.14,0.66.2,1l0,0.43,0.26,0.24a23.21,23.21,0,0,1,.88,2.35,2.94,2.94,0,0,0,1.54,1.83,7.79,7.79,0,0,0,1.26,1.25,3.51,3.51,0,0,0,1.68.73,1.64,1.64,0,0,0,1,0,3.85,3.85,0,0,1,.92-0.16,0.13,0.13,0,0,1,.09,0,0.13,0.13,0,0,0,.09,0,2.5,2.5,0,0,0,1.47-.41,4.1,4.1,0,0,1,1.34-.59,2.79,2.79,0,0,1,.72-0.56,2.84,2.84,0,0,0,.72-0.56,1,1,0,0,1,.47-0.58,2,2,0,0,1,.3-0.26,1.14,1.14,0,0,0,.3-0.32l0.14-.32a3.51,3.51,0,0,1,.2-0.38,1.71,1.71,0,0,0,.25-0.6,5.9,5.9,0,0,1,.19-0.66,6,6,0,0,1,.67-1.05,6.08,6.08,0,0,0,.67-1.05,4.63,4.63,0,0,0,.18-0.75,4.81,4.81,0,0,1,.24-0.88v0.12a0.05,0.05,0,0,1-.06.06c0.12-.21.21-0.38,0.29-0.51a1.39,1.39,0,0,0,.17-0.44,2.62,2.62,0,0,0,.45-1.08c0-.08,0-0.13,0-0.12s0,0,0-.12a4.54,4.54,0,0,1,.33-1.07,10.58,10.58,0,0,0,.39-1,2,2,0,0,1-.15.72,1.18,1.18,0,0,0-.1.59,13.08,13.08,0,0,0,.59-2.17q0.15-.9.39-2.34,0.31,0,1.17-.11a16.52,16.52,0,0,0,2-.37,15.84,15.84,0,0,0,2.23-.72,6.93,6.93,0,0,0,2-1.17,0.33,0.33,0,0,1,.18-0.25A0.94,0.94,0,0,0,133,27.8a1.8,1.8,0,0,0,.62-0.83,0.5,0.5,0,0,0-.12-0.62c-0.05-.25-0.12-0.37-0.2-0.36m-69,18.12a0.75,0.75,0,0,0-.47,0,1.81,1.81,0,0,1-.1-0.8,5.44,5.44,0,0,0,0-.87,0.44,0.44,0,0,0,0-.5V41.62h0.06l0.06-.13a3.32,3.32,0,0,0,.39-1.1q0.1-.59.25-1.28a1.17,1.17,0,0,0,.1-0.53c0-.19,0-0.34,0-0.46h0.19A0.05,0.05,0,0,0,64.88,38a2.05,2.05,0,0,0,0-.5,1.8,1.8,0,0,1,0-.62,0.28,0.28,0,0,1,.15-0.16,0.37,0.37,0,0,0,.15-0.1,1.07,1.07,0,0,0,.1-0.44l0.35-.54a1,1,0,0,0,.23-0.54H66a2.3,2.3,0,0,0,.46-0.89l0.39-1.07a2.88,2.88,0,0,0,.38-0.48,2.38,2.38,0,0,1,.44-0.49q0.12-.19.41-0.58a1.21,1.21,0,0,1,.54-0.46A1.48,1.48,0,0,0,69,30.5,0.72,0.72,0,0,1,69.43,30a4.47,4.47,0,0,0,.45-0.42,3.13,3.13,0,0,1,.63-0.49L70.94,29a2.47,2.47,0,0,1,.68,0,1.25,1.25,0,0,1,.33.45,0.81,0.81,0,0,0,.39.45l0,0.56a0.72,0.72,0,0,1-.06.65,0.65,0.65,0,0,0,0,.71c-0.31.51-.52,0.87-0.64,1.08a5.7,5.7,0,0,0-.28.6,6.92,6.92,0,0,1-.31.67q-0.2.38-.66,1.15a2.74,2.74,0,0,1-.46.8,2.7,2.7,0,0,0-.46.8c-0.19.3-.35,0.52-0.47,0.67s-0.23.3-.32,0.45a0.76,0.76,0,0,0-.14.29c-0.16.21-.26,0.35-0.32,0.42a1.21,1.21,0,0,0-.15.19,1.33,1.33,0,0,0-.11.25,3.66,3.66,0,0,1-.23.48,1.39,1.39,0,0,0-.47.64,6.69,6.69,0,0,0-.35.57l-0.37.76-0.37.76L65.84,43a0.91,0.91,0,0,1-.27.29,2.92,2.92,0,0,0-.33.26c-0.12.11-.28,0.27-0.48,0.49a0.51,0.51,0,0,1-.46.05m13.23-14.7a2,2,0,0,1-.11.38l-0.07-.12A4.14,4.14,0,0,1,77,28.25a8,8,0,0,0-.19-1.42,0.67,0.67,0,0,1,0-.22,0.7,0.7,0,0,0,0-.22l0-.49-0.08-1.8c0-.21,0-0.45,0-0.74s0-.58,0-0.87a2.07,2.07,0,0,0,.1-0.62l-0.14-.24a3.5,3.5,0,0,0,.08-1,4.53,4.53,0,0,1,0-.84,1.5,1.5,0,0,1,0-.62q0-.5.1-1.31T77,16.77l0.05-.25a7.44,7.44,0,0,0,.23-1.13c0-.37.1-0.73,0.17-1.06a5.77,5.77,0,0,1,.27-0.85A5.89,5.89,0,0,0,78,12.63a0.18,0.18,0,0,0,.06-0.13,0.18,0.18,0,0,1,.12-0.13,0.5,0.5,0,0,1,0-.31s0-.06.09-0.07,0.09,0,.09-0.13q0.37-1.38.81-2.77a11.63,11.63,0,0,1,1.13-2.53,2.58,2.58,0,0,1,.94-1.22,3,3,0,0,1,.35-0.45,1.28,1.28,0,0,0,.49-0.08,0.62,0.62,0,0,0,.37-0.11A0.74,0.74,0,0,1,83,4.6a0.5,0.5,0,0,1,.07.21,1,1,0,0,0,.07.28A10,10,0,0,0,83,6.24a3.78,3.78,0,0,1-.26,1.16,0.42,0.42,0,0,1,0,.19,0.27,0.27,0,0,0,0,.13,1.78,1.78,0,0,1,0,.34,1.64,1.64,0,0,0,0,.34V8.58a0.7,0.7,0,0,1-.05.22,0.75,0.75,0,0,0,0,.28,2.12,2.12,0,0,0-.18.81,5.65,5.65,0,0,1-.11.94,1.57,1.57,0,0,1-.13.66,1.58,1.58,0,0,0-.13.66v0.31l0,0.37a1,1,0,0,0,0,.28,1.05,1.05,0,0,1,0,.28l-0.11.25a8.73,8.73,0,0,0-.4,1.41q-0.23,1-.49,2.26T80.43,19.7q-0.23,1.16-.36,1.75C80,21.85,80,22,80,21.79L80.35,20V20.1a1,1,0,0,0-.11.38q-0.28.76-.5,1.45t-0.38,1.32a0.36,0.36,0,0,0-.11.25v0.43a0.11,0.11,0,0,0-.12.13l0,0.37c0,0.13-.08.26-0.14,0.41a2.55,2.55,0,0,1-.2.41v0.06a0.18,0.18,0,0,1-.06.13,0.11,0.11,0,0,1-.12.13v0.25a10.42,10.42,0,0,0-.44,1.32q-0.16.63-.38,1.32s-0.06.06-.18,0.07a0.17,0.17,0,0,0,.07.12,0.19,0.19,0,0,1,.07.12,0.18,0.18,0,0,1-.06.13,0.18,0.18,0,0,0-.06.13,0.78,0.78,0,0,0-.17.38M82.75,1.85H82a0.25,0.25,0,0,0-.18.07,0.36,0.36,0,0,0-.25.07,1,1,0,0,1-.25,0A1.28,1.28,0,0,0,81,2a0.42,0.42,0,0,0-.18,0l-0.18.1-0.12.13a0.2,0.2,0,0,0-.18.13,0.13,0.13,0,0,0-.09,0,0.24,0.24,0,0,1-.15,0A0.18,0.18,0,0,1,80,2.5H79.9a0.37,0.37,0,0,0-.24.26l-0.12.13a0.25,0.25,0,0,1-.18.07,0.57,0.57,0,0,0-.36.3,1.65,1.65,0,0,1-.23.35,1.93,1.93,0,0,1-.37.7L77.83,5a1.39,1.39,0,0,0-.17.41,0.77,0.77,0,0,1-.17.35,1,1,0,0,1,0,.25,1,1,0,0,0,0,.25c-0.08.17-.14,0.31-0.2,0.41s-0.12.24-.2,0.41,0,0.17,0,.25a0.25,0.25,0,0,1-.05.19,0.56,0.56,0,0,0-.16.5,0.25,0.25,0,0,0-.05.19V8.53a0.18,0.18,0,0,1-.06.13,1,1,0,0,0-.16.5,1,1,0,0,0-.14.35,0.44,0.44,0,0,1-.08.22,1.47,1.47,0,0,0-.21.29c-0.06.11-.11,0.2-0.14,0.29a3.18,3.18,0,0,0-.12.69,4.1,4.1,0,0,1-.07.56,1,1,0,0,0-.11.44,0.18,0.18,0,0,0-.06.13v0.12q-0.16.69-.28,1.35c-0.08.44-.16,0.89-0.22,1.34a2,2,0,0,0,0,.5l0,0.43c-0.07.33-.12,0.56-0.16,0.69a3.29,3.29,0,0,1,0,.37c0,0.17,0,.34,0,0.53a4.06,4.06,0,0,0,0,.47c0,0.12,0,.16.07,0.12a0.25,0.25,0,0,1,0,.16,0.73,0.73,0,0,0-.08.22,4.73,4.73,0,0,0,0,.87,0.33,0.33,0,0,0-.08.31,3.15,3.15,0,0,1,.05.5l-0.09.72a4.28,4.28,0,0,0,0,.78,0.19,0.19,0,0,1,.07.12,0.25,0.25,0,0,1,0,.16,0.24,0.24,0,0,0,0,.16,2.74,2.74,0,0,0-.09.75l0,0.56a2.67,2.67,0,0,1,.08.49l0,0.37a1.84,1.84,0,0,0,0,.68v0.19a2.63,2.63,0,0,0,0,1.49v0.12a0.05,0.05,0,0,1-.06.06v0.19q-0.06.13-.08-0.4c0-.35,0-0.74-0.05-1.18s0-.83-0.05-1.18,0-.5-0.08-0.46a2.08,2.08,0,0,1,.12.71l0.12,1.39q0.06,0.74.12,2l0.19,4.4q0-.19-0.13-0.9a14.34,14.34,0,0,0-.34-1.47q-0.22-.76-0.46-1.41a1.68,1.68,0,0,0-.44-0.76,0.27,0.27,0,0,1-.22-0.18,0.53,0.53,0,0,0-.23-0.24,0.61,0.61,0,0,0-.14-0.43l-0.38-.11-1-.23a1.93,1.93,0,0,0-1,0,1.39,1.39,0,0,0-.61.15,2.35,2.35,0,0,1-.49.21,1.53,1.53,0,0,1-.36.2,1.59,1.59,0,0,0-.36.2,0.18,0.18,0,0,1-.06.13v0.12a2,2,0,0,0-.64.37,0.85,0.85,0,0,1-.39.24,2.25,2.25,0,0,0-.45.33,4.45,4.45,0,0,1-.39.33,1.45,1.45,0,0,1-.38.51L65.83,30c-0.24.22-.46,0.43-0.65,0.65L64.82,31a3.78,3.78,0,0,0-.5.64l-0.26.45-0.26.42a3.88,3.88,0,0,1-.56.61q-0.93,1.47-1.79,3a14.3,14.3,0,0,0-1.34,3.44c0,0.21-.07.43-0.13,0.66a5.82,5.82,0,0,1-.19.66c0,0.25,0,.51,0,0.78s0,0.55-.06.84l0,0.87a4.67,4.67,0,0,0,0,1.3q0.09,0.62.24,1.23a0.62,0.62,0,0,1,.14.33v0.22a6.24,6.24,0,0,1,.37.63,1.57,1.57,0,0,1,.18.64v0.06a0.13,0.13,0,0,0,0,.09,0.13,0.13,0,0,1,0,.09c0,0.08.07,0.12,0.19,0.12l0.23,0.21a0.3,0.3,0,0,1,.1.21,1,1,0,0,0,.58.47,0.54,0.54,0,0,0,.23.21,0.27,0.27,0,0,1,.17.21h0.25a0.72,0.72,0,0,0,.41.11,1,1,0,0,1,.47.1,0.28,0.28,0,0,1,.13,0,0.91,0.91,0,0,0,.31,0,1.64,1.64,0,0,0,.74-0.22l0.68,0a1.08,1.08,0,0,1,.43-0.08,1,1,0,0,0,.52-0.24,2.15,2.15,0,0,1,.33-0.29l0.42-.3a6.19,6.19,0,0,0,.54-0.43c0.12-.13.25-0.26,0.39-0.39a1.24,1.24,0,0,1,.39-0.26V47.32a0.05,0.05,0,0,1,.06-0.07s0,0,.12-0.07a1.1,1.1,0,0,1,.3-0.32A0.54,0.54,0,0,1,69,46.42a6.53,6.53,0,0,0,.5-0.61l0.44-.61a9.24,9.24,0,0,1,1.17-1.73V43.35a0.06,0.06,0,0,1,.06-0.06,0.17,0.17,0,0,1,.09-0.07,0.17,0.17,0,0,0,.09-0.07,0.35,0.35,0,0,0,.24-0.26V42.71H71.6l0.12-.13a3,3,0,0,0,.67-1q0.25-.57.54-1.08a0.39,0.39,0,0,0,.18-0.22A0.89,0.89,0,0,1,73.4,40a1.19,1.19,0,0,0,.29-0.57,0.1,0.1,0,0,1,.06-0.1,0.39,0.39,0,0,0,.11-0.22,0.53,0.53,0,0,0,.2-0.32,0.76,0.76,0,0,1,.26-0.38,0.18,0.18,0,0,1,.06-0.13A0.71,0.71,0,0,0,74.5,38V38a0.25,0.25,0,0,1,.05-0.19,0.27,0.27,0,0,1,.18-0.23,0.41,0.41,0,0,0,.17-0.41l0.34,0.61c0.12,0,.16.06,0.11,0.31s-0.08.29-.09,0.13,0.12,0,.13.09l0,0.37a1.83,1.83,0,0,0,0,.37,0.16,0.16,0,0,0,.16.15,20.16,20.16,0,0,0,.58,6.31,2.48,2.48,0,0,1,.18.52,2.31,2.31,0,0,0,.18.52,1.3,1.3,0,0,0,.32.23,3.2,3.2,0,0,1,.2.3L77.2,47.3a2,2,0,0,0,.13.21,1.27,1.27,0,0,1,.14.27,0.44,0.44,0,0,1,.26.36,4.23,4.23,0,0,0,.27.51l0.27,0.45a0.49,0.49,0,0,1,.35.23,0.52,0.52,0,0,0,.23.24,1.43,1.43,0,0,0,.21.55,1.71,1.71,0,0,1,.65,0,1.74,1.74,0,0,0,.65,0V50a1.38,1.38,0,0,0,1-.2,3.25,3.25,0,0,1,.85-0.44q0.42-.21.79-0.34a1.31,1.31,0,0,0,.6-0.46c0.08,0,.12,0,0.12-0.07a0.57,0.57,0,0,0-.39.23A0.58,0.58,0,0,1,83,49l0.48-.42q0.18-.16.48-0.49a0.72,0.72,0,0,1,.29-0.35,2.79,2.79,0,0,1,.36-0.17s0-.06,0-0.06a0.8,0.8,0,0,0,.17-0.38v0.06a0.05,0.05,0,0,0,.07.06,0.67,0.67,0,0,1,.36-0.36,0.67,0.67,0,0,0,.35-0.42q0.18-.13.84-0.75t1.37-1.36c0.47-.49.92-1,1.33-1.42A8.68,8.68,0,0,0,89.81,42H89.69s-0.07-.06-0.07-0.18h0.18a7.62,7.62,0,0,1,.53-0.64,2.32,2.32,0,0,1,.54-0.46V40.62a0.18,0.18,0,0,1,.06-0.13L91,40.36a0.27,0.27,0,0,1,.18-0.1,0.29,0.29,0,0,1-.09.13L91,40.52l0.15-.1q0.3-.32.85-1.06l0.91-1.19C93.05,38,93.09,38,93.05,38a1,1,0,0,0-.39.36,1.92,1.92,0,0,1-.45.42,0.08,0.08,0,0,1,0-.12,0.66,0.66,0,0,0-.39.39,0.31,0.31,0,0,1-.27.26l-0.12.07a0.21,0.21,0,0,0-.18.19,4.64,4.64,0,0,1-.49.21,1,1,0,0,0,.47-0.49,2.34,2.34,0,0,1,.35-0.54l-0.07-.06c0-.08.06-0.13,0.18-0.13,0-.08,0-0.13,0-0.16a0.16,0.16,0,0,0,.06-0.16V38.16L91.81,38,92,37.78a0.18,0.18,0,0,0-.06.1,0.27,0.27,0,0,0,.18-0.1,1.46,1.46,0,0,1,.35-0.57A2.56,2.56,0,0,1,93,36.68l0.21-.23a0.48,0.48,0,0,1,.34-0.11l0.12-.13a0.72,0.72,0,0,0,.18-0.13s-0.06,0-.06,0a0.47,0.47,0,0,1-.43.08,1.63,1.63,0,0,0-.08-0.49,1,1,0,0,1-.08-0.31L92.62,36l-0.56.61a0.44,0.44,0,0,1-.42.33,4,4,0,0,0-.87.78q-0.44.52-.88,1.09L89,39.92c-0.27.36-.53,0.67-0.77,0.93a5,5,0,0,0-.87.72c-0.3.3-.58,0.61-0.86,0.94s-0.5.6-.68,0.84a1.48,1.48,0,0,0-.26.42q-0.9.72-1.08,0.92l-0.24.26a2.43,2.43,0,0,1-.27.23q-0.21.17-1.11,0.76s-0.06,0-.19,0l-0.43.17-0.46.17c-0.14,0-.22,0-0.22,0-0.12.13-.22,0.15-0.31,0.08a0.78,0.78,0,0,1-.2-0.36,1.55,1.55,0,0,1,.2-1.19c0.08-.09.1-0.14,0.06-0.16a0.16,0.16,0,0,1-.07-0.15l0.19-1.25q0.1-.62.2-1.19a12.48,12.48,0,0,0,.09-1.4,8.41,8.41,0,0,1,.1-1.28,4.07,4.07,0,0,1,.26-1.07,4,4,0,0,0,.27-1V37l0.11-.32A4.24,4.24,0,0,0,82.6,36c0-.33.06-0.69,0.11-1.06s0.09-.73.14-1.06a4.32,4.32,0,0,0,.06-0.68,1.06,1.06,0,0,1,0-.25,1,1,0,0,0,0-.25,1.86,1.86,0,0,0,.39-1,8.64,8.64,0,0,0,.41-2,7.46,7.46,0,0,1,.41-1.91,2.46,2.46,0,0,1,.2-1.13,1.11,1.11,0,0,1,.11-0.31q0.44-1.32.78-2.76T86,20.72l0-.37a10.42,10.42,0,0,1,.29-1.13q0.24-.82.47-1.91T87.27,15q0.26-1.19.43-2.25a11.62,11.62,0,0,0,.17-1.84,1.42,1.42,0,0,0-.26-1l0.06-.13a0.18,0.18,0,0,1,.06-0.13V9.36a16.94,16.94,0,0,0-.42-2.46,8.86,8.86,0,0,0-.84-2.2l-0.07-.12a0.45,0.45,0,0,0-.2-0.3,0.92,0.92,0,0,1-.26-0.17,2.3,2.3,0,0,0-.29-0.33,0.87,0.87,0,0,1-.24-0.45A0.53,0.53,0,0,1,85.23,3a0.55,0.55,0,0,0-.17-0.27,1,1,0,0,0-.52-0.47,3.87,3.87,0,0,1-.76-0.46h-1M43.19,25.45a0.7,0.7,0,0,0-.31.08,0.35,0.35,0,0,0-.18.13,1.42,1.42,0,0,1-.55.27c-0.07.21-.15,0.41-0.22,0.6s-0.15.39-.22,0.6-0.08.18-.11,0.28-0.07.2-.11,0.28a0.55,0.55,0,0,0-.14.32,1.15,1.15,0,0,1-.08.31,1.81,1.81,0,0,0-.09.69,2.33,2.33,0,0,1-.09.75c0,0.21-.06.43-0.1,0.66s-0.06.47-.09,0.72q-0.41,2-.79,4t-0.72,4.07a3.37,3.37,0,0,0-.09.75A4.69,4.69,0,0,1,39.22,41l-0.2,1-0.19,1.37-0.19,1.37q-0.09.69-.18,1.44t-0.12,1.49l0,0.68a4.52,4.52,0,0,0,.24,1.29,0.65,0.65,0,0,1,.27.42,0.44,0.44,0,0,0,.39.35,0.18,0.18,0,0,0,.06-0.13,0.17,0.17,0,0,1,.06-0.13s0.05,0,0,.09,0,0.09,0,.09,0,0,0-.06,0-.06,0-0.06l0.38,0.17a0.12,0.12,0,0,1,.18-0.07,0.55,0.55,0,0,0,.25.05h0.06a1.38,1.38,0,0,0,.3-0.29A1.1,1.1,0,0,1,41,49.87l0.06,0.06a0.06,0.06,0,0,0,.07.06,0.25,0.25,0,0,0,.15,0,0.16,0.16,0,0,1,.16,0,1,1,0,0,1,0-.43,2.17,2.17,0,0,1,.07-0.44c0.08-.17.13-0.23,0.18-0.19L41.74,49a0.16,0.16,0,0,1,.18-0.19A0.28,0.28,0,0,1,42,49a0.65,0.65,0,0,0,0,.22l0.17-.38s0-.05-0.06,0-0.06,0-.06,0l0.15-.13a0.2,0.2,0,0,0,0-.25,0.13,0.13,0,0,0,0,.09s0,0,0,0a0.14,0.14,0,0,0,0-.16,0.14,0.14,0,0,1,0-.16q0.13,0.06.1,0.12a0.21,0.21,0,0,0,0,.18s0,0,.11-0.19l0-.37,0.12-.13,0-.37h0.25a7,7,0,0,1,.67-1.64,0.35,0.35,0,0,0,.12-0.19V45.23L43.73,45a0.36,0.36,0,0,1,.12-0.19,2.19,2.19,0,0,0,0-.62,6.72,6.72,0,0,0,.52-0.8q0.23-.41.46-0.86A0.48,0.48,0,0,0,45,42.38,0.48,0.48,0,0,1,45,42.25l0.06-.07,0.53-.77A2.75,2.75,0,0,0,46,40.47H46l0.12-.13a7.34,7.34,0,0,1,.93-1.47,11.79,11.79,0,0,0,1-1.41h0.06a0.78,0.78,0,0,0,.17-0.32,0.37,0.37,0,0,1,.24-0.26q0.29-.45.55-0.89t0.55-.89a4.58,4.58,0,0,0,.58-0.83,7.79,7.79,0,0,1,.68-0.77q0.39-.39.74-0.72a1.66,1.66,0,0,0,.42-0.33l0.35-.39a4.49,4.49,0,0,0,.65-0.74,7.72,7.72,0,0,1,.65-0.8,7.32,7.32,0,0,0,.79-0.31l0.79-.38c-0.11.38-.23,0.74-0.36,1.1s-0.25.75-.35,1.16a10.26,10.26,0,0,0-.26,1.16q-0.1.6-.26,1.22-0.39,1.07-.81,2.14t-0.74,2.14a10.65,10.65,0,0,0-.42,1.11A8.78,8.78,0,0,0,51.82,41l-0.13,1.31a9,9,0,0,1-.45,1.76A4.75,4.75,0,0,0,51,46a1.9,1.9,0,0,0,0,.68,3.47,3.47,0,0,0,.21.61,1.14,1.14,0,0,1,.11.31,1.11,1.11,0,0,0,.11.31,0.75,0.75,0,0,0,.07.28c0,0.1.09,0.19,0.14,0.27a10.49,10.49,0,0,0,1.78,1,2.26,2.26,0,0,1,.65-0.06,6.11,6.11,0,0,1,.66.06A3.75,3.75,0,0,0,56,49.28L56.82,49l0.8-.28a4.65,4.65,0,0,0,.49-0.21h0.19a0.05,0.05,0,0,0,.06-0.06,0.05,0.05,0,0,1,.06-0.07,0.13,0.13,0,0,0,.09,0,0.12,0.12,0,0,1,.09,0,1.3,1.3,0,0,1,.3-0.26,1.46,1.46,0,0,1,.48-0.33,9.06,9.06,0,0,1,.84-0.63,3.12,3.12,0,0,0,.65-0.8c0-.08,0-0.17.17-0.26l0.39-.3,0.39-.3,1.26-1q0.6-.46,1.2-1a0.27,0.27,0,0,1,.11-0.22A0.61,0.61,0,0,0,64.56,43l-1.34,1.21a8.26,8.26,0,0,1-1.53,1.09,2.81,2.81,0,0,1,.47-0.52,6.45,6.45,0,0,1,.54-0.4,0.92,0.92,0,0,1,.18-0.16,0.86,0.86,0,0,0,.18-0.16,0.5,0.5,0,0,0,.09-0.13,0.49,0.49,0,0,1,.09-0.13,7.24,7.24,0,0,0,.72-0.65s0-.06,0-0.06,0,0,0-.06,0.06,0,.06,0,0,0,.06,0l0.47-.64A2.06,2.06,0,0,1,65,41.81a0.78,0.78,0,0,1,.17-0.38,0.6,0.6,0,0,0,.1-0.44s0-.06,0-0.06,0,0,0-.06a0.22,0.22,0,0,1-.18,0,0.42,0.42,0,0,0-.19,0H64.59a2.29,2.29,0,0,0-.42.3,4.27,4.27,0,0,1-.36.3,0.49,0.49,0,0,1-.18.07,0.46,0.46,0,0,0-.18.07,0.71,0.71,0,0,0-.18.13,0.75,0.75,0,0,1-.18.13,0.51,0.51,0,0,1-.22.07,0.18,0.18,0,0,0-.15.13l-0.33.26-0.33.26a2.08,2.08,0,0,1-.66.49q-0.36.17-.73,0.37a0.36,0.36,0,0,0-.19-0.12,0.68,0.68,0,0,0-.33.35,0.5,0.5,0,0,1-.39.3c-0.2.17-.33,0.29-0.39,0.36a0.5,0.5,0,0,1-.18.13l-0.24.1a3.93,3.93,0,0,0-.45.27q-0.67.34-1.37,0.65a4.5,4.5,0,0,1-1.63.35A0.86,0.86,0,0,0,55,45.44a0.63,0.63,0,0,1-.4-0.63,0.48,0.48,0,0,1,0-.34,0.93,0.93,0,0,0,0-.34q0-.5.05-1a2.55,2.55,0,0,1,.12-0.78,0.35,0.35,0,0,1,.11-0.25A1.18,1.18,0,0,0,55,41.78a2.28,2.28,0,0,1,.08-0.41,1.47,1.47,0,0,1,.28-0.69H55.4q0.39-.89.7-1.8T56.73,37l0.3-.94c0.09-.29.19-0.59,0.3-0.88s0.26-.71.33-0.88a1.3,1.3,0,0,0,.08-0.25,1.16,1.16,0,0,1,.08-0.25,0.55,0.55,0,0,0,.05-0.25,0.54,0.54,0,0,1,.05-0.25,0.13,0.13,0,0,1,0-.09,0.13,0.13,0,0,0,0-.09,0.7,0.7,0,0,1,0-.31,0.55,0.55,0,0,0,.05-0.25,0.56,0.56,0,0,1,.05-0.25l0.11-.25a0.56,0.56,0,0,0,.05-0.25,0.54,0.54,0,0,1,.05-0.25,14.6,14.6,0,0,0,.25-2.74l0-.62a1.1,1.1,0,0,0,.1-0.5,0.27,0.27,0,0,0-.13-0.21,0.59,0.59,0,0,1-.19-0.21s-0.06-.06-0.07-0.18a0.49,0.49,0,0,1,0-.31,2,2,0,0,0,0-.31,0.84,0.84,0,0,0-.65-0.72,2.49,2.49,0,0,0-1.5-.24,4.1,4.1,0,0,0-1.44.43,11.73,11.73,0,0,0-1.12.67,0.82,0.82,0,0,1-.27.2A0.81,0.81,0,0,0,53,27a0.82,0.82,0,0,1-.27.2,0.83,0.83,0,0,0-.27.2q-0.59.65-1.15,1.29T50.16,30a0.94,0.94,0,0,1-.17.26l-0.15.1-0.15.1a1.12,1.12,0,0,0-.59.65c-0.11.21-.22,0.39-0.32,0.54a3.7,3.7,0,0,1-.38.48c-0.16.17-.31,0.32-0.45,0.45a2.75,2.75,0,0,0-.38.45c-0.12.17-.22,0.34-0.32,0.51a2.81,2.81,0,0,1-.38.51,2.94,2.94,0,0,0,0-.4,1.19,1.19,0,0,1,0-.47,0.44,0.44,0,0,1,0-.19,0.42,0.42,0,0,0,0-.19q0-.5.05-1t0.05-1l0-.43,0-.87a5.68,5.68,0,0,0-.1-1,1.29,1.29,0,0,0-.08-0.49,0.35,0.35,0,0,1-.13-0.24,0.22,0.22,0,0,1,0-.18,0.45,0.45,0,0,0,0-.19,0.55,0.55,0,0,1-.17-0.3,0.57,0.57,0,0,0-.17-0.3A2.43,2.43,0,0,0,46,26.26a1.14,1.14,0,0,0-.65-0.59,0.6,0.6,0,0,0-.26-0.18,0.62,0.62,0,0,0-.28,0,0.62,0.62,0,0,1-.28,0,2.25,2.25,0,0,1-.56,0l-0.37,0a1.18,1.18,0,0,1-.37.08M25.74,49.36a0.18,0.18,0,0,1,.07.12s-0.06,0-.07-0.12m5-21.44a4.39,4.39,0,0,1-.52.27,0.26,0.26,0,0,1-.18.07H29.78a0.22,0.22,0,0,1-.18.19,0.18,0.18,0,0,0-.12.07,1,1,0,0,0-.39.39,2.39,2.39,0,0,1-.32.45l-0.18.19a0.36,0.36,0,0,1-.05.25q-0.31,1.38-.72,2.64T27,35a2,2,0,0,0-.1.56c0,0.21-.07.4-0.1,0.56a2.49,2.49,0,0,1-.16.5,1.51,1.51,0,0,0-.14.47,2.37,2.37,0,0,1-.13.53q-0.22.75-.37,1.54t-0.3,1.66a3.1,3.1,0,0,0,0,.62l0,0.62a11,11,0,0,1,0,1.18c0,0.37-.07.77-0.14,1.19s-0.11.82-.13,1.22,0,0.8-.07,1.21l0,0.74a2.06,2.06,0,0,1,.08.49,2.06,2.06,0,0,0,.08.49,2,2,0,0,1,.08.49,0.76,0.76,0,0,0,.14.43,1.86,1.86,0,0,0,.43.73,1.92,1.92,0,0,1,.43.66,0.46,0.46,0,0,1,.07.18,0.18,0.18,0,0,0,.07.12,2.31,2.31,0,0,0,.47.72l0.23,0.21,0.23,0.21a1.34,1.34,0,0,0,.82.34H28.8a3.8,3.8,0,0,0,1.1-.36c0.08,0,.12,0,0.13,0s0,0,.06,0,0-.06.12-0.07a2.1,2.1,0,0,1,.6-0.34h0.31l0.15-.13a1.6,1.6,0,0,0,.21-0.2,17.35,17.35,0,0,0,2.1-1.7l1.91-1.82q0.18-.19.36-0.36a4.32,4.32,0,0,1,.36-0.29,0.86,0.86,0,0,1,.18-0.16,0.91,0.91,0,0,0,.18-0.16A0.92,0.92,0,0,0,37,46.82l0.18-.19a1.45,1.45,0,0,0,.23-0.38,1.91,1.91,0,0,0,.51-0.33c0.14-.13.27-0.26,0.39-0.39a0.18,0.18,0,0,0,.06-0.1,0.18,0.18,0,0,1,.06-0.1,5.64,5.64,0,0,1,.95-1l0.3-.29a1.63,1.63,0,0,0,.3-0.35,3.88,3.88,0,0,0,.53-0.74,6.65,6.65,0,0,1,.52-0.8,2.53,2.53,0,0,0,.23-0.38,2.34,2.34,0,0,1,.23-0.41,2.35,2.35,0,0,0,.23-0.41,0.34,0.34,0,0,1,.12-0.19c0.08-.17.11-0.23,0.12-0.19a0.49,0.49,0,0,0,0-.34,0.74,0.74,0,0,1-.08-0.28,0.13,0.13,0,0,1,0-.09,0.13,0.13,0,0,0,0-.1,6.51,6.51,0,0,1,.76-1,0.25,0.25,0,0,1,0-.31,0.5,0.5,0,0,0,.08-0.31,1.26,1.26,0,0,0-.74.13,2.42,2.42,0,0,1-.61.24H41.15a0.38,0.38,0,0,0-.21.07l-0.21.13a9.71,9.71,0,0,0-.89,1,5,5,0,0,1-1,.91,1.72,1.72,0,0,0-.36.33l-0.69.53a5.38,5.38,0,0,0-.63.59,3.75,3.75,0,0,0-.54.43c-0.16.15-.32,0.29-0.48,0.42l-0.3.32a5.64,5.64,0,0,1-1.07,1,11.86,11.86,0,0,0-1.14.92,7,7,0,0,1-.66.59c-0.08.09-.17,0.19-0.26,0.32a1.6,1.6,0,0,1-.33.33c-0.2.17-.4,0.34-0.6,0.49a2.47,2.47,0,0,1-.73.37,0.34,0.34,0,0,1-.18.13l-0.43,0-0.43,0a1.3,1.3,0,0,1,.16-1.25A2.17,2.17,0,0,0,30.7,45a0.36,0.36,0,0,0,0-.25,0.34,0.34,0,0,1,0-.25,0.24,0.24,0,0,1,0-.16,0.25,0.25,0,0,0,0-.16,9.9,9.9,0,0,1,.6-2q0.34-.76.79-1.83,0.22-.57.42-1.14a6.88,6.88,0,0,0,.29-1.25,1.11,1.11,0,0,0,.08-0.31A1.09,1.09,0,0,1,33,37.31L33.14,37a0.93,0.93,0,0,0,0-.34q0-.31.07-0.56a1,1,0,0,1,.14-0.44,1.08,1.08,0,0,1,.11-0.32,0.68,0.68,0,0,1,0-.31,2.05,2.05,0,0,1,.14-0.44,1,1,0,0,0,.07-0.44,0.1,0.1,0,0,0,0-.12,0.1,0.1,0,0,1,0-.12,0.18,0.18,0,0,1,.06-0.13,0.25,0.25,0,0,0,.05-0.19s0,0,.06-0.13,0-.12.06-0.13V33.17a0.06,0.06,0,0,1,.06-0.07V33a0.35,0.35,0,0,1,.12-0.19,0.17,0.17,0,0,0,.06-0.1,0.17,0.17,0,0,1,.06-0.09,0.79,0.79,0,0,0,0-.34c0-.14,0-0.28,0-0.4a2.32,2.32,0,0,0-.5-1.53,0.59,0.59,0,0,0-.2-0.24,0.69,0.69,0,0,1-.07-0.31,1.21,1.21,0,0,0-.08-0.37c-0.05-.25-0.09-0.47-0.12-0.68a0.91,0.91,0,0,0-.3-0.54,1.52,1.52,0,0,0-.51-0.35,2.61,2.61,0,0,1-.43,0l-0.5-.07-0.37,0a1,1,0,0,0-.52.15m2.62-2.47a0.09,0.09,0,0,1,.09-0.13,1.05,1.05,0,0,0,.36-0.17A0.41,0.41,0,0,1,34,25a6.55,6.55,0,0,0,.57-0.37,1.58,1.58,0,0,0,.45-0.42,4.05,4.05,0,0,0,.38-1.32,4.63,4.63,0,0,0,.14-1.71,3.12,3.12,0,0,0-.41-1.5,3.3,3.3,0,0,0-.64-0.47q-0.32-.17-0.7-0.34a3.08,3.08,0,0,1-.74.19,5.69,5.69,0,0,0-.86.19c0,0.17,0,.25-0.11.25A3.87,3.87,0,0,0,30.7,21a2.87,2.87,0,0,0-.41,2,1.15,1.15,0,0,0,.18.61,1.71,1.71,0,0,1,.24.61,1.61,1.61,0,0,0,.25.7,1.43,1.43,0,0,1,.24.58h0.25a0.56,0.56,0,0,0,.14-0.26A0.29,0.29,0,0,1,31.81,25a0.42,0.42,0,0,1,.14.3,0.65,0.65,0,0,0,.14.37c0.08,0,.13-0.08.14-0.22a0.48,0.48,0,0,1,.2-0.35,0.38,0.38,0,0,1,.41.26,0.49,0.49,0,0,0,.42.32,0.26,0.26,0,0,0,.08-0.25M11.11,10.06q-0.89.32-1.87,0.61,0.85-.41,1.71-0.73a10.11,10.11,0,0,1,1.9-.49l-1.74.6m1.43,0.77a0.62,0.62,0,0,0-.05.28,0.6,0.6,0,0,1-.05.28s0,0.06,0,.06,0,0,0,.13v0.19a2,2,0,0,1-.1.44,2.44,2.44,0,0,0-.11.31,6.07,6.07,0,0,0-.24,1,3.31,3.31,0,0,1-.24.88,2.62,2.62,0,0,1-.13.53,3.07,3.07,0,0,0-.13.47l0,0.43a0.79,0.79,0,0,1-.05.28c0,0.1-.07.2-0.11,0.28q-0.09.69-.13,1.31c0,0.42,0,.81-0.07,1.18a0.51,0.51,0,0,0-.17.32q-0.09.87-.11,1.71t-0.11,1.71a11.32,11.32,0,0,1-.26,1.13,2.48,2.48,0,0,0,0,1.24,2.83,2.83,0,0,0-.14,1,4.91,4.91,0,0,1-.08,1.06,0.38,0.38,0,0,1-.05.22,0.38,0.38,0,0,0-.05.22,1.89,1.89,0,0,0,0,.59,1.23,1.23,0,0,1-.07.59,1.57,1.57,0,0,0-.1.59,4,4,0,0,1,0,.65,15.25,15.25,0,0,1-.21,2.31q-0.2,1.19-.46,2.19-0.09.69-.18,1.5a13.65,13.65,0,0,1-.24,1.5l-0.11.25a0.69,0.69,0,0,0,0,.31q-0.15.75-.24,1.56L8.21,41.19Q8.08,42.25,8,42.69c-0.07.29-.13,0.55-0.18,0.78l-0.18.78q-0.11.44-.25,1.44a38.72,38.72,0,0,0-.57,3.87q-0.14,1-.35,1.94a15.09,15.09,0,0,0-.29,1.88,25.16,25.16,0,0,0-.26,2.56q-0.07,1.31-.09,2.3a3.39,3.39,0,0,0,0,.74c0,0.16.07,0.35,0.12,0.55a0.28,0.28,0,0,1,0,.22,0.14,0.14,0,0,0,0,.15C6,60,6.07,60,6.09,60s0,0,0,.06v0.19a1.63,1.63,0,0,0,.22.18,0.2,0.2,0,0,1,.1.18,0.41,0.41,0,0,1,0,.28,1.49,1.49,0,0,0,0,.28,1,1,0,0,0,.2.24,0.2,0.2,0,0,1,.07.25,1,1,0,0,0,.26.17,2,2,0,0,0,.38.11,1.11,1.11,0,0,0,.3-0.32,0.9,0.9,0,0,1,.42-0.33,3.33,3.33,0,0,0,.16-0.72q0-.41.36-0.3A0.4,0.4,0,0,1,9,60.7a1.66,1.66,0,0,0,.13.74,0.18,0.18,0,0,0,.08-0.22,0.42,0.42,0,0,1,0-.28,0.18,0.18,0,0,1,.15-0.13c0.06,0,.09,0,0.09-0.13a0.39,0.39,0,0,0,.11-0.28,0.62,0.62,0,0,1,.11-0.35,1.45,1.45,0,0,1,.5-0.61,1.11,1.11,0,0,0,.44-0.67,0.22,0.22,0,0,1,.18,0,0.19,0.19,0,0,0,.18-0.1,0.75,0.75,0,0,1,.13-0.5,1,1,0,0,0,.13-0.63q0.28-.57.54-1.2a6.85,6.85,0,0,0,.35-1.13c0-.08,0-0.1.09-0.07s0.07,0,0-.06a0.4,0.4,0,0,1,.08-0.25,1.74,1.74,0,0,0,.14-0.26,20.89,20.89,0,0,0,1-3.3q0.36-1.72.65-3.47,0.15-.75.2-1c0-.19.07-0.35,0.1-0.5l0.13-.53c0.05-.21.11-0.54,0.17-1a12.75,12.75,0,0,1,.43-1.48,8.38,8.38,0,0,0,.37-1.48,0.67,0.67,0,0,0,0-.34,0.42,0.42,0,0,1,0-.28,0.91,0.91,0,0,1,.1-0.47,1,1,0,0,0,.1-0.53q0.1-.5.18-0.94c0.05-.29.11-0.6,0.18-0.94a6.21,6.21,0,0,1,.26-1.1,4,4,0,0,0,.2-1.09,4.1,4.1,0,0,1,.79-0.38,0.51,0.51,0,0,1,.31,0,1.17,1.17,0,0,0,.38.08A3,3,0,0,0,19,35.57q0.85-.35,1.7-0.76l1.58-.75a2.49,2.49,0,0,1,.92-0.35A8.46,8.46,0,0,1,25.23,33q1-.2,2.28-0.38l0.43-.14a0.56,0.56,0,0,0,.36-0.33A1.13,1.13,0,0,0,27.67,32a0.58,0.58,0,0,1-.51-0.38,0.49,0.49,0,0,1,.09-0.81,0.42,0.42,0,0,1,.36-0.2A0.4,0.4,0,0,0,28,30.33a6.8,6.8,0,0,1-1.11.08,5.38,5.38,0,0,0-1,.07,28.64,28.64,0,0,0-3.87.79l-1,.36-0.4.11-0.43.08a9.53,9.53,0,0,0-1,.26,7.7,7.7,0,0,0-.95.35,0.77,0.77,0,0,1-.84-0.09,14.05,14.05,0,0,1,.37-2.84,13.82,13.82,0,0,0,.38-2.72A10.75,10.75,0,0,0,18.59,23a2.63,2.63,0,0,0,.23-1,5.48,5.48,0,0,1,.11-1,3.43,3.43,0,0,1,.16-0.63,3.46,3.46,0,0,0,.16-0.63,9.05,9.05,0,0,1,.26-1.25q0.16-.57.32-1.25C19.9,17,20,16.8,20,16.59A2.14,2.14,0,0,0,20.08,16a8.29,8.29,0,0,0,0-1,4.18,4.18,0,0,1,.08-1,4.16,4.16,0,0,1,.22-0.54,0.74,0.74,0,0,0,0-.53,0.5,0.5,0,0,0,.14-0.44,0.85,0.85,0,0,1,.07-0.5l0.08-.19,0.09-.19a5.42,5.42,0,0,0,0-1.55,2,2,0,0,0-.45-1.16,0.17,0.17,0,0,0,0-.25,0.32,0.32,0,0,1,0-.31,22.86,22.86,0,0,1,7.43-1.75c0-.08,0-0.11-0.07-0.09s0,0,.06-0.1a23.86,23.86,0,0,1,3.16,0l3.23,0.14a2.73,2.73,0,0,0,1.08-.14,2.38,2.38,0,0,1,1.14-.08,1.08,1.08,0,0,1,.58-0.12A2.2,2.2,0,0,0,37.58,6c0.08,0,.1,0,0.06-0.13s0-.08.06,0a2.51,2.51,0,0,1,.68,0L38.73,6,39,6.14a1.56,1.56,0,0,0,.53,0C39.41,6.11,39.37,6,39.48,6a1.69,1.69,0,0,1,.4-0.11l0.4-.08c0.1,0,.07-0.07-0.1-0.15l-0.23-.3A0.62,0.62,0,0,1,39.84,5a0.37,0.37,0,0,0-.24-0.49q-0.35-.17-0.17-0.37-0.68,0-1.34-.1a11.18,11.18,0,0,1-1.15-.17q-0.81-.09-1.62-0.12t-1.62-.12a35.25,35.25,0,0,0-6.64-.08A31.25,31.25,0,0,0,23.6,4q-1.66.32-3.13,0.7c-0.33.1-.64,0.2-0.95,0.32s-0.62.22-.95,0.32a1,1,0,0,1-.71,0,7.09,7.09,0,0,0-.66-0.28A1.06,1.06,0,0,0,16.72,5a0.71,0.71,0,0,1-.41-0.11,2,2,0,0,0-1.64.88c-0.08.09-.12,0.11-0.12,0.07a1.35,1.35,0,0,0-.45.45,6.15,6.15,0,0,1-.38.58q-1.11.24-2.3,0.6T9,8.23Q7.85,8.62,6.59,9a15.3,15.3,0,0,1-2.49.45,4.24,4.24,0,0,1-.69,0,0.78,0.78,0,0,0-.55.09,0.3,0.3,0,0,0-.08.28,0.65,0.65,0,0,1-.07.41,0.39,0.39,0,0,1,.17.33,0.46,0.46,0,0,0,.11.34,1.25,1.25,0,0,0,1,.52,4.41,4.41,0,0,0,1.28.22,5.45,5.45,0,0,0,1.26-.15A14.18,14.18,0,0,0,9,10.84l2.23-.75L12,9.84a1.42,1.42,0,0,1,.78,0,2.33,2.33,0,0,1-.76.37l-0.89.26q-1.41.5-2.91,0.9a15.15,15.15,0,0,1-3.3.49,8.16,8.16,0,0,0,2.14-.12q1-.2,1.93-0.46t1.8-.58a11.06,11.06,0,0,1,1.87-.49c-0.07.25-.13,0.46-0.16,0.63" transform="translate(-2.7 -1.83)"/></svg>