<svg id="Layer_1" data-name="Layer 1" xmlns="http://www.w3.org/2000/svg" viewBox="0 0 256.45 60.02"><defs><style>.cls-1{fill:#082432;}</style></defs><title>ContactUs</title><path class="cls-1" d="M254.73,39.51c0-.06,0-0.09.09-0.1a0.28,0.28,0,0,0,.24-0.1,0.21,0.21,0,0,1,.18-0.1q0.24-.14.55-0.27a0.75,0.75,0,0,0,.41-0.45,2.09,2.09,0,0,1,.2-0.44,1.66,1.66,0,0,0,.19-0.57,5.32,5.32,0,0,0,.08-1.59,2.83,2.83,0,0,0-.4-1.38,2.87,2.87,0,0,0-.52-0.47,3.41,3.41,0,0,0-.7-0.34,2.64,2.64,0,0,1-.62.09,1.81,1.81,0,0,0-.68.15c0,0.12,0,.19-0.12.19a2.82,2.82,0,0,0-1.29,1.14,2.6,2.6,0,0,0-.32,1.84,1.34,1.34,0,0,0,.11.52,2.62,2.62,0,0,1,.18.52,2,2,0,0,0,.24.64,2.06,2.06,0,0,1,.24.58h0.25a0.35,0.35,0,0,1,.24-0.26,0.33,0.33,0,0,1,.2.24,0.36,0.36,0,0,0,.14.24,0.18,0.18,0,0,0,.15-0.19,0.17,0.17,0,0,1,.15-0.19,0.29,0.29,0,0,1,.32.2,0.42,0.42,0,0,0,.38.26,0.13,0.13,0,0,0,.09-0.16M248,39.8c0-.06,0-0.09.09-0.1a0.28,0.28,0,0,0,.24-0.1,0.21,0.21,0,0,1,.18-0.1q0.24-.14.55-0.27a0.75,0.75,0,0,0,.41-0.45,2.14,2.14,0,0,1,.2-0.44,1.66,1.66,0,0,0,.19-0.57,5.35,5.35,0,0,0,.09-1.59,2.84,2.84,0,0,0-.4-1.38,2.84,2.84,0,0,0-.52-0.47,3.41,3.41,0,0,0-.7-0.34,2.64,2.64,0,0,1-.62.09,1.81,1.81,0,0,0-.68.15c0,0.12,0,.19-0.12.19a2.81,2.81,0,0,0-1.28,1.14,2.6,2.6,0,0,0-.32,1.84,1.32,1.32,0,0,0,.12.52,2.69,2.69,0,0,1,.18.52,2,2,0,0,0,.25.64,2.09,2.09,0,0,1,.24.58h0.25a0.35,0.35,0,0,1,.24-0.26,0.33,0.33,0,0,1,.2.24,0.35,0.35,0,0,0,.13.24,0.18,0.18,0,0,0,.15-0.19,0.17,0.17,0,0,1,.15-0.19,0.29,0.29,0,0,1,.32.2A0.43,0.43,0,0,0,248,40,0.13,0.13,0,0,0,248,39.8m-6.69.29c0-.06,0-0.09.09-0.1a0.28,0.28,0,0,0,.24-0.1,0.21,0.21,0,0,1,.18-0.1q0.24-.14.55-0.27a0.76,0.76,0,0,0,.42-0.45,2.08,2.08,0,0,1,.2-0.44,1.66,1.66,0,0,0,.19-0.57,5.36,5.36,0,0,0,.09-1.59,2.84,2.84,0,0,0-.4-1.38,2.83,2.83,0,0,0-.52-0.47,3.37,3.37,0,0,0-.7-0.34,2.65,2.65,0,0,1-.62.09,1.81,1.81,0,0,0-.68.15c0,0.12,0,.19-0.12.19A2.82,2.82,0,0,0,239,35.85a2.6,2.6,0,0,0-.32,1.84,1.34,1.34,0,0,0,.12.52,2.75,2.75,0,0,1,.18.52,2,2,0,0,0,.24.64,2,2,0,0,1,.24.58h0.25a0.35,0.35,0,0,1,.24-0.26,0.33,0.33,0,0,1,.2.24,0.35,0.35,0,0,0,.13.24,0.17,0.17,0,0,0,.15-0.19,0.17,0.17,0,0,1,.15-0.19,0.29,0.29,0,0,1,.32.2,0.43,0.43,0,0,0,.38.26,0.13,0.13,0,0,0,.09-0.16M230.27,23.39c0,0.18.11,0.38,0.18,0.58s0.14,0.4.21,0.58,0.13,0.25.16,0.21a4.34,4.34,0,0,1-.28.72,6.32,6.32,0,0,0-.28.66,0.3,0.3,0,0,1-.2.29,0.68,0.68,0,0,0-.32.42l-0.29.45a2.12,2.12,0,0,1-.23.32c-0.16.17-.35,0.36-0.57,0.55a2.52,2.52,0,0,1-.63.43c-0.35.47-.69,0.88-1,1.22a7,7,0,0,1-1,.91q-0.89,1-1.84,2a2,2,0,0,1,.44-0.67,5.84,5.84,0,0,0,.75-2,4.55,4.55,0,0,1,.33-0.92,5.64,5.64,0,0,0,.33-0.85,2.77,2.77,0,0,0,1.09-1.38,7,7,0,0,1,.89-1.68,0.33,0.33,0,0,1,.18-0.26,0.36,0.36,0,0,0,.18-0.19,8.68,8.68,0,0,1,.83-0.9,3.69,3.69,0,0,1,1.15-.73l-0.19-.05a0.36,0.36,0,0,1,.14.27m-4,10s0.06,0,.06,0a0.87,0.87,0,0,0,.51-0.36,1.21,1.21,0,0,1,.63-0.43,0.49,0.49,0,0,1,.18-0.07l0.43-.2,0.36-.2a0.71,0.71,0,0,0,.19.12,1,1,0,0,0,.48-0.45,0.56,0.56,0,0,1,.48-0.33,1.55,1.55,0,0,0,.39-0.3l0.38-.42a0.6,0.6,0,0,0,.4-0.11c0.06-.07.17-0.2,0.32-0.42s0.53-.56.89-0.91a4.79,4.79,0,0,0,.88-1.16,4.69,4.69,0,0,0,.4-0.85,5.1,5.1,0,0,1,.34-0.79l0.11-.31a3.29,3.29,0,0,0,.15-0.81q0-.5.14-1.06a0.56,0.56,0,0,0,.07-0.41,0.38,0.38,0,0,1,.08-0.34,1.22,1.22,0,0,0-.1-1A2,2,0,0,0,234,21.8c-0.07-.26-0.16-0.54-0.25-0.83a2.93,2.93,0,0,1-.72-0.87,5.49,5.49,0,0,0-.73-1c0.08-.13.1-0.19,0.05-0.19s-0.06,0-.07-0.12a1.78,1.78,0,0,1-.58-0.53,0.74,0.74,0,0,0-.51-0.35,0.42,0.42,0,0,0-.31-0.11,0.34,0.34,0,0,1-.13-0.18,5.06,5.06,0,0,1-.75-0.12,1.33,1.33,0,0,0-.74.06,2.33,2.33,0,0,0-.92.23,0.79,0.79,0,0,1-.39.39c-0.18.09-.4,0.18-0.64,0.28a0.25,0.25,0,0,1,.07.18,4.23,4.23,0,0,0-.84.75q-0.35.42-.77,0.87a12.77,12.77,0,0,0-.84,1.31,7.48,7.48,0,0,0-.64,1.61q-1.34,2-2.52,4a27.34,27.34,0,0,0-2.07,4.5,2,2,0,0,0-.43.73,4,4,0,0,1-.37.79l-0.48,1.91a11.49,11.49,0,0,0-.29,2c0,0.45,0,.77.07,1s0.06,0.34.08,0.46a2.64,2.64,0,0,0,.11.37,2.82,2.82,0,0,1,.09.74q0.34,0.79.68,1.46a3,3,0,0,0,1,1.13,0.14,0.14,0,0,1-.09.16c-0.06,0,0,.07,0,0.15a0.17,0.17,0,0,1,.25,0,0.22,0.22,0,0,0,.25,0c0,0.08,0,.13-0.06.13s-0.06,0-.06.13a0.91,0.91,0,0,1,.78.06,0.88,0.88,0,0,0,.66.13,1.26,1.26,0,0,0,1.08-.14,1.61,1.61,0,0,1,1.07-.26l0.37,0a0.51,0.51,0,0,0,.37-0.14,0.31,0.31,0,0,1,.31-0.08,0.52,0.52,0,0,1,.37,0c0.28-.14.55-0.25,0.79-0.34a2.33,2.33,0,0,1,.74-0.16q0.91-.41,1.67-0.79t1.61-.85l0.78-.59,1.26-1q0.66-.53,1.29-1t0.87-.66a5.71,5.71,0,0,1,1.16-1.11,3.57,3.57,0,0,0,1-1.22,1.28,1.28,0,0,1,.39-0.3,1.31,1.31,0,0,0,.45-0.42q0.47-.7.91-1.28l1-1.28a0.7,0.7,0,0,0-.17-0.27c-0.06-.06,0-0.15.08-0.28s0-.08-0.07-0.12a0.12,0.12,0,0,1-.07-0.18c-0.16.09-.18,0.17-0.05,0.25s0.13,0,0-.19a2.31,2.31,0,0,1-.56,0V30.38c-0.17-.16-0.26-0.17-0.25-0.05q-0.47.52-.92,0.94a7.72,7.72,0,0,1-.93.75L234.8,33.4q-0.12.13-.63,0.56a14.26,14.26,0,0,1-1.14.86l-1.17.83a3.16,3.16,0,0,1-.79.47,19.21,19.21,0,0,0-2.37,1.16,11.35,11.35,0,0,1-2.5,1,7.91,7.91,0,0,0-1.16.42,6.68,6.68,0,0,1-1.28.43,0.9,0.9,0,0,0-.47,0,0.47,0.47,0,0,1-.34,0,2.24,2.24,0,0,0-.72-0.09,0.35,0.35,0,0,1-.36-0.42,0.91,0.91,0,0,1,0-.59,2.16,2.16,0,0,0,.25-0.6,3.33,3.33,0,0,1,.36-1,2.6,2.6,0,0,0,.3-1,1.53,1.53,0,0,0,.46-0.92,0.83,0.83,0,0,1,.59-0.74,0.28,0.28,0,0,0,.25,0l0.31,0s0,0.07,0,.09,0,0,0,0c0.17,0.16.3,0.18,0.38,0.08a0.33,0.33,0,0,1,.24-0.17,0.74,0.74,0,0,1,.56.1Zm-17.86,7.11a0.18,0.18,0,0,1,.06-0.13c0,0.08,0,.13-0.06.13v0ZM202.65,20.9a1.23,1.23,0,0,1,.39-0.33,1.14,1.14,0,0,1,.64.34,0.72,0.72,0,0,1,.27.49,0.35,0.35,0,0,1-.11.25,7.61,7.61,0,0,0-.14,1.09,8,8,0,0,1-.14,1.09,4.13,4.13,0,0,1-1.6.38,1.65,1.65,0,0,1-.75-0.15,0.59,0.59,0,0,1-.2-0.24,0.68,0.68,0,0,1,.23-0.44,0.18,0.18,0,0,0,.06-0.1,0.17,0.17,0,0,1,.06-0.1,0.36,0.36,0,0,0,.12-0.19,4,4,0,0,1,.23-0.44,4.22,4.22,0,0,0,.23-0.44,3.81,3.81,0,0,1,.46-0.83,4,4,0,0,1,.26-0.38m8.26,23.47h0.31a1.05,1.05,0,0,1,.31-0.14,0.13,0.13,0,0,1,.09,0,0.12,0.12,0,0,0,.09,0,1.38,1.38,0,0,0,.61-0.15l0.49-.27a1.93,1.93,0,0,0,.51-0.33l0.45-.39A0.54,0.54,0,0,1,214,43a0.55,0.55,0,0,0,.27-0.17,2.57,2.57,0,0,0,.69-0.62,2.5,2.5,0,0,1,.69-0.62,1.16,1.16,0,0,1,.41-0.55,1.14,1.14,0,0,0,.41-0.61L218,39a14.23,14.23,0,0,0,1.39-1.55,2.44,2.44,0,0,1,.42-0.36,1,1,0,0,0,.35-0.42,0.29,0.29,0,0,1,0-.13,0.28,0.28,0,0,0,0-.12,3,3,0,0,1,.42-0.39,3.06,3.06,0,0,1,.42-0.39,4.46,4.46,0,0,1,.26-0.38c0.1-.13.18-0.23,0.26-0.32l0.24-.26a0.21,0.21,0,0,1,.09-0.13,0.18,0.18,0,0,0,.09-0.07,0.69,0.69,0,0,0,0-.31c0-.08,0-0.12,0-0.12s0,0,0-.06a0.25,0.25,0,0,1,.05-0.19,0.91,0.91,0,0,1,.23-0.44c-0.13-.12-0.19-0.16-0.19-0.11a0.18,0.18,0,0,1,.06-0.13,0.25,0.25,0,0,0,.05-0.19,3.24,3.24,0,0,1,.17-0.44l-0.22-.11a0.39,0.39,0,0,0-.22-0.05h-0.19a0.43,0.43,0,0,0-.43.14,2.47,2.47,0,0,1-.36.33q-0.42.39-.8,0.78t-0.74.78l-1.64,1.53q-0.81.75-1.64,1.47a0.33,0.33,0,0,0-.15.13,0.33,0.33,0,0,1-.15.13l-0.15.1-0.15.1a9.64,9.64,0,0,0-1.17,1,9.61,9.61,0,0,1-1.17,1,1.16,1.16,0,0,1-.3.23,2.67,2.67,0,0,1-.36.17,0.21,0.21,0,0,1-.26-0.21,0.77,0.77,0,0,1,0-.34,0.24,0.24,0,0,1,0-.16,0.12,0.12,0,0,0,0-.09,0.35,0.35,0,0,0,.11-0.25,0.63,0.63,0,0,0,.05-0.28,0.6,0.6,0,0,1,.05-0.28l0.09-.75a5.33,5.33,0,0,0,0-.87,0.24,0.24,0,0,0,0-.15,0.24,0.24,0,0,1,0-.15s0-.06,0-0.06,0,0,0-.06a0.55,0.55,0,0,0,.05-0.16,0.59,0.59,0,0,1,.06-0.16,0.18,0.18,0,0,1,.06-0.13l0-.37a4.88,4.88,0,0,1,.17-1c0.09-.31.17-0.64,0.24-1a0.69,0.69,0,0,1,0-.31,0.24,0.24,0,0,1,0-.16,0.13,0.13,0,0,0,0-.1,0.55,0.55,0,0,0,.05-0.25,1.08,1.08,0,0,0,.11-0.32,0.5,0.5,0,0,0,.05-0.22,0.51,0.51,0,0,1,.05-0.22,0.5,0.5,0,0,0,.05-0.22,0.51,0.51,0,0,1,.05-0.22,1,1,0,0,0,.1-0.44,0.55,0.55,0,0,0,.05-0.25,0.54,0.54,0,0,1,.05-0.25L214,30.4a9.81,9.81,0,0,0,.47-1.29,9.58,9.58,0,0,1,.47-1.29,0.35,0.35,0,0,0,.11-0.25,0.54,0.54,0,0,0,.05-0.16,0.59,0.59,0,0,1,.06-0.16c0.07-.17.14-0.33,0.2-0.47a3.12,3.12,0,0,0,.13-0.47s0-.07,0-0.1,0-.05,0-0.09a0.35,0.35,0,0,1,.12-0.19,0.54,0.54,0,0,0,.14-0.29,1,1,0,0,1,.14-0.35A0.69,0.69,0,0,1,216,25.1a0.74,0.74,0,0,0,.12-0.19,2.45,2.45,0,0,0,.22-0.69,0.35,0.35,0,0,0,0-.25,0.34,0.34,0,0,1,0-.25,0.18,0.18,0,0,1,.06-0.13,0.25,0.25,0,0,0,.05-0.19,2.41,2.41,0,0,0,.07-1.34A2,2,0,0,0,216,21l-0.13-.06a0.13,0.13,0,0,0,0-.09,0.12,0.12,0,0,1,0-.09,7.21,7.21,0,0,0-1.16-1.07,3.72,3.72,0,0,0-.51-0.35,1.26,1.26,0,0,0-.68,0,3.36,3.36,0,0,0-.67.22l-0.55.24L211.7,20q-1.34.62-2.64,1.26l-2.64,1.32a3.89,3.89,0,0,1-.52.24,4.89,4.89,0,0,1-.58.18q0-.31.1-0.53a5.35,5.35,0,0,1,.16-0.53l0-.43a1,1,0,0,0,.14-0.38,0.93,0.93,0,0,1,.14-0.38,0.65,0.65,0,0,1,0-.22,0.7,0.7,0,0,0,0-.22,0.6,0.6,0,0,0,.1-0.44l-0.13-.12a0.85,0.85,0,0,0,0-.77,2.62,2.62,0,0,0-.46-0.57,2.47,2.47,0,0,0-.54-0.38,2,2,0,0,1-.48-0.32,0.15,0.15,0,0,1-.25,0H204a0.18,0.18,0,0,0-.12.13,0.18,0.18,0,0,1-.06.13,8.22,8.22,0,0,1-1,.23,8.35,8.35,0,0,0-1,.23,1.63,1.63,0,0,0-.49.08,0.87,0.87,0,0,0-.37.08,4.39,4.39,0,0,0-.7.34,1.36,1.36,0,0,0-.51.52,6.83,6.83,0,0,0-1.1,1.91,2,2,0,0,0-.17.35,2,2,0,0,1-.17.35c0,0.17-.07.32-0.1,0.47a1.49,1.49,0,0,0,0,.41,1.41,1.41,0,0,0,0,.28,0.43,0.43,0,0,1,0,.28,0.13,0.13,0,0,1,0,.09,0.24,0.24,0,0,0,0,.16,1.88,1.88,0,0,0,.1.8,2.16,2.16,0,0,0,.15.68l0.19,0.18a0.57,0.57,0,0,1,.17.24,0.53,0.53,0,0,0,.17.24,0.92,0.92,0,0,0,.26.17,4.77,4.77,0,0,0,2.45.76,2.94,2.94,0,0,1-.4.82q-0.29.57-.6,1.14T200,30q-0.17.38-.37,0.79c-0.13.28-.26,0.54-0.37,0.79s-0.14.31-.2,0.41l-0.2.35a1.44,1.44,0,0,0-.23.38,0.71,0.71,0,0,1-.12.19,0.77,0.77,0,0,0-.12.19v0.12a0.26,0.26,0,0,0-.05.19,3.32,3.32,0,0,0-.2.38,3.51,3.51,0,0,1-.2.38,3.41,3.41,0,0,1-.25.57c-0.1.17-.18,0.34-0.26,0.51V35.4a0.28,0.28,0,0,1-.15.16,0.29,0.29,0,0,0-.15.16v0.06c0,0.08.13,0.06,0.24-.07a0.13,0.13,0,0,0,.09,0,0.24,0.24,0,0,1,.15,0,0.85,0.85,0,0,0,.19.77,0.54,0.54,0,0,0,.66.25,0.37,0.37,0,0,0,.3-0.26,1.4,1.4,0,0,0,.73-0.47l0.36-.26,0.36-.26c0.16-.17.31-0.32,0.45-0.45a1.25,1.25,0,0,0,.32-0.51A3.24,3.24,0,0,1,201.2,34a1,1,0,0,1,.17-0.26,1.58,1.58,0,0,0,.34-0.76s0.06-.07.05-0.19a0.17,0.17,0,0,1,.09-0.13,0.46,0.46,0,0,0,.15-0.19h0.12a0.36,0.36,0,0,1,.05-0.25,3.65,3.65,0,0,0,.35-0.51,1.71,1.71,0,0,0-.29.45,7.76,7.76,0,0,1,.68-1.58,1.23,1.23,0,0,0,.08-0.25,0.55,0.55,0,0,1,.14-0.25,2.3,2.3,0,0,1,.24-0.23,0.61,0.61,0,0,0,.18-0.22,1.29,1.29,0,0,1,0-.5,0.6,0.6,0,0,1,.18-0.26,0.69,0.69,0,0,1,.09-0.16,0.71,0.71,0,0,0,.09-0.16,0.43,0.43,0,0,0,.11-0.31,0.68,0.68,0,0,1,0-.31,1.37,1.37,0,0,1,.17-0.44,2.07,2.07,0,0,1,.23-0.32c0.23-.34.39-0.58,0.47-0.7q1.4-.56,2.71-1.11t2.72-1a0.91,0.91,0,0,1-.16.69,7.3,7.3,0,0,1-.36.92c-0.13.28-.26,0.56-0.37,0.85s-0.16.42-.25,0.63a2.44,2.44,0,0,0-.19.63,2.37,2.37,0,0,0-.16.5,2.43,2.43,0,0,1-.16.5,0.87,0.87,0,0,1,0,.37,1,1,0,0,0-.17.26v0.19a0.25,0.25,0,0,1-.05.19,0.26,0.26,0,0,0-.05.19l-0.17.38a1.81,1.81,0,0,0-.17.35c0,0.11-.07.22-0.11,0.35s-0.14.51-.21,0.79l-0.21.78a4.19,4.19,0,0,0-.12.87c0,0.29,0,.58-0.05.87l-0.11,1.87c0,0.13-.07.26-0.11,0.41a1.45,1.45,0,0,0,0,.4,5.19,5.19,0,0,0,0,1.4,6.68,6.68,0,0,0,.31,1.32,6.63,6.63,0,0,0,1,2.13,1.42,1.42,0,0,1,.23.27,1.45,1.45,0,0,0,.23.27L209,42.84a0.34,0.34,0,0,1,.26.17,1.18,1.18,0,0,1,.23.3,3.57,3.57,0,0,0,.23.36,1.55,1.55,0,0,0,.36.51,0.79,0.79,0,0,0,.6.19h0.19ZM177,39.21a2.75,2.75,0,0,1,.06-1.37q0.21-.88.31-1.5a2.08,2.08,0,0,0,0-.62,6.09,6.09,0,0,1-.06-0.62,1.22,1.22,0,0,0,.08-0.25,1.32,1.32,0,0,0,0-.31,1,1,0,0,0,0-.59,0.76,0.76,0,0,1,0-.53,1.78,1.78,0,0,0,.4-0.76,12.15,12.15,0,0,1,.86-2.36q0.54-1.11,1.17-2.25l1.19-1.88a6.62,6.62,0,0,1,1.45-1.58,7.87,7.87,0,0,1,1-.91,2,2,0,0,1,1.19-.42,3.49,3.49,0,0,1,1.62.18c0.18,0.36.36,0.78,0.55,1.25a3.55,3.55,0,0,1,.2,1.64,13.1,13.1,0,0,1-1.27,1.54,14.75,14.75,0,0,0-1.33,1.61q-0.53.77-1.14,1.6t-1.26,1.61l-1.84,2.63q-0.91,1.28-2,2.51a3.17,3.17,0,0,0-.2.38,1.81,1.81,0,0,1-.32.45,2.73,2.73,0,0,1-.33.29l-0.39.3H177Zm11-14.63a1,1,0,0,1,0-.43,6.5,6.5,0,0,1-.61-1.12,7.44,7.44,0,0,1-.43-1.32,1.32,1.32,0,0,0-.58-0.47,4.68,4.68,0,0,0-.82-0.27,1.23,1.23,0,0,0-.66-0.19,2.89,2.89,0,0,0-.89.13,0.52,0.52,0,0,0-.71,0,6.76,6.76,0,0,0-.75.59,1.45,1.45,0,0,1-.27.23,1.42,1.42,0,0,0-.27.23,1.45,1.45,0,0,0-.48.33,1.69,1.69,0,0,1-.42.33,1.14,1.14,0,0,1-.35.51l-0.48.39a12.23,12.23,0,0,0-1,1.22q-0.5.71-1,1.41-0.74,1.52-1.42,3t-1.48,3.17q-0.61,1.76-1,3.46a15.06,15.06,0,0,0-.39,3.86,7.44,7.44,0,0,0,.34,2.06,11.71,11.71,0,0,1,.45,1.75,5.79,5.79,0,0,0,.43.57,0.49,0.49,0,0,0,.6.13,0.37,0.37,0,0,0,.19.18l0.53,0.13a0.51,0.51,0,0,0,.46-0.05,2,2,0,0,0,1.72-.48q0.66-.62,1.49-1.34a1.85,1.85,0,0,1,.33-0.2,0.92,0.92,0,0,0,.33-0.32,4.24,4.24,0,0,0,.42-0.27,1.4,1.4,0,0,0,.23-0.41,1.35,1.35,0,0,1,.23-0.41s0-.07,0-0.09,0-.05.09-0.1q0.53-.71,1.05-1.5a11.89,11.89,0,0,1,1.18-1.51,7.35,7.35,0,0,1,.61-1,6.2,6.2,0,0,0,.6-1.08l0.24-.26,0.24-.26a1.27,1.27,0,0,0,.35-0.51,0.8,0.8,0,0,1,.35-0.45,11.27,11.27,0,0,1-.1,1.21,7.13,7.13,0,0,0-.08.9c0,0.29,0,.59,0,0.9a5.37,5.37,0,0,0,.15,1.2,3.72,3.72,0,0,0,.2,1.11q0.18,0.49.31,0.79a2,2,0,0,1,.27.58,3.65,3.65,0,0,0,.21.58,2.26,2.26,0,0,0,.15.55l0.2,0.36a6.68,6.68,0,0,1,.34.67,0.82,0.82,0,0,0,.33.36,1,1,0,0,0,1,.3,2.83,2.83,0,0,1,1.12,0,4.09,4.09,0,0,0,1.86-.14l0.24-.26h0.18a5.14,5.14,0,0,1,.67-0.25,3.68,3.68,0,0,0,.73-0.31V42.56A7.42,7.42,0,0,0,195.1,42a1.39,1.39,0,0,0,.5-0.61q0.31-.08,1-0.32a1.21,1.21,0,0,0,.78-0.56,6.8,6.8,0,0,0,.68-0.71,6.87,6.87,0,0,1,.68-0.71,3.19,3.19,0,0,1,.41-0.48,0.63,0.63,0,0,0,.1-0.59q0.3-.2.28-0.07c0,0.08.07,0,.27-0.2a2.58,2.58,0,0,0,.53-0.71,7.74,7.74,0,0,1,.4-0.89,2.23,2.23,0,0,0,.58-0.83,2,2,0,0,1,.52-0.77,0.25,0.25,0,0,1,.11-0.25,0.2,0.2,0,0,0,.12-0.19c-0.12.09-.21,0.09-0.28,0a0.55,0.55,0,0,0-.29-0.17,0.89,0.89,0,0,1,.27-0.29,0.55,0.55,0,0,0,.21-0.23,0.2,0.2,0,0,0-.18.1c0,0.06-.12.06-0.25,0s0-.13.09-0.16,0.13-.08.09-0.16a0.49,0.49,0,0,1-.31.11,0.45,0.45,0,0,0-.19,0,2.53,2.53,0,0,0-.94.54,4,4,0,0,0-.74.84l-0.33.17-0.33.17a2.73,2.73,0,0,0-.39.36l-0.33.35A16.37,16.37,0,0,1,195,38.24a17.05,17.05,0,0,1-4,1.79q-0.14-.3-0.24-0.61c-0.07-.2-0.15-0.41-0.24-0.61a1.42,1.42,0,0,1,.12-0.75,1.69,1.69,0,0,0,.19-0.63,0.15,0.15,0,0,0,0-.19,0.18,0.18,0,0,1-.07-0.12c0.11-.38.23-0.75,0.35-1.13a4.42,4.42,0,0,0,.23-1.13,2.37,2.37,0,0,0,.07-0.44q0-.25.07-0.56l0.11-.25a0.57,0.57,0,0,0,.05-0.25,3.43,3.43,0,0,0,.16-0.66,1.91,1.91,0,0,1,.28-0.73l-0.07-.12a4,4,0,0,1,.31-0.82l0.29-.51L193,30a2.76,2.76,0,0,0,.24-0.82,2.09,2.09,0,0,0,.27-0.94,1.4,1.4,0,0,1,.33-0.88,0.47,0.47,0,0,1,0-.28,0.54,0.54,0,0,0,0-.16,5.06,5.06,0,0,0,.32-2,19.25,19.25,0,0,0-.2-2.41,1,1,0,0,0,0-.44,1,1,0,0,1,0-.43q-0.07-.24-0.18-0.67a0.71,0.71,0,0,0-.43-0.54,0.28,0.28,0,0,1-.37,0,0.92,0.92,0,0,1-.39-0.45h-0.28a0.38,0.38,0,0,1-.28-0.11,0.41,0.41,0,0,1-.4,0A0.84,0.84,0,0,0,191,20a2,2,0,0,0-.57.4q-0.27.26-.57,0.52c-0.11.34-.22,0.64-0.33,0.92l-0.39,1c0,0.25-.06.51-0.09,0.78a1.48,1.48,0,0,1-.28.73,0.83,0.83,0,0,1-.32.45,4.21,4.21,0,0,0-.45.33,4,4,0,0,0-.05-0.5M150.6,26.87c0,0.18.11,0.38,0.18,0.58L151,28c0.07,0.18.12,0.25,0.16,0.21a4.48,4.48,0,0,1-.28.73,6,6,0,0,0-.28.66,0.3,0.3,0,0,1-.2.29,0.68,0.68,0,0,0-.32.42l-0.29.45a2.06,2.06,0,0,1-.24.32c-0.16.17-.35,0.36-0.57,0.55a2.53,2.53,0,0,1-.63.43,15.79,15.79,0,0,1-1,1.22,6.9,6.9,0,0,1-1,.91q-0.88,1-1.84,2a2,2,0,0,1,.44-0.67,5.84,5.84,0,0,0,.75-2,4.59,4.59,0,0,1,.33-0.91,5.75,5.75,0,0,0,.34-0.85,2.76,2.76,0,0,0,1.09-1.38,7.09,7.09,0,0,1,.89-1.68,0.33,0.33,0,0,1,.18-0.26,0.37,0.37,0,0,0,.18-0.19,8.68,8.68,0,0,1,.83-0.9,3.68,3.68,0,0,1,1.15-.73l-0.19-.05a0.36,0.36,0,0,1,.14.27m-4,10s0.06,0,.06,0a0.88,0.88,0,0,0,.51-0.36,1.22,1.22,0,0,1,.63-0.43A0.49,0.49,0,0,1,148,36l0.43-.2,0.36-.2a0.66,0.66,0,0,0,.19.12,1,1,0,0,0,.48-0.45,0.56,0.56,0,0,1,.48-0.33,1.52,1.52,0,0,0,.39-0.3l0.38-.42a0.6,0.6,0,0,0,.4-0.11c0.06-.06.17-0.2,0.32-0.42s0.53-.56.89-0.91a4.76,4.76,0,0,0,.88-1.16,4.83,4.83,0,0,0,.4-0.85A5,5,0,0,1,153.9,30l0.11-.31a3.4,3.4,0,0,0,.15-0.81q0-.5.14-1.06a0.56,0.56,0,0,0,.08-0.41,0.37,0.37,0,0,1,.08-0.35,1.22,1.22,0,0,0-.1-1,2,2,0,0,0-.07-0.77c-0.07-.27-0.16-0.54-0.25-0.83a2.92,2.92,0,0,1-.72-0.87,5.61,5.61,0,0,0-.73-1c0.08-.13.09-0.19,0.05-0.19s-0.06,0-.07-0.12a1.76,1.76,0,0,1-.58-0.53,0.74,0.74,0,0,0-.51-0.35,0.43,0.43,0,0,0-.32-0.11,0.34,0.34,0,0,1-.13-0.18,5.05,5.05,0,0,1-.75-0.12,1.33,1.33,0,0,0-.74.06,2.33,2.33,0,0,0-.92.23,0.79,0.79,0,0,1-.39.39,6.8,6.8,0,0,1-.64.28,0.26,0.26,0,0,1,.07.18,4.23,4.23,0,0,0-.84.75q-0.35.42-.77,0.87a13,13,0,0,0-.84,1.31,7.47,7.47,0,0,0-.64,1.61q-1.34,2-2.52,4a27.45,27.45,0,0,0-2.07,4.5,2,2,0,0,0-.43.73,4,4,0,0,1-.37.79l-0.47,1.91a11.51,11.51,0,0,0-.29,2c0,0.45,0,.77.07,1s0.06,0.34.08,0.46a2.52,2.52,0,0,0,.11.37,2.82,2.82,0,0,1,.09.74q0.35,0.79.68,1.46a3,3,0,0,0,1,1.13,0.14,0.14,0,0,1-.09.16c-0.06,0,0,.07,0,0.15a0.17,0.17,0,0,1,.25,0,0.22,0.22,0,0,0,.25,0c0,0.08,0,.13-0.06.13s-0.06,0-.06.13a0.91,0.91,0,0,1,.78.06,0.88,0.88,0,0,0,.66.13,1.27,1.27,0,0,0,1.08-.14,1.61,1.61,0,0,1,1.07-.26l0.37,0a0.51,0.51,0,0,0,.37-0.14,0.31,0.31,0,0,1,.31-0.07,0.51,0.51,0,0,1,.37,0c0.28-.14.55-0.25,0.79-0.34a2.33,2.33,0,0,1,.74-0.16q0.91-.41,1.67-0.79t1.61-.85l0.78-.59,1.26-1q0.66-.53,1.29-1c0.42-.31.71-0.53,0.87-0.66A5.64,5.64,0,0,1,156,39.32a3.61,3.61,0,0,0,1-1.22,1.28,1.28,0,0,1,.39-0.3,1.3,1.3,0,0,0,.45-0.42q0.46-.7.91-1.28l1-1.28a0.7,0.7,0,0,0-.17-0.27c-0.07-.06,0-0.15.08-0.28s0-.08-0.07-0.12a0.12,0.12,0,0,1-.07-0.18c-0.16.09-.18,0.17-0.05,0.25s0.13,0,0-.19a2.26,2.26,0,0,1-.56,0V33.86c-0.17-.16-0.26-0.17-0.25-0.05q-0.48.52-.92,0.94a7.54,7.54,0,0,1-.93.75l-1.68,1.38c-0.08.09-.29,0.27-0.63,0.55s-0.72.57-1.14,0.86l-1.17.83a3.15,3.15,0,0,1-.79.47A19.44,19.44,0,0,0,149,40.74a11.26,11.26,0,0,1-2.5,1,7.9,7.9,0,0,0-1.16.42,6.69,6.69,0,0,1-1.28.43,0.89,0.89,0,0,0-.46,0,0.47,0.47,0,0,1-.34,0,2.27,2.27,0,0,0-.72-0.09,0.35,0.35,0,0,1-.36-0.42,0.91,0.91,0,0,1,0-.59,2.2,2.2,0,0,0,.25-0.6,3.35,3.35,0,0,1,.36-1,2.62,2.62,0,0,0,.3-1,1.54,1.54,0,0,0,.46-0.92,0.83,0.83,0,0,1,.59-0.74,0.29,0.29,0,0,0,.25,0l0.31,0s0,0.07,0,.09,0,0,0,0q0.26,0.24.38,0.08a0.34,0.34,0,0,1,.24-0.17,0.74,0.74,0,0,1,.56.1Zm-31.85,5.67,0.24-.26a0.82,0.82,0,0,1-.15.22,0.81,0.81,0,0,0-.15.22s0-.1.05-0.19M134,29.36c-0.08,0-.1,0-0.07-0.06H134s0.06,0,.06,0,0,0,.06,0a0.17,0.17,0,0,1-.12.13m-4.74-7.61a0.14,0.14,0,0,1,.15,0c0.06,0,.09,0,0.09,0s0,0.07,0,.09,0,0.05.07,0.09a0.31,0.31,0,0,1-.24.13,0.57,0.57,0,0,0-.07-0.24m2.18-.62a3.44,3.44,0,0,1,1.27-1.39A1.45,1.45,0,0,1,133,20a0.34,0.34,0,0,0,.25.15,3.61,3.61,0,0,1,.76,1.89,8.91,8.91,0,0,1,0,1.86,4.64,4.64,0,0,1,0,.56,3.93,3.93,0,0,0,0,.5q0,0.44-.11,1a6.55,6.55,0,0,1-.18.91l-0.86-.52a2.63,2.63,0,0,1-.81-0.77,4.53,4.53,0,0,1-1.42-2.73q0.39-.89.76-1.68M137,27a0.24,0.24,0,0,1,0-.31l0.06,0.06c0-.08,0-0.11,0-0.09s-0.07,0-.16-0.09q0-.75,0-1.46c0-.47,0-1,0-1.46q-0.36-1.16-.66-2.39a11.5,11.5,0,0,0-1-2.62,0.85,0.85,0,0,0-.29-0.17,0.8,0.8,0,0,1-.29-0.17c0.08-.09.08-0.15,0-0.19S134.52,18,134.56,18q0.11-.31-0.11-0.34a1.41,1.41,0,0,0-.49.05l-0.43.11c-0.1,0-.1-0.07,0-0.28,0,0.16.19,0.18,0.44,0a1.52,1.52,0,0,0-.22-0.18,1.38,1.38,0,0,1-.22-0.18s-0.06,0-.06,0,0,0-.12,0a1.36,1.36,0,0,0-1.16-.35,3.64,3.64,0,0,0-1.32.34h0.25a2.49,2.49,0,0,0-.77.84A3.68,3.68,0,0,0,130,19a2.76,2.76,0,0,1-.21.94,0.65,0.65,0,0,1-.2.32,0.33,0.33,0,0,0-.08.38,0.18,0.18,0,0,1,.06-0.13s0.06,0,.06.06a0.4,0.4,0,0,1-.29.45,4.41,4.41,0,0,0-.18,1,3,3,0,0,0,.08,1.15,0.23,0.23,0,0,1,0,.19,0.41,0.41,0,0,0,0,.19,3.65,3.65,0,0,0,.25.67q0.17,0.36.37,0.73c0-.08-0.06-0.12,0-0.12s0,0,0-.12c0.12,0,.2,0,0.22.15a1.13,1.13,0,0,0,.11.34,1.32,1.32,0,0,1,.4.54,0.16,0.16,0,0,1,.19.18l0.9,0.71a5.46,5.46,0,0,1,.84.83,0.92,0.92,0,0,0,.26.17,0.4,0.4,0,0,1,.2.24,0.77,0.77,0,0,1,.44.1,2.17,2.17,0,0,1,.32.23,0.22,0.22,0,0,0,0,.19s0,0.06-.09.07a4.71,4.71,0,0,1-1.47-1L131,26.51a4.29,4.29,0,0,1-.65-0.59,2.19,2.19,0,0,1-.4-0.67,1.39,1.39,0,0,0,.28.7c0.18,0.26.33,0.47,0.46,0.63a0.16,0.16,0,0,1,.15,0s0.05,0,.09,0l1.33,1.21a8.59,8.59,0,0,0,1.38,1q0,0.19-.05.19a0.08,0.08,0,0,1-.12,0,0.05,0.05,0,0,0,.07.06,0.18,0.18,0,0,1,.13.12,0.49,0.49,0,0,0-.05.22,0.22,0.22,0,0,1-.05.16v0.31a15.56,15.56,0,0,1-.41,1.88l-0.54,1.89a0.25,0.25,0,0,0-.18.07,2,2,0,0,1,0,.5,2.31,2.31,0,0,0,0,.56,6.13,6.13,0,0,1-.6,1.11l-0.93,1.41-1,1.41q-0.47.67-.76,1.12-0.53.77-1,1.53a3.08,3.08,0,0,0-.57.49,5.09,5.09,0,0,1-.51.49,8.09,8.09,0,0,1-.8-1.3,5.12,5.12,0,0,1-.39-1.16,11.55,11.55,0,0,1-.18-1.23q-0.06-.65-0.16-1.51c0-.08,0-0.11.06-0.1s0,0,0-.09a0.73,0.73,0,0,1-.11-0.49,2.15,2.15,0,0,0-.06-0.62,2.55,2.55,0,0,0,.11-0.32,0.25,0.25,0,0,1-.07-0.18,0.21,0.21,0,0,0,0-.22,0.38,0.38,0,0,1-.07-0.21l0.06-.07a1.3,1.3,0,0,0,0-.31,1,1,0,0,1,0-.25,0.82,0.82,0,0,1,.11-0.41,0.83,0.83,0,0,0,.11-0.41,2.32,2.32,0,0,0-.09-0.55,2.28,2.28,0,0,1-.09-0.55,1.55,1.55,0,0,1-.12-0.71,2.51,2.51,0,0,0-.2-1,0.87,0.87,0,0,0,0-.43,1,1,0,0,1,.07-0.56,0.19,0.19,0,0,1-.1-0.18,0.23,0.23,0,0,0,0-.19,0.82,0.82,0,0,0,0-1,0.92,0.92,0,0,1-.16-0.89,2.05,2.05,0,0,1-.55-1.28,3.27,3.27,0,0,0-.37-1.35s-0.09,0-.15,0-0.11.06-.16,0a1.07,1.07,0,0,0-.3-0.42,1.63,1.63,0,0,1-.36-0.42c-0.08,0-.11,0-0.09,0s0,0,0,0a0.17,0.17,0,0,1-.07-0.09s0,0-.12,0l-0.12.13a0.73,0.73,0,0,1-.18.13A0.22,0.22,0,0,0,122,24c-0.08,0-.14,0-0.15,0a0.53,0.53,0,0,1-.09.13,0.36,0.36,0,0,0-.25-0.11l-0.3.2-0.3.2a2,2,0,0,1-.35.6,2,2,0,0,0-.35.6,1,1,0,0,0-.14.38,0.56,0.56,0,0,1-.14.32,0.21,0.21,0,0,1-.09.13,0.45,0.45,0,0,0-.15.13,1.25,1.25,0,0,0,0,.68,1.9,1.9,0,0,1,0,.68,0.94,0.94,0,0,1,0,.34c0,0.1-.08.2-0.11,0.28a0.08,0.08,0,0,0,0,.12,2,2,0,0,1-.22.69,3.41,3.41,0,0,0-.28.69q-0.12.19-.26,0.38a2.22,2.22,0,0,0-.26.44,11.24,11.24,0,0,1-1.4,2.76,15.67,15.67,0,0,0-1.52,2.77q-0.63,1.21-1.33,2.29t-1.46,2.17a0.81,0.81,0,0,0-.17.29,0.83,0.83,0,0,1-.17.29,5.55,5.55,0,0,1-.2-1,5.75,5.75,0,0,0-.2-1,1.39,1.39,0,0,0,.17-1.06,2.81,2.81,0,0,1,0-1.24,3.45,3.45,0,0,1-.08-1.21q0.07-.53.11-1a0.1,0.1,0,0,1,0-.12,0.22,0.22,0,0,0,0-.18,2.62,2.62,0,0,0,.3-1.56c0.07-.21.14-0.42,0.19-0.63a2.88,2.88,0,0,0,.06-0.81,3,3,0,0,0,.14-1.06,2,2,0,0,1,.2-1s-0.06-.06,0-0.06,0,0,0-.12a1.08,1.08,0,0,0,.28-0.57l0.1-.62a2.07,2.07,0,0,0,.08-1,1.24,1.24,0,0,0,.12-0.75,1.25,1.25,0,0,1,.18-0.82,0.21,0.21,0,0,1,0-.18,0.23,0.23,0,0,0,0-.19,0.47,0.47,0,0,0,.16-0.5,0.17,0.17,0,0,1,0-.22,0.26,0.26,0,0,0,.09-0.16,0.75,0.75,0,0,0-.07-0.21c0-.1-0.09-0.21-0.14-0.34a2.52,2.52,0,0,0-.49-1.34l-0.27-.58a5.47,5.47,0,0,1-.28-0.7,0.77,0.77,0,0,1-.32-0.17,0.85,0.85,0,0,0-.21-0.42,0.78,0.78,0,0,1-.2-0.36,0.57,0.57,0,0,1-.45-0.38,0.45,0.45,0,0,0-.45-0.32,0.5,0.5,0,0,1-.36.23,0.42,0.42,0,0,1-.38-0.08,0.51,0.51,0,0,1-.56.09,3.24,3.24,0,0,0-.56.65,5.34,5.34,0,0,0-.37.7v0.19a7.05,7.05,0,0,0-.65,1.52,8.93,8.93,0,0,0-.33,1.69q-0.23,1.87-.49,3.62T107,31.66q-0.08,1-.23,1.9t-0.29,2a4.63,4.63,0,0,0,.09.71,1.64,1.64,0,0,1,0,.78,4.56,4.56,0,0,1,0,.75,4.55,4.55,0,0,0,0,.75c0,0.25,0,.52.07,0.8s0.06,0.58.07,0.87q0.11,1.05.35,2.25a11,11,0,0,0,.72,2.3l0.49,0.54a2,2,0,0,1,.36.54c0.08,0,.12,0,0.13.06s0,0.06.13,0.06c0.22,0.32.46,0.65,0.73,1a3,3,0,0,0,.9.8c-0.18-.32-0.17-0.53,0-0.62a0.93,0.93,0,0,1,.33.36,0.37,0.37,0,0,0,.32.23,0.41,0.41,0,0,0,.34,0,1,1,0,0,1,.34-0.11H112a1.15,1.15,0,0,1-.09-0.65,4,4,0,0,1,.1-0.53c0.08,0,.12,0,0.13,0s0,0,.13,0l-0.13-.21A0.38,0.38,0,0,1,112,46a0.61,0.61,0,0,0,.41-0.51A2.38,2.38,0,0,0,113,45a2.84,2.84,0,0,1,.54-0.46,2,2,0,0,1,.63-1.21l0.38-.42a4.28,4.28,0,0,0,.38-0.48,1.93,1.93,0,0,1,.32-0.57,1.37,1.37,0,0,1,.51-0.4,8,8,0,0,1,.85-1.25,5,5,0,0,0,.78-1.31,4.25,4.25,0,0,1,.45-1,10.43,10.43,0,0,0,.57-1.11q0.17-.32.4-0.67a0.7,0.7,0,0,1,.54-0.36,22.88,22.88,0,0,0,.37,2.74,23.41,23.41,0,0,0,.8,2.79,0.67,0.67,0,0,0,0,.22,0.5,0.5,0,0,1,0,.15,11.74,11.74,0,0,0,3.89,5.17,3.61,3.61,0,0,0,1.16,1.07L125.85,48a2.5,2.5,0,0,0,.23.24,3.35,3.35,0,0,0,.69.16,1,1,0,0,1,.57.22,0.37,0.37,0,0,1,.2-0.35,0.42,0.42,0,0,1,.31,0l0.35,0.17a0.82,0.82,0,0,0,.38.08,0.37,0.37,0,0,0,.33-0.17,0.88,0.88,0,0,1,.27-0.29,0.16,0.16,0,0,0-.07-0.15,0.28,0.28,0,0,1,0-.28l0.43-.14c0-.08,0-0.1-0.1-0.06s-0.09,0-.1-0.06a2.94,2.94,0,0,0,.72-0.65H129.8a0.38,0.38,0,0,1,.14-0.32l0.27-.26a0.1,0.1,0,0,0-.09.07s-0.05,0-.1-0.06a1.34,1.34,0,0,1,.35-0.45,0.2,0.2,0,0,1,0-.22,0.21,0.21,0,0,0,0-.22,1.53,1.53,0,0,0,.48-0.49,1.52,1.52,0,0,1,.48-0.49,1.28,1.28,0,0,1,.29-0.54,2.06,2.06,0,0,0,.35-0.6c-0.08.09-.12,0.11-0.12,0.07a5.42,5.42,0,0,0,.53-0.68,3.58,3.58,0,0,0,.4-0.85,1.73,1.73,0,0,0-.59.8,0.93,0.93,0,0,1-.53.61,1.57,1.57,0,0,1,0-.5s-0.05,0,0,0,0,0,0,0a11.71,11.71,0,0,1,.65-1.36L133,39.89a9.9,9.9,0,0,1,.57-1.17l0.83-1.52q0.43-.8.74-1.49a2.63,2.63,0,0,0,.3-1A8.6,8.6,0,0,1,136,33a6.44,6.44,0,0,0,.42-1.79,0.53,0.53,0,0,0,.17-0.32,0.11,0.11,0,0,0,0-.15c0-.06,0-0.09.06-0.1q1.07,0.39,1.64.55a4.11,4.11,0,0,0,1,.17,6.84,6.84,0,0,0,.93,0q0.49-.05,1.49-0.1a1.9,1.9,0,0,1,.8-0.19,0.52,0.52,0,0,0,.43-0.11,1.27,1.27,0,0,0-.6-0.13h0a5,5,0,0,0,.67-0.28,7.73,7.73,0,0,0,1.42-1c-0.21,0-.41,0-0.62.06a1.6,1.6,0,0,1-.56,0,4.19,4.19,0,0,1,.42-0.27L144.1,29a7.6,7.6,0,0,0-1-.36,1.69,1.69,0,0,0-1,0,1.06,1.06,0,0,0-.66-0.13c-0.23,0-.44,0-0.65.06,0,0,0,0,0-.06s0,0-.06,0c-0.54.06-.91,0.1-1.11,0.11a3,3,0,0,1-.5,0l-0.44-.07-0.94-.21a0.83,0.83,0,0,0-.5-0.16,0.66,0.66,0,0,1-.51-0.35c0.12,0,.18,0,0.18-0.07-0.17-.08-0.22-0.08-0.16,0s0.07,0,0-.16a0.26,0.26,0,0,0,.2-0.32,0.61,0.61,0,0,1,.07-0.44h-0.06Q137.19,27,137,27M82.14,29.86c0,0.18.11,0.38,0.18,0.58L82.53,31q0.1,0.27.17,0.21a4.48,4.48,0,0,1-.28.73,5.93,5.93,0,0,0-.28.66,0.3,0.3,0,0,1-.21.29,0.67,0.67,0,0,0-.32.42l-0.29.45a2.06,2.06,0,0,1-.23.32c-0.16.17-.35,0.36-0.57,0.55a2.53,2.53,0,0,1-.63.43q-0.53.71-1,1.22a7,7,0,0,1-1,.91q-0.89,1-1.84,2a2,2,0,0,1,.44-0.67,5.85,5.85,0,0,0,.75-2,4.55,4.55,0,0,1,.33-0.92,5.64,5.64,0,0,0,.33-0.85A2.76,2.76,0,0,0,79,33.41a7.08,7.08,0,0,1,.89-1.68A0.34,0.34,0,0,1,80,31.47a0.36,0.36,0,0,0,.18-0.19A8.68,8.68,0,0,1,81,30.37a3.7,3.7,0,0,1,1.15-.73L82,29.58a0.37,0.37,0,0,1,.14.27m-4,10s0.06,0,.06,0a0.87,0.87,0,0,0,.51-0.36,1.22,1.22,0,0,1,.63-0.43A0.46,0.46,0,0,1,79.5,39l0.43-.2,0.36-.2a0.66,0.66,0,0,0,.19.12A1,1,0,0,0,81,38.25a0.56,0.56,0,0,1,.48-0.33,1.53,1.53,0,0,0,.39-0.3l0.38-.42a0.6,0.6,0,0,0,.4-0.11c0.06-.06.17-0.2,0.32-0.42s0.53-.56.89-0.91a4.77,4.77,0,0,0,.88-1.16,4.69,4.69,0,0,0,.4-0.85A5.15,5.15,0,0,1,85.44,33l0.11-.32a3.31,3.31,0,0,0,.15-0.81q0-.5.14-1.06a0.56,0.56,0,0,0,.07-0.41A0.38,0.38,0,0,1,86,30a1.22,1.22,0,0,0-.11-1,2,2,0,0,0-.07-0.77c-0.07-.27-0.16-0.54-0.25-0.83a2.93,2.93,0,0,1-.72-0.87,5.57,5.57,0,0,0-.72-1c0.08-.13.09-0.19,0.05-0.19s-0.06,0-.07-0.12a1.77,1.77,0,0,1-.58-0.53A0.74,0.74,0,0,0,83,24.39a0.42,0.42,0,0,0-.31-0.11,0.34,0.34,0,0,1-.13-0.18A5.06,5.06,0,0,1,81.82,24a1.34,1.34,0,0,0-.74.06,2.33,2.33,0,0,0-.92.23,0.79,0.79,0,0,1-.39.39q-0.27.14-.64,0.28a0.25,0.25,0,0,1,.07.18,4.23,4.23,0,0,0-.84.75c-0.24.28-.49,0.57-0.77,0.87A12.83,12.83,0,0,0,76.76,28a7.47,7.47,0,0,0-.64,1.61q-1.34,2-2.52,4a27.3,27.3,0,0,0-2.07,4.5,2,2,0,0,0-.43.73,4,4,0,0,1-.37.79l-0.48,1.91a11.5,11.5,0,0,0-.29,2c0,0.45,0,.77.07,1s0.06,0.34.08,0.46a2.64,2.64,0,0,0,.11.37,2.86,2.86,0,0,1,.1.74q0.34,0.79.68,1.46a3,3,0,0,0,1,1.13,0.14,0.14,0,0,1-.09.16c-0.06,0,0,.07,0,0.15a0.17,0.17,0,0,1,.25,0,0.22,0.22,0,0,0,.25,0c0,0.08,0,.13-0.06.13s-0.06,0-.06.13a0.91,0.91,0,0,1,.78.06,0.88,0.88,0,0,0,.66.13,1.26,1.26,0,0,0,1.08-.14A1.61,1.61,0,0,1,76,49l0.37,0a0.51,0.51,0,0,0,.37-0.14A0.31,0.31,0,0,1,77,48.79a0.51,0.51,0,0,1,.37,0q0.42-.2.79-0.34a2.33,2.33,0,0,1,.74-0.16q0.91-.41,1.67-0.79t1.61-.84L83,46l1.26-1q0.66-.52,1.29-1t0.87-.66a5.65,5.65,0,0,1,1.16-1.11,3.58,3.58,0,0,0,1-1.22,1.28,1.28,0,0,1,.39-0.3,1.32,1.32,0,0,0,.45-0.42q0.46-.7.91-1.28l1-1.28a0.72,0.72,0,0,0-.17-0.27c-0.06-.06,0-0.15.08-0.28s0-.08-0.07-0.12a0.12,0.12,0,0,1-.07-0.18q-0.24.14-.05,0.25T91,37a2.31,2.31,0,0,1-.56,0V36.85c-0.17-.16-0.26-0.18-0.25-0.05q-0.48.52-.92,0.94a7.63,7.63,0,0,1-.93.75l-1.68,1.38c-0.08.09-.29,0.27-0.63,0.55a14.26,14.26,0,0,1-1.14.86l-1.17.83a3.18,3.18,0,0,1-.79.47,19.15,19.15,0,0,0-2.37,1.16,11.28,11.28,0,0,1-2.5,1,7.91,7.91,0,0,0-1.16.42,6.68,6.68,0,0,1-1.28.43,0.89,0.89,0,0,0-.46,0,0.47,0.47,0,0,1-.34,0,2.25,2.25,0,0,0-.72-0.09,0.35,0.35,0,0,1-.36-0.42,0.9,0.9,0,0,1,0-.59A2.15,2.15,0,0,0,74,44a3.37,3.37,0,0,1,.36-1,2.6,2.6,0,0,0,.3-1A1.54,1.54,0,0,0,75.12,41a0.83,0.83,0,0,1,.59-0.74,0.28,0.28,0,0,0,.25,0l0.31,0s0,0.07,0,.09,0,0,0,0c0.17,0.16.3,0.18,0.38,0.08a0.33,0.33,0,0,1,.24-0.17,0.74,0.74,0,0,1,.56.1ZM60.25,47a0.18,0.18,0,0,1,.06-0.13c0,0.08,0,.13-0.06.13v0ZM54.52,27.37A1.23,1.23,0,0,1,54.91,27a1.14,1.14,0,0,1,.64.34,0.72,0.72,0,0,1,.27.49,0.35,0.35,0,0,1-.11.25,7.78,7.78,0,0,0-.14,1.09,8,8,0,0,1-.14,1.09,4.13,4.13,0,0,1-1.6.38,1.65,1.65,0,0,1-.75-0.15,0.58,0.58,0,0,1-.2-0.24,0.68,0.68,0,0,1,.23-0.44,0.17,0.17,0,0,0,.06-0.1,0.17,0.17,0,0,1,.06-0.09,0.35,0.35,0,0,0,.12-0.19A3.89,3.89,0,0,1,53.57,29a4.32,4.32,0,0,0,.23-0.44,3.88,3.88,0,0,1,.46-0.83,4.29,4.29,0,0,1,.26-0.38m8.26,23.47h0.31a1,1,0,0,1,.3-0.14,0.13,0.13,0,0,1,.09,0,0.12,0.12,0,0,0,.09,0,1.38,1.38,0,0,0,.61-0.15l0.49-.27A1.89,1.89,0,0,0,65.19,50l0.45-.39a0.54,0.54,0,0,1,.27-0.17,0.54,0.54,0,0,0,.27-0.17,2.55,2.55,0,0,0,.69-0.62A2.49,2.49,0,0,1,67.56,48,1.15,1.15,0,0,1,68,47.48a1.14,1.14,0,0,0,.41-0.61l1.46-1.43a14.23,14.23,0,0,0,1.39-1.55,2.4,2.4,0,0,1,.42-0.36A1,1,0,0,0,72,43.11,0.27,0.27,0,0,1,72,43a0.27,0.27,0,0,0,0-.13,6725.36,6725.36,0,0,0,.83-0.78,4.23,4.23,0,0,1,.26-0.38c0.1-.13.19-0.24,0.26-0.32l0.24-.26A0.21,0.21,0,0,1,73.74,41a0.18,0.18,0,0,0,.09-0.07,0.69,0.69,0,0,0,0-.31c0-.08,0-0.12,0-0.12s0,0,0-.06a0.25,0.25,0,0,1,.05-0.19,0.92,0.92,0,0,1,.23-0.44c-0.13-.12-0.19-0.16-0.19-0.12A0.18,0.18,0,0,1,74,39.55,0.25,0.25,0,0,0,74,39.37a3.19,3.19,0,0,1,.17-0.44L74,38.81a0.39,0.39,0,0,0-.22-0.05H73.55a0.43,0.43,0,0,0-.43.14,2.47,2.47,0,0,1-.36.33L72,40c-0.26.26-.5,0.52-0.74,0.78l-1.64,1.53q-0.81.75-1.64,1.47a0.33,0.33,0,0,0-.15.13,0.34,0.34,0,0,1-.15.13l-0.15.1-0.15.1a9.54,9.54,0,0,0-1.17,1,9.61,9.61,0,0,1-1.17,1,1.18,1.18,0,0,1-.3.23,2.79,2.79,0,0,1-.37.17,0.21,0.21,0,0,1-.26-0.21,0.78,0.78,0,0,1,0-.34,0.25,0.25,0,0,1,0-.16,0.12,0.12,0,0,0,0-.09,0.35,0.35,0,0,0,.11-0.25,0.62,0.62,0,0,0,.05-0.28,0.62,0.62,0,0,1,0-.28l0.09-.75a5.33,5.33,0,0,0,0-.87,0.25,0.25,0,0,0,0-.15,0.24,0.24,0,0,1,0-.15s0-.06,0-0.06,0,0,0-.06a0.54,0.54,0,0,0,.06-0.16,0.54,0.54,0,0,1,.06-0.16,0.18,0.18,0,0,1,.06-0.13l0-.37a4.94,4.94,0,0,1,.17-1q0.13-.47.24-1a0.69,0.69,0,0,1,0-.31,0.24,0.24,0,0,1,0-.16,0.13,0.13,0,0,0,0-.09,0.57,0.57,0,0,0,.05-0.25,1.07,1.07,0,0,0,.11-0.31,0.52,0.52,0,0,0,.05-0.22,0.49,0.49,0,0,1,.05-0.22,0.52,0.52,0,0,0,.05-0.22,0.49,0.49,0,0,1,.05-0.22,1,1,0,0,0,.11-0.44,0.55,0.55,0,0,0,.05-0.25,0.56,0.56,0,0,1,.05-0.25l0.11-.25a9.76,9.76,0,0,0,.47-1.29,9.72,9.72,0,0,1,.47-1.29A0.36,0.36,0,0,0,66.89,34a0.55,0.55,0,0,0,.06-0.16A0.53,0.53,0,0,1,67,33.71c0.08-.17.14-0.33,0.2-0.47a3,3,0,0,0,.13-0.47s0-.07,0-0.09,0-.05,0-0.09a0.35,0.35,0,0,1,.12-0.19,0.55,0.55,0,0,0,.14-0.28,1,1,0,0,1,.14-0.35,0.69,0.69,0,0,1,.12-0.19A0.73,0.73,0,0,0,68,31.37a2.43,2.43,0,0,0,.22-0.69,0.35,0.35,0,0,0,0-.25,0.34,0.34,0,0,1,0-.25,0.18,0.18,0,0,1,.06-0.13,0.26,0.26,0,0,0,.05-0.19,2.41,2.41,0,0,0,.07-1.34,2,2,0,0,0-.54-1.06l-0.13-.06a0.13,0.13,0,0,0,0-.09,0.12,0.12,0,0,1,0-.09,7.22,7.22,0,0,0-1.16-1.07A3.72,3.72,0,0,0,66,25.81a1.25,1.25,0,0,0-.68,0,3.32,3.32,0,0,0-.67.22l-0.55.24-0.55.24q-1.34.62-2.64,1.26l-2.64,1.33a3.89,3.89,0,0,1-.52.24,4.83,4.83,0,0,1-.58.18q0-.31.1-0.53a5.35,5.35,0,0,1,.16-0.53l0-.43a1,1,0,0,0,.14-0.38,0.93,0.93,0,0,1,.14-0.38,0.67,0.67,0,0,1,0-.22,0.7,0.7,0,0,0,0-.22,0.6,0.6,0,0,0,.1-0.44l-0.13-.12a0.85,0.85,0,0,0,0-.77,2.62,2.62,0,0,0-.46-0.57,2.43,2.43,0,0,0-.54-0.38,2.07,2.07,0,0,1-.48-0.32,0.15,0.15,0,0,1-.25,0H55.91a0.18,0.18,0,0,0-.12.13,0.18,0.18,0,0,1-.06.13,8.31,8.31,0,0,1-1,.23,8.32,8.32,0,0,0-1,.23,1.63,1.63,0,0,0-.49.08,0.87,0.87,0,0,0-.37.08,4.47,4.47,0,0,0-.7.34,1.36,1.36,0,0,0-.5.52,6.79,6.79,0,0,0-1.1,1.91,1.81,1.81,0,0,0-.17.35,2,2,0,0,1-.17.35l-0.1.47a1.45,1.45,0,0,0,0,.4,1.32,1.32,0,0,0,0,.28,0.43,0.43,0,0,1,0,.28,0.12,0.12,0,0,1,0,.09,0.24,0.24,0,0,0,0,.16,1.88,1.88,0,0,0,.1.8,2.15,2.15,0,0,0,.15.68l0.19,0.18a0.56,0.56,0,0,1,.16.24,0.54,0.54,0,0,0,.17.24,0.94,0.94,0,0,0,.26.18,4.78,4.78,0,0,0,2.45.76,2.93,2.93,0,0,1-.4.82q-0.29.57-.6,1.14t-0.66,1.15l-0.37.79c-0.13.27-.26,0.54-0.37,0.79s-0.14.31-.2,0.41l-0.2.35a1.43,1.43,0,0,0-.23.38,0.74,0.74,0,0,1-.11.19,0.74,0.74,0,0,0-.12.19v0.12a0.26,0.26,0,0,0-.05.19,3.41,3.41,0,0,0-.2.38,3.33,3.33,0,0,1-.2.38,3.41,3.41,0,0,1-.25.57c-0.1.17-.18,0.34-0.26,0.51v0.19a0.28,0.28,0,0,1-.15.16,0.29,0.29,0,0,0-.15.16v0.06c0,0.08.13,0.06,0.24-.07a0.12,0.12,0,0,0,.09,0,0.25,0.25,0,0,1,.15,0,0.85,0.85,0,0,0,.19.77,0.54,0.54,0,0,0,.66.25,0.36,0.36,0,0,0,.3-0.26,1.41,1.41,0,0,0,.72-0.47l0.36-.26,0.36-.26c0.16-.17.31-0.32,0.44-0.45a1.25,1.25,0,0,0,.32-0.51,3.24,3.24,0,0,1,.17-0.44,1,1,0,0,1,.17-0.26,1.58,1.58,0,0,0,.34-0.76s0.06-.06.05-0.19a0.17,0.17,0,0,1,.09-0.13,0.47,0.47,0,0,0,.15-0.19H54a0.37,0.37,0,0,1,.05-0.25,3.63,3.63,0,0,0,.35-0.51,1.66,1.66,0,0,0-.29.45A7.71,7.71,0,0,1,54.79,37a1.23,1.23,0,0,0,.08-0.25A0.56,0.56,0,0,1,55,36.53a2.18,2.18,0,0,1,.24-0.23,0.63,0.63,0,0,0,.18-0.23,1.28,1.28,0,0,1,0-.5,0.6,0.6,0,0,1,.17-0.26,0.65,0.65,0,0,1,.09-0.16A0.74,0.74,0,0,0,55.82,35a0.43,0.43,0,0,0,.11-0.32,0.7,0.7,0,0,1,0-.31,1.38,1.38,0,0,1,.17-0.44,2,2,0,0,1,.24-0.32q0.35-.51.46-0.7,1.4-.56,2.71-1.11t2.72-1a0.91,0.91,0,0,1-.16.69,7.3,7.3,0,0,1-.36.91c-0.13.28-.26,0.56-0.37,0.85s-0.16.42-.25,0.63a2.47,2.47,0,0,0-.19.63,2.4,2.4,0,0,0-.16.5,2.41,2.41,0,0,1-.16.5,0.87,0.87,0,0,1,0,.37,1,1,0,0,0-.17.26V36.3a0.25,0.25,0,0,1-.05.19,0.25,0.25,0,0,0-.05.19l-0.17.38a1.79,1.79,0,0,0-.17.35c0,0.1-.07.22-0.11,0.35s-0.14.51-.21,0.78-0.14.53-.21,0.78a4.27,4.27,0,0,0-.12.87c0,0.29,0,.58-0.06.87l-0.1,1.87c0,0.13-.07.26-0.11,0.41a1.46,1.46,0,0,0,0,.41,5.14,5.14,0,0,0,0,1.4,6.53,6.53,0,0,0,.31,1.32,6.61,6.61,0,0,0,1,2.13,1.42,1.42,0,0,1,.23.27,1.49,1.49,0,0,0,.23.27l0.19,0.18a0.33,0.33,0,0,1,.26.17,1.17,1.17,0,0,1,.23.3,3.41,3.41,0,0,0,.23.36,1.54,1.54,0,0,0,.36.51,0.8,0.8,0,0,0,.6.19h0.19ZM44.61,31.49c0,0.18.11,0.38,0.18,0.58L45,32.66c0.07,0.18.12,0.25,0.16,0.21a4.36,4.36,0,0,1-.28.73,6,6,0,0,0-.28.66,0.3,0.3,0,0,1-.21.29,0.68,0.68,0,0,0-.32.42c-0.12.17-.21,0.32-0.29,0.45a2,2,0,0,1-.24.32c-0.16.17-.35,0.36-0.56,0.55a2.57,2.57,0,0,1-.63.43,15.76,15.76,0,0,1-1,1.22,6.85,6.85,0,0,1-1,.91q-0.89,1-1.84,2a2,2,0,0,1,.44-0.67,5.83,5.83,0,0,0,.75-2A4.61,4.61,0,0,1,40,37.28a5.75,5.75,0,0,0,.34-0.85A2.77,2.77,0,0,0,41.45,35a7.05,7.05,0,0,1,.89-1.68,0.33,0.33,0,0,1,.17-0.25,0.37,0.37,0,0,0,.18-0.19A8.49,8.49,0,0,1,43.52,32a3.66,3.66,0,0,1,1.15-.73l-0.19-.05a0.36,0.36,0,0,1,.14.27m-4,10s0.06,0,.06,0a0.88,0.88,0,0,0,.51-0.36,1.22,1.22,0,0,1,.63-0.43A0.49,0.49,0,0,1,42,40.64l0.42-.2,0.36-.2a0.66,0.66,0,0,0,.19.12,1,1,0,0,0,.48-0.45,0.56,0.56,0,0,1,.48-0.33,1.55,1.55,0,0,0,.39-0.3l0.38-.42a0.61,0.61,0,0,0,.4-0.11q0.09-.1.32-0.42t0.89-.91a4.77,4.77,0,0,0,.88-1.16,4.83,4.83,0,0,0,.4-0.85,5.1,5.1,0,0,1,.34-0.79L48,34.29a3.39,3.39,0,0,0,.15-0.81q0-.5.14-1.06A0.57,0.57,0,0,0,48.39,32a0.38,0.38,0,0,1,.08-0.34,1.22,1.22,0,0,0-.1-1,2,2,0,0,0-.06-0.77c-0.07-.27-0.16-0.54-0.25-0.83a2.9,2.9,0,0,1-.72-0.87,5.54,5.54,0,0,0-.73-1c0.08-.13.09-0.19,0.05-0.19s-0.06,0-.07-0.12A1.79,1.79,0,0,1,46,26.38,0.74,0.74,0,0,0,45.49,26a0.42,0.42,0,0,0-.32-0.11A0.34,0.34,0,0,1,45,25.74a5.06,5.06,0,0,1-.75-0.12,1.33,1.33,0,0,0-.74.06,2.33,2.33,0,0,0-.92.23,0.79,0.79,0,0,1-.39.39q-0.27.14-.64,0.28a0.26,0.26,0,0,1,.07.18,4.23,4.23,0,0,0-.84.75q-0.35.42-.77,0.87a13,13,0,0,0-.84,1.31,7.51,7.51,0,0,0-.64,1.61q-1.34,2-2.52,4A27.43,27.43,0,0,0,34,39.81a2,2,0,0,0-.43.73,4,4,0,0,1-.37.79l-0.47,1.91a11.48,11.48,0,0,0-.29,2c0,0.45,0,.77.07,1s0.06,0.34.08,0.46a2.53,2.53,0,0,0,.11.37,2.82,2.82,0,0,1,.09.74q0.34,0.79.68,1.46a3,3,0,0,0,1,1.13,0.14,0.14,0,0,1-.09.16c-0.06,0,0,.07,0,0.15a0.17,0.17,0,0,1,.25,0,0.22,0.22,0,0,0,.25,0c0,0.08,0,.12-0.06.13s-0.06,0-.06.13a0.91,0.91,0,0,1,.78.06,0.88,0.88,0,0,0,.66.13,1.26,1.26,0,0,0,1.08-.14,1.61,1.61,0,0,1,1.08-.26l0.37,0a0.51,0.51,0,0,0,.37-0.14,0.31,0.31,0,0,1,.31-0.08,0.51,0.51,0,0,1,.37,0c0.28-.14.55-0.25,0.79-0.34a2.33,2.33,0,0,1,.74-0.16q0.91-.41,1.67-0.79t1.61-.85l0.78-.59,1.26-1q0.66-.53,1.29-1t0.87-.66A5.62,5.62,0,0,1,50,43.95a3.59,3.59,0,0,0,1-1.22,1.28,1.28,0,0,1,.39-0.3A1.3,1.3,0,0,0,51.9,42q0.47-.7.91-1.28l1-1.28a0.71,0.71,0,0,0-.17-0.27q-0.1-.09.08-0.28s0-.08-0.07-0.12a0.12,0.12,0,0,1-.07-0.18c-0.16.09-.18,0.17-0.05,0.25s0.13,0,0-.19a2.25,2.25,0,0,1-.56,0V38.49c-0.17-.16-0.26-0.17-0.25-0.05q-0.48.52-.92,0.94a7.64,7.64,0,0,1-.93.76l-1.68,1.38q-0.12.13-.63,0.56t-1.14.86l-1.17.83a3.1,3.1,0,0,1-.79.47A19.44,19.44,0,0,0,43,45.37a11.31,11.31,0,0,1-2.5,1,7.67,7.67,0,0,0-1.16.42,6.73,6.73,0,0,1-1.29.43,0.9,0.9,0,0,0-.46,0,0.47,0.47,0,0,1-.34,0,2.27,2.27,0,0,0-.72-0.09,0.35,0.35,0,0,1-.36-0.42,0.91,0.91,0,0,1,0-.59,2.16,2.16,0,0,0,.25-0.6,3.33,3.33,0,0,1,.36-1,2.61,2.61,0,0,0,.3-1,1.54,1.54,0,0,0,.46-0.92,0.83,0.83,0,0,1,.59-0.74,0.29,0.29,0,0,0,.25,0l0.31,0s0,0.07,0,.09,0,0,0,0c0.17,0.16.3,0.18,0.38,0.08a0.34,0.34,0,0,1,.24-0.17,0.74,0.74,0,0,1,.56.1ZM28.82,35.13c0.08,0,.1,0,0.06,0s0,0.06,0,.06,0,0.06-.12.07,0-.12.06-0.13M30,30.92a0.15,0.15,0,0,1-.08.25,1,1,0,0,0-.25-0.05c0-.08,0-0.13,0-0.16a0.16,0.16,0,0,0,.06-0.16c0,0.12.1,0.13,0.16,0s0-.16,0-0.15,0-.05.06,0,0,0,0-.09,0.11,0,.1.09,0,0.07.09,0q-0.12,0-.12,0s0,0,.13,0c-0.12,0-.15.07-0.09,0.19M31,7.52a3.46,3.46,0,0,1,.21-0.85q0,0.38-.12.87a4.4,4.4,0,0,1-.18.81c0-.29.06-0.57,0.09-0.84M31.15,6a1.28,1.28,0,0,0,.16-0.6,0.18,0.18,0,0,1,.13.06,1.53,1.53,0,0,1-.07.47,1.68,1.68,0,0,0-.07.53C31.08,6.4,31,6.25,31.15,6M30,30.15s0-.07.12-0.16c-0.16,0-.21-0.05-0.13-0.18l0.35-1.88q0.15-.81.29-1.87a0.2,0.2,0,0,1-.13-0.18,0.56,0.56,0,0,0-.07-0.24,0.25,0.25,0,0,1,.05-0.19,0.25,0.25,0,0,0,.05-0.19,0.92,0.92,0,0,0,0-.59,1.42,1.42,0,0,1,0-.72q0.11-.38.18-0.78A5,5,0,0,1,31,22.32q0.09-.81.24-1.65t0.24-1.72c0.06-.54.1-1.07,0.12-1.59a8.33,8.33,0,0,1,.24-1.65,2.87,2.87,0,0,1-.2-1.67,4,4,0,0,0,0-1.55A16.58,16.58,0,0,1,31.54,15q-0.13,1.22-.32,2.71a0.51,0.51,0,0,0,.05-0.25,6.16,6.16,0,0,0,.06-0.69q0-.37,0-0.71a0.41,0.41,0,0,0-.08-0.34,17.11,17.11,0,0,1,.42-2.53,17.3,17.3,0,0,0,.42-2.53,8.44,8.44,0,0,1,.05-0.93c0-.46.09-0.93,0.16-1.43s0.11-1,.16-1.37a7.24,7.24,0,0,0,.06-0.81,1.43,1.43,0,0,0,.06-0.84,0.68,0.68,0,0,0-.24.26,0.66,0.66,0,0,1-.24.26A1.42,1.42,0,0,1,32.15,5,0.25,0.25,0,0,1,32,4.9a0.15,0.15,0,0,0-.19,0c-0.21,0-.31.08-0.3,0.2a0.25,0.25,0,0,1-.11.25,0.15,0.15,0,0,1-.1-0.18c0-.08-0.06-0.12-0.22-0.11a0.25,0.25,0,0,0-.18.07l-0.18.19a2.67,2.67,0,0,1-.21.88,5.59,5.59,0,0,0-.28.76,9,9,0,0,0-.27,1c-0.07.33-.14,0.63-0.21,0.88q-0.27.88-.5,1.94a17,17,0,0,0-.32,1.94,3.79,3.79,0,0,0-.08.94,3.88,3.88,0,0,1-.08.93,8.37,8.37,0,0,1-.14,1l-0.2,1a32.73,32.73,0,0,0-.61,5.27,26,26,0,0,1-.46,4.4q-0.1.56-.26,1.16c-0.11.4-.22,0.76-0.32,1.1q-0.26,1.13-.42,1.76a10.24,10.24,0,0,0-.23,1.16c0,0.35-.09.75-0.13,1.18s-0.11,1.07-.2,1.9a27.89,27.89,0,0,1-6-.24q-2.84-.43-5.83-0.61c0-.08,0,0-0.05.22s-0.07.5-.12,0.81-0.09.59-.12,0.84,0,0.33-.05.25l0.11-.25,0.11-.25a1.11,1.11,0,0,0,.1-0.5,1.37,1.37,0,0,1,0-.44L14,34.07a1.34,1.34,0,0,1,.14-0.29,1.14,1.14,0,0,0,.07-0.56,1.73,1.73,0,0,1,0-.56,3.07,3.07,0,0,0,.4-1.38q0.06-.81.08-1.62c0.07-.21.14-0.42,0.19-0.63A2.15,2.15,0,0,0,15,28.41a12.21,12.21,0,0,1,.29-1.94,14.93,14.93,0,0,0,.3-1.63c0.08,0,.11,0,0.09-0.1a0.13,0.13,0,0,1,.09-0.16q0.2-1.06.37-2.25a9.36,9.36,0,0,0,.06-2.24,1.31,1.31,0,0,0,.18-0.85c0-.31-0.06-0.63-0.07-1s0.06-.43.1-0.66,0.06-.45.1-0.65a0.17,0.17,0,0,0,0-.22c-0.07-.06-0.08-0.11,0-0.15a2.67,2.67,0,0,1,.13-0.53,0.53,0.53,0,0,0-.18-0.52,1.49,1.49,0,0,0,.1-0.53,1.91,1.91,0,0,1,0-.47,12.59,12.59,0,0,1-.1-1.52,11.68,11.68,0,0,0-.09-1.45,4.28,4.28,0,0,0-.13-0.83c-0.07-.31-0.14-0.62-0.2-1a3.11,3.11,0,0,1-.19-0.71,5.76,5.76,0,0,0-.19-0.83,1,1,0,0,1,.07-0.44,0.47,0.47,0,0,0,0-.37c-0.07-.53-0.12-1-0.16-1.54a3.82,3.82,0,0,0-.4-1.41,8.32,8.32,0,0,0-.8-1.27,2.65,2.65,0,0,0-1.22-.88,1.87,1.87,0,0,0-2-.66,2.07,2.07,0,0,0-1.28.58,6.1,6.1,0,0,0-.77.93,0.27,0.27,0,0,1,0,.13,0.44,0.44,0,0,0,0,.19,1.78,1.78,0,0,0-.31.76,3.35,3.35,0,0,1-.24.82,0.91,0.91,0,0,0-.07.53,0.94,0.94,0,0,1-.07.53A2.42,2.42,0,0,0,8,7.06a0.33,0.33,0,0,0,0,.28,0.33,0.33,0,0,1,0,.28Q8,8.3,7.91,8.93T7.8,10.11a3.77,3.77,0,0,1,.15.61,4,4,0,0,0,0,.87,5.27,5.27,0,0,0,.06.59,0.75,0.75,0,0,1-.25.6,0.13,0.13,0,0,1,.1.15,0.22,0.22,0,0,0,.1.21,0.42,0.42,0,0,0-.11.31c0,0.12,0,.27,0,0.43-0.07.34-.13,0.67-0.17,1s-0.08.67-.11,1a1.73,1.73,0,0,0,0,.56,1.36,1.36,0,0,1,0,.5q0,0.31-.15.81a1.89,1.89,0,0,0,0,.59,1.23,1.23,0,0,1-.07.59,0.26,0.26,0,0,1-.05.19,0.18,0.18,0,0,0-.06.13l0,0.81q-0.08,1.06-.1,1.87A16.91,16.91,0,0,1,7,23.74c0,0.29-.07.58-0.12,0.87s-0.11.58-.18,0.88a3.72,3.72,0,0,1,0,.53c0,0.15,0,.32-0.07.53a3.1,3.1,0,0,1-.06.75,2.84,2.84,0,0,0-.06.69L6.3,29.6q-0.09.81-.18,1.56T6,32.41a5.66,5.66,0,0,1-.1.59c0,0.15-.07.32-0.1,0.53s-0.1.58-.2,1.13a11.05,11.05,0,0,0-1.35.4c-0.45.17-.86,0.3-1.22,0.4a0.59,0.59,0,0,1-.33.26,0.38,0.38,0,0,0-.27.26Q3,35.64,3.6,35.33A2.46,2.46,0,0,1,5,35.12q-1.1.36-2.17,0.81t-2.1,1a1.09,1.09,0,0,0-.46.7,0.55,0.55,0,0,1,.16.24c0,0.08.06,0.18,0.11,0.31a0.61,0.61,0,0,1,.5,0,1.06,1.06,0,0,1-.24.17l-0.27.14a0.8,0.8,0,0,0,.4,0c0.12,0,.13,0,0,0.12s-0.14.15-.05,0.19L0.69,39l0.18-.19s0,0,0,.06a0.92,0.92,0,0,1,.46-0.11,0.93,0.93,0,0,0,.4,0,3.93,3.93,0,0,0,1.59-.63A3.59,3.59,0,0,1,5,37.54q0,1.12-.16,2.77T4.52,43.73q-0.2,1.78-.31,3.52a20,20,0,0,0,0,3,0.28,0.28,0,0,0,0,.28,0.21,0.21,0,0,1,0,.28,1.34,1.34,0,0,1,.12.68q0,0.43,0,.75a18.15,18.15,0,0,0,.89,4.12,12.61,12.61,0,0,0,1.8,3.46,4.52,4.52,0,0,1,.58.5,2,2,0,0,1,.4.57,4.28,4.28,0,0,1,.38.26,0.74,0.74,0,0,1,.27.39C8.84,61.45,9,61.41,9,61.47a1.89,1.89,0,0,0,.29.2,0.26,0.26,0,0,1,0-.28,0.7,0.7,0,0,0,.14-0.29,0.41,0.41,0,0,0,.4-0.2,0.48,0.48,0,0,1,.33-0.26c0.08,0,.13,0,0.13.09s0,0.07.13,0a0.61,0.61,0,0,1,0-.25,0.9,0.9,0,0,0,0-.37c0.08,0,.13,0,0.16.06s0.08,0.1.16,0.06a1.23,1.23,0,0,1-.09-0.68,2.29,2.29,0,0,0,0-.74,1,1,0,0,0,0-.25c0-.08,0-0.15.15-0.19a1.9,1.9,0,0,1,.44.1,1,1,0,0,1,.26.17,0.89,0.89,0,0,0-.15-0.49,0.75,0.75,0,0,1-.14-0.43,0.38,0.38,0,0,1,.15-0.1,0.14,0.14,0,0,0,.09-0.16,1.06,1.06,0,0,1-.09-0.62,1.08,1.08,0,0,0-.09-0.62c0.12,0,.18,0,0.18-0.07a3,3,0,0,1-.11-1,3.51,3.51,0,0,0-.11-1.08A0.05,0.05,0,0,1,11.21,54,0.06,0.06,0,0,0,11.27,54a0.29,0.29,0,0,1-.1-0.27,2.25,2.25,0,0,0,0-.4,0.7,0.7,0,0,0,0-.21,0.28,0.28,0,0,1,0-.22s0-.12.05-0.25a1.82,1.82,0,0,0-.06-0.74,1.3,1.3,0,0,1,0-.74,0.28,0.28,0,0,1,0-.28,0.56,0.56,0,0,0,.08-0.28,3.26,3.26,0,0,0,0-.62l0.2-1q0.15-.78.27-1.66T12,45.61q0.09-.75.14-1a2.69,2.69,0,0,1,.1-0.47,0.93,0.93,0,0,0,0-.34q0.1-.62.13-1.22a5.38,5.38,0,0,1,.2-1.16,2.26,2.26,0,0,1,.16-0.69,0.66,0.66,0,0,0,0-.56A2.63,2.63,0,0,0,13,38.86a6.62,6.62,0,0,1,.15-1.5c0.12-.13.18-0.17,0.18-0.13s-0.17,0-.13-0.12A2.75,2.75,0,0,1,13.73,37,1.94,1.94,0,0,0,14.19,37a14.66,14.66,0,0,1,2.55.11l2.56,0.35,2.9,0.28a27.9,27.9,0,0,0,3.08.15l0,0.37c-0.5,0-.93-0.05-1.31-0.1a4.87,4.87,0,0,0-1.24,0H23a5.88,5.88,0,0,0,1.15.11q0.65,0,1.15,0a11.3,11.3,0,0,1-.07,3.32q-0.28,1.47-.49,3.59l-0.15,1.5q-0.11,1.06-.25,2.21t-0.28,2.18q-0.14,1-.18,1.47a7.85,7.85,0,0,0,.24,2.75,8.79,8.79,0,0,1,.3,2.69c0,0.25,0,.53,0,0.84a2.09,2.09,0,0,0,.16.77c0.09,0.16.16,0.29,0.2,0.39s0.09,0.19.14,0.27a2.3,2.3,0,0,0,.47.73,1.43,1.43,0,0,1,.36-0.39,0.39,0.39,0,0,1,.42.42,0.88,0.88,0,0,0,.12.55c0.08,0,.1,0,0.06-0.09a0.2,0.2,0,0,1,0-.22,2.68,2.68,0,0,1,0-.4,0.58,0.58,0,0,0,0-.34A0.43,0.43,0,0,0,26.55,60a0.85,0.85,0,0,1,0-.59A0.34,0.34,0,0,0,27,59.29a4,4,0,0,1,.08-0.9,2.35,2.35,0,0,0,0-.9c0.07-.17.14-0.33,0.2-0.47s0.12-.31.2-0.47l0-.84a3,3,0,0,1,.09-0.84,5.67,5.67,0,0,0,.18-1.53,10.81,10.81,0,0,1,.06-1.52q0-.25.17-1.16t0.23-1.93q0.11-1,.2-1.9t0.13-1.18q0.22-1.93.27-3.83T28.88,38a0.47,0.47,0,0,0,.37,0,0.24,0.24,0,0,1,.31,0,11.18,11.18,0,0,1,1.63-.44,4.82,4.82,0,0,0,1.44-.5q-0.86.22-1.87,0.55a4.66,4.66,0,0,1-1.88.24,0.28,0.28,0,0,1,.33-0.17l0.34,0,1.78-.42q1.11-.26,1.78-0.48l0.06-.06a8.41,8.41,0,0,0,.88-0.35l0.49-.24L35,35.86l0.79-.47c-0.17-.12-0.23-0.19-0.16-0.21s0-.13,0-0.34c0.12-.13.14-0.22,0.08-0.28a0.75,0.75,0,0,0-.26-0.14,0.71,0.71,0,0,1-.25-0.14c-0.06-.06,0-0.15.08-0.28C35,34,35,34.06,35,34.05l0.34,0a0.58,0.58,0,0,0,.33-0.17q0.12-.13-0.2-0.24a0.77,0.77,0,0,0-.35-0.26l-0.44-.14a2,2,0,0,1-.35-0.11c-0.09,0-.09-0.1,0-0.18q-0.86.16-1.38,0.31l-1,.26-1,.23L29.76,34a0.8,0.8,0,0,0,0-.62,2.18,2.18,0,0,1,.07-0.53s0,0,0,0v0.09l0-.4q-0.1.56-.15,0.75t0,0.75a0.15,0.15,0,0,0-.18,0,0.25,0.25,0,0,1-.18.07c0-.16,0-0.15-0.06,0s-0.08.41-.13,0.66L29,35.44c0,0.17,0,.19,0,0.06a7.58,7.58,0,0,0,.29-1.94,6.72,6.72,0,0,1,.29-1.87,0.18,0.18,0,0,1,.09-0.07,0.17,0.17,0,0,0,.09-0.07l-0.07-.12h0.12a0.26,0.26,0,0,0-.07-0.18s0-.06.06-0.06,0,0.05.09,0a0.13,0.13,0,0,1,.16.09c0,0.08,0,.11-0.15.07s-0.11,0,0,.06a0.1,0.1,0,0,0,.09-0.07s0,0,0,.06a1.42,1.42,0,0,1-.1.59,0.46,0.46,0,0,0,0,.47,7.13,7.13,0,0,0,.36-1.82s0.08,0,.12-0.13,0-.17-0.07-0.12v0.12c0-.12-0.07-0.14-0.19-0.05s-0.18.07-.19-0.05,0-.1.15-0.07,0.2,0,.15-0.07S30,30.24,30,30.24s0,0-.18.07C30,30.22,30,30.17,30,30.15" transform="translate(-0.25 -1.66)"/></svg>