<svg id="Layer_1" data-name="Layer 1" xmlns="http://www.w3.org/2000/svg" viewBox="0 0 76.81 58.95"><defs><style>.cls-1{fill:#082432;}</style></defs><title>Plot9</title><path class="cls-1" d="M62.9,28.67A0.94,0.94,0,0,1,62,28.59,1.69,1.69,0,0,0,62,27.84,2,2,0,0,1,62.09,27l0.11-.38,0.11-.38c0-.21.05-0.43,0.06-0.65A2.26,2.26,0,0,1,62.49,25a1.14,1.14,0,0,0,.11-0.32V24.41a0.1,0.1,0,0,1,.06-0.1,0.1,0.1,0,0,0,.06-0.1V23.9a6.11,6.11,0,0,1,.17-1.09q0.13-.53.23-1.1l0-.49a0.88,0.88,0,0,0,0-.37c0.07-.33.13-0.66,0.17-1A4.53,4.53,0,0,1,63.54,19a0.36,0.36,0,0,1,.11-0.25,7.24,7.24,0,0,1,.24-0.82l0.25-.69c0-.33.06-0.66,0.11-1a2.44,2.44,0,0,1,.24-0.82,3,3,0,0,1,.06-1.52,5.07,5.07,0,0,0,.26-1.22A0.94,0.94,0,0,0,65,12.45a0.33,0.33,0,0,1,.15-0.13q0.21-.75.4-1.44t0.34-1.44A0.39,0.39,0,0,0,66,9.21a0.62,0.62,0,0,1,.24-0.29,0.78,0.78,0,0,1,.25-0.66,1.25,1.25,0,0,0,.38-0.54,2.06,2.06,0,0,1,.31-0.79,6.33,6.33,0,0,1,.5-0.61,0.5,0.5,0,0,0,.4-0.2,0.76,0.76,0,0,1,.33-0.26,0.47,0.47,0,0,1,.44.07l0.38,0.26a5.84,5.84,0,0,0,.6,1.06,9.26,9.26,0,0,0,.79.93,3.26,3.26,0,0,1,.34.7,4.09,4.09,0,0,0,.41.82l0.3,0.55q0.17,0.3.31,0.61a4.16,4.16,0,0,1,.24.52,1.7,1.7,0,0,1,.12.52,1,1,0,0,1,0,.59c-0.07.23-.15,0.45-0.22,0.66A15.79,15.79,0,0,0,71.77,15q-0.11,1-.26,1.9c-0.14.59-.27,1.19-0.39,1.82a17.68,17.68,0,0,0-.25,2,0.69,0.69,0,0,0,0,.31,0.69,0.69,0,0,1,0,.31c-0.07.33-.12,0.56-0.16,0.69a1.51,1.51,0,0,1-.35.51q-0.29.39-.59,0.8a7.19,7.19,0,0,1-.59.74q-0.54.52-1,.91a9.23,9.23,0,0,0-1,.91,8.84,8.84,0,0,0-.92.88,4.14,4.14,0,0,1-1.05.82q-0.31.14-.61,0.31l-0.67.37-1,.42M73.35,7.74a1,1,0,0,0-.2-0.24,1.07,1.07,0,0,0-.24-0.42,1.09,1.09,0,0,1-.24-0.49,1,1,0,0,1-.14-0.46,0.57,0.57,0,0,0-.2-0.4,2.42,2.42,0,0,0-.61-1.15,2.45,2.45,0,0,1-.61-1.22A2.17,2.17,0,0,1,70.56,3l-0.49-.48a1.49,1.49,0,0,1-.47-0.13,0.76,0.76,0,0,0-.41-0.08,1,1,0,0,0-.56.06,1.59,1.59,0,0,1-.55.12,0.41,0.41,0,0,1-.19,0l-0.12,0a2,2,0,0,0-.49.08l-0.55.15a0.67,0.67,0,0,1-.22,0,0.29,0.29,0,0,0-.22,0,1.78,1.78,0,0,0-.79.31,3,3,0,0,1-.6.37,1.65,1.65,0,0,1-.4.17,0.55,0.55,0,0,0-.27.17,2.19,2.19,0,0,1-.41.55l-0.42.42a11.65,11.65,0,0,0-1.06,1.19Q61.87,6.44,61.4,7q-0.81,1.46-1.49,2.92l-1.36,2.91q-0.39,1-.69,2a19.79,19.79,0,0,1-.69,2c-0.1.46-.2,0.92-0.28,1.38a11.68,11.68,0,0,1-.34,1.38,15.77,15.77,0,0,1-.3,2.28Q56,23,55.75,24.05t-0.43,2.19a11.53,11.53,0,0,0-.12,2.27,10.93,10.93,0,0,0,0,1.4,8.67,8.67,0,0,0,.21,1.26,0.69,0.69,0,0,0,.08.31,0.4,0.4,0,0,1,0,.31,9,9,0,0,0,1.22,1.72,2.5,2.5,0,0,0,2.17.62,1.15,1.15,0,0,0,.68,0,1,1,0,0,0,.24-0.07l0.31-.14a0.33,0.33,0,0,0,.15-0.13,0.34,0.34,0,0,1,.15-0.13A1.6,1.6,0,0,1,61,33.53a4,4,0,0,0,.65-0.09,2.83,2.83,0,0,0,1.43-.68A3.88,3.88,0,0,1,64.6,32c0.2,0,.42-0.09.65-0.12a2.29,2.29,0,0,0,.64-0.18,4.88,4.88,0,0,0,1-.54,3.47,3.47,0,0,1,1-.48,2.68,2.68,0,0,1,.65-0.71,5.89,5.89,0,0,0,.72-0.65,3.73,3.73,0,0,0,.38-0.51,0.47,0.47,0,0,1,.58-0.21q-0.3,1.63-.57,3.28t-0.44,3.34Q69,37,69,39a34.42,34.42,0,0,0,.2,3.87q0.11,1.11.19,2.23t0.19,2.16a14.25,14.25,0,0,0,.65,2.89q0.46,1.34,1,2.69a2.08,2.08,0,0,1,.4.73,0.72,0.72,0,0,1,.44.2,1.06,1.06,0,0,0,.44.26,0.43,0.43,0,0,1,.36-0.39,1.63,1.63,0,0,0-.08-0.49,0.26,0.26,0,0,0,.3-0.29,1.46,1.46,0,0,1,0-.47c0.16,0,.25-0.05.24-0.13s-0.09,0,0-.09a0.21,0.21,0,0,0,0-.28l0.12-.13a0.17,0.17,0,0,1,0-.25,0.25,0.25,0,0,0,0-.31,0.48,0.48,0,0,0,.08-0.41,0.39,0.39,0,0,1,.14-0.41,0.38,0.38,0,0,1,.33.42,0.56,0.56,0,0,0,.21.49A0.66,0.66,0,0,0,74,50.93a0.3,0.3,0,0,1,0-.34c0-.08,0-0.1.09-0.07s0.09,0,.09-0.07a2.65,2.65,0,0,0,0-.71A1.17,1.17,0,0,1,74.34,49q0-.68,0-1.43a8.67,8.67,0,0,1,.1-1.37s0.06-.06.18-0.07a2.23,2.23,0,0,0,0-.37,0.33,0.33,0,0,1,.08-0.31s-0.06,0-.07-0.15,0-.14.12-0.1a0.35,0.35,0,0,1,0,.25,0.26,0.26,0,0,0,.1.24q0-.49-0.08-1.05c0-.37-0.06-0.74-0.08-1.11s-0.1-.51-0.16-0.8a3,3,0,0,1,0-.87c0-.29,0-0.57.06-0.84a3.12,3.12,0,0,1,.12-0.78,7.25,7.25,0,0,0,0-.87,2.9,2.9,0,0,1,.09-0.81,7.16,7.16,0,0,0,.1-1.15A5.6,5.6,0,0,1,75,36.34a4.16,4.16,0,0,0,.35-1.26c0-.42.1-0.83,0.16-1.25a5.88,5.88,0,0,1,.26-1.13q0.11-.38.19-0.72a6.45,6.45,0,0,0,.12-0.78,5.39,5.39,0,0,0,.19-0.69c0.05-.25.09-0.48,0.13-0.69q0.1-.56.17-1.09t0.17-1.15a8,8,0,0,0,.14-1.09A7.74,7.74,0,0,1,77,25.39a2.38,2.38,0,0,0,.13-0.69A2.28,2.28,0,0,1,77.29,24a3.41,3.41,0,0,0,0-.65,1.25,1.25,0,0,1,.16-0.66,6.78,6.78,0,0,1,.09-1.46q0.12-.72.22-1.41a1.94,1.94,0,0,0,0-.47,2,2,0,0,1,0-.47c0.06-.46.13-0.9,0.19-1.34s0.13-.88.19-1.34a4.48,4.48,0,0,0,.11-1,5.46,5.46,0,0,1,.11-1c0.07-.33.13-0.69,0.17-1.06A2.91,2.91,0,0,0,78.56,12a8.17,8.17,0,0,0,.14-1.71,10.6,10.6,0,0,0-.17-1.82,0.7,0.7,0,0,0-.07-0.31A0.55,0.55,0,0,1,78.38,8a3,3,0,0,1-.07-0.77,1.91,1.91,0,0,1,.12-0.72,0.79,0.79,0,0,1,0-.19,0.35,0.35,0,0,0,0-.25,0.49,0.49,0,0,0-.05.22,0.1,0.1,0,0,1-.12.1c0-.21,0-0.42,0-0.65a1.3,1.3,0,0,1,.1-0.59,0.47,0.47,0,0,0-.18.16,0.28,0.28,0,0,1-.24.1,2.22,2.22,0,0,0,0-.37A3,3,0,0,1,77.8,4.5a2.06,2.06,0,0,1,0-.5,0.31,0.31,0,0,0-.14-0.37,1.39,1.39,0,0,0-.43.08,0.4,0.4,0,0,0,0,.31,0.28,0.28,0,0,1,0,.31,0.15,0.15,0,0,1-.1-0.18,0.36,0.36,0,0,0,0-.25,1.18,1.18,0,0,0-.62,0c0-.08,0-0.14,0-0.16s0-.07,0-0.15a0.17,0.17,0,0,1-.25-0.08A0.2,0.2,0,0,0,76,3.34a0.36,0.36,0,0,0-.34,0l-0.21.23a3.08,3.08,0,0,0-.53.71c-0.15.34-.3,0.7-0.45,1.08a6.5,6.5,0,0,0-.33,1.07,1.79,1.79,0,0,0-.31.79,1.35,1.35,0,0,1-.31.73,0.91,0.91,0,0,1-.2-0.24M56.27,50.59c0-.06,0-0.09.09-0.1a0.28,0.28,0,0,0,.24-0.1,0.2,0.2,0,0,1,.18-0.1c0.16-.09.34-0.18,0.55-0.27a0.76,0.76,0,0,0,.42-0.45,2,2,0,0,1,.2-0.44,1.66,1.66,0,0,0,.19-0.57A5.32,5.32,0,0,0,58.22,47a2.84,2.84,0,0,0-.4-1.38,2.88,2.88,0,0,0-.52-0.47,3.4,3.4,0,0,0-.7-0.34,2.6,2.6,0,0,1-.62.09,1.84,1.84,0,0,0-.68.15c0,0.12,0,.19-0.12.19a2.82,2.82,0,0,0-1.28,1.14,2.6,2.6,0,0,0-.32,1.85,1.33,1.33,0,0,0,.12.52,2.8,2.8,0,0,1,.18.52,2,2,0,0,0,.24.64,2,2,0,0,1,.24.58h0.25a0.35,0.35,0,0,1,.24-0.26,0.33,0.33,0,0,1,.2.24,0.35,0.35,0,0,0,.14.24,0.18,0.18,0,0,0,.15-0.19,0.17,0.17,0,0,1,.15-0.19,0.29,0.29,0,0,1,.32.2,0.43,0.43,0,0,0,.38.26,0.13,0.13,0,0,0,.09-0.16M49.73,39.92a11.29,11.29,0,0,1,.16-1.4q0.12-.72.21-1.71a0.08,0.08,0,0,0,.12,0,0.08,0.08,0,0,1,.12,0Zm-2.28,1.15a3.74,3.74,0,0,1-.3,1.07q-0.23.51-.45,1t-0.52,1a8.45,8.45,0,0,0-.26,1,2.15,2.15,0,0,1-.4.92,1,1,0,0,0-.24.2l-0.24.26c-0.08,0-.12.06-0.12,0s0,0-.06,0a0.05,0.05,0,0,1-.06-0.06,3.62,3.62,0,0,1-.77.93,7.71,7.71,0,0,0-.89.94,3.4,3.4,0,0,1-1,.54q-0.49.15-1.23,0.3l-0.95.29a1.54,1.54,0,0,1-1.09-.14,4,4,0,0,1-.56-0.66,4.5,4.5,0,0,1-.44-0.73V47.64a3.57,3.57,0,0,0-.14-0.4L37.57,47a0.67,0.67,0,0,1,0-.22,0.7,0.7,0,0,0,0-.22,4.16,4.16,0,0,0-.05-0.5,4.27,4.27,0,0,1-.06-0.56,2.28,2.28,0,0,0,.11-1,1.92,1.92,0,0,1,.12-0.91,3.93,3.93,0,0,0,0-.75,5.15,5.15,0,0,1,.5-1.32q0.34-.64.69-1.33l0.64-1A5.55,5.55,0,0,0,40.15,38l0.24-.26a0.72,0.72,0,0,0,.1-0.5,1,1,0,0,0,.69-0.65,7.63,7.63,0,0,1,.48-1A2.53,2.53,0,0,1,42,35.24a2.45,2.45,0,0,0,.29-0.39,2.72,2.72,0,0,0,.25-0.63,1.77,1.77,0,0,1,.25-0.57,3.38,3.38,0,0,1,.72.74,2.88,2.88,0,0,0,.65.69,0.92,0.92,0,0,0,.64.41,0.5,0.5,0,0,0,.38.11l0.64,0.5a0.78,0.78,0,0,0,.69.19,5,5,0,0,0,.82.34,2,2,0,0,0,1,.08,1.46,1.46,0,0,1-.06.84,5.77,5.77,0,0,0-.31.79,8.4,8.4,0,0,0-.14,1,3.39,3.39,0,0,1-.21.91q0,0.31-.12.87m-1.33-10a2.58,2.58,0,0,1,.08.52L46.53,32a0.58,0.58,0,0,1,.17.33,1.52,1.52,0,0,0,.17.46,3.93,3.93,0,0,0,.33.39,1.77,1.77,0,0,1,.33.58v0.12a0.28,0.28,0,0,1-.31.08l-0.31-.11a2.36,2.36,0,0,1-1-.61,5.15,5.15,0,0,1-.79-1,1.3,1.3,0,0,1,0-.84,0.86,0.86,0,0,1,.63-0.62,0.43,0.43,0,0,1,.39.33M58.5,31.91a0.56,0.56,0,0,0-.28.1l-0.36.26a0.52,0.52,0,0,1-.52.05,2.43,2.43,0,0,1-.94.57q-0.64.25-1.68,0.6a2,2,0,0,1-.74.19c-0.33,0-.68.06-1.05,0.08s-0.73,0-1.09,0H51a0.92,0.92,0,0,1-.28,0,0.73,0.73,0,0,0-.34,0,0.6,0.6,0,0,1-.16-0.21A0.14,0.14,0,0,0,50,33.52a1.38,1.38,0,0,0-.15-0.61,0.68,0.68,0,0,1-.08-0.31,0.43,0.43,0,0,0-.14-0.3c0.05,0.2.11,0.42,0.18,0.64a2.46,2.46,0,0,1,.12.65,0.25,0.25,0,0,1-.26-0.21A1.32,1.32,0,0,1,49.62,33q-0.14-.37-0.28-0.76a3.25,3.25,0,0,0-.34-0.7,0.68,0.68,0,0,1-.49-0.51,5,5,0,0,0-.25-0.7,2.58,2.58,0,0,0-.3-0.51,1,1,0,0,1-.18-0.58L47.33,29a0.17,0.17,0,0,0,.05-0.22,0.29,0.29,0,0,1-.07-0.15A0.37,0.37,0,0,1,47,28.53a0.21,0.21,0,0,0-.19-0.09,0.31,0.31,0,0,1,0,.5,0.2,0.2,0,0,1-.25,0,0.21,0.21,0,0,0-.19-0.08,0.18,0.18,0,0,0-.12.16c0,0.06,0,.09-0.12.1a0.56,0.56,0,0,0-.66-0.16,0.84,0.84,0,0,1-.72,0,4.51,4.51,0,0,0-.56.58,0.53,0.53,0,0,1-.77.1,1.2,1.2,0,0,0-.2.32,0.26,0.26,0,0,1-.21.2,1.7,1.7,0,0,0-.13-0.86,2.89,2.89,0,0,0-.43-0.66,7.3,7.3,0,0,0-1.05-.64,1.29,1.29,0,0,0-1.33.06,0.05,0.05,0,0,1-.06.06H39.91a7.25,7.25,0,0,0-1.05.79l-1,.91A11.14,11.14,0,0,0,37,30.89q-0.38.54-.84,1.25a23.54,23.54,0,0,0-2.73,4.93,16.21,16.21,0,0,0-1.25,6.11v0.06a5.46,5.46,0,0,1,0,.59,1.57,1.57,0,0,1-.13.53q0.15,0.49.26,1c0.08,0.33.14,0.66,0.2,1l0,0.43L32.73,47a23.54,23.54,0,0,1,.88,2.35,2.94,2.94,0,0,0,1.54,1.83,7.92,7.92,0,0,0,1.26,1.25,3.52,3.52,0,0,0,1.68.73,1.63,1.63,0,0,0,1,0A3.81,3.81,0,0,1,40,53a0.13,0.13,0,0,1,.09,0,0.12,0.12,0,0,0,.09,0,2.49,2.49,0,0,0,1.47-.4A4.09,4.09,0,0,1,43,52.07a2.8,2.8,0,0,1,.72-0.56A2.89,2.89,0,0,0,44.44,51a1,1,0,0,1,.47-0.58,1.94,1.94,0,0,1,.3-0.26,1.1,1.1,0,0,0,.3-0.32l0.14-.32a3.18,3.18,0,0,1,.2-0.38,1.74,1.74,0,0,0,.25-0.6,6,6,0,0,1,.19-0.66A6,6,0,0,1,47,46.78a6.08,6.08,0,0,0,.67-1.05A4.66,4.66,0,0,0,47.81,45a4.65,4.65,0,0,1,.24-0.88v0.12a0.05,0.05,0,0,1-.06.06l0.29-.51a1.4,1.4,0,0,0,.17-0.44,2.63,2.63,0,0,0,.45-1.08c0-.08,0-0.13,0-0.12s0,0,0-.13a4.54,4.54,0,0,1,.33-1.07,10.22,10.22,0,0,0,.39-1,2,2,0,0,1-.15.72,1.19,1.19,0,0,0-.1.59A13.12,13.12,0,0,0,50,39.07q0.15-.91.39-2.34,0.31,0,1.17-.11a16.71,16.71,0,0,0,2-.36,16.1,16.1,0,0,0,2.23-.72,7,7,0,0,0,2-1.17,0.34,0.34,0,0,1,.17-0.26,0.93,0.93,0,0,0,.29-0.39,1.79,1.79,0,0,0,.61-0.83,0.5,0.5,0,0,0-.12-0.61c-0.05-.25-0.12-0.37-0.2-0.36M13.28,23.36a8.14,8.14,0,0,0,.19-2,3.37,3.37,0,0,0,.16-0.66c0-.23.06-0.47,0.09-0.72a11.11,11.11,0,0,0,.09-1.56q0-.87,0-1.55A10.14,10.14,0,0,0,14,15.64a3.48,3.48,0,0,0-.11-1.14A0.72,0.72,0,0,0,14,13.9a2.57,2.57,0,0,1,0-.71,16.6,16.6,0,0,0,.08-1.68,2.71,2.71,0,0,0-.27-1.29,1.21,1.21,0,0,0-.06-0.62A3.43,3.43,0,0,1,13.55,9Q13,8.14,12.49,7.42A9.53,9.53,0,0,0,11.25,6a1.75,1.75,0,0,1-.47-0.17,0.84,0.84,0,0,0-.41-0.11,2.74,2.74,0,0,0-1,0,2.6,2.6,0,0,0-1,.35,0.11,0.11,0,0,0-.09.1,0.29,0.29,0,0,1-.15.16c-0.2.22-.36,0.38-0.48,0.49a1.84,1.84,0,0,0-.35.48A5.53,5.53,0,0,0,6.74,8a1,1,0,0,0-.15.78,1.56,1.56,0,0,0-.27.94,4.11,4.11,0,0,1-.08,1,4.43,4.43,0,0,1-.13.5,4.33,4.33,0,0,0-.13.5A0.68,0.68,0,0,0,6,12a0.71,0.71,0,0,1,0,.22c-0.06.46-.11,0.92-0.16,1.37s-0.09.91-.16,1.37a3,3,0,0,0,0,.59l0,0.59a1,1,0,0,0-.11.44,38.66,38.66,0,0,1-.56,5.73L4.08,28a8.86,8.86,0,0,0-.14.94,9.32,9.32,0,0,1-.15.94c0,0.33-.05.67-0.08,1s-0.05.68-.08,1.06a6.69,6.69,0,0,0-.29,1.87q-0.24,1.63-.42,3.12t-0.24,3a5,5,0,0,0-.09.87,9.61,9.61,0,0,1-.16,1.4,9.48,9.48,0,0,0-.16,1.28q-0.24,3-.35,6.13A36.27,36.27,0,0,0,2.26,56a3.3,3.3,0,0,1,.22.67,1.92,1.92,0,0,0,.28.67c0.21,0,.31,0,0.31.08a0.39,0.39,0,0,0,.14.27,0.63,0.63,0,0,0,.22.15,0.27,0.27,0,0,1,.16.15,0.14,0.14,0,0,1,0,.15,0.13,0.13,0,0,0,.1.15,0.89,0.89,0,0,1,.48.38,0.89,0.89,0,0,0,.48.38,0.59,0.59,0,0,0,.37,0,1.18,1.18,0,0,1,.37-0.08,0.3,0.3,0,0,1,.22.08,0.29,0.29,0,0,0,.22.08A0.5,0.5,0,0,0,6.17,59a0.17,0.17,0,0,1,.25,0,1.15,1.15,0,0,0,.26-0.51,1.75,1.75,0,0,1,.26-0.57,0.85,0.85,0,0,0,.57-0.52,3.36,3.36,0,0,0,.18-0.88c0.08-.09.14-0.09,0.19,0a0.12,0.12,0,0,0,.19.05,1.4,1.4,0,0,1,.13-1.25,0.84,0.84,0,0,1,.2-1c0.08-.09.14-0.1,0.18,0a0.21,0.21,0,0,0,.19.09,2.32,2.32,0,0,0,0-.93,0.81,0.81,0,0,1,.34-0.82,0.2,0.2,0,0,1,0-.22,0.21,0.21,0,0,0,0-.22,3.61,3.61,0,0,0,.34-1.35c0-.52.09-1,0.16-1.4a2,2,0,0,1,0-.5l0.1-.5a2.57,2.57,0,0,0,0-1,3.72,3.72,0,0,1,0-1,1.65,1.65,0,0,0,.15-0.94l0-.56A2.46,2.46,0,0,0,10,44.3,5.9,5.9,0,0,1,10,43.58a6.38,6.38,0,0,1,.17-1q0.13-.53.23-1.1,0.09-.81.19-1.43a12.62,12.62,0,0,0,.13-1.31,0.25,0.25,0,0,0,.14-0.26,0.56,0.56,0,0,1,0-.31c0-.17.07-0.32,0.1-0.47s0.07-.28.11-0.41a1.27,1.27,0,0,1,0-.31,1.21,1.21,0,0,1,.08-0.25,0.75,0.75,0,0,1,.05-0.28c0-.1.07-0.22,0.11-0.35a1.32,1.32,0,0,0,.07-0.62,1.28,1.28,0,0,1,.07-0.62,2.19,2.19,0,0,1,.16-0.57q0.11-.25.22-0.57a13.32,13.32,0,0,1,.91-2q0.52-.92,1.1-1.82a0.92,0.92,0,0,1,.22-0.6l0.48-.42a0.54,0.54,0,0,0,.14-0.28,0.54,0.54,0,0,1,.14-0.29,3,3,0,0,1,.35-0.45,0.78,0.78,0,0,0,.17-0.32,2.38,2.38,0,0,1,.11-0.31,1.61,1.61,0,0,1,.33-0.26l0.39-.26A20.43,20.43,0,0,1,18,23.47q1-1.5,2-3a3.19,3.19,0,0,0,.83-0.84l0.7-1a0.68,0.68,0,0,1,0-.31A0.55,0.55,0,0,0,21.57,18q0.29-.45.61-0.9a10.66,10.66,0,0,0,.61-1A5.52,5.52,0,0,1,23.74,15q0.54-.49,1.07-1a2.59,2.59,0,0,0,.57-0.52A1.49,1.49,0,0,1,26.07,13,15.9,15.9,0,0,1,26,15.89q-0.19,1.37-.44,2.69T25,21.18q-0.29,1.29-.48,2.6a8.4,8.4,0,0,0-.14,1c0,0.31-.08.65-0.14,1q-0.08,1.06-.25,2.06T23.7,29.7q-0.07,1.18-.05,2.3a16.35,16.35,0,0,1-.12,2.24q-0.23,1.75-.47,3.47t-0.47,3.47a25.88,25.88,0,0,0-.34,3q-0.09,1.56-.14,3.11a17.24,17.24,0,0,0,0,3.44,24.64,24.64,0,0,0,.55,3.36q0.15,0.68.24,1.23a3.06,3.06,0,0,0,.35,1,4,4,0,0,0,.54.91l0.72,0.9a6.56,6.56,0,0,0,1.34,1.59,5.61,5.61,0,0,0,2,1,0.26,0.26,0,0,1,.25,0,0.55,0.55,0,0,0,.25.05,1.82,1.82,0,0,0,1,.39,3.64,3.64,0,0,0,1.33-.06,0.28,0.28,0,0,1,.08-0.25,0.48,0.48,0,0,0,.15-0.19,0.51,0.51,0,0,1-.51-0.41,0.68,0.68,0,0,1,.22,0l0.22,0.08a0.26,0.26,0,0,0-.16-0.21,0.12,0.12,0,0,1,0-.22,0.55,0.55,0,0,1,.47,0,0.74,0.74,0,0,0,.47.1,0.76,0.76,0,0,1,.3-0.2,1.61,1.61,0,0,0,.36-0.2,2.76,2.76,0,0,1-.66-0.28,1.36,1.36,0,0,1-.49-0.6c0.21,0,.25-0.07.15-0.19a0.29,0.29,0,0,1-.11-0.31,0.22,0.22,0,0,1,.28,0c0.07,0.08.14,0.08,0.22,0L31.39,58l-0.2-.36a0.2,0.2,0,0,1,.22,0q0.1,0.06.09-.07a0.21,0.21,0,0,0-.16-0.06c-0.06,0-.09,0-0.1-0.12s0.08-.11.12-0.07,0.06,0,.06-0.06-0.16-.07-0.1-0.09A0.14,0.14,0,0,0,31.41,57a0.4,0.4,0,0,1-.08-0.37,2.89,2.89,0,0,0-.59-0.69,1.91,1.91,0,0,1-.53-0.81,2.58,2.58,0,0,1-.13-0.89,5.1,5.1,0,0,0-.07-1,2,2,0,0,0-.08-0.49c0-.16-0.1-0.31-0.14-0.43,0-.37,0-0.76,0-1.15s0-.78,0-1.15a4.47,4.47,0,0,1-.07-0.9q0-.4,0-0.78a3.37,3.37,0,0,0,.16-0.66,1.74,1.74,0,0,0,0-.65,8.7,8.7,0,0,0,.07-2.67q0.15-.81.39-1.82a20.93,20.93,0,0,0,.38-2.06,2.09,2.09,0,0,0,0-.62,2.09,2.09,0,0,1,0-.62,1.3,1.3,0,0,0,.23-0.32,8.52,8.52,0,0,0,0-1.05,11.72,11.72,0,0,1,0-1.18c0-.21.07-0.4,0.1-0.56a2.36,2.36,0,0,0,0-.56,4.76,4.76,0,0,1,0-1.21q0.07-.59.1-1.22a1.13,1.13,0,0,0,.07-0.56,1.73,1.73,0,0,1,0-.56q0.1-.56.2-1.06a4.66,4.66,0,0,0,.07-1.12,7,7,0,0,0,.11-1.12,5.54,5.54,0,0,1,.11-1.06,1,1,0,0,0,.1-0.47,1.94,1.94,0,0,1,0-.47Q32,25.5,32,24.34T32.11,22a2.48,2.48,0,0,1,.07-0.65,2.48,2.48,0,0,0,.06-0.65,0.76,0.76,0,0,0,0-.37,2.55,2.55,0,0,1,0-.43l0.16-1.4a4.18,4.18,0,0,0-.09-1.33q-0.08-.31-0.16-0.71a5.44,5.44,0,0,1-.1-0.83A0.81,0.81,0,0,1,31.78,15a1.07,1.07,0,0,1,.07-0.59,1.65,1.65,0,0,1-.12-0.74A1,1,0,0,0,31.47,13a1.41,1.41,0,0,1,.38-0.48A0.87,0.87,0,0,0,32.17,12q0-.8-1.09-0.76a1.56,1.56,0,0,1-.26-0.33,1.91,1.91,0,0,0-.33-0.39,0.18,0.18,0,0,0-.13-0.06,0.47,0.47,0,0,1-.19-0.05A1,1,0,0,1,29.91,10a0.79,0.79,0,0,0-.2-0.3,0.21,0.21,0,0,0-.16-0.06,0.18,0.18,0,0,1-.16-0.12L29.11,9.3a3,3,0,0,1-.29-0.24,2.38,2.38,0,0,0-1-.36,5.65,5.65,0,0,0-1.33,0,6.06,6.06,0,0,0-1.59.53,5.74,5.74,0,0,0-1.2,1l-0.59.61a5,5,0,0,0-.53.61q-0.48.52-.89,1c-0.28.32-.55,0.63-0.83,0.94l-0.39.33a1.33,1.33,0,0,0-.26.32q-0.53.71-1,1.44t-1,1.44a13.25,13.25,0,0,0-1.22,1.85q-0.52,1-1.1,1.91a8.4,8.4,0,0,0-1.1,1.91,7.65,7.65,0,0,0-.86,1.71c-0.11.21-.23,0.44-0.34,0.67a0.56,0.56,0,0,1-.48.36,11,11,0,0,1,.26-2" transform="translate(-1.89 -2.26)"/></svg>