<svg id="Layer_1" data-name="Layer 1" xmlns="http://www.w3.org/2000/svg" viewBox="0 0 144.75 61.91"><defs><style>.cls-1{fill:#082432;}</style></defs><title>Plot18-19</title><path class="cls-1" d="M130.7,27.71a0.94,0.94,0,0,1-.93-0.08,1.67,1.67,0,0,0,.06-0.75,2,2,0,0,1,.06-0.81l0.11-.38,0.11-.38c0-.21.05-0.43,0.06-0.65a2.3,2.3,0,0,1,.13-0.66,1.08,1.08,0,0,0,.11-0.32V23.44a0.1,0.1,0,0,1,.06-0.1,0.1,0.1,0,0,0,.06-0.1V22.94a6.2,6.2,0,0,1,.17-1.09q0.13-.53.23-1.1l0-.49a0.88,0.88,0,0,0,0-.37c0.07-.33.13-0.66,0.17-1a4.6,4.6,0,0,1,.24-0.91,0.35,0.35,0,0,1,.11-0.25,7.24,7.24,0,0,1,.24-0.82l0.25-.69c0-.33.06-0.66,0.11-1a2.47,2.47,0,0,1,.24-0.82,3,3,0,0,1,.06-1.52,5,5,0,0,0,.26-1.22,0.87,0.87,0,0,0,.15-0.19,0.34,0.34,0,0,1,.15-0.13q0.21-.75.4-1.44t0.34-1.44a0.39,0.39,0,0,0,.18-0.22A0.63,0.63,0,0,1,134.06,8a0.78,0.78,0,0,1,.25-0.66,1.24,1.24,0,0,0,.38-0.54A2.07,2.07,0,0,1,135,6a6.35,6.35,0,0,1,.5-0.61,0.5,0.5,0,0,0,.39-0.2,0.77,0.77,0,0,1,.33-0.26,0.47,0.47,0,0,1,.44.07,4.15,4.15,0,0,0,.38.26,5.84,5.84,0,0,0,.6,1.06,9.16,9.16,0,0,0,.79.93,3.25,3.25,0,0,1,.34.7,4.09,4.09,0,0,0,.41.82l0.3,0.55q0.17,0.3.3,0.61a4,4,0,0,1,.24.52,1.67,1.67,0,0,1,.12.52,1,1,0,0,1,0,.59q-0.11.35-.22,0.66a15.38,15.38,0,0,0-.32,1.84q-0.11,1-.26,1.9t-0.39,1.82a17.91,17.91,0,0,0-.25,2,0.68,0.68,0,0,0,0,.31,0.71,0.71,0,0,1,0,.31q-0.1.5-.16,0.69a1.51,1.51,0,0,1-.35.51q-0.29.39-.58,0.8a7.31,7.31,0,0,1-.59.74q-0.54.52-1,.91a9.33,9.33,0,0,0-1,.91,9,9,0,0,0-.92.88,4.13,4.13,0,0,1-1.05.82q-0.3.14-.61,0.31l-0.67.37-1,.42M141.14,6.77a1,1,0,0,0-.2-0.24,1.09,1.09,0,0,0-.24-0.42,1.08,1.08,0,0,1-.24-0.49,1,1,0,0,1-.14-0.46,0.57,0.57,0,0,0-.2-0.4,2.42,2.42,0,0,0-.61-1.15,2.45,2.45,0,0,1-.61-1.22A2.18,2.18,0,0,1,138.36,2c-0.15-.16-0.31-0.32-0.49-0.48a1.48,1.48,0,0,1-.47-0.13A0.77,0.77,0,0,0,137,1.31a1,1,0,0,0-.56.06,1.59,1.59,0,0,1-.55.12,0.41,0.41,0,0,1-.19,0,0.28,0.28,0,0,0-.12,0,2.05,2.05,0,0,0-.49.08l-0.55.15a0.65,0.65,0,0,1-.22,0,0.28,0.28,0,0,0-.21,0,1.78,1.78,0,0,0-.79.31,3.05,3.05,0,0,1-.6.37,1.67,1.67,0,0,1-.4.17,0.56,0.56,0,0,0-.27.17,2.2,2.2,0,0,1-.41.55l-0.42.42a11.65,11.65,0,0,0-1.07,1.19q-0.47.61-.94,1.19Q128.39,7.52,127.71,9l-1.36,2.91q-0.39,1-.69,2a19.79,19.79,0,0,1-.69,2q-0.16.69-.28,1.38a11.27,11.27,0,0,1-.34,1.38,15.63,15.63,0,0,1-.3,2.28q-0.23,1.1-.49,2.19t-0.43,2.19a11.53,11.53,0,0,0-.12,2.27,10.93,10.93,0,0,0,0,1.4,8.67,8.67,0,0,0,.21,1.26,0.69,0.69,0,0,0,.08.31,0.4,0.4,0,0,1,0,.31,9,9,0,0,0,1.22,1.71,2.5,2.5,0,0,0,2.17.62,1.16,1.16,0,0,0,.68,0,1,1,0,0,0,.25-0.07L128,33a0.33,0.33,0,0,0,.15-0.13,0.33,0.33,0,0,1,.15-0.13,1.6,1.6,0,0,1,.58-0.15,4,4,0,0,0,.65-0.09,2.83,2.83,0,0,0,1.43-.68A3.89,3.89,0,0,1,132.4,31c0.21,0,.42-0.09.65-0.12a2.28,2.28,0,0,0,.64-0.18,4.86,4.86,0,0,0,1-.54,3.49,3.49,0,0,1,1-.48,2.69,2.69,0,0,1,.65-0.71,5.75,5.75,0,0,0,.72-0.65,3.81,3.81,0,0,0,.38-0.51,0.47,0.47,0,0,1,.58-0.21q-0.3,1.63-.57,3.28T137,34.2Q136.84,36,136.83,38a34,34,0,0,0,.2,3.87q0.11,1.11.19,2.23t0.19,2.16a14.25,14.25,0,0,0,.65,2.89q0.46,1.34,1,2.69a2,2,0,0,1,.4.73,0.71,0.71,0,0,1,.44.2,1.05,1.05,0,0,0,.45.26,0.43,0.43,0,0,1,.35-0.39,1.63,1.63,0,0,0-.08-0.49,0.26,0.26,0,0,0,.3-0.29,1.49,1.49,0,0,1,0-.47c0.16,0,.25-0.05.24-0.13s-0.09,0,0-.09a0.21,0.21,0,0,0,0-.28l0.12-.13a0.17,0.17,0,0,1,0-.25,0.25,0.25,0,0,0,0-.31,0.48,0.48,0,0,0,.08-0.41,0.39,0.39,0,0,1,.14-0.41,0.38,0.38,0,0,1,.33.42,0.56,0.56,0,0,0,.21.49,0.64,0.64,0,0,0-.11-0.34,0.3,0.3,0,0,1,0-.34c0-.08,0-0.1.09-0.07s0.09,0,.09-0.07a2.69,2.69,0,0,0,0-.71,1.18,1.18,0,0,1,.12-0.72q0-.68,0-1.43a8.68,8.68,0,0,1,.1-1.37s0.06-.06.18-0.07a2.33,2.33,0,0,0,0-.37,0.33,0.33,0,0,1,.08-0.31s-0.06,0-.07-0.15,0-.14.12-0.1a0.36,0.36,0,0,1,0,.25,0.26,0.26,0,0,0,.1.24c0-.33,0-0.68-0.08-1.05s-0.06-.74-0.08-1.11-0.11-.51-0.16-0.8a3,3,0,0,1,0-.87c0-.29,0-0.57.06-0.84a3.23,3.23,0,0,1,.12-0.78,7.25,7.25,0,0,0,0-.87,2.94,2.94,0,0,1,.09-0.81,7.05,7.05,0,0,0,.1-1.15,5.6,5.6,0,0,1,.11-1.09,4.16,4.16,0,0,0,.35-1.26q0.07-.62.16-1.25a5.81,5.81,0,0,1,.26-1.13c0.07-.25.13-0.49,0.19-0.72a6.48,6.48,0,0,0,.12-0.78,5.56,5.56,0,0,0,.19-0.69c0.05-.25.09-0.48,0.13-0.69q0.1-.56.17-1.09t0.17-1.15a7.87,7.87,0,0,0,.14-1.09,7.74,7.74,0,0,1,.14-1.09,2.38,2.38,0,0,0,.13-0.69,2.35,2.35,0,0,1,.13-0.69,3.32,3.32,0,0,0,0-.65,1.25,1.25,0,0,1,.16-0.66,6.84,6.84,0,0,1,.09-1.46q0.12-.72.22-1.41a1.94,1.94,0,0,0,0-.47,1.89,1.89,0,0,1,0-.47q0.09-.69.19-1.34c0.06-.44.13-0.88,0.19-1.34a4.48,4.48,0,0,0,.11-1,5.47,5.47,0,0,1,.11-1c0.07-.33.13-0.69,0.17-1.06a2.89,2.89,0,0,0-.08-1.11,8.24,8.24,0,0,0,.14-1.71,10.69,10.69,0,0,0-.17-1.82,0.69,0.69,0,0,0-.08-0.31A0.53,0.53,0,0,1,146.18,7a3,3,0,0,1-.07-0.77,1.91,1.91,0,0,1,.12-0.72,0.79,0.79,0,0,1,0-.19,0.36,0.36,0,0,0,0-.25,0.51,0.51,0,0,0-.05.22q0,0.09-.12.1l0-.65a1.3,1.3,0,0,1,.1-0.59,0.48,0.48,0,0,0-.18.16,0.28,0.28,0,0,1-.24.1,2.22,2.22,0,0,0,0-.37,3.16,3.16,0,0,1-.05-0.5,2,2,0,0,1,0-.5,0.32,0.32,0,0,0-.14-0.37,1.38,1.38,0,0,0-.43.08,0.39,0.39,0,0,0,0,.31,0.28,0.28,0,0,1,0,.31,0.15,0.15,0,0,1-.1-0.18,0.35,0.35,0,0,0,0-.25,1.18,1.18,0,0,0-.62,0c0-.08,0-0.13,0-0.15s0-.07,0-0.15A0.17,0.17,0,0,1,144,2.52a0.21,0.21,0,0,0-.19-0.15,0.36,0.36,0,0,0-.34,0l-0.21.23a3.07,3.07,0,0,0-.53.71q-0.23.51-.45,1.07A6.36,6.36,0,0,0,142,5.5a1.76,1.76,0,0,0-.31.79,1.36,1.36,0,0,1-.31.73,0.91,0.91,0,0,1-.2-0.24M116.94,4.23a0.51,0.51,0,0,1-.37.14,0.32,0.32,0,0,1,.37-0.14m-1.38,1.18-0.18.19Zm8.68-.19A2.89,2.89,0,0,0,124,4.45q-0.17-.33-0.31-0.64V3.63A2,2,0,0,0,123,2.81,2.57,2.57,0,0,1,122.36,2c-0.12.09-.21,0.07-0.25-0.05a0.4,0.4,0,0,0-.2-0.24,1,1,0,0,0-.25,0,0.56,0.56,0,0,1-.31,0,0.34,0.34,0,0,1-.19-0.12,1.3,1.3,0,0,1-.74.06,0.38,0.38,0,0,0-.49.18,4.15,4.15,0,0,1-.49.11,4.27,4.27,0,0,0-.49.11,1,1,0,0,1-.6.46,1.42,1.42,0,0,1-.48,1l-0.81.63a0.23,0.23,0,0,0-.22-0.08A0.22,0.22,0,0,1,116.62,4c0.21,0,.3-0.16.29-0.45a0.49,0.49,0,0,1-.31,0L117,3.27,117.38,3a1.25,1.25,0,0,0-.79.28,5.85,5.85,0,0,1-.72.53l-0.57.49-0.51.42a31.87,31.87,0,0,0-2.55,2.72,13.16,13.16,0,0,0-2,3.25,0.25,0.25,0,0,1-.11.31,0.26,0.26,0,0,0,0,.38,1.11,1.11,0,0,1,.31-0.11,0.21,0.21,0,0,1,.25.08l0.17-.35a2.74,2.74,0,0,1,.26-0.41,1.64,1.64,0,0,1,.27-0.29,0.17,0.17,0,0,1,.25,0c-0.12.17-.22,0.34-0.32,0.51a1.63,1.63,0,0,0-.19.57,0.54,0.54,0,0,0,.14-0.28c0-.1.07-0.14,0.15-0.1a3.08,3.08,0,0,1-.31.63,1.08,1.08,0,0,0-.19.63,2.06,2.06,0,0,1,.11-0.22,2.16,2.16,0,0,0,.11-0.22,0.75,0.75,0,0,0,.48-0.49A0.75,0.75,0,0,1,112,10.9a0.42,0.42,0,0,1-.17.38,0.25,0.25,0,0,0-.11.32c0.08-.13.15-0.26,0.23-0.41a0.85,0.85,0,0,1,.36-0.36v0.12a1.43,1.43,0,0,0,.2-0.29,1.47,1.47,0,0,1,.2-0.29,1.29,1.29,0,0,0,.63-0.62A2.43,2.43,0,0,1,113.92,9a4.83,4.83,0,0,1-.69,1.21,5.24,5.24,0,0,0-.69,1.15,0.5,0.5,0,0,0,.23-0.38h0.18l-0.07-.12c0.09,0.08.16,0,.21-0.13s0.15-.21.27-0.14a2.45,2.45,0,0,1-.29.39,0.53,0.53,0,0,0-.17.38q0.35-.51.7-1a2.36,2.36,0,0,1,1-.76,14.49,14.49,0,0,1,1.15-1.35Q116.34,7.61,117,7a0.56,0.56,0,0,1,.49-0.27,1.24,1.24,0,0,1-.29.42,4.13,4.13,0,0,1-.36.3q-0.48.46-.83,0.84a8.23,8.23,0,0,0-.71.9,8,8,0,0,0,1-1,3.49,3.49,0,0,1,1.14-.92q-0.39,2.38-.75,4.9T116,17.3q-0.19,1.44-.43,3L115,23.43q-0.13,1.37-.39,3.15T114.18,30q-0.21,1.68-.36,3.12a9.57,9.57,0,0,0-.06,2.11,3.83,3.83,0,0,1-.09.78q-0.1.53-.2,1.1t-0.23,1.1a3.11,3.11,0,0,0-.12.78,2.62,2.62,0,0,1,0,1.49q-0.09.81-.11,1.74T112.9,44l-0.32,1.91q-0.17,1-.31,2.09a12,12,0,0,0-.09,2.08,5,5,0,0,0,.39,1.81c0.09,0.2.2,0.44,0.34,0.7a1,1,0,0,0,.52.5l0.17,0.3c0.07,0.12.14,0.16,0.22,0.11a1.83,1.83,0,0,1-.24-0.49,0.32,0.32,0,0,1,.2-0.44,0.57,0.57,0,0,1,.07.24A0.2,0.2,0,0,0,114,53a0.16,0.16,0,0,0-.07-0.15s0,0,.06,0,0.11,0,.09,0,0-.07.09,0a1,1,0,0,0,.35.3,1.57,1.57,0,0,1,.35.23l-0.06-.06a0.05,0.05,0,0,1,.06-0.06h0.06a3.4,3.4,0,0,0-.05-0.46c0-.14.06-0.22,0.27-0.23a2.39,2.39,0,0,1,.23.24,2.17,2.17,0,0,0,.23.24,0.52,0.52,0,0,1,0-.5,0.16,0.16,0,0,1,.16.06,0.16,0.16,0,0,0,.16.06,0.49,0.49,0,0,0,0-.34,0.24,0.24,0,0,1,.05-0.28,0.11,0.11,0,0,1,.1.09c0,0.06,0,0,0,0a0.42,0.42,0,0,1,0-.19,0.23,0.23,0,0,0,0-.19h0.19a0.28,0.28,0,0,1,.08-0.25l0.15-.13c0-.17,0-0.31,0-0.43a0.3,0.3,0,0,1,.3-0.26,0.17,0.17,0,0,1,0-.22,0.17,0.17,0,0,0,0-.22,0.36,0.36,0,0,0,.23-0.32,2.65,2.65,0,0,1,0-.5,1.07,1.07,0,0,1,.14-0.32,0.17,0.17,0,0,0,0-.25,0.63,0.63,0,0,0,.15-0.22,0.28,0.28,0,0,1,.15-0.16s0.05,0,0,0,0,0,0,0a1.15,1.15,0,0,0,.08-0.34,0.59,0.59,0,0,1,.14-0.35c0.09,0.08.1,0.15,0,.22s0,0.12,0,.15a1.47,1.47,0,0,0,.29-0.51l0.22-.63h0.12c0-.08,0-0.12,0-0.12s0,0,0-.13,0-.08,0,0,0,0.08-.09,0a4.26,4.26,0,0,0,.52-1.51,6.5,6.5,0,0,1,.4-1.51l0.2-1.13q0.1-.56.2-1.19a4.09,4.09,0,0,0,0-1.12,5.84,5.84,0,0,1,0-1.05,9.9,9.9,0,0,1,.06-1.4q0.09-.84.21-1.72t0.21-1.62a7.85,7.85,0,0,0,.07-1.24q0.1-.5.31-2.09L121,27.73q0.23-1.78.48-3.28a16,16,0,0,1,.35-1.82,2,2,0,0,0,.21-0.88,21.06,21.06,0,0,0,.48-2.53q0.16-1.28.28-2.71a0.18,0.18,0,0,0,.06-0.1,0.17,0.17,0,0,1,.06-0.1,5.87,5.87,0,0,1,.17-1.75,3.45,3.45,0,0,1,.13-0.56l0.19-.57a3.67,3.67,0,0,1,0-.81,0.25,0.25,0,0,1,.05-0.19,0.18,0.18,0,0,0,.06-0.13,3.25,3.25,0,0,0,0-.62,3.11,3.11,0,0,1,0-.62,9,9,0,0,0,.11-1.74,0.11,0.11,0,0,0,.12-0.13,12.08,12.08,0,0,1,.25-1.31,6.94,6.94,0,0,0,.18-1.5ZM112,34a0.2,0.2,0,0,1-.1-0.18l-0.54-.19a1.29,1.29,0,0,1-.42-0.26,2.73,2.73,0,0,1-.6-0.16l-0.6-.22a0.29,0.29,0,0,0-.22,0c-0.06,0-.12,0-0.16-0.15q-1.75-.23-3-0.37t-2.34-.18a16.91,16.91,0,0,0-2.29.07q-1.18.11-2.84,0.43a0.27,0.27,0,0,0-.25,0,0.4,0.4,0,0,1-.31,0v0.06a0.06,0.06,0,0,1-.06.06,7.9,7.9,0,0,0-.8.19l-0.79.25a0.61,0.61,0,0,1-.36.26,0.78,0.78,0,0,0-.36.2,2.3,2.3,0,0,0-.69.56,1.92,1.92,0,0,0-.49.92,0.94,0.94,0,0,0,.34.67,2.6,2.6,0,0,0,.7.47,1.12,1.12,0,0,1,.57.16,1.88,1.88,0,0,0,.43-0.08,2.32,2.32,0,0,1,.56-0.09,7.9,7.9,0,0,0,1.55-.1l1.6-.23c0.29,0,.58,0,0.87-0.07a4.13,4.13,0,0,1,.87,0,2.63,2.63,0,0,1,.83-0.22q0.59-.09,1.23-0.15l1.27-.12a3.79,3.79,0,0,0,1-.2q0.62,0,1.24,0a1.89,1.89,0,0,0,1-.26q0.5,0,1-.07a2.17,2.17,0,0,0,.83-0.25l0.53-.05a5.51,5.51,0,0,1,.59-0.06,2.38,2.38,0,0,1,.24-0.23,0.27,0.27,0,0,0,.11-0.22A0.47,0.47,0,0,0,112,34M85.33,30h0.31a0.78,0.78,0,0,0,.51.19,0.71,0.71,0,0,1,.44.14,0.14,0.14,0,0,1,.16.09,0.28,0.28,0,0,0,.16.15,4.94,4.94,0,0,0,.91.36,2.57,2.57,0,0,1,.86.43,0.18,0.18,0,0,1,.07.09,0.17,0.17,0,0,0,.07.09L89.3,32a1.57,1.57,0,0,1,.36.51,11.7,11.7,0,0,1,1,1.88,4.68,4.68,0,0,1,.5,1.56q0.09,0.77.26,1.76a9.9,9.9,0,0,1,.11,1.08,3.5,3.5,0,0,1-.08,1l0,0.77a1,1,0,0,1-.1.53,11.47,11.47,0,0,1-.86,3A12.84,12.84,0,0,1,89,46.53,5.92,5.92,0,0,1,86,49a12.35,12.35,0,0,1-4.82.4A7.69,7.69,0,0,1,80,49.19a10.81,10.81,0,0,1-1.1-.29,3.52,3.52,0,0,1-1.14-.51,0.86,0.86,0,0,0-.29-0.17A0.39,0.39,0,0,1,77.25,48a1.2,1.2,0,0,1-.31-0.64c0-.23,0-0.44-0.06-0.65a3.44,3.44,0,0,1-.09-0.68l0-.68a10.7,10.7,0,0,1,.9-4.32q0.87-2,1.91-3.81a2.51,2.51,0,0,0,.53-0.64,3.61,3.61,0,0,0,.76-1,9,9,0,0,0,.92-0.88,8.83,8.83,0,0,1,.92-0.88,1.23,1.23,0,0,0,.42-0.39,1.73,1.73,0,0,1,.21-0.88,0.69,0.69,0,0,0,.23-0.38,5.29,5.29,0,0,0,.65-0.71l0-.37a1.12,1.12,0,0,1,.24-0.29,1,1,0,0,0,.23-0.35A2.16,2.16,0,0,0,85.33,30m0.76-5.37c-0.09,0-.1-0.07,0-0.09s0.07-.08,0-0.16a3.83,3.83,0,0,0-.66.46,3.26,3.26,0,0,1-.72.47,6.59,6.59,0,0,0-1.07.39,2.3,2.3,0,0,1-1.27.15,1.23,1.23,0,0,1-1-.45l-0.66-.84a0.79,0.79,0,0,0,0-.43,1.25,1.25,0,0,1,0-.56,0.36,0.36,0,0,0,.11-0.25,0.54,0.54,0,0,1,.05-0.25q0.09-.69.19-1.25l0.2-1.13a2.46,2.46,0,0,0,.33-1,2,2,0,0,1,.33-0.95,4.54,4.54,0,0,1,.43-1.45,6,6,0,0,0,.5-1.45,1.77,1.77,0,0,0,.35-0.54,2.75,2.75,0,0,1,.35-0.6,0.36,0.36,0,0,1,.11-0.25,0.18,0.18,0,0,1,.06-0.13,0.14,0.14,0,0,1,.09-0.16q0.09,0,0-.16,0.4-.82.86-1.62t0.92-1.69A1.9,1.9,0,0,0,86,10a2.86,2.86,0,0,1,.31-0.63,0.78,0.78,0,0,1,.21-0.26,1.37,1.37,0,0,0,.26-0.32,2,2,0,0,1,1,.48,3.32,3.32,0,0,1,.69.9A6.07,6.07,0,0,1,89,11.38q0.18,0.64.33,1.26a3,3,0,0,1,.34,1.44,11.7,11.7,0,0,0,.1,1.52,0.82,0.82,0,0,0,0,.53,1.14,1.14,0,0,1,0,.53,1.42,1.42,0,0,1,0,.28,1.42,1.42,0,0,0,0,.28v0.25a6.7,6.7,0,0,1-.3,1.63,4.42,4.42,0,0,0-.21.94,4.72,4.72,0,0,1-.51,1.14c-0.07.21-.13,0.38-0.16,0.5a1.62,1.62,0,0,1-.17.38Zm2.33-19a1.36,1.36,0,0,1-.08-0.43A0.34,0.34,0,0,1,88.21,5a0.35,0.35,0,0,0-.13-0.18A1.67,1.67,0,0,0,87.76,4a2.14,2.14,0,0,1-.37-0.64A2.48,2.48,0,0,1,87,3.05a1,1,0,0,0-.51-0.23,1.75,1.75,0,0,0-.81,0Q85.26,2.88,85,3a2,2,0,0,0-.57.4l-0.39.39a3.94,3.94,0,0,1-.42.27,1.65,1.65,0,0,0-.29.45l-0.12.13a4.27,4.27,0,0,0-.76,1.15,0.1,0.1,0,0,0-.09.07,0.1,0.1,0,0,1-.09.07,0.92,0.92,0,0,1-.29.54,2.08,2.08,0,0,0-.35.42V7L81.3,7.4a2.26,2.26,0,0,1-.26.45,2.21,2.21,0,0,0-.26.45,3.46,3.46,0,0,0-.38.64,2.41,2.41,0,0,1-.44.64,2,2,0,0,1-.28.69l-0.31.7c-0.1.21-.2,0.42-0.31,0.63a2.38,2.38,0,0,0-.22.57l-0.18.19a0.51,0.51,0,0,0-.05.22,0.5,0.5,0,0,1-.05.22,0.6,0.6,0,0,0-.18.26,1.09,1.09,0,0,0-.08.31,0.56,0.56,0,0,1-.14.32l-0.45,1.14q-0.22.57-.39,1.07c-0.07.33-.14,0.64-0.21,0.91s-0.14.58-.21,0.91a2.32,2.32,0,0,0-.12.69,3.23,3.23,0,0,1-.12.75,0.61,0.61,0,0,0-.11.44,0.6,0.6,0,0,1-.1.44l-0.21,1.53a4.19,4.19,0,0,0,0,1.52,4.53,4.53,0,0,0,.1,1.58,11.7,11.7,0,0,0,.47,1.56,5.86,5.86,0,0,1,.75,1.46,0.2,0.2,0,0,1,.19.12A0.92,0.92,0,0,0,78,28a2.32,2.32,0,0,0,.76.46,5.1,5.1,0,0,1,.82.4,19.71,19.71,0,0,1-1.49,1.46q-0.78.69-1.55,1.46-0.24.32-.41,0.61c-0.12.19-.25,0.39-0.41,0.61a8.74,8.74,0,0,0-1.32,1.7q-0.55.92-1.06,1.94a28.63,28.63,0,0,0-1.44,4,10.53,10.53,0,0,0-.17,4.6A14.07,14.07,0,0,0,72,46.93q0.23,0.89.45,1.75a6.47,6.47,0,0,1,.28.79,2.37,2.37,0,0,0,.33.54,2.51,2.51,0,0,1,.33.54,3.39,3.39,0,0,0,.85,1q0.51,0.41,1.09.82a13.17,13.17,0,0,0,2,.81,22,22,0,0,0,2.35.61H80l2-.09q0.87,0,1.61-.1a10.62,10.62,0,0,0,1.42-.22q0.61-.15,1.19-0.33l1.25-.4a8.08,8.08,0,0,0,1.31-.46,2.21,2.21,0,0,0,1-.76V51.21a6.84,6.84,0,0,0,.86-0.84,11.73,11.73,0,0,1,.86-0.91c-0.08,0-.12,0-0.13-0.06a4.41,4.41,0,0,0,.56-0.77q0.26-.44.49-0.89a0.47,0.47,0,0,0,.09-0.13,0.34,0.34,0,0,1,.15-0.13,1.6,1.6,0,0,1,.17-0.29A1.6,1.6,0,0,0,93,46.92V46.79l0.32-.57a3.58,3.58,0,0,0,.25-0.57c0-.08.08-0.18,0.11-0.28s0.07-.22.11-0.35L94,44.39l0.22-.63a0.21,0.21,0,0,1,.09-0.13,0.22,0.22,0,0,0,.09-0.13,4.48,4.48,0,0,0,.2-1.13,12.36,12.36,0,0,1,.13-1.25,1.11,1.11,0,0,1,.11-0.31,25.79,25.79,0,0,0-.16-3.56,16.53,16.53,0,0,0-.7-3.17,0.7,0.7,0,0,1-.3-0.51A1.65,1.65,0,0,0,93.53,33a0.47,0.47,0,0,0-.16-0.18,0.45,0.45,0,0,1-.16-0.18,1.4,1.4,0,0,1-.2-0.39,2.87,2.87,0,0,0-.21-0.46,2.1,2.1,0,0,1-.23-0.24,0.32,0.32,0,0,1,0-.31l-0.36-.42a2.45,2.45,0,0,0-.42-0.35,2.57,2.57,0,0,0-.3-0.51l-0.36-.45A2.06,2.06,0,0,1,90,29.08a3.8,3.8,0,0,0-.89-0.55,0.67,0.67,0,0,0-.42-0.32A3.9,3.9,0,0,1,88.16,28a0.46,0.46,0,0,1-.28-0.11,0.36,0.36,0,0,0-.4,0S87.53,28,87.63,28a0.13,0.13,0,0,1,.16.12,1.2,1.2,0,0,1-.71.06,1.08,1.08,0,0,1-.47-0.2,0.77,0.77,0,0,1,.33-0.2,0.59,0.59,0,0,0,.33-0.26c-0.3-.11-0.35-0.27-0.18-0.49a2.7,2.7,0,0,1,.45-0.45,1.3,1.3,0,0,0,.66-0.46,7.59,7.59,0,0,1,.53-0.64,2.12,2.12,0,0,1,.3-0.26,1.09,1.09,0,0,0,.3-0.32A5.78,5.78,0,0,0,89.88,24a1.8,1.8,0,0,1,.74-0.78,1.46,1.46,0,0,0,.21-0.29,0.91,0.91,0,0,1,.27-0.29q0.62-1.39,1.12-2.69A16.15,16.15,0,0,0,93,17a1,1,0,0,1,.18-0.26,1.71,1.71,0,0,1,.17-0.5,2,2,0,0,0,0-.59,0.91,0.91,0,0,1,.07-0.53,0.34,0.34,0,0,0,0,.25,1,1,0,0,1,0,.25,0.76,0.76,0,0,0,.14-0.47c0-.23,0-0.38,0-0.47s0.11,0,.09,0a0.14,0.14,0,0,0,0,.15,8.74,8.74,0,0,1,0-1.31,4.15,4.15,0,0,0,0-1.12,1.82,1.82,0,0,0,.05-1,5,5,0,0,1-.13-0.92l-0.06-.06a1.78,1.78,0,0,0-.35-0.92s0,0-.09,0-0.09,0-.09,0q-0.34-.67-0.67-1.21a1.39,1.39,0,0,0-1.08-.64L90.7,7.24l-0.61-.47c-0.09,0-.25-0.13-0.51-0.29L89.3,6.37,89,6.26a1.16,1.16,0,0,0-.31-0.08A0.54,0.54,0,0,1,88.38,6a0.57,0.57,0,0,0,0-.44m-22.71.87a0.5,0.5,0,0,1-.37.14,0.31,0.31,0,0,1,.37-0.14M64.34,7.64l-0.18.19ZM73,7.45a2.85,2.85,0,0,0-.25-0.76C72.65,6.46,72.55,6.25,72.46,6V5.86a2,2,0,0,0-.62-0.81,2.58,2.58,0,0,1-.69-0.81c-0.12.09-.2,0.07-0.25-0.05A0.4,0.4,0,0,0,70.69,4a1,1,0,0,0-.25,0,0.55,0.55,0,0,1-.31,0,0.34,0.34,0,0,1-.19-0.12,1.3,1.3,0,0,1-.74.06,0.38,0.38,0,0,0-.49.18,4.16,4.16,0,0,1-.49.11l-0.49.12a1,1,0,0,1-.6.46,1.41,1.41,0,0,1-.48,1l-0.81.63a0.22,0.22,0,0,0-.22-0.08,0.22,0.22,0,0,1-.22-0.08c0.21,0,.3-0.16.29-0.45a0.48,0.48,0,0,1-.31,0l0.39-.23,0.39-.23a1.26,1.26,0,0,0-.79.28,5.76,5.76,0,0,1-.72.53l-0.57.49L63.56,7A31.88,31.88,0,0,0,61,9.71,13.17,13.17,0,0,0,59,13a0.25,0.25,0,0,1-.11.31,0.26,0.26,0,0,0,0,.37,1.14,1.14,0,0,1,.31-0.11,0.21,0.21,0,0,1,.25.08l0.17-.35a2.79,2.79,0,0,1,.26-0.41,1.75,1.75,0,0,1,.27-0.29,0.17,0.17,0,0,1,.25,0c-0.12.17-.22,0.34-0.32,0.51a1.65,1.65,0,0,0-.19.57A0.54,0.54,0,0,0,60,13.39q0-.15.15-0.1a3.1,3.1,0,0,1-.31.63,1.07,1.07,0,0,0-.19.63,2,2,0,0,1,.11-0.22,2.18,2.18,0,0,0,.11-0.22,0.74,0.74,0,0,0,.48-0.49,0.75,0.75,0,0,1,.41-0.48,0.42,0.42,0,0,1-.17.38,0.25,0.25,0,0,0-.11.32c0.08-.13.15-0.26,0.23-0.41a0.86,0.86,0,0,1,.36-0.36v0.12a1.45,1.45,0,0,0,.2-0.29,1.47,1.47,0,0,1,.21-0.29A1.31,1.31,0,0,0,62.14,12a2.41,2.41,0,0,1,.56-0.74A4.77,4.77,0,0,1,62,12.46a5.25,5.25,0,0,0-.69,1.15,0.49,0.49,0,0,0,.23-0.38h0.19l-0.07-.12c0.08,0.08.16,0,.21-0.13s0.15-.21.27-0.14a2.56,2.56,0,0,1-.29.39,0.54,0.54,0,0,0-.17.38c0.23-.34.47-0.67,0.7-1a2.36,2.36,0,0,1,1-.76,14.2,14.2,0,0,1,1.15-1.35q0.62-.65,1.28-1.24A0.56,0.56,0,0,1,66.26,9,1.22,1.22,0,0,1,66,9.4a4.24,4.24,0,0,1-.36.3q-0.48.46-.83,0.84a8,8,0,0,0-.71.9,7.82,7.82,0,0,0,1-1,3.5,3.5,0,0,1,1.14-.92q-0.39,2.38-.75,4.9t-0.74,5.15q-0.19,1.44-.43,3l-0.48,3.13q-0.13,1.37-.39,3.15T63,32.28Q62.75,34,62.6,35.4a9.71,9.71,0,0,0-.06,2.11,3.76,3.76,0,0,1-.09.78q-0.1.53-.2,1.1c-0.07.38-.14,0.74-0.23,1.1a3.12,3.12,0,0,0-.12.78,2.61,2.61,0,0,1,0,1.49q-0.09.81-.11,1.74t-0.11,1.74l-0.32,1.91q-0.17,1-.31,2.09a11.94,11.94,0,0,0-.1,2.08,5.05,5.05,0,0,0,.39,1.81q0.14,0.3.34,0.7a1,1,0,0,0,.52.5l0.17,0.3c0.07,0.12.14,0.16,0.22,0.12a1.85,1.85,0,0,1-.24-0.49,0.32,0.32,0,0,1,.2-0.44,0.55,0.55,0,0,1,.07.25,0.2,0.2,0,0,0,.13.18,0.16,0.16,0,0,0-.07-0.15s0,0,.06,0,0.11,0,.09,0,0-.07.09,0a1,1,0,0,0,.35.3,1.6,1.6,0,0,1,.35.23l-0.07-.06a0.06,0.06,0,0,1,.06-0.07h0.06a3.26,3.26,0,0,0-.05-0.46c0-.14.06-0.22,0.27-0.23a2.28,2.28,0,0,1,.23.24,2.5,2.5,0,0,0,.23.24,0.52,0.52,0,0,1,0-.5,0.16,0.16,0,0,1,.16.06,0.16,0.16,0,0,0,.16.05,0.49,0.49,0,0,0,0-.34,0.24,0.24,0,0,1,0-.28,0.11,0.11,0,0,1,.1.09c0,0.06,0,0,0,0a0.41,0.41,0,0,1,0-.19,0.22,0.22,0,0,0,0-.18H65a0.28,0.28,0,0,1,.08-0.25l0.15-.13,0-.43a0.3,0.3,0,0,1,.3-0.26,0.17,0.17,0,0,1,0-.22,0.17,0.17,0,0,0,0-.22A0.37,0.37,0,0,0,65.78,52a2.72,2.72,0,0,1,0-.5A1.06,1.06,0,0,1,66,51.2a0.17,0.17,0,0,0,0-.25,0.61,0.61,0,0,0,.14-0.22,0.28,0.28,0,0,1,.15-0.16s0.05,0,0,0,0,0,0,0a1.17,1.17,0,0,0,.08-0.34,0.58,0.58,0,0,1,.14-0.35c0.09,0.08.1,0.15,0,.22s0,0.12,0,.15a1.44,1.44,0,0,0,.29-0.51l0.22-.63H67.2c0-.08,0-0.12,0-0.12s0,0,0-.12,0-.08,0,0,0,0.09-.09,0a4.23,4.23,0,0,0,.52-1.51,6.55,6.55,0,0,1,.4-1.51l0.2-1.13q0.1-.56.2-1.19a4.09,4.09,0,0,0,0-1.12,5.77,5.77,0,0,1,0-1.06,9.76,9.76,0,0,1,.06-1.4q0.09-.84.2-1.72T69,36.67A8,8,0,0,0,69,35.43q0.1-.5.31-2.09L69.78,30q0.23-1.78.48-3.28a15.58,15.58,0,0,1,.36-1.81A2,2,0,0,0,70.82,24a21.31,21.31,0,0,0,.48-2.53q0.16-1.28.29-2.71a0.17,0.17,0,0,0,.06-0.1,0.17,0.17,0,0,1,.06-0.1,5.87,5.87,0,0,1,.17-1.74A3.55,3.55,0,0,1,72,16.25l0.19-.57a3.71,3.71,0,0,1,0-.81,0.25,0.25,0,0,1,.05-0.19,0.18,0.18,0,0,0,.06-0.13,3.18,3.18,0,0,0,0-.62,3.18,3.18,0,0,1,0-.62,8.82,8.82,0,0,0,.11-1.74,0.11,0.11,0,0,0,.12-0.13,11.83,11.83,0,0,1,.25-1.31,7,7,0,0,0,.18-1.5ZM56.13,52.59c0-.06,0-0.09.09-0.1a0.28,0.28,0,0,0,.24-0.1,0.2,0.2,0,0,1,.18-0.1c0.16-.09.34-0.18,0.55-0.27a0.76,0.76,0,0,0,.42-0.45,2,2,0,0,1,.2-0.44A1.66,1.66,0,0,0,58,50.55,5.32,5.32,0,0,0,58.09,49a2.84,2.84,0,0,0-.4-1.38,2.88,2.88,0,0,0-.52-0.47,3.4,3.4,0,0,0-.7-0.34,2.6,2.6,0,0,1-.62.09,1.84,1.84,0,0,0-.68.15c0,0.12,0,.19-0.12.19a2.82,2.82,0,0,0-1.28,1.14,2.6,2.6,0,0,0-.32,1.85,1.33,1.33,0,0,0,.12.52,2.8,2.8,0,0,1,.18.52,2,2,0,0,0,.24.64,2,2,0,0,1,.24.58h0.25a0.35,0.35,0,0,1,.24-0.26,0.33,0.33,0,0,1,.2.24,0.35,0.35,0,0,0,.14.24,0.18,0.18,0,0,0,.15-0.19,0.17,0.17,0,0,1,.15-0.19,0.29,0.29,0,0,1,.32.2,0.43,0.43,0,0,0,.38.26,0.13,0.13,0,0,0,.09-0.16M49.59,41.92a11.29,11.29,0,0,1,.16-1.4q0.12-.72.21-1.71a0.08,0.08,0,0,0,.12,0,0.08,0.08,0,0,1,.12,0Zm-2.28,1.15a3.74,3.74,0,0,1-.3,1.07q-0.23.51-.45,1t-0.52,1a8.45,8.45,0,0,0-.26,1,2.15,2.15,0,0,1-.4.92,1,1,0,0,0-.24.2l-0.24.26c-0.08,0-.12.06-0.12,0s0,0-.06,0a0.05,0.05,0,0,1-.06-0.06,3.62,3.62,0,0,1-.77.93,7.71,7.71,0,0,0-.89.94,3.4,3.4,0,0,1-1,.54q-0.49.15-1.23,0.3l-0.95.29a1.54,1.54,0,0,1-1.09-.14,4,4,0,0,1-.56-0.66,4.5,4.5,0,0,1-.44-0.73V49.64a3.57,3.57,0,0,0-.14-0.4L37.43,49a0.67,0.67,0,0,1,0-.22,0.7,0.7,0,0,0,0-.22,4.16,4.16,0,0,0-.05-0.5,4.27,4.27,0,0,1-.06-0.56,2.28,2.28,0,0,0,.11-1,1.92,1.92,0,0,1,.12-0.91,3.93,3.93,0,0,0,0-.75,5.15,5.15,0,0,1,.5-1.32q0.34-.64.69-1.33l0.64-1A5.55,5.55,0,0,0,40,40l0.24-.26a0.72,0.72,0,0,0,.1-0.5A1,1,0,0,0,41,38.63a7.63,7.63,0,0,1,.48-1,2.53,2.53,0,0,1,.29-0.39,2.45,2.45,0,0,0,.29-0.39,2.72,2.72,0,0,0,.25-0.63,1.77,1.77,0,0,1,.25-0.57,3.38,3.38,0,0,1,.72.74,2.88,2.88,0,0,0,.65.69,0.92,0.92,0,0,0,.64.41,0.5,0.5,0,0,0,.38.11l0.64,0.5a0.78,0.78,0,0,0,.69.19,5,5,0,0,0,.82.34,2,2,0,0,0,1,.08,1.46,1.46,0,0,1-.06.84,5.77,5.77,0,0,0-.31.79,8.4,8.4,0,0,0-.14,1,3.39,3.39,0,0,1-.21.91q0,0.31-.12.87M46,33.11a2.58,2.58,0,0,1,.08.52L46.39,34a0.58,0.58,0,0,1,.17.33,1.52,1.52,0,0,0,.17.46,3.93,3.93,0,0,0,.33.39,1.77,1.77,0,0,1,.33.58v0.12a0.28,0.28,0,0,1-.31.08l-0.31-.11a2.36,2.36,0,0,1-1-.61,5.15,5.15,0,0,1-.79-1,1.3,1.3,0,0,1,0-.84,0.86,0.86,0,0,1,.63-0.62,0.43,0.43,0,0,1,.39.33m12.38,0.79a0.56,0.56,0,0,0-.28.1l-0.36.26a0.52,0.52,0,0,1-.52.05,2.43,2.43,0,0,1-.94.57q-0.64.25-1.68,0.6a2,2,0,0,1-.74.19c-0.33,0-.68.06-1.05,0.08s-0.73,0-1.09,0h-0.9a0.92,0.92,0,0,1-.28,0,0.73,0.73,0,0,0-.34,0A0.6,0.6,0,0,1,50,35.6a0.14,0.14,0,0,0-.16-0.09,1.38,1.38,0,0,0-.15-0.61,0.68,0.68,0,0,1-.08-0.31,0.43,0.43,0,0,0-.14-0.3c0.05,0.2.11,0.42,0.18,0.64a2.46,2.46,0,0,1,.12.65,0.25,0.25,0,0,1-.26-0.21A1.32,1.32,0,0,1,49.48,35q-0.14-.37-0.28-0.76a3.29,3.29,0,0,0-.34-0.7,0.68,0.68,0,0,1-.49-0.51,5,5,0,0,0-.25-0.7,2.58,2.58,0,0,0-.3-0.51,1,1,0,0,1-.18-0.58L47.19,31a0.17,0.17,0,0,0,.05-0.22,0.29,0.29,0,0,1-.07-0.15,0.37,0.37,0,0,1-.31-0.08,0.21,0.21,0,0,0-.19-0.09,0.31,0.31,0,0,1,0,.5,0.2,0.2,0,0,1-.25,0,0.21,0.21,0,0,0-.19-0.08,0.18,0.18,0,0,0-.12.16c0,0.06,0,.09-0.12.1a0.56,0.56,0,0,0-.66-0.16,0.84,0.84,0,0,1-.72,0,4.51,4.51,0,0,0-.56.58,0.53,0.53,0,0,1-.77.1,1.2,1.2,0,0,0-.2.32,0.26,0.26,0,0,1-.21.2,1.7,1.7,0,0,0-.13-0.86,2.89,2.89,0,0,0-.43-0.66,7.3,7.3,0,0,0-1.05-.64A1.29,1.29,0,0,0,40,30a0.05,0.05,0,0,1-.06.06H39.77a7.25,7.25,0,0,0-1.05.79l-1,.91a11.14,11.14,0,0,0-.91,1.13q-0.38.54-.84,1.25a23.54,23.54,0,0,0-2.73,4.93A16.21,16.21,0,0,0,32,45.17v0.06a5.46,5.46,0,0,1,0,.59,1.57,1.57,0,0,1-.13.53q0.15,0.49.26,1c0.08,0.33.14,0.66,0.2,1l0,0.43L32.59,49a23.54,23.54,0,0,1,.88,2.35A2.94,2.94,0,0,0,35,53.17a7.92,7.92,0,0,0,1.26,1.25,3.52,3.52,0,0,0,1.68.73,1.63,1.63,0,0,0,1,0A3.81,3.81,0,0,1,39.86,55,0.13,0.13,0,0,1,40,55a0.12,0.12,0,0,0,.09,0,2.49,2.49,0,0,0,1.47-.4,4.09,4.09,0,0,1,1.34-.59,2.8,2.8,0,0,1,.72-0.56A2.89,2.89,0,0,0,44.3,53a1,1,0,0,1,.47-0.58,1.94,1.94,0,0,1,.3-0.26,1.1,1.1,0,0,0,.3-0.32l0.14-.32a3.18,3.18,0,0,1,.2-0.38,1.74,1.74,0,0,0,.25-0.6,6,6,0,0,1,.19-0.66,6,6,0,0,1,.67-1.05,6.08,6.08,0,0,0,.67-1.05A4.66,4.66,0,0,0,47.67,47a4.65,4.65,0,0,1,.24-0.88v0.12a0.05,0.05,0,0,1-.06.06l0.29-.51a1.4,1.4,0,0,0,.17-0.44,2.63,2.63,0,0,0,.45-1.08c0-.08,0-0.13,0-0.12s0,0,0-.13a4.54,4.54,0,0,1,.33-1.07,10.22,10.22,0,0,0,.39-1,2,2,0,0,1-.15.72,1.19,1.19,0,0,0-.1.59,13.12,13.12,0,0,0,.59-2.17q0.15-.91.39-2.34,0.31,0,1.17-.11a16.71,16.71,0,0,0,2-.36,16.1,16.1,0,0,0,2.23-.72,7,7,0,0,0,2-1.17,0.34,0.34,0,0,1,.17-0.26,0.93,0.93,0,0,0,.29-0.39,1.79,1.79,0,0,0,.61-0.83,0.5,0.5,0,0,0-.12-0.61c-0.05-.25-0.12-0.37-0.2-0.36M13.14,25.36a8.14,8.14,0,0,0,.19-2,3.37,3.37,0,0,0,.16-0.66c0-.23.06-0.47,0.09-0.72a11.11,11.11,0,0,0,.09-1.56q0-.87,0-1.55a10.14,10.14,0,0,0,.13-1.22,3.48,3.48,0,0,0-.11-1.14,0.72,0.72,0,0,0,.13-0.59,2.57,2.57,0,0,1,0-.71,16.6,16.6,0,0,0,.08-1.68,2.71,2.71,0,0,0-.27-1.29,1.21,1.21,0,0,0-.06-0.62A3.43,3.43,0,0,1,13.41,11q-0.54-.91-1.06-1.63A9.53,9.53,0,0,0,11.11,8a1.75,1.75,0,0,1-.47-0.17,0.84,0.84,0,0,0-.41-0.11,2.74,2.74,0,0,0-1,0,2.6,2.6,0,0,0-1,.35,0.11,0.11,0,0,0-.09.1A0.29,0.29,0,0,1,8,8.37q-0.3.32-.47,0.49a1.82,1.82,0,0,0-.35.48A5.53,5.53,0,0,0,6.6,10a1,1,0,0,0-.15.78,1.57,1.57,0,0,0-.27.94,4.11,4.11,0,0,1-.08,1,4.43,4.43,0,0,1-.13.5,4.33,4.33,0,0,0-.13.5,0.68,0.68,0,0,0,0,.22,0.71,0.71,0,0,1,0,.22c-0.06.46-.11,0.92-0.16,1.37s-0.09.91-.16,1.37a3,3,0,0,0,0,.59l0,0.59a1,1,0,0,0-.11.44,38.66,38.66,0,0,1-.56,5.73L3.94,30a8.86,8.86,0,0,0-.14.94,9.32,9.32,0,0,1-.15.94c0,0.33-.05.67-0.08,1s-0.05.68-.08,1.06a6.69,6.69,0,0,0-.29,1.87Q3,37.44,2.78,38.94t-0.24,3a5,5,0,0,0-.09.87,9.61,9.61,0,0,1-.16,1.4,9.48,9.48,0,0,0-.16,1.28q-0.24,3-.35,6.13A36.27,36.27,0,0,0,2.12,58a3.3,3.3,0,0,1,.22.67,1.92,1.92,0,0,0,.28.67c0.21,0,.31,0,0.31.08a0.39,0.39,0,0,0,.14.27,0.63,0.63,0,0,0,.22.15,0.27,0.27,0,0,1,.16.15,0.14,0.14,0,0,1,0,.15,0.13,0.13,0,0,0,.1.15,0.89,0.89,0,0,1,.48.38,0.89,0.89,0,0,0,.48.38,0.59,0.59,0,0,0,.37,0,1.18,1.18,0,0,1,.37-0.08,0.3,0.3,0,0,1,.22.08,0.29,0.29,0,0,0,.22.08A0.5,0.5,0,0,0,6,61a0.17,0.17,0,0,1,.25,0,1.15,1.15,0,0,0,.26-0.51,1.75,1.75,0,0,1,.26-0.57,0.85,0.85,0,0,0,.57-0.52,3.36,3.36,0,0,0,.18-0.88c0.08-.09.14-0.09,0.19,0a0.12,0.12,0,0,0,.19.05A1.4,1.4,0,0,1,8,57.33a0.84,0.84,0,0,1,.2-1c0.08-.09.14-0.1,0.18,0a0.21,0.21,0,0,0,.19.09,2.32,2.32,0,0,0,0-.93A0.81,0.81,0,0,1,9,54.62a0.2,0.2,0,0,1,0-.22,0.21,0.21,0,0,0,0-.22,3.61,3.61,0,0,0,.34-1.35c0-.52.09-1,0.16-1.4a2,2,0,0,1,0-.5l0.1-.5a2.57,2.57,0,0,0,0-1,3.72,3.72,0,0,1,0-1,1.65,1.65,0,0,0,.15-0.94l0-.56a2.46,2.46,0,0,0,.12-0.72,5.9,5.9,0,0,1,.06-0.72,6.38,6.38,0,0,1,.17-1q0.13-.53.23-1.1,0.09-.81.19-1.43a12.62,12.62,0,0,0,.13-1.31,0.25,0.25,0,0,0,.14-0.26,0.56,0.56,0,0,1,0-.31c0-.17.07-0.32,0.1-0.47s0.07-.28.11-0.41A1.27,1.27,0,0,1,11,39a1.21,1.21,0,0,1,.08-0.25,0.75,0.75,0,0,1,.05-0.28c0-.1.07-0.22,0.11-0.35a1.32,1.32,0,0,0,.07-0.62,1.28,1.28,0,0,1,.07-0.62,2.19,2.19,0,0,1,.16-0.57q0.11-.25.22-0.57a13.32,13.32,0,0,1,.91-2q0.52-.92,1.1-1.82a0.92,0.92,0,0,1,.22-0.6l0.48-.42a0.54,0.54,0,0,0,.14-0.28,0.54,0.54,0,0,1,.14-0.29,3,3,0,0,1,.35-0.45,0.78,0.78,0,0,0,.17-0.32,2.38,2.38,0,0,1,.11-0.31,1.61,1.61,0,0,1,.33-0.26l0.39-.26a20.43,20.43,0,0,1,1.72-3.21q1-1.5,2-3a3.19,3.19,0,0,0,.83-0.84l0.7-1a0.68,0.68,0,0,1,0-.31A0.55,0.55,0,0,0,21.44,20q0.29-.45.61-0.9a10.66,10.66,0,0,0,.61-1A5.52,5.52,0,0,1,23.6,17q0.54-.49,1.07-1a2.59,2.59,0,0,0,.57-0.52A1.49,1.49,0,0,1,25.94,15a15.9,15.9,0,0,1-.12,2.86q-0.19,1.37-.44,2.69t-0.54,2.6q-0.29,1.29-.48,2.6a8.4,8.4,0,0,0-.14,1c0,0.31-.08.65-0.14,1q-0.08,1.06-.25,2.06T23.56,31.7q-0.07,1.18-.05,2.3a16.35,16.35,0,0,1-.12,2.24q-0.23,1.75-.47,3.47t-0.47,3.47a25.88,25.88,0,0,0-.34,3Q22,47.72,22,49.27a17.24,17.24,0,0,0,0,3.44,24.64,24.64,0,0,0,.55,3.36q0.15,0.68.24,1.23a3.06,3.06,0,0,0,.35,1,4,4,0,0,0,.54.91l0.72,0.9a6.56,6.56,0,0,0,1.34,1.59,5.61,5.61,0,0,0,2,1,0.26,0.26,0,0,1,.25,0,0.55,0.55,0,0,0,.25.05,1.82,1.82,0,0,0,1,.39,3.64,3.64,0,0,0,1.33-.06,0.28,0.28,0,0,1,.08-0.25,0.48,0.48,0,0,0,.15-0.19,0.51,0.51,0,0,1-.51-0.41,0.68,0.68,0,0,1,.22,0l0.22,0.08a0.26,0.26,0,0,0-.16-0.21,0.12,0.12,0,0,1,0-.22,0.55,0.55,0,0,1,.47,0,0.74,0.74,0,0,0,.47.1,0.76,0.76,0,0,1,.3-0.2,1.61,1.61,0,0,0,.36-0.2,2.76,2.76,0,0,1-.66-0.28,1.36,1.36,0,0,1-.49-0.6c0.21,0,.25-0.07.15-0.19A0.29,0.29,0,0,1,31,60.3a0.22,0.22,0,0,1,.28,0c0.07,0.08.14,0.08,0.22,0L31.25,60,31,59.61a0.2,0.2,0,0,1,.22,0q0.1,0.06.09-.07a0.21,0.21,0,0,0-.16-0.06c-0.06,0-.09,0-0.1-0.12s0.08-.11.12-0.07,0.06,0,.06-0.06-0.16-.07-0.1-0.09A0.14,0.14,0,0,0,31.27,59a0.4,0.4,0,0,1-.08-0.37,2.89,2.89,0,0,0-.59-0.69,1.91,1.91,0,0,1-.53-0.81,2.58,2.58,0,0,1-.13-0.89,5.1,5.1,0,0,0-.07-1,2,2,0,0,0-.08-0.49c0-.16-0.1-0.31-0.14-0.43,0-.37,0-0.76,0-1.15s0-.78,0-1.15a4.47,4.47,0,0,1-.07-0.9q0-.4,0-0.78a3.37,3.37,0,0,0,.16-0.66,1.74,1.74,0,0,0,0-.65,8.7,8.7,0,0,0,.07-2.67q0.15-.81.39-1.82a20.93,20.93,0,0,0,.38-2.06,2.09,2.09,0,0,0,0-.62,2.09,2.09,0,0,1,0-.62,1.31,1.31,0,0,0,.23-0.32,8.54,8.54,0,0,0,0-1.06,11.72,11.72,0,0,1,0-1.18c0-.21.07-0.4,0.1-0.56a2.36,2.36,0,0,0,0-.56,4.76,4.76,0,0,1,0-1.21q0.07-.59.1-1.22A1.13,1.13,0,0,0,31,34.6,1.73,1.73,0,0,1,31,34q0.1-.56.2-1.06a4.66,4.66,0,0,0,.07-1.12,7,7,0,0,0,.11-1.12,5.54,5.54,0,0,1,.11-1.06,1,1,0,0,0,.1-0.47,1.94,1.94,0,0,1,0-.47q0.13-1.25.17-2.4T32,24A2.48,2.48,0,0,1,32,23.3a2.48,2.48,0,0,0,.06-0.65,0.76,0.76,0,0,0,0-.37,2.55,2.55,0,0,1,0-.43l0.16-1.4a4.18,4.18,0,0,0-.09-1.33Q32.06,18.8,32,18.4a5.44,5.44,0,0,1-.1-0.83A0.81,0.81,0,0,1,31.64,17a1.07,1.07,0,0,1,.07-0.59,1.65,1.65,0,0,1-.12-0.74A1,1,0,0,0,31.33,15a1.41,1.41,0,0,1,.38-0.48A0.87,0.87,0,0,0,32,14q0-.8-1.09-0.76a1.56,1.56,0,0,1-.26-0.33,1.91,1.91,0,0,0-.33-0.39,0.18,0.18,0,0,0-.13-0.06A0.47,0.47,0,0,1,30,12.37,1,1,0,0,1,29.78,12a0.79,0.79,0,0,0-.2-0.3,0.21,0.21,0,0,0-.16-0.06,0.18,0.18,0,0,1-.16-0.12L29,11.3a3,3,0,0,1-.29-0.24,2.38,2.38,0,0,0-1-.36,5.65,5.65,0,0,0-1.33,0,6.06,6.06,0,0,0-1.59.53,5.74,5.74,0,0,0-1.2,1l-0.59.61a5,5,0,0,0-.53.61q-0.47.52-.89,1c-0.28.32-.55,0.63-0.83,0.94l-0.39.33A1.33,1.33,0,0,0,20,16q-0.53.71-1,1.44t-1,1.44a13.25,13.25,0,0,0-1.22,1.85q-0.52,1-1.1,1.91a8.37,8.37,0,0,0-1.1,1.91,7.65,7.65,0,0,0-.86,1.71c-0.11.21-.23,0.44-0.34,0.67a0.56,0.56,0,0,1-.48.36,11,11,0,0,1,.26-2" transform="translate(-1.76 -1.29)"/></svg>