<svg id="Layer_1" data-name="Layer 1" xmlns="http://www.w3.org/2000/svg" viewBox="0 0 119.63 60.23"><defs><style>.cls-1{fill:#082432;}</style></defs><title>Plot2-3</title><path class="cls-1" d="M118.13,33.34a0.25,0.25,0,0,1,.18-0.26,0.48,0.48,0,0,1-.1.56,0.24,0.24,0,0,1-.07-0.31m-15.38,1.73a0.52,0.52,0,0,1-.11-0.43,0.87,0.87,0,0,0-.05-0.43h-0.25a2.07,2.07,0,0,0-.24-0.58,5,5,0,0,1-.3-0.58h-0.19a0.86,0.86,0,0,1-.3-0.45,5.66,5.66,0,0,0-.18-0.64,0.55,0.55,0,0,1-.3.17,0.3,0.3,0,0,1-.32-0.14V31.75c-0.12,0-.17,0-0.13-0.15a0.15,0.15,0,0,0-.07-0.21,0.85,0.85,0,0,0-.07.5,0.36,0.36,0,0,1-.14.38,0.22,0.22,0,0,1-.37,0,4.17,4.17,0,0,1-.33-0.39,4.43,4.43,0,0,0-.21,1c0,0.31-.06.63-0.08,1A16.62,16.62,0,0,0,99,35.48a9.3,9.3,0,0,0,.17,1.67q0.1,0.8.22,1.57t0.28,1.45a36.37,36.37,0,0,0,1.1,4.54,31.48,31.48,0,0,0,1.64,4.21,1.37,1.37,0,0,0,.58.5,0.76,0.76,0,0,1,.14.34,0.28,0.28,0,0,1,.16.15,0.6,0.6,0,0,0,.16.21,2.83,2.83,0,0,0,.77.49q0.44,0.2.89,0.43a1.67,1.67,0,0,0,.75,0,1.91,1.91,0,0,0,.35.17,1.33,1.33,0,0,0,.47,0,3.94,3.94,0,0,1,.52-0.12l0.58-.12a1.79,1.79,0,0,0,.34,0l0.28,0a0.26,0.26,0,0,1,.19.05,0.25,0.25,0,0,0,.19.05,0.92,0.92,0,0,0,.34-0.08,0.89,0.89,0,0,1,.34-0.08q0.66-.4,1.3-0.71a3.65,3.65,0,0,0,1.11-.82,1.5,1.5,0,0,0,.54-0.43,3.33,3.33,0,0,1,.47-0.49,0.34,0.34,0,0,1,.18-0.13,0.18,0.18,0,0,0,.12-0.07,0.51,0.51,0,0,0,.05-0.19,0.46,0.46,0,0,1,.05-0.19,0.76,0.76,0,0,1,.54-0.52c0.12-.17.24-0.34,0.38-0.51a2.18,2.18,0,0,1,.51-0.46,5.3,5.3,0,0,1,.37-0.79,2,2,0,0,0,.24-0.85,1,1,0,0,0,.32-0.54,2.6,2.6,0,0,1,.25-0.66s0-.06,0-0.06-0.07,0,0-.06a2.82,2.82,0,0,0,.37-0.7,0.85,0.85,0,0,1,.57-0.52,0.42,0.42,0,0,1,.08-0.25,0.61,0.61,0,0,0,.08-0.37,0.26,0.26,0,0,0,.18-0.07s0.1,0,.19.05a0.6,0.6,0,0,1,0-.65,1.86,1.86,0,0,0,.29-0.54,1.37,1.37,0,0,1,0-.44,0.13,0.13,0,0,0,0-.09,0.12,0.12,0,0,1,0-.09,1.54,1.54,0,0,0,0-.75,1.24,1.24,0,0,1,0-.68c0.08,0,.1,0,0.06-0.06a0.38,0.38,0,0,1,.05-0.22,0.21,0.21,0,0,0,0-.22,1.17,1.17,0,0,0,.1-0.62c0.07-.25.15-0.5,0.25-0.76a3.32,3.32,0,0,0,.18-0.81l0-.59a0.86,0.86,0,0,1,.16-0.53c0-.08,0-0.1-0.07-0.06s-0.06,0-.06,0a0.81,0.81,0,0,0,.17-0.41,3.68,3.68,0,0,1,.16-0.6s0,0-.09,0-0.07,0,0-.06a1.17,1.17,0,0,1,.08-0.37,0.33,0.33,0,0,0,0-.37q-0.24.07-.11,0.25c0.09,0.12,0,.18-0.18.19l0.11-.25a8.66,8.66,0,0,1,.06-2.21,7.19,7.19,0,0,0,0-2.2,15.43,15.43,0,0,0-.46-2,12.7,12.7,0,0,0-.7-1.8,3.23,3.23,0,0,1-.72-1,1.88,1.88,0,0,0-.42-0.38L115.57,23a2.07,2.07,0,0,1-.79-0.31l-0.61-.44a1.54,1.54,0,0,0,.48-0.45l0.21-.23,0.21-.23a4.1,4.1,0,0,1,.33-0.32l0.27-.26,0.44-.48a1.55,1.55,0,0,0,.32-0.54,4.46,4.46,0,0,0,.45-0.42,1.48,1.48,0,0,0,.32-0.6,1.46,1.46,0,0,0,.38-0.48,2.4,2.4,0,0,1,.38-0.54V17.46c0.08,0,.13,0,0.12,0s0-.09.06-0.1a2.48,2.48,0,0,1,.45-1,1.78,1.78,0,0,0,.32-1.16,0.86,0.86,0,0,0,.17-0.44,2.83,2.83,0,0,0,0-.44,0.11,0.11,0,0,0,.12-0.13,14,14,0,0,1,.28-1.44q0.18-.75.4-1.44c-0.08,0-.11-0.09-0.07-0.15a0.11,0.11,0,0,0,0-.15,0.12,0.12,0,0,0,.05-0.19,0.12,0.12,0,0,1,.05-0.19q0.08-1.06.16-2a4.42,4.42,0,0,0-.27-1.91c-0.09-.2-0.18-0.42-0.28-0.64a1.56,1.56,0,0,1-.1-0.77A0.54,0.54,0,0,1,119.28,5a1.19,1.19,0,0,0-.11-0.28A3.42,3.42,0,0,1,118.71,4a2,2,0,0,0-.59-0.69,2.59,2.59,0,0,0-.94-1,11.33,11.33,0,0,1-1.12-.79A5.58,5.58,0,0,0,114.33,1a5.68,5.68,0,0,0-1.95.12,13.2,13.2,0,0,0-1.74.73c-0.59.3-1.1,0.58-1.55,0.84a0.55,0.55,0,0,0-.36.33,2.61,2.61,0,0,1-.66.53,1.32,1.32,0,0,0-.54.52,1.1,1.1,0,0,0-.36.29,3.49,3.49,0,0,1-.24.29,3.72,3.72,0,0,0-1,.85,5.86,5.86,0,0,1-1,1,4.43,4.43,0,0,0-.4.67,1.92,1.92,0,0,1-.47.61,11.49,11.49,0,0,1-.7,1.74,5,5,0,0,0-.51,1.85,1.1,1.1,0,0,0,.42,1,1,1,0,0,0,.44.1,0.77,0.77,0,0,0,.82-0.38,4.65,4.65,0,0,1,.49-0.8,0.83,0.83,0,0,1,.15-0.22l0.21-.23q0.47-.58.88-1.12a7.15,7.15,0,0,0,.7-1.12c0.2-.22.36-0.4,0.47-0.55l0.41-.55a21.71,21.71,0,0,1,1.91-1.64q0.67-.34,1.27-0.68a7,7,0,0,1,1.28-.55,0.12,0.12,0,0,0,.09,0,0.25,0.25,0,0,1,.15,0,1.22,1.22,0,0,1,1.64.55,0.76,0.76,0,0,1,.14.43c0,0.17,0,.31,0,0.43a0.16,0.16,0,0,0,.07.15,0.16,0.16,0,0,1,.07.15,3.25,3.25,0,0,1,0,.62l-0.1.63V7.75a0.34,0.34,0,0,1-.12.16,0.34,0.34,0,0,0-.12.16,1.1,1.1,0,0,0-.1.5l0,0.5-0.2.32a0.22,0.22,0,0,0,0,.25,2.33,2.33,0,0,0-.36,1,3.77,3.77,0,0,1-.3,1v0.19a0.36,0.36,0,0,0-.17.32,1,1,0,0,1-.11.44,1.33,1.33,0,0,0-.23.32,0.86,0.86,0,0,1,0,.37,3.44,3.44,0,0,0-.24.29,0.34,0.34,0,0,0,0,.34,0.49,0.49,0,0,0-.23.44,5.64,5.64,0,0,1-.55.86,7.75,7.75,0,0,0-.61.93q-0.48.52-.92,1.06t-0.92,1.06a2.05,2.05,0,0,1-.3.26,2.19,2.19,0,0,0-.3.26l-1.27,1.39A11.11,11.11,0,0,1,106,21.4a2.84,2.84,0,0,0-.47.52,1.73,1.73,0,0,1-.48.46,4.43,4.43,0,0,0-.15.78,4.74,4.74,0,0,1-.15.78,0.28,0.28,0,0,1,.14.33,1.36,1.36,0,0,0,0,.34,0.62,0.62,0,0,0,.14.4,0.45,0.45,0,0,1,.08.4,0.8,0.8,0,0,1,.33.39,1.43,1.43,0,0,0,.27.45,1.5,1.5,0,0,0,1,.42l1.18,0.1c0.33-.1.63-0.17,0.92-0.23a2,2,0,0,0,.73-0.28l0.33-.23a1.49,1.49,0,0,0,.27-0.23,1,1,0,0,0,.24-0.2,1,1,0,0,1,.33-0.17,0.29,0.29,0,0,0,.21-0.23,2.41,2.41,0,0,0,.54-0.33,2.42,2.42,0,0,1,.54-0.33,1.47,1.47,0,0,0,.69.06,1.49,1.49,0,0,1,.68.06,3.2,3.2,0,0,1,1.32,1.15,5.52,5.52,0,0,1,.85,1.61,9.85,9.85,0,0,1,.09,4.9q-0.16.63-.29,1.19a7.92,7.92,0,0,1-.3,1,14.55,14.55,0,0,1-1.41,3.29s-0.05,0,0,0,0,0.07-.09,0c-0.19.34-.38,0.67-0.58,1a9.66,9.66,0,0,1-.64.93,7.78,7.78,0,0,1-.67,1,7.67,7.67,0,0,0-.67,1c-0.08,0-.12,0-0.12.07a0.18,0.18,0,0,1-.12.13,5,5,0,0,1-.67.93,8.51,8.51,0,0,0-.74.93,9.31,9.31,0,0,0-.86.94,3.1,3.1,0,0,1-1.05.82,4.9,4.9,0,0,1-.88-1.08,3.47,3.47,0,0,1-.47-1.41q-0.15-.55-0.23-1T105.56,41a0.91,0.91,0,0,0,.16-0.69c-0.08,0-.14,0-0.15,0a0.16,0.16,0,0,1-.15.07,0.76,0.76,0,0,1-.14-0.43l0-.37h0.12l-0.2-.36a1,1,0,0,1-.36-0.45,2.72,2.72,0,0,1-.15-0.58c0-.2-0.07-0.42-0.12-0.65a1.38,1.38,0,0,0-.27-0.58,2.4,2.4,0,0,0-.28-0.67,0.39,0.39,0,0,1-.11.38,0.53,0.53,0,0,1-.36-0.48,6.25,6.25,0,0,0-.12-0.68,3.55,3.55,0,0,0-.14-0.4c0-.1-0.09-0.21-0.14-0.33V34.74a0.4,0.4,0,0,1-.36.33m-3.87-2.62a0.2,0.2,0,0,1-.1-0.18l-0.54-.19a1.29,1.29,0,0,1-.41-0.26,2.75,2.75,0,0,1-.6-0.16l-0.6-.22a0.29,0.29,0,0,0-.22,0c-0.06,0-.12,0-0.16-0.15q-1.75-.23-3-0.37T91,30.71a16.91,16.91,0,0,0-2.29.07q-1.17.11-2.84,0.43a0.26,0.26,0,0,0-.25,0,0.4,0.4,0,0,1-.31,0V31.3a0.06,0.06,0,0,1-.06.07,8,8,0,0,0-.8.19l-0.8.25a0.61,0.61,0,0,1-.36.26,0.78,0.78,0,0,0-.36.2,2.29,2.29,0,0,0-.69.56,1.92,1.92,0,0,0-.49.92,1,1,0,0,0,.34.67,2.6,2.6,0,0,0,.7.47,1.12,1.12,0,0,1,.56.16A1.83,1.83,0,0,0,83.76,35a2.32,2.32,0,0,1,.56-0.09,7.9,7.9,0,0,0,1.55-.1l1.6-.23c0.29,0,.58,0,0.87-0.07a4.13,4.13,0,0,1,.87,0A2.63,2.63,0,0,1,90,34.26q0.58-.09,1.23-0.15L92.53,34a3.79,3.79,0,0,0,1-.2q0.62,0,1.24,0a1.89,1.89,0,0,0,1-.26q0.5,0,1-.07a2.17,2.17,0,0,0,.83-0.25l0.52-.05a5.51,5.51,0,0,1,.59-0.06,2.18,2.18,0,0,1,.24-0.23A0.27,0.27,0,0,0,99,32.62a0.48,0.48,0,0,0-.16-0.18m-37,17.47a0.61,0.61,0,0,1,.19.21,0.17,0.17,0,0,1-.22,0A0.83,0.83,0,0,0,61.67,50a0.17,0.17,0,0,1,.25,0M85.36,48.3a6.15,6.15,0,0,1,.86-0.1,3.27,3.27,0,0,1-1.73.26l0.86-.16m2-.52a2.16,2.16,0,0,1-.58.21l-0.65.15a5.49,5.49,0,0,1,1.22-.36m-26.11-.29c-0.08-.41-0.17-0.82-0.27-1.23a5.62,5.62,0,0,1,.42,1.19q0.15,0.65.3,1.14a2.87,2.87,0,0,1-.45-1.1m0.41-4.14c0,0.06-.06.07-0.06,0,0.07-.21.17-0.26,0.31-0.14s0,0,0-.06a0.08,0.08,0,0,1,0-.12A0.88,0.88,0,0,0,62,42.34a1.78,1.78,0,0,1,.06-0.78,4.6,4.6,0,0,1,.1.93,0.18,0.18,0,0,0,.05-0.25,0.25,0.25,0,0,1,0-.25c0-.08,0-0.11.06-0.09s0.12,0,.12,0a2.29,2.29,0,0,0,0-.65,2.13,2.13,0,0,1,.06-0.78l0.72-.65a2.18,2.18,0,0,1,.91-0.47q0.73-.22,1.66-0.41a4.07,4.07,0,0,1,1.8,0,5.83,5.83,0,0,0-2.54,0,5,5,0,0,0-2.13,1s0-.12.08-0.25a0.41,0.41,0,0,1,.27-0.2c0-.08,0-0.12.06-0.13a0.18,0.18,0,0,0,.12-0.13,17.61,17.61,0,0,1,1.86-.67,5.27,5.27,0,0,1,2.19-.19,0.79,0.79,0,0,1,.28,0,0.74,0.74,0,0,0,.28.05,0.65,0.65,0,0,0,.34,0,0.3,0.3,0,0,1,.28.08q-0.16.63-.31,1.32a7,7,0,0,1-.44,1.32,7.44,7.44,0,0,1-.31,1.41,7.47,7.47,0,0,0-.31,1.35,12.69,12.69,0,0,0-.48,1.73,10.4,10.4,0,0,1-.54,1.79,3.13,3.13,0,0,1-.91,1.28,3.17,3.17,0,0,1-1.68.57c-0.08,0-.11,0-0.1-0.06s0-.06,0-0.06A1,1,0,0,1,62.74,49a1.55,1.55,0,0,1-.4-0.6,4.45,4.45,0,0,1-.22-0.8C62.07,47.35,62,47.11,62,46.9a0.1,0.1,0,0,0-.12,0,0.1,0.1,0,0,1-.12,0,0.49,0.49,0,0,0-.08-0.31,5,5,0,0,0-.15-1.42,3.14,3.14,0,0,1,.08-1.68l0.12-.07c0-.08,0-0.09-0.06,0M90.78,44.4a0.33,0.33,0,0,1,.12-0.16A0.33,0.33,0,0,0,91,44.08c-0.12.09-.18,0.1-0.18,0A0.22,0.22,0,0,0,90.76,44a2,2,0,0,1-1,.35,0.81,0.81,0,0,1-.18-0.58,1.61,1.61,0,0,1,.13-0.59q-0.85.41-1.76,0.91a12.86,12.86,0,0,1-1.89.86,3.79,3.79,0,0,1-1,.35,1.67,1.67,0,0,1-1,0L83.17,45a8,8,0,0,1-1.54-.49l-1.49-.62A3.19,3.19,0,0,0,78.68,43a2.79,2.79,0,0,1-1.41-.93A0.55,0.55,0,0,1,77,41.9a0.33,0.33,0,0,0-.29-0.11A3.2,3.2,0,0,0,76,41.2a2.66,2.66,0,0,1-.71-0.65A8.58,8.58,0,0,1,76,38.94a5.06,5.06,0,0,0,.55-1.61,0.16,0.16,0,0,0,.15-0.07,0.33,0.33,0,0,1,.15-0.13,2.27,2.27,0,0,1,.42-1.1,1.92,1.92,0,0,0,.36-1.1,2.25,2.25,0,0,0,.45-1,2.25,2.25,0,0,1,.45-1,4.69,4.69,0,0,1,.35-1.19,4.91,4.91,0,0,0,.35-1.13A3.59,3.59,0,0,0,79.45,30l0.19-.57,0.18-.19a1.18,1.18,0,0,0,.08-0.34A1.12,1.12,0,0,1,80,28.55a13,13,0,0,1,.63-1.33,7.51,7.51,0,0,0,.56-1.33,2.92,2.92,0,0,0,.51-1,7.93,7.93,0,0,1,.39-1.07c0.08,0,.11,0,0.09,0s0-.06.09-0.07a2.73,2.73,0,0,1,.33-0.88A4.28,4.28,0,0,0,83,22a0.82,0.82,0,0,1,.14-0.22,0.84,0.84,0,0,0,.15-0.22A4.41,4.41,0,0,0,83.43,21a1.54,1.54,0,0,1,.29-0.57s0-.06,0-0.06,0,0,0-.06A2,2,0,0,0,84,19.66q0.14-.35.25-0.66a8.82,8.82,0,0,0,.63-1.27,9.06,9.06,0,0,0,.44-1.38,1.38,1.38,0,0,0,.17-0.47c0-.19.07-0.38,0.1-0.59a3.18,3.18,0,0,1,.16-0.53,1,1,0,0,0,0-.59A4.57,4.57,0,0,0,86.24,13a12,12,0,0,0,.25-1.31,6,6,0,0,0,.42-1.76,6.6,6.6,0,0,0-.08-1.8,1.87,1.87,0,0,1-.09-0.56,1.94,1.94,0,0,1-.28-0.7,3.26,3.26,0,0,0-.22-0.7,4.61,4.61,0,0,0-.63-0.93,0.84,0.84,0,0,1-.31-0.76c-0.09-.08-0.12-0.09-0.1,0s0,0.07-.09,0A3.86,3.86,0,0,0,83.8,3.19Q83,2.73,82.3,2.26A2.18,2.18,0,0,1,81.64,2,1.4,1.4,0,0,0,81,1.82a11.37,11.37,0,0,0-5.81,1.31A13,13,0,0,0,71,6.48a6.93,6.93,0,0,0-.65.68q-0.3.35-.59,0.68a3.81,3.81,0,0,0-.58.83,5.69,5.69,0,0,0-.46.76c0,0.08-.09.18-0.14,0.28a1.46,1.46,0,0,1-.2.29L68,10.74c-0.1.19-.2,0.41-0.31,0.66a4.13,4.13,0,0,0-.35,1.23q-0.07.59-.16,1.28A5,5,0,0,0,67,15.22q0,0.44-.12.84a2,2,0,0,0,0,.78A0.16,0.16,0,0,0,67,17s0,0.07-.06.16a5.75,5.75,0,0,1,.2,1.08,2.23,2.23,0,0,0,.39,1.07c0.21,0.11.42,0.22,0.64,0.31a1.15,1.15,0,0,0,.81,0l0.21-.13a0.38,0.38,0,0,1,.21-0.07,4.41,4.41,0,0,0,.34-1.53,8.86,8.86,0,0,0,0-1.64,6.62,6.62,0,0,1,.26-1,4,4,0,0,0,.2-1.1,0.92,0.92,0,0,0,.28-0.66,1.3,1.3,0,0,1,.1-0.59,0.06,0.06,0,0,1,.06-0.06,0.06,0.06,0,0,0,.06-0.07A3.69,3.69,0,0,0,71,11.76a2.16,2.16,0,0,0,.2-0.44,5.08,5.08,0,0,1,.19-0.51s0.06-.07.18-0.07a4.59,4.59,0,0,0,.32-0.54,4.59,4.59,0,0,1,.32-0.54l0.27-.26a3.34,3.34,0,0,0,.27-0.26,0.83,0.83,0,0,0,.17-0.29,0.82,0.82,0,0,1,.17-0.29,0.25,0.25,0,0,1,.18-0.07,0.52,0.52,0,0,1,.17-0.32,1.28,1.28,0,0,1,.39-0.3,2.51,2.51,0,0,0,.39-0.23,3.73,3.73,0,0,0,.24-0.29,1.38,1.38,0,0,1,.3-0.29l0.6-.4A4.41,4.41,0,0,1,76,6.32a0.5,0.5,0,0,1,.12-0.1,0.49,0.49,0,0,0,.12-0.1A1.63,1.63,0,0,0,77,5.72a3.39,3.39,0,0,0,.86-0.29,0.93,0.93,0,0,1,.87,0c0,0.08,0,.12.1,0.12s0.07,0,0,.12a2.33,2.33,0,0,1,1,1.57,3.1,3.1,0,0,1,0,1.06,11.56,11.56,0,0,1-.26,1.13,2.39,2.39,0,0,0-.09.78,1.36,1.36,0,0,1-.15.72A6.8,6.8,0,0,1,79,12.21a12.37,12.37,0,0,0-.35,1.26,1.87,1.87,0,0,0-.37.82,2.35,2.35,0,0,1-.36.89q-0.23.57-.51,1.2a7.35,7.35,0,0,1-.63,1.15c0,0.08.06,0.11,0,.09s0,0,0,.09a1.9,1.9,0,0,0-.28.76,13.3,13.3,0,0,0-.66,1.24q-0.31.67-.65,1.36-1.12,2.84-2.36,5.69a2.83,2.83,0,0,1-.38,1.2,4.32,4.32,0,0,1-.41,1.32,4.29,4.29,0,0,0-.41,1.32,3.58,3.58,0,0,1-.25.57,3.51,3.51,0,0,0-.25.57q-0.28.76-.52,1.54a9.1,9.1,0,0,1-.53,1.36c0,0.08,0,.12,0,0.13s0,0,0,.13a1.28,1.28,0,0,0-.34.76,1,1,0,0,1-.34.7,1.27,1.27,0,0,1-.64-0.47,3.39,3.39,0,0,0-.82-0.24,7.62,7.62,0,0,1-.81-0.18,3.12,3.12,0,0,0,.75.12,6.42,6.42,0,0,1,.68.06,1.58,1.58,0,0,0-.76-0.34,4.19,4.19,0,0,0-2.2.07q-1.13.33-1.87,0.61a2.28,2.28,0,0,1-.64.18,2.33,2.33,0,0,0-.64.18,4.69,4.69,0,0,0-1,.66,5.55,5.55,0,0,0-1.16,1.26,4.9,4.9,0,0,0-.71,1.61c0,0.17-.07.32-0.1,0.47s-0.07.32-.1,0.53a9.64,9.64,0,0,0-.13,1.31,6.75,6.75,0,0,0,.06,1.3,14.3,14.3,0,0,1,.22,1.57,4.84,4.84,0,0,0,.28,1.32,1,1,0,0,1,.2.24,1.34,1.34,0,0,0,.21.43,4.31,4.31,0,0,1,.27.42,3.17,3.17,0,0,1,.19.67,2.22,2.22,0,0,0,.18.61,0.83,0.83,0,0,0,.23.39,1.57,1.57,0,0,1,.3.39q0.13,0.24.27,0.45a1.17,1.17,0,0,0,.45.38,4.48,4.48,0,0,0,.22.8,1.34,1.34,0,0,1,.09.68,0.56,0.56,0,0,0,.51.29V52.2a0.38,0.38,0,0,1,.22.05l0.22,0.11a1.69,1.69,0,0,0,.77-0.1,1,1,0,0,1,.71,0,0.5,0.5,0,0,1,.31.08,1.56,1.56,0,0,0,.25.14,0.67,0.67,0,0,0,.4,0,0.66,0.66,0,0,1,.4,0,0.34,0.34,0,0,1,.16.12,0.49,0.49,0,0,0,.1.12,0.44,0.44,0,0,0,.4-0.17,0.51,0.51,0,0,1,.33-0.23h0.25a2.06,2.06,0,0,0,.71-0.81,1.22,1.22,0,0,1,.9-0.63,1.11,1.11,0,0,1,.3-0.32,1.11,1.11,0,0,0,.3-0.32,0.69,0.69,0,0,0,.73-0.4q0.23-.45.46-0.83H71a1.09,1.09,0,0,1,1.13-1c0.07-.33.14-0.65,0.21-0.94a1.19,1.19,0,0,1,.47-0.7A1.16,1.16,0,0,0,72.88,46,0.54,0.54,0,0,1,73,45.67h0.19a3.31,3.31,0,0,0,.24-0.85c0-.31.11-0.64,0.18-1l0.19-.57a0.75,0.75,0,0,1,.26-0.38,2.76,2.76,0,0,1,1,.76,6.09,6.09,0,0,0,.91.89,12,12,0,0,0,1.56,1,12.2,12.2,0,0,1,1.57,1,0.16,0.16,0,0,1,.16.06s0.07,0,.15,0a0.75,0.75,0,0,0,.35.26,2.53,2.53,0,0,1,.41.2,11.22,11.22,0,0,0,2.4,1,13.16,13.16,0,0,0,2.75.53s0.05,0,0-.09,0-.07.09,0a0.1,0.1,0,0,1-.06.09s0,0,.06,0a7.26,7.26,0,0,0,2-.68,17.64,17.64,0,0,0,1.6-1C89,46.94,89,46.89,89,46.87s0-.05,0-0.09q0.3-.26.57-0.46c0.18-.13.37-0.28,0.57-0.46a1.23,1.23,0,0,1-.31,0,0.57,0.57,0,0,0-.31,0,0.64,0.64,0,0,1-.08-0.37L90.28,45A4,4,0,0,0,91,44.33H91a0.25,0.25,0,0,1-.18.07M54.85,50.53c0-.06,0-0.09.09-0.1a0.28,0.28,0,0,0,.24-0.1,0.2,0.2,0,0,1,.18-0.1c0.16-.09.34-0.18,0.55-0.27a0.76,0.76,0,0,0,.42-0.45,2,2,0,0,1,.2-0.44,1.66,1.66,0,0,0,.19-0.57,5.32,5.32,0,0,0,.09-1.59,2.84,2.84,0,0,0-.4-1.38,2.88,2.88,0,0,0-.52-0.47,3.4,3.4,0,0,0-.7-0.34,2.6,2.6,0,0,1-.62.09,1.84,1.84,0,0,0-.68.15c0,0.12,0,.19-0.12.19a2.82,2.82,0,0,0-1.28,1.14,2.6,2.6,0,0,0-.32,1.85,1.33,1.33,0,0,0,.12.52,2.8,2.8,0,0,1,.18.52,2,2,0,0,0,.24.64,2,2,0,0,1,.24.58H53.2a0.35,0.35,0,0,1,.24-0.26,0.33,0.33,0,0,1,.2.24,0.36,0.36,0,0,0,.14.24,0.18,0.18,0,0,0,.15-0.19,0.17,0.17,0,0,1,.15-0.19,0.29,0.29,0,0,1,.32.2,0.43,0.43,0,0,0,.38.26,0.13,0.13,0,0,0,.09-0.16M48.31,39.87a11.29,11.29,0,0,1,.16-1.4q0.12-.72.21-1.71a0.08,0.08,0,0,0,.12,0,0.08,0.08,0,0,1,.12,0ZM46,41a3.74,3.74,0,0,1-.3,1.07q-0.23.51-.45,1t-0.52,1a8.45,8.45,0,0,0-.26,1,2.15,2.15,0,0,1-.4.92,1,1,0,0,0-.24.2l-0.24.26c-0.08,0-.12.06-0.12,0s0,0-.06,0a0.05,0.05,0,0,1-.06-0.06,3.62,3.62,0,0,1-.77.93,7.71,7.71,0,0,0-.89.94,3.4,3.4,0,0,1-1,.54q-0.49.15-1.23,0.3l-0.95.29a1.54,1.54,0,0,1-1.09-.14,4,4,0,0,1-.56-0.66,4.5,4.5,0,0,1-.44-0.73V47.58a3.57,3.57,0,0,0-.14-0.4l-0.14-.27a0.67,0.67,0,0,1,0-.22,0.7,0.7,0,0,0,0-.22,4.16,4.16,0,0,0-.05-0.5,4.27,4.27,0,0,1-.06-0.56,2.28,2.28,0,0,0,.11-1,1.92,1.92,0,0,1,.12-0.91,3.93,3.93,0,0,0,0-.75,5.15,5.15,0,0,1,.5-1.32q0.34-.64.69-1.33l0.64-1A5.55,5.55,0,0,0,38.73,38L39,37.73a0.72,0.72,0,0,0,.1-0.5,1,1,0,0,0,.69-0.65,7.63,7.63,0,0,1,.48-1,2.53,2.53,0,0,1,.29-0.39,2.45,2.45,0,0,0,.29-0.39,2.72,2.72,0,0,0,.25-0.63,1.77,1.77,0,0,1,.25-0.57,3.38,3.38,0,0,1,.72.74,2.88,2.88,0,0,0,.65.69,0.92,0.92,0,0,0,.64.41,0.5,0.5,0,0,0,.38.11L44.35,36a0.78,0.78,0,0,0,.69.19,5,5,0,0,0,.82.34,2,2,0,0,0,1,.08,1.46,1.46,0,0,1-.06.84,5.77,5.77,0,0,0-.31.79,8.4,8.4,0,0,0-.14,1,3.39,3.39,0,0,1-.21.91q0,0.31-.12.87m-1.33-10a2.58,2.58,0,0,1,.08.52l0.33,0.36a0.58,0.58,0,0,1,.17.33,1.52,1.52,0,0,0,.17.46,3.93,3.93,0,0,0,.33.39,1.77,1.77,0,0,1,.33.58v0.12a0.28,0.28,0,0,1-.31.08l-0.31-.11a2.36,2.36,0,0,1-1-.61,5.15,5.15,0,0,1-.79-1,1.3,1.3,0,0,1,0-.84,0.86,0.86,0,0,1,.63-0.62,0.43,0.43,0,0,1,.39.33m12.38,0.79a0.56,0.56,0,0,0-.28.1l-0.36.26a0.52,0.52,0,0,1-.53.05,2.43,2.43,0,0,1-.94.57q-0.64.25-1.68,0.6a2,2,0,0,1-.74.19c-0.33,0-.68.06-1.05,0.08s-0.73,0-1.09,0h-0.9a0.92,0.92,0,0,1-.28,0,0.73,0.73,0,0,0-.34,0,0.6,0.6,0,0,1-.16-0.21,0.14,0.14,0,0,0-.16-0.09,1.38,1.38,0,0,0-.15-0.61,0.68,0.68,0,0,1-.08-0.31,0.43,0.43,0,0,0-.14-0.3c0.05,0.2.11,0.42,0.18,0.64a2.46,2.46,0,0,1,.12.65,0.25,0.25,0,0,1-.26-0.21A1.32,1.32,0,0,1,48.19,33q-0.14-.37-0.28-0.76a3.29,3.29,0,0,0-.34-0.7A0.68,0.68,0,0,1,47.08,31a5,5,0,0,0-.25-0.7,2.58,2.58,0,0,0-.3-0.51,1,1,0,0,1-.18-0.58l-0.45-.29A0.17,0.17,0,0,0,46,28.7a0.29,0.29,0,0,1-.07-0.15,0.37,0.37,0,0,1-.31-0.08,0.21,0.21,0,0,0-.19-0.09,0.31,0.31,0,0,1,0,.5,0.2,0.2,0,0,1-.25,0A0.21,0.21,0,0,0,45,28.78a0.18,0.18,0,0,0-.12.16c0,0.06,0,.09-0.12.1a0.56,0.56,0,0,0-.66-0.16,0.84,0.84,0,0,1-.72,0,4.51,4.51,0,0,0-.56.58,0.53,0.53,0,0,1-.77.1,1.2,1.2,0,0,0-.2.32,0.26,0.26,0,0,1-.21.2,1.7,1.7,0,0,0-.13-0.86A2.89,2.89,0,0,0,41,28.51,7.3,7.3,0,0,0,40,27.88a1.29,1.29,0,0,0-1.33.06,0.05,0.05,0,0,1-.06.06H38.48a7.25,7.25,0,0,0-1.05.79l-1,.91a11.14,11.14,0,0,0-.91,1.13q-0.38.54-.84,1.25A23.54,23.54,0,0,0,32,37a16.21,16.21,0,0,0-1.25,6.11v0.06a5.46,5.46,0,0,1,0,.59,1.57,1.57,0,0,1-.13.53q0.15,0.49.26,1c0.08,0.33.14,0.66,0.2,1l0,0.43,0.26,0.24a23.54,23.54,0,0,1,.88,2.35,2.94,2.94,0,0,0,1.54,1.83A7.92,7.92,0,0,0,35,52.36a3.52,3.52,0,0,0,1.68.73,1.63,1.63,0,0,0,1,0,3.81,3.81,0,0,1,.92-0.16,0.13,0.13,0,0,1,.09,0,0.12,0.12,0,0,0,.09,0,2.49,2.49,0,0,0,1.47-.4A4.09,4.09,0,0,1,41.58,52a2.8,2.8,0,0,1,.72-0.56A2.89,2.89,0,0,0,43,50.89a1,1,0,0,1,.47-0.58,1.94,1.94,0,0,1,.3-0.26,1.1,1.1,0,0,0,.3-0.32l0.14-.32a3.18,3.18,0,0,1,.2-0.38,1.74,1.74,0,0,0,.25-0.6,6,6,0,0,1,.19-0.66,6,6,0,0,1,.67-1.05,6.08,6.08,0,0,0,.67-1.05,4.66,4.66,0,0,0,.18-0.75A4.65,4.65,0,0,1,46.63,44v0.12a0.05,0.05,0,0,1-.06.06l0.29-.51A1.4,1.4,0,0,0,47,43.27a2.63,2.63,0,0,0,.45-1.08c0-.08,0-0.13,0-0.12s0,0,0-.13a4.54,4.54,0,0,1,.33-1.07,10.22,10.22,0,0,0,.39-1,2,2,0,0,1-.15.72,1.19,1.19,0,0,0-.1.59A13.12,13.12,0,0,0,48.58,39q0.15-.91.39-2.34,0.31,0,1.17-.11a16.71,16.71,0,0,0,2-.36,16.1,16.1,0,0,0,2.23-.72,7,7,0,0,0,2-1.17A0.34,0.34,0,0,1,56.49,34a0.93,0.93,0,0,0,.29-0.39,1.79,1.79,0,0,0,.61-0.83,0.5,0.5,0,0,0-.12-0.61c-0.05-.25-0.12-0.37-0.2-0.36M11.85,23.3a8.14,8.14,0,0,0,.19-2,3.37,3.37,0,0,0,.16-0.66c0-.23.06-0.47,0.09-0.72a11,11,0,0,0,.09-1.56q0-.87,0-1.55a10.14,10.14,0,0,0,.13-1.22,3.48,3.48,0,0,0-.11-1.14,0.72,0.72,0,0,0,.13-0.59,2.57,2.57,0,0,1,0-.71,16.6,16.6,0,0,0,.08-1.68,2.71,2.71,0,0,0-.27-1.29,1.21,1.21,0,0,0-.06-0.62A3.43,3.43,0,0,1,12.13,9q-0.54-.91-1.06-1.63A9.53,9.53,0,0,0,9.82,6a1.75,1.75,0,0,1-.47-0.17,0.84,0.84,0,0,0-.41-0.11,2.74,2.74,0,0,0-1,0,2.6,2.6,0,0,0-1,.35,0.11,0.11,0,0,0-.09.1,0.29,0.29,0,0,1-.15.16q-0.3.32-.47,0.49a1.82,1.82,0,0,0-.35.48A5.53,5.53,0,0,0,5.32,8a1,1,0,0,0-.15.78,1.57,1.57,0,0,0-.27.94,4.11,4.11,0,0,1-.08,1,4.43,4.43,0,0,1-.13.5,4.33,4.33,0,0,0-.13.5,0.68,0.68,0,0,0,0,.22,0.71,0.71,0,0,1,0,.22c-0.06.46-.11,0.92-0.16,1.37s-0.09.91-.16,1.37a3,3,0,0,0,0,.59L4.3,16a1,1,0,0,0-.11.44,38.66,38.66,0,0,1-.56,5.73L2.65,28a8.86,8.86,0,0,0-.14.94,9.32,9.32,0,0,1-.15.94c0,0.33-.05.67-0.08,1s-0.05.68-.08,1.06a6.69,6.69,0,0,0-.29,1.87q-0.24,1.63-.42,3.12t-0.24,3a5,5,0,0,0-.09.87A9.61,9.61,0,0,1,1,42.15a9.48,9.48,0,0,0-.16,1.28q-0.24,3-.35,6.13A36.27,36.27,0,0,0,.83,55.9a3.24,3.24,0,0,1,.22.67,1.92,1.92,0,0,0,.28.67c0.21,0,.31,0,0.31.08a0.39,0.39,0,0,0,.14.27,0.63,0.63,0,0,0,.22.15,0.27,0.27,0,0,1,.16.15,0.14,0.14,0,0,1,0,.15,0.13,0.13,0,0,0,.1.15,0.89,0.89,0,0,1,.48.38,0.89,0.89,0,0,0,.48.38,0.59,0.59,0,0,0,.37,0A1.18,1.18,0,0,1,4,58.87a0.3,0.3,0,0,1,.22.08,0.29,0.29,0,0,0,.22.08,0.5,0.5,0,0,0,.31-0.11,0.17,0.17,0,0,1,.25,0,1.15,1.15,0,0,0,.26-0.51,1.75,1.75,0,0,1,.26-0.57,0.85,0.85,0,0,0,.57-0.52,3.36,3.36,0,0,0,.18-0.88c0.08-.09.14-0.09,0.19,0a0.12,0.12,0,0,0,.19.05,1.4,1.4,0,0,1,.13-1.25,0.84,0.84,0,0,1,.2-1c0.08-.09.14-0.1,0.18,0a0.21,0.21,0,0,0,.19.09,2.32,2.32,0,0,0,0-.93,0.81,0.81,0,0,1,.34-0.82,0.2,0.2,0,0,1,0-.22,0.21,0.21,0,0,0,0-.22A3.61,3.61,0,0,0,8,50.78c0-.52.09-1,0.16-1.4a2,2,0,0,1,0-.5l0.1-.5a2.57,2.57,0,0,0,0-1,3.72,3.72,0,0,1,0-1,1.65,1.65,0,0,0,.15-0.94l0-.56a2.43,2.43,0,0,0,.12-0.72,5.9,5.9,0,0,1,.06-0.72,6.38,6.38,0,0,1,.17-1Q8.91,42,9,41.39,9.1,40.58,9.2,40a12.62,12.62,0,0,0,.13-1.31,0.25,0.25,0,0,0,.14-0.26,0.56,0.56,0,0,1,0-.31c0-.17.07-0.32,0.1-0.47s0.07-.28.11-0.41a1.27,1.27,0,0,1,0-.31,1.21,1.21,0,0,1,.08-0.25,0.75,0.75,0,0,1,.05-0.28c0-.1.07-0.22,0.11-0.35A1.32,1.32,0,0,0,10,35.39a1.28,1.28,0,0,1,.07-0.62,2.19,2.19,0,0,1,.16-0.57q0.11-.25.22-0.57a13.32,13.32,0,0,1,.91-2q0.52-.92,1.1-1.82a0.92,0.92,0,0,1,.22-0.6l0.48-.42a0.54,0.54,0,0,0,.14-0.28,0.54,0.54,0,0,1,.14-0.29,3,3,0,0,1,.35-0.45A0.78,0.78,0,0,0,14,27.46a2.38,2.38,0,0,1,.11-0.31,1.61,1.61,0,0,1,.33-0.26l0.39-.26a20.43,20.43,0,0,1,1.72-3.21q1-1.5,2-3a3.19,3.19,0,0,0,.83-0.84l0.7-1a0.68,0.68,0,0,1,0-.31,0.55,0.55,0,0,0,.05-0.25q0.29-.45.61-0.9a10.66,10.66,0,0,0,.61-1A5.52,5.52,0,0,1,22.32,15q0.54-.49,1.07-1A2.59,2.59,0,0,0,24,13.44,1.49,1.49,0,0,1,24.65,13a15.9,15.9,0,0,1-.12,2.86q-0.19,1.37-.44,2.69t-0.54,2.6q-0.29,1.29-.48,2.6a8.4,8.4,0,0,0-.14,1q0,0.47-.14,1-0.08,1.06-.25,2.06t-0.26,1.87q-0.07,1.18-.05,2.3a16.35,16.35,0,0,1-.12,2.24q-0.23,1.75-.47,3.47t-0.47,3.47a25.88,25.88,0,0,0-.34,3q-0.09,1.56-.14,3.11a17.24,17.24,0,0,0,0,3.44A24.64,24.64,0,0,0,21.23,54q0.15,0.68.24,1.23a3.06,3.06,0,0,0,.35,1,4.06,4.06,0,0,0,.54.91l0.72,0.9a6.56,6.56,0,0,0,1.34,1.59,5.61,5.61,0,0,0,2,1,0.26,0.26,0,0,1,.25,0,0.55,0.55,0,0,0,.25.05,1.82,1.82,0,0,0,1,.39,3.64,3.64,0,0,0,1.33-.06,0.28,0.28,0,0,1,.08-0.25,0.48,0.48,0,0,0,.15-0.19,0.51,0.51,0,0,1-.51-0.41,0.68,0.68,0,0,1,.22,0l0.22,0.08a0.26,0.26,0,0,0-.16-0.21,0.12,0.12,0,0,1,0-.22,0.55,0.55,0,0,1,.47,0,0.74,0.74,0,0,0,.47.1,0.76,0.76,0,0,1,.3-0.2,1.61,1.61,0,0,0,.36-0.2,2.76,2.76,0,0,1-.66-0.28,1.36,1.36,0,0,1-.49-0.6c0.21,0,.25-0.07.15-0.19a0.29,0.29,0,0,1-.11-0.31,0.22,0.22,0,0,1,.28,0c0.07,0.08.14,0.08,0.22,0L30,57.92l-0.2-.36a0.2,0.2,0,0,1,.22,0q0.1,0.06.09-.07a0.21,0.21,0,0,0-.16-0.06c-0.06,0-.09,0-0.1-0.12s0.08-.11.12-0.07,0.06,0,.06-0.06-0.16-.07-0.1-0.09A0.14,0.14,0,0,0,30,56.92a0.4,0.4,0,0,1-.08-0.37,2.89,2.89,0,0,0-.59-0.69,1.91,1.91,0,0,1-.53-0.81,2.58,2.58,0,0,1-.13-0.89,5.1,5.1,0,0,0-.07-1,2,2,0,0,0-.08-0.49c0-.16-0.1-0.31-0.14-0.43,0-.37,0-0.76,0-1.15s0-.78,0-1.15a4.47,4.47,0,0,1-.07-0.9q0-.4,0-0.78a3.37,3.37,0,0,0,.16-0.66,1.74,1.74,0,0,0,0-.65,8.7,8.7,0,0,0,.07-2.67q0.15-.81.39-1.82a20.93,20.93,0,0,0,.38-2.06,2.09,2.09,0,0,0,0-.62,2.09,2.09,0,0,1,0-.62,1.3,1.3,0,0,0,.23-0.32,8.71,8.71,0,0,0,0-1.05,11.42,11.42,0,0,1,0-1.18c0-.21.07-0.4,0.1-0.56a2.36,2.36,0,0,0,0-.56,4.76,4.76,0,0,1,0-1.21q0.07-.59.1-1.22a1.13,1.13,0,0,0,.07-0.56,1.73,1.73,0,0,1,0-.56q0.1-.56.2-1.06A4.66,4.66,0,0,0,30,29.8a7,7,0,0,0,.11-1.12,5.54,5.54,0,0,1,.11-1.06,1,1,0,0,0,.1-0.47,1.94,1.94,0,0,1,0-.47q0.13-1.25.17-2.4t0.11-2.39a2.48,2.48,0,0,1,.07-0.65,2.48,2.48,0,0,0,.06-0.65,0.76,0.76,0,0,0,0-.37,2.55,2.55,0,0,1,0-.43l0.16-1.4A4.18,4.18,0,0,0,30.85,17q-0.08-.31-0.16-0.71a5.44,5.44,0,0,1-.1-0.83A0.81,0.81,0,0,1,30.35,15a1.07,1.07,0,0,1,.07-0.59,1.65,1.65,0,0,1-.12-0.74A1,1,0,0,0,30,12.92a1.41,1.41,0,0,1,.38-0.48,0.87,0.87,0,0,0,.32-0.54q0-.8-1.09-0.76a1.56,1.56,0,0,1-.26-0.33,1.91,1.91,0,0,0-.33-0.39,0.18,0.18,0,0,0-.13-0.06,0.47,0.47,0,0,1-.19-0.05,1,1,0,0,1-.26-0.36,0.79,0.79,0,0,0-.2-0.3,0.21,0.21,0,0,0-.16-0.06A0.18,0.18,0,0,1,28,9.48l-0.29-.24A3,3,0,0,1,27.39,9a2.38,2.38,0,0,0-1-.36,5.65,5.65,0,0,0-1.33,0,6.06,6.06,0,0,0-1.59.53,5.74,5.74,0,0,0-1.2,1l-0.59.61a5,5,0,0,0-.53.61q-0.47.52-.89,1c-0.28.32-.55,0.63-0.83,0.94L19,13.65a1.33,1.33,0,0,0-.26.32q-0.53.71-1,1.44t-1,1.44a13.25,13.25,0,0,0-1.22,1.85q-0.52,1-1.1,1.91a8.4,8.4,0,0,0-1.1,1.91,7.65,7.65,0,0,0-.86,1.71c-0.11.21-.23,0.44-0.34,0.67a0.56,0.56,0,0,1-.48.36,11,11,0,0,1,.26-2" transform="translate(-0.47 -0.92)"/></svg>