<svg id="Layer_1" data-name="Layer 1" xmlns="http://www.w3.org/2000/svg" xmlns:xlink="http://www.w3.org/1999/xlink" viewBox="0 0 265.11 315"><defs><style>.cls-1{fill:none;}.cls-2{clip-path:url(#clip-path);}.cls-3{fill:#f7f5db;}</style><clipPath id="clip-path"><rect class="cls-1" width="265.11" height="315"/></clipPath></defs><title>flower-right-top</title><g class="cls-2"><path class="cls-3" d="M120.76,106.92l1.28-.29a1.8,1.8,0,0,1-.1.9c-0.6.63-.77-0.19-1.15-0.34,0-.09,0-0.18,0-0.27m0.92-3.16a3.47,3.47,0,0,1-.31,1.25,1.07,1.07,0,0,1-1,.24c-0.52-.24-0.38-0.66,0-1s0.69-.51,1-0.77l0.25,0.24m-0.3,5.62,1.46-1.45a1,1,0,0,1,.21,1.67c-0.55.66-1.08,0.23-1.67-.22m13.18-21.46a8.67,8.67,0,0,0-4.46,4l-0.3-.2a9.32,9.32,0,0,1,1.14-2c0.73-.78,1.68-1.34,2.49-2,0.46-.4.72-0.24,1.12,0.3m-4.23,16.82c-1.38-.58-1.69-3.34-0.44-4.77l0.44,4.77m-6.18,4.65c1,0.65.5,1.3,0.33,1.84a10.56,10.56,0,0,1-1,2.2c-0.31.52-.78,0.45-1.26,0l1.91-4m-0.29-14.12a0.86,0.86,0,0,1-.36-1.47c0.68-.94,1.22-2,1.91-2.91a3,3,0,0,1,1-.58,3,3,0,0,1-.16,1.08c-0.55.92-1.19,1.79-1.78,2.69-0.24.37-.43,0.78-0.66,1.21m2.46,4.11a1.94,1.94,0,0,1-.35-0.95c0.64-1.65,1.37-3.26,2.07-4.89l0.45,0.05a2.64,2.64,0,0,1,.12,1.08c-0.58,1.58-1.24,3.14-1.87,4.7h-0.42m0.89,1c0.34-1,.68-2,1.08-3.06a0.62,0.62,0,0,1,.53-0.29,0.64,0.64,0,0,1,.32.53c-0.09,1-.25,2-0.36,3,0,0.3,0,.61,0,0.91a4.58,4.58,0,0,1-.25.8,1.92,1.92,0,0,1-.78-0.43,8.34,8.34,0,0,1-.54-1.5m0.3-9.66a1.74,1.74,0,0,1,.06,2.19c-0.68,1.08-1.45,2.11-2.23,3.12a2,2,0,0,1-.8.35,2.05,2.05,0,0,1,.07-0.82c0.91-1.57,1.86-3.12,2.89-4.83m7.41-5.17-2.73,2.13a28,28,0,0,1-2.92,2.1,1.88,1.88,0,0,1,.14-1c1-.92,2.06-1.77,3.1-2.64a10.39,10.39,0,0,0,1-.81c0.46-.49.88-0.57,1.42,0.16m-8.16,23.57a10,10,0,0,1,.21,2.53c-0.3,1.79-.77,3.56-1.24,5.32a2.6,2.6,0,0,1-.83,1.1,0.82,0.82,0,0,1-.76,0,0.73,0.73,0,0,1-.08-0.7c1.16-1.85,1.15-4,1.52-6a3.5,3.5,0,0,1,.83-2.25h0.35m-8.86,4.6c1.26,1.19.35,2.49,0.58,3.78l0.42-1c0.73,0.21,1,.8.76,1.84a11.08,11.08,0,0,1-2.22,5.15c-0.28.32-.39,0.93-1,0.57s0-.8.13-1.16a24.43,24.43,0,0,0,1.25-3.22c-0.32.38-.63,0.78-1,1.12a0.59,0.59,0,0,1-.54.06,0.63,0.63,0,0,1-.08-0.5c0.36-1.82.73-3.65,1.14-5.46a6.37,6.37,0,0,1,.52-1.16m10.15,4.68a1.85,1.85,0,0,0,.56-0.32c0.67-1.41,1.33-2.83,2-4.25,1-2.07.43-4.31,0.65-6.46a25.84,25.84,0,0,0-.47-4.62c-0.25-3-.94-5.92-0.46-8.92a5.33,5.33,0,0,1,2.1-3.77c0.91-.62,1.89-1.13,2.8-1.75a13.18,13.18,0,0,1,5.26-1.68,15.35,15.35,0,0,1,2.73,0V86.34a8.71,8.71,0,0,1-1-.14c-1.94-.49-3.86-1-5.82-1.48a4.52,4.52,0,0,0-2.31,0c-1.71.59-3.36,1.35-5,2.1A12.21,12.21,0,0,0,124,91a37.68,37.68,0,0,0-4.83,10.19,15.06,15.06,0,0,0-.66,2c-0.28,1.77-.46,3.55-0.7,5.32-0.12.9-.29,1.78-0.39,2.68a16.79,16.79,0,0,1-.33,3.15,23.9,23.9,0,0,1-3.71,7.28,22.48,22.48,0,0,1-6.29,6c-0.62.37-1.18,0.85-1.77,1.28a16.4,16.4,0,0,0,2.33-.44c2.49-.55,5-1.05,7.47-1.67a3.87,3.87,0,0,0,1.81-1,10.77,10.77,0,0,0,1.7-2.48c0.63-1.26,1.11-2.6,1.72-4.06a2.49,2.49,0,0,1,.59,1,14,14,0,0,1-.6,2.71,19.53,19.53,0,0,1-1.1,2.27l0.17,0.14a9.06,9.06,0,0,0,.9-0.94A13.81,13.81,0,0,0,121,123l0.66,1.07c1.85-1.51,4.22-2.4,5.31-4.8-0.53-.25-0.74-0.57-0.23-1.06a0.9,0.9,0,0,0,.23-0.47c0.37-2.06.71-4.13,1.1-6.19a11.69,11.69,0,0,1,.52-1.57l0.39,0.06c0.68,1.3.23,2.72,0.29,4.1l0.82-3.32c0.73,0.25.53,0.78,0.37,1.18-0.74,1.86-1.54,3.7-2.3,5.55a4.94,4.94,0,0,0-.14.87m-6.6-34.22c-0.6.57-1.64,0.34-2.41-.52,0.66-.72,1.13-0.63,2.41.52M97.21,90.77c0.81-.25,1.52-0.49,2.25-0.66a0.81,0.81,0,0,1,.51.41,0.53,0.53,0,0,1-.08.47c-0.39.5-2,.45-2.67-0.21m16-5a2.07,2.07,0,0,1,2.87.34c-0.62.81-1.58,0.71-2.87-.34m-13.69,2.8a2.19,2.19,0,0,1,2.66-.81,1.91,1.91,0,0,1,.54.75,2.43,2.43,0,0,1-.83.42,7.38,7.38,0,0,1-1.47-.14c-0.26,0-.52-0.12-0.9-0.22M96.45,93.4c-0.62-.21-1.26-0.39-1.87-0.65a1.61,1.61,0,0,1-.44-0.55,1.47,1.47,0,0,1,.62-0.34c0.87,0.08,1.73.22,2.59,0.37a0.51,0.51,0,0,1,.31.35,1.13,1.13,0,0,1-.39.63,2,2,0,0,1-.78.09Zm19.32-8.63a2.15,2.15,0,0,1,2.45-.43c0.47,0.15,1.33,0,1.07.9s-1,.54-1.55.34-1.31-.54-2-0.81m-5.4,2.57a3.08,3.08,0,0,1,3.26-.34,0.66,0.66,0,0,1,.22.54,1.47,1.47,0,0,1-.77.7,4.37,4.37,0,0,1-2.72-.9M89.82,93c0.77-.83,1.66-0.24,2.41-0.17a27,27,0,0,1,4,.87,4.42,4.42,0,0,1,.93.49c-0.46.87-1.21,0.66-1.86,0.5-1.66-.39-3.31-0.83-5-1.28a1.75,1.75,0,0,1-.5-0.42m17.5-4.39a4.07,4.07,0,0,1,1.25-.32c1.51,0.12,3,.31,4.51.52a2.06,2.06,0,0,1,.7.46,2.26,2.26,0,0,1-.86.75,13.13,13.13,0,0,1-5-.74,2.79,2.79,0,0,1-.58-0.36l0-.31m7,2.92A4.87,4.87,0,0,1,113,92a25.1,25.1,0,0,1-8-1.31,0.75,0.75,0,0,1-.19-0.25,7.74,7.74,0,0,1,4.74,0c1.55,0.38,3.27-.22,4.72.7,0,0.13,0,.27,0,0.4M91.52,96.19c-1.1-.49-2.21-1-3.3-1.48a17.72,17.72,0,0,1-1.78-.92,1.5,1.5,0,0,1-.32-0.62A1.52,1.52,0,0,1,86.79,93c1.57,0.51,3.13,1.07,4.69,1.61,0.57,0.2,1.15.38,1.72,0.59,0.36,0.13.71,0.3,1.07,0.45,0,0.13,0,.26,0,0.39a10.14,10.14,0,0,1-1.37.22,11,11,0,0,1-1.41-.13L92.37,97c-0.86.93-1.73-.11-2.59,0.13,1.62,0.63,3.26,1.17,4.92,1.65a4.09,4.09,0,0,0,1.17,0c0.78,0,1.56-.06,2.34,0,1.44,0.05,2.87.16,4.31,0.24-1.72-.48-3.55-0.39-5.21-1.2,0.43-.87,1.07-0.49,1.59-0.45,2.21,0.16,4.41.39,6.62,0.56a7,7,0,0,0,1.35-.15c-2.69-.36-5.36-0.5-7.92-1.47a1.38,1.38,0,0,1,.87-0.49c2.48,0.07,5,.18,7.45.29,0.45,0,.91.23,1.35,0.21a12.63,12.63,0,0,0,1.72-.29l-0.06-.18-8.94-1,0-.43a4,4,0,0,1,1.28-.43c3.23,0.08,6.45.22,9.68,0.33a5.66,5.66,0,0,0,1-.12V94a35.15,35.15,0,0,1-10.07-1.31,1.63,1.63,0,0,1,.94-0.46c1.08,0,2.15-.06,3.23,0a22.31,22.31,0,0,1,2.69.35c1.08,0.19,2.14.45,3.21,0.68,0.58,0.13,1.14.42,1.68-.21a34.85,34.85,0,0,1,2.57-2.75c1.83-1.72,3.65-3.45,5.6-5a6.93,6.93,0,0,1,4.07-1.83c0.9,0,1.8-.21,2.7-0.3a33.26,33.26,0,0,1,5-.4,36.68,36.68,0,0,1,5.79.92,7.3,7.3,0,0,1,4,2.56,2.31,2.31,0,0,0,1,.74c0.83,0.25,1.7.38,2.45,0.54,0.17-1.14.34-2.24,0.49-3.34a2.1,2.1,0,0,0,0-.89,2.31,2.31,0,0,1,.12-2A1,1,0,0,0,148.1,80l-0.54,6.69a0.4,0.4,0,0,1-.33-0.3,1.8,1.8,0,0,0,0-.44c-0.91-2-.5-4.15-0.5-6.24a0.69,0.69,0,0,1,.1-0.33c0.63-1.1.5-1.58-.66-2.19v7.74l-0.54-.62a2.47,2.47,0,0,1-.34.92,2,2,0,0,1-1.12-.28c-0.78-.48-1.49-1.07-2.27-1.56a13.79,13.79,0,0,0-5.44-2.23c-1.69-.24-3.39-0.36-5.08-0.52a16.58,16.58,0,0,0-2.2-.16c-2.1.08-4.21,0.21-6.31,0.35a24.69,24.69,0,0,0-4.21.4c-3.07.75-6.11,1.64-9.14,2.57-1.37.42-2.67,1.08-4,1.64-1.75.73-3.47,1.51-5.24,2.17-1.3.48-2.66,0.76-4,1.19a27.71,27.71,0,0,1-8,1.14c-1.08,0-2.16-.1-3.24-0.08-0.86,0-1.69-.54-2.56-0.12a1,1,0,0,1-.31-0.13l-3.32-.76a26,26,0,0,0,3.26,3.44,10.32,10.32,0,0,0,2.31,1.37,26.41,26.41,0,0,0,2.49,1l4.59,1.63m4.42-26.7c-0.59.7-1,.64-1.3,0.22a1.25,1.25,0,0,1,0-.61l1.32,0.39M98,67.27a1.06,1.06,0,0,1-1.74,0,0.78,0.78,0,0,1,0-.64,1.43,1.43,0,0,1,1.77.67m4.13-2.6c1.51-.9,3.21-0.92,5.23-0.89a2.73,2.73,0,0,1-.68.72c-0.66.22-1.34,0.36-2,.51a8.42,8.42,0,0,1-1.45.25,5.17,5.17,0,0,1-1.1-.18l0-.42m1.69-2.29c1.42-1,6.32-1.69,7.63-.84-0.9.32-1.84,1-2.68,0.88a14.54,14.54,0,0,0-4.16.36,1.89,1.89,0,0,1-.79-0.41m4.05-6.83,2.65-.71c1.85-.49,3.7-1,5.56-1.44a8.78,8.78,0,0,1,1.38-.12,4.12,4.12,0,0,1-1.06.82c-2,.65-4,1.26-6,1.83a8.13,8.13,0,0,1-1.91.26,1.71,1.71,0,0,1-.69-0.38l0-.27m7.83,1.11c-2.54,1.15-9.62,2.29-10.49,1.67,0.69-1,1.82-.78,2.77-1,2.11-.41,4.23-0.7,6.35-1a9.41,9.41,0,0,1,1.36,0c0,0.11,0,.22,0,0.33m1.35-3.74-0.21-.31a2,2,0,0,1,.37-0.57c1-.75,2.07-1.5,3.13-2.2,1.41-.93,2.86-1.8,4.25-2.75a12.87,12.87,0,0,0,1.43-1.32l-0.21-.23c-1.14.63-2.3,1.21-3.41,1.88s-2.25,1.49-3.4,2.19a2.23,2.23,0,0,1-.91.09l-0.17-.44,7.83-5.71-0.1-.16-7.47,4.44c-0.6-.38-0.61-0.77-0.1-1.15,1.08-.79,2.15-1.61,3.27-2.34,1.28-.84,2.61-1.59,3.9-2.4a3,3,0,0,0,.53-0.55,1.42,1.42,0,0,0-.93.15c-1.72,1-3.42,2.12-5.15,3.15-0.9.54-1.82,1-2.76,1.48a1.6,1.6,0,0,1-.78-0.15,1.47,1.47,0,0,1,.25-0.67c1.12-.79,2.24-1.58,3.41-2.3,1.79-1.09,3.63-2.11,5.43-3.2a2.83,2.83,0,0,0,.59-0.73L125.67,39c-1.75,1-3.49,2-5.25,2.9-1.94,1-3.89,2-5.85,3a9.4,9.4,0,0,0-2.07,1c-1.83,1.65-3.57,3.39-5.34,5.11-0.29.29-.51,0.64-0.8,0.93-0.85.89-1.77,1.72-2.57,2.66A30.76,30.76,0,0,0,99.69,62a1,1,0,0,0-.17.66c0.33,0.75-.2.88-0.68,1-0.64.12-.74,0.33-0.39,0.89a0.88,0.88,0,0,1-.1.83,1.53,1.53,0,0,1-1.68-.37c-0.2-.34-0.37-0.71.29-0.81a1.05,1.05,0,0,0,.72-0.46,10.71,10.71,0,0,0,.5-1.71c0.2-.79.37-1.59,0.57-2.46l-5.68,2.14c0,0.87,0,1.49,0,2.11s-0.45,1.3-.13,2a1.42,1.42,0,0,1-.18.7,0.68,0.68,0,0,0-.08.35,0.67,0.67,0,0,1-.11,1.1,0.52,0.52,0,0,0-.18.41c0.15,0.79.36,1.57,0.5,2.35,0.22,1.24.56,1.62,1.44,1.31,1.16-.41,2.28-0.92,3.4-1.44,0.75-.35,1.42-0.89,2.18-1.18a12.29,12.29,0,0,0,4.56-2.95,1.26,1.26,0,0,1,.28-0.28c1.71-.84,3.42-1.68,5.14-2.51,0.43-.21.9-0.36,1.42-0.56l-0.54-.3c0.93-.57,1.78-1.17,2.7-1.64,1.82-.92,4.07-0.85,5.6-2.45a1.18,1.18,0,0,1,.47-0.22l3.13-1a4.63,4.63,0,0,0,1-.31,17.56,17.56,0,0,0,1.77-1.24,5.05,5.05,0,0,0,.68-0.85,1.28,1.28,0,0,0-.35-0.12,1.39,1.39,0,0,0-.39.17,16.82,16.82,0,0,1-6.24,2.88c-0.65.15-1.31,0.26-1.94,0.46-1.94.59-3.86,1.27-5.82,1.8a16.43,16.43,0,0,1-2.85.33c-0.45,0-.92,0-1.37,0-0.64,0-1.41.62-1.86-.54a5.29,5.29,0,0,1,1.21-.46c1.28-.17,2.59-0.15,3.85-0.4,2.44-.49,4.87-1.11,7.29-1.72a8.81,8.81,0,0,1,2-.71c1.45,0,2.48-.77,3.62-1.38s2-1.15,3-1.78a1.52,1.52,0,0,0,.1-0.77c-1.85,1.39-9.19,4.8-10.07,4.48a2.16,2.16,0,0,1,.46-0.52c2.15-1.17,4.32-2.3,6.46-3.47A26.7,26.7,0,0,0,126,51.48a2.31,2.31,0,0,0,.4-1c-2.94,2-9.16,5.13-10.07,4.59a4.32,4.32,0,0,1,.92-0.67,49.24,49.24,0,0,0,6.13-3.77c0.86-.69,1.78-1.3,2.64-2a2.3,2.3,0,0,0,.26-0.95c-3.05,2.15-5.85,4.18-9.16,5.27M156.08,0h-8.9l0,0.06c-0.15.38-.49,0.69-0.61,1.07A4.36,4.36,0,0,1,144.19,4c-0.7.34-1.46,0.58-2.43,1,2.3,0.36,4.24,1.36,6.4.86-1.14-.34-2.49,0-3.65-1.18A6.23,6.23,0,0,1,146,4.26c1.47,0.07,2.93.28,4.39,0.31,0.59,0,1.37.07,1.62-.65l-1.64-.82,0.07-.36a7,7,0,0,1,1.14-.28c0.59,0,1.19,0,1.79,0a1.27,1.27,0,0,0,1.45-1,1,1,0,0,1,.4-0.55A2.17,2.17,0,0,0,156.08,0M145.22,0H135.4c-0.14.41-.29,0.81-0.44,1.21-0.42,1.07-1,2.09-1.47,3.2l6.23-.83c-0.19-.77-1-0.37-1.47-0.39a10.74,10.74,0,0,0-1.93.16c-0.56.08-1.12,0.21-1.67,0.31,1.56-1.32,3.47-.88,5.33-1.08l-1.23-.5c1.2-1.31,2.79-.81,4.1-1.21a1.88,1.88,0,0,1,.89.25A1.84,1.84,0,0,0,145.22,0M109.9,39.23c1-1.71,1.87-3.3,2.81-4.85a1.23,1.23,0,0,1,.9-0.6c0.63,0.16.3,0.67,0.19,1.08a9.3,9.3,0,0,1-3,4.26,1.84,1.84,0,0,1-.87.1m0.89-4.86a2.64,2.64,0,0,1,0,1.05c-0.57,1.17-1.21,2.3-1.83,3.43a5,5,0,0,1-.72,1.16,1.33,1.33,0,0,1-1,.42c-0.56-.13-0.39-0.67-0.2-1q1.26-2.26,2.63-4.47a3,3,0,0,1,.83-0.64l0.32,0m7.53-3.52c-0.48,3.07-2.55,5.06-4.84,7.21a2,2,0,0,1-.13-0.89c0.74-1,1.55-1.94,2.3-2.93a6.37,6.37,0,0,0,.54-1c0.33-.67.66-1.34,1-2a0.68,0.68,0,0,1,1.12-.36M104.1,42.19c2.61-.81,5-1.58,7.43-2.3,1.27-.38,2.51-0.61,3.45-1.81a46,46,0,0,0,5-7.24,1.79,1.79,0,0,1,.54-0.49,2.64,2.64,0,0,0,.74-0.55c0.5-.86.92-1.77,1.38-2.66-0.74-.34-0.72-0.33-1,0.43s-0.44,1.91-1.54,2.25a2.66,2.66,0,0,1-.63.05,2.22,2.22,0,0,1,0-.62c0.3-.84.63-1.68,1-2.57a4,4,0,0,0-1.27-.19,28.44,28.44,0,0,0-4.37,1.14,42.45,42.45,0,0,0-12.37,7.27A31.7,31.7,0,0,0,99,39.25a0.92,0.92,0,0,1-.5.36,1.18,1.18,0,0,1-.55-0.6A1.45,1.45,0,0,1,98,38.17a15,15,0,0,1,1.82-2.49c1.26-1.93,3.2-3,4.83-4.44a23.59,23.59,0,0,1,2.62-2A17,17,0,0,1,109.66,28a2.22,2.22,0,0,1,1,.22l-0.34-.54,2.4-1.21c-1-1,.45-1.62.3-2.5-0.92-.18-0.66.72-0.76,1.1-0.14.53-.34,0.76-0.83,0.59s-0.88-.32-0.51-1a1.76,1.76,0,0,0,0-.69,2.68,2.68,0,0,1-3.27-.39,1.87,1.87,0,0,1,.19-1.17,6.85,6.85,0,0,1,.77-1.14,6.14,6.14,0,0,0-1.37.28,34.39,34.39,0,0,0-4.85,2.66,12.7,12.7,0,0,0-3.47,3.86,20.31,20.31,0,0,0-2.47,5.14c-0.19.75-.38,1.51-0.59,2.25a25.81,25.81,0,0,0-.8,2.82c-0.25,1.61-.36,3.24-0.56,5.08,0.61,0,1.15,0,1.69,0,1.54-.09,3.21.15,4.21-1.49a0.5,0.5,0,0,1,.49-0.1,0.77,0.77,0,0,1,.38.5,3.2,3.2,0,0,1-.32.94,5,5,0,0,0,1.57-.94,13,13,0,0,1,1.79-2.63,5.74,5.74,0,0,0,1-1.55,0.62,0.62,0,0,1,1-.23,1,1,0,0,1,.11.83,14.67,14.67,0,0,1-.74,1.66,0.88,0.88,0,0,1-.28.41c-1-.15-0.84.79-1.25,1.39M99,10.49l-0.33-.1a2.62,2.62,0,0,1,.43-1.09c1.28-1,2.62-2,4-3l-0.35-.64a2.72,2.72,0,0,1,2.18-1.22c1.12,0,2.24-.17,3.36-0.16,1.63,0,3.26,0,4.88.18,1.3,0.11,2.58.4,3.88,0.6,0.69,0.11,1.39.15,2.07,0.3a9.88,9.88,0,0,1,1.38.51A17.37,17.37,0,0,1,118.52,0H103l-0.5.51a52.08,52.08,0,0,0-4.52,5.31,16.21,16.21,0,0,0-2.89,6c-0.28,1.31.13,1.87,1.49,1.88a2,2,0,0,1,1.12.11,3.64,3.64,0,0,0,2.14.62,6,6,0,0,1,1,.3c1.09,0.37,2.17.78,3.28,1.11a10.07,10.07,0,0,1,4.37,2.09c0.41,0.39.63,0.28,0.84-.18,0.92-2,1.83-4.06,2.77-6.08a1.63,1.63,0,0,1,.54-0.58c1.92-1.36,3.84-2.71,5.83-4.11a17.47,17.47,0,0,0-2.19.8c-2,1-3.95,2.15-5.93,3.2a2,2,0,0,1-.77.05l-0.07-.33,5.45-3.82a1.37,1.37,0,0,0-.63,0c-1.58.89-3.15,1.81-4.72,2.73-0.78.46-1.53,0.94-2.32,1.39a1.14,1.14,0,0,1-.53,0,1,1,0,0,1,.16-0.44c1.11-.86,2.2-1.74,3.35-2.54C111.1,7.4,112,6.88,113,6.32l-0.1-.23a11.22,11.22,0,0,0-2.46.78c-1.91,1.12-3.73,2.38-5.59,3.58l-1.94,1.25-0.24-.36a77.26,77.26,0,0,1,6.81-5.39,0.68,0.68,0,0,0-.44.12,31.28,31.28,0,0,0-8,5.12,1.23,1.23,0,0,1-.62,0A25.86,25.86,0,0,1,107,6c-3.47,0-5.57,2.61-8.05,4.46M187,24.27l-0.17-.07a4.45,4.45,0,0,0,0-1c-0.19-.82-0.43-1.63-0.65-2.45s-0.42-1.62-.64-2.42c-0.15-.56-0.16-1.43-0.51-1.6a2.79,2.79,0,0,1-1.18-1.47,16,16,0,0,0-3.55-4c-2.11-1.91-4.76-2.28-7.3-3a1.2,1.2,0,0,0-.54.22c1.71,0.79,1.49,6.82-.23,8.06a0.5,0.5,0,0,1-.15-0.2c0-1.6.1-3.2,0.13-4.79a0.83,0.83,0,0,0-.18-0.6,1.11,1.11,0,0,1-.72-1.26c-0.08-.79-0.24-1.57-1.13-1.62,1.54,3.08,1.25,6.33.82,9.6a12.26,12.26,0,0,1,3.16.9,10.35,10.35,0,0,1,3.06,1.83c0.52,0.37.86,1,1.36,1.37,0.8,0.67.76,1.45,0,1.87-0.79-.73-1.49-1.44-2.25-2.08a14.6,14.6,0,0,0-5.56-2.59,0.62,0.62,0,0,0-.9.63c-0.13,1.22.22,2.4-.07,3.66a36.28,36.28,0,0,0-.54,5.39,1.76,1.76,0,0,0,.24.65,2.59,2.59,0,0,0,.39-0.58c0.23-.67.42-1.36,0.64-2.12a2,2,0,0,1,.64.36c-0.07.89-.18,1.77-0.29,2.7,1,0.12,2.08.31,3.13,0.36,1.26,0.06,2.53,0,3.8,0,0.8,0,1.6-.05,2.39-0.14,2-.21,3.94-0.48,5.92-0.69,0.63-.06,1.62-1.06,1.42-1.59a6.18,6.18,0,0,1-.1-3.9l-0.42.62M131.44,61h0l-0.14-.2-1.4,1.08c0.92,0.27,1.18-.37,1.54-0.88m12.81-9.66h0l0.18,0.44a4.35,4.35,0,0,0,1.06-.19,1.8,1.8,0,0,0,.68-0.63,2.74,2.74,0,0,0,.25-0.74,1.72,1.72,0,0,0-.85,0,12.09,12.09,0,0,0-1.33,1.14m-10.76,3.13h0c-0.57.59-1,1.15-1.59,1.65s-1.13.9-1.76,1.4l0.53,0.59c0.57-.22.72-0.71,1.28-0.86a3.22,3.22,0,0,0,1.43-1.41c0.23-.34.8-0.83,0.11-1.37m-3.62,5.6h0c0.86,0.84,3.31-.85,3.74-2.69-1.38.69-2.43,1.87-3.74,2.69m3.59-8.42h-0.26c-0.57.67-1.11,1.36-1.72,2s-1.24,1.14-1.84,1.73a1.4,1.4,0,0,0-.18.57,1.6,1.6,0,0,0,.51,0,7.36,7.36,0,0,0,3.47-3.58,1.6,1.6,0,0,0,0-.67m-1.22-1.91h0c-0.67,0-2.12,1.65-3.78,4.1,0.5,0.59.87,0.12,1.24-.16,1.33-1,1.78-2.53,2.54-3.95M137,44.55c0.46,1,.38,1.31-0.5,1.89a4.35,4.35,0,0,0-.85.62,2.44,2.44,0,0,0-.32.73,3.15,3.15,0,0,0,1.06.21,2.72,2.72,0,0,0,.87-0.52l0.26,0.14A5.54,5.54,0,0,1,137,49a6.12,6.12,0,0,1-1.19,1l0,0.3,1.71,0.21c-0.23.39-.46,0.8-0.71,1.18-0.11.17-.33,0.28-0.43,0.45a1.11,1.11,0,0,0-.26.71,2.66,2.66,0,0,0,.94.48c-0.26.69-.56,1.56-0.92,2.41s-0.78,1.73-1.15,2.61a1,1,0,0,0,.06.45,1.9,1.9,0,0,0,.45-0.08,5.51,5.51,0,0,0,2.31-2.51,8.68,8.68,0,0,0,.81-2,12.72,12.72,0,0,0,.52-2.46c0.09-1,0-2.09,0-3.14a1.06,1.06,0,0,1,.39-0.55c0.88-.82,1.74-1.66,2.67-2.43a1.25,1.25,0,0,1,1,0l-3.67,3.38a0.89,0.89,0,0,0,1.53.11,18.34,18.34,0,0,1,1.63-1.67,2.5,2.5,0,0,1,1.11-.18l0.1,0.29-2.82,2.66a0.81,0.81,0,0,0,1.38,0c0.39-.42.75-0.87,1.16-1.28a1,1,0,0,1,.55-0.2,0.35,0.35,0,0,1,.22.24,1.41,1.41,0,0,1-.27.41l-0.81,1c1.72,0.18,1.87.05,1.88-1l0.84-.86L145.33,48l-0.17.21a1.06,1.06,0,0,1,.62-1.38l0.23-.12c0.47-.3,1.14-0.58.77-1.25s-0.81.06-1.22,0.14a2.33,2.33,0,0,0-.55.27c-0.41-1.14-.32-1.33.82-1.84,0.71-.32,1.41-0.67,2.29-1.1-0.1,1.14.32,2.12-.35,3a0.56,0.56,0,0,0-.14.4c0.56,1.4-.32,2.69-0.32,4.05A5.44,5.44,0,0,1,147,52a7.37,7.37,0,0,1-.83,1.95,30.41,30.41,0,0,1-9.49,8.59,10.84,10.84,0,0,1-4.85,1.62,2.9,2.9,0,0,0-1.23.42,5.58,5.58,0,0,1-3.35.79,4.69,4.69,0,0,1-1.16-.39l0.3-.18c0.32-2.26.55-4.53,1-6.77a22.74,22.74,0,0,0,.62-6.76c0.83,0.68,1.22.11,1.63-.57,0.58-1,1.23-1.91,1.85-2.86l-0.12-.27a1.84,1.84,0,0,0-.81.28c-0.78.94-1.5,1.93-2.26,2.93-0.89-2.59,1-4.27,2.14-6.26-0.8-.45-0.95.37-1.3,0.64a7.89,7.89,0,0,0-1.07,1.2,2.08,2.08,0,0,1,.6-2.74,1.84,1.84,0,0,0,.44-0.45,4.77,4.77,0,0,0,.29-0.7,1.76,1.76,0,0,0-.69.24,5.67,5.67,0,0,0-.62,1c-0.81-1.34-.58-2.37.34-3.07A31,31,0,0,1,131,38.74l-0.88,1.06c0.66,0.89.79,0.91,1.65,0.24a0.94,0.94,0,0,1,.51-0.3,3.86,3.86,0,0,1,.85.44,2.39,2.39,0,0,1-.4.48c-0.37.27-.78,0.49-1.25,0.78,0.59,0.57,1,.92,1.79.42,0.58-.35,1.19-1.22,2.1-0.57a1.15,1.15,0,0,1,.14.26l-3.09,1.73a1.56,1.56,0,0,0,2.46.25c0.53-.39,1.08-0.75,1.66-1.15a0.92,0.92,0,0,1-.45,1.37c-0.81.59-1.53,1.3-2.33,2,0.93,0.6,1.88.21,3.25-1.21m-52-21.4,1.83-1.79,0.11,0.1-1.72,1.9-0.22-.2m10.9,6.74a13.59,13.59,0,0,1-1.6-.45,1.55,1.55,0,0,1-.43-0.6,2.4,2.4,0,0,1,.86-0.33,18,18,0,0,1,1.91.27l0.06-.26a3.52,3.52,0,0,0-2.42-.8,21.48,21.48,0,0,0-3.28.49c-2,.31-4.05.54-6.06,0.93a5.08,5.08,0,0,0-1.54,1l0.14,0.18,2-.45,0.1,0.32c-0.6.3-1.18,0.63-1.79,0.89-0.79.34-1.65,0.55-2.41,1a21.07,21.07,0,0,0-1.71,1.28,1.91,1.91,0,0,1-.76.12,3,3,0,0,1,.21-0.77c1.55-2.58,4.16-4.08,6.27-6.09a11.49,11.49,0,0,1,2.09-1.39,17.3,17.3,0,0,1,2.48-1.36c1.69-.66,3.4-1.27,5.14-1.76a21.45,21.45,0,0,1,3.11-.4,4.94,4.94,0,0,0,1.38-.23c1.73-.77,3.42-1.63,5.15-2.41a11.58,11.58,0,0,1,1.84-.47,3.86,3.86,0,0,0-.46-0.32c-1.12-.51-2.16.19-3.09,0.48a43.45,43.45,0,0,0-6,2.67c-0.57.27-.85,0.18-1.16-0.61l6.67-3.43a2,2,0,0,0-.44,0C100,17.89,98,18.45,95.9,19a4.1,4.1,0,0,1-1.07-.07c1.52-1.92,3.67-1.86,5.41-2.68-5,0-8.93,2.6-12.91,5.18L87.12,21c3-1.92,5.54-4.71,9.23-5.83l-3,.52-0.08-.28,0.8-.76-0.13-.24a29.92,29.92,0,0,0-4.25,2.81,30.56,30.56,0,0,0-4,3.34,46.8,46.8,0,0,0-3.24,4.15l-0.35-.13a1.76,1.76,0,0,1,.11-0.76,20.6,20.6,0,0,1,2.1-2.62c1.46-1.41,3-2.76,4.56-4,1.24-1,2.57-1.92,3.9-2.82,0.68-.47.72-0.86,0-1.4-1.52,1.1-3,2.22-4.55,3.29A29.87,29.87,0,0,0,85,18.3a33.55,33.55,0,0,0-5.88,7,24.46,24.46,0,0,0-3.61,9.58,1.18,1.18,0,0,0,1.25,1.42,22.56,22.56,0,0,0,7.34-1.18,10.07,10.07,0,0,1,5.88,0c1.18,0.39,2.42.62,3.64,0.92l2.18-6.1m47.67,146.33a1.64,1.64,0,0,1,.17-1.81,0.41,0.41,0,0,1,.38-0.1,0.45,0.45,0,0,1,.28.3c-0.12.56-.27,1.12-0.42,1.68l-0.4-.06m-0.86-3.55a3.09,3.09,0,0,1,.88-2.8,0.73,0.73,0,0,1,.76.76c-0.39.76-.51,1.79-1.64,2m-0.57-2.83c0.53-1.06,1.05-2.13,1.62-3.17a1.32,1.32,0,0,1,.62-0.26,1.54,1.54,0,0,1,.19.75,6.23,6.23,0,0,1-2.09,2.84l-0.34-.15m-1.39-8.61c-0.74.29-1.3,0.55-1.88,0.72-2.14.63-3.09,2.44-3.65,4.24s0.13,3.51.83,5.11a25.84,25.84,0,0,0,2.26,3.57,14,14,0,0,0,7.18,5.83c0.38,0.13.74,0.38,1-.37a27.25,27.25,0,0,1,1.4-3.55c0.76-1.72,1.56-3.42,2.34-5.12a16.83,16.83,0,0,0,1.18-2.6,37.14,37.14,0,0,0,1.47-5.07c0.2-1.68.1-3.13-1.29-4.33-0.82-.71-1.45-1.64-2.27-2.36a1.9,1.9,0,0,0-1.4-.42,6.26,6.26,0,0,0-3.56,2.36c-1.44,1.62-1.62,3.48-1.67,5.56l1.19-.6A16.49,16.49,0,0,1,143,166c-0.61,1.08-1.28,2.12-1.94,3.16a0.31,0.31,0,1,1-.57-0.25c0.07-.31.27-0.59,0.33-0.9a1.07,1.07,0,0,0,0-.79c-0.92-.74-0.4-1.76-0.48-2.62a17.33,17.33,0,0,1,.37-3.43m-33.7.23c1.19,0,1.85,1.16,2.89,1.52a1.39,1.39,0,0,1,.12.63l-0.22.13-3-2,0.17-.27m4.66,2a17.3,17.3,0,0,1-3.51-3.21c3.23,1.8,4,2.54,3.51,3.21m1.63-.9-3.34-3,0.27-.35,2.42,1.73c0.22,0.16.41,0.37,0.64,0.52,0.58,0.38.6,0.48,0,1.11m-1.84-5.09c1.7,1.44,3.4,2.87,5.09,4.32,0.39,0.33.64,0.72-.07,1.11a36,36,0,0,1-5.38-5.07l0.35-.36M117,168.86a1.78,1.78,0,0,1-.16-0.62c0.32-1.89.69-3.78,1-5.67a1.46,1.46,0,0,0-.22-1.12c-1.35-1.27-2.78-2.46-4.15-3.7a4.64,4.64,0,0,1-.61-0.87l0.21-.23c2,1,3.63,2.75,5.73,3.76a2,2,0,0,0-.58-1.11c-1.11-1-2.25-2-3.38-3l0.08-.29a2,2,0,0,1,.92,0c1,0.61,1.93,1.3,2.9,1.93a5,5,0,0,0,.87.36l0.11-.19-2.83-2.69c1.73-.77,2.42,1,3.63,1.26l0.14-.21-2.32-2.18A1.76,1.76,0,0,1,119,154c0.86,0.44,1.69.95,2.55,1.44,0.36-.65-0.46-0.7-0.65-1.08s-0.26-.58-0.38-0.86a3.57,3.57,0,0,1,1.09-.1,5.54,5.54,0,0,1,1.16.55l0.1-.17-0.86-1.31a5.07,5.07,0,0,1,1.1,0,1.22,1.22,0,0,0,1.71-1.12l3.64-1.54c-1.85-1.39-3.38-2.71-3.89-5.07a37.28,37.28,0,0,0-5.69,1.5,17.39,17.39,0,0,0-5.14,3.22,80.23,80.23,0,0,0-5.83,6.83c-0.68.82-1.26,1.72-1.9,2.58a4.8,4.8,0,0,0-.63.74,13.84,13.84,0,0,0-1.64,4.93c-0.06,1.12.05,1.41,0.9,1.52,2.14,0.27,4.31.48,6.41,0.93a13.36,13.36,0,0,1,5.29,1.86,1.37,1.37,0,0,0,.63,0M141.2,32.22c-0.49.36-1,.75-1.47,1.06-1,.58-1,0.92-0.11,1.57,0.43,0.31.82,0.67,1.23,1s0.73,0.83.26,1.26a1.18,1.18,0,0,1-1.14-.06,42.29,42.29,0,0,1-3.18-3.14,14.11,14.11,0,0,1-.7-1.46,3.82,3.82,0,0,1-.45-3.21,26.92,26.92,0,0,1,1.06-3.42c0.3-1,.52-2,0.9-2.9a1.09,1.09,0,0,0-1-1.68c-0.49,0-1,.1-1.48.15-0.66.07-.94,0.32-0.59,1a1,1,0,0,1,0,.7,16.74,16.74,0,0,1-3.71,5.47,5.08,5.08,0,0,0-1.39,3.66,7.13,7.13,0,0,0,2,4.5,14.1,14.1,0,0,0,3.83,2.82c2,1.09,3.94,2.36,5.93,3.52a21.64,21.64,0,0,0,2,.93c0.23-.58.42-1,0.55-1.44a3.48,3.48,0,0,1,1.13-2.12A10.63,10.63,0,0,0,148.14,36c0.64-1.27.11-2.78,0.84-4a0.54,0.54,0,0,0-.14-0.29,4.22,4.22,0,0,1-.69-1.06c-0.46-1.74-.85-3.49-1.27-5.27a13.1,13.1,0,0,0-1.87,0,29.3,29.3,0,0,0-5.69,1.54,1.8,1.8,0,0,0-1.47,2,0.59,0.59,0,0,0,.25-0.06,10.64,10.64,0,0,1,4.71-2.36,1.2,1.2,0,0,1,1.53.5c-2.51.79-5,1.63-6.91,3.51l0.25,0.91c1.3-.36,2.29-1.55,3.69-1.53l0.14,0.31-3.59,2.3,0.53,0.81c1.07-1.49,2.07-1.89,2.77-1.07m65.15,91.89,2.71,2.27c-1.15-.59-2.06-1.13-3-1.53s-1.92-1.09-3.05-.21l3.74,1.82-0.09.28c-0.35-.06-0.7-0.1-1-0.19-0.9-.23-1.78-0.53-2.69-0.69a3.34,3.34,0,0,0-1.22.41l1.93,0.83-0.12.17c-0.57.13-1.13,0.29-1.7,0.37a0.63,0.63,0,0,1-.54-0.26c-0.19-.58-0.17-0.6-0.59-0.22l-3.8,3.5A5.51,5.51,0,0,1,198,127a14,14,0,0,1,7.25-5,18,18,0,0,1,5.56-.72,3,3,0,0,1,2,.77c1.47,1.21,2.95,2.42,4.4,3.67,0.6,0.52,1.13,1.14,1.71,1.7a1.93,1.93,0,0,0,.8.48,26.42,26.42,0,0,0-5.88-6.25c1.65-.28,2.62.65,3.5,1.58,2,2.12,3.91,4.3,5.84,6.47,0.61,0.69,1.17,1.43,1.79,2.12a1.94,1.94,0,0,0,.69.3l0.25-.36c-1.23-1.54-2.43-3.11-3.69-4.63s-2.58-3-3.87-4.48l-0.4.32a1,1,0,0,1,.31-0.22,10.49,10.49,0,0,1,2,1.31c1.46,1.47,2.76,3.09,4.24,4.53a23.29,23.29,0,0,0,5.4,4.16,1,1,0,0,0,.76,0l-7.49-6.7a1.57,1.57,0,0,1,.67-0.1,14.15,14.15,0,0,1,2.67,1.88,27.21,27.21,0,0,0,6.44,4.87,23.75,23.75,0,0,0,3.16,1.4,1.12,1.12,0,0,0,.8-0.41c-2.86-1.34-5.75-2.56-8.07-4.81,1.95,0.2,3.38,1.3,4.93,2.18a9.56,9.56,0,0,0,5.11,1.65,3.89,3.89,0,0,0,1.51-.41l-6-1.73,0.06-.31,1.07,0.08a1.83,1.83,0,0,0,.61.05c1.69-.52,3.19.53,4.8,0.58,0.44,0,.88,0,1.43,0-0.54-1.18-1.65-.4-2.29-1.14a18.5,18.5,0,0,0,7.28-3.58l0.21,0.22a20.48,20.48,0,0,1-1.46,2.3,46.11,46.11,0,0,1-3.37,3.7,12,12,0,0,1-2.24,1.48c-2.16,1.3-4.65,1.71-7,2.4a8.69,8.69,0,0,1-6.51-.59c-1.51-.78-3-1.58-4.49-2.4-1.27-.7-2.51-1.46-3.79-2.14s-2.74-1.38-4.14-2-2.31-2.24-3.67-3.14c-1.14-.75-2.26-1.54-3.41-2.27a2.48,2.48,0,0,0-.88-0.15l-0.11.39M196.16,0h-1.82l0.3,0.2c0.79,0.52,1.22,1.75,2.47,1.43a2.45,2.45,0,0,0,.71-0.53A6.39,6.39,0,0,0,197,.34c-0.19-.13-0.53-0.07-0.71-0.21Zm2.7,0,0.23,0.53C198.9,0.35,198.69.19,198.51,0h0.36ZM118,19a2.78,2.78,0,0,1,2.3.8,0.36,0.36,0,0,1,0,.3,0.28,0.28,0,0,1-.27.06c-0.67-.38-1.33-0.77-2-1.16m0.45-1.52c2.89-3.15,6.24-3.12,10-2.32-0.64-1-1.13-1.86-1.66-2.67A11.22,11.22,0,0,0,125.65,11a3.77,3.77,0,0,0-1.3-1.06,8.79,8.79,0,0,0-4.43-.2,7.85,7.85,0,0,0-4,1.55c-0.42.36-.92,0.63-1.32,1a10.33,10.33,0,0,0-2.14,2.25,26,26,0,0,0-1.5,4c-0.49,1.44-.94,2.88-1.39,4.26,0.62-.14,1.19-0.31,1.77-0.38s0.9,0,1.35,0a4.58,4.58,0,0,1,2.77.33,1.29,1.29,0,0,0,.35,0,12.14,12.14,0,0,1,2.22.42c1,0.37,1.84,1,2.79,1.36s2,0.7,3.05,1c0.66,0.2,1.34.35,2,.52,0.31,0.1.58,0.47,0.92,0.55a8.5,8.5,0,0,0,1.78.11,2.27,2.27,0,0,0,1-.07,5.27,5.27,0,0,0,3-4.37,0.59,0.59,0,0,0-.14-0.47c-0.73-.17-0.81-0.59-0.58-1.23a0.76,0.76,0,0,0-.31-0.58c-1.38-1.08-2.75-2.17-4.2-3.16a7.23,7.23,0,0,0-1.9-.63l-0.09.26,0.36,0.2a13.92,13.92,0,0,1,5.8,5.79,2.25,2.25,0,0,1,.09.7c-0.76-.64-1.21-1.41-1.87-1.92-1.93-1.5-3.93-2.93-5.94-4.33a4.05,4.05,0,0,0-1.43-.33l-0.08.24,0.56,0.37c1.29,0.83,2.6,1.65,3.88,2.5a1.71,1.71,0,0,1,.73,1.67c-2.11-1.31-4.2-2.63-6.32-3.91a2.94,2.94,0,0,0-.94-0.19,5.26,5.26,0,0,0,1.3.9c1,0.6,2,1.2,2.92,1.88a2.36,2.36,0,0,1,.31,1.06l-6.21-3.69m41.09,145.75a2.84,2.84,0,0,0,.06.59c0.39,1.21.82,2.42,1.16,3.64a2,2,0,0,1-.32.92,1.82,1.82,0,0,1-.72-0.52c-0.47-1.3-.84-2.64-1.3-3.94a3.4,3.4,0,0,0-.65-0.84l-0.23.15c0.18,0.63.4,1.25,0.52,1.9,0.22,1.1.37,2.22,0.56,3.33a0.75,0.75,0,0,0,.18.46c0.9,0.58,1.79,1.19,2.74,1.69,1.6,0.84,3.32,1.5,4.85,2.44,1.31,0.8,1.34,1.85.41,2.68-0.46-.35-0.89-0.71-1.36-1-1.06-.66-2.13-1.33-3.23-1.93-1.62-.87-3.3-1.66-4.92-2.54a11.11,11.11,0,0,1-1.52-1.22,1.38,1.38,0,0,0,0,.37c0.72,2.17,1.43,4.33,2.18,6.49a1.11,1.11,0,0,0,.54.62c1.32,0.51,2.64,1,4,1.44,2.95,0.93,6,1.71,8.64,3.3,0.77,0.46,1.49,1,2.24,1.49s1,0.26,1-.52a28.22,28.22,0,0,0-1.1-8c-0.49-1.89-1.22-3.71-1.83-5.57a10.5,10.5,0,0,0-.38-1.22c-0.22-.45-0.54-0.84-0.79-1.28a15.9,15.9,0,0,0-1.27-2.3c-0.68-.84-1.67-0.74-2.64-0.48a2.17,2.17,0,0,1,.06.92,0.82,0.82,0,0,1-.68.39A1.56,1.56,0,0,1,165,164a1,1,0,0,0-1.28-.91,3.24,3.24,0,0,0,.06.8c0.22,0.63.51,1.22,0.72,1.85a0.94,0.94,0,0,1-.05.73,0.64,0.64,0,0,1-.62.11,2.8,2.8,0,0,1-.81-1,20.14,20.14,0,0,1-.52-2.28c-0.51,0-.67.17-0.47,0.75a23.94,23.94,0,0,1,.78,2.67,1.85,1.85,0,0,1-.3.82,1.87,1.87,0,0,1-.87-0.42c-0.5-1.16-.91-2.37-1.38-3.65l-0.65-.12m48.65-99c-0.67-.37-1.28-0.72-1.91-1.06a3.58,3.58,0,0,0-3.13-.31,12.82,12.82,0,0,0-5.33,4.49,9.39,9.39,0,0,0-2.22,5.82,38.32,38.32,0,0,1-.4,4.36c0.71-.15,1.3-0.32,1.9-0.39,1.05-.12,2.12-0.16,3.17-0.27,1.31-.13,2.63-0.24,3.92-0.47a44.41,44.41,0,0,0,4.57-1,9.64,9.64,0,0,0,2.64-1.21A10,10,0,0,0,213,72.5a1.6,1.6,0,0,1,.42-0.44c1.71-.74,1.3-2.43,1.68-3.76a1.16,1.16,0,0,0-.63-0.49c-0.71.47-1.24,0-1.74-.31A8.15,8.15,0,0,1,211,66.07c-0.77-.85-1.56-0.5-2.31-0.14a18,18,0,0,0-4.27,3.5,10.37,10.37,0,0,1-1.93,1.31,1.33,1.33,0,0,1-.67-0.1,1.08,1.08,0,0,1,.2-0.53,2.69,2.69,0,0,0,1.51-1.88,0.81,0.81,0,0,1,.31-0.31l4.42-3.65M161.68,0h-4a9.54,9.54,0,0,1-1.27,2.24c-0.9,1.18-1.77,2.47-3.34,2.94a2.11,2.11,0,0,0-.61.65l0.72,0.35c1.7,0.81,3.39,1.63,5.11,2.42a1.27,1.27,0,0,0,1.57-.33,20.76,20.76,0,0,1-5.29-2.49,3.27,3.27,0,0,1,1.57,0c1.38,0.47,2.71,1.05,4.08,1.55a0.83,0.83,0,0,0,1.24-.93l-3-1.09c1.43-.89,2.55.18,3.78,0,0-.77,0-1.51,0-2.25A4.91,4.91,0,0,0,162.18,2c-0.16-.65-0.33-1.3-0.5-2m6.66,0h-4.49c0.15,0.61.24,1.26,0.33,1.88a10.37,10.37,0,0,1,.13,3c-0.16,1-1.08,1.79-1.23,2.88a1.16,1.16,0,0,1-.36.38c-0.55.6-1.35,1-1.4,2a1,1,0,0,1-.7.36c-0.53.08-1.08,0.08-1.74,0.11l2,1.37a2.23,2.23,0,0,1-.85.29,11.87,11.87,0,0,1-2.56-.81,2.49,2.49,0,0,0-2.37.2l2.45,1.57c-0.2.66-.68,0.43-1.06,0.28-0.93-.37-1.84-0.82-2.77-1.2a3.22,3.22,0,0,0-.87-0.1,0.52,0.52,0,0,0,.24.42,7.65,7.65,0,0,1,2.41,1.31c1.15,1.4,2.62,1.17,4.08,1.22a5.76,5.76,0,0,0,2-.62,7.42,7.42,0,0,0,3-2.13c0.69-.73.92-1.87,1.57-2.66,0.93-1.13.62-2.83,1.87-3.77a0.77,0.77,0,0,0,0-.32,14,14,0,0,1,.2-3.42A4,4,0,0,0,168.33,0M170,36.32l-0.15,0a14.11,14.11,0,0,1-1.11,2.9,26.68,26.68,0,0,1-3,3.76c-0.65.69-.61,1.18,0,2l3-3.83,0.3,0.25a4.5,4.5,0,0,1-.39,1.37,23,23,0,0,1-2.26,2.74,1.26,1.26,0,0,0-.3,1.85c0.44-.29.6-1.12,1.4-0.8a2.67,2.67,0,0,1-.28,1.2A3.54,3.54,0,0,0,166,50a2.7,2.7,0,0,1-.57.86,1.77,1.77,0,0,1-.25-0.38c-0.44-1.59-.85-3.2-1.32-4.78a1.21,1.21,0,0,0-.61-0.67c-0.49-.22-0.62-0.48-0.22-0.85a0.8,0.8,0,0,0,.06-1.23l-2,.48c0.39-.72.77-1.37,1.09-2a2.1,2.1,0,0,0,.05-0.75,3.1,3.1,0,0,0-.69.51,7.55,7.55,0,0,0-.58,1l-0.28-.1,0.6-3h0.27l-1.13-1.57c0.4,1.14-.14,2.07-0.51,3a2.58,2.58,0,0,1-.6.66,1.9,1.9,0,0,1-.43-0.77,12.55,12.55,0,0,1,.26-1.73L158,40.4a4.68,4.68,0,0,1,.71-4.11l0.92,0.8c-0.37-1.27-1.39-1.08-2.21-1.17a14.64,14.64,0,0,1-.2,2.28,2.71,2.71,0,0,1-.81.9,3,3,0,0,1-.55-1,5.92,5.92,0,0,1,.29-1.54c0.15-.67-0.07-1-0.75-1a4.38,4.38,0,0,1-.23,2.8,2.06,2.06,0,0,1-.91.55,2.16,2.16,0,0,1-.37-0.86c0.06-.81.23-1.62,0.37-2.42,0.11-.62,0-0.7-0.58-0.73a23.62,23.62,0,0,0-.84,2.56c-0.17.79-1.23,1.24-.8,2.24a2,2,0,0,1-.47.54,1.81,1.81,0,0,1-.23-0.65c0.23-1.44.44-2.88,0.78-4.3,0.21-.84.28-1.24,0-1.47-0.65,1.4-1.31,2.82-2,4.24-0.26.58-.62,1.17,0,1.76s1.06,1,1.55,1.49c0.64,0.7,1.68.9,2.12,1.87a3.27,3.27,0,0,0,.91.93c0.8,0.7,1.63,1.38,2.42,2.1a9.12,9.12,0,0,1,.54.76c0.83,0.94,1.65,1.89,2.54,2.78,0.55,0.55.64,1.43,1.49,1.79,0.45,0.19.39,0.68,0.15,1.25a0.78,0.78,0,0,0,.31.35,1.87,1.87,0,0,1,.3.11c0.73,1.14,1.44,2.29,2.17,3.46l-0.66.24a2.24,2.24,0,0,1,.94.52c0.16,0.53.42,0.72,0.89,0.52a2.19,2.19,0,0,0,1-.66c0.69-1.1,1.17-2.35,2-3.37,1.06-1.4,0-3.22,1.17-4.61,0.42-.5.28-1.46,0.4-2.2a30.09,30.09,0,0,0,.17-8.12c-0.1-.91-0.3-1.81-0.45-2.71m-40.83,115a18.73,18.73,0,0,0-2.9,1.88,43.44,43.44,0,0,0-3.05,3.5,4.65,4.65,0,0,0-.78.85c-1.13,2.38-2.49,4.69-2.92,7.34a16.49,16.49,0,0,0,0,6.68,17.51,17.51,0,0,1,.63,1.79,2.34,2.34,0,0,0,1.72,2,1.92,1.92,0,0,0,2.19-1.2,10.09,10.09,0,0,1,3.4-4.79c1.74-1.42,3.58-2.72,5.44-4,1.31-.88,1.84-1.87,1.3-3a17.51,17.51,0,0,0-1-1.83c-0.92-1.47-1-1.52-2.52-.88-1.76.71-3.5,1.51-4.41,3.35-0.27.55-.51,1.11-0.77,1.66-0.37.78-.85,0-1.28,0.08a4.93,4.93,0,0,1,0-.82,4.36,4.36,0,0,1,.26-0.7c-0.45-.22-0.27-0.78.1-1.25,0.68-.84,1.44-1.62,2.2-2.47l-0.54-1.59a1,1,0,0,1,1.3.65c0.38,0.56.72,0.47,1,.15-0.33-.54-0.6-0.94-0.83-1.37s-0.43-.82.09-1a1.15,1.15,0,0,1,.91.44,11.54,11.54,0,0,1,.92,1.62,1.73,1.73,0,0,0,.07-0.56c-0.33-.8-0.69-1.59-1-2.39a0.64,0.64,0,0,1,.54-1l1.62,3,0.08,0-1.74-6.05m98.16-32.89c2.53,0.41,4.1,2.12,6,3.29a36,36,0,0,0,7,3.93,3.45,3.45,0,0,0,.72.1l0.08-.26L235,121.9l0.09-.19,1.27,0.52a16.48,16.48,0,0,0,7.23,1.4,16.27,16.27,0,0,0,3.18-.76c0.42-.11.83-0.24,1.25-0.34a0.43,0.43,0,0,1,.28.09,0.73,0.73,0,0,1-.13.44c-1,.8-2,1.65-3.12,2.35a37.45,37.45,0,0,1-3.52,1.95,4.47,4.47,0,0,1-1.67.51,53.2,53.2,0,0,1-6.66.2,10.5,10.5,0,0,1-3.69-1.26c-2.33-1.14-4.6-2.4-6.88-3.63-0.74-.4-1.41-0.95-2.18-1.3-1.74-.8-3.32-2-5.32-2.18-0.89-.09-1.75-0.47-2.64-0.54a15.63,15.63,0,0,0-7.43.76,38.49,38.49,0,0,1-4.29,1.57c0.72-.72,1.4-1.47,2.16-2.14a11.5,11.5,0,0,1,4.75-2.73c1.44-.35,2.86-0.93,4.44-0.68s3.29,0.21,4.92.42a5,5,0,0,1,1.37.79c0.85,0.45,1.75.81,2.56,1.32,1.31,0.82,2.56,1.73,3.83,2.6a1.47,1.47,0,0,0,.6.25,11.65,11.65,0,0,0-5.73-4.66,1.17,1.17,0,0,1,.49,0,22.75,22.75,0,0,1,4.3,2.23c1,0.66,1.84,1.46,2.77,2.17s1.91,1.65,2.87,2.48c0.53,0.46,1.07.91,1.78,1.5a1.87,1.87,0,0,0-.1-0.7,23,23,0,0,0-5.15-4.65c-1-.7-2.06-1.45-3.17-2.24a5,5,0,0,1,3,.82c2,1.62,3.88,3.32,5.87,4.93,1.35,1.1,2.79,2.1,4.2,3.13a1.48,1.48,0,0,0,.52.13l0.15-.24-9.84-7.8M128.83,3.49h0A1.88,1.88,0,0,0,129.48,3a0.64,0.64,0,0,0-.26-0.57,14.67,14.67,0,0,0-1.82-.75,0.58,0.58,0,0,0-.5.17,0.48,0.48,0,0,0,.1.45c0.58,0.41,1.19.78,1.83,1.18m2,1.49h0c-1-1.15-3-1.65-3.58-.9,0.93,1.11,2.74,1.58,3.58.9M131,0c0,0.41.09,0.81,0.16,1.22a13.64,13.64,0,0,0,.91,2.51,1,1,0,0,1,.11.22c0.06,1,.12,1.94.18,2.92-1.63.2-2.88-1.4-4.73-.86a6.83,6.83,0,0,0,4.31,2c0.23,0.56,0,.79-0.56.65-1-.26-1.94-0.57-2.89-0.92A1.22,1.22,0,0,0,127,8.2c1.26,1.37,3,1.28,4.76,1.89a2,2,0,0,1-.87.39,21.13,21.13,0,0,1-2.36-.58c-0.22-.06-0.42-0.23-0.64-0.28a5.29,5.29,0,0,1-3.4-2.26c-0.67-.93-1.66-1.61-2.42-2.48A6.63,6.63,0,0,1,120.5,0H126a0.56,0.56,0,0,0,.16.18c0.66,0.46,1.28,1.21,2.3.52A1.46,1.46,0,0,0,128,0h3Zm1.83,2.38a8.86,8.86,0,0,1-.72-1.57C132.06,0.54,132,.27,132,0h2c-0.15.3-.31,0.6-0.44,0.91s-0.35.79-.67,1.47M161.11,158A2.71,2.71,0,0,1,163.4,157a2,2,0,0,1,.81.63,5.91,5.91,0,0,1-.76.4,4.61,4.61,0,0,1-1.25.34,3.74,3.74,0,0,1-1.08-.3M151.79,151l-0.4-.31a10.63,10.63,0,0,1,.91-1.72c0.63-.81,1.39-1.53,2.08-2.3a9.5,9.5,0,0,0,.6-0.88,2.21,2.21,0,0,0-.62.2c-1.15,1.14-2.32,2.26-3.41,3.46a1.32,1.32,0,0,0,0,1c0.23,0.62.57,1.19,0.91,1.87,0.28-.11.59-0.26,0.92-0.36a7.06,7.06,0,0,1,2-.55,27,27,0,0,1,4.59.36,5,5,0,0,1,3.32,1.64,22.23,22.23,0,0,1,1.23,2.06c-1.25.57-2.42,1.12-3.61,1.64a0.78,0.78,0,0,1-.51,0,1,1,0,0,1,0-.72,16.48,16.48,0,0,1,1.5-1.09l0.72-.5-0.1-.22a4,4,0,0,0-.9.17c-0.93.4-1.84,0.86-2.77,1.26a4.57,4.57,0,0,1-1,.19l-0.2-.41,2.71-2.21a2.91,2.91,0,0,0-.85.15c-1.39.73-2.76,1.51-4.14,2.25a2.31,2.31,0,0,1-.69.13,2.71,2.71,0,0,1,0-.71,1.05,1.05,0,0,1,.37-0.43c0.65-.52,1.31-1,2-1.52a0.52,0.52,0,0,0-.45.05c-1.35,1-2.72,1.91-4,2.94a1.2,1.2,0,0,0,.15,1.07,11.08,11.08,0,0,0,1.69,1.55,25.09,25.09,0,0,0,2.76,2,6.87,6.87,0,0,0,4.24.62c2-.18,4,0.11,6,0.08a6.27,6.27,0,0,0,1.78-.59c0-.76,0-1.48,0-2.2-0.09-1.64-.19-3.29-0.36-4.93a6.5,6.5,0,0,0-.56-2.45,38.36,38.36,0,0,0-2.55-3.74,2.87,2.87,0,0,0-.71-0.52l0,0.33-2.1.72c-0.62-1.44,1.16-.92,1.18-1.74-0.77-.56-0.76-0.54-1.48,0-0.93.67-1.88,1.31-2.82,2l-0.24-.23c-0.06-1.42,1.58-1.69,2.23-2.92a3.47,3.47,0,0,0-.94.3c-0.56.44-1.08,0.92-1.6,1.4-1,.93-2,1.88-3,2.79a1.54,1.54,0,0,1-.69.14,1.68,1.68,0,0,1,.11-0.76,22.74,22.74,0,0,1,1.78-2c0.63-.61,1.32-1.15,2-1.72l-0.32-.43a5.11,5.11,0,0,0-1.62.68c-1.41,1.33-2.72,2.77-4.08,4.15-0.35.36-.76,0.66-1.15,1m-24.91,27.09a2.24,2.24,0,0,0,0,.43,23,23,0,0,0,3.21,8.39c1.46,2.23,3.62,3.72,5.62,5.36A38.11,38.11,0,0,0,140,195a1.76,1.76,0,0,0,1.05.32,1.15,1.15,0,0,0,.78-0.63c0.38-1.06.68-2.15,1-3.23,0.19-.65.84-1.29,0-2a1.39,1.39,0,0,1-.22-0.74,32,32,0,0,1-.91-7.14,2.55,2.55,0,0,0-.25-0.78c-0.55,2.58.53,5.17-.54,7.69a3.32,3.32,0,0,1-.54-1.42c-0.13-1.68-.17-3.37-0.28-5.06,0-.75.26-1.56-0.23-2.24l-0.37,0L138.82,184a1.11,1.11,0,0,1-.51-0.74,16.35,16.35,0,0,1,.05-3.84c0.23-1.07-.31-1.41-0.91-1.92L136.89,180,136.4,180v-4.35H136a12.92,12.92,0,0,1-.13,1.82,11.18,11.18,0,0,1-.61,1.64L135,179a1.14,1.14,0,0,1-.12-0.4c0.09-1.17.22-2.33,0.29-3.51a6.66,6.66,0,0,0-.21-1.31c-0.93,1.2-1.56,2.19-1.37,3.57,0.28,2,.46,4,0.62,6A8.21,8.21,0,0,1,134,185a0.82,0.82,0,0,1-.58-0.41c-0.43-1.34-.84-2.69-1.25-4a3.84,3.84,0,0,0-.54-1.6,16.55,16.55,0,0,1-3.05-4c-0.36-.63-0.8-1.21-1.2-1.82l-0.31.16a5.75,5.75,0,0,0,.44,1.22c0.83,1.3,1.74,2.55,2.57,3.86a3.66,3.66,0,0,1,.28,1.13l-0.33.09L127,175.4l-0.32.15,1.7,4.32-0.25.09-1.25-1.9M176,4.24c3.85,0.59,8.23,3.41,7.65,4.69-2.37-1.27-4.76-2.52-7.12-3.82A2.59,2.59,0,0,1,176,4.24M188.34,0h-2c0.39,0.26.76,0.54,1.13,0.8C188.81,1.76,190,3,191.3,4a2.43,2.43,0,0,0,1.26.53,2.3,2.3,0,0,0,1-.48A3.48,3.48,0,0,0,193,3.36a35.9,35.9,0,0,0-2.91-2.27c-0.57-.38-1.16-0.74-1.75-1.09m-4.78,0H172.41a2,2,0,0,1-.77.37,4.53,4.53,0,0,0-1.29.71l0,0.17c-0.09,1-.16,1.92-0.28,2.87a8.85,8.85,0,0,1-.35,1.69c-0.18.53,0,.71,0.49,0.76,1.09,0.11,2.17.21,3.25,0.36,0.71,0.1,1.4.26,2.11,0.39l0-.12-1.7-1.11,0.06-.32a6.31,6.31,0,0,1,1.1.12c2.18,0.62,3.62,2.4,5.47,3.55,1.36,0.84,2.43,1.65,3.91.46a1.73,1.73,0,0,1,.33-0.12l2.59-1.22-7.25-4.45a1.13,1.13,0,0,1,1.69-.39q1.81,1.05,3.54,2.22c1,0.65,1.9,1.38,2.87,2.1a2.26,2.26,0,0,1,.47-0.57c0.87-.49.27-0.87-0.12-1.16-0.61-.46-1.28-0.82-1.92-1.23-1.05-.68-2.1-1.35-3.14-2-0.73-.49-1.44-1-2.28-1.62a1.44,1.44,0,0,1,1.8-.14c2.13,1.43,4.25,2.87,6.41,4.26a9.14,9.14,0,0,0,1.7.67c0.18-.69.2-1-0.39-1.14a1.83,1.83,0,0,1-.64-0.44c-1.22-1-2.42-2-3.68-2.85-0.9-.64-1.87-1.18-2.82-1.75M143.8,127.74c0.24,0.51.49,1,.69,1.55a0.55,0.55,0,0,1-.23.4,0.41,0.41,0,0,1-.35-0.15c-0.19-.55-0.35-1.11-0.52-1.67l0.4-.13m4.5-8.27c0.86,0.46,1,.92.5,1.43a1.46,1.46,0,0,1-.73.12l0.23-1.54m-1.64,1.67a1.72,1.72,0,0,1-.08,2.64,2.08,2.08,0,0,1,.08-2.64m-1.93,2.19c1.12,1.09,1.53,3.23.82,4.21-0.87-.79-1.42-3.6-0.82-4.21m0.15,7.15,0.33-.11a4.13,4.13,0,0,0,.55.69,0.74,0.74,0,0,0,.59.16c1.42-.53,2.8-1.19,4.25-1.64,1.68-.52,1.71-0.44,1.63-2.15,0-.24,0-0.48,0-0.71,0-.91.09-1.82,0.16-2.73,0.13-1.85.23-3.71,0.42-5.56,0.11-1.07-.07-1.31-1.13-1.39a11.25,11.25,0,0,0-5.7,1.36,27.89,27.89,0,0,0-3.87,2.47,22.88,22.88,0,0,0-4,4.29,1.06,1.06,0,0,0-.16.75c0.22,1.86.44,3.71,0.72,5.56a4.46,4.46,0,0,0,.49,1.1l0.21-.09-0.62-7.32,0.31-.09a3,3,0,0,1,.46.74,20.64,20.64,0,0,1,.71,3c0.2,1.79.24,3.59,0.4,5.38a3.77,3.77,0,0,0,.48,1.08l0.16-.08-0.9-8.12,0.5-.1c1.23,2.2,1.09,4.78,1.61,7.23,1.11-.79.62-1.79,0.54-2.72s-0.2-1.87-.31-2.8l0.3-.06c1,1,.89,2.49,1.44,3.68h0.25q0.09-.94.18-1.89m-5.23,12.76a1.66,1.66,0,0,0,1-1.89c-0.54-2.09-.75-4.25-1.9-6.21a9.91,9.91,0,0,0-5.64-4.66,25,25,0,0,0-2.79-.7,1.12,1.12,0,0,0-1.48.59c-0.56,1.25-1.24,2.45-1.77,3.72a10.36,10.36,0,0,0-.94,3,22.49,22.49,0,0,0,.08,4.81,33.63,33.63,0,0,0,1.17,4.36l0.86-1.34,0.32,0.06a4.73,4.73,0,0,1-.07,1c-0.33,1.13-.28,1.27.79,1.73,0.21-1,.4-2,0.64-3a2.8,2.8,0,0,1,.39-0.68,2.72,2.72,0,0,1,.31.82c0,1.07,0,2.14,0,3.22a2.06,2.06,0,0,0,.23.62l0.29-.07v-1.31a24.64,24.64,0,0,1,0-3.41,5.42,5.42,0,0,0-.35-3.24c-0.6-1.27-.13-2.52.37-3.71a2.28,2.28,0,0,1,.94-0.55l0.25,3.49,0.4,0.08c0.49-1.35.48-2.94,1.81-4.25a6.78,6.78,0,0,1,.1,1.63c-0.27,1.28-.65,2.53-1,3.81a4.41,4.41,0,0,0,0,1H134c0.33-1.46.55-3,1.67-4.13a16,16,0,0,1-.12,3.4c-0.1.72-.36,1.41-0.45,2.13a1.27,1.27,0,0,0,.32.84,1.25,1.25,0,0,0,.65.09c0-.25,0-0.51.08-0.76,0.16-.94.31-1.89,0.5-2.83a3.59,3.59,0,0,1,.4-0.81l0.32,0.06,0.35,4.75a0.83,0.83,0,0,0,.63-1.36,1.44,1.44,0,0,1,.46-2.06l0.85,1.72M219.19,61.5a3.2,3.2,0,0,1,2.84,1,1.54,1.54,0,0,1,.29.69c0.15,0.52.29,1.06,0.42,1.59,0.23,0.92.93,0.87,1.6,0.71,0.39-.09.88-0.27,0.56-0.93a2.26,2.26,0,0,1-.21-1.19,1,1,0,0,1,.51-0.74,1.87,1.87,0,0,1,1.31.08,6.34,6.34,0,0,1,2.22,3.45A27,27,0,0,1,230,70.8a19.7,19.7,0,0,1-.24,3c0,1.6-1.11,2.64-1.87,3.85a0.76,0.76,0,0,1-.67.28,38.61,38.61,0,0,1-6.11-3.49c-1.95-1.57-3.62-3.58-3.58-6.4a0.68,0.68,0,0,0-.12-0.41c-0.63-.76-0.19-1.31.32-1.87,0.85-.93,1.14-1.77,1.5-4.31m-70.37,93.37a1.64,1.64,0,0,1-2-.82,25,25,0,0,0-3.31-3.55,0.89,0.89,0,0,0-.36-0.12l-0.22.21,3.64,4.75a0.9,0.9,0,0,1-1.37.12c-0.34-.27-0.55-0.69-0.87-1a8.16,8.16,0,0,0-1-.69l-0.23.26c0.37,0.63.71,1.26,1.11,1.87s0.28,0.73-.35,1c-0.37-.68-0.71-1.38-1.11-2a1.71,1.71,0,0,0-.61-0.38,1.52,1.52,0,0,0,0,.67,8.86,8.86,0,0,0,.82,1.42,1.05,1.05,0,0,1-.13,1.66l-1-1.1-0.26.09L142.1,159a4.84,4.84,0,0,0-.87.31,1.33,1.33,0,0,1-2.16-.56,0.85,0.85,0,0,0-.38-0.37,4.68,4.68,0,0,0-.77-0.22,5.25,5.25,0,0,0,.18.72c0.18,0.45.4,0.89,0.6,1.34l-0.17.22a2.49,2.49,0,0,1-.76-0.43c-0.73-.88-1.39-1.81-2.11-2.69a1.52,1.52,0,0,0-.57-0.26,1.44,1.44,0,0,0,.06.6c0.66,1,1.34,2,2.17,3.29a1.86,1.86,0,0,1-.89-0.06c-0.51-.58-0.93-1.25-1.41-1.87-0.27-.35-0.58-0.67-1-1.18,0-1.24.08-2.77,0-4.29a9.65,9.65,0,0,1,.74-4.22,6.48,6.48,0,0,1,.76-1.65,2.11,2.11,0,0,1,1.29-.85,5.14,5.14,0,0,0,3.82-1.7,6.3,6.3,0,0,1,.76-0.76,1.08,1.08,0,0,1,1.66,0,6.93,6.93,0,0,0,2.08,1.38c1.26,0.54,1.4,1.74,1.86,2.8L144.75,147l-0.2.23a21.85,21.85,0,0,0,3.54,4.79c-1.22-1-2.37-2.2-4-2.42l-0.23.28,5,5m36-69.17c0.72-.83.14-3.5-0.79-3.76l-0.63,1.86-0.28-.06a16.18,16.18,0,0,0-.53-2.26,2.6,2.6,0,0,0-1-1.35,14.9,14.9,0,0,0-6.2-1.67c-2.73-.15-5.47-0.21-8.22-0.32,2.68,2.48,5.83,7.1,5.33,7.64-1.27-1.45-2.54-2.91-3.83-4.35-0.89-1-1.8-2-2.74-2.91a2,2,0,0,0-1.15-.74,4.54,4.54,0,0,1-2.24-.42,28.19,28.19,0,0,1-3-1.14c-1-.48-1.84-1.14-2.76-1.72l-0.25.18c0.53,0.9,1,1.83,1.62,2.69,0.83,1.2,1.7,2.37,2.64,3.49a10.75,10.75,0,0,0,1.8,1.64c1,0.76,2.08,1.46,3.12,2.17l0.07-.36a29.23,29.23,0,0,0,4,1.64,6.71,6.71,0,0,0,4.18-.06l-0.79-2.09-0.22.15-4-5.49a1.15,1.15,0,0,1,.52,0c1.62,1.61,3.23,3.23,4.94,5l-1.71-2.89,0.23-.19c1.92,1.08,2.9,3,3.91,4.89,2.59,0,5.33-1.37,7.9.47M145.16,16.84l-0.89-1.15,0.29-.28c0.32,0.28.66,0.55,1,.85a2.85,2.85,0,0,1-.35.57m-2.47-1.61c1.2,0.42,1.45.94,0.76,1.55-0.44-.42-1-0.74-0.76-1.55m-1.71-.5a1.89,1.89,0,0,1,.5.51,9.83,9.83,0,0,1,.43,1.49,1.29,1.29,0,0,1-.11.5,0.88,0.88,0,0,1-.43-0.18c-0.27-.7-0.5-1.43-0.74-2.14l0.34-.19m-5.81-1.05a7.91,7.91,0,0,1,.43.76c0.79,1.8,1.55,3.62,2.37,5.4a2.93,2.93,0,0,0,.86.75,0.56,0.56,0,0,0,.12-0.52,9.71,9.71,0,0,1-1.78-4.51,2,2,0,0,1,0-.45,1.27,1.27,0,0,1,.53.13,1.74,1.74,0,0,1,.38.58c0.53,1.1,1,2.21,1.58,3.3a1.2,1.2,0,0,0,.44.3,1.48,1.48,0,0,0,0-.53c-0.41-1.21-.85-2.41-1.28-3.61l0.38-.21a2.8,2.8,0,0,1,.56.61,13.53,13.53,0,0,1,.94,2.25c0.2,0.72.59,0.71,1.12,0.54,0.76-.25,1.51-0.51,2.27-0.78a2.32,2.32,0,0,1,2,.57,1.28,1.28,0,0,1,.64,0c0.86,0.65,1.26.19,1.52-.6a3.17,3.17,0,0,0,.23-1,6.7,6.7,0,0,0-.85-3.43c-1.2-2-2.54-3.7-5.18-3.56-0.52,0-.92-0.06-0.66-0.76a0.59,0.59,0,0,0-.32-0.46,38.81,38.81,0,0,0-4.3-.7,4.13,4.13,0,0,0-2.43.46c-1.12.74-1.52,2.1-2.16,3.25a1.07,1.07,0,0,0,.22,1.63,2.7,2.7,0,0,0-.91,2.9c0.1,0.46.33,0.9,0.4,1.36,0.17,1.11,1.13,1.67,1.71,2.49a1.18,1.18,0,0,0,.53,0,11.41,11.41,0,0,1-1.08-5.69,1.11,1.11,0,0,1,.55.59c0.38,1.31.7,2.64,1.11,3.94,0.31,1,.58,1.08,1.51.79-2-4.74-2.1-5.08-1.44-5.7m40.1,257.93c1.6-.83,2.13-2.47,3.14-3.84a1.32,1.32,0,0,1-.26,1.44,16.5,16.5,0,0,0-1.75,3.6c-0.81,2.34-1.48,4.73-2.32,7.13,0-1.89.21-3.79,0.12-5.68a18.74,18.74,0,0,1,1.78-8.87c0.8-1.74,1.74-3.4,2.6-5.11,0.24-.47.39-1,0.58-1.49l-0.3-.2a3.15,3.15,0,0,0-.56.57c-0.77,1.3-1.51,2.63-2.27,3.94a1.39,1.39,0,0,1-.59.58c0.44-1.17.79-2.37,1.32-3.49,0.72-1.49,1.6-2.9,2.36-4.37a4,4,0,0,0,.19-1.22l-0.33-.13-2.62,3.66a5.65,5.65,0,0,1,1.45-3.13c1-1.24,2.13-2.44,3.13-3.7a10.87,10.87,0,0,0,1.1-1.87,2.43,2.43,0,0,0-.21-0.92l-4.08,4.7a4.34,4.34,0,0,1,1.34-2.92c0.59-.64,1.13-1.34,1.65-2a0.67,0.67,0,0,0,.1-0.6c-0.77-1.06.24-1.51,0.73-2,1.64-1.77,3.89-2.94,5-5.23-1.72.42-2.74,1.88-4.22,3a4.33,4.33,0,0,1,.2-0.73,11.34,11.34,0,0,1,3.24-3.83,37.8,37.8,0,0,0,3.47-3.24,0.35,0.35,0,1,0-.4-0.48c-0.76.54-1.49,1.12-2.24,1.69a2.25,2.25,0,0,1-.79.43,35.37,35.37,0,0,1,6.73-5.46l0.28,0.18-1,2.14c-0.26.52-.48,1.07-0.77,1.57-0.65,1.1-1.38,2.15-2,3.25S188,241,187.44,242s-1.2,1.9-1.69,2.9c-0.37.74-.54,1.58-0.85,2.35a6.88,6.88,0,0,1-.66,1.12,11.92,11.92,0,0,0-1.56,4,32.14,32.14,0,0,1-1.44,3.55,15.93,15.93,0,0,0-.4,2.05c-0.05.24-.24,0.46-0.29,0.7-0.16.7-.27,1.41-0.41,2.12-0.1.47-.23,0.94-0.36,1.41,0,0.07-.17.13-0.16,0.17a4.18,4.18,0,0,1-.88,3c-0.63,1-1.22,2-1.79,3s-1.12,2.15-1.67,3.23m15.91-257.2c0.54-.86,1.07-1.55,1.93-0.19a18.22,18.22,0,0,0,2,2.28c-0.54,1.5-1.6,2.81-1.69,4.44,1.52-.92,1.75-2.49,2.3-3.9,0.79,0.26.93,0.63,0.51,1.46a51.27,51.27,0,0,1-4,6.63,4.82,4.82,0,0,0-.65.82,1.17,1.17,0,0,0,0,1,0.67,0.67,0,0,0,1.12-.18c1.23-1.84,2.46-3.67,3.65-5.53a23.78,23.78,0,0,1,1.52-2.41,2.5,2.5,0,0,1-.11,1c-1.33,2.06-2.65,4.12-4.09,6.1-1.31,1.8-2.75,3.5-4.14,5.24-0.36.45-.41,0.83,0.27,1.14a50.16,50.16,0,0,0,9.06-11.76l0.28,0.08a4.17,4.17,0,0,1-.23,1.31c-1,1.75-1.92,3.52-3,5.17a30.34,30.34,0,0,1-2.63,3c-0.51.57-1,1.12-1.53,1.72-0.7.87-1.77,0.64-2.65,1a3,3,0,0,1-3.91-1.26,2.31,2.31,0,0,0-.86-0.46l0.29-.39c0.91-.14,1.82-0.28,2.73-0.4a3.62,3.62,0,0,0,1.9-2.27,30.29,30.29,0,0,0-.21-3.54A31.65,31.65,0,0,0,188,20.93a1,1,0,0,1-.13-0.22c0.13-1.31-.62-2.38-1-3.57a12.14,12.14,0,0,1-.31-2.34c-0.09-1-.15-2.06-0.16-3.08a0.87,0.87,0,0,1,.38-0.67,10.24,10.24,0,0,1,1.53-.44c-0.42,1.86-1.24,3.55-.61,5.45,1.32-.66.88-1.84,1.16-2.75a21.1,21.1,0,0,0,.44-2.33A10.23,10.23,0,0,1,191,12.15a1.32,1.32,0,0,1-.12,1.05c-0.23.49-.36,0.88,0.29,1.2M249,48.46h0a2.2,2.2,0,0,0,.62-0.8,1.92,1.92,0,0,0-.55-0.69,1.68,1.68,0,0,0-.43.62,2.41,2.41,0,0,0,.36.87m2.18-1.67h0l-0.41.07a11.36,11.36,0,0,0,0,1.33,0.55,0.55,0,0,0,.39.35,0.68,0.68,0,0,0,.44-0.4,11.14,11.14,0,0,0-.44-1.36m-4.71-.54h0c0,0.62,0,1.17,0,1.7a0.68,0.68,0,0,0,.44.42,0.62,0.62,0,0,0,.52-0.2c0.29-.38-0.36-1.75-1-1.92M245.3,49h0c0.59-.84-0.1-1.68,0-2.49a0.64,0.64,0,0,0-1-.65c0.9,0.86-.55,2.33,1,3.15m-1.3.6h0l-0.23-.24a7.24,7.24,0,0,1-.48-1.08c-0.29-1.1-.53-2.22-0.81-3.32a0.94,0.94,0,0,0-.39-0.28,0.93,0.93,0,0,0-.23.42c0.27,1.43.55,2.85,0.9,4.26a1,1,0,0,0,.67.44,1.21,1.21,0,0,0,.57-0.2m0.27,7.16a10.14,10.14,0,0,0-3.1-4,2.94,2.94,0,0,1-.43-1.3c-0.54-1.66-1.13-3.3-1.63-5a7.17,7.17,0,0,1-.12-1.58l0.43-.07,2.17,7,0.37,0a2.06,2.06,0,0,0,.16-0.89c-0.76-2.22-1.53-4.43-2.39-6.61-0.33-.85-0.24-1.25.66-1.26,1.75,0,3.5,0,5.24.11a7.71,7.71,0,0,1,1.94.61,32.9,32.9,0,0,1,5,1.85,7.49,7.49,0,0,1,3.25,2.59,2.16,2.16,0,0,1,.14.4,8.66,8.66,0,0,0-4,2.91,7.46,7.46,0,0,1-1.61,1.18,6.65,6.65,0,0,0-.7.49,18.09,18.09,0,0,1-4.65,3.1,7.46,7.46,0,0,0-.72.46M231.8,74.82l-0.36.16a3.32,3.32,0,0,0,.26,1.11c0.44,0.67,1,1.26,1.48,1.91a1.13,1.13,0,0,1,0,.53,1.18,1.18,0,0,1-.55,0,4.66,4.66,0,0,1-.68-0.7l-1.28-1.44L230,77.76l1.51,1.59-0.11.3a4.4,4.4,0,0,1-.95-0.17,6.18,6.18,0,0,1-.93-0.57c-1,1.34-1.53,1.51-2.88.79-2-1.07-4-2.1-5.89-3.34a26.48,26.48,0,0,1-3.17-2.87l-0.16.18c0.7,1.07,1.3,2.15,2.07,3.1a44.22,44.22,0,0,0,3.71,4.19c1,1,2.5,1.61,3.44,2.69,1.25,1.43,2.92,2.54,3.64,4.42a3.17,3.17,0,0,0,.43.66c2.84-1.39,4-4,5.21-6.31,0.79-1.52.77-3.44,1.29-5.12a6.85,6.85,0,0,0-1.29-6.39,18.77,18.77,0,0,0-2-2.53,8.07,8.07,0,0,0-2-1l-0.18.26c0.5,0.56,1,1.14,1.51,1.68a25,25,0,0,1,3.66,5.62c0.21,0.38.22,0.72-.18,0.82a1,1,0,0,1-.73-0.5c-0.66-1.12-1.2-2.32-1.9-3.4a30.33,30.33,0,0,0-2-2.51l-0.36.19a12.64,12.64,0,0,0,.82,2c0.6,1,1.4,1.86,2,2.85,0.42,0.69,1.22,1.26,1,2.27l-0.58.12-0.6,1a4.81,4.81,0,0,1-.67-0.57c-0.63-.76-1.23-1.55-1.85-2.32M238,61.47h0c0.57-.61,1.15-1.2,1.66-1.84a1.51,1.51,0,0,0,0-.77A1.84,1.84,0,0,0,239,59a9.08,9.08,0,0,0-1,1,0.91,0.91,0,0,0,0,1.43m0.47,2.45h0a1.79,1.79,0,0,0,.36,0,0.63,0.63,0,0,0,.32-0.11c1.29-1.08,2.62-2.13,3.21-3.81,0.2-.58.23-0.57-0.23-0.91l-2.83,3a1.93,1.93,0,0,0-.84,1.83m-1.33-4A3.56,3.56,0,0,0,238,59a1.06,1.06,0,0,0,0-1,5.82,5.82,0,0,0-3.59-1.6,24.64,24.64,0,0,1-3-.27,1.32,1.32,0,0,1-.58-1,1.73,1.73,0,0,1,1.58-1.81h0.18c2-1.25,4-.44,6,0.09a5.06,5.06,0,0,1,3.81,4.21c0.23,1.14.52,2.27,0.68,3.41a1.37,1.37,0,0,1-.44,1.05c-1.63,1.34-3.4,2.52-4.94,3.94-1.08,1-2.07.81-3.24,0.43a5.9,5.9,0,0,1-3-1.64,6.52,6.52,0,0,1-1.32-4.66,3.35,3.35,0,0,1,.73-1.56,2.14,2.14,0,0,1,2-.87,6.1,6.1,0,0,1,4.3,2.08M215.28,87.38L213.18,84c0.47-.84.93-0.6,1.32-0.05s0.55,0.91.82,1.36a1.59,1.59,0,0,0,.06-1.29c-0.92-1.42-1.94-2.79-2.92-4.18,0.65-.46.88-0.5,1.32,0,0.71,0.8,1.36,1.64,2,2.47l0.26-.14a11.65,11.65,0,0,0-1.08-2c-0.69-.85-1.57-1.55-2.3-2.37a18.9,18.9,0,0,1-1.23-1.66c-0.75.31-1.71,0.68-2.65,1.11a0.68,0.68,0,0,0-.25.51,24.65,24.65,0,0,0,.39,6.74A48.82,48.82,0,0,0,211,91a34.08,34.08,0,0,0,2.22,4.29,1.38,1.38,0,0,0,.91.64,8.86,8.86,0,0,0,3.2-2.83,10.62,10.62,0,0,1,1.91-1.93c0.58-.52,1.24-1,1.77-1.35-1.82-2.21-1.95-5-3.55-7.25-0.12,1-.21,1.9-0.34,2.77a15.6,15.6,0,0,1-.51,2.65c-0.21.63,0.41,1.65-.67,1.8a1.61,1.61,0,0,1-.08,1.61,0.93,0.93,0,0,1-.83.22c-0.34-.11-0.22-0.38-0.14-0.73a1.65,1.65,0,0,0-.29-1.67,1.89,1.89,0,0,1-.61-1.87l1.28,0.07m6.65-40.62a9.42,9.42,0,0,0-2.1-4.84,7.43,7.43,0,0,0-6.21-2.63c-1.52,0-3,.13-4.57.16a0.86,0.86,0,0,0-.86,1,11.32,11.32,0,0,0-.15,1.49c0,1.74-.35,3.51.23,5.23a10.65,10.65,0,0,0,2,3,5.08,5.08,0,0,0,2.6,1.64,2,2,0,0,0,1.37-.13,3.1,3.1,0,0,0,1.25-1.08,2.63,2.63,0,0,0,.56-1.79,14.83,14.83,0,0,0-1.8-3.26A19.77,19.77,0,0,0,212.68,44a2.3,2.3,0,0,1-.23-1,2.24,2.24,0,0,1,1.08,0,9.59,9.59,0,0,1,4.16,4.46,0.75,0.75,0,0,0,.62.36c1.21-.3,2.39-0.67,3.62-1m-40.34.85a10.17,10.17,0,0,0,.6-1.45c0.35-1.5.65-3,1-4.53a0.57,0.57,0,0,1,.43-0.34,0.59,0.59,0,0,1,.42.35,1.42,1.42,0,0,1,0,.71c-0.41,2-.56,4.1-1.68,5.92a2.53,2.53,0,0,0,0,1.21l0.27,0c0.22-.5.42-1,0.65-1.49,0.85-1.8,1.71-3.59,2.55-5.4,0.43-.91.73-1.89,1.24-2.76a2.1,2.1,0,0,0-.19-2.58,2.78,2.78,0,0,1-.31-0.65l-1.81-.53,0.26-.38c0.23-.32.85-0.54,0.38-1.06a0.84,0.84,0,0,0-1.3,0c-0.69.54-1.48,1-2.22,1.43a0.83,0.83,0,0,1,.19-1.47,10.36,10.36,0,0,1,1.26-.77c0.44-.21.86-0.42,0.65-1a1,1,0,0,0-1.42-.35c-0.87.75-1.67,1.59-2.56,2.33a1,1,0,0,1-.9,0c-0.36-.24-0.2-0.57.11-0.85,1-.93,2-1.88,3.05-2.82a0.37,0.37,0,0,0-.14-0.06c-1.3-.19-2,0.7-2.8,1.5s-1.52,1.8-2.31,2.66a2.1,2.1,0,0,1-.78.32,2.51,2.51,0,0,1-.09-0.91,2.85,2.85,0,0,1,.58-0.87c0.61-.76,1.23-1.5,1.91-2.33h-1.33l0.22,0.15a30.78,30.78,0,0,0-3.81,5.58L174,37.41l1.27-.76c0.5,0.37.5,0.37,0.1,1a1,1,0,0,0,.72,1.58,5.43,5.43,0,0,1,.75.2c-0.28,1.12-.21,1.17.79,1.49a1.53,1.53,0,0,1,.47.85c0.16,0.41.21,0.86,0.4,1.26a4.41,4.41,0,0,0,.65.8c0.92,1.12,1.3,2.6,2.4,3.77M201,59.44c2,1.12,4.14,1.33,6,2.37a37.35,37.35,0,0,1,6.48,4.28,1.36,1.36,0,0,0,1.16.16,3.21,3.21,0,0,0,2.08-2.38,22.62,22.62,0,0,0,.19-3.72,0.68,0.68,0,0,0-.44-0.43,4.09,4.09,0,0,0-1.47-.21c-2,.27-4,0.63-6.05.89a2.15,2.15,0,0,1-.93-0.51,2,2,0,0,1,.56-0.81,10.43,10.43,0,0,1,2.08-.47c0.89-.13,1.79-0.19,2.9-0.3-0.4-1.43-.7-2.83-1.2-4.14a2,2,0,0,0-1.26-1.22,7,7,0,0,0-3.76.65c-1,.55-1.87,1.16-2.76,1.8a13.47,13.47,0,0,0-3.59,4m-8.52-2.19a2,2,0,0,0,1.83.7,42,42,0,0,1,5.32-.06c-0.4.58-.69,1-1,1.41-0.56.77-.34,1.25,0.62,1.45s2,0.54,3.06.82l0,0.34a5.63,5.63,0,0,1-.91.49,6.46,6.46,0,0,0-2.82,2.08,10.65,10.65,0,0,1-2.05,2A2.47,2.47,0,0,1,195,66.2a2.57,2.57,0,0,1-1.05-.93A6.31,6.31,0,0,0,192,64.14c-0.3-.16-0.66-0.21-0.94-0.39a0.62,0.62,0,0,1-.27-0.51,12.7,12.7,0,0,0,.55-5.15c-0.08-1.18.06-2.37,0-3.55,0-.65-0.27-1.29-0.32-1.95A1,1,0,0,1,192,51.4c1.38-.19,2.73-0.59,4.11-0.75a1.58,1.58,0,0,1,1,.87c0.57,1.08,1,2.24,1.57,3.31a5.08,5.08,0,0,0,1.18,1,3.89,3.89,0,0,1,.58.62,0.43,0.43,0,0,1-.07.37,0.36,0.36,0,0,1-.3.09,10.24,10.24,0,0,0-4.51-.34c-0.91.18-1.84,0.27-2.76,0.41a1,1,0,0,0-.3.24m63.81,16.88c-1.13-.37-2.14-0.72-3.15-1a20.79,20.79,0,0,1-4.45-2.28,3.61,3.61,0,0,0-2.53-.68,3.91,3.91,0,0,1-1.78-.66,34.67,34.67,0,0,0,1.13-5.6,33.49,33.49,0,0,0-.65-5.58c2,0.22,3.37,1.62,4.87,2.78a24.45,24.45,0,0,1,3.14,3,7.84,7.84,0,0,1,.83,1.83c0.44,0.89,1,1.74,1.36,2.66a13.29,13.29,0,0,1,1.24,5.58M203.57,40.51c-0.78,1-1.5,1.27-2.14,1,0.91-1.53,1.38-1.75,2.14-1M194.5,40c0.56,1.31,1.1,2.41,1.51,3.57a36,36,0,0,0,1.73,4,12.46,12.46,0,0,1,1.44,3.61c0.22,1.54,1.32,2.46,2,3.66a0.92,0.92,0,0,0,.81.3c0.74-.6,1.94-0.76,1.95-2.08a2.9,2.9,0,0,1,.37-1.15c0.57-1.2,1.2-2.38,1.75-3.58a4.37,4.37,0,0,0,.2-1.11l-0.3-.09-2.05,3.68-0.8-.41a10.37,10.37,0,0,1,.46-1.42c0.65-1.26,1.37-2.48,2-3.76a4.6,4.6,0,0,0,.22-1.32c-0.87.72-1.52,1.5-2.68,1.42l2.21-3.48-0.21-.14a16.67,16.67,0,0,1-1.75,1.43,2.21,2.21,0,0,1-1.07,0,3.33,3.33,0,0,1,.46-0.77c0.73-.69,1.5-1.35,2.25-2L204.87,40a50.12,50.12,0,0,0-10.37,0M251,59.48l-0.28.33a9.3,9.3,0,0,1,1.09.88A20.66,20.66,0,0,1,254.69,64c0.72,1.23,1.43,1.68,2.73,1.07h0.18l5.34-.54a4.9,4.9,0,0,1,1.11-.13c0.9,0.12,1.27-.17.94-1a13.43,13.43,0,0,0-1.61-3.25c-2-2.67-4.11-5.3-7.43-6.78v3l-0.34.13a2.45,2.45,0,0,1-.68-0.91,5.28,5.28,0,0,1,.23-1.63c0.2-.89,0-1.15-0.9-1.38l-0.09.15c-0.07,1.15-.11,2.31-0.22,3.46a1.81,1.81,0,0,1-.42.64,1.36,1.36,0,0,1-.52-0.49c0-.76.14-1.51,0.19-2.27,0-.44,0-0.89,0-1.33l-0.35-.1a5.53,5.53,0,0,0-.82,1.72c-0.12,1.39,0,2.8,0,4.21a7.86,7.86,0,0,1,1,.25c1.6,0.65,3.62.27,4.81,1.92a6.05,6.05,0,0,1,.39.72,3.38,3.38,0,0,1-1,0c-0.38-.1-0.69-0.44-1.07-0.55-1.68-.5-3.37-1-5.05-1.44M240.91,41c0.66-.57,1.35-1.1,2-1.7s0.47-1.1-.3-1.3a56.22,56.22,0,0,0-6.21-1.4,39.46,39.46,0,0,0-5.19,0c-0.65,0-2-1-1.84-1.63a3.24,3.24,0,0,1,1-1.41A7.65,7.65,0,0,1,232,32.2c2.1-1.13,4.24-2.2,6.37-3.27a1.36,1.36,0,0,1,1.85.46c0.53,0.65,1.2,1.19,1.73,1.85a13.27,13.27,0,0,1,2.18,4.56,28.58,28.58,0,0,1,1.14,4.93c0,0.22,0,.44.07,0.61h-4.23L240.91,41M223.65,61l-0.88-2.24-0.31,0c0,0.3,0,.6,0,0.9s0,0.65,0,1.08c-1.4-1.07-.69-2.82-1.77-4v3.22c-1-2.05-.82-4.21-1.63-6.08a9.57,9.57,0,0,0,.75,5.74l-0.22.19a1.5,1.5,0,0,1-.52-0.51c-0.39-2-.77-4-1.08-6a21.76,21.76,0,0,1-.18-2.83,1.22,1.22,0,0,1,.8-1.07c1.41-.84,3-0.78,4.52-1.11a1,1,0,0,1,.82.24,7.65,7.65,0,0,0,3.58,2.26,1,1,0,0,1,.46,1.6c-0.46.64-1,1.23-1.51,1.86,0.45,0.63,1.94-.35,2.74-2,0.15,0.36.16,0.37-1,2.2-0.43.65-.93,1.24-1.39,1.86L227,56.59l1.71-.93L229,55.93l-2,1.78L227.1,58,229,57c0.32,0.6-.16.78-0.58,1-1.19.6-2.4,1.15-3.55,1.81A7.31,7.31,0,0,0,223.65,61M159.2,34.18c1.24,0.41,1.62-.38,1.94-1.8a4.58,4.58,0,0,1,.27-0.65c1.07,1-.07,2.14.45,3.14l0.76-.62,0.53,1.17a2.88,2.88,0,0,0,.28-0.46c0.45-1.27.94-2.53,1.31-3.82a15.56,15.56,0,0,0,.38-5.51,10.61,10.61,0,0,0-3-6.92,16.5,16.5,0,0,0-1.9-1.56,1.93,1.93,0,0,0-.85-0.39c-0.93-.12-1.87-0.22-2.81-0.25-1.43,0-2.86-1.1-4.28,0a0.51,0.51,0,0,1-.35,0c-1.08-.18-1.52.49-1.86,1.37a3.46,3.46,0,0,0,.7.24,34.39,34.39,0,0,1,4.12.41,10,10,0,0,1,3.24,1.35c1.34,0.88,1.71,2.43,2.09,3.9a6.41,6.41,0,0,0,.42,2,2.55,2.55,0,0,1,.17,2.47c-0.39,1.28-1,2.49-1.37,3.76a11.25,11.25,0,0,0-.25,2.13m-45,135.55a12.57,12.57,0,0,1,2.73,1.59,2.85,2.85,0,0,1,.51,2.06c-0.1,1-.56,2.06-0.72,3.1s0.07,1.33,1.34,1a19.2,19.2,0,0,0,2.95,6.8c0.32-1.56-.71-2.79-1-4.2a39.48,39.48,0,0,0-1.3-4.08l0.38-.17a2,2,0,0,1,.44.68,37.85,37.85,0,0,0,3,9.44c0.17,0.4.41,0.76,0.72,1.33-1.86.86-3.65,1.79-5.52,2.52-1,.39-1.71-0.51-2-1.88a7.84,7.84,0,0,0-1.3-3.69,2.61,2.61,0,0,1,.1-0.7c-0.17-1.94-.43-3.88-0.53-5.82s0-4,0-6c0-.62.11-1.25,0.18-2m14.37,45c0.76-1.45.76-1.45,0.1-2.75-0.11-.21-0.25-0.4-0.36-0.6-0.55-1-1.12-2-1.63-3.06a2.35,2.35,0,0,1,0-.94l0.4-.11,2.82,4a6.61,6.61,0,0,0-.12-1.92c-0.65-1.55-1.43-3-2.12-4.57a11.62,11.62,0,0,1-.46-1.62c1.27-.16,1.23,1.17,2,1.51l-2.51-5.7,0.29-.18c1.67,0.81,1.78,2.83,3,4a17.78,17.78,0,0,0-.71-2.41c-0.6-1.64-1.23-3.27-1.81-4.91a4.12,4.12,0,0,1-.09-1.06l0.42-.11,2.5,4.73,0.24-.1c-0.33-.82-0.66-1.64-1-2.46-0.62-1.5-1.28-3-1.84-4.51a5.7,5.7,0,0,1-.14-1.51,6.21,6.21,0,0,1,1.26,1.22c0.67,1.17,1.21,2.42,1.82,3.67,0.39-1.05.78-2,1.14-3.05a0.71,0.71,0,0,0-.06-0.6c-1.14-1.25-2.3-2.47-3.45-3.68a5.54,5.54,0,0,0-2.12,3.27c-0.39,1.69-1,3.33-1.37,5-0.3,1.54-.33,3.13-0.5,4.69-0.06.57-.26,1.13-0.29,1.7-0.07,1.25,0,2.51-.14,3.76-0.08,1.08-.44,2.18.83,2.88a2.9,2.9,0,0,1,.84.9c1,1.47,2,3,3.11,4.5m55.2-55.23c-2.49,1.62-5.37,1.69-8.11,2.74a6.45,6.45,0,0,0,.14-1.26c-0.11-1.08-.3-2.15-0.42-3.22-0.06-.51-0.5-1.12.56-1.46a13.09,13.09,0,0,1-1.43-1.5,3.39,3.39,0,0,1-.57-1.48,29.8,29.8,0,0,0-1.81-6.25,0.75,0.75,0,0,1,.1-0.65,1,1,0,0,1,.72-0.3,9.54,9.54,0,0,1,3.94,2.29c2.08,1.87,3.2,4.48,5.05,6.51,1.18,1.3,1.13,3.06,1.82,4.58M229.38,44.3c1.11,0,2.22,0,3.32,0a1.7,1.7,0,0,1,.4.72,1.69,1.69,0,0,1-.68.32A21.24,21.24,0,0,1,230,45a2.09,2.09,0,0,1-.66-0.46l0.07-.28M228,42.87h0c0.74,0.63,6.08,1.33,6.61.91-1.15-1.62-5.42-2.24-6.61-.91m3.63,9a28.13,28.13,0,0,0,2.59-1.73A4.49,4.49,0,0,0,236,47.38a19.39,19.39,0,0,1,1.3-3.2,0.88,0.88,0,0,0-.23-0.75,3.76,3.76,0,0,0-1-.57,23.66,23.66,0,0,0-7.79-2,2.64,2.64,0,0,1,.4-0.49,4.24,4.24,0,0,1,4.17-.31c1.47,0.59,2.84,1.42,4.26,2.13a3.16,3.16,0,0,0,.74.17l0.09-.24c-1.39-1.49-3.3-2.27-5.05-3.41,2.49-.5,4.12.84,5.7,2.24,1.5-.94,1-1.68-0.22-2.16l-0.49-.18a13.39,13.39,0,0,0-5.24-.5,5.22,5.22,0,0,0-2.39.45A11.25,11.25,0,0,0,226,42.26a6.51,6.51,0,0,0-1.32,3.81,4.65,4.65,0,0,0,1.22,2,8.07,8.07,0,0,0,1.32,1.07c0.18-1,.28-1.71.48-2.42a0.94,0.94,0,0,1,.65-0.41c0.89-.18,1.78-0.31,2.84-0.48a1.64,1.64,0,0,1,.16.83c-0.34.84-1.18,0.59-1.75,0.67-1.24,2.27.12,3.42,2,4.5m-108.1,85.38,2.81-7a4.59,4.59,0,0,0-2.65-.6,57.71,57.71,0,0,0-8.59.77c-0.53.12-.69,0.22-0.49,0.81,0.54,1.56,1.06,3.13,1.48,4.73a27.41,27.41,0,0,0,3.06,6.83,1.26,1.26,0,0,0,1.34.89c1-.16,2-0.24,3-0.39a0.56,0.56,0,0,0,.39-0.37c-0.07-.94-0.18-1.88-0.31-2.82a1.15,1.15,0,0,0-.27-0.74,13.92,13.92,0,0,1-4.9-5.63c-0.22-.43-0.54-0.9.05-1.28a1.19,1.19,0,0,1,1.61.14,4.58,4.58,0,0,1,.64,1,12.87,12.87,0,0,0,2.78,3.6m59.85-82.95a0.74,0.74,0,0,1-.76-0.7,22.85,22.85,0,0,0-2.79-5.67c-1.34-2.31-2.95-4.47-4.44-6.69-1.49.9-2.4,1.84-2.28,2.28,0.76-.15,1.32-1.07,2.46-0.64-0.94.93-1.77,1.69-2.53,2.52a4.56,4.56,0,0,0-.57,1.21c1.9-1.16,2.3-1.26,3-.55A8.63,8.63,0,0,0,172,49.42c1.05-.56,1.9-1.58,3.19-1.5l0.15,0.28-3,2.52a1,1,0,0,0,1.36.14c1.21-.71,1.46-0.66,2,0.16l-1.34.87c0.39,0.29.67,0.52,1,.71,1,0.65,2.13,1.23,3.13,1.93,1.31,0.92,2.58,1.9,3.83,2.9,1,0.8,1.24.82,2-.19,1.2-1.6,2.31-3.27,3.61-4.8,0.65-.77.22-1.68,0.73-2.41a9.22,9.22,0,0,0-1.05,1.38c-1,1.43-2.36,2.59-2.92,4.32a0.47,0.47,0,0,1-.9.07,6.22,6.22,0,0,1-.32-1.52M154.86,26.45l-0.53-.28c1.5-1.16,2-2.84,2.54-4.45a2.13,2.13,0,0,0-.13-0.89l-0.32,0a11.38,11.38,0,0,1-.58,1.79,1.06,1.06,0,0,1-1.56.44c0.3-.88.6-1.72,0.85-2.57a0.62,0.62,0,0,0-.29-0.53c-1.65-.21-3.31-0.41-5-0.55-0.72-.07-0.9.28-0.83,1a25.35,25.35,0,0,1,.08,4.64,9.19,9.19,0,0,0,0,2.46,1.51,1.51,0,0,0,.69,1.07c1.39,0.38,1.75,1.74,2.64,2.58a20.56,20.56,0,0,1,1.6,1.91,12.4,12.4,0,0,0,4.78-7.22,26.18,26.18,0,0,1-2.19,2.85,23,23,0,0,1-2.68,2l-0.25-.26c2.19-2.15,4.21-4.4,4.43-7.67-0.85,1.37-1.59,2.84-3.31,3.61m62.21,11.47c0.78-1.53,1.79-6.63,1.48-7.12l0.54-1.89a5.09,5.09,0,0,1,2.6,1.27c0.58,0.43,1,1,1.58,1.52a0.88,0.88,0,0,0,.51.11,20.46,20.46,0,0,0,1.38,1.55A12.32,12.32,0,0,1,228.41,37a0.79,0.79,0,0,1-.39,1.26,7.37,7.37,0,0,0-4,4,11.51,11.51,0,0,1-.92,1.35c-0.22-1.55-.37-3-0.65-4.4a23.29,23.29,0,0,0-1-3.43,3.53,3.53,0,0,0-1-1l-0.31.12a5.23,5.23,0,0,0,.06,1c0.43,1.7.9,3.39,1.39,5.24l-4.61-3.22M169.22,136a3.21,3.21,0,0,1,3.47,0q2.48,1.56,4.93,3.15a1.08,1.08,0,0,0,1.74-.47l-8.82-5.44a5,5,0,0,1,3.72.78c2,1.27,4,2.68,6,3.92a2.85,2.85,0,0,0,1.45-.31,4.94,4.94,0,0,0-.66-0.89c-0.25-.22-0.67-0.25-0.91-0.48a8.19,8.19,0,0,0-3.54-2.32c-1.32-.33-2.54-1-3.87-1.31a18.58,18.58,0,0,0-3.81-.21c-1.6,0-3.19.08-4.79,0.17-2.28.13-2.3,0.14-2.61,2.45-0.17,1.29-.22,2.6-0.37,3.89a8.09,8.09,0,0,1-.36,1.28c3-2,6.43-2.51,9.71-3.77l-1.28-.48m20.27-5.71L188,129c0.63-.68,1-0.07,1.41.18a2.17,2.17,0,0,1,.41.95l-0.32.17m-4.61-5c0.29-.64.56-0.77,1-0.43s1.05,0.74,1.56,1.14a1,1,0,0,1,.13.49,1,1,0,0,1-.51.08c-0.74-.41-1.46-0.85-2.18-1.28m9.28,16.3,2.53-5.34-0.23-.12c-0.5.95-1,1.91-1.51,2.84a2.51,2.51,0,0,1-.73.68,0.52,0.52,0,0,1-.37-0.24,2,2,0,0,1,.11-0.87c0.39-.91.85-1.79,1.24-2.7a1.53,1.53,0,0,0,0-.69c-0.8,0-.57-0.72-0.75-1.13a2.65,2.65,0,0,0-.27-0.81,11.88,11.88,0,0,1-3-4.84,2.68,2.68,0,0,0-.38-0.59,6.52,6.52,0,0,1-1.19-3.55,2.26,2.26,0,0,0-.41-0.8l-0.15.1v-0.9l-1.1-.09a4,4,0,0,0-.26-3.34l-0.84,1.1a2.78,2.78,0,0,1-.25-0.83,10.27,10.27,0,0,1,.38-2c0.37-1.06.4-2-.14-2.49l-1.22,3.48a4.27,4.27,0,0,1-.55,4.37c-0.74-1.7-2.39-2.21-3.8-3.05a2.88,2.88,0,0,0,1.59,2.06c1,0.54,2,1.22,3,1.87a0.86,0.86,0,0,1,.1.44,1.33,1.33,0,0,1-.53,0c-0.6-.32-1.19-0.68-1.78-1l-0.25.21c4.06,5.75,8.09,11.51,10.79,18.23m-39.26-2.5H149c0.78-1.24,4.45-1.16,5.91,0m-5.79,8.63c0.53-.5,1-1,1.54-1.45a7.28,7.28,0,0,1,4.65-2.18c1.49-.1,2.08-1.13,2.63-2.15a25.1,25.1,0,0,0,1.25-3.4l-5-.92c-1.09-.19-2.18-0.41-3.28-0.51a1.67,1.67,0,0,0-1.21.35c-2,2-2.3,4.6-2,7.24,0.12,1.1.23,2.38,1.47,3m10.5-16.37a14.43,14.43,0,0,0-1.77-.34c-1.42-.1-2.84-0.13-4.26-0.19a5.17,5.17,0,0,0-1.37-.05,13.53,13.53,0,0,0-6.13,2.77,11.39,11.39,0,0,0-2.38,2.43,6.73,6.73,0,0,0-.3,5.92,5.1,5.1,0,0,0,2.27,2.61,10.36,10.36,0,0,1,4.15-9.66l-0.68-.37a3.28,3.28,0,0,1,1-.58,12.8,12.8,0,0,1,5.7.81c1.12,0.43,2.26.81,3.41,1.21,0.25-.67.13-1-0.48-1.16-1-.27-2-0.59-3-0.9-0.65-.21-1.29-0.45-1.93-0.67l0.07-.28c2-.65,3.58.74,5.46,1.09l0.22-2.63m-52.42,13.08h0a1.49,1.49,0,0,0-.19-0.34c-0.5-.48-1-1-1.54-1.42a0.42,0.42,0,0,0-.45.7c0.43,0.49.9,0.95,1.38,1.39a0.53,0.53,0,0,0,.46.14,1.43,1.43,0,0,0,.33-0.48m4,1.17h0c0.46-1.58-1-3.59-2.59-4.06a1.74,1.74,0,0,0-.66.09,1.49,1.49,0,0,0,.14.66c1,1.12,2.07,2.21,3.11,3.31m0.45-5.18c0.69,0.84,1.37,1.69,2.07,2.52s1.41,1.65,2.25,2.61a2.1,2.1,0,0,1-.94.42,1.3,1.3,0,0,1-.79-0.72,10.52,10.52,0,0,0-3.41-4.61,2.21,2.21,0,0,0-1.14,0,2.1,2.1,0,0,0,.2.82c1,1.23,2.08,2.43,3.13,3.64,0.39,0.46.78,0.93,1.27,1.53-0.74.6-1.51,1.16-2.21,1.81a22.72,22.72,0,0,0-2,2.13,0.78,0.78,0,0,1-1.37.11,16,16,0,0,1-4.19-5.78c-0.2-.51-0.4-1-0.61-1.54a0.65,0.65,0,0,1,.5-1,2.41,2.41,0,0,1,1.52,0,16,16,0,0,1,2.07,1.79c0.52-.71-0.3-2-1.53-2.45a1,1,0,0,1,.22-0.33,35.86,35.86,0,0,1,3.6-1.88,19,19,0,0,1,3.59-1c0.77-.15,1.1.43,1.26,1.24a6.61,6.61,0,0,0,.91,1.74,1.88,1.88,0,0,1,.44.74,2.84,2.84,0,0,0,1.16,2.32l-0.64.68a24.26,24.26,0,0,0-1.75-2.46,31.15,31.15,0,0,0-2.67-2.49,1.74,1.74,0,0,0-.74-0.16l-0.19.27m58.75-63.91-1.11-1.62,0.29-.3a8.54,8.54,0,0,0,1.15.84c0.61,0.31.82,1.17,1.76,1.09a13.7,13.7,0,0,1,2.63.18c1.56,0.16,3.12.35,4.75,0.53l-1.91-4.41,0.26-.16a5.34,5.34,0,0,1,.86.94c0.69,1.24,1.31,2.52,2,3.77a3.16,3.16,0,0,0,.52.58l0.25-.22c-0.71-1.49-1.39-3-2.13-4.47a1.57,1.57,0,0,0-.81-0.85,32.73,32.73,0,0,0-4-.38c-1.15,0-2.3.11-3.46,0.15a10,10,0,0,1-1.7-.05c-0.5-.07-1-0.35-1.49-0.37-0.87,0-1.76.15-2.61,0-1.88-.28-3.74-0.69-5.86-1.1,1.63,1.68,2.2,3.92,4.06,5.22a1.85,1.85,0,0,0-.36-0.84c-0.6-.9-1.21-1.79-1.79-2.7a1.66,1.66,0,0,1-.1-0.6,1.53,1.53,0,0,1,.53.24c0.72,0.78,1.41,1.59,2.12,2.38a5.21,5.21,0,0,1,.79.84c0.58,1.08.77,1.21,1.95,1-0.66-.94-1.32-1.86-2-2.79a1.28,1.28,0,0,1-.07-0.51,1,1,0,0,1,.51.08,23,23,0,0,1,2.17,2.57,2.2,2.2,0,0,0,2.78,1M131.6,126.34c-0.47.34-.94,0.69-1.44,1l-0.42-.59A6.17,6.17,0,0,1,131,125.5a1.92,1.92,0,0,1,.82.37l-0.18.47m-3-.42a1.8,1.8,0,0,1,.51-2.06,0.6,0.6,0,0,1,.53-0.12,0.83,0.83,0,0,1,.37.54c-0.35.62-.42,1.5-1.42,1.64m4.88,2.94c0.92-1.54,1.69-2.93,2.57-4.24a0.93,0.93,0,0,0-.12-1.45,13.16,13.16,0,0,0-3.93-2.74c-0.62-.22-1.18-0.63-1.82-0.79a1.29,1.29,0,0,0-1.09.32,25.76,25.76,0,0,0-1.55,2.29c0.93,0.69.65,2-.55,2.84-1-.64.14-1.51-0.21-2.26-0.38.48-.71,0.94-1.09,1.36a2.84,2.84,0,0,0-.75.69,16.28,16.28,0,0,0-.39,2.6,0.8,0.8,0,0,0,.42.63c0.54,0.19,1.15.21,1.68,0.42a1.24,1.24,0,0,0,1.5-.3,1.61,1.61,0,0,1,1.94-.26,6.57,6.57,0,0,0,3.38.9m81.76-91.19c-1,0-2.1.07-3.19,0.15s-2.36.24-3.55,0.33c-0.37,0-.74-0.1-1.11-0.11a0.93,0.93,0,0,0-.65.15,1.46,1.46,0,0,1-2,.3,4,4,0,0,0,.24-1.2,5,5,0,0,1,.94-2.94,29.22,29.22,0,0,1,1.65-2.86,1.11,1.11,0,0,1,1.42-.66c1.44,0.44,3,.55,4.42,1a7.52,7.52,0,0,1,2.17,1.2,1.27,1.27,0,0,1,.35,1,3.89,3.89,0,0,1-.54,2.31,3.34,3.34,0,0,0-.14,1.39m-60,139.77a13.16,13.16,0,0,1,.37,1.94,15.8,15.8,0,0,1-.83,5.7c-0.48,1.44-.38,1.66,1,2.33a16.57,16.57,0,0,0,2.55,1.08c1.18,0.33,2.4.5,3.7,0.76,0-1.43,0-2.59,0-3.75,0-1.53.11-3.07,0.17-4.6a1.22,1.22,0,0,0-1-1.43c-0.92-.24-1.81-0.64-2.71-1a5.15,5.15,0,0,0-.71-0.13c-0.16,2.16-.16,2.16-0.85,2.73a6,6,0,0,1-.67-3.38l-1.08-.29m43.36,32.18,0.23,0.06c0.09-.36.2-0.72,0.27-1.08a4.64,4.64,0,0,1,.37-1.91c1.56-1.88,1-4,1-6.11a7.85,7.85,0,0,0,0-1.53c-0.29-1.47-.81-2.91-1-4.39-0.3-2.66-1.76-4.83-2.76-7.19-0.22-.52-0.66-0.92-0.86-1.52a5.4,5.4,0,0,0-1.25-1.36c-1-1.11-1.89-2.23-2.83-3.35-0.07,1-.12,1.87-0.19,2.91a38.37,38.37,0,0,1,7,25.49m-93.17-90.07,0.29,0.2c2.54-3.55,5.69-6.53,8.64-9.7l0.39,0.32c-2.58,3.37-5,6.82-8,9.94l0.24,0.22,5.51-4.19a1.05,1.05,0,0,1,.15.45,10.77,10.77,0,0,1-1.84,2.33c-1.46,1.1-3.08,2-4.63,3a0.76,0.76,0,0,1-1.28-.23l-0.55,1.8c2.3-1.09,4.36-2.08,6.43-3a4.27,4.27,0,0,1,1-.2,3.56,3.56,0,0,0,1.37-1.34,17.89,17.89,0,0,0,1.44-3.24,18.26,18.26,0,0,0,1-4.72,33.09,33.09,0,0,1,.38-4.33c0.17-1.06.31-2.13,0.46-3.2l-0.23-.06c-0.62.81-1.2,1.65-1.87,2.42-2.14,2.47-4.32,4.91-6.46,7.38a6.67,6.67,0,0,0-.68,1.29l8.1-8.73,0.34,0.21a2,2,0,0,1-.2.7c-1.36,1.69-2.74,3.36-4.13,5-0.51.61-1,1.2-1.54,1.82-1.19,1.45-2.39,2.89-3.55,4.37a12.33,12.33,0,0,0-.89,1.52M159,143.7c3.76-.19,6.36,1.83,8.9,3.84,0.95-.83.95-0.83,1.19-2.58l0.86,0.73,4.33-3.19c-2.34-1.05-4.4-2-6.49-2.89a5.51,5.51,0,0,0-1.67-.14v0.21l3.85,2.37-0.12.26a2.05,2.05,0,0,1-.62-0.07c-0.87-.39-1.73-0.81-2.59-1.23-1.34-.65-2.67-1.2-4,0.2,1.44,0.65,3.21.51,4.64,1.91a3.57,3.57,0,0,1-.95.1c-1.38-.34-2.75-0.75-4.14-1a2.15,2.15,0,0,0-1.29.24A20.14,20.14,0,0,0,159,143.7m-48.42-38.59,0.24,0.21a19.85,19.85,0,0,1,1.87-1.71c1.62-1.15,2.61-3.14,4.76-3.58a0.56,0.56,0,0,0,.17-0.3c0.51-1.23,1-2.47,1.54-3.68a23,23,0,0,1,4.61-7.28c1-1,2.15-1.89,3.22-2.83a10.77,10.77,0,0,0-3.26,1.32,54,54,0,0,0-4.86,4.29,30.89,30.89,0,0,0-2.07,2.53,14.89,14.89,0,0,0-1.06,1.09c-1.28,1.9-2.53,3.83-3.78,5.75a1.77,1.77,0,0,0-.14.48l0.16,0.17,5.21-4c0.63,0.45.3,0.75,0,1.05-1.89,1.77-3.79,3.53-5.66,5.32a9.33,9.33,0,0,0-.92,1.21m54.81,25.73c-0.27-.46-0.52-0.93-0.8-1.38a2.32,2.32,0,0,0-.49-0.61,0.61,0.61,0,0,0-.53-0.1,0.75,0.75,0,0,0-.17.59c0.11,0.47.3,0.92,0.49,1.43H163c0-.88-1.67-3.77-2.68-4.13l1.19,3.16-0.18.19a2.72,2.72,0,0,1-.7-0.65c-0.52-1-1-2.1-1.46-3.14a6.51,6.51,0,0,0-.79-1.25,1.24,1.24,0,0,0-.61-0.15,1.22,1.22,0,0,0-.06.52c0.51,1.3,1,2.59,1.57,3.88a0.3,0.3,0,0,1-.09.33l-2.9-5.55c1.11-.35,2.23-0.71,3.35-1a4.16,4.16,0,0,1,3,.1,1.21,1.21,0,0,0,.52.07,2.23,2.23,0,0,1,2.46,2.29c0.12,1.78,0,3.57,0,5.35l-0.26.08M205.3,166.9c-0.4.89-.73,7.91-0.36,9.82l0.55-2.82,0.34,0a2.74,2.74,0,0,1,.37.95c0,1.85.31,3.76-.83,5.45v0.17c0.16,1.49.44,3,.46,4.46a24.07,24.07,0,0,1-.33,4.67,46.34,46.34,0,0,1-1.31,4.63,1.31,1.31,0,0,0,.68-0.61c0.68-1.16,1.32-2.34,2-3.47s1.63-2.3,1.28-3.85a7.8,7.8,0,0,1-.18-1.12c-0.13-1.74-.2-3.48-0.37-5.21s-0.4-3.49-.72-5.21a16.49,16.49,0,0,0-.89-4.28,1.2,1.2,0,0,1,0-.53,2.21,2.21,0,0,0,0-.68c-0.24-.81-0.53-1.61-0.77-2.33m-5.42-19.72-1.14,3.95,0.35,0.13,1.5-1.76,0.27,0.14a5,5,0,0,1-.16.74c-0.3.78-.66,1.55-0.91,2.35a1.6,1.6,0,0,0,.27.76,1.92,1.92,0,0,0,.62-0.32c0.31-.37.56-0.79,1-1.36,0,0.7.86,1.21-.21,1.73a1.12,1.12,0,0,0-.27,1.57,1.05,1.05,0,0,0,.84.33,2.17,2.17,0,0,0,.58-0.85c0.26,0.88.54,1.76,0.78,2.65s0.49,1.91.72,2.87,0.52,1.95.72,2.94,0.29,1.9.43,2.9c-1.06.17-.92,1.18-1.12,2-0.14.56-.17,1.14-0.3,1.71-0.21-2.38.7-4.76,0.19-7.13l-0.4,0L202.84,167l-0.35,0c0-.87,0-1.74,0-2.61,0-1.54.13-3.07,0.13-4.61,0-.88-0.12-1.76-0.19-2.64l-0.26-.11a2.34,2.34,0,0,0-.39.8c0,1.17,0,2.34,0,3.51h-0.28l-0.43-3.7-0.27,0-0.45.95c-0.33-1.17-.61-2.28-1-3.37-0.74-2.26-1.55-4.49-2.26-6.76a2,2,0,0,1,.11-1.31c0.38-.79.9-1.52,1.44-2.39a2.68,2.68,0,0,1,0,.54c-0.29,1.21-.62,2.4-0.89,3.61a1.58,1.58,0,0,0,.24.7,2.47,2.47,0,0,0,.53-0.54c0.33-.66.6-1.34,0.9-2l0.46,0.15m38.53-77-0.18.17c0.36,0.78.74,1.55,1.07,2.34,0.63,1.53.11,3.05-.15,4.54A17.32,17.32,0,0,1,238,80.49a0.88,0.88,0,0,0,.46,1.36l4,1.63c0-2.48,0-4.66,0-6.85,0-.46.13-0.92,0.14-1.39a2.13,2.13,0,0,0-.13-1.28c-1.33-1.31-2.75-2.53-4.14-3.78m4.8,0.73a3.39,3.39,0,0,0,0,1.33,20.89,20.89,0,0,0,1.48,2c0.42,0.55.86,1.09,1.29,1.63l1.45,1.78,0.44-1.3a1.61,1.61,0,0,1,.16.35c0.13,0.86.27,1.72,0.38,2.59a17,17,0,0,1-.11,6,3.19,3.19,0,0,0,.26,1.22l0.29,0a1.68,1.68,0,0,0,.26-0.49c0.19-1.36.45-2.72,0.53-4.08,0.13-2.3.2-4.62,0.16-6.92a3.59,3.59,0,0,0-.71-2,3.78,3.78,0,0,0-1.62-1,15,15,0,0,0-1.86-.43c-0.74-.19-1.48-0.41-2.43-0.68m-46,12.25c0.41,1.35.76,2.4-.18,3.6a22.06,22.06,0,0,0-2.28,4A13.32,13.32,0,0,1,192,94.18l-2.58,2.58c-0.2.2-.41,0.39-0.45,0.43l0.49-4.75c1.56-.24,2.49-1.37,3.24-2.9a31.37,31.37,0,0,1,2.68-4.07c0.53-.76,1.15-1.46,1.83-2.32M176,292.81c-0.79-3.64-1.93-7.2-1.59-11a1.81,1.81,0,0,0,.8-1.18c1-2.11,1.26-4.46,2.15-6.6a19.57,19.57,0,0,0,.7-2.64l0.26,0a17.5,17.5,0,0,1-.24,2.59c-0.68,2.85-1.51,5.67-2.17,8.52-0.4,1.72-.59,3.48-0.87,5.23l0.42,0.11c1.1-2.73,1.58-5.67,2.74-8.59a2.3,2.3,0,0,1,.17.66c0,0.44-.16.88-0.22,1.32-0.19,1.34-.28,2.69-0.56,4-0.39,1.85-.93,3.66-1.35,5.5a18.85,18.85,0,0,0-.25,2.06M150,86.91l-0.18,1.6a3,3,0,0,1-.6-0.92,18,18,0,0,1,0-2.33c0.05-1,.17-2.05.27-3.33,0.44,0.59.82,1,1.16,1.54a6.84,6.84,0,0,0,1.58,2.08,9.52,9.52,0,0,1,1.62,2c0.4,0.52.81,1,1.23,1.56,0.55,0.67,1.13,1.32,1.69,2l-0.17.22c-1.33-.26-2.68-0.49-4-0.79-1.6-.36-1.7-0.56-1.8-2.25a6.37,6.37,0,0,0-.45-1.45l-0.34,0M136.49,207a1.82,1.82,0,0,0,.33-0.85,31.26,31.26,0,0,0-3.17-8.33c-0.63-1.25-1.2-2.38-.32-3.43,1.19,2.65,2.48,5.26,3.55,7.95s1.81,5.22,2.71,7.83c0.08,0.24.23,0.47,0.31,0.71a0.86,0.86,0,0,1,.1.55c-0.5.68-1,1.32-1.55,2L136.5,207h0a18.05,18.05,0,0,0-.58-2.26c-0.71-1.83-1.49-3.64-2.28-5.45a14.7,14.7,0,0,0-.89-1.53,43,43,0,0,0-.17,4.47c0,3.27.14,6.53-.68,9.77a23.81,23.81,0,0,1-4.36,9.23c-0.54.68-1,1.39-1.56,2.09l0.16,0.16c0.71-.39,1.44-0.74,2.11-1.19a46.45,46.45,0,0,0,4.07-2.88c0.64-.53,1.63-0.91,1.52-2.09s-0.14-2.48-.18-3.72a2.55,2.55,0,0,1,.22-0.74h0.28a7.65,7.65,0,0,1,1,3.76,0.71,0.71,0,0,0,.1-0.4c-0.26-2-.53-4-0.77-6a4.62,4.62,0,0,1,.07-0.93h0.32c1.06,1.93,1.2,4.11,1.58,6.47a2.41,2.41,0,0,0,.58-0.84,9,9,0,0,0-.17-2.4c-0.64-2-1.09-4.15-1.58-6.24a1.89,1.89,0,0,1,.22-0.79l0.25,0.05Zm66.2-5.6,0.23,0.14,4.5-6.22,0.28,0.16a6.38,6.38,0,0,1-.48,1.31c-1.73,2.73-3.45,5.47-5.28,8.13a9.34,9.34,0,0,0-1.84,3.69c1.8-1.86,3.53-3.77,5.23-5.71a5.22,5.22,0,0,0,1.16-1.63,25.56,25.56,0,0,0,1.55-8.35l-5.35,8.49m-61.77,8.36c0.77-.53.69-1.33,0.26-2.2a10.08,10.08,0,0,1-.39-1.15c-1.08-3-2.26-6-3.2-9.12-0.58-1.9-2-2.78-3.64-3.78,1.35,2.82,2.7,5.43,3.85,8.13s2.12,5.5,3.12,8.12m-17.82,6.54-2.59,9.28a1.5,1.5,0,0,0,.37-0.18,24.94,24.94,0,0,0,4.68-5.13,1,1,0,0,0-.07-0.9c-0.75-1-1.57-2-2.39-3.07M112.34,42.92c-0.42,0-.92,0-1.4.13-2.66.46-5.33,0.89-8,1.43-1.56.32-3.08,0.79-4.6,1.26a2,2,0,0,0-.62.78,2.17,2.17,0,0,0,1,.41c1.21-.24,2.39-0.65,3.6-0.91,1.79-.38,3.6-0.65,5.39-1s3.67-.2,4.64-2.07m71.6,19-6.88,1a10.5,10.5,0,0,1,2.83-4.28,0.64,0.64,0,0,1,.55-0.15,15.8,15.8,0,0,1,1.69,1.34c0.56,0.52,1.07,1.11,1.59,1.68a2.13,2.13,0,0,1,.21.41M128.46,28.55c-0.75-.31-1-0.16-1.2.38a5.29,5.29,0,0,1-.82,1.54c-1.21,1.51-2.47,3-3.74,4.44a2.43,2.43,0,0,1-1,.18c1.35-2.67,3.66-4.39,4.49-7.07a1.25,1.25,0,0,0-.74.49,10.45,10.45,0,0,1-.43,1c-1,1.22-2,2.39-3,3.59a1.71,1.71,0,0,0-.5.6,6.39,6.39,0,0,1-2.21,3.92,6.7,6.7,0,0,0,4-2.07c0.86-1,1.77-2,2.56-3.14s1.68-2.53,2.56-3.87M178,299.27c-0.18-4.14,1.67-8.21.42-12.36-1.92,3-2.2,8.94-.42,12.36M195.56,227a5.61,5.61,0,0,1,.41-1.11,5.67,5.67,0,0,0,1.21-3.07c-1.53,1.8-3.89,2.4-4.8,4.57l2.08-1.55a1.16,1.16,0,0,1-.07,1,14.06,14.06,0,0,1-2,2.1c-1.46,1.13-3,2.16-3.65,4.06a1.37,1.37,0,0,0,.31-0.12c1.59-1.14,3.19-2.25,4.74-3.43a6.25,6.25,0,0,0,1.17-1.34,8.1,8.1,0,0,0,.58-1.09M161.26,98.94a3.06,3.06,0,0,0,.35.58c1,1,2,2,3.1,2.91a6.56,6.56,0,0,0,3.39,1.83,8.26,8.26,0,0,1,1.39.46l1.25,0.43,0.12-.29a7.93,7.93,0,0,1-1.57-1.31,4.1,4.1,0,0,0-3-1.9,6.3,6.3,0,0,1-1.56-.51,1.21,1.21,0,0,1-.34-0.43l0.49-.11,1-.23c-1.41-1.24-3.06-1-4.69-1.42M107.82,47.83c-1.55.32-3.07,0.53-4.54,1-2.22.63-4.41,1.38-6.59,2.13a4.31,4.31,0,0,0-1.06.81,0.55,0.55,0,0,0,.48.24,34.79,34.79,0,0,1,9.09-2.32,3,3,0,0,0,2.63-1.81M95,54.85a0.89,0.89,0,0,1,.39-1.41c3-.87,6.08-1.69,9.13-2.52a1.51,1.51,0,0,1,.44,0c-0.63,1.31-1.88,1.61-3.07,1.93-2.07.57-4.15,1.08-6.22,1.63a3.64,3.64,0,0,0-.67.35M148.11,8.7l0.14-.32a2.4,2.4,0,0,1,.67.12c0.76,0.38,1.52.75,2.24,1.19a2.49,2.49,0,0,0,2.75.26c-1.08-.72-2.12-1.45-3.21-2.12a1.44,1.44,0,0,0-1.06-.2,29.37,29.37,0,0,0-2.77,1.18,1.63,1.63,0,0,0-.4.47c1,0.83,1.47,2.12,2.83,2.38a3.23,3.23,0,0,0-.42-0.52,4.6,4.6,0,0,1-.32-0.81,4.66,4.66,0,0,1,.84.11c0.42,0.13.82,0.33,1.22,0.5l0.08-.19-2.6-2M86,28c1.09-1.45,2.75-1.41,4.26-1.72a14.42,14.42,0,0,0,2.21-.45c1.76-.66,3.33-0.05,4.9.58a1.47,1.47,0,0,1,.39.6l-0.18.29c-0.83-.21-1.65-0.45-2.49-0.62a12.13,12.13,0,0,0-1.73-.21,0.83,0.83,0,0,0-.65.18c-0.49.88-1.31,0.62-2.06,0.71C89.11,27.5,87.56,27.74,86,28m56.82,46h2l1.4,2.95c-0.74-.63-1-0.3-1.06.29l-0.32,1.91a4.27,4.27,0,0,1-.5-0.65c-0.48-1-1-2.08-1.4-3.14a5.23,5.23,0,0,1-.67-2.07,9.19,9.19,0,0,1,.84-2.41c1.05,0.94.93,1.43-.31,3.12m45.25-33.1a5.69,5.69,0,0,0-.38.65c-0.57,1.37-1.07,2.76-1.69,4.1a36.16,36.16,0,0,0-2.36,5.09c-0.11.38-.17,0.78-0.26,1.17l0.25,0.09c0.38-.59.81-1.15,1.13-1.77,0.86-1.64,1.67-3.31,2.51-5,0.69-1.37,1.49-2.72.79-4.38M250.85,75.7c1.43,3.95.46,7.88-.13,11.82-1.24-.17-0.81-1.11-0.77-1.72,0.15-2.22.44-4.43,0.61-6.65,0.09-1.14,0-2.29,0-3.44h0.28M195.54,220.34c0.43-.23.72-0.38,1-0.55,1.28-.75,2.07-2.26,3.76-2.41a1.27,1.27,0,0,0,.53-0.67c0.33-.6.63-1.21,0.92-1.82s0.45-1,.62-1.45c-1.38,1.08-2.74,2.27-4.22,3.28a5.79,5.79,0,0,0-2.61,3.62m-14.45,77.81c0.33,1.15.73,2.29,1,3.46a10.62,10.62,0,0,1-.13,1.65c0.08,2.17.2,4.33,0.3,6.49a2.93,2.93,0,0,1-1-2.08,23.35,23.35,0,0,1-.38-3.76c-0.06-1.9,0-3.81,0-5.71l0.24,0M96.59,48.79a10.2,10.2,0,0,0,1.5-.58,11.22,11.22,0,0,1,4.9-1.44,31,31,0,0,0,3.16-.61C106.77,46,107.41,46,108,45.9l2.05-.26L110.22,46a4,4,0,0,1-1.34.6,26.45,26.45,0,0,0-6.81,1.15c-1.58.46-3.14,1-4.72,1.45a2,2,0,0,1-.72-0.07l0-.33M203.84,209.12c-1,.89-1.74,1.65-2.55,2.36-1,.88-2.08,1.71-3.1,2.59a2.61,2.61,0,0,0-.86,2.2c0.68-.5,1.2-0.87,1.7-1.27,1-.77,1.89-1.57,2.87-2.32a2.41,2.41,0,0,1,.89-0.19l1.07-3.37M192.9,32.17c1.36-.08,1.8-1.17,2.55-1.77A13.16,13.16,0,0,0,197.62,28c1-1.33,1.94-2.71,2.88-4.08,0.52-.76-0.19-1.13-0.45-1.52-1,1.68-1.91,3.46-3.07,5.05s-2.63,3.06-4.09,4.71M127.57,217a0.86,0.86,0,0,0,.36-1.48c-1.18-1.55-2.37-3.1-3.56-4.64-0.25-.32-0.52-0.63-0.78-0.95l-0.3.13a6.81,6.81,0,0,0,.57,2.37c1.12,1.59,2.45,3,3.72,4.57m52.17,76.11v11.67a11,11,0,0,1-.93-2.12,10.38,10.38,0,0,1-.1-2.57c0.07-1.38.21-2.75,0.35-4.12,0.1-1,.24-1.91.36-2.86h0.33m-54.46-107c1.26,0,1.58-.46,1-1.46a31.25,31.25,0,0,1-3.39-7.05,1.7,1.7,0,0,0-.7-0.5l-0.21.21,3.32,8.8M139.78,23.4c0-1.87,1.54-1.55,2.48-1.75a33.27,33.27,0,0,1,4.47-.42,3,3,0,0,1,.42,0c0.18,1.3.13,1.22-1.05,1.27-1.51.06-3,.35-4.51,0.55-0.6.08-1.19,0.21-1.8,0.33m24.1,16.54c1.33-2.09,2.63-4.09,3.89-6.13a2.63,2.63,0,0,0,.34-2.65c-0.48.69-.87,1.2-1.21,1.75-1,1.65-1.58,3.55-2.81,5.1-0.34.42-1,1-.21,1.93m5.64-5.72c-0.22.65-.41,1.31-0.66,1.94a16.76,16.76,0,0,1-3.39,5.44,3.76,3.76,0,0,1-.8.5,2.58,2.58,0,0,1-.05-1.27c0.64-1,1.45-1.91,2.14-2.9,0.86-1.24,1.65-2.52,2.48-3.78l0.29,0.07M114.95,43.5l0.61-.35c1-.59,2-1.21,3-1.75s2.06-1,3.11-1.49c1.42-.65,2.87-1.24,4.28-1.91a1.72,1.72,0,0,0,.41-0.74l-0.22-.16c-0.94.37-1.92,0.67-2.83,1.12-2.39,1.17-4.77,2.36-7.1,3.65-0.53.29-1.55,0.39-1.27,1.64M93.79,57.64c1.24-.39,2.41-0.77,3.58-1.13s2.14-.68,3.22-0.94A1.55,1.55,0,0,0,101.84,54c-0.29.1-.58,0.22-0.88,0.31-1.93.54-3.85,1.1-5.79,1.6a1.7,1.7,0,0,0-1.38,1.73M156,94.38c1.86,0.47,3.91.22,5.44,1.76-0.55,0-1.1,0-1.65,0a1.49,1.49,0,0,0-.53.33,1.5,1.5,0,0,0,.44.35c0.92,0.26,1.85.48,2.78,0.73a2.3,2.3,0,0,1,.89.49C162.24,98,161.13,98,160,97.87a1.69,1.69,0,0,1-.74-0.49q-1.31-1.11-2.6-2.25c-0.26-.23-0.48-0.5-0.72-0.75m-31.64-67a2.45,2.45,0,0,0-.55.54,15.84,15.84,0,0,1-1.13,2.34c-1.4,1.88-2.89,3.68-4.37,5.49-0.78.95-1.6,1.86-2.4,2.79a2.85,2.85,0,0,0,2.37-1.16c0.43-.55.89-1.09,1.31-1.65a6.15,6.15,0,0,0,.5-0.81,24.9,24.9,0,0,1,1.45-2.7c1.07-1.51,2.45-2.81,2.83-4.83M205.6,204.52c-1.45,3.41-4.49,5.45-7,8l-0.25-.16a9.56,9.56,0,0,1,1.11-1.91c1.25-1.33,2.62-2.54,3.91-3.83,0.7-.7,1.33-1.48,2-2.22l0.2,0.12M184.87,313.2c-0.63-.76-1.41-1-1.41-2.14,0-2.07-.29-4.15-0.43-6.22a1.74,1.74,0,0,1,.18-0.6,7.22,7.22,0,0,1,1.06,4.4,44.55,44.55,0,0,0,.6,4.57M159.16,137.7l-8.07-1.76,0.12-.78a2.06,2.06,0,0,1,.59,0c2.23,0.52,4.44,1.1,6.68,1.56a0.71,0.71,0,0,1,.68,1m-16.71,69.41-3.57-10.43,0.13-.11a3.29,3.29,0,0,1,.51.6c0.59,1.19,1.21,2.37,1.71,3.59s0.9,2.52,1.34,3.79a0.91,0.91,0,0,0,.12.32c0.83,0.89.24,1.57-.24,2.23M218.1,78.76c0.31,0.62.65,1.23,0.93,1.86,1.08,2.43,2.15,4.86,3.17,7.31a2.24,2.24,0,0,1-.44,1c-1.36-3.13-2.65-6-3.89-9a3,3,0,0,1,0-1.1l0.25-.07M189.27,52.82H189a17.86,17.86,0,0,1-3.71,4.64,5.46,5.46,0,0,0-.91,1.12,1.69,1.69,0,0,0,0,.8,1.88,1.88,0,0,0,.86-0.14,6.61,6.61,0,0,0,1-1.19c0.92-1.26,1.85-2.5,2.69-3.81a4.07,4.07,0,0,0,.29-1.41M141,197.23a0.76,0.76,0,0,1,1.11.55,29.33,29.33,0,0,0,2.1,4.21c0.51,0.83,0,1.45-.08,2.16h-0.46c-0.92-2.24-1.81-4.48-2.71-6.73a0.45,0.45,0,0,1,0-.19M195.7,2.67l-1,.39-4-3.05h1.55a24.4,24.4,0,0,1,3.42,2.67m-25,153.16,1,0.26,1.09,6.65c-0.59.06-1,.32-1.1-0.36-0.34-2.06-.69-4.12-1-6.19a1.55,1.55,0,0,1,.06-0.36m-28.13,25.79A1.56,1.56,0,0,1,144,183c0.23,0.95.59,1.86,0.83,2.8a1.85,1.85,0,0,1-.07,1c-0.2.57-.5,1.1-0.87,1.89l-1.32-7.08m45-80.32c1.79-2,4.15-3.39,4.56-6.23-1.79,1.79-4.22,3.09-4.56,6.23m-2.06,207.87c0.78,2,2.37,3.58,2.84,5.83l-1.45-.66a2.33,2.33,0,0,1-1.25-2.13c-0.12-1-.29-2-0.44-3l0.3-.05M246.67,78.33l0.93-.21v7.63l-0.4.09a3.17,3.17,0,0,1-.52-1.1c-0.06-2,0-4,0-6.06,0-.09,0-0.18,0-0.34M200,218.51c-1.42,2.55-3.92,3.76-6.08,5.55,0.24-1.69,2.57-3.77,6.08-5.55M93.45,60c0-1.16,1-1.12,1.63-1.41,1-.43,2-0.82,3-1.17,0.59-.21,1.22-0.31,2.09-0.52a4.11,4.11,0,0,1-.75,1.39,5,5,0,0,1-1.4.31c-1.35.41-2.69,0.86-4,1.29a4.9,4.9,0,0,1-.52.11m27.29,116.53-0.34.1a3.19,3.19,0,0,0,.11.66c1.15,3,2.3,6,3.49,8.95a1.47,1.47,0,0,0,.58.4l0.14-.21-4-9.9m56-145.15c-1.05,0-2-.32-2.59.7s-1.09,2-1.54,3.09a11.32,11.32,0,0,0-.46,1.87l0.36,0.17a12.2,12.2,0,0,1,4.24-5.83M173.7,162.59c-0.1-1.05-.15-2-0.28-3s-0.36-2.05-.55-3.15l1.39,0.53c0,0.44.09,1.06,0.15,1.68,0.1,1,.16,1.93.35,2.87s-0.55,1-1,1.1M245.34,85.3l-0.47-1.71a12,12,0,0,0,.27-1.63c0-1.55,0-3.11,0-4.65,0.64,0.1.75,0.2,0.76,0.94,0,1.13,0,2.25,0,3.38a11.14,11.14,0,0,0,.22,2.62c0.2,0.71-.17.79-0.8,1m-78-56.54a1.42,1.42,0,0,1,.34-1.73c0.5-.62.4-1.73,0.55-2.63a2.41,2.41,0,0,0,0-.56c-0.11-1.41-.25-2.81-0.33-4.22,0-.53-0.25-1.19.62-1.51a17.26,17.26,0,0,1,.11,5.36,18.06,18.06,0,0,0-.19,2.42,3.21,3.21,0,0,1-1.05,2.86m34.2-3.71-4.91,6.36a4.15,4.15,0,0,0,1.32-.54,7.65,7.65,0,0,0,2.28-2.75,2.87,2.87,0,0,1,.86-1.39,1.16,1.16,0,0,0,.45-1.68m-11.42,75.19c-0.32,2.46-2.42,3.67-3.46,5.7-0.43-1.56,1.35-4.39,3.46-5.7m-72.76.74a7.56,7.56,0,0,1-.89,1.5c-0.78.82-1.66,1.55-2.49,2.32l-4,3.76c0-.47.45-1,2-2.51,0.89-.84,1.68-1.78,2.54-2.65s1.74-1.69,2.61-2.53l0.18,0.1m27.78,99.71,0.28-.19c0.58-2.12-.9-3.5-1.8-5.14a1.3,1.3,0,0,0-.3,1.65c0.51,1,1,2.06,1.46,3.08,0.1,0.21.24,0.4,0.36,0.6M105.41,43.37c-0.19-.76.58-0.78,1.07-0.85a28.66,28.66,0,0,0,6-1.2,2.71,2.71,0,0,1,1.52.12,19.14,19.14,0,0,1-4.08,1.23c-1.44.28-2.89,0.46-4.47,0.71m48.25,141.5c-0.18-2.74-.35-5.48-0.52-8.2,1.11,0.1,1.84.91,1.16,1.89-0.91,1.32.05,2.5-.25,3.72a16.88,16.88,0,0,0-.25,2.65ZM189.41,56c-1.24,1.31-2.49,2.63-3.73,4a0.62,0.62,0,0,0-.17.46,1.35,1.35,0,0,0,.32.64,1.55,1.55,0,0,0,.89-0.4,28.75,28.75,0,0,1,2-2.76c0.62-.64,1-1.18.73-1.91M156.8,176.09a20.44,20.44,0,0,1-.93-1.88q-1.07-2.84-2-5.73a3.64,3.64,0,0,1,0-1.11l0.26,0,3.05,8.62-0.33.15m14.41-28.83c-0.78.13-.58,0.63-0.45,1.13,0.44,1.62.9,3.23,1.3,4.86,0.23,0.93.18,0.94,0.85,1.09-0.31-1.74-.58-3.49-0.95-5.22a10.86,10.86,0,0,0-.76-1.85M138.72,25.58a4.63,4.63,0,0,1,1.08-.79,19.07,19.07,0,0,1,6.44-1.07c0.46,0,.78.05,0.56,0.62-2.79-.35-5.33.54-7.85,1.57l-0.24-.34m37.9,85.73c-1.44-2.06-3.79-2.46-5.93-3.26a5,5,0,0,0,2.9,2.06,29.16,29.16,0,0,1,3,1.2m-7.76,27.34a9.32,9.32,0,0,0,1.62.91,8,8,0,0,1,3.62,2.29c0.27,0.29.5,0.41,0.73-.07a3.83,3.83,0,0,1,.55-0.67c-1.41-.66-2.76-1.25-4.07-1.92a2.86,2.86,0,0,0-2.45-.54M128.19,171a30,30,0,0,0,2.3,3.47,3.08,3.08,0,0,1,1,2.82l-2.28-3.43c-0.4-.6-0.84-1.19-1.18-1.82a3,3,0,0,1-.16-1l0.37-.06m39.48-65.9c1.93,0.06,5.36,1.78,6.29,3.19-2-1.41-4.69-1.05-6.29-3.19M154.9,33.79a3,3,0,0,0,1.36-.1c1.34-1.32,2.76-2.62,2.88-4.53l-4.24,4.63M159,74.13l-3-6.48-0.29.1a2.88,2.88,0,0,0,.08.83c0.61,1.51,1.21,3,1.91,4.49A1.39,1.39,0,0,0,159,74.13m84.63,0.93a6.06,6.06,0,0,1,.53,1.64c0.06,2.4,0,4.81,0,7.21l-0.24.13a1.89,1.89,0,0,1-.43-0.77c0-1.18.2-2.35,0.24-3.52a26.26,26.26,0,0,0-.1-2.73c0-.63-0.16-1.25-0.24-1.87l0.23-.08M168.34,16.53V15.85a1.6,1.6,0,0,0,.85.07A1.16,1.16,0,0,0,169.5,15c-0.24-1.79-.54-3.57-0.81-5.35a0.42,0.42,0,0,1,.2-0.38c0.17,0.8.34,1.6,0.51,2.4,0.07,0.31.16,0.62,0.25,0.92a6.52,6.52,0,0,1,.44,1.55c0,1-.1,1.94-0.17,3l-1.57-.62m-69.4,8.85,0-.29a19.21,19.21,0,0,0-2.44-.88,12.83,12.83,0,0,0-3.26-.4,4.71,4.71,0,0,0-1.72.93L91.59,25a1.66,1.66,0,0,0,.75-0.13,2.78,2.78,0,0,1,2.79-.37c1,0.27,1.91.61,2.88,0.88a3.65,3.65,0,0,0,.94,0M203.81,197.16l4.24-7.58,0.34,0.15a11,11,0,0,1-.78,2.14c-1.14,1.84-2.38,3.62-3.59,5.42l-0.21-.12m-30-86.19c1.86,1.05,4,1.23,5.08,3.24-1.59-1.13-4.06-.74-5.08-3.24m-70.58,14.45,6.87-2.76a0.73,0.73,0,0,1,0,.4c-0.42.41-.86,0.8-1.31,1.17a0.86,0.86,0,0,1-.52.28c-1.34-.5-2.26.68-3.43,0.84-0.51.07-1,.22-1.5,0.34l-0.1-.28m48.83,59.73,0.18,0c-0.08-1.32-.19-2.63-0.24-3.95a6.36,6.36,0,0,0-1.71-4.21c0.38,1.54.74,2.88,1,4.23s0.49,2.64.74,4m-28.73,28.7c1.17,1.28,2.36,2.55,3.49,3.87a1.63,1.63,0,0,1-.08.84,2,2,0,0,1-.58-0.31c-1-1.08-2-2.15-2.89-3.27a2.6,2.6,0,0,1-.25-1.05l0.3-.07M150.79,7.07l0.73-.77,5,3c-2.28-.05-3.77-1.48-5.73-2.21m6.8,62.37a1.88,1.88,0,0,1,.68.51,16.88,16.88,0,0,0,2.9,4.42,1,1,0,0,1,0,.34,2,2,0,0,1-.82-0.28,14.21,14.21,0,0,1-2.92-4.78l0.19-.21M169.18,149l0.84-.52,1,4.46c0.05,0.23.14,0.45,0.17,0.67,0.08,0.5-.11.72-0.45,0.61L169.18,149m26.95-2.47c1-.72,2-4.2,1.44-5.23-0.73,1.69-1.82,3.21-1.44,5.23M181,73.07a1.71,1.71,0,0,1,1.47,1.38c0.35,1.57,1,3.07,1.38,4.74a2,2,0,0,1-.54-0.51c-0.78-1.85-1.54-3.71-2.31-5.6m35.85-21-0.19,0a3.71,3.71,0,0,0-.24,1.1,14.07,14.07,0,0,0,1.24,5.15,0.73,0.73,0,0,0,.36.26l-1.18-6.48m26.49,11c0.23,1.08-.66,1.43-1.2,1.87-1.12.91-2.35,1.7-3.56,2.5a2.51,2.51,0,0,1-.83.14L243.35,63M190.78,183.32c-0.69-.62-1.37-1-1.49-1.93a17.63,17.63,0,0,0-.51-2c1.36,0.38,2.1,1.79,2,4m-33.32-53.86,0.34-.16a4.36,4.36,0,0,0-.2-0.7c-0.6-1.26-1.23-2.5-1.82-3.76-0.32-.7-0.48-0.76-1.15-0.32l2.83,4.94m28.4-19c1-1.64,2.26-2.94,2.42-4.88-1.39,1.32-2.51,2.68-2.42,4.88M223,87.31a1.15,1.15,0,0,0,.12-1.55c-0.59-1.1-1.12-2.22-1.69-3.33-0.27-.51-0.58-1-0.87-1.5l-0.23.13L223,87.31M156.54,72.26c-1.57-.55-2.78-3.59-2.4-5.43a2.61,2.61,0,0,1,.32.06c-0.13,2,1.4,3.44,2.09,5.38M145.48,7.14c-0.93.6-2,.23-3.05-0.26-0.9-.4-1.85-0.68-2.8-1a1,1,0,0,1,1.32-.3c1.55,0.52,3.09,1.06,4.53,1.57M185.69,115c-0.44-2.08.6-3.44,1.76-4.91a9.87,9.87,0,0,1-1.76,4.91m-30.57,60.31L153,169.6l-0.45.16c0.22,0.69.44,1.39,0.68,2.09a15.77,15.77,0,0,1,.73,2.23,1.15,1.15,0,0,0,1.12,1.2m26.15-58.07c-1.51-.91-3.62-0.81-4.46-2.89,1.62,0.86,3.5,1.14,4.46,2.89m-4.21,23a1,1,0,0,1-1.38-.1c-1.11-.78-2.33-1.4-3.5-2.08,1-.48,2.43.18,4.88,2.18m-58.37-12.27,3.63-1.52v1.54l-3.55.28-0.09-.3m94.7-53.17L213.2,75a0.87,0.87,0,0,0,.16.41c0.9,0.53,1.8,1.06,2.72,1.53a0.78,0.78,0,0,0,.62-0.19,1,1,0,0,0-.22-0.76c-1-.45-2.06-0.82-3.1-1.21m-24-15.68a4.16,4.16,0,0,1-1.75,3.54,0.45,0.45,0,0,1-.66-0.47c0.28-.44.62-0.84,0.94-1.25l1.47-1.83m-40,119,1.18,6c-0.95-.2-0.82-1-1-1.65a28.77,28.77,0,0,1-.54-3,9.67,9.67,0,0,1,0-1.34l0.35,0M140,65.17c-0.42-1.61.48-2.64,1.23-3.77A3.22,3.22,0,0,1,140,65.17M199.65,30.4c1.54-.52,2-1.84,2.54-3.15,0.58,1.34.6,1.7-.15,2.45a2.9,2.9,0,0,1-2.39.71M129.2,169.56c0.77,1.09,1.48,2,2.09,3a3.75,3.75,0,0,1,.25,1.27l-0.29.1c-0.71-1.14-1.45-2.26-2.12-3.42a2.11,2.11,0,0,1,.07-1M188.59,84c-0.63-.83-1.18-1.52-1.66-2.24a1.37,1.37,0,0,1-.07-0.8c0-.44.13-0.87,0.22-1.41A11.66,11.66,0,0,1,188.59,84m27.58-4.42-3.23-3.23,3.31,1.79c0,0.39-.05.87-0.09,1.44M138.53,4.48c-0.39,1-2.58,1.54-5,1.31l5-1.31m-1,126.22c-1.72-1.14-1.83-2-.51-3.58l0.51,3.58M142,20.51c0.6-1.09,3.81-1.51,4.72-.47l-4.72.47m43.74,30.81,3-5.66a3.65,3.65,0,0,1-.12,1.39c-0.86,1.51-1.81,3-2.74,4.43l-0.19-.17M116.79,40.56a1.26,1.26,0,0,1,.15-0.53c1-.5,2-1,3.06-1.42a1.56,1.56,0,0,1,.75.18,3.62,3.62,0,0,1-.56.41c-0.86.41-1.72,0.81-2.59,1.19a4.22,4.22,0,0,1-.82.17m29.14,156c-0.28-1.38-1.93-2.2-1.52-3.85,0.87,0.39,1.86,2.76,1.52,3.85M185.77,80.42l-1.59-5.11c1.8,1.22,1.36,3.28,1.86,5l-0.26.12M139,45.51l2.24-.77,0.22,0.33-2.15,2.05L139,45.51m46.1,132.21c1.43,0,1.94.52,2.49,2.74l-0.19.16-2.3-2.9m-39.74-135a2.53,2.53,0,0,1,.35-0.92,16.74,16.74,0,0,1,1.76-1.14,1.35,1.35,0,0,1,.53-0.05,1.08,1.08,0,0,1,0,.53,3.21,3.21,0,0,1-.83.8,17.86,17.86,0,0,1-1.78.78m37.55,76.72c-1.27-.58-2.85-0.49-3.85-2a8.08,8.08,0,0,1,3.85,2m-31.52-73c1.05,0.79,1.68.11,2.34-.29a1.41,1.41,0,0,0,.3-0.57,1.38,1.38,0,0,0-.67-0.26c-0.65.31-1.27,0.71-2,1.13m-23.58-6.36c0.77-1.11,1.86-1.63,2.34-2.76-1.11-.07-2.39,1.36-2.34,2.76m111.4,28.14,0.07,0.1c1-.48,1.95-0.93,2.91-1.43,0.61-.32,1.3-0.62,1.17-1.55l-4.15,2.88m-98.66-.83c1.56-1.37,1.68-1.7.86-2.54-0.31.89-1.58,1.29-.86,2.54m-35.26,59.47-3.48,1.24-0.19-.2a2.39,2.39,0,0,1,.77-0.87,27.21,27.21,0,0,1,2.84-.43l0.05,0.25m89.52,16.38,2.15-4.67c0.18,0.72-1.2,4-1.9,4.78l-0.24-.11m-8.25-58.83,1.22,3.07c-1.35-.52-1.72-1.34-1.47-3l0.24-.09m28.88-30.32,1.3,3.92c-0.54.14-.94-0.11-1.11-1s-0.2-2-.28-3ZM131.63,156l-1.36-4.86,0.24-.07c1.1,1.42.83,3.26,1.13,4.93M97.17,23.28h4a1.66,1.66,0,0,1-1.7.73c-0.79-.22-1.57-0.49-2.34-0.73M132,143.7c1.1,1.43.28,3,.61,4.53l-0.35,0q-0.13-2.28-.26-4.57M166.26,18.33l0.56,4.56c-1-1.56-.81-3.06-0.8-4.53l0.24,0M131.73,171.18c0.38-1.15-.47-1.72-0.73-2.49a1.12,1.12,0,0,0-.5-0.28,1.28,1.28,0,0,0-.15.66c0.39,0.68.85,1.33,1.38,2.11m19-157.78a3.06,3.06,0,0,1,2.37,1.28c-1,.14-2.44-0.63-2.37-1.28m47.95,70.72c-0.57-2-.57-2,0-2.27,0.9,1.5.9,1.68,0,2.27M182,176.84c1.54-.17,1.67,1.05,2.37,1.85-1.33,0-1.66-1.06-2.37-1.85M157,167.29a8.75,8.75,0,0,1-.66-1.54c-0.22-.94-0.32-1.91-0.45-2.87l0.23,0,1,4.38Zm44.65-86.57c-0.29-1.23-.29-1.23.62-1.9,0.62,1.19.52,1.48-.62,1.9M172.8,41.09l0.67-1.61,1.14,0.59-1.45,1.19-0.36-.16m-70.94-19.6,4-1.61L106,20.09,102,22l-0.18-.47M207.35,49.6c-0.82.83-.35,2.36-1.9,2.8l1.57-3,0.33,0.15M150,45.48c0.56-.48,1.11-1,1.7-1.44a1.34,1.34,0,0,1,.69,0,1.92,1.92,0,0,1-.36.49c-0.59.42-1.2,0.8-1.81,1.2L150,45.48m3.72,108.05L151,155.85c-0.14-.8,1.27-2,2.77-2.31m88.86-85.3c-0.23.25-.43,0.51-0.68,0.74a3.24,3.24,0,0,0-.63.46c-0.46.75-.74,0.34-1.15-0.16l2.29-1.19Zm-70.68-37,0.86,0.31-1.08,2-0.38-.16,0.6-2.1m60.29,41.56,1.86,2.73c-1.1-.47-2.08-1.84-1.86-2.73M155.74,47.92l-1.67-.13L154,47.49a4.25,4.25,0,0,1,1.22-.6,1.93,1.93,0,0,1,.69.7l-0.18.32m10.52-34.27c0.15,0.72.32,1.45,0.43,2.18a1,1,0,0,1-.29.44,1.09,1.09,0,0,1-.37-0.41c0-.73,0-1.46,0-2.2h0.25m-24,53.24c0.39,1.39-.55,1.87-1.16,2.54l-0.24-.13,1.4-2.4m10.8,107.55c-1-.38-1.3-1.15-1-2.5l1,2.5m-28.37,5.06c-0.4-.82-0.73-1.4-1-2a1.46,1.46,0,0,1,.2-0.71,1.32,1.32,0,0,1,.51.45c0.12,0.68.16,1.37,0.25,2.27m3.45-142.26c-0.05-1.14.22-1.5,1.3-1.46l-1.05,1.63-0.25-.17m96.14,48.32-1.08-2,0.13-.18a8.08,8.08,0,0,1,1.23,1.11,2.39,2.39,0,0,1-.28,1.07m-69.7,40.9,1.47,2.68a2.69,2.69,0,0,1-1.47-2.68M140.31,2.55l3-.31,0,0.29-3,.39,0-.38M127.27,33l-1.58,2.23L125.36,35,127,32.84,127.27,33M250.59,57.7V54.88H251l-0.14,2.82h-0.22M177.26,175.93c1,0,1,0,1.55,1.37-0.92,0-1.1-.8-1.55-1.37M157.38,34.17l1.38-1.78c0,1.28-.26,1.64-1.38,1.78m-24.6,133-0.3,1.88-0.87-1.28,1.17-.6M158.57,93.4l-3.16-.66,0-.21,3.21,0.56-0.09.31M127.9,11l2.86,0.66c-0.62.38-1.43,0.22-2.86-.66M239.15,50.8l0.23-.08-1.12-3.17-0.26.09,1.16,3.16m-1.37.79-0.71-1.83,0.43-.16,0.66,1.82-0.38.17M108.46,20.15l-2.09-.2c0.93-.63,1.55-0.6,2.09.2M215.6,74.54l-1.45-.49,0.88-.68,0.69,1-0.12.2m-15.5,6a7.13,7.13,0,0,1,.55,1.2,1.89,1.89,0,0,1-.52.68l-0.28-1.69,0.25-.19M101.06,0l-0.68,1a4.61,4.61,0,0,1-2.32-1h3Z"/><path class="cls-3" d="M26.81,38.54a1.65,1.65,0,0,0-.17-1.81,0.41,0.41,0,0,0-.37-0.1,0.45,0.45,0,0,0-.27.3c0.11,0.56.27,1.12,0.42,1.67l0.41-.06M27.67,35a3.09,3.09,0,0,0-.88-2.8A0.73,0.73,0,0,0,26,33c0.39,0.77.51,1.79,1.64,2m0.57-2.83C27.71,31.09,27.19,30,26.62,29A1.33,1.33,0,0,0,26,28.72a1.56,1.56,0,0,0-.19.76,6.24,6.24,0,0,0,2.09,2.84l0.34-.15m1.39-8.61c0.74,0.29,1.3.55,1.88,0.72,2.14,0.63,3.09,2.44,3.65,4.24S35,32,34.32,33.61a25.78,25.78,0,0,1-2.26,3.57A14,14,0,0,1,24.89,43c-0.38.13-.74,0.38-1-0.38a27.31,27.31,0,0,0-1.4-3.55C21.78,37.37,21,35.68,20.2,34A16.92,16.92,0,0,1,19,31.37a37.11,37.11,0,0,1-1.47-5.07c-0.2-1.68-.09-3.13,1.29-4.33,0.82-.71,1.45-1.64,2.27-2.36a1.91,1.91,0,0,1,1.4-.42,6.27,6.27,0,0,1,3.56,2.36c1.44,1.62,1.62,3.48,1.67,5.56l-1.19-.6a16.47,16.47,0,0,0,.75,1.86c0.61,1.08,1.28,2.12,1.94,3.16a0.94,0.94,0,0,0,.42.18,1,1,0,0,0,.15-0.43c-0.07-.31-0.27-0.59-0.33-0.9a1.07,1.07,0,0,1,0-.79c0.92-.74.4-1.76,0.48-2.62a17.35,17.35,0,0,0-.37-3.43m33.7,0.24c-1.19,0-1.85,1.16-2.89,1.52a1.38,1.38,0,0,0-.12.63l0.22,0.13,3-2-0.17-.27m-4.66,2a17.27,17.27,0,0,0,3.51-3.21c-3.23,1.8-4,2.54-3.51,3.21M57,24.83l3.34-3-0.27-.35-2.42,1.73c-0.22.16-.41,0.37-0.64,0.52-0.58.38-.6,0.48,0,1.11m1.84-5.09c-1.7,1.44-3.4,2.87-5.09,4.32-0.39.34-.64,0.72,0.07,1.11a36,36,0,0,0,5.38-5.07l-0.35-.36M53.31,31.19a1.81,1.81,0,0,0,.16-0.62c-0.32-1.89-.69-3.78-1-5.67a1.45,1.45,0,0,1,.22-1.12c1.35-1.27,2.78-2.46,4.15-3.7a4.65,4.65,0,0,0,.61-0.87L57.24,19c-2,1-3.63,2.75-5.73,3.76a2,2,0,0,1,.58-1.11c1.11-1,2.25-2,3.38-3l-0.08-.29a2,2,0,0,0-.92,0c-1,.61-1.92,1.3-2.9,1.93a5,5,0,0,1-.87.36l-0.11-.19,2.83-2.69c-1.73-.77-2.42,1-3.63,1.26l-0.14-.21L52,16.7a1.73,1.73,0,0,0-.7-0.39c-0.87.44-1.69,0.95-2.55,1.44-0.35-.65.46-0.7,0.65-1.08s0.26-.57.38-0.86a3.53,3.53,0,0,0-1.09-.1,5.52,5.52,0,0,0-1.16.55l-0.1-.16,0.87-1.31a5,5,0,0,0-1.1,0,1.22,1.22,0,0,1-1.71-1.12l-3.64-1.54c1.85-1.39,3.38-2.71,3.89-5.07a37.28,37.28,0,0,1,5.69,1.5,17.4,17.4,0,0,1,5.15,3.22,80,80,0,0,1,5.83,6.83c0.68,0.82,1.26,1.72,1.9,2.58a4.8,4.8,0,0,1,.63.74,13.79,13.79,0,0,1,1.64,4.93c0.06,1.12,0,1.41-.9,1.52-2.15.27-4.31,0.48-6.42,0.93a13.39,13.39,0,0,0-5.29,1.86,1.38,1.38,0,0,1-.63,0M10.74,25.6a2.89,2.89,0,0,1-.06.59c-0.39,1.22-.83,2.42-1.16,3.64a2,2,0,0,0,.32.92,1.82,1.82,0,0,0,.72-0.52c0.47-1.3.84-2.64,1.3-3.94a3.39,3.39,0,0,1,.65-0.84l0.23,0.15c-0.18.63-.4,1.25-0.52,1.89-0.22,1.11-.37,2.22-0.56,3.33a0.75,0.75,0,0,1-.18.46c-0.9.58-1.79,1.19-2.74,1.69-1.61.84-3.32,1.5-4.86,2.44-1.31.8-1.34,1.85-.41,2.68,0.46-.35.89-0.71,1.36-1,1.06-.66,2.12-1.33,3.23-1.92,1.62-.87,3.3-1.66,4.92-2.54a11.17,11.17,0,0,0,1.52-1.22,1.4,1.4,0,0,1,0,.37c-0.72,2.17-1.43,4.33-2.18,6.49a1.11,1.11,0,0,1-.54.62c-1.32.51-2.64,1-4,1.44A47,47,0,0,0,0,43.17V28.6l0,0a15.92,15.92,0,0,1,1.27-2.3C2,25.42,3,25.52,3.93,25.78a2.2,2.2,0,0,0-.06.92,0.83,0.83,0,0,0,.68.39,1.56,1.56,0,0,0,.8-0.8,1,1,0,0,1,1.28-.91,3.24,3.24,0,0,1-.06.8c-0.22.63-.51,1.22-0.72,1.85a0.94,0.94,0,0,0,.05.73,0.64,0.64,0,0,0,.62.11,2.79,2.79,0,0,0,.81-1,20.18,20.18,0,0,0,.52-2.28c0.51,0,.67.17,0.47,0.75A23.87,23.87,0,0,0,7.54,29a1.84,1.84,0,0,0,.3.82,1.85,1.85,0,0,0,.87-0.42c0.5-1.16.91-2.37,1.38-3.64l0.65-.12m30.4-12A18.71,18.71,0,0,1,44,15.5,43.43,43.43,0,0,1,47.09,19a4.62,4.62,0,0,1,.78.85c1.13,2.38,2.49,4.69,2.92,7.34a16.48,16.48,0,0,1,0,6.68,17.6,17.6,0,0,0-.63,1.79,2.34,2.34,0,0,1-1.72,2,1.92,1.92,0,0,1-2.19-1.2,10.08,10.08,0,0,0-3.4-4.8c-1.74-1.42-3.58-2.72-5.44-4-1.31-.88-1.84-1.87-1.3-3a17.63,17.63,0,0,1,1-1.83c0.92-1.47,1-1.52,2.52-.88,1.76,0.72,3.5,1.51,4.41,3.36,0.27,0.55.51,1.11,0.77,1.66,0.37,0.78.85,0,1.28,0.08a4.92,4.92,0,0,0,0-.82,4.28,4.28,0,0,0-.26-0.7c0.45-.22.27-0.78-0.1-1.25-0.68-.84-1.43-1.62-2.2-2.47L44,20.23a1,1,0,0,0-1.29.65c-0.38.56-.72,0.47-1,0.15,0.33-.54.6-0.95,0.83-1.37s0.43-.82-0.09-1a1.15,1.15,0,0,0-.91.44,11.61,11.61,0,0,0-.92,1.62,1.73,1.73,0,0,1-.08-0.56c0.33-.8.69-1.59,1-2.39a0.64,0.64,0,0,0-.55-1l-1.62,3-0.08,0,1.74-6.05M9.2,20.36a2.71,2.71,0,0,0-2.28-1.06,2,2,0,0,0-.81.63,5.91,5.91,0,0,0,.76.4,4.68,4.68,0,0,0,1.25.34,3.79,3.79,0,0,0,1.08-.3m9.32-7.07,0.4-.31A10.45,10.45,0,0,0,18,11.26c-0.63-.81-1.39-1.53-2.08-2.3a9.26,9.26,0,0,1-.6-0.88,2.18,2.18,0,0,1,.62.2c1.15,1.14,2.32,2.26,3.41,3.46a1.32,1.32,0,0,1,0,1c-0.23.61-.57,1.19-0.91,1.87-0.28-.11-0.59-0.26-0.92-0.36a7,7,0,0,0-2-.55,26.93,26.93,0,0,0-4.6.36,5,5,0,0,0-3.32,1.64,22.21,22.21,0,0,0-1.23,2.06c1.25,0.57,2.42,1.12,3.61,1.64a0.79,0.79,0,0,0,.5,0,1,1,0,0,0,0-.72,16.48,16.48,0,0,0-1.5-1.08l-0.72-.5,0.1-.22a4.11,4.11,0,0,1,.9.17c0.93,0.4,1.84.86,2.77,1.26a4.58,4.58,0,0,0,1,.19l0.2-.41-2.71-2.21a2.94,2.94,0,0,1,.85.15c1.39,0.73,2.76,1.51,4.14,2.25a2.32,2.32,0,0,0,.69.13,2.71,2.71,0,0,0,0-.71,1.05,1.05,0,0,0-.37-0.43c-0.65-.52-1.31-1-2-1.53a0.52,0.52,0,0,1,.45.06c1.35,1,2.72,1.91,4,2.94a1.21,1.21,0,0,1-.15,1.07,11.07,11.07,0,0,1-1.69,1.55,25.1,25.1,0,0,1-2.76,2A6.86,6.86,0,0,1,9.39,24c-2-.18-4,0.11-6,0.08a6.25,6.25,0,0,1-1.78-.59c0-.76,0-1.48,0-2.2C1.75,19.62,1.84,18,2,16.34a6.52,6.52,0,0,1,.56-2.45,38.69,38.69,0,0,1,2.55-3.74,2.9,2.9,0,0,1,.71-0.52l0,0.33,2.1,0.72c0.62-1.44-1.16-.92-1.18-1.74,0.77-.56.76-0.54,1.48,0,0.93,0.67,1.88,1.31,2.82,2l0.24-.23C11.32,9.22,9.68,9,9,7.73A3.46,3.46,0,0,1,10,8c0.56,0.44,1.08.92,1.6,1.4,1,0.93,2,1.87,3,2.78a1.53,1.53,0,0,0,.69.14,1.68,1.68,0,0,0-.11-0.76,22.44,22.44,0,0,0-1.78-2C12.72,9,12,8.47,11.36,7.9l0.32-.43a5.12,5.12,0,0,1,1.61.68C14.7,9.48,16,10.92,17.38,12.3c0.35,0.36.76,0.66,1.15,1M43.44,40.38a2.3,2.3,0,0,1,0,.43,23,23,0,0,1-3.21,8.39c-1.46,2.23-3.62,3.72-5.62,5.36a38.1,38.1,0,0,1-4.33,2.77,1.78,1.78,0,0,1-1.05.32A1.15,1.15,0,0,1,28.48,57c-0.38-1.06-.68-2.15-1-3.23-0.19-.65-0.84-1.29,0-2a1.38,1.38,0,0,0,.22-0.74A32.07,32.07,0,0,0,28.65,44a2.59,2.59,0,0,1,.24-0.78c0.55,2.58-.53,5.17.54,7.69A3.31,3.31,0,0,0,30,49.45c0.13-1.68.17-3.37,0.29-5.06,0-.75-0.26-1.56.23-2.24l0.37,0,0.64,4.25A1.12,1.12,0,0,0,32,45.63,16.45,16.45,0,0,0,32,41.79c-0.23-1.07.3-1.41,0.91-1.92l0.56,2.48,0.49-.06V38h0.37a12.76,12.76,0,0,0,.13,1.82A11.15,11.15,0,0,0,35,41.41l0.27-.08a1.16,1.16,0,0,0,.13-0.39c-0.09-1.17-.23-2.34-0.29-3.51a6.81,6.81,0,0,1,.21-1.31c0.93,1.2,1.56,2.19,1.37,3.57-0.28,2-.45,4-0.62,6a8.2,8.2,0,0,0,.19,1.65,0.82,0.82,0,0,0,.58-0.41c0.43-1.35.84-2.7,1.25-4a3.84,3.84,0,0,1,.54-1.6,16.62,16.62,0,0,0,3-4c0.36-.63.8-1.22,1.2-1.82l0.31,0.15a5.66,5.66,0,0,1-.44,1.22c-0.83,1.3-1.74,2.55-2.57,3.86a3.73,3.73,0,0,0-.28,1.13l0.33,0.09,3.06-4.21,0.32,0.15-1.7,4.32,0.25,0.09,1.25-1.9M39.4,0a3.77,3.77,0,0,1,.1,3,5.42,5.42,0,0,0-.35,3.24,24.8,24.8,0,0,1,0,3.41V11l0.29,0.07a2,2,0,0,0,.23-0.62c0-1.07,0-2.15,0-3.22A2.77,2.77,0,0,1,40,6.41a2.8,2.8,0,0,1,.39.68c0.24,1,.43,2,0.64,3,1.07-.46,1.11-0.6.79-1.73a4.67,4.67,0,0,1-.07-1l0.32-.06L43,8.58a33.59,33.59,0,0,0,1.17-4.35A22.1,22.1,0,0,0,44.26,0H39.4ZM36.89,0c0.27,0.8.39,1.61,0.66,2.35l0.4-.08L38.11,0H36.89ZM30.67,5.57l0.85-1.72A1.44,1.44,0,0,1,32,5.92a0.82,0.82,0,0,0,.63,1.36l0.35-4.75,0.32-.06a3.57,3.57,0,0,1,.4.81c0.2,0.94.34,1.88,0.5,2.83,0,0.25.05,0.51,0.08,0.76a1.26,1.26,0,0,0,.65-0.09,1.27,1.27,0,0,0,.32-0.84c-0.09-.72-0.35-1.41-0.45-2.13A15.91,15.91,0,0,1,34.65.4C35.78,1.57,36,3.08,36.33,4.53H36.6a4.36,4.36,0,0,0,0-1C36.31,2.36,36,1.19,35.69,0H30.58C30.23,1.21,30,2.46,29.71,3.68a1.67,1.67,0,0,0,1,1.9M21.49,17.2l5-5-0.23-.28c-1.66.21-2.81,1.37-4,2.42a21.83,21.83,0,0,0,3.54-4.79l-0.2-.23-2.18,1.55c0.45-1.06.6-2.27,1.85-2.8a6.94,6.94,0,0,0,2.08-1.38,1.08,1.08,0,0,1,1.67,0,6.38,6.38,0,0,1,.76.76,5.14,5.14,0,0,0,3.82,1.7,2.11,2.11,0,0,1,1.29.85,6.56,6.56,0,0,1,.76,1.65,9.63,9.63,0,0,1,.74,4.22c-0.1,1.51,0,3,0,4.29-0.45.51-.76,0.83-1,1.18-0.48.62-.9,1.28-1.41,1.87a1.86,1.86,0,0,1-.89.06C33.83,22,34.51,21,35.17,19.93a1.44,1.44,0,0,0,.06-0.6,1.53,1.53,0,0,0-.57.26c-0.72.89-1.38,1.82-2.11,2.69a2.51,2.51,0,0,1-.76.43l-0.17-.22c0.2-.45.42-0.89,0.6-1.34a5.12,5.12,0,0,0,.18-0.72,4.8,4.8,0,0,0-.77.22,0.84,0.84,0,0,0-.38.37,1.33,1.33,0,0,1-2.16.56,4.9,4.9,0,0,0-.87-0.31l0.57-1.72-0.26-.09-1,1.1a1.05,1.05,0,0,1-.13-1.66,8.86,8.86,0,0,0,.82-1.42,1.54,1.54,0,0,0,0-.67,1.74,1.74,0,0,0-.61.38c-0.4.66-.75,1.36-1.12,2-0.63-.26-0.69-0.47-0.35-1s0.74-1.24,1.11-1.87L27,16.11a8.38,8.38,0,0,0-1,.69c-0.32.3-.53,0.72-0.87,1a0.91,0.91,0,0,1-1.37-.12l3.64-4.75-0.22-.21a0.88,0.88,0,0,0-.36.12,24.9,24.9,0,0,0-3.31,3.56,1.64,1.64,0,0,1-2,.82M56.17,32.06a12.53,12.53,0,0,0-2.73,1.59,2.85,2.85,0,0,0-.51,2.06c0.1,1,.56,2.06.72,3.1s-0.07,1.33-1.34,1a19.2,19.2,0,0,1-2.95,6.8c-0.32-1.56.71-2.79,1-4.2a39.22,39.22,0,0,1,1.3-4.08l-0.38-.17a2,2,0,0,0-.44.67,37.9,37.9,0,0,1-3,9.44c-0.17.4-.41,0.76-0.72,1.33,1.86,0.87,3.65,1.79,5.52,2.52,1,0.39,1.71-.52,2-1.88a7.84,7.84,0,0,1,1.3-3.69,2.62,2.62,0,0,0-.1-0.7C56,43.9,56.22,42,56.31,40s0-4,0-6c0-.62-0.11-1.25-0.18-2M41.8,77c-0.76-1.45-.76-1.45-0.1-2.75,0.1-.21.25-0.4,0.36-0.6,0.55-1,1.12-2,1.63-3.06a2.36,2.36,0,0,0,0-.94l-0.4-.11-2.82,4a6.6,6.6,0,0,1,.12-1.92c0.65-1.55,1.43-3,2.12-4.57a11.46,11.46,0,0,0,.46-1.62c-1.27-.16-1.23,1.17-2,1.51l2.51-5.7L43.43,61c-1.67.81-1.78,2.83-3,4a17.78,17.78,0,0,1,.71-2.41c0.6-1.64,1.23-3.27,1.81-4.91a4.07,4.07,0,0,0,.09-1.05l-0.42-.11-2.5,4.73-0.24-.1c0.33-.82.66-1.65,1-2.46,0.62-1.5,1.28-3,1.85-4.51a5.7,5.7,0,0,0,.13-1.52A6.23,6.23,0,0,0,41.61,54c-0.67,1.17-1.21,2.42-1.82,3.67-0.4-1.05-.78-2-1.14-3.05a0.71,0.71,0,0,1,.06-0.6c1.14-1.25,2.3-2.47,3.44-3.68a5.53,5.53,0,0,1,2.12,3.27c0.39,1.69,1,3.33,1.37,5,0.3,1.54.33,3.13,0.5,4.69,0.06,0.57.25,1.13,0.29,1.69,0.07,1.25,0,2.51.14,3.76,0.08,1.08.44,2.18-.83,2.88a2.88,2.88,0,0,0-.84.9c-1,1.47-2,3-3.11,4.51M49.1,0h4.58a32.34,32.34,0,0,1-2.53,5.15A1.26,1.26,0,0,1,49.81,6c-1-.16-2-0.24-3-0.39a0.56,0.56,0,0,1-.39-0.37c0.07-.94.19-1.88,0.31-2.81A1.14,1.14,0,0,1,47,1.73,11.94,11.94,0,0,0,49.1,0M3.5,0a21.91,21.91,0,0,1,6,2.56,7.89,7.89,0,0,1-.36-1.28C9.11,0.86,9.07.43,9,0H3.5ZM15.42,1.42h5.91c-0.78-1.24-4.45-1.16-5.91,0M21.21,10c-0.53-.49-1-1-1.54-1.45A7.29,7.29,0,0,0,15,6.42c-1.49-.1-2.08-1.13-2.63-2.15A25,25,0,0,1,11.15.87L15.89,0h5C22.67,2,23,4.48,22.68,7c-0.12,1.1-.23,2.39-1.47,3M23.12,0a10.15,10.15,0,0,1,1.54,6.83,5.1,5.1,0,0,0,2.27-2.61A7.37,7.37,0,0,0,27.31,0H23.12Zm40,6.76h0a1.38,1.38,0,0,1,.19-0.34c0.5-.48,1-1,1.54-1.42a0.57,0.57,0,0,1,.51.17,0.57,0.57,0,0,1-.06.53c-0.43.49-.9,0.95-1.38,1.39a0.53,0.53,0,0,1-.46.14,1.4,1.4,0,0,1-.33-0.48m-4,1.17h0c-0.46-1.58,1-3.59,2.59-4.06a1.76,1.76,0,0,1,.66.08,1.48,1.48,0,0,1-.14.66c-1,1.12-2.07,2.21-3.11,3.31M58.72,2.75c-0.69.84-1.37,1.69-2.07,2.52S55.24,6.92,54.4,7.88a2.11,2.11,0,0,0,.94.42,1.29,1.29,0,0,0,.79-0.72A10.5,10.5,0,0,1,59.54,3a2.19,2.19,0,0,1,1.13,0,2.06,2.06,0,0,1-.2.82c-1,1.23-2.08,2.43-3.13,3.65-0.39.46-.78,0.93-1.27,1.53,0.74,0.6,1.51,1.16,2.21,1.8a22.85,22.85,0,0,1,2,2.13,0.78,0.78,0,0,0,1.37.11,15.93,15.93,0,0,0,4.19-5.78c0.2-.51.4-1,0.62-1.54a0.65,0.65,0,0,0-.5-1,2.41,2.41,0,0,0-1.52,0,16,16,0,0,0-2.07,1.79c-0.52-.7.3-2,1.53-2.45a0.94,0.94,0,0,0-.22-0.33,35.87,35.87,0,0,0-3.6-1.88,19,19,0,0,0-3.59-1c-0.77-.15-1.1.43-1.26,1.24a6.55,6.55,0,0,1-.91,1.74,1.89,1.89,0,0,0-.44.74A2.84,2.84,0,0,1,52.72,6.9l0.64,0.68a24.51,24.51,0,0,1,1.75-2.46,31.15,31.15,0,0,1,2.67-2.48,1.73,1.73,0,0,1,.74-0.16l0.19,0.27m-43.64,37a13.53,13.53,0,0,0-.37,1.94,15.81,15.81,0,0,0,.83,5.7c0.48,1.44.38,1.66-1,2.33a16.44,16.44,0,0,1-2.55,1.08c-1.18.33-2.4,0.5-3.7,0.76,0-1.43,0-2.59,0-3.75,0-1.54-.11-3.07-0.17-4.6a1.22,1.22,0,0,1,1-1.43c0.92-.24,1.81-0.64,2.72-1a5,5,0,0,1,.71-0.14c0.16,2.16.16,2.16,0.85,2.73A6,6,0,0,0,14,40.06l1.08-.3M11.32,6C7.56,5.84,5,7.87,2.42,9.87,1.47,9,1.47,9,1.23,7.29L0.37,8,0,7.75V3c0.85-.38,1.69-0.74,2.53-1.1A5.52,5.52,0,0,1,4.2,1.81c0,0.07,0,.14,0,0.2L0.36,4.39,0.48,4.65A2.08,2.08,0,0,0,1.1,4.58C2,4.18,2.83,3.76,3.69,3.35c1.34-.65,2.67-1.2,4,0.2C6.21,4.19,4.44,4.05,3,5.46a3.51,3.51,0,0,0,.95.1c1.38-.34,2.75-0.75,4.14-1a2.13,2.13,0,0,1,1.28.24A20.14,20.14,0,0,1,11.32,6M33.82,69.3a1.81,1.81,0,0,1-.33-0.85,31.26,31.26,0,0,1,3.17-8.33c0.63-1.25,1.2-2.38.32-3.43-1.2,2.65-2.48,5.26-3.55,7.95s-1.81,5.22-2.71,7.83c-0.08.24-.23,0.47-0.31,0.71a0.84,0.84,0,0,0-.1.55c0.5,0.68,1,1.32,1.55,2l1.95-6.38h0a18.2,18.2,0,0,1,.58-2.27c0.72-1.83,1.49-3.64,2.28-5.45a15,15,0,0,1,.88-1.53,42.7,42.7,0,0,1,.17,4.47c0,3.27-.14,6.53.68,9.77a23.8,23.8,0,0,0,4.36,9.23c0.54,0.68,1,1.39,1.56,2.08l-0.16.16c-0.7-.39-1.44-0.74-2.11-1.19A46.41,46.41,0,0,1,38,81.74c-0.63-.53-1.63-0.91-1.52-2.09s0.15-2.47.18-3.71a2.5,2.5,0,0,0-.22-0.74H36.17a7.65,7.65,0,0,0-1,3.76,0.71,0.71,0,0,1-.1-0.4c0.26-2,.53-4,0.78-6a4.61,4.61,0,0,0-.07-0.92H35.46c-1.06,1.93-1.2,4.12-1.58,6.48a2.41,2.41,0,0,1-.58-0.84,9,9,0,0,1,.17-2.4c0.64-2,1.09-4.15,1.58-6.24a1.89,1.89,0,0,0-.22-0.79l-0.25.05ZM29.4,72.06c-0.77-.53-0.69-1.33-0.26-2.2a10.13,10.13,0,0,0,.39-1.15c1.08-3,2.26-6,3.2-9.12,0.58-1.89,2-2.78,3.64-3.78-1.35,2.82-2.7,5.43-3.85,8.12s-2.12,5.5-3.12,8.12M47.22,78.6l2.59,9.28a1.46,1.46,0,0,1-.37-0.18,24.93,24.93,0,0,1-4.68-5.13,1,1,0,0,1,.07-0.9c0.75-1,1.57-2,2.39-3.07m-4.47.71a0.86,0.86,0,0,1-.36-1.48c1.18-1.56,2.37-3.1,3.56-4.65,0.25-.32.52-0.63,0.78-0.95L47,72.37a6.8,6.8,0,0,1-.56,2.38c-1.12,1.59-2.45,3-3.72,4.57M45,48.38c-1.26,0-1.58-.45-1-1.46a31.26,31.26,0,0,0,3.39-7.05,1.69,1.69,0,0,1,.7-0.5l0.21,0.21L45,48.38M11.16,0l0.12,0H11.15V0Zm16.7,69.41L31.43,59,31.3,58.9a3.36,3.36,0,0,0-.51.6c-0.59,1.19-1.21,2.37-1.71,3.59s-0.9,2.52-1.34,3.79a0.92,0.92,0,0,1-.12.32c-0.83.89-.24,1.57,0.24,2.24m1.45-9.88a0.76,0.76,0,0,0-1.11.55,29.38,29.38,0,0,1-2.1,4.21c-0.51.83,0,1.45,0.08,2.16h0.46c0.92-2.24,1.81-4.48,2.71-6.73a0.47,0.47,0,0,0,0-.19M27.73,44a1.55,1.55,0,0,0-1.42,1.37c-0.23.95-.59,1.86-0.83,2.8a1.85,1.85,0,0,0,.07,1c0.2,0.57.5,1.1,0.86,1.89L27.73,44m21.84-5.07L49.91,39a3.12,3.12,0,0,1-.11.66c-1.15,3-2.3,6-3.48,8.95a1.46,1.46,0,0,1-.58.4l-0.14-.21,4-9.9M25.2,63l-0.28-.19c-0.58-2.12.9-3.5,1.8-5.14a1.3,1.3,0,0,1,.3,1.65c-0.51,1-1,2.06-1.46,3.08-0.1.21-.24,0.4-0.36,0.6M16.66,47.2L17.18,39c-1.11.1-1.84,0.91-1.17,1.89,0.91,1.32-.05,2.5.25,3.72a16.87,16.87,0,0,1,.25,2.65Zm-3.15-8.78a20.31,20.31,0,0,0,.92-1.88q1.07-2.84,2-5.73a3.67,3.67,0,0,0,0-1.12l-0.27,0-3,8.62,0.33,0.15M1.46,1A2.12,2.12,0,0,0,0,1V1.83A13.74,13.74,0,0,0,1.46,1m40.67,32.4a30,30,0,0,1-2.3,3.47,3.07,3.07,0,0,0-1,2.82l2.28-3.43c0.4-.6.83-1.19,1.18-1.83a3,3,0,0,0,.16-1l-0.37-.06M18.2,47.47l-0.18,0c0.08-1.32.19-2.63,0.24-3.95A6.35,6.35,0,0,1,20,39.27c-0.38,1.54-.74,2.88-1,4.23s-0.49,2.64-.74,4m28.73,28.7c-1.17,1.28-2.36,2.55-3.49,3.86a1.6,1.6,0,0,0,.08.84,2,2,0,0,0,.58-0.31c1-1.07,2-2.15,2.89-3.27a2.6,2.6,0,0,0,.25-1.05l-0.3-.07M1.14,11.35L0.3,10.83,0,12.18v3ZM15.2,37.6l2.08-5.67,0.45,0.16c-0.23.69-.44,1.39-0.68,2.08a15.43,15.43,0,0,0-.72,2.23,1.15,1.15,0,0,1-1.13,1.2m5.74,2.8-1.18,6c0.95-.2.82-1,1-1.65a28.77,28.77,0,0,0,.54-3,9.53,9.53,0,0,0,0-1.34H20.94m20.18-8.52c-0.77,1.09-1.48,2-2.09,3a3.77,3.77,0,0,0-.25,1.27l0.29,0.1c0.72-1.14,1.45-2.26,2.12-3.42a2.12,2.12,0,0,0-.07-1m-16.74,27c0.28-1.38,1.93-2.2,1.52-3.85-0.87.39-1.86,2.76-1.52,3.85m14.3-40.59L40,13.48l-0.24-.07c-1.1,1.42-.83,3.26-1.12,4.93M38.28,6c-1.1,1.43-.28,3-0.61,4.54l0.35,0q0.13-2.29.26-4.57m0.31,27.48c-0.38-1.15.47-1.72,0.73-2.49a1.11,1.11,0,0,1,.5-0.28,1.29,1.29,0,0,1,.15.66c-0.39.68-.85,1.33-1.38,2.11m-25.3-3.89a8.82,8.82,0,0,0,.66-1.54c0.22-.94.32-1.91,0.45-2.87l-0.23,0-1,4.38ZM16.6,15.87l2.77,2.31c0.14-.8-1.27-2-2.77-2.31m0.64,20.9c1-.38,1.3-1.15,1-2.5l-1,2.5M45.6,41.83c0.41-.82.73-1.4,1-2a1.45,1.45,0,0,0-.2-0.71,1.34,1.34,0,0,0-.51.45c-0.12.68-.16,1.37-0.25,2.27m-8.06-12.3,0.3,1.88,0.87-1.28-1.17-.6"/></g></svg>