<svg id="Layer_1" data-name="Layer 1" xmlns="http://www.w3.org/2000/svg" xmlns:xlink="http://www.w3.org/1999/xlink" viewBox="0 0 324 215.01"><defs><style>.cls-1{fill:none;}.cls-2{clip-path:url(#clip-path);}.cls-3{fill:#092432;}</style><clipPath id="clip-path"><rect class="cls-1" width="324" height="215.01"/></clipPath></defs><title>peacock-left</title><g class="cls-2"><path class="cls-3" d="M219.3,56.35l-0.08-.3-4,1.34,0.13,0.36,3.91-1.4m-151,56h0c1.66,0.45,3,.83,4.42,1.19a2.26,2.26,0,0,0,.41-0.52c-1.66,0-2.83-1.54-4.84-.67m7.6-1.91a2.89,2.89,0,0,0-1-.88,4.37,4.37,0,0,0-2.13.06,38.89,38.89,0,0,0-4.31,1.62,2.8,2.8,0,0,0-1.07,1.09,1.61,1.61,0,0,0,.29,2.06c0.79,0.87,1.57,1.82,3,1.52,2.62-.55,3.91-2.54,5.1-4.62a4.08,4.08,0,0,0,.2-0.85M99.41,88h0l0.15-.4-2.85-.53-0.07.33L99.41,88m-3.34,4.19c1.94-.24,4.5-2.8,4.4-4.56a1.63,1.63,0,0,0-.65-1.08C97.87,85.2,96,85.76,94.26,88a2.31,2.31,0,0,0-.09,2.83,6.44,6.44,0,0,0,1.89,1.37M5.29,160.74h0l0.08,0.32,5.19-.7,0-.3-5.23.68m4.94,0.57h0l-4.43.56a4.2,4.2,0,0,0,4.43-.56M9.35,156.9c-2.14-.12-3.45,1-4.67,2.52a1.88,1.88,0,0,0-.1,2.56,4.13,4.13,0,0,0,1.11,1.13c1.26,0.79,2.53,1.91,4.16,1,2.2-1.18,3.6-3.17,5-5.16a0.85,0.85,0,0,0-.7-1.38c-1.59-.22-3.17-0.47-4.75-0.72M145.78,86.08c-1.35-.65-3.6-0.08-3.87.92l3.87-.92M30.6,118.94h0l-0.2.44,2.59,1,0.13-.3-2.51-1.1m1.56-.46h0l-0.06.29,3.2,1.1,0.09-.27c-1.08-.37-2-1.32-3.24-1.12m-2.21,1.71h0c0.35,1.32,1.37,1.68,3.76,1.25l-3.76-1.25m2.23,3.44c0.44-.24,1.14-0.6,1.82-1a26.52,26.52,0,0,1,3.53-2c0.81-.32.36-1.19,1-1.42a5,5,0,0,0-.85-1c-2.13-1.42-4.45-1-6.74-.56-1.65.33-2.37,1.25-2.18,2.65,0.21,1.63,1.81,3.37,3.41,3.35M247.79,164h0c-1.2-1-2.12-1.13-3.1-.46l3.1,0.45m0.22,2.19,0.19-.16a1.52,1.52,0,0,0-.44-0.65c-0.72-.22-1.46-0.35-2.2-0.51l-0.08.42,2.52,0.9M167.14,76.81l-0.08-.54c-1.48.12-3,.22-4.44,0.37a0.53,0.53,0,0,0-.17.45,0.52,0.52,0,0,0,.37.32c1.44-.18,2.87-0.39,4.31-0.59m0.37,12.51-0.14-.5-3,.74,0.16,0.56,3-.79m-3.63,2.32,0,0a16.61,16.61,0,0,0,1.7-.4c1.07-.37,2.13-0.79,3.19-1.19l-0.15-.43c-1.42.41-2.85,0.8-4.25,1.26a1.74,1.74,0,0,0-.46.79M57.85,132h0l7.2-1.35L65,130.38c-2.42.36-4.93,0.25-7.14,1.63m6.7,0.37h0c-3,.88-6.31,1.21-8.93,3.18l0.14,0.37,8.79-3.55m-9.28,1.92h0l9.51-2.91a80.42,80.42,0,0,0-8.36,1.72,4.07,4.07,0,0,0-1.15,1.19m-1.2.35a4.66,4.66,0,0,0,2.83,3.48c1.92,1,3.53-.17,4.85-1.25a67.42,67.42,0,0,0,5.13-5.13c0.47-.48.17-2.08-0.46-2.17a16.91,16.91,0,0,0-4.51-.34,10.93,10.93,0,0,0-6.21,2.9,12.16,12.16,0,0,0-1.63,2.51m68.67-19.38-0.2-.39-2.07,1,0.25,0.47,2-1.09m13.87-8.65h0l0.28,0.51,3.23-2-0.14-.25-3.36,1.74m2.26,0.25h0l0.17,0.25a3.66,3.66,0,0,0,2.84-2.25l-3,2m-5.27-3.18h0l6.39-3.3c-2.06.1-6.29,2.14-6.39,3.3m11.75-3.15h0c-3.4,1.72-6.95,3.16-10.09,5.41a0.86,0.86,0,0,0,.79.07c1.76-1,3.51-2,5.26-3,0.79-.45,1.59-1.28,2.37-1.26a1.63,1.63,0,0,0,1.67-1.27m-11.12,3.81h0l0.18,0.48a3.11,3.11,0,0,0,.69-0.16c3.69-1.79,7.38-3.59,11-5.41a7,7,0,0,0,1.19-1l-0.28-.41-12.82,6.46m-1-4.44h0l11-3.25-0.07-.32a1.73,1.73,0,0,0-.42,0c-2.92.73-5.82,1.49-8.74,2.2a2.35,2.35,0,0,0-1.8,1.38l-0.44,2,8.07-3.15c-2.07.48-4.08,1.14-6.09,1.78-0.71.23-1.39,0.37-1.54-.67m9.84-5L143,94.56a80.45,80.45,0,0,0-8.14,2.51,4.63,4.63,0,0,0-2.21,6.9c0.34,0.55.69,1.09,1,1.66,1.75,3.41,6.67,3.45,8.77.72s4.11-5.13,6.15-7.7a1.42,1.42,0,0,0-.21-2.13,8.32,8.32,0,0,0-5.25-1.62M23.56,113.32c0.73,0.68,3.94.87,5,.29a7.67,7.67,0,0,0-5-.29M0,116.53v1a17.51,17.51,0,0,0,2.27-.15c2.17-.31,4.31-0.81,6.46-1.26s4-.87,6-1.35a3.48,3.48,0,0,0,.93-0.59c-2.51.23-4.83,0.72-7.17,1.1-2.83.46-5.66,0.86-8.5,1.27m17.57,22.75h0l0.1,0.26,4.09-1.4-0.14-.37Zm4.5-3.85h0L22,135l-4.77,1.75L17.26,137l4.81-1.54m-4.93,2.63h0l0.13,0.29,5.07-1.91-0.11-.28-5.09,1.9m2.67,2.2h0l-0.14-.4-5.46,1.78,0.17,0.49,5.42-1.87m-0.89-6.56h0c-1.17-.54-8.16,1.79-8.38,2.81l8.38-2.81m1.78,0.83h0c-1.29-.51-9.72,2.62-10.09,3.54l10.09-3.54M9.19,137c0,0.17.06,0.54,0.15,0.91,0.49,2,1.9,3.32,3.39,4.57a4.71,4.71,0,0,0,5.14.33c0.93-.59,1.78-1.3,2.71-1.9a8.13,8.13,0,0,0,3.06-4.26,1.89,1.89,0,0,0-.93-2.44,11.61,11.61,0,0,0-9.63-1.56c-2.32.56-3.85,2.19-3.88,4.36m88.18-30.57h0l-0.07.36c1.8,1,3.67.62,5.55,0.09l-5.48-.45m0.9-1.05h0l0,0.47,6.51,0.42,0-.39c-2.18-.06-4.29-0.89-6.51-0.49m8.37-.59h0l-6.77-.67,0,0.28,6.55,1.17,0.25-.78M105,107.68h0c-2.17.2-4.35,0.43-6.52,0.56a7.73,7.73,0,0,1-1.9-.42,2.14,2.14,0,0,0,.6.66c2.71,1,5.26,0,7.83-.8m-0.83,1.63h0l-0.09-.4c-2.32.32-4.61,1.35-7.29,0.17l1.14,1.9,6.24-1.67m4.49-5.83,0.2-.41a3.29,3.29,0,0,0-1.1-.47c-1.83,0-3.67,0-5.51,0-2.91.05-4.73,1.85-6.33,3.94a1.94,1.94,0,0,0-.27.84c-0.35,2,.64,3.5,2,4.78a3.69,3.69,0,0,0,5.08.19c2.33-1.68,3.46-4.16,4.61-6.61a13.54,13.54,0,0,0,.61-2.2l0.69-.08M93.39,134.09l0.24,0.37c0.81,0,1.11-.76,1.55-1.29l-0.23-.3-1.57,1.22M90.73,137l-0.08-.31-2.19.84,0.14,0.37a3,3,0,0,0,2.13-.9M38.24,149.7L38.31,150c1.84,0.28,2.81,0,2.9-1l-3,.72m-1.79,1.79,0.11,0.44c1.14-.24,2.29-0.48,3.42-0.75a0.56,0.56,0,0,0,.2-0.45,0.44,0.44,0,0,0-.29-0.29c-1.15.33-2.3,0.69-3.45,1m-1.4,2.91,0.05,0.44c1.34-.21,2.69-0.4,4-0.65a1.83,1.83,0,0,0,.64-0.58l-0.23-.22-4.49,1m-3.11-.72c1.19,0.8,6.72-.67,7.6-2l-7.6,2M105,78.58l-0.15-.42-4.19,1.5L100.79,80l4.2-1.44M248.34,45.92l0,0-3.85-1.42-0.14.47,4,0.92m3,9.93-0.34.09,0.84,2.71,0.5-.16-1-2.64M233.12,81.78l0.15,0.38L237,80.5l-0.14-.3-3.78,1.59M248.79,80l0.27,0.18,2.26-3.89-0.26-.15L248.79,80M247.93,55l-0.26.21,2.23,3.44,0.27-.18L247.93,55M228.76,83.52c1.21,1.25,2.07,1.42,3.07.77l-3.07-.77m22.37-11.14-0.26-.32-2.06,1.66L249.05,74c1.11,0,1.58-.85,2.08-1.63M221.75,84.7l-0.16.39,4.5,1.72,0.12-.29-4.46-1.82M226,60.43l0.27,0.27,4.24-3.57-0.23-.25L226,60.43m26.94-3a1,1,0,0,0,.24-0.53c-0.65-1.31-1.35-2.59-2-3.87l-0.23.12,2,4.29m-25.51-.13,0.3,0.27,3.12-3.46-0.33-.29-3.09,3.48m3.66,38.46-6,2.43,0.12,0.28c1.2-.5,2.4-1,3.61-1.5a9.19,9.19,0,0,1,1.06-.29l1.16-.93M214.92,69.9l0,0.48,4.16,0.3,0-.45-4.16-.33M237.1,73.5c2.16,0.66,3.76-.25,5.41-0.83l-5.41.83M224.24,91.43l-3.65-1.75c0.26,1.16,2.19,2.08,3.65,1.75M237.5,72.8l0.1,0.29L244.11,71,244,70.56,237.5,72.8M240.32,63l0.21,0.48,4.53-2L244.84,61l-4.52,2M215.68,94.42l0,0,3.62,0.2c0-.08,0-0.17,0-0.26l-4.75-1.22,1.17,1.31m29.08-19-7.14.54a10.89,10.89,0,0,0,7.14-.54M232.44,90.31l0.08-.49a3,3,0,0,0-.93-0.2,3.8,3.8,0,0,0-.68.41c-1.4.52-2.81,1-4.22,1.51l0.09,0.32,5.66-1.55M235.63,80l-0.12-.27-5.76,2c2.27,0.34,4-.88,5.88-1.77m-17.38-6.82,0.11-.43-6.1-1.63-0.15.54,6.14,1.53M230.48,85c-0.92-.23-1.85-0.41-2.75-0.71s-1.74-.7-2.6-1.06l-0.13.36c1.69,1,3.36,2,5.48,1.41m18.13-16.31,0,0.2-3.5-.27a16.87,16.87,0,0,0,6.64.57c0-.12,0-0.23,0-0.35l-3.54-.55-0.05.22,0.46,0.18M235.93,70l7.49-1.61A12.3,12.3,0,0,0,235.93,70m12.61-7.6c-0.77-.37-3.36.22-5.83,1.27a1.5,1.5,0,0,0-.4.47l0.17,0.23,6.06-2m-1.44,5.27L247.21,68a13.39,13.39,0,0,1,2.42-.83,11,11,0,0,1,2.32.1c-0.76-1-4.1-2.27-5.22-1.78l3.19,0.95-0.08.24-2.75,1m-2.46-3.37,0.07,0.3a23.49,23.49,0,0,0,7.39-2.41L252,61.89l-7.37,2.38m1.07,9.86v-0.3l-8.78.78a19.54,19.54,0,0,0,8.79-.48M237.5,87.64l0,0,2.28-2.61a2,2,0,0,0-1.94,1c-0.43.58-.68,1.43-1.76,1.31-1.43-.15-2.88-0.16-4.32-0.24l0,0.36,5.79,0.18m-18.93-9.09,0,0.32c2.61,1,5.16,2.37,8.34,1.22l-3.39-1.35-0.12.28,1.35,0.9-0.13.34-6-1.71M215.5,91.44l0.09-.28-6.1-6.29c1,2.48,3.26,3.89,4.79,6l-2.14-.72-0.09.3,3.44,1m23.7-42.7c2.93,1.22,5.86,2.45,8.8,3.66a3,3,0,0,1,2.08,2.3,1.68,1.68,0,0,0-1-2.15c-2.81-1.31-5.66-2.57-8.52-3.78a3.49,3.49,0,0,0-1.36,0m2.5,29.82c-2.7,1-5.29,2.8-5.41,3.48,1.84,0,5.52-1.87,5.2-2.71l-0.84.31-0.07-.15,1.11-.93M297.18,95l0.34-.22-1.65-2.38-0.28.18L297.18,95m21.62-6.82,0.3-.12-2-3.26-0.16.09,1.87,3.29m-15.65,5.24,0.29-.16L302,90.68l-0.39.22,1.5,2.5M304,92l-0.26.12,1.86,4,0.32-.15L304,92m-26.68,19.5,0.1-.33-4.2-1.21-0.1.3,4.19,1.23m12.44-39.62-0.23.2L291.83,75l0.33-.27-2.38-2.87m-32.72,67.43,0,0-3.86-2.18-0.21.42,4.1,1.73m41-43.47-0.32.17,1.48,3,0.44-.22-1.6-3M273.22,73.92h0.22v-5.1h-0.22v5.08Zm11.34,35.36c0-.09,0-0.17,0-0.26h-4.42c0,0.09,0,.17,0,0.26h4.42Zm16.59-16.09,0.36-.33-2.68-2.79-0.26.24,2.58,2.88M285.82,72.25l0.24-.32-4.33-2.32-0.15.26,4.24,2.39m17,4.86-0.26.17,2.93,4.41,0.28-.18-2.94-4.4M277.68,88.74l-0.15.31,4.87,2.27,0.14-.29-4.86-2.29m0.18-3.79,0.18-.31-4.37-2.49-0.16.28,4.36,2.51m33.65,29.64,0.3,0.23,2.84-3.59-0.33-.25-2.81,3.61m-19-23.2-0.33.24,2.54,3.66,0.33-.22-2.54-3.68m6,3.33,1.73,3.77c0.49-.74-0.54-3-1.73-3.77m-12.95-40,4.93,3.44c-1.54-1.62-2.9-3.09-4.93-3.44m-16,9.72,0.49,0.1,1.11-4.31-0.38-.09-1.22,4.3m-24,33.85h-0.23v4.66h0.23V98.24ZM284.28,47.7c0.82,1.81,2.75,1.85,4.29,2.54l-4.29-2.54m-0.89,11.39-4.29-3.3a6.14,6.14,0,0,0,1.25,1.49,0.86,0.86,0,0,1-.09.43l3.13,1.38m-7.13,14.24-0.36,0c0.48,2.57-.14,5.24.74,7.75l-0.38-7.78m1,2.95a5.92,5.92,0,0,0,1.09,4.93l-1.09-4.93m5,18.63-0.09.29,7.36,2.23,0.08-.26-7.36-2.26m6.63,23.59c0.55,0.72,3.17,0,5.26-1.76-1.12.46-1.94,0.84-2.79,1.13s-1.69.44-2.46,0.64m-4.6-41,0,0,5.91,5a0.23,0.23,0,1,0,0,0,19.42,19.42,0,0,0-5.42-4.92,1.08,1.08,0,0,0-.52,0m-9.89,31.21a12.22,12.22,0,0,0,6.64,2.19l-6.64-2.19m33.78-37.62a17.38,17.38,0,0,0-6.12-5.32l6.12,5.32m-10.46,2.45c0.49-.93-1.32-4.38-2.59-4.81l2.59,4.81m-25.81-6.89c-0.82,1.57-1.15,5.33-.55,6.5l0.55-6.5m31.94-1.94-0.29.23,5.29,5.73,0.24-.2-5.24-5.76M289.76,124.1h0l0.63-.28-5.78-3-0.14.24,5.33,3M270.81,102l-6.88-4.37a16.7,16.7,0,0,0,6.88,4.37m25.45-18.89c-0.57-1.5-4.13-5.33-5.34-5.7l5.34,5.7m-24.07,2.41c2.16,1.64,6.07,2.8,6.83,2.45l-6.83-2.45m43.08,20.13,0,0,0.88-2.24-0.2-.09-3.48,5.91,0.25,0.17,2.59-3.78m-60.94,21.13c0.53,1.71,2.63,3.87,3.8,3.88l-3.8-3.88m-11.56-10-0.36.11a4.71,4.71,0,0,0,1.94,4.22l-1.58-4.33m8.31,3.8a6.29,6.29,0,0,0,2.2,4.7l0.35-.2-2.56-4.51m21.54-8.64,8.43,3.33a43,43,0,0,0-4.33-2.17,5.19,5.19,0,0,1-1.07-1c-0.88.72-1.89-.17-3-0.2m-1.12-48.83c-1.58,4.38-1.87,7.64-.75,8.36-0.69-2.89.68-5.55,0.75-8.36m33.1,45.11-5.64,7a20.56,20.56,0,0,0,5.64-7m-7.14,12.2,0.21,0.27c2.28-1.66,5-2.81,6.65-5.22l-6.87,5m-12.93-7.17c1.28,1.29,6.16,1.84,7.53,1.34l-7.53-1.34m14-5-7.58,1.89c2.59,0,5.14-.19,7.58-1.89m-0.42,20c1.18,0.23,4-2.35,4.75-4.3l-4.75,4.3M315.18,99l-2.28,8.42c1.1-1.11,2.44-5.94,2.28-8.42m-16.88,14.93c2.25-2.38,2.73-5.32,4.07-7.85l-0.35-.16-3.73,8m-16.73-1c1.69,2.19,6.88,3.83,8.52,2.88-3.17.3-5.65-1.38-8.52-2.87m3.88-18.49c-1.52-.69-3.08-1.29-4.53-2.1s-2.75-1.82-4.12-2.74l-0.2.33a23.45,23.45,0,0,0,8.85,4.51M301.28,72.6A33.42,33.42,0,0,1,307.14,82a21.21,21.21,0,0,0-5.86-9.43m-34.36,67.85-7.23-3.19c1.19,1.64,6,3.71,7.23,3.19m17,1.5c1.84,0.8,7.54.2,8.34-.64l-8.34.64m-23.83-11.76,0,0c-0.5-.42-1-0.88-1.51-1.26-1.08-.77-2.39-1.26-2.75-2.78a6,6,0,0,0-1-1.61c-0.08.88-.24,2,0.22,2.36a57.58,57.58,0,0,0,5.07,3.27m-3.42,6.65a60.85,60.85,0,0,0,8.9,4.94l0.21-.4-9.1-4.54m33-69.81c2.56,2.09,5.14,3.91,6.83,6.62-0.83-2.6-4.58-6.26-6.83-6.62M297.38,127l0.44,0.42c1.78-2.29,4.65-3.59,5.65-5.79L297.38,127m-1.69-16c-2.72,1.59-5.61,1.39-8.54.94,2.27,1.38,6.71,1.07,8.54-.94m2.43,13.47c1.4-.14,5.77-4.64,6-5.67l-6,5.67m-4.48-6.11-0.14-.21a11.35,11.35,0,0,0-1.05.57c-1.66,1.13-3.1,2.76-5.54,2.15l0,0.36,3.42,1.3,0.13-.33-1.17-.61,4.31-3.21m8.26-46.85c2.75,4,5.67,7.88,7.72,12.27,0.18-1.3-5.78-10.87-7.72-12.27M260,135.26c2.73,2,9,4.08,9.79,3.54L260,135.26m44.54-5.44-0.28-.57-9,4.57,0.18,0.36,9.07-4.36m-43.41-8.3,0.38-.42-6.25-5.72-0.28.3c1.72,2.29,4.1,3.89,6.15,5.84m-17.58-10.15,1.2-10.8c-1.43,3.25-2.09,10.16-1.2,10.8m48.14-34.94c-0.1-1-4.13-4.71-5.74-5,1.92,2,3.39,4,5.74,5m-13.11,53.7,0.25-.36a45.19,45.19,0,0,0-8-4.87l-0.28.44,8,4.79m-33.23-24.87a1,1,0,0,0-.24.21c-1,2.83-.49,5.71-0.21,8.57a0.93,0.93,0,0,0,.4.26,1.15,1.15,0,0,0,.21-0.44c0-.75-0.14-1.49-0.15-2.24,0-2.09,0-4.17,0-6.36m60.84,4.89c-2.84,3.55-6.58,6.13-10.13,8.9,3.6-2.71,8-4.5,10.13-8.9m-55.49.56c-0.68,2.06.37,3.34,1.35,4.54a8.18,8.18,0,0,0,3.66,3c-2-2.23-4.26-4.29-5-7.55m29,5.39c0.92,0.63,1.78,1.29,2.7,1.84s1.81,0.93,2.72,1.39l0.14-.26-2.44-1.34,0.12-.36,4.71,0.61a1.11,1.11,0,0,0-.19-0.34,1.57,1.57,0,0,0-.43-0.12,13.16,13.16,0,0,1-5.82-1.82,1,1,0,0,0-1.51.4m-39.59-7.62h-0.31a17.55,17.55,0,0,0,0,2.52c0.38,2.55.82,5.09,1.28,7.63a3.15,3.15,0,0,0,.58,1l-1.57-11.1m49.69-55.62L295,57.08l-0.14.18-2-.23c4.08,0.94,6.58,4,9.29,6.72-1.37-2.49-10.18-10.2-12.36-10.9m-33.37,80.3,0.33-.19-8.06-10.83-0.27.19a49.77,49.77,0,0,0,8,10.83M310.53,77l0.28-.22,2.83,2.5c-0.3-1.86-1.67-2.56-3.15-3.16a1.31,1.31,0,0,1-.6-0.5c-1.77-3-4.6-5-7-7.35a4.87,4.87,0,0,0-.92-0.57,0.88,0.88,0,0,0,.3.7c1.53,1.36,3.15,2.63,4.56,4.1a15.76,15.76,0,0,1,3,4c0.78,1.67.64,1.88,2,2.35L310.53,77m-66,20c-2.07,1.41-4,12.85-2.47,14.18,0.5-4.81.57-9.65,2.47-14.18m60.67,25.21,0.43,0.2a3.1,3.1,0,0,0,.53-0.69,41.15,41.15,0,0,0,1.61-4.42c0.52-2,.88-4.08,1.21-6.14a2.75,2.75,0,0,0-.41-1.2l-0.83,5.89-0.32,0-1.28-4.4-0.41.08c0.79,3.61,2.2,7.24-.55,10.69m5.51-33.43c1,5.25,2,10.46,1.09,15.83h0.29l0.29-1.2,1.23-.13V90.2c-0.18,4.19-.14,8.37-1.05,12.51a38.84,38.84,0,0,0-1.84-13.94m-64.37,32.07L246,121a3.72,3.72,0,0,0,.26.82,56.63,56.63,0,0,0,3.17,5.22c1.89,2.54,4,4.93,6,7.36a3.82,3.82,0,0,0,1.11.64l0.27-.34c-4.36-4-7.57-8.85-10.51-13.89m21.94-9.64,0,0c1.16,0.75,2.28,1.58,3.49,2.23a13.17,13.17,0,0,0,2.46.76l-0.08.28-3.09-.74-0.18.41,5.27,3.42,0.16-.24-3.73-2.69,0.22-.36c1,0.54,2.1,1,3.11,1.62,0.79,0.45,1.5,1,2.29,1.46a9.21,9.21,0,0,0,1.67.53l0-.22L276.84,116l0.11-.25,2.16,0.39,0-.17-1.54-.51c0.34-.89-0.47-0.54-0.79-0.68-1.27-.58-2.55-1.12-3.83-1.69a2.5,2.5,0,0,0-1-.5c-1.26.46-1.93-.57-2.83-1l-0.9-.38m33.4-41.57c3.59,4.56,7.66,8.78,9.77,14.31A34.34,34.34,0,0,0,305.2,73.2a8.2,8.2,0,0,1,1.57,1.51c1.4,1.87,2.77,3.78,4.15,5.67,0.28,0.39.47,1,1.23,0.43-3.41-3.82-6-8.27-10.43-11.17m-12,54.45h0c-2.86.09-5.12-1.35-7.38-2.84H284c-1.34-.37-2.57-0.65-3.75-1.07-0.85-.3-1.52-1.19-2.6-0.62a0.57,0.57,0,0,1-.41-0.15c-1.64-1.25-3.29-2.49-4.92-3.75-1.28-1-2.53-2-3.79-3l-0.2.21a13.74,13.74,0,0,0,1.13,1.21c1.56,1.32,3.11,2.66,4.73,3.91s3.07,2.58,5.3,2.36a1.06,1.06,0,0,1,.49.26,28.54,28.54,0,0,0,3.27,2c1.72,0.78,3.52,1.38,5.31,2,0.44,0.15,1.11.38,1.16-.52M261.08,94.91c-0.46,2.8.78,4.84,1.74,6.93a13.85,13.85,0,0,0,4.64,5.62c-1-1.36-2.34-2.55-3.28-4a39.87,39.87,0,0,1-2.33-4.64l0.38-.2c0.72,1,1.45,2,2.15,3,1.33,1.91,2.69,3.78,4.94,4.74a4.86,4.86,0,0,0,1,.2l0.08-.27c-2.9-.79-4.38-3.06-5.9-5.3,2.07,1.67,4,3.51,6.74,4.07-2.32-.86-4.07-2.52-6-4s-2.89-3.85-4.2-6.17M293,53l10.1,9.88-1.17-1.62,0.25-.18,2.88,3.51,0.15-.1-1.51-2.37,0.19-.13,2.66,3.12,0.21-.18c-2.13-2.51-3.83-5.38-6.61-7.59,0,0.38,0,.52,0,0.67-1.43-2.1-3.78-2.82-5.73-4.08L293,53m-46,57.58h0.19a14.33,14.33,0,0,1,1.12,2.82c0.49,2.88.82,5.79,1.24,8.69a3.37,3.37,0,0,0,.45.92l0.11-.1-1.42-15.87c-0.66,1.61.5,3.24-.3,4.71h-0.32l-0.84-7.66-0.33,0c-0.2,2.9-.63,5.8-0.55,8.69a34.47,34.47,0,0,0,.94,8.54l0.38,0L247,110.59M205.23,75.76l-0.24.16-3.58,2.61,0.26,0.35,5.85-3.8-0.14-.22-2.15.9m8,11.39,0.45,0.42,4.8,3.62,0.13-.16-6.17-5.78-0.18.09,1,1.82M260,23h0c-0.21-.89-1.27-1.45-2.39-2L260,23M42.27,160.4h0c1.36,0.38,1.39.36,1.54-.87l-1.54.87M237,106.22h0l-0.24-.07-0.95,2.92,0.47,0.13,0.72-3M184.14,99.7h0l0.12,0.44,2.37-.63-0.12-.44-2.37.63m-30.35-5.9h0l0.33,0.31,1.7-1.8-0.25-.24-1.78,1.72m-84,41.78h0a8,8,0,0,0-.86-0.62,11.75,11.75,0,0,0-.9,1.1l0.21,0.16,1.56-.65M253.28,24h0l-0.22.42,2.39,1,0.12-.3L253.28,24M241.76,186.47h0c0.58-1,.33-1.7-0.67-2.5l0.67,2.5M30.93,137.67h0c-2,.22-2,0.22-2.34,1.17l2.34-1.17M140.64,90.53h0c0-.08,0-0.16,0-0.24h-3v0.24h3Zm116.07,52.9h0l-0.16.34,2.42,1.17,0.22-.46-2.47-1M125.5,133.79h0l-0.25-.3-2.47,1.91,0.23,0.29,2.49-1.9M236.3,124h0c0.21-2.09.19-2.14-.59-2.82L236.3,124M28.22,148.54h0c1.71-.32,2.06-0.67,1.64-1.51l-1.64,1.51M207.14,64.4h0l-0.24-.23-2.52,2.16,0.23,0.26,2.52-2.19M180.82,104.1h0l0,0.39,3.06-.33,0-.36-3,.3m-99.94-.38h0c-0.85-.88-0.88-0.88-2.27.2l2.27-.2m1.86,1h0l0-.35-3.49.28v0.07h3.5ZM257.66,69.79h0l-0.35-.15-1.11,2.88,0.33,0.12,1.13-2.85M262,152.32h0l0.35-.21-1.46-2.41-0.42.25,1.53,2.38M206.19,46.7h0c1.62,0.54,1.71.51,2.44-.51l-2.44.51m55.74-11.58h0c1.28-.22,1.53-0.59,1.53-2.25l-1.53,2.25M234.58,92.84h0l0.16,0.33c1.14,0.11,1.76-.89,2.55-1.51l-2.7,1.19M12.51,149.77h0l-0.1-.47-3.64,1.07,0.07,0.24,3.68-.84M5.16,122.59h0c0.81,1.23.81,1.23,1.71,1.1l-0.77-1.4-0.94.3M86,102.37h0l0.08,0.34,3.78-1-0.09-.33-3.77,1m35.38,33.1h0l-0.19-.26-3.21,2,0.22,0.33,3.18-2m124.26-51h0l-2.33.76a1.54,1.54,0,0,0,2.33-.76m-64.31,15.88h0l-0.12-.32-3.62,1.35,0.13,0.34,3.61-1.37M25.6,144.58h0l-0.17-.23-2.95,2.39,0.27,0.3,2.86-2.46M213.08,69.26h0l-0.18-.32-3.71,1.49,0.12,0.31,3.77-1.47m34.75,122.41h0l0.29-.14a6.59,6.59,0,0,0-.23-1.37,1.57,1.57,0,0,0-.69-0.4,1.43,1.43,0,0,0-.25.73,7.82,7.82,0,0,0,.88,1.18m8.24-167.13h0c-0.86-1.14-2.31-1.57-2.71-1.08l2.71,1.08M282.5,24h0c0.33-.68.24-1.21-0.44-1.34a2.6,2.6,0,0,0-1.14.43,2.11,2.11,0,0,0,.88.52,6.48,6.48,0,0,1,.7.39m-46.7,103.69h0l0.28-.18-2.49-3.66-0.23.15,2.43,3.69M193.52,97.34h0l2.78,0.26c-1.35-1.07-1.44-1.08-2.78-.26m67.33,79.3h0c-0.32,1.27,0,1.6,1.64,1.51l-1.64-1.51M275.7,55.36h0l-2.7-.72-0.13.27,1.23,1,1.6-.5m-115.79,31h0L160,86.87l3.26-.72-0.08-.36-3.29.56m14.31,21.49h0l0,0.27,4.51-.58-0.05-.34-4.5.65m-31.46-17h0l2.68,0.69,0.68-.94-3.36.25m48.34-11.5h0L191,78.78l-3.8,1L187.21,80l3.89-.69m48.29,79.89h0l1.93,0.73-0.89-2-1,1.27M147.77,79.5h0l0.06,0.5,3.25-.78L151,78.89l-3.24.6m-41,18.37h0l0.09,0.32,3.59-.94-0.12-.42-3.57,1M34.89,159.59h0l-0.25-.51-2.36,1.18,0.24,0.48,2.38-1.15m17.77-5.83h0l-0.23-.44L49,155.14l0.17,0.32,3.49-1.7m118.1-85.62h0L171,68.58l2-1.43-0.24-.34c-1-.08-1.35.9-2,1.33m0.9,39h0l0.07,0.36,4.58-1.34-0.08-.29-4.57,1.28m-123.57,54h0a6.28,6.28,0,0,0,3.58-.75L51.56,160l-3.45,1.12m265.52-39.64h0c-1.6.12-1.81,0.9-1.51,2l1.51-2M157,92.84h0l-0.26-.23L154,95.51l0.36,0.32,2.65-3M276,2.3h0L275.66,2l-1.35,1,1.38,1.13L276,2.3M175.53,101.41h0l0.37,0.35,2.81-3.06-0.06-.05-3.13,2.76M290.83,71.07h0l0.19-.25-3.66-2.29-0.2.32,3.67,2.22M137.05,73.16h0l-0.19-.35-3.79,1.88L133.22,75l3.84-1.81M259.93,209.29h0c-1.13-1.16-2.59-1.42-3.24-.83l3.24,0.83m-64.28-159h0l0.17,0.33,4.44-1.82-0.13-.3-4.48,1.8M126,124.78h0l-0.37-.48-2.25,1.7,0.32,0.41,2.31-1.63M75.72,106.46h0c2.46,0.56,3.91.46,4.3-.25l-4.3.25m137.92-58.4h0L209.82,50a19.26,19.26,0,0,0,3.68-1.14,2.19,2.19,0,0,0,.15-0.79m15.77,63.66h0l0.95,4,0.27-.07c-0.48-1.23.29-2.76-1.22-3.92M38,159.52h0l-2.66.91c1.17,0.53,2.1.47,2.66-.91M192.31,72.3h0l0.21,0.23,4-3.5-0.21-.24-4,3.5M144.5,89.67h0v0.1h4.74l0-.39-4.73.3M254,76.76h0l0.51,0.08,0.66-3.45-0.43-.09L254,76.76m4.78,66.69h0l0.33-.45-2.83-1.81-0.26.38,2.76,1.87m-118.19-20.4h0l-0.32-.38-2.81,2.3,0.27,0.32,2.86-2.23m0.79-42.38h0l-0.07-.32-3.58.76a5.44,5.44,0,0,0,3.66-.45m-20.74,41.4h0l3-1.19c-1.19-.24-2.29-0.26-3,1.19m73.17-49.71h0l0.24,0.29,3.52-3.1-0.21-.23-3.55,3m-30.74,30h0l0.19,0.21,4.08-2.56-0.25-.38-4,2.73m16-2.8h0l0.34,0.4,2.45-2-0.35-.43-2.43,2m46.29-46.75h0l0.25,0.3c1.44,0,1.64-.17,1.71-1.75l-2,1.45m32.35,27.93h0l0.82-5.25c-0.78,1.89-1.47,3.52-.82,5.25M65.83,139.39h0c2.08,0.09,3.73-.58,3.7-1.4l-3.7,1.4m191.8,20.77H260l-2.15-1.39-0.18,1.39M162.91,96.05h0l-0.14-.31c-1,.06-2.07-0.17-2.41,1.32l2.56-1M269.34,208.92h0l0.1,0.34,2.27-.5-1.6-1.14-0.78,1.3M254.27,22.74h0l2.89,1.3c-0.67-1.38-1.85-2-2.89-1.3m-112,48.4h0c-1.51-.79-2.19.6-3.3,0.87l0.1,0.28,3.2-1.14M28,146.61h0A3.64,3.64,0,0,0,31,144.08L28,146.61M223.17,46.28h0c-1,.27-2,0.1-2.67,1,1.36,0.76,2,.06,2.67-1M118.12,121h0l0.35,0.41c0.68-.4,1.95-0.17,1.65-2l-2,1.59M262,154.48h0c0.81-1.2-.37-1.66-0.64-2.43l-0.81.54,1.45,1.89M148.71,117.37h0l-0.16-.34-3.66,1.92,0.23,0.42,3.6-2m-77-15.78h0l-2.47,2.16c2.06-.56,2.83-1.23,2.47-2.16m55.64,22.71h0l3.24-1.83a3,3,0,0,0-3.24,1.83m125.36-99h0l-0.19,1.76,2-.85,0-.32-1.73-.59M89,96.85h0l3.36-.47c-1.4-.88-2.13-0.75-3.36.47m152.84,53.71h0l0.2-.32-3-1.76-0.2.31c0.43,1.43,2.14.92,3,1.77M111,81.24h0l0.23,0.51L115,80.32l-0.16-.42L111,81.24m67.63,6.55h0l0-.32c-1.46.33-3-.6-4.62,0.65l4.65-.33M263,113.68h0l0.25-.16-3.5-5.35-0.22.14,3.47,5.37m-90-12h0l0.29,0.41a7.21,7.21,0,0,0,2.85-2.74L173,101.72m30.5-42.33h0c0,0.13,0,.26,0,0.39a2.14,2.14,0,0,0,1.1.25,4.52,4.52,0,0,0,1-1.15l-0.35-.35-1.71.87m56.22-33h0l0.14,0.38c0.57,0.09,1,1.24,1.65.24a1.28,1.28,0,0,0-.53-1.11,2.75,2.75,0,0,0-1.26.49m-38,31.05h0c2.19-.55,3.72-1.48,4-2.49l-4,2.49m-94.39,55.05h0l0.13,0.34,3.84-1.4-0.14-.39c-1.44,0-2.55,1-3.82,1.45M281.18,61.24h0l0.14-.44-2.74-1.11-0.18.44c1.13-.13,1.36,1.93,2.77,1.12M275.24,1.45h0c-0.81-1.18-1.57-.5-2.4-0.22l1.22,1.13,1.18-.9M191.15,98.26h0l0-.16h-5.55c0,0.16,0,.32,0,0.47l5.5-.32m29.8,10.38h0c-0.51,1,.36,3.48,1.42,4.31l-1.42-4.31m15.29,31.75h0l2.84,0.93-2-2-0.83,1.12M150.76,75h0l-0.06-.44c-1.32.44-2.86-.25-4,1l4.1-.57m160.07,46.91h0l0.31,0.27,2.7-2.16-0.24-.29c-0.65,1.06-2.6.52-2.77,2.18m-48.46,58.81h0c0-1.43,0-1.44-1.48-1.82-0.08,1,0,1.88,1.48,1.82m53.23-63.45h0l-0.17-.35c-1.17,1.14-3.12.84-4.2,2.16l0.19,0.35,4.18-2.16m-158-49h0l-0.1-.36L152.83,69l0.11,0.44,4.71-1.22m102,100.41h0c-0.13,1.76.1,2,2.36,2l-2.36-2m-4.05-88h0l-0.39-.12a12.75,12.75,0,0,0-1.29,4.11l0.36,0.1,1.32-4.1m-16.25,69.76h0A2.38,2.38,0,0,0,241.8,152a0.52,0.52,0,0,0,.35-0.32,0.5,0.5,0,0,0-.27-0.39c-0.79-.29-1.6-0.55-2.51-0.85M181.64,106h0l-0.12-.43-5,1.33,0.12,0.42,5-1.33M158.19,78.32h0c-2.8-.14-2.87-0.1-3.06,1.46l3.06-1.46m-129,62.59h0c-2.69.88-3.38,1.6-2.57,2.34l2.57-2.34M136.41,89.64h0c-1.87-.58-3.73-0.19-4.12.75l4.12-.75M15.78,149.72h0L16,150l3.68-1.09-0.1-.37-3.36.87,1-1.17L17,148.08l-1.19,1.64m139.1-66h0c0,0.11,0,.22,0,0.33l3.61,0.45,0.12-.78h-3.74Zm79.46,31.9h0v-5.72l-0.3,0a11.19,11.19,0,0,0,.3,5.7m3-25.2h0c2-.32,4-1.6,4.48-2.52l-4.48,2.52m-75.68-7.15h0l0-.46c-1.22.2-2.48-1-3.68,0v0.43h3.64ZM282.63,19.44h0c0.56-.38,1-0.88.35-1.44s-1.19.25-1.69,0.57a1.89,1.89,0,0,0-.15,1l0.36,0.14c0.28-.71.57-1.32,1.13-0.27m-35.29,164h0c-0.77,1.46-.74,1.58.55,2.59,0.51-1.61.51-1.61-.55-2.59M278.68,30.17h0l-1.4,1.3c0.75,1,1.53.79,2.45-.78l-1-.52m-31.21,159h0c0.13-.63.25-1,0.29-1.41a1.27,1.27,0,0,0-.1-0.77,8.43,8.43,0,0,0-.89-1c-0.38,1.84.12,3.32,0.71,3.18M103.11,95.59h0l0.1,0.29,4.26-1.31-0.13-.4c-1.42.44-3,.33-4.23,1.43m41.62,25h0c-2.76.54-3.5,1.11-3,2l3-2m58-64.63h0l0.2,0.34c1.63,0.28,2.25-.16,2.23-1.83l-2.43,1.49m49.79-22.65h0l0,0.23c1,0,1.92,0,2.87,0a0.79,0.79,0,0,0,.44-0.47,1.24,1.24,0,0,0-.61-0.62c-0.93.24-1.82,0.58-2.73,0.89M259,20.51h0l-0.24.36c1.21,0.44,1.38,2.32,3,2.19l0.3-.42L259,20.51M174.48,99.62h0l-0.21-.31-4.69,3.32,0.17,0.24c1.82-.74,3.15-2.18,4.74-3.26m81.37,43h0l0.27-.38c-1.22-.88-2.09-2.28-3.72-2.56l-0.2.27,3.64,2.67M146.51,71h0l0.06,0.42a10.67,10.67,0,0,0,5.13-1.37l-5.19.95M60.85,104.15h0l0.08,0.43,6-1.17-0.08-.4-6,1.14m99.15-25h0l-0.21-.52L154.67,81l0.13,0.3L160,79.15m2.73-6.41h0l0.13,0.43c1.51-.4,3.18-0.41,4.26-1.91l-4.39,1.48M19.05,164.36h0l-0.49-.51-4.26,4,0.19,0.21,2.63-2.11,1.92-1.58M207.38,87.18h0c-0.51-1.85-.51-1.85-2.27-1.79,0.25,1.19.44,1.34,2.27,1.79m-89.44,32.38h0l-0.16-.36c-1.47,0-3.1.91-3.34,2.06l3.5-1.7m-67.43.57h0l0-.33a1.93,1.93,0,0,0-.94,0c-1.13.88-2.21,1.82-3.31,2.74l0.17,0.22,4.12-2.65m73.25-26.91h0l0.2,0.39L128,91.54c-1.78-.19-3,0.8-4.27,1.67M81,152.4h0L80.75,152l-5.51,3.15,0.15,0.26,5.65-3m196.59-17h0l0-.22-4.86-.46-0.08.4a13.85,13.85,0,0,0,2.33.51,17.61,17.61,0,0,0,2.59-.22m43.39-39h0c0.43-1.79,2.19-3.39,1.1-5.76L321,96.39m-31.31,48.06h0l-6.65,1.45c2.3-.08,4.62-0.11,6.65-1.45m-27.26,10.34h0l-0.15.42,2.6,0.9,1-1.67c-0.74.19-1.5-.89-1.72,0.56a1.14,1.14,0,0,1-.72.13,6.43,6.43,0,0,1-1-.33M157.2,77.55h0l0-.41c-2,.42-4.11,0-6.07.77l0,0.36,6.06-.72m133.32-14h0c0.59-1.05-1.37-2.76-3.14-2.75l3.14,2.75m-5.83-3.41h0a3.41,3.41,0,0,1,1.2,1c0.31,1.11,1.25,1.18,2.08,1.49,0.14-1.07-2.14-2.87-3.28-2.5M106.4,93.05h0l0.15,0.46c1.77-.67,3.79-0.55,5.45-1.55l-0.11-.35-5.5,1.43m154.75,90.41h0l-0.32.24v2.43c0.55-.88,1.88,0,1.84-1,0-.56-1-1.09-1.51-1.63m42-49.4h0L303,133.8l-6.89,3.47,0.13,0.25c2.49-.78,4.62-2.25,6.89-3.47M140.44,69h0l-0.19-.47L135.44,70l0.11,0.34C137.14,69.8,139,70,140.44,69m9.27,11.62h0l-0.1-.32c-2.12.81-4.49,0.85-6.54,1.89l0.11,0.36,6.53-1.93M282.28,66.38h0l-0.16.3,3.38,1.76c0.25-1.23-1.09-2-3.21-2.07m-99.81-6.13h0l0.08,0,4.91-3.86c-1.19.17-1.95,0.08-2.49,1.12a13.42,13.42,0,0,1-2.5,2.7M118.12,85.43h0l0.1,0.33,6.28-1.56-0.16-.56-6.22,1.78M46.64,158.23h0l0.19,0.53a15.35,15.35,0,0,0,5.51-2.5l-5.69,2M189.8,91.71h0l-0.17-.38-6.75,2.21L183,94l6.78-2.25M205.94,59.4h0c1.84,0,1.8-1.38,2.24-2.34a1.66,1.66,0,0,0,0-.7,1.62,1.62,0,0,0-.73.31c-0.51.85-.95,1.74-1.47,2.74M58.82,142.67h0a4.14,4.14,0,0,0-3.49,2.28c1.66,0,2.5-1.14,3.49-2.28M247,180.38h0c-0.6,1.29-.42,1.68,1.35,2.88,0.23-2,.2-2-1.35-2.88m8.63-91.31h0c-0.68,1.83-1.53,3.66-.29,5.73,0.1-2,.2-3.88.29-5.73M73.78,95.79h0l4-2.25-0.13-.22L72.82,95l1,0.78m80.11-25.18h0l-5.56,1.22c1.28,0.63,4.93-.18,5.56-1.22m129.95,4.78h0l0.07-.48-4.36-2.23a0.8,0.8,0,0,0,.24.8c0.94,0.61,1.89,1.21,2.88,1.73a3.63,3.63,0,0,0,1.18.18m-4.61-11h0c1.78,1.46,2.33,1.58,3.66.86-0.92-1.45-2.28-.86-3.66-0.86m-31.87,71.08h0c0.94,2.28,2.4,3.77,4,4.25l-4-4.25m-59.66-48.9h0l0.13,0.38c2-.24,3.78-1.23,5.66-1.86l-0.13-.42-5.66,1.9M261,181.23h0c-0.25,1.77-.2,1.85,1.68,2.39,0.26-2,.26-2-1.68-2.39M199.46,86.1h0l-5,1.93,0.1,0.25,5.24-1.22-0.36-.95m-49.55,16.52h0l-0.48-.14-1.61,6.8,0.28,0.09c1.06-2.12,1.19-4.5,1.81-6.74m34.31-24h0l0.14,0.54,6.36-1.84-0.13-.43-6.37,1.74M268.08,206h0l-1.15,1.19,1.79,1.39,1-1.11-0.41.29L268.08,206m5.35-148h0c0.26,1.73,1.77,2.19,4.16,1.28l-2.23-1,0.28,1.18L273.44,58M234.95,46.21h0l-0.11-.39-5.59,1.49,0.11,0.38c1.78-.8,4,0,5.6-1.48M130.17,110.3h0c-1.15-.61-3.53.2-5.39,1.49l0.1,0.29,5.29-1.77m141.9-84.73h0l0,0.2,4.17,0.84c0-.54-0.07-1-0.11-1.55l-4,.51m-10.35,144h0c0.62-1.71-.41-2.61-2.44-2.3,0.14,1.44,1.62,1.41,2.44,2.3m-23-33.45h0c-0.91,1.07.79,3.44,2.94,4.33-0.51-.71-1-1.37-1.48-2.05s-0.93-1.45-1.46-2.28m16.42-108h0c-0.31,2,.93,3.55,2.6,3.23l-2.6-3.23M20.54,148.41h0c2.2,0.45,4.92-.4,5.28-1.62l-5.28,1.62m84.27-51h0l0.07,0.21c1.18-.25,2.37-0.49,3.55-0.76,0.78-.18,1.64-0.74,2.29-0.55,1.08,0.32,1.29-.41,2-1l-7.56,1.92a1.73,1.73,0,0,0-.38.21m84.65-46h0l0.18,0.39,6.3-2.8-0.19-.43c-2.34.4-4.1,2.09-6.28,2.83M54.38,158.27h0l0.32,0.42,6.7-4.51-0.22-.31-6.8,4.4m83.85-82.64h0l6.47-1.73c-2.48-.55-4.48.57-6.47,1.73m100.7,16.93h0l0.25,0.33c1.25-.83,2.52-1.63,3.74-2.5a5.06,5.06,0,0,0,.87-1.07l-0.32-.27-4.53,3.51m1.29,10.33h0l2.09-7.39a13.42,13.42,0,0,0-2.09,7.39m-182.69-7h0l5.25-2c-3.22-.16-2.64-0.36-5.25,2m81-16h0l0.12,0.46c1.9-.69,4.19.15,5.76-1.8l-5.87,1.35M242.7,169h0L240.32,173c2,0.34,1.68-1.77,2.6-2.09L242.7,169M205,56.91h0l0.33,0.42a6.43,6.43,0,0,0,1.07-.68,8.79,8.79,0,0,1,.74-1c0.86-.58.83-1.2,0.16-2.12L205,56.91M51.28,143.22h0l0-.47a2.63,2.63,0,0,0-1.26,0c-1,.74-2,1.6-2.93,2.41l0.23,0.34c1.68-.16,2.41-2,4-2.32m83.83-51.9h0a13.22,13.22,0,0,0-6.94,1.06l0.06,0.3,6.88-1.36M275,62.53h0c1,2,2.38,2.33,4,.92l-4-.92m-35.36,89.9h0a2.92,2.92,0,0,0,.56,1.34,17.51,17.51,0,0,0,2.72.58c-0.47-1.68-.8-1.87-3.27-1.92m-36-65.13h0c1,1.3,1.21,3.06,3.12,3.73-0.52-1.14-1-2.12-1.4-3.11a1.13,1.13,0,0,0-1.73-.61M133,86.15h0l-4.39,1.38,0.13,0.54,4.73-.86L133,86.15m101.17,39.8h0l-3.52-6c0.16,2.66,1.61,4.44,3.52,6M136.43,61.66h0l9.36-1.21,0-.34c-3.08.68-6.34,0-9.31,1.54M79.9,145.38h0l-0.26-.5c-0.66.33-1.85,0.6-1.89,1-0.12,1.11-1,1.07-1.59,1.41-1.75,1-3.53,1.92-5.29,2.88l0.21,0.35,8.83-5.13M185.84,52h0L186,52.4l6.45-3c-2.82-.44-4.33,1.93-6.64,2.58m27.33-1.62h0c-2.11-.24-4.69,1.48-4.62,2.57,1.14-.55,2.32-1.1,3.48-1.71a8.46,8.46,0,0,0,1.15-.87m-87.9,34.1h0l0.15,0.47,6.72-2L132,82.59c-2.67-.65-4.29,1.93-6.76,1.89M280.14,5.1h0l-1.2-.89,0.27-.1a4.92,4.92,0,0,0-.78-1.76,4.57,4.57,0,0,0-1.83-.51V3c1.75,0,1.74,2.34,3.54,2.13M53.72,121.5h0L61,115.74l-0.23-.28c-2.25,2.11-5.33,3.22-7,6M192.1,84.11h0c-1.36-.32-6.75,1.63-7.15,2.51l7.15-2.51m-69.61,2.18h0l-0.11-.43-7.69,1.83L114.78,88c2.51-.82,5.29-0.53,7.7-1.75m133.92-3.75h0l-0.18,0c-0.77,2.34-1.58,4.66-2.29,7a4.23,4.23,0,0,0,.17,1.58l0.17,0,2.13-8.54m-32.55,27.31h0l-0.31.13,3.49,8.95,0.33-.12-1.51-4.09,0.89,0.93a3,3,0,0,0-.45-1.25c-1.35-.38-1-1.7-1.56-2.53a12.65,12.65,0,0,1-.88-2m-121,10h0c2-1.42,2.42-3.43,3.43-5.1a8.46,8.46,0,0,0-3.43,5.1m98.37-72.56h0L201,48.83c2.4-.59,2.4-0.59,2.47-2.17l-3.38.46,0.05,0.37,1.1-.17m12.4-.14h0c-2.23-.83-3.83.07-3.86,2.14l3.86-2.14m26.24,107.44h0a2.57,2.57,0,0,0,.58,1.11c1,0.45,2,.75,3,1.1,0-1.62-1.15-2.39-3.58-2.2m19.48-12.16h0l-0.11.31c2.2,1.73,4.94,1.84,7.58,2.22l-7.48-2.54m4.87,60h0l-0.35-.13c-0.17.76-.69,2.06-0.46,2.2,1.13,0.71.16,1.12-.08,1.61a3.3,3.3,0,0,1-.56.65l0.35,0.39,1.74-1.22-0.64-3.5m-100-115.75h0c1.44,0.72,4.91-.46,6.15-2l-6.15,2m-23.11-25h0l-8.89,1.26c4,0.38,7,0,8.89-1.26m-86,81.9h0a1.86,1.86,0,0,0-2.07.72A21.51,21.51,0,0,1,50.45,147l0.33,0.37c1-.77,2-1.53,2.92-2.33,0.52-.44,1-1,1.48-1.51M83.68,100h0l0.14,0.4,10.13-2.07a0.46,0.46,0,0,0-.47-0.23c-2.56.35-5.13,0.68-7.69,1.1a11.08,11.08,0,0,0-2.11.8M206.91,60.26h0c-1.24,0-4.13,1.69-4.2,2.4,2.63-.27,3.74-0.9,4.2-2.4M256.4,34.75h0l0.39,0.34a2.09,2.09,0,0,0,.75-0.64c-0.19-1.07.92-1.09,1.21-1.75L259,32.83l-1.24,2.68c1.6-.21,1.3-1.57,1.62-2.39,0.1-.26-0.71-0.86-1.07-1.26-0.5.62-.89,1-1.19,1.49a14.13,14.13,0,0,0-.73,1.41M33.91,158.81h0a1,1,0,0,0-1.82-.15,7,7,0,0,1-4.26,2.18,3.47,3.47,0,0,0-1.16.83L26.89,162l7-3.2m204.23-52.42h0l-0.3,0c-0.31,2.47-1.58,4.89-.1,7.46q0.2-3.72.4-7.44m16,105.15h0l1.22,0.77c0.4-1.69,1.76-2.21,3.46-2.55-1.26-.65-2.22-1.08-2.94.3a0.82,0.82,0,0,1-.63.39,1.86,1.86,0,0,1-.69-0.43,7.78,7.78,0,0,1-.13,1,2.1,2.1,0,0,1-.29.52M217.88,45.8h0c-2.44.19-3.75,1.25-3.48,2.77,1.76-.12,2.67-1.31,3.48-2.77m48.6,106.83h0l-0.25.19L263.45,151l-0.17.25,2.27,1.74c-1.32.55-1.68-.73-2.55-0.91a2.67,2.67,0,0,0,2.59,1.72,2.09,2.09,0,0,0,2-1.69l-1.5-.47,0.4,1m-57.63-103h0c-1.54.67-3.06,2.83-2.7,3.77,2.36-1.41,3.21-2.56,2.7-3.77M44.59,160.74h0l0.14,0.36A19,19,0,0,0,53,157.58l-8.39,3.16M262.93,189.1h0l0.48-.24-1-3c-2.06.74-2.2,1-1.75,2.64l1.6-1.27,0.16,0.19-0.67.89,1.16,0.8m3.75-161.39h0c-1.15.67-1.18,0.69-.93,1.35a4.09,4.09,0,0,1-.34,3.56,11.66,11.66,0,0,0-.62,1.88l0.41,0.1c1.46-2,1.57-4.3,1.48-6.89M240.21,135.13h0c1.14,2.91,3.44,3.9,5.91,4.67l-5.91-4.67m41-85.74h0l0.29-.44c-2.14-2-4.95-2.72-7.63-3.7l7.35,4.14m-128,31.37h0l-0.13-.43-8,3c3.21,0.43,5.4-1.84,8.16-2.58M53,143.57h0c-1.69-.56-4.12,1.58-4.17,3.69L53,143.57m86.31-66.09h0l-0.13-.41-10,3,0.13,0.4c3.25-1.22,6.78-1.56,10-3m101.92,70.38h0l-0.18.46-1.75-.67-0.07.14,2.3,1.42c0.11-2-1.46-4.1-3-3.91l0.14,1.57,2.55,1M153.9,82.52h0c1.16,0.35,2.21.45,3-.63a2,2,0,0,1,.92-0.38L162.27,80l-0.21-.54-8.17,3.11m113.91,123h0l-2.57-3.18c0.51,1.43-.53,3.26,1.09,4.38l1.48-1.2m-38.18-85h0l0.31-.1L227,111.75c-0.08,3.25,1.19,6.07,2.61,8.85m-60.24-51h0l-0.1-.37-6.52,1.66c1.07,0.81,5.46-.1,6.62-1.3m130.68,68h0l-0.11-.25,1.83-1.35-0.15-.22-5,2.76c0.8,0.56,2-.67,2.62,1l2.35-2.7-1.51.72m-22,68.66h0c-2.52-1.38-3.47-1.26-4.62.8l1.56-.74a1.66,1.66,0,0,0,.35.77,1.86,1.86,0,0,0,2.71-.83M242.05,143h0l-4.26-5.23c-0.94,1.39.4,1.74,0.88,2.4a21.6,21.6,0,0,0,1.92,2.07l-0.14.13-0.54-.2c0.56,0.67,1.07,1.5,2.14.84M167,84.07h0l0-.28c-2,.43-4,0.87-6.08,1.27a11.19,11.19,0,0,1-2.89.41,24.07,24.07,0,0,1-3.53-.76c0.58,0.44,1.41.44,1.82,0.84a2.06,2.06,0,0,0,2.75.27,4.15,4.15,0,0,1,1-.24l7-1.5m41.75-28.31h0c2.05-.37,2.42-2.4,3.91-3.43-2-.4-4.26,1.66-3.91,3.43m19,53.7h0c0.25,3.5,1.5,6.57,2.7,9.66-0.67-3.29-2.23-6.4-1.64-10l-1.05.34m34-6.83h0L259,95.34l-0.29.09a3.76,3.76,0,0,0,0,1c0.63,2.31.84,4.81,3.07,6.25m-51-1.58h0l-0.1.58a2.73,2.73,0,0,0,.76.16,7.92,7.92,0,0,1,.86-0.24c2.78,0.16,5.56.37,8.33,0.53a3.42,3.42,0,0,0,.94-0.22,0.73,0.73,0,0,0-.54-0.23l-7.3-.44-2.95-.15m67.35-73.63h0l0.23-.21,0.34,0.91a5.65,5.65,0,0,1,1.23,0,1,1,0,0,0,1.37-.9,7.66,7.66,0,0,0-.37-2.31A1.78,1.78,0,0,0,280,24.6l-0.14.32a3.35,3.35,0,0,1,.38.66,11.78,11.78,0,0,1,.25,1.17,4.69,4.69,0,0,1-1.29,0c-0.78-.19-1.53-0.51-2.53-0.85l1.37,1.49M77.48,103.21h0l-0.21-.37a59.54,59.54,0,0,0-9,5l0.2,0.35,9-4.93m81.91,2.84h0c3.63-.45,5.82-3.17,8.64-4.88l-0.2-.32-8.44,5.2M1.25,150.7h0c1.93-.19,5.37-2.36,5.28-3.43L5.8,146.7l-4.55,4m275.29,61.82h0a5.67,5.67,0,0,0-1-2,3.84,3.84,0,0,0-2.26-.62,4.55,4.55,0,0,0-1.66,1.06l1.91,1c0.84-.9,1.34-1.05,2.33-0.57L274,212l0,0.22,2.49,0.27m-150.45-146h0L126,66.26c-4.36.37-9.32,0.53-10.8,2l10.86-1.77M24,161.27h0c2.6-1.27,5.64-1.57,7.89-3.61-2.68,1.1-5.78,1.25-7.89,3.61m235.14,3.13h0c0,0.16,0,.32,0,0.49l2.45,0.32,0,0.29-2.55-.17c-0.06,1.29-.07,1,3.07,1.74a14.41,14.41,0,0,0,.27-1.66,0.88,0.88,0,0,0-.31-0.71c-1-.15-1.93-0.21-2.9-0.3m-40.23-112h0c-2.38.4-3.33,2.19-4.71,4,2-1.1,4.35-1.18,4.71-4m-16.84,2.68h0c-2.19.23-4.34,0.32-6.24,1.87,1.77-.15,3.36-0.35,4.94-0.39,1,0,1.29-.53,1.3-1.48m-98,31.54h0l5.18-3.32-0.12-.18-4.41,2.07-0.18-.35,3.55-2.1-0.05-.11-4.8,2,0.83,2m157.75,86.61h0c0.26-1.4-.41-2.09-2-2.07,0.06,0.7.12,1.41,0.17,2.11,0.14,1.85.14,1.85,2.44,1.78l-1.37-1.78,0.78,0M198.43,89.92h0c-1-1.34-5.81-.43-6.83,1.33l7.29-.46V90.45h-4.83a5.17,5.17,0,0,1,2-.52c0.72,0,1.44,0,2.32,0m-138,12.93h0c2.74,0.36,7.55-.82,8.23-2-2.81.8-5.7,0.65-8.23,2M25.94,126.09h0l0.06-.34a1.92,1.92,0,0,0-.9-0.27c-2.42.83-4.82,1.71-7.23,2.58L18,128.41c2.8-.23,5.32-1.43,7.94-2.32M282,8.64h0l-0.16,1.87,0.24,0.09-1.45,1.17L282.42,13c0.22-.62.41-1,0.5-1.44,0.53-2.29.15-3.2-1.64-3.9L281,9.43l1-.78m-110.21,65h0l8.12-6c-2.08.46-7.28,3.63-8.12,6m84.52,16.71h0l-0.37,0c0.21,3.35-.71,6.83,1.41,9.85-0.34-3.24-.7-6.57-1-9.9m-84.21,7.4h0c1.17,0.51,6.21-.61,8.72-1.94-5.9.54-7.77,1-8.72,1.94m-56.82,6h0c1-.47,2-1,3.07-1.4q3.39-1.21,6.83-2.27c0.58-.18,1.38.08,1.25-1.08-4,1.05-7.85,2.23-11.15,4.75M64.32,139.33h0L64,139l-5.47,4.86,1,1.1,4.82-5.63m96.38-44.63h0l-0.4-.42a9.73,9.73,0,0,0-1.38,1,7.07,7.07,0,0,0-.94,1.39c-0.88,1.49-1.74,3-2.6,4.5l0.4,0.25,4.93-6.73m-36-20h0l-0.07-.29-5.54,1.32L120,76.21c-1,.34-2,0.63-2.91,1s-1.87.64-2.79,1-1.7.73-2.54,1.1l0.17,0.37,12.76-4.94m-3.16,57.78h0l0.33,0.24,5.77-6.62-1.37-.31-4.74,6.68m140.81,31.71h0a6.56,6.56,0,0,1,0-1.37c0.38-1.47.23-1.71-1.45-2.06v0.76h-1.59l0.65,0.61-1,.33c-0.08,1.19.63,1.33,1.64,1.29L260,162.64l2.35,1.54m-1.46,44.37h0c0.77-.76.77-0.76,1.4-3.48a1.14,1.14,0,0,0-1.57.52,8.07,8.07,0,0,1-1.42,1.25l-0.85.74,2.44,1m27.67-70.24h0l-0.11-.29c-3.22-.54-6.45-1.09-9.67-1.6a2.08,2.08,0,0,0-.79.22l0.07,0.31c3.08,0.6,6.17,1.21,9.26,1.76a3.1,3.1,0,0,0,1.25-.39M96.15,96.52h0l-0.07-.29c-0.35.08-.7,0.18-1.06,0.24a31.3,31.3,0,0,1-5.74.81c-1.36,0-2,.62-3.14,1.37a29.82,29.82,0,0,0,10-2.13M263.62,110h0l0,0c0.88,1,1.69,2.15,2.64,3.13,1.62,1.68,3.29,3.31,5,4.9a5.71,5.71,0,0,0,1.73.64l-9.33-8.7m0.67,35.94h0a4,4,0,0,0,.86.3c4.59,0.51,9.17,1,13.77,1.48a13.73,13.73,0,0,0,2.76-.29c0-.15,0-0.29,0-0.44-5.88,1-11.54-.75-17.36-1.06M213.18,56.75h0c0.08-1.42,2.49-2.15,1.06-4.2a11.74,11.74,0,0,0-2.05,1.38,3.87,3.87,0,0,0-.24,1.46c-0.26,1,0,1.53,1.23,1.36M102.38,118.23h0c-1.64,1-3.64,4.67-3.57,6.49,2.44-1.47,2.83-4,3.57-6.49M27,150.33h0c0-.12,0-0.24,0-0.36a2.59,2.59,0,0,0-1.1-.16q-3.65,1.32-7.25,2.76a2.25,2.25,0,0,0-.63.8l0.28,0.26,8.71-3.3M158.77,55.22h0l1.13,0.42c-2.35,1-4.87,0-7,1.27,3.82,0.61,7.17-.67,10.52-2-0.69-.07-1.54.24-2,0-1-.62-1.58.15-2.6,0.31m-11.12,49.27h0l-3.44,7.07c1.73-.1,4.18-4.65,3.44-7.07m60.85-43.84h0l3.73-3c-1.09-.42-2.12-0.43-1.87-1.82a4.47,4.47,0,0,0-1.86,4.78M275.62,4.86h0c-1-.75-1.35-0.72-2,0.29s-1.49,2.26-2.17,3.44c-0.5.87-.89,1.81-1.32,2.72l0.19,0.09,5.33-6.54M260.19,105.78h0a40.11,40.11,0,0,0,7.73,10.85c-1.41-3-4.12-5.08-5.4-8.16-0.43-1-1.53-1.8-2.33-2.69M50.94,130.71h0l-0.21-.46c-3.42,1.26-7.19,1.8-10,4.82l10.17-4.36m76.69-22.63h0l-7.73,3.73c1.37,0.4,6.57-1.47,8.48-3l-0.75-.68m14.49-38.61h0c2.33,1.7,4.34,1.35,7.92.32-1.41-.43-5.78-1.07-7.92-0.32m-19.56-3.68h0c3.37,0.12,11.26-1.21,12.57-2.11-6.36.17-10.94,0.93-12.57,2.11M284.07,139h0l0.07-.47-14.27-1.68a56.94,56.94,0,0,0,14.2,2.14m-47.15-11.22h0c0.31-1.21-.72-3.55-2.52-6l-0.31.7-1.55-4.06-0.37.17c0.55,3.53,2.77,6.21,4.75,9.15M123.73,90.36h0l-0.15-.21a24.25,24.25,0,0,0-2.28,1.26c-3.05,2.12-6.07,4.29-9.1,6.43a4.17,4.17,0,0,1-.95.51,6.76,6.76,0,0,1-1,.21L110.34,99a4.25,4.25,0,0,0,2.83-1.08c1.94-1.46,3.86-3,5.84-4.37,1.53-1.1,3.14-2.1,4.72-3.14m96.2-42.23h0a20.76,20.76,0,0,1-3.43.42c-1.46,0-1.11,2.11-2.6,1.87a0.67,0.67,0,0,0-.19.47,1.62,1.62,0,0,0,.65.84,1.47,1.47,0,0,0,1.13-.21c1.53-1.12,3-2.3,4.44-3.4M16.74,161.4h0L17,161.9,25.24,158A3.14,3.14,0,0,0,24,157.5c-2.4,1.32-5.36,1.7-7.25,3.9M186,59.2h0l-0.14-.3,4.29-3.13-0.2-.26c-2.66,1.17-4.45,3.54-6.85,5.08,3.8-1,6.79-3.31,9.72-5.76a3.33,3.33,0,0,0-1.74.46c-1.17.91-2.23,2-3.38,2.92a12.1,12.1,0,0,1-1.7,1M141.58,81.82h0l0.2,0.31,10.78-6.07c-1.51-.31-9.33,4-11,5.77m-17.27,45.24h0a4.21,4.21,0,0,0-2.77,1.82c-1.14,2-2.55,3.78-3.87,5.64a14.67,14.67,0,0,1-1,1.17l0.3,0.24c3-2.53,4.94-5.88,7.36-8.87m7.68,0.59h0c3.51-1.6,6.07-4.44,9.07-6.7a1.61,1.61,0,0,0,.08-0.75,14.57,14.57,0,0,0-2.46,1.4c-2.27,2-4.46,4-6.69,6.05m-118.35.61h0c4.06-.64,7.58-2.72,11.55-4a1.93,1.93,0,0,0-.48-0.48,55.25,55.25,0,0,0-11.07,4.5M161.48,97.59h0l-0.17-.4a6.09,6.09,0,0,0-1.85.84c-0.78.75-1.31,1.75-2,2.56-1.29,1.42-2.66,2.76-4,4.14l-1.12,1.18,0.24,0.19c0.26-.21.54-0.41,0.79-0.65,2.28-2.12,4.56-4.23,6.82-6.38a3.23,3.23,0,0,0,.41-1.07l0.93-.42m-8.09,5.18h0l4.71-8.16-0.25-.25c-0.72.61-1.48,1.17-2.16,1.83-1.85,1.78-1.75,4.29-2.3,6.58M199,54.57h0l2.24-.16c2.53-.16,3.85-1,4.49-2.9-1.87,0-5.71,1.73-6.73,3.06M17.61,111.87h0c-4-.79-7.63,1-11.39,1.79a35.33,35.33,0,0,0,11.39-1.79M163.93,98h0l-0.18-.31a4.43,4.43,0,0,0-1.63.61c-2.37,2.38-4.66,4.83-6.38,6.63,2.45-1.73,5.78-3.79,8.19-6.93M139.79,73.29h0l-0.12-.3c-1.25.45-2.52,0.84-3.73,1.35s-2.39,1.15-3.59,1.75-2.49,1.16-3.66,1.86-2.15,1.49-3.22,2.25l0.12,0.2,9.15-4.55-0.53-.05-0.09-.31,5.68-2.2M82.71,150.82h0l0.17,0.25c1.86-1.13,3.72-2.26,5.57-3.4,0.8-.5,1.86-0.51,2.4-1.54a19.26,19.26,0,0,1,1.9-2.53,4.91,4.91,0,0,0,.38-0.65l-10.41,7.87M274.5,61h0a9.73,9.73,0,0,0,1.83.48,4.66,4.66,0,0,1,3.26,1.38,2.84,2.84,0,0,0,1.17.52,8.18,8.18,0,0,0,1.21.21l1.94,0.27,0.44-.68a4.83,4.83,0,0,0-1.54-.89,15,15,0,0,0-2.76.11A4.18,4.18,0,0,0,274.5,61m-99.1,7.72h0c-1.85.44-7.62,4.53-7.63,5.72a5.53,5.53,0,0,0,2.08-.14,7.58,7.58,0,0,0,1.67-1.63l3.89-3.95M78.29,111.31h0l0.18,0.11c1.59-1,3.14-2.1,4.78-3s3.39-1.71,5-2.65a9.42,9.42,0,0,0,1.59-1.45L89.67,104c-1.1.57-2.23,1.1-3.29,1.73q-3.57,2.13-7.07,4.37a5.25,5.25,0,0,0-1,1.21m63.59-51.36h0c4.13-.19,8.31-0.13,12.05-2.12-4.14-.2-8.11.89-12.05,2.12m-28.12,72.73h0l-0.15-.14-7.78,7.13a4.84,4.84,0,0,0,1.28.82c0.58,0.12,2.6-1.59,2.7-2.18a0.28,0.28,0,0,0-.05-0.2c-0.5-.61,0-0.93.36-1.32,1.22-1.36,2.43-2.73,3.64-4.1M97.4,120.45h0c-1.66.74-6.56,7.7-6.43,9,0.55-.57,1.19-1.26,1.87-1.91A8.86,8.86,0,0,0,94.6,126c1-1.84,1.93-3.77,2.81-5.54m172.06-99.2h0l0.05,0.19a3.3,3.3,0,0,0,.56,0l8.43-1.5a2.52,2.52,0,0,0,2.18-2.18l-11.23,3.49M202.1,49.51h0l-0.11.34a1.81,1.81,0,0,0,.76.52,14.74,14.74,0,0,0,3.56-.43A8,8,0,0,0,209,48.28a19.1,19.1,0,0,0,2-2.4,3.06,3.06,0,0,0-.69.23c-1,.68-2,1.38-3,2.06a1.56,1.56,0,0,1-.77.42c-1.62-.18-3,0.51-4.46.92m-52.63,58.94h0a3,3,0,0,0,1.08-.58c0.89-2.83,1.73-5.67,2.64-8.69a3.07,3.07,0,0,0-2.29,2.73c-0.19,1.3-.56,2.57-0.85,3.85-0.18.79-.34,1.59-0.58,2.69m-68.52-6.19h0c6.41-.48,9.88-1.4,11.37-2.79-0.2,0-.35,0-0.49,0-3.15.58-6.3,1.14-9.43,1.79a4.75,4.75,0,0,0-1.44,1M101,143.15h0l0.3,0.27c0.59-.6,1.21-1.17,1.77-1.79s1-1.31,1.55-1.91c2-2.15,4.08-4.26,6.11-6.4,0.88-.93,1.72-1.91,2.59-2.87a5.32,5.32,0,0,0-2,1.28c-3.46,3.78-6.88,7.6-10.31,11.41M56,127.5h0a6.14,6.14,0,0,0-.9.09c-2.81.69-5.61,1.4-8.42,2.08a3.68,3.68,0,0,0-2.52,2.07c3.74-2,8.27-1.79,11.85-4.24m49.75-55.84h0c5.34-1.55,11.1-1.38,16.2-3.9-5.36,1.49-11.08,1.48-16.2,3.9m64.21,35h0l-9.51,3.63-0.12,1.6a37,37,0,0,0,9.63-5.23m-70.25,13h0c-1.88.91-4.83,6.15-4.71,8.57a8.45,8.45,0,0,0,2.06-2c1-2.15,1.8-4.42,2.65-6.59m-61.47,10h0L38.42,130c1.62-.7,3.28-1.33,4.85-2.13,0.85-.43,1.49-1.24,2.31-1.74,1.58-1,3.23-1.82,4.82-2.77a6.67,6.67,0,0,0,1.09-1L51.27,122l-13,7.59m204.51,1.28h0l0.23-.19-6.78-12.44a1.6,1.6,0,0,0,.11.76l3.1,7.62a1.28,1.28,0,0,1,.21.72c-0.42,1,.47,1.28,1,1.75l-0.31-1.2,0.19-.08,2.23,3.06M280.38,14.66h0l-8.05,4.47,0.21,0.47c2.6-.89,5.22-1.76,7.8-2.7a1.26,1.26,0,0,0,.47-1,4,4,0,0,0-.43-1.23m-207.32,87h0l0.09,0.18a12.3,12.3,0,0,0,2.42-.6c4.63-2.19,9.23-4.45,13.82-6.71a2,2,0,0,0,.5-0.77,91.37,91.37,0,0,0-8.69,3.7c-2.74,1.34-5.43,2.8-8.13,4.21m5.18,7.79h0l0.43,0.23c4.48-3.69,9.93-5.62,15-8.18-2.8.85-5.53,1.88-8.25,2.92a0.74,0.74,0,0,0-.41.33c0.18,0.85-.49.66-0.91,0.78a6.07,6.07,0,0,0-1.39.44c-1.32.76-2.62,1.54-3.88,2.39a3.08,3.08,0,0,0-.63,1.09m183.82,51h0c0.9,0.29,1.41.22,1.65-.62,0.32-1.09.69-2.17,1-3.14a7.77,7.77,0,0,1-2.51-.77,8,8,0,0,1-1.42-2.33c-0.48,2.32,1,3.07,2.49,3.74l-0.73,1.32-2.42-3.12-0.14.09,0.93,1.67c-1.16,1.39-1.36-.81-2.28-0.51,0,2.41,2.2,1,3,1.79l0.89,1.18-0.51.68M67.62,94.83h0l0,0.29c1.88-.34,3.78-0.59,5.63-1s3.56-1.06,5.35-1.56C79.82,92.21,81,92,82.22,91.7l-0.07-.29c-1.63-.36-12.35,2.18-14.53,3.43M42.74,117h0c0.74,0.76.82,0.71,2.08-.24q4.39-3.34,8.85-6.6c1.16-.86,2.37-1.66,3.55-2.48l-0.13-.25a2.9,2.9,0,0,0-.65.21c-4,2.41-8,4.77-11.51,8A14.75,14.75,0,0,1,42.74,117m80.79,15.42h0c2.24-1.18,10.59-8.41,11.21-9.71-2.7,1-5.41,3.32-11.21,9.71M53.09,160.48h0l0.13,0.22a28.12,28.12,0,0,0,2.69-1.09c2-1.06,4-2.18,6-3.3a2.08,2.08,0,0,0,.49-0.57,5.71,5.71,0,0,1,.83-1.05c1.19-.92,2.42-1.78,3.63-2.67l-0.23-.31-13.52,8.76M8.87,128.6h0L9,128.91c1.36-.51,2.74-1,4.09-1.53,3.62-1.46,7.22-3,10.86-4.38,0.72-.28.77-0.56,0.51-1.21-5.35,2-10.7,3.87-15.57,6.81M55.8,103.12h0l-0.46-.42c-3,2.43-6,4.86-9,7.27-0.77.61-1,1.71-2.56,1.63-1.07-.05-2.2,1.08-3.3,1.68l0.13,0.24c2-.91,4.51-0.64,6-2.79a7.54,7.54,0,0,1,1.76-1.58c2.22-1.66,4.47-3.27,6.68-4.94a4.28,4.28,0,0,0,.76-1.1m70-1.92h0c-3.18-.09-13.33,4-13.76,5.42,4.41-1.44,8.73-3.38,13.52-4.53l0.24-.89M101.5,137.06h0l-0.28-.36c-0.4.18-.8,0.35-1.19,0.55a13.19,13.19,0,0,0-4.64,4.23c-1.42,1.92-2.88,3.82-4.32,5.73l0.2,0.16,10.23-10.31M60.27,126.67h0c1.41-.22,2.83,0,3.73-1,1.47-1.7,2.77-3.54,4.14-5.32-1.51-.45-2,0-7.87,6.35m54-14.88h0c3.06,0.54,11.59-3,12.56-5.25l-12.56,5.25m-82.73-5.71h0l-17.21,4.37a46.33,46.33,0,0,0,6.34-.56c1-.16,1.9-0.8,2.89-1,2.63-.62,5.28-1.14,7.92-1.71a1.31,1.31,0,0,0,.27-0.13l-0.21-.94m17.66,34.48h0l-8.51,6.77,0.25,0.38a10.11,10.11,0,0,0,4.1-1.76c1.41-1.1,2.72-2.32,4.17-3.36,0.81-.58.84-1,0-2m19.26-33.95h0l19.3-10.2-0.18-.35c-0.3.12-.62,0.22-0.9,0.37l-12.26,6.32a12.29,12.29,0,0,1-3,1.38c-1.74.35-2.46,0.74-3,2.48M56.23,126.7h0c2.5,0.14,2.55.19,3.93-1.09,1.57-1.46,3-3,4.57-4.52,0.42-.42.86-0.81,1.32-1.24a1,1,0,0,0-1.65,0c-2.66,2.18-5.29,4.4-8.18,6.83M42.59,114.93h0l0.11,0.31a9.57,9.57,0,0,0,2.25-.85c3.62-2.56,7.18-5.2,10.77-7.79,0.66-.48.75-0.86-0.2-1.54-2.69,2.06-5.42,4.15-8.17,6.23-1.6,1.21-2.72,3-4.77,3.65m6.72,24.49h0l-0.45-.21a58,58,0,0,0-10.11,6.5l1.54,1.1c2.62-2.22,5.23-4.77,8.58-6.35a2.17,2.17,0,0,0,.44-1.05m61.22-.07h0a5,5,0,0,0,3.41-1.74c1.53-1.82,3.17-3.55,4.68-5.39,1-1.17,1.75-2.46,2.62-3.69l-0.4-.32c-3.78,3.39-6.49,7.78-10.3,11.14M89.07,91.27h0a76.5,76.5,0,0,0-13.78,8.06,1.23,1.23,0,0,0,.64-0.12c4.18-2,8.33-4,12.53-6,1-.48,1.21-1,0.6-2M28.21,162.69h0L28,162.42a29.56,29.56,0,0,0-4.52,2.33c-2.54,1.9-4.88,4-7.22,6,4.94-1.14,8.44-4.59,11.91-8.08m242.92-17.33h0l-0.07.31a8.41,8.41,0,0,0,1.85.39,52.17,52.17,0,0,0,6.12-.28c2.85-.38,5.68-1,8.51-1.51l0-.45a6.25,6.25,0,0,0-1.59-.21c-3,.36-6,0.81-9.07,1.18-1.92.24-3.85,0.39-5.77,0.57M48,122.77h0L48.19,123c5.89-3.6,11.74-7.25,16.47-12.74a2.39,2.39,0,0,0-.85,0c-1.26.87-2.53,1.75-3.74,2.68-0.22.17-.12,0.74-0.35,0.93-0.88.78-1.81,1.5-2.75,2.2q-4.46,3.35-8.93,6.67M260.46,24.06h0l2.82,1.35,4.3-1.73c-0.57-2.12-1.76-3.1-3-2.55l-1.5-.93-0.28.39c0.77,0.58,1.56,1.13,2.3,1.75,0.37,0.31.62,0.71,1.09,0.15a0.5,0.5,0,0,1,.48,0,0.5,0.5,0,0,1,.07.47,7.87,7.87,0,0,1-.53.9l-1.93-1.32a4.33,4.33,0,0,1-1.31-.88,3.28,3.28,0,0,0-3.09-1.5l3.12,2.6a7.38,7.38,0,0,1-1.14.9,7.72,7.72,0,0,1-1.38.41M7.53,154h0c3.28,0.39,13.75-2.44,17.06-4.51a2.69,2.69,0,0,0-1.35-.08c-1.76.57-3.64,0.42-5.38,1.5-1.59,1-3.67,1.18-5.54,1.72L7.53,154m51.17-44.84h0l-0.24-.31c-0.63.45-1.25,0.9-1.88,1.34-4.17,2.84-8.38,5.62-12.51,8.53-1.24.88-2.66,1.77-2.92,3.84l17.55-13.39m-26.62-1.4h0a1,1,0,0,0,.31.13c3.9-.9,7.82-1.72,11.68-2.74,2-.53,4.25-0.72,5.91-2.25a0.38,0.38,0,0,1,.31-0.1c1.39,0.85,1.86-.52,2.68-1.07-1.59.34-3.15,0.79-4.7,1.25-4.89,1.43-10,1.94-14.67,4.26a11.93,11.93,0,0,1-1.52.52m145.27-30h0c1.57-.75,3-1.33,4.32-2.1,4.19-2.43,8.22-5.14,12.86-6.75a6.3,6.3,0,0,0,1.25-.79,0.72,0.72,0,0,0-.63-0.06c-2.4,1-4.85,1.8-7.17,2.91-2.77,1.32-5.42,2.88-8.13,4.32a2.25,2.25,0,0,1-.84.23c-1.27.11-1.81,0.68-1.66,2.24M106.64,95.91h0l0.15,0.24c0.51-.12,1-0.27,1.55-0.36,2.87-.5,5.66-1.13,7.94-3.13,1-.84,2.07-1.53,3.12-2.28l2-1.43-0.2-.31c-5.15,1.85-9.65,5-14.57,7.27M24.73,162.38h0l-0.15-.26c-1.79.34-3.57,0.54-4.94,2.08a58.63,58.63,0,0,1-4.27,4c-0.5.46-1.05,0.87-1.57,1.31s-1,.84-1.45,1.26l0.24,0.36a42.77,42.77,0,0,0,4.92-2.73c2.06-1.5,3.91-3.28,5.86-4.93l1.36-1.14M171.51,61h0l-0.06-.32a36.72,36.72,0,0,0-16,6.19L156.2,67l0,0.19-3.54.87c2.27,0.43,7.56-1.23,8.87-2.67l-3.71,1.21-0.09-.26,8.5-3.08-0.1-.28-3.28.83-0.07-.28,8.7-2.55m63.84,49.38h0a3.93,3.93,0,0,0,0,1.11,33.85,33.85,0,0,0,1.1,4.07c0.81,2.18,1.78,4.31,2.66,6.47,1,2.47,2.9,4.46,3.87,7a18.65,18.65,0,0,0,1.94,3.32,5.43,5.43,0,0,0,1.07,1c-1.7-3.62-3.65-7-5.41-10.49-1.23-2.44-2.23-5-3.28-7.52-0.67-1.61-1.27-3.25-1.9-4.89M94.14,146.53h0c1.49-.63,2.66-1.12,3.83-1.63a1.37,1.37,0,0,0,.44-0.35q3.42-3.79,6.82-7.6a1.36,1.36,0,0,0,.09-0.65,1.54,1.54,0,0,0-.68,0,6.82,6.82,0,0,0-1.51,1q-3.64,3.58-7.21,7.22c-0.57.58-1.08,1.21-1.77,2M52.78,127.6h0a7.76,7.76,0,0,0,2.46-.89c3.12-2.62,6.13-5.36,9.2-8.07l-0.88-.9a46.41,46.41,0,0,0-10.79,9.87m-4.45,9.52h0c-5,2.74-10,5.47-14.08,9.54a15.27,15.27,0,0,0,3.61-1.37c3.35-2,6.58-4.21,10-6.15,1-.6,1.09-1,0.5-2m77.93-31.44h0c0-.13,0-0.26,0-0.39a2.17,2.17,0,0,0-1-.3c-1.26.43-2.5,0.93-3.72,1.46-3.31,1.44-6.61,2.93-9.93,4.38-2.42,1.06-4.63,2.29-5.07,5.57,0.71-1,1.23-1.72,1.8-2.44a3.05,3.05,0,0,1,1-1c4.18-1.79,8.4-3.52,12.58-5.3,1.46-.62,2.87-1.34,4.3-2M96.84,119.73h0l-0.21-.33a7.82,7.82,0,0,0-1.67.94,43.36,43.36,0,0,0-9.27,13c-0.13.28-.23,0.58-0.33,0.88l0.27,0.23A9.56,9.56,0,0,0,87.24,133a59.72,59.72,0,0,0,3.57-5.15,37.51,37.51,0,0,1,6-8.15M277.53,6.11h0l-0.13-.33a3,3,0,0,0-1.47,0,11.26,11.26,0,0,0-2.52,2.43c-2.39,3.52-4.67,7.11-7,10.69a2.21,2.21,0,0,0-.18.6l0.32,0.21L277.53,6.11M200.64,86.31h0l0.21-1.46,0.93,1.55,1.19-.82,0.41,0.87,1.1-.15c-0.13-1.86-2.05-1.09-3-2.21l5.34,0.6a2.24,2.24,0,0,0-.46-0.89c-1.29-.32-2.71-1-3.87-0.72a8.87,8.87,0,0,1-3.74.18c-1.47-.26-2.15.61-3,1.3a5.89,5.89,0,0,0-.81,1l4.73-.92,0.06,0.24-5.92,1.66c0.31,1.21,1,.69,1.45.49,1.71-.76,3.4-1.53,5.39-0.71m66.93-65.67h0l0.25,0.3c0.87-.45,1.77-0.86,2.61-1.37,1.09-.66,2.09-1.48,3.21-2.1,2.22-1.23,4.48-2.4,6.75-3.55,0.93-.47.71-0.92,0.11-1.43-0.41-.35-0.85-0.67-1.49-1.17l-11.44,9.32m12.91-.4h0l-11.31,2.12,0.07,0.46c3.5-.16,7-0.68,10.51-0.37,0,0.1,0,.2,0,0.29l-10.07.85-0.2.44a2.48,2.48,0,0,0,1,.73,13,13,0,0,0,3.3-.2c0.8-.18,1.94.26,2.32-1l2.83,0.83c1.51-.72,1-2.51,1.56-4.19M73,135.27h0l0.38,0.07c0.35-.38.73-0.74,1.06-1.14,2.71-3.25,5.34-6.56,8.13-9.73,2.24-2.56,4.68-4.95,7-7.43a1.92,1.92,0,0,0,.23-0.73,5.39,5.39,0,0,0-1.91,1.23c-3.05,3.11-6.19,6.14-9.07,9.39-2,2.31-3.74,4.91-5.57,7.4a2.79,2.79,0,0,0-.26.94m-7.12,22.07h0l0.06,0.28a2.52,2.52,0,0,0,.74-0.18c0.52-.31,1-0.69,1.49-1,2.8-1.88,5.61-3.75,8.4-5.65,1.51-1,2.94-2.16,4.49-3.13,2.44-1.52,4.95-2.93,7.41-4.41,0.77-.46,1.48-1,2.21-1.53l-0.19-.32a105.4,105.4,0,0,0-9.71,5.18c-5.1,3.4-10,7.17-14.91,10.79M197.23,61.06h0c-12.35.25-22.58,5.49-31.82,13a3.71,3.71,0,0,0,1.55-.57c1.61-1.1,3.18-2.24,4.77-3.37a17,17,0,0,1,2.12-1.49c2-1,3.93-2,6-2.76A85.2,85.2,0,0,1,188,63.15c3.05-.84,6.18-1.4,9.28-2.09M62.76,115.64h0a83.13,83.13,0,0,0-15,13,8.65,8.65,0,0,0,1-.08,8.9,8.9,0,0,0,4.41-3,49.68,49.68,0,0,1,9.36-8.06c0.92-.59.72-1,0.24-1.79M270.53,16.7h0l0.25,0.19L280,10.4a0.8,0.8,0,0,0-.19-0.47,1.74,1.74,0,0,1-.78-2.14,1,1,0,0,0-.56-0.73,1.13,1.13,0,0,0-.95.3c-1,1.21-2,2.45-3,3.71s-1.74,2.27-2.57,3.43c-0.52.71-1,1.47-1.46,2.2M36.45,138h0l-0.07-.05,4-3.25c-2.87.68-4.34,3-6.24,5l3.1-1.47c-1.29,1.69-3.67,2-4.6,4.09a31.18,31.18,0,0,0,4.38-2.57,45.17,45.17,0,0,1,10.35-5.53,2.75,2.75,0,0,0,1.91-2l-0.21-.34L36.45,138m53-48.21h0l-0.4-.56c-4.62,2.24-9.25,4.44-13.83,6.73-1,.49-2.13,1-2.4,2.28a5,5,0,0,1-2,2.73,2.67,2.67,0,0,0-.32.38,1.32,1.32,0,0,0,.77-0.23C74.18,99.12,77,97,80,95.18c2.58-1.6,5.34-2.91,8-4.38a14,14,0,0,0,1.43-1m-1.1,24.32h0c-3.26,3.4-6.54,6.52-9.45,9.95s-5.4,7.1-8.08,10.67l0.45,0.4a5.86,5.86,0,0,0,1.06-.89,72.74,72.74,0,0,1,4.31-6c4-4.43,8.15-8.71,12.32-13.13l-0.61-1m6.18,5.1h0c-0.68-.59-1.15.18-1.57,0.59a52.66,52.66,0,0,0-8.84,10.91,53.65,53.65,0,0,0-2.38,5.24,3.12,3.12,0,0,0,2.84-2.2,18.81,18.81,0,0,1,2-4.28c2.52-3.47,5.24-6.8,7.95-10.27M88.06,113h0l-0.36-.19c-0.45.4-.92,0.77-1.34,1.19q-4.4,4.34-8.79,8.71A42.59,42.59,0,0,0,71,131.3a6.8,6.8,0,0,0-.47,1.5l0.35,0.2a14.27,14.27,0,0,0,1-1.07c2.67-3.36,5.2-6.84,8-10.08,2.4-2.76,5.13-5.23,7.69-7.85a3.28,3.28,0,0,0,.45-1m74.33-58.87h0c2.43,0.73,4.54,0,6.64-.48,2.44-.6,4.82-1.45,7.27-2,3.67-.79,7.39-1.38,11.09-2.1,2-.38,3.9-0.84,5.85-1.26l-0.07-.35a188.53,188.53,0,0,0-30.77,6.16M202,61.78h0l-0.32-.28a83,83,0,0,0-22.45,11.77,1.92,1.92,0,0,0,.85-0.18c4.85-2.44,9.7-4.9,14.56-7.33,2.2-1.1,4.45-2.11,6.66-3.2a2.88,2.88,0,0,0,.7-0.78M261.59,198h0l0.13-.32,2.61,0.24c0-2.53-2-1.87-3.39-2.25a1.77,1.77,0,0,1,1.08-.63c1.13,0.21,2.22.58,3.2,0.86-0.15-.82-0.93-1.3-2.29-1.21a8.4,8.4,0,0,1-1.52-.17l0.05-.37a4,4,0,0,0,1-.15,3.82,3.82,0,0,0,.8-0.6c-0.21-.18-0.43-0.35-0.64-0.54s-0.64-.62-1-0.94l0.14-.12,2.37,1.3,0.37-.29a5.77,5.77,0,0,0-.68-1.61,18.59,18.59,0,0,0-2-1.82,9.81,9.81,0,0,0-2,1.79,23.83,23.83,0,0,0-1.56,3.46l2-1.48c0.59,1.32-.22,3,1.31,3.59l-0.21,2c2,0.28,1,2.29,2.05,3.1l0.41-1.23h0.8c0.51-2.51-2-1.78-3.07-2.66M93.41,141.17h0l-0.32-.41L67.25,158c8-3.69,15.94-7.43,22.46-13.49-4.22,2.57-8,5.87-12.63,7.77l16.33-11.09M171.92,75h0a0.9,0.9,0,0,0,1.34.83,7.91,7.91,0,0,0,2.07-.82c2.17-1.48,4.21-3.12,6.41-4.55a77.63,77.63,0,0,1,15.31-8c0.64-.24,1.28-0.5,1.91-0.75l1.86-.74c-3.72.61-7.05,2.17-10.42,3.69C183.95,67.54,178,71.39,171.92,75m-63.46,36.81h0c5.81-2.86,11.62-5.47,17.26-8.42a0.52,0.52,0,0,0-.5-0.14c-3.59,1-7.19,2-10.76,3.12a8.78,8.78,0,0,0-6,5.44m7.11-25.76h0c-4.12.81-20.38,11.46-23,14.87,1.74-.63,3.48-0.67,4.84-2a47,47,0,0,1,4.92-4c2.09-1.56,4.24-3.06,6.42-4.51s4.54-2.89,6.81-4.32M251.17,27.92h0l-0.27-.17c-3.1,2-5.88,4.79-5.82,7.22,1.41-.55,2.86-1.23,4.39-1.67,1.92-.55,3.9-0.91,6.07-1.4a8.15,8.15,0,0,1-1.22-1.67c-0.5-1.41-1.4-1.5-2.58-.94a4.85,4.85,0,0,0-.7.5l-1.29.93-0.15-.22,1.56-2.59m-181,99.43h0l0.4-.51c1.38-1.83,2.69-3.73,4.17-5.48a41.09,41.09,0,0,1,3.81-3.81c2.69-2.44,5.38-4.88,8.18-7.19a2,2,0,0,0,.75-2.18c-7.45,5-13.09,11.57-18.6,18.39l1.3,0.79m-3.31-1.26h0c0.7,0.44,1.33.6,1.82-.35a5.94,5.94,0,0,1,.85-1.19c2.55-2.87,5.17-5.69,7.66-8.61a41,41,0,0,1,9.71-8.16,6.57,6.57,0,0,0,1-.92,1,1,0,0,0-.88,0c-1.94,1.18-3.92,2.32-5.8,3.6a23.55,23.55,0,0,0-4,3.14c-2.13,2.25-4.1,4.66-6.07,7.05-1.46,1.75-2.83,3.58-4.27,5.41M87.73,111h0l-0.37-.23c-0.13.06-.26,0.1-0.39,0.17a3.45,3.45,0,0,0-.59.34,82,82,0,0,0-15.13,16,7.3,7.3,0,0,0-.66,2L71,129.44l0.62-.75c1.43-1.75,2.73-3.62,4.3-5.24,3.65-3.77,7.42-7.42,11.12-11.15a5,5,0,0,0,.68-1.33m3.52,6.83h0l-0.08-.42a2.8,2.8,0,0,0-1.1.29,27.44,27.44,0,0,0-2.36,2.3c-3.65,4-7.33,8-10.88,12.07a32.92,32.92,0,0,0-2.69,4.2l0.37,0.37c1.2-.72,2.65-1.23,3.55-2.22a30.71,30.71,0,0,0,2.83-4.48,68.26,68.26,0,0,1,10.38-12.12M174.34,65h0c3-1.86,4.86-5.05,8-6.76l0.21,0.22-4.22,3.91,0.25,0.25,5.82-5.14c-2.47.32-20.52,8.73-21.62,9.81,1.46-.17,3-0.4,4.48-0.51A3.56,3.56,0,0,0,170,65.52a9.4,9.4,0,0,1,1.19-1l0.19,0.2-0.69,1,0.17,0.16,4.89-4.34,0.21,0.25-4.28,4.45,0.17,0.19,6.13-6,0.29,0.28L174.34,65M61.87,109.86h0c-1.27-.48-1.3-0.52-2.4.28-1.32,1-2.57,2-3.88,3-3.71,2.76-7.45,5.48-11.14,8.26-1.06.79-2,1.74-3,2.57q-2.92,2.34-5.89,4.61a11.21,11.21,0,0,1-1.41.8,2,2,0,0,0,1.26-.14c2.3-1.24,4.66-2.4,6.85-3.81,1.17-.75,2-2,3-2.94,3.32-2.71,6.66-5.39,10.07-8,2.12-1.62,4.37-3.08,6.55-4.62M255.73,27.22h0a11,11,0,0,0,3.82,4.55,2.25,2.25,0,0,0,2.91-.42c1-1.15,1.95-2.3,2.83-3.52a6.89,6.89,0,0,0,.63-1.76l1.21-.13c0.06,1,.18,1.93.16,2.88s-0.17,2-.27,3c0.81-2.38,1.63-4.75.59-7.31a7.24,7.24,0,0,0-.85.34c-0.69.38-1.35,1.1-2,1.12a2.07,2.07,0,0,0-2,1.51,2.16,2.16,0,0,1-2.12,1.41h-3.31c-0.18-2.11,1.06-3.31,2.58-4.34l-0.3-.38-3.47,1.59,0.78,1.09a0.57,0.57,0,0,1-.11.18l-1,.21M92.67,118.62h0l0-.33a2.9,2.9,0,0,0-1.31.33c-2.3,2.46-4.64,4.89-6.78,7.49a55.36,55.36,0,0,0-4.19,6c-1,1.59-1.74,3.32-2.59,5a6.72,6.72,0,0,0-.27.75,11.49,11.49,0,0,0,1.73-.59A5.18,5.18,0,0,0,81.08,136a7.64,7.64,0,0,0,.94-2.28,22.69,22.69,0,0,1,4.07-7.21c2.12-2.7,4.38-5.29,6.58-7.93M48.42,134.38h0c-0.25.08-.5,0.14-0.74,0.23-0.5.19-1,.38-1.48,0.6a58.17,58.17,0,0,0-12.39,7.89,1.69,1.69,0,0,1-.74.48c-0.91.06-.91,0-0.75,0.89l3.15-1.85,0.23,0.26a4.94,4.94,0,0,1-.74.8c-0.65.45-1.36,0.82-2,1.26s-1.47,1-.57,2.06c0.18-.14.36-0.26,0.52-0.41a48.62,48.62,0,0,1,13.65-9,2.7,2.7,0,0,0,1.89-3.21M201.55,70h0l0.14,0.28,8.55-2.51a93,93,0,0,1-9.2,3.45,11.39,11.39,0,0,0-4.38,3.1,12.08,12.08,0,0,0-1.92,3,2.31,2.31,0,0,0,0,1l0.39,0.15a16.21,16.21,0,0,1,2.44-2.11c1.68-1,3.49-1.73,5.24-2.58l0.65-.33-0.06-.19-1.76.35-0.1-.28L207,71.08l-0.13-.33-3.26.72-0.09-.32,5.34-1.51-0.35-.28,6.14-2.45c-2-.88-3.72.46-5.42,0.69-2.62.35-5.12,1.56-7.67,2.4m-87,32.55h0l0.37,0.2a41.79,41.79,0,0,1,12.2-5,4.27,4.27,0,0,0,1.17-.81l-0.19-.32-8,2.35a2.29,2.29,0,0,1,.43-0.47l7.84-2.73c0.81-.28,1.61-0.62,2.41-0.94l-0.17-.5-7.87,1.9a0.42,0.42,0,0,1,0-.21,0.65,0.65,0,0,1,.25-0.21,27.33,27.33,0,0,1,9.82-2.3,35.86,35.86,0,0,0,3.94-.66l-0.05-.3c-1.86.16-3.72,0.29-5.57,0.5a46.59,46.59,0,0,0-6.66,1c-1.76.47-3.62,1.14-4.62,2.95a3.45,3.45,0,0,1-.62.91c-1.41,1.27-2.86,2.5-4.26,3.77a2.81,2.81,0,0,0-.44.89M94.13,76.17h0l11-2.77,0.08,0.33c-2,.52-4.06,1-6.07,1.58s-4,1.18-6,1.78-4,1.11-5.92,1.81-3.78,1.58-5.67,2.38l0.11,0.26c1.34-.42,2.67-0.88,4-1.26,2.66-.75,5.32-1.49,8-2.15a56.07,56.07,0,0,0,5.68-1.26c3.65-1.33,7.21-2.91,10.8-4.4,1.11-.46,2.2-0.94,3.3-1.42-7.75,1-16.21,3.27-19.29,5.11M209,62h0l0.15,0.35,2.77-.49a2.88,2.88,0,0,1,1-.2c2.18,0.48,4.16-.22,6.14-0.95l-1.74.26-0.17-.43,3.85-2.4L221,58l-2.39.92-0.24-.45c3.17-1,4.95-4.1,8.43-4.62l-0.2-.35-2,.42,0.8-1c-0.74.24-1.21,0.36-1.65,0.54-2.71,1.12-5.43,2.21-8.1,3.42a6.45,6.45,0,0,0-2.84,2A7.63,7.63,0,0,1,210.34,61c-0.45.33-.87,0.68-1.3,1M204,58h0c-1.38-.86-1.6-1-3.78-0.78-2.85.29-5.68,0.72-8.51,1.18s-5.3,1.93-8,2.81a37.1,37.1,0,0,0-6.22,3.11,17.44,17.44,0,0,0-2.26,1.76,2.77,2.77,0,0,0,1.57-.41,34.27,34.27,0,0,1,8.45-3.65,50.23,50.23,0,0,1,13.63-2c1.22,0,2.54.31,3.59-.69,0.46-.44,1-0.83,1.51-1.3m-132.65,38h0a1.13,1.13,0,0,0-.26-0.27,9.86,9.86,0,0,0-1,0,22.39,22.39,0,0,0-8.7,2.16c-2.67,1.25-4.77,2.94-4.37,6.32,0.18,1.54,1.57,3.7,3.25,3.78a1.7,1.7,0,0,1,.65.14,4.71,4.71,0,0,0,7-4c-1,.62-2.17,1.26-3.25,2-1.4,1-2.71.5-4-.18s-1.83-3.59-.84-4.39a12,12,0,0,1,3.44-2.47c2.11-.74,4.15-1.7,6.23-2.53a15.58,15.58,0,0,1,1.85-.49m3.33,12.43h0l-2.73.24a10.09,10.09,0,0,0-6.74,3.2c-1.39,1.49-2,4.56.4,6.24a5.61,5.61,0,0,0,6.75-.7A29.65,29.65,0,0,0,77,111.71c1.26-1.92.32-3.28-2.33-3.21m19-13.19h0c0.4-.06.85-0.15,1.31-0.21,2.86-.37,5-1.7,6-4.48A33.76,33.76,0,0,1,102.54,87c0.5-1,.16-2-1-2.09-1.63-.1-3.27-0.05-4.91-0.05a1.21,1.21,0,0,0-.41.17,17.24,17.24,0,0,1-1.85.79c-2.07.63-3,2.3-3.84,4C90,91,90.48,92,90.82,93a3.32,3.32,0,0,0,2.92,2.27m-28.33-2h0l0-.21-0.67.06c-0.91.06-1.37,0.84-2.05,1.22a31.91,31.91,0,0,1-4.28,1.87c-2.87,1.11-5.77,2.16-8.65,3.26a12.79,12.79,0,0,0-1.23.62l0.13,0.31L57.3,97.9l0.16,0.51-22.54,6.82L35,105.49l0.43-.1c5.61-1.43,11.23-2.84,16.82-4.31a42.77,42.77,0,0,0,4.83-1.57c0.63-.25,1-1,1.65-1.29A65.49,65.49,0,0,1,66,94.68c3.24-1.19,6.64-2,9.95-3,1.17-.36,2.25-1,3.42-1.31,3.73-1,7.49-2,11.23-3A1.68,1.68,0,0,0,91,87a2.77,2.77,0,0,0-.48,0c-3.07.74-6.12,1.55-9.2,2.22-1.49.33-3.05,0.32-4.55,0.63a32,32,0,0,0-5.72,1.57c-2.66,1.12-5.18,2.57-7.77,3.85a4.53,4.53,0,0,1-1,.24l-0.1-.31,3.24-2m114-7.67h0c1,0.19,2,.38,2.92.52A1.48,1.48,0,0,0,183,86l7.85-2.74c0.64-.22,1-0.54.51-1.23l-7.64,3-0.18-.44c1.72-.75,3.44-1.48,5.15-2.25,0.84-.38,2-0.4,2.13-2.07-1.09.35-2,.71-3,0.93-1.63.38-3.28,0.69-4.94,1a3.7,3.7,0,0,1-1.21-.33l2.61-.81c-1.06-.26-1.69-0.66-1-2.16-2.22.38-4.13,0.65-6,1-0.77.16-1.48,0.69-2.25,0.79-1.38.19-2.78,0.2-4.35,0.29l2.16,1c0,0.85-.22,1.58.05,1.86a4.14,4.14,0,0,0,1.79.85c1.9,0.58,3.75.13,5.6-.32V83.41c3.69-1.22,6-1.53,6.79-.86L180.93,84l0,0.17,1.15,0.17,0,0.35-2.78.93M11,155.68h0l-0.06.25c-0.23,0-.46,0-0.69,0a11.57,11.57,0,0,0-7.94,2.32,2.71,2.71,0,0,0-1.06,1.93,11.51,11.51,0,0,0,.87,3,5.14,5.14,0,0,0,2.76,3.17,4,4,0,0,0,2.52.29,20.94,20.94,0,0,0,4-1.64,12.59,12.59,0,0,0,5.53-5.65,4.57,4.57,0,0,0,.33-2.28,5.84,5.84,0,0,0-1.6-.34l-0.11,0-4.55-1m151.4-48.26h0l-0.8.16c-1.94.33-4,.4-5.66,1.6a4.25,4.25,0,0,1-1.35.6c-1.54.41-3.11,0.74-4.65,1.18a7.72,7.72,0,0,0-1.48.8l0.82,0.76-5,3.32,0.07,0.28c0.77-.18,1.54-0.4,2.31-0.54a1.65,1.65,0,0,1,1.12.08c0.39,0.81.95,0.51,1.45,0.3a45.82,45.82,0,0,0,5-2.27,40.35,40.35,0,0,0,4-3,0.61,0.61,0,0,0,.17-0.36,1.47,1.47,0,0,1,1.65-1.28l-0.94,1.09c5.64-2.1,11-3.95,16.12-6.61l-8.95,2.75-0.1-.29,7.39-2.76a2.28,2.28,0,0,0-1.36-.1c-1.08.23-2.18,0.43-3.23,0.75-2,.6-4,1.23-5.95,1.93-0.62.22-1.31,0.62-.64,1.6M36,116.23h0a13.38,13.38,0,0,0-7.2,1.73,7.62,7.62,0,0,0-2.59,2.52c-1.79,3.12,1.63,6.43,4.38,6.71a8.63,8.63,0,0,0,6.64-2.25,16,16,0,0,0,4.25-6.48,1,1,0,0,0-.78-1.42c-1.56-.28-3.12-0.54-4.69-0.82m32.46-28h0l-0.08-.19A9.51,9.51,0,0,1,70,87.29c3.56-1,7.13-2,10.72-2.87,3-.75,6-1.27,8.57-3.3l-13.87,4A32.61,32.61,0,0,1,81,82.79c3-.83,5.95-1.52,9-2.14a21.74,21.74,0,0,0,5.71-2.09l-0.11-.36L80,82.67l0.27-.82c-12.72,5.5-24.41,12.49-36.33,19.06,2.74-1,5.41-2.22,8-3.51,3.19-1.57,6.19-3.54,9.63-4.61a1.81,1.81,0,0,1,.62-0.16c0.53,0.85,1.13.2,1.66,0.07a31.43,31.43,0,0,0,3.28-1c3.14-1.17,6.27-2.39,9.4-3.58l-0.14-.37c-1.4.36-2.81,0.68-4.19,1.09-2.26.67-4.5,1.41-6.76,2.08a7.38,7.38,0,0,1-1.51.08,2.54,2.54,0,0,1,.41-0.43c4.84-1.38,9.68-2.74,14.51-4.16,1.25-.37,2.44-1,3.65-1.44l-0.12-.34L68.47,88.26m107.8-11.57h0c-0.45,0-.9,0-1.34,0-1.56,0-3.18.53-4.47-.92a2.14,2.14,0,0,0-1.4-.38,19,19,0,0,0-3.31.12,7.61,7.61,0,0,1-5-.8c-0.75-.4-0.75-0.91-0.06-1.43a9.17,9.17,0,0,0,1-1,3.13,3.13,0,0,0-1.39-.26,9.7,9.7,0,0,1-3-.14c-2.52-.92-4.63.56-7,0.85a6.11,6.11,0,0,0,1.3.74,1.31,1.31,0,0,1,.65.49c-0.2,1.26.7,1,1.37,1s1.61,0,2.41.06a1.94,1.94,0,0,1,1.17.55,6.05,6.05,0,0,0,5.13,2.37l3.21-.15,0,0.31-1.51.65c-0.7,1.43.11,1.87,1.3,2,0.6,0.09,1.2.21,1.8,0.25a6.65,6.65,0,0,0,3.19-.52,17,17,0,0,1,4.16-.63c0.89-.13,1.78-0.3,2.67-0.46l-0.07-.44-4.85.69-0.21-.26a1.72,1.72,0,0,1,.57-0.54,2.46,2.46,0,0,1,1,0,2.07,2.07,0,0,0,2.51-2.19M142.8,67.21h0l0.09,0.45c2.32-.56,4.68-1,7-1.72s4.52-1.6,6.74-2.5,4.3-1.84,6.44-2.76l0.2,0.44-10.85,4.83a7.23,7.23,0,0,0,2.42,0,46,46,0,0,0,4.81-2.23c3.22-1.63,6.41-3.31,9.62-5a6.39,6.39,0,0,1,1-.32l0.08,0.19-4.53,2.51,0.09,0.17,10.07-2.4-0.06-.24-6.6,1.17c1.42-.57,2.89-0.93,4.33-1.38,0.36-.11.59-0.65,1-0.78a17.39,17.39,0,0,1,2.2-.53c3.49-.78,7-1.57,10.46-2.32,2.23-.48,4.47-0.87,6.71-1.33s4.62-1,6.93-1.48a16.78,16.78,0,0,0,1.64-.54,2.24,2.24,0,0,0-2.71-1c-0.88.22-1.81,0.28-2.71,0.43-3,.53-6.2.65-8.87,2.46a0.46,0.46,0,0,1-.22,0,1.22,1.22,0,0,0-.92-0.58,7.05,7.05,0,0,0-1.8.3c-5.43,1.66-10.86,3.3-16.26,5s-10.78,3.5-16.14,5.34c-3.38,1.16-6.7,2.49-10,3.74M101.27,92.33h0l0.25,0.21c0.27-.14.54-0.28,0.8-0.43,3.58-2.1,7.13-4.24,10.74-6.28,3.31-1.87,6.95-3.16,9.87-5.73,1.15-1,2.73-1.31,3.94-2.54,1.37-1.39,3.52-2,5.31-3,1.24-.69,2.45-1.44,3.89-2.29l-4.07.51-0.1-.28,7.68-2.42a22.17,22.17,0,0,0-2.37.38c-2.35.46-4.74,0.78-6.86,2-1.25.72-2.51,1.44-3.8,2.08-1.81.89-3.72,1.58-5.48,2.55-2.29,1.27-4.48,2.71-6.69,4.11q-4.58,2.9-9.12,5.86a7.17,7.17,0,0,0-2,1.64,32,32,0,0,0-1.94,3.64M65.39,127.17h0c-5,.31-9.3,1.36-13.15,3.81a4.59,4.59,0,0,0-2.37,4.4c0.07,1,.1,2.09.26,3.12,0.46,3,1.13,3.67,3.64,3.89a8.32,8.32,0,0,0,4.1-.77c2.74-1.3,5.49-2.7,7.38-5.17,1.62-2.12,3.8-3.91,4.34-6.72,0.16-.82.33-1.66-0.74-1.92-1.29-.32-2.62-0.5-3.46-0.65m56.73-7.52h0c5.26-.11,10.22-2.06,15.5-2.17l0.21,0.9c2.07,0.38,3.56-.81,5.22-1.48l-0.07-.36-1.49.13,5.63-4.56-0.24-.29a2.61,2.61,0,0,0-.62.41c-0.3.35-.47,0.77-1.08,0.38a1.39,1.39,0,0,0-.93.25,12.37,12.37,0,0,1-1.92,1,21.38,21.38,0,0,1-2.43.28c-1.62.26-3.22,0.62-4.84,0.85a2.07,2.07,0,0,1-1.37-.29,2.66,2.66,0,0,1,.09-1.24c-1,.19-1.87.39-2.8,0.57-1.67.32-3.65,0.73-4.87-.27s-2.54-.66-3.82-0.75a48.3,48.3,0,0,0-5-.13c-1.83.07-3.66,0.32-5.51,0.49l1.06,1.15c-0.39.24-.77,0.51-1.18,0.72-0.81.41-1.64,0.79-2.46,1.19l0.14,0.43,7.39-1.17a4.79,4.79,0,0,1,.3,1c0.1,1.14.49,1.43,1.62,1.25,1.34-.22,2.68-0.37,4.38-0.6l-0.87,2.34m14.64-8h0a23.19,23.19,0,0,0,4.12-1.12c2.56-1.16,4.05-3.47,5.58-5.7,0.78-1.14,1.67-2.22,2.55-3.3a40.58,40.58,0,0,0,3.8-4.66c0.94-1.59.37-4.1-2.47-3.85a8.67,8.67,0,0,1-2.27.13,17.87,17.87,0,0,0-8.68.56,4.53,4.53,0,0,1-1,.18c-3.66.26-7,1.19-9.54,4s-2.86,5.32-.8,8.5a20.52,20.52,0,0,0,2.58,2.84c1.5,1.56,3.41,2.21,6.14,2.39m-104.46,19h0c-1.19.19-2.13,0.28-3,.49-2,.45-4.07,1.13-6.19.69-3.37-.7-6.7-1.55-10.2-1-2.32.38-4.66,0.69-6.14,2.78a12,12,0,0,0-2.05,4,9.49,9.49,0,0,0,0,4.55,7.91,7.91,0,0,0,3.55,4.86,5.54,5.54,0,0,0,1.57.65c3.32,0.87,6.37,0,9.2-1.62a39.63,39.63,0,0,0,4.92-3.47,10.18,10.18,0,0,0,3.9-5.28,3.91,3.91,0,0,1,.7-1.12A8.79,8.79,0,0,0,30,134.11a4.66,4.66,0,0,1,1.88-2.19c0.25-.2.51-0.38,0.76-0.56l-0.1-.16-1.46.54-0.08-.18,1.26-.89m56.35-20.35h0a7.52,7.52,0,0,0,4.12,6.87c3,1.58,6.24,2.17,9.15-.12a53.79,53.79,0,0,0,5.12-5.13,2.07,2.07,0,0,0,.29-0.82,4,4,0,0,1,.43-1.38c0.69-.84,1.57-1.53,2.26-2.36,1-1.19,1.88-2.47,2.83-3.69,0.71-.9.22-2.91-0.88-3.24a18.3,18.3,0,0,0-2.79-.58,20.54,20.54,0,0,0-8.17.65,48.55,48.55,0,0,0-7.83,2.62,7.08,7.08,0,0,0-4.53,7.18m11.65,23.63h0l-0.36-.2,0.31-1.35c-1.64,1.27-3.34,2.54-5,3.87a1.49,1.49,0,0,1-2.16-.07l1-1.15,0.7,0.91c1.31-1.11,2.53-2.18,3.79-3.2,0.63-.51,1.34-0.94,2-1.41l0.26,0.25,1.33-4.12-0.33-.28c-1,.58-2.53,1-2.86,1.79-0.44,1.14-1.23,1.21-2,1.47a11.53,11.53,0,0,0-4.84,2.81,2.06,2.06,0,0,0-1.25.08A30.87,30.87,0,0,1,88.21,135c-1.94.78-3.95,1.39-5.91,2.12-0.52.19-.95,0.61-1.46,0.83-1.41.61-2.85,1.16-4.19,1.71L76.9,141l-1.2-.15a4.82,4.82,0,0,0,5.1-.28,4.73,4.73,0,0,1,1.26-.94,3.12,3.12,0,0,1,1.19,0c-0.13.35-.25,0.7-0.41,1a4.34,4.34,0,0,1-.54.65,8.07,8.07,0,0,1,1.88-.18c2.07,0.33,3.66-.79,5.39-1.55a0.41,0.41,0,0,0,.24-0.21c-0.07-1,.84-1.25,1.48-1.65a6.64,6.64,0,0,1,1.3-.5l0.23,1.37c0.64-.32,1.27-0.62,1.9-0.95,1.65-.86,3.08-1.95,5.18-2.1,3-.22,5.66-1.67,8.22-3.2,2.38-1.42,4.7-2.94,7.14-4.25a35.72,35.72,0,0,0,7.12-5.48,1.63,1.63,0,0,0,.17-0.53l-4.13,1.36-0.09-.3,1.18-1c-1.5,0-2.68.44-3.24,1.87a12.17,12.17,0,0,1-1.13,2.09,2.18,2.18,0,0,1-.78.46,2.8,2.8,0,0,1,.1-1c0.37-.74.82-1.44,1.35-2.33l-2.65.51-0.1-.31,3.4-1.28,0.05-.32a2.11,2.11,0,0,0-1-.24,14.43,14.43,0,0,0-2.28,1,1.84,1.84,0,0,0-.64.76c-0.28.51-.44,1.09-0.75,1.58a15.3,15.3,0,0,1-1.13,1.44c-0.66-.18-0.66-0.42-0.24-1s1.5-1.08.81-2.11l-1.21.18-0.09-.24,2.43-1.28c-1.2-.61-1.88.16-2.64,0.37s-1.68.57-2.52,0.87l-0.11-.26,5.34-2.46c-1.89.55-3.74,1.17-5.59,1.78a5.69,5.69,0,0,0-1.4.36c-1.23.83-2.39,1.75-3.56,2.67a4.59,4.59,0,0,0-.63,1,13.9,13.9,0,0,1,1.81-.48,1.77,1.77,0,0,1,.74.33,3.18,3.18,0,0,1-.34.62,2.65,2.65,0,0,0-.65.58c-0.34,1.25-.6,2.52-0.89,3.78l0.18,0.17,3.25-3.64c0.81,0.25-.47,1.71.9,1.67a11.76,11.76,0,0,0,1.22-1.05c0.36-.41.6-0.92,1-1.35s0.68-.41.81,0.21a0.82,0.82,0,0,0,.12.23l0.93-.52c-0.34,1.69-1.18,2.3-2.4,1.94-0.77.72-1.5,1.44-2.26,2.12a0.69,0.69,0,0,1-.58.17,0.78,0.78,0,0,1-.28-0.54,2.46,2.46,0,0,1,.08-0.66,12.67,12.67,0,0,0-2.44,1.93c-0.75.72-1.46,1.48-2.19,2.22M25.35,156h0l0.08,0.27a37.42,37.42,0,0,0,3.83,0,15.22,15.22,0,0,0,2.85-.76,2,2,0,0,1,2.63.92,31.11,31.11,0,0,0,3.69-1.08c1.65-.7,3.63-0.73,4.89-2.26a0.75,0.75,0,0,1,.61-0.11c0.59,0.13,1.17.32,1.76,0.49l0,0.31,0.59-.55,0.67,0.53-1.05,1.56a5.25,5.25,0,0,0,3.4-2.36,8.35,8.35,0,0,1,1.69-1.5l0.21,0.25L50.44,153c1.4-.5,2.71-1,4-1.41a2.12,2.12,0,0,1,.83.09,2.92,2.92,0,0,1-.23.89c-0.18.28-.57,0.42-0.73,0.7a1.3,1.3,0,0,0-.23,1,1.06,1.06,0,0,0,.91.38,4.71,4.71,0,0,0,1.58-.59c1.17-.7,2.31-1.46,3.45-2.22s2.28-1.65,3.51-2.33c1.07-.59,1.29-0.41,1.62,1a28.82,28.82,0,0,0,3-1.6c1.78-1.22,3.46-2.59,5.22-3.84a4.25,4.25,0,0,1,1.44-.52,6.12,6.12,0,0,0,3-1.74c-1-.48-2-1-3-1.36a1.59,1.59,0,0,0-1.06.07q-3.23,1.3-6.44,2.66-4.3,1.82-8.59,3.69c-0.71.31-1.07,0.07-1-.61a12.6,12.6,0,0,1,.38-1.93,3.34,3.34,0,0,0-.62.07c-0.74.2-1.47,0.42-2.2,0.65a19.14,19.14,0,0,0-2.42.83c-1,.47-1.88,1.2-2.91,1.57a2.06,2.06,0,0,1-1.74-.44,2.74,2.74,0,0,0-3.66-.5c-1.14.84-2.44,0.86-3.67,1.21-1.64.47-2.31,0-2.79-1.87L17.78,154.6c3.42,0,6.79-.86,10.52,0L25.35,156M155.76,59.1h0l-0.07-.17c-2.23.54-4.48,1-6.67,1.64q-7.19,2.1-14.33,4.36c-2.79.88-5.54,1.89-8.64,3l0.8-1C112.23,72.3,98,77.81,84.43,85.06a6.19,6.19,0,0,0,1.22-.13,9.94,9.94,0,0,1,1.13,0l0.06,0.35a24.73,24.73,0,0,0-10.46,3.88c1-.15,2.07-0.28,3.1-0.47,1.68-.31,3.38-0.58,5-1a38.17,38.17,0,0,0,3.64-1.41,1.27,1.27,0,0,1,.66-0.14,3.8,3.8,0,0,0,4.1-1.36l-3.71.64-0.05-.23,9-2.33c0.35,1,1.22,1,2.51.26l-0.47-.51,10.27-4.14-0.08-.26L103.27,80l-0.1-.32a3.45,3.45,0,0,1,.56-0.27c4.8-1.38,9.58-2.81,14.4-4.09,2.94-.78,6-1.28,8.93-2a8.49,8.49,0,0,0,1.8-.9l-0.12-.29L113.2,75.75a2.09,2.09,0,0,1,1.07-.74c0.69-.21,1.4-0.38,2.11-0.55,4.45-1,8.9-2.11,13.37-3.07a8.76,8.76,0,0,0,4-1.61L119.07,73l-0.12-.39a4,4,0,0,1,.85-0.39,66,66,0,0,0,7-1.8c4.62-1.44,9.41-2.36,14.12-3.54,1.75-.44,3.45-1,5.18-1.57L146,64.91l-8.54,1.88a3.53,3.53,0,0,1,1.64-.8c2.78-.61,5.59-1.07,8.33-1.83,3.45-1,6.84-2.12,10.24-3.23q7.35-2.39,14.68-4.82c1.37-.45,2.74-0.93,4.05-1.51,1.16-.51,2.24-1.19,3.52-1.89l-0.49,1,4.85-2.44,0.15,0.27-2.14,1.33,0.21,0.35,5.25-2.74-0.16-.39c-11.47,1.87-22.52,5.29-33.52,9h1.67ZM320,97.53h0a2.43,2.43,0,0,1-.34-0.94c0.08-.8.28-1.59,0.43-2.39a2.47,2.47,0,0,0,.39-0.77c0.2-1.82.44-3.65,0.48-5.47a15.45,15.45,0,0,0-.5-3l-0.34.06v9.19l-0.48,0a6.85,6.85,0,0,0,.13-0.89c0-2.64.73-5.36-1.08-7.76-0.83-1.1-1.56-2.29-2.39-3.39-0.6-.8-1.28-1.53-1.93-2.29l0.25-.19L319,85l0.37-.18a16.16,16.16,0,0,0-.92-2.66,12.63,12.63,0,0,0-1.59-1.84,1,1,0,0,1-.18-0.56c0.75-.39.15-0.77-0.06-1-0.94-1.14-1.94-2.23-2.92-3.35a1.59,1.59,0,0,1-.16-0.38l0.95,0.48A8.83,8.83,0,0,1,313,73.62a41.62,41.62,0,0,0-3.23-5.49c-1.73-3-4.17-5.52-6.29-8.26a6.51,6.51,0,0,1-.46-0.8l0.31-.21,6.3,7.89c0.53-4.14-13-17.19-19-18.27l2.57,2.95-0.31.26c-0.54-.59-1-1.22-1.64-1.76-1-.93-1.5-2.52-3.29-2.55l2.3,2.2-0.26.26c-1.56-1.07-2.68-2.83-5-3.27l0.83,1c-7.68-4-11.47-4.23-13.1-3.8,2,0.89,3.93,1.73,5.86,2.65s3.76,1.9,5.64,2.85l-0.27.53-1.86-1L282,49l1.77,1.56-0.14.26-1.72-.93L281.7,50l1.19,1.38a66.66,66.66,0,0,0-10.14-5.85A42.57,42.57,0,0,0,277,48.38c1.53,0.94,3,1.93,4.55,2.9l-0.26.41-1.3-.79c-0.68-.41-1.45-1.26-2-1.14-1,.23-1.59-0.39-2.33-0.7-1-.4-1.92-0.86-2.87-1.29-0.47.85-.07,1.12,0.57,1.34,1.59,0.55,3.16,1.14,4.74,1.72l-0.1.29-5.21-1.5-0.17.46,2,0.77,4.9,2L272.83,51l-0.17,3,5.71,1.06,0.12-.52-4.74-1.3c0.82-.39.82-0.39,3.44,0.11l2.27-.52c1.76,0.93,3.94,1.23,5,3.15a31.16,31.16,0,0,1-3.33-1.42c-2.5-1.23-2.5-1.24-3.28-.7l3.24,1.32a7.7,7.7,0,0,0-5.48,1,4.77,4.77,0,0,0,1.41.63l3.23,0.93L275,57a12.17,12.17,0,0,0,2.59,1.82,1.73,1.73,0,0,0,.85.23,5,5,0,0,1,4,1.8,2.76,2.76,0,0,0,3.2.87l-1.93-2.46a1.09,1.09,0,0,1,1.53,0l2,1.34a2.13,2.13,0,0,0-.16-0.74c-1.37-.95-2.75-1.89-4.16-2.79a2.24,2.24,0,0,0-.9,0c-0.29,0-.58-0.07-0.87-0.11l0.11-.6L283,56.68a4,4,0,0,0,1.69.23,2.7,2.7,0,0,1,2.67.38c1.79,1.23,3.28,2.88,5.33,3.75a4.42,4.42,0,0,1,.83.61l-1.5-.2c-1.85-.2-2.32-2.51-4.41-2.89-0.72-1.33-1.19-1.56-2.55-1,1.57,1.27,3.09,2.55,4.67,3.74a12.61,12.61,0,0,0,2.52,1.46c1.47,0.64,3,1.16,4,2.62l-3.94-2.14,0.48,1.19-1.27-1-0.24.2,2,3.23-0.09,0-3.62-3.85-0.41.24,0.65,2.64c-1.45-1.07-2.79-2.62-4.9-3.15a2,2,0,0,0,1.63,1.69,2.17,2.17,0,0,1,1.83,2.14L287.41,66c-0.14.65,1.15,1,.19,1.7-0.68-1.91-1.78-2.85-3.49-2.8a2.77,2.77,0,0,0,.52,1.24c0.95,0.59,2,1,3,1.53L293,71.13a3.1,3.1,0,0,0-1.19.19c-0.39.79-.95,0.38-1.35,0.18a13.64,13.64,0,0,0-4-1.81,14.68,14.68,0,0,1-3.6-1.61c-0.08,0-.1-0.19-0.18-0.23l-1.82-1.09a1.66,1.66,0,0,1-.55-0.29c-1-1.49-2.51-1.34-4-1.44a13.45,13.45,0,0,0,1.79.86,11.07,11.07,0,0,1,1.9,1.23,13.45,13.45,0,0,1,1.32,1.4l-0.14.07-3.52-2.37-0.25.34,3.09,2.52-0.22.32-2-1.16-0.21.35c1.8,1.51,4.2,2.11,6.1,3.49-1.79.59-2.9-.77-4.48-1.39a2.85,2.85,0,0,0,.53.94c1,0.59,2,1.12,3,1.67a1.47,1.47,0,0,1,.65.37,4,4,0,0,0,2.28,2.66,22.32,22.32,0,0,1,2.31,1.46c0.91,0.61,1.8,1.25,2.71,1.87l0.17-.21-4.55-4.18a28.37,28.37,0,0,1,8.41,8.46,1.58,1.58,0,0,1-1.06-.39,29.3,29.3,0,0,0-6.45-5.7c-1-.63-2-1.11-3-1.67l-0.07.19,0.91,1-0.23.22-1.1-.63,0.13,0.79,0,0-1-.49,0.54,1.16-2.43-1.38-0.21.19a8.38,8.38,0,0,0,.73.95c0.48,0.48,1.06.88,1.51,1.38,1.18,1.33,2.27,2.73,3.46,4.05a6.22,6.22,0,0,0,1.35.88l-0.56.54L282,78.59c0.14,3.08,2.88,4,4,6.09l-1.41-1.31a3,3,0,0,0,.74,1.61c0.82,0.85.85,0.82,0.73,1.25-2-.72-3.46-1.84-3.75-4.1a8.39,8.39,0,0,0-.78-2.32c-2.63-5.8-5.15-11.66-8-17.35-1.92-3.82-2.15-7.8-2.17-11.87,0-1.92.12-3.83,0.21-5.75,0-.61.13-1.22,0.19-1.83L271.51,43l-0.68,1.58-0.31-.1a12.64,12.64,0,0,1,.84-2.56c0.74-1.29.47-2.58,0.27-3.92L271,39.69l-0.25,0,0.41-5.09-0.63.21,0.33-1.84-1.05.12,0.72-1.43L268.63,28c-0.45,1.8-.95,3.33-1.19,4.89a3.5,3.5,0,0,1-1.82,2.41c-2.23,1.15-2.76,3.29-3.89,5.08L262,40.57l1.61-2L264,38.71c-1,1.4-2.12,2.76-1.48,4.66l1.28-1.86,0.34,0.24-1.83,3.17,0.33,0.22,1.08-1.21L264,44.13l-2.33,2.93L262,47.36l0.93-1.48c0,1.44-1.76,2-1.27,3.63l0.86-.35-1.1,2,0.29,0.18L264,47.93l0.34,0.2-3.13,5,0.34,0.26,2.92-3.3c-0.31,1.67-1.51,2.63-2.66,3.66a12.1,12.1,0,0,0-1.47,1.93l0.36,0.28,3.93-3.63a1.89,1.89,0,0,1-.47,1.1c-0.89.87-1.85,1.68-2.76,2.54s-1.86,1.32-2,2.73l4.69-4c-0.55,1.42-1.8,2.15-2.92,3.06A7.34,7.34,0,0,0,258.74,61l4.49-3.82c-1.9,2.72-4.69,4.8-6.29,7.75l0.3,0.23,4.41-5.42L262,60c-0.9,1.17-1.87,2.29-2.67,3.52s-1.4,2.5-2.1,3.76l0.21,0.11,3.13-4.63L260.91,63c-0.46.79-.93,1.58-1.38,2.37a1.79,1.79,0,0,0-.26.68,7.33,7.33,0,0,1-.06,1.58c-0.47,1.43-1.05,2.84-1.59,4.25L258,72l1.63-3.74L260,68.43a13.11,13.11,0,0,1-.68,1.86,28.27,28.27,0,0,0-2.85,8.32,11.42,11.42,0,0,0-.3,1.89,3.73,3.73,0,0,0,.38,1.16l0.34-.07c-0.35-4.13,1.69-7.55,3.1-11.15-0.1,1.78-.41,3.52-0.43,5.27a36.89,36.89,0,0,0,.42,5.36c0.23,1.73.65,3.43,1,5.14l-0.48.08L259,77.91l-0.29.06c-0.1,3.89,1.14,7.54,2.2,11.34L260,88.56l-1.28-5.72-0.42.09a17.21,17.21,0,0,0,.41,2c0.4,1.22.87,2.42,1.32,3.63l0.74,2.09-0.43.17a82,82,0,0,1-3-7.63,35.72,35.72,0,0,0,2.57,9.89,24,24,0,0,1-3.2-8.38,0.82,0.82,0,0,0-.25.21,15.17,15.17,0,0,0,1.2,7.36c1.06,2.17,2.4,4.2,3.06,6.58a18.89,18.89,0,0,0,6.27,9.59,3.66,3.66,0,0,1,.36.41,17.66,17.66,0,0,1-5.42-4.58,1.22,1.22,0,0,0-1.55-.58,9.81,9.81,0,0,0-.18-1.19c-0.73-2.67-1.47-5.33-2.25-8a3.46,3.46,0,0,0-.74-1,5.23,5.23,0,0,0-.11,2.08c0.31,2.18.33,4.45,2,6.22a12.91,12.91,0,0,1,1.24,1.82c1.34,1.33,2.65,2.68,4,4s2.6,2.38,3.9,3.56l0,0a3.26,3.26,0,0,1-.7-0.31c-1.65-1.24-3.28-2.5-4.91-3.75a53.94,53.94,0,0,0,10.74,11,36.73,36.73,0,0,0,12.76,6.51,0.78,0.78,0,0,1-.35.2c-3.31-.78-6.61-1.58-10.19-2.44l4.91,1.86-0.11.25-1.82-.2-0.12.27,1.08,0.93-0.11.17L270,120.55l-0.26.39c1.1,0.84,2.17,1.71,3.31,2.5a23.55,23.55,0,0,0,2.33,1.32c0.47,0.25,1,.47,1.43.69l-0.16.39h-1.18c0.84,0.48,1.49.85,2.14,1.24s1.22,0.77,1.83,1.15l-0.3.45c-2.3-1.36-4.62-2.71-6.9-4.11a2.45,2.45,0,0,1-.4-1,1.35,1.35,0,0,0-.32-0.4c-2.86-2.66-5.75-5.29-8.57-8-1.13-1.08-2.62-1.82-3.24-3.4a8.45,8.45,0,0,0-1-1.6,32,32,0,0,1-5-9.5A45.16,45.16,0,0,1,252,86.93c0-.55,0-1.1,0-1.62-2.3-.44-2.3-0.44-4.38.49-1.27.56-2.84,2.52-2.7,3.37l0.73,0.05a70.59,70.59,0,0,0-5.45,18.27h-0.34l-0.18-2.84-0.33,0a3.68,3.68,0,0,0-.3,1.11c0,0.9.22,1.79,0.29,2.69,0.16,2.29.27,4.58,0.43,6.87,0.06,0.86.19,1.71,0.29,2.56l-0.46.08-1-4.24a4.15,4.15,0,0,0-.12,2.35,41.79,41.79,0,0,0,3,5.68,35.82,35.82,0,0,0,3.32,3.92c1.2,1.36,2.39,2.73,3.65,4,1.71,1.78,3.47,3.52,5.23,5.29-2.71-.75-3.94-3.29-6.06-4.8l2.35,3.41-0.77.2,2.35,2.5c0.6,0.63,1.49,1.18,1.69,1.92a2,2,0,0,0,.79,1.38,9.78,9.78,0,0,0,1.64.8c2.65,1,5.29,1.94,8,2.84a9.76,9.76,0,0,0,2.12.23l0.08-.41c-2.65-1-5.31-2-8-3.08a3.46,3.46,0,0,1-.85-0.73l0,0a2.66,2.66,0,0,1,.66.08c2.16,0.86,4.36,1.64,6.46,2.63a11.57,11.57,0,0,0,6.13,1.29c3.42-.34,6.83-0.79,10.25-1.16,0.92-.1,1.86-0.11,2.79-0.15l0,0.42-17,1.85c4.06,1.12,7.79,0,11.5-.28s7.54-1,11.32-1.47l0.12,0.92,6.11-1.58-0.08-.37h-1.64L297,140c-2.35-.37-4.33.39-6.41,0.09a67.27,67.27,0,0,0-7.2-.34,2,2,0,0,0-1.1,0c-0.57.79-1.22,0.39-1.84,0.25-2.51-.57-5-1.18-7.53-1.77l-0.1.37,8.91,2.15,0,0.29c-4.66,1.09-9.41.62-14.12,0.68,1.68-1.6,3.71-.27,5.54-0.76l-3.85-.88,0.1-.43a42.4,42.4,0,0,1,5.51,1.13,8.92,8.92,0,0,0,4,0,21.35,21.35,0,0,0-3-.9,16,16,0,0,1-4.53-1.72c-1.45-.86-3.33-1-5-1.48-0.95-.29-1.85-0.7-2.78-1.05l0.09-.47c1.69,0.92,3.43.66,5.18,0.52a8.34,8.34,0,0,1-1.38-.45c-1.26-.8-2.47-1.68-3.7-2.52l-3.8-2.57,0,0a1.86,1.86,0,0,1,.67.1c2.22,1.31,4.43,2.64,6.64,4a9.43,9.43,0,0,0,5.22,1,41.2,41.2,0,0,1-12.13-6.07c4,1.33,7.08,4.84,12,4.68-1.84-.72-3.44-1.31-5-2s-3.18-1.45-4.74-2.25-2.9-1.61-4.35-2.42l0.19-.32a32.82,32.82,0,0,0,2.86,1.69c2.37,1.11,4.82,2.07,7.18,3.22a36.63,36.63,0,0,0,10.7,2.93,9.7,9.7,0,0,0,2.15-.14c-1.84-.51-3.63-0.85-5.42-1.18-1.14-.21-2.28-0.4-3.42-0.59l0-.2,6,0.58c-5.82-.82-16.22-5-18.85-7.37,0.77,0.31,1.24.5,1.71,0.7,2.58,1.13,5.14,2.31,7.74,3.4a34.22,34.22,0,0,0,11.22,2.51,24.18,24.18,0,0,0,4.65-.21c1.68-.23,3.32-0.7,5-1.06-2.92,1.46-6.17,1.53-9.28,2.23a6.06,6.06,0,0,0,1.56,0,13,13,0,0,1,1.45.11,4.71,4.71,0,0,0,1.7.17c2.14-.68,4.24-1.5,6.36-2.24,0.66-.23,1.39-0.31,2-0.59,0.85-.38,1.6-1,2.45-1.32a8.06,8.06,0,0,1,1.85-.32c-5.52,2.43-11,4.94-17,5.88l0.06,0.44h10a8.19,8.19,0,0,1-2.87.64c-2.62-.15-5.23-0.51-7.85-0.76a2.92,2.92,0,0,0-.89.36,10.32,10.32,0,0,0,1.29.41c2.34,0.34,4.7.65,7,1a6.61,6.61,0,0,1,1.27.49c5.93-1.77,11.22-5.32,17-7.86l0.16,0.29-11.21,6c8.38-2.24,12.22-5.56,16-11.45H309.2c-0.3-1.61-.71-3.21-0.87-4.83-0.2-2.11.39-4.2,1.18-4.67-0.06.32-.11,0.56-0.15,0.81-0.4,2.33-1,4.67-.08,7,0.19,0.51.21,1.29,1.13,1.09a1.28,1.28,0,0,0,1.07-1.53l-0.28-.16-0.74,1.18a1.88,1.88,0,0,1-.12-1.1c0.1-1.36.27-2.73,0.27-4.1a3.41,3.41,0,0,1,1.82-2.9l-1.25,1.85,0.27,0.22,2.67-3.2,0.07,0.09-1.05,2,3.15-1.21,0.13,0.3-4,1.75,0.16,0.34c1.33-.51,3-0.68,3.93-1.59a12,12,0,0,0,3.55-6.25l-1,1c0.83-1.78,2-3.38,2.68-5.14a44.49,44.49,0,0,0,1.49-5.68L323,100l-2.41,7a5.66,5.66,0,0,0-.32-0.56,0.79,0.79,0,0,0-.19-0.13l-1.34,2.37a1,1,0,0,1,.07-0.76c1.22-3.16,2.46-6.32,3.65-9.49a3,3,0,0,0,0-1c-1.05,2.07-1.75,4.14-2.68,6.1-1.08,2.26-2.11,4.58-4.09,6.28-0.26.23-.51,0.47-0.77,0.71a8.38,8.38,0,0,1,1-1.77c0.37-.62.66-1.27,1-1.91a0.68,0.68,0,0,1,.28-0.31c0.84,0.31.89-.43,1.12-0.84a27.24,27.24,0,0,0,1.67-3.32c0.66-1.74,1.17-3.53,1.75-5.3-1.56,2.3-2,5.14-4.27,7a12,12,0,0,0-1.49,2.12,4.48,4.48,0,0,1-1,.66l0.32-1.16,0,0a20.91,20.91,0,0,0,2.28-2.88c0.94-1.7,1.64-3.53,2.44-5.31a17.25,17.25,0,0,0,1.46-6.39q-0.81,2.86-1.53,5.73a1.93,1.93,0,0,0,.08.66M0,117.81v0.94l3.36,0.17,0.1-.44a5.86,5.86,0,0,0-.92-0.3L0,117.81M163.88,91.64h0l0,0,3,0.38,0,0.25-3.66,1,0.05,0.34a3.35,3.35,0,0,0,1.2.23c1.78-.37,3.56-0.75,5.31-1.25,2.11-.61,4.17-1.41,6.29-2,1.54-.43,3.15-0.64,4.73-0.95l0.09,0.29-4.43,1.57H179c0,0.06,0,.11,0,0.17l-4.84,1.49,0,0.11,2.44-.11,0.06,0.42-5.45,1.2,0.08,0.43h2.48l0.07,0.31-1.58.65,0.07,0.19,6-1.52-0.84-.46,0.07-.31c0.39,0,.78,0,1.16-0.07,1-.15,2.13-0.07,2.83-0.58a7.79,7.79,0,0,1,2.57-1.16c1.27-.36,2.52-0.75,3.78-1.13l-0.07-.27c-0.88.15-1.76,0.35-2.65,0.43a3.06,3.06,0,0,1-1.07-.32L185,90c-0.87.07-1.66,0.12-2.44,0.19s-1.6.06-1.31-1.17l-0.55,0a20.2,20.2,0,0,1-4,.14c-0.83-.13-1.62-0.64-2.52-0.36-0.73.23-1,0-.82-0.71-0.74-.22-1.89.63-1.93-0.82-2,.25-4.05.94-5.93,0.63a32.74,32.74,0,0,0-5.63-.35,8.13,8.13,0,0,1-.9-0.16,1,1,0,0,0-.53.06c-0.64.35-1.24,0.77-1.9,1.08s-1.58.68-2.37,1l0.1,0.24,3.15-.3,0,0.47-1.8.52a7.14,7.14,0,0,0,2.73,1.27c1.82,0.32,3.68.69,5.48-.16M247.79,164h0l-3.72-6.13c-0.78-.34-1.31-0.6-1.86-0.81s-1.18-.39-2-0.67l1.51,2.6,2.27,0.31-0.07.52-1.88-.35c0.13,1.06.56,1.49,1.62,1a4.62,4.62,0,0,1,1.35-.19,9.29,9.29,0,0,1-1.73.88c-0.91.51-.4,1.09-0.05,1.65l1.84-.54a2.73,2.73,0,0,0-1,2.6l0.95-.4c0,1.48-1.62,2.49-.86,4l1.16-1a13.13,13.13,0,0,1-.82,1.75,6.11,6.11,0,0,0,0,1.79l1.64-2-0.5-.86,0.27-.26a8.16,8.16,0,0,1,3.08,2.72,10.15,10.15,0,0,1-1.61-.87,1.15,1.15,0,0,0-.95-0.06,19,19,0,0,0-2.37,3.68c-0.78,1.93-1.22,4-1.84,6.09l0.62,1c1.73-.68.86-2.29,1.29-3.46l0.38,0,0.34,2,0.34,0c-0.1-.83-0.22-1.67-0.3-2.51a1.22,1.22,0,0,1,.1-0.77c0.62-.84.57-1.18-0.44-1.64,1.7-.47.33-2,1.15-3l0.89,3.64,0.16,0.06,0.65-3.34h0.3a2.66,2.66,0,0,1,.17,1,21.31,21.31,0,0,1-.91,3.46c-0.67,1.67.33,4.34,2.07,4.86-0.57-1.56.38-3.5-1.28-4.47l1.23-1.73a9.65,9.65,0,0,1,.29,1.07c0.48,3.11.91,6.23,1.45,9.33a5.58,5.58,0,0,0,.91,1.61,1.74,1.74,0,0,0,.37-1.23c-0.33-2.1-.7-4.2-1.06-6.3-0.22-1.3-.43-2.6-0.7-3.88a29.45,29.45,0,0,1-.87-3.8,4.41,4.41,0,0,0-1.48-3c-0.6-.56-1.26-1.06-1.89-1.58l0.22-.29,3,2.15,0.24,0L247.79,164M130.12,84.45h0l9.46-1.29-0.7,1,1,0.16v0.14l-2.2.52,0.69,0.46c-1.94.75-3.2,2.51-5.33,2.63,1.62,0.2,3.16.32,4.7,0.41s2.88-1.13,4.43-.63l0.07,0.37-2.46.59a3.11,3.11,0,0,0,2.84.34c3.13-.68,6.27-1.33,9.45.08,0.35-1.14,1.36-.78,2.17-0.93,1.15-.21,2.3-0.46,3.45-0.7l-0.08-.33c-0.82-.25-2.08.33-2.2-1.09l-4.81-.72-0.06-1.05c-0.4,0-.77,0-1.14,0-1.79.1-3.58,0.25-5.38,0.27a2.52,2.52,0,0,1-1.47-.61c-1-.84-2.12-1.73-3.39-1.52-3,.5-6,1.29-9,2l-3.36.66a3.8,3.8,0,0,1,1.56.74,2.75,2.75,0,0,1-.54,1.32c1.51-.44,3-0.78,4.41-1.3s2.47-1.13,3.7-1.7a1.72,1.72,0,0,0-1-.08c-1.51.22-3,.45-4.52,0.65a0.87,0.87,0,0,1-.3-0.31M234,103.39h0c-1.43,1.54-2.87,3.06-5.07,3.59a4.88,4.88,0,0,0,4.41-1.6c1.44-1.43,2.68-3.06,4-4.62a7.51,7.51,0,0,0,.68-1.21l-0.22-.15-1.7,1.41a0.91,0.91,0,0,1,.09-0.32c0.63-.8,1.32-1.56.66-2.69a1.1,1.1,0,0,1,.41-0.67,4.28,4.28,0,0,1,.79-0.47L238,96.53l-0.95.38-0.67-1,6.26-4.16a22.56,22.56,0,0,0-3.11,1.61,12.4,12.4,0,0,0-1.66.61,22.23,22.23,0,0,0-2,2c-0.69.7-1.4,1.39-2.11,2.09l2.79-4,0.15,0.14-5.89,5.44-0.29-.26,3.53-3.94-0.15-.23c-3.63,2.08-7.19,4.31-11.43,5,1.21-.6,2.47-1.11,3.69-1.68s2.49-1.24,3.73-1.87l4-1.92-0.19-.36-2.6,1.41,0.84-1.12-5.12,2.11-0.1-.24,7.74-4.12-0.13-.24-2.55,1.1-0.08-.18,4.5-3-0.1-.13-1.21.31,2.63-2.67,0,0c0.67-.08.73,0.28,0.49,0.75a8.46,8.46,0,0,1-.67,1l0.26,0.33,4.28-2.66-2.49-.33c0-.07,0-0.15,0-0.22l3.18-.28c0-.12,0-0.24,0-0.36l-2.16-.81c1.24-.33,2.49-0.38,3.69-0.64s2.46-.75,3.69-1.13l0-.15-3.79.38,0-.43c1.27-.15,2.54-0.35,3.82-0.44a4.78,4.78,0,0,0,3.49-1.25h-3.3l0-.31c0.54-.07,1.09-0.17,1.63-0.21s1.22,0,1.83-.06a1.11,1.11,0,0,0,1.22-1.15,44.84,44.84,0,0,1,.88-5.55c1.15-4.72,2.47-9.41,3.63-14.13,0.79-3.21,1.44-6.45,2.11-9.68a1.37,1.37,0,0,0-.3-1.18,6.89,6.89,0,0,0-4.15-1.3l-0.19.29,4.33,2.59-0.14.26a9.26,9.26,0,0,1-1.18-.36c-1.1-.5-2.16-1.13-3.29-1.54-2-.74-4-1.79-6.62-1.41,0.75-1.33,1.82-.4,2.53-0.64l-1.81-1.1,0,0c1.53,0.45,3.05.94,4.59,1.35a3.42,3.42,0,0,0,1.17-.12l0-.27-4.16-1.71,0.09-.25,7.41,2.61,0.09-.26-7.56-3.13,0.16-.37,9.31,3.48L259.89,43h-1.29c-3.51,0-7,0-10.54.11-3.82.08-7.65,0.15-11.46,0.35-1.9.1-3.78,0.51-5.68,0.73-3.36.38-6.72,0.72-10.08,1.08A2.94,2.94,0,0,0,218,47.68a3.64,3.64,0,0,0,1.35-.51A4.33,4.33,0,0,1,222,45.82c1.52-.26,3-0.52,4.56-0.76a2.61,2.61,0,0,1,.78.12l0,0.3L223.8,47l0.85,0.92c-4,.46-7.94,2.63-8.85,4.82a28.74,28.74,0,0,0,5-1.81,25.85,25.85,0,0,0,4.78-3.21c2.49-2.31,3.63-2.35,6.87-2a12.33,12.33,0,0,0,3.83-.11c3.33-.67,6.59-0.2,9.85.38a0.84,0.84,0,0,1,.11.23c-1.39-.19-2.8.55-4-0.3h-5.63c0,0.12,0,.23,0,0.35h3.61c0,0.1,0,.21,0,0.31h-3.79c0,0.08,0,.16,0,0.24l11.11,2,0.07-.31-1.6-.55,0.16-.48,6.62,1.91-0.09.36-2.15-.43c0.4,0.6,1,.93,1.34,1.43a23.37,23.37,0,0,1,3.9,8.87,2.76,2.76,0,0,1-.21,1,11.73,11.73,0,0,1-1-3,12.84,12.84,0,0,0-3.5-6.79c-0.93-1-2.65-1.3-4-1.92l-0.21.4,3.43,2.12a6.35,6.35,0,0,1-2.6-.92c-2.1-1.7-4.64-2.06-7.14-2.14a41.32,41.32,0,0,0-6.34.75,10.14,10.14,0,0,1-1.23,0c0-.11,0-0.23,0-0.34l3.95-.94a13,13,0,0,0-2.89-.17,22.14,22.14,0,0,0-6.87,1.46c-0.72.27-1.7,0-2.35,0.33a50.74,50.74,0,0,0-4.69,3,4.05,4.05,0,0,0-.79,1.09l0.19,0.24a37.58,37.58,0,0,1,9.89-2.87,7.28,7.28,0,0,0-1.29,1A15.7,15.7,0,0,0,227,54.27c-0.54,1.27-1.06,2.52-2.72,2.77a4,4,0,0,0-1.23.68c3.3-.15,4.92-2.52,6.68-5.13,0,0.49,0,.6,0,0.7a0.64,0.64,0,0,1-.09.32c-1.41,1.59-2.12,3.86-4.8,4.17a19.89,19.89,0,0,0-4.21,1.41,3.2,3.2,0,0,0-.63.41L220,59.76l6.76-1.95,0.1,0.34-6.74,2,0.1,0.34,6-1.15,0.05,0.3L216.08,62l0.06,0.29,9.22-1.68L225.44,61l-7.28,1.51,0.1,0.45L222.6,62l0.05,0.31c-3.57,1.31-7.6.93-11,2.74a0.51,0.51,0,0,0,.35.05c3.52-.67,7-1.51,10.65-1.29a26.82,26.82,0,0,1,3.18.56l0,0.28a34.32,34.32,0,0,0-16.07,1.94,1.12,1.12,0,0,0,.67.08c2.91-.45,5.71-1.62,8.76-1.22,1.32,0.17,2.67.15,4,.21a7.27,7.27,0,0,1,.89,0,9.07,9.07,0,0,1,1.13.37c-3.44.38-6.57-.5-9.68,0.11,2,0.16,4.08.09,6.28,1l-1.66.15,1.31,0.7a1.44,1.44,0,0,1-1,.14c-1.08-.24-2.17-0.43-3.22-0.76-1.6-.5-2.93.13-4.27,0.86l2.74-.54-0.54.73,5.75,1.08-0.08.41c-0.64-.07-1.28-0.12-1.92-0.23-2.39-.38-4.7-0.92-7.07.42a60.13,60.13,0,0,1-6.37,2.72l0.15,0.38,4.79-1.83,0.13,0.17-0.53.58a7.5,7.5,0,0,0-1.29.35c-1.1.51-2.17,1.1-3.27,1.62s-2.09.92-3,1.32c2.61,0.74,4.17-1.73,6.17-2.36a3.67,3.67,0,0,0,1,.62c2.25,0.41,4.5.81,6.76,1.13a18,18,0,0,0,2.52,0l0-.36a6.61,6.61,0,0,0-.8-0.28l-4.58-.95a6.74,6.74,0,0,0-2.33-.39,0.9,0.9,0,0,1-1.21-.74c2.47,0.43,5,.83,7.42,1.29a8,8,0,0,1,2.94.83,2.43,2.43,0,0,0,2.2.41c1.06-.3,2.11-0.63,3.17-0.94,0.38-.11.77-0.17,1.15-0.26l0.08,0.31c-2,.59-3.9,1.56-6.08,1.58a41.59,41.59,0,0,1-10.66-1,4.86,4.86,0,0,0-4.88,1.32l-0.24.16c-0.83,0-1.53,1-2.46.34a0.68,0.68,0,0,0-.39.16c-0.46.29-.89,0.62-1.37,0.87-1.79.91-3.63,1.71-5.36,2.71a7.27,7.27,0,0,0-1.54,1.74l0.25,0.35c1.7-.61,3.4-1.25,5.11-1.82a5.39,5.39,0,0,1,1.39-.08,12.93,12.93,0,0,0,1.84-.51,2.07,2.07,0,0,0,1.52-.75,2.74,2.74,0,0,1,2.08-.73,17.84,17.84,0,0,1,2.82.69c1.16,0.24,2.33.4,3.79,0.65l-3.12-3.24,0.26-.26,4.41,3.9,0.14-.17-2.89-3.06,0.53-.5a13.54,13.54,0,0,0,1.89,2.24,40.83,40.83,0,0,0,5,3.38A42.19,42.19,0,0,0,225,84.69a51.66,51.66,0,0,0,5.69,1.43,5.63,5.63,0,0,1-1,.15,12.93,12.93,0,0,1-8-2.7,1.48,1.48,0,0,0-1-.29,5.05,5.05,0,0,1-3.65-.63c-1.87-1-3.35-2.69-5.75-2.71a22.46,22.46,0,0,1-3.46-.55l0,0.2,6.94,2-0.08.34a10.82,10.82,0,0,1-1.66-.18c-1.55-.4-3.07-0.9-4.62-1.29-1.17-.3-2.37-0.5-3.56-0.75l-0.07.31,5.17,1.87-0.14.44a34.7,34.7,0,0,0-4.56-1.19,37.58,37.58,0,0,0-4.84,0l-0.1.54a4.27,4.27,0,0,0,1.11.44c1.2,0.12,2.43-.27,3.53.69a1.15,1.15,0,0,0,1.89-.34,2,2,0,0,0,2.91.75l3.58,3.94,0.45,0.41c1.68,2.73,5,5,6.64,4.39l-1.68-1.51,0.28-.33c0.5,0.35,1,.7,1.5,1.07,1.66,1.26,3.34,2.35,5.62,1.58,1.42-.48,2.9-0.82,4.35-1.22l0.22,0.3a4.72,4.72,0,0,1-1.13.79,15.17,15.17,0,0,1-7.81.74,9.65,9.65,0,0,1-5.58-2.58c-1.49-1.46-3-2.94-4.35-4.48-1.17-1.28-2.2-2.71-4.51-2.19l0.82,1c-0.31,2.06,1.06,3.5,2,5.32a2.49,2.49,0,0,1-1.9-1.77c-0.48-1-1.43-1.14-2.37-1.66,1.94,6.08,6.38,8.49,12.41,9.52-2-1.67-4.75-1.73-6.41-3.53l0.14-.29,3.73,1.67,0,0c1.28,0.64,2.56,1.29,3.85,1.9a1.94,1.94,0,0,0,1.07.24c1.23-.22,2.44-0.53,3.66-0.82a1.45,1.45,0,0,0,.36-0.2c-0.45-.72.35-0.66,0.6-0.76a10.86,10.86,0,0,1,1.89-.44c0.38-.07.77-0.09,1.27-0.14a2.17,2.17,0,0,1-1.87,1.62,8,8,0,0,0-2,.59c-0.57.26-1,.82-1.6,1-1.18.42-2.42,0.68-3.63,1a1.17,1.17,0,0,0-.68.3c-0.68,1.88-2.47,1.52-3.79,2.09l-0.16-.31L217.94,99l-1.12-.49c0-.09,0-0.18,0-0.26l3.23-.75,0-.4c-3.68.25-6.9-1-10.13-2.46l1.9,1.3-0.29.41c-2.06-.91-3.43-2.86-5.43-3.88-2.15-1.1-2-3.9-3.72-5.31l-0.27.17,3.24,5.78-0.35.25a6,6,0,0,1-.8-0.88c-0.72-1.2-1.37-2.43-2.09-3.63a3.07,3.07,0,0,0-.74-0.62c0.43,2.08,2.24,3.35,2.69,5.47l-1.46-.94a1,1,0,0,0,.07-0.52c-0.68-1.17-1.39-2.32-2.09-3.47l-0.32.15a6.22,6.22,0,0,0,.46,1.11c0.61,0.93,1.26,1.82,1.9,2.73a1.23,1.23,0,0,1,.08.19l0,0.09-1.39-.74,1.3,2.6,0.46,0.42a2.52,2.52,0,0,1-1,.41,1.14,1.14,0,0,1-1.3-1.17l0.82-.47c-1.12-1.3-1.12-1.28-2.72-1.23-1.35,0-2.71,0-4.06,0,0-.1,0-0.19,0-0.29l5.07-.56c-1.94-1.16-10-.4-10.45.92l0.72,0.48a7,7,0,0,0-4.54,4.26l4.08-.18c0-.1,0-0.21,0-0.31L188.31,97l0-.26,2.93-.18c-0.35-1.89,1.5-1,2.1-1.82l-1.23-.13,0-.23,7.24-1.27,0.11,0.42-2.4.67,0,0.27h2.33c0,0.08,0,.16,0,0.24l-1.77.26a9.18,9.18,0,0,0,1.62,2c2,1.31,4.12.88,6.26,0.11L205.7,98l2.3-.41,0.13,0.58-4.45,1.07c2.7,0.9,4.59-1.13,6.86-1.42l0.18,0.36-4.07,1.93,0.17,0.37,7.47-3.29,0.09,0.18-2.09,1.46,0.1,0.19,3.43-1.89L216,97.43l-2.52,1.81,0.14,0.23,2.58-1.15,0.15,0.27-3.81,2.13c1.36,0.18,2.4.39,3.44,0.45a41.58,41.58,0,0,0,5.57.15,29,29,0,0,1,5.11-.11c0.38,0,.77,0,1.15,0,0,0.08,0,.17,0,0.25l-5,.24,0,0.41h2.57c0,0.14,0,.28,0,0.42H214.25a0.81,0.81,0,0,0,.57.58c1.62,0.16,3.24.28,4.86,0.42a16.38,16.38,0,0,0,11.1-3.08c1.06-.74,2-1.62,3-2.43-1,1.21-1.82,2.86-3.14,3.55a17.8,17.8,0,0,1-7.25,2.29c-1.39.08-2.77,0.24-4.16,0.37a20.15,20.15,0,0,0,12.2-.65c-3.87,2.23-8,2.26-12.28,1.61a2.22,2.22,0,0,0,.93.56,24.26,24.26,0,0,0,3.3.48c2.23,0.1,4.5.22,6.61-.7,1.38-.61,2.67-1.41,4-2.13M0,126v0.77l7.31-2.17a15.83,15.83,0,0,0,4.42-2.42A9.41,9.41,0,0,0,4,121.74c-1.15.36-1.23,1.49-1.2,2.35a1.44,1.44,0,0,1-1.35,1.58C1,125.81.49,125.91,0,126m244.59,2h0a9.58,9.58,0,0,0-.21-1.75,2.75,2.75,0,0,0-.75-1c-0.31-.31-0.73-0.5-1-0.81a12.3,12.3,0,0,1-.92-1.2,8.22,8.22,0,0,0,1.16,2.51c0.54,0.79,1.18,1.5,1.78,2.25a3.34,3.34,0,0,0,.19,1.37q2.82,4.24,5.77,8.4a5.05,5.05,0,0,0,1.37,1c-1.53-2.32-3-4.59-4.51-6.83-0.9-1.32-1.89-2.57-2.84-3.86M71.27,151.53h0l-3,1.56a2.2,2.2,0,0,1-.75.44c-1.19-.67-1.53.5-2.18,0.94-0.85.57-1.61,1.26-2.46,1.84-1.61,1.1-3.26,2.16-4.89,3.24a13.53,13.53,0,0,0,2.53-.84c0.86-.32,1.78-0.5,2.62-0.86a19.16,19.16,0,0,0,2.11-1.24l-0.18-.3-1.74.93-0.27-.36a8.39,8.39,0,0,1,.82-0.68q3.67-2.35,7.36-4.69l3.87-1.89-0.17-.31-3.68,2.23M17.43,123.4h0c-0.36.09-.74,0.17-1.09,0.29-3.16,1.08-6,2.93-9.31,3.7-2.23.52-4.27,1.89-6.39,2.88,2-.52,4-0.65,5.81-1.71,2.79-1.59,5.86-2.71,8.8-4.06,0.74-.34,1.44-0.75,2.16-1.13,0.94-.29,1.89-0.55,2.81-0.88,1.55-.56,3.09-1.16,4.63-1.75l-0.2-.47-7.22,3.12M165.06,98.05h0l-5.73,5.75,0.14,0.19,6.63-5.05L165,98c0.81-.49,2.09.25,2.58-1-0.93.16-2,0-2.55,1.08M264,30.57h0c-1.2.91-1.85,2.7-3.8,2.21l-0.5,1.94L261.19,35l0.4-1.93a4.16,4.16,0,0,0,2.35-2.57l0.79-.42L265,30.29l-1.15,3.86c1.16-.38,1.93-3.58,1.08-5.13l-1,1.55m-4.47,11.2c-0.15-2.59-1.3-4.26-3.8-5a2.14,2.14,0,0,1-1-.88A3.16,3.16,0,0,0,251,34.58c-1.28.29-2.59,0.5-3.84,0.89a7,7,0,0,0-1.41,1.08c-0.56.37-1.17,0.67-1.83,1a6.32,6.32,0,0,1,.61-5.34,15.32,15.32,0,0,1,4.28-4.78A12.44,12.44,0,0,0,253,22.41a5.71,5.71,0,0,1,3.6-2.88,21.22,21.22,0,0,1,4.77-.77,4.92,4.92,0,0,1,.89.14c1.22,0.08,2.3.11,3.17-1.12A65.07,65.07,0,0,0,272,6.57c0.3-.68.71-1.32,1.1-2-0.72-.48-1.49-1-0.64-1.93a0.85,0.85,0,0,0-.19-0.67,0.89,0.89,0,0,1,.38-1.49,2.43,2.43,0,0,1,2.66-.08,4.82,4.82,0,0,0,2.08.7,3,3,0,0,1,2.6,2A11.7,11.7,0,0,0,281.11,5a16,16,0,0,0,1,1.67,4.12,4.12,0,0,0,1.06.7l0.38-.17c0.21,2.31.49,4.62,0.6,6.94a6.42,6.42,0,0,1-.72,2.06,1.71,1.71,0,0,1,.58.36,1.22,1.22,0,0,1,.35.82c-0.73.8-.14,1.57,0,2.34,0.21,1.23.22,2.36-1.15,3a3.9,3.9,0,0,1-.34,4l-1-.6a2.48,2.48,0,0,1-1.1,3.14,1.9,1.9,0,0,0-.38,1.32,2.32,2.32,0,0,1-2,2.29c-1.14.27-1.65-.61-2-1.34a3.05,3.05,0,0,1,.38-2c-1-1.34-1.85-3-4.09-2.88a13.76,13.76,0,0,1-3.08-.64,10,10,0,0,0,.29,1.85,51,51,0,0,1,2.14,5.86,37.39,37.39,0,0,1,.66,6.81c0.05,1.72,0,1.68,1.68,1.66A8.43,8.43,0,0,1,277,43c1.61,0.57,3.19,1.22,4.81,1.75,3.14,1,6.44,1.71,9.43,3.07a41.94,41.94,0,0,1,14.46,10.3c2.14,2.45,3.57,5.49,5.29,8.29,2,3.22,4,6.44,5.85,9.71a72.48,72.48,0,0,1,5.69,12.66A26.66,26.66,0,0,1,324,98.84a19.06,19.06,0,0,1-.42,2.67,46.3,46.3,0,0,1-5.22,14.13c-2,3.6-4.3,7.08-6.62,10.51-1.18,1.75-2.73,3.25-4.06,4.9s-2.52,3.43-3.92,5a30.84,30.84,0,0,1-4.29,4.14,34.89,34.89,0,0,1-6.47,4.18c-4.27,1.94-8.36,4.43-13.29,4.69a74.31,74.31,0,0,0-7.39,1,2.63,2.63,0,0,0-1.51.69c-1.79,2.07-3.6,4.13-5.18,6.35a10.81,10.81,0,0,0-1.38,3.67,31.75,31.75,0,0,0-1.11,5.92,92.75,92.75,0,0,0,.08,9.81,75.37,75.37,0,0,0,1,8.73c0.53,3,1.47,5.91,2,8.9a58.35,58.35,0,0,1,.77,7.58c0,1.12,0,2,1.36,2.28a21.13,21.13,0,0,1,2.44,1,3.78,3.78,0,0,0,3.08-.05c2-.89,3.78-0.22,5.45,1,1,0.71,2,1.33,3,2a1.79,1.79,0,0,1,.36.67,1.82,1.82,0,0,1-.82.1c-1.48-.68-3-0.49-4.58-0.52-1.2,0-2.4-.22-3.6-0.35l-1.53-.16-0.16.42a21.81,21.81,0,0,0,3.07,1.44c2.1,0.63,3.78,1.61,4.18,3.91a5.58,5.58,0,0,1-.19,1.58,5.73,5.73,0,0,1-1.31-.38c-0.55-.31-1-0.76-1.55-1.12a1.5,1.5,0,0,0-.81-0.33c-2.18.14-3.74-1-5.23-2.35a38.87,38.87,0,0,0-3.27-2.66c-1.24-.91-3.45-0.43-4.64.49a18.94,18.94,0,0,1-4.05,2.16,3.23,3.23,0,0,0-2,1.54,1.63,1.63,0,0,1-.79.79c-1.23.5-2.48,0.93-3.74,1.35a1.82,1.82,0,0,1-.68-0.06c0.22-2.37.93-4.28,3.3-5.38,1.51-.69,2.78-1.87,4.26-2.65,2.05-1.08,2.3-2.93,2.19-4.83a52,52,0,0,0-.82-5.28c-0.07-.44-0.13-0.89-0.2-1.36l-3,1-0.32-.46c0.45-.65.9-1.3,1.33-2a6.83,6.83,0,0,0,1-1.61A38.48,38.48,0,0,0,260,179.21a65.83,65.83,0,0,0-1.21-9.13c-0.6-3.23-1.53-6.41-2.11-9.64a8.28,8.28,0,0,1,.31-3.63c0.84-2.92,2-5.74,2.31-8.81a1.09,1.09,0,0,0-.74-1.27c-2.36-1.23-4.68-2.53-7-3.82a2.5,2.5,0,0,0-2.41-.33,22.45,22.45,0,0,1-3.91.82,3,3,0,0,0-.44.1c-0.78.28-2.4,2.46-2.27,3.26a69.14,69.14,0,0,0,1.24,6.86,30.6,30.6,0,0,0,2,5.34,24.63,24.63,0,0,0,2.25,3.51,11.8,11.8,0,0,1,2.11,6.3c0.08,1.5-.19,3.15.35,4.46,1.12,2.68,1,5.53,1.72,8.25,0.86,3.48,1.89,6.89,4.73,9.43a0.74,0.74,0,0,1,.24.64,0.73,0.73,0,0,1-.65.27c-0.64-.21-1.24-0.56-1.87-0.79-2.63-.93-3.64-3.27-4.84-5.43a11.86,11.86,0,0,0-.52-1.4,9.17,9.17,0,0,0-.29,1.64c0,2,0,4,.17,6a17.69,17.69,0,0,0,1,3.18,4.06,4.06,0,0,1,.07.93,2.17,2.17,0,0,1-1,0,2.46,2.46,0,0,1-1.13-.92c-1.32-2.81-3.18-5.41-2.83-8.81a33.53,33.53,0,0,0-.35-5.72c-1.32.46-2,1.86-1.87,3.77a7,7,0,0,1-2,5.29,3.88,3.88,0,0,1-1,.55,1.92,1.92,0,0,1,0-.72c0.89-1.35.45-2.75,0.21-4.15a15.26,15.26,0,0,1-.47-3.23,5.28,5.28,0,0,1,.87-2.61,18.14,18.14,0,0,0,2.3-6.36,15.93,15.93,0,0,1-2.43.88,1.53,1.53,0,0,1-1.25-.51,1.23,1.23,0,0,1,.24-1.18c1.22-1.09,1.39-2.66,2-4,1-2,.55-4-0.39-6-0.47-1-.82-2-2.11-2.22a1.81,1.81,0,0,1-.38-1.23,15.81,15.81,0,0,0,.12-2.43c-0.58-3.1-1.33-6.18-1.92-9.28a11.72,11.72,0,0,0-1.5-4c-1.44-2.35-.6-4.58.47-6.82a14.88,14.88,0,0,0,1.14-3.47,2.13,2.13,0,0,0-.58-1.61c-1.86-1.93-3.84-3.74-5.72-5.65-1.22-1.24-2.36-2.56-3.49-3.89-2.35-2.77-4.8-5.47-7-8.39a38.8,38.8,0,0,1-3.65-6.38c-0.74-1.55-2.22-1.85-3.47-2.5a19.45,19.45,0,0,0-4.91-2.14c-3.06-.62-5.88-2.51-9.18-1.79-1.59.35-3.14,0.83-4.7,1.3-1.28.38-2.58,0.74-3.82,1.25a48.89,48.89,0,0,0-4.71,2.17c-4.62,2.48-9.09,5.24-13.84,7.43a41.72,41.72,0,0,1-5.81,2.59,8.56,8.56,0,0,1-1,.12l4-2.94c-2.29.67-3.67,2.88-6.29,3.54,1-1.56,3-1.82,3.27-3.95-1.66.73-3.2,1.28-4.6,2a67.1,67.1,0,0,0-7.14,4.26c-3.47,2.51-7.31,4.55-10.22,7.79a41.17,41.17,0,0,1-3.76,3.47,3.44,3.44,0,0,1-1.57.7l7.45-7.85c-1.87.81-3.19,2.46-4.7,3.92-1.71,1.66-3.59,3.15-5.43,4.67a4.51,4.51,0,0,1-1.15.5l-0.23-.32L141,126l-0.31-.41a25.62,25.62,0,0,0-3.35,2.25c-1.62,1.49-3.05,3.17-4.59,4.74a13.51,13.51,0,0,1-1.41,1.11l-0.37-.2a3.14,3.14,0,0,1,.44-0.87c1.43-1.44,2.9-2.85,4.5-4.41-3.35.37-5.25,2.6-7.46,4.32-2,1.53-3.86,3.19-6.35,3.91a2.71,2.71,0,0,0-.82.77c-1.39,1.34-2.78,2.69-4.19,4a4.84,4.84,0,0,1-.81.51l-0.24-.25,3.54-3.79c-2.4.95-3.82,2.67-5.43,4.23a50.8,50.8,0,0,1-5.2,4,2.74,2.74,0,0,1-1,.24l-0.11-.3,5.17-4-0.23-.35L107,144.65c0.63-2.09,2.55-2.71,4-3.83l-0.23-.29c-2,1.43-4,2.87-6.09,4.28-1.12.78-2.27,1.51-3.44,2.22a1.93,1.93,0,0,1-1.32.19l7-5.25-0.24-.5a6,6,0,0,0-1.57.39c-2.15,1.21-4.32,2.41-6.36,3.79a19.53,19.53,0,0,0-2.88,2.73,20,20,0,0,1-6,4.44l5.82-5.37-0.25-.29c-0.38.33-.74,0.68-1.15,1-1.9,1.38-3.67,3-5.77,4-1.83.86-3.15,2.36-5,3.11-1.13.46-2.24,1-3.4,1.35L86.78,152a3.38,3.38,0,0,0-3.89.11c-4.77,3-9.7,5.7-15.32,6.9-1.22.26-2.41,0.75-3.64,0.92a10.69,10.69,0,0,1-2.67-.38c-2.88.64-6.12,1.5-9.41,2.07s-6.51.71-10.14,1.29c-0.62-.55-1.23.07-2,0.91-1.2,1.35-2.58,2.55-3.92,3.85L35,166.95l5.32-5.09L40,161.53a2.8,2.8,0,0,0-2.71.87c-2.3,2.29-4.8,4.39-7.27,6.51a3.62,3.62,0,0,1-2,.67,50.9,50.9,0,0,0,8.8-8.06c-1.46-.32-2.51-0.3-3.51.86-2.79,3.22-5.82,6.19-9.88,7.9a1.6,1.6,0,0,1-1.18,0,33.37,33.37,0,0,0,10.14-8.41c-1.64.68-3.11,1-4.3,2.29a27.4,27.4,0,0,1-7.64,6.08c-2.06,1-4.13,2-6.65,1.57-1.16-.19-2.46.39-3.69,0.62a1.35,1.35,0,0,1-.56.1c-0.47-.15-0.93-0.36-1.39-0.54a4.56,4.56,0,0,1,.8-1.13c1.57-1.18,3.22-2.27,4.79-3.45,0.93-.7,1.78-1.51,2.67-2.28l-0.3-.5a5.62,5.62,0,0,0-1.51.3c-1.95,1-3.86,2.08-5.79,3.12-1.71.91-3.38,1.91-5.14,2.69-1.23.54-2.47,1.05-3.72,1.52V170c2.12-.38,4.08-0.93,4.47-1.45L0,169.39V169l4.76-1,0.05-.5c-0.69-.17-1.51-0.67-2.06-0.47-0.92.33-1.84,0.68-2.75,1v-1l1.76-.82a4.79,4.79,0,0,0,.8-0.65l-1.62-.86-0.06,1.1c-0.3,0-.6-0.1-0.88-0.16V164l0.06,0L0,163.81v-3.93a0.59,0.59,0,0,0,.23-0.28L0,159.66v-4.88a3.52,3.52,0,0,0,.58-0.31,0.72,0.72,0,0,1,.65,0c0.84,0.68,1.68.24,2.48,0,2.5-.68,5-1.5,7.48-2.1,1.88-.45,2.84-1.86,3.91-3.35a1.56,1.56,0,0,0-.61.07,5.86,5.86,0,0,1-1.23.84c-4.42,1.18-8.85,2.3-13.27,3.44v-0.6l1.66-.41-0.05-.21L0,152.5v-2.76c1.48-1.2,2.89-2.51,4.35-3.73,0.55-.46.55-0.94-0.18-1.41C2.81,145.8,1.42,147,0,148.09v-1.58c1-.75,2-1.5,3-2.23,0.53-.39,1.21-0.76.47-1.6L0,145.17v-1.36a31,31,0,0,0,2.39-2.1,2.08,2.08,0,0,0,.67-2.31c-1,.75-1.86,1.51-2.82,2.15L0,141.73v-1.78q1.45-1.27,2.86-2.57a6.06,6.06,0,0,0-1.65.83c-0.42.3-.81,0.63-1.21,1v-1.87l0.63-.46a8.12,8.12,0,0,0,.64-0.58c-0.43.18-.86,0.37-1.27,0.57v-1l1.39-.79L0,135.48v-0.84a42.08,42.08,0,0,0,6.93-3,38.72,38.72,0,0,0-5.81,1.62L0,133.72v-1.18a41.11,41.11,0,0,1,4.78-1.29c2.72-.49,5.4-1.21,8.18-1.46a32.8,32.8,0,0,1,10.32,1c2.38,0.55,6.23-.63,7.65-2.3-2.81.35-5.4,2.45-8.73,0.93L29,128.26c0-.09,0-0.18,0-0.27a12.32,12.32,0,0,0-1.37,0c-1.13.13-2.26,0.3-3.39,0.45l3.29-1.09c-0.61-.61-4.6.36-6.24,1.51l3-.45a7.09,7.09,0,0,1-3.94.71,14.2,14.2,0,0,0-3.28-.23,51.08,51.08,0,0,0-6.4.44c-2,.33-4.22.09-5.71,1.37a11,11,0,0,0-1.8-.09,13.8,13.8,0,0,0-2.12.48,8.35,8.35,0,0,1-1.06.23v-1.72c2.78-.94,5.42-2.29,8.16-3.38,1.29-.51,2.69-0.77,4-1.28,3.89-1.54,7.76-3.14,11.62-4.74a21,21,0,0,0,1.92-1l-0.08-.34a4.85,4.85,0,0,0-1.77-.25c-3.84,1-7.66,2.07-11.49,3.1a2.16,2.16,0,0,1-.73-0.07l0.32-.79c-3.06-.26-6-1.71-9-0.23-0.75.36-1.44,0.85-2.2,1.19a4,4,0,0,0-.71.41v-1.26l0.68-.49-0.08-.38L0,120V119a1.19,1.19,0,0,1,.57.33c0.63,0.8,1.25.39,1.91,0.24A12.24,12.24,0,0,1,5.57,119c1.82,0.09,3.63.48,5.44,0.75l3.14,0.49,0-.31c-0.6-.21-1.22-0.39-1.81-0.62-1-.38-1.79-0.9-3-0.38-0.55.24-1.42-.21-2.15-0.35l0.07-.34,2.2,0.2a2.81,2.81,0,0,1,0-.45,1.87,1.87,0,0,1,.13-0.35c3,0.61,5.66,2.93,8.95,1.32-2.25-.56-4.53-1-6.81-1.38a2.7,2.7,0,0,1-.7-0.37,6.15,6.15,0,0,1,.74-0.51,0.79,0.79,0,0,1,.45,0c1.9,0.4,3.8.81,5.7,1.2,1,0.2,2,.36,3,0.54l0.07-.29c-1.24-.3-2.5-0.56-3.73-0.91a4.67,4.67,0,0,1-1.11-.69,14,14,0,0,1,1.4-.19,2.81,2.81,0,0,1,.64.23c0.78,0.19,1.56.35,2.58,0.59l-1.87-1,0.15-.27,8.1,1.09,0,0.42H22.5c0.37,0.13.77,0.09,1.11,0.21,1.83,0.64,3.57.75,5.08-.73a4.17,4.17,0,0,1,.77-0.42c-2.66-.31-5.14-0.22-7.43-1.18a0.69,0.69,0,0,1,.52-0.32c2.13,0.24,4.21.59,6.38-.07a35.67,35.67,0,0,1,5-.7c2.36-.36,4.77-0.53,6.91-1.8A49,49,0,0,0,45.23,110C48.7,107.43,52,104.66,55.4,102a10.58,10.58,0,0,0,.79-0.78A49.08,49.08,0,0,0,51.28,104a3.13,3.13,0,0,1-1.1.27c-1.53.25-2.69,1.17-4,1.84l0.14,0.37,2.67-.7,0.1,0.34a3.63,3.63,0,0,1-.73.5c-2.18.8-4.37,1.57-6.55,2.38a3.06,3.06,0,0,0-.72.55,16.3,16.3,0,0,0-2,.15c-1.71.33-3.4,0.73-5.1,1.09-0.44.09-.89,0.15-1.33,0.22l0.09,0.42,8.36-1.88,0.89-.14,0.07,0.3c-1.62,1.26-3.72,1.3-5.59,2l1.6,0.2c-1.26.93-7.5,1-8.43,0.06l2.32-.24,0-.56-4.13-.47c2-.44,4-0.5,5.89-0.9s3.7-1.22,5.58-1.7c2.75-.71,4.48-1.36,5.38-2.32L33,108.54l0,0.14,2.73-.28,0.06,0.43c-3,1-6.12,1-9.21,1.3s-6.25.49-9.38,0.73v0.31c1.22,0,2.45,0,3.67,0a22.84,22.84,0,0,1,3.55,0l0,0.55h-5a1.33,1.33,0,0,1-.51,1.08,14.88,14.88,0,0,1-3.13.85c-2.81.3-5.64,0.51-8.46,0.66-0.84,0-1.7-.37-2.54-0.32a25.54,25.54,0,0,0-3.38.6L0,114.86v-1c3.68-1,7.3-2.21,11-3.32s7.2-2,10.83-2.92c3.88-1,7.82-1.73,11.67-2.81a40.27,40.27,0,0,0,9.49-4.4c4.59-2.7,9.29-5.23,14-7.8,3.47-1.91,6.9-3.89,10.47-5.6,6.39-3.06,12.79-6.11,19.31-8.85,7.75-3.26,15.63-6.22,23.46-9.26a40.53,40.53,0,0,1,7.4-2.53c2.34-.41,4.3-1.57,6.49-2.2,4.64-1.35,9.33-2.56,14-3.88,5.5-1.56,11-3.2,16.48-4.77,2.56-.73,5.15-1.37,7.72-2.07,3.31-.9,6.6-1.85,9.91-2.73,0.92-.25,1.88-0.36,2.82-0.52,4.8-.82,9.59-1.72,14.41-2.43,5.93-.88,11.86-1.71,17.82-2.35,5.16-.56,10.36-0.75,15.53-1.23,3.53-.33,7-0.94,10.55-1.29,2.88-.29,5.77-0.42,8.66-0.56,2.17-.11,4.35-0.12,6.53-0.17L259,41.87a3.4,3.4,0,0,0,.52-0.1"/></g></svg>