<?xml version="1.0" encoding="utf-8"?>
<!-- Generator: Adobe Illustrator 21.0.2, SVG Export Plug-In . SVG Version: 6.00 Build 0)  -->
<svg version="1.1" id="Layer_1" xmlns="http://www.w3.org/2000/svg" xmlns:xlink="http://www.w3.org/1999/xlink" x="0px" y="0px"
	 viewBox="0 0 175.6 30.8" style="enable-background:new 0 0 175.6 30.8;" xml:space="preserve">
<style type="text/css">
	.st0{fill:#082432;}
</style>
<g>
	<path class="st0" d="M12.2,0.3c0,0.2,0,0.3,0.1,0.3c0.1,0.1,0.2,0.1,0.3,0.1C12.8,0.9,12.9,1,12.9,1c0.1,0.1,0.2,0.2,0.3,0.2
		c0.1,0.1,0.1,0.1,0.2,0.2c0,0,0.1,0.1,0.1,0.2c0.1,0.2,0.1,0.5,0.1,0.7c0,0.2,0.1,0.5,0.1,0.7c0,0.1,0,0.1,0.1,0.2
		c0,0.1,0.1,0.1,0.1,0.2c0,0,0,0.1,0,0.1c0,0,0,0.1,0,0.1c0,0,0,0.1,0.1,0.2c0,0,0,0.1,0,0.1c0,0,0,0.1,0,0.1c0,0,0,0.1,0,0.1
		c0,0,0,0,0,0.1c0,0,0,0.1,0,0.1c0,0,0,0.1,0,0.1c0,0.1,0,0.2,0.1,0.2c0,0.1,0,0.1,0,0.2c0,0.1,0,0.1,0,0.2c0,0,0,0.1,0,0.2
		c0,0.1,0,0.2,0.1,0.3c0,0.1,0.1,0.2,0.1,0.3c0,0.1,0,0.2,0,0.3c0,0.1,0,0.2,0,0.3c0,0.2-0.1,0.4-0.1,0.6c-0.1,0.2-0.1,0.4,0,0.6
		c0,0.1-0.1,0.2-0.1,0.3C14,8,14,8.1,14,8.2c0,0.1,0,0.2,0,0.3c0,0.1,0,0.2,0,0.3C14,9,14,9.3,13.9,9.6s-0.1,0.5-0.1,0.8
		c0,0.1,0,0.1-0.1,0.1c0,0,0,0.1,0,0.1s0,0.1,0,0.1c0,0,0,0.1,0,0.2c0,0.2,0.1,0.5,0,0.8c0,0.3,0,0.5,0.2,0.7c0.1,0.3,0.1,0.5,0,0.8
		c0,0.3-0.1,0.5-0.2,0.8V14c0,0,0,0.1,0.1,0.1c0,0.2,0,0.4,0.1,0.6c0,0.2,0,0.4,0,0.5c0.3,0,0.5-0.1,0.7-0.2s0.4-0.1,0.7-0.2
		c0.1,0.1,0.2,0.2,0.4,0.2c0.2,0,0.3,0,0.5,0c0,0,0,0,0,0.1c0,0.1,0,0.1,0.1,0.1c-0.1,0-0.1,0.1-0.1,0.2c0,0.1-0.1,0.2-0.1,0.2
		c0.1,0,0.1,0,0.1,0c0,0,0,0.1,0.1,0.1c-0.1,0-0.1,0.1,0,0.2c-0.1,0-0.1,0.1-0.2,0.1c0,0-0.1,0-0.1,0.1c0,0,0,0.1,0.1,0.1
		c0,0,0,0-0.1,0c0,0,0,0,0,0c0,0.1,0,0.1,0,0.1s0.1,0,0.1,0c0,0.1-0.1,0.1-0.2,0.2c0,0,0,0,0,0.1c0,0,0,0,0,0.1
		c-0.3,0.2-0.6,0.3-0.9,0.4c-0.3,0.1-0.7,0.2-1.1,0.2c0,0.1,0,0.2,0,0.3c0,0.1,0,0.2,0.1,0.3c0,0.2,0,0.3,0,0.5
		c0,0.1-0.1,0.3-0.1,0.5c0,0,0,0.1,0,0.1c0,0.1,0,0.1,0,0.2c0,0.1,0,0.3,0,0.4c0,0.1,0,0.3,0,0.5c0,0.3,0,0.5,0,0.7
		c0,0.2,0,0.4,0.1,0.6c0,0.2,0,0.5,0,0.8c0,0.3,0,0.5,0.1,0.8c0,0.3,0,0.6,0,0.8c0,0.3,0,0.5-0.1,0.7c0,0.1,0,0.1,0,0.1
		c0,0.1,0,0.4-0.1,0.7c0,0.3-0.1,0.6-0.1,0.7c0,0.1,0,0.2,0,0.3c0,0.1-0.1,0.2-0.1,0.3c0,0.2-0.1,0.3-0.2,0.3
		c-0.1,0-0.1,0.2-0.2,0.3c0,0.1,0,0.2,0,0.2s0,0-0.1,0.2c0,0.1,0,0.2,0.1,0.2c-0.1,0.1-0.1,0.2-0.1,0.3c0,0.1,0,0.1,0,0.2
		c-0.1,0-0.1,0-0.2,0.1c-0.1,0.1-0.1,0.1-0.2,0.1c0,0.1,0,0.1,0,0.1c0,0-0.1-0.1-0.1-0.1c-0.1-0.1-0.1-0.1-0.2-0.2
		c-0.1-0.1-0.1-0.1-0.2-0.1c0,0-0.1,0-0.1,0.1s0,0.1-0.1,0.1c-0.1,0-0.2,0-0.2-0.1c0-0.1-0.1-0.1-0.1-0.2c-0.1-0.1-0.1-0.3-0.2-0.5
		c0-0.1-0.1-0.2-0.1-0.2c0-0.1-0.1-0.2-0.1-0.2c0-0.1,0-0.1,0-0.2c0-0.1,0-0.1-0.1-0.2c-0.1-0.2-0.1-0.5-0.1-0.7c0-0.2,0-0.4,0-0.7
		c0,0-0.1-0.1-0.1-0.2c-0.1-0.7,0-1.3,0-1.9c0.1-0.6,0.1-1.3,0.1-2.2c0-0.2,0-0.4,0-0.7c0-0.2,0-0.4,0-0.7c0-0.4,0-0.8,0-1.2
		c0-0.4-0.1-0.8-0.1-1.2c-0.1,0-0.1-0.1-0.2,0c-0.1,0-0.2,0-0.3,0c0,0,0-0.1,0.2,0c0.2,0,0.2,0,0.3,0c-0.3,0-0.6-0.1-1,0
		c-0.4,0-0.8,0-1.1,0c0,0,0.1-0.1,0.2,0c0.1,0,0.1,0,0.2,0c-0.5,0-0.9-0.1-1.4-0.1c-0.4,0-0.9,0-1.4,0.1c-0.1,0.2-0.1,0.3-0.2,0.4
		s-0.1,0.3-0.1,0.4c0,0.1,0,0.3-0.1,0.4c0,0.1-0.1,0.3-0.1,0.4c0,0.1-0.1,0.2-0.1,0.2c0,0,0,0.1,0,0.1c0,0.1,0,0.1,0,0.2
		c0,0.1,0,0.1-0.1,0.2c0,0.1-0.1,0.1-0.1,0.2c0,0.1-0.1,0.2-0.1,0.3c0,0.1,0,0.2-0.1,0.3c0,0-0.1,0.1-0.1,0.1c0,0-0.1,0-0.1,0.1
		c0,0.1,0,0.2-0.1,0.4c0,0,0,0.1-0.1,0.1c0,0,0,0,0,0c0,0.1-0.1,0.1-0.1,0.2c0,0.1,0,0.1-0.1,0.2c0,0.1,0,0.2,0,0.3s0,0.2,0,0.3
		c0,0,0,0.1,0,0.1s-0.1,0.1-0.1,0.2c0,0.1,0,0.1,0,0.2s0,0.2,0,0.2c0,0.1-0.1,0.2-0.1,0.2c-0.1,0.2-0.2,0.5-0.3,0.8
		c-0.1,0.3-0.2,0.6-0.4,0.8c0,0.1,0,0.1,0,0.2c0,0,0,0.1,0,0.2c0,0.1-0.1,0.2,0,0.4c0,0.1,0,0.2,0,0.3c0,0.1-0.1,0.1-0.1,0.2
		s-0.1,0.1-0.1,0.2c-0.3,0.2-0.5,0.4-0.7,0.6c-0.2,0.2-0.4,0.5-0.6,0.7c-0.1,0.1-0.3,0.2-0.5,0.2c-0.2,0-0.3-0.1-0.5-0.1
		S1.1,27.5,1,27.4c-0.1-0.1-0.2-0.3-0.2-0.4c0,0-0.1-0.1-0.1-0.1s-0.1-0.1-0.1-0.1c0,0,0-0.1,0-0.1s0-0.1-0.1-0.1
		c-0.1-0.2-0.2-0.3-0.2-0.5c-0.1-0.2-0.1-0.4,0-0.6c0-0.1,0.1-0.2,0.2-0.3c0.1-0.1,0.2-0.2,0.2-0.3c0-0.1,0-0.2,0-0.2
		c0-0.1,0-0.1,0.1-0.2c0.2-0.6,0.3-1.1,0.5-1.7c0.1-0.6,0.3-1.1,0.5-1.7c0.1-0.4,0.3-0.9,0.4-1.2s0.3-0.8,0.4-1.3
		c-0.1,0-0.2,0-0.2,0c-0.1,0-0.1,0.1-0.2,0.1c-0.2,0.1-0.3,0.2-0.5,0.4C1.3,19,1.2,19.1,1,19.2c0,0,0-0.1,0-0.1C1,19,1.1,19,1.1,19
		c-0.2,0-0.3,0.1-0.4,0.3c-0.1,0.1-0.3,0.2-0.6,0.1c0,0,0-0.1,0-0.1c0,0,0,0,0-0.1c0-0.2,0.1-0.3,0.2-0.4c0.1-0.1,0.2-0.2,0.3-0.4
		c0.4-0.3,0.7-0.5,1.1-0.8C2,17.4,2.4,17.2,2.9,17c0,0,0-0.1,0-0.1c0,0,0-0.1,0-0.1C3,16.6,3,16.5,3,16.5c0-0.1,0-0.2,0.1-0.3
		c0.1-0.4,0.2-0.8,0.4-1.2c0.1-0.4,0.3-0.8,0.4-1.3c0-0.1,0.1-0.2,0.1-0.3c0-0.1,0-0.2,0-0.3c0.1-0.5,0.3-0.9,0.4-1.4
		c0.1-0.5,0.3-1,0.5-1.4c0-0.1,0.1-0.2,0.1-0.3C5,9.9,5,9.8,5,9.7C5.5,8.4,6,7.2,6.6,6c0.6-1.2,1.2-2.3,1.9-3.4
		c0.2-0.3,0.5-0.7,0.8-1C9.5,1.3,9.8,1,10.1,0.8c0.2-0.1,0.3-0.2,0.6-0.3c0.2-0.1,0.4-0.2,0.6-0.3c0.2,0,0.3-0.1,0.5-0.1
		S12.1,0.2,12.2,0.3z M11.5,3.7C11.4,3.7,11.4,3.7,11.5,3.7c0,0.1-0.1,0.2-0.1,0.3c0,0.1-0.1,0.1-0.1,0.2c-0.1,0.2-0.2,0.3-0.2,0.4
		c-0.1,0.1-0.2,0.3-0.3,0.4c-0.1,0.2-0.2,0.3-0.3,0.6c-0.1,0.2-0.2,0.4-0.3,0.6C10,6.4,9.9,6.6,9.8,6.8C9.7,7,9.6,7.2,9.5,7.4
		C9.4,7.6,9.3,7.8,9.3,8.1C9.2,8.3,9.1,8.5,9,8.7C8.9,9.1,8.8,9.5,8.6,9.9s-0.3,0.8-0.4,1.2c0,0.1-0.1,0.2-0.1,0.2
		c0,0.1-0.1,0.2-0.1,0.3C8,12,7.8,12.5,7.7,12.9c-0.1,0.5-0.2,1-0.3,1.4c0,0.1-0.1,0.3-0.1,0.4c-0.1,0.1-0.1,0.3-0.1,0.5
		c0,0.1-0.1,0.2-0.1,0.2S7,15.6,7,15.7c0.1,0.1,0.2,0.1,0.4,0.1c0.1,0,0.3,0,0.4,0c0.5,0,1.1-0.1,1.6-0.1s1.1,0,1.7-0.1
		c0-0.4-0.1-0.7,0-1.1c0-0.4,0-0.7,0-1.1c0-0.4,0-0.7,0-1.1c0-0.4,0.1-0.7,0.1-1.1c0-0.3,0.1-0.7,0-1c0-0.3,0-0.6,0-0.9
		c0-0.2,0-0.3,0-0.5c0-0.2,0-0.3,0-0.5c0-0.2,0-0.3,0.1-0.5c0-0.1,0.1-0.3,0.1-0.4c0-0.2,0-0.3,0-0.5c0-0.1,0-0.3,0-0.5
		c0-0.5,0-1,0-1.5C11.4,4.7,11.5,4.2,11.5,3.7L11.5,3.7z"/>
	<path class="st0" d="M22.7,0L22.7,0c0.2,0,0.3,0,0.4,0.1c0.1,0,0.2,0,0.3,0.1c0.2,0.1,0.3,0.2,0.4,0.5c0,0.1,0.1,0.1,0.1,0.2
		s0,0.2,0.1,0.2c0.1,0.1,0.1,0.1,0.1,0.1c0,0.1,0.1,0.2,0.1,0.3c0,0.1,0,0.3,0,0.4v0.4c0,0.4,0,0.8-0.1,1.2C24,3.6,24,3.7,24,3.8
		s0,0.2-0.1,0.3c0,0,0,0.1,0,0.2c0,0.1,0,0.1,0,0.2c-0.1,0.1-0.1,0.1-0.1,0.2c0,0,0,0.1,0,0.1c0,0,0,0.1,0,0.1c0,0.1,0,0.1,0,0.2
		c0,0.1,0,0.1-0.1,0.1l-0.1,0.1c0,0-0.1,0.1-0.1,0.1s0,0.1,0,0.2c0,0.1-0.1,0.2-0.1,0.3c0,0.1,0,0.2-0.1,0.3c0,0.1,0,0.1-0.1,0.2
		c0,0.1,0,0.1,0,0.2c-0.1,0.1-0.1,0.1-0.1,0.2c0,0.1,0,0.2-0.1,0.3c0,0,0,0.1,0,0.1c0,0,0,0,0,0.1s0,0.1,0,0.2C23,7.4,23,7.5,23,7.6
		c0,0.1-0.1,0.1-0.1,0.2v0.1c0,0.1-0.1,0.1-0.1,0.2c-0.1,0.3-0.2,0.7-0.3,1c-0.1,0.3-0.2,0.6-0.4,0.9c0,0.1-0.1,0.1-0.1,0.2
		c0,0.1-0.1,0.1-0.1,0.2c0,0.1-0.1,0.2-0.1,0.3c0,0.1-0.1,0.2-0.1,0.3c0,0,0,0.1-0.1,0.1s0,0-0.1,0.1c-0.1,0.1-0.1,0.2-0.1,0.3
		c0,0.1-0.1,0.2-0.1,0.3c0,0,0,0.1,0,0.1c0,0,0,0.1,0,0.1c0,0,0,0.1-0.1,0.1c0,0,0,0.1-0.1,0.1s0,0.1,0,0.2c0,0.1,0,0.1,0,0.2
		c0,0,0,0,0,0s0,0,0,0.1c0,0,0,0,0,0.1c0,0.2-0.1,0.4-0.1,0.5c0,0.2-0.1,0.3-0.1,0.5c0,0,0,0,0,0c0.1,0,0.3,0,0.4-0.1l0.4-0.2
		c0.2-0.1,0.4-0.2,0.7-0.3c0.1,0,0.3-0.1,0.4-0.1c0.1,0,0.3-0.1,0.4-0.1c0.1,0,0.2,0,0.3,0c0.1,0,0.3,0,0.4,0c0,0,0.1,0,0.1,0
		c0,0,0.1,0,0.1,0l0.1,0.1c0-0.1,0.1-0.1,0.1-0.1c0.1,0,0.1-0.1,0.2,0c0.1,0,0.1,0,0.2,0c0.1,0,0.1,0,0.2-0.1c0.1,0,0.1,0,0.2,0
		c0,0,0.1,0.1,0.1,0.1c0.1,0,0.1,0,0.2,0.1c0.1,0.1,0.2,0.2,0.2,0.4c0.1,0.1,0.1,0.1,0.1,0.1c0,0,0,0.1,0,0.1c0,0.1,0,0.1,0,0.1
		c0,0,0.1,0,0.1-0.1c0,0,0-0.1,0-0.1c0,0,0-0.1,0-0.1c0,0.1,0.1,0.2,0.1,0.4s0.1,0.3,0,0.4c0,0,0,0.1,0,0.1s0,0.1,0,0.1c0,0,0,0,0,0
		c0,0.1,0,0.2,0,0.2c0,0.1,0,0.1,0,0.2c0,0.1,0,0.1,0,0.2c0,0.1,0,0.1,0,0.2c0,0,0,0,0,0c0,0,0,0,0,0c0,0.1,0,0.2,0,0.2h0v0
		c0,0,0,0.1,0,0.1s0,0.1,0,0.1c0,0-0.1,0.1-0.1,0.1c0,0,0,0,0,0c0,0.1,0,0.1-0.1,0.2c-0.1,0.4-0.2,0.7-0.4,1c0,0.1-0.1,0.2-0.1,0.2
		c0,0,0,0.1-0.1,0.2c-0.2,0.4-0.3,0.7-0.5,1c-0.2,0.3-0.4,0.7-0.6,1c0,0,0,0,0,0.1c0,0,0,0.1,0,0.1c0,0-0.1,0.1-0.1,0.1
		c0,0,0,0.1,0,0.2c0,0-0.1,0.1-0.1,0.1s-0.1,0.1-0.1,0.1v0.1c0,0,0,0,0,0v0.1c0,0,0,0,0,0.1c0,0-0.1,0.1-0.1,0.1
		c-0.1,0.2-0.2,0.4-0.3,0.5c-0.1,0.2-0.2,0.3-0.4,0.5c0,0,0,0.1-0.1,0.1c0,0,0,0,0,0.1V22H23c-0.1,0-0.2,0.1-0.2,0.2c0,0,0,0,0,0.1
		c0,0,0,0,0,0.1c0,0,0,0-0.1,0c0,0-0.1,0-0.1,0.1c0,0,0,0-0.1,0.1c0,0-0.1,0.1-0.1,0.1c0,0,0,0.1-0.1,0.1c0,0-0.1,0.1-0.1,0.1
		s-0.1,0.1-0.1,0.1C22,23,21.9,23,22,23c-0.1,0-0.1,0.1-0.1,0.1s-0.1,0.1-0.2,0.1c-0.1,0.1-0.3,0.2-0.5,0.3c0,0,0.1,0.1,0.2,0.1
		c0.1,0,0.1,0,0.2,0.1c-0.2-0.1-0.4-0.1-0.6,0c-0.2,0.1-0.4,0.1-0.6,0.1c-0.1,0-0.2-0.1-0.3-0.1l0,0c0,0.1,0.1,0.1,0.1,0.1
		c0,0,0.1,0,0.1,0.1v0.1c0,0-0.1,0-0.1,0c-0.2-0.2-0.5-0.4-0.7-0.7c0,0,0-0.1,0-0.1c0,0,0,0,0-0.1c0,0,0,0,0-0.1c0,0,0,0,0-0.1
		c0,0-0.1-0.1-0.1-0.1c-0.1,0-0.1,0-0.2-0.1s-0.1-0.1-0.1-0.1c0-0.1-0.1-0.1-0.1-0.2c-0.1-0.1-0.1-0.2-0.3-0.3c0,0,0,0.1,0.1,0.1
		c0,0,0,0.1,0.1,0.1h0c0,0.1,0,0.1,0.1,0.1c-0.1,0-0.2,0-0.2-0.1c0-0.1-0.1-0.1-0.1-0.2c0.1,0,0.1,0,0.1,0.1c0,0,0,0.1,0.1,0.1
		c0-0.1,0-0.2-0.1-0.3c-0.1-0.1-0.1-0.1-0.2-0.2l-0.1,0c0,0,0,0,0,0l0,0c0,0,0,0,0,0.1c0,0,0,0,0,0.1c0,0-0.1,0-0.1-0.1s0,0-0.1-0.1
		c0-0.1-0.1-0.1-0.1-0.2c-0.1-0.1-0.1-0.1-0.2-0.2c0,0,0,0,0-0.1l0,0c0,0,0,0-0.1,0h-0.1v0.1c-0.1,0-0.2,0.1-0.2,0.2
		c0,0-0.1,0-0.1,0c0,0,0,0-0.1,0c0,0-0.1,0-0.1,0c0,0,0,0-0.1,0c0,0-0.1,0-0.1,0v0.1c0,0,0,0.1,0,0c0,0,0,0,0,0c0,0,0,0.1-0.1,0
		c0,0-0.1,0-0.1,0c0,0,0,0.1,0,0.1c0,0,0,0.1,0,0.1c-0.2,0-0.3,0.1-0.3,0.3c-0.1,0-0.1,0-0.1,0c0,0-0.1,0-0.2,0c0,0.2,0,0.3-0.1,0.5
		c0,0-0.1,0-0.1,0c0,0-0.1,0-0.1,0c0,0.1-0.1,0.1-0.1,0.2c0,0,0,0.1-0.1,0.2c0,0-0.1,0-0.1,0s0,0-0.1,0c-0.1-0.1-0.1-0.2-0.2-0.3
		s-0.1-0.2-0.1-0.3c0,0-0.1,0-0.1,0c0,0-0.1,0-0.1,0c0-0.2-0.1-0.3-0.1-0.5s0-0.4,0-0.6c0,0,0,0,0-0.1c0,0,0,0,0-0.1l0-0.1
		c0,0,0-0.1,0-0.2v-0.2c0-0.2,0-0.3,0-0.5s0-0.3,0.1-0.5c0.1-0.5,0.1-0.9,0.2-1.3c0.1-0.4,0.2-0.8,0.3-1.2c0.2-0.5,0.3-1.1,0.5-1.6
		c0.2-0.5,0.4-1,0.5-1.6c0-0.1,0-0.1,0-0.1c0-0.1,0-0.1,0-0.2c0-0.1,0-0.1,0-0.2c0-0.1,0-0.1,0-0.2v-0.2c0,0,0-0.1,0-0.1
		s0-0.1,0-0.1v-0.2c0-0.1,0-0.2,0-0.3v-0.2c0-0.1,0-0.2,0-0.2c0-0.1,0-0.1,0.1-0.2c0.1-0.7,0.3-1.5,0.4-2.2c0.1-0.7,0.3-1.4,0.5-2.1
		c0-0.1,0-0.1,0-0.2c0,0,0-0.1,0-0.2c0,0,0,0,0,0c0,0,0,0,0,0c0,0,0,0,0-0.1c0,0,0,0,0-0.1c0.1-0.3,0.2-0.6,0.2-1
		c0.1-0.3,0.2-0.6,0.3-0.9c0.1-0.4,0.3-0.7,0.4-1c0.1-0.3,0.3-0.6,0.5-0.9c0,0,0.1-0.1,0.1-0.1s0-0.1,0-0.1c0.1-0.2,0.1-0.3,0.2-0.4
		c0.1-0.1,0.2-0.3,0.2-0.4C19.9,2,20,1.9,20.1,1.8c0-0.1,0.1-0.2,0.1-0.2c0-0.1,0.1-0.1,0.1-0.2c0.1-0.1,0.3-0.2,0.4-0.3
		c0.1-0.1,0.3-0.2,0.5-0.3c0,0,0.1,0,0.1-0.1c0,0,0.1,0,0.1-0.1V0.5c0.2-0.1,0.4-0.1,0.6-0.2C22.2,0.2,22.4,0.1,22.7,0z M17.8,21.3
		c-0.1-0.1-0.1-0.1-0.1-0.1C17.7,21.2,17.8,21.3,17.8,21.3z M21,20.1c0,0,0.1,0.1,0.1,0.1c0,0,0-0.1,0-0.1
		C21.1,20.1,21.1,20.1,21,20.1L21,20.1c0.4-0.1,0.6-0.1,0.8-0.3c0.2-0.1,0.3-0.3,0.4-0.4c0,0,0,0,0,0c0,0,0,0,0,0
		c0.1,0,0.1-0.1,0.2-0.2c0,0,0,0,0,0c0,0,0,0,0,0h-0.1c0.2-0.2,0.4-0.4,0.6-0.6c0.1-0.2,0.3-0.5,0.4-0.8c0,0,0-0.1,0.1-0.2l0.1-0.2
		c0.3-0.4,0.5-0.8,0.7-1.3c0.2-0.4,0.4-0.9,0.6-1.3c0,0,0-0.1,0-0.1c0,0,0-0.1,0-0.1l0.1-0.5c-0.1-0.1-0.3-0.2-0.5-0.2
		c-0.2,0-0.4,0-0.5,0.2c0,0,0,0,0,0c0,0,0,0,0,0c-0.3,0.2-0.7,0.3-1,0.4s-0.6,0.3-0.9,0.5c0,0-0.1,0.1-0.1,0.1c0,0-0.1,0-0.1,0.1
		c0,0-0.1,0.1-0.1,0.1c0,0-0.1,0-0.1,0c-0.2,0.1-0.4,0.3-0.6,0.5c0.1-0.1,0.2-0.2,0.4-0.2c0.2-0.1,0.3-0.2,0.4-0.3s0.2-0.2,0.4-0.3
		c0,0,0.1,0,0.1,0c0,0,0.1,0,0.1-0.1c0,0,0.1,0,0.1-0.1s0.1,0,0.2,0c-0.3,0.1-0.5,0.3-0.8,0.4c-0.2,0.2-0.5,0.3-0.8,0.5c0,0,0,0,0,0
		c0,0,0,0,0,0c0,0-0.1,0.1-0.1,0.1c0,0-0.1,0.1-0.1,0.1c0,0,0-0.1,0-0.1s0,0,0-0.1c-0.1,0-0.1,0-0.1,0.1c0,0-0.1,0.1-0.1,0.1
		l-0.2,0.1c0,0,0,0.1-0.1,0.1c0,0,0,0-0.1,0c-0.1,0-0.1,0.1-0.2,0.1c-0.1,0-0.1,0.1-0.1,0.1c-0.1,0-0.1,0.1-0.1,0.2
		c0,0.1-0.1,0.1-0.1,0.2c0,0.1-0.1,0.1-0.1,0.2c-0.1,0-0.1,0.1-0.1,0.2c0,0-0.1,0-0.1,0.1s0,0.1,0,0.1l0,0h0.1c0,0,0,0,0,0
		c0,0,0,0,0,0v0.2c0,0.4-0.1,0.8-0.2,1c0,0.1-0.1,0.1-0.1,0.2c0,0.1,0,0.1,0,0.1c0,0,0,0-0.1,0c0.1,0.1,0.2,0.1,0.3,0.2
		c0.1,0,0.2,0.1,0.3,0.2c0,0,0,0,0,0c0,0,0,0,0,0c0,0,0.1,0,0.1,0.1s0.2,0.1,0.2,0.1c0.1,0,0.1,0.1,0.2,0.1c0.1,0,0.2,0.1,0.3,0.1
		C20.8,19.9,20.8,20,21,20.1L20.9,20C20.9,20,21,20.1,21,20.1z M21.6,1.5c-0.1,0.1-0.2,0.1-0.2,0.2c0,0.1-0.1,0.1-0.1,0.2
		c0,0,0,0.1-0.1,0.1c0,0,0,0-0.1,0c0,0,0,0-0.1,0c0,0-0.1,0.1-0.1,0.1s0,0.1,0,0.1c0,0.1-0.1,0.2-0.1,0.3c-0.1,0.1-0.1,0.2-0.1,0.4
		c-0.2,0.3-0.3,0.6-0.5,0.9c-0.1,0.3-0.2,0.7-0.3,1.1v0.2c0,0-0.1,0.1-0.1,0.1v0.2c0,0.1,0,0.1,0,0.2c0,0.1,0,0.1,0,0.2
		c-0.1,0.5-0.2,0.9-0.2,1.4c0,0.5,0,1-0.1,1.5c0,0.2,0,0.3,0,0.5c0,0.1,0,0.3,0,0.4c0,0.2,0,0.3,0,0.4c0,0.1,0,0.3,0,0.4
		c0,0.1,0,0.1,0,0.2c0,0.1,0,0.2,0,0.2c0,0.2,0,0.3,0,0.4c0,0,0,0,0,0.1c0,0,0,0.1,0,0.1v0.2c0,0,0,0.1,0,0.1c0,0,0,0.1,0,0.1
		c0,0,0,0.1,0,0.1c0,0,0,0.1,0.1,0.1c0,0,0,0,0-0.1c0-0.1,0.1-0.2,0.1-0.2c0-0.1,0.1-0.1,0.1-0.2c0.3-0.6,0.6-1.3,0.8-2
		s0.5-1.3,0.7-2c0-0.1,0-0.1,0-0.2c0,0,0-0.1,0.1-0.2l0.1-0.4c0-0.1,0.1-0.2,0.1-0.3c0,0,0.1-0.1,0.1-0.1l0.1-0.1
		c0,0,0.1-0.1,0.1-0.1c0-0.1,0-0.1,0-0.2c0-0.2,0.1-0.4,0.2-0.6c0,0,0-0.1,0.1-0.1c0,0,0-0.1,0.1-0.1c0-0.1,0.1-0.2,0.1-0.3
		c0-0.1,0-0.2,0.1-0.3c0-0.1,0.1-0.2,0.1-0.3c0-0.1,0-0.2,0-0.3c0-0.2,0.1-0.5,0.1-0.7c0-0.2,0.1-0.5,0.1-0.7c0-0.2,0-0.3,0.1-0.5
		c0-0.2,0-0.4,0-0.6c0-0.1,0-0.2-0.1-0.2V1.3c0,0-0.1-0.1-0.1-0.1c0,0-0.1-0.1-0.1-0.1c-0.1,0.1-0.3,0.1-0.4,0.2
		C21.9,1.3,21.8,1.4,21.6,1.5z M20.2,16c0.1,0,0.1-0.1,0.2-0.1c0,0,0.1-0.1,0.1-0.1c0,0-0.1,0.1-0.2,0.1C20.2,15.9,20.2,16,20.2,16z
		 M20.6,15.7L20.6,15.7C20.6,15.7,20.6,15.7,20.6,15.7L20.6,15.7C20.6,15.7,20.6,15.7,20.6,15.7z M20.7,23.7c0.1,0,0.1,0,0.1-0.1
		C20.8,23.6,20.7,23.6,20.7,23.7z M23.9,13.7c0.1,0,0.2,0,0.3,0c0.1,0,0.2,0,0.2,0c-0.1,0-0.2,0-0.3,0C24,13.6,24,13.6,23.9,13.7z"
		/>
	<path class="st0" d="M40,13.4c0.1,0.1,0.1,0.2,0,0.3c-0.1,0.1-0.2,0.3-0.3,0.4c0,0.1-0.1,0.1-0.1,0.2s-0.1,0.1-0.1,0.1
		c-0.3,0.2-0.6,0.4-1,0.5c-0.4,0.1-0.7,0.2-1.1,0.3s-0.7,0.1-1,0.1c-0.3,0-0.5,0-0.6,0c-0.1,0.5-0.2,0.8-0.2,1.1s-0.2,0.6-0.3,1
		c0-0.1,0-0.2,0.1-0.3s0.1-0.2,0.1-0.3c-0.1,0.2-0.1,0.3-0.2,0.5s-0.1,0.3-0.2,0.5c0,0,0,0.1,0,0.1c0,0,0,0,0,0.1
		c0,0.1-0.1,0.3-0.2,0.5c0,0.1-0.1,0.2-0.1,0.2c0,0.1-0.1,0.1-0.1,0.2c0,0,0,0,0,0v-0.1c-0.1,0.1-0.1,0.3-0.1,0.4
		c0,0.1-0.1,0.3-0.1,0.4c-0.1,0.2-0.2,0.3-0.3,0.5c-0.1,0.2-0.2,0.3-0.3,0.5c0,0.1-0.1,0.2-0.1,0.3s-0.1,0.2-0.1,0.3
		c0,0.1-0.1,0.1-0.1,0.2c0,0.1-0.1,0.1-0.1,0.2c0,0.1-0.1,0.1-0.1,0.1S33,21.8,33,21.8c-0.1,0-0.2,0.1-0.2,0.3
		c-0.1,0.1-0.2,0.2-0.4,0.3c-0.1,0.1-0.3,0.2-0.4,0.3c-0.2,0-0.4,0.1-0.7,0.3c-0.2,0.1-0.5,0.2-0.7,0.2c0,0,0,0,0,0c0,0,0,0,0,0
		c-0.1,0-0.3,0-0.5,0.1c-0.2,0-0.3,0-0.5,0c-0.3-0.1-0.6-0.2-0.8-0.4c-0.2-0.2-0.4-0.4-0.6-0.6c-0.4-0.2-0.6-0.5-0.7-0.9
		c-0.1-0.4-0.2-0.8-0.4-1.2L27,19.8v-0.2c0-0.2,0-0.3-0.1-0.5c0-0.2-0.1-0.3-0.1-0.5c0-0.1,0.1-0.2,0.1-0.3c0-0.1,0-0.2,0-0.3v0
		c0.1-1,0.3-2,0.7-2.9s0.9-1.7,1.4-2.3c0.2-0.2,0.3-0.4,0.4-0.6c0.1-0.2,0.3-0.3,0.5-0.5c0.2-0.1,0.3-0.3,0.5-0.4
		c0.2-0.1,0.3-0.3,0.5-0.4h0.1c0,0,0,0,0,0c0.2-0.1,0.4-0.1,0.6,0s0.4,0.2,0.5,0.3c0.1,0.1,0.1,0.2,0.2,0.3s0.1,0.3,0,0.4
		c0,0,0.1,0,0.1-0.1c0-0.1,0.1-0.1,0.1-0.2c0.1,0.1,0.3,0.1,0.4,0c0.1-0.1,0.2-0.2,0.3-0.3c0.1,0.1,0.2,0.1,0.3,0
		c0.1,0,0.2,0,0.3,0.1c0,0,0.1,0,0.1,0c0,0,0-0.1,0.1-0.1c0,0,0.1,0,0.1,0c0,0,0.1,0,0.1,0c0,0,0.1-0.1,0.1-0.1c0-0.1,0-0.1-0.1-0.1
		c0,0,0.1,0,0.1,0c0,0,0.1,0,0.1,0c0,0,0,0,0,0.1c0,0,0,0.1,0,0.1l0.2,0.2c0,0.1,0,0.2,0.1,0.3c0,0.1,0.1,0.2,0.1,0.3
		c0,0.1,0.1,0.2,0.1,0.3c0,0.1,0.1,0.2,0.2,0.3c0.1,0.1,0.1,0.2,0.1,0.3c0,0.1,0.1,0.3,0.1,0.4c0,0,0,0.1,0,0.2
		c0,0.1,0.1,0.1,0.1,0.1c0-0.1,0-0.2,0-0.3c0-0.1-0.1-0.2-0.1-0.3c0,0,0.1,0.1,0.1,0.1c0,0.1,0,0.1,0,0.2c0,0.1,0.1,0.2,0.1,0.3
		c0,0,0.1,0,0.1,0s0,0.1,0.1,0.1c0.1,0,0.1,0,0.2,0c0,0,0.1,0,0.1,0c0.1,0,0.3,0,0.4,0c0.2,0,0.3,0,0.5,0c0.2,0,0.3,0,0.5,0
		c0.2,0,0.3,0,0.4-0.1c0.3-0.1,0.6-0.2,0.8-0.3c0.2-0.1,0.4-0.2,0.5-0.3c0.1,0,0.2,0,0.3,0c0.1,0,0.1-0.1,0.2-0.1c0,0,0.1,0,0.1,0
		C40,13.2,40,13.3,40,13.4z M34.5,17c0.1-0.1,0.1-0.3,0.1-0.4s0-0.3,0.1-0.5c0.1-0.2,0.1-0.3,0.2-0.4s0.1-0.2,0-0.4
		c-0.2,0-0.3,0-0.5-0.1c-0.2-0.1-0.3-0.1-0.4-0.2c-0.1,0-0.2,0-0.3-0.1s-0.2-0.2-0.3-0.3c-0.1,0-0.1,0-0.2-0.1
		c-0.1,0-0.2-0.1-0.3-0.2c-0.1-0.1-0.2-0.2-0.3-0.3c-0.1-0.1-0.2-0.3-0.3-0.4c-0.1,0.1-0.1,0.2-0.1,0.3c0,0.1-0.1,0.2-0.1,0.3
		c0,0.1-0.1,0.1-0.1,0.2c-0.1,0.1-0.1,0.1-0.1,0.2c-0.1,0.2-0.2,0.3-0.3,0.5c-0.1,0.2-0.2,0.3-0.3,0.3c0,0.1,0,0.2-0.1,0.2
		s-0.1,0.1-0.1,0.1c-0.1,0.2-0.2,0.4-0.3,0.6s-0.2,0.3-0.3,0.5c-0.1,0.2-0.2,0.4-0.4,0.6c-0.1,0.2-0.2,0.4-0.3,0.6
		c0,0.1,0,0.3,0,0.4c-0.1,0.1-0.1,0.3-0.1,0.4c0,0.2,0,0.3-0.1,0.5c0,0.1,0,0.2,0,0.3c0,0.1,0,0.2,0,0.2c0,0,0,0.1,0,0.1
		c0,0,0,0.1,0,0.1c0,0,0,0.1,0.1,0.1s0,0.1,0.1,0.2v0.1c0,0.1,0.1,0.2,0.2,0.4c0.1,0.1,0.2,0.3,0.3,0.3c0.2,0.1,0.4,0.1,0.5,0.1
		c0.1,0,0.3-0.1,0.5-0.1c0.2,0,0.4-0.1,0.6-0.1c0.2,0,0.3-0.1,0.5-0.2c0.1-0.2,0.3-0.3,0.4-0.4c0.2-0.1,0.3-0.3,0.4-0.4c0,0,0,0,0,0
		s0,0,0,0c0,0,0,0,0.1,0c0,0,0.1-0.1,0.1-0.1s0.1-0.1,0.1-0.1c0.1-0.1,0.2-0.3,0.2-0.4s0.1-0.3,0.1-0.5c0.1-0.2,0.2-0.3,0.3-0.4
		c0.1-0.1,0.2-0.3,0.2-0.5c0.1-0.2,0.1-0.3,0.2-0.5C34.4,17.2,34.4,17.1,34.5,17z M33.8,12.4c-0.2,0-0.3,0.1-0.3,0.3s-0.1,0.3,0,0.4
		c0.1,0.2,0.2,0.3,0.4,0.5c0.1,0.1,0.3,0.3,0.5,0.3c0,0,0.1,0,0.1,0.1s0.1,0,0.1,0v-0.1c0-0.1-0.1-0.2-0.1-0.3s-0.1-0.1-0.1-0.2
		c0-0.1-0.1-0.2-0.1-0.2c0-0.1,0-0.1-0.1-0.2L34,12.8c0-0.1,0-0.2,0-0.3C33.9,12.5,33.9,12.4,33.8,12.4z M35.9,15.4
		C35.9,15.4,35.8,15.4,35.9,15.4c-0.1,0-0.1,0-0.1,0c0,0.3-0.1,0.6-0.1,0.8c-0.1,0.2-0.1,0.5-0.1,0.7L35.9,15.4z"/>
	<path class="st0" d="M39.1,20.1c0.1-0.1,0.2-0.2,0.3-0.4c0.1-0.1,0.2-0.3,0.3-0.5c0.3-0.4,0.6-0.8,0.9-1.3c0.3-0.5,0.6-0.9,0.9-1.4
		c0-0.1,0.1-0.2,0.1-0.2c0-0.1,0.1-0.1,0.2-0.2c0-0.1,0.1-0.2,0.2-0.3c0.1-0.1,0.2-0.2,0.2-0.3c0.1-0.1,0.1-0.2,0.2-0.3
		c0.1-0.1,0.2-0.1,0.2-0.2c0.1-0.1,0.1-0.2,0.2-0.3c0.2-0.3,0.5-0.5,0.7-0.8c0.2-0.3,0.5-0.5,0.8-0.8c0.1-0.2,0.1-0.4,0.2-0.6
		c0.1-0.2,0.1-0.3,0.3-0.5c0.1-0.1,0.2-0.1,0.3-0.1c0.1,0,0.1,0,0.2,0.1c0,0,0.1,0,0.1-0.1c0,0.1,0,0.2,0.1,0.3s0.1,0.2,0.2,0.1
		c0,0,0,0.1,0.1,0.1c0,0.1,0.1,0.2,0.1,0.3c0,0.1,0,0.2,0.1,0.3c0,0.1,0.1,0.1,0.1,0.1c-0.1,0.1-0.1,0.1-0.1,0.2c0,0,0.1,0,0.1,0
		s0-0.1,0.1-0.1c0,0.1,0,0.2,0,0.3c0,0.1,0,0.2-0.1,0.3c0,0.1,0.1,0.2,0,0.4c0,0.1,0,0.3-0.1,0.5c0,0.1,0,0.2,0,0.2
		c0,0.1-0.1,0.2-0.1,0.3c0,0.3,0,0.6-0.1,0.9c-0.1,0.3-0.1,0.6-0.2,0.8c0,0.1,0,0.1,0,0.2c0,0,0,0.1-0.1,0.1c0,0.1,0,0.2,0,0.3
		s0,0.2-0.1,0.3c0,0,0,0.1,0,0.3c0,0,0,0,0,0.1c0,0-0.1,0.1-0.1,0.1c0,0.3-0.1,0.6-0.1,0.9c0,0.3-0.1,0.6-0.1,0.9c0,0.1,0,0.3,0,0.5
		c0.1,0.2,0.1,0.4,0.1,0.6c0.1-0.1,0.2-0.1,0.3-0.1c0.1,0,0.1,0,0.1,0c0,0,0.1,0,0.1-0.1c0,0,0.1-0.1,0.2-0.2
		c0.1-0.1,0.2-0.2,0.4-0.3c0.1-0.1,0.2-0.2,0.4-0.3c0-0.1,0.1-0.2,0.2-0.3c0.1-0.1,0.2-0.2,0.2-0.2c0.1-0.1,0.2-0.2,0.4-0.4
		c0.2-0.2,0.3-0.4,0.4-0.5c0,0,0.1,0,0.1-0.1c0.1-0.1,0.1-0.1,0.2-0.2c0.1-0.1,0.1-0.2,0.2-0.2s0.1-0.1,0.1-0.2c0,0,0,0-0.1,0.1
		s-0.1,0.2-0.1,0.2c0.1,0,0.2-0.1,0.2-0.2c0.1-0.1,0.1-0.2,0.2-0.2c0,0,0.1,0,0.2-0.1c0.1-0.1,0.1-0.1,0.2-0.2
		c0.1-0.1,0.1-0.1,0.1-0.1c0,0,0,0-0.1,0.1c0.1,0,0.2-0.1,0.2-0.1c0,0,0.1-0.1,0.1-0.2c0,0.1,0,0.1,0,0.2s0,0.1,0.1,0.1
		c-0.1,0.1-0.2,0.2-0.1,0.3c0,0.1,0,0.2-0.1,0.3c0,0.1,0,0.1,0,0.2c0,0-0.1,0.1-0.1,0.1s-0.1,0.1-0.1,0.1c0,0-0.1,0.1-0.1,0.2
		c0,0-0.1,0.1-0.1,0.2c-0.1,0.1-0.2,0.2-0.3,0.4c-0.1,0.1-0.2,0.3-0.3,0.4C48,19.8,48,19.8,48,19.9c-0.1,0.2-0.3,0.3-0.3,0.4
		c-0.1,0.1-0.2,0.2-0.2,0.3c-0.1,0.1-0.1,0.2-0.2,0.3c-0.1,0.1-0.2,0.2-0.4,0.4c0,0,0,0,0.1-0.1c0-0.1,0.1-0.1,0.1-0.2
		c0-0.1,0.1-0.2,0.1-0.3c0,0-0.1,0-0.1,0.1c0,0.1-0.1,0.2-0.2,0.3c-0.1,0.1-0.1,0.2-0.2,0.3s-0.1,0.1-0.1,0.2c0,0,0,0-0.1,0
		c-0.1,0-0.1,0-0.1,0c-0.2,0.1-0.3,0.2-0.3,0.3c0,0.1-0.2,0.2-0.4,0.3c-0.2,0.1-0.4,0.2-0.6,0.2s-0.5,0.1-0.6,0
		c-0.1-0.1-0.2-0.1-0.4-0.2c-0.1,0-0.2-0.1-0.3-0.3s-0.1-0.2-0.2-0.4c-0.1-0.1-0.1-0.3-0.1-0.4c0-0.2-0.1-0.3-0.2-0.4
		c-0.1-0.1-0.1-0.3-0.1-0.4c-0.2-0.7-0.2-1.4-0.1-2.1s0.2-1.4,0.3-1.9c-0.2,0.3-0.4,0.6-0.5,0.8c-0.2,0.3-0.3,0.6-0.4,1c0,0,0,0,0,0
		c0,0,0,0,0,0c0,0,0,0.1,0,0.1c0,0,0,0,0,0c0,0-0.1,0.1-0.1,0.2c0,0.1-0.1,0.1-0.1,0.1c0,0,0,0.1,0,0.1c0,0,0,0.1,0,0.1
		c-0.2,0.3-0.4,0.7-0.6,1s-0.4,0.7-0.6,1c-0.1,0-0.1,0.1-0.1,0.2c0,0.1-0.1,0.1-0.1,0.2c0,0,0,0.1,0,0.1c0,0,0,0,0,0.1
		c-0.4,0.6-0.8,1.1-1.2,1.6c-0.1,0.1-0.2,0.2-0.3,0.2c-0.1,0-0.2,0.1-0.3,0.2c-0.1,0-0.3,0.1-0.4,0c-0.1,0-0.3,0-0.4,0
		c-0.1-0.1-0.2-0.2-0.3-0.3c-0.1-0.1-0.2-0.2-0.3-0.4c0-0.1,0-0.1-0.1-0.2s-0.1-0.1-0.1-0.1c-0.2-0.3-0.4-0.7-0.4-1.2
		c-0.1-0.5-0.1-0.9-0.1-1.4c0-0.8,0.1-1.6,0.2-2.4c0.1-0.8,0.3-1.5,0.4-2.2c0.1-0.4,0.2-0.8,0.3-1.1c0.1-0.3,0.2-0.6,0.3-0.8
		c0.1-0.3,0.2-0.5,0.3-0.8c0.1-0.3,0.2-0.6,0.4-1c0.1-0.1,0.1-0.2,0.2-0.3c0.1-0.1,0.1-0.2,0.2-0.3c0,0,0,0,0,0c0,0,0,0,0,0
		c0.1-0.1,0.1-0.1,0.2-0.1c0.1,0,0.1,0,0.1-0.1c0.1,0,0.1,0,0.2,0c0.1,0,0.1,0,0.2,0c0.3,0,0.5,0.1,0.7,0.3c0.2,0.2,0.3,0.4,0.4,0.6
		c0,0.1,0,0.1,0.1,0.2c0,0.2,0.1,0.4,0.1,0.6s0.1,0.5,0,0.7c0,0,0,0,0,0.1c0,0,0,0.1,0,0.1c0,0,0,0.1,0,0.2c0,0.1,0,0.1,0,0.2
		c0,0.2-0.1,0.4-0.1,0.5s-0.1,0.2-0.2,0.3c-0.1,0.1-0.2,0.2-0.2,0.3c-0.1,0.1-0.1,0.2-0.2,0.4c-0.1,0.1-0.1,0.2-0.2,0.3
		c0,0.1-0.1,0.2-0.1,0.3c0,0,0,0.1-0.1,0.2c0,0.1,0,0.1,0,0c0,0,0-0.1,0-0.1c0-0.1,0-0.1,0.1-0.2c0,0,0,0,0,0c0,0.1-0.1,0.3-0.1,0.4
		c0,0.1-0.1,0.3-0.1,0.4c0,0.1-0.1,0.2-0.1,0.3c0,0.1-0.1,0.2-0.1,0.3c0,0.1,0,0.2,0,0.3c0,0.1,0,0.2,0,0.3s0,0.2-0.1,0.2
		c0,0.2,0,0.3-0.1,0.5c0,0.1-0.1,0.3-0.1,0.4c0,0.2-0.1,0.5-0.1,0.7C39.2,19.7,39.1,19.9,39.1,20.1z"/>
	<path class="st0" d="M53.9,3.6L53.9,3.6c0.2,0,0.3,0.1,0.3,0.2l0.1,0.1h0.1c0.1,0,0.1,0.1,0.1,0.1c0,0.1,0,0.1,0.1,0.2
		s0.1,0.1,0.1,0.1c0,0,0.1,0.1,0.1,0.1c0,0,0,0.1,0,0.1c0,0,0,0,0,0.1C55,4.6,55,4.7,55,4.7c0,0,0,0.1,0,0.1c0,0,0,0,0,0.1
		c0,0.2-0.1,0.5,0,0.7c0,0.3,0,0.5,0,0.7c0,0,0,0,0,0.1c0,0,0,0,0,0.1c0,0,0,0.1,0,0.1c0,0.1,0,0.1,0,0.1c0,0.1,0,0.2,0,0.3
		c0,0.3-0.1,0.5-0.1,0.8c-0.1,0.2-0.1,0.5-0.2,0.7c-0.1,0.2-0.1,0.3-0.2,0.5c-0.1,0.2-0.1,0.3-0.2,0.5C54,9.5,54,9.7,54,9.9
		c0,0.2-0.1,0.3-0.2,0.5c0,0,0,0,0,0c0,0,0,0,0,0c0,0-0.1,0.1-0.1,0.2c0.4,0,0.9,0,1.3,0s0.9,0,1.3,0c0,0,0,0,0,0c0,0,0,0,0,0
		c0,0,0.1,0,0.1,0c0,0,0.1,0,0.1,0c0,0,0,0,0,0c0,0,0,0,0,0c0,0,0.1,0,0.1,0c0.1,0,0.1,0,0.1,0v0.1h0.1h0c-0.1,0-0.2,0.1-0.2,0.1
		h-0.1c-0.1,0-0.2,0-0.3,0s-0.2,0-0.4,0V11c0,0-0.1,0-0.1,0c0,0-0.1,0-0.1,0c0,0.1-0.1,0.1-0.2,0.1c-0.1,0-0.2,0-0.2,0.1h0.1h0
		c0,0,0,0,0,0c0,0,0.1,0,0.1,0c0,0,0,0,0.1,0l0.1,0c0,0,0,0,0.1,0c0,0,0,0,0.1,0c0.1,0,0.2,0,0.4,0c0.1,0,0.3,0,0.4,0
		c-0.1,0-0.2,0.1-0.3,0.1c-0.1,0-0.2,0-0.3,0c0,0-0.1,0-0.2,0c0,0-0.1,0-0.1,0.1c0,0,0,0-0.1,0c0,0.1,0,0.1,0,0.1s0,0,0,0
		c0,0,0,0,0,0v0.1c-0.1,0-0.2,0-0.2-0.1c0,0.1-0.1,0.1-0.2,0.1s-0.2,0-0.3,0c0,0,0,0,0,0c0,0,0,0,0,0c0,0,0,0,0,0c0,0,0,0,0,0h-0.2
		c0,0,0,0,0,0c0,0,0,0,0,0c-0.1,0-0.2,0.1-0.3,0.1s-0.2,0-0.2,0.1c0,0,0.1,0,0.2,0c0,0,0.1,0,0.1,0c0,0,0,0,0.1,0c0,0,0,0,0,0
		c0,0,0,0,0,0c-0.1,0-0.1,0-0.1,0.1c0,0-0.1,0-0.1,0c0,0,0,0,0,0s0,0,0,0c-0.1,0-0.2,0-0.2,0.1c-0.1,0-0.2,0-0.3,0
		c-0.1,0.3-0.2,0.7-0.3,1c-0.1,0.3-0.2,0.6-0.3,0.9c0,0.1,0,0.1,0,0.2c0,0,0,0.1,0,0.2s0,0.2-0.1,0.3v0.5c0,0,0,0.1,0,0.1
		c0,0,0,0.1,0,0.1s0,0.1,0,0.1c0,0,0,0,0,0.1v0.1c0,0.1,0,0.3-0.1,0.3c-0.1,0.1-0.1,0.2-0.2,0.3L52,16.4L52,16.6c0,0,0,0.1-0.1,0.1
		c0,0,0,0,0,0.1c0,0.1-0.1,0.2-0.1,0.3c0,0.1,0,0.2-0.1,0.3c0,0,0,0.1-0.1,0.2c0,0.1-0.1,0.2-0.1,0.3c0,0.1-0.1,0.2-0.1,0.3
		c0,0.2-0.1,0.4-0.1,0.6c-0.1,0.2-0.1,0.4-0.2,0.6c0,0.1-0.1,0.1-0.1,0.1v0.1c0,0.1,0,0.3-0.1,0.4C51,20,50.9,20.1,51,20.3
		c-0.1,0.1-0.1,0.2-0.1,0.2c0,0.1,0,0.2-0.1,0.3c0,0.1,0,0.1-0.1,0.2c0,0-0.1,0.1-0.1,0.2v0.1l-0.1,0.1c0,0.1,0,0.1,0,0.2
		c-0.1,0.1-0.1,0.1,0,0.2c0,0-0.1,0.1-0.1,0.1c0,0,0,0.1,0,0.1c0,0.1,0,0.1,0,0.2c0,0.2,0,0.3,0,0.3c0,0,0,0,0,0c0,0,0,0,0,0
		c0,0,0,0.1,0.1,0.1c0.1,0,0.2,0,0.3-0.1c0.1-0.1,0.1-0.2,0.2-0.2l0.2-0.2c0,0,0.1,0,0.1-0.1c0,0,0.1,0,0.1-0.1
		c0.2-0.1,0.3-0.2,0.5-0.3c0.1-0.1,0.3-0.2,0.4-0.3c0.3-0.2,0.6-0.4,0.8-0.6s0.5-0.4,0.8-0.6c0.1-0.1,0.3-0.2,0.4-0.3
		c0.1-0.1,0.3-0.2,0.4-0.3c0.1-0.1,0.3-0.2,0.4-0.3c0.1-0.1,0.2-0.2,0.4-0.3c0.1-0.1,0.2-0.2,0.4-0.3c0.1-0.1,0.2-0.2,0.4-0.3
		c0.1-0.1,0.2-0.2,0.4-0.3c0.1-0.1,0.3-0.2,0.4-0.3c0,0.1,0,0.2,0.2,0.2c0,0.1-0.1,0.1-0.1,0.2c0,0.1,0,0.2,0,0.3c0,0,0.1,0,0.1,0
		c0.1,0,0.1,0,0.2,0c0,0,0,0,0,0c0,0,0,0,0,0c0,0,0,0,0,0c0,0,0,0,0,0c0,0,0,0,0,0c0,0,0,0,0,0c-0.1,0.1-0.1,0.2-0.2,0.3
		c-0.1,0.1-0.2,0.1-0.3,0.2c-0.2,0.2-0.3,0.4-0.5,0.5c-0.2,0.2-0.3,0.3-0.5,0.5c-0.1,0.1-0.1,0.2-0.2,0.3s-0.2,0.2-0.3,0.3
		c-0.1,0.1-0.1,0.1-0.2,0.2c-0.1,0.1-0.1,0.1-0.2,0.2l-0.1,0.1c0,0,0,0,0,0c0,0,0,0,0,0c0,0,0,0-0.1,0c0,0,0,0-0.1,0.1
		c-0.3,0.3-0.7,0.6-1.1,0.8c-0.4,0.3-0.7,0.5-1,0.8c0,0,0,0.1-0.1,0.2c-0.1,0.1-0.1,0.1-0.2,0.1c0,0.1-0.1,0.1-0.1,0.2
		c-0.1,0.1-0.2,0.1-0.3,0.1c0,0,0,0.1,0,0.1c0,0,0,0,0,0c0,0,0,0,0,0c0,0,0,0,0,0c0,0-0.1,0-0.1,0l-0.1,0.1c0,0,0,0,0,0
		c0,0,0,0,0,0.1c0,0,0,0,0,0c0,0-0.1,0-0.1,0c-0.2,0.1-0.3,0.2-0.5,0.2c-0.1,0.1-0.3,0.1-0.4,0.2c-0.1,0.1-0.1,0.1-0.1,0.1h-0.1
		c-0.1,0-0.2,0-0.2,0.1c-0.1,0-0.1,0-0.2,0.1H50c0,0-0.1,0.1-0.1,0.1h-0.1c-0.1,0-0.1,0-0.3,0.1h0c-0.1,0-0.1,0-0.1-0.1
		c0,0,0-0.1-0.1-0.1c0-0.1-0.1-0.1-0.1-0.1c-0.1,0-0.1-0.1-0.1-0.2c-0.1,0.1-0.1,0.1-0.2,0v0v0c0,0-0.1,0-0.1-0.1
		c0,0-0.1-0.1-0.1-0.1l0-0.1v-0.1v-0.2l-0.1-0.1v-0.1c0-0.3,0-0.5-0.1-0.6c0,0,0,0-0.1-0.1c0,0,0-0.1-0.1-0.2c0-0.2-0.1-0.3-0.1-0.6
		c0-0.2,0-0.4,0-0.6c0-0.2,0-0.4,0-0.6c0-0.2,0-0.4,0-0.6c0-0.2,0-0.3,0-0.4c0-0.1,0-0.1,0.1-0.3c0.1-0.5,0.2-1.2,0.2-1.9v-0.3
		c0-0.1,0.1-0.2,0.1-0.2c0-0.1,0.1-0.3,0.1-0.4c0-0.1,0-0.3,0.1-0.4c0-0.1,0-0.2,0-0.3c0-0.1,0.1-0.2,0.1-0.3c0-0.2,0.1-0.4,0.1-0.7
		c0-0.2,0.1-0.5,0.1-0.7c0-0.1,0.1-0.2,0.1-0.3c0-0.1,0-0.2,0-0.3c0,0,0-0.1,0.1-0.1c0,0,0-0.1,0.1-0.1c0-0.1,0-0.1,0-0.1
		c0-0.1,0-0.2,0-0.2c0.1-0.2,0.1-0.3,0.2-0.5s0.1-0.3,0.1-0.5c0,0-0.1,0-0.1,0c0,0,0,0,0,0c0,0-0.1,0-0.1,0c-0.1,0-0.1,0-0.2,0
		c0,0-0.1,0-0.1,0c0,0,0,0-0.1,0c0,0-0.1,0-0.1,0c0,0-0.1,0-0.1,0c-0.1,0-0.1,0-0.1,0c0,0,0,0.1,0.1,0.1c-0.1,0.1-0.2,0.1-0.3,0.1
		c0,0,0,0,0,0c0,0,0,0,0,0v-0.1c0,0,0,0.1-0.1,0.1c0,0-0.1,0-0.1,0h-0.1c0,0,0,0,0,0c0,0-0.1,0-0.1,0c0,0,0,0-0.1,0l0,0.1
		c0,0,0,0,0-0.1c0,0-0.1,0-0.1,0.1s0,0.1-0.1,0.1c0,0,0,0,0,0c0,0,0,0,0,0c0,0-0.1,0-0.1,0c0,0-0.1,0-0.1,0c0,0,0,0-0.1,0
		c0,0,0,0-0.1,0c0,0,0,0,0,0c0,0,0,0,0,0c0.2,0,0.3-0.1,0.3-0.2c0,0-0.1,0-0.1,0.1c0,0,0,0,0,0c0,0,0,0,0,0c0,0-0.1,0-0.2,0
		c-0.1,0-0.1,0-0.1,0.1c0,0,0,0,0-0.1c0,0-0.1,0-0.1,0c0,0,0,0-0.1,0c0,0-0.1,0-0.1,0.1c0,0-0.1,0,0-0.1c0,0,0-0.1,0-0.1v0
		c0,0,0,0,0,0c0,0,0,0,0,0c0,0-0.1,0.1-0.1,0.1c0,0,0-0.1,0.1-0.1s0.1,0,0.1-0.1c0,0-0.1,0.1-0.1,0c0,0,0.1,0,0.1,0
		c0,0-0.1,0-0.1-0.1c0.1-0.1,0.2-0.2,0.3-0.3c0.1-0.1,0.3-0.2,0.4-0.2c0,0,0.1,0,0.1,0c0,0,0,0,0.1,0c0,0,0-0.1,0-0.1
		c0.1,0,0.1,0,0.1,0c0,0,0.1,0,0.1-0.1c0,0,0.1,0,0.1-0.1c0.1,0,0.1,0,0.1-0.1c0,0,0.1,0,0.1,0c0,0,0.1,0,0.1-0.1
		c0.2,0,0.4-0.1,0.6-0.2c0.2-0.1,0.4-0.1,0.6-0.1c0.1-0.3,0.2-0.6,0.3-0.9c0.1-0.3,0.2-0.6,0.3-0.9c0.1-0.3,0.2-0.6,0.3-0.9
		c0.1-0.3,0.2-0.6,0.3-0.9c0.2-0.4,0.3-0.8,0.5-1.3s0.4-0.8,0.7-1.1c0.1-0.1,0.1-0.2,0.3-0.3C53,4.1,53.1,4,53.2,4c0,0,0.1,0,0.1,0
		s0,0,0.1,0c0.1,0,0.2-0.1,0.3-0.1C53.7,3.7,53.8,3.7,53.9,3.6z M48.4,11.8L48.4,11.8L48.4,11.8z M50.1,23.9
		C50.1,23.9,50.1,23.9,50.1,23.9L50.1,23.9C50.1,23.9,50.1,23.9,50.1,23.9z M50.3,22.6C50.3,22.6,50.4,22.6,50.3,22.6
		c0.1,0,0.1,0,0.2-0.1C50.4,22.5,50.3,22.5,50.3,22.6z"/>
	<path class="st0" d="M74.9,0.5h0.2c0.1,0.1,0.2,0.2,0.4,0.2c0.1,0.1,0.2,0.1,0.2,0.2c0,0,0.1,0.1,0.1,0.1c0,0.1,0,0.1,0.1,0.1
		c0,0.1,0.1,0.2,0.1,0.2S76,1.6,76,1.6c0,0,0.1,0.1,0.1,0.1c0,0,0.1,0.1,0.1,0.2l0,0.1c0.2,0.3,0.3,0.7,0.4,1.1s0.1,0.8,0.2,1.2v0.1
		c0,0,0,0,0,0.1l0,0.1c0.1,0.1,0.1,0.2,0.1,0.5c0,0.2-0.1,0.5-0.1,0.9c-0.1,0.3-0.2,0.7-0.3,1.1c-0.1,0.4-0.2,0.7-0.3,1.1
		c-0.1,0.4-0.2,0.7-0.3,0.9c-0.1,0.3-0.1,0.4-0.2,0.5v0.2c-0.2,0.5-0.3,0.9-0.4,1.4s-0.3,0.9-0.4,1.3c0,0.1-0.1,0.1-0.1,0.1
		c-0.1,0.2-0.1,0.3-0.1,0.5c-0.1,0.2-0.2,0.5-0.2,0.9c-0.1,0.4-0.1,0.7-0.2,0.9c0,0.2-0.1,0.4-0.2,0.5c0,0,0,0.1,0,0.1s0,0.1,0,0.1
		c0,0.1,0,0.2,0,0.3s-0.1,0.3-0.1,0.5c0,0.2-0.1,0.4-0.1,0.5c0,0.2,0,0.3-0.1,0.3l-0.1,0.2v0.2c0,0.2-0.1,0.4-0.2,0.5
		c-0.1,0.1-0.1,0.3-0.1,0.5c0,0.2-0.1,0.4-0.1,0.6c0,0.2,0,0.4-0.1,0.7c0,0.2-0.1,0.4-0.1,0.6S73,20.9,73,21.1c0,0,0,0.1,0,0.1
		c0,0,0,0,0,0.1c-0.1,0.1-0.1,0.2-0.1,0.3c0,0.1,0,0.2,0,0.3c0,0.1,0,0.1,0.1,0.2c0,0,0.1,0,0.1,0c0,0,0,0,0.1,0
		c0.1,0,0.1,0,0.2-0.1c0.1,0,0.2-0.1,0.2-0.1c0.1,0,0.1,0,0.1,0c0.3-0.2,0.5-0.3,0.6-0.3c0.1,0,0.1-0.1,0.1-0.1c0,0,0.1-0.1,0.1-0.1
		c0.1-0.1,0.2-0.2,0.5-0.4c0,0,0-0.1,0.1-0.2c0.1-0.1,0.2-0.2,0.3-0.4c0.1-0.2,0.3-0.3,0.4-0.4c0.1-0.1,0.3-0.2,0.4-0.3
		c0.1-0.1,0.2-0.3,0.4-0.4c0.1-0.2,0.3-0.3,0.4-0.5c0.2-0.2,0.3-0.3,0.5-0.5c0.1-0.2,0.3-0.3,0.4-0.4c0.1,0,0.2,0,0.2-0.2
		c0,0,0.1-0.1,0.3-0.3c0.2-0.2,0.2-0.2,0.3-0.3c0,0,0,0.1,0,0.2c0,0.1,0,0.1,0,0.2c0.1,0,0.2,0,0.2,0c0,0,0,0,0,0c0,0,0,0-0.1,0.1
		L79,17.4c-0.1,0-0.1,0-0.2,0c0,0-0.1,0.1-0.1,0.1c0,0-0.1,0.1-0.2,0.2c-0.1,0.1-0.2,0.2-0.2,0.3c-0.1,0-0.1,0.1-0.1,0s0,0,0,0
		l-0.1,0.1l0,0.1v0c0,0,0,0.1,0,0.1c0,0,0,0,0,0.1c-0.1,0-0.1,0-0.1,0.1l0,0c-0.1,0.1-0.1,0.1-0.2,0.3c-0.1,0.1-0.1,0.2-0.2,0.2
		c0.1,0,0.2-0.1,0.2-0.1c0-0.1,0-0.1,0.1-0.1l0.1,0c0.1,0,0.1,0,0.1-0.1c0-0.1,0.1-0.1,0.2-0.2c0,0,0,0,0,0.1c0,0,0.1-0.1,0.2-0.2
		c0.1-0.1,0.2-0.2,0.2-0.2c0,0,0,0-0.1,0.1c-0.1,0.1-0.3,0.3-0.5,0.6c-0.2,0.2-0.3,0.4-0.4,0.5c-0.1,0-0.1,0.1-0.1,0s0,0,0.1-0.1
		c0,0,0,0,0-0.1c0,0,0,0-0.1,0l-0.1,0.1c0,0,0,0,0,0.1v0.1c-0.1,0-0.2,0.1-0.3,0.2c-0.1,0.1-0.2,0.2-0.3,0.3H77c0,0.1,0,0.1,0,0.1
		h0.1c0,0.1-0.2,0.2-0.4,0.4s-0.4,0.4-0.7,0.7c-0.2,0.2-0.5,0.4-0.7,0.6C75.2,21.9,75,22,75,22.1c0,0.1-0.1,0.2-0.2,0.2
		c-0.1,0-0.1,0.1-0.2,0.2c0,0,0,0,0,0v0c0,0.1,0,0.1-0.1,0.2c0,0,0,0,0,0c-0.1,0-0.1,0-0.2,0.1c-0.1,0-0.1,0.1-0.2,0.2
		c-0.1,0.1-0.2,0.2-0.2,0.2c-0.1,0-0.1,0.1-0.2,0.2c0.1,0,0.2-0.1,0.2-0.1c0,0,0.1-0.1,0.2-0.1c0,0,0,0-0.1,0
		c-0.1,0.1-0.2,0.2-0.3,0.2c-0.1,0-0.2,0.1-0.4,0.1c-0.1,0-0.3,0.1-0.4,0.2s-0.3,0.1-0.5,0.1v0c-0.1,0-0.2,0-0.3,0
		c-0.1,0-0.2,0-0.3,0c0-0.1-0.1-0.1-0.1-0.3c0,0-0.1-0.1-0.1-0.1s-0.1-0.1-0.2-0.1c0-0.1-0.1-0.2-0.1-0.2c0-0.1-0.1-0.2-0.1-0.3
		c0-0.1-0.1-0.2-0.1-0.2c0-0.1,0-0.1-0.1-0.1c0,0,0-0.1-0.1-0.1c0,0,0-0.1-0.1-0.1c0,0,0-0.1-0.1-0.2c0,0-0.1-0.1-0.2-0.1
		c0-0.1-0.1-0.2-0.1-0.3c0-0.1,0-0.2-0.1-0.3c-0.2-0.8-0.3-1.8-0.2-3.1c0,0-0.1,0-0.1-0.1s0-0.1,0-0.2c0-0.1,0-0.1,0-0.2
		s0-0.1-0.1,0c0,0.1,0,0.1,0-0.1c0-0.1,0-0.2,0-0.2L70,17.4c0,0.1,0,0.2-0.1,0.2c-0.1,0-0.1,0.1-0.1,0.1c0,0,0,0,0,0.1v0
		c0,0,0,0.1-0.1,0.1c0,0,0,0,0,0.1c-0.1,0-0.1,0.1-0.1,0.2c0,0.1-0.1,0.1-0.1,0.1c0,0.1,0,0.1-0.1,0.1c0,0,0,0,0,0
		c-0.1,0.2-0.1,0.2-0.2,0.3c-0.1,0.1-0.1,0.1-0.1,0.2c0,0.1-0.1,0.1-0.1,0.1c-0.1,0.2-0.2,0.3-0.3,0.5c-0.1,0.2-0.2,0.3-0.3,0.5
		L68.3,20h0v0.1c0,0.1-0.1,0.1-0.1,0.1c0,0,0,0,0,0s0,0,0,0c0,0,0,0,0,0v0.1c-0.2,0.3-0.4,0.5-0.6,0.8c-0.1,0.1-0.2,0.2-0.2,0.3
		c-0.1,0.1-0.2,0.2-0.3,0.3c-0.1,0.1-0.1,0.1-0.1,0.2c-0.1,0-0.1,0.1-0.2,0.2c0,0-0.1,0-0.1,0c0,0,0,0,0,0v0.1
		c-0.1,0-0.1,0.1-0.2,0.1c-0.1,0.1-0.1,0.1-0.2,0.2c-0.1,0.1-0.2,0.1-0.3,0.2c-0.1,0-0.2,0.1-0.2,0.1s-0.1,0.1-0.2,0.1
		s-0.1,0.1-0.3,0.1c-0.1,0-0.2,0-0.2,0h-0.3c-0.1,0.1-0.2,0.1-0.4,0.1c-0.1,0-0.1,0-0.1,0c0,0,0,0-0.1,0c-0.1,0-0.2-0.1-0.2-0.1
		c-0.1,0-0.1,0-0.2-0.1h-0.1c0,0,0-0.1-0.1-0.1c0,0-0.1-0.1-0.1-0.1c-0.1-0.1-0.2-0.1-0.3-0.2c0,0,0-0.1,0-0.1c0,0-0.1-0.1-0.1-0.1
		c-0.1,0-0.1,0-0.1-0.1c0,0,0,0,0,0c0,0,0,0,0,0v0c0-0.1,0-0.2-0.1-0.3c0-0.1-0.1-0.2-0.2-0.3c0,0,0-0.1,0-0.1s0-0.1-0.1-0.2
		c0-0.2-0.1-0.4-0.1-0.6c0-0.2,0-0.4,0-0.6v-0.4c0-0.1,0-0.3,0-0.4c0-0.1,0-0.3,0-0.4c0-0.1,0.1-0.2,0.1-0.3c0-0.1,0.1-0.2,0.1-0.3
		c0.2-0.6,0.4-1.1,0.7-1.6c0.3-0.5,0.6-1,0.9-1.4c0.1-0.1,0.2-0.2,0.3-0.3c0-0.1,0.1-0.1,0.1-0.2c0-0.1,0.1-0.1,0.1-0.2
		s0.1-0.2,0.3-0.3c0,0,0.1-0.1,0.2-0.2c0.1-0.1,0.2-0.2,0.3-0.3c0.1-0.1,0.2-0.2,0.3-0.3c0.1-0.1,0.2-0.2,0.2-0.2
		c0.1,0,0.1-0.1,0.2-0.2c0.1-0.1,0.1-0.1,0.2-0.1c0.1,0,0.1-0.1,0.2-0.1c0,0,0.2-0.1,0.3-0.2v0v0c0,0,0,0,0-0.1
		c0.1,0,0.1-0.1,0.2-0.1c0.1,0,0.1,0,0.2-0.1c0.1,0,0.2,0,0.2-0.1c0.1,0,0.2-0.1,0.3-0.1c0.2,0,0.3,0,0.5,0s0.3,0.1,0.5,0.1l0.2,0.1
		c0,0,0.1,0.1,0.1,0.2c0,0,0.1,0.1,0.1,0.1c0,0.1,0.1,0.1,0.1,0.1c0.1,0,0.1,0.2,0.2,0.4s0.1,0.4,0.2,0.7c0.1,0.2,0.1,0.5,0.1,0.7
		c0,0.2,0,0.4,0,0.4v-2.1c0-0.4,0-0.8,0-1c0-0.2,0-0.5,0-0.7s0-0.3,0-0.3c0,0,0,0.1,0,0.2s0,0.4,0,0.6s0,0.4,0,0.6
		c0,0.2,0,0.2,0,0.2v-0.1c0,0,0,0,0,0v-0.1c-0.1-0.2,0-0.5,0-0.7v-0.1c0-0.1,0-0.2,0-0.3c0-0.1,0-0.1,0-0.2s0-0.1,0-0.2
		c0-0.1,0-0.2,0-0.3c0-0.1,0-0.2,0.1-0.4c0,0,0-0.1,0-0.1c0,0,0,0,0-0.1c0,0,0,0,0-0.1c0-0.1,0-0.3,0-0.4c0-0.1,0-0.2,0.1-0.3
		c0-0.1,0-0.2,0-0.2c0-0.1,0-0.1,0-0.2c0-0.2,0-0.3,0-0.4c0-0.1,0-0.1,0-0.1s0,0,0-0.1c0,0,0,0,0-0.1c0-0.1,0-0.1,0-0.2s0-0.2,0-0.3
		s0-0.1,0-0.2c0-0.1,0-0.2,0.1-0.3c0-0.1,0-0.1,0-0.2s0-0.2,0-0.2c0-0.2,0.1-0.4,0.1-0.6c0-0.2,0.1-0.4,0.2-0.6V5.3c0,0,0,0,0-0.1
		c0-0.1,0-0.1,0.1-0.2c0-0.1,0-0.2,0-0.3c0-0.1,0-0.2,0.1-0.3c0,0,0-0.1,0.1-0.1c0,0,0.1-0.1,0.1-0.1c0,0,0-0.1,0-0.1
		c0,0,0-0.1,0.1-0.2c0-0.2,0.1-0.2,0.1-0.2c0,0,0,0,0-0.1V3.4c0,0,0-0.1,0-0.1c0-0.1,0-0.2,0.1-0.2c0,0,0,0,0-0.1s0-0.1,0-0.1
		c0-0.1,0.1-0.1,0.1-0.2c0,0,0.1-0.1,0.1-0.2c0,0,0-0.1,0-0.1c0,0,0-0.1,0-0.1c0,0,0.1-0.1,0.1-0.2s0-0.1,0.1-0.2
		c0.1-0.1,0.2-0.2,0.3-0.3c0.1-0.1,0.2-0.2,0.2-0.3c0,0,0.1-0.1,0.1-0.2c0-0.1,0.1-0.1,0.2-0.1c0,0,0.1,0,0.1,0L73,0.8
		c0-0.1,0.1-0.1,0.1-0.1h0c0,0,0,0,0.1,0c0,0,0.1,0,0.1,0c0,0,0,0,0,0c0,0,0-0.1,0.1-0.1l0.1-0.1c0,0,0.1,0,0.1,0s0,0,0.1,0
		c0.1,0,0.1,0,0.2,0s0.1,0,0.1,0c0,0,0.1,0,0.1,0c0,0,0,0,0.1,0c0.1,0,0.2,0,0.4,0C74.7,0.5,74.8,0.5,74.9,0.5z M65,20.5
		c0.1-0.1,0.2-0.2,0.2-0.2c0.1,0,0.1-0.1,0.2-0.1c0,0,0.1-0.1,0.1-0.1c0-0.1,0.1-0.1,0.2-0.3c0,0,0.1-0.2,0.2-0.4
		c0.1-0.2,0.2-0.3,0.2-0.4c0.1-0.1,0.1-0.2,0.2-0.3c0.1-0.2,0.2-0.3,0.2-0.3c0.1-0.1,0.1-0.2,0.1-0.2c0,0,0-0.1,0.1-0.1
		c0,0,0-0.1,0.1-0.1c0,0,0.1-0.1,0.2-0.2c0,0,0-0.1,0.1-0.1c0-0.1,0.1-0.1,0.2-0.2c0.1-0.1,0.1-0.2,0.2-0.3c0,0,0.1-0.2,0.2-0.4
		s0.2-0.3,0.2-0.4c0.2-0.2,0.3-0.4,0.3-0.5s0.1-0.2,0.2-0.3s0.1-0.2,0.2-0.3c0.1-0.1,0.2-0.3,0.3-0.5c-0.1,0-0.1-0.2,0-0.3
		c0.1-0.2,0.1-0.3,0-0.3v-0.3c0,0-0.1-0.1-0.2-0.2c-0.1-0.1-0.1-0.2-0.2-0.2c-0.1,0-0.2,0-0.3,0s-0.2,0-0.2,0
		c-0.1,0.1-0.2,0.2-0.3,0.2c-0.1,0.1-0.1,0.1-0.2,0.2c-0.1,0.1-0.2,0.1-0.2,0.2c0,0.1-0.1,0.2-0.2,0.3c-0.1,0-0.2,0.1-0.3,0.2
		c-0.1,0.1-0.2,0.2-0.2,0.3c-0.1,0.1-0.2,0.2-0.2,0.2s-0.1,0.1-0.2,0.2c0,0.1-0.1,0.3-0.2,0.5c-0.1,0.2-0.2,0.4-0.2,0.4h0
		c0,0.1,0,0.1-0.1,0.3s-0.1,0.2-0.2,0.3c0,0.1,0,0.2-0.1,0.2c0,0,0,0-0.1,0c0,0-0.1,0-0.1,0.1c0,0,0,0.1,0,0.3c0,0.1,0,0.2,0,0.2
		c0,0,0,0,0,0H65c0,0.1,0,0.1,0,0.2s0,0.2-0.1,0.3c-0.1,0.2-0.1,0.4-0.2,0.6s-0.1,0.4-0.2,0.5l0,0.1h0v0.1c0,0.1,0,0.2,0,0.2
		c0,0.2,0,0.3,0,0.4c0,0.1,0,0.3,0,0.4c0.1,0,0.1,0,0.2,0C64.8,20.5,64.9,20.5,65,20.5z M71.5,13.5C71.5,13.5,71.6,13.5,71.5,13.5
		c0-0.1,0.1-0.1,0.1-0.1c0,0,0,0,0-0.1c0,0,0,0,0-0.1c0.1,0,0.1,0,0.1,0c0.1-0.2,0.1-0.4,0.2-0.6c0.1-0.2,0.1-0.4,0.2-0.6v-0.1
		c0,0,0.1,0,0.1-0.1c0,0,0,0,0-0.1v0c0-0.1,0.1-0.1,0.1-0.2c0-0.1,0.1-0.1,0.1-0.2v-0.2c0,0,0-0.1,0.1-0.1V11v-0.1
		c0,0,0-0.1,0.1-0.1c0.1-0.2,0.1-0.4,0.2-0.6c0.1-0.2,0.2-0.5,0.3-0.7c0,0,0-0.1,0.1-0.2V9.2c-0.1,0.5-0.2,0.8-0.2,0.9
		c0,0.1,0,0,0-0.2c0-0.2,0.1-0.5,0.2-0.8s0.2-0.8,0.3-1.1c0.1-0.4,0.2-0.8,0.3-1.1s0.2-0.6,0.2-0.7L73.9,6c0-0.1,0-0.1,0-0.1
		c0,0,0-0.1,0-0.1V5.6V5.5V5.4c0-0.1,0-0.2,0.1-0.3c0-0.1,0.1-0.2,0.1-0.3c0-0.2,0.1-0.3,0.1-0.5c0-0.1,0-0.3,0.1-0.4
		c0,0,0-0.1,0-0.1c0,0,0-0.1,0-0.1V3.6c0-0.1,0-0.1,0-0.2c0,0,0-0.1,0-0.2c0,0,0,0,0-0.1c0,0,0,0,0-0.1c0.1-0.2,0.1-0.4,0.1-0.6
		c0-0.2,0-0.4,0.1-0.6c0-0.1,0-0.1,0-0.1c0,0,0-0.1,0-0.1c-0.1,0-0.2,0-0.2,0s-0.1,0-0.2,0c0,0-0.1,0-0.2,0
		c-0.1,0.1-0.1,0.2-0.2,0.2c-0.2,0.1-0.4,0.3-0.5,0.6c-0.2,0.4-0.4,0.8-0.6,1.2c-0.2,0.4-0.3,0.9-0.5,1.3c0,0,0,0.1,0,0.1s0,0,0,0
		c0,0,0,0.1,0,0.2c0,0-0.1,0-0.1,0.1c0,0,0,0,0,0.1C72,5.7,72,5.9,71.9,6c-0.1,0.1-0.1,0.3-0.1,0.4c0,0.2-0.1,0.3-0.1,0.5
		c0,0.2-0.1,0.4-0.1,0.5l0,0.1c0,0.1,0,0.3-0.1,0.5c0,0.3-0.1,0.5-0.1,0.6c0,0.1,0,0.2,0,0.3c0,0.1,0,0.2,0,0.4c0,0.2,0,0.3-0.1,0.5
		l0.1,0.1c0,0.1,0,0.2-0.1,0.3c0,0.1,0,0.3,0,0.4s0,0.3,0,0.4V12v0.2c0,0,0,0.1,0,0.1c0,0,0,0.1,0,0.1c0,0.2,0.1,0.5,0.1,0.7
		c0,0.2,0,0.5,0.1,0.7l0,0.1c0,0,0-0.1,0.1-0.2C71.5,13.6,71.5,13.5,71.5,13.5z"/>
	<path class="st0" d="M80.2,18.9c-0.1-0.1-0.2-0.1-0.3-0.1c0,0-0.1,0-0.1,0.1s-0.1,0-0.2,0c0,0,0,0,0,0c0,0,0,0,0,0c0,0-0.1,0-0.2,0
		c-0.1,0-0.1,0-0.1,0c-0.2,0-0.3,0.2-0.3,0.3s-0.1,0.3-0.2,0.4c0,0.2-0.1,0.4-0.2,0.5c-0.1,0.1-0.1,0.3-0.2,0.5
		c-0.1,0.2-0.1,0.3-0.1,0.3c0,0,0,0.1,0,0.3c0,0.1,0.1,0.2,0.2,0.2c0.1,0,0.2,0,0.3,0.1c0,0,0.1,0,0.2,0c0.1,0,0.1,0,0.2,0
		c0.2,0,0.4-0.1,0.6-0.2c0.2-0.1,0.4-0.1,0.6-0.2c0.5-0.1,0.9-0.3,1.2-0.5c0.3-0.2,0.7-0.3,1.2-0.5c0.1,0,0.2-0.1,0.4-0.2
		c0.2-0.1,0.4-0.2,0.6-0.4s0.4-0.3,0.6-0.4c0.2-0.1,0.3-0.2,0.3-0.3l0.8-0.6c0.2-0.1,0.3-0.2,0.5-0.3c0.1-0.1,0.3-0.3,0.5-0.4
		c0-0.1,0,0,0.1,0v0.1c0.1,0,0.2,0,0.3,0c0.1,0.1,0.1,0.1,0,0.1c-0.1,0,0-0.1,0-0.1c0,0,0,0.1,0,0.1s0,0,0,0.1
		c-0.1,0.1-0.1,0.1,0,0.1c0,0,0.1,0.1,0.1,0.1c-0.2,0.2-0.3,0.4-0.5,0.6c-0.1,0.2-0.3,0.4-0.5,0.6c-0.1,0.1-0.2,0.2-0.2,0.2
		c-0.1,0-0.1,0.1-0.2,0.1c-0.2,0.3-0.4,0.5-0.5,0.6c-0.2,0.1-0.4,0.3-0.6,0.5c-0.1,0.1-0.2,0.2-0.4,0.3s-0.4,0.3-0.6,0.4
		c-0.2,0.2-0.4,0.3-0.6,0.5s-0.3,0.2-0.4,0.3c-0.3,0.1-0.5,0.3-0.8,0.4c-0.2,0.1-0.5,0.2-0.8,0.3c-0.1,0-0.2,0-0.4,0.1
		c-0.1,0-0.3,0.1-0.4,0.2c-0.1,0-0.2,0-0.2,0c0,0-0.1,0-0.2,0c0,0-0.1,0.1-0.2,0.1s-0.1,0-0.2,0c-0.2,0-0.4,0-0.5,0.1
		c-0.1,0.1-0.3,0.1-0.5,0c-0.1,0-0.2,0-0.3-0.1c-0.1-0.1-0.2-0.1-0.4,0c0,0,0-0.1,0-0.1c0,0,0,0,0-0.1c0,0-0.1,0-0.1,0
		c0,0-0.1,0-0.1,0c0,0,0-0.1,0-0.1s0,0,0-0.1c-0.2-0.2-0.4-0.3-0.5-0.6c-0.1-0.2-0.2-0.5-0.3-0.7c0-0.2,0-0.3,0-0.4
		c0-0.1,0-0.1,0-0.2c0-0.1,0-0.1,0-0.2c0-0.1,0-0.2,0-0.5c0-0.4,0.1-0.7,0.2-0.9c0.1-0.3,0.2-0.6,0.3-0.9c0.1-0.1,0.1-0.2,0.2-0.4
		c0-0.1,0.1-0.2,0.2-0.3c0.3-0.8,0.7-1.5,1.1-2.1c0.4-0.6,0.8-1.3,1.3-1.9c0.1-0.3,0.2-0.6,0.3-0.8s0.3-0.4,0.4-0.6
		c0.1-0.1,0.3-0.3,0.4-0.4s0.3-0.2,0.4-0.3c0,0,0-0.1,0-0.1c0.1,0,0.2-0.1,0.3-0.1c0.1,0,0.2-0.1,0.2-0.2c0.1-0.1,0.3-0.1,0.5-0.1
		c0.1,0,0.3,0,0.4,0c0.1,0,0.2,0.1,0.4,0.1c0,0,0,0.1,0.1,0.1c0.1,0,0.1,0,0.2,0.1c0.1,0,0.2,0.1,0.2,0.2c0.1,0.1,0.1,0.2,0.3,0.3
		c0,0,0,0.1,0,0.1c0,0,0,0,0,0.1c0.1,0.1,0.2,0.3,0.3,0.5c0.1,0.2,0.2,0.3,0.3,0.4c0,0.1,0.1,0.3,0.1,0.4c0,0.1,0,0.3,0,0.4
		c0.1,0.2,0.1,0.4,0,0.5c0,0-0.1,0.1,0,0.2c0,0.1,0,0.1,0,0.2c0,0.2-0.1,0.4-0.1,0.5s0,0.3-0.1,0.4l-0.1,0.2
		c-0.1,0.1-0.1,0.3-0.2,0.4c0,0.1-0.1,0.2-0.2,0.4c-0.1,0.2-0.3,0.4-0.4,0.5c-0.2,0.2-0.3,0.3-0.5,0.4c-0.1,0.1-0.1,0.2-0.2,0.2
		s-0.1,0-0.2,0c-0.1,0.1-0.1,0.1-0.2,0.2s-0.1,0.1-0.2,0.1c-0.1,0-0.2,0-0.2,0.2c-0.1,0.1-0.1,0.2-0.2,0.2c0,0-0.1,0-0.1-0.1
		c-0.1,0-0.1,0.1-0.2,0.1c0,0-0.1,0.1-0.2,0.1c0,0-0.1,0-0.1,0c-0.1,0-0.2,0.1-0.3,0.2s-0.2,0.1-0.3,0.2c0,0,0,0,0,0L80.2,18.9z
		 M82.6,13.7L82.6,13.7c-0.1,0.1-0.3,0.2-0.5,0.4c-0.2,0.1-0.3,0.3-0.4,0.4c0,0,0,0.1-0.1,0.1c-0.1,0-0.1,0.1-0.1,0.1
		c-0.2,0.3-0.4,0.5-0.5,0.8c-0.1,0.3-0.3,0.5-0.6,0.6c0,0.1-0.1,0.3-0.2,0.4c-0.1,0.1-0.1,0.3-0.2,0.4c-0.2,0.5-0.3,0.8-0.4,0.9
		c-0.1,0.1-0.2,0.2-0.2,0.3c0.3-0.3,0.6-0.6,0.9-0.9c0.2-0.1,0.3-0.3,0.5-0.4s0.3-0.3,0.5-0.6c0.1,0,0.2-0.1,0.3-0.2
		c0.1-0.1,0.2-0.2,0.3-0.3c0,0,0.1-0.1,0.1-0.1c0-0.1,0.1-0.1,0.2-0.2c0-0.1,0.1-0.2,0.2-0.2s0.1-0.1,0.1-0.1c0-0.1,0.1-0.2,0.1-0.3
		c0.1-0.1,0.1-0.2,0.2-0.3c0,0,0,0-0.1-0.1c0-0.1-0.1-0.2-0.1-0.3c0-0.1-0.1-0.2-0.1-0.3C82.7,13.8,82.7,13.7,82.6,13.7z"/>
	<path class="st0" d="M87.9,21.1c0.2-0.1,0.3-0.3,0.5-0.5s0.2-0.4,0.3-0.6c0.2-0.4,0.5-0.8,0.7-1.2s0.4-0.8,0.6-1.3
		c0.1-0.2,0.1-0.3,0.2-0.5c0.1-0.2,0.1-0.4,0.2-0.6c0-0.1,0.1-0.2,0.1-0.4c0.1-0.2,0.1-0.3,0.2-0.5c0.1-0.1,0.1-0.3,0.2-0.4
		c0.1-0.1,0.1-0.3,0.2-0.4c0.1-0.2,0.1-0.3,0.2-0.5s0.1-0.3,0.2-0.5c0,0,0-0.1,0-0.1c0,0,0-0.1,0.1-0.1c0,0,0.1-0.1,0.1-0.1
		s0.1,0,0.1-0.1c0-0.1,0.1-0.2,0.1-0.3c0-0.1,0.1-0.2,0.1-0.3c0.1-0.2,0.2-0.4,0.3-0.5c0,0,0,0,0,0c0,0,0,0,0,0c0-0.2,0-0.3,0.1-0.5
		c0.1-0.2,0.2-0.3,0.3-0.4c0-0.1,0-0.1,0-0.2c0.1,0,0.1-0.1,0.2-0.1c0.2,0,0.3,0,0.3,0c0,0,0.1,0,0.1,0.1c0,0.1,0,0.1,0,0.1
		c0,0,0.1,0,0.1,0c0,0,0.1,0,0.1-0.1c0,0,0,0.1,0,0.2c0,0.1,0,0.1,0,0.2c0,0,0,0,0,0s0,0,0,0c0,0,0,0,0.1,0c0,0.1,0,0.3,0,0.3
		c0,0.1,0,0.2,0,0.2c0,0,0,0.1,0,0c0,0,0,0,0,0c0,0.1,0,0.1,0,0.2c0,0.1,0.1,0.1,0,0.2c0,0.1,0,0.2-0.1,0.3c0,0.1,0,0.2,0,0.3
		c0.1,0.1,0.1,0.1,0.1,0.2c0,0.1,0.1,0.1,0.1,0.2c0,0.1,0,0.1,0.1,0.2c0,0.1,0,0.2,0,0.3c0,0.1,0,0.2,0,0.3c0,0.1,0,0.2,0,0.3
		s-0.1,0.1-0.1,0.2c-0.1,0.2-0.1,0.4-0.2,0.7s-0.1,0.5-0.1,0.7c0,0.1-0.1,0.2-0.1,0.3c-0.1,0.1-0.1,0.2-0.1,0.3
		c-0.1,0.2-0.1,0.5-0.2,0.7c-0.1,0.2-0.2,0.4-0.3,0.7c-0.1,0.1-0.2,0.3-0.3,0.5c-0.1,0.2-0.2,0.3-0.3,0.5c-0.1,0.1-0.2,0.3-0.3,0.4
		c-0.1,0.2-0.2,0.3-0.2,0.4c0,0-0.1,0.1-0.1,0.2c0,0.1-0.1,0.2-0.1,0.3c-0.1,0.1-0.1,0.2-0.2,0.3s-0.1,0.2-0.2,0.3
		c-0.3,0.5-0.7,0.8-1,1.2c0,0.1,0,0.1-0.1,0.1c0,0-0.1,0.1-0.1,0.1c-0.1,0-0.1,0.1-0.2,0.2c-0.1,0.1-0.1,0.2-0.2,0.2
		c0,0-0.1,0.1-0.1,0.1c0,0-0.1,0-0.1,0.1c-0.1,0-0.1,0.1-0.2,0.2c-0.1,0.1-0.1,0.2-0.2,0.2c-0.1,0.1-0.2,0.1-0.3,0.1
		c-0.1,0.1-0.3,0.1-0.5,0.2c-0.2,0.1-0.4,0.1-0.6,0c0,0-0.1,0-0.1-0.1c-0.1,0-0.2,0-0.2,0c0,0-0.1-0.1-0.2-0.1
		c-0.2-0.2-0.4-0.4-0.6-0.7c-0.2-0.2-0.4-0.5-0.5-0.8c-0.2-0.5-0.3-1-0.3-1.6c0-0.6,0-1.2,0-1.8c0-0.5,0-1,0-1.5c0-0.5,0-1,0.1-1.5
		c0-0.4,0.1-0.7,0.1-1.1c0-0.4,0.1-0.7,0.2-1.1c0-0.2,0-0.3,0.1-0.4s0.1-0.3,0.1-0.5c0-0.2,0-0.3-0.1-0.4C86,11.9,86,11.8,86,11.5
		c0.1,0,0.1,0,0.1-0.1c0,0,0,0,0-0.1c0,0,0,0,0-0.1c0.1-0.3,0.3-0.5,0.6-0.6c0.2,0,0.4,0,0.5,0.1c0.1,0.1,0.2,0.2,0.3,0.3
		c0,0.1,0.1,0.2,0.2,0.3c0.1,0.1,0.2,0.2,0.2,0.4c0.1,0.2,0.2,0.5,0.2,0.8c0,0.3-0.1,0.6-0.3,0.8c0,0,0,0.1,0,0.1c0,0,0,0.1,0,0.2
		c0,0.1,0,0.2,0,0.3c0,0.1,0,0.2,0,0.3c0,0,0,0,0,0.1c0,0,0,0,0,0.1c0,0.1,0,0.2,0.1,0.3c0,0.1,0,0.1-0.1,0.2c0,0.2,0,0.3-0.1,0.4
		c0,0.1-0.1,0.2-0.1,0.4c-0.1,0.2-0.1,0.4-0.1,0.6c0,0.2,0,0.4,0,0.5c0,0.3,0,0.6,0,0.9c0,0.4,0,0.7,0,1c0,0.1,0.1,0.2,0.1,0.4
		c0,0.2,0,0.3-0.1,0.3c0,0.1,0.1,0.3,0.1,0.5c0,0.2,0,0.4,0.1,0.5c0.1,0.1,0.1,0.2,0.2,0.3C87.8,21,87.8,21.1,87.9,21.1z M87.5,23.3
		c0,0-0.1,0-0.1,0c0,0,0,0,0,0C87.3,23.3,87.3,23.3,87.5,23.3C87.4,23.3,87.5,23.3,87.5,23.3z M87.7,23.4
		C87.7,23.4,87.7,23.4,87.7,23.4C87.6,23.4,87.6,23.4,87.7,23.4l-0.3-0.1c0,0,0.1,0,0.1,0C87.6,23.4,87.7,23.4,87.7,23.4z"/>
	<path class="st0" d="M96.9,18.9c-0.1-0.1-0.2-0.1-0.3-0.1c0,0-0.1,0-0.1,0.1s-0.1,0-0.2,0c0,0,0,0,0,0c0,0,0,0,0,0c0,0-0.1,0-0.2,0
		c-0.1,0-0.1,0-0.1,0c-0.2,0-0.3,0.2-0.3,0.3s-0.1,0.3-0.2,0.4c0,0.2-0.1,0.4-0.2,0.5c-0.1,0.1-0.1,0.3-0.2,0.5
		c-0.1,0.2-0.1,0.3-0.1,0.3c0,0,0,0.1,0,0.3c0,0.1,0.1,0.2,0.2,0.2c0.1,0,0.2,0,0.3,0.1c0,0,0.1,0,0.2,0c0.1,0,0.1,0,0.2,0
		c0.2,0,0.4-0.1,0.6-0.2c0.2-0.1,0.4-0.1,0.6-0.2c0.5-0.1,0.9-0.3,1.2-0.5c0.3-0.2,0.7-0.3,1.2-0.5c0.1,0,0.2-0.1,0.4-0.2
		c0.2-0.1,0.4-0.2,0.6-0.4s0.4-0.3,0.6-0.4c0.2-0.1,0.3-0.2,0.3-0.3l0.8-0.6c0.2-0.1,0.3-0.2,0.5-0.3c0.1-0.1,0.3-0.3,0.5-0.4
		c0-0.1,0,0,0.1,0v0.1c0.1,0,0.2,0,0.3,0c0.1,0.1,0.1,0.1,0,0.1c-0.1,0,0-0.1,0-0.1c0,0,0,0.1,0,0.1s0,0,0,0.1
		c-0.1,0.1-0.1,0.1,0,0.1c0,0,0.1,0.1,0.1,0.1c-0.2,0.2-0.3,0.4-0.5,0.6c-0.1,0.2-0.3,0.4-0.5,0.6c-0.1,0.1-0.2,0.2-0.2,0.2
		c-0.1,0-0.1,0.1-0.2,0.1c-0.2,0.3-0.4,0.5-0.5,0.6c-0.2,0.1-0.4,0.3-0.6,0.5c-0.1,0.1-0.2,0.2-0.4,0.3s-0.4,0.3-0.6,0.4
		c-0.2,0.2-0.4,0.3-0.6,0.5s-0.3,0.2-0.4,0.3c-0.3,0.1-0.5,0.3-0.8,0.4c-0.2,0.1-0.5,0.2-0.8,0.3c-0.1,0-0.2,0-0.4,0.1
		c-0.1,0-0.3,0.1-0.4,0.2c-0.1,0-0.2,0-0.2,0c0,0-0.1,0-0.2,0c0,0-0.1,0.1-0.2,0.1s-0.1,0-0.2,0c-0.2,0-0.4,0-0.5,0.1
		c-0.1,0.1-0.3,0.1-0.5,0c-0.1,0-0.2,0-0.3-0.1c-0.1-0.1-0.2-0.1-0.4,0c0,0,0-0.1,0-0.1c0,0,0,0,0-0.1c0,0-0.1,0-0.1,0
		c0,0-0.1,0-0.1,0c0,0,0-0.1,0-0.1s0,0,0-0.1c-0.2-0.2-0.4-0.3-0.5-0.6c-0.1-0.2-0.2-0.5-0.3-0.7c0-0.2,0-0.3,0-0.4
		c0-0.1,0-0.1,0-0.2c0-0.1,0-0.1,0-0.2c0-0.1,0-0.2,0-0.5c0-0.4,0.1-0.7,0.2-0.9c0.1-0.3,0.2-0.6,0.3-0.9c0.1-0.1,0.1-0.2,0.2-0.4
		c0-0.1,0.1-0.2,0.2-0.3c0.3-0.8,0.7-1.5,1.1-2.1c0.4-0.6,0.8-1.3,1.3-1.9c0.1-0.3,0.2-0.6,0.3-0.8s0.3-0.4,0.4-0.6
		c0.1-0.1,0.3-0.3,0.4-0.4s0.3-0.2,0.4-0.3c0,0,0-0.1,0-0.1c0.1,0,0.2-0.1,0.3-0.1c0.1,0,0.2-0.1,0.2-0.2c0.1-0.1,0.3-0.1,0.5-0.1
		c0.1,0,0.3,0,0.4,0c0.1,0,0.2,0.1,0.4,0.1c0,0,0,0.1,0.1,0.1c0.1,0,0.1,0,0.2,0.1c0.1,0,0.2,0.1,0.2,0.2c0.1,0.1,0.1,0.2,0.3,0.3
		c0,0,0,0.1,0,0.1c0,0,0,0,0,0.1c0.1,0.1,0.2,0.3,0.3,0.5c0.1,0.2,0.2,0.3,0.3,0.4c0,0.1,0.1,0.3,0.1,0.4c0,0.1,0,0.3,0,0.4
		c0.1,0.2,0.1,0.4,0,0.5c0,0-0.1,0.1,0,0.2c0,0.1,0,0.1,0,0.2c0,0.2-0.1,0.4-0.1,0.5s0,0.3-0.1,0.4l-0.1,0.2
		c-0.1,0.1-0.1,0.3-0.2,0.4c0,0.1-0.1,0.2-0.2,0.4c-0.1,0.2-0.3,0.4-0.4,0.5c-0.2,0.2-0.3,0.3-0.5,0.4c-0.1,0.1-0.1,0.2-0.2,0.2
		s-0.1,0-0.2,0c-0.1,0.1-0.1,0.1-0.2,0.2s-0.1,0.1-0.2,0.1c-0.1,0-0.2,0-0.2,0.2c-0.1,0.1-0.1,0.2-0.2,0.2c0,0-0.1,0-0.1-0.1
		c-0.1,0-0.1,0.1-0.2,0.1c0,0-0.1,0.1-0.2,0.1c0,0-0.1,0-0.1,0c-0.1,0-0.2,0.1-0.3,0.2s-0.2,0.1-0.3,0.2c0,0,0,0,0,0L96.9,18.9z
		 M99.4,13.7L99.4,13.7c-0.1,0.1-0.3,0.2-0.5,0.4c-0.2,0.1-0.3,0.3-0.4,0.4c0,0,0,0.1-0.1,0.1c-0.1,0-0.1,0.1-0.1,0.1
		c-0.2,0.3-0.4,0.5-0.5,0.8c-0.1,0.3-0.3,0.5-0.6,0.6c0,0.1-0.1,0.3-0.2,0.4c-0.1,0.1-0.1,0.3-0.2,0.4c-0.2,0.5-0.3,0.8-0.4,0.9
		c-0.1,0.1-0.2,0.2-0.2,0.3c0.3-0.3,0.6-0.6,0.9-0.9c0.2-0.1,0.3-0.3,0.5-0.4s0.3-0.3,0.5-0.6c0.1,0,0.2-0.1,0.3-0.2
		c0.1-0.1,0.2-0.2,0.3-0.3c0,0,0.1-0.1,0.1-0.1c0-0.1,0.1-0.1,0.2-0.2c0-0.1,0.1-0.2,0.2-0.2s0.1-0.1,0.1-0.1c0-0.1,0.1-0.2,0.1-0.3
		c0.1-0.1,0.1-0.2,0.2-0.3c0,0,0,0-0.1-0.1c0-0.1-0.1-0.2-0.1-0.3c0-0.1-0.1-0.2-0.1-0.3C99.4,13.8,99.4,13.7,99.4,13.7z"/>
	<path class="st0" d="M108.5,1.1h0.1c0.1,0,0.1,0,0.2,0c0,0,0.1,0,0.1,0.1c0.1,0.1,0.2,0.2,0.3,0.3c0.1,0.1,0.3,0.2,0.4,0.3
		c0,0.1,0.1,0.2,0.2,0.2v0.1c0,0.1,0.1,0.1,0.1,0.2c0,0.1,0.1,0.1,0.1,0.1c0,0.1,0,0.1,0.1,0.1c0,0.1,0,0.2,0,0.3s0.1,0.1,0.1,0.2
		c0,0.1,0,0.1,0,0.2c0.1,0.3,0.1,0.6,0.1,0.9c0,0.1,0,0.3,0,0.4c0,0.1-0.1,0.3-0.1,0.5c0,0,0,0.1,0,0.1s0,0.1,0,0.1v0.4
		c0,0-0.1,0.1,0,0.1c0,0,0,0.1,0,0.1l0,0c0,0,0,0,0,0.1c0,0.2,0,0.3-0.1,0.4c0,0.1,0,0.1,0,0.2c0,0.1,0,0.2,0,0.3c0,0,0,0.1,0,0.3
		c0,0.2,0,0.3-0.1,0.5c0,0.2-0.1,0.4-0.1,0.5c0,0.2,0,0.3-0.1,0.3c0,0.1-0.1,0.3-0.1,0.4c-0.1,0.1-0.1,0.3-0.1,0.4
		c-0.1,0.3-0.2,0.7-0.4,1.1c-0.1,0.4-0.3,0.8-0.4,1.2c0,0.2-0.1,0.3-0.2,0.5c-0.1,0.2-0.1,0.3-0.2,0.5c0,0.1-0.1,0.3-0.2,0.5
		c-0.1,0.2-0.2,0.4-0.2,0.4v0.1c0,0-0.1,0.1-0.1,0.1s0,0.1-0.1,0.1c0,0.1,0,0.3-0.1,0.4c-0.1,0.1-0.2,0.3-0.3,0.4c0,0,0,0.1,0,0.1
		s0,0,0,0c0,0.1,0,0.2-0.1,0.3c0,0-0.1,0.1-0.1,0.1v0.1c-0.1,0.1-0.1,0.2-0.2,0.4c-0.1,0.1-0.1,0.2-0.2,0.4
		c-0.1,0.1-0.2,0.3-0.3,0.6c-0.1,0.3-0.3,0.6-0.5,0.9c-0.2,0.3-0.3,0.6-0.5,0.9s-0.3,0.4-0.4,0.5v0.1c0,0,0,0-0.1,0.1
		c0,0-0.1,0-0.1,0.1c0,0.1,0,0.1,0,0.2c0,0,0,0.1,0,0.1c0,0-0.1,0.1-0.1,0.1c-0.1,0-0.1,0.1-0.2,0.2c0,0-0.1,0.1-0.1,0.2
		c0,0.1,0,0.2,0,0.3c0,0.1,0,0.2,0,0.3c0,0.1,0,0.1,0,0.2c0,0,0,0.1,0,0.1c0,0.1,0,0.1,0,0.2c0,0,0,0.1,0,0.1c0,0.1,0,0.2,0.1,0.2
		c0,0.2,0.1,0.3,0.2,0.4l0.2,0.1h0.3c0.1,0,0.1,0,0.2,0c0.1,0,0.2,0,0.2,0c0.2-0.1,0.4-0.2,0.5-0.3c0.1-0.1,0.3-0.2,0.5-0.4
		c0.1-0.1,0.1-0.1,0.2-0.1s0.1-0.1,0.2-0.1h0.1c0.1,0,0.2-0.1,0.3-0.2s0.2-0.1,0.2-0.2c0,0,0.1-0.1,0.1-0.1c0,0,0,0,0.1-0.1
		c0.1,0,0.1-0.1,0.1-0.1c0,0,0,0,0-0.1c0,0,0-0.1,0.1-0.1c0,0,0.1-0.1,0.1-0.1c0,0,0.1-0.1,0.2-0.1c0.5-0.5,0.8-0.9,0.9-1
		c0.2-0.2,0.2-0.3,0.3-0.3c0.1-0.1,0.2-0.2,0.4-0.4c0.1-0.1,0.2-0.2,0.3-0.4c0,0,0.1,0,0.1,0c0,0,0,0,0-0.1c0,0,0,0,0,0c0,0,0,0,0,0
		c0,0,0,0,0,0c0,0,0,0,0,0c0,0,0,0,0,0h0c0.1-0.1,0.1-0.1,0.2-0.1s0.1,0,0.1,0.1c0,0,0,0.1,0,0.1c0,0.1,0,0.1,0.1,0c0,0,0,0.1,0,0.1
		c0,0,0,0,0,0.1c0,0,0,0,0,0.1c0,0,0,0,0,0.1c-0.1,0.1-0.2,0.2-0.3,0.2c-0.1,0.1-0.2,0.2-0.3,0.3c0,0,0,0,0,0c0,0,0,0,0,0l0,0v0.1
		c0,0.1-0.1,0.1-0.1,0.1c0,0.1,0,0.2-0.1,0.2s-0.1,0.1-0.1,0.2c0,0,0,0,0,0c0,0,0,0,0,0c0,0-0.1,0,0,0.1c0,0,0,0.1,0.1,0.1
		c0,0,0,0,0,0c0,0,0,0,0,0.1c0,0,0,0.1,0,0.1c0,0-0.1,0-0.1,0.1c-0.1,0.1-0.1,0.1-0.1,0.1c-0.1,0-0.1,0.1-0.1,0.2
		c0,0.1-0.1,0.1-0.1,0.2c0,0,0,0.1,0,0.1c0,0-0.1,0-0.1,0.1c-0.1,0.1-0.1,0.2-0.2,0.3c-0.1,0.1-0.1,0.2-0.2,0.3
		c-0.1,0.1-0.2,0.2-0.2,0.2c-0.1,0.1-0.1,0.2-0.2,0.2c-0.1,0-0.1,0.1-0.2,0.2c0,0-0.1,0.1-0.1,0.1c0,0-0.1,0-0.1,0.1
		c0,0-0.1,0.1-0.2,0.2c-0.1,0.1-0.2,0.2-0.3,0.3c-0.1,0.1-0.2,0.2-0.3,0.3c-0.1,0.1-0.2,0.1-0.2,0.2c-0.1,0.1-0.2,0.1-0.2,0.2
		c0,0-0.1,0.1-0.2,0.1c0,0-0.1,0-0.1,0.1s-0.1,0-0.1,0.1c-0.1,0-0.2,0-0.3,0c-0.1,0-0.2,0-0.3,0c0,0,0,0-0.1,0c0,0,0,0-0.1,0
		c0,0-0.1,0-0.2,0.1c-0.1,0-0.2,0-0.2,0.1c-0.1,0-0.1,0-0.2,0.1H105c-0.1,0-0.2,0-0.2,0h0c-0.1,0-0.2-0.1-0.3-0.1
		c-0.1,0-0.2,0-0.4,0c0,0-0.1-0.1-0.2-0.1c-0.1,0-0.1-0.1-0.2-0.1c0-0.1,0-0.2-0.1-0.2c-0.1,0-0.1-0.1-0.2-0.2
		c-0.1-0.1-0.2-0.2-0.2-0.3c-0.1-0.1-0.1-0.3-0.2-0.5c0-0.2,0-0.3-0.1-0.5s-0.1-0.3-0.1-0.5c0-0.1,0-0.2,0-0.3
		c0-0.4-0.1-0.8-0.1-1.2c0-0.4-0.1-0.8,0-1.1h0c0.1-0.3,0.2-0.7,0.2-1.1s0-0.8,0-1.2c0-0.1,0-0.2,0.1-0.3c0,0,0,0,0,0c0,0,0,0,0,0
		c0,0,0,0,0,0c0,0,0-0.1,0-0.1c0.1-0.4,0.1-0.8,0.2-1.2c0-0.4,0.1-0.8,0.2-1.2c0,0,0-0.1,0.1-0.1c0,0,0-0.1,0-0.2c0,0,0-0.1,0-0.1
		c0,0,0-0.1,0-0.1c0-0.1,0-0.1,0-0.2c0-0.3,0.1-0.6,0.1-0.9c0-0.3,0.1-0.5,0.1-0.8c0.1-0.5,0.2-0.9,0.3-1.2s0.2-0.7,0.3-1.1
		c0-0.1,0-0.2,0.1-0.5c0,0,0-0.1,0-0.2c0-0.1,0-0.1,0.1-0.2c0-0.1,0-0.1,0.1-0.2V7.6l-0.1-0.1c0.2-0.7,0.4-1.3,0.6-1.9
		c0.2-0.6,0.5-1.1,0.8-1.6c0-0.1,0.1-0.1,0.1-0.2c0,0,0-0.1,0-0.1c0.2-0.4,0.4-0.7,0.6-1c0.2-0.3,0.5-0.6,0.8-0.9c0,0,0,0,0.1,0
		c0,0,0-0.1,0.1-0.1c0,0,0.1,0,0.1,0c0,0,0.1,0,0.1,0c0.1,0,0.2,0,0.3-0.1c0,0,0.1,0,0.1,0c0,0,0-0.1,0-0.1c0,0,0.1,0,0.1,0
		c0,0,0.1-0.1,0.1-0.1C108.3,1.2,108.4,1.1,108.5,1.1z M105.3,16.6c0,0,0-0.1,0.1-0.1c0.1-0.2,0.2-0.4,0.3-0.6
		c0.1-0.2,0.2-0.4,0.3-0.5c0,0,0.1-0.1,0.1-0.1c0,0,0-0.1,0.1-0.1c0,0,0,0,0.1-0.1c0,0,0-0.1,0.1-0.1c0.1-0.3,0.2-0.6,0.4-0.9
		c0.1-0.3,0.3-0.6,0.4-0.9c0-0.1,0-0.1,0-0.1c0,0,0,0,0.1,0s0,0,0-0.1c0,0,0,0,0-0.1c0-0.2,0.1-0.3,0.2-0.4c0.1-0.1,0.1-0.3,0.1-0.4
		c0.1,0,0.1-0.1,0.1-0.2c0-0.1,0.1-0.1,0.1-0.2c0-0.1,0.1-0.2,0.1-0.2c0-0.1,0-0.1,0.1-0.1c0.1-0.4,0.2-0.7,0.3-1s0.2-0.7,0.3-1.1
		c0-0.1,0.1-0.3,0.2-0.7c0.1-0.3,0.1-0.7,0.2-1.2c0.1-0.4,0.1-0.8,0.2-1.2s0.1-0.6,0.1-0.8c0-0.3,0.1-0.6,0-0.9
		c0-0.3-0.1-0.5-0.1-0.8c0-0.2,0-0.5-0.1-0.7c-0.1-0.1-0.1-0.1-0.1-0.1c0,0,0-0.1-0.1-0.2s-0.1-0.1-0.2-0.1h0c0,0-0.1,0.1-0.1,0.1
		c0,0,0,0,0,0.1c0,0,0,0,0,0.1c0,0.2-0.1,0.4-0.2,0.5c-0.1,0.2-0.1,0.3-0.2,0.5c0,0.1-0.1,0.1-0.1,0.2c0,0.1,0,0.2,0,0.2
		c0,0.1,0,0.2-0.1,0.3c0,0.2-0.1,0.3-0.1,0.4c-0.1,0.1-0.1,0.3-0.2,0.4c-0.1,0.1-0.1,0.2-0.1,0.2c0,0.1,0,0.1-0.1,0.1
		c-0.1,0.1-0.1,0.3-0.1,0.5c0,0,0,0.1-0.1,0.2c0,0.1-0.1,0.1-0.1,0.2c0,0.1-0.1,0.3-0.2,0.6s-0.2,0.7-0.3,1.2
		c-0.1,0.4-0.2,0.8-0.3,1.2c-0.1,0.4-0.2,0.7-0.2,0.8c0,0.3-0.1,0.5-0.1,0.8c0,0.2-0.1,0.5-0.1,0.8c0,0.2,0,0.3-0.1,0.5
		c0,0.2-0.1,0.3-0.1,0.5c0,0.1-0.1,0.3-0.1,0.4c0,0.1,0,0.1,0,0.1v0c0,0,0,0.1,0,0.1c0,0.1,0,0.2-0.1,0.3v0.2c0,0,0,0,0.1,0.1
		c-0.1,0.2-0.2,0.5-0.3,0.7c0,0.3-0.1,0.5-0.1,0.9V16c0,0,0,0,0,0.1c0,0,0,0.1,0,0.1C105.2,16.4,105.1,16.5,105.3,16.6
		C105.2,16.7,105.2,16.7,105.3,16.6C105.3,16.7,105.3,16.7,105.3,16.6z"/>
	<path class="st0" d="M122.3,13.4c0.1,0.1,0.1,0.2,0,0.3c-0.1,0.1-0.2,0.3-0.3,0.4c0,0.1-0.1,0.1-0.2,0.2c-0.1,0-0.1,0.1-0.1,0.1
		c-0.3,0.2-0.6,0.4-1,0.5c-0.4,0.1-0.7,0.2-1.1,0.3c-0.4,0.1-0.7,0.1-1,0.1s-0.5,0-0.6,0c-0.1,0.5-0.2,0.8-0.2,1.1s-0.2,0.6-0.3,1
		c0-0.1,0-0.2,0.1-0.3c0-0.1,0.1-0.2,0.1-0.3c-0.1,0.2-0.1,0.3-0.2,0.5c-0.1,0.2-0.1,0.3-0.2,0.5c0,0,0,0.1,0,0.1c0,0,0,0,0,0.1
		c0,0.1-0.1,0.3-0.2,0.5c0,0.1,0,0.2-0.1,0.2c0,0.1-0.1,0.1-0.2,0.2c0,0,0,0,0,0v-0.1c-0.1,0.1-0.1,0.3-0.1,0.4
		c0,0.1-0.1,0.3-0.1,0.4c-0.1,0.2-0.2,0.3-0.3,0.5c-0.1,0.2-0.2,0.3-0.3,0.5c0,0.1-0.1,0.2-0.1,0.3s-0.1,0.2-0.1,0.3
		c0,0.1-0.1,0.1-0.1,0.2c0,0.1-0.1,0.1-0.1,0.2c0,0.1-0.1,0.1-0.1,0.1c-0.1,0-0.1,0.1-0.2,0.1c-0.1,0-0.2,0.1-0.2,0.3
		c-0.1,0.1-0.2,0.2-0.4,0.3c-0.1,0.1-0.3,0.2-0.4,0.3c-0.2,0-0.4,0.1-0.7,0.3c-0.2,0.1-0.5,0.2-0.7,0.2c0,0,0,0,0,0c0,0,0,0,0,0
		c-0.1,0-0.3,0-0.5,0.1c-0.2,0-0.3,0-0.5,0c-0.3-0.1-0.6-0.2-0.8-0.4c-0.2-0.2-0.4-0.4-0.6-0.6c-0.4-0.2-0.6-0.5-0.7-0.9
		c-0.1-0.4-0.2-0.8-0.4-1.2l-0.1-0.1v-0.2c0-0.2,0-0.3-0.1-0.5c0-0.2-0.1-0.3-0.1-0.5c0-0.1,0.1-0.2,0.1-0.3c0-0.1,0-0.2,0-0.3v0
		c0.1-1,0.3-2,0.7-2.9s0.9-1.7,1.4-2.3c0.2-0.2,0.3-0.4,0.4-0.6c0.1-0.2,0.3-0.3,0.5-0.5c0.2-0.1,0.3-0.3,0.5-0.4
		c0.2-0.1,0.3-0.3,0.5-0.4h0.1c0,0,0,0,0,0c0.2-0.1,0.4-0.1,0.6,0s0.4,0.2,0.5,0.3c0.1,0.1,0.1,0.2,0.2,0.3c0,0.1,0.1,0.3,0,0.4
		c0,0,0.1,0,0.1-0.1c0-0.1,0.1-0.1,0.1-0.2c0.1,0.1,0.3,0.1,0.4,0c0.1-0.1,0.2-0.2,0.3-0.3c0.1,0.1,0.2,0.1,0.3,0
		c0.1,0,0.2,0,0.3,0.1c0,0,0.1,0,0.1,0c0,0,0-0.1,0.1-0.1c0,0,0.1,0,0.1,0c0,0,0.1,0,0.1,0c0,0,0.1-0.1,0.1-0.1c0-0.1,0-0.1-0.1-0.1
		c0,0,0.1,0,0.1,0c0,0,0.1,0,0.1,0c0,0,0,0,0,0.1c0,0,0,0.1,0,0.1l0.2,0.2c0,0.1,0,0.2,0.1,0.3s0.1,0.2,0.1,0.3
		c0,0.1,0.1,0.2,0.1,0.3c0,0.1,0.1,0.2,0.2,0.3c0.1,0.1,0.1,0.2,0.2,0.3c0,0.1,0.1,0.3,0.1,0.4c0,0,0,0.1,0,0.2
		c0,0.1,0.1,0.1,0.1,0.1c0-0.1,0-0.2,0-0.3c0-0.1-0.1-0.2-0.1-0.3c0,0,0.1,0.1,0.1,0.1c0,0.1,0,0.1,0,0.2c0,0.1,0.1,0.2,0.1,0.3
		c0,0,0.1,0,0.1,0c0,0,0,0.1,0.1,0.1c0.1,0,0.1,0,0.2,0c0,0,0.1,0,0.1,0c0.1,0,0.3,0,0.4,0c0.2,0,0.3,0,0.5,0c0.2,0,0.3,0,0.5,0
		c0.2,0,0.3,0,0.4-0.1c0.3-0.1,0.6-0.2,0.8-0.3c0.2-0.1,0.4-0.2,0.5-0.3c0.1,0,0.2,0,0.3,0c0.1,0,0.1-0.1,0.2-0.1c0,0,0.1,0,0.1,0
		S122.3,13.3,122.3,13.4z M116.7,17c0.1-0.1,0.1-0.3,0.1-0.4c0-0.2,0-0.3,0.1-0.5c0.1-0.2,0.1-0.3,0.2-0.4s0.1-0.2,0-0.4
		c-0.2,0-0.3,0-0.5-0.1c-0.2-0.1-0.3-0.1-0.4-0.2c-0.1,0-0.2,0-0.3-0.1c-0.1-0.1-0.2-0.2-0.3-0.3c-0.1,0-0.1,0-0.2-0.1
		c-0.1,0-0.2-0.1-0.3-0.2c-0.1-0.1-0.2-0.2-0.3-0.3c-0.1-0.1-0.2-0.3-0.3-0.4c-0.1,0.1-0.1,0.2-0.1,0.3c0,0.1-0.1,0.2-0.1,0.3
		c0,0.1-0.1,0.1-0.1,0.2c-0.1,0.1-0.1,0.1-0.2,0.2c-0.1,0.2-0.2,0.3-0.3,0.5c-0.1,0.2-0.2,0.3-0.3,0.3c0,0.1,0,0.2-0.1,0.2
		s-0.1,0.1-0.1,0.1c-0.1,0.2-0.2,0.4-0.3,0.6s-0.2,0.3-0.3,0.5c-0.1,0.2-0.2,0.4-0.4,0.6c-0.1,0.2-0.2,0.4-0.3,0.6
		c0,0.1,0,0.3,0,0.4c-0.1,0.1-0.1,0.3-0.1,0.4c0,0.2,0,0.3-0.1,0.5c0,0.1,0,0.2,0,0.3s0,0.2,0,0.2c0,0,0,0.1,0,0.1c0,0,0,0.1,0,0.1
		c0,0,0,0.1,0.1,0.1s0,0.1,0.1,0.2v0.1c0,0.1,0.1,0.2,0.2,0.4c0.1,0.1,0.2,0.3,0.3,0.3c0.2,0.1,0.4,0.1,0.5,0.1
		c0.2,0,0.3-0.1,0.5-0.1c0.2,0,0.4-0.1,0.6-0.1c0.2,0,0.3-0.1,0.5-0.2c0.1-0.2,0.3-0.3,0.5-0.4c0.2-0.1,0.3-0.3,0.4-0.4c0,0,0,0,0,0
		c0,0,0,0,0,0c0,0,0,0,0.1,0c0,0,0.1-0.1,0.1-0.1c0,0,0.1-0.1,0.1-0.1c0.1-0.1,0.2-0.3,0.2-0.4c0-0.2,0.1-0.3,0.1-0.5
		c0.1-0.2,0.2-0.3,0.3-0.4c0.1-0.1,0.2-0.3,0.2-0.5s0.1-0.3,0.2-0.5C116.7,17.2,116.7,17.1,116.7,17z M116,12.4
		c-0.2,0-0.3,0.1-0.3,0.3s-0.1,0.3,0,0.4c0.1,0.2,0.2,0.3,0.4,0.5c0.1,0.1,0.3,0.3,0.5,0.3c0,0,0.1,0,0.2,0.1c0.1,0,0.1,0,0.1,0
		v-0.1c0-0.1-0.1-0.2-0.1-0.3c-0.1-0.1-0.1-0.1-0.2-0.2c0-0.1-0.1-0.2-0.1-0.2s0-0.1-0.1-0.2l-0.1-0.2c0-0.1,0-0.2,0-0.3
		C116.2,12.5,116.1,12.4,116,12.4z M118.1,15.4C118.1,15.4,118.1,15.4,118.1,15.4c-0.1,0-0.1,0-0.1,0c0,0.3-0.1,0.6-0.1,0.8
		c0,0.2-0.1,0.5-0.1,0.7L118.1,15.4z"/>
	<path class="st0" d="M125.1,22.8C125,22.8,125,22.8,125.1,22.8C125,22.7,125,22.7,125.1,22.8c-0.1,0.2-0.3,0.3-0.5,0.3
		c0,0.2-0.1,0.3-0.2,0.4c0,0-0.1,0-0.1,0c0,0-0.1,0.1-0.1,0.2c-0.1,0-0.1,0.1-0.2,0.1c-0.1,0-0.1,0.1-0.2,0.2c0,0,0,0-0.1-0.1
		c-0.1,0-0.2,0-0.3,0.1c-0.1,0.1-0.1,0.1-0.2,0.1c0,0-0.1,0-0.1,0s0,0,0,0.1H123c-0.1,0.1-0.2,0.2-0.4,0.3c-0.2,0.1-0.4,0.1-0.5,0.1
		c-0.1,0-0.2,0-0.3,0c-0.1,0-0.2,0-0.3,0c0,0,0.1-0.1,0.1-0.1c-0.1,0-0.2-0.1-0.3-0.1c-0.1-0.1-0.2-0.1-0.3-0.1c0,0,0.1-0.1,0.1-0.1
		s0.1,0,0.1-0.1c0,0,0-0.1,0,0c0,0,0,0,0,0c0,0.1-0.1,0.1-0.1,0s-0.1,0-0.1,0c0,0,0,0,0-0.1h-0.1c-0.1-0.2-0.1-0.3-0.2-0.3
		c0,0,0-0.1,0-0.1s0,0,0-0.1c0,0-0.1,0-0.1-0.1s-0.1-0.1-0.2-0.1c-0.1,0.1-0.1,0.2-0.2,0.4c0,0.2-0.1,0.3-0.1,0.5c0,0.1,0,0.1,0,0.2
		c0,0,0,0.1,0,0.2c0,0.6-0.1,1.1-0.3,1.6c-0.2,0.5-0.3,1-0.4,1.5c0,0.1-0.1,0.2-0.1,0.4s-0.1,0.3-0.1,0.5c-0.1,0-0.1,0.1-0.1,0.1
		c0,0,0,0.1-0.1,0.1v0.1c0,0-0.1,0-0.1,0.1c0,0,0,0-0.1,0c0,0.2-0.1,0.3-0.1,0.4s-0.1,0.2-0.1,0.3c-0.1,0.1-0.1,0.2-0.2,0.3
		c-0.1,0.1-0.1,0.2-0.2,0.4c0,0-0.1,0-0.1,0.1c0,0,0,0,0,0.1c-0.1,0.1-0.2,0.2-0.2,0.2c-0.1,0-0.1,0-0.2-0.1s-0.1-0.1-0.2-0.1
		c-0.1,0-0.1,0-0.2,0c0,0-0.1,0.1-0.1,0.1c0,0.1,0,0.1-0.1,0.2c0,0-0.1,0-0.1,0c0-0.1-0.1-0.1-0.1,0c0,0-0.1,0-0.1,0s0-0.1,0-0.1
		c0,0-0.1,0.1-0.1,0.1c0,0,0,0.1-0.1,0.1c0,0,0,0,0,0c0,0,0,0,0,0c0,0,0,0,0,0.1s0,0.1-0.1,0.1c0,0-0.1-0.1-0.1-0.3
		c0-0.2,0-0.2-0.1-0.3c0,0,0,0.1,0,0.1s0,0.1,0,0.2c0,0,0-0.1,0-0.1c0,0,0-0.1,0-0.1c-0.1,0-0.1-0.1-0.1-0.2c0,0,0,0,0,0.1
		c0,0,0,0,0,0c0,0,0,0,0-0.1s0-0.1,0-0.1c0,0,0,0,0-0.1c0,0-0.1,0.1,0,0.1c0,0.1,0,0.1,0,0.2c0,0,0-0.1-0.1-0.1c0-0.3,0-0.4,0-0.5
		c0-0.1,0.1-0.2,0.1-0.5c0-0.1,0.1-0.2,0.1-0.2c0,0,0-0.1,0.1-0.1c0.1-0.7,0.3-1.4,0.4-2c0.1-0.7,0.3-1.3,0.4-2
		c0.1-0.4,0.2-0.7,0.3-1.1s0.2-0.7,0.3-1.1c0.1-0.5,0.2-1,0.4-1.5c0.1-0.5,0.2-1,0.4-1.5c0.2-0.7,0.3-1.4,0.5-2.2
		c0.2-0.7,0.3-1.5,0.5-2.2c0.1-0.5,0.2-0.9,0.2-1.4c0-0.5,0.1-0.9,0.1-1.4c0-0.2,0.1-0.4,0.1-0.6c0-0.2,0-0.4,0.1-0.6
		c0-0.1,0-0.1,0-0.2s0-0.1,0.1-0.1c0,0,0-0.1,0.1-0.1c0,0,0-0.1,0.1-0.2c0,0,0.1-0.1,0.1-0.2c0-0.1,0-0.1,0.1-0.2
		c0-0.1,0-0.2,0.1-0.3c0-0.1,0.1-0.1,0.1-0.2h0.1v0c0.1-0.2,0.3-0.4,0.6-0.4c0.3,0,0.5,0,0.8,0c0,0.1,0.1,0.1,0.1,0.1
		c0.1,0,0.1,0.1,0.2,0.1c0.2,0,0.3,0.1,0.4,0.2c0.1,0.1,0.2,0.2,0.3,0.4c0,0,0.1,0.1,0.1,0.2c0,0.1,0.1,0.2,0.1,0.3c0,0,0,0.1,0,0.2
		c0,0.2,0,0.4,0.1,0.6c0,0.2,0,0.4,0,0.6c-0.1,0.4-0.2,0.8-0.3,1.2c-0.1,0.4-0.2,0.8-0.3,1.1c0.1,0,0.1,0,0.1,0.1
		c0.1,0,0.2-0.1,0.2-0.2c0-0.1,0.1-0.2,0.1-0.2c0.1-0.2,0.3-0.3,0.4-0.4c0.1-0.1,0.2-0.2,0.3-0.4c0.3-0.2,0.6-0.5,0.8-0.8
		c0.3-0.3,0.6-0.5,1-0.6c0,0.1,0,0.1,0,0.2c0.3-0.1,0.6-0.1,1-0.1c0.3,0,0.6,0.1,0.9,0.2c0,0,0.1,0,0.1,0s0.1,0,0.1,0
		c0,0,0.1,0.1,0.1,0.1c0,0,0.1,0.1,0.1,0.1s0.1,0.1,0.1,0.1s0.1,0,0.1,0c0,0,0,0,0,0.1c0,0,0,0,0,0.1c0.1,0.1,0.1,0.1,0.1,0.1v0.1
		c0,0,0.1,0.1,0.1,0.1c0,0.1,0.1,0.2,0.1,0.3s0,0.2,0,0.3c0,0,0,0.1,0.1,0.1c0,0,0,0.1,0,0.1v0c0,0.1,0,0.3,0,0.5
		c0,0.2,0,0.4-0.1,0.6c0,0,0,0,0-0.1c0,0,0,0.1,0,0.1c0,0.1,0,0.1-0.1,0.1c0,0,0,0.1,0,0c0,0,0,0,0,0c0,0,0,0.1,0,0.1c0,0,0,0,0,0
		c0,0,0,0.1,0,0.1s0,0,0,0.1c0,0,0,0-0.1,0.1h0c0,0,0,0,0,0.1s0,0.1,0,0.1c0,0,0,0,0,0c0,0,0,0,0,0c0,0.3-0.1,0.7-0.2,1
		c-0.1,0.3-0.2,0.7-0.2,1c0,0,0.1,0,0.1-0.1c0-0.1,0-0.1,0.1-0.1c0,0,0,0.1,0,0.1c0,0,0,0,0,0.1c0.4-0.1,0.7-0.2,0.9-0.2
		c0.2-0.1,0.4-0.1,0.6-0.2c0.2-0.1,0.4-0.1,0.6-0.2s0.5-0.1,1-0.2c0.1,0,0.2-0.1,0.3-0.1c0.1,0,0.2,0,0.4,0c0,0,0.1,0,0.1,0
		c0,0,0.1,0,0.1,0.1c0,0,0,0,0.1,0.1v0.2c-0.2,0.1-0.4,0.2-0.6,0.4s-0.3,0.3-0.5,0.5c-0.3,0.1-0.5,0.2-0.6,0.2
		c-0.1,0-0.3,0.1-0.6,0.2c-0.3,0-0.5,0.1-0.7,0.1c-0.2,0.1-0.4,0.1-0.7,0.2c-0.2,0-0.4,0.1-0.7,0.2c-0.1,0-0.1,0-0.1,0.1h-0.1
		c0,0,0,0.1-0.1,0.1c0,0-0.1,0.1-0.1,0.1c0,0,0.1,0,0.1,0c0,0,0,0,0,0c0,0.1-0.1,0.2-0.1,0.2c0,0.1-0.1,0.1-0.1,0.2
		c0,0.2-0.1,0.3-0.2,0.4c-0.1,0.1-0.1,0.3-0.2,0.4c0,0,0,0,0,0s0,0,0,0c0,0,0,0.1,0,0.1c0,0-0.1,0.1-0.1,0.1v0.1
		c-0.2,0.3-0.3,0.5-0.5,0.8c-0.2,0.2-0.4,0.5-0.5,0.8l0,0h0c0,0,0,0,0,0c0,0,0,0,0,0c0,0-0.1,0-0.1,0.1c0,0,0,0.1-0.1,0.1
		c0,0,0,0,0,0c0,0,0,0,0,0c0,0.1-0.1,0.1-0.1,0.1c0,0-0.1,0.1-0.1,0.1c0,0-0.1,0-0.1,0s0,0,0,0C125.1,22.6,125.1,22.7,125.1,22.8z
		 M124.4,19.3c-0.3,0-0.5,0.1-0.8,0.2c-0.3,0.1-0.6,0.1-0.8,0.1c-0.2,0-0.4,0.1-0.5,0.1c-0.2,0-0.3,0.1-0.4,0.2
		c-0.1,0.1-0.2,0.1-0.2,0.3c-0.1,0.1-0.1,0.2-0.2,0.3c-0.1,0.1-0.1,0.3-0.2,0.4c0,0.2-0.1,0.3-0.2,0.4c0,0.1,0,0.2,0,0.3
		c0,0.1,0,0.2,0,0.3c0.1,0.1,0.2,0.2,0.4,0.2c0.2,0,0.4,0,0.6,0c0.5-0.3,1-0.6,1.3-1.2C123.7,20.3,124.1,19.8,124.4,19.3L124.4,19.3
		L124.4,19.3z M125.7,17c0-0.1,0.1-0.2,0.1-0.3s0.1-0.2,0.1-0.3c0.1-0.2,0.1-0.4,0.2-0.6s0.1-0.4,0.2-0.6c0.1-0.3,0.2-0.6,0.3-0.9
		s0.1-0.6,0-1c-0.1,0-0.2,0-0.2,0c-0.1,0-0.1,0-0.2,0c0,0,0.1,0,0.1,0c0,0,0.1,0,0.1,0c0,0-0.1-0.1-0.1-0.1s-0.1,0-0.1,0.1
		c0,0,0,0,0,0c0,0,0,0,0,0c-0.2,0-0.3,0-0.4,0.1c-0.1,0-0.2,0.1-0.4,0.1c0.1,0,0.1-0.1,0.2-0.1s0.2-0.1,0.3-0.1c0,0,0,0,0.1,0
		c0,0,0,0,0,0c-0.3,0.1-0.7,0.2-1,0.3c-0.3,0.1-0.6,0.3-0.9,0.5H124c-0.4,0.3-0.7,0.6-1,1s-0.6,0.8-0.8,1.2c0,0.1,0,0.2-0.1,0.2
		s-0.1,0.1,0,0.3c0,0.1-0.1,0.2,0,0.4c0,0.1,0,0.2,0,0.3c0,0.2-0.1,0.4-0.2,0.6c-0.1,0.2-0.1,0.4-0.1,0.6c0.1,0,0.2,0,0.3,0
		c0.1-0.1,0.2-0.1,0.4,0c0.1,0,0.2,0,0.3,0c0.1,0.1,0.3,0.1,0.4,0.1c0,0,0.1,0,0.1,0c0,0,0,0,0.1,0s0.1,0,0.1,0c0,0,0.1,0,0.1,0
		c0,0,0,0,0.1,0c0.1,0,0.1,0,0.2,0c0.1,0.1,0.2,0.1,0.2,0.1c0.2,0,0.3-0.1,0.5-0.1c0.2,0,0.4-0.1,0.5-0.1c0.1-0.2,0.2-0.5,0.4-0.7
		S125.6,17.2,125.7,17z M124.8,22.9c0,0.1,0,0.1,0.1,0.1C124.8,22.9,124.8,22.9,124.8,22.9z M125.2,22.4
		C125.2,22.4,125.2,22.4,125.2,22.4c-0.1,0.1-0.1,0.1-0.1,0.2C125.2,22.5,125.2,22.5,125.2,22.4z"/>
	<path class="st0" d="M132.5,10.3h0.2c0.1,0,0.1,0,0.2,0c0,0,0.1,0,0.1,0.1c0.1,0,0.1,0.1,0.2,0.1c0.1,0,0.1,0,0.1,0.1
		c0,0,0,0,0,0.1c0,0,0,0,0,0.1c0,0,0.1,0,0.1,0c0.3,0.1,0.5,0.3,0.5,0.5c0,0.2,0.1,0.3,0.1,0.5c0,0.1,0,0.2,0,0.3c0,0.1,0,0.2,0,0.3
		c0,0,0,0.1,0,0.1c0,0,0,0.1,0,0.1v0.3c0,0.3,0,0.5-0.1,0.8c0,0.2-0.1,0.5-0.1,0.7c0.3-0.2,0.6-0.5,0.9-0.7s0.6-0.5,1-0.7
		c0.1,0,0.1-0.1,0.2-0.1s0.1-0.1,0.2-0.1c0.1-0.1,0.3-0.1,0.5-0.2c0.2,0,0.4,0,0.5,0.1c0,0.1,0.1,0.3,0.2,0.4
		c0.1,0.1,0.1,0.2,0.1,0.4c0,0,0,0.1,0.1,0.1s0,0,0,0.1c0,0,0,0,0,0.1s0,0.1,0,0.1c0,0,0-0.1,0-0.1c0,0,0-0.1,0-0.1
		c0,0.2,0,0.4,0,0.6s-0.1,0.4-0.1,0.6s-0.1,0.4-0.1,0.6c0,0.2-0.1,0.4-0.1,0.6c0.1-0.1,0.2-0.2,0.3-0.3c0.1-0.1,0.2-0.2,0.3-0.3
		c0.1-0.1,0.2-0.1,0.2-0.2c0.1-0.1,0.2-0.2,0.4-0.3c0.1-0.1,0.3-0.2,0.4-0.3c0.4-0.3,0.9-0.7,1.3-0.9c0.5-0.3,1-0.6,1.5-0.8
		c0.2-0.1,0.3-0.2,0.5-0.2c0.2-0.1,0.4-0.1,0.5-0.2c0.1-0.1,0.3-0.2,0.5-0.2c0.1,0,0.2-0.1,0.3-0.1c0.1,0,0.2-0.1,0.3-0.1
		c0.3,0,0.5,0,0.7,0.1c0.1,0,0.2,0.1,0.3,0.1s0.2,0.1,0.2,0.2c0.1,0.1,0.1,0.1,0.1,0.2c0,0.2,0,0.3,0,0.4c0,0.1,0,0.1,0,0.1
		c0,0.1,0,0.1,0,0.2s0,0.1,0,0.2c0,0,0,0,0,0c0,0,0,0,0,0.1c0,0,0,0.1,0,0.2s0,0.1,0,0.2c0,0,0,0,0,0.1c0,0,0,0.1,0,0.1
		c-0.1,0.2-0.2,0.4-0.2,0.6c0,0.1,0,0.1,0,0.2c0,0.1,0,0.1-0.1,0.2c0,0.1-0.1,0.1-0.1,0.2s0,0.1,0,0.2c-0.1,0.2-0.1,0.4-0.2,0.6
		c-0.1,0.2-0.1,0.4-0.2,0.6c0,0-0.1,0.1-0.1,0.1v0.1l-0.1,0.3c-0.1,0.3-0.3,0.7-0.4,1c-0.1,0.3-0.2,0.7-0.3,1.1
		c0,0.1-0.1,0.2-0.1,0.3c0,0.1,0,0.3,0,0.3c0,0,0,0.1,0,0.1c0,0,0,0.1,0,0.1c0,0.2,0,0.3,0,0.3c0,0.1,0,0.2,0,0.3c0,0,0,0.1,0,0.1
		c0,0.1,0,0.1,0,0.2c0,0,0,0.1,0,0.1c0,0,0,0,0,0c0,0,0,0.1,0,0.1c0,0,0,0,0,0.1c0.4-0.1,0.8-0.3,1.1-0.5c0.3-0.2,0.6-0.4,0.9-0.7
		c0.1,0,0.2-0.1,0.2-0.1c0,0,0,0,0.1-0.1c0,0,0-0.1,0.1-0.1s0.1,0,0.1,0c0,0,0,0,0,0c0.1,0,0.1,0,0.2-0.1c0,0,0.1,0,0.1,0
		c0,0,0,0,0.1,0c0.1-0.1,0.2-0.2,0.3-0.3c0.1-0.1,0.2-0.2,0.3-0.3c0,0,0,0,0.1,0c0,0,0,0,0.1-0.1l0.1-0.1c0,0,0.1,0,0.1,0
		c0,0,0,0,0.1,0c0.1,0,0.2-0.1,0.2-0.2c0.1-0.1,0.2-0.1,0.3-0.1c0.1,0,0.2,0,0.3,0c0,0,0,0.1,0.1,0.1v0.1c0,0.1,0,0.1-0.1,0.1
		c0,0,0,0.1,0,0.1c-0.1,0.1-0.2,0.2-0.3,0.3c-0.1,0.1-0.2,0.2-0.2,0.3c0,0,0,0,0,0c0,0,0,0,0,0c-0.1,0.1-0.2,0.1-0.2,0.2
		c-0.1,0.1-0.1,0.1-0.1,0.3c-0.2,0.2-0.4,0.3-0.6,0.5h0c0.2-0.1,0.4-0.3,0.6-0.5c0.2-0.2,0.4-0.4,0.6-0.5l0,0c0,0,0,0.1-0.1,0.1
		c0,0,0,0,0,0c0,0,0,0,0,0l-0.1,0.1c-0.2,0.2-0.5,0.4-0.7,0.6c-0.2,0.2-0.5,0.4-0.8,0.6v0.1c-0.2,0.2-0.3,0.4-0.6,0.5
		c-0.2,0.1-0.4,0.3-0.6,0.4c0,0-0.1,0.1-0.1,0.1c0,0-0.1,0-0.1,0c-0.1,0.1-0.1,0.1-0.2,0.2s-0.1,0.1-0.2,0.1l-0.1,0.1
		c-0.2,0-0.4,0.1-0.6,0.2c-0.2,0.1-0.4,0.1-0.6,0.2c-0.1,0-0.1,0-0.2,0c-0.1,0-0.1,0-0.2,0h-0.1c0,0,0,0,0,0c0,0,0,0,0,0
		c0,0,0,0-0.1,0c0,0,0,0-0.1,0c0,0,0,0,0,0c0,0,0,0,0,0c0,0,0,0,0,0c0,0,0,0-0.1,0c-0.1,0.1-0.2,0.1-0.3,0.1c-0.1,0-0.1-0.1-0.2-0.2
		c0,0,0,0,0,0c0,0,0,0,0,0l-0.1-0.1c-0.1-0.1-0.2-0.2-0.3-0.3c-0.1-0.1-0.2-0.2-0.2-0.4c0,0-0.1,0-0.1-0.1c0,0,0,0-0.1,0
		c-0.1-0.1-0.1-0.2-0.2-0.3c0-0.1-0.1-0.2-0.1-0.4v-0.3l-0.1-0.1c0,0,0-0.1,0-0.1c0-0.1,0-0.2,0-0.3c0-0.1,0-0.2-0.1-0.3
		c0,0,0,0,0,0c0,0,0,0,0,0c0-0.4,0.1-0.8,0.1-1.1s0.1-0.7,0.2-1c0-0.1,0.1-0.2,0.1-0.4c0-0.1,0.1-0.3,0.1-0.4s0.1-0.2,0.1-0.4
		c0-0.2,0.1-0.3,0.1-0.4c0.1-0.3,0.2-0.6,0.3-0.9s0.2-0.6,0.4-0.9c0-0.1,0.1-0.2,0.1-0.3c0.1-0.1,0.1-0.2,0.1-0.4
		c-0.3,0.1-0.6,0.3-0.9,0.5c-0.3,0.2-0.5,0.3-0.8,0.5c-0.4,0.3-0.8,0.6-1.1,0.9c-0.3,0.3-0.7,0.6-1.1,0.9c-0.3,0.3-0.5,0.5-0.8,0.8
		s-0.5,0.6-0.8,0.9c0,0-0.1,0.1-0.1,0.2c-0.1,0.1-0.1,0.2-0.1,0.2c0,0-0.1,0-0.1,0.1c0,0-0.1,0-0.1,0c0-0.1,0.1-0.1,0.1-0.2
		c0-0.1,0.1-0.1,0.1-0.2c-0.2,0.1-0.3,0.2-0.3,0.3s-0.2,0.2-0.3,0.3l-0.1,0.3h-0.2c-0.2-0.1-0.2-0.2-0.2-0.4s0.1-0.3,0.1-0.5
		c0,0,0.1-0.1,0.1-0.1c0,0,0-0.1,0-0.2c0-0.1,0-0.2,0.1-0.2c0-0.1,0-0.1,0.1-0.2c0.1-0.5,0.3-0.9,0.4-1.4c0.2-0.5,0.3-0.9,0.4-1.4
		c0-0.1,0-0.1,0-0.2c0,0,0-0.1,0-0.2c0-0.1,0-0.1,0-0.2c0-0.1,0-0.1,0-0.2c0-0.1,0-0.2,0.1-0.3c0-0.1,0-0.2,0-0.3c0,0,0-0.1,0-0.1
		c0,0,0,0,0-0.1c0-0.1,0-0.2,0-0.3s0-0.1,0-0.2c-0.1,0-0.3,0-0.4,0c-0.1,0-0.2,0.1-0.3,0.2c-0.1,0.1-0.2,0.1-0.2,0.2
		c-0.1,0.1-0.1,0.1-0.2,0.2c-0.2,0.1-0.3,0.2-0.5,0.4s-0.3,0.2-0.5,0.4c-0.1,0.1-0.3,0.3-0.4,0.4c-0.1,0.2-0.3,0.3-0.4,0.5l-0.4,0.4
		c0,0-0.1,0.1-0.1,0.1c0,0-0.1,0.1-0.1,0.1c0,0.1-0.1,0.2-0.1,0.3c0,0,0,0.1,0,0.1c0,0,0,0,0,0.1c-0.1,0.1-0.1,0.2-0.2,0.3
		s-0.1,0.2-0.1,0.3c0,0-0.1,0.1-0.1,0.1c0,0,0,0.1,0,0.2c-0.1,0.3-0.2,0.5-0.3,0.8c-0.1,0.2-0.2,0.5-0.3,0.7c0,0.1-0.1,0.2-0.1,0.3
		c0,0.1-0.1,0.2-0.1,0.3c0,0-0.1,0-0.1,0c-0.1,0.1-0.1,0.2-0.1,0.4c0,0.2,0,0.3-0.1,0.4c0,0,0,0,0,0c0,0,0,0,0,0c0,0,0,0,0,0.1
		s0,0,0,0.1c0,0,0,0,0,0c0,0,0,0,0-0.1c0,0-0.1,0-0.2,0c0,0.2,0,0.3-0.1,0.4c-0.1,0.1-0.1,0.2-0.1,0.4c0,0-0.1,0,0,0c0,0,0,0,0,0
		c0,0.1,0,0.1-0.1,0.2c0,0.1,0,0.1-0.1,0.1c0,0,0,0,0,0c0,0,0,0,0,0c0,0.1-0.1,0.2-0.1,0.3c0,0.1,0,0.2-0.1,0.2h-0.2l-0.1,0.2
		c-0.1,0.2-0.2,0.4-0.3,0.6c0,0-0.1,0-0.1,0.1c0,0,0,0-0.1,0.1c-0.1,0.1-0.2,0.2-0.3,0.2c-0.1,0-0.3,0.1-0.4,0.1c0,0,0,0,0,0
		c0,0,0,0,0,0h0c-0.1,0-0.2-0.1-0.2-0.2c0,0,0-0.1,0-0.1s0-0.1,0-0.1c0,0,0,0,0-0.1c0,0,0-0.1,0-0.2V22v0c0-0.5,0-1,0.1-1.5
		c0-0.5,0.1-1,0.2-1.4c0.1-0.5,0.2-0.9,0.3-1.3c0.1-0.4,0.2-0.8,0.3-1.3c0.2-0.6,0.3-1.3,0.5-1.9c0.2-0.7,0.3-1.3,0.4-2
		c0-0.2,0.1-0.4,0.1-0.6s0.1-0.3,0.2-0.5c0,0,0.1-0.1,0.1-0.1v-0.1l0.1-0.1c0,0,0,0,0-0.1c0.1-0.1,0.1-0.2,0.1-0.2
		c0.2-0.1,0.3-0.2,0.5-0.3C132,10.4,132.2,10.3,132.5,10.3z M130.9,20.8L130.9,20.8C130.9,20.8,130.9,20.8,130.9,20.8
		c0-0.1,0-0.1,0-0.1V20.8z M130.9,20.9C130.9,20.9,131,20.9,130.9,20.9C131,20.9,131,20.8,130.9,20.9L130.9,20.9
		C130.9,20.9,130.9,20.9,130.9,20.9z M131,20.9C131,20.9,131,20.9,131,20.9L131,20.9C131,20.9,131,20.9,131,20.9
		C131,21,131.1,21,131,20.9C131.1,21,131.1,20.9,131,20.9C131,20.9,131,20.9,131,20.9C131,20.8,131,20.8,131,20.9
		C131,20.8,131,20.9,131,20.9C131.1,20.9,131.1,20.9,131,20.9z M131.1,20.8C131.1,20.8,131.2,20.8,131.1,20.8
		C131.1,20.8,131.1,20.8,131.1,20.8C131.2,20.8,131.2,20.8,131.1,20.8c0.1-0.1,0.1-0.1,0.1-0.1v0c0,0,0,0,0,0c0,0,0,0.1,0,0
		C131.1,20.7,131.1,20.7,131.1,20.8L131.1,20.8C131.1,20.8,131.1,20.8,131.1,20.8C131.1,20.7,131.1,20.7,131.1,20.8
		C131.1,20.8,131.1,20.8,131.1,20.8z M131.1,20.6L131.1,20.6C131.1,20.6,131.1,20.5,131.1,20.6L131.1,20.6z M131.1,20.7
		C131.1,20.7,131.1,20.7,131.1,20.7C131.1,20.7,131.2,20.7,131.1,20.7C131.2,20.7,131.2,20.6,131.1,20.7
		C131.1,20.6,131.1,20.7,131.1,20.7z M131.2,20.6C131.2,20.6,131.2,20.6,131.2,20.6C131.2,20.6,131.3,20.6,131.2,20.6
		c0.1-0.1,0.1-0.1,0.2-0.2c0,0,0-0.1,0-0.1c0,0.1-0.1,0.1-0.1,0.1C131.3,20.6,131.2,20.6,131.2,20.6z M131.2,20.4L131.2,20.4
		C131.2,20.5,131.3,20.5,131.2,20.4c0.1,0,0.1,0,0.1-0.1C131.3,20.4,131.3,20.4,131.2,20.4C131.3,20.5,131.3,20.5,131.2,20.4z
		 M140.6,21.2C140.7,21.2,140.7,21.2,140.6,21.2C140.7,21.2,140.7,21.2,140.6,21.2L140.6,21.2L140.6,21.2z"/>
	<path class="st0" d="M149.9,18.9c-0.1-0.1-0.2-0.1-0.3-0.1c0,0-0.1,0-0.1,0.1s-0.1,0-0.2,0c0,0,0,0,0,0c0,0,0,0,0,0
		c0,0-0.1,0-0.2,0c-0.1,0-0.1,0-0.1,0c-0.2,0-0.3,0.2-0.3,0.3s-0.1,0.3-0.2,0.4c0,0.2-0.1,0.4-0.2,0.5c-0.1,0.1-0.1,0.3-0.2,0.5
		c-0.1,0.2-0.1,0.3-0.1,0.3c0,0,0,0.1,0,0.3c0,0.1,0.1,0.2,0.2,0.2c0.1,0,0.2,0,0.3,0.1c0,0,0.1,0,0.2,0c0.1,0,0.1,0,0.2,0
		c0.2,0,0.4-0.1,0.6-0.2c0.2-0.1,0.4-0.1,0.6-0.2c0.5-0.1,0.9-0.3,1.2-0.5c0.3-0.2,0.7-0.3,1.2-0.5c0.1,0,0.2-0.1,0.4-0.2
		c0.2-0.1,0.4-0.2,0.6-0.4s0.4-0.3,0.6-0.4c0.2-0.1,0.3-0.2,0.3-0.3l0.8-0.6c0.2-0.1,0.3-0.2,0.5-0.3c0.1-0.1,0.3-0.3,0.5-0.4
		c0-0.1,0,0,0.1,0v0.1c0.1,0,0.2,0,0.3,0c0.1,0.1,0.1,0.1,0,0.1c-0.1,0,0-0.1,0-0.1c0,0,0,0.1,0,0.1s0,0,0,0.1
		c-0.1,0.1-0.1,0.1,0,0.1c0,0,0.1,0.1,0.1,0.1c-0.2,0.2-0.3,0.4-0.5,0.6c-0.1,0.2-0.3,0.4-0.5,0.6c-0.1,0.1-0.2,0.2-0.2,0.2
		c-0.1,0-0.1,0.1-0.2,0.1c-0.2,0.3-0.4,0.5-0.5,0.6c-0.2,0.1-0.4,0.3-0.6,0.5c-0.1,0.1-0.2,0.2-0.4,0.3s-0.4,0.3-0.6,0.4
		c-0.2,0.2-0.4,0.3-0.6,0.5s-0.3,0.2-0.4,0.3c-0.3,0.1-0.5,0.3-0.8,0.4c-0.2,0.1-0.5,0.2-0.8,0.3c-0.1,0-0.2,0-0.4,0.1
		c-0.1,0-0.3,0.1-0.4,0.2c-0.1,0-0.2,0-0.2,0c0,0-0.1,0-0.2,0c0,0-0.1,0.1-0.2,0.1s-0.1,0-0.2,0c-0.2,0-0.4,0-0.5,0.1
		c-0.1,0.1-0.3,0.1-0.5,0c-0.1,0-0.2,0-0.3-0.1c-0.1-0.1-0.2-0.1-0.4,0c0,0,0-0.1,0-0.1c0,0,0,0,0-0.1c0,0-0.1,0-0.1,0
		c0,0-0.1,0-0.1,0c0,0,0-0.1,0-0.1s0,0,0-0.1c-0.2-0.2-0.4-0.3-0.5-0.6c-0.1-0.2-0.2-0.5-0.3-0.7c0-0.2,0-0.3,0-0.4
		c0-0.1,0-0.1,0-0.2c0-0.1,0-0.1,0-0.2c0-0.1,0-0.2,0-0.5c0-0.4,0.1-0.7,0.2-0.9c0.1-0.3,0.2-0.6,0.3-0.9c0.1-0.1,0.1-0.2,0.2-0.4
		c0-0.1,0.1-0.2,0.2-0.3c0.3-0.8,0.7-1.5,1.1-2.1c0.4-0.6,0.8-1.3,1.3-1.9c0.1-0.3,0.2-0.6,0.3-0.8s0.3-0.4,0.4-0.6
		c0.1-0.1,0.3-0.3,0.4-0.4s0.3-0.2,0.4-0.3c0,0,0-0.1,0-0.1c0.1,0,0.2-0.1,0.3-0.1c0.1,0,0.2-0.1,0.2-0.2c0.1-0.1,0.3-0.1,0.5-0.1
		c0.1,0,0.3,0,0.4,0c0.1,0,0.2,0.1,0.4,0.1c0,0,0,0.1,0.1,0.1c0.1,0,0.1,0,0.2,0.1c0.1,0,0.2,0.1,0.2,0.2c0.1,0.1,0.1,0.2,0.3,0.3
		c0,0,0,0.1,0,0.1c0,0,0,0,0,0.1c0.1,0.1,0.2,0.3,0.3,0.5c0.1,0.2,0.2,0.3,0.3,0.4c0,0.1,0.1,0.3,0.1,0.4c0,0.1,0,0.3,0,0.4
		c0.1,0.2,0.1,0.4,0,0.5c0,0-0.1,0.1,0,0.2c0,0.1,0,0.1,0,0.2c0,0.2-0.1,0.4-0.1,0.5s0,0.3-0.1,0.4l-0.1,0.2
		c-0.1,0.1-0.1,0.3-0.2,0.4c0,0.1-0.1,0.2-0.2,0.4c-0.1,0.2-0.3,0.4-0.4,0.5c-0.2,0.2-0.3,0.3-0.5,0.4c-0.1,0.1-0.1,0.2-0.2,0.2
		s-0.1,0-0.2,0c-0.1,0.1-0.1,0.1-0.2,0.2s-0.1,0.1-0.2,0.1c-0.1,0-0.2,0-0.2,0.2c-0.1,0.1-0.1,0.2-0.2,0.2c0,0-0.1,0-0.1-0.1
		c-0.1,0-0.1,0.1-0.2,0.1c0,0-0.1,0.1-0.2,0.1c0,0-0.1,0-0.1,0c-0.1,0-0.2,0.1-0.3,0.2s-0.2,0.1-0.3,0.2c0,0,0,0,0,0L149.9,18.9z
		 M152.3,13.7L152.3,13.7c-0.1,0.1-0.3,0.2-0.5,0.4c-0.2,0.1-0.3,0.3-0.4,0.4c0,0,0,0.1-0.1,0.1c-0.1,0-0.1,0.1-0.1,0.1
		c-0.2,0.3-0.4,0.5-0.5,0.8c-0.1,0.3-0.3,0.5-0.6,0.6c0,0.1-0.1,0.3-0.2,0.4c-0.1,0.1-0.1,0.3-0.2,0.4c-0.2,0.5-0.3,0.8-0.4,0.9
		c-0.1,0.1-0.2,0.2-0.2,0.3c0.3-0.3,0.6-0.6,0.9-0.9c0.2-0.1,0.3-0.3,0.5-0.4s0.3-0.3,0.5-0.6c0.1,0,0.2-0.1,0.3-0.2
		c0.1-0.1,0.2-0.2,0.3-0.3c0,0,0.1-0.1,0.1-0.1c0-0.1,0.1-0.1,0.2-0.2c0-0.1,0.1-0.2,0.2-0.2s0.1-0.1,0.1-0.1c0-0.1,0.1-0.2,0.1-0.3
		c0.1-0.1,0.1-0.2,0.2-0.3c0,0,0,0-0.1-0.1c0-0.1-0.1-0.2-0.1-0.3c0-0.1-0.1-0.2-0.1-0.3C152.4,13.8,152.4,13.7,152.3,13.7z"/>
	<path class="st0" d="M157.8,11h0.2c0.1,0,0.2,0,0.3,0c0,0,0.1,0,0.1,0s0.1,0,0.1,0c0,0,0.1,0,0.1,0.1c0.1,0.1,0.2,0.2,0.3,0.3
		c0,0.1,0.1,0.2,0.1,0.3c0,0,0.1,0.1,0.1,0.1c0,0.1,0,0.1,0.1,0.2c0,0,0,0.1,0,0.1c0,0,0,0,0,0.1c0,0,0,0.1,0.1,0.1c0,0,0,0.1,0,0.2
		c0,0.1,0,0.3,0,0.5v0.4v0.2c0,0.2,0,0.3,0,0.5c0,0.1,0,0.3,0,0.5c0,0,0,0.1,0,0.1c0,0,0,0,0,0.1c0,0.1,0,0.2,0,0.2
		c0,0.1,0,0.1,0,0.2c0.1-0.1,0.1-0.2,0.2-0.2c0-0.1,0.1-0.2,0.2-0.2c0.1-0.1,0.1-0.2,0.2-0.2c0.1-0.1,0.1-0.1,0.2-0.2
		c0.1-0.1,0.1-0.2,0.2-0.2c0-0.1,0.1-0.2,0.2-0.3c0-0.1,0.1-0.2,0.3-0.3c0,0,0.1,0,0.1,0c0,0,0,0,0.1,0c0,0,0.1-0.1,0.1-0.1
		c0.2-0.2,0.4-0.4,0.6-0.6c0.2-0.2,0.4-0.4,0.6-0.6c0,0,0.1-0.1,0.1-0.1c0,0,0.1,0,0.1-0.1c0,0,0.1-0.1,0.1-0.1c0,0,0.1,0,0.1-0.1
		c0.2-0.1,0.3-0.2,0.6-0.3c0.2-0.1,0.4-0.2,0.7-0.2c0.3,0,0.5,0,0.7,0.2c0.2,0.1,0.3,0.2,0.3,0.4c0,0,0,0.1,0,0.2c0,0.1,0,0.1,0,0.1
		c0,0.1,0,0.1,0,0.1c0,0,0,0.1,0.1,0.1c0,0,0.1,0.1,0.1,0.1c0,0.1,0,0.2-0.1,0.2V13c0,0.5-0.1,0.9-0.2,1.3c0,0,0,0.1,0,0.1
		s0,0.1,0,0.1l-0.1,0.1c0,0,0,0.1,0,0.1s0,0.1,0,0.1c0,0,0,0.1,0,0.1c0,0,0,0,0,0c0,0,0,0,0,0c0,0,0,0.1,0,0.1c0,0,0,0.1,0,0.1
		c0,0,0,0.1,0,0.1c0,0,0,0.1,0,0.1c0,0.1-0.1,0.2-0.2,0.4c-0.1,0.1-0.1,0.3-0.2,0.4c-0.1,0.1-0.1,0.3-0.2,0.5
		c-0.1,0.3-0.2,0.6-0.3,0.9c-0.1,0.3-0.2,0.6-0.4,0.9h0c-0.1,0.1-0.1,0.2-0.2,0.3c0,0.1,0,0.1,0,0.2c0,0.1,0,0.1,0,0.2
		c0,0-0.1,0.1-0.1,0.1c0,0.1-0.1,0.2-0.1,0.4c0,0.2,0,0.3,0,0.5c0,0.1,0,0.1,0,0.2c0,0.1,0,0.1,0,0.2c0,0.2,0.1,0.3,0.2,0.3
		s0.2,0.1,0.2,0.2c0.3,0,0.6,0,0.8-0.1c0.2-0.1,0.5-0.2,0.7-0.3c0.1-0.1,0.2-0.1,0.2-0.1c0,0,0.1,0,0.1,0c0,0,0.1,0,0.1-0.1
		c0,0,0.1-0.1,0.2-0.2c0.1,0,0.2-0.1,0.2-0.1s0.1-0.1,0.2-0.2c0,0,0,0,0.1,0.1c0.1-0.1,0.2-0.1,0.4-0.2s0.2-0.1,0.3-0.2
		c0.1,0,0.1-0.1,0.2-0.1c0,0,0.1-0.1,0.2-0.1c0,0,0-0.1,0.1-0.1c0,0,0.1,0,0.1,0s0.1,0,0.1-0.1c0,0,0,0,0.1-0.1s0.1,0,0.1,0
		c0,0,0,0,0.1,0c0.1,0,0.1-0.1,0.2-0.1c0.1,0,0.1-0.1,0.2-0.1h0.1c0,0,0.1,0,0.1,0c0,0,0,0,0.1,0c0,0,0,0,0,0c0,0,0,0,0,0
		c0,0.1,0,0.2-0.1,0.2c0,0-0.1,0.1-0.1,0.2c-0.1,0.1-0.2,0.1-0.3,0.2c-0.1,0.1-0.2,0.2-0.2,0.3c0,0,0,0,0,0c0,0,0,0,0,0c0,0,0,0,0,0
		c0,0,0,0,0,0c-0.1,0.1-0.2,0.2-0.4,0.3c0,0,0,0,0,0.1c0,0,0,0,0,0.1c0,0-0.1,0.1-0.1,0.1c0,0,0,0-0.1,0.1c-0.1,0.1-0.2,0.1-0.3,0.2
		c-0.1,0.1-0.2,0.1-0.2,0.2c0.3-0.1,0.5-0.3,0.8-0.5c0.2-0.2,0.5-0.4,0.7-0.6c0,0-0.1,0.1-0.1,0.1s-0.1,0.1-0.1,0.1
		c-0.2,0.2-0.4,0.3-0.6,0.5c-0.2,0.1-0.4,0.3-0.6,0.5c-0.1,0-0.1,0.1-0.2,0.1c-0.1,0.1-0.1,0.1-0.2,0.1c-0.1,0-0.1,0.1-0.1,0.1
		c-0.2,0.2-0.3,0.3-0.3,0.4c-0.1,0-0.2,0.1-0.4,0.3c-0.1,0-0.2,0.1-0.2,0.2c0,0-0.1,0.1-0.1,0.1c0,0,0,0,0,0c0,0,0,0,0,0
		c0,0,0,0,0,0s0,0,0,0h-0.1c0,0-0.1,0-0.2,0.1c-0.1,0-0.3,0.1-0.4,0.1s-0.3,0.1-0.4,0.1c-0.2,0.1-0.4,0.1-0.6,0.1
		c-0.1,0-0.2,0-0.3,0c-0.1,0-0.2,0-0.3,0c-0.3-0.2-0.6-0.4-0.8-0.5c0,0,0-0.1-0.1-0.1c0,0,0-0.1,0-0.1c0,0,0-0.1,0-0.2
		c0-0.1,0-0.1,0-0.1c0-0.1-0.1-0.2-0.1-0.3c0-0.1,0-0.2,0-0.3c0-0.3,0.1-0.6,0.2-0.9c0.1-0.3,0.2-0.5,0.3-0.8l0.1-0.6
		c0-0.2,0.1-0.4,0.2-0.6c0.1-0.2,0.1-0.4,0.2-0.5c0.1-0.3,0.3-0.7,0.4-1c0.1-0.3,0.3-0.7,0.4-1c0.1-0.2,0.1-0.4,0.2-0.6
		c0-0.2,0.1-0.4,0.1-0.6c0.1-0.2,0.1-0.4,0.2-0.6c0.1-0.2,0.1-0.3,0.2-0.5c-0.1,0.1-0.3,0.1-0.4,0.2c-0.1,0-0.2,0.1-0.4,0.1
		c-0.1,0.1-0.2,0.2-0.3,0.4c-0.1,0.1-0.2,0.2-0.3,0.3c-0.1,0.1-0.1,0.1-0.2,0.2c-0.1,0.1-0.1,0.1-0.2,0.1c-0.1,0.1-0.2,0.2-0.4,0.3
		c-0.1,0.1-0.2,0.2-0.3,0.4c-0.1,0.2-0.2,0.3-0.3,0.4c-0.1,0.1-0.2,0.3-0.3,0.4c-0.1,0.1-0.2,0.3-0.3,0.4c-0.1,0-0.1,0.1-0.1,0.1
		c0,0.1-0.1,0.1-0.1,0.2h0c-0.2,0.2-0.3,0.5-0.5,0.7c-0.2,0.2-0.3,0.4-0.5,0.7l-0.1,0.1h0c0,0.2-0.1,0.3-0.2,0.4l-0.3,0.4l0,0
		c0,0,0,0,0,0.1c0,0,0,0,0,0.1c-0.1,0.1-0.2,0.3-0.2,0.4c-0.1,0.1-0.2,0.3-0.3,0.4c0,0.1,0,0.2,0,0.3c0,0-0.1,0.1-0.1,0.1l-0.1,0.1
		v0.1c0,0,0,0-0.1,0.1c-0.2,0.3-0.3,0.5-0.4,0.8h-0.1h-0.1v0.2l-0.1,0.1V22c0,0.1-0.1,0.1-0.1,0.1c0,0,0-0.1,0-0.1c0,0,0,0,0-0.1
		c0,0,0,0,0,0.1c0,0,0,0.1,0,0.1c0,0,0,0,0,0c0,0,0,0,0,0c0,0.1,0,0.1,0,0.1c0,0-0.1,0-0.1,0.1c0,0,0,0,0,0s0,0,0,0l-0.1,0.2
		c0,0,0-0.1,0-0.1c0,0,0-0.1,0-0.1c-0.1,0-0.1,0-0.1,0.1l0,0c0,0,0,0-0.1,0.1c0,0.1,0,0.1,0,0.2c0,0.1,0,0.2,0,0.2c0,0-0.1,0-0.1,0
		s0,0-0.1,0c0,0,0,0,0,0l0,0c-0.1,0-0.1,0.1-0.2,0.1c0,0-0.1,0.1-0.2,0.1h0c0,0-0.1,0-0.1,0c0,0-0.1,0-0.1,0l-0.2-0.1c0,0,0,0,0,0
		c0,0,0,0,0,0c0,0,0,0,0,0c0,0,0,0,0,0c0,0,0,0,0,0.1c0,0,0,0,0,0.1c-0.1,0-0.2-0.1-0.2-0.2c0-0.1-0.1-0.2-0.1-0.2
		c-0.1-0.2-0.1-0.4-0.1-0.6v-0.3c0-0.2,0-0.5,0.1-0.7s0.1-0.5,0.1-0.7c0-0.2,0.1-0.4,0.1-0.7c0-0.2,0.1-0.4,0.1-0.7
		c0-0.2,0.1-0.3,0.1-0.5c0-0.2,0.1-0.3,0.1-0.5c0-0.1,0-0.2,0.1-0.4c0.1-0.7,0.3-1.3,0.4-2c0.1-0.6,0.3-1.3,0.5-1.9
		c0-0.1,0-0.2,0.1-0.3c0-0.1,0-0.2,0.1-0.3c0-0.1,0.1-0.2,0.1-0.4s0-0.2,0.1-0.3c0,0,0-0.1,0-0.1c0-0.1,0-0.1,0.1-0.2
		c0,0,0-0.1,0.1-0.1c0,0,0-0.1,0.1-0.1c0-0.1,0.1-0.2,0.1-0.3s0.1-0.2,0.1-0.3c0.1,0,0.2-0.1,0.3-0.1c0,0,0.1-0.1,0.1-0.1
		c0,0,0.1,0,0.2,0C157.7,11,157.7,11,157.8,11z"/>
	<path class="st0" d="M172.1,3.6L172.1,3.6c0.2,0,0.3,0.1,0.3,0.2l0.1,0.1h0.1c0.1,0,0.1,0.1,0.1,0.1c0,0.1,0,0.1,0.1,0.2
		c0,0,0.1,0.1,0.1,0.1s0.1,0.1,0.1,0.1c0,0,0,0.1,0,0.1c0,0,0,0,0,0.1c0,0.1,0.1,0.1,0.1,0.2c0,0,0,0.1,0,0.1c0,0,0,0,0,0.1
		c0,0.2-0.1,0.5,0,0.7c0,0.3,0,0.5,0,0.7c0,0,0,0,0,0.1c0,0,0,0,0,0.1c0,0,0,0.1,0,0.1c0,0.1,0,0.1,0,0.1c0,0.1,0,0.2,0,0.3
		c0,0.3-0.1,0.5-0.1,0.8c-0.1,0.2-0.1,0.5-0.2,0.7c-0.1,0.2-0.1,0.3-0.2,0.5s-0.1,0.3-0.2,0.5c-0.1,0.2-0.1,0.3-0.1,0.5
		c0,0.2-0.1,0.3-0.2,0.5c0,0,0,0,0,0s0,0,0,0c0,0-0.1,0.1-0.1,0.2c0.4,0,0.8,0,1.3,0c0.4,0,0.9,0,1.3,0c0,0,0,0,0,0c0,0,0,0,0,0
		c0,0,0.1,0,0.1,0c0,0,0.1,0,0.1,0c0,0,0,0,0,0s0,0,0,0c0,0,0.1,0,0.1,0c0,0,0.1,0,0.1,0v0.1h0.1h0c-0.1,0-0.2,0.1-0.2,0.1h-0.1
		c-0.1,0-0.2,0-0.3,0c-0.1,0-0.2,0-0.4,0V11c0,0-0.1,0-0.1,0c0,0-0.1,0-0.1,0c0,0.1-0.1,0.1-0.2,0.1c-0.1,0-0.2,0-0.2,0.1h0.1h0
		c0,0,0,0,0,0c0,0,0.1,0,0.1,0c0,0,0,0,0.1,0l0.1,0c0,0,0,0,0.1,0c0,0,0,0,0.1,0c0.1,0,0.2,0,0.4,0c0.1,0,0.3,0,0.4,0
		c-0.1,0-0.2,0.1-0.3,0.1c-0.1,0-0.2,0-0.3,0c0,0-0.1,0-0.2,0c0,0-0.1,0-0.1,0.1c0,0,0,0-0.1,0c0,0.1,0,0.1,0,0.1s0,0,0,0
		c0,0,0,0,0,0v0.1c-0.1,0-0.2,0-0.2-0.1c0,0.1-0.1,0.1-0.2,0.1s-0.2,0-0.3,0c0,0,0,0,0,0c0,0,0,0,0,0s0,0,0,0c0,0,0,0,0,0h-0.2
		c0,0,0,0,0,0c0,0,0,0,0,0c-0.1,0-0.2,0.1-0.3,0.1c-0.1,0-0.2,0-0.2,0.1c0,0,0.1,0,0.2,0c0,0,0.1,0,0.1,0c0,0,0,0,0.1,0c0,0,0,0,0,0
		c0,0,0,0,0,0c-0.1,0-0.1,0-0.2,0.1c0,0-0.1,0-0.2,0c0,0,0,0,0,0c0,0,0,0,0,0c-0.1,0-0.2,0-0.2,0.1c-0.1,0-0.2,0-0.3,0
		c-0.1,0.3-0.2,0.7-0.3,1c-0.1,0.3-0.2,0.6-0.3,0.9c0,0.1,0,0.1,0,0.2s0,0.1,0,0.2s0,0.2-0.1,0.3v0.5c0,0,0,0.1,0,0.1
		c0,0,0,0.1,0,0.1s0,0.1,0,0.1c0,0,0,0,0,0.1v0.1c0,0.1,0,0.3-0.1,0.3c-0.1,0.1-0.1,0.2-0.2,0.3l-0.1,0.4l-0.1,0.2
		c0,0,0,0.1-0.1,0.1c0,0,0,0,0,0.1c0,0.1-0.1,0.2-0.1,0.3c0,0.1,0,0.2-0.1,0.3c0,0,0,0.1-0.1,0.2c0,0.1-0.1,0.2-0.1,0.3
		c0,0.1,0,0.2-0.1,0.3c0,0.2-0.1,0.4-0.2,0.6c-0.1,0.2-0.1,0.4-0.2,0.6c0,0.1-0.1,0.1-0.1,0.1v0.1c0,0.1,0,0.3-0.1,0.4
		c-0.1,0.1-0.1,0.2-0.1,0.4c-0.1,0.1-0.1,0.2-0.1,0.2c0,0.1,0,0.2-0.1,0.3c0,0.1,0,0.1-0.1,0.2s-0.1,0.1-0.1,0.2v0.1l-0.1,0.1
		c0,0.1,0,0.1,0,0.2c-0.1,0.1-0.1,0.1,0,0.2c0,0-0.1,0.1-0.1,0.1c0,0,0,0.1,0,0.1c0,0.1,0,0.1,0,0.2c0,0.2,0,0.3,0,0.3c0,0,0,0,0,0
		c0,0,0,0,0,0c0,0,0,0.1,0.1,0.1c0.1,0,0.2,0,0.3-0.1c0.1-0.1,0.1-0.2,0.2-0.2l0.2-0.2c0,0,0.1,0,0.1-0.1c0,0,0.1,0,0.1-0.1
		c0.2-0.1,0.3-0.2,0.5-0.3s0.3-0.2,0.4-0.3c0.3-0.2,0.6-0.4,0.8-0.6c0.3-0.2,0.5-0.4,0.8-0.6c0.1-0.1,0.3-0.2,0.4-0.3
		c0.1-0.1,0.3-0.2,0.4-0.3c0.1-0.1,0.3-0.2,0.4-0.3s0.2-0.2,0.4-0.3c0.1-0.1,0.2-0.2,0.4-0.3c0.1-0.1,0.2-0.2,0.4-0.3
		c0.1-0.1,0.2-0.2,0.4-0.3c0.1-0.1,0.3-0.2,0.4-0.3c0,0.1,0,0.2,0.2,0.2c0,0.1-0.1,0.1-0.1,0.2c0,0.1,0,0.2,0,0.3c0,0,0.1,0,0.1,0
		c0,0,0.1,0,0.2,0c0,0,0,0,0,0c0,0,0,0,0,0c0,0,0,0,0,0c0,0,0,0,0,0c0,0,0,0,0,0c0,0,0,0,0,0c-0.1,0.1-0.1,0.2-0.2,0.3
		c-0.1,0.1-0.2,0.1-0.3,0.2c-0.2,0.2-0.3,0.4-0.5,0.5c-0.2,0.2-0.3,0.3-0.5,0.5c-0.1,0.1-0.1,0.2-0.2,0.3s-0.2,0.2-0.3,0.3
		c-0.1,0.1-0.1,0.1-0.2,0.2c-0.1,0.1-0.1,0.1-0.2,0.2l-0.1,0.1c0,0,0,0,0,0c0,0,0,0,0,0c0,0,0,0-0.1,0c0,0,0,0-0.1,0.1
		c-0.3,0.3-0.7,0.6-1,0.8c-0.4,0.3-0.7,0.5-1,0.8c0,0,0,0.1-0.1,0.2c-0.1,0.1-0.1,0.1-0.2,0.1c0,0.1-0.1,0.1-0.1,0.2
		c-0.1,0.1-0.2,0.1-0.3,0.1c0,0,0,0.1,0,0.1c0,0,0,0,0,0c0,0,0,0,0,0c0,0,0,0,0,0c0,0-0.1,0-0.2,0l-0.1,0.1c0,0,0,0,0,0
		c0,0,0,0,0,0.1c0,0,0,0,0,0c0,0-0.1,0-0.1,0c-0.2,0.1-0.3,0.2-0.5,0.2c-0.2,0.1-0.3,0.1-0.4,0.2c-0.1,0.1-0.1,0.1-0.2,0.1h-0.1
		c-0.1,0-0.2,0-0.2,0.1c-0.1,0-0.1,0-0.2,0.1h-0.2c0,0-0.1,0.1-0.1,0.1H168c-0.1,0-0.2,0-0.3,0.1h0c-0.1,0-0.1,0-0.1-0.1
		c0,0,0-0.1-0.1-0.1c0-0.1-0.1-0.1-0.1-0.1c-0.1,0-0.1-0.1-0.1-0.2c-0.1,0.1-0.1,0.1-0.2,0v0v0c0,0-0.1,0-0.1-0.1
		c0,0-0.1-0.1-0.1-0.1l0-0.1v-0.1v-0.2l-0.1-0.1v-0.1c0-0.3,0-0.5-0.1-0.6c0,0,0,0-0.1-0.1c0,0,0-0.1-0.1-0.2c0-0.2-0.1-0.3-0.1-0.6
		c0-0.2,0-0.4,0-0.6c0-0.2,0-0.4,0-0.6c0-0.2,0-0.4,0-0.6c0-0.2,0-0.3,0-0.4c0-0.1,0-0.1,0.1-0.3c0.1-0.5,0.2-1.2,0.2-1.9v-0.3
		c0-0.1,0.1-0.2,0.1-0.2c0-0.1,0.1-0.3,0.1-0.4c0-0.1,0-0.3,0.1-0.4c0-0.1,0-0.2,0-0.3c0-0.1,0.1-0.2,0.1-0.3c0-0.2,0.1-0.4,0.1-0.7
		c0-0.2,0.1-0.5,0.1-0.7c0-0.1,0.1-0.2,0.1-0.3c0-0.1,0-0.2,0-0.3c0,0,0-0.1,0.1-0.1c0,0,0-0.1,0.1-0.1c0-0.1,0-0.1,0-0.1
		c0-0.1,0-0.2,0-0.2c0.1-0.2,0.1-0.3,0.2-0.5c0.1-0.2,0.1-0.3,0.1-0.5c0,0-0.1,0-0.1,0c0,0,0,0,0,0c0,0-0.1,0-0.1,0
		c-0.1,0-0.1,0-0.2,0c0,0-0.1,0-0.1,0c0,0,0,0-0.1,0s-0.1,0-0.1,0c0,0-0.1,0-0.1,0c-0.1,0-0.2,0-0.2,0c0,0,0,0.1,0.1,0.1
		c-0.1,0.1-0.2,0.1-0.3,0.1c0,0,0,0,0,0c0,0,0,0,0,0v-0.1c0,0,0,0.1-0.1,0.1s-0.1,0-0.1,0h-0.1c0,0,0,0,0,0c0,0-0.1,0-0.1,0
		c0,0,0,0-0.1,0l0,0.1c0,0,0,0,0-0.1c0,0-0.1,0-0.1,0.1s0,0.1-0.1,0.1c0,0,0,0,0,0c0,0,0,0,0,0c0,0-0.1,0-0.1,0c0,0,0,0-0.1,0
		c0,0,0,0-0.1,0c0,0,0,0-0.1,0c0,0,0,0,0,0s0,0,0,0c0.2,0,0.3-0.1,0.3-0.2c0,0-0.1,0-0.1,0.1c0,0,0,0,0,0c0,0,0,0,0,0
		c0,0-0.1,0-0.2,0s-0.1,0-0.1,0.1c0,0,0,0,0-0.1c0,0-0.1,0-0.1,0s0,0-0.1,0c0,0-0.1,0-0.2,0.1c0,0-0.1,0,0-0.1c0,0,0-0.1,0-0.1v0
		c0,0,0,0,0,0c0,0,0,0,0,0c0,0-0.1,0.1-0.1,0.1c0,0,0-0.1,0.1-0.1s0.1,0,0.1-0.1c0,0-0.1,0.1-0.1,0c0,0,0.1,0,0.1,0
		c0,0-0.1,0-0.1-0.1c0.1-0.1,0.2-0.2,0.3-0.3s0.3-0.2,0.4-0.2c0,0,0.1,0,0.1,0c0,0,0,0,0.1,0c0,0,0-0.1,0-0.1c0.1,0,0.1,0,0.2,0
		s0.1,0,0.1-0.1c0,0,0.1,0,0.1-0.1c0.1,0,0.1,0,0.1-0.1c0,0,0.1,0,0.1,0c0,0,0.1,0,0.1-0.1c0.2,0,0.4-0.1,0.6-0.2
		c0.2-0.1,0.4-0.1,0.6-0.1c0.1-0.3,0.2-0.6,0.3-0.9c0.1-0.3,0.2-0.6,0.3-0.9c0.1-0.3,0.2-0.6,0.3-0.9c0.1-0.3,0.2-0.6,0.3-0.9
		c0.2-0.4,0.3-0.8,0.5-1.3c0.2-0.4,0.4-0.8,0.7-1.1c0.1-0.1,0.2-0.2,0.3-0.3c0.1-0.1,0.2-0.2,0.3-0.3c0,0,0.1,0,0.1,0s0,0,0.1,0
		c0.1,0,0.2-0.1,0.3-0.1C171.9,3.7,172,3.7,172.1,3.6z M166.6,11.8L166.6,11.8L166.6,11.8z M168.3,23.9
		C168.3,23.9,168.3,23.9,168.3,23.9L168.3,23.9C168.2,23.9,168.2,23.9,168.3,23.9z M168.5,22.6C168.5,22.6,168.5,22.6,168.5,22.6
		c0.1,0,0.1,0,0.2-0.1C168.5,22.5,168.5,22.5,168.5,22.6z"/>
</g>
</svg>
