<?xml version="1.0" encoding="utf-8"?>
<!-- Generator: Adobe Illustrator 19.2.1, SVG Export Plug-In . SVG Version: 6.00 Build 0)  -->
<svg version="1.1" id="Layer_1" xmlns="http://www.w3.org/2000/svg" xmlns:xlink="http://www.w3.org/1999/xlink" x="0px" y="0px"
	 viewBox="0 0 165.2 34.5" style="enable-background:new 0 0 165.2 34.5;" xml:space="preserve">
<style type="text/css">
	.st0{fill:#082432;}
</style>
<path class="st0" d="M157.3,24.4L157.3,24.4C157.4,24.4,157.4,24.4,157.3,24.4L157.3,24.4 M157.7,23.1L157.7,23.1
	c-0.1,0.1-0.1,0.1-0.2,0.1C157.6,23.1,157.6,23.1,157.7,23.1 M155.8,12.4L155.8,12.4L155.8,12.4z M160.9,4.3
	c-0.1,0.1-0.2,0.1-0.3,0.2h-0.1h-0.1c-0.1,0.1-0.2,0.2-0.3,0.3s-0.2,0.2-0.3,0.3c-0.3,0.3-0.5,0.7-0.7,1.1c-0.2,0.4-0.3,0.8-0.5,1.3
	c-0.1,0.3-0.2,0.6-0.3,0.9S158.1,9,158,9.3c-0.1,0.3-0.2,0.6-0.3,0.9c-0.1,0.3-0.2,0.6-0.3,0.9c-0.2,0-0.4,0.1-0.6,0.2
	c-0.2,0.1-0.4,0.1-0.6,0.2c0,0-0.1,0-0.1,0.1s-0.1,0-0.1,0s0,0.1-0.1,0.1c0,0-0.1,0-0.1,0.1s-0.1,0-0.1,0.1h-0.1c0,0,0,0,0,0.1h-0.1
	c0,0,0,0-0.1,0c-0.2,0.1-0.3,0.1-0.4,0.2c-0.1,0.1-0.2,0.2-0.3,0.3l0.1,0.1c0,0,0,0-0.1,0h0.1c0,0,0,0.1-0.1,0.1c0,0-0.1,0-0.1,0.1
	c0,0,0,0,0.1-0.1l0,0l0,0l0,0c0,0,0.1,0,0,0.1v0.1c0.1-0.1,0.1-0.1,0.2-0.1h0.1c0,0,0,0,0.1,0v0.1l0.1-0.1c0.1,0,0.1,0,0.2,0l0,0
	l0,0l0.1-0.1c-0.1,0.1-0.2,0.2-0.3,0.2l0,0l0,0c0,0,0,0,0.1,0c0,0,0,0,0.1,0h0.1h0.1l0,0l0,0c0,0,0.1,0,0.1-0.1c0,0,0-0.1,0.1-0.1
	v0.1v-0.1c0,0,0,0,0.1,0c0,0,0,0,0.1,0s0,0,0,0h0.1c0,0,0,0,0.1,0c0,0,0.1,0,0.1-0.1v0.1l0,0l0,0c0.1,0,0.2,0,0.3-0.1
	c0,0-0.1,0-0.1-0.1s0.1-0.1,0.1,0h0.1h0.1h0.1h0.1c0.1,0,0.1,0,0.2,0c0.1,0,0.1,0,0.1,0l0,0h0.1c0,0.2-0.1,0.4-0.2,0.5
	c-0.1,0.2-0.1,0.3-0.2,0.5c0,0.1,0,0.1,0,0.2v0.1c0,0,0,0.1-0.1,0.1c0,0,0,0.1-0.1,0.1c0,0.1,0,0.2,0,0.3s0,0.2-0.1,0.3
	c0,0.2-0.1,0.5-0.1,0.7c-0.1,0.2-0.1,0.5-0.1,0.7c0,0.1,0,0.2-0.1,0.3c0,0.1,0,0.2,0,0.3s-0.1,0.3-0.1,0.4s0,0.3-0.1,0.4
	c0,0,0,0.1-0.1,0.2v0.3c0,0.7-0.1,1.4-0.2,1.9c0,0.1-0.1,0.2-0.1,0.3c0,0.1,0,0.2,0,0.4c0,0.2,0,0.4,0,0.6s0,0.4,0,0.6s0,0.4,0,0.6
	s0.1,0.4,0.1,0.6c0,0.1,0.1,0.2,0.1,0.2l0.1,0.1c0.1,0.1,0.1,0.3,0.1,0.6v0l0.1,0.1v0.2v0.1v0.1c0.1,0,0.1,0.1,0.1,0.1l0.1,0.1l0,0
	l0,0c0,0.1,0.1,0.1,0.2,0c0,0.1,0,0.1,0.1,0.2s0.1,0.1,0.1,0.1s0,0.1,0.1,0.1l0.1,0.1l0,0c0.1,0,0.2-0.1,0.3-0.1h0.1
	c0,0,0.1,0,0.1-0.1h0.2c0.1,0,0.1,0,0.2-0.1c0.1,0,0.1,0,0.2-0.1h0.1c0,0,0.1,0,0.1-0.1c0.1-0.1,0.3-0.2,0.4-0.2
	c0.1-0.1,0.3-0.1,0.5-0.2c0,0,0,0,0.1,0s0,0,0,0V24l0,0l0.1-0.1c0.1,0,0.1-0.1,0.1,0l0,0l0,0l0,0c0,0,0,0,0-0.1c0.1,0,0.2,0,0.3-0.1
	s0.1-0.1,0.1-0.2c0,0,0.1,0,0.2-0.1c0.1-0.1,0.1-0.1,0.1-0.2c0.3-0.3,0.7-0.6,1.1-0.8c0.4-0.3,0.7-0.5,1.1-0.8c0,0,0-0.1,0.1-0.1
	s0,0,0.1,0l0,0l0,0l0.1-0.1c0.1-0.1,0.1-0.2,0.2-0.2c0.1-0.1,0.1-0.1,0.2-0.2c0.1-0.1,0.2-0.2,0.3-0.3s0.2-0.2,0.2-0.3
	c0.1-0.2,0.3-0.4,0.5-0.5c0.2-0.2,0.3-0.3,0.5-0.5c0.1,0,0.2-0.1,0.3-0.2s0.1-0.2,0.2-0.3l0,0l0,0l0,0l0,0l0,0l0,0
	c-0.1,0-0.1,0-0.2,0c-0.1,0-0.1,0-0.1,0c0-0.1-0.1-0.2,0-0.3c0-0.1,0-0.2,0.1-0.2c-0.1,0-0.2-0.1-0.2-0.2c-0.2,0.1-0.3,0.2-0.4,0.3
	c-0.1,0.1-0.3,0.2-0.4,0.3c-0.1,0.1-0.3,0.2-0.4,0.3c-0.1,0.1-0.2,0.2-0.4,0.3c-0.1,0.1-0.3,0.2-0.4,0.3c-0.1,0.1-0.2,0.2-0.4,0.3
	c-0.1,0.1-0.2,0.2-0.4,0.3c-0.1,0.1-0.3,0.2-0.4,0.3c-0.3,0.2-0.6,0.4-0.8,0.6c-0.3,0.2-0.5,0.4-0.8,0.6c-0.1,0.1-0.2,0.2-0.4,0.3
	c-0.1,0.1-0.3,0.2-0.5,0.3c0,0-0.1,0-0.1,0.1c0,0-0.1,0-0.1,0.1l-0.2,0.2c0,0-0.1,0.1-0.2,0.2s-0.2,0.1-0.3,0.1s-0.1,0-0.1-0.1l0,0
	l0,0c0-0.1,0-0.2,0-0.3v-0.2c0-0.1,0-0.1,0-0.1s0-0.1,0.1-0.1c0-0.1,0-0.1,0-0.2c0.1,0,0.1-0.1,0-0.2l0.1-0.1v-0.2
	c0-0.1,0-0.1,0.1-0.2c0,0,0.1-0.1,0.1-0.2s0.1-0.2,0.1-0.3c0-0.1,0-0.2,0.1-0.2c0-0.2,0-0.3,0.1-0.4s0.1-0.2,0.1-0.4v-0.1
	c0,0,0-0.1,0.1-0.2c0.1-0.2,0.1-0.4,0.2-0.6c0.1-0.2,0.1-0.4,0.1-0.6c0-0.1,0.1-0.2,0.1-0.3c0-0.1,0.1-0.2,0.1-0.3
	c0-0.1,0.1-0.1,0.1-0.2s0.1-0.2,0.1-0.3c0-0.1,0-0.2,0.1-0.3c0,0,0,0,0-0.1c0,0,0,0,0.1-0.1l0.1-0.2l0.1-0.4c0-0.1,0.1-0.2,0.2-0.3
	s0.1-0.2,0.1-0.3v-0.1v-0.1c0,0,0,0,0-0.1v-0.1v-0.1v-0.5c0-0.2,0.1-0.3,0.1-0.3c0-0.1,0-0.1,0-0.2s0-0.1,0-0.2
	c0.1-0.3,0.2-0.6,0.3-0.9s0.2-0.6,0.3-1c0.1,0,0.2,0,0.3,0s0.1,0,0.2-0.1l0,0l0,0c0.1,0,0.1,0,0.2,0l0.1-0.1l0,0l0,0h-0.1h-0.1
	c-0.1,0-0.1,0-0.2,0c0,0,0.1-0.1,0.2-0.1c0.1,0,0.2,0,0.3-0.1l0,0l0,0h0.2l0,0l0,0l0,0l0,0c0.1,0,0.2-0.1,0.3,0c0.1,0,0.2,0,0.2-0.1
	c0,0.1,0.1,0.1,0.2,0.1v0.2l0,0l0,0c0,0,0,0,0-0.1h0.1c0,0,0-0.1,0.1-0.1s0.2,0,0.2,0c0.1,0,0.2,0,0.3,0s0.2,0,0.3-0.1
	c-0.1,0-0.2,0-0.4,0c-0.1,0-0.3,0-0.4,0c0,0,0,0-0.1,0c0,0,0,0-0.1,0h-0.1h-0.1c0,0,0,0-0.1,0l0,0l0,0h-0.1c0-0.1,0.1-0.1,0.2-0.1
	s0.2,0,0.2-0.1h0.1h0.1v-0.1c0.1,0,0.2,0,0.4,0c0.1,0,0.2,0,0.3,0h0.1c0.1,0,0.2,0,0.2-0.1l0,0H164V11h-0.1c-0.1,0-0.1,0-0.1,0l0,0
	l0,0h-0.1h-0.1l0,0l0,0c-0.4,0-0.8-0.1-1.3,0c-0.4,0-0.9,0-1.3,0c0-0.1,0.1-0.2,0.1-0.2l0,0l0,0c0.1-0.2,0.1-0.3,0.2-0.5
	c0-0.1,0.1-0.3,0.1-0.5s0.1-0.3,0.2-0.5c0.1-0.1,0.1-0.3,0.2-0.5s0.1-0.5,0.2-0.7c0.1-0.2,0.1-0.5,0.2-0.8c0-0.1,0-0.1,0-0.3V6.9
	V6.8c0,0,0,0,0-0.1s0,0,0-0.1c0-0.2,0.1-0.4,0-0.7s0-0.5,0-0.7V5.1c0,0,0,0,0-0.1c0,0,0-0.1-0.1-0.1V4.8c0,0,0,0,0-0.1L162,4.6
	l-0.1-0.1c0,0-0.1-0.1-0.1-0.2s-0.1-0.1-0.1-0.1h-0.1l-0.1-0.1c-0.1-0.1-0.1-0.2-0.2-0.2h-0.1C161.1,4.2,161,4.3,160.9,4.3
	 M144.9,25.5c0,0-0.1,0-0.1-0.1C144.8,25.4,144.9,25.4,144.9,25.5 M150,20.4c0,0.5-0.1,1-0.2,1.4s-0.3,0.8-0.4,1.2
	c-0.1,0.2-0.1,0.2-0.1,0.3s0,0,0,0l-0.1,0.2c-0.1,0.1-0.1,0.1-0.1,0.2s-0.1,0.1-0.1,0.1c0,0.1-0.1,0.1,0,0.2
	c-0.2,0.2-0.4,0.4-0.7,0.6c-0.3,0.2-0.5,0.4-0.8,0.5c-0.1,0-0.2,0.1-0.3,0.1s-0.2,0-0.3,0h-0.1c0,0-0.1-0.1-0.2-0.1l0,0
	c0,0,0,0,0-0.1c0,0-0.1,0.1-0.1,0l0,0c0,0,0,0.1,0.1,0.1c0,0,0.1,0,0,0.1h-0.1c0,0-0.1,0-0.1-0.1v0.1c0,0-0.1-0.1-0.2-0.1
	s-0.1,0-0.2-0.1c0.1-0.2,0.1-0.3,0.1-0.5s0-0.3,0-0.4V24c0,0,0,0,0-0.1l0,0V24c0-0.1,0-0.2,0-0.3c0-0.1,0-0.2,0-0.2v0.1v0.1
	c0,0,0.1,0,0.1-0.2c0.1-0.1,0.1-0.2,0.2-0.3c0.1-0.1,0.1-0.2,0.2-0.3c0.1-0.1,0.1-0.2,0.2-0.2c0.1-0.1,0.1-0.1,0.2-0.2
	c0,0,0,0,0.1,0s0.1-0.1,0.1-0.1c0.1-0.1,0.2-0.2,0.4-0.3c0.2-0.1,0.3-0.3,0.5-0.4c0.1-0.1,0.2-0.1,0.3-0.2s0.2-0.2,0.3-0.2
	c0,0,0,0,0.1,0c0.2-0.1,0.3-0.2,0.4-0.2c0.1,0,0.2-0.2,0.4-0.2v-0.1c0.1,0,0.2-0.1,0.3-0.2s0.2-0.1,0.3-0.2c0,0,0,0.1,0,0.2
	S150.1,20.3,150,20.4L150,20.4z M156.9,15.2C157,15.2,157.1,15.2,156.9,15.2c-0.1,0.2-0.4,0.4-0.8,0.7c-0.4,0.3-0.9,0.6-1.4,0.8
	c-0.5,0.3-1,0.5-1.4,0.7c-0.5,0.2-0.8,0.3-1.1,0.3c-0.1-0.2-0.1-0.3-0.2-0.5c0-0.2-0.1-0.3-0.1-0.5c-0.1-0.4-0.2-0.9-0.4-1.4
	c-0.1-0.5-0.3-1-0.4-1.4c0,0-0.1-0.1-0.1-0.2v-0.2c0-0.1-0.1-0.2,0-0.2c0-0.1,0-0.2,0-0.3s0-0.2,0-0.3s0-0.2,0-0.4
	c-0.1-0.2-0.1-0.4-0.1-0.5c-0.1-0.1-0.2-0.2-0.2-0.3s0-0.3,0-0.5c-0.1-0.2-0.3-0.2-0.5-0.1c0,0-0.1,0-0.1-0.1s-0.1-0.1-0.1-0.1
	c0,0.1,0,0.1,0,0s-0.1,0-0.1,0c-0.1,0-0.2-0.1-0.2-0.1s-0.1,0-0.2,0c-0.1,0-0.2,0.1-0.2,0.2s-0.1,0.1-0.2,0.2
	c-0.1,0.2-0.2,0.4-0.3,0.5c0,0.1,0,0.2-0.1,0.3c0,0.1,0,0.1-0.1,0.2c-0.1,0.2,0,0.4,0.1,0.6s0.2,0.5,0.4,0.7
	c0.1,0.2,0.2,0.5,0.3,0.7s0.1,0.4-0.1,0.4c0,0.1-0.1,0.2-0.2,0.3s-0.2,0.3-0.3,0.4c-0.1,0.1-0.2,0.2-0.3,0.3s-0.2,0.2-0.2,0.2
	c-0.1,0.2-0.2,0.3-0.3,0.4s-0.1,0.2-0.2,0.3c-0.1,0.1-0.1,0.2-0.2,0.3s-0.2,0.3-0.4,0.4c-0.1,0.2-0.2,0.3-0.2,0.3
	c0,0.1-0.1,0.2-0.3,0.4c0,0,0,0.1-0.1,0.1c-0.1,0.1-0.2,0.2-0.3,0.3c-0.1,0.1-0.2,0.2-0.3,0.3c-0.1,0.1-0.1,0.1-0.2,0.2
	c-0.1,0.1-0.2,0.2-0.3,0.2c-0.1,0.1-0.1,0.2-0.2,0.3c-0.1,0.2-0.3,0.4-0.6,0.6c-0.3,0.2-0.5,0.3-0.5,0.5c0,0,0.1,0,0.2,0
	c0.1,0,0.2,0,0.3,0l0,0c0-0.1,0.1-0.1,0.1-0.1l0.1,0.1c0.1,0,0,0,0,0.1c0,0,0,0.1-0.1,0.1c0,0-0.1,0,0,0v0.1c0,0,0,0,0,0.1
	c0,0,0.1-0.1,0.2-0.1c0.1-0.1,0.1-0.1,0.2-0.1c0,0,0.1,0,0,0l0,0c0,0,0,0-0.1,0s-0.1,0,0,0c0,0,0,0,0.1,0.1c0.1-0.1,0.2-0.2,0.2-0.3
	c0.1-0.1,0.1-0.1,0.2-0.2c0.1,0,0.1-0.1,0.1-0.1c0.1,0,0.3-0.1,0.4-0.2c0.2-0.1,0.2-0.2,0.2-0.3c0,0,0,0,0.1-0.1s0.2-0.2,0.3-0.2
	c0.1-0.1,0.2-0.2,0.4-0.3c0.2-0.2,0.3-0.3,0.3-0.4c0.1-0.1,0.2-0.2,0.3-0.3c0,0,0.1-0.1,0.1-0.2c0.1-0.1,0.2-0.2,0.3-0.3
	c0.1-0.1,0.2-0.2,0.2-0.3c0.1-0.1,0.1-0.2,0.1-0.2c0.1,0,0.1-0.1,0.3-0.3c0.1-0.2,0.2-0.3,0.3-0.4c0-0.1,0-0.1,0.1,0
	c0,0.1,0.1,0.2,0.1,0.3s0,0.2,0,0.4s0,0.2,0,0.3h0.1c0,0.2,0.1,0.3,0.1,0.5s0.1,0.3,0.1,0.4s0.1,0.2,0.1,0.4c0,0.1,0.1,0.3,0.1,0.5
	c-0.8,0.5-1.7,1-2.4,1.5c-0.8,0.5-1.5,1.2-2.1,1.9v0.1c-0.1,0-0.2,0.1-0.3,0.3c-0.1,0.2-0.2,0.3-0.2,0.6c-0.1,0.2-0.1,0.4-0.2,0.6
	c0,0.2-0.1,0.4-0.1,0.6c0,0-0.1,0.1-0.1,0.2s0,0.1,0.1,0.1l0,0l0,0c0,0,0,0.1,0,0.2s0,0.1,0.1,0.2c0,0.1,0,0.1-0.1,0.1
	c0,0,0,0,0,0.1c0,0,0,0.1,0.1,0.1c0,0,0,0,0,0.1c0.1,0.1,0.1,0.2,0.2,0.3c0.1,0,0.1,0.1,0.2,0.1c0,0,0.1,0.1,0.2,0.1
	c0.1,0.3,0.4,0.5,0.7,0.7c0.1,0,0.2,0.1,0.3,0.1s0.2,0,0.3,0.1v0.2h-0.1c0.1,0,0.1,0,0.1,0.1s0,0.1,0.1,0.2c0.2,0,0.3,0,0.5-0.1
	c0.2-0.1,0.3-0.1,0.5-0.1c0,0,0.1,0,0.1,0.1c0,0,0,0.1,0.1,0.1s0.1,0,0.1,0l0.1-0.1c0,0.1,0,0.2,0.1,0.2c0.1-0.1,0.3-0.1,0.4-0.2
	h0.1v0.1c0,0,0.1-0.1,0.2-0.1c0.1-0.1,0.2-0.2,0.3-0.2c0-0.1,0.1-0.1,0.1-0.2l0.1-0.1h0.1c0,0,0,0,0.1,0c0-0.1,0.1-0.2,0.2-0.2
	s0.1,0,0.2,0c0-0.1,0.1-0.2,0.2-0.2s0.1-0.1,0.1-0.2l0,0l0,0l0.1-0.1c0-0.1,0.1-0.1,0.2-0.2c0,0,0-0.1,0.1-0.1h0.1
	c0-0.1,0.1-0.1,0.1-0.2s0.1-0.1,0.1,0s0,0.1,0,0.1l0,0c0,0,0-0.1,0-0.2c0.1,0,0.2-0.1,0.2-0.2c0.1-0.1,0.1-0.2,0.2-0.2
	c0,0.1,0.1,0.1,0.1,0s0.1-0.2,0.1-0.2s0.1,0,0,0v0.1c0-0.1,0.1-0.2,0.1-0.3s0.1-0.2,0.1-0.2s0.1-0.1,0-0.2c0.1,0,0.1,0,0.1-0.1
	s0.1-0.1,0.1-0.2l0,0c0,0,0,0,0,0.1c0.1,0,0.1-0.1,0.2-0.3c0.1-0.1,0.1-0.3,0.1-0.4s0.1-0.3,0.1-0.4s0-0.2,0-0.2
	c0.2-0.5,0.2-1.1,0.2-1.7s0-1.2-0.1-1.7c0.3-0.1,0.7-0.2,1.2-0.4c0.5-0.2,1-0.5,1.5-0.8s0.9-0.6,1.3-0.8c0.4-0.3,0.5-0.4,0.5-0.5
	s0.1-0.1,0.2-0.1c0,0,0,0,0.1,0c0,0,0.1,0,0.1-0.1c-0.1,0-0.1,0-0.1,0s0,0,0.1,0h0.1l0,0c-0.2,0-0.2,0.1-0.3,0.1l0,0l0,0
	c0,0-0.1,0-0.3,0.1c0,0-0.1,0-0.1-0.1c0.1,0,0.2-0.1,0.3-0.2s0.2-0.1,0.4-0.1c0.1-0.1,0.2-0.1,0.1-0.1c0,0,0,0-0.1,0
	c0,0-0.1,0-0.1,0.1c0,0,0,0,0.1,0s0.1,0,0.1,0l0,0l0,0c0,0,0,0,0.1-0.1c-0.1,0-0.1,0-0.2,0c-0.1,0-0.1,0-0.2,0
	c0-0.1,0.1-0.1,0.2-0.1s0.2,0,0.3-0.1c0-0.1,0-0.1,0-0.1l0.1-0.1l-0.1-0.1c0.1,0,0.1,0,0.2,0c0-0.1,0-0.1,0-0.1h-0.1
	c-0.1,0-0.3,0-0.4,0.1c-0.1,0-0.3,0-0.4,0c0,0,0-0.1-0.1,0c-0.1,0-0.1,0-0.1,0c0.1,0,0.1,0,0.1-0.1C157.1,15.2,157,15.3,156.9,15.2
	c0,0.1-0.1,0.1-0.1,0.1S156.8,15.2,156.9,15.2 M140.6,22.3C140.6,22.2,140.7,22.2,140.6,22.3C140.7,22.2,140.7,22.3,140.6,22.3
	L140.6,22.3L140.6,22.3z M138.3,12.7c0-0.1,0.1-0.1,0.2-0.2c0.1,0,0.2,0.1,0.3,0.2c0.1,0.1,0.1,0.2,0.1,0.2s0,0.1-0.1,0.1
	c0,0.2-0.1,0.3-0.1,0.5s-0.1,0.4-0.1,0.5c-0.2,0.1-0.5,0.2-0.8,0.2c-0.1,0-0.2,0-0.4-0.1c-0.1-0.1-0.1-0.1-0.1-0.1
	c0-0.1,0-0.1,0.1-0.2l0,0l0,0l0.1-0.1c0-0.1,0.1-0.2,0.1-0.2c0-0.1,0.1-0.1,0.1-0.2c0-0.1,0.1-0.2,0.2-0.4
	C138.2,12.8,138.2,12.7,138.3,12.7 M141.8,24.2h0.1c0.1,0,0.1-0.1,0.2-0.1l0,0l0,0c0.1,0,0.2,0,0.3-0.1c0.1,0,0.2-0.1,0.2-0.1
	c0.1,0,0.2-0.1,0.3-0.2s0.1-0.1,0.2-0.2l0.1-0.1c0,0,0.1,0,0.1-0.1c0.1-0.1,0.3-0.2,0.3-0.3c0.1-0.1,0.2-0.2,0.3-0.3
	c0-0.1,0.1-0.2,0.2-0.3c0.1-0.1,0.2-0.2,0.2-0.3c0.2-0.2,0.5-0.4,0.7-0.7c0.2-0.2,0.5-0.5,0.7-0.7c0.1-0.1,0.1-0.1,0.2-0.2
	c0.1-0.1,0.1-0.1,0.2-0.2c0,0,0,0,0-0.1c0,0,0,0,0-0.1c0.1-0.1,0.2-0.1,0.2-0.2c0.1-0.1,0.1-0.1,0.2-0.2c0-0.1,0.1-0.1,0.1-0.2
	s0.1-0.1,0.1-0.2l0.1-0.1v-0.1l0,0c0,0,0-0.1,0-0.2v-0.1l0,0v-0.1c0-0.1,0.1-0.1,0.1-0.2c-0.1-0.1-0.1-0.1-0.1-0.1s0,0,0-0.1v-0.1
	c0-0.1,0-0.1,0.1-0.2c0,0-0.1,0-0.1-0.1h-0.1h-0.1c-0.1,0-0.2,0-0.2,0.1c-0.1,0.1-0.1,0.1-0.2,0.2c-0.1,0.1-0.3,0.2-0.4,0.4
	c-0.1,0.1-0.3,0.2-0.4,0.4c-0.3,0.2-0.6,0.5-0.8,0.7c-0.3,0.2-0.5,0.5-0.8,0.7c0,0-0.1,0-0.1,0.1c0,0,0,0-0.1,0.1h-0.1
	c0,0,0,0-0.1,0c-0.2,0.1-0.4,0.3-0.6,0.4c-0.2,0.2-0.4,0.3-0.6,0.4l-0.1,0.1c0,0-0.1,0.1-0.2,0.1s-0.1,0-0.1-0.1s0-0.1,0-0.2v-0.1
	l0,0l0.1-0.1V21v-0.1c0-0.1,0-0.2,0.1-0.4c0-0.1,0-0.3,0-0.4V20c0,0,0,0,0-0.1l0,0l0,0v-0.1c0,0,0,0,0-0.1c0,0,0,0,0-0.1v-0.2
	c0-0.2,0.1-0.3,0.1-0.5c0-0.1,0.1-0.3,0.1-0.5c0-0.1,0-0.1,0-0.2v-0.1l0,0V18c0-0.1,0.1-0.1,0.1-0.2v-0.1v-0.1v-0.1v-0.1
	c0-0.1,0.1-0.2,0.1-0.2v-0.1V17l0.1-0.1c0.1-0.2,0.2-0.4,0.3-0.6c0.1-0.2,0.2-0.4,0.3-0.6l0.1-0.1v-0.1c0,0,0,0,0-0.1
	s0.1-0.2,0.1-0.2s0.1-0.1,0.1-0.2l0,0l0,0c0,0,0,0,0.1-0.1l0.1-0.1c0,0,0-0.1,0.1-0.2c0,0,0-0.1,0.1-0.1c0,0,0,0,0.1-0.1
	c0-0.1,0.1-0.2,0.1-0.3V14v-0.1c0,0,0,0,0-0.1c0,0,0,0,0-0.1c0.1-0.2,0.1-0.4,0.1-0.6c0-0.2-0.1-0.4-0.2-0.5h-0.1l0,0l0,0
	c-0.2-0.2-0.3-0.4-0.5-0.5c0,0-0.1-0.1-0.2-0.2c-0.1,0-0.2-0.1-0.3,0c-0.1,0-0.2,0.1-0.3,0.1s-0.2,0.1-0.3,0.1s-0.2,0.1-0.3,0.1
	c-0.4,0.2-0.9,0.4-1.3,0.6c-0.4,0.2-0.9,0.4-1.3,0.6c-0.1,0-0.2,0.1-0.3,0.1s-0.2,0.1-0.3,0.1c0-0.1,0-0.2,0.1-0.3
	c0-0.1,0-0.2,0.1-0.3v-0.2c0-0.1,0.1-0.1,0.1-0.2c0-0.1,0-0.1,0.1-0.2v-0.1v-0.1c0,0,0.1-0.1,0.1-0.2l-0.1-0.1
	c0.1-0.1,0.1-0.3,0-0.4s-0.1-0.2-0.2-0.3c-0.1-0.1-0.2-0.1-0.3-0.2s-0.2-0.1-0.2-0.2h-0.1l0,0c0,0-0.1,0-0.1,0.1s0,0,0,0.1
	c-0.2,0-0.3,0.1-0.5,0.1c-0.2,0-0.3,0.1-0.5,0.1c-0.1,0-0.2,0-0.2,0c-0.1,0-0.1,0-0.2,0c-0.1,0-0.2,0.1-0.3,0.2
	c-0.1,0.1-0.2,0.1-0.3,0.2c-0.2,0.2-0.4,0.5-0.6,0.9c0,0.1-0.1,0.1-0.1,0.2c0,0.1-0.1,0.1-0.1,0.2c0,0.1,0,0.2-0.1,0.2
	c0,0.1,0,0.1,0,0.2v0.1v0.1l0,0c0,0,0,0,0,0.1s0,0.2,0,0.4c0,0.1,0,0.2,0.1,0.3l0.1,0.1l0.1,0.1c0,0,0,0.1,0.1,0.1l0.1,0.1
	c0.3,0.2,0.7,0.4,1.2,0.4c-0.1,0.2-0.1,0.3-0.2,0.4c-0.1,0.2-0.2,0.4-0.3,0.5c-0.1,0.2-0.2,0.4-0.3,0.5s-0.1,0.2-0.2,0.4
	c-0.1,0.1-0.1,0.3-0.2,0.4c0,0.1-0.1,0.1-0.1,0.2s-0.1,0.1-0.1,0.2c0,0-0.1,0.1-0.1,0.2c0,0,0,0.1-0.1,0.1c0,0,0,0.1-0.1,0.1v0.1
	v0.1c0,0.1-0.1,0.1-0.1,0.2s-0.1,0.1-0.1,0.2S135,18.9,135,19s-0.1,0.2-0.1,0.2v0.1c0,0,0,0.1-0.1,0.1s-0.1,0-0.1,0.1l0,0h0.1l0,0
	c0,0,0,0,0.1,0c0,0.1,0,0.2,0.1,0.4c0.1,0.1,0.2,0.2,0.3,0.1c0.1,0,0.1,0,0.1-0.1c0.1,0,0.2-0.1,0.4-0.2c0.1,0,0.1-0.1,0.2-0.1
	s0.1-0.1,0.2-0.1c0.1-0.1,0.2-0.2,0.2-0.2c0.1-0.1,0.1-0.1,0.2-0.2c0-0.1,0-0.1,0.1-0.2c0,0,0-0.1,0.1-0.1c0.1-0.1,0.1-0.2,0.2-0.4
	c0,0,0,0,0-0.1c0,0,0,0,0-0.1c0,0,0.1,0,0.1-0.1h0.1c0-0.1,0-0.1,0-0.1s0.1-0.1,0.2-0.2c-0.1,0.1-0.1,0.1-0.1,0.2
	c0.1-0.3,0.2-0.5,0.4-0.8v-0.1c0,0,0-0.1,0.1-0.1l0.1-0.1l0.1-0.1c0-0.1,0-0.2,0-0.2s0-0.1,0.1-0.1v-0.1c0,0,0,0,0-0.1
	c0,0,0.1-0.1,0.1-0.2c0-0.1,0-0.1,0-0.1c0-0.1,0-0.2,0.1-0.2c0-0.1,0.1-0.1,0.1-0.1c0.1-0.2,0.2-0.3,0.2-0.3
	c0.5-0.2,0.9-0.3,1.3-0.5s0.9-0.3,1.3-0.5c0,0.1,0,0.2-0.1,0.3c-0.1,0.2-0.1,0.3-0.2,0.4c-0.1,0.1-0.1,0.3-0.2,0.4
	c0,0.1-0.1,0.2-0.1,0.3c-0.1,0.1-0.1,0.2-0.1,0.3s-0.1,0.2-0.1,0.2c0,0.1,0,0.2-0.1,0.2c0,0.1,0,0.1,0,0.2l-0.1,0.1v0.1V17v0.1
	l-0.1,0.2c0,0.1-0.1,0.1-0.1,0.2s0,0.1-0.1,0.2c0,0.1-0.1,0.2-0.1,0.4c0,0.1-0.1,0.3-0.1,0.4s-0.1,0.3-0.1,0.4s0,0.3,0,0.4l-0.1,0.9
	c0,0.1,0,0.1-0.1,0.2c0,0.1,0,0.1,0,0.2c0,0.2-0.1,0.4,0,0.7c0,0.2,0.1,0.4,0.1,0.6c0.1,0.4,0.2,0.7,0.4,1L140,23l0.1,0.1l0.1,0.1
	c0,0,0.1,0,0.1,0.1c0,0,0.1,0.1,0.1,0.2s0.1,0.1,0.1,0.2s0.1,0.2,0.2,0.3C141.5,24.1,141.6,24.2,141.8,24.2L141.8,24.2z M127.5,20
	c0-0.2,0.1-0.4,0.1-0.7c0-0.1,0.1-0.3,0.1-0.4s0.1-0.3,0.1-0.4c0.1,0,0.1-0.1,0.1-0.2s0-0.2,0-0.3c0-0.1,0.1-0.2,0-0.3
	c0-0.1,0.1-0.2,0.1-0.3c0-0.1,0.1-0.2,0.1-0.3c0-0.1,0.1-0.3,0.1-0.4c0.1-0.1,0.1-0.3,0.1-0.4l0,0c0,0,0,0.1-0.1,0.1
	c0,0.1,0,0.1,0,0.2s0,0,0,0c0.1-0.1,0.1-0.1,0.1-0.2c0-0.1,0.1-0.2,0.1-0.3s0.1-0.2,0.2-0.3c0-0.2,0.1-0.3,0.2-0.4
	c0.1-0.1,0.1-0.2,0.2-0.3c0.1-0.1,0.1-0.2,0.2-0.3s0.1-0.3,0.1-0.5c0-0.1,0-0.1,0-0.2c0-0.1,0-0.1,0-0.2v-0.1c0,0,0,0,0-0.1
	c0-0.2,0-0.4,0-0.7c-0.1-0.2-0.1-0.4-0.1-0.6c-0.1,0-0.1-0.1-0.1-0.2c-0.1-0.2-0.3-0.4-0.4-0.6c-0.1-0.2-0.4-0.3-0.7-0.3
	c0,0-0.1-0.1-0.1,0c-0.1,0-0.1,0-0.2,0c0,0-0.1,0-0.1,0.1c-0.1,0-0.1,0.1-0.2,0.1l0,0l0,0c-0.1,0.1-0.2,0.2-0.2,0.3
	c-0.1,0.1-0.1,0.2-0.2,0.3c-0.2,0.4-0.3,0.7-0.4,1c-0.1,0.3-0.2,0.5-0.3,0.8s-0.2,0.5-0.3,0.8s-0.2,0.7-0.3,1.1
	c-0.2,0.7-0.3,1.4-0.4,2.2c-0.1,0.8-0.2,1.6-0.2,2.4c0,0.5,0,1,0.1,1.4c0.1,0.5,0.2,0.9,0.4,1.2l0.1,0.1c0,0,0.1,0.1,0.1,0.2
	c0.1,0.1,0.2,0.3,0.3,0.4s0.2,0.2,0.3,0.3c0.1,0,0.3,0,0.4,0s0.2,0,0.4,0c0.1-0.1,0.2-0.2,0.3-0.2s0.2-0.1,0.3-0.2
	c0.4-0.5,0.8-1,1.2-1.6v-0.1c0,0,0,0,0-0.1c0.1,0,0.1-0.1,0.1-0.2s0.1-0.1,0.1-0.2c0.2-0.4,0.4-0.7,0.6-1c0.2-0.3,0.4-0.7,0.6-1
	v-0.1v-0.1l0.1-0.1c0-0.1,0.1-0.1,0.1-0.1l0,0c0,0,0,0,0-0.1l0,0l0,0c0.1-0.4,0.2-0.7,0.4-1c0.2-0.3,0.3-0.6,0.5-0.8
	c-0.1,0.6-0.2,1.2-0.3,1.9c-0.1,0.7-0.1,1.4,0.1,2.1c0,0.2,0.1,0.3,0.1,0.4c0.1,0.1,0.1,0.3,0.2,0.4c0,0.1,0.1,0.2,0.1,0.4
	s0.1,0.3,0.2,0.4c0.1,0.1,0.2,0.2,0.3,0.3c0.1,0.1,0.3,0.1,0.4,0.2s0.3,0.1,0.6,0c0.3-0.1,0.5-0.1,0.6-0.2c0.2-0.1,0.4-0.2,0.4-0.3
	c0-0.1,0.2-0.2,0.3-0.3c0,0,0,0,0.1,0s0.1,0,0.1,0s0.1-0.1,0.1-0.2c0.1-0.1,0.1-0.2,0.2-0.3c0.1-0.1,0.1-0.2,0.2-0.3
	c0-0.1,0.1-0.1,0.1-0.1c-0.1,0.1-0.1,0.2-0.1,0.3c0,0.1-0.1,0.2-0.1,0.2c0,0.1-0.1,0.1-0.1,0.1c0.2-0.1,0.3-0.3,0.4-0.4
	c0.1-0.1,0.2-0.2,0.2-0.3c0.1-0.1,0.1-0.2,0.2-0.3c0.1-0.1,0.2-0.3,0.3-0.5c0,0,0.1-0.1,0.2-0.2c0.1-0.1,0.2-0.2,0.3-0.4
	c0.1-0.1,0.2-0.3,0.3-0.4s0.2-0.2,0.2-0.2c0-0.1,0-0.1,0.1-0.2l0.1-0.1c0.1,0,0.1-0.1,0.1-0.1s0-0.1,0-0.2c0.1-0.1,0.1-0.2,0.1-0.3
	s0-0.2,0.1-0.3c-0.1,0-0.1-0.1-0.1-0.1s0-0.1,0-0.2c0,0.1-0.1,0.1-0.1,0.2c0,0-0.1,0-0.2,0.1c0.1-0.1,0.1-0.1,0.1-0.1l-0.1,0.1
	c0,0-0.1,0.1-0.2,0.2c-0.1,0.1-0.1,0.1-0.2,0.1c-0.1,0.1-0.2,0.2-0.2,0.2s-0.1,0.1-0.2,0.2c0,0,0-0.1,0.1-0.2s0.1-0.2,0.1-0.2
	s0,0.1-0.1,0.2s-0.1,0.2-0.2,0.2c-0.1,0.1-0.1,0.2-0.2,0.2c-0.1,0-0.1,0.1-0.1,0.1c-0.1,0.1-0.2,0.3-0.4,0.5
	c-0.2,0.2-0.3,0.3-0.4,0.4c-0.1,0-0.1,0.1-0.2,0.2c-0.1,0.1-0.2,0.2-0.2,0.3c-0.1,0.1-0.2,0.2-0.4,0.3c-0.1,0.1-0.2,0.2-0.4,0.3
	c-0.1,0.1-0.2,0.2-0.2,0.2l-0.1,0.1h-0.1c0,0-0.2,0-0.3,0.1c0-0.2,0-0.4-0.1-0.6s-0.1-0.4,0-0.5c0-0.3,0.1-0.6,0.1-0.9
	s0.1-0.6,0.1-0.9c0,0,0-0.1,0.1-0.1s0-0.1,0-0.1c0-0.2,0-0.2,0-0.3c0-0.1,0.1-0.2,0.1-0.3s0-0.2,0-0.3c0,0,0-0.1,0.1-0.1
	c0,0,0-0.1,0-0.2c0-0.3,0.1-0.6,0.2-0.8c0.1-0.2,0.1-0.6,0.1-0.9c0-0.1,0-0.2,0.1-0.3c0-0.1,0-0.2,0-0.2c0-0.2,0.1-0.3,0.1-0.4
	c0-0.1,0-0.3,0-0.4c0-0.1,0.1-0.2,0.1-0.3s0-0.2,0-0.3c0,0-0.1,0-0.1,0.1s0,0.1-0.1,0c0-0.1,0.1-0.2,0.1-0.2c-0.1,0-0.1-0.1-0.1-0.1
	c0-0.1,0-0.2-0.1-0.3c0-0.1,0-0.2-0.1-0.3c-0.1,0-0.1,0-0.1-0.1c-0.1,0-0.2,0-0.2-0.1s-0.1-0.2-0.1-0.3c0,0.1-0.1,0.1-0.1,0.1
	c-0.1,0-0.1-0.1-0.2-0.1c-0.1,0-0.2,0-0.3,0.1s-0.2,0.2-0.3,0.5c-0.1,0.2-0.1,0.4-0.2,0.6c-0.3,0.2-0.5,0.5-0.8,0.8
	c-0.2,0.3-0.5,0.5-0.7,0.8c-0.1,0.1-0.2,0.2-0.2,0.3c-0.1,0.1-0.1,0.2-0.2,0.2c0,0.2-0.1,0.3-0.1,0.3c-0.1,0.1-0.1,0.2-0.2,0.3
	c-0.1,0.1-0.2,0.2-0.2,0.3c-0.1,0.1-0.1,0.1-0.2,0.2c-0.1,0.1-0.1,0.2-0.1,0.2c-0.3,0.5-0.6,0.9-0.9,1.4c-0.3,0.5-0.6,0.9-0.9,1.3
	c-0.1,0.2-0.2,0.3-0.3,0.5c-0.1,0.1-0.2,0.3-0.3,0.4C127.5,20.5,127.5,20.2,127.5,20 M116,17.3L116,17.3c-0.1,0-0.1-0.1-0.1-0.1
	c0-0.1,0-0.1,0-0.2v-0.2l0,0l0,0c0,0,0.1-0.1,0.1-0.3s0.1-0.5,0.1-0.7c0.1-0.2,0.1-0.5,0.2-0.7V15c0,0,0,0,0-0.1s0-0.1,0-0.2
	c0-0.1,0.1-0.1,0.1-0.2c0-0.1,0-0.2,0.1-0.3v-0.1V14c0-0.1,0.1-0.2,0.1-0.2c0-0.1,0-0.2,0-0.3c0-0.2,0.1-0.5,0.2-0.7
	c0.1-0.2,0.1-0.5,0.1-0.7c0-0.1,0-0.2,0.1-0.3c0-0.1,0.1-0.2,0.1-0.3s0.1-0.2,0.1-0.3s0-0.2,0.1-0.3c0-0.1,0.1-0.2,0.1-0.3
	s0-0.2,0.1-0.3c0-0.1,0-0.2,0-0.3c0.1-0.3,0.1-0.5,0.2-0.7V9.2V9.1c0,0,0-0.1,0-0.3c0-0.1,0-0.1,0-0.2s0-0.1,0.1-0.2V8.3V8.2V8.1V8
	l0,0l0,0V7.9c0,0,0,0,0-0.1V7.7l0,0V7.6l0,0c0,0,0,0,0.1-0.1l0.1-0.1c0,0,0-0.1,0.1-0.1c0,0,0-0.1,0.1-0.2l0.1-0.3l0.2-0.5V6.2
	c0-0.1,0-0.1,0-0.2c0,0,0,0,0-0.1c0,0,0,0,0-0.1s0.1-0.2,0.1-0.3s0.1-0.1,0.1-0.2c0-0.1,0-0.1,0-0.2c0-0.1,0.1-0.3,0.1-0.4
	c0-0.1,0.1-0.2,0.1-0.4c0-0.1,0-0.1,0.1-0.2s0.1-0.2,0.2-0.2h0.1c0,0,0.1,0.1,0.1,0.2c0,0,0,0,0,0.1c0,0,0,0,0,0.1l0.1,0.1
	c0.1,0.1,0.1,0.2,0.1,0.4l0.1,0.7v0.3v0.1c0,0.1,0,0.3,0,0.4c0,0.1,0,0.3,0,0.4c0,0.4-0.1,0.7-0.1,1.1c-0.1,0.4-0.1,0.7-0.2,1
	c0,0.1,0,0.2-0.1,0.3c0,0.1,0,0.2-0.1,0.3l-0.1,0.1c-0.1,0.2-0.1,0.3-0.2,0.5c0,0.2-0.1,0.3-0.2,0.5c0,0.1-0.1,0.2-0.1,0.3
	s-0.1,0.2-0.1,0.2c0,0.1,0,0.1-0.1,0.2l-0.1,0.1v0.2l-0.1,0.4l-0.3,0.6c0,0.1-0.1,0.1-0.1,0.2c0,0,0,0.1-0.1,0.1
	c0,0.1-0.1,0.2-0.1,0.2c0,0.1-0.1,0.2-0.1,0.3s-0.1,0.2-0.1,0.3l-0.1,0.1l-0.1,0.1c-0.1,0.3-0.2,0.6-0.3,0.9
	c-0.1,0.3-0.3,0.6-0.4,0.9c-0.1,0.2-0.2,0.4-0.3,0.6c-0.1,0.2-0.2,0.4-0.4,0.6c0,0,0,0.1-0.1,0.1C116.1,17.1,116.1,17.1,116,17.3
	C116.1,17.2,116,17.3,116,17.3 M118.9,2.6c-0.1,0.1-0.1,0.1-0.2,0.1c-0.1,0-0.2,0-0.3,0c0,0,0,0-0.1,0s0,0-0.1,0l0,0l0,0
	c-0.2,0.2-0.4,0.3-0.6,0.6s-0.3,0.4-0.4,0.6c-0.1,0.1-0.1,0.2-0.2,0.3c-0.1,0.1-0.1,0.2-0.2,0.4c0,0,0,0,0,0.1s0,0,0,0.1l-0.1,0.1
	c0,0-0.1,0-0.1,0.1c0,0,0,0.1-0.1,0.1c-0.1,0.2-0.2,0.3-0.2,0.5s-0.1,0.3-0.2,0.5c-0.2,0.5-0.3,0.9-0.4,1.4s-0.2,1-0.4,1.5
	c-0.1,0.2-0.1,0.5-0.2,0.7c-0.1,0.2-0.1,0.5-0.2,0.7l0,0c0,0,0,0.1,0,0.2c-0.1,0.5-0.2,0.9-0.3,1.4s-0.2,0.9-0.3,1.4
	c0,0.1-0.1,0.2-0.1,0.4c0,0.1-0.1,0.2-0.1,0.4c-0.1,0.2-0.1,0.5-0.2,0.7c0,0.2-0.1,0.5-0.1,0.8c0,0.1-0.1,0.2-0.1,0.4
	c0,0.1,0,0.3-0.1,0.4v0.1l0,0l0,0c0,0.3-0.1,0.6-0.1,0.9c-0.1,0.3-0.1,0.6-0.1,0.9c0,0.1,0,0.2-0.1,0.4c-0.1,0.2-0.2,0.4-0.2,0.7
	c-0.1,0.5-0.3,0.9-0.4,1.4s-0.2,1-0.2,1.6v0.4c0,0.2,0,0.3,0,0.3c0,0.1,0,0.1,0,0.2s0,0.1,0,0.2v0.1v0.1c0,0.1,0.1,0.2,0.1,0.3
	s0,0.2,0.1,0.3c0.1,0.1,0.1,0.1,0.1,0.1l0,0l0,0l0,0l0,0c0,0,0,0,0.1,0l0.1,0.1c0,0,0.1,0,0.1,0.1h0.1c0-0.1,0-0.2,0.1-0.2
	c0-0.2,0.1-0.3,0.2-0.4l0.1,0.1c0-0.1,0-0.2,0-0.2c0-0.1,0-0.1,0.1-0.2l0,0l0,0l0,0c0,0,0.1,0,0.1,0.1c0-0.1,0-0.2,0.1-0.3
	c0,0,0-0.1,0-0.2s0-0.1,0-0.2l0.1-0.1c0-0.1,0-0.1,0-0.2s0-0.1,0-0.1l0.1-0.1c0,0,0-0.1,0-0.2s0.1-0.2,0.1-0.3c0-0.1,0-0.2,0.1-0.3
	h0.1l0.1-0.1c0,0,0.1-0.1,0.1-0.2s0-0.1,0-0.2c0.1-0.3,0.2-0.6,0.3-0.9s0.3-0.6,0.4-0.8l0,0l0,0c0,0,0,0,0-0.1l0,0
	c0,0,0-0.1,0.1-0.1c0,0,0.1,0,0-0.1c0.1,0,0.1-0.1,0.1-0.1c0-0.1,0.1-0.1,0.1-0.1l0,0c0.2-0.2,0.4-0.4,0.6-0.6s0.4-0.4,0.6-0.5
	c0.2-0.2,0.4-0.3,0.5-0.5c0.2-0.2,0.3-0.3,0.5-0.5c0,0,0.1-0.1,0.1-0.2l0.1-0.1l0.1-0.1c0.2-0.2,0.3-0.3,0.5-0.4
	c0.2-0.1,0.4-0.3,0.5-0.4c0.1-0.1,0.2-0.1,0.3-0.2c0,0,0.1,0,0.1-0.1l0,0l0,0c0.2-0.2,0.4-0.4,0.6-0.5c-0.1,0.3-0.3,0.5-0.4,0.7
	l-0.1,0.1V16v0.1c0,0.1-0.1,0.2-0.1,0.3s-0.1,0.2-0.1,0.3c-0.1,0.2-0.1,0.3-0.2,0.4c-0.2,0.3-0.3,0.7-0.4,1.1
	c-0.1,0.4-0.2,0.8-0.3,1.2c0,0.2-0.1,0.3-0.1,0.5s-0.1,0.3-0.1,0.5s-0.1,0.3-0.1,0.5s0,0.3,0,0.5c0,0.3,0,0.7,0.1,0.9
	c0.1,0.3,0.1,0.6,0.2,0.9c0,0,0,0.1,0.1,0.1v0.1c0,0.1,0,0.2,0,0.3c0.1,0.6,0.3,1.1,0.6,1.5c0.1,0,0.2,0,0.2-0.1
	c0.1,0.1,0.1,0.1,0.3,0.1l0.1,0.1c0.1,0.1,0.2,0.2,0.4,0.2h0.1h0.1l0,0c0,0,0,0,0-0.1h0.1c0.4-0.1,0.8-0.3,1.2-0.5l0.5-0.4
	c0.1-0.1,0.2-0.2,0.2-0.2c0.1-0.1,0.1-0.1,0.2-0.2c0,0,0,0,0.1,0c0,0,0,0,0-0.1c0,0,0-0.1,0.1-0.1c0,0,0,0,0.1,0l0,0l0,0l0,0
	l0.1-0.1c0,0,0.1,0,0.1-0.1h0.1l0,0c0,0,0-0.1,0.1-0.1c0,0,0.1,0,0.1-0.1s0.1-0.1,0.1-0.1s0,0,0.1-0.1s0.1-0.1,0.2-0.2
	c0-0.1,0.1-0.2,0.1-0.2c0.1-0.1,0.1-0.1,0.2-0.2c0.1-0.2,0.3-0.3,0.5-0.5c0.2-0.1,0.3-0.3,0.5-0.5c0-0.1,0-0.1,0.1-0.2
	s0.1-0.1,0.1-0.1c0.1-0.1,0.2-0.2,0.3-0.3c0.1-0.1,0.2-0.2,0.2-0.3c0.1-0.1,0.1-0.2,0.1-0.2l0.1-0.1c0,0,0-0.1,0.1-0.1
	c0-0.1,0.1-0.1,0.1-0.2s0.1-0.1,0.1-0.1l0.1-0.1c0,0,0-0.1,0-0.2v-0.1v-0.1h0.1c0-0.1,0-0.2,0.1-0.3l0,0c0,0,0,0-0.1,0
	c0,0,0,0-0.1,0v-0.1c0,0,0,0,0.1-0.1c-0.1,0-0.2,0.1-0.3,0.2s-0.2,0.1-0.4,0.1c0-0.1,0.1-0.1,0.1-0.1l0.1-0.1c0,0,0,0-0.1,0
	s-0.1,0-0.1,0s0,0-0.1,0c0,0,0,0.1-0.1,0.1c-0.2,0.2-0.4,0.3-0.5,0.5c-0.2,0.2-0.4,0.3-0.5,0.5c-0.2,0.2-0.4,0.4-0.6,0.5
	c-0.2,0.2-0.4,0.3-0.6,0.5c-0.3,0.2-0.5,0.4-0.8,0.6c-0.2,0.2-0.5,0.4-0.9,0.6c0,0-0.1,0.1-0.2,0.1c-0.1,0-0.1,0.1-0.2,0.1L121,23
	l-0.1,0.1c-0.1,0-0.1,0.1-0.2,0.1c-0.1,0-0.1,0-0.1-0.1s0-0.1,0-0.2c0-0.2-0.1-0.3,0-0.5c0-0.2,0-0.3,0.1-0.5l0.1-0.6
	c0-0.1,0-0.2,0.1-0.3s0.1-0.2,0.1-0.3c0-0.1,0-0.2,0.1-0.2c0-0.1,0.1-0.1,0.1-0.2c0,0,0-0.1,0-0.2V20v-0.1l0.1-0.1c0,0,0,0,0-0.1
	v-0.1c0-0.1,0.1-0.3,0.1-0.4s0.1-0.3,0.1-0.4v-0.1v-0.1v-0.2c0-0.1,0.1-0.2,0.1-0.3c0.1-0.1,0.1-0.2,0.1-0.3c0-0.1,0-0.1,0-0.2
	s0-0.1,0-0.2c0-0.2,0.1-0.3,0.1-0.3c0-0.1,0-0.1,0-0.2s0-0.1,0.1-0.2v-0.1v-0.1c0,0,0,0,0-0.1c0.1-0.2,0.1-0.4,0.2-0.5
	c0.1-0.2,0.1-0.3,0.2-0.5c0-0.1,0.1-0.2,0.1-0.3s0-0.2,0-0.4c0-0.1,0-0.1,0-0.2c0-0.1,0-0.1,0-0.2v-0.1v-0.1V14c0,0,0,0,0-0.1
	s0-0.1,0.1-0.2c0,0,0.1-0.1,0.1-0.2c0-0.1,0-0.1-0.1-0.2c0-0.1-0.1-0.2-0.1-0.3s-0.1-0.2-0.1-0.3l0,0v0.1v-0.1c0,0,0-0.1-0.1-0.1
	h-0.1v0.1l-0.1-0.1l-0.1-0.1l-0.1-0.1c-0.1,0-0.1,0-0.1-0.1h-0.1l0,0l0,0l0,0c-0.4,0-0.7,0.1-0.9,0.2c-0.1,0-0.2,0.1-0.2,0.1
	c-0.1,0-0.1,0.1-0.2,0.1s-0.1,0.1-0.2,0.2C120,13,120,13,119.9,13c0-0.1,0-0.1-0.1-0.1s-0.1,0-0.1,0.1c-0.3,0.2-0.5,0.5-0.8,0.7
	s-0.5,0.5-0.8,0.8c-0.1,0.1-0.2,0.3-0.4,0.4s-0.3,0.3-0.4,0.4l-0.8,0.8c0.1-0.2,0.2-0.4,0.2-0.6s0.2-0.4,0.2-0.6
	c0-0.1,0.1-0.2,0.1-0.3s0.1-0.2,0.1-0.3s0.1-0.1,0.1-0.3c0-0.1,0.1-0.2,0.1-0.3c0,0,0.1-0.1,0.1-0.2c0-0.1,0.1-0.2,0.1-0.3
	s0-0.2,0.1-0.3c0,0,0-0.1,0.1-0.2v-0.1c0,0,0,0,0-0.1c0.1-0.2,0.1-0.4,0.2-0.6c0-0.2,0.1-0.4,0.2-0.5c0-0.1,0.1-0.2,0.1-0.3
	s0.1-0.2,0.1-0.3c0,0,0,0,0-0.1l0,0v-0.1c0,0,0,0,0-0.1v-0.1v-0.1c0-0.1,0.1-0.2,0.1-0.2l0,0c0,0,0,0,0-0.1l0,0l0,0l0,0
	c0,0,0,0,0-0.1c0,0,0-0.1,0-0.2c0-0.1,0-0.1,0.1-0.2c0-0.1,0.1-0.1,0.1-0.2c0-0.1,0-0.2,0-0.3s0-0.2,0-0.2c0-0.1,0-0.1,0.1-0.2V8.5
	V8.4c0-0.1,0-0.2,0.1-0.2c0-0.1,0-0.2,0.1-0.3c0-0.1,0.1-0.3,0.1-0.4c0-0.1,0-0.3,0.1-0.5V6.9l0,0l0,0c0,0,0,0,0-0.1c0,0,0,0,0-0.1
	V6.4c0,0,0,0,0-0.1s0,0,0-0.1s0.1-0.2,0.1-0.2c0-0.1,0-0.2,0-0.3s0.1-0.2,0.1-0.3s0-0.2,0-0.3c0-0.2,0-0.4,0-0.6c0-0.2,0-0.4,0-0.6
	c0-0.1,0-0.1,0-0.2s0-0.1,0-0.1s0-0.1-0.1-0.2c0,0,0-0.1,0-0.2c0-0.1,0-0.1,0-0.1V3c0,0,0,0,0-0.1c-0.1-0.1-0.1-0.2-0.2-0.3
	C119,2.6,119,2.5,118.9,2.6c0-0.1,0-0.1-0.1-0.2c0,0,0-0.1-0.1-0.2c0-0.1-0.1-0.1-0.1-0.2s-0.1-0.1-0.2-0.2
	c-0.1-0.1-0.1-0.1-0.2-0.2c-0.1-0.1-0.1-0.1-0.2-0.1h-0.1h-0.1h-0.2C119.1,2.4,119,2.5,118.9,2.6 M102.5,25.5c0,0-0.1,0-0.1-0.1
	C102.5,25.4,102.5,25.4,102.5,25.5 M107.7,20.4c0,0.5-0.1,1-0.2,1.4s-0.3,0.8-0.4,1.2c-0.1,0.2-0.1,0.2-0.1,0.3l0,0l-0.1,0.2
	c-0.1,0.1-0.1,0.1-0.1,0.2s-0.1,0.1-0.1,0.1c0,0.1-0.1,0.1,0,0.2c-0.2,0.2-0.4,0.4-0.7,0.6s-0.5,0.4-0.8,0.5c-0.1,0-0.2,0.1-0.3,0.1
	s-0.2,0-0.3,0h-0.1c0,0-0.1-0.1-0.2-0.1l0,0c0,0,0,0,0-0.1c0,0-0.1,0.1-0.1,0l0,0c0,0,0,0.1,0.1,0.1c0,0,0,0,0,0.1h-0.1
	c0,0-0.1,0-0.1-0.1v0.1c0,0-0.1-0.1-0.2-0.1c-0.1,0-0.1,0-0.2-0.1c0.1-0.2,0.1-0.3,0.1-0.5s0-0.3,0-0.4V24c0,0,0,0,0-0.1l0,0V24
	c0-0.1,0-0.2,0-0.3c0-0.1,0-0.2,0-0.2v0.1v0.1c0,0,0.1,0,0.1-0.2c0.1-0.1,0.1-0.2,0.2-0.3c0.1-0.1,0.1-0.2,0.2-0.3
	c0.1-0.1,0.1-0.2,0.2-0.2s0.1-0.1,0.2-0.2c0,0,0,0,0.1,0s0.1-0.1,0.1-0.1c0.1-0.1,0.2-0.2,0.4-0.3c0.1-0.1,0.3-0.3,0.5-0.4
	c0.1-0.1,0.2-0.1,0.3-0.2s0.2-0.2,0.3-0.2c0,0,0,0,0.1,0c0.2-0.1,0.3-0.2,0.4-0.2c0.1-0.1,0.2-0.2,0.4-0.2v-0.1
	c0.1,0,0.2-0.1,0.3-0.2s0.2-0.1,0.3-0.2c0,0,0,0.1,0,0.2C107.8,20.3,107.7,20.3,107.7,20.4L107.7,20.4z M114.6,15.2
	C114.7,15.2,114.7,15.2,114.6,15.2c-0.1,0.2-0.4,0.4-0.8,0.7c-0.4,0.3-0.9,0.6-1.4,0.8c-0.5,0.3-1,0.5-1.4,0.7
	c-0.5,0.2-0.8,0.3-1.1,0.3c-0.1-0.2-0.1-0.3-0.2-0.5c0-0.2-0.1-0.3-0.1-0.5c-0.1-0.4-0.3-0.9-0.4-1.4c-0.1-0.5-0.3-1-0.4-1.4
	c0,0-0.1-0.1-0.1-0.2v-0.2c0-0.1-0.1-0.2,0-0.2c0-0.1,0-0.2,0-0.3s0-0.2,0-0.3s0-0.2,0-0.4c-0.1-0.2-0.1-0.4-0.1-0.5
	c-0.1-0.1-0.2-0.2-0.2-0.3s0-0.3,0-0.5c-0.1-0.2-0.3-0.2-0.5-0.1c0,0-0.1,0-0.1-0.1s-0.1-0.1-0.1-0.1c0,0.1,0,0.1,0,0h-0.1
	c-0.1,0-0.1-0.1-0.2-0.1s-0.1,0-0.2,0c-0.1,0-0.2,0.1-0.2,0.2s-0.1,0.1-0.2,0.2c-0.1,0.2-0.2,0.4-0.3,0.5c0,0.1,0,0.2-0.1,0.3
	c0,0.1-0.1,0.1-0.1,0.2c-0.1,0.2,0,0.4,0.1,0.6c0.1,0.2,0.2,0.5,0.4,0.7c0.1,0.2,0.2,0.5,0.3,0.7s0.1,0.4-0.1,0.4
	c0,0.1-0.1,0.2-0.2,0.3c-0.1,0.1-0.2,0.3-0.3,0.4c-0.1,0.1-0.2,0.2-0.3,0.3s-0.2,0.2-0.2,0.2c-0.1,0.2-0.2,0.3-0.3,0.4
	c-0.1,0.1-0.1,0.2-0.2,0.3c-0.1,0.1-0.1,0.2-0.2,0.3c-0.1,0.1-0.2,0.3-0.4,0.4c-0.1,0.2-0.2,0.3-0.2,0.3c0,0.1-0.1,0.2-0.3,0.4
	c0,0,0,0.1-0.1,0.1c-0.1,0.1-0.2,0.2-0.3,0.3c-0.1,0.1-0.2,0.2-0.3,0.3c-0.1,0.1-0.1,0.1-0.1,0.2c-0.1,0.1-0.2,0.2-0.3,0.2
	c-0.1,0.1-0.1,0.2-0.2,0.3c-0.1,0.2-0.3,0.4-0.6,0.6s-0.4,0.3-0.5,0.5c0,0,0.1,0,0.2,0c0.1,0,0.2,0,0.3,0l0,0c0-0.1,0.1-0.1,0.1-0.1
	l0.1,0.1c0.1,0,0,0,0,0.1c0,0,0,0.1-0.1,0.1c0,0-0.1,0,0,0v0.1c0,0,0,0,0,0.1c0,0,0.1-0.1,0.2-0.1c0.1-0.1,0.1-0.1,0.1-0.1
	s0.1,0,0,0l0,0c0,0,0,0-0.1,0s-0.1,0,0,0c0,0,0,0,0.1,0.1c0.1-0.1,0.2-0.2,0.2-0.3c0.1-0.1,0.1-0.1,0.2-0.2c0.1,0,0.1-0.1,0.1-0.1
	c0.1,0,0.3-0.1,0.4-0.2c0.2-0.1,0.2-0.2,0.2-0.3c0,0,0,0,0.1-0.1s0.2-0.2,0.3-0.2c0.1-0.1,0.2-0.2,0.4-0.3c0.2-0.2,0.3-0.3,0.3-0.4
	c0.1-0.1,0.2-0.2,0.3-0.3c0,0,0.1-0.1,0.2-0.2c0.1-0.1,0.2-0.2,0.3-0.3c0.1-0.1,0.2-0.2,0.2-0.3c0.1-0.1,0.1-0.2,0.1-0.2
	c0.1,0,0.1-0.1,0.3-0.3c0.1-0.2,0.2-0.3,0.3-0.4c0-0.1,0-0.1,0.1,0c0,0.1,0,0.2,0.1,0.3c0,0.1,0,0.2,0,0.4s0,0.2,0,0.3h0.1
	c0,0.2,0,0.3,0.1,0.5c0,0.1,0.1,0.3,0.1,0.4s0.1,0.2,0.1,0.4s0.1,0.3,0.1,0.5c-0.8,0.5-1.7,1-2.4,1.5c-0.8,0.5-1.5,1.2-2.1,1.9v0.1
	c-0.1,0-0.2,0.1-0.3,0.3c-0.1,0.2-0.2,0.3-0.2,0.6s-0.1,0.4-0.2,0.6c0,0.2-0.1,0.4-0.1,0.6c0,0-0.1,0.1-0.1,0.2s0,0.1,0.1,0.1l0,0
	l0,0c0,0,0,0.1,0,0.2s0,0.1,0.1,0.2c0,0.1,0,0.1-0.1,0.1c0,0,0,0,0,0.1c0,0,0,0.1,0.1,0.1c0,0,0,0,0,0.1c0.1,0.1,0.1,0.2,0.2,0.3
	c0.1,0,0.1,0.1,0.2,0.1c0,0,0.1,0.1,0.2,0.1c0.1,0.3,0.4,0.5,0.7,0.7c0.1,0,0.2,0.1,0.3,0.1s0.2,0,0.3,0.1v0.2h-0.1
	c0.1,0,0.1,0,0.1,0.1s0,0.1,0.1,0.2c0.2,0,0.3,0,0.5-0.1s0.3-0.1,0.5-0.1c0,0,0.1,0,0.1,0.1c0,0,0,0.1,0.1,0.1h0.1l0.1-0.1
	c0,0.1,0,0.2,0.1,0.2c0.1-0.1,0.3-0.1,0.4-0.2h0.1v0.1c0,0,0.1-0.1,0.2-0.1c0.1-0.1,0.2-0.2,0.3-0.2c0-0.1,0.1-0.1,0.1-0.2l0.1-0.1
	h0.1c0,0,0,0,0.1,0c0-0.1,0.1-0.2,0.1-0.2c0.1,0,0.1,0,0.2,0c0-0.1,0.1-0.2,0.1-0.2s0.1-0.1,0.1-0.2l0,0l0,0l0.1-0.1
	c0-0.1,0.1-0.1,0.2-0.2c0,0,0-0.1,0.1-0.1h0.1c0-0.1,0.1-0.1,0.1-0.2s0.1-0.1,0.1,0s0,0.1,0,0.1l0,0c0,0,0-0.1,0-0.2
	c0.1,0,0.2-0.1,0.2-0.2c0.1-0.1,0.1-0.2,0.2-0.2c0,0.1,0.1,0.1,0.1,0s0.1-0.2,0.1-0.2l0,0v0.1c0-0.1,0.1-0.2,0.1-0.3
	c0-0.1,0.1-0.2,0.1-0.2s0-0.1,0-0.2c0.1,0,0.1,0,0.1-0.1s0.1-0.1,0.1-0.2l0,0c0,0,0,0,0,0.1c0.1,0,0.1-0.1,0.2-0.3s0.1-0.3,0.1-0.4
	s0.1-0.3,0.1-0.4s0-0.2,0-0.2c0.2-0.5,0.2-1.1,0.2-1.7s0-1.2-0.1-1.7c0.3-0.1,0.7-0.2,1.2-0.4c0.5-0.2,1-0.5,1.5-0.8
	s0.9-0.6,1.3-0.8c0.4-0.3,0.5-0.4,0.5-0.5s0.1-0.1,0.2-0.1c0,0,0,0,0.1,0c0,0,0.1,0,0.1-0.1c-0.1,0-0.1,0-0.1,0s0,0,0.1,0h0.1l0,0
	c-0.2,0-0.2,0.1-0.3,0.1l0,0l0,0c0,0-0.1,0-0.3,0.1c0,0-0.1,0-0.1-0.1c0.1,0,0.2-0.1,0.3-0.2s0.2-0.1,0.4-0.1
	c0.1-0.1,0.2-0.1,0.2-0.1H115c0,0-0.1,0-0.1,0.1c0,0,0,0,0.1,0s0.1,0,0.1,0l0,0l0,0c0,0,0,0,0.1-0.1c-0.1,0-0.1,0-0.2,0
	c-0.1,0-0.1,0-0.2,0c0-0.1,0.1-0.1,0.2-0.1c0.1,0,0.2,0,0.3-0.1c0-0.1,0-0.1,0-0.1l0.1-0.1c0,0,0-0.1-0.1-0.1c0.1,0,0.1,0,0.2,0
	c0-0.1,0-0.1,0-0.1h0.3c-0.1,0-0.3,0-0.4,0.1c-0.1,0-0.3,0-0.4,0c0,0,0-0.1-0.1,0c-0.1,0-0.1,0-0.1,0c0.1,0,0.1,0,0.1-0.1
	C114.8,15.2,114.7,15.3,114.6,15.2c0,0.1-0.1,0.1-0.2,0.1C114.5,15.3,114.5,15.2,114.6,15.2 M104.7,19.9L104.7,19.9L104.7,19.9
	L104.7,19.9 M103.2,20.2C103.3,20.2,103.3,20.2,103.2,20.2C103.3,20.2,103.3,20.2,103.2,20.2C103.3,20.2,103.3,20.2,103.2,20.2
	L103.2,20.2 M103.1,20.4c0,0,0.1-0.1,0.1-0.2C103.2,20.3,103.1,20.4,103.1,20.4 M93.6,22c0-0.1,0-0.2,0-0.2c0-0.2,0.1-0.4,0.2-0.6
	c0.1-0.2,0.1-0.4,0.2-0.6c0-0.1,0.1-0.3,0.1-0.3c0-0.1,0.1-0.2,0.1-0.3c0-0.1,0.1-0.2,0.1-0.2c0-0.1,0.1-0.2,0.1-0.2
	c0.1-0.2,0.1-0.3,0.2-0.5c0-0.1,0.1-0.3,0.1-0.4c0.1-0.1,0.1-0.2,0.2-0.3s0.1-0.2,0.2-0.3c0-0.1,0.1-0.2,0.1-0.2s0.1-0.1,0.1-0.2
	s0.1-0.2,0.2-0.3s0.1-0.2,0.1-0.4l0,0c0,0,0,0,0-0.1s0.1-0.1,0.1-0.1v-0.1v-0.1c0,0,0-0.1,0.1-0.1v-0.1c0.1-0.1,0.1-0.2,0.2-0.3
	c0-0.1,0.1-0.3,0.2-0.4l0,0l0,0c0-0.1,0-0.2,0.1-0.2c0.1-0.1,0.1-0.1,0.1-0.1h0.1l0,0l0,0c0-0.1,0.1-0.2,0.1-0.3s0.1-0.2,0.2-0.3
	l0,0l0,0c0.1-0.1,0.2-0.2,0.2-0.3s0.1-0.2,0.1-0.3c0.3,0,0.4,0.1,0.5,0.2c0.2,0.2,0.4,0.5,0.6,0.9c0.2,0.3,0.4,0.6,0.6,0.9
	c0,0.1,0,0.1,0.1,0.1s0.1,0,0.1,0.1l0,0c-0.7,0.8-1.3,1.6-1.9,2.4c-0.6,0.8-1.3,1.6-1.9,2.4c-0.3,0.3-0.5,0.6-0.8,0.9
	c-0.2,0.3-0.5,0.6-0.8,0.9C93.5,22.1,93.6,22,93.6,22 M93.6,33.1c-0.1,0-0.2-0.1-0.2-0.1s0,0,0,0.1l0,0c-0.1,0-0.2-0.1-0.3-0.1
	s-0.2-0.1-0.2-0.1c-0.1-0.1-0.2-0.2-0.3-0.4s-0.2-0.4-0.1-0.5c0-0.1,0-0.1,0.1-0.2s0.1-0.1,0.1-0.1c0-0.2,0.1-0.4,0.1-0.5
	c0.1-0.2,0.1-0.3,0.2-0.5c0-0.1,0.1-0.2,0.1-0.2c0-0.1,0.1-0.1,0.1-0.2c0.1-0.3,0.3-0.5,0.4-0.7s0.3-0.4,0.5-0.6
	c0.4-0.6,0.8-1.1,1.3-1.6s1-1,1.5-1.5c0,0.3-0.1,0.6-0.1,0.9s-0.1,0.6-0.2,0.8c0,0.3-0.1,0.6-0.1,0.9s-0.1,0.6-0.1,0.9
	c-0.1,0.6-0.2,1.2-0.2,1.7s-0.1,1.2-0.2,1.7c-0.1,0-0.1,0.1-0.1,0.1c-0.3,0-0.7,0.1-1,0.1H94C93.8,33.1,93.7,33.1,93.6,33.1
	 M96.3,34.2L96.3,34.2c0.1,0,0.1,0,0.2-0.1C96.4,34.2,96.4,34.2,96.3,34.2 M96.5,34.2h0.1l0,0C96.6,34.2,96.6,34.2,96.5,34.2
	L96.5,34.2 M95.9,34.2c0.1,0,0.1,0.1,0.2,0.1c-0.1,0-0.2,0-0.3-0.1C95.7,34.2,95.8,34.2,95.9,34.2 M95.7,34.3h-0.1
	c0.2,0,0.3,0.1,0.5,0.1s0.3,0,0.4,0.1c0.1,0,0.3-0.1,0.4-0.1c0.1,0,0.2-0.1,0.3-0.2c0.1,0,0.1,0,0.1,0l0,0c0.1,0,0.1,0,0.2,0
	s0.1,0,0.2,0c0,0,0,0,0.1,0c0,0-0.1,0,0,0c0,0,0,0,0-0.1c0,0,0-0.1,0.1-0.1c0,0,0.1,0,0.1-0.1c-0.1,0-0.1-0.1,0-0.2l0.1,0.1h0.1
	l-0.1-0.1v-0.1h0.1h0.1v-0.1v-0.1l0,0c0-0.2,0-0.3,0-0.4s0-0.3,0.1-0.6c0-0.2,0-0.3,0-0.5s0-0.3,0.1-0.5V31c0-0.1,0-0.1,0.1-0.1
	v-0.4c0-0.2,0-0.4,0-0.6s0.1-0.4,0.1-0.6v-0.1c0-0.2,0-0.4,0.1-0.6c0-0.2,0.1-0.4,0.1-0.6c0-0.1,0.1-0.2,0.1-0.3s0-0.2,0-0.3
	c0.1,0,0.1-0.1,0.1-0.2s0-0.1,0-0.2v-0.1c0-0.1,0-0.1,0-0.2v-0.2c0-0.2,0.1-0.4,0.1-0.6s0.1-0.3,0.1-0.5c0,0,0-0.1,0.1-0.3
	c0-0.1,0.1-0.3,0.1-0.4c0-0.2,0.1-0.3,0.1-0.4s0-0.1,0-0.1c0.1-0.1,0.1-0.2,0.1-0.2c0.2-0.1,0.4-0.3,0.7-0.5c0.1,0,0.1,0,0.2,0
	c0.1-0.1,0.1-0.1,0.2-0.1v0.1c0.1,0,0.1-0.1,0.2-0.2s0.1-0.1,0.2-0.2c0,0,0,0,0,0.1l0.1-0.1c0-0.1,0.1-0.1,0.2-0.1v-0.1
	c0.1-0.1,0.3-0.2,0.4-0.3c0.1-0.1,0.2-0.2,0.4-0.3v0.1c0.1-0.1,0.1-0.1,0.2-0.2s0.1-0.1,0.1-0.1s0.1,0,0.1-0.1c0,0,0.1-0.1,0.2-0.2
	l0,0l0,0h-0.1c0,0-0.1,0-0.1,0.1l0,0l0,0l0,0l0.1-0.1l0.1-0.1v0.1l0,0c0,0,0.1-0.1,0.1-0.2c0,0,0-0.1,0.1-0.2s0.1-0.1,0.2-0.2
	c0,0-0.1,0-0.1,0.1c0,0,0,0-0.1,0c0,0,0-0.1,0.1-0.1s0.1,0,0.1,0s0.1,0,0.2,0c0.1,0,0.2,0,0.2,0c0.1,0,0.1,0,0.1-0.1
	c0.1-0.1,0.3-0.2,0.4-0.3c-0.1,0-0.1,0.1-0.2,0.1s-0.1,0.1-0.2,0.1l0.1-0.1l0.1-0.1l0,0c0.1-0.1,0.2-0.2,0.4-0.3
	c0.2-0.1,0.3-0.2,0.4-0.3c-0.1,0-0.1,0.1-0.2,0.1c-0.1,0.1-0.1,0.1-0.2,0.1c0.1-0.1,0.2-0.2,0.3-0.2c0.1-0.1,0.2-0.1,0.3-0.2l0,0
	l0.1-0.1c0,0.1,0,0.1-0.1,0.1c0,0-0.1,0-0.1-0.1l0.1-0.1h0.1c-0.1,0-0.2,0.1-0.3,0.2s-0.2,0.2-0.4,0.2c0-0.1,0-0.1,0.1-0.2
	s0.2-0.1,0.3-0.2c0.1,0,0.2-0.1,0.2-0.2h0.1l0,0c0-0.1,0-0.1,0.1-0.1l0.1-0.1c0,0-0.1,0-0.1,0.1c0,0,0,0-0.1,0
	c0.1-0.1,0.2-0.2,0.3-0.2c0.1-0.1,0.2-0.1,0.3-0.2c0,0,0-0.1,0.1-0.1c0,0-0.1,0-0.2,0s-0.1,0.1-0.1,0c-0.1,0-0.1,0.1-0.2,0.1
	c-0.1,0-0.1,0-0.2,0c0,0-0.1,0-0.1,0.1c-0.1,0-0.1,0-0.1,0c-0.2,0.1-0.4,0.2-0.6,0.3c-0.2,0.1-0.3,0.2-0.6,0.3l0,0l0,0
	c0.1,0,0.2-0.1,0.3-0.2s0.2-0.1,0.3-0.2c0,0,0,0-0.1,0.1c-0.1,0-0.2,0-0.3,0.1s-0.2,0.1-0.3,0.2l0,0l0,0c0,0-0.1,0-0.1,0.1
	c0,0,0,0-0.1,0c-0.1,0.1-0.2,0.1-0.3,0.2s-0.2,0.1-0.3,0.1l0,0l0,0c-0.1,0.1-0.2,0.1-0.2,0.1h-0.1l0,0c0,0,0,0-0.1,0.1
	c-0.1,0-0.2,0.1-0.3,0.2s-0.2,0.2-0.3,0.2c-0.2,0.1-0.4,0.2-0.6,0.4c-0.2,0.2-0.4,0.3-0.7,0.4c0.1-0.2,0.1-0.4,0.2-0.6
	c0-0.2,0.1-0.4,0.1-0.6c0-0.1,0.1-0.1,0.1-0.2c0,0,0,0,0-0.1s0-0.1,0-0.1l0,0l0,0c0-0.2,0.1-0.3,0.1-0.5s0-0.4,0.1-0.5
	s0.1-0.2,0.1-0.2s0-0.2,0.1-0.3c0-0.1,0-0.2,0.1-0.3c0-0.1,0-0.2,0-0.3c0-0.2,0-0.3,0-0.4s0.1-0.2,0.1-0.3v-0.1c0,0,0,0,0-0.1
	c0-0.2,0.1-0.3,0.1-0.5s0.1-0.4,0.1-0.6c0-0.1,0-0.2,0.1-0.4c0-0.1,0-0.3,0-0.5l0,0l0,0c0-0.2,0-0.4,0.1-0.5c0-0.2,0-0.4,0-0.5
	s0-0.2,0-0.3s0-0.2,0-0.3s0-0.2,0-0.2s0-0.2,0-0.3c0,0,0.1-0.1,0.1-0.2c0-0.1,0-0.2,0-0.3s0-0.2,0-0.3s0.1-0.2,0.1-0.3s0-0.2,0-0.3
	v-0.1v-0.1c0-0.1,0-0.2,0-0.3s0-0.2,0-0.3c0-0.2-0.1-0.4-0.2-0.5h-0.1l-0.1-0.1c-0.1,0-0.2,0-0.2,0s-0.1,0.1-0.2,0.1h-0.5
	c-0.1,0-0.2,0.1-0.2,0.2c0,0.1-0.1,0.2-0.2,0.2c0,0.1-0.1,0.2-0.1,0.3s-0.1,0.2-0.1,0.3c0,0.2-0.1,0.3-0.1,0.5S100,12,100,12.2
	c0,0,0,0,0,0.1s0,0.2,0,0.3s0,0.2-0.1,0.3S99.8,13,99.8,13c-0.1,0-0.1,0.1-0.2,0.4c-0.1,0.2-0.1,0.3-0.2,0.3
	c-0.1-0.1-0.1-0.2-0.2-0.3c-0.1-0.1-0.1-0.2-0.2-0.3c-0.1-0.1-0.2-0.2-0.4-0.3c-0.1-0.1-0.2-0.2-0.3-0.3c-0.1,0-0.3-0.1-0.4-0.1
	s-0.2-0.1-0.4-0.1c-0.1,0-0.2,0-0.3,0s-0.2,0-0.3,0s-0.3,0.1-0.5,0.2c-0.1,0.1-0.2,0.1-0.3,0.1L96,12.7c-0.1,0-0.1,0.1-0.2,0.1
	c-0.1,0-0.1,0.1-0.2,0.2c-0.1,0.1-0.1,0.1-0.2,0.1c0,0.1,0,0.1-0.1,0.1v0.1c-1.2,1.3-2.2,2.7-2.8,4.3c0,0,0,0.1-0.1,0.1s0,0.1,0,0.1
	c-0.1,0.2-0.2,0.4-0.3,0.6s-0.2,0.4-0.2,0.6c-0.1,0.1-0.2,0.2-0.2,0.3s-0.1,0.2-0.1,0.3c-0.1,0.3-0.2,0.6-0.3,1s-0.1,0.7-0.2,1
	c0,0.1,0,0.3-0.1,0.5c0,0.2,0,0.3,0,0.5s0.1,0.4,0.2,0.5c0.1,0.2,0.1,0.3,0.2,0.4c0,0,0.1,0.1,0.2,0.3h0.1c0.2,0.5,0.6,0.6,1.1,0.5
	c0.2,0,0.4-0.1,0.6-0.2h0.1c0.1,0,0.1,0,0.2,0c0.2-0.1,0.3-0.2,0.5-0.3c0.1-0.1,0.3-0.2,0.5-0.3l0.1-0.1l0.1-0.1
	c0.1-0.1,0.2-0.2,0.3-0.2c0.1-0.1,0.2-0.2,0.3-0.2c0.1-0.1,0.2-0.2,0.3-0.3c0.1-0.1,0.2-0.2,0.3-0.3c0-0.1,0.1-0.1,0.2-0.2
	c0.1,0,0.1-0.1,0.1-0.1s0-0.1,0.1-0.1c0-0.1,0.1-0.1,0.1-0.1v-0.1c0.1-0.1,0.2-0.2,0.3-0.3c0.1-0.1,0.2-0.2,0.3-0.3
	c0,0,0.1-0.1,0.2-0.3c0.1,0,0.2-0.1,0.2-0.2s0.1-0.2,0.1-0.2c0,0.1,0,0.2-0.1,0.3c0,0-0.1,0.1-0.1,0.3c-0.1,0.3-0.1,0.5-0.2,0.7
	c0,0.2-0.1,0.4-0.1,0.5c0,0.2-0.1,0.3-0.1,0.5s-0.1,0.4-0.2,0.6c-0.1,0.1-0.3,0.3-0.4,0.4c-0.1,0.1-0.2,0.2-0.3,0.3
	c-0.1,0-0.1,0-0.1,0L96,24.1l0,0c0,0,0,0,0,0.1c-0.1,0.1-0.2,0.2-0.3,0.2c0,0.1-0.1,0.1-0.1,0.2s-0.1,0.1-0.1,0.1l-0.1,0.1l-0.1,0.1
	c-0.2,0.2-0.5,0.4-0.7,0.7c-0.2,0.2-0.5,0.5-0.7,0.7h-0.1c-0.1,0-0.1,0.1-0.1,0.1s0,0.1-0.1,0.1s0,0,0,0h0.1l-0.1,0.1h-0.1
	c0,0,0.1,0,0.1,0.1c-0.1,0-0.1,0.1-0.2,0.1c-0.1,0.1-0.1,0.1-0.1,0.2c-0.1,0.1-0.2,0.2-0.3,0.3s-0.1,0.2-0.2,0.3h-0.1
	c-0.1,0.2-0.2,0.3-0.3,0.4s-0.2,0.3-0.3,0.4L92,28.5c-0.1,0.2-0.2,0.3-0.3,0.4s-0.2,0.3-0.3,0.4c-0.2,0.4-0.3,0.9-0.6,1.3
	c-0.2,0.5-0.2,1-0.1,1.7c0.1,0.1,0.2,0.2,0.2,0.4c0,0-0.1,0-0.1-0.1s0-0.1,0-0.1c0.1,0.2,0.1,0.4,0.3,0.5s0.2,0.3,0.4,0.4
	c0.4,0.2,0.8,0.4,1.2,0.5s0.9,0.2,1.4,0.3c0,0,0.1,0.1,0.2,0c0.1,0,0.2,0,0.3,0c0.2,0.1,0.3,0.1,0.4,0.1c0.1,0,0.1,0,0.1,0
	s0,0,0.1,0C95.5,34.2,95.5,34.2,95.7,34.3C95.7,34.2,95.8,34.3,95.7,34.3C95.8,34.3,95.7,34.3,95.7,34.3 M83.7,11.6
	c-0.1,0-0.1,0-0.1,0s-0.1,0-0.1,0.1c0,0-0.1,0.1-0.3,0.1c0,0.1-0.1,0.2-0.1,0.3S83,12.3,83,12.4c0,0,0,0.1-0.1,0.1
	c0,0,0,0.1-0.1,0.1c0,0-0.1,0.1-0.1,0.2c0,0.1,0,0.1,0,0.1c0,0.1-0.1,0.2-0.1,0.3s0,0.2-0.1,0.4c0,0.1,0,0.2-0.1,0.3
	c0,0.1,0,0.2-0.1,0.3c-0.2,0.6-0.3,1.3-0.5,1.9s-0.3,1.3-0.4,1.9c0,0.2-0.1,0.3-0.1,0.4c0,0.2,0,0.4-0.1,0.5c0,0.2-0.1,0.3-0.1,0.5
	S81,19.8,81,20.1c0,0.2-0.1,0.4-0.1,0.7c0,0.2-0.1,0.4-0.1,0.7c0,0.2-0.1,0.5-0.1,0.7v0.3c0,0.2,0,0.4,0.1,0.6
	c0.1,0,0.1,0.1,0.1,0.2s0.1,0.2,0.2,0.2c0,0,0,0,0-0.1c0,0,0,0,0-0.1l0,0l0,0l0,0l0,0l0.2,0.1c0,0,0.1-0.1,0.1,0h0.1l0,0
	c0.1,0,0.1-0.1,0.1-0.1c0-0.1,0.1-0.1,0.2-0.1l0,0l0,0h0.1c0,0,0,0,0.1,0c0-0.1,0-0.1,0-0.2s0-0.2,0-0.2c0-0.1,0.1-0.1,0.1-0.1l0,0
	c0-0.1,0-0.1,0.1-0.1v0.1v0.1l0.1-0.2l0,0l0,0c0,0,0,0,0.1-0.1v-0.1l0,0l0,0c0,0,0,0,0-0.1s0-0.1,0-0.1s0.1,0,0,0.1v0.1
	c0,0,0,0,0.1-0.1v-0.2l0.1-0.1v-0.2h0.1h0.1c0.1-0.3,0.2-0.5,0.4-0.8l0.1-0.1v-0.2l0.1-0.1c0,0,0-0.1,0.1-0.1c0-0.1,0-0.2,0-0.3
	c0.1-0.1,0.2-0.2,0.3-0.4c0.1-0.1,0.2-0.3,0.2-0.4c0,0,0,0,0-0.1c0,0,0,0,0-0.1l0,0l0.3-0.4c0.1-0.1,0.1-0.3,0.2-0.5l0,0l0.1-0.1
	c0.1-0.3,0.3-0.5,0.5-0.7s0.4-0.4,0.5-0.7l0,0c0,0,0.1-0.1,0.1-0.2c0-0.1,0.1-0.1,0.1-0.1c0.1-0.1,0.2-0.3,0.3-0.4s0.2-0.3,0.3-0.4
	c0.1-0.1,0.2-0.2,0.3-0.4c0.1-0.1,0.2-0.2,0.3-0.4c0.1-0.1,0.3-0.2,0.4-0.3c0.1,0,0.2-0.1,0.2-0.2s0.1-0.1,0.2-0.2
	c0.1-0.1,0.2-0.2,0.3-0.3s0.2-0.3,0.3-0.4c0.1,0,0.3-0.1,0.4-0.1c0.1,0,0.2-0.1,0.4-0.2c-0.1,0.2-0.1,0.4-0.2,0.5
	c-0.1,0.2-0.1,0.4-0.2,0.6c-0.1,0.2-0.1,0.4-0.1,0.6c0,0.2-0.1,0.4-0.1,0.6c-0.1,0.3-0.3,0.7-0.4,1c-0.1,0.3-0.3,0.7-0.4,1
	c-0.1,0.2-0.2,0.3-0.2,0.5c-0.1,0.2-0.1,0.4-0.2,0.6l-0.1,0.6c-0.1,0.3-0.1,0.6-0.3,0.8c-0.1,0.3-0.2,0.6-0.2,0.9c0,0.1,0,0.2,0,0.3
	c0,0.1,0,0.2,0.1,0.3c0,0,0,0.1,0,0.2s0,0.1,0,0.2V22c0,0,0,0.1,0.1,0.1c0.2,0.2,0.5,0.4,0.8,0.5c0.1,0,0.2,0,0.3,0s0.2,0,0.3,0
	c0.2,0,0.4,0,0.6-0.1c0.1,0,0.3-0.1,0.4-0.1c0.1,0,0.2-0.1,0.4-0.1c0.1,0,0.2-0.1,0.2-0.1h0.1l0,0l0,0l0,0l0,0
	c0.1-0.1,0.1-0.1,0.2-0.1c0.1-0.1,0.1-0.1,0.2-0.1c0.2-0.2,0.4-0.3,0.4-0.3c0.1,0,0.2-0.2,0.3-0.4c0,0,0-0.1,0.1-0.1
	s0.1-0.1,0.2-0.1c0.1-0.1,0.1-0.1,0.2-0.1c0.2-0.2,0.4-0.3,0.6-0.4c0.2-0.1,0.4-0.3,0.6-0.5c0,0,0-0.1,0.1-0.1l0.1-0.1
	c-0.2,0.2-0.4,0.4-0.7,0.6c-0.2,0.2-0.5,0.4-0.8,0.5c0.1-0.1,0.2-0.2,0.2-0.2c0.1-0.1,0.2-0.1,0.3-0.2l0.1-0.1c0,0,0.1,0,0.1-0.1
	c0,0,0,0,0-0.1c0,0,0,0,0-0.1c0.2-0.1,0.3-0.2,0.4-0.3l0,0l0,0l0,0l0,0c0.1-0.1,0.2-0.2,0.2-0.3s0.2-0.2,0.3-0.2
	c0-0.1,0-0.1,0.1-0.2s0.1-0.1,0.1-0.2l0,0l0,0h-0.1h-0.1h-0.1c-0.1,0-0.2,0.1-0.2,0.1c-0.1,0.1-0.1,0.1-0.2,0.1h-0.1h-0.1
	c0,0-0.1,0-0.1,0.1c0,0-0.1,0-0.1,0.1s-0.1,0-0.1,0s-0.1,0-0.1,0.1c-0.1,0-0.1,0.1-0.2,0.1s-0.1,0.1-0.2,0.1
	c-0.1,0.1-0.2,0.2-0.3,0.2C91.3,20,91.2,20,91,20.1L90.9,20c-0.1,0-0.1,0.1-0.2,0.2s-0.1,0.1-0.2,0.1c-0.1,0.1-0.2,0.1-0.2,0.2
	l-0.1,0.1h-0.1c0,0-0.1,0.1-0.2,0.1c-0.2,0.1-0.4,0.2-0.7,0.3c-0.2,0.1-0.5,0.1-0.8,0.1c0-0.1-0.1-0.2-0.2-0.2
	c-0.1,0-0.2-0.2-0.2-0.3c0-0.1,0-0.1,0-0.2s0-0.1,0-0.2c0-0.2,0-0.3,0-0.5c0-0.1,0-0.3,0.1-0.4c0,0,0-0.1,0.1-0.1c0,0,0-0.1,0-0.2
	s0-0.1,0-0.2s0.1-0.2,0.1-0.3l0,0c0.1-0.3,0.3-0.6,0.4-0.9c0.1-0.3,0.2-0.6,0.3-0.9c0.1-0.2,0.1-0.3,0.2-0.5
	c0.1-0.1,0.1-0.3,0.2-0.4c0.1-0.2,0.1-0.3,0.2-0.4v-0.1v-0.1v-0.1V15l0,0l0,0c0-0.1,0-0.1,0-0.2s0-0.1,0-0.1v-0.1l0.1-0.1v-0.1v-0.1
	c0.1-0.4,0.2-0.9,0.2-1.3v-0.3c0-0.1,0.1-0.2,0.1-0.2s0-0.1-0.1-0.1l-0.1-0.1c0,0,0,0,0-0.1c0,0,0-0.1,0-0.2c0-0.1,0-0.1,0-0.1
	c0-0.2-0.1-0.3-0.3-0.4c-0.2-0.1-0.4-0.2-0.7-0.2s-0.5,0.1-0.7,0.2s-0.4,0.2-0.6,0.3l-0.1,0.1c0,0-0.1,0-0.1,0.1s-0.1,0.1-0.1,0.1
	c-0.1,0-0.1,0-0.1,0.1c-0.2,0.2-0.4,0.4-0.6,0.6c-0.2,0.2-0.4,0.4-0.6,0.6l-0.1,0.1h-0.1c0,0,0,0-0.1,0c-0.2,0.1-0.3,0.2-0.3,0.3
	c-0.1,0.1-0.1,0.2-0.2,0.3c0,0.1-0.1,0.1-0.2,0.2c-0.1,0.1-0.2,0.1-0.2,0.2s-0.1,0.1-0.2,0.2c-0.1,0.1-0.1,0.2-0.2,0.2
	c0,0.1-0.1,0.2-0.2,0.2c0-0.1,0-0.1,0-0.2c0-0.1,0-0.1,0-0.2v-0.1c0,0,0,0,0-0.1c0-0.2,0-0.3,0-0.5s0-0.3,0-0.5v-0.2v-0.4
	c0-0.2,0-0.4,0-0.5s0-0.2,0-0.2L84,12.1V12c0,0,0,0,0-0.1l-0.1-0.1C83.9,11.7,83.9,11.7,83.7,11.6c0.1-0.2,0-0.3,0-0.3
	c-0.1-0.1-0.2-0.2-0.3-0.3s-0.1-0.1-0.1-0.1h-0.1c-0.1,0-0.1,0-0.1,0c-0.1,0-0.2,0-0.3,0h-0.2C83.8,11.6,83.8,11.6,83.7,11.6
	 M74.8,22.8L74.8,22.8C74.8,22.9,74.8,22.9,74.8,22.8 M77.6,12.5c-0.1,0-0.2,0.1-0.3,0.1h-0.1h-0.1l0,0c0,0,0,0,0,0.1s0,0-0.1,0
	c0,0,0,0-0.1,0s-0.1,0.1-0.2,0.2c-0.1,0.1-0.1,0.1-0.2,0.2l-0.1,0.1c0,0.1,0,0.1,0,0.1c-0.1,0.4-0.3,0.9-0.4,1.3
	c-0.1,0.4-0.3,0.8-0.5,1.2c0,0.1-0.1,0.2-0.1,0.3s0,0.2-0.1,0.3c0,0.1,0,0.2-0.1,0.2c0,0.1-0.1,0.2-0.1,0.2c0,0.1,0,0.2-0.1,0.3
	c-0.1,0.2-0.1,0.5-0.2,0.7c-0.1,0.2-0.1,0.5-0.2,0.8c0,0.1,0,0.2,0,0.3v0.3c0,0.2,0,0.4,0,0.6s0,0.4-0.1,0.6c0,0.2-0.1,0.4-0.1,0.6
	s0,0.4-0.1,0.6V22c0,0.1,0,0.2,0,0.2c0,0.1,0,0.2,0,0.2c0,0.1,0,0.2,0,0.2s0,0.2,0.1,0.2c0,0.1,0.1,0.3,0.2,0.4s0.2,0.2,0.2,0.3v0.1
	c0,0,0,0,0,0.1s0.1,0.2,0.2,0.4l0.1,0.1l0.1,0.1c0.1,0.1,0.2,0.2,0.4,0.2h0.1c0.2,0,0.4-0.1,0.5-0.2h0.1l0,0c0,0,0,0,0.1,0
	c0.1-0.1,0.2-0.1,0.3-0.2h0.2c0,0,0,0,0.1-0.1l0.1-0.1c0.4-0.2,0.7-0.5,1-0.8s0.6-0.6,1-0.8c0.1-0.1,0.1-0.1,0.2-0.2
	s0.1-0.1,0.2-0.1l0.1-0.1c0,0,0.1,0,0.1-0.1c0.1,0,0.2-0.1,0.2-0.1l0.1-0.1c0,0,0.1-0.1,0.1-0.2c0.1,0,0.2-0.1,0.3-0.1
	c0.1-0.1,0.1-0.1,0.2-0.2l0,0l0,0c0.1-0.2,0.3-0.3,0.5-0.5c0,0,0.1-0.1,0.2-0.1c0.1-0.1,0.1-0.1,0.1-0.2c0.1-0.1,0.2-0.2,0.3-0.3
	s0.2-0.3,0.3-0.4c0,0,0.1-0.1,0.1-0.2s0.1-0.1,0.1-0.2s0.1-0.1,0.1-0.2c0,0,0-0.1,0.1-0.1c0-0.1,0.1-0.1,0.1-0.1c0-0.1,0-0.1,0-0.2
	v-0.1l0,0l0,0c0.1-0.2,0.2-0.3,0.4-0.5c0-0.1,0-0.1,0-0.1s0-0.1,0-0.2c-0.1,0-0.3,0-0.4,0s-0.2,0.1-0.3,0.1h-0.1H82
	c0,0-0.1,0-0.1,0.1c-0.2,0.1-0.3,0.3-0.4,0.5c-0.1,0.2-0.3,0.3-0.5,0.4c0,0-0.1,0.1-0.2,0.2c-0.1,0.1-0.2,0.2-0.3,0.2
	c-0.1,0.1-0.2,0.2-0.3,0.3c-0.1,0.1-0.2,0.1-0.3,0.2s-0.2,0.1-0.2,0.2l-0.1,0.2c-0.2,0.2-0.4,0.4-0.5,0.5c-0.2,0.1-0.3,0.2-0.6,0.4
	c-0.1,0.1-0.2,0.2-0.3,0.3c0,0-0.1,0.1-0.1,0.2c-0.1,0.1-0.1,0.1-0.2,0.2c-0.1,0.1-0.2,0.2-0.3,0.2c-0.1,0.1-0.2,0.1-0.4,0.2
	l-0.1,0.1h-0.2h-0.2c-0.1-0.3,0-0.5,0.1-0.6s0.2-0.3,0.3-0.5V21v-0.1v-0.1c0,0,0,0,0-0.1c0.1-0.4,0.2-0.7,0.3-1s0.3-0.5,0.4-0.9
	c0.1-0.2,0.2-0.4,0.2-0.5s0.1-0.4,0.2-0.6v-0.1c0-0.1,0-0.1,0-0.2c0,0,0-0.1,0.1-0.1s0-0.1,0-0.2s0-0.2,0-0.3c0-0.1,0-0.2,0.1-0.2
	c0,0,0-0.1,0.1-0.1c0-0.1,0-0.1,0-0.2c0-0.1,0-0.1,0.1-0.2s0-0.1,0-0.2c0,0,0,0,0-0.1s0,0,0-0.1c0,0,0,0,0-0.1c0,0,0,0,0-0.1
	c0,0,0,0,0-0.1v-0.1v-0.1l0,0v-0.1c0,0,0-0.1,0.1-0.1l0,0l0,0c0,0,0-0.1,0-0.2v-0.2c0-0.3-0.1-0.6-0.2-0.8c0,0,0-0.1-0.1-0.1
	c0,0,0-0.1,0-0.2s0-0.1,0-0.2c0-0.1,0-0.2,0-0.3s-0.1-0.2-0.1-0.3c-0.1-0.1-0.2-0.2-0.2-0.2c-0.1,0-0.1,0-0.2,0c-0.1,0-0.1,0-0.2,0
	L77.6,12.5C77.8,12.5,77.7,12.5,77.6,12.5 M79,11.4C78.9,11.4,79,11.3,79,11.4c0.1-0.1,0.2-0.1,0.2-0.1h0.1c0.1,0,0.2-0.1,0.3-0.2
	c0.1-0.1,0.2-0.1,0.2-0.2c0.1-0.2,0.2-0.4,0.2-0.6c0.1-0.2,0.1-0.5,0.1-0.8S80,8.9,79.9,8.8c-0.1-0.1-0.2-0.2-0.3-0.2
	c-0.1-0.1-0.2-0.1-0.3-0.2c-0.1,0-0.2,0.1-0.4,0.1c-0.1,0-0.3,0-0.4,0.1c0,0.1,0,0.1-0.1,0.1c-0.3,0.1-0.5,0.4-0.7,0.7
	s-0.3,0.6-0.2,1c0,0.1,0,0.2,0.1,0.3s0.1,0.2,0.1,0.3c0,0.2,0.1,0.3,0.1,0.3c0,0.1,0.1,0.2,0.1,0.3H78l0.1-0.1c0,0,0-0.1,0.1-0.1
	c0,0,0.1,0.1,0.1,0.2c0,0.1,0,0.1,0.1,0.2c0,0,0.1,0,0.1-0.1s0-0.1,0.1-0.2c0.1,0,0.2,0,0.2,0.1s0.1,0.1,0.2,0.2
	C78.9,11.5,79,11.4,79,11.4 M74.2,27.6l0.1,0.1C74.3,27.7,74.3,27.7,74.2,27.6L74.2,27.6C74.2,27.5,74.2,27.6,74.2,27.6 M77.1,3.8
	c0.1-0.1,0.1-0.2,0-0.4c0,0.1-0.1,0.2-0.2,0.3c-0.1,0.1-0.1,0.2-0.2,0.3c0,0,0,0-0.1,0c-0.2,0.1-0.4,0.3-0.6,0.5
	c-0.2,0.2-0.3,0.3-0.4,0.5c-0.1,0-0.2,0.1-0.3,0.1s-0.2,0.1-0.2,0.2c-0.1,0.1-0.2,0.3-0.4,0.4c-0.1,0.2-0.3,0.3-0.4,0.4
	c0,0.1,0,0.1,0,0.1c-0.5,0.5-1.1,1-1.7,1.5c-0.6,0.5-1.1,1-1.7,1.5c-0.3,0.2-0.6,0.4-0.9,0.6c-0.3,0.2-0.5,0.5-0.8,0.7
	c-0.1,0-0.1,0.1-0.2,0.1c-0.1,0-0.1,0.1-0.2,0.1c0,0-0.1,0.1-0.2,0.2c-0.1,0.1-0.1,0.1-0.2,0.2c-0.1,0.1-0.3,0.3-0.4,0.4
	c-0.1,0.2-0.3,0.2-0.5,0.2c0-0.1,0.1-0.2,0.1-0.3s0-0.2,0-0.3c0.1-0.5,0.2-1,0.2-1.5s0-1.1,0-1.6c0.1-0.1,0.1-0.2,0.1-0.4
	c0-0.1,0-0.3,0-0.4c0,0,0-0.1,0.1-0.3V6.8c0-0.1,0-0.1,0-0.2c0-0.1,0-0.2,0.1-0.2c0-0.1,0.1-0.2,0.1-0.2c0-0.1,0-0.2,0-0.3
	s0-0.2,0-0.3c0,0,0-0.1,0-0.2c0-0.1,0-0.1,0-0.2c0-0.1,0-0.1,0-0.2c0-0.1,0-0.1,0-0.2c0-0.1,0-0.2,0-0.2c0-0.1,0-0.2,0-0.3
	c0.1-0.2,0.1-0.5,0.2-0.8c0.1-0.3,0.1-0.6,0.2-0.8c0-0.1,0-0.2,0-0.3s0-0.2,0-0.3c0-0.3-0.1-0.5-0.2-0.7c-0.1-0.2-0.2-0.3-0.3-0.5
	s-0.2-0.4-0.4-0.4c-0.1-0.2-0.2-0.3-0.4-0.4C67.1,0,66.9,0,66.7,0c-0.1,0-0.2,0-0.3,0.1c-0.1,0-0.2,0.1-0.3,0.1
	c-0.2,0.2-0.3,0.3-0.5,0.5S65.3,1,65.2,1.1c-0.1,0.1-0.2,0.3-0.3,0.4c-0.1,0.1-0.2,0.3-0.3,0.4c0,0.1,0,0.1,0,0.1l-0.1,0.1
	c0,0.1,0,0.1,0,0.2s0,0.1-0.1,0.2c0,0.1,0,0.2-0.1,0.3c0,0.1-0.1,0.2-0.1,0.3c-0.1,0.2-0.1,0.4-0.1,0.7s0,0.5-0.1,0.7
	c0,0.1,0,0.2,0,0.3V5c0,0.2-0.1,0.3-0.1,0.5s0,0.3,0,0.5c0,0.5-0.1,1-0.1,1.5s0,1,0,1.4c0,0.6,0,1.1,0,1.7c0,0.5,0,1.1-0.1,1.6
	c0,0.1,0,0.2,0,0.2c0,0.1,0,0.1,0,0.2c0,0.9-0.1,1.8-0.2,2.8c-0.1,1-0.2,1.9-0.4,2.9c0,0.2-0.1,0.4-0.1,0.7c0,0.2,0,0.4-0.1,0.7
	c0,0.2-0.1,0.3-0.1,0.5c-0.1,0.2-0.1,0.4-0.1,0.5c-0.1,0.5-0.2,0.9-0.3,1.3s-0.2,0.9-0.3,1.3c0,0.3-0.1,0.6-0.2,0.8
	c-0.1,0.3-0.1,0.5-0.1,0.8c-0.1,0.3-0.1,0.6-0.1,0.9s0,0.6,0,0.9c0.1,0,0.1,0,0.1,0c0,0.2,0.1,0.4,0.2,0.5c0.1,0.1,0.2,0.3,0.1,0.6
	h0.2c0.1,0,0.1,0,0.2,0.1c0.1,0,0.3,0,0.3,0c0.1,0,0.2,0.1,0.3,0.1c0-0.1,0-0.2,0.1-0.3c0-0.1,0.1-0.2,0.1-0.4c0.1,0,0.1,0,0.2-0.1
	c0-0.1,0.1-0.1,0.1-0.1c0.1,0,0.1,0,0.1,0l0.1,0.1c0.1-0.2,0.2-0.3,0.3-0.4s0.2-0.3,0.3-0.4c0.1,0,0.1,0,0.1,0h0.1v-0.2
	c0,0,0-0.1,0.1-0.1s0,0,0-0.1c0-0.2,0.1-0.3,0.1-0.5s0-0.3,0.1-0.5c0.3-0.8,0.5-1.6,0.7-2.4s0.4-1.7,0.5-2.6
	c0.1-0.1,0.1-0.2,0.1-0.2c0-0.1,0-0.2,0-0.2c0-0.1,0.1-0.3,0.1-0.4s0.1-0.3,0.1-0.4v-0.2c0-0.1,0.1-0.3,0.1-0.4v-0.5
	c0.1-0.1,0.1-0.2,0.1-0.4l0,0l0,0c0-0.1,0.1-0.2,0.1-0.3c0-0.1,0-0.2,0.1-0.3c0,0,0-0.1,0.1-0.1v-0.2c0-0.3,0-0.6,0.1-0.8
	c0-0.2,0.1-0.5,0.1-0.7c0.1-0.1,0.2-0.2,0.4-0.2c0.1-0.1,0.3-0.1,0.5-0.1c0.3-0.1,0.7-0.2,1-0.3c0.4-0.1,0.7-0.2,1-0.2
	c0.4,0,0.7,0,0.9,0c0.3,0.1,0.4,0.2,0.5,0.2c0.1,0.1,0.2,0.2,0.3,0.4c0,0.1,0.1,0.2,0.1,0.3s0.1,0.2,0.1,0.3s0,0.1,0,0.2
	c0,0.1,0,0.2,0,0.2c0,0.2,0,0.4-0.1,0.6c0,0.2-0.1,0.3-0.1,0.5c-0.2,0.3-0.3,0.6-0.4,1c-0.1,0.3-0.1,0.7-0.2,1
	c0,0.1-0.1,0.2-0.2,0.4c-0.1,0.1-0.1,0.2-0.2,0.3c0,0.1-0.1,0.3-0.1,0.4s0,0.3-0.1,0.4c-0.1,0.3-0.1,0.6-0.2,0.9s0,0.6,0,0.9
	c0,0.1,0,0.2,0,0.3c0,0.1,0,0.2-0.1,0.3c0,0.2,0.1,0.4,0.1,0.7c0,0.2,0,0.5,0.1,0.7c0,0.3,0,0.5,0,0.8c0,0.2,0,0.5,0.1,0.7
	c0.1,0.5,0.3,0.9,0.4,1.3c0.2,0.4,0.3,0.9,0.5,1.3c0.2,0.2,0.3,0.5,0.4,0.7c0.1,0.2,0.2,0.5,0.5,0.6c0.1,0.1,0.2,0.2,0.3,0.3
	c0.1,0.1,0.3,0.2,0.4,0.3l0.1,0.1c0,0,0.1,0,0.2,0.1c0.1,0.1,0.1,0.1,0.2,0.2c0,0.1,0.1,0.1,0.2,0.2c0.1,0,0.2,0.1,0.2,0
	c0.1,0,0.1,0,0.2-0.1c0.3-0.1,0.7-0.2,1-0.3c0.3-0.1,0.5-0.2,0.6-0.5c0.3-0.2,0.7-0.4,1-0.6c0.4-0.3,0.7-0.5,0.9-0.8
	c0.2-0.1,0.2-0.3,0.2-0.4c0.1-0.1,0.1-0.1,0.1-0.1s0-0.1,0.1-0.1s0,0,0-0.1c0.1-0.1,0.3-0.2,0.4-0.4c0.1-0.1,0.3-0.3,0.4-0.4
	l0.1-0.1c0-0.1,0-0.1,0-0.2c0,0.1-0.1,0.2-0.2,0.3c-0.1,0.1-0.2,0.1-0.2,0.2c-0.1,0.1-0.2,0.2-0.3,0.3c-0.1,0.1-0.2,0.2-0.3,0.3
	c0-0.1,0.1-0.2,0.2-0.3c0.1-0.1,0.2-0.2,0.2-0.3l0.1-0.1l0.1-0.1c0-0.1,0-0.1,0.1-0.2s0.1-0.1,0.1-0.2c0,0-0.1,0,0-0.1v-0.1
	c0.1-0.1,0.1-0.2,0.1-0.2s0,0,0-0.2c0,0-0.1,0.1-0.1,0.2s-0.1,0.1-0.2,0.2c0,0,0,0,0.1,0c0.1-0.1,0.1-0.1,0.1-0.1
	c0-0.1,0-0.1,0.1-0.2s0.1-0.1,0-0.2c0,0,0,0.1,0,0c0,0,0,0-0.1,0c-0.1,0.1-0.1,0.1-0.2,0.2c0,0.1-0.1,0.1-0.2,0.1
	c-0.2,0.1-0.4,0.3-0.5,0.4c-0.1,0.2-0.3,0.3-0.6,0.4C77.1,26.9,77,27,77,27s-0.1,0.1-0.2,0.1c-0.2,0.1-0.3,0.2-0.6,0.3
	c-0.2,0.1-0.4,0.2-0.6,0.4c-0.3,0.2-0.6,0.4-0.9,0.6c-0.3,0.2-0.7,0.2-1.2,0.2c0,0,0,0,0-0.1c0,0,0,0,0-0.1l0,0l0,0l-0.1-0.1
	c0,0,0,0-0.1-0.1c0.1,0,0.1,0,0.1-0.1c-0.3-0.2-0.5-0.5-0.5-0.8c-0.1-0.4-0.2-0.7-0.3-1.1l0,0l0,0c-0.1-0.2-0.1-0.5-0.1-0.8
	s0-0.5,0-0.8c0,0,0,0,0.1,0l0,0c0-0.1,0-0.2,0.1-0.3c0-0.2,0-0.3-0.1-0.4c0.1-0.2,0.1-0.5,0-0.8c0.1-0.1,0.1-0.2,0.1-0.3
	c0-0.1,0-0.2,0-0.3c0-0.2,0.1-0.4,0.2-0.5c0.1-0.2,0.2-0.3,0.2-0.6c0-0.1,0.1-0.2,0.1-0.3c0-0.1,0.1-0.2,0.1-0.3c0-0.1,0-0.2,0-0.3
	c0-0.2,0.1-0.3,0-0.4c0-0.1,0-0.2,0-0.4c0.1-0.1,0.1-0.2,0.1-0.3c0-0.1,0-0.2,0-0.4c0-0.4,0-0.8,0-1.1c0-0.3,0-0.5-0.1-0.7
	c0-0.2,0-0.4,0.1-0.5s0.1-0.3,0-0.5c0-0.2-0.1-0.3-0.1-0.5c0-0.1-0.1-0.3-0.1-0.5c-0.1,0-0.1,0-0.2-0.1c0-0.3-0.1-0.6-0.3-0.8
	s-0.3-0.5-0.5-0.6H72c-0.1-0.1-0.3-0.2-0.5-0.3s-0.4-0.2-0.6-0.3c-0.2-0.1-0.3-0.2-0.4-0.2c-0.4-0.1-0.9-0.1-1.3,0
	c-0.4,0.1-0.9,0.2-1.3,0.2c0-0.1,0-0.1,0.1-0.2c0.1,0,0.1-0.1,0.2-0.1c0.2-0.2,0.3-0.3,0.5-0.5s0.3-0.3,0.5-0.5s0.4-0.4,0.6-0.6
	s0.4-0.4,0.6-0.6c0.2-0.1,0.4-0.2,0.5-0.3c0.1-0.2,0.3-0.3,0.5-0.4V10c0.2-0.1,0.3-0.3,0.5-0.4c0.2-0.2,0.3-0.3,0.5-0.5
	c0.1-0.2,0.3-0.3,0.4-0.4c0.2-0.2,0.3-0.3,0.5-0.5s0.4-0.3,0.5-0.5c0,0,0.1,0,0.1-0.1c0,0,0,0,0-0.1C74,7.4,74,7.4,74.1,7.3
	c0.1-0.1,0.1-0.1,0.2-0.2c0.1-0.1,0.2-0.2,0.3-0.2s0.1-0.1,0.2-0.2c0,0,0-0.1,0.1-0.1c0,0,0.1,0,0.2-0.1c0.1,0,0.1-0.1,0.2-0.1
	l0.1-0.1l0,0l0,0c0.2-0.2,0.4-0.4,0.7-0.6c0.2-0.2,0.4-0.5,0.5-0.7c0,0.1-0.1,0.1-0.1,0.2l-0.1,0.1c0.1-0.1,0.2-0.3,0.2-0.5
	c0-0.1-0.1-0.1-0.2-0.1c-0.1,0-0.1-0.1-0.2-0.1l0.1-0.1c0,0,0,0,0-0.1h-0.1c0,0,0,0-0.1,0c0,0,0,0,0.1-0.1c0,0,0,0-0.1,0L76,4.4
	c0,0-0.1,0-0.1,0.1C76.9,4.1,77,4,77.1,3.8 M49,24.4L49,24.4C49.1,24.4,49,24.4,49,24.4L49,24.4 M49.4,23.1
	C49.4,23.1,49.3,23.1,49.4,23.1c-0.1,0.1-0.1,0.1-0.2,0.1C49.2,23.1,49.3,23.1,49.4,23.1 M47.4,12.4L47.4,12.4L47.4,12.4z M52.6,4.3
	c-0.1,0.1-0.2,0.1-0.3,0.2h-0.1h-0.1c-0.1,0.1-0.2,0.2-0.3,0.3S51.6,5,51.5,5.1c-0.3,0.3-0.5,0.7-0.7,1.1c-0.2,0.4-0.3,0.8-0.5,1.3
	c-0.1,0.3-0.2,0.6-0.3,0.9S49.8,9,49.7,9.3c-0.1,0.3-0.2,0.6-0.3,0.9s-0.2,0.6-0.3,0.9c-0.2,0-0.4,0.1-0.6,0.2
	c-0.2,0.1-0.4,0.1-0.6,0.2c0,0-0.1,0-0.1,0.1s-0.1,0-0.1,0s0,0.1-0.1,0.1c0,0-0.1,0-0.1,0.1c-0.1,0-0.1,0-0.1,0.1s-0.1,0-0.2,0
	c0,0,0,0,0,0.1h-0.1c0,0,0,0-0.1,0c-0.2,0.1-0.3,0.1-0.4,0.2c-0.1,0.1-0.2,0.2-0.3,0.3l0.1,0.1c0,0,0,0-0.1,0h0.1c0,0,0,0.1-0.1,0.1
	c0,0-0.1,0-0.1,0.1c0,0,0,0,0.1-0.1l0,0l0,0l0,0c0,0,0.1,0,0,0.1v0.1c0.1-0.1,0.1-0.1,0.2-0.1h0.1c0,0,0,0,0.1,0v0.1l0.1-0.1
	c0.1,0,0.1,0,0.2,0l0,0l0,0l0.1-0.1c-0.1,0.1-0.2,0.2-0.3,0.2l0,0l0,0c0,0,0,0,0.1,0c0,0,0,0,0.1,0h0.1h0.1l0,0l0,0
	c0,0,0.1,0,0.1-0.1c0,0,0-0.1,0.1-0.1v0.1v-0.1c0,0,0,0,0.1,0c0,0,0,0,0.1,0s0,0,0,0h0.1c0,0,0,0,0.1,0c0,0,0.1,0,0.1-0.1v0.1l0,0
	l0,0c0.1,0,0.2,0,0.3-0.1c0,0-0.1,0-0.1-0.1s0.1-0.1,0.2,0h0.1h0.1h0.1h0.1c0.1,0,0.1,0,0.2,0s0.1,0,0.1,0l0,0c0,0,0,0,0.1,0
	c0,0.2-0.1,0.4-0.2,0.5c-0.1,0.2-0.1,0.3-0.2,0.5c0,0.1,0,0.1,0,0.2v0.1c0,0,0,0.1-0.1,0.1c0,0,0,0.1-0.1,0.1c0,0.1,0,0.2,0,0.3
	s0,0.2-0.1,0.3c0,0.2-0.1,0.5-0.1,0.7c-0.1,0.2-0.1,0.5-0.1,0.7c0,0.1,0,0.2-0.1,0.3c0,0.1,0,0.2,0,0.3S48,16.9,48,17s0,0.3-0.1,0.4
	c0,0,0,0.1-0.1,0.2v0.3c0,0.7-0.1,1.4-0.2,1.9c0,0.1-0.1,0.2-0.1,0.3c0,0.1,0,0.2,0,0.4c0,0.2,0,0.4,0,0.6s0,0.4,0,0.6s0,0.4,0,0.6
	s0,0.4,0.1,0.6c0,0.1,0.1,0.2,0.1,0.2l0.1,0.1c0.1,0.1,0.1,0.3,0.1,0.6v0l0.1,0.1v0.2v0.1v0.1c0.1,0,0.1,0.1,0.1,0.1l0.1,0.1l0,0
	l0,0c0,0.1,0.1,0.1,0.2,0c0,0.1,0,0.1,0.1,0.2s0.1,0.1,0.1,0.1s0,0.1,0.1,0.1s0.1,0.1,0.1,0.1l0,0c0.1,0,0.2-0.1,0.3-0.1h0.1
	c0,0,0.1,0,0.1-0.1h0.2c0.1,0,0.1,0,0.2-0.1c0.1,0,0.1,0,0.2-0.1H50c0,0,0.1,0,0.2-0.1s0.3-0.2,0.4-0.2c0.2-0.1,0.3-0.1,0.5-0.2
	c0,0,0,0,0.1,0s0,0,0,0V24l0,0l0.1-0.1c0.1,0,0.1-0.1,0.2,0l0,0l0,0l0,0c0,0,0,0,0-0.1c0.1,0,0.2,0,0.3-0.1s0.1-0.1,0.1-0.2
	c0,0,0.1,0,0.2-0.1c0.1-0.1,0.1-0.1,0.1-0.2c0.3-0.3,0.7-0.6,1-0.8c0.4-0.3,0.7-0.5,1.1-0.8c0,0,0-0.1,0.1-0.1s0,0,0.1,0l0,0l0,0
	l0.1-0.1c0.1-0.1,0.1-0.2,0.2-0.2c0.1-0.1,0.1-0.1,0.2-0.2c0.1-0.1,0.2-0.2,0.3-0.3s0.2-0.2,0.2-0.3c0.1-0.2,0.3-0.4,0.5-0.5
	c0.2-0.2,0.3-0.3,0.5-0.5c0.1,0,0.2-0.1,0.3-0.2s0.1-0.2,0.2-0.3l0,0l0,0l0,0l0,0l0,0l0,0c-0.1,0-0.1,0-0.2,0c-0.1,0-0.1,0-0.1,0
	c0-0.1-0.1-0.2,0-0.3c0-0.1,0.1-0.2,0.1-0.2c-0.1,0-0.2-0.1-0.2-0.2c-0.2,0.1-0.3,0.2-0.4,0.3s-0.3,0.2-0.4,0.3
	c-0.1,0.1-0.3,0.2-0.4,0.3c-0.1,0.1-0.2,0.2-0.4,0.3c-0.1,0.1-0.3,0.2-0.4,0.3c-0.1,0.1-0.2,0.2-0.4,0.3c-0.1,0.1-0.2,0.2-0.4,0.3
	c-0.1,0.1-0.3,0.2-0.4,0.3c-0.3,0.2-0.6,0.4-0.8,0.6c-0.3,0.2-0.5,0.4-0.8,0.6c-0.1,0.1-0.3,0.2-0.4,0.3c-0.1,0.1-0.3,0.2-0.5,0.3
	c0,0-0.1,0-0.1,0.1c0,0-0.1,0-0.1,0.1l-0.2,0.2c0,0-0.1,0.1-0.2,0.2s-0.2,0.1-0.3,0.1c-0.1,0-0.1,0-0.1-0.1l0,0l0,0
	c0-0.1,0-0.2,0-0.3v-0.2c0-0.1,0-0.1,0-0.1s0-0.1,0.1-0.1c0-0.1,0-0.1,0-0.2c0,0,0.1-0.1,0-0.2l0.1-0.1v-0.2c0-0.1,0-0.1,0.1-0.2
	c0,0,0.1-0.1,0.1-0.2s0.1-0.2,0.1-0.3c0-0.1,0-0.2,0.1-0.2c0-0.2,0-0.3,0.1-0.4s0.1-0.2,0.1-0.4v-0.1c0,0,0-0.1,0.1-0.2
	c0.1-0.2,0.1-0.4,0.2-0.6c0.1-0.2,0.1-0.4,0.1-0.6c0-0.1,0.1-0.2,0.1-0.3c0-0.1,0.1-0.2,0.1-0.3c0-0.1,0.1-0.1,0.1-0.2
	s0.1-0.2,0.1-0.3c0-0.1,0-0.2,0.1-0.3c0,0,0,0,0-0.1c0,0,0,0,0.1-0.1l0.1-0.2l0.1-0.4c0-0.1,0.1-0.2,0.2-0.3
	c0.1-0.1,0.1-0.2,0.1-0.3v-0.1v-0.1c0,0,0,0,0-0.1v-0.1v-0.1v-0.5c0-0.2,0.1-0.3,0.1-0.3c0-0.1,0-0.1,0-0.2c0,0,0-0.1,0-0.2
	c0.1-0.3,0.2-0.6,0.3-0.9s0.2-0.6,0.3-1c0.1,0,0.2,0,0.3,0s0.1,0,0.2-0.1l0,0l0,0c0.1,0,0.1,0,0.1,0s0.1-0.1,0.2-0.1l0,0l0,0h-0.1
	h-0.1c-0.1,0-0.1,0-0.2,0c0,0,0.1-0.1,0.2-0.1c0.1,0,0.2,0,0.3-0.1l0,0l0,0H54l0,0l0,0l0,0l0,0c0.1,0,0.2-0.1,0.3,0
	c0.1,0,0.2,0,0.2-0.1c0,0.1,0.1,0.1,0.2,0.1v0.2l0,0l0,0c0,0,0,0,0-0.1h0.1c0,0,0-0.1,0.1-0.1s0.2,0,0.2,0c0.1,0,0.2,0,0.3,0
	s0.2,0,0.3-0.1c-0.1,0-0.2,0-0.4,0c-0.1,0-0.3,0-0.4,0c0,0,0,0-0.1,0c0,0,0,0-0.1,0h-0.1h-0.1c0,0,0,0-0.1,0l0,0l0,0h-0.1
	c0-0.1,0.1-0.1,0.2-0.1c0.1,0,0.2,0,0.2-0.1h0.1h0.1v-0.1c0.1,0,0.2,0,0.4,0c0.1,0,0.2,0,0.3,0h0.1c0.1,0,0.2,0,0.2-0.1l0,0h-0.1V11
	h-0.1c-0.1,0-0.1,0-0.1,0l0,0l0,0h-0.1h-0.1l0,0l0,0c-0.4,0-0.8-0.1-1.3,0c-0.4,0-0.9,0-1.3,0c0-0.1,0.1-0.2,0.1-0.2l0,0l0,0
	c0.1-0.2,0.1-0.3,0.2-0.5c0-0.1,0.1-0.3,0.1-0.5s0.1-0.3,0.2-0.5c0.1-0.1,0.1-0.3,0.2-0.5c0.1-0.2,0.1-0.5,0.2-0.7
	c0.1-0.2,0.1-0.5,0.2-0.8c0-0.1,0-0.1,0-0.3V6.9V6.8c0,0,0,0,0-0.1s0,0,0-0.1c0-0.2,0.1-0.4,0-0.7c0-0.3,0-0.5,0-0.7V5.1
	c0,0,0,0,0-0.1c0,0,0-0.1-0.1-0.1V4.8c0,0,0,0,0-0.1l-0.1-0.1l-0.1-0.1c0,0-0.1-0.1-0.1-0.2c0-0.1-0.1-0.1-0.1-0.1h-0.1l-0.1-0.1
	c-0.1-0.1-0.1-0.2-0.2-0.2H53C52.8,4.2,52.7,4.3,52.6,4.3 M38.6,20c0-0.2,0.1-0.4,0.1-0.7c0-0.1,0.1-0.3,0.1-0.4s0.1-0.3,0.1-0.4
	c0.1,0,0.1-0.1,0.1-0.2s0-0.2,0-0.3c0-0.1,0-0.2,0-0.3c0-0.1,0.1-0.2,0.1-0.3c0-0.1,0.1-0.2,0.1-0.3c0-0.1,0.1-0.3,0.1-0.4
	c0-0.1,0.1-0.3,0.1-0.4l0,0c0,0,0,0.1-0.1,0.1c0,0.1,0,0.1,0,0.2l0,0c0.1-0.1,0.1-0.1,0.1-0.2c0-0.1,0.1-0.2,0.1-0.3
	s0.1-0.2,0.2-0.3c0-0.2,0.1-0.3,0.2-0.4c0.1-0.1,0.1-0.2,0.2-0.3s0.1-0.2,0.2-0.3s0.1-0.3,0.1-0.5c0-0.1,0-0.1,0-0.2
	c0-0.1,0-0.1,0-0.2v-0.1c0,0,0,0,0-0.1c0-0.2,0-0.4,0-0.7c-0.1-0.2-0.1-0.4-0.1-0.6c-0.1,0-0.1-0.1-0.1-0.2
	c-0.1-0.2-0.3-0.4-0.4-0.6c-0.2-0.2-0.4-0.3-0.7-0.3c0,0-0.1-0.1-0.1,0c-0.1,0-0.1,0-0.2,0c0,0-0.1,0-0.1,0.1s-0.1,0.1-0.2,0.1l0,0
	l0,0c-0.1,0.1-0.2,0.2-0.2,0.3c-0.1,0.1-0.1,0.2-0.2,0.3c-0.2,0.4-0.3,0.7-0.4,1s-0.2,0.5-0.3,0.8c-0.1,0.3-0.2,0.5-0.3,0.8
	c-0.1,0.3-0.2,0.7-0.3,1.1c-0.2,0.7-0.3,1.4-0.5,2.2c-0.1,0.8-0.2,1.6-0.2,2.4c0,0.5,0,1,0.1,1.4c0.1,0.5,0.2,0.9,0.4,1.2l0.1,0.1
	c0,0,0.1,0.1,0.1,0.2c0.1,0.1,0.2,0.3,0.3,0.4c0.1,0.1,0.2,0.2,0.3,0.3c0.1,0,0.3,0,0.4,0s0.2,0,0.4,0c0.1-0.1,0.2-0.2,0.3-0.2
	c0.1,0,0.2-0.1,0.3-0.2c0.4-0.5,0.8-1,1.2-1.6v-0.1c0,0,0,0,0-0.1c0.1,0,0.1-0.1,0.1-0.2s0.1-0.1,0.1-0.2c0.2-0.4,0.4-0.7,0.6-1
	s0.4-0.7,0.6-1v-0.1v-0.1l0.1-0.1c0-0.1,0.1-0.1,0.1-0.1l0,0c0,0,0,0,0-0.1l0,0l0,0c0.1-0.4,0.2-0.7,0.4-1s0.3-0.6,0.5-0.8
	c-0.1,0.6-0.2,1.2-0.3,1.9c-0.1,0.7-0.1,1.4,0.1,2.1c0,0.2,0.1,0.3,0.1,0.4c0.1,0.1,0.1,0.3,0.2,0.4c0,0.1,0.1,0.2,0.1,0.4
	c0,0.1,0.1,0.3,0.2,0.4s0.2,0.2,0.3,0.3c0.1,0.1,0.3,0.1,0.4,0.2s0.3,0.1,0.6,0c0.3-0.1,0.5-0.1,0.6-0.2c0.2-0.1,0.3-0.2,0.4-0.3
	c0-0.1,0.2-0.2,0.3-0.3c0,0,0,0,0.1,0s0.1,0,0.1,0s0.1-0.1,0.1-0.2c0.1-0.1,0.1-0.2,0.2-0.3c0.1-0.1,0.1-0.2,0.2-0.3
	c0-0.1,0.1-0.1,0.1-0.1c-0.1,0.1-0.1,0.2-0.2,0.3c0,0.1-0.1,0.2-0.1,0.2c0,0.1-0.1,0.1-0.1,0.1c0.2-0.1,0.3-0.3,0.4-0.4
	s0.2-0.2,0.2-0.3s0.1-0.2,0.2-0.3c0.1-0.1,0.2-0.3,0.3-0.5c0,0,0-0.1,0.2-0.2c0.1-0.1,0.2-0.2,0.3-0.4c0.1-0.1,0.2-0.3,0.3-0.4
	c0.1-0.1,0.2-0.2,0.2-0.2c0-0.1,0-0.1,0.1-0.2l0.1-0.1l0.1-0.1c0,0,0-0.1,0-0.2c0.1-0.1,0.1-0.2,0.1-0.3c-0.1-0.1,0-0.2,0.1-0.3
	c-0.1,0-0.1-0.1-0.1-0.1s0-0.1,0-0.2c0,0.1-0.1,0.1-0.1,0.2c-0.1,0-0.1,0-0.2,0.1c0.1-0.1,0.1-0.1,0.1-0.1l-0.1,0.1
	c-0.1,0.1-0.1,0.1-0.2,0.2s-0.1,0.1-0.2,0.1c-0.1,0.1-0.2,0.2-0.2,0.2s-0.1,0.1-0.2,0.2c0,0,0-0.1,0.1-0.2s0.1-0.2,0.1-0.2
	s0,0.1-0.1,0.2s-0.1,0.2-0.2,0.2c-0.1,0.1-0.1,0.2-0.2,0.2c-0.1,0.1-0.1,0.1-0.1,0.1c-0.1,0.1-0.2,0.3-0.4,0.5
	c-0.2,0.2-0.3,0.3-0.4,0.4c-0.1,0-0.1,0.1-0.2,0.2s-0.2,0.2-0.2,0.3c-0.1,0.1-0.2,0.2-0.4,0.3c-0.1,0.1-0.2,0.2-0.4,0.3
	c-0.1,0.1-0.2,0.2-0.2,0.2l-0.1,0.1h-0.1c0,0-0.2,0-0.3,0.1c0-0.2,0-0.4-0.1-0.6s-0.1-0.4,0-0.5c0-0.3,0-0.6,0.1-0.9
	c0-0.3,0.1-0.6,0.1-0.9c0,0,0-0.1,0.1-0.1v-0.1c0-0.2,0-0.2,0-0.3c0-0.1,0.1-0.2,0.1-0.3s0-0.2,0-0.3c0,0,0-0.1,0.1-0.1
	c0,0,0-0.1,0-0.2c0-0.3,0.1-0.6,0.2-0.8c0.1-0.3,0.1-0.6,0.1-0.9c0-0.1,0-0.2,0.1-0.3c0-0.1,0-0.2,0-0.2c0-0.2,0.1-0.3,0.1-0.4
	c0-0.1,0-0.3,0-0.4c0-0.1,0.1-0.2,0.1-0.3s0-0.2,0-0.3c0,0-0.1,0-0.1,0.1s0,0.1-0.1,0c0-0.1,0.1-0.2,0.1-0.2c-0.1,0-0.1-0.1-0.1-0.1
	c0-0.1,0-0.2-0.1-0.3c0-0.1-0.1-0.2-0.1-0.3c-0.1,0-0.1,0-0.1-0.1c-0.1,0-0.2,0-0.2-0.1s-0.1-0.2-0.1-0.3c0,0.1-0.1,0.1-0.1,0.1
	c-0.1,0-0.1-0.1-0.2-0.1s-0.2,0-0.3,0.1c-0.1,0.1-0.2,0.2-0.3,0.5c-0.1,0.2-0.1,0.4-0.2,0.6c-0.3,0.2-0.5,0.5-0.8,0.8
	c-0.2,0.3-0.5,0.5-0.7,0.8c-0.1,0.1-0.2,0.2-0.2,0.3c-0.1,0.1-0.1,0.2-0.2,0.2c0,0.2-0.1,0.3-0.2,0.3c-0.1,0.1-0.1,0.2-0.2,0.3
	s-0.2,0.2-0.2,0.3c-0.1,0.1-0.1,0.1-0.2,0.2S40.5,17,40.5,17c-0.3,0.5-0.6,0.9-0.9,1.4s-0.6,0.9-0.9,1.3c-0.1,0.2-0.2,0.3-0.3,0.5
	c-0.1,0.1-0.2,0.3-0.3,0.4C38.5,20.5,38.5,20.2,38.6,20 M34.4,17.5c0-0.2,0.1-0.4,0.1-0.7c0-0.2,0.1-0.5,0.1-0.8c0,0,0,0,0.1,0
	c0,0,0,0,0.1,0L34.4,17.5z M33.3,18c0,0.2-0.1,0.3-0.2,0.5s-0.2,0.3-0.2,0.4c-0.1,0.1-0.2,0.3-0.3,0.5c-0.1,0.2-0.1,0.3-0.2,0.5
	c0,0.2-0.1,0.3-0.2,0.4c0,0-0.1,0-0.1,0.1L32,20.5h-0.1l0,0l0,0c-0.1,0.2-0.2,0.3-0.4,0.4c-0.2,0.1-0.3,0.3-0.4,0.4
	c-0.2,0.1-0.4,0.2-0.5,0.2c-0.2,0-0.4,0.1-0.6,0.1s-0.3,0.1-0.5,0.1s-0.3,0-0.5-0.1c-0.1-0.1-0.2-0.2-0.3-0.3s-0.2-0.3-0.2-0.4v-0.1
	c0-0.1,0-0.1-0.1-0.2c0-0.1,0-0.1-0.1-0.1v-0.1v-0.1c0-0.1,0-0.2,0-0.2c0-0.1,0-0.2,0-0.3c0.1-0.2,0.1-0.3,0.1-0.5s0-0.3,0.1-0.4
	c0-0.1,0-0.2,0-0.4c0.1-0.2,0.2-0.4,0.3-0.6c0.1-0.2,0.2-0.4,0.4-0.6c0.1-0.1,0.2-0.3,0.3-0.5c0.1-0.2,0.2-0.4,0.3-0.6l0.1-0.1
	c0,0,0.1-0.1,0.1-0.2c0.2,0,0.3-0.1,0.3-0.3c0.1-0.2,0.2-0.3,0.3-0.5c0-0.1,0.1-0.1,0.2-0.2c0.1-0.1,0.1-0.1,0.2-0.2
	c0.1-0.1,0.1-0.2,0.1-0.3s0.1-0.2,0.1-0.3c0.1,0.1,0.2,0.2,0.3,0.4c0.1,0.1,0.2,0.2,0.3,0.3c0.1,0.1,0.2,0.2,0.3,0.2
	c0,0,0.1,0.1,0.2,0.1c0.1,0.1,0.2,0.2,0.3,0.3c0.1,0.1,0.2,0.1,0.3,0.1c0.1,0.1,0.2,0.1,0.4,0.2c0.2,0.1,0.3,0.1,0.5,0.1
	c0,0.2,0,0.3,0,0.4c-0.1,0.1-0.1,0.2-0.2,0.4c0,0.2-0.1,0.3-0.1,0.5s-0.1,0.3-0.1,0.4C33.3,17.6,33.3,17.8,33.3,18 M32.8,13.1
	c0,0.1,0,0.2,0,0.3l0.2,0.2c0,0,0.1,0.1,0.1,0.2c0,0.1,0,0.1,0.1,0.2c0,0.1,0.1,0.1,0.2,0.2s0.1,0.2,0.1,0.3v0.1h-0.1
	c0,0-0.1,0-0.2-0.1c-0.2-0.1-0.3-0.2-0.5-0.3c-0.1-0.2-0.3-0.3-0.4-0.5c0-0.1,0-0.3,0-0.4c0-0.1,0.2-0.2,0.3-0.3
	C32.7,13,32.8,13,32.8,13.1 M38.8,13.8L38.8,13.8c-0.2,0-0.2,0.1-0.3,0.1s-0.2,0.1-0.3,0c-0.1,0.1-0.3,0.2-0.5,0.3s-0.5,0.2-0.8,0.3
	c-0.1,0-0.2,0.1-0.4,0.1c-0.2,0-0.3,0-0.5,0s-0.4,0-0.5,0c-0.2,0-0.3,0-0.4,0s-0.1,0-0.1,0s-0.1,0-0.2,0l-0.1-0.1c0,0,0,0-0.1,0
	c0-0.1,0-0.2-0.1-0.3v-0.1c0-0.1,0-0.1-0.1-0.2c0,0.1,0,0.2,0.1,0.3s0,0.2,0,0.3c-0.1,0-0.1,0-0.1-0.1s0-0.1,0-0.2
	c0-0.1-0.1-0.2-0.1-0.4c0-0.1-0.1-0.2-0.2-0.3c-0.1,0-0.2-0.1-0.2-0.3c0-0.1-0.1-0.2-0.1-0.3s-0.1-0.2-0.1-0.3
	c-0.1-0.1-0.1-0.2-0.1-0.3l-0.2-0.2V12v-0.1c-0.1,0-0.1,0-0.1,0h-0.1l0.1,0.1c0,0.1,0,0.1-0.1,0.1s-0.1,0-0.1,0s0,0-0.1,0
	c0,0-0.1,0-0.1,0.1s0,0-0.1,0c-0.1-0.1-0.2-0.1-0.3-0.1c-0.1,0-0.2,0-0.3,0c-0.1,0.1-0.2,0.2-0.3,0.3c-0.1,0.1-0.2,0.1-0.4,0
	l-0.1,0.1c0,0.1-0.1,0.1-0.1,0.1c0-0.2,0-0.3,0-0.4c0-0.1-0.1-0.2-0.2-0.3s-0.3-0.2-0.5-0.3s-0.4-0.1-0.6,0l0,0h-0.1
	c-0.2,0.1-0.4,0.2-0.5,0.4c-0.2,0.1-0.3,0.3-0.5,0.4c-0.2,0.2-0.3,0.4-0.5,0.5c-0.1,0.2-0.3,0.4-0.4,0.6c-0.5,0.6-1,1.4-1.4,2.3
	c-0.4,0.9-0.7,1.9-0.7,2.9l0,0c0,0.1,0,0.2,0,0.3c0,0.1,0,0.2-0.1,0.3c0,0.2,0.1,0.3,0.1,0.5s0.1,0.3,0.1,0.5v0.2l0.1,0.1
	c0.1,0.4,0.3,0.7,0.4,1.2c0.1,0.4,0.3,0.7,0.7,0.9c0.2,0.2,0.4,0.4,0.6,0.6s0.5,0.3,0.8,0.4c0.2,0.1,0.3,0.1,0.5,0
	c0.2,0,0.3-0.1,0.5-0.1l0,0l0,0c0.3,0,0.5,0,0.7-0.2c0.2-0.1,0.4-0.2,0.7-0.3c0.1-0.1,0.2-0.2,0.4-0.3c0.1-0.1,0.3-0.2,0.4-0.3
	c0.1-0.2,0.2-0.2,0.2-0.3c0,0,0.1-0.1,0.2-0.1s0.1-0.1,0.2-0.1c0,0,0-0.1,0.1-0.2c0-0.1,0.1-0.1,0.1-0.2c0.1-0.1,0.1-0.2,0.1-0.3
	s0.1-0.2,0.1-0.3c0.1-0.2,0.2-0.3,0.3-0.5c0.1-0.2,0.2-0.3,0.3-0.5c0-0.1,0.1-0.2,0.1-0.4s0.1-0.3,0.1-0.4v0.1l0,0
	c0.1-0.1,0.1-0.2,0.2-0.2c0-0.1,0.1-0.1,0.1-0.2c0.1-0.2,0.2-0.4,0.2-0.5v-0.1c0,0,0,0,0-0.1c0-0.2,0.1-0.3,0.2-0.5s0.2-0.3,0.2-0.5
	c0,0.2,0,0.3-0.1,0.3c0,0.1-0.1,0.2-0.1,0.3c0.2-0.4,0.3-0.7,0.3-1c0.1-0.3,0.1-0.7,0.2-1.1c0.1,0,0.3,0,0.6,0c0.3,0,0.6-0.1,1-0.1
	s0.7-0.2,1.1-0.3s0.7-0.3,1-0.5c0,0,0-0.1,0.1-0.1s0.1-0.1,0.2-0.2c0.2-0.1,0.3-0.2,0.3-0.4c0-0.1,0-0.2,0-0.3
	C38.9,13.8,38.8,13.8,38.8,13.8 M20.9,24.2C20.9,24.2,20.9,24.3,20.9,24.2C20.8,24.2,20.9,24.2,20.9,24.2 M17.8,21.7
	C17.8,21.7,17.9,21.7,17.8,21.7C17.8,21.8,17.8,21.8,17.8,21.7 M20.4,16.4c0.1,0,0.1-0.1,0.2-0.1C20.5,16.4,20.5,16.5,20.4,16.4
	c0,0.1-0.1,0.1-0.1,0.2C20.3,16.5,20.3,16.5,20.4,16.4 M20.7,16.2L20.7,16.2C20.7,16.3,20.7,16.3,20.7,16.2L20.7,16.2
	C20.7,16.3,20.7,16.2,20.7,16.2 M20.9,20.6L20.9,20.6c0-0.1-0.1-0.1-0.2-0.2s-0.2-0.1-0.3-0.1c0-0.1-0.1-0.1-0.2-0.1
	s-0.1-0.1-0.2-0.1S19.9,20,19.8,20l0,0l0,0c-0.1-0.1-0.2-0.2-0.3-0.2c-0.1,0-0.2-0.1-0.3-0.2h0.1c0,0-0.1-0.1,0-0.2
	c0,0,0-0.1,0.1-0.2c0.1-0.3,0.1-0.7,0.2-1v-0.4l0,0l0,0h-0.1l0,0v-0.1c0,0,0-0.1,0.1-0.1c0-0.1,0.1-0.2,0.1-0.2
	c0.1-0.1,0.1-0.1,0.2-0.2c0,0,0.1-0.1,0.1-0.2s0.1-0.1,0.1-0.2c0,0,0.1-0.1,0.2-0.1s0.1-0.1,0.2-0.1c0,0,0,0,0.1,0c0,0,0,0,0.1-0.1
	l0.2-0.1l0.1-0.1l0.1-0.1v0.1c0,0,0,0,0,0.1c0,0,0.1,0,0.1-0.1c0,0,0-0.1,0.1-0.1l0,0l0,0c0.3-0.2,0.5-0.3,0.8-0.5
	c0.2-0.2,0.5-0.3,0.8-0.4c-0.1,0-0.1,0-0.2,0s-0.1,0.1-0.1,0.1l-0.1,0.1h-0.1c-0.1,0.1-0.3,0.2-0.4,0.3s-0.3,0.2-0.4,0.3
	s-0.3,0.2-0.4,0.2c0.2-0.2,0.3-0.3,0.6-0.5h0.1c0,0,0.1,0,0.1-0.1l0.1-0.1c0,0,0.1,0,0.1-0.1c0.3-0.2,0.6-0.3,0.9-0.5s0.7-0.3,1-0.4
	l0,0l0,0c0.1-0.1,0.3-0.2,0.5-0.2s0.4,0.1,0.5,0.2L25,15.1v0.1v0.1c-0.2,0.5-0.4,0.9-0.6,1.3c-0.2,0.4-0.5,0.8-0.7,1.3l-0.1,0.2
	c0,0.1-0.1,0.2-0.1,0.2c-0.1,0.3-0.3,0.5-0.4,0.8c-0.2,0.2-0.3,0.4-0.6,0.6h0.1l0,0l0,0c0,0.1-0.1,0.2-0.2,0.2l0,0l0,0
	c-0.1,0.2-0.2,0.3-0.4,0.4c-0.2,0.2-0.4,0.3-0.7,0.3l0,0h0.1c0,0,0,0,0,0.1c-0.1,0-0.1,0-0.1-0.1S21,20.6,20.9,20.6 M24.2,14.2
	c0.1,0,0.2,0,0.3,0C24.4,14.2,24.3,14.2,24.2,14.2c0,0.1-0.1,0.1-0.2,0.1C24,14.2,24.1,14.2,24.2,14.2 M22.1,1.9
	c0.1-0.1,0.3-0.1,0.4-0.2l0.1,0.1l0.1,0.1V2c0,0.1,0.1,0.2,0.1,0.2c0,0.2,0,0.4,0,0.6c0,0.2,0,0.4-0.1,0.5c0,0.2-0.1,0.5-0.1,0.7
	s-0.1,0.5-0.1,0.7c0,0.1,0,0.2,0,0.3s0,0.2-0.1,0.3c0,0.1-0.1,0.2-0.1,0.3s0,0.2-0.1,0.3c0,0,0,0.1-0.1,0.1c0,0,0,0.1-0.1,0.1
	c-0.1,0.2-0.2,0.4-0.2,0.6c0,0,0,0.1,0,0.2c0,0.1,0,0.1-0.1,0.2l0.1,0.2l-0.1,0.1c-0.1,0.1-0.1,0.2-0.2,0.3l-0.1,0.4
	c0,0.1,0,0.1-0.1,0.2c0,0,0,0.1,0,0.2c-0.3,0.6-0.5,1.3-0.7,2s-0.5,1.3-0.8,2c0,0.1-0.1,0.2-0.1,0.2c0,0.1-0.1,0.1-0.1,0.2
	c0,0,0,0,0,0.1c0,0-0.1,0-0.1-0.1v-0.1v-0.1v-0.1v-0.2v-0.1v-0.1c0-0.1,0-0.2,0-0.5c0-0.1,0-0.1,0-0.2c0-0.1,0-0.2,0-0.2
	c0-0.2,0-0.3,0-0.4c0-0.1,0-0.3,0-0.4c0-0.1,0-0.3,0-0.4c0-0.1,0-0.3,0-0.5c0-0.5,0.1-1,0.1-1.5s0.1-0.9,0.2-1.4c0-0.1,0-0.1,0-0.2
	c0-0.1,0-0.1,0-0.2V6.1c0,0,0-0.1,0.1-0.1V5.8C20,5.4,20.1,5,20.2,4.7c0.1-0.3,0.3-0.6,0.4-0.9c0-0.1,0-0.3,0.1-0.4
	c0.1-0.1,0.1-0.2,0.1-0.3V3c0,0,0-0.1,0.1-0.1c0,0,0,0,0.1,0c0,0,0,0,0.1,0l0.1-0.1c0,0,0-0.1,0.1-0.2c0-0.1,0.1-0.1,0.2-0.2
	C21.8,2,22,1.9,22.1,1.9 M22.1,0.9c-0.2,0.1-0.4,0.2-0.6,0.2v0.1c0,0-0.1,0-0.1,0.1s-0.1,0-0.1,0.1c-0.2,0.1-0.3,0.2-0.5,0.3
	S20.5,1.9,20.4,2s-0.1,0.1-0.2,0.2c0,0.1-0.1,0.1-0.1,0.2c-0.1,0.1-0.2,0.2-0.3,0.3c0,0.1,0,0.2-0.1,0.4c-0.1,0.1-0.1,0.2-0.2,0.4
	v0.1c0,0,0,0.1-0.1,0.1c-0.2,0.3-0.3,0.6-0.5,0.9c-0.1,0.3-0.3,0.6-0.4,1c-0.1,0.3-0.2,0.6-0.3,0.9c-0.1,0.3-0.1,0.6-0.2,1
	c0,0,0,0,0,0.1c0,0,0,0,0,0.1s0,0,0,0l0,0c0,0.1,0,0.1,0,0.2c0,0,0,0.1,0,0.2c-0.2,0.7-0.4,1.4-0.5,2.1c-0.1,0.7-0.3,1.4-0.4,2.2
	c0,0.1,0,0.2-0.1,0.2c0,0.1,0,0.1,0,0.2V13c0,0.1,0,0.2,0,0.3v0.2v0.1v0.1v0.2c0,0.1,0,0.2,0,0.2c0,0.1,0,0.1,0,0.2
	c0,0.1,0,0.1,0,0.2v0.1c-0.2,0.5-0.4,1-0.5,1.6c-0.2,0.5-0.3,1-0.5,1.6c-0.1,0.4-0.2,0.8-0.3,1.2c-0.1,0.4-0.2,0.9-0.2,1.3
	c0,0.2-0.1,0.3-0.1,0.5s0,0.3,0,0.5v0.2c0,0.1,0,0.2,0,0.2v0.1v0.1c0,0,0,0,0,0.1c0,0.2,0,0.4,0,0.6s0.1,0.3,0.1,0.5h0.1h0.1
	c0,0.1,0,0.2,0.1,0.3c0,0.1,0.1,0.2,0.2,0.3h0.1c0,0,0,0,0.1,0c0-0.1,0-0.1,0.1-0.2c0-0.1,0-0.1,0.1-0.2h0.1h0.1
	c0-0.2,0.1-0.3,0.1-0.5c0.1,0,0.1,0,0.2,0H17c0-0.1,0.1-0.2,0.3-0.3v-0.1c0-0.1,0-0.1,0-0.1h0.1h0.1l0,0l0,0v-0.1c0,0,0,0,0.1,0h0.1
	c0,0,0,0,0.1,0h0.1c0,0,0,0,0.1,0c0-0.1,0.1-0.2,0.2-0.2v-0.2h0.1c0,0,0,0,0.1,0l0,0c0,0,0,0,0,0.1c0.1,0.1,0.1,0.2,0.2,0.2
	c0.1,0.1,0.1,0.1,0.1,0.2l0.1,0.1c0,0,0,0,0.1,0.1c0,0,0,0,0-0.1c0,0,0,0,0-0.1l0,0l0,0H19c0,0.1,0.1,0.2,0.2,0.2
	c0.1,0.1,0.1,0.2,0.1,0.3l-0.1-0.1c0,0,0-0.1-0.1-0.1c0,0.1,0.1,0.1,0.1,0.2s0.1,0.1,0.2,0.1c0,0-0.1,0-0.1-0.1l0,0
	c0,0,0-0.1-0.1-0.1c0,0,0-0.1-0.1-0.1c0.1,0.1,0.2,0.2,0.3,0.3c0,0,0.1,0.1,0.1,0.2s0.1,0.1,0.1,0.1l0.1,0.1c0.1,0,0.1,0.1,0.2,0.1
	c0,0,0,0,0,0.1c0,0,0,0,0,0.1v0.1c0,0,0,0,0,0.1c0.2,0.3,0.4,0.5,0.7,0.7h0.1v-0.1l-0.1-0.1c-0.1,0-0.1,0-0.1-0.1l0,0
	c0.1,0,0.2,0.1,0.3,0.1c0.2,0,0.4,0,0.6-0.1s0.4-0.1,0.6,0c0,0-0.1-0.1-0.2-0.1s-0.1,0-0.2-0.1c0.2-0.1,0.3-0.2,0.5-0.3
	c0.1,0,0.2,0,0.2-0.1s0.1-0.1,0.1-0.1s0-0.1,0.1-0.1l0.1-0.1l0.1-0.1c0,0,0.1,0,0.1-0.1c0,0,0-0.1,0.1-0.1l0.1-0.1c0,0,0,0,0.1-0.1
	c0,0,0,0,0.1,0c0,0,0,0,0-0.1c0,0,0,0,0-0.1s0.1-0.2,0.2-0.2h-0.1v-0.1v-0.1l0.1-0.1c0.1-0.2,0.3-0.3,0.4-0.5s0.2-0.4,0.3-0.5
	c0,0,0-0.1,0.1-0.1s0-0.1,0-0.1v-0.1l0,0v0l0.1-0.1l0.1-0.1c0-0.1,0-0.1,0-0.2c0,0,0-0.1,0.1-0.1v-0.1c0,0,0,0,0-0.1
	c0.2-0.3,0.4-0.7,0.6-1s0.4-0.7,0.5-1c0-0.1,0.1-0.1,0.1-0.2c0,0,0,0,0.1-0.2c0.2-0.3,0.3-0.7,0.4-1c0,0,0.1-0.1,0.1-0.2l0,0
	c0,0,0-0.1,0.1-0.1v-0.1c0-0.1,0-0.1,0-0.1l0,0l0,0c0-0.1,0-0.1,0-0.2l0,0l0,0c0-0.1,0-0.1,0-0.2c0-0.1,0-0.1,0-0.2
	c0-0.1,0-0.1,0-0.2c0,0,0-0.1,0-0.2l0,0c0,0,0,0,0-0.1s0-0.1,0-0.1c0-0.2,0-0.3,0-0.4c-0.1-0.1-0.1-0.3-0.1-0.4c0,0-0.1,0,0,0.1v0.1
	c0,0,0,0.1-0.1,0.1c0,0-0.1-0.1,0-0.1c0-0.1,0-0.1,0-0.1s-0.1,0-0.2-0.1c0-0.1-0.1-0.3-0.2-0.4c0,0-0.1-0.1-0.2-0.1s-0.1,0-0.2-0.1
	c-0.1,0-0.1,0-0.2,0s-0.1,0-0.2,0.1c-0.1,0-0.2,0-0.2,0c-0.1,0-0.1,0-0.2,0s-0.1,0.1-0.1,0.1l-0.1-0.1h-0.1h-0.1c-0.1,0-0.2,0-0.4,0
	c-0.1,0-0.2,0-0.3,0c-0.2,0-0.3,0.1-0.4,0.1s-0.3,0.1-0.4,0.1c-0.3,0.1-0.5,0.2-0.7,0.3l-0.4,0.2c-0.2,0.1-0.3,0.1-0.4,0.1l0,0
	c0-0.2,0.1-0.3,0.1-0.5s0.1-0.4,0.1-0.5c0,0,0,0,0-0.1c0,0,0,0,0-0.1s0,0,0,0s0.1-0.1,0-0.2c0-0.1,0-0.1,0-0.2c0,0,0-0.1,0.1-0.1
	c0,0,0-0.1,0.1-0.1v-0.1v-0.1c0-0.1,0.1-0.2,0.1-0.3s0.1-0.2,0.1-0.3c0,0,0-0.1,0.1-0.1c0,0,0,0,0.1-0.1s0.1-0.2,0.2-0.3
	c0-0.1,0.1-0.2,0.1-0.3s0.1-0.1,0.1-0.2c0-0.1,0.1-0.1,0.1-0.2c0.2-0.3,0.3-0.6,0.4-0.9c0.1-0.3,0.2-0.7,0.3-1
	c0-0.1,0.1-0.1,0.1-0.2V8.5c0-0.1,0-0.2,0.1-0.2c0-0.1,0.1-0.1,0.1-0.2c0-0.1,0-0.1,0-0.2V7.8c0,0,0,0,0-0.1s0-0.2,0.1-0.3
	c0-0.1,0.1-0.1,0.1-0.2c0-0.1,0-0.2,0-0.2c0-0.1,0.1-0.1,0.1-0.2c0-0.1,0-0.2,0.1-0.3c0-0.1,0-0.2,0.1-0.3c0-0.1,0-0.1,0-0.2
	s0-0.1,0.1-0.1l-0.3-0.1c0,0,0.1-0.1,0.1-0.2c0-0.1,0-0.1,0-0.2V5.3V5.2c0-0.1,0-0.2,0.1-0.2c0,0,0-0.1,0-0.2s0-0.1,0-0.2
	c0.1-0.1,0.1-0.2,0.1-0.3s0-0.2,0.1-0.4c0.1-0.4,0.1-0.8,0.1-1.2V2.3c0-0.1,0-0.2,0-0.4c0-0.1,0-0.2-0.1-0.3c0,0,0-0.1-0.1-0.1
	c0-0.1-0.1-0.2-0.1-0.2c0-0.1,0-0.2-0.1-0.2c-0.1-0.2-0.2-0.4-0.4-0.5c-0.1,0-0.2,0-0.3-0.1c-0.1,0-0.2,0-0.3-0.1h-0.1
	C22.5,0.7,22.3,0.8,22.1,0.9 M11.5,4.3c0,0.5-0.1,1-0.1,1.5s0,1,0,1.5c0,0.2,0,0.3,0,0.5c0,0.1,0,0.3,0,0.4c0,0.1,0,0.3-0.1,0.4
	c0,0.1-0.1,0.3-0.1,0.5s0,0.3,0,0.5s0,0.3,0,0.5c0,0.3,0,0.6,0,0.9c0,0.3,0,0.6,0,1s-0.1,0.7-0.1,1.1c-0.1,0.4-0.1,0.7,0,1.1
	c0,0.3,0,0.7,0,1.1c0,0.4,0,0.7,0,1.1c-0.5,0-1.1,0.1-1.7,0.1s-1.1,0-1.6,0.1c-0.1,0-0.2,0-0.4,0c-0.1,0-0.3,0-0.4-0.1
	c0-0.1,0-0.2,0-0.3S7.1,16,7.1,16c0-0.2,0-0.3,0.1-0.5c0.1-0.1,0.1-0.3,0.2-0.4c0-0.5,0.1-0.9,0.3-1.4s0.3-0.9,0.4-1.3
	c0-0.1,0.1-0.2,0.1-0.3s0-0.2,0.1-0.2c0.1-0.4,0.2-0.8,0.4-1.2C8.9,10.3,9,9.9,9.1,9.5c0.1-0.2,0.2-0.4,0.3-0.6s0.2-0.4,0.3-0.6
	C9.8,8.1,9.9,7.9,10,7.7s0.2-0.4,0.3-0.6c0.1-0.2,0.2-0.4,0.3-0.6c0.1-0.2,0.2-0.4,0.3-0.6c0.1-0.2,0.2-0.3,0.3-0.4
	c0.1-0.1,0.1-0.3,0.2-0.4c0-0.1,0.1-0.2,0.1-0.2C11.4,4.5,11.4,4.4,11.5,4.3C11.4,4.3,11.4,4.3,11.5,4.3L11.5,4.3z M11.8,0.7
	c-0.2,0-0.3,0-0.5,0.1S10.9,1,10.7,1.1s-0.4,0.2-0.6,0.3C9.8,1.6,9.4,1.9,9.2,2.2c-0.3,0.3-0.5,0.7-0.8,1c-0.7,1-1.3,2.2-1.9,3.4
	S5.4,9,5,10.3c0,0.1-0.1,0.2-0.1,0.3s0,0.2-0.1,0.3c-0.2,0.4-0.3,0.9-0.5,1.4c-0.1,0.5-0.3,1-0.4,1.4c0,0.1,0,0.2,0,0.3
	s0,0.2-0.1,0.3c-0.1,0.4-0.2,0.9-0.4,1.3C3.3,16,3.1,16.4,3,16.8c0,0.1-0.1,0.2-0.1,0.3c0,0.1-0.1,0.2-0.1,0.3c0,0.1,0,0.1,0,0.1
	v0.1c-0.4,0.2-0.9,0.4-1.2,0.7c-0.4,0.2-0.8,0.5-1.1,0.8c-0.1,0.2-0.2,0.3-0.3,0.4C0.1,19.6,0,19.7,0,19.9V20c0,0,0,0,0,0.1
	c0.2,0.1,0.4,0.1,0.6-0.1c0.1-0.1,0.3-0.2,0.4-0.3l-0.1,0.1v0.1c0.2-0.1,0.4-0.2,0.6-0.3s0.3-0.3,0.5-0.4c0.1,0,0.2-0.1,0.2-0.1
	s0.1,0,0.2,0C2.3,19.6,2.1,20,2,20.4s-0.3,0.8-0.4,1.2c-0.2,0.5-0.4,1.1-0.5,1.7S0.8,24.5,0.7,25c-0.1,0.1-0.1,0.2-0.1,0.2
	s0,0.1,0,0.2s-0.1,0.2-0.2,0.3S0.2,25.9,0.2,26c-0.1,0.2-0.1,0.4,0,0.6s0.1,0.4,0.2,0.5l0.1,0.1c0,0.1,0,0.1,0,0.1l0.1,0.1l0.1,0.1
	c0,0.1,0.1,0.2,0.2,0.4s0.3,0.2,0.4,0.3c0.2,0.1,0.3,0.1,0.5,0.1s0.3,0,0.5-0.2s0.4-0.5,0.6-0.7s0.4-0.5,0.7-0.6
	c0-0.1,0.1-0.2,0.1-0.2c0.1-0.1,0.1-0.1,0.1-0.2s0.1-0.2,0-0.3s0-0.2,0-0.4c0-0.1,0-0.1,0-0.2s0-0.1,0-0.2c0.2-0.2,0.3-0.5,0.4-0.8
	s0.2-0.6,0.3-0.8c0-0.1,0-0.1,0.1-0.2c0-0.1,0-0.2,0-0.2v-0.2c0-0.1,0-0.1,0.1-0.2s0-0.1,0-0.1c0-0.1,0-0.3,0-0.3c0-0.1,0-0.2,0-0.3
	c0,0,0.1-0.1,0.1-0.2s0-0.1,0.1-0.2l0,0c0,0,0,0,0.1-0.1c0-0.2,0.1-0.3,0.1-0.4c0,0,0-0.1,0.1-0.1l0.1-0.1c0-0.1,0.1-0.2,0.1-0.3
	c0-0.1,0.1-0.2,0.1-0.3c0-0.1,0.1-0.1,0.1-0.2c0,0,0-0.1,0.1-0.2c0-0.1,0-0.1,0-0.2s0-0.1,0-0.1c0-0.1,0-0.2,0.1-0.2
	c0-0.1,0.1-0.3,0.1-0.4S6,18.9,6,18.8c0.1-0.2,0.1-0.3,0.2-0.4c0-0.1,0.1-0.3,0.2-0.4c0.5-0.1,0.9-0.1,1.4-0.1s0.9,0,1.4,0.1
	c-0.1,0-0.1,0-0.2,0s-0.1,0-0.2,0c0.4,0,0.7,0,1.1,0s0.8,0,1.1,0c0,0-0.1,0-0.3,0c-0.2,0-0.2,0-0.2,0c0.1,0,0.2,0,0.3,0
	c0.1,0,0.2,0,0.2,0c0,0.3,0.1,0.7,0.1,1.2s0,0.8,0,1.2c0,0.2,0,0.4,0,0.7s0,0.4,0,0.7c0,0.8,0,1.6-0.1,2.2s-0.1,1.2,0,1.9
	c0,0.1,0.1,0.2,0.1,0.2c0,0.2,0,0.5,0,0.7s0,0.5,0.1,0.7c0.1,0,0.1,0.1,0.1,0.2s0,0.1,0,0.2s0.1,0.1,0.1,0.2s0.1,0.2,0.1,0.2
	c0.1,0.2,0.1,0.3,0.2,0.5c0,0.1,0.1,0.1,0.1,0.2s0.1,0.1,0.2,0.1l0.1-0.1c0,0,0-0.1,0.1-0.1s0.1,0,0.2,0.1s0.2,0.1,0.2,0.2
	s0.1,0.1,0.1,0.1s0,0,0-0.1c0.1,0,0.1-0.1,0.2-0.2s0.1-0.1,0.2-0.1c0-0.1,0-0.2,0-0.2c0-0.1,0-0.2,0.1-0.3c0,0-0.1-0.1-0.1-0.2
	s0.1-0.2,0.1-0.2s0,0,0-0.2c0.1-0.2,0.1-0.3,0.2-0.3s0.1-0.1,0.2-0.3c0-0.1,0.1-0.2,0.1-0.3c0-0.1,0-0.2,0-0.3
	c0-0.2,0.1-0.4,0.1-0.7c0-0.3,0-0.6,0.1-0.7v-0.1c0.1-0.2,0.1-0.5,0.1-0.7c0-0.3,0-0.5,0-0.8s-0.1-0.6-0.1-0.8c0-0.3,0-0.5,0-0.8
	c-0.1-0.2-0.1-0.4-0.1-0.6s0-0.4,0-0.7c0-0.2,0-0.3,0-0.5s0-0.3,0-0.4c0,0,0-0.1,0-0.2s0-0.1,0-0.2c0-0.2,0-0.3,0.1-0.5
	c0-0.2,0.1-0.3,0-0.5c0-0.1,0-0.2-0.1-0.3c0-0.1,0-0.2,0-0.3c0.4,0,0.8-0.1,1.1-0.2c0.3-0.1,0.6-0.3,0.9-0.4c0,0,0,0,0-0.1
	s0,0,0-0.1c0.1,0,0.1-0.1,0.2-0.2c0,0,0-0.1-0.1,0c0,0-0.1,0,0-0.1l0,0c0,0,0,0,0.1,0c-0.1,0-0.1,0-0.1-0.1s0.1-0.1,0.1-0.1
	s0.1,0,0.2-0.1c-0.1-0.1,0-0.2,0-0.2c-0.1,0-0.1,0-0.1-0.1c0,0,0,0-0.1,0c0-0.1,0-0.1,0.1-0.2c0-0.1,0.1-0.1,0.1-0.2
	c-0.1,0-0.1,0-0.1-0.1s0-0.1,0-0.1c-0.2,0-0.3,0-0.5,0s-0.3-0.1-0.4-0.2c-0.2,0-0.5,0.1-0.7,0.2s-0.3,0.3-0.6,0.3
	c0-0.2,0.1-0.3,0-0.5c0-0.2,0-0.4-0.1-0.6l-0.1-0.1v-0.1c0.1-0.2,0.1-0.5,0.2-0.8c0-0.3,0-0.6,0-0.8c-0.1-0.2-0.2-0.5-0.2-0.7
	c0-0.3,0-0.5,0-0.8c0-0.1,0-0.1,0-0.2v-0.1V11c0,0,0-0.1,0.1-0.2c0-0.2,0.1-0.5,0.1-0.8S14,9.5,14,9.2c0-0.1,0-0.2,0-0.3
	s0-0.2,0-0.3s0-0.3,0.1-0.4s0.1-0.2,0.1-0.3c-0.1-0.2-0.1-0.4,0-0.6c0.1-0.2,0.1-0.4,0.1-0.6c0-0.1,0-0.2,0-0.3s0-0.2,0-0.3
	s-0.1-0.2-0.1-0.3s-0.1-0.2-0.1-0.3s0-0.1,0-0.2c0,0,0-0.1,0-0.2c0-0.1,0-0.2,0-0.2c0-0.1-0.1-0.1-0.1-0.2V4.6V4.5V4.4
	c0,0,0,0,0-0.1V4.2V4.1C14,4,13.9,4,13.9,4V3.9V3.8c0-0.1,0-0.2-0.1-0.2c0-0.1-0.1-0.1-0.1-0.2c0-0.2-0.1-0.5-0.1-0.7
	S13.5,2.2,13.4,2c0-0.1-0.1-0.1-0.1-0.2c0,0-0.1-0.1-0.2-0.2c-0.1,0-0.2-0.1-0.3-0.2s-0.2-0.2-0.3-0.3c-0.1,0-0.2-0.1-0.3-0.1
	C12.1,0.9,12,0.8,12,0.7C12.1,0.8,11.9,0.7,11.8,0.7"/>
</svg>
