<?xml version="1.0" encoding="utf-8"?>
<!-- Generator: Adobe Illustrator 19.2.1, SVG Export Plug-In . SVG Version: 6.00 Build 0)  -->
<svg version="1.1" id="Layer_1" xmlns="http://www.w3.org/2000/svg" xmlns:xlink="http://www.w3.org/1999/xlink" x="0px" y="0px"
	 viewBox="0 0 71.3 32.4" style="enable-background:new 0 0 71.3 32.4;" xml:space="preserve">
<style type="text/css">
	.st0{fill:#082432;}
</style>
<path class="st0" d="M62.4,25.4L62.4,25.4h0.1c0,0.2-0.1,0.4-0.1,0.6c-0.1,0.2-0.1,0.4-0.2,0.6c0,0.2-0.1,0.4-0.1,0.7
	c0,0.2-0.1,0.4-0.1,0.7c-0.1,0.4-0.1,0.9-0.2,1.3c0,0.5-0.1,0.9-0.1,1.4h-0.1c0,0-0.1,0-0.2,0c-0.2,0-0.3,0-0.4-0.1
	c-0.1-0.1-0.2-0.2-0.3-0.2l0,0l0,0c-0.1,0-0.2-0.1-0.2-0.2c-0.1-0.1-0.1-0.1-0.2-0.2c0,0,0,0-0.1,0s0,0-0.1-0.1L60,29.8
	c0,0-0.1-0.1-0.2-0.1c-0.1,0-0.1-0.1-0.2-0.2c-0.1,0-0.1-0.1-0.1-0.2s-0.1-0.1-0.1-0.2c0,0.1,0.1,0.2,0.2,0.3
	c0.1,0.1,0.2,0.2,0.2,0.3c-0.1,0-0.1,0-0.1-0.1s-0.1-0.1-0.1-0.1l0,0l0,0c0-0.1-0.1-0.1-0.1-0.2l-0.1-0.1c-0.1-0.1-0.1-0.1-0.1-0.2
	s0-0.1-0.1-0.1c0,0,0,0,0-0.1c0,0,0,0,0-0.1c0,0,0-0.1-0.1-0.1c0,0-0.1-0.1-0.1-0.2c0,0,0-0.1,0-0.2l0,0v-0.1h0.1V28v-0.1v-0.1
	c0-0.1,0.1-0.1,0.2-0.2c0.1-0.1,0.2-0.2,0.2-0.2c0.1-0.1,0.1-0.1,0.2-0.2l0.1-0.1l0.1-0.1l0.1-0.1l0.1-0.1l0,0l0,0l0.1-0.1
	c0.1-0.1,0.3-0.2,0.4-0.3s0.3-0.2,0.4-0.3l0,0c0.1-0.1,0.3-0.2,0.4-0.3c0.2-0.1,0.3-0.2,0.5-0.3l0,0l0,0
	C62.3,25.5,62.3,25.5,62.4,25.4C62.4,25.5,62.4,25.4,62.4,25.4 M60.1,11.1c-0.1,0-0.1,0-0.1,0.1l0,0c0,0,0,0,0,0.1l-0.1,0.1
	l-0.2,0.3c0,0,0,0.1-0.1,0.1s0,0.1,0,0.1c-0.2,0.5-0.3,1.1-0.4,1.6c-0.1,0.6-0.3,1.1-0.4,1.7c0,0.2-0.1,0.4-0.2,0.6
	c-0.1,0.2-0.1,0.4-0.1,0.6c0,0.1-0.1,0.2-0.1,0.3c0,0.4-0.1,0.8-0.1,1.1c0,0.4-0.1,0.8-0.1,1.2c0,0.1,0,0.2,0,0.3s0,0.2,0,0.3v0.5
	c0,0.5,0.1,0.9,0.1,1.4s0.1,0.8,0.3,1.1c0,0.1,0.1,0.2,0.2,0.2l0.1,0.1c0,0,0.1,0,0.1,0.1c0,0,0.1,0.1,0.1,0.2c0,0,0.1,0.1,0.1,0.2
	c0.1,0.1,0.3,0.2,0.5,0.4c0.2,0,0.3,0,0.4,0c0.1,0,0.3,0,0.4-0.1c0-0.1,0.1-0.2,0.3-0.3c0.1-0.1,0.2-0.2,0.3-0.2
	c0,0,0.1-0.1,0.1-0.2c0.2-0.2,0.3-0.4,0.4-0.7s0.3-0.4,0.4-0.7l0,0l0,0v-0.1v-0.1l0.1-0.1v-0.1c0,0,0-0.1,0.1-0.1l0.1-0.1
	c0-0.1,0.1-0.1,0.1-0.3c0.2-0.3,0.3-0.6,0.5-0.9c0.1-0.3,0.3-0.6,0.5-0.9c-0.1,0.3-0.1,0.7-0.2,1.1c-0.1,0.4-0.1,0.8-0.2,1.1
	c-0.1,0.6-0.2,1.2-0.4,1.8c0,0,0,0.1-0.1,0.2s-0.1,0.1-0.1,0l0,0c0,0.1-0.1,0.2-0.1,0.3c0,0.1,0,0.2,0,0.3c-0.2,0.1-0.3,0.3-0.5,0.4
	s-0.3,0.3-0.5,0.5c-0.1,0.1-0.1,0.2-0.2,0.3C61,25,61,25.1,60.9,25.2l-0.4,0.5c-0.2,0.2-0.3,0.3-0.5,0.5s-0.3,0.3-0.5,0.5
	c-0.1,0.1-0.3,0.3-0.4,0.4s-0.2,0.3-0.4,0.5c0,0,0,0,0,0.1c0,0,0,0,0,0.1v0.1V28c-0.1,0.1-0.1,0.3-0.2,0.4c0,0,0,0.1-0.1,0.1v0.1
	c0,0.2-0.1,0.3,0,0.5c0,0.2,0.1,0.3,0.1,0.5l0.1,0.2c0.1,0.1,0.1,0.2,0.2,0.2c0.1,0.1,0.1,0.2,0.2,0.3c0.2,0.3,0.3,0.5,0.5,0.7
	c0.1,0.1,0.2,0.2,0.3,0.3c0.1,0.1,0.2,0.2,0.3,0.3c0.1,0.1,0.2,0.1,0.2,0.2c0.1,0.1,0.2,0.1,0.3,0.2h0.1h0.1l0.1,0.1
	c0.1,0.1,0.2,0.2,0.4,0.2s0.3,0.1,0.5,0.1V32H62l0,0l0,0c0,0,0.1,0.1,0.1,0c0.1,0,0.1,0,0.1,0c0,0.1,0,0.2,0.1,0.2s0.2,0.1,0.4,0.1
	s0.2,0,0.3-0.1h0.1c0.1,0,0.1,0,0.1,0v-0.1V32c0.1,0,0.1,0,0.2,0c0-0.1,0.1-0.1,0.1-0.2c0,0,0-0.1,0.1-0.1l0,0
	c0-0.1,0.1-0.1,0.1-0.2v-0.3v-0.1V31c0-0.1,0.1-0.2,0.1-0.2c0-0.1,0-0.2,0-0.3c0-0.2,0-0.3,0-0.5s0-0.3,0-0.5c0-0.1,0-0.2,0-0.2
	s0-0.1,0-0.2c0-0.2,0.1-0.4,0.1-0.5s0-0.2,0-0.3v-0.1v-0.1c0-0.1,0-0.2,0.1-0.3c0-0.1,0-0.2,0-0.3c0-0.1,0-0.2,0-0.2
	c0-0.1,0-0.2,0-0.3c0-0.1,0-0.2,0.1-0.3c0-0.2,0.1-0.4,0.1-0.5s0.1-0.2,0.1-0.2c0-0.1,0-0.2,0-0.3c0-0.1,0-0.2,0-0.3
	c0-0.1,0-0.2,0-0.3c0-0.1,0.1-0.2,0.1-0.2s0.1-0.1,0.1-0.2c0.1-0.2,0.2-0.3,0.2-0.5c0.1-0.1,0.2-0.2,0.3-0.3
	c0.1-0.1,0.2-0.2,0.3-0.3c0.1-0.1,0.2-0.2,0.3-0.3s0.2-0.2,0.3-0.3c0.3-0.3,0.7-0.6,1.1-1c0.1,0,0.1-0.1,0.2-0.1l0.1-0.1
	c0.1-0.1,0.2-0.1,0.3-0.2s0.2-0.1,0.3-0.2l0,0l0,0c0.1-0.1,0.2-0.1,0.2-0.2c0.1-0.1,0.2-0.1,0.3-0.2c0,0-0.1,0-0.1-0.1
	c0,0,0,0,0.1-0.1s0.1,0,0.1-0.1c0.2-0.2,0.4-0.3,0.6-0.4c0.2-0.1,0.4-0.3,0.6-0.4l0,0l0,0h0.1c0,0,0.1,0,0.1-0.1
	c0.1-0.1,0.2-0.1,0.3-0.2c0.1,0,0.2-0.1,0.3-0.2c-0.2,0-0.4,0-0.6,0c-0.2,0.1-0.3,0.1-0.5,0.2c0.1-0.1,0.2-0.1,0.3-0.1
	s0.2-0.1,0.3-0.1l0,0l0,0c0.1-0.1,0.2-0.2,0.3-0.2c0.1-0.1,0.2-0.1,0.3-0.2c0,0,0.1-0.1,0.2-0.1s0.1,0,0.2-0.1
	c0.1,0,0.2-0.1,0.3-0.2l0,0h-0.1c0,0-0.1,0-0.2,0h-0.1h-0.1v-0.1l0,0c-0.1,0-0.2,0-0.3,0.1c-0.1,0-0.2,0.1-0.3,0.1s-0.2,0.1-0.3,0.1
	s-0.2,0.1-0.3,0.1c-0.2,0.1-0.4,0.2-0.6,0.3c-0.2,0.1-0.4,0.2-0.5,0.3c-0.2,0.1-0.3,0.2-0.5,0.3s-0.3,0.2-0.5,0.3s-0.3,0.2-0.5,0.3
	s-0.3,0.2-0.5,0.3c0,0-0.1,0-0.1,0.1l0,0h-0.1l-0.1,0.1c0,0,0,0.1-0.1,0.1c0,0-0.1,0-0.1,0.1c-0.1,0-0.1,0-0.1,0h-0.1
	c0-0.1,0-0.2,0.1-0.4c0-0.1,0.1-0.2,0.1-0.3l0.1-0.1v-0.1v-0.1c0-0.2,0-0.5,0-0.7s0-0.5,0-0.8c0-0.1,0-0.2,0.1-0.4
	c0-0.2,0.1-0.3,0.1-0.4c0-0.1,0.1-0.3,0.1-0.4v-0.1c0,0,0,0,0-0.1l0,0l0,0v-0.1c0.1-0.3,0.2-0.6,0.3-0.9c0.1-0.3,0.2-0.6,0.3-0.9
	l0.1-0.3v-0.1v-0.1c0,0,0-0.1,0.1-0.2c0.1-0.2,0.1-0.4,0.1-0.6c0-0.2,0.1-0.4,0.2-0.5l0.1-0.1v-0.1c0,0,0,0,0-0.1c0,0,0.1,0,0-0.1
	V13l0,0l0,0c0-0.1,0-0.1,0-0.2s0.1-0.1,0.1-0.1c0.1-0.1,0.1-0.3,0-0.5v-0.1V12c0,0,0-0.1-0.1-0.1s0,0,0-0.1c-0.1,0-0.2,0-0.2-0.1
	c0,0,0,0-0.1,0h-0.1H67h-0.1c-0.1,0-0.1,0-0.2,0h-0.1l-0.1,0.1c-0.2,0.1-0.3,0.2-0.3,0.3c0,0,0,0,0-0.1s0,0,0-0.1
	c-0.1,0-0.2,0-0.2,0.1v0.1c0,0,0,0,0,0.1c0,0,0,0-0.1,0.1c-0.2,0.2-0.3,0.5-0.4,0.8c0,0.1,0,0.1,0,0.2l-0.1,0.1
	c-0.1,0.1-0.2,0.3-0.2,0.4c0,0.1,0,0.1,0,0.2c0,0.1,0,0.1,0,0.2c0,0.1-0.1,0.2-0.1,0.3c-0.1,0.1-0.1,0.1-0.2,0.2
	c-0.1,0.2-0.2,0.4-0.3,0.6c-0.1,0.2-0.2,0.4-0.3,0.6c0,0.1-0.1,0.2-0.2,0.2c-0.1,0.3-0.3,0.6-0.5,1c-0.1,0.1-0.1,0.1-0.1,0.2
	c0,0.1-0.1,0.1-0.1,0.2c0,0,0,0.1-0.1,0.1c0,0.1-0.1,0.2-0.2,0.3c-0.2,0.3-0.3,0.6-0.5,0.9c-0.2,0.3-0.3,0.6-0.4,0.9
	C62.1,19.8,62,19.9,62,20c-0.1,0.1-0.1,0.2-0.2,0.4l-0.1,0.3v0.1c0,0,0,0,0,0.1c0,0.1-0.1,0.2-0.1,0.2s-0.1,0.1-0.2,0.2
	c0,0.1-0.1,0.1-0.1,0.2s-0.1,0.1-0.2,0.2c0,0-0.1,0-0.1,0.1c0,0,0,0-0.1,0c0,0-0.1,0-0.1-0.1v-0.1h-0.1c0,0,0,0-0.1,0
	c0,0,0-0.1,0-0.2s0-0.2-0.1-0.2l0,0l0,0c0-0.2,0-0.4,0-0.5c0-0.2,0-0.4,0-0.6c0-0.1,0-0.1,0-0.2c0-0.1,0-0.1,0-0.2c0,0,0,0,0-0.1
	c0,0,0,0,0-0.1s0.1-0.2,0.1-0.3s0-0.2,0-0.3s0-0.2,0-0.3l0,0l0,0v-0.2v-0.1l0,0l0,0v-0.1v-0.1l0,0l0,0V18v-0.1v-0.1
	c0-0.1,0-0.1,0-0.2c0-0.1,0-0.1,0.1-0.2l0.1-0.4c0-0.1,0.1-0.2,0.1-0.2c0-0.1,0.1-0.2,0.1-0.2l0.1-0.1c0,0,0-0.1,0.1-0.1l0,0
	c0-0.1,0-0.2,0-0.2s0-0.1,0-0.2l0.1-0.1c0-0.1,0-0.1,0-0.2c0-0.1,0-0.1,0.1-0.2c0,0,0-0.1,0.1-0.1c0-0.1,0-0.1,0.1-0.1
	c0-0.1,0.1-0.2,0.1-0.2c0-0.1,0-0.2,0-0.3V14l0,0c0,0,0,0,0-0.1l0.1-0.1c0-0.1,0.1-0.2,0.1-0.4C62,13.3,62,13.1,62,13l0,0l0,0
	c0,0,0-0.1,0-0.2s0-0.1,0-0.2c0-0.2-0.1-0.3-0.1-0.4c0-0.1-0.1-0.2-0.1-0.4h-0.1c-0.1,0-0.1,0-0.2,0h-0.1l0,0c0-0.1-0.1-0.2-0.1-0.2
	c0-0.1,0-0.1,0-0.1s-0.1-0.1-0.1,0c-0.1,0-0.1,0-0.2,0c-0.1,0-0.2-0.1-0.4-0.1c-0.1-0.1-0.3-0.1-0.4-0.2l0,0
	C60.2,11.1,60.1,11.1,60.1,11.1 M52.7,21.9L52.7,21.9L52.7,21.9L52.7,21.9L52.7,21.9z M50.3,12.3c0.1-0.1,0.1-0.1,0.2-0.1
	c0.1,0,0.2,0.1,0.3,0.2c0.1,0.1,0.1,0.2,0.1,0.2s0,0.1-0.1,0.1c0,0.2-0.1,0.3-0.1,0.5s-0.1,0.4-0.1,0.5c-0.2,0.1-0.5,0.1-0.8,0.1
	c-0.1,0-0.2,0-0.4-0.1c-0.1-0.1-0.1-0.1-0.1-0.1c0-0.1,0-0.1,0.1-0.2l0,0l0,0l0.1-0.1c0-0.1,0.1-0.2,0.1-0.2c0-0.1,0.1-0.1,0.1-0.2
	c0-0.1,0.1-0.2,0.2-0.4C50.2,12.5,50.2,12.4,50.3,12.3 M53.8,23.9H54c0.1,0,0.1-0.1,0.1-0.1l0,0l0,0c0.1,0,0.2,0,0.3-0.1
	s0.2-0.1,0.2-0.1c0.1,0,0.2-0.1,0.3-0.1c0.1-0.1,0.1-0.1,0.2-0.2l0.1-0.1c0.1,0,0.1,0,0.1-0.1c0.1-0.1,0.3-0.2,0.3-0.3
	s0.2-0.2,0.3-0.3c0-0.1,0.1-0.2,0.2-0.3s0.2-0.2,0.2-0.3c0.2-0.2,0.5-0.4,0.7-0.7s0.5-0.5,0.7-0.7c0.1-0.1,0.1-0.1,0.2-0.2
	s0.1-0.1,0.2-0.2c0,0,0,0,0-0.1c0,0,0,0,0-0.1c0.1-0.1,0.1-0.1,0.2-0.2c0.1-0.1,0.2-0.1,0.2-0.2c0-0.1,0.1-0.1,0.1-0.2
	s0.1-0.1,0.1-0.2l0.1-0.1v-0.1l0,0v-0.1v-0.1l0,0v-0.1c0-0.1,0.1-0.2,0.1-0.2c-0.1-0.1-0.1-0.1-0.1-0.1s0,0,0-0.1c0,0,0,0,0-0.1
	s0.1-0.1,0.1-0.2c0,0-0.1,0-0.1-0.1h-0.1h-0.1c-0.1,0-0.1,0-0.2,0.1C58.3,18,58.3,18,58.2,18c-0.1,0.1-0.3,0.2-0.4,0.4
	c-0.1,0.1-0.3,0.2-0.4,0.4c-0.3,0.2-0.6,0.5-0.8,0.7c-0.3,0.2-0.5,0.5-0.8,0.7c0,0-0.1,0-0.1,0.1s0,0-0.1,0.1h-0.1c0,0,0,0-0.1,0
	c-0.2,0.1-0.4,0.3-0.6,0.4s-0.4,0.3-0.6,0.4l-0.1,0.1c0,0-0.1,0.1-0.2,0.1c-0.1,0-0.1,0-0.1-0.1s0-0.1,0-0.2V21l0,0l0.1-0.1v-0.1
	v-0.1c0-0.1,0-0.2,0.1-0.4c0-0.1,0-0.3,0-0.4v-0.1c0,0,0,0,0-0.1l0,0l0,0v-0.1c0,0,0,0,0-0.1c0,0,0,0,0-0.1v-0.2
	c0-0.2,0.1-0.3,0.1-0.5s0.1-0.3,0.1-0.5c0-0.1,0-0.1,0-0.2v-0.1l0,0v-0.1c0-0.1,0.1-0.1,0.1-0.2v-0.1v-0.1v-0.1v-0.1
	c0-0.1,0.1-0.2,0.1-0.2v-0.1v-0.1l0.1-0.1c0.1-0.2,0.2-0.4,0.3-0.6c0.1-0.2,0.2-0.4,0.3-0.6l0.1-0.1v-0.1c0,0,0,0,0-0.1
	s0.1-0.2,0.1-0.2s0.1-0.1,0.1-0.2l0,0l0,0c0,0,0,0,0.1-0.1l0.1-0.1c0-0.1,0-0.1,0.1-0.2c0,0,0-0.1,0.1-0.1s0,0,0.1-0.1
	c0-0.1,0.1-0.2,0.1-0.3v-0.1v-0.1c0,0,0,0,0-0.1c0,0,0,0,0-0.1c0.1-0.2,0.1-0.4,0.1-0.6c0-0.2-0.1-0.4-0.2-0.5h-0.1l0,0l0,0
	c-0.2-0.2-0.3-0.4-0.5-0.5c0,0-0.1-0.1-0.2-0.2c-0.1,0-0.2,0-0.3,0s-0.2,0.1-0.3,0.1s-0.2,0.1-0.3,0.1S54,12,53.9,12
	c-0.4,0.2-0.9,0.4-1.3,0.6c-0.4,0.2-0.9,0.4-1.3,0.6c-0.1,0-0.2,0.1-0.3,0.1s-0.2,0.1-0.3,0.1c0-0.1,0-0.2,0.1-0.3
	c0-0.1,0-0.2,0.1-0.3v-0.2c0-0.1,0.1-0.1,0.1-0.2s0-0.1,0.1-0.2v-0.1V12c0,0,0.1-0.1,0.1-0.2l-0.1-0.1c0.1-0.1,0.1-0.3,0-0.4
	S51,11.1,50.9,11c-0.1-0.1-0.2-0.1-0.3-0.2s-0.2-0.1-0.2-0.2h-0.1l0,0c0,0-0.1,0-0.1,0.1s0,0,0,0.1c-0.2,0-0.3,0.1-0.5,0.1
	S49.4,11,49.2,11c-0.1,0-0.2,0-0.2,0c-0.1,0-0.1,0-0.2,0c-0.1,0-0.2,0.1-0.3,0.2c-0.1,0.1-0.2,0.1-0.3,0.2c-0.2,0.2-0.4,0.5-0.6,0.9
	c0,0.1-0.1,0.1-0.1,0.2c0,0-0.1,0.1-0.1,0.2c0,0.1,0,0.2-0.1,0.2c0,0.1,0,0.1,0,0.2v0.1v0.1l0,0c0,0,0,0,0,0.1s0,0.2,0,0.4
	c0,0.1,0,0.2,0.1,0.3l0.1,0.1l0.1,0.1c0,0,0,0.1,0.1,0.1s0.1,0.1,0.1,0.1c0.3,0.2,0.7,0.4,1.2,0.4c-0.1,0.2-0.1,0.3-0.2,0.4
	c-0.1,0.2-0.2,0.4-0.3,0.5s-0.2,0.4-0.3,0.5s-0.1,0.2-0.2,0.4c-0.1,0.1-0.1,0.3-0.2,0.4c0,0.1-0.1,0.1-0.1,0.2s-0.1,0.1-0.1,0.2
	c0,0-0.1,0.1-0.1,0.2c0,0,0,0.1-0.1,0.1s0,0-0.1,0.1V18v0.1c0,0.1-0.1,0.1-0.1,0.2c0,0.1-0.1,0.1-0.1,0.2c0,0.1-0.1,0.2-0.1,0.3
	S46.9,19,46.9,19v0.1c0,0,0,0.1-0.1,0.1c0,0-0.1,0-0.1,0.1l0,0h0.1l0,0c0,0,0,0,0.1,0c0,0.1,0,0.2,0.1,0.4s0.2,0.2,0.3,0.1
	c0.1,0,0.1,0,0.1-0.1c0.1,0,0.2-0.1,0.4-0.2c0.1,0,0.1-0.1,0.2-0.1c0.1,0,0.1-0.1,0.2-0.1c0.1-0.1,0.2-0.1,0.2-0.2
	c0.1-0.1,0.1-0.1,0.2-0.2c0-0.1,0.1-0.1,0.1-0.2l0.1-0.1c0.1-0.1,0.1-0.2,0.2-0.4c0,0,0,0,0-0.1c0,0,0,0,0-0.1c0,0,0.1,0,0.1-0.1
	h0.1c0-0.1,0-0.1,0-0.1s0.1-0.1,0.2-0.2c-0.1,0.1-0.1,0.1-0.1,0.2c0.1-0.3,0.2-0.5,0.4-0.8v-0.1c0,0,0-0.1,0.1-0.1l0.1-0.1l0.1-0.1
	c0-0.1,0-0.2,0-0.2s0-0.1,0.1-0.1v-0.1c0,0,0,0,0-0.1c0,0,0.1-0.1,0.1-0.2c0-0.1,0-0.1,0-0.1c0-0.1,0-0.2,0.1-0.2
	c0-0.1,0.1-0.1,0.1-0.2c0.1-0.2,0.2-0.3,0.2-0.3c0.5-0.2,0.9-0.3,1.3-0.5c0.4-0.2,0.9-0.3,1.3-0.5c0,0.1,0,0.2-0.1,0.3
	c-0.1,0.2-0.1,0.3-0.2,0.4c-0.1,0.1-0.1,0.3-0.2,0.4c0,0.1-0.1,0.2-0.1,0.3c-0.1,0.1-0.1,0.2-0.1,0.3S52.4,16,52.4,16
	c0,0.1-0.1,0.2-0.1,0.2c0,0.1,0,0.1,0,0.2l-0.1,0.1v0.1v0.1v0.1L52.1,17c0,0.1-0.1,0.1-0.1,0.2c0,0,0,0.1-0.1,0.2
	c0,0.1-0.1,0.2-0.1,0.4c0,0.1-0.1,0.3-0.1,0.4c0,0.1-0.1,0.3-0.1,0.4c0,0.1,0,0.3,0,0.4l-0.1,0.9c0,0.1,0,0.1-0.1,0.2s0,0.1,0,0.2
	c0,0.2-0.1,0.4,0,0.7c0,0.2,0.1,0.4,0.1,0.6c0.1,0.4,0.2,0.7,0.4,1l0.1,0.1c0,0.1,0.1,0.1,0.1,0.1l0.1,0.1c0,0,0.1,0,0.1,0.1
	c0,0,0.1,0.1,0.1,0.2s0.1,0.1,0.1,0.2s0.1,0.2,0.2,0.3C53.5,23.8,53.6,23.9,53.8,23.9L53.8,23.9z M45.4,14.1c0,0.1,0,0.2,0.1,0.3
	c0,0.1,0.1,0.2,0.1,0.3s0.1,0.1,0.1,0.1c0,0.1-0.1,0.2-0.2,0.3s-0.1,0.2-0.1,0.3s0,0.1-0.1,0.1s-0.1,0.1-0.2,0.2
	C45,15.8,45,15.9,45,15.9c0,0.1-0.1,0.1-0.1,0.2c-0.1,0.1-0.2,0.2-0.3,0.3s-0.2,0.2-0.3,0.2c-0.2,0.2-0.4,0.4-0.5,0.6
	c-0.2,0.2-0.3,0.3-0.5,0.4c-0.3,0.3-0.6,0.6-0.9,0.9c0-0.1,0.1-0.2,0.2-0.3c0.1-0.1,0.2-0.4,0.4-0.9c0-0.1,0.1-0.3,0.2-0.4
	c0.1-0.2,0.1-0.3,0.2-0.4c0.3-0.2,0.4-0.4,0.6-0.6s0.3-0.5,0.5-0.8c0,0,0-0.1,0.1-0.1s0.1-0.1,0.1-0.1c0.1-0.1,0.3-0.3,0.4-0.4
	c0.2-0.1,0.3-0.2,0.6-0.3h-0.1C45.4,14,45.4,14,45.4,14.1 M43.3,18.9L43.3,18.9c0.1,0,0.2-0.1,0.3-0.2c0.1-0.1,0.2-0.2,0.3-0.2H44
	c0.1,0,0.2-0.1,0.2-0.1s0.1-0.1,0.2-0.1c0,0,0.1,0,0.1,0.1c0.1,0,0.2-0.1,0.2-0.2s0.1-0.2,0.2-0.2c0.1,0,0.1-0.1,0.2-0.1
	c0.1,0,0.1-0.1,0.2-0.2c0.1,0,0.2,0,0.2,0s0.1-0.1,0.2-0.2c0.1-0.1,0.3-0.3,0.4-0.4s0.3-0.3,0.4-0.5c0.1-0.2,0.2-0.3,0.2-0.4
	c0-0.1,0.1-0.2,0.2-0.4l0.1-0.1c0-0.1,0.1-0.2,0.1-0.4s0.1-0.3,0.1-0.5c0-0.1,0.1-0.1,0-0.2s0-0.1,0-0.2c0.1-0.1,0.1-0.3,0-0.5
	c0-0.1,0-0.2,0-0.4s-0.1-0.3-0.1-0.4c-0.1-0.1-0.2-0.2-0.3-0.4s-0.2-0.4-0.3-0.5c0-0.1,0.1-0.1,0-0.1s0,0,0-0.1
	c-0.1-0.1-0.2-0.2-0.3-0.3s-0.1-0.2-0.2-0.2c0,0-0.1-0.1-0.2-0.1l-0.1-0.1c-0.1,0-0.3,0-0.4-0.1s-0.2,0-0.4,0s-0.3,0-0.4,0.1
	c0,0.1-0.1,0.1-0.2,0.2c-0.1,0-0.2,0.1-0.3,0.1c0,0,0,0,0,0.1c-0.2,0.1-0.3,0.2-0.4,0.3c-0.1,0.1-0.2,0.3-0.4,0.4
	c-0.2,0.2-0.3,0.4-0.4,0.6c-0.1,0.2-0.2,0.5-0.3,0.8c-0.5,0.6-0.9,1.2-1.3,1.9s-0.8,1.3-1.1,2.1c-0.1,0.1-0.2,0.2-0.2,0.3
	s-0.1,0.3-0.2,0.4c-0.1,0.3-0.2,0.6-0.3,0.9c-0.1,0.3-0.1,0.6-0.2,0.9c0,0.2,0,0.4,0,0.5s0,0.2,0,0.2c0,0.1,0,0.1,0,0.2s0,0.2,0,0.4
	c0.1,0.3,0.2,0.5,0.3,0.7s0.3,0.4,0.5,0.6V23c0,0,0,0,0,0.1h0.1h0.1v0.1c0,0,0,0,0,0.1c0.1,0,0.3,0,0.4,0c0.1,0.1,0.2,0.1,0.3,0.1
	c0.2,0.1,0.4,0,0.5,0c0.1-0.1,0.3-0.1,0.5-0.1h0.2c0.1,0,0.1,0,0.2-0.1c0.1,0,0.1-0.1,0.1,0c0,0,0.1,0,0.2,0
	c0.1-0.1,0.3-0.1,0.4-0.2s0.2-0.1,0.4-0.1c0.3-0.1,0.6-0.2,0.8-0.3s0.5-0.2,0.8-0.4c0.1,0,0.2-0.1,0.4-0.3c0.2-0.1,0.4-0.3,0.6-0.4
	c0.2-0.2,0.4-0.3,0.6-0.4c0.2-0.1,0.4-0.2,0.4-0.3c0.2-0.2,0.4-0.4,0.6-0.5c0.2-0.1,0.3-0.3,0.5-0.6c0.1-0.1,0.1-0.1,0.2-0.1
	c0.1,0,0.1-0.1,0.2-0.2c0.2-0.2,0.3-0.4,0.5-0.6c0.2-0.2,0.3-0.4,0.5-0.6c0-0.1,0-0.1-0.1-0.1V18c0,0,0,0,0-0.1c0,0-0.1-0.1,0-0.1
	c-0.1,0-0.1,0.1,0,0.1s0.1,0,0-0.1c-0.1,0-0.2,0-0.3,0v-0.1c-0.1-0.1-0.1-0.1-0.1,0c-0.2,0.2-0.3,0.3-0.5,0.4
	c-0.1,0.1-0.3,0.2-0.5,0.3L47.2,19c0,0-0.1,0.1-0.3,0.3c-0.2,0.1-0.4,0.3-0.6,0.4c-0.2,0.1-0.4,0.3-0.6,0.4
	c-0.2,0.1-0.3,0.2-0.4,0.2c-0.4,0.2-0.8,0.3-1.2,0.5c-0.3,0.2-0.8,0.3-1.2,0.5c-0.2,0-0.4,0.1-0.6,0.2c-0.2,0.1-0.4,0.1-0.6,0.2
	c-0.1,0-0.2,0-0.2,0c-0.1,0-0.1,0-0.2,0c-0.1,0-0.2-0.1-0.3-0.1s-0.2-0.1-0.2-0.2c0-0.2,0-0.3,0-0.3s0.1-0.1,0.1-0.3
	c0.1-0.2,0.1-0.4,0.2-0.5c0.1-0.1,0.1-0.3,0.2-0.5c0.1-0.1,0.2-0.2,0.2-0.4s0.1-0.3,0.3-0.3h0.1c0.1,0,0.1,0,0.1,0l0,0l0,0
	c0.1,0.1,0.1,0.1,0.2,0l0.1-0.1c0.1,0,0.2,0,0.3,0.1L43.3,18.9z M36.1,16.9C36.1,16.9,36.1,17,36.1,16.9c-0.1-0.1-0.1-0.3,0-0.5
	c0-0.1,0-0.1,0-0.1v-0.1v-0.1c0-0.3,0.1-0.6,0.1-0.9s0.1-0.5,0.3-0.7c0-0.1-0.1-0.1-0.1-0.1v-0.2c0-0.1,0.1-0.2,0.1-0.3
	c0,0,0,0,0-0.1l0,0c0,0,0,0,0-0.1s0-0.2,0.1-0.4c0-0.1,0.1-0.3,0.1-0.5s0.1-0.3,0.1-0.5c0-0.3,0.1-0.5,0.1-0.8
	C37,11.3,37,11,37,10.7c0-0.2,0.1-0.4,0.2-0.8c0.1-0.4,0.2-0.8,0.3-1.2s0.2-0.8,0.3-1.2S38,6.9,38,6.9c0-0.1,0-0.1,0.1-0.2
	c0-0.1,0.1-0.1,0.1-0.2c0-0.2,0.1-0.3,0.1-0.5c0,0,0-0.1,0.1-0.1s0.1-0.1,0.2-0.2c0-0.1,0.1-0.2,0.1-0.4c0.1-0.1,0.1-0.3,0.1-0.5
	c0-0.1,0-0.2,0.1-0.3c0-0.1,0-0.2,0-0.2c0-0.1,0-0.2,0.1-0.2c0-0.2,0.1-0.3,0.2-0.5c0.1-0.2,0.1-0.3,0.2-0.5c0-0.1,0-0.1,0-0.1V2.9
	c0,0,0.1,0,0.1-0.1l0,0c0.1,0,0.1,0,0.2,0.1c0,0.1,0.1,0.1,0.1,0.2c0,0,0,0.1,0.1,0.2C39.9,3.5,40,3.7,40,4c0.1,0.2,0.1,0.5,0.1,0.8
	s0,0.6,0,0.9c0,0.2-0.1,0.4-0.1,0.8c0,0.4-0.1,0.8-0.2,1.2c-0.1,0.4-0.1,0.8-0.2,1.2c-0.1,0.3-0.1,0.6-0.1,0.7
	c-0.1,0.4-0.2,0.7-0.3,1s-0.2,0.7-0.3,1.1l-0.1,0.1c0,0,0,0.1-0.1,0.2c0,0.1,0,0.1-0.1,0.2c0,0.1-0.1,0.1-0.1,0.2
	c0,0.1,0,0.3-0.1,0.4s-0.1,0.3-0.2,0.4c0,0.1,0,0.1,0,0.1v0.1c0,0,0,0-0.1,0v0.1c-0.1,0.3-0.2,0.6-0.4,0.9s-0.3,0.6-0.4,0.9
	l-0.1,0.1c0,0,0,0.1-0.1,0.1L37,15.6c0,0,0,0.1-0.1,0.1c-0.1,0.2-0.2,0.4-0.3,0.5c-0.1,0.2-0.2,0.4-0.3,0.6
	C36.2,16.8,36.2,16.9,36.1,16.9C36.2,16.9,36.2,16.9,36.1,16.9 M39.1,1.4L39,1.5h-0.1c0,0.1,0,0.1,0,0.1h-0.1
	c-0.1,0-0.2,0.1-0.3,0.1h-0.1h-0.1c0,0-0.1,0-0.1,0.1c0,0,0,0-0.1,0c-0.3,0.3-0.6,0.5-0.8,0.9c-0.2,0.3-0.4,0.7-0.6,1
	c0,0.1,0,0.1,0,0.1S36.6,3.9,36.6,4c-0.3,0.5-0.5,1.1-0.8,1.6c-0.2,0.6-0.4,1.2-0.6,1.9l0.1,0.1v0.1c-0.1,0-0.1,0.1-0.1,0.1
	c0,0.1-0.1,0.1-0.1,0.2c0,0.1,0,0.1,0,0.2c0,0.2-0.1,0.3-0.1,0.4c-0.1,0.4-0.2,0.8-0.3,1.1c-0.1,0.4-0.2,0.8-0.3,1.2
	c-0.1,0.2-0.1,0.5-0.2,0.8c0,0.3-0.1,0.6-0.1,0.9c0,0.1,0,0.1,0,0.2v0.1V13c0,0.1,0,0.1,0,0.2S34,13.3,34,13.3
	c-0.1,0.4-0.2,0.8-0.2,1.2s-0.1,0.8-0.2,1.2c0,0,0,0,0,0.1l0,0l0,0l0,0c0,0.1-0.1,0.2-0.1,0.3c0,0.4,0,0.8,0,1.2s0,0.7-0.1,1.1l0,0
	c0,0.4,0,0.7,0,1.1s0.1,0.8,0.1,1.2c0,0.1,0,0.2,0,0.3c0,0.2,0,0.3,0.1,0.5c0,0.2,0.1,0.3,0.1,0.5c0.1,0.2,0.2,0.4,0.2,0.5
	c0.1,0.1,0.1,0.2,0.2,0.3c0.1,0.2,0.2,0.2,0.2,0.2c0.1,0,0.1,0.1,0.1,0.2c0.1,0,0.1,0,0.2,0.1c0.1,0.1,0.1,0.1,0.1,0.1
	c0.1,0,0.3,0,0.4,0c0.1,0,0.2,0,0.3,0.1l0,0c0.1,0,0.2,0,0.2,0h0.1c0.1,0,0.2,0,0.2-0.1c0.1,0,0.1,0,0.2-0.1c0.1,0,0.2-0.1,0.2-0.1
	h0.1c0,0,0,0,0.1,0s0.2,0,0.3,0s0.2,0,0.3,0c0,0,0.1,0,0.1-0.1c0,0,0.1,0,0.1-0.1c0.1,0,0.2-0.1,0.2-0.1s0.1-0.1,0.2-0.2
	c0,0,0.1-0.1,0.2-0.2c0.1-0.1,0.2-0.2,0.3-0.3c0.1-0.1,0.2-0.2,0.3-0.3c0.1-0.1,0.1-0.1,0.2-0.2c0,0,0.1,0,0.1-0.1s0.1-0.1,0.1-0.1
	c0-0.1,0.1-0.2,0.2-0.2c0.1,0,0.1-0.1,0.2-0.2c0.1,0,0.1-0.1,0.2-0.2c0.1-0.1,0.2-0.2,0.2-0.3c0.1-0.1,0.1-0.2,0.2-0.3
	s0.1-0.1,0.1-0.1s0,0,0-0.1c0,0,0.1-0.1,0.1-0.2s0.1-0.1,0.1-0.2c0,0,0-0.1,0.1-0.1c0,0,0,0,0.1-0.1s0,0,0-0.1c0,0,0.1-0.1,0-0.1
	l0,0c0,0,0-0.1-0.1-0.1v-0.1l0,0l0,0c0-0.1,0.1-0.1,0.1-0.2c0-0.1,0.1-0.1,0.1-0.2c0,0,0.1,0,0.1-0.1V19l0,0l0,0l0,0
	c0.1-0.1,0.2-0.2,0.3-0.3s0.2-0.2,0.3-0.2c0,0,0,0,0-0.1c0,0,0,0,0-0.1v-0.1c0,0,0,0,0-0.1c-0.1,0-0.1,0-0.1,0V18c0,0,0-0.1-0.1-0.1
	s-0.1,0-0.2,0.1l0,0l0,0l0,0l0,0l0,0l0,0v0.1c-0.1,0-0.1,0-0.1,0c-0.1,0.1-0.2,0.2-0.3,0.4c-0.1,0.1-0.2,0.2-0.4,0.4
	c0,0-0.1,0.1-0.3,0.3c-0.1,0.2-0.5,0.5-0.9,1c-0.1,0.1-0.1,0.1-0.2,0.1c0,0-0.1,0-0.1,0.1c-0.1,0-0.1,0.1-0.1,0.1s0,0,0,0.1
	c0,0,0,0.1-0.1,0.1c0,0,0,0.1-0.1,0.1s-0.1,0-0.1,0.1c0,0-0.1,0.1-0.2,0.2c-0.1,0.1-0.2,0.1-0.3,0.2h-0.1c-0.1,0-0.1,0.1-0.2,0.1
	c-0.1,0-0.1,0.1-0.2,0.2c-0.2,0.2-0.3,0.3-0.5,0.4s-0.3,0.2-0.5,0.3c-0.1,0-0.1,0-0.2,0c-0.1,0-0.2,0-0.2,0h-0.3l-0.2-0.1
	C35,22.1,35,22,35,21.8c-0.1,0-0.1-0.1-0.1-0.2v-0.1c0-0.1,0-0.1,0-0.2c0,0,0,0,0-0.1c0,0,0-0.1,0-0.2s0.1-0.2,0-0.3
	c0-0.1,0-0.2,0-0.3s0-0.2,0.1-0.2c0-0.1,0.1-0.1,0.1-0.2c0.1,0,0.1-0.1,0.1-0.1v-0.1c0,0,0-0.1,0-0.2c0,0,0,0,0.1-0.1
	c0,0,0.1,0,0.1-0.1v-0.1c0.1-0.1,0.2-0.3,0.4-0.5c0.2-0.3,0.3-0.5,0.5-0.9c0.2-0.3,0.3-0.6,0.5-0.9c0.1-0.3,0.3-0.5,0.3-0.6
	s0.1-0.2,0.2-0.4s0.1-0.2,0.2-0.4v-0.1c0-0.1,0-0.1,0.1-0.1c0.1-0.1,0.1-0.2,0.1-0.3l0,0c0,0,0,0,0-0.1c0.1-0.2,0.2-0.3,0.3-0.4
	c0.1-0.1,0.1-0.2,0.1-0.4l0.1-0.1c0,0,0-0.1,0.1-0.1v-0.1c0-0.1,0.1-0.2,0.2-0.5s0.2-0.4,0.2-0.5c0-0.2,0.1-0.3,0.2-0.5
	s0.1-0.3,0.1-0.5c0.1-0.4,0.3-0.8,0.4-1.2c0.2-0.4,0.3-0.8,0.4-1.1c0-0.1,0.1-0.3,0.1-0.4S40,8.9,40,8.8c0,0,0-0.1,0.1-0.3
	c0-0.2,0-0.3,0.1-0.5c0-0.2,0.1-0.3,0.1-0.5s0-0.3,0-0.3c0-0.1,0-0.2,0-0.3s0-0.2,0-0.2c0-0.1,0.1-0.2,0.1-0.4c0-0.1,0.1-0.2,0-0.2
	l0,0c0,0,0.1-0.1,0-0.1V5.9V5.5V5.4V5.3c0-0.2,0.1-0.3,0.1-0.5s0-0.3,0-0.4c0-0.3,0-0.6-0.1-0.9c0,0,0-0.1,0-0.2
	c0-0.1-0.1-0.1-0.1-0.2s-0.1-0.2,0-0.3c0,0-0.1,0-0.1-0.1c-0.1,0-0.1-0.1-0.1-0.2c0-0.1-0.1-0.1-0.1-0.2V2.2c-0.1,0-0.2-0.1-0.2-0.2
	c-0.1-0.1-0.3-0.2-0.4-0.3S39.2,1.5,39.1,1.4L39,1.3c-0.1,0-0.1,0-0.2,0h-0.1C39.3,1.4,39.2,1.4,39.1,1.4 M29.4,16.9
	C29.3,16.9,29.3,17,29.4,16.9c-0.1-0.1-0.1-0.3,0-0.5c0-0.1,0-0.1,0-0.1v-0.1v-0.1c0-0.3,0.1-0.6,0.1-0.9c0-0.2,0.1-0.5,0.3-0.7
	c0-0.1-0.1-0.1-0.1-0.1v-0.2c0-0.1,0.1-0.2,0.1-0.3c0,0,0,0,0-0.1l0,0c0,0,0,0,0-0.1s0-0.2,0.1-0.4c0-0.1,0.1-0.3,0.1-0.5
	s0.1-0.3,0.1-0.5c0-0.3,0.1-0.5,0.1-0.8s0.1-0.5,0.1-0.8c0-0.2,0.1-0.4,0.2-0.8c0.1-0.4,0.2-0.8,0.3-1.2s0.2-0.8,0.3-1.2
	s0.2-0.6,0.2-0.6c0-0.1,0-0.1,0.1-0.2c0-0.1,0.1-0.1,0.1-0.2c0-0.2,0.1-0.3,0.2-0.5c0,0,0-0.1,0.1-0.1c0,0,0.1-0.1,0.1-0.2
	c0-0.1,0.1-0.2,0.2-0.4c0.1-0.1,0.1-0.3,0.1-0.5c0-0.1,0-0.2,0.1-0.3c0-0.1,0-0.2,0-0.2c0-0.1,0-0.2,0.1-0.2c0-0.2,0.1-0.3,0.2-0.5
	c0.1-0.2,0.1-0.3,0.2-0.5c0-0.1,0-0.1,0-0.1V2.9c0,0,0.1,0,0.1-0.1l0,0c0.1,0,0.1,0,0.1,0.1s0.1,0.1,0.1,0.2c0,0,0,0.1,0.1,0.2
	c0,0.2,0.1,0.4,0.1,0.7c0.1,0.2,0.1,0.5,0.1,0.8s0,0.6,0,0.9c0,0.2-0.1,0.4-0.1,0.8s-0.1,0.8-0.2,1.2C33,8.1,33,8.5,32.9,8.9
	c-0.1,0.3-0.1,0.6-0.2,0.7c-0.1,0.4-0.2,0.7-0.3,1s-0.2,0.7-0.3,1.1L32,11.8c0,0.1,0,0.1-0.1,0.2c0,0.1,0,0.1-0.1,0.2
	c0,0.1-0.1,0.1-0.1,0.2c0,0.1,0,0.3-0.1,0.4c-0.1,0.1-0.1,0.3-0.2,0.4c0,0.1,0,0.1,0,0.1v0.1c0,0,0,0-0.1,0s0,0.1,0,0.1
	c-0.1,0.3-0.2,0.6-0.4,0.9c-0.1,0.3-0.3,0.6-0.4,0.9l-0.1,0.1c0,0,0,0.1-0.1,0.1l-0.1,0.1c0,0,0,0.1-0.1,0.1
	c-0.1,0.2-0.2,0.4-0.3,0.5s-0.2,0.4-0.3,0.6C29.4,16.8,29.4,16.9,29.4,16.9L29.4,16.9 M32.3,1.4l-0.1,0.1h-0.1c0,0.1,0,0.1,0,0.1H32
	c-0.1,0-0.2,0.1-0.3,0.1h-0.1h-0.1c0,0-0.1,0-0.1,0.1c0,0,0,0-0.1,0c-0.3,0.3-0.6,0.5-0.8,0.9s-0.4,0.7-0.6,1c0,0.1,0,0.1,0,0.1
	S29.8,3.9,29.8,4c-0.3,0.5-0.5,1.1-0.8,1.6c-0.2,0.6-0.4,1.2-0.6,1.9l0.1,0.1v0.1c-0.1,0-0.1,0.1-0.1,0.1c0,0.1-0.1,0.1-0.1,0.2
	c0,0.1,0,0.1,0,0.2c0,0.2-0.1,0.3-0.1,0.4C28.1,9,28,9.4,27.9,9.7c-0.1,0.4-0.2,0.8-0.3,1.2c-0.1,0.2-0.1,0.5-0.2,0.8
	c0,0.3-0.1,0.6-0.1,0.9c0,0.1,0,0.1,0,0.2v0.1V13c0,0.1,0,0.1,0,0.2s-0.1,0.1-0.1,0.1c-0.1,0.4-0.2,0.8-0.2,1.2s-0.1,0.8-0.2,1.2
	c0,0,0,0,0,0.1l0,0l0,0l0,0c0,0.1-0.1,0.2-0.1,0.3c0,0.4,0,0.8,0,1.2s-0.1,0.7-0.1,1.1l0,0c0,0.4,0,0.7,0,1.1c0,0.4,0.1,0.8,0.1,1.2
	c0,0.1,0,0.2,0,0.3c0,0.2,0,0.3,0.1,0.5c0,0.2,0.1,0.3,0.1,0.5c0.1,0.2,0.2,0.4,0.2,0.5c0.1,0.1,0.1,0.2,0.2,0.3
	c0.1,0.2,0.2,0.2,0.2,0.2c0.1,0,0.1,0.1,0.1,0.2c0.1,0,0.1,0,0.2,0.1c0.1,0.1,0.1,0.1,0.1,0.1c0.1,0,0.3,0,0.4,0
	c0.1,0,0.2,0,0.3,0.1l0,0c0.1,0,0.2,0,0.2,0h0.1c0.1,0,0.2,0,0.2-0.1c0.1,0,0.1,0,0.2-0.1c0.1,0,0.2-0.1,0.2-0.1h0.1c0,0,0,0,0.1,0
	s0.2,0,0.3,0s0.2,0,0.3,0c0,0,0.1,0,0.1-0.1c0,0,0.1,0,0.1-0.1c0.1,0,0.2-0.1,0.2-0.1s0.1-0.1,0.2-0.2c0,0,0.1-0.1,0.2-0.2
	c0.1-0.1,0.2-0.2,0.3-0.3s0.2-0.2,0.3-0.3c0.1-0.1,0.1-0.1,0.2-0.2c0,0,0.1,0,0.1-0.1l0.1-0.1c0-0.1,0.1-0.2,0.2-0.2
	c0.1,0,0.2-0.1,0.2-0.2c0.1,0,0.1-0.1,0.2-0.2c0.1-0.1,0.2-0.2,0.2-0.3c0.1-0.1,0.1-0.2,0.2-0.3c0.1-0.1,0.1-0.1,0.1-0.1s0,0,0-0.1
	s0.1-0.1,0.1-0.2s0.1-0.1,0.1-0.2c0,0,0-0.1,0.1-0.1c0,0,0,0,0.1-0.1s0,0,0-0.1c0,0,0.1-0.1,0-0.1l0,0c0,0,0-0.1-0.1-0.1v-0.1l0,0
	l0,0c0-0.1,0.1-0.1,0.1-0.2c0-0.1,0.1-0.1,0.1-0.2c0,0,0.1,0,0.1-0.1V19l0,0l0,0l0,0c0.1-0.1,0.2-0.2,0.3-0.3s0.2-0.2,0.3-0.2
	c0,0,0,0,0-0.1c0,0,0,0,0-0.1v-0.1c0,0,0,0,0-0.1c-0.1,0-0.1,0-0.1,0V18c0,0,0-0.1-0.1-0.1s-0.1,0-0.2,0.1l0,0l0,0l0,0l0,0l0,0l0,0
	v0.1c-0.1,0-0.1,0-0.1,0c-0.1,0.1-0.2,0.2-0.3,0.4c-0.1,0.1-0.2,0.2-0.4,0.4c0,0-0.1,0.1-0.3,0.3s-0.5,0.5-0.9,1
	c-0.1,0.1-0.1,0.1-0.2,0.1c-0.1,0-0.1,0-0.1,0.1c-0.1,0-0.1,0.1-0.1,0.1s0,0,0,0.1c0,0,0,0.1-0.1,0.1c0,0,0,0.1-0.1,0.1
	c0,0,0,0-0.1,0.1c0,0-0.1,0.1-0.2,0.2c-0.1,0.1-0.2,0.1-0.3,0.2h-0.1c-0.1,0-0.1,0.1-0.2,0.1c-0.1,0-0.1,0.1-0.2,0.2
	c-0.2,0.2-0.3,0.3-0.5,0.4s-0.3,0.2-0.5,0.3c-0.1,0-0.1,0-0.2,0s-0.2,0-0.2,0h-0.3l-0.2-0.1c-0.2-0.1-0.2-0.2-0.2-0.4
	c-0.1,0-0.1-0.1-0.1-0.2v-0.1c0-0.1,0-0.1,0-0.2c0,0,0,0,0-0.1c0,0,0-0.1,0-0.2s0.1-0.2,0-0.3c0-0.1,0-0.2,0-0.3s0-0.2,0.1-0.2
	c0-0.1,0.1-0.1,0.2-0.2c0.1,0,0.1-0.1,0.1-0.1v-0.1c0,0,0-0.1,0-0.2c0,0,0,0,0.1-0.1c0,0,0.1,0,0.1-0.1v-0.1
	c0.1-0.1,0.2-0.3,0.4-0.5c0.2-0.3,0.3-0.5,0.5-0.9c0.2-0.3,0.3-0.6,0.5-0.9c0.2-0.3,0.3-0.5,0.3-0.6s0.1-0.2,0.2-0.4
	c0-0.1,0.1-0.2,0.2-0.4v-0.1c0-0.1,0-0.1,0.1-0.1c0.1-0.1,0.1-0.2,0.1-0.3l0,0c0,0,0,0,0-0.1c0.1-0.2,0.2-0.3,0.3-0.4
	c0.1-0.1,0.1-0.2,0.1-0.4l0.1-0.1c0,0,0-0.1,0.1-0.1v-0.1c0-0.1,0.1-0.2,0.2-0.5c0.1-0.2,0.2-0.4,0.2-0.5c0-0.2,0.1-0.3,0.2-0.5
	c0.1-0.2,0.1-0.3,0.2-0.5c0.1-0.4,0.3-0.8,0.4-1.2c0.2-0.4,0.3-0.8,0.4-1.1c0-0.1,0.1-0.3,0.1-0.4c0.1-0.1,0.1-0.3,0.1-0.4
	c0,0,0-0.1,0.1-0.3c0-0.2,0-0.3,0.1-0.5s0.1-0.3,0.1-0.5s0-0.3,0-0.3c0-0.1,0-0.2,0-0.3s0-0.2,0-0.2c0-0.1,0.1-0.2,0.1-0.4
	c0-0.1,0.1-0.2,0-0.2l0,0c0,0,0.1-0.1,0-0.1V5.9V5.5V5.4V5.3c0-0.2,0.1-0.3,0.1-0.5c0-0.1,0-0.3,0-0.4c0-0.3,0-0.6-0.1-0.9
	c0,0,0-0.1,0-0.2c0-0.1-0.1-0.1-0.1-0.2s-0.1-0.2,0-0.3c0,0-0.1,0-0.1-0.1c-0.1,0-0.1-0.1-0.1-0.2c0-0.1,0-0.1-0.1-0.2V2.2
	c-0.1,0-0.2-0.1-0.2-0.2c-0.1-0.1-0.3-0.2-0.4-0.3c-0.1-0.1-0.2-0.2-0.3-0.3L32.3,1.4c0-0.1,0-0.1-0.1-0.1h0.4
	C32.5,1.4,32.4,1.4,32.3,1.4 M15.8,20.6c0-0.2,0-0.4,0.1-0.7s0.1-0.5,0.2-0.7c0-0.1,0-0.2,0-0.3s0-0.2,0-0.3v-0.1v-0.1
	c0-0.1,0-0.2,0-0.3s0-0.2,0-0.3c0.1,0,0.1-0.2,0.2-0.4c0.1-0.4,0.3-0.8,0.5-1.1s0.4-0.7,0.6-1.1c0.2-0.3,0.4-0.6,0.6-0.9
	c0.2-0.3,0.4-0.5,0.7-0.7c0.2-0.2,0.3-0.3,0.5-0.4c0.2-0.1,0.4-0.2,0.6-0.2c0.3,0,0.5,0,0.8,0.1c0.1,0.2,0.2,0.4,0.2,0.6
	c0.1,0.2,0.1,0.5,0.1,0.8c-0.2,0.3-0.4,0.5-0.6,0.7c-0.2,0.2-0.5,0.5-0.7,0.8c-0.2,0.2-0.4,0.5-0.6,0.8c-0.2,0.3-0.4,0.5-0.6,0.8
	c-0.3,0.4-0.6,0.8-0.9,1.2c-0.3,0.4-0.6,0.8-1,1.2c0,0.1-0.1,0.1-0.1,0.2c0,0.1-0.1,0.1-0.2,0.2c0,0-0.1,0.1-0.2,0.1
	C16,20.6,15.9,20.6,15.8,20.6L15.8,20.6z M21.4,13.8c0-0.1,0-0.2,0-0.2c-0.1-0.2-0.2-0.3-0.3-0.6c-0.1-0.2-0.1-0.4-0.2-0.6
	c-0.1-0.1-0.2-0.2-0.3-0.2c-0.1-0.1-0.3-0.1-0.4-0.1C20.1,12,20,12,19.9,12s-0.3,0-0.4,0c-0.1-0.1-0.2-0.1-0.3,0s-0.3,0.2-0.4,0.3
	l-0.1,0.1l-0.1,0.1c-0.1,0-0.2,0.1-0.2,0.1c-0.1,0.1-0.1,0.1-0.2,0.2c0,0.1-0.1,0.2-0.2,0.2c-0.1,0.1-0.2,0.1-0.2,0.2
	c-0.2,0.2-0.3,0.3-0.5,0.6c-0.2,0.2-0.3,0.4-0.5,0.7c-0.3,0.5-0.5,1-0.8,1.4c-0.2,0.5-0.5,1-0.8,1.5C15,18,14.8,18.5,14.6,19
	c-0.2,0.5-0.3,1.2-0.3,1.9c0,0.4,0,0.7,0.1,1s0.1,0.6,0.2,0.9c0.1,0.1,0.1,0.2,0.2,0.3c0.1,0.1,0.2,0.1,0.3,0.1
	c0,0.1,0.1,0.1,0.1,0.1c0.1,0,0.2,0,0.3,0.1s0.2,0,0.2,0c0.3,0.1,0.6,0,0.8-0.2s0.5-0.4,0.8-0.6c0.1,0,0.1-0.1,0.2-0.1
	c0,0,0.1-0.1,0.2-0.2c0.1,0,0.2-0.1,0.2-0.1S18,22.1,18,22s0.1-0.2,0.1-0.2l0,0l0,0c0.2-0.2,0.4-0.5,0.5-0.7
	c0.2-0.2,0.4-0.5,0.6-0.7c0.1-0.2,0.2-0.3,0.3-0.5c0.1-0.1,0.2-0.3,0.3-0.5l0.1-0.1l0.1-0.1c0.1,0,0.1-0.1,0.2-0.2s0.1-0.2,0.2-0.2
	c0,0.2,0,0.4-0.1,0.6c0,0.2-0.1,0.3-0.1,0.4c0,0.1,0,0.3,0,0.4c0,0.2,0,0.3,0,0.6c0,0.2,0,0.4,0.1,0.5c0,0.2,0.1,0.3,0.1,0.4
	c0.1,0.1,0.1,0.2,0.1,0.3c0,0.1,0,0.2,0.1,0.3c0,0.1,0,0.2,0.1,0.3c0,0,0,0.1,0.1,0.2c0.1,0.2,0.1,0.3,0.2,0.3
	c0,0.1,0.1,0.1,0.1,0.2c0.1,0.1,0.3,0.2,0.5,0.2s0.4,0,0.5,0c0.3,0.1,0.6,0.1,0.9,0l0.1-0.1h0.1c0.1,0,0.2-0.1,0.3-0.1
	s0.2-0.1,0.4-0.1v-0.1l0,0c0.2-0.1,0.3-0.2,0.4-0.3c0.1-0.1,0.2-0.2,0.3-0.3c0.1,0,0.3-0.1,0.5-0.1c0.2-0.1,0.3-0.2,0.4-0.3
	c0.1-0.1,0.2-0.2,0.3-0.3c0.1-0.1,0.2-0.2,0.3-0.3c0.1-0.1,0.1-0.2,0.2-0.2c0.1,0,0.1-0.1,0.1-0.3c0.1-0.1,0.1-0.1,0.1,0
	c0,0,0,0,0.1-0.1c0.2-0.2,0.2-0.3,0.3-0.3c0-0.1,0.1-0.2,0.2-0.4c0.1-0.1,0.2-0.2,0.3-0.4s0.2-0.3,0.3-0.4c0-0.1,0-0.1,0.1-0.1
	c0,0,0.1,0,0.1-0.1c-0.1,0-0.1,0-0.1,0l-0.1-0.1c0-0.1,0.1-0.1,0.1-0.1l0.1-0.1h-0.1h-0.1v-0.1c0,0,0.1,0,0-0.1
	c-0.1,0-0.1,0.1-0.1,0h-0.1c-0.2,0-0.3,0.1-0.5,0.2s-0.3,0.2-0.4,0.4c0,0-0.1,0-0.2,0.1c-0.1,0-0.1,0.1-0.2,0.1
	c-0.1,0-0.1,0.1-0.2,0.2c-0.1,0.1-0.1,0.1-0.2,0.2c-0.5,0.5-1,0.9-1.6,1.2c-0.6,0.3-1.2,0.6-1.9,0.8c0-0.1-0.1-0.2-0.1-0.3
	c0-0.1-0.1-0.2-0.1-0.3c0-0.2,0-0.3,0.1-0.4c0-0.1,0.1-0.2,0.1-0.3v-0.1c0,0,0,0,0-0.1c0.1-0.2,0.1-0.4,0.2-0.5
	c0.1-0.2,0.1-0.4,0.1-0.5s0-0.1,0-0.2c0-0.1,0-0.2,0-0.3c0,0,0-0.1,0.1-0.1v-0.1c0-0.1,0.1-0.2,0.1-0.3s0.1-0.2,0.2-0.3V18
	c0.1-0.2,0.1-0.3,0.2-0.4c0-0.1,0.1-0.2,0.1-0.2c0-0.1,0.1-0.2,0.2-0.2c0-0.1,0.1-0.2,0.1-0.4c0.1-0.1,0.1-0.3,0.2-0.5
	c0-0.2,0.1-0.3,0.2-0.4c0-0.1,0-0.1,0-0.1v-0.1c0.1-0.3,0.2-0.6,0.2-1s0-0.8,0-1.2c0-0.1,0-0.1,0-0.2c0-0.1,0-0.1,0-0.2
	c0-0.1,0-0.2-0.1-0.3c0-0.1-0.1-0.2-0.2-0.3c0,0-0.1,0-0.2,0c-0.1-0.1-0.1-0.1-0.2-0.2h0.1c-0.1,0-0.1,0-0.1-0.1c-0.1,0-0.1,0-0.2,0
	c-0.1,0-0.1,0-0.3,0c-0.1,0-0.2,0.1-0.3,0.2c-0.1,0.1-0.2,0.2-0.3,0.2c-0.1,0.2-0.1,0.3-0.2,0.4s-0.1,0.3-0.2,0.5
	c0,0.1,0,0.2-0.1,0.4c0,0.1-0.1,0.2-0.1,0.3s-0.1,0.2-0.2,0.2c-0.1,0-0.1,0.1-0.2,0.1C21.5,14,21.4,13.9,21.4,13.8 M6.1,16.6
	c0.1,0,0.2,0,0.3,0c0,0,0,0-0.1,0c0,0,0,0,0,0.1C6.2,16.7,6.2,16.7,6.1,16.6C6,16.7,6,16.7,5.9,16.7C5.9,16.6,6,16.6,6.1,16.6
	 M5.6,16.5c0.1,0,0.3,0,0.4,0C5.9,16.5,5.8,16.6,5.6,16.5c-0.2,0.1-0.3,0.1-0.4,0C5.3,16.5,5.4,16.6,5.6,16.5 M8.5,16.7
	C8.4,16.7,8.4,16.7,8.5,16.7H8.3C8.3,16.7,8.4,16.7,8.5,16.7 M6.2,16.5h0.2C6.4,16.5,6.3,16.5,6.2,16.5c-0.1,0-0.2,0-0.2,0.1
	C6.1,16.5,6.1,16.5,6.2,16.5 M15.6,15.7h0.2c-0.1,0-0.2,0-0.3,0C15.5,15.7,15.5,15.7,15.6,15.7 M8.5,16.7
	C8.4,16.7,8.4,16.7,8.5,16.7c0.2,0,0.4,0,0.7-0.1s0.5-0.1,0.7-0.2c0.1,0,0.2,0,0.3,0s0.2,0,0.3,0c-0.2,0.2-0.5,0.5-0.7,0.7
	s-0.5,0.5-0.7,0.8C9,18,8.9,18,8.8,18.2s-0.2,0.2-0.3,0.3c-0.4,0.4-0.7,0.7-1.1,1.1c-0.4,0.3-0.7,0.7-1.1,1C6.2,20.7,6,20.9,5.9,21
	c-0.1,0.1-0.3,0.3-0.5,0.3c-0.1,0.2-0.3,0.3-0.5,0.4s-0.3,0.2-0.5,0.4c-0.2,0.1-0.3,0.2-0.5,0.3s-0.4,0.2-0.6,0.3l-0.1-0.1
	c0-0.1,0-0.1-0.1-0.2c0-0.3,0-0.6-0.1-0.8c0-0.3-0.1-0.5-0.1-0.8c0-0.1,0-0.3,0-0.4c0-0.2,0-0.3,0.1-0.5c0-0.2,0-0.4,0-0.5
	c0-0.4,0-0.7,0.1-1s0.2-0.7,0.3-1.1c0.1-0.3,0.2-0.6,0.3-0.8C3.8,16.2,3.9,16,4,15.7c0-0.1,0.1-0.2,0.1-0.3s0-0.1,0-0.2l0,0v-0.1
	L4.2,15v-0.1v-0.1c0,0,0,0,0-0.1c0.1-0.2,0.2-0.3,0.2-0.4c0-0.1,0.1-0.3,0.1-0.4c0.1-0.1,0.1-0.1,0.1-0.2c0-0.1,0.1-0.2,0.2-0.3
	c0.1-0.1,0.1-0.2,0.1-0.3S5,12.9,5,12.8s0.1-0.1,0.1-0.2c0.1-0.3,0.3-0.7,0.4-0.9c0.1-0.3,0.3-0.6,0.4-0.9c0-0.1,0-0.1,0.1-0.2
	c0.1-0.2,0.2-0.4,0.4-0.6l0.1-0.1V9.8c0,0,0-0.1,0.1-0.1l0.1-0.1c0.1-0.1,0.2-0.2,0.2-0.3S7,9.2,7,9.1C7,9,7.1,8.9,7.1,8.9l0.1-0.1
	l0.1-0.1c0-0.1,0.1-0.2,0.1-0.3s0.1-0.2,0.2-0.3V8V7.9l0,0c0-0.1,0.1-0.2,0.2-0.3C7.9,7.5,7.9,7.4,8,7.3C8,7.2,8.1,7.1,8.1,7
	s0.1-0.2,0.2-0.3V6.6l0,0c0.1-0.2,0.2-0.3,0.1-0.5c0,0,0,0,0.1,0h0.1C8.7,5.8,8.8,5.4,9,5s0.3-0.7,0.5-1.1c0.1-0.2,0.3-0.4,0.4-0.7
	C10,3,10.1,2.7,10.1,2.5c0-0.1,0.1-0.1,0.1-0.2c0-0.1,0-0.1,0.1-0.2c0.2-0.2,0.3-0.3,0.6-0.4c0.2-0.1,0.5-0.1,0.7,0
	c0.1,0.2,0.3,0.4,0.4,0.6s0.2,0.5,0.1,0.8c0.1,0,0.1,0.1,0.1,0.2c0,0.1,0,0.1,0,0.2c0,0.1,0,0.3,0,0.4c0,0.1,0,0.3,0,0.4
	c0,0.3,0.1,0.5,0,0.8c0,0.3,0,0.5,0,0.8c-0.1,0-0.1,0.1-0.1,0.1s0,0.1,0,0.2C12,6.3,12,6.4,11.9,6.5s-0.1,0.2-0.2,0.3
	c0,0.1,0,0.2-0.1,0.2c0,0.1,0,0.1-0.1,0.2s-0.1,0.1-0.1,0.2v0.1v0.1c0,0.1-0.1,0.1-0.1,0.2S11.2,7.9,11.2,8c0,0.1-0.1,0.2-0.2,0.2
	c-0.1,0.1-0.1,0.2-0.1,0.3c-0.2,0.1-0.3,0.3-0.4,0.6s-0.1,0.5,0,0.7c0.1,0,0.1,0.1,0.1,0.1c0.1,0,0.2,0.1,0.3,0.1s0.3,0.1,0.4,0.1
	c0.3,0,0.5-0.1,0.7-0.3s0.3-0.4,0.3-0.5c0.1-0.1,0.2-0.2,0.2-0.3s0-0.2,0.1-0.3l0.1-0.1c0,0,0,0,0-0.1s0-0.2,0-0.2s0-0.2,0-0.3
	c0.1-0.1,0.1-0.3,0.2-0.4C13,7.5,13,7.3,13,7.1c0.1-0.2,0.1-0.3,0.1-0.5s-0.1-0.4,0-0.5c0.1-0.2,0.2-0.3,0.1-0.5
	c0.1-0.2,0.1-0.3,0.1-0.5s0-0.3,0-0.5c-0.1-0.1-0.1-0.2,0-0.3c0-0.1,0-0.2,0-0.3s-0.1-0.2-0.1-0.3V3c0-0.1,0-0.2-0.1-0.2
	c0-0.1,0-0.2,0-0.3c0-0.2-0.1-0.4-0.1-0.6c-0.1-0.2-0.1-0.3-0.1-0.5c-0.1-0.1-0.2-0.2-0.3-0.4c-0.1-0.1-0.1-0.3-0.2-0.4
	c-0.1-0.1-0.2-0.2-0.3-0.2c-0.1-0.1-0.2-0.1-0.3-0.2C11.5,0.1,11.2,0,11,0s-0.4,0.1-0.4,0.2c-0.1,0.1-0.2,0.2-0.4,0.2
	c-0.1,0-0.1,0-0.2,0c-0.2,0-0.3,0.1-0.4,0.1C9.5,0.6,9.3,0.6,9.2,0.6C9,0.7,8.9,0.7,8.8,0.8C8.7,0.9,8.6,0.9,8.5,1
	c0,0.1,0,0.1-0.1,0.2c-0.1,0-0.2,0.1-0.3,0.1S7.9,1.4,7.8,1.5C7.7,1.6,7.6,1.7,7.4,1.9C7.3,2,7.2,2.1,7.1,2.2S6.9,2.4,6.9,2.5
	S6.8,2.7,6.7,2.8C6.6,2.9,6.5,3.1,6.4,3.2C6.3,3.3,6.3,3.3,6.3,3.4c0,0.1-0.1,0.1-0.1,0.2c0,0.1,0,0.1-0.1,0.1L6,3.8
	C5.9,3.9,5.9,4,5.9,4c0,0.1-0.1,0.2-0.2,0.3L5.6,4.4c0,0.1,0,0.1,0,0.1s0,0.1-0.1,0.1S5.4,4.7,5.4,4.7C5.1,5,4.9,5.4,4.8,5.7
	C4.6,6,4.4,6.4,4.1,6.7C4,7,4,7.2,3.8,7.4C3.7,7.6,3.6,7.8,3.5,8C3.4,8.1,3.4,8.2,3.3,8.3S3.2,8.5,3.1,8.6c0,0.1,0,0.2-0.1,0.3
	S2.9,9.1,2.8,9.2c0,0.2-0.1,0.3-0.2,0.5C2.5,9.9,2.4,10,2.3,10.2c0,0.1,0,0.3-0.1,0.4c0,0.1-0.1,0.2-0.1,0.3
	c-0.2,0.4-0.3,0.8-0.5,1.3c-0.1,0.5-0.3,0.9-0.4,1.3c0,0.1-0.1,0.2-0.1,0.3S1.1,14,1,14c0,0.1,0,0.2,0,0.3s0,0.1-0.1,0.2
	c-0.1,0.5-0.3,0.9-0.4,1.4c-0.1,0.5-0.3,0.9-0.4,1.4C0.1,17.5,0,17.8,0,18s0,0.5,0,0.7c0,0.4,0,0.8,0.1,1.2s0.1,0.8,0.1,1.2
	c0.1,0.5,0.2,1,0.5,1.5c0.2,0.5,0.5,0.9,1,1.2c0.1,0,0.2,0.1,0.3,0.1S2.1,24,2.2,24c0,0,0.1,0,0.1-0.1s0.1,0,0.2,0
	C2.6,24,2.8,24.1,3,24.1s0.4,0.1,0.6,0c0.2,0,0.4,0,0.5-0.1s0.3-0.2,0.5-0.3c0.2,0,0.3-0.1,0.4-0.2c0.1-0.1,0.3-0.1,0.4-0.2
	c0.1-0.1,0.1-0.1,0.2-0.1l0.1-0.1C5.8,23,5.9,22.9,6,22.8c0.1-0.1,0.2-0.1,0.3-0.2s0.2-0.1,0.2-0.2s0.1-0.1,0.2-0.1
	C6.9,22.2,7,22,7.2,21.9s0.4-0.2,0.5-0.3c0.1-0.2,0.3-0.3,0.4-0.4c0.1-0.1,0.3-0.2,0.5-0.3c-0.1,0.6-0.2,1.3-0.3,1.9
	S8.2,24,8.2,24.7c-0.1,0.3-0.1,0.5-0.1,0.8s0,0.5,0,0.7c0.1,0.3,0.2,0.5,0.3,0.7c0.2,0.2,0.3,0.4,0.5,0.6c0.1,0,0.2,0,0.3,0
	c0,0,0.1,0.1,0.2,0.1c0.2,0,0.3,0,0.4,0s0.3,0,0.4-0.1h0.1h0.1l0,0l0,0c0-0.1,0.1-0.1,0.2-0.1v-0.1v-0.1c0.1,0,0.1-0.1,0.2-0.1
	c0.1,0,0.1-0.1,0.2-0.1v-0.1c0-0.1,0-0.1,0-0.1c0.1,0,0.2,0,0.2,0c0-0.2,0-0.5,0.1-0.7s0.2-0.5,0.3-0.8c0-0.1,0-0.2,0-0.3
	c0-0.1,0-0.2,0-0.3c0-0.1,0.1-0.2,0-0.3c0-0.1,0-0.2,0-0.3c0-0.1,0-0.2,0.1-0.3c0-0.1,0.1-0.2,0.1-0.3c0,0,0,0,0-0.1
	c0,0,0-0.1-0.1-0.1c0-0.1,0.1-0.2,0.1-0.3c0-0.1,0-0.2,0-0.2c0-0.1,0-0.2,0-0.3c0-0.1,0-0.2,0-0.3c0-0.1,0.1-0.1,0.1-0.2
	s0-0.1,0-0.2v-0.1v-0.1c0-0.1,0-0.2,0-0.3s0-0.2,0-0.4c0-0.1,0-0.1,0.1-0.2s0.1-0.1,0-0.2c0-0.4-0.1-0.7-0.2-0.9
	c0-0.1,0-0.2-0.1-0.2c0-0.1,0-0.1,0-0.2v-0.1c0,0,0.1,0,0.1-0.1c0,0-0.1-0.1-0.1-0.2c0-0.1,0-0.2,0-0.3c0,0-0.1-0.1,0-0.1
	s0-0.1-0.1-0.1c0,0,0,0.1,0.1,0.1s0,0.1-0.1,0c0-0.1,0-0.2-0.1-0.3V18l0,0c0,0,0-0.1,0-0.2s0-0.1,0-0.2c0-0.1,0-0.1,0-0.2
	c0-0.1,0-0.1,0-0.1s-0.1,0,0-0.1s0.1-0.2,0.2-0.4c0.1-0.2,0.1-0.3-0.1-0.3c0,0,0-0.2,0.1-0.4s0.2-0.5,0.3-0.8
	c0.4-0.1,0.8-0.1,1.2-0.1c0.3,0,0.8,0,1.2,0c0.1,0,0.1,0,0.2,0s0.2,0,0.3-0.1c0,0-0.1,0,0,0s0,0,0.1,0c0,0,0,0,0.1,0
	c0.1,0.1,0.1,0.1,0.1,0h0.3V15c0.1,0,0.1,0,0.1-0.1v-0.1v-0.1h0.1l0,0c0,0,0,0,0,0.1c0.1,0,0.2,0,0.4,0s0.3,0,0.3-0.1v-0.1
	c0,0,0,0,0.1,0l0,0c0,0,0,0,0-0.1c0,0,0,0,0.1,0c0,0,0,0,0.1,0c0-0.1,0-0.1,0.1-0.1s0.1,0,0.1,0h-0.1c-0.1,0-0.1,0-0.1,0s0,0,0.1,0
	h0.1c0,0,0.1,0,0.1-0.1c0,0,0,0-0.1,0s-0.1,0-0.1-0.1c0.1,0,0.2,0,0.2,0s0.1,0,0.2,0c-0.1,0-0.2,0-0.3,0s-0.2,0-0.2,0
	c-0.1,0-0.1,0-0.2-0.1c-0.1,0-0.1-0.1-0.2-0.1c-0.1,0-0.2,0-0.2,0H16l-0.1-0.1c-0.2-0.1-0.4-0.1-0.6-0.1c-0.2,0.1-0.4,0.1-0.6,0.1
	c-0.3,0-0.7,0-1,0s-0.7,0-1,0c0.2,0,0.4,0,0.6,0c0.2,0,0.3,0,0.5,0C13.5,14,13.1,14,12.7,14c-0.4,0-0.8,0-1.1,0
	c-0.1,0-0.3,0.1-0.4,0.1c-0.2,0-0.3,0.1-0.5,0.2c-0.3,0.1-0.6,0.1-0.9,0.2c-0.3,0.1-0.6,0.1-0.9,0.2c-0.2,0.1-0.5,0.2-0.8,0.2
	C7.8,15,7.5,15,7.2,15.1c-0.3,0-0.5,0-0.9,0.1c-0.3,0-0.6,0-0.9-0.1c0,0.1,0,0.1-0.1,0.2c-0.1,0-0.2,0-0.2,0v0.1
	c0.1,0,0.1,0.1,0,0.1s-0.1,0.1-0.2,0c-0.1,0-0.1,0-0.2,0c0,0.1,0.2,0.2,0.4,0.2s0.4,0,0.5,0c-0.1,0.1-0.2,0.2-0.2,0.2
	c-0.1,0-0.2,0-0.2,0H5.1L5.2,16h0.3c0.1,0,0.3,0,0.4,0c0.2,0,0.3,0,0.4,0h0.6c0.2,0,0.4,0,0.6,0c0.3,0,0.6-0.1,0.8-0.1
	C8,16.6,8.3,16.6,8.5,16.7L8.5,16.7"/>
</svg>
