<?xml version="1.0" encoding="utf-8"?>
<!-- Generator: Adobe Illustrator 19.2.1, SVG Export Plug-In . SVG Version: 6.00 Build 0)  -->
<svg version="1.1" id="Layer_1" xmlns="http://www.w3.org/2000/svg" xmlns:xlink="http://www.w3.org/1999/xlink" x="0px" y="0px"
	 viewBox="0 0 50.6 28.1" style="enable-background:new 0 0 50.6 28.1;" xml:space="preserve">
<style type="text/css">
	.st0{fill:#022A3A;}
</style>
<path class="st0" d="M44.4,1.3c0,0-0.1,0.1-0.2,0.1C44.2,1.3,44.3,1.3,44.4,1.3 M43.7,1.9L43.7,1.9L43.7,1.9z M47.9,2
	c0-0.1-0.1-0.3-0.1-0.4c0-0.1-0.1-0.2-0.1-0.3V1.2c-0.1-0.2-0.2-0.3-0.3-0.4c-0.1-0.1-0.2-0.2-0.3-0.4c-0.1,0-0.1,0-0.1,0
	s0-0.1-0.1-0.1c0,0-0.1,0-0.1,0c0,0-0.1,0-0.1,0c0,0,0,0-0.1-0.1c-0.1,0-0.2,0-0.4,0c-0.1,0-0.2,0-0.2,0.1c-0.1,0-0.2,0-0.2,0
	c-0.1,0-0.2,0-0.2,0c-0.1,0.1-0.2,0.2-0.3,0.2c0,0.2-0.1,0.4-0.3,0.5c-0.1,0.1-0.3,0.2-0.4,0.3c0,0-0.1-0.1-0.1,0c0,0-0.1,0-0.1,0
	c0.1,0,0.2-0.1,0.2-0.2c-0.1,0-0.1,0-0.2,0c0.1,0,0.1-0.1,0.2-0.1s0.1-0.1,0.2-0.1c-0.2,0-0.3,0-0.4,0.1S44,1,43.9,1.1
	c-0.1,0.1-0.2,0.2-0.3,0.2c-0.1,0.1-0.2,0.1-0.3,0.2c-0.5,0.4-0.9,0.8-1.3,1.3c-0.4,0.4-0.7,0.9-1,1.5c0,0.1,0,0.1-0.1,0.1
	c-0.1,0-0.1,0.1,0,0.2c0,0,0.1,0,0.1,0c0.1,0,0.1,0,0.1,0c0,0,0-0.1,0.1-0.2c0-0.1,0.1-0.1,0.1-0.2c0-0.1,0.1-0.1,0.1-0.1
	c0,0,0.1,0,0.1,0c-0.1,0.1-0.1,0.2-0.2,0.2s-0.1,0.2-0.1,0.3c0,0,0.1-0.1,0.1-0.1c0,0,0-0.1,0.1,0c0,0.1-0.1,0.2-0.2,0.3
	c-0.1,0.1-0.1,0.2-0.1,0.3c0,0,0-0.1,0.1-0.1c0,0,0-0.1,0.1-0.1c0.1,0,0.2-0.1,0.2-0.2c0-0.1,0.1-0.2,0.2-0.2c0,0.1,0,0.1-0.1,0.2
	c-0.1,0-0.1,0.1-0.1,0.1c0-0.1,0.1-0.1,0.1-0.2c0-0.1,0.1-0.1,0.2-0.2v0.1c0,0,0.1-0.1,0.1-0.1c0,0,0.1-0.1,0.1-0.1
	c0.1-0.1,0.2-0.2,0.3-0.3c0.1-0.1,0.2-0.2,0.3-0.3c-0.1,0.2-0.2,0.4-0.4,0.6s-0.3,0.3-0.4,0.5c0.1-0.1,0.1-0.2,0.1-0.2h0.1l0-0.1
	c0,0,0.1,0,0.1-0.1c0-0.1,0.1-0.1,0.1-0.1c0,0.1-0.1,0.1-0.2,0.2s-0.1,0.1-0.1,0.2c0.1-0.2,0.2-0.3,0.4-0.5s0.3-0.3,0.5-0.3
	c0.2-0.2,0.4-0.4,0.6-0.6c0.2-0.2,0.4-0.4,0.6-0.6c0.1-0.1,0.2-0.1,0.2-0.1c0,0.1-0.1,0.1-0.2,0.2c-0.1,0-0.1,0.1-0.2,0.1
	C44.1,3,44,3.2,43.8,3.3c-0.1,0.1-0.2,0.3-0.4,0.4c0.2-0.1,0.3-0.3,0.5-0.5c0.2-0.2,0.4-0.3,0.6-0.4c-0.2,0.8-0.3,1.5-0.5,2.4
	c-0.1,0.8-0.3,1.6-0.5,2.5c-0.1,0.5-0.2,0.9-0.3,1.4c-0.1,0.5-0.2,1-0.3,1.5c-0.1,0.4-0.1,0.9-0.3,1.5c-0.1,0.6-0.2,1.1-0.3,1.7
	c-0.1,0.5-0.2,1-0.2,1.5s-0.1,0.8-0.1,1c0,0.1,0,0.2-0.1,0.4c0,0.2-0.1,0.3-0.1,0.5c0,0.2-0.1,0.4-0.1,0.5s-0.1,0.3-0.1,0.4
	c0.1,0.2,0,0.5,0,0.7c0,0.3-0.1,0.5-0.1,0.8s0,0.6-0.1,0.8c-0.1,0.3-0.1,0.6-0.2,0.9s-0.1,0.7-0.2,1c-0.1,0.3-0.1,0.7-0.1,1
	s0,0.6,0.1,0.9c0,0.1,0.1,0.2,0.2,0.3c0.1,0.1,0.1,0.2,0.2,0.3c0,0,0,0.1,0.1,0.1c0,0.1,0.1,0.1,0.1,0.1c0-0.1-0.1-0.1-0.1-0.2
	c0-0.1,0-0.2,0.1-0.2c0,0,0,0.1,0,0.1c0,0,0,0.1,0.1,0.1c0,0,0-0.1,0-0.1s0,0,0,0c0,0,0.1,0,0,0c0,0,0,0,0,0c0,0.1,0.1,0.1,0.2,0.1
	c0.1,0,0.1,0.1,0.2,0.1l0,0c0,0,0,0,0,0h0c0-0.1,0-0.2,0-0.2c0-0.1,0-0.1,0.1-0.1c0,0,0.1,0.1,0.1,0.1c0,0,0.1,0.1,0.1,0.1
	c0-0.1,0-0.2,0-0.2c0,0,0.1,0,0.1,0c0,0,0,0,0.1,0c0-0.1,0-0.1,0-0.2s0-0.1,0-0.1c0,0,0,0,0,0s0,0,0,0c0,0,0-0.1,0-0.1
	c0,0,0-0.1,0-0.1H43c0-0.1,0-0.1,0-0.1c0,0,0.1,0,0.1-0.1v-0.2c0-0.1,0.1-0.1,0.2-0.1c0,0,0-0.1,0-0.1c0,0,0-0.1,0-0.1
	c0.1,0,0.1-0.1,0.1-0.2c0-0.1,0-0.1,0-0.2c0-0.1,0-0.1,0.1-0.1c0,0,0-0.1,0-0.1c0,0,0.1-0.1,0.1-0.1c0,0,0-0.1,0.1-0.1c0,0,0,0,0,0
	c0,0,0,0,0,0c0,0,0-0.1,0-0.2s0-0.1,0.1-0.2c0,0,0,0.1,0,0.1c0,0,0,0.1,0,0.1c0.1-0.1,0.1-0.1,0.2-0.2c0-0.1,0.1-0.2,0.1-0.3h0.1
	c0,0,0-0.1,0-0.1c0,0,0,0,0-0.1c0,0,0,0,0,0c0,0,0,0,0,0c0.1-0.2,0.2-0.5,0.3-0.7c0.1-0.3,0.1-0.5,0.2-0.7c0-0.2,0.1-0.4,0.1-0.5
	s0.1-0.4,0.1-0.6c0-0.2,0.1-0.4,0-0.5c0-0.2,0-0.4,0-0.5c0-0.2,0-0.4,0.1-0.7c0-0.3,0.1-0.5,0.1-0.8c0-0.3,0.1-0.5,0.1-0.8
	c0-0.2,0.1-0.4,0.1-0.6c0-0.2,0.1-0.5,0.2-1c0.1-0.5,0.2-1,0.3-1.6c0.1-0.6,0.2-1.1,0.3-1.6c0.1-0.5,0.2-0.8,0.2-0.9
	c0.1-0.2,0.1-0.3,0.1-0.4c0.1-0.4,0.2-0.8,0.3-1.2s0.1-0.8,0.2-1.3c0,0,0,0,0,0c0,0,0,0,0,0c0-0.3,0-0.6,0.1-0.8
	c0-0.1,0-0.2,0.1-0.3c0-0.1,0.1-0.2,0.1-0.3c0-0.2,0-0.3,0-0.4c0,0,0-0.1,0-0.1c0,0,0,0,0-0.1c0-0.1,0-0.2,0-0.3s0-0.2,0-0.3
	c0.1-0.3,0.1-0.6,0.1-0.8c0,0,0.1,0,0.1-0.1c0-0.2,0.1-0.4,0.2-0.6c0.1-0.2,0.1-0.4,0.1-0.7V2z M30.9,23.4
	C30.9,23.4,30.9,23.4,30.9,23.4c0.1,0,0.1-0.1,0.2-0.1c0,0,0,0,0.1,0c0.1,0,0.2-0.1,0.3-0.1c0.1,0,0.2-0.1,0.2-0.2
	c0-0.1,0.1-0.1,0.1-0.2c0-0.1,0.1-0.2,0.1-0.3c0.1-0.2,0.1-0.5,0.1-0.8c0-0.3-0.1-0.5-0.2-0.7c-0.1-0.1-0.2-0.2-0.2-0.2
	c-0.1-0.1-0.2-0.1-0.3-0.2c-0.1,0-0.2,0-0.3,0c-0.1,0-0.2,0-0.3,0.1c0,0.1,0,0.1-0.1,0.1c-0.3,0.1-0.5,0.3-0.6,0.5
	c-0.2,0.2-0.2,0.5-0.2,0.9c0,0.1,0,0.2,0,0.3c0,0.1,0.1,0.2,0.1,0.3c0,0.1,0.1,0.2,0.1,0.3c0,0.1,0.1,0.2,0.1,0.3h0.1
	c0-0.1,0.1-0.1,0.1-0.1c0.1,0,0.1,0.1,0.1,0.1c0,0,0,0.1,0.1,0.1c0,0,0.1,0,0.1-0.1c0-0.1,0-0.1,0.1-0.1c0.1,0,0.1,0,0.1,0.1
	C30.7,23.4,30.7,23.5,30.9,23.4C30.9,23.5,30.9,23.4,30.9,23.4 M26.8,18.1c0-0.2,0.1-0.4,0.1-0.7c0-0.2,0.1-0.5,0.1-0.8
	c0,0,0,0,0.1,0c0,0,0,0,0.1,0L26.8,18.1z M25.7,18.6c0,0.2-0.1,0.4-0.2,0.5s-0.2,0.3-0.2,0.4c-0.1,0.1-0.2,0.3-0.3,0.5
	c-0.1,0.2-0.1,0.3-0.1,0.5c0,0.2-0.1,0.3-0.2,0.4c0,0-0.1,0-0.1,0.1c0,0-0.1,0.1-0.1,0.1c0,0-0.1,0-0.1,0c0,0,0,0,0,0s0,0,0,0
	c-0.1,0.2-0.2,0.3-0.4,0.4c-0.2,0.1-0.3,0.3-0.5,0.4c-0.2,0.1-0.3,0.2-0.5,0.2c-0.2,0-0.4,0.1-0.6,0.1c-0.2,0-0.3,0.1-0.5,0.1
	c-0.1,0-0.3,0-0.5-0.1c-0.1-0.1-0.2-0.2-0.3-0.3c-0.1-0.1-0.2-0.3-0.2-0.4v-0.1c0-0.1,0-0.1-0.1-0.2c0,0,0-0.1-0.1-0.1
	c0,0,0-0.1,0-0.1s0-0.1,0-0.1c0-0.1,0-0.2,0-0.2s0-0.2,0-0.3c0.1-0.2,0.1-0.3,0.1-0.5s0-0.3,0.1-0.4c0-0.1,0-0.2,0-0.4
	c0.1-0.2,0.1-0.4,0.3-0.6c0.1-0.2,0.2-0.4,0.4-0.6c0.1-0.1,0.2-0.3,0.3-0.5c0.1-0.2,0.2-0.4,0.3-0.6c0,0,0.1-0.1,0.1-0.1
	c0,0,0.1-0.1,0.1-0.2c0.2,0,0.3-0.1,0.3-0.3c0.1-0.2,0.2-0.3,0.3-0.5c0-0.1,0.1-0.1,0.1-0.2s0.1-0.1,0.1-0.2
	c0.1-0.1,0.1-0.2,0.1-0.3c0-0.1,0.1-0.2,0.1-0.3c0.1,0.1,0.2,0.2,0.3,0.4s0.2,0.2,0.3,0.3c0.1,0.1,0.2,0.2,0.3,0.2
	c0,0,0.1,0.1,0.2,0.1c0.1,0.1,0.2,0.2,0.3,0.3s0.2,0.1,0.3,0.1c0.1,0.1,0.2,0.1,0.4,0.2s0.3,0.1,0.5,0.1c0,0.2,0,0.3,0,0.4
	S26,17.2,26,17.3c0,0.2-0.1,0.3-0.1,0.5c0,0.1-0.1,0.3-0.1,0.4C25.7,18.3,25.7,18.5,25.7,18.6 M25.2,13.8c0,0.1,0,0.2,0,0.3l0.1,0.2
	c0,0,0.1,0.1,0.1,0.2c0,0.1,0,0.1,0.1,0.2c0,0.1,0.1,0.1,0.1,0.2c0.1,0.1,0.1,0.2,0.1,0.3v0.1c0,0-0.1,0.1-0.1,0
	c-0.1,0-0.1,0-0.1-0.1c-0.2-0.1-0.3-0.2-0.5-0.3c-0.1-0.1-0.3-0.3-0.4-0.5c0-0.1,0-0.3,0-0.4c0.1-0.2,0.2-0.2,0.3-0.3
	C25.2,13.6,25.2,13.7,25.2,13.8 M31.2,14.4c0,0-0.1,0-0.1,0c-0.1,0-0.1,0.1-0.2,0.1s-0.2,0.1-0.3,0c-0.1,0.1-0.3,0.2-0.5,0.3
	c-0.2,0.1-0.5,0.2-0.8,0.3c-0.1,0-0.2,0.1-0.4,0.1s-0.3,0-0.5,0s-0.4,0-0.5,0s-0.3,0-0.4,0c-0.1,0-0.1,0-0.1,0c0,0-0.1,0-0.2,0
	c0,0-0.1-0.1-0.1-0.1c0,0,0,0-0.1,0c0-0.1,0-0.2-0.1-0.3c0,0,0-0.1,0-0.1c0-0.1,0-0.1-0.1-0.2c0,0.1,0,0.2,0.1,0.3
	c0,0.1,0,0.2,0,0.3c-0.1,0-0.1,0-0.1-0.1c0-0.1,0-0.1,0-0.2c0-0.1-0.1-0.2-0.1-0.4c0-0.1-0.1-0.2-0.2-0.3c-0.1,0-0.2-0.1-0.2-0.3
	c0-0.1-0.1-0.2-0.1-0.3c0-0.1-0.1-0.2-0.1-0.3c-0.1-0.1-0.1-0.2-0.1-0.3l-0.2-0.1c0,0,0.1-0.1,0-0.1c0,0,0-0.1,0-0.1
	c-0.1,0-0.1,0-0.1,0c0,0,0,0-0.1,0c0,0,0.1,0.1,0.1,0.1c0,0.1,0,0.1-0.1,0.1c-0.1,0-0.1,0-0.1,0s-0.1,0-0.1,0c0,0-0.1,0-0.1,0.1
	c0,0,0,0-0.1,0c-0.1-0.1-0.2-0.1-0.3-0.1c-0.1,0-0.2,0-0.3,0c-0.1,0.1-0.2,0.1-0.3,0.3c-0.1,0.1-0.2,0.1-0.4,0c0,0-0.1,0.1-0.1,0.1
	c0,0.1-0.1,0.1-0.1,0.1c0-0.2,0-0.3,0-0.4c0-0.1-0.1-0.2-0.2-0.3c-0.1-0.1-0.3-0.2-0.5-0.3c-0.2-0.1-0.4-0.1-0.6,0c0,0,0,0,0,0h-0.1
	c-0.2,0.1-0.4,0.2-0.5,0.4c-0.2,0.1-0.3,0.3-0.5,0.4c-0.2,0.2-0.3,0.4-0.5,0.5c-0.1,0.2-0.3,0.4-0.4,0.6c-0.5,0.6-1,1.4-1.4,2.3
	s-0.7,1.9-0.7,2.9v0c0,0.1,0,0.2,0,0.3s0,0.2-0.1,0.3c0,0.2,0.1,0.3,0.1,0.5c0,0.2,0.1,0.3,0.1,0.5v0.2l0.1,0.1
	c0.1,0.4,0.3,0.7,0.4,1.2c0.1,0.4,0.3,0.7,0.7,0.9c0.2,0.2,0.4,0.4,0.6,0.6c0.2,0.2,0.5,0.3,0.8,0.4c0.2,0.1,0.3,0.1,0.5,0
	c0.2,0,0.3-0.1,0.5-0.1c0,0,0,0,0,0s0,0,0,0c0.3,0,0.5,0,0.7-0.2c0.2-0.1,0.4-0.2,0.7-0.3c0.1-0.1,0.2-0.2,0.4-0.3s0.3-0.2,0.4-0.3
	c0.1-0.2,0.2-0.2,0.2-0.3c0,0,0.1-0.1,0.1-0.1s0.1-0.1,0.1-0.1c0,0,0-0.1,0.1-0.1c0-0.1,0.1-0.1,0.1-0.2c0.1-0.1,0.1-0.2,0.1-0.3
	c0-0.1,0.1-0.2,0.1-0.3c0.1-0.2,0.2-0.3,0.3-0.5c0.1-0.1,0.2-0.3,0.3-0.5c0-0.1,0.1-0.2,0.1-0.4c0-0.1,0.1-0.3,0.1-0.4v0.1
	c0,0,0,0,0,0C25.9,20.1,26,20,26,20c0-0.1,0.1-0.1,0.1-0.2c0.1-0.2,0.2-0.4,0.2-0.5c0,0,0-0.1,0-0.1s0,0,0-0.1
	c0-0.2,0.1-0.4,0.2-0.5s0.1-0.3,0.2-0.5c0,0.2-0.1,0.3-0.1,0.3c0,0.1-0.1,0.2-0.1,0.3c0.2-0.4,0.3-0.7,0.3-1
	c0.1-0.3,0.1-0.7,0.2-1.1c0.1,0,0.3,0,0.6,0c0.3,0,0.6-0.1,1-0.1c0.4-0.1,0.7-0.2,1.1-0.3c0.4-0.1,0.7-0.3,1-0.5c0,0,0-0.1,0.1-0.1
	c0.1,0,0.1-0.1,0.2-0.2c0.2-0.1,0.3-0.2,0.3-0.4c0.1-0.1,0-0.2,0-0.3C31.3,14.5,31.2,14.4,31.2,14.4 M8.8,9.3c0.1-0.3,0.1-0.7,0.1-1
	C9,8.3,9,8.2,9,8.1c0-0.1,0-0.2,0.1-0.3c0-0.2,0.1-0.5,0.1-0.8c0-0.3,0-0.5,0-0.8c0-0.2,0.1-0.4,0.1-0.6c0-0.2,0-0.4,0-0.6
	C9.3,5,9.3,4.9,9.3,4.8c0-0.1,0-0.2,0-0.3c0-0.3,0.1-0.6,0.1-0.8c0-0.3,0-0.5-0.1-0.6c0-0.1,0-0.2,0-0.3c0-0.1-0.1-0.2-0.1-0.3
	C9.1,2.1,8.9,1.9,8.7,1.6C8.6,1.4,8.4,1.2,8.2,0.9C8.1,0.9,8,0.9,7.9,0.8c-0.1,0-0.1-0.1-0.2-0.1c-0.1,0-0.3-0.1-0.5,0
	S6.9,0.8,6.8,0.9c0,0,0,0,0,0c0,0,0,0.1-0.1,0.1C6.5,1.1,6.5,1.2,6.4,1.2C6.3,1.3,6.3,1.4,6.2,1.5C6.1,1.6,6,1.7,5.9,1.8
	S5.8,2,5.9,2.2C5.8,2.3,5.7,2.5,5.7,2.6s0,0.3-0.1,0.5c0,0.1,0,0.2-0.1,0.2c0,0.1-0.1,0.2-0.1,0.2c0,0,0,0.1,0,0.1c0,0,0,0.1,0,0.1
	c0,0.2-0.1,0.4-0.1,0.7c0,0.2-0.1,0.4-0.1,0.7c0,0.1,0,0.2,0,0.3v0.3c0,0.1-0.1,0.1-0.1,0.2C5.2,6.8,5,7.7,4.8,8.6
	c-0.2,0.9-0.4,1.8-0.6,2.8c0,0.2-0.1,0.3-0.1,0.5c0,0.1,0,0.3-0.1,0.4c0,0.2,0,0.3-0.1,0.5s0,0.3-0.1,0.5c-0.1,0.3-0.2,0.6-0.2,0.9
	c-0.1,0.5-0.2,1-0.3,1.5c-0.1,0.5-0.1,1-0.2,1.4c0,0.2-0.1,0.3-0.1,0.4c0,0.2-0.1,0.5-0.1,0.7c-0.1,0.2-0.1,0.4-0.1,0.6
	c-0.1,1-0.2,1.9-0.3,3s-0.1,2,0,3.1c0,0.1,0.1,0.2,0.1,0.3s0.1,0.2,0.1,0.3c0.1,0,0.1,0,0.1,0c0,0.1,0,0.1,0.1,0.1
	c0,0,0.1,0.1,0.1,0.1c0,0,0.1,0,0.1,0.1c0,0,0,0,0,0.1c0,0,0,0.1,0,0.1c0.1,0,0.2,0.1,0.2,0.2c0.1,0.1,0.1,0.2,0.2,0.2
	c0.1,0,0.1,0,0.2,0s0.1,0,0.2,0c0,0,0.1,0,0.1,0c0,0,0.1,0,0.1,0c0.1,0,0.1,0,0.2,0c0,0,0.1,0,0.1,0c0.1-0.1,0.1-0.1,0.1-0.2
	c0-0.1,0.1-0.2,0.1-0.3c0.1,0,0.2-0.1,0.3-0.2c0.1-0.1,0.1-0.3,0.1-0.4c0,0,0.1,0,0.1,0c0,0,0,0.1,0.1,0c-0.1-0.2,0-0.4,0.1-0.6
	c-0.1-0.2,0-0.4,0.1-0.5c0,0,0.1,0,0.1,0c0,0,0.1,0,0.1,0c0-0.1,0-0.3,0-0.5s0-0.3,0.2-0.4c0,0,0-0.1,0-0.1c0,0,0-0.1,0-0.1
	c0.1-0.2,0.2-0.4,0.2-0.6c0-0.2,0.1-0.5,0.1-0.7c0-0.1,0-0.2,0-0.2s0-0.2,0.1-0.2c0-0.2,0.1-0.3,0-0.5s0-0.3,0-0.5
	c0.1-0.1,0.1-0.2,0.1-0.5v-0.3c0-0.1,0.1-0.2,0.1-0.3c0-0.1,0-0.2,0-0.3c0-0.2,0.1-0.3,0.1-0.5C6.9,18.4,7,18.2,7,18
	c0-0.3,0.1-0.5,0.1-0.7c0-0.2,0.1-0.4,0.1-0.6c0.1,0,0.1-0.1,0.1-0.1c0,0,0-0.1,0-0.1c0-0.1,0-0.2,0.1-0.2c0-0.1,0-0.1,0.1-0.2
	c0-0.1,0-0.1,0-0.1s0-0.1,0-0.1c0,0,0-0.1,0-0.1s0-0.1,0.1-0.2c0-0.1,0.1-0.2,0-0.3c0-0.1,0-0.2,0-0.3c0-0.1,0.1-0.2,0.1-0.3
	s0.1-0.2,0.1-0.3C8,14,8.2,13.7,8.4,13.4c0.2-0.3,0.4-0.6,0.6-0.9c0-0.1,0.1-0.2,0.1-0.3c0.1-0.1,0.1-0.1,0.2-0.2
	c0,0,0.1-0.1,0.1-0.1c0-0.1,0-0.1,0.1-0.1c0-0.1,0.1-0.1,0.2-0.2c0,0,0.1-0.1,0.1-0.1c0-0.1,0-0.1,0.1-0.1c0,0,0.1-0.1,0.2-0.1
	c0.1,0,0.1-0.1,0.2-0.1c0.3-0.5,0.6-1,0.9-1.5c0.3-0.5,0.7-0.9,1-1.4c0.2-0.1,0.3-0.2,0.4-0.4s0.2-0.3,0.4-0.5c0-0.1,0-0.1,0-0.2
	c0,0,0-0.1,0-0.1c0.1-0.1,0.2-0.3,0.3-0.4c0.1-0.1,0.2-0.3,0.3-0.5c0.1-0.2,0.3-0.4,0.5-0.5c0.2-0.1,0.4-0.3,0.5-0.5
	c0.1-0.1,0.2-0.1,0.3-0.2s0.2-0.2,0.3-0.2c0,0.5,0,0.9-0.1,1.4s-0.2,0.9-0.3,1.3c-0.1,0.4-0.2,0.8-0.3,1.2c-0.1,0.4-0.2,0.8-0.3,1.2
	c0,0.2-0.1,0.3-0.1,0.5c0,0.1,0,0.3-0.1,0.5c0,0.3-0.1,0.7-0.2,1c-0.1,0.3-0.1,0.6-0.2,0.9c0,0.4-0.1,0.7-0.1,1.1
	c0,0.4,0,0.7-0.1,1.1c-0.1,0.6-0.2,1.1-0.3,1.7c-0.1,0.6-0.2,1.1-0.3,1.7c-0.1,0.5-0.2,0.9-0.2,1.4c-0.1,0.5-0.1,1-0.1,1.5
	c-0.1,0.5-0.1,1.1-0.1,1.7c0,0.6,0.1,1.1,0.2,1.6c0,0.2,0.1,0.4,0.1,0.6c0,0.2,0.1,0.3,0.1,0.5c0.1,0.2,0.1,0.3,0.2,0.4
	c0.1,0.1,0.2,0.3,0.3,0.5c0.2,0.3,0.4,0.6,0.6,0.8c0.2,0.2,0.5,0.4,0.9,0.5c0,0,0.1,0,0.1,0s0.1,0,0.1,0c0.1,0.1,0.3,0.2,0.5,0.2
	c0.2,0,0.4,0,0.6,0c0-0.1,0-0.1,0-0.1c0,0,0.1-0.1,0.1-0.1c-0.2,0-0.2-0.1-0.2-0.2c0,0,0.1,0,0.1,0c0,0,0.1,0,0.1,0
	c0,0,0-0.1-0.1-0.1c0,0-0.1-0.1,0-0.1c0.1,0,0.2,0,0.2,0c0,0,0.1,0.1,0.2,0.1c0,0,0.1-0.1,0.1-0.1s0.1,0,0.2-0.1
	c-0.1,0-0.2-0.1-0.3-0.1s-0.2-0.2-0.2-0.3c0.1,0,0.1,0,0.1-0.1c-0.1-0.1-0.1-0.1,0-0.2c0.1,0,0.1,0,0.1,0c0,0,0.1,0,0.1,0
	c0-0.1-0.1-0.1-0.1-0.2c0,0,0-0.1-0.1-0.2c0,0,0.1,0,0.1,0c0,0,0,0,0,0c0,0,0,0-0.1,0c0,0,0,0,0-0.1c0,0,0-0.1,0.1,0s0,0,0,0
	c-0.1,0-0.1,0,0,0c0,0,0,0,0-0.1c0-0.1-0.1-0.1,0-0.2c-0.1-0.1-0.2-0.3-0.3-0.3c-0.1-0.1-0.2-0.2-0.2-0.4c0-0.1-0.1-0.3,0-0.4
	c0-0.2,0-0.3,0-0.5c0-0.1,0-0.2,0-0.2c0-0.1,0-0.1-0.1-0.2c0-0.2,0-0.4,0-0.6s0-0.4,0-0.6c0-0.2,0-0.3,0-0.4s0-0.3,0-0.4
	c0-0.1,0.1-0.2,0.1-0.3c0-0.1,0-0.2,0-0.3c0.1-0.5,0.1-0.9,0.1-1.3c0.1-0.3,0.1-0.5,0.2-0.9c0.1-0.3,0.2-0.7,0.2-1
	c0-0.1,0-0.2,0-0.3s0-0.2,0-0.3c0.1-0.1,0.1-0.1,0.1-0.1c0-0.2,0-0.3,0-0.5c0-0.2,0-0.4,0-0.6c0-0.1,0-0.2,0.1-0.3
	c0-0.1,0-0.2,0-0.3c0-0.2,0-0.4,0-0.6c0-0.2,0.1-0.4,0.1-0.6c0-0.1,0.1-0.2,0-0.3s0-0.2,0-0.3c0-0.2,0.1-0.3,0.1-0.5
	c0-0.2,0.1-0.3,0.1-0.5c0-0.2,0.1-0.4,0.1-0.5c0-0.2,0-0.4,0.1-0.5c0-0.1,0.1-0.2,0.1-0.2c0-0.1,0-0.1,0-0.2
	c0.1-0.4,0.1-0.8,0.1-1.2c0-0.4,0.1-0.8,0.1-1.2c0-0.1,0-0.2,0-0.3c0-0.1,0-0.2,0-0.3c0-0.1,0-0.1,0-0.2s0-0.1,0-0.2
	c0-0.3,0.1-0.5,0.1-0.7c0-0.2,0-0.4,0-0.6c0-0.1,0-0.2-0.1-0.3c0-0.1,0-0.3,0-0.4c-0.1-0.1-0.1-0.1-0.1-0.3s0-0.2,0-0.3
	c0-0.1-0.1-0.2,0-0.4s0-0.3-0.1-0.4c0-0.1,0.1-0.2,0.2-0.2s0.1-0.2,0.2-0.3c0-0.3-0.2-0.4-0.5-0.4c0,0-0.1-0.1-0.1-0.2
	c0-0.1-0.1-0.1-0.1-0.2c0,0,0,0-0.1,0s-0.1,0-0.1,0c-0.1-0.1-0.1-0.1-0.1-0.2c0-0.1,0-0.1-0.1-0.1c0,0,0,0-0.1,0c0,0-0.1,0-0.1-0.1
	c0,0-0.1-0.1-0.1-0.1c0,0-0.1-0.1-0.1-0.1c-0.1-0.1-0.3-0.2-0.5-0.2c-0.2,0-0.4,0-0.6,0c-0.3,0.1-0.6,0.1-0.8,0.2
	c-0.2,0.1-0.4,0.2-0.6,0.4c-0.1,0.1-0.2,0.2-0.3,0.3c-0.1,0.1-0.2,0.2-0.3,0.3c-0.2,0.2-0.3,0.3-0.4,0.5c-0.1,0.1-0.3,0.3-0.4,0.4
	c-0.1,0.1-0.1,0.1-0.2,0.1c-0.1,0-0.1,0.1-0.1,0.1c-0.2,0.2-0.4,0.4-0.5,0.7c-0.2,0.2-0.3,0.5-0.5,0.7c-0.2,0.3-0.4,0.6-0.6,0.9
	c-0.2,0.3-0.4,0.6-0.6,0.9C9.8,8.4,9.6,8.7,9.5,9C9.3,9.3,9.1,9.6,9,9.8C9,9.9,8.9,10,8.9,10.1c-0.1,0.1-0.1,0.2-0.2,0.2
	C8.6,10,8.7,9.7,8.8,9.3"/>
</svg>
