<?xml version="1.0" encoding="utf-8"?>
<!-- Generator: Adobe Illustrator 19.2.1, SVG Export Plug-In . SVG Version: 6.00 Build 0)  -->
<svg version="1.1" id="Layer_1" xmlns="http://www.w3.org/2000/svg" xmlns:xlink="http://www.w3.org/1999/xlink" x="0px" y="0px"
	 viewBox="0 0 50.8 27.6" style="enable-background:new 0 0 50.8 27.6;" xml:space="preserve">
<style type="text/css">
	.st0{fill:#082432;}
</style>
<path class="st0" d="M39.6,22.5C39.6,22.4,39.6,22.4,39.6,22.5c-0.1-0.1-0.1-0.1-0.1-0.2C39.6,22.3,39.6,22.3,39.6,22.5 M38.6,17.7
	c0,0.1-0.1,0.1-0.1,0.1C38.5,17.8,38.5,17.8,38.6,17.7c-0.1-0.1-0.1-0.1-0.1-0.2c-0.1,0.8-0.1,1.7,0.1,2.5s0.4,1.6,0.7,2.2
	c-0.2-0.3-0.4-0.6-0.5-1s-0.2-0.8-0.2-1.3l0,0l0,0c0-0.2-0.1-0.3-0.1-0.4c-0.1-0.2-0.1-0.5-0.1-0.7s0-0.5-0.1-0.7v0.1v0.1
	c-0.1,0-0.2,0.1-0.2,0.1c0,0.1-0.1,0.2-0.1,0.2s-0.1,0.2-0.1,0.3c0,0.2-0.1,0.4,0,0.6c0,0.2,0,0.4,0.1,0.6c0.1,0.5,0.2,1,0.3,1.5
	c0.1,0.5,0.3,0.9,0.5,1.3s0.5,0.7,0.8,1s0.7,0.5,1.1,0.6c0-0.1,0-0.1,0.1-0.2c0,0,0.1,0,0.1,0.1s0,0,0.1,0c0-0.1,0-0.1,0.1-0.1
	s0.3,0.1,0.4,0c0.2,0,0.3,0,0.5,0c0.1,0,0.1,0.1,0.2,0.1s0.2,0,0.3,0s0.2,0,0.3,0s0.2,0,0.2,0.1c0.1,0,0.2,0,0.2-0.1
	c0.1,0,0.1,0,0.2,0.1c0.1-0.1,0.2-0.1,0.2-0.1c0.1,0,0.2,0,0.2,0c0.1,0,0.2-0.1,0.2-0.1c0-0.1,0.1-0.1,0.2-0.1v0.1c0,0,0,0,0,0.1
	h0.1c0,0,0,0,0.1,0c0,0.1,0.1,0.1,0.2,0.1c0-0.1,0.1-0.1,0.1-0.2s0.1-0.1,0.1-0.2h0.1l0,0c0,0,0.1-0.1,0.1-0.2s0.1-0.1,0.2-0.1
	c0-0.1,0-0.1,0.1-0.2l0.1-0.1c0,0,0.1,0,0.2,0c0.2-0.4,0.5-0.9,0.7-1.3s0.5-0.9,0.6-1.4c0.1-0.2,0.2-0.5,0.3-0.7
	c0.1-0.3,0.2-0.5,0.3-0.8c0-0.1,0-0.2,0.1-0.3c0-0.1,0.1-0.2,0.1-0.3c0.3-0.5,0.5-0.9,0.7-1.5c0.2-0.5,0.4-1,0.6-1.5v-0.1
	c0,0,0,0,0-0.1l0.1-0.1c0,0,0-0.1,0.1-0.1c0-0.2,0.1-0.3,0.1-0.4c0.1-0.1,0.1-0.2,0.1-0.4c0.1-0.1,0.1-0.2,0.1-0.3s0-0.2,0.1-0.4
	l0.1-0.1c0-0.2,0.1-0.3,0.1-0.5s0-0.3,0.1-0.5c0-0.1,0-0.1,0.1-0.2c0-0.1,0-0.1,0-0.2v-0.1c0,0,0,0,0-0.1s0-0.2,0.1-0.3s0-0.2,0-0.3
	s0-0.3,0-0.4c0-0.1,0-0.3,0.1-0.4c0-0.6-0.1-1-0.4-1.5s-0.6-0.7-1-0.9c0,0,0-0.1-0.1-0.1c0,0,0,0,0-0.1C48.6,8,48.4,8,48.3,7.9
	S48,7.8,47.8,7.8h-0.1c0,0,0,0-0.1,0h-0.1h-0.1c-0.1,0-0.2,0-0.4,0c-0.1,0-0.2,0-0.3,0.1c-0.1,0-0.2,0-0.4,0C45.9,8,45.4,8.1,45,8.3
	s-0.8,0.3-1.2,0.5C43.6,8.9,43.5,9,43.3,9c-0.1,0.1-0.3,0.1-0.5,0.2c0-0.1-0.1-0.3-0.1-0.4s0-0.3,0.1-0.4C42.9,8.2,43,8.1,43.1,8
	s0.2-0.3,0.2-0.5c0.2-0.2,0.3-0.4,0.3-0.6c0-0.2,0.1-0.4,0.3-0.6c0-0.2,0.1-0.4,0.1-0.5c0.1-0.2,0.1-0.4,0.1-0.6l0,0l0,0
	c0-0.2,0.1-0.4,0.1-0.6c0.1-0.2,0.1-0.4,0.2-0.6c0-0.1,0-0.2,0.1-0.3c0-0.1,0-0.2,0-0.3s0-0.3,0.1-0.4c0-0.1,0.1-0.2,0-0.4
	c0-0.1,0.1-0.1,0.1-0.2c0-0.1,0.1-0.2,0.1-0.2c0.6-0.1,1.2-0.3,1.8-0.3c0.6-0.1,1.1-0.2,1.7-0.3c0.3,0,0.6-0.1,0.9-0.1
	c0.3,0,0.7-0.1,1-0.1l0.1-0.1c0,0,0.1,0,0.1-0.1s0-0.1-0.1-0.1S50.2,1,50.2,0.9c0,0,0.1-0.1,0.3,0s0.2,0,0.3-0.1c-0.1,0-0.2,0-0.3,0
	s-0.2,0-0.3-0.1c-0.1,0-0.1-0.1-0.1-0.1c0-0.1,0-0.1,0.2-0.2c-0.3,0-0.5-0.1-0.8-0.1c-0.2,0-0.5,0-0.8-0.1h-0.1h-0.1H48
	c-0.2,0-0.4,0-0.6,0.1l0,0c0,0,0,0-0.1,0c-0.4,0-0.7,0.1-1,0.1s-0.6,0.1-1,0.1c-0.3,0.2-0.7,0.3-1,0.3s-0.7,0.1-1,0.3
	c-0.3,0.1-0.7,0.2-1,0.3s-0.6,0.2-0.9,0.3l-0.1,0.1c0,0-0.1,0-0.1,0.1c-0.1,0-0.1,0-0.2,0.1s-0.1,0.1-0.2,0.1c0,0.1-0.1,0.2-0.2,0.2
	c-0.1,0-0.1,0.1-0.2,0.2h0.1c0,0,0,0,0.1,0v0.2c0.1,0,0.2,0,0.3,0s0.2,0,0.2,0c0,0.1,0,0.1,0,0.1c-0.1,0-0.1,0-0.1,0.1
	c0.1,0,0.1,0,0.1,0s0.1,0,0.2,0c0,0,0,0,0,0.1c0,0,0,0,0,0.1C41.5,3,41.7,3,41.9,2.9s0.4-0.1,0.6-0.1v0.1c0,0-0.1,0-0.2,0
	s-0.1,0-0.1,0.1c0.2,0,0.3,0,0.5-0.1s0.3-0.1,0.4-0.1c0,0.3-0.1,0.6-0.1,0.8c0,0.3-0.1,0.6-0.1,0.9c0,0.1-0.1,0.3-0.1,0.5
	s-0.1,0.3-0.2,0.5c0,0,0,0.1-0.1,0.1s0,0-0.1,0.1v0.1v0.1C42.3,6,42.3,6,42.3,6.1c0,0.1-0.1,0.3-0.1,0.4c0,0.1,0,0.3-0.1,0.4L42,7
	v0.1c0,0.1,0,0.1,0,0.2c0,0.1,0,0.1,0,0.2s0,0.1,0,0.2c0,0.2-0.1,0.5-0.1,0.7s0,0.4-0.1,0.6c-0.5,0.4-0.8,0.9-0.9,1.6
	c-0.1,0.2-0.2,0.3-0.3,0.5c-0.2,0.2-0.2,0.4-0.3,0.6v0.2c0,0.1,0,0.2,0.1,0.2c0,0.1,0.1,0.2,0.3,0.3s0.3,0.2,0.5,0.2
	c0.1,0,0.1,0,0.2,0s0.1,0,0.2,0c0.1-0.2,0.3-0.4,0.5-0.5s0.4-0.2,0.6-0.4l0,0l0,0c0,0,0.1-0.1,0.2-0.1c0.1,0,0.1,0,0.2-0.1
	c0.1,0,0.1-0.1,0.2-0.1c0.1,0,0.1-0.1,0.2-0.1c0.1,0,0.1,0,0.1,0s0.1,0,0.1-0.1c0,0,0.1,0,0.1-0.1c0.2-0.1,0.5-0.2,0.7-0.3
	c0.1,0,0.2-0.1,0.4-0.1c0.1,0,0.3-0.1,0.4-0.1h0.1h0.1h0.1c0.1,0,0.1,0,0.1,0c0.2,0,0.3,0,0.4,0.1c0,0.1,0.1,0.2,0.1,0.4
	c0,0.1,0,0.3,0,0.4c0,0.2-0.1,0.3-0.1,0.5c0,0.1-0.1,0.3-0.1,0.5v0.1c0,0.1,0,0.1,0,0.2c0,0.1,0,0.1,0,0.2c0,0.1-0.1,0.3,0,0.4
	s0,0.2-0.1,0.3c0,0.1,0,0.1,0,0.1c-0.1,0.3-0.3,0.7-0.4,1c-0.1,0.4-0.2,0.7-0.4,1.1s-0.3,0.7-0.4,1c-0.1,0.3-0.3,0.7-0.4,1
	c-0.2,0.7-0.4,1.4-0.7,2.1s-0.5,1.4-0.8,2c-0.1,0.2-0.2,0.3-0.2,0.4c-0.2,0.1-0.4,0.2-0.6,0.3c-0.2,0.1-0.5,0.2-0.7,0.2
	s-0.4,0-0.6,0c-0.1-0.1-0.2-0.1-0.3-0.2l-0.1-0.1l-0.1-0.1c-0.2,0-0.4,0-0.5,0c-0.1-0.2-0.3-0.5-0.4-0.8c-0.1-0.3-0.2-0.6-0.3-0.9
	c-0.1-0.3-0.1-0.7-0.2-1c0-0.3-0.1-0.6-0.1-0.9c-0.1,0.3-0.1,0.6,0,0.8c0.1,0.5,0.1,0.9,0.3,1.4c0.1,0.5,0.3,0.9,0.4,1.2
	c0,0.1,0.1,0.1,0.1,0.2s0.1,0.1,0,0.2c-0.2-0.3-0.4-0.7-0.6-1.3c-0.2-0.5-0.3-1-0.3-1.5v-0.1v-0.1c0-0.1-0.1-0.2,0-0.3s0-0.2,0-0.3
	s0-0.1-0.1-0.1c0,0,0,0,0,0.1v0.2c0,0-0.1,0,0,0l0,0c0,0.1,0,0.1,0,0.2v0.1c0-0.3,0-0.5,0-0.8C38.6,18.2,38.6,18,38.6,17.7
	L38.6,17.7 M28.5,22.8C28.5,22.7,28.5,22.7,28.5,22.8c0.1,0,0.1-0.1,0.2-0.1c0,0,0,0,0.1,0s0.2-0.1,0.3-0.1s0.2-0.1,0.2-0.2
	s0.1-0.1,0.1-0.2s0.1-0.2,0.1-0.3c0.1-0.2,0.1-0.5,0.1-0.8s-0.1-0.5-0.2-0.7c-0.1-0.1-0.2-0.2-0.2-0.2c-0.1-0.1-0.2-0.1-0.3-0.2
	c-0.1,0-0.2,0-0.3,0s-0.2,0-0.3,0.1c0,0.1,0,0.1-0.1,0.1c-0.3,0.1-0.5,0.3-0.6,0.5c-0.2,0.2-0.2,0.5-0.2,0.9c0,0.1,0,0.2,0,0.3
	c0,0.1,0.1,0.2,0.1,0.3c0,0.1,0.1,0.2,0.1,0.3c0,0.1,0.1,0.2,0.1,0.3h0.1c0-0.1,0.1-0.1,0.1-0.1c0.1,0,0.1,0.1,0.1,0.1
	s0,0.1,0.1,0.1c0,0,0.1,0,0.1-0.1s0-0.1,0.1-0.1S28.4,22.7,28.5,22.8C28.3,22.8,28.3,22.8,28.5,22.8L28.5,22.8 M24.4,17.5
	c0-0.2,0.1-0.4,0.1-0.7c0.1-0.2,0.1-0.5,0.1-0.8c0,0,0,0,0.1,0c0,0,0,0,0.1,0L24.4,17.5z M23.2,18c0,0.2-0.1,0.4-0.2,0.5
	c-0.1,0.2-0.2,0.3-0.2,0.4c-0.1,0.1-0.2,0.3-0.3,0.5s-0.1,0.3-0.1,0.5s-0.1,0.3-0.2,0.4c0,0-0.1,0-0.1,0.1L22,20.5h-0.1l0,0l0,0
	c-0.1,0.2-0.2,0.3-0.4,0.4c-0.2,0.1-0.3,0.3-0.4,0.4c-0.2,0.1-0.4,0.2-0.5,0.2c-0.2,0-0.4,0.1-0.6,0.1c-0.2,0-0.3,0.1-0.5,0.1
	s-0.3,0-0.5-0.1c-0.1-0.1-0.2-0.2-0.3-0.3s-0.2-0.3-0.2-0.4v-0.1c0-0.1,0-0.1-0.1-0.2c0,0,0-0.1-0.1-0.1v-0.1v-0.1
	c0-0.1,0-0.2,0-0.2c0-0.1,0-0.2,0-0.3c0.1-0.2,0.1-0.3,0.1-0.5s0-0.3,0.1-0.4c0-0.1,0-0.2,0-0.4c0.1-0.2,0.1-0.4,0.3-0.6
	c0.1-0.2,0.2-0.4,0.4-0.6c0.1-0.1,0.2-0.3,0.3-0.5s0.2-0.4,0.3-0.6l0.1-0.1c0,0,0.1-0.1,0.1-0.2c0.2,0,0.3-0.1,0.3-0.3
	s0.2-0.3,0.3-0.5c0-0.1,0.1-0.1,0.1-0.2s0.1-0.1,0.1-0.2c0.1-0.1,0.1-0.2,0.1-0.3s0.1-0.2,0.1-0.3c0.1,0.1,0.2,0.2,0.3,0.4
	s0.2,0.2,0.3,0.3s0.2,0.2,0.3,0.2c0,0,0.1,0.1,0.2,0.1c0.1,0.1,0.2,0.2,0.3,0.3s0.2,0.1,0.3,0.1c0.1,0.1,0.2,0.1,0.4,0.2
	c0.2,0.1,0.3,0.1,0.5,0.1c0,0.2,0,0.3,0,0.4s-0.1,0.2-0.2,0.4c0,0.2-0.1,0.3-0.1,0.5s-0.1,0.3-0.1,0.4C23.3,17.7,23.3,17.8,23.2,18
	 M22.8,13.1c0,0.1,0,0.2,0,0.3l0.1,0.2c0,0,0.1,0.1,0.1,0.2c0,0.1,0,0.1,0.1,0.2c0,0.1,0.1,0.1,0.2,0.2c0.1,0.1,0.1,0.2,0.1,0.3v0.1
	h-0.1c-0.1,0-0.1,0-0.2-0.1c-0.2-0.1-0.3-0.2-0.5-0.3c-0.1-0.1-0.3-0.3-0.4-0.5c0-0.1,0-0.3,0-0.4c0.1-0.2,0.2-0.2,0.3-0.3
	C22.7,13,22.8,13.1,22.8,13.1 M28.8,13.8h-0.1c0,0-0.2,0.1-0.2,0.2c-0.1,0-0.2,0.1-0.3,0c-0.1,0.1-0.3,0.2-0.5,0.3s-0.5,0.2-0.8,0.3
	c-0.1,0-0.2,0.1-0.4,0.1s-0.3,0-0.5,0s-0.4,0-0.5,0c-0.2,0-0.3,0-0.4,0c-0.1,0-0.1,0-0.1,0s-0.1,0-0.2,0l-0.1-0.1c0,0,0,0-0.1,0
	c0-0.1,0-0.2-0.1-0.3c0,0,0-0.1,0-0.2s0-0.1-0.1-0.2c0,0.1,0,0.2,0.1,0.3s0,0.2,0,0.3c-0.1,0-0.1,0-0.1-0.1s0-0.1,0-0.2
	c0-0.1-0.1-0.2-0.1-0.4c0-0.1-0.1-0.2-0.2-0.3c-0.1,0-0.2-0.1-0.2-0.3s-0.1-0.2-0.1-0.3s-0.1-0.2-0.1-0.3c-0.1-0.1-0.1-0.2-0.1-0.3
	l-0.2-0.1c0,0,0.1-0.1,0-0.1V12c-0.1,0-0.1,0-0.1,0h-0.1l0.1,0.1c0,0.1,0,0.1-0.1,0.1s-0.1,0-0.1,0s0,0-0.1,0c0,0-0.1,0-0.1,0.1
	c0,0,0,0-0.1,0c-0.1-0.1-0.2-0.1-0.3-0.1s-0.2,0-0.3,0c-0.1,0.1-0.2,0.1-0.3,0.3c-0.1,0.1-0.2,0.1-0.4,0c0,0-0.1,0.1-0.1,0.2
	c0,0.1-0.1,0.1-0.1,0.1c0-0.2,0-0.3,0-0.4c0-0.1-0.1-0.2-0.2-0.3c-0.1-0.1-0.3-0.2-0.5-0.3s-0.4-0.1-0.6,0l0,0h-0.1
	c-0.2,0.1-0.4,0.2-0.5,0.4s-0.3,0.3-0.5,0.4c-0.2,0.2-0.3,0.4-0.5,0.5c-0.1,0.2-0.3,0.4-0.4,0.6c-0.5,0.6-1,1.4-1.4,2.3
	c-0.4,0.9-0.7,1.9-0.7,2.9l0,0c0,0.1,0,0.2,0,0.3s0,0.2-0.1,0.3c0,0.2,0.1,0.3,0.1,0.5s0.1,0.3,0.1,0.5v0.2l0.1,0.1
	c0.1,0.4,0.3,0.7,0.4,1.2c0.1,0.4,0.3,0.7,0.7,0.9c0.2,0.2,0.4,0.4,0.6,0.6s0.5,0.3,0.8,0.4c0.2,0.1,0.3,0.1,0.5,0
	c0.2,0,0.3-0.1,0.4-0.1l0,0l0,0c0.3,0,0.5,0,0.7-0.2c0.2-0.1,0.4-0.2,0.7-0.3c0.1-0.1,0.2-0.2,0.4-0.3s0.3-0.2,0.4-0.3
	c0.1-0.2,0.2-0.2,0.2-0.3l0.1-0.1c0.1,0,0.1-0.1,0.2-0.2c0,0,0-0.1,0.1-0.1c0-0.1,0.1-0.1,0.1-0.2c0.1-0.1,0.1-0.2,0.1-0.3
	s0.1-0.2,0.1-0.3c0.1-0.2,0.2-0.3,0.3-0.5c0.1-0.1,0.2-0.3,0.3-0.5c0-0.1,0.1-0.2,0.1-0.4s0.1-0.3,0.1-0.4v0.1l0,0
	c0.1-0.1,0.1-0.2,0.2-0.2c0-0.1,0.1-0.1,0.1-0.2c0.1-0.2,0.2-0.4,0.2-0.5v-0.1c0,0,0,0,0-0.1c0-0.2,0.1-0.3,0.2-0.5s0.2-0.3,0.2-0.5
	c0,0.2-0.1,0.3-0.1,0.3c0,0.1-0.1,0.2-0.1,0.3c0.2-0.4,0.3-0.7,0.3-1c0.1-0.3,0.1-0.7,0.2-1.1c0.1,0,0.3,0,0.6,0s0.6-0.1,1-0.1
	s0.7-0.2,1.1-0.3c0.4-0.1,0.7-0.3,1-0.5c0,0,0-0.1,0.1-0.1s0.1-0.1,0.1-0.2c0.2-0.1,0.3-0.2,0.3-0.4c0.1-0.1,0-0.2,0-0.3
	C28.9,13.8,28.8,13.8,28.8,13.8 M6.4,8.7c0.1-0.3,0.1-0.7,0.1-1c0-0.1,0.1-0.2,0.1-0.3s0-0.2,0.1-0.3c0-0.2,0.1-0.5,0.1-0.8
	s0-0.5,0-0.8c0-0.2,0.1-0.4,0.1-0.6s0-0.4,0-0.6C7,4.2,7,4.1,7,4s0-0.2,0-0.3c0-0.3,0.1-0.5,0.1-0.8s0-0.5-0.1-0.6C7,2.2,7,2.1,7,2
	S6.9,1.8,6.9,1.7C6.7,1.4,6.6,1.1,6.4,0.9S6,0.4,5.8,0.2c-0.1,0-0.2-0.1-0.2-0.1C5.5,0.1,5.5,0,5.4,0C5.3,0,5.1,0,4.9,0
	S4.5,0.1,4.4,0.1l0,0c0,0,0,0.1-0.1,0.1C4.2,0.3,4.1,0.4,4.1,0.4C4,0.4,4,0.5,3.9,0.6C3.8,0.7,3.7,0.8,3.6,0.9S3.5,1.1,3.5,1.3
	C3.4,1.4,3.4,1.6,3.4,1.8s0,0.3-0.1,0.5c0,0.1,0,0.2-0.1,0.2c0,0.1-0.1,0.2-0.1,0.2v0.1v0.1C3.1,3.1,3,3.3,3,3.6S2.9,4,2.9,4.3
	c0,0.1,0,0.2,0,0.3v0.3c0,0.1-0.1,0.2-0.1,0.2C2.7,6,2.6,6.9,2.4,7.9C2.2,8.8,2,9.7,1.8,10.7c0,0.2-0.1,0.3-0.1,0.5
	c0,0.1,0,0.3-0.1,0.5c0,0.2,0,0.3-0.1,0.5s0,0.3-0.1,0.5c-0.1,0.3-0.2,0.6-0.2,0.9c-0.1,0.5-0.2,1-0.3,1.5c-0.1,0.5-0.1,1-0.2,1.4
	c0,0.2-0.1,0.3-0.1,0.4c0,0.2-0.1,0.5-0.1,0.7c-0.1,0.2-0.1,0.4-0.1,0.6c-0.1,1-0.2,1.9-0.3,3c-0.1,1-0.1,2,0,3.1
	c0,0.1,0.1,0.2,0.1,0.3c0,0.1,0.1,0.2,0.1,0.3c0.1,0,0.1,0,0.1,0c0,0.1,0,0.1,0.1,0.1s0.1,0.1,0.1,0.1s0.1,0,0.1,0.1c0,0,0,0,0,0.1
	s0,0.1,0,0.1c0.1,0,0.2,0.1,0.2,0.2C1,25.7,1,25.8,1.1,25.8s0.1,0,0.2,0s0.1,0,0.2,0h0.1h0.1c0.1,0,0.1,0,0.2,0H2
	c0.1-0.1,0.1-0.1,0.1-0.2s0.1-0.2,0.1-0.3c0.1,0,0.2-0.1,0.3-0.2s0.1-0.3,0.1-0.4h0.1c0,0,0.1,0.1,0.1,0c-0.1-0.2,0-0.4,0.1-0.6
	c-0.1-0.2,0-0.4,0.1-0.5h0.1h0.1c0-0.1,0.1-0.3,0-0.4c0-0.2,0-0.3,0.2-0.4v-0.1v-0.1c0.1-0.2,0.2-0.4,0.2-0.6s0.1-0.5,0.1-0.7
	c0-0.1,0-0.2,0-0.2c0-0.1,0-0.2,0.1-0.2c0-0.2,0.1-0.3,0-0.5c0-0.2,0-0.3,0-0.5c0.1-0.1,0.1-0.2,0.1-0.5v-0.3C3.9,19,4,18.9,4,18.8
	s0-0.2,0-0.3c0-0.2,0.1-0.3,0.1-0.5c0.1-0.2,0.1-0.3,0.1-0.5c0-0.3,0.1-0.5,0.1-0.7s0.1-0.4,0.1-0.6c0.1,0,0.1-0.1,0.1-0.1V16
	c0-0.1,0-0.2,0.1-0.2c0-0.1,0-0.1,0.1-0.2c0-0.1,0-0.1,0-0.1v-0.1v-0.1c0,0,0-0.1,0.1-0.2c0-0.1,0.1-0.2,0-0.3c0-0.1,0-0.2,0-0.3
	s0.1-0.2,0.1-0.3S5,14,5,13.9c0.1-0.3,0.3-0.7,0.5-0.9c0.2-0.3,0.4-0.6,0.6-0.9c0-0.1,0.1-0.2,0.1-0.3c0.1,0,0.1-0.1,0.2-0.2
	l0.1-0.1c0-0.1,0-0.1,0.1-0.1c0-0.1,0.1-0.1,0.2-0.2c0,0,0.1-0.1,0.1-0.2c0-0.1,0-0.1,0.1-0.1c0,0,0.1-0.1,0.2-0.1
	c0.1,0,0.1-0.1,0.2-0.1c0.3-0.5,0.6-1,0.9-1.5s0.7-0.9,1-1.4c0.2-0.1,0.3-0.2,0.4-0.4c0.1-0.2,0.2-0.3,0.4-0.5c0-0.1,0-0.1,0-0.2
	V6.6c0.1-0.1,0.2-0.3,0.3-0.4s0.2-0.3,0.3-0.5s0.3-0.4,0.5-0.5c0.2-0.2,0.4-0.3,0.5-0.5c0.1-0.1,0.2-0.1,0.3-0.2
	c0.1-0.1,0.2-0.2,0.3-0.2c0,0.5,0,0.9-0.1,1.4C12.1,6.1,12,6.6,11.9,7c-0.1,0.4-0.2,0.8-0.3,1.2S11.4,9,11.3,9.4
	c0,0.2-0.1,0.3-0.1,0.5s-0.1,0.3-0.1,0.5c0,0.3-0.1,0.7-0.2,1c-0.1,0.3-0.1,0.6-0.2,0.9c0,0.4-0.1,0.8-0.1,1.1c0,0.4,0,0.7-0.1,1.1
	c-0.1,0.6-0.2,1.1-0.3,1.7c-0.1,0.6-0.2,1.1-0.3,1.7c-0.1,0.5-0.2,0.9-0.2,1.4s-0.1,1-0.1,1.5c-0.1,0.5-0.1,1.1-0.1,1.7
	s0.1,1.1,0.2,1.6c0,0.2,0.1,0.4,0.1,0.6S9.9,25,10,25.2c0.1,0.2,0.1,0.3,0.2,0.4c0.1,0.1,0.2,0.3,0.3,0.5c0.2,0.3,0.4,0.6,0.6,0.8
	s0.5,0.4,0.9,0.5h0.1h0.1c0.1,0.1,0.3,0.2,0.5,0.2s0.4,0,0.6,0c0-0.1,0-0.1,0-0.1s0.1,0,0.1-0.1c-0.2,0-0.2-0.1-0.2-0.2h0.1h0.1
	c0,0,0-0.1-0.1-0.1s-0.1-0.1,0-0.1s0.2,0,0.2,0s0.1,0.1,0.2,0.1c0,0,0.1-0.1,0.2-0.1c0.1,0,0.1-0.1,0.2-0.1c-0.1,0-0.2-0.1-0.3-0.1
	c-0.1-0.1-0.2-0.2-0.2-0.3c0.1,0,0.1,0,0.1-0.1c-0.1-0.1-0.1-0.1,0-0.2c0.1,0,0.1,0,0.1,0h0.1c0-0.1-0.1-0.1-0.1-0.2
	s-0.1-0.1-0.1-0.2h0.1l0,0c0,0,0,0-0.1,0s0,0,0-0.1c0,0,0,0,0.1,0l0,0c-0.1,0-0.1,0,0,0c0,0,0,0,0-0.1s-0.1-0.1,0-0.2
	c-0.1-0.1-0.2-0.3-0.3-0.3c-0.1-0.1-0.2-0.2-0.2-0.4c0-0.1-0.1-0.3,0-0.4c0-0.2,0-0.3,0-0.5c0-0.1,0-0.2,0-0.2c0-0.1,0-0.2-0.1-0.2
	c0-0.2,0-0.4,0-0.6s0-0.4,0-0.6s0-0.3,0-0.4s0-0.3,0-0.4c0-0.1,0.1-0.2,0.1-0.3s0-0.2,0-0.3c0.1-0.5,0.1-0.9,0.1-1.3
	c0.1-0.3,0.1-0.5,0.2-0.9c0.1-0.3,0.2-0.7,0.2-1c0-0.1,0-0.2,0-0.3s0-0.2,0-0.3c0.1-0.1,0.1-0.1,0.1-0.1c0-0.2,0-0.3,0-0.5
	s0-0.4,0-0.6c0-0.1,0-0.2,0.1-0.3c0-0.1,0-0.2,0-0.3c0-0.2,0-0.4,0-0.6s0.1-0.4,0.1-0.6c0-0.1,0.1-0.2,0-0.3c0-0.1,0-0.2,0-0.3
	c0-0.2,0.1-0.3,0.1-0.5s0.1-0.3,0.1-0.5s0.1-0.4,0.1-0.5s0-0.3,0.1-0.5c0-0.1,0.1-0.2,0.1-0.2c0-0.1,0-0.1,0-0.2
	c0.1-0.4,0.1-0.8,0.1-1.2s0.1-0.8,0.1-1.2c0-0.1,0-0.2,0-0.3s0-0.2,0-0.3s0-0.1,0-0.2c0-0.1,0-0.1,0-0.2c0-0.3,0.1-0.5,0.1-0.7
	s0-0.4,0-0.6c0-0.1,0-0.2-0.1-0.3c0-0.1,0-0.3,0-0.4c-0.1-0.1-0.1-0.1-0.1-0.3s0-0.2,0-0.3s-0.1-0.2,0-0.4s0-0.3-0.1-0.4
	c0-0.1,0.1-0.2,0.2-0.2c0.1-0.1,0.1-0.2,0.2-0.3c0-0.3-0.2-0.4-0.5-0.4c0,0-0.1-0.1-0.1-0.2S14.3,3,14.3,2.9c0,0,0,0-0.1,0
	c0,0,0,0-0.1,0C14,2.8,14,2.8,14,2.7c0-0.1-0.1-0.1-0.1-0.1s0,0-0.1,0c0,0-0.1,0-0.1-0.1l-0.1-0.1c-0.1,0-0.1-0.1-0.1-0.1
	c-0.1-0.1-0.3-0.2-0.5-0.2s-0.4,0-0.6,0c-0.3,0.1-0.6,0.1-0.8,0.2c-0.2,0.1-0.4,0.2-0.6,0.4c-0.1,0.1-0.2,0.2-0.3,0.3
	s-0.2,0.2-0.3,0.3c-0.2,0.2-0.3,0.3-0.4,0.5S9.7,4.1,9.6,4.2C9.5,4.3,9.5,4.3,9.4,4.3c0,0-0.1,0.1-0.1,0.2C9.1,4.7,8.9,4.9,8.8,5.2
	S8.5,5.7,8.3,5.9C8.1,6.2,7.9,6.5,7.7,6.8C7.5,7.1,7.3,7.4,7.1,7.7C6.9,8,6.7,8.3,6.5,8.6C6.3,8.9,6.1,9.1,6,9.4
	C5.9,9.5,5.9,9.6,5.8,9.7S5.7,9.9,5.6,9.9C6.2,9.4,6.3,9.1,6.4,8.7"/>
</svg>
