<?xml version="1.0" encoding="utf-8"?>
<!-- Generator: Adobe Illustrator 19.2.1, SVG Export Plug-In . SVG Version: 6.00 Build 0)  -->
<svg version="1.1" id="Layer_1" xmlns="http://www.w3.org/2000/svg" xmlns:xlink="http://www.w3.org/1999/xlink" x="0px" y="0px"
	 viewBox="0 0 50.6 28.1" style="enable-background:new 0 0 50.6 28.1;" xml:space="preserve">
<style type="text/css">
	.st0{fill:#022A3A;}
</style>
<path class="st0" d="M37.3,4.2c0.1,0,0.1,0,0.2,0v0C37.4,4.2,37.3,4.2,37.3,4.2c0,0,0,0.1-0.1,0.1c0,0-0.1-0.1-0.1-0.1
	C37.1,4.2,37.2,4.1,37.3,4.2 M39.7,2.3L39.7,2.3C39.8,2.4,39.8,2.4,39.7,2.3C39.7,2.3,39.7,2.3,39.7,2.3C39.7,2.3,39.7,2.3,39.7,2.3
	c-0.1,0-0.2,0.1-0.3,0.1c-0.1,0-0.2,0-0.3,0.1c0,0,0,0,0.1-0.1c0,0,0,0,0,0c0,0,0.1-0.1,0.2-0.1c0.1,0,0.1,0,0.1,0
	C39.6,2.3,39.7,2.3,39.7,2.3C39.7,2.3,39.7,2.3,39.7,2.3 M43.7,1.5c0,0,0.1,0,0.2,0v0.1C43.8,1.5,43.8,1.5,43.7,1.5
	c-0.1,0.1-0.1,0.1-0.2,0C43.6,1.5,43.7,1.4,43.7,1.5 M43.2,1.4c0.3,0,0.6-0.1,1-0.1v0c-0.2,0-0.3,0.1-0.4,0.1c-0.1,0-0.3,0-0.4,0
	c0,0.1,0,0.1,0.1,0.1c0,0,0.1,0,0.1,0c0,0.1-0.1,0.1-0.3,0.1c-0.2,0-0.5,0.1-0.7,0.1c-0.2,0-0.5,0.1-0.8,0.1c-0.1,0-0.2,0.1-0.4,0.1
	c-0.1,0-0.2,0-0.3,0c0,0,0,0,0,0c0,0,0,0,0,0c0,0,0,0,0-0.1c-0.1,0.1-0.3,0.1-0.5,0.1c-0.2,0-0.4,0.1-0.6,0.1c0,0,0,0,0,0
	c0,0-0.1,0-0.1,0c0,0-0.1,0-0.1,0c0,0,0.1-0.1,0.1-0.1s0.1,0,0.1-0.1c0.1,0,0.2,0,0.3-0.1c0.1,0,0.2-0.1,0.3-0.1
	c0.2-0.1,0.4-0.1,0.6-0.2c0.2-0.1,0.4-0.1,0.6-0.2c0.1,0,0.2-0.1,0.2-0.1s0.1,0,0.2-0.1C42.5,1.5,42.9,1.5,43.2,1.4 M38.7,2.6
	c0.2,0,0.3-0.1,0.3-0.1c-0.3,0.1-0.7,0.3-1,0.4s-0.7,0.2-1.1,0.3c0,0,0,0.1,0.1,0s0.1,0,0.1,0.1c0,0.1-0.1,0.1-0.2,0.1
	s-0.1,0.1-0.2,0.2c0.1,0,0.2,0,0.2,0.1v0.1C36.8,4,36.7,4,36.6,4.1c0.1,0,0.1,0,0.2,0s0.1,0,0.2,0c0.1,0,0.1,0.1,0.1,0.2
	s0.1,0.1,0.2,0.1c0.1,0,0.2-0.1,0.3-0.1c0.1,0,0.2,0,0.2,0c0.1,0,0.2,0,0.2,0c0.1,0,0.2-0.1,0.2-0.1c0.3-0.1,0.6-0.2,0.9-0.3
	c0.3-0.1,0.6-0.2,0.9-0.3c0,0,0,0,0-0.1c0,0,0,0,0-0.1c0.1,0,0.2,0,0.2,0c0.1,0,0.1-0.1,0.2-0.1c0.2-0.1,0.5-0.1,0.8-0.2
	c0.3-0.1,0.5-0.2,0.7-0.3c-0.1,0-0.2,0-0.3,0c-0.1,0-0.2,0-0.3,0c0-0.1,0.1-0.1,0.2-0.1c0.1,0,0.2-0.1,0.3-0.1
	c0.1,0,0.3-0.1,0.4-0.1c0.1,0,0.3-0.1,0.4-0.1c0.3-0.1,0.6-0.2,0.9-0.2c0.3,0,0.7-0.1,1-0.1h0.2c0.1,0,0.1,0,0.1,0
	c0,0,0.1,0,0.2,0.1c0,0,0.1,0,0.2,0c0.1,0,0.1,0,0.1,0c0,0.2-0.1,0.4-0.1,0.5s-0.1,0.3-0.1,0.5c-0.2,0.3-0.4,0.7-0.5,1.1
	c-0.1,0.2-0.2,0.4-0.3,0.6c-0.1,0.2-0.2,0.4-0.3,0.6c-0.1,0.1-0.2,0.3-0.3,0.5s-0.2,0.3-0.3,0.5c0,0.2-0.1,0.4-0.2,0.6
	c-0.1,0.2-0.2,0.4-0.3,0.6c0,0,0,0-0.1,0.1V8c-0.3,0.6-0.6,1.2-0.9,1.9s-0.6,1.3-0.9,1.9c-0.5,0.1-0.9,0.2-1.3,0.3
	c-0.4,0.1-0.8,0.2-1.1,0.5c0,0,0,0,0,0c0,0,0,0-0.1,0c-0.1,0.1-0.2,0.2-0.3,0.3c-0.1,0.1-0.2,0.2-0.2,0.3c0.1,0.1,0.2,0.1,0.3,0.1
	c0.1,0,0.2,0,0.3,0c0,0.1-0.1,0.1-0.2,0.2c-0.1,0-0.2,0-0.3,0.1c0,0.1,0.1,0.1,0.1,0.1c0.1,0,0.1,0,0.2,0c0.1,0,0.2,0,0.2,0
	c0.1,0,0.1,0,0.2-0.1c0,0,0.1,0,0.1,0c0,0,0.1,0,0.1,0c0.2-0.1,0.5-0.1,0.7-0.3c0.2-0.1,0.5-0.2,0.7-0.2c0,0,0,0.1,0,0.1
	s0,0.1,0,0.1c-0.3,0.1-0.5,0.1-0.7,0.2c-0.2,0.1-0.4,0.2-0.7,0.3c0.3,0,0.5-0.1,0.7-0.2s0.4-0.1,0.6-0.2c0,0.1,0,0.2-0.1,0.2
	s-0.1,0.1-0.1,0.2c-0.5,0.9-0.9,1.9-1.3,2.9c-0.4,1-0.7,2.1-1.1,3.2c-0.2,0.6-0.3,1.3-0.5,2.1c-0.2,0.8-0.1,1.6,0.1,2.4
	c0.1,0.2,0.2,0.3,0.2,0.4c0.1,0,0.1,0,0.2,0c0,0,0.1,0.1,0.1,0.1c0,0,0.1,0.1,0.1,0.1c0.1,0,0.1-0.1,0.1-0.1c0-0.1,0-0.1,0.1-0.1
	c0,0,0.1,0.1,0,0.1c0,0,0,0.1,0,0.1c0.1-0.1,0.1-0.2,0.1-0.3c0-0.1,0-0.2,0.2-0.2c0.1,0.1,0.1,0.2,0,0.3h0.1c0,0,0,0,0.1,0.1
	c0-0.1,0.1-0.1,0.1-0.2c0-0.1,0.1-0.1,0.1-0.2c0,0,0,0.1,0,0.1c0,0,0.1-0.1,0.1-0.1c0,0,0-0.1,0.1-0.1c0,0,0,0,0.1,0s0,0,0,0
	c0.1-0.1,0.1-0.2,0.1-0.3s0.1-0.2,0.2-0.1c0-0.1,0-0.1,0-0.2c0,0,0.1-0.1,0.1-0.2c0,0,0.1,0,0,0c0,0,0,0,0,0c0.2-0.7,0.4-1.4,0.6-2
	c0.2-0.6,0.5-1.3,0.7-1.9c0.1-0.1,0.1-0.2,0.1-0.2c0-0.1,0-0.2,0.1-0.3c0,0,0-0.1,0.1-0.1c0-0.1,0.1-0.1,0.1-0.1c0,0,0-0.1,0-0.1
	c0,0,0-0.1,0-0.1c0.1-0.1,0.1-0.3,0.2-0.4c0-0.1,0.1-0.3,0.2-0.4c0-0.1,0.1-0.2,0.1-0.3c0-0.1,0.1-0.2,0.1-0.3c0,0,0.1,0,0.1-0.1
	c0,0,0-0.1,0.1-0.1c0.1-0.2,0.1-0.3,0.2-0.5c0.1-0.2,0.2-0.3,0.2-0.5c0.1-0.1,0.1-0.2,0.2-0.2c0-0.1,0.1-0.2,0.1-0.3
	c0.3-0.5,0.5-0.9,0.6-1.4c0.1-0.1,0.1-0.2,0.2-0.4c0.1,0,0.1-0.1,0.1-0.2c0-0.1,0-0.1,0.1-0.1c0,0,0-0.1,0.1-0.1
	c0,0,0.1-0.1,0.1-0.1s0-0.1,0-0.1c0-0.1,0-0.1,0-0.1c0.1-0.1,0.2-0.1,0.3-0.1c0.2,0,0.3,0,0.4-0.1c0.1,0,0.2,0,0.3-0.1
	c0.1,0,0.2,0,0.3-0.1c0,0,0-0.1,0.1-0.1c0,0,0-0.1,0.1-0.1c0.2,0,0.4-0.1,0.6-0.1c0.2,0,0.3-0.1,0.5-0.1c0,0,0.1-0.1,0.2-0.1
	c0.1,0,0.1,0,0.2,0c0,0,0.1,0,0.1,0c0,0,0,0,0.1,0c0.1,0,0.2,0,0.3,0s0.2,0,0.2-0.1c-0.1,0-0.1-0.1-0.2,0c-0.1,0-0.2,0-0.2-0.1
	c-0.3,0-0.7,0-1,0s-0.7,0-1-0.1c-0.1-0.1-0.1-0.1-0.1-0.2c0-0.1,0-0.1,0.1-0.2c0.1-0.1,0.1-0.2,0.2-0.3s0.1-0.2,0.2-0.4
	c0-0.1,0.1-0.2,0.1-0.3c0.1-0.1,0.1-0.2,0.2-0.3V9.6c0-0.1,0-0.1,0.1-0.2c0-0.1,0.1-0.1,0.1-0.1c0.1-0.1,0.1-0.3,0.2-0.4
	c0.1-0.1,0.1-0.3,0.2-0.4c0.2-0.2,0.3-0.5,0.5-0.8c0.1-0.3,0.3-0.6,0.4-0.8c0-0.1,0.1-0.2,0.2-0.3c0.1-0.1,0.1-0.2,0.1-0.3
	c0.1-0.2,0.3-0.5,0.4-0.8C47.9,5.4,48,5.3,48,5.2s0.1-0.2,0.1-0.3V4.8c0.1-0.1,0.1-0.2,0.2-0.4c0-0.1,0.1-0.3,0.1-0.4
	c0-0.1,0-0.1,0-0.1s0-0.1,0-0.2c0-0.1,0.1-0.2,0.1-0.3c0-0.1,0.1-0.2,0.1-0.3c0-0.1,0-0.3,0-0.5c0-0.2,0-0.3,0-0.5
	c0.1-0.1,0.3-0.1,0.5-0.1c0.2,0,0.4,0,0.6,0c0,0,0.1-0.1,0-0.1c0-0.1,0-0.1,0-0.1c0.1,0,0.2,0,0.3,0c0.1,0,0.2,0,0.2,0
	c-0.2,0-0.2-0.1-0.1-0.3c0,0,0-0.1,0.1,0c0,0,0.1,0,0.1,0c-0.1,0-0.1-0.1-0.2-0.1c-0.1,0-0.1-0.1-0.1-0.3c0.1,0,0.2,0,0.3,0
	c0.1,0,0.2,0.1,0.3,0.1C50.4,1.1,50.2,1.1,50,1c-0.2,0-0.4-0.1-0.7-0.1c0,0-0.1,0-0.1,0s0,0,0,0c0,0-0.1,0-0.1,0c0,0,0,0,0,0
	c0,0-0.1-0.1-0.1-0.1c-0.1,0-0.3-0.1-0.4-0.1c-0.1,0-0.3,0-0.4-0.1c-0.1-0.2-0.3-0.3-0.5-0.4c0,0-0.1,0-0.1,0c0,0-0.1,0-0.1,0
	c0,0-0.1,0-0.1,0c0,0,0,0-0.1-0.1c-0.2,0-0.3,0-0.4,0s-0.3,0.1-0.4,0.1c0,0,0,0.1,0,0.1c-0.1,0-0.1,0.1-0.2,0.1
	c0,0.1-0.1,0.1-0.1,0.2c0,0,0,0,0,0s0,0,0,0C46,0.7,46,0.8,46,0.8h-0.2c-0.2,0-0.4,0-0.6,0.1c-0.2,0-0.4,0.1-0.6,0.1
	c-0.2,0-0.4,0.1-0.5,0.1s-0.2,0-0.4,0.1l-1.4,0.3c-0.2,0-0.4,0.1-0.6,0.2c-0.2,0.1-0.4,0.1-0.6,0.1c-0.7,0.2-1.4,0.4-2.1,0.6
	c-0.7,0.2-1.4,0.4-2.1,0.6c0.1,0,0.3-0.1,0.5-0.1c0.2,0,0.3-0.1,0.4-0.1c0.2,0,0.4,0,0.6-0.1c0.2-0.1,0.4-0.1,0.5,0l0,0
	C38.8,2.5,38.8,2.6,38.7,2.6 M28.2,23.6C28.2,23.5,28.2,23.5,28.2,23.6c0.1,0,0.1-0.1,0.2-0.1c0,0,0,0,0.1,0c0.1,0,0.2-0.1,0.3-0.1
	c0.1,0,0.2-0.1,0.2-0.2C29,23,29,23,29,22.9c0-0.1,0.1-0.2,0.1-0.3c0.1-0.2,0.1-0.5,0.1-0.8c0-0.3-0.1-0.5-0.2-0.7
	c-0.1-0.1-0.2-0.2-0.2-0.2c-0.1-0.1-0.2-0.1-0.3-0.2c-0.1,0-0.2,0-0.3,0c-0.1,0-0.2,0-0.3,0.1c0,0.1,0,0.1-0.1,0.1
	c-0.3,0.1-0.5,0.3-0.6,0.5C27,21.7,26.9,22,27,22.4c0,0.1,0,0.2,0,0.3s0.1,0.2,0.1,0.3c0,0.1,0.1,0.2,0.1,0.3c0,0.1,0.1,0.2,0.1,0.3
	h0.1c0-0.1,0.1-0.1,0.1-0.1c0.1,0,0.1,0.1,0.1,0.1c0,0,0,0.1,0.1,0.1c0,0,0.1,0,0.1-0.1c0-0.1,0-0.1,0.1-0.1c0.1,0,0.1,0,0.1,0.1
	C28,23.6,28.1,23.6,28.2,23.6C28.2,23.6,28.2,23.6,28.2,23.6 M24.1,18.3c0-0.2,0.1-0.4,0.1-0.7c0-0.2,0.1-0.5,0.1-0.8c0,0,0,0,0.1,0
	c0,0,0,0,0.1,0L24.1,18.3z M23,18.8c0,0.2-0.1,0.4-0.2,0.5s-0.2,0.3-0.2,0.5c-0.1,0.1-0.2,0.3-0.3,0.4c-0.1,0.2-0.1,0.3-0.1,0.5
	c0,0.2-0.1,0.3-0.2,0.4c0,0-0.1,0.1-0.1,0.1c0,0-0.1,0.1-0.1,0.1c0,0-0.1,0-0.1,0s0,0,0,0s0,0,0,0c-0.1,0.2-0.2,0.3-0.4,0.4
	c-0.2,0.1-0.3,0.3-0.5,0.4c-0.2,0.1-0.3,0.2-0.5,0.2c-0.2,0-0.4,0.1-0.6,0.1c-0.2,0-0.3,0.1-0.5,0.1c-0.1,0-0.3,0-0.5-0.1
	c-0.1-0.1-0.2-0.2-0.3-0.3s-0.2-0.3-0.2-0.4v-0.1c0-0.1,0-0.1-0.1-0.2c0-0.1,0-0.1-0.1-0.1c0,0,0-0.1,0-0.1c0,0,0-0.1,0-0.1
	c0-0.1,0-0.2,0-0.2s0-0.2,0-0.3c0.1-0.2,0.1-0.3,0.1-0.5c0-0.1,0-0.3,0.1-0.4c0-0.1,0-0.2,0-0.4c0.1-0.2,0.1-0.4,0.3-0.6
	s0.2-0.4,0.4-0.6c0.1-0.1,0.2-0.3,0.3-0.5c0.1-0.2,0.2-0.4,0.3-0.6c0,0,0.1-0.1,0.1-0.1c0,0,0.1-0.1,0.1-0.2c0.2,0,0.3-0.1,0.3-0.3
	c0.1-0.2,0.2-0.3,0.3-0.5c0-0.1,0.1-0.1,0.1-0.2s0.1-0.1,0.1-0.2c0.1-0.1,0.1-0.2,0.1-0.3c0-0.1,0.1-0.2,0.1-0.3
	c0.1,0.1,0.2,0.2,0.3,0.4s0.2,0.2,0.3,0.3c0.1,0.1,0.2,0.2,0.3,0.2c0,0,0.1,0.1,0.2,0.1c0.1,0.1,0.2,0.2,0.3,0.3s0.2,0.1,0.3,0.1
	c0.1,0.1,0.2,0.1,0.4,0.2c0.2,0.1,0.3,0.1,0.5,0.1c0,0.2,0,0.3,0,0.4s-0.1,0.2-0.2,0.4c0,0.2-0.1,0.3-0.1,0.5c0,0.1-0.1,0.3-0.1,0.4
	C23,18.5,23,18.6,23,18.8 M22.6,13.9c0,0.1,0,0.2,0,0.3l0.1,0.2c0,0,0.1,0.1,0.1,0.2c0,0.1,0,0.1,0.1,0.2c0,0.1,0.1,0.1,0.1,0.2
	c0.1,0.1,0.1,0.2,0.1,0.3v0.1c0,0-0.1,0.1-0.1,0c-0.1,0-0.1,0-0.1-0.1c-0.2-0.1-0.3-0.2-0.5-0.3c-0.1-0.1-0.3-0.3-0.4-0.5
	c0-0.1,0-0.3,0-0.4c0.1-0.2,0.2-0.2,0.3-0.3C22.5,13.8,22.5,13.8,22.6,13.9 M28.5,14.6c0,0-0.1,0-0.1,0c-0.1,0-0.1,0.1-0.2,0.1
	s-0.2,0.1-0.3,0c-0.1,0.1-0.3,0.2-0.5,0.3c-0.2,0.1-0.5,0.2-0.8,0.3c-0.1,0-0.2,0.1-0.4,0.1s-0.3,0-0.5,0s-0.4,0-0.5,0s-0.3,0-0.4,0
	c-0.1,0-0.1,0-0.1,0c0,0-0.1,0-0.2,0c0,0-0.1-0.1-0.1-0.1c0,0,0,0-0.1,0c0-0.1,0-0.2-0.1-0.3c0,0,0-0.1,0-0.1c0-0.1,0-0.1-0.1-0.2
	c0,0.1,0,0.2,0.1,0.3c0,0.1,0,0.2,0,0.3c-0.1,0-0.1,0-0.1-0.1c0-0.1,0-0.1,0-0.2c0-0.1-0.1-0.2-0.1-0.4c0-0.1-0.1-0.2-0.2-0.3
	c-0.1,0-0.2-0.1-0.2-0.3c0-0.1-0.1-0.2-0.1-0.3c0-0.1-0.1-0.2-0.1-0.3c-0.1-0.1-0.1-0.2-0.1-0.3l-0.2-0.1c0,0,0.1-0.1,0-0.1
	c0,0,0-0.1,0-0.1c-0.1,0-0.1,0-0.1,0c0,0,0,0-0.1,0c0,0,0.1,0.1,0.1,0.1c0,0.1,0,0.1-0.1,0.1c-0.1,0-0.1,0-0.1,0s-0.1,0-0.1,0
	c0,0-0.1,0-0.1,0.1c0,0,0,0-0.1,0c-0.1-0.1-0.2-0.1-0.3-0.1c-0.1,0-0.2,0-0.3,0c-0.1,0.1-0.2,0.1-0.3,0.3c-0.1,0.1-0.2,0.1-0.4,0
	c0,0-0.1,0.1-0.1,0.1c0,0.1-0.1,0.1-0.1,0.1c0-0.2,0-0.3,0-0.4c0-0.1-0.1-0.2-0.2-0.3c-0.1-0.1-0.3-0.2-0.5-0.3
	c-0.2-0.1-0.4-0.1-0.6,0c0,0,0,0,0,0h-0.1c-0.2,0.1-0.4,0.2-0.5,0.4c-0.2,0.1-0.3,0.3-0.5,0.4c-0.2,0.2-0.3,0.4-0.5,0.5
	c-0.1,0.2-0.3,0.4-0.4,0.6c-0.5,0.6-1,1.4-1.4,2.3c-0.4,0.9-0.7,1.9-0.7,2.9v0c0,0.1,0,0.2,0,0.3s0,0.2-0.1,0.3
	c0,0.2,0.1,0.3,0.1,0.5c0,0.2,0.1,0.3,0.1,0.5v0.2l0.1,0.1c0.1,0.4,0.3,0.7,0.4,1.2c0.1,0.4,0.3,0.7,0.7,0.9
	c0.2,0.2,0.4,0.4,0.6,0.6c0.2,0.2,0.5,0.3,0.8,0.4c0.2,0.1,0.3,0.1,0.5,0c0.2,0,0.3-0.1,0.5-0.1c0,0,0,0,0,0s0,0,0,0
	c0.3,0,0.5,0,0.7-0.2c0.2-0.1,0.4-0.2,0.7-0.3c0.1-0.1,0.2-0.2,0.4-0.3s0.3-0.2,0.4-0.3c0.1-0.2,0.2-0.2,0.2-0.3
	c0,0,0.1-0.1,0.1-0.1c0.1,0,0.1-0.1,0.1-0.1c0,0,0-0.1,0.1-0.1c0-0.1,0.1-0.1,0.1-0.2c0.1-0.1,0.1-0.2,0.1-0.3s0.1-0.2,0.1-0.3
	c0.1-0.2,0.2-0.3,0.3-0.5c0.1-0.1,0.2-0.3,0.3-0.5c0-0.1,0.1-0.2,0.1-0.4c0-0.1,0.1-0.3,0.1-0.4v0.1c0,0,0,0,0,0
	c0.1-0.1,0.1-0.2,0.2-0.2c0-0.1,0.1-0.1,0.1-0.2c0.1-0.2,0.2-0.4,0.2-0.5c0,0,0-0.1,0-0.1s0,0,0-0.1c0-0.2,0.1-0.4,0.2-0.5
	s0.1-0.3,0.2-0.5c0,0.2-0.1,0.3-0.1,0.3c0,0.1-0.1,0.2-0.1,0.3c0.2-0.4,0.3-0.7,0.3-1c0.1-0.3,0.1-0.7,0.2-1.1c0.1,0,0.3,0,0.6,0
	c0.3,0,0.6-0.1,1-0.1c0.4-0.1,0.7-0.2,1.1-0.3c0.4-0.1,0.7-0.3,1-0.5c0,0,0-0.1,0.1-0.1c0.1,0,0.1-0.1,0.2-0.2
	c0.2-0.1,0.3-0.2,0.3-0.4c0.1-0.1,0-0.2,0-0.3C28.6,14.6,28.6,14.6,28.5,14.6 M6.1,9.5c0.1-0.3,0.1-0.7,0.1-1c0-0.1,0.1-0.2,0.1-0.3
	s0-0.2,0.1-0.3c0-0.2,0.1-0.5,0.1-0.8c0-0.3,0-0.5,0-0.8c0-0.2,0.1-0.4,0.1-0.6c0-0.2,0-0.4,0-0.6c0.1-0.1,0.1-0.2,0.1-0.3
	c0-0.1,0-0.2,0-0.3c0-0.3,0.1-0.6,0.1-0.8c0-0.3,0-0.5-0.1-0.6c0-0.1,0-0.2,0-0.3S6.6,2.7,6.5,2.6C6.4,2.3,6.2,2,6.1,1.8
	C5.9,1.5,5.7,1.3,5.5,1.1C5.4,1.1,5.3,1,5.3,1C5.2,1,5.1,0.9,5.1,0.9c-0.1,0-0.3-0.1-0.5,0S4.2,1,4.1,1.1c0,0,0,0,0,0
	c0,0,0,0.1-0.1,0.1C3.9,1.3,3.8,1.3,3.7,1.4C3.7,1.4,3.6,1.5,3.5,1.6C3.4,1.7,3.3,1.8,3.3,1.9S3.2,2.2,3.2,2.3C3.1,2.5,3,2.6,3,2.8
	S3,3.1,3,3.2c0,0.1,0,0.2-0.1,0.2S2.8,3.6,2.8,3.7c0,0,0,0.1,0,0.1c0,0,0,0.1,0,0.1c0,0.2-0.1,0.4-0.1,0.7c0,0.2-0.1,0.4-0.1,0.7
	c0,0.1,0,0.2,0,0.3v0.3C2.6,5.9,2.5,6,2.5,6C2.5,7,2.4,7.9,2.2,8.8s-0.4,1.8-0.6,2.8c0,0.2-0.1,0.3-0.1,0.5c0,0.1,0,0.3-0.1,0.4
	c0,0.2,0,0.3-0.1,0.5s0,0.3-0.1,0.5c-0.1,0.3-0.2,0.6-0.2,0.9c-0.1,0.5-0.2,1-0.3,1.5c-0.1,0.5-0.1,1-0.2,1.4c0,0.2-0.1,0.3-0.1,0.4
	c0,0.2-0.1,0.5-0.1,0.7c-0.1,0.2-0.1,0.4-0.1,0.6c-0.1,1-0.2,1.9-0.3,3S0,24,0.1,25c0,0.1,0.1,0.2,0.1,0.3c0,0.1,0.1,0.2,0.1,0.3
	c0.1,0,0.1,0,0.1,0c0,0.1,0,0.1,0.1,0.1c0,0,0.1,0.1,0.1,0.1c0,0,0.1,0,0.1,0.1c0,0,0,0,0,0.1c0,0,0,0.1,0,0.1
	c0.1,0,0.2,0.1,0.2,0.2c0.1,0.1,0.1,0.2,0.2,0.2c0.1,0,0.1,0,0.2,0s0.1,0,0.2,0c0,0,0.1,0,0.1,0c0,0,0.1,0,0.1,0c0.1,0,0.1,0,0.2,0
	c0,0,0.1,0,0.1,0c0.1-0.1,0.1-0.1,0.1-0.2c0-0.1,0.1-0.2,0.1-0.3c0.1,0,0.2-0.1,0.3-0.2c0-0.1,0.1-0.3,0.1-0.4c0,0,0.1,0,0.1,0
	c0,0,0,0,0.1,0c-0.1-0.2,0-0.4,0.1-0.6c-0.1-0.2,0-0.4,0.1-0.5c0,0,0.1,0,0.1,0s0,0,0.1,0c0-0.1,0-0.3,0-0.5s0-0.3,0.2-0.4
	c0,0,0-0.1,0-0.1c0,0,0-0.1,0-0.1c0.1-0.2,0.2-0.4,0.2-0.6s0.1-0.5,0.1-0.7c0-0.1,0-0.2,0-0.2s0-0.2,0.1-0.2c0-0.2,0-0.3,0-0.5
	s0-0.3,0-0.5C4,20.5,4,20.4,4,20.2v-0.3c0-0.1,0.1-0.2,0.1-0.3c0-0.1,0-0.2,0-0.3c0-0.2,0.1-0.3,0.1-0.5c0.1-0.2,0.1-0.3,0.1-0.5
	c0-0.3,0.1-0.5,0.1-0.7c0-0.2,0.1-0.4,0.1-0.6c0.1,0,0.1-0.1,0.1-0.1c0,0,0-0.1,0-0.1c0-0.1,0-0.2,0.1-0.2s0-0.1,0.1-0.2
	c0-0.1,0-0.1,0-0.1c0,0,0-0.1,0-0.1c0,0,0-0.1,0-0.1s0-0.1,0.1-0.2c0-0.1,0.1-0.2,0-0.3c0-0.1,0-0.2,0-0.3c0-0.1,0.1-0.2,0.1-0.3
	s0.1-0.2,0.1-0.3c0.1-0.3,0.3-0.7,0.5-0.9s0.4-0.6,0.6-0.9c0-0.1,0.1-0.2,0.1-0.3s0.1-0.1,0.2-0.2c0,0,0.1-0.1,0.1-0.1
	c0-0.1,0-0.1,0.1-0.1c0-0.1,0.1-0.1,0.2-0.2c0,0,0.1-0.1,0.1-0.1c0-0.1,0-0.1,0.1-0.1c0,0,0.1-0.1,0.2-0.1c0.1,0,0.1-0.1,0.2-0.1
	c0.3-0.5,0.6-1,0.9-1.5c0.3-0.5,0.7-0.9,1-1.4C9.5,8.1,9.7,8,9.8,7.8s0.2-0.3,0.4-0.5c0-0.1,0-0.1,0-0.2c0,0,0-0.1,0-0.1
	c0.1-0.1,0.2-0.3,0.3-0.4c0.1-0.1,0.2-0.3,0.3-0.5C11,6,11.2,5.8,11.3,5.7c0.2-0.1,0.4-0.3,0.5-0.5C12,5.2,12.1,5.1,12.2,5
	s0.2-0.2,0.3-0.2c0,0.5,0,0.9-0.1,1.4S12.2,7,12.1,7.4c-0.1,0.4-0.2,0.8-0.3,1.2c-0.1,0.4-0.2,0.8-0.3,1.2c0,0.2-0.1,0.3-0.1,0.5
	c0,0.1,0,0.3-0.1,0.5c0,0.3-0.1,0.7-0.2,1c-0.1,0.3-0.1,0.6-0.2,0.9c0,0.4-0.1,0.7-0.1,1.1c0,0.4,0,0.7-0.1,1.1
	c-0.1,0.6-0.2,1.1-0.3,1.7c-0.1,0.5-0.2,1.1-0.3,1.7c-0.1,0.5-0.2,0.9-0.2,1.4c-0.1,0.5-0.1,1-0.1,1.5c-0.1,0.5-0.1,1.1-0.1,1.7
	c0,0.6,0.1,1.1,0.2,1.6c0,0.2,0.1,0.4,0.1,0.6c0,0.2,0.1,0.4,0.1,0.5c0.1,0.2,0.1,0.3,0.2,0.4c0.1,0.1,0.2,0.3,0.3,0.5
	c0.2,0.3,0.4,0.6,0.6,0.8c0.2,0.2,0.5,0.4,0.9,0.5c0,0,0.1,0,0.1,0s0.1,0,0.1,0c0.1,0.1,0.3,0.2,0.5,0.2c0.2,0,0.4,0,0.6,0
	c0-0.1,0-0.1,0-0.1c0,0,0.1-0.1,0.1-0.1c-0.2,0-0.2-0.1-0.2-0.2c0,0,0.1,0,0.1,0c0,0,0.1,0,0.1,0c0,0,0-0.1-0.1-0.1
	c0,0-0.1-0.1,0-0.1c0.1,0,0.2,0,0.2,0c0.1,0,0.1,0.1,0.2,0.1c0,0,0.1-0.1,0.1-0.1c0.1,0,0.1,0,0.2-0.1c-0.1,0-0.2-0.1-0.3-0.1
	c-0.1-0.1-0.2-0.2-0.2-0.3c0.1,0,0.1,0,0.1-0.1c-0.1-0.1-0.1-0.1,0-0.2c0.1,0,0.1,0,0.1,0c0,0,0.1,0,0.1,0c0-0.1-0.1-0.1-0.1-0.2
	c0,0,0-0.1-0.1-0.2c0,0,0.1,0,0.1,0c0,0,0,0,0,0c0,0,0,0-0.1,0s0,0,0-0.1c0,0,0-0.1,0.1,0c0,0,0,0,0,0c-0.1,0-0.1,0,0,0
	c0,0,0,0,0-0.1c0-0.1-0.1-0.1,0-0.2c-0.1-0.1-0.2-0.3-0.3-0.3c-0.1-0.1-0.2-0.2-0.2-0.4c0-0.1-0.1-0.3,0-0.4s0-0.3,0-0.5
	c0-0.1,0-0.2,0-0.2c0-0.1,0-0.1-0.1-0.2c0-0.2,0-0.4,0-0.6c0-0.2,0-0.4,0-0.6c0-0.2,0-0.3,0-0.4c0-0.1,0-0.3,0-0.4
	c0-0.1,0.1-0.2,0.1-0.3c0-0.1,0-0.2,0-0.3c0.1-0.5,0.1-0.9,0.1-1.3c0.1-0.3,0.1-0.6,0.2-0.9s0.2-0.6,0.2-1c0-0.1,0-0.2,0-0.3
	c0-0.1,0-0.2,0-0.3c0.1-0.1,0.1-0.1,0.1-0.1c0-0.2,0-0.3,0-0.5s0-0.4,0-0.6c0-0.1,0-0.2,0.1-0.3c0-0.1,0-0.2,0-0.3
	c0-0.2,0-0.4,0-0.6c0-0.2,0.1-0.4,0.1-0.6c0-0.1,0.1-0.2,0-0.3s0-0.2,0-0.3c0-0.2,0.1-0.3,0.1-0.5s0.1-0.3,0.1-0.5
	c0-0.2,0.1-0.4,0.1-0.5c0-0.2,0-0.4,0.1-0.5c0-0.1,0.1-0.2,0.1-0.2c0-0.1,0-0.1,0-0.2c0.1-0.4,0.1-0.8,0.1-1.2
	c0-0.4,0.1-0.8,0.1-1.2c0-0.1,0-0.2,0-0.3c0-0.1,0-0.2,0-0.3c0-0.1,0-0.1,0-0.2s0-0.1,0-0.2c0-0.3,0.1-0.5,0.1-0.7s0-0.4,0-0.6
	c0-0.1,0-0.2-0.1-0.3c0-0.1,0-0.3,0-0.4c-0.1-0.1-0.1-0.1-0.1-0.3s0-0.2,0-0.3c0-0.1-0.1-0.2,0-0.4s0-0.3-0.1-0.4
	c0-0.1,0.1-0.2,0.2-0.2s0.1-0.2,0.2-0.3C15.5,4.1,15.3,4,15,4c0,0-0.1-0.1-0.1-0.2c0-0.1-0.1-0.1-0.1-0.2c0,0,0,0-0.1,0
	c0,0-0.1,0-0.1,0c-0.1-0.1-0.1-0.1-0.1-0.2c0-0.1-0.1-0.1-0.1-0.1c0,0,0,0-0.1,0s-0.1,0-0.1-0.1c0,0-0.1-0.1-0.1-0.1
	C14,3,14,3,13.9,2.9c-0.1-0.1-0.3-0.2-0.5-0.2c-0.2,0-0.4,0-0.6,0c-0.3,0.1-0.6,0.1-0.8,0.2c-0.2,0.1-0.4,0.2-0.6,0.4
	c-0.1,0.1-0.2,0.2-0.3,0.3c-0.1,0.1-0.2,0.2-0.3,0.3c-0.2,0.2-0.3,0.3-0.4,0.5c-0.1,0.1-0.3,0.3-0.4,0.4C9.9,4.9,9.8,4.9,9.8,5
	C9.7,5,9.7,5.1,9.6,5.1C9.4,5.4,9.3,5.6,9.1,5.8C8.9,6,8.8,6.3,8.6,6.5C8.3,6.8,8.1,7.1,7.9,7.4C7.8,7.7,7.6,8,7.4,8.3
	C7.2,8.5,7,8.8,6.8,9.2C6.6,9.4,6.5,9.7,6.4,10c-0.1,0.1-0.1,0.2-0.2,0.3S6,10.4,5.9,10.4C6,10.2,6,9.8,6.1,9.5"/>
</svg>
