<?xml version="1.0" encoding="utf-8"?>
<!-- Generator: Adobe Illustrator 19.2.1, SVG Export Plug-In . SVG Version: 6.00 Build 0)  -->
<svg version="1.1" id="Layer_1" xmlns="http://www.w3.org/2000/svg" xmlns:xlink="http://www.w3.org/1999/xlink" x="0px" y="0px"
	 viewBox="0 0 57.9 27.8" style="enable-background:new 0 0 57.9 27.8;" xml:space="preserve">
<style type="text/css">
	.st0{fill:#022A3A;}
</style>
<path class="st0" d="M55.8,6.7L55.8,6.7l0,0.1C55.8,6.8,55.8,6.7,55.8,6.7 M55.9,12c0,0.6-0.1,1.2-0.3,1.8c-0.2,0.6-0.3,1.2-0.5,1.7
	c-0.1,0.2-0.2,0.4-0.2,0.7v0l-0.1,0.2c-0.1,0.3-0.2,0.7-0.3,1c-0.1,0.3-0.3,0.6-0.4,0.9l-0.3,0.6l-0.1,0.3c-0.1,0.2-0.1,0.4-0.2,0.5
	c0,0,0,0.1-0.1,0.1c0,0-0.1,0.1-0.1,0.1l0,0l-0.3,0.5v0c0,0,0,0,0,0c0,0,0,0,0,0c0,0,0,0.1-0.1,0.1v-0.1l-0.4,0.4L52.4,21
	c-0.1,0.1-0.1,0.1-0.2,0.2c-0.1,0.1-0.2,0.2-0.3,0.2c-0.2,0.1-0.3,0.2-0.4,0.3l-0.8,0.2c0,0-0.1,0-0.1,0s0,0-0.1,0c0,0,0,0-0.1,0
	c0,0,0,0-0.1,0c-0.2,0-0.3,0-0.5,0s-0.3-0.1-0.4-0.2c-0.1-0.1-0.2-0.1-0.3-0.2L49,21.5c-0.1-0.1-0.2-0.3-0.2-0.5
	c-0.1-0.2-0.1-0.4-0.2-0.6c0-0.1,0-0.3,0-0.5c0-0.2,0-0.4-0.1-0.5L48.4,19c0,0,0,0,0-0.1c0-0.1,0-0.2,0-0.2c0-0.1,0-0.1,0-0.1
	l-0.1-0.3c0,0,0-0.1,0-0.1c0,0,0,0,0-0.1c0-0.2,0-0.4-0.1-0.6c0-0.1,0-0.3,0-0.4v-0.4l0.1-0.2c0,0,0-0.1,0-0.2v-0.2
	c0-0.1,0-0.1,0-0.2v-0.2c0-0.1,0-0.1,0-0.2c0-0.1,0-0.1,0-0.2l0.1-0.5c0.1-0.2,0.1-0.5,0.1-0.7v-0.3c0-0.1,0-0.2,0-0.3l0.1-0.1v-0.3
	l0.2-0.4l0.1-0.1c0.1-0.1,0.1-0.1,0.1-0.1c0-0.1,0-0.2,0-0.3c0,0,0-0.1,0.1-0.2c0,0,0,0,0-0.1l0.1-0.1c0,0,0-0.1,0-0.1
	c0-0.1,0-0.1,0-0.1c0,0,0-0.1,0.1-0.1c0,0,0.1-0.1,0.1-0.1c0,0,0-0.1,0-0.1c0,0,0-0.1,0-0.1c0.1-0.2,0.2-0.4,0.2-0.5
	c0-0.1,0-0.2,0.1-0.3c0.1-0.2,0.1-0.4,0.2-0.6c0.1-0.2,0.2-0.4,0.4-0.5c0-0.1,0-0.2,0-0.3c0-0.1,0-0.2,0.1-0.3s0.1-0.2,0.1-0.3
	c0-0.1,0-0.2,0-0.3c0,0,0,0,0.1-0.2c0.1-0.1,0.1-0.2,0.2-0.3c0,0,0,0,0,0s0,0,0,0c0.1-0.2,0.2-0.3,0.2-0.4v0c0-0.1,0.1-0.1,0.1-0.2
	c0.1-0.1,0.1-0.2,0.2-0.3L52,6v0l0.2-0.2l0,0l0.1-0.1c0,0,0.1,0,0.1,0s0,0,0.1-0.1l0.1-0.4c0,0,0,0,0-0.1c0,0,0.1-0.1,0.2-0.1l0.1,0
	c0,0,0,0,0-0.1l0.1-0.1c0,0,0.1,0,0.1-0.1s0,0,0.1-0.1c0,0,0,0,0-0.1c0,0,0,0,0.1-0.1l0,0.1l0.1-0.1l0.4-0.7c0-0.1,0.1-0.2,0.1-0.4
	c0-0.1,0.1-0.3,0.1-0.4l0.5,0.2l0.2,0.1c0,0,0,0,0.1,0.1c0,0.1,0.1,0.3,0.1,0.3C54.8,3.9,54.9,4,55,4.1l0.2,0.2c0,0.1,0,0.3,0,0.4
	c0,0.1,0.1,0.3,0.2,0.4l0.1,0.3c0,0,0,0,0,0c0,0,0,0,0,0l0.1,0.5c0,0.2,0.1,0.4,0.1,0.5s0.1,0.3,0.2,0.4c0,0.1,0,0.2,0,0.4
	c0,0.2,0,0.3,0,0.4c0,0.3,0.1,0.6,0.1,1s0,0.6,0,0.9v0.9c0,0.1,0,0.2,0,0.4c0,0.2,0,0.4-0.1,0.6H56v0.1v0.2C56,11.8,56,11.8,55.9,12
	L55.9,12z M50.9,24.4C50.8,24.4,50.8,24.4,50.9,24.4L50.9,24.4z M57.8,13.4c0-0.1,0-0.3,0-0.5v0c0-0.1,0-0.2,0-0.3
	c0-0.1,0-0.2,0-0.3c0,0,0-0.1,0-0.1c0,0,0-0.1,0-0.1v-1.3c0,0,0-0.1,0-0.1v-0.3c0-0.1,0-0.2,0-0.3s0-0.2,0-0.3V9.3
	c0,0-0.1-0.1-0.1-0.1V9.1V8.9v0c0,0,0-0.1,0-0.1c0,0,0,0,0-0.1l0-0.3c0-0.1,0-0.2,0-0.3s0-0.2,0-0.3c0-0.1,0-0.2,0-0.3s0-0.2,0-0.3
	c-0.1-0.1-0.1-0.1-0.1-0.2c0-0.1,0-0.2-0.1-0.3c0-0.1,0-0.1,0-0.1c0,0,0-0.1,0-0.1c0-0.1,0-0.2-0.1-0.5c0-0.1-0.1-0.3-0.2-0.4
	c-0.1-0.2-0.1-0.3-0.2-0.5c0-0.1-0.1-0.2-0.1-0.3c-0.1-0.1-0.1-0.2-0.1-0.4c-0.1-0.1-0.1-0.2-0.2-0.3v0.1l-0.1-0.3
	c-0.2,0-0.3,0-0.3,0c0,0-0.1-0.1-0.1-0.2l-0.1-0.1c-0.1,0-0.1,0-0.2-0.1c0,0,0,0,0,0c0,0.1,0,0.1,0,0l-0.1-0.1
	c-0.1-0.1-0.1-0.2-0.2-0.3s-0.2-0.2-0.3-0.3h0c-0.4-0.3-0.8-0.5-1.2-0.6h-0.2l0.1,0c0,0-0.1,0-0.2-0.1c0,0,0-0.1,0-0.3l-0.1-0.2v0
	c-0.1-0.1-0.2-0.2-0.2-0.3l-0.4-0.6c0,0-0.1,0-0.1,0c0,0-0.1,0-0.1,0c-0.2-0.1-0.4-0.1-0.6,0c-0.1,0-0.2,0.1-0.3,0.1
	c-0.1,0-0.1,0.1-0.2,0.1h0l-0.1,0.1l-0.2,0l-0.1,0.2h0c-0.1,0-0.1,0.1-0.2,0.1c-0.1,0-0.2,0-0.3,0.1c-0.1,0.1-0.1,0.2-0.2,0.2
	c-0.1,0.1-0.1,0.2-0.2,0.3C50.1,2.1,50,2.1,50,2.2s-0.2,0.2-0.2,0.4c0,0-0.1,0.1-0.2,0.2C49.5,2.9,49.4,3,49.4,3l-0.2,0.4
	c0,0,0,0,0,0.1c0,0.1-0.1,0.2-0.1,0.2l-0.1,0c-0.1,0.1-0.2,0.2-0.2,0.2c-0.1,0.1-0.1,0.2-0.1,0.3c-0.1,0.1-0.2,0.3-0.3,0.5
	c-0.1,0.2-0.2,0.4-0.3,0.6l-0.4,0.7c0,0.1,0,0.1-0.1,0.2s-0.1,0.1-0.1,0.1c0,0.1-0.1,0.1-0.1,0.2c-0.1,0.1-0.1,0.2-0.1,0.2
	c-0.1,0.1-0.2,0.2-0.2,0.4v0C47,7.3,47,7.4,47,7.4s-0.1,0.1-0.1,0.1c0,0.2,0,0.3-0.1,0.3c0,0.1-0.1,0.2-0.1,0.3l-0.1,0.3
	c0,0.1-0.1,0.2-0.1,0.4c0,0.1-0.1,0.3-0.2,0.4c0,0.1-0.1,0.2-0.1,0.2c0,0.1-0.1,0.2-0.1,0.3c0,0,0,0,0,0.2v0
	c-0.3,0.7-0.5,1.5-0.6,2.3c-0.1,0.8-0.2,1.7-0.3,2.6v0.7c0,0.1,0,0.2-0.1,0.3v0.1c0,0.1,0,0.2,0,0.2c0,0,0,0.1,0,0.1
	c0,0,0,0.1,0,0.1c0,0.1,0,0.2,0,0.3c0,0.1,0,0.2-0.1,0.3c0.1,0.1,0.1,0.2,0.1,0.3c0,0.1,0,0.2,0,0.3c0,0.1,0,0.2,0,0.3
	c0,0.1,0,0.2,0.1,0.3c0,0.3,0,0.6,0.1,0.9c0.1,0.2,0.2,0.3,0.2,0.5c0,0.1,0,0.1,0.1,0.3c0,0.1,0,0.1,0.1,0.1
	c0.1,0.1,0.1,0.2,0.1,0.2c0.1,0.1,0.2,0.2,0.2,0.3c0,0.1,0.1,0.2,0.1,0.4c0,0.1,0.1,0.3,0.2,0.4c0.1,0.1,0.2,0.3,0.3,0.4
	c0,0.1,0.1,0.2,0.2,0.3s0.2,0.2,0.3,0.3l0,0.1c0.1,0.1,0.1,0.1,0.1,0.1c0,0,0.1,0.1,0.1,0.1c0.1,0.1,0.1,0.1,0.2,0.2
	c0.1,0.1,0.2,0.1,0.3,0.2h0c0,0.1,0.1,0.1,0.1,0.1l0.1,0.1c0.1,0.2,0.2,0.2,0.3,0.3c0,0.1,0.1,0.1,0.2,0.1h0c0,0,0,0,0,0
	c0,0,0,0,0.1,0.1c0.2,0,0.4,0.1,0.5,0.2c0,0,0.1,0,0.1,0.1c0.1,0,0.1,0.1,0.1,0.1c0.2,0.1,0.4,0.1,0.6,0.1c0.3,0,0.5,0,0.8,0
	c0,0,0.1,0,0.1,0h0.1c0.2-0.1,0.4-0.2,0.5-0.2c0,0,0,0,0.1,0c0,0,0.1,0,0.1,0h0.2c0.1,0,0.1,0,0.2,0h0.1c0.1,0,0.1,0,0.1,0h0
	c0.2,0,0.3-0.1,0.4-0.1l0.1-0.1c0.1,0,0.2,0,0.3-0.1h-0.1c0.2-0.1,0.3-0.1,0.5-0.2c0.1-0.1,0.2-0.2,0.3-0.2h0
	c0.1-0.1,0.2-0.1,0.3-0.2c0.1-0.1,0.2-0.1,0.3-0.2l0.2-0.2c0,0,0.1-0.1,0.1-0.1c0,0,0.1-0.1,0.1-0.1c0,0,0,0,0.1-0.1
	c0,0,0.1-0.1,0.1-0.2v0.1l0.1-0.1l0.4-0.7l0.2-0.3c0,0,0-0.1,0-0.1c0,0,0,0,0-0.1s0,0,0-0.1v0l0.1-0.2c0.1-0.1,0.2-0.2,0.2-0.4
	S56,20.2,56,20v0c0-0.1,0.1-0.2,0.1-0.3c0-0.1,0.1-0.2,0.2-0.3v-0.1l0.1-0.3l0.2-0.5c0,0,0,0,0,0c0,0,0,0,0-0.1c0,0,0-0.1,0.1-0.2v0
	c0,0,0,0,0,0c0,0,0,0,0,0v0.1c0.1-0.1,0.1-0.2,0.2-0.3c0-0.1,0-0.2,0.1-0.3v-0.1c0,0,0,0,0-0.1c0-0.1,0-0.1,0.1-0.2
	c0.1-0.1,0.1-0.3,0.2-0.4s0-0.2,0.1-0.4v0c0-0.1,0.1-0.2,0.1-0.4v-0.1c0,0,0-0.1,0-0.2c0-0.1,0.1-0.2,0.1-0.3c0,0,0-0.1,0-0.1
	c0,0,0-0.1,0-0.1c0-0.1,0-0.2,0.1-0.3c0-0.1,0-0.2,0.1-0.4c0-0.1,0-0.2,0.1-0.3c0-0.1,0-0.1,0-0.2c0-0.1,0-0.2,0-0.4
	c-0.1,0-0.1,0-0.1,0C57.8,13.6,57.7,13.5,57.8,13.4 M41.7,1.2c0,0-0.1,0.1-0.2,0.1C41.6,1.2,41.6,1.1,41.7,1.2 M41,1.7L41,1.7
	L41,1.7z M45.2,1.8c0-0.1-0.1-0.3-0.1-0.4C45,1.3,45,1.2,45,1.1V1c-0.1-0.2-0.2-0.3-0.3-0.4c-0.1-0.1-0.2-0.2-0.3-0.4
	c-0.1,0-0.1,0-0.1,0s0-0.1-0.1-0.1c0,0-0.1,0-0.1,0c0,0-0.1,0-0.1,0c0,0,0,0-0.1-0.1c-0.1,0-0.2,0-0.4,0c-0.1,0-0.2,0-0.2,0.1
	c-0.1,0-0.2,0-0.2,0c-0.1,0-0.2,0-0.2,0c-0.1,0.1-0.2,0.2-0.3,0.2c0,0.2-0.1,0.4-0.3,0.5C42,0.9,41.9,1,41.8,1.1c0,0-0.1-0.1-0.1,0
	c0,0-0.1,0-0.1,0c0.1,0,0.2-0.1,0.2-0.2c-0.1,0-0.1,0-0.2,0c0.1,0,0.1-0.1,0.2-0.1s0.1-0.1,0.2-0.1c-0.2,0-0.3,0-0.4,0.1
	S41.3,0.9,41.2,1C41.1,1,41,1.1,40.9,1.2c-0.1,0.1-0.2,0.1-0.3,0.2c-0.5,0.4-0.9,0.8-1.3,1.3c-0.4,0.4-0.7,0.9-1,1.5
	c0,0.1,0,0.1-0.1,0.1c-0.1,0-0.1,0.1,0,0.2c0,0,0.1,0,0.1,0c0.1,0,0.1,0,0.1,0c0,0,0-0.1,0.1-0.2c0-0.1,0.1-0.1,0.1-0.2
	c0-0.1,0.1-0.1,0.1-0.1c0,0,0.1,0,0.1,0c-0.1,0.1-0.1,0.2-0.2,0.2s-0.1,0.2-0.1,0.3c0,0,0.1-0.1,0.1-0.1c0,0,0-0.1,0.1,0
	c0,0.1-0.1,0.2-0.2,0.3c-0.1,0.1-0.1,0.2-0.1,0.3c0,0,0-0.1,0.1-0.1c0,0,0-0.1,0.1-0.1c0.1,0,0.2-0.1,0.2-0.2c0-0.1,0.1-0.2,0.2-0.2
	c0,0.1,0,0.1-0.1,0.2C39,4.5,39,4.6,39,4.6c0-0.1,0.1-0.1,0.1-0.2c0-0.1,0.1-0.1,0.2-0.2v0.1c0,0,0.1-0.1,0.1-0.1
	c0,0,0.1-0.1,0.1-0.1c0.1-0.1,0.2-0.2,0.3-0.3c0.1-0.1,0.2-0.2,0.3-0.3C40,3.6,39.9,3.8,39.8,4s-0.3,0.3-0.4,0.5
	c0.1-0.1,0.1-0.2,0.1-0.2h0.1l0-0.1c0,0,0.1,0,0.1-0.1c0-0.1,0.1-0.1,0.1-0.1c0,0.1-0.1,0.1-0.2,0.2s-0.1,0.1-0.1,0.2
	c0.1-0.2,0.2-0.3,0.4-0.5s0.3-0.3,0.5-0.3c0.2-0.2,0.4-0.4,0.6-0.6c0.2-0.2,0.4-0.4,0.6-0.6c0.1-0.1,0.2-0.1,0.2-0.1
	c0,0.1-0.1,0.1-0.2,0.2c-0.1,0-0.1,0.1-0.2,0.1c-0.2,0.1-0.3,0.3-0.4,0.4c-0.1,0.1-0.2,0.3-0.4,0.4c0.2-0.1,0.3-0.3,0.5-0.5
	c0.2-0.2,0.4-0.3,0.6-0.4c-0.2,0.8-0.3,1.5-0.5,2.4c-0.1,0.8-0.3,1.6-0.5,2.5c-0.1,0.5-0.2,0.9-0.3,1.4c-0.1,0.5-0.2,1-0.3,1.5
	c-0.1,0.4-0.1,0.9-0.3,1.5c-0.1,0.6-0.2,1.1-0.3,1.7c-0.1,0.5-0.2,1-0.2,1.5s-0.1,0.8-0.1,1c0,0.1,0,0.2-0.1,0.4
	c0,0.2-0.1,0.3-0.1,0.5c0,0.2-0.1,0.4-0.1,0.5s-0.1,0.3-0.1,0.4c0.1,0.2,0,0.5,0,0.7c0,0.3-0.1,0.5-0.1,0.8c0,0.3,0,0.6-0.1,0.8
	c-0.1,0.3-0.1,0.6-0.2,0.9c-0.1,0.3-0.1,0.7-0.2,1c-0.1,0.3-0.1,0.7-0.1,1c0,0.3,0,0.6,0.1,0.9c0,0.1,0.1,0.2,0.2,0.3
	c0.1,0.1,0.1,0.2,0.2,0.3c0,0,0,0.1,0.1,0.1c0,0.1,0.1,0.1,0.1,0.1c0-0.1-0.1-0.1-0.1-0.2c0-0.1,0-0.2,0.1-0.2c0,0,0,0.1,0,0.1
	c0,0,0,0.1,0.1,0.1c0,0,0-0.1,0-0.1s0,0,0,0c0,0,0.1,0,0,0c0,0,0,0,0,0c0,0.1,0.1,0.1,0.2,0.1s0.1,0.1,0.2,0.1l0,0c0,0,0,0,0,0h0
	c0-0.1,0-0.2,0-0.2c0-0.1,0-0.1,0.1-0.1c0,0,0.1,0.1,0.1,0.1c0,0,0.1,0.1,0.1,0.1c0-0.1,0-0.2,0-0.2c0,0,0.1,0,0.1,0c0,0,0,0,0.1,0
	c0-0.1,0-0.1,0-0.2c0,0,0-0.1,0-0.1c0,0,0,0,0,0c0,0,0,0,0,0s0-0.1,0-0.1c0,0,0-0.1,0-0.1h0.1c0-0.1,0-0.1,0-0.1c0,0,0.1,0,0.1-0.1
	v-0.2c0-0.1,0.1-0.1,0.2-0.1c0,0,0-0.1,0-0.1s0-0.1,0-0.1c0.1,0,0.1-0.1,0.1-0.2c0-0.1,0-0.1,0-0.2c0-0.1,0-0.1,0.1-0.2
	c0,0,0-0.1,0-0.1c0,0,0.1-0.1,0.1-0.1c0,0,0-0.1,0.1-0.1c0,0,0,0,0,0c0,0,0,0,0,0c0,0,0-0.1,0-0.2s0-0.1,0.1-0.2c0,0,0,0.1,0,0.1
	c0,0,0,0.1,0,0.1c0.1-0.1,0.1-0.1,0.2-0.2c0-0.1,0.1-0.2,0.1-0.3h0.1c0,0,0-0.1,0-0.1c0,0,0,0,0-0.1s0,0,0,0c0,0,0,0,0,0
	c0.1-0.2,0.2-0.5,0.3-0.7c0.1-0.3,0.1-0.5,0.2-0.7c0-0.2,0.1-0.4,0.1-0.5s0.1-0.4,0.1-0.6c0-0.2,0.1-0.4,0-0.5c0-0.2,0-0.4,0-0.5
	c0-0.2,0-0.4,0.1-0.7c0-0.3,0.1-0.5,0.1-0.8c0-0.3,0.1-0.5,0.1-0.8c0-0.2,0.1-0.4,0.1-0.6c0-0.2,0.1-0.5,0.2-1
	c0.1-0.5,0.2-1,0.3-1.6c0.1-0.6,0.2-1.1,0.3-1.6c0.1-0.5,0.2-0.8,0.2-0.9c0.1-0.2,0.1-0.3,0.1-0.4c0.1-0.4,0.2-0.8,0.3-1.2
	s0.1-0.8,0.2-1.3c0,0,0,0,0,0c0,0,0,0,0,0c0-0.3,0-0.6,0.1-0.8c0-0.1,0-0.2,0.1-0.3c0-0.1,0.1-0.2,0.1-0.3c0-0.2,0-0.3,0-0.4
	c0,0,0-0.1,0-0.1c0,0,0,0,0-0.1c0-0.1,0-0.2,0-0.3s0-0.2,0-0.3c0.1-0.3,0.1-0.6,0.1-0.8c0,0,0.1,0,0.1-0.1c0-0.2,0.1-0.4,0.2-0.6
	c0.1-0.2,0.1-0.4,0.1-0.7V1.8z M28.2,23.3C28.2,23.2,28.2,23.2,28.2,23.3c0.1,0,0.1-0.1,0.2-0.1c0,0,0,0,0.1,0
	c0.1,0,0.2-0.1,0.3-0.1c0.1,0,0.2-0.1,0.2-0.2c0-0.1,0.1-0.1,0.1-0.2c0-0.1,0.1-0.2,0.1-0.3c0.1-0.2,0.1-0.5,0.1-0.8
	c0-0.3-0.1-0.5-0.2-0.7c-0.1-0.1-0.2-0.2-0.2-0.2c-0.1-0.1-0.2-0.1-0.3-0.2c-0.1,0-0.2,0-0.3,0c-0.1,0-0.2,0-0.3,0.1
	c0,0.1,0,0.1-0.1,0.1c-0.3,0.1-0.5,0.3-0.6,0.5C27,21.4,26.9,21.7,27,22c0,0.1,0,0.2,0,0.3s0.1,0.2,0.1,0.3c0,0.1,0.1,0.2,0.1,0.3
	c0,0.1,0.1,0.2,0.1,0.3h0.1c0-0.1,0.1-0.1,0.1-0.1c0.1,0,0.1,0.1,0.1,0.1s0,0.1,0.1,0.1c0,0,0.1,0,0.1-0.1c0-0.1,0-0.1,0.1-0.1
	c0.1,0,0.1,0,0.1,0.1C28,23.3,28.1,23.3,28.2,23.3C28.2,23.3,28.2,23.3,28.2,23.3 M24.1,18c0-0.2,0.1-0.4,0.1-0.7
	c0-0.2,0.1-0.5,0.1-0.8c0,0,0,0,0.1,0c0,0,0,0,0.1,0L24.1,18z M23,18.5c0,0.2-0.1,0.4-0.2,0.5s-0.2,0.3-0.2,0.4
	c-0.1,0.1-0.2,0.3-0.3,0.5c-0.1,0.2-0.1,0.3-0.1,0.5c0,0.2-0.1,0.3-0.2,0.4c0,0-0.1,0-0.1,0.1c0,0-0.1,0.1-0.1,0.1c0,0-0.1,0-0.1,0
	s0,0,0,0s0,0,0,0c-0.1,0.2-0.2,0.3-0.4,0.4s-0.3,0.3-0.5,0.4c-0.2,0.1-0.3,0.2-0.5,0.2c-0.2,0-0.4,0.1-0.6,0.1
	c-0.2,0-0.3,0.1-0.5,0.1c-0.1,0-0.3,0-0.5-0.1c-0.1-0.1-0.2-0.2-0.3-0.3s-0.2-0.3-0.2-0.4v-0.1c0-0.1,0-0.1-0.1-0.2
	c0-0.1,0-0.1-0.1-0.1c0,0,0-0.1,0-0.1c0,0,0-0.1,0-0.1c0-0.1,0-0.2,0-0.2s0-0.2,0-0.3c0.1-0.2,0.1-0.3,0.1-0.5s0-0.3,0.1-0.4
	c0-0.1,0-0.2,0-0.4c0.1-0.2,0.1-0.4,0.3-0.6c0.1-0.2,0.2-0.4,0.4-0.6c0.1-0.1,0.2-0.3,0.3-0.5c0.1-0.2,0.2-0.4,0.3-0.6
	c0,0,0.1-0.1,0.1-0.1c0,0,0.1-0.1,0.1-0.2c0.2,0,0.3-0.1,0.3-0.3c0.1-0.2,0.2-0.3,0.3-0.5c0-0.1,0.1-0.1,0.1-0.2s0.1-0.1,0.1-0.2
	c0.1-0.1,0.1-0.2,0.1-0.3c0-0.1,0.1-0.2,0.1-0.3c0.1,0.1,0.2,0.2,0.3,0.4s0.2,0.2,0.3,0.3c0.1,0.1,0.2,0.2,0.3,0.2
	c0,0,0.1,0.1,0.2,0.1c0.1,0.1,0.2,0.2,0.3,0.3s0.2,0.1,0.3,0.1c0.1,0.1,0.2,0.1,0.4,0.2c0.2,0.1,0.3,0.1,0.5,0.1c0,0.2,0,0.3,0,0.4
	s-0.1,0.2-0.2,0.4c0,0.2-0.1,0.3-0.1,0.5c0,0.1-0.1,0.3-0.1,0.4C23,18.2,23,18.3,23,18.5 M22.6,13.6c0,0.1,0,0.2,0,0.3l0.1,0.2
	c0,0,0.1,0.1,0.1,0.2c0,0.1,0,0.1,0.1,0.2c0,0.1,0.1,0.1,0.1,0.2c0.1,0.1,0.1,0.2,0.1,0.3V15c0,0-0.1,0.1-0.1,0
	c-0.1,0-0.1,0-0.1-0.1c-0.2-0.1-0.3-0.2-0.5-0.3c-0.1-0.1-0.3-0.3-0.4-0.5c0-0.1,0-0.3,0-0.4c0.1-0.2,0.2-0.2,0.3-0.3
	C22.5,13.5,22.5,13.5,22.6,13.6 M28.5,14.3c0,0-0.1,0-0.1,0c-0.1,0-0.1,0.1-0.2,0.1s-0.2,0.1-0.3,0c-0.1,0.1-0.3,0.2-0.5,0.3
	c-0.2,0.1-0.5,0.2-0.8,0.3c-0.1,0-0.2,0.1-0.4,0.1s-0.3,0-0.5,0s-0.4,0-0.5,0s-0.3,0-0.4,0c-0.1,0-0.1,0-0.1,0c0,0-0.1,0-0.2,0
	c0,0-0.1-0.1-0.1-0.1c0,0,0,0-0.1,0c0-0.1,0-0.2-0.1-0.3c0,0,0-0.1,0-0.1c0-0.1,0-0.1-0.1-0.2c0,0.1,0,0.2,0.1,0.3
	c0,0.1,0,0.2,0,0.3c-0.1,0-0.1,0-0.1-0.1c0-0.1,0-0.1,0-0.2c0-0.1-0.1-0.2-0.1-0.4c0-0.1-0.1-0.2-0.2-0.3c-0.1,0-0.2-0.1-0.2-0.3
	c0-0.1-0.1-0.2-0.1-0.3c0-0.1-0.1-0.2-0.1-0.3c-0.1-0.1-0.1-0.2-0.1-0.3l-0.2-0.1c0,0,0.1-0.1,0-0.1c0,0,0-0.1,0-0.1
	c-0.1,0-0.1,0-0.1,0c0,0,0,0-0.1,0c0,0,0.1,0.1,0.1,0.1c0,0.1,0,0.1-0.1,0.1c-0.1,0-0.1,0-0.1,0s-0.1,0-0.1,0c0,0-0.1,0-0.1,0.1
	c0,0,0,0-0.1,0c-0.1-0.1-0.2-0.1-0.3-0.1c-0.1,0-0.2,0-0.3,0c-0.1,0.1-0.2,0.1-0.3,0.3c-0.1,0.1-0.2,0.1-0.4,0c0,0-0.1,0.1-0.1,0.1
	c0,0.1-0.1,0.1-0.1,0.1c0-0.2,0-0.3,0-0.4c0-0.1-0.1-0.2-0.2-0.3c-0.1-0.1-0.3-0.2-0.5-0.3c-0.2-0.1-0.4-0.1-0.6,0c0,0,0,0,0,0h-0.1
	c-0.2,0.1-0.4,0.2-0.5,0.4c-0.2,0.1-0.3,0.3-0.5,0.4c-0.2,0.2-0.3,0.4-0.5,0.5c-0.1,0.2-0.3,0.4-0.4,0.6c-0.5,0.6-1,1.4-1.4,2.3
	c-0.4,0.9-0.7,1.9-0.7,2.9v0c0,0.1,0,0.2,0,0.3s0,0.2-0.1,0.3c0,0.2,0.1,0.3,0.1,0.5c0,0.2,0.1,0.3,0.1,0.5v0.2l0.1,0.1
	c0.1,0.4,0.3,0.7,0.4,1.2c0.1,0.4,0.3,0.7,0.7,0.9c0.2,0.2,0.4,0.4,0.6,0.6s0.5,0.3,0.8,0.4c0.2,0.1,0.3,0.1,0.5,0s0.3-0.1,0.5-0.1
	c0,0,0,0,0,0s0,0,0,0c0.3,0,0.5,0,0.7-0.2s0.4-0.2,0.7-0.3c0.1-0.1,0.2-0.2,0.4-0.3s0.3-0.2,0.4-0.3c0.1-0.2,0.2-0.2,0.2-0.3
	c0,0,0.1-0.1,0.1-0.1s0.1-0.1,0.1-0.1c0,0,0-0.1,0.1-0.1c0-0.1,0.1-0.1,0.1-0.2c0.1-0.1,0.1-0.2,0.1-0.3s0.1-0.2,0.1-0.3
	c0.1-0.2,0.2-0.3,0.3-0.5c0.1-0.1,0.2-0.3,0.3-0.5c0-0.1,0.1-0.2,0.1-0.4c0-0.1,0.1-0.3,0.1-0.4V20c0,0,0,0,0,0
	c0.1-0.1,0.1-0.2,0.2-0.2c0-0.1,0.1-0.1,0.1-0.2c0.1-0.2,0.2-0.4,0.2-0.5c0,0,0-0.1,0-0.1s0,0,0-0.1c0-0.2,0.1-0.3,0.2-0.5
	s0.1-0.3,0.2-0.5c0,0.2-0.1,0.3-0.1,0.3c0,0.1-0.1,0.2-0.1,0.3c0.2-0.4,0.3-0.7,0.3-1c0.1-0.3,0.1-0.7,0.2-1.1c0.1,0,0.3,0,0.6,0
	c0.3,0,0.6-0.1,1-0.1c0.4-0.1,0.7-0.2,1.1-0.3c0.4-0.1,0.7-0.3,1-0.5c0,0,0-0.1,0.1-0.1c0.1,0,0.1-0.1,0.2-0.2
	c0.2-0.1,0.3-0.2,0.3-0.4c0.1-0.1,0-0.2,0-0.3C28.6,14.3,28.6,14.3,28.5,14.3 M6.1,9.2c0.1-0.3,0.1-0.7,0.1-1c0-0.1,0.1-0.2,0.1-0.3
	s0-0.2,0.1-0.3c0-0.2,0.1-0.5,0.1-0.8c0-0.3,0-0.5,0-0.8c0-0.2,0.1-0.4,0.1-0.6c0-0.2,0-0.4,0-0.6c0.1-0.1,0.1-0.2,0.1-0.3
	c0-0.1,0-0.2,0-0.3c0-0.3,0.1-0.6,0.1-0.8c0-0.3,0-0.5-0.1-0.6c0-0.1,0-0.2,0-0.3S6.6,2.4,6.5,2.3C6.4,2,6.2,1.7,6.1,1.5
	C5.9,1.2,5.7,1,5.5,0.8c-0.1,0-0.2-0.1-0.2-0.1c-0.1,0-0.1-0.1-0.2-0.1c-0.1,0-0.3-0.1-0.5,0S4.2,0.7,4.1,0.8c0,0,0,0,0,0
	c0,0,0,0.1-0.1,0.1C3.9,1,3.8,1,3.7,1.1C3.7,1.1,3.6,1.2,3.5,1.3C3.4,1.4,3.3,1.5,3.3,1.6S3.2,1.9,3.2,2C3.1,2.1,3,2.3,3,2.5
	S3,2.8,3,2.9c0,0.1,0,0.2-0.1,0.2S2.8,3.3,2.8,3.4c0,0,0,0.1,0,0.1c0,0,0,0.1,0,0.1c0,0.2-0.1,0.4-0.1,0.7c0,0.2-0.1,0.4-0.1,0.7
	c0,0.1,0,0.2,0,0.3v0.3c0,0.1-0.1,0.1-0.1,0.2C2.5,6.6,2.4,7.6,2.2,8.5s-0.4,1.8-0.6,2.8c0,0.2-0.1,0.3-0.1,0.5c0,0.1,0,0.3-0.1,0.4
	c0,0.2,0,0.3-0.1,0.5s0,0.3-0.1,0.5c-0.1,0.3-0.2,0.6-0.2,0.9c-0.1,0.5-0.2,1-0.3,1.5s-0.1,1-0.2,1.4c0,0.2-0.1,0.3-0.1,0.4
	c0,0.2-0.1,0.5-0.1,0.7c-0.1,0.2-0.1,0.4-0.1,0.6c-0.1,1-0.2,1.9-0.3,3c-0.1,1-0.1,2,0,3.1c0,0.1,0.1,0.2,0.1,0.3
	c0,0.1,0.1,0.2,0.1,0.3c0.1,0,0.1,0,0.1,0c0,0.1,0,0.1,0.1,0.1c0,0,0.1,0.1,0.1,0.1c0,0,0.1,0,0.1,0.1c0,0,0,0,0,0.1
	c0,0,0,0.1,0,0.1c0.1,0,0.2,0.1,0.2,0.2c0.1,0.1,0.1,0.2,0.2,0.2c0.1,0,0.1,0,0.2,0s0.1,0,0.2,0c0,0,0.1,0,0.1,0c0,0,0.1,0,0.1,0
	c0.1,0,0.1,0,0.2,0c0,0,0.1,0,0.1,0c0.1-0.1,0.1-0.1,0.1-0.2c0-0.1,0.1-0.2,0.1-0.3c0.1,0,0.2-0.1,0.3-0.2c0-0.1,0.1-0.3,0.1-0.4
	c0,0,0.1,0,0.1,0c0,0,0,0,0.1,0c-0.1-0.2,0-0.4,0.1-0.6c-0.1-0.2,0-0.4,0.1-0.5c0,0,0.1,0,0.1,0s0,0,0.1,0c0-0.1,0-0.3,0-0.5
	s0-0.3,0.2-0.4c0,0,0-0.1,0-0.1c0,0,0-0.1,0-0.1c0.1-0.2,0.2-0.4,0.2-0.6s0.1-0.5,0.1-0.7c0-0.1,0-0.2,0-0.2s0-0.2,0.1-0.2
	c0-0.2,0-0.3,0-0.5s0-0.3,0-0.5C4,20.2,4,20.1,4,19.9v-0.3c0-0.1,0.1-0.2,0.1-0.3c0-0.1,0-0.2,0-0.3c0-0.2,0.1-0.3,0.1-0.5
	c0.1-0.2,0.1-0.3,0.1-0.5c0-0.3,0.1-0.5,0.1-0.7c0-0.2,0.1-0.4,0.1-0.6c0.1,0,0.1-0.1,0.1-0.1c0,0,0-0.1,0-0.1c0-0.1,0-0.2,0.1-0.2
	c0-0.1,0-0.1,0.1-0.2c0-0.1,0-0.1,0-0.1s0-0.1,0-0.1c0,0,0-0.1,0-0.1s0-0.1,0.1-0.2C5,15.2,5,15.1,5,15c0-0.1,0-0.2,0-0.3
	c0-0.1,0.1-0.2,0.1-0.3s0.1-0.2,0.1-0.3c0.1-0.3,0.3-0.7,0.5-0.9s0.4-0.6,0.6-0.9c0-0.1,0.1-0.2,0.1-0.3s0.1-0.1,0.2-0.2
	c0,0,0.1-0.1,0.1-0.1c0-0.1,0-0.1,0.1-0.1c0-0.1,0.1-0.1,0.2-0.2c0,0,0.1-0.1,0.1-0.1c0-0.1,0-0.1,0.1-0.1c0,0,0.1-0.1,0.2-0.1
	c0.1,0,0.1-0.1,0.2-0.1c0.3-0.5,0.6-1,0.9-1.5c0.3-0.5,0.7-0.9,1-1.4c0.2-0.1,0.3-0.2,0.4-0.4s0.2-0.3,0.4-0.5c0-0.1,0-0.1,0-0.2
	c0,0,0-0.1,0-0.1c0.1-0.1,0.2-0.3,0.3-0.4c0.1-0.1,0.2-0.3,0.3-0.5c0.1-0.2,0.3-0.4,0.5-0.5c0.2-0.1,0.4-0.3,0.5-0.5
	c0.1-0.1,0.2-0.1,0.3-0.2s0.2-0.2,0.3-0.2c0,0.5,0,0.9-0.1,1.4s-0.2,0.9-0.3,1.3C12,7.6,11.9,8,11.8,8.4c-0.1,0.4-0.2,0.8-0.3,1.2
	c0,0.2-0.1,0.3-0.1,0.5c0,0.1,0,0.3-0.1,0.5c0,0.3-0.1,0.7-0.2,1c-0.1,0.3-0.1,0.6-0.2,0.9c0,0.4-0.1,0.7-0.1,1.1
	c0,0.4,0,0.7-0.1,1.1c-0.1,0.6-0.2,1.1-0.3,1.7c-0.1,0.6-0.2,1.1-0.3,1.7c-0.1,0.5-0.2,0.9-0.2,1.4c-0.1,0.5-0.1,1-0.1,1.5
	c-0.1,0.5-0.1,1.1-0.1,1.7c0,0.6,0.1,1.1,0.2,1.6c0,0.2,0.1,0.4,0.1,0.6c0,0.2,0.1,0.3,0.1,0.5c0.1,0.2,0.1,0.3,0.2,0.4
	c0.1,0.1,0.2,0.3,0.3,0.5c0.2,0.3,0.4,0.6,0.6,0.8c0.2,0.2,0.5,0.4,0.9,0.5c0,0,0.1,0,0.1,0s0.1,0,0.1,0c0.1,0.1,0.3,0.2,0.5,0.2
	c0.2,0,0.4,0,0.6,0c0-0.1,0-0.1,0-0.1c0,0,0.1-0.1,0.1-0.1c-0.2,0-0.2-0.1-0.2-0.2c0,0,0.1,0,0.1,0c0,0,0.1,0,0.1,0
	c0,0,0-0.1-0.1-0.1c0,0-0.1-0.1,0-0.1c0.1,0,0.2,0,0.2,0c0.1,0,0.1,0.1,0.2,0.1c0,0,0.1-0.1,0.1-0.1c0.1,0,0.1,0,0.2-0.1
	c-0.1,0-0.2-0.1-0.3-0.1c-0.1-0.1-0.2-0.2-0.2-0.3c0.1,0,0.1,0,0.1-0.1c-0.1-0.1-0.1-0.1,0-0.2c0.1,0,0.1,0,0.1,0c0,0,0.1,0,0.1,0
	c0-0.1-0.1-0.1-0.1-0.2c0,0,0-0.1-0.1-0.2c0,0,0.1,0,0.1,0c0,0,0,0,0,0c0,0,0,0-0.1,0s0,0,0-0.1c0,0,0-0.1,0.1,0c0,0,0,0,0,0
	c-0.1,0-0.1,0,0,0c0,0,0,0,0-0.1c0-0.1-0.1-0.1,0-0.2c-0.1-0.1-0.2-0.3-0.3-0.3c-0.1-0.1-0.2-0.2-0.2-0.4c0-0.1-0.1-0.3,0-0.4
	c0-0.2,0-0.3,0-0.5c0-0.1,0-0.2,0-0.2c0-0.1,0-0.1-0.1-0.2c0-0.2,0-0.4,0-0.6c0-0.2,0-0.4,0-0.6c0-0.2,0-0.3,0-0.4
	c0-0.1,0-0.3,0-0.4c0-0.1,0.1-0.2,0.1-0.3c0-0.1,0-0.2,0-0.3c0.1-0.5,0.1-0.9,0.1-1.3c0.1-0.3,0.1-0.5,0.2-0.9s0.2-0.7,0.2-1
	c0-0.1,0-0.2,0-0.3c0-0.1,0-0.2,0-0.3c0.1-0.1,0.1-0.1,0.1-0.1c0-0.2,0-0.3,0-0.5s0-0.4,0-0.6c0-0.1,0-0.2,0.1-0.3
	c0-0.1,0-0.2,0-0.3c0-0.2,0-0.4,0-0.6c0-0.2,0.1-0.4,0.1-0.6c0-0.1,0.1-0.2,0-0.3s0-0.2,0-0.3c0-0.2,0.1-0.3,0.1-0.5
	s0.1-0.3,0.1-0.5c0-0.2,0.1-0.4,0.1-0.5c0-0.2,0-0.4,0.1-0.5c0-0.1,0.1-0.2,0.1-0.2c0-0.1,0-0.1,0-0.2c0.1-0.4,0.1-0.8,0.1-1.2
	c0-0.4,0.1-0.8,0.1-1.2c0-0.1,0-0.2,0-0.3c0-0.1,0-0.2,0-0.3c0-0.1,0-0.1,0-0.2s0-0.1,0-0.2c0-0.3,0.1-0.5,0.1-0.7s0-0.4,0-0.6
	c0-0.1,0-0.2-0.1-0.3c0-0.1,0-0.3,0-0.4c-0.1-0.1-0.1-0.1-0.1-0.3s0-0.2,0-0.3c0-0.1-0.1-0.2,0-0.4s0-0.3-0.1-0.4
	c0-0.1,0.1-0.2,0.2-0.2s0.1-0.2,0.2-0.3c0-0.3-0.2-0.4-0.5-0.4c0,0-0.1-0.1-0.1-0.2c0-0.1-0.1-0.1-0.1-0.2c0,0,0,0-0.1,0
	c0,0-0.1,0-0.1,0c-0.1-0.1-0.1-0.1-0.1-0.2c0-0.1-0.1-0.1-0.1-0.1c0,0,0,0-0.1,0s-0.1,0-0.1-0.1c0,0-0.1-0.1-0.1-0.1
	c0,0-0.1-0.1-0.1-0.1c-0.1-0.1-0.3-0.2-0.5-0.2c-0.2,0-0.4,0-0.6,0c-0.3,0.1-0.6,0.1-0.8,0.2c-0.2,0.1-0.4,0.2-0.6,0.4
	c-0.1,0.1-0.2,0.2-0.3,0.3c-0.1,0.1-0.2,0.2-0.3,0.3c-0.2,0.2-0.3,0.3-0.4,0.5c-0.1,0.1-0.3,0.3-0.4,0.4C9.9,4.6,9.8,4.6,9.8,4.7
	c-0.1,0-0.1,0.1-0.1,0.1C9.4,5.1,9.3,5.3,9.1,5.5C8.9,5.7,8.8,6,8.6,6.2C8.3,6.5,8.1,6.8,7.9,7.1C7.8,7.4,7.6,7.7,7.4,8
	C7.2,8.2,7,8.5,6.8,8.9C6.6,9.1,6.5,9.4,6.4,9.7C6.3,9.8,6.2,9.9,6.2,10S6,10.1,5.9,10.1C6,9.9,6,9.5,6.1,9.2"/>
</svg>
