<?xml version="1.0" encoding="utf-8"?>
<!-- Generator: Adobe Illustrator 19.2.1, SVG Export Plug-In . SVG Version: 6.00 Build 0)  -->
<svg version="1.1" id="Layer_1" xmlns="http://www.w3.org/2000/svg" xmlns:xlink="http://www.w3.org/1999/xlink" x="0px" y="0px"
	 viewBox="0 0 151.7 31.8" style="enable-background:new 0 0 151.7 31.8;" xml:space="preserve">
<style type="text/css">
	.st0{fill:#082432;}
</style>
<g>
	<path class="st0" d="M12.9,2L12.9,2L12.9,2C13,2,13,2.1,13.1,2.2c0,0.1,0.1,0.2,0.2,0.2c0,0,0,0,0-0.1c0,0,0,0,0-0.1
		c0.1,0,0.1,0.1,0.2,0.2c0,0.1,0.1,0.2,0.1,0.2c0.1,0.2,0.1,0.3,0.2,0.4c0,0.1,0.1,0.3,0.1,0.4c0,0.3,0,0.6,0.1,0.9
		c0.1,0.3,0.1,0.5,0.1,0.8c0,0,0,0.1,0.1,0.1c0,0.1,0,0.2,0,0.3s0,0.2,0,0.4s0,0.3,0,0.5s0,0.4,0,0.6c0,0.3,0,0.6,0,0.9
		c0,0.3,0,0.6,0,0.9c0,0.1,0,0.2,0,0.2c0,0.1,0,0.1,0,0.2c0,0.1,0,0.2-0.1,0.4c0,0.1-0.1,0.2-0.1,0.4c0,0.3-0.1,0.7-0.2,1.1
		c0,0.1,0,0.2-0.1,0.2c0,0.1,0,0.2-0.1,0.3c0,0.1-0.1,0.3-0.1,0.4c0,0.2-0.1,0.3-0.1,0.5s-0.1,0.3-0.1,0.5c-0.1,0.2-0.1,0.4-0.2,0.5
		c0,0-0.1,0-0.1,0.1c-0.1,0.4-0.1,0.5-0.1,0.6c0,0.1-0.1,0.2-0.3,0.3v0.1c0,0,0,0,0,0.1c-0.1,0-0.2,0.1-0.2,0.2
		c0,0.1-0.1,0.2-0.2,0.2c0,0.1-0.1,0.2-0.1,0.2C12,15.4,12,15.4,12,15.5c-0.1,0-0.1,0.1-0.1,0.1s0,0-0.1,0c0,0,0,0-0.1,0
		c-0.1,0.2-0.3,0.4-0.3,0.5c0,0-0.1,0-0.1,0.1c0,0,0,0-0.1,0.1c-0.1,0-0.1,0.1-0.2,0.2s-0.1,0.1-0.2,0.2c0,0,0,0-0.1,0h-0.1
		l-0.1,0.1l-0.1,0.1c-0.1,0-0.2,0-0.3,0c-0.1,0-0.2,0-0.3,0c0,0-0.1,0.1-0.2,0.1s-0.2,0-0.2,0.1H9.3H9.2l0,0l0,0c-0.1,0-0.2,0-0.2,0
		c-0.1,0-0.1,0-0.1-0.1c-0.1,0-0.3,0-0.4,0s-0.2,0.1-0.3,0c-0.1,0-0.3-0.1-0.4-0.2c-0.1,0-0.1-0.1-0.3-0.2c-0.1-0.1-0.2-0.1-0.2-0.2
		l-0.1-0.1c0,0-0.2-0.4-0.3-0.5s-0.1-0.2-0.2-0.3s-0.1-0.1-0.1-0.2c-0.2-0.2-0.4-0.3-0.5-0.4c-0.1-0.1-0.2-0.2-0.2-0.3
		c-0.1-0.1-0.1-0.2-0.1-0.4c0-0.1-0.1-0.3-0.2-0.6c-0.1-0.1-0.1-0.1-0.1-0.1l0,0v0.1c0,0-0.1,0.1-0.2,0.1s-0.1,0-0.1,0.1
		c0,0,0,0,0,0.1V14c0,0,0,0-0.1,0c0,0.1,0,0.2-0.1,0.3c0,0.1,0,0.2-0.1,0.3v0.1l0,0c0,0.2,0,0.4-0.1,0.6c-0.1,0.2-0.1,0.4-0.1,0.5
		s0,0.1,0,0.2s0,0.1,0,0.2c0,0.2-0.1,0.3-0.1,0.5S4.5,17,4.5,17.2s0,0.3-0.1,0.5c0,0.2,0,0.3-0.1,0.5v0.1v0.1c0,0.3,0,0.5-0.1,0.8
		c0,0.2-0.1,0.5-0.1,0.8v0.1C4,20.4,4,20.6,4,20.9s-0.1,0.5-0.2,0.8c0,0.1-0.1,0.2-0.1,0.4c0,0.1-0.1,0.3-0.1,0.4v0.1c0,0,0,0,0,0.1
		c-0.1,0.1-0.1,0.2-0.2,0.3c0,0.1-0.1,0.2-0.2,0.3v0.1v0.1c0,0,0,0.1-0.1,0.1s0,0,0,0.1c-0.1,0-0.2,0.1-0.2,0.2s0,0.2-0.1,0.3
		c0,0,0,0.1-0.1,0H2.6c-0.1,0.2-0.1,0.4-0.1,0.6s-0.1,0.4-0.1,0.6c-0.1,0-0.2,0.1-0.2,0.2c-0.1,0.1-0.1,0.1-0.2,0.1
		c0,0.1-0.1,0.1-0.1,0.2c0,0,0,0.1,0,0.2H1.8c0,0-0.1,0-0.1,0.1c0-0.1-0.1-0.2-0.3-0.2c-0.1,0-0.3,0-0.4,0c0,0-0.1,0,0,0v0.1
		c-0.1,0-0.1,0-0.1,0s0,0-0.1-0.1c0-0.1-0.1-0.2-0.1-0.3c-0.1-0.1-0.2-0.1-0.3-0.2c0-0.2-0.1-0.3-0.2-0.4s-0.1-0.3-0.1-0.4
		s0-0.2,0-0.3c0-0.1,0-0.2,0-0.3c0-0.1,0-0.3,0-0.4s0-0.2,0-0.3v-0.1v-0.1c-0.1-0.4-0.1-0.9,0-1.4s0.2-1,0.3-1.5
		c0-0.2,0.1-0.4,0.1-0.6s0.1-0.5,0.1-0.7c0.1-0.3,0.1-0.6,0.2-0.9c0.1-0.3,0.1-0.6,0.1-0.9C0.9,17,1,16.8,1,16.6
		c0-0.2,0-0.4,0.1-0.6c0.1-0.4,0.1-0.8,0.2-1.1c0.1-0.4,0.1-0.7,0.2-1.1c0.1-0.4,0.1-0.7,0.2-1.1c0.1-0.4,0.1-0.7,0.2-1.1
		c0-0.1,0-0.3,0-0.4c0-0.1,0-0.2,0-0.4S2,10.4,2,10.3c0-0.2,0.1-0.4,0.1-0.5V9.7V9.6c0-0.2,0-0.3,0.1-0.5c0-0.2,0.1-0.4,0.2-0.5
		c0-0.2,0-0.4,0-0.6c0.1-0.2,0.1-0.4,0.2-0.6c0-0.1,0-0.2,0.1-0.3c0-0.1,0.1-0.2,0.1-0.3s0-0.2,0-0.3c0,0,0-0.1,0.1-0.1
		c0,0,0-0.1,0.1-0.1c0.1-0.2,0.1-0.4,0.2-0.6c0.1-0.2,0.1-0.4,0.2-0.6c0.1-0.4,0.2-0.9,0.4-1.2C3.9,3.5,4,3.1,4.1,2.6
		c0-0.1-0.1-0.1,0-0.2c0-0.1,0-0.1,0-0.2C4.1,2.1,4,2.1,4,2S3.8,1.8,3.8,1.8c-0.1,0-0.1-0.1-0.2-0.1S3.5,1.6,3.4,1.6
		C3.1,1.7,2.9,1.8,2.7,1.9S2.3,2.2,2.2,2.4C2,2.5,1.7,2.6,1.5,2.7S1,2.8,0.7,2.7L0.6,2.6C0.3,2.5,0.2,2.3,0.2,2.1
		c0-0.3,0.1-0.5,0.1-0.7c0-0.1,0.1-0.1,0.2-0.1s0.1-0.1,0.2-0.2C0.8,1,1,1,1.1,0.9c0.1-0.1,0.2-0.1,0.4-0.2c0.1-0.1,0.2-0.2,0.4-0.2
		c0.2-0.1,0.3-0.1,0.4-0.2c0.2-0.1,0.4-0.1,0.6-0.2C3.1,0,3.3,0,3.5,0c0.4,0,0.7,0,1,0.1s0.6,0.3,0.8,0.5v0.1c0,0,0.1,0,0.1,0.1
		c0.3,0.1,0.4,0.3,0.5,0.5c0.2,0.3,0.3,0.6,0.3,0.9c0,0.4,0,0.7,0,1c0,0.1,0,0.3,0,0.4c0,0.1,0,0.3,0,0.4c0,0.2-0.1,0.4-0.1,0.7
		s0,0.5,0,0.8c0.2-0.2,0.4-0.4,0.5-0.6c0.2-0.2,0.3-0.4,0.5-0.6c0.4-0.5,0.8-0.9,1.3-1.4c0.5-0.4,1-0.8,1.6-1.1c0,0,0.1,0,0.1-0.1
		c0,0,0.1,0,0.2,0c0,0.1,0,0.1,0.1,0s0.1-0.1,0.1,0c0.2,0,0.3,0,0.3,0h0.1c0.1,0,0.2-0.1,0.2-0.1s0,0,0.1,0h0.1c0.1,0,0.1,0,0.1,0
		c0.1-0.1,0.2-0.1,0.3,0c0.1,0,0.2,0.1,0.3,0.1l-0.1-0.1c0,0,0.1,0.1,0.2,0.1s0.2,0.1,0.3,0.1c0.1,0,0.1,0.1,0.1,0.2
		C12.8,2,12.8,2,12.9,2z M9.4,3.6c-0.5,0.3-0.9,0.6-1.2,1C7.8,5,7.5,5.4,7.2,5.8C7,6,6.9,6.2,6.7,6.4C6.5,6.6,6.4,6.8,6.3,7
		c0,0,0,0.1,0,0s0,0,0,0L6.2,7.1L6.1,7.2c0,0.2,0,0.3,0,0.4c0,0.1,0,0.3,0,0.4c0,0.1,0,0.2,0,0.3s0,0.2,0,0.3S6,8.9,6,9
		c0,0.1,0,0.2-0.1,0.4c0,0.2-0.1,0.4,0,0.5c0,0.2,0,0.3,0,0.5c0,0.1,0,0.3-0.1,0.4c0,0.1,0,0.3,0,0.4c-0.1,0.1-0.1,0.3,0,0.4
		C5.9,11.7,5.9,11.8,6,12c0,0.1,0.1,0.1,0.1,0.3c0.1,0.3,0.2,0.5,0.4,0.8c0.1,0.3,0.3,0.5,0.4,0.8C7,14,7.1,14.1,7.2,14.1
		c0.1,0,0.2,0.1,0.3,0.2c0,0.1,0.1,0.2,0.2,0.3s0.2,0.1,0.2,0.2c0.1,0,0.1,0,0.2-0.1c0.1,0,0.1-0.1,0.2-0.1s0.2,0,0.2,0
		c0,0.1,0.1,0.1,0.2,0c0.1,0,0.2-0.1,0.3-0.2c0.1-0.1,0.2-0.1,0.3-0.1c0.5-0.7,0.8-1.5,1.1-2.4s0.5-1.8,0.6-2.7
		c0.1-0.1,0.1-0.3,0.2-0.4c0-0.2,0.1-0.3,0.1-0.5c0-0.1,0.1-0.2,0.1-0.4c0-0.1,0-0.2,0.1-0.4c0.1-0.6,0.2-1.2,0.4-1.8
		C12,5.1,12.2,4.6,12.3,4c0-0.1,0-0.2,0-0.3s0-0.2,0-0.3c0-0.2,0-0.3,0-0.5s-0.1-0.4-0.1-0.5c-0.1,0-0.1-0.1-0.3-0.1
		c-0.1,0-0.2,0-0.3,0s-0.2,0-0.3,0.1c-0.1,0-0.1,0.1,0,0.1c0,0-0.1,0.1-0.2,0.1s-0.2,0.1-0.2,0.1c-0.2,0.1-0.4,0.2-0.5,0.4
		S9.5,3.5,9.4,3.6z"/>
	<path class="st0" d="M18.2,23.5c-0.1,0-0.2,0-0.3-0.1s-0.1-0.2-0.2-0.3c0-0.1-0.1-0.1-0.1-0.2s-0.1-0.1-0.1-0.2s-0.1-0.1-0.1-0.1
		l-0.1-0.1l-0.1-0.1l-0.1-0.1c-0.2-0.3-0.3-0.7-0.4-1c-0.1-0.2-0.1-0.4-0.1-0.6s0-0.5,0-0.7c0-0.1,0-0.1,0-0.2s0-0.1,0.1-0.2
		l0.1-0.9c0-0.1,0-0.3,0-0.4s0-0.3,0.1-0.4c0-0.1,0.1-0.2,0.1-0.4c0-0.1,0.1-0.3,0.1-0.4c0-0.1,0-0.1,0.1-0.2c0,0,0-0.1,0.1-0.2
		l0.1-0.2v-0.1c0,0,0,0,0-0.1v-0.1c0,0,0-0.1,0.1-0.1c0,0,0-0.1,0-0.2c0-0.1,0.1-0.2,0.1-0.2c0-0.1,0-0.2,0.1-0.2
		c0-0.1,0.1-0.2,0.1-0.3s0.1-0.2,0.1-0.3c0.1-0.1,0.1-0.3,0.2-0.4c0.1-0.1,0.1-0.3,0.2-0.4c0.1-0.1,0.1-0.2,0.1-0.3
		c-0.5,0.1-0.9,0.3-1.3,0.5s-0.9,0.3-1.3,0.5c0,0.1-0.1,0.2-0.2,0.3c0,0-0.1,0.1-0.1,0.2c0,0.1-0.1,0.1-0.1,0.2c0,0,0,0.1,0,0.2
		c0,0.1,0,0.1-0.1,0.1v0.1c0,0,0,0,0,0.1c-0.1,0.1-0.1,0.1-0.1,0.1s0,0.1,0,0.2l-0.1,0.1L15,16.5l-0.1,0.1v0.1
		c-0.1,0.2-0.3,0.5-0.4,0.8c0-0.1,0.1-0.1,0.1-0.2c-0.1,0.1-0.1,0.2-0.2,0.2v0.1h-0.1c0,0,0,0.1-0.1,0.1c0,0,0,0,0,0.1
		c0,0.1,0,0.1,0,0.1c0,0.2-0.1,0.3-0.2,0.4l-0.1,0.1c0,0.1-0.1,0.2-0.1,0.2c0,0.1-0.1,0.2-0.2,0.2c-0.1,0.1-0.1,0.1-0.2,0.2
		c-0.1,0-0.1,0.1-0.2,0.1s-0.1,0.1-0.2,0.1c-0.1,0.1-0.2,0.2-0.4,0.2c0,0.1-0.1,0.1-0.1,0.1c-0.1,0-0.2,0-0.3-0.1s-0.1-0.3-0.1-0.4
		H12l0,0c-0.1,0.1-0.1,0.1-0.1,0l0,0c0,0,0-0.1,0.1-0.1c0,0,0.1,0,0.1-0.1v0c0-0.1,0.1-0.2,0.1-0.2s0.1-0.2,0.1-0.3
		c0-0.1,0.1-0.1,0.1-0.2s0.1-0.1,0.1-0.2v-0.1v0c0,0,0-0.1,0.1-0.1s0,0,0.1-0.1c0-0.1,0.1-0.1,0.1-0.2c0-0.1,0.1-0.1,0.1-0.2
		c0,0,0.1-0.1,0.1-0.2c0.1-0.1,0.1-0.2,0.2-0.4c0.1-0.1,0.1-0.3,0.2-0.4c0.1-0.2,0.2-0.4,0.3-0.5c0.1-0.2,0.2-0.4,0.3-0.5
		c0.1-0.1,0.1-0.2,0.2-0.4c-0.5-0.1-0.9-0.2-1.2-0.4c0,0-0.1,0-0.1-0.1l-0.1-0.1c0,0,0-0.1-0.1-0.1L12.6,14c0-0.1-0.1-0.2-0.1-0.3
		c0-0.2,0-0.3,0-0.4v-0.1l0,0v-0.1V13c0-0.1,0-0.1,0-0.2c0-0.1,0-0.1,0.1-0.2c0-0.1,0.1-0.1,0.1-0.2c0,0,0-0.1,0.1-0.2
		c0.2-0.4,0.3-0.7,0.6-0.9c0.1-0.1,0.1-0.2,0.3-0.2C13.8,11,13.9,11,14,11c0,0,0.1,0,0.2,0s0.1,0,0.2,0c0.2,0,0.3-0.1,0.5-0.1
		s0.3,0,0.5-0.1c0,0,0,0,0-0.1c0,0,0,0,0.1-0.1l0,0h0.1c0.1,0.1,0.1,0.1,0.2,0.2s0.2,0.1,0.3,0.2c0.1,0.1,0.1,0.2,0.2,0.3
		s0.1,0.2,0,0.4l0.1,0.1c0,0.1,0,0.2-0.1,0.2v0.1v0.1c0,0.1-0.1,0.1-0.1,0.2c0,0.1,0,0.1-0.1,0.2v0.2c0,0.1-0.1,0.2-0.1,0.3
		s0,0.2-0.1,0.3c0.1,0,0.2,0,0.3-0.1s0.2-0.1,0.3-0.1c0.4-0.2,0.9-0.4,1.3-0.6c0.4-0.2,0.9-0.4,1.3-0.6c0.1,0,0.2-0.1,0.3-0.1
		c0.1,0,0.2-0.1,0.3-0.1c0.1,0,0.2-0.1,0.3-0.1c0.1,0,0.2,0,0.3,0c0.1,0.1,0.2,0.1,0.2,0.2c0.2,0.2,0.4,0.3,0.5,0.5l0,0l0,0h0.1
		c0.1,0.1,0.2,0.3,0.2,0.5s0,0.4-0.1,0.6v0.1c0,0,0,0,0,0.1v0.1v0.1c0,0.2-0.1,0.3-0.1,0.3s0,0.1-0.1,0.1c0,0,0,0.1-0.1,0.1
		c0,0.1-0.1,0.1-0.1,0.2c0,0,0,0.1-0.1,0.1l-0.1,0.1l0,0l0,0c0,0.1,0,0.2-0.1,0.2c0,0.1-0.1,0.1-0.1,0.2v0.1c0,0,0,0,0,0.1
		c0,0,0,0.1-0.1,0.1c-0.1,0.2-0.2,0.4-0.3,0.6c-0.1,0.2-0.2,0.4-0.3,0.6l-0.1,0.1v0.1V17c0,0.1,0,0.1-0.1,0.2v0.1v0.1v0.1v0.1
		c0,0,0,0.1-0.1,0.1v0.1l0,0c0,0,0,0,0,0.1V18c0,0.2-0.1,0.3-0.1,0.5c0,0.1-0.1,0.3-0.1,0.5v0.2c0,0,0,0,0,0.1v0.1c0,0,0,0,0,0.1
		l0,0l0,0v0.1c0,0,0,0,0,0.1c0,0.2,0,0.3,0,0.4s0,0.2-0.1,0.4v0.1v0.1c0,0,0,0.1-0.1,0.1l0,0c0,0,0,0,0,0.1c0,0,0,0.1,0,0.2
		s0,0.1,0.1,0.1s0.1,0,0.2-0.1c0.1,0,0.1-0.1,0.2-0.1c0.2-0.1,0.4-0.3,0.6-0.4c0.2-0.2,0.4-0.3,0.6-0.4h0.1c0,0,0,0,0.1,0
		c0,0,0.1,0,0.1-0.1c0,0,0,0,0.1-0.1c0.3-0.2,0.6-0.4,0.8-0.7c0.3-0.2,0.5-0.5,0.8-0.7c0.1-0.1,0.2-0.2,0.4-0.4
		c0.1-0.1,0.3-0.2,0.4-0.4c0.1,0,0.1-0.1,0.2-0.2c0.1-0.1,0.1-0.1,0.2-0.1H24h0.1c0,0,0.1,0,0.1,0.1s-0.1,0.2-0.1,0.2v0.1
		c0,0,0,0,0,0.1c0,0,0,0,0.1,0.1c-0.1,0.1-0.1,0.1-0.1,0.2v0.1l0,0c0,0,0,0,0,0.1s0,0.1,0,0.2l0,0c0,0,0,0,0,0.1L24,18.9
		c0,0-0.1,0.1-0.1,0.2s-0.1,0.1-0.1,0.2c-0.1,0-0.1,0.1-0.2,0.2c-0.1,0-0.1,0.1-0.2,0.2c0,0,0,0,0,0.1c0,0,0,0,0,0.1
		s-0.1,0.1-0.2,0.2S23,20.2,23,20.3c-0.2,0.3-0.5,0.5-0.7,0.7c-0.3,0.2-0.5,0.4-0.7,0.7c0,0.1-0.1,0.2-0.2,0.3s-0.2,0.2-0.2,0.3
		c-0.1,0.1-0.3,0.2-0.3,0.3c-0.1,0.1-0.2,0.2-0.3,0.3L20.5,23c-0.1,0-0.1,0-0.1,0.1c-0.1,0.1-0.2,0.1-0.2,0.2
		c-0.1,0.1-0.2,0.1-0.3,0.1c-0.1,0-0.2,0.1-0.2,0.1c-0.1,0-0.2,0.1-0.3,0.1l0,0l0,0c0,0-0.1,0-0.1,0.1h-1.1V23.5z M14.6,12.1
		c-0.1,0.2-0.2,0.3-0.2,0.4c0,0.1-0.1,0.1-0.1,0.2c0,0.1-0.1,0.1-0.1,0.2c0,0,0,0-0.1,0.1l0,0l0,0C14,13.1,14,13.2,14,13.2
		s0,0.1,0.1,0.1c0.1,0.1,0.2,0.1,0.4,0.1c0.3,0,0.5,0,0.8-0.1c0-0.2,0.1-0.3,0.1-0.5s0-0.4,0.1-0.5l0.1-0.1c0-0.1,0-0.2-0.1-0.2
		c-0.1-0.1-0.2-0.1-0.3-0.2c-0.1,0-0.1,0.1-0.2,0.2C14.7,12,14.7,12.1,14.6,12.1z M17.1,21.6L17.1,21.6
		C17.1,21.5,17.1,21.5,17.1,21.6C17.1,21.5,17.1,21.5,17.1,21.6L17.1,21.6z"/>
	<path class="st0" d="M35.6,13.3c0.1,0.1,0.1,0.2,0,0.3s-0.2,0.3-0.3,0.4c0,0.1-0.1,0.1-0.1,0.2s-0.1,0.1-0.1,0.1
		c-0.3,0.2-0.6,0.4-1,0.5S33.4,15,33,15.1s-0.7,0.1-1,0.1c-0.3,0-0.5,0-0.6,0c-0.1,0.5-0.2,0.8-0.2,1.1s-0.2,0.6-0.3,1
		c0-0.1,0-0.2,0.1-0.3s0.1-0.2,0.1-0.3C31,16.9,31,17,30.9,17.2s-0.1,0.3-0.2,0.5v0.1c0,0,0,0,0,0.1c0,0.1-0.1,0.3-0.2,0.5
		c0,0.1-0.1,0.2-0.1,0.2c0,0.1-0.1,0.1-0.1,0.2l0,0v-0.1c-0.1,0.1-0.1,0.3-0.1,0.4s-0.1,0.3-0.1,0.4c-0.1,0.2-0.2,0.3-0.3,0.5
		c-0.1,0.2-0.2,0.3-0.3,0.5c0,0.1-0.1,0.2-0.1,0.3s-0.1,0.2-0.1,0.3c0,0.1-0.1,0.1-0.1,0.2s-0.1,0.1-0.1,0.2S29,21.6,29,21.6
		s-0.1,0.1-0.2,0.1s-0.2,0.1-0.2,0.3c-0.1,0.1-0.2,0.2-0.4,0.3c-0.1,0.1-0.3,0.2-0.4,0.3c-0.2,0-0.4,0.1-0.7,0.3
		c-0.2,0.1-0.5,0.2-0.7,0.2l0,0l0,0c-0.1,0-0.3,0-0.5,0.1c-0.2,0-0.3,0-0.5,0c-0.3-0.1-0.6-0.2-0.8-0.4c-0.2-0.2-0.4-0.4-0.6-0.6
		c-0.4-0.2-0.6-0.5-0.7-0.9s-0.2-0.8-0.4-1.2L22.8,20v-0.2c0-0.2,0-0.3-0.1-0.5c0-0.2-0.1-0.3-0.1-0.5c0-0.1,0.1-0.2,0.1-0.3
		c0-0.1,0-0.2,0-0.3l0,0c0.1-1,0.3-2,0.7-2.9s0.9-1.7,1.4-2.3c0.2-0.2,0.3-0.4,0.4-0.6c0.1-0.2,0.3-0.3,0.5-0.5
		c0.2-0.1,0.3-0.3,0.5-0.4c0.2-0.1,0.3-0.3,0.5-0.4h0.1l0,0c0.2-0.1,0.4-0.1,0.6,0s0.4,0.2,0.5,0.3s0.1,0.2,0.2,0.3s0.1,0.3,0,0.4
		c0,0,0.1,0,0.1-0.1s0.1-0.1,0.1-0.2c0.1,0.1,0.3,0.1,0.4,0s0.2-0.2,0.3-0.3c0.1,0.1,0.2,0.1,0.3,0c0.1,0,0.2,0,0.3,0.1h0.1
		c0,0,0-0.1,0.1-0.1h0.1H30l0.1-0.1c0-0.1,0-0.1-0.1-0.1h0.1h0.1c0,0,0,0,0,0.1v0.1l0.2,0.2c0,0.1,0,0.2,0.1,0.3
		c0,0.1,0.1,0.2,0.1,0.3s0.1,0.2,0.1,0.3s0.1,0.2,0.2,0.3s0.1,0.2,0.1,0.3s0.1,0.3,0.1,0.4c0,0,0,0.1,0,0.2c0,0.1,0.1,0.1,0.1,0.1
		c0-0.1,0-0.2,0-0.3s-0.1-0.2-0.1-0.3l0.1,0.1c0,0.1,0,0.1,0,0.2c0,0.1,0.1,0.2,0.1,0.3h0.1c0,0,0,0.1,0.1,0.1s0.1,0,0.2,0h0.1
		c0.1,0,0.3,0,0.4,0c0.2,0,0.3,0,0.5,0s0.3,0,0.5,0s0.3,0,0.4-0.1c0.3-0.1,0.6-0.2,0.8-0.3c0.2-0.1,0.4-0.2,0.5-0.3
		c0.1,0,0.2,0,0.3,0c0.1,0,0.1-0.1,0.2-0.1L35.6,13.3C35.6,13.1,35.6,13.1,35.6,13.3z M30.1,16.8c0.1-0.1,0.1-0.3,0.1-0.4
		s0-0.3,0.1-0.5s0.1-0.3,0.2-0.4s0.1-0.2,0-0.4c-0.2,0-0.3,0-0.5-0.1s-0.3-0.1-0.4-0.2c-0.1,0-0.2,0-0.3-0.1s-0.2-0.2-0.3-0.3
		c-0.1,0-0.1,0-0.2-0.1c-0.1,0-0.2-0.1-0.3-0.2c-0.1-0.1-0.2-0.2-0.3-0.3c-0.1-0.1-0.2-0.3-0.3-0.4c-0.1,0.1-0.1,0.2-0.1,0.3
		s-0.1,0.2-0.1,0.3s-0.1,0.1-0.1,0.2c-0.1,0.1-0.1,0.1-0.1,0.2c-0.1,0.2-0.2,0.3-0.3,0.5c-0.1,0.2-0.2,0.3-0.3,0.3
		c0,0.1,0,0.2-0.1,0.2s-0.1,0.1-0.1,0.1c-0.1,0.2-0.2,0.4-0.3,0.6s-0.2,0.3-0.3,0.5c-0.1,0.2-0.2,0.4-0.4,0.6
		c-0.1,0.2-0.2,0.4-0.3,0.6c0,0.1,0,0.3,0,0.4c-0.1,0.1-0.1,0.3-0.1,0.4c0,0.2,0,0.3-0.1,0.5c0,0.1,0,0.2,0,0.3c0,0.1,0,0.2,0,0.2
		v0.1v0.1c0,0,0,0.1,0.1,0.1s0,0.1,0.1,0.2v0.1c0,0.1,0.1,0.2,0.2,0.4c0.1,0.1,0.2,0.3,0.3,0.3c0.2,0.1,0.4,0.1,0.5,0.1
		s0.3-0.1,0.5-0.1s0.4-0.1,0.6-0.1s0.3-0.1,0.5-0.2c0.1-0.2,0.3-0.3,0.4-0.4c0.2-0.1,0.3-0.3,0.4-0.4l0,0l0,0c0,0,0,0,0.1,0l0.1-0.1
		l0.1-0.1c0.1-0.1,0.2-0.3,0.2-0.4s0.1-0.3,0.1-0.5c0.1-0.2,0.2-0.3,0.3-0.4c0.1-0.1,0.2-0.3,0.2-0.4c0.1-0.2,0.1-0.3,0.2-0.5
		C30,17.1,30.1,17,30.1,16.8z M29.4,12.3c-0.2,0-0.3,0.1-0.3,0.3s-0.1,0.3,0,0.4c0.1,0.2,0.2,0.3,0.4,0.5c0.1,0.1,0.3,0.3,0.5,0.3
		c0,0,0.1,0,0.1,0.1s0.1,0,0.1,0v-0.1c0-0.1-0.1-0.2-0.1-0.3S30,13.4,30,13.3c0-0.1-0.1-0.2-0.1-0.2c0-0.1,0-0.1-0.1-0.2l-0.2-0.2
		c0-0.1,0-0.2,0-0.3C29.6,12.3,29.5,12.3,29.4,12.3z M31.5,15.3C31.5,15.2,31.5,15.2,31.5,15.3C31.4,15.3,31.4,15.3,31.5,15.3
		c-0.1,0.3-0.2,0.6-0.2,0.8c-0.1,0.2-0.1,0.5-0.1,0.7L31.5,15.3z"/>
	<path class="st0" d="M39.2,22.6L39.2,22.6L39.2,22.6c-0.1,0.2-0.3,0.3-0.5,0.3c0,0.2-0.1,0.3-0.2,0.4h-0.1c0,0-0.1,0.1-0.1,0.2
		c-0.1,0-0.1,0.1-0.2,0.1s-0.1,0.1-0.2,0.2c0,0,0,0-0.1-0.1c-0.1,0-0.2,0-0.3,0.1c-0.1,0.1-0.1,0.1-0.2,0.1h-0.1c0,0,0,0,0,0.1h-0.1
		c-0.1,0.1-0.2,0.2-0.4,0.3c-0.2,0.1-0.4,0.1-0.5,0.1s-0.2,0-0.3,0s-0.2,0-0.3,0l0.1-0.1c-0.1,0-0.2-0.1-0.3-0.1
		c-0.1-0.1-0.2-0.1-0.3-0.1l0.1-0.1c0,0,0.1,0,0.1-0.1c0,0,0-0.1,0,0l0,0c0,0.1-0.1,0.1-0.1,0h-0.1c0,0,0,0,0-0.1H35
		c-0.1-0.2-0.1-0.3-0.1-0.3v-0.1c0,0,0,0,0-0.1c0,0-0.1,0-0.1-0.1c0,0-0.1-0.1-0.2-0.1c-0.1,0.1-0.1,0.2-0.2,0.4
		c0,0.2-0.1,0.3-0.1,0.5c0,0.1,0,0.1,0,0.2c0,0,0,0.1,0,0.2c0,0.6-0.1,1.1-0.3,1.6c-0.2,0.5-0.3,1-0.4,1.5c0,0.1-0.1,0.2-0.1,0.4
		c-0.1,0.1-0.1,0.3-0.1,0.5c-0.1,0-0.1,0.1-0.1,0.1s0,0.1-0.1,0.1v0.1c0,0-0.1,0-0.1,0.1c0,0,0,0-0.1,0c0,0.2-0.1,0.3-0.1,0.4
		s-0.1,0.2-0.1,0.3s-0.1,0.2-0.2,0.3c-0.1,0.1-0.1,0.2-0.2,0.4c0,0-0.1,0-0.1,0.1c0,0,0,0,0,0.1c-0.1,0.1-0.2,0.2-0.2,0.2
		c-0.1,0-0.1,0-0.2-0.1c0,0-0.1-0.1-0.2-0.1s-0.1,0-0.2,0l-0.1,0.1c0,0.1,0,0.1-0.1,0.2h-0.1c0-0.1-0.1-0.1-0.1,0H31v-0.1l-0.1,0.1
		c0,0,0,0.1-0.1,0.1l0,0l0,0c0,0,0,0,0,0.1s0,0.1-0.1,0.1c0,0-0.1-0.1-0.1-0.3c0-0.2,0-0.2-0.1-0.3v0.1c0,0,0,0.1,0,0.2v-0.1v-0.1
		c-0.1,0-0.1-0.1-0.1-0.2c0,0,0,0,0,0.1l0,0c0,0,0,0,0-0.1s0-0.1,0-0.1s0,0,0-0.1c0,0-0.1,0.1,0,0.1c0,0.1,0,0.1,0,0.2
		c0,0,0-0.1-0.1-0.1c0-0.3,0-0.4,0-0.5s0.1-0.2,0.1-0.5c0-0.1,0.1-0.2,0.1-0.2s0-0.1,0.1-0.1c0.1-0.7,0.3-1.4,0.4-2
		c0.1-0.7,0.3-1.3,0.5-2c0.1-0.4,0.2-0.7,0.3-1.1c0.1-0.4,0.2-0.7,0.3-1.1c0.1-0.5,0.2-1,0.4-1.5c0.1-0.5,0.2-1,0.4-1.5
		c0.2-0.7,0.3-1.4,0.5-2.2c0.2-0.7,0.3-1.5,0.5-2.2c0.1-0.5,0.2-0.9,0.2-1.4s0.1-0.9,0.1-1.4c0-0.2,0.1-0.4,0.1-0.6
		c0-0.2,0-0.4,0.1-0.6c0-0.1,0-0.1,0-0.2s0-0.1,0.1-0.1c0,0,0-0.1,0.1-0.1s0-0.1,0.1-0.2c0,0,0.1-0.1,0.1-0.2c0-0.1,0-0.1,0.1-0.2
		c0-0.1,0-0.2,0.1-0.3c0-0.1,0.1-0.1,0.1-0.2h0.1l0,0c0.1-0.2,0.3-0.4,0.6-0.4c0.3,0,0.5,0,0.8,0c0,0.1,0.1,0.1,0.2,0.1
		s0.1,0.1,0.1,0.1c0.2,0,0.3,0.1,0.4,0.2c0.1,0.1,0.2,0.2,0.3,0.4c0,0,0.1,0.1,0.1,0.2c0,0.1,0.1,0.2,0.1,0.3c0,0,0,0.1,0,0.2
		c0,0.2,0,0.4,0.1,0.6c0,0.2,0,0.4,0,0.6c-0.1,0.4-0.2,0.8-0.3,1.2c-0.1,0.4-0.2,0.8-0.3,1.1c0.1,0,0.1,0,0.1,0.1
		c0.1,0,0.2-0.1,0.2-0.2c0-0.1,0.1-0.2,0.1-0.2c0.1-0.2,0.3-0.3,0.4-0.4c0.1-0.1,0.2-0.2,0.3-0.4c0.3-0.2,0.6-0.5,0.8-0.8
		c0.3-0.3,0.6-0.5,1-0.6c0,0.1,0,0.1,0,0.2c0.3-0.1,0.6-0.1,1-0.1c0.3,0,0.6,0.1,0.9,0.2h0.1h0.1l0.1,0.1l0.1,0.1l0.1,0.1h0.1
		c0,0,0,0,0,0.1c0,0,0,0,0,0.1c0.1,0.1,0.1,0.1,0.1,0.1V13l0.1,0.1c0,0.1,0.1,0.2,0.1,0.3s0,0.2,0,0.3c0,0,0,0.1,0.1,0.1v0.1l0,0
		c0,0.1,0,0.3,0,0.5s0,0.4-0.1,0.6c0,0,0,0,0-0.1V15c0,0.1,0,0.1-0.1,0.1c0,0,0,0.1,0,0l0,0v0.1l0,0v0.1c0,0,0,0,0,0.1
		c0,0,0,0-0.1,0.1l0,0c0,0,0,0,0,0.1s0,0.1,0,0.1l0,0l0,0c0,0.3-0.1,0.7-0.2,1s-0.2,0.7-0.2,1c0,0,0.1,0,0.1-0.1s0-0.1,0.1-0.1v0.1
		c0,0,0,0,0,0.1c0.4-0.1,0.7-0.2,0.9-0.2c0.2-0.1,0.4-0.1,0.6-0.2c0.2-0.1,0.4-0.1,0.6-0.2s0.5-0.1,1-0.2c0.1,0,0.2-0.1,0.3-0.1
		c0.1,0,0.2,0,0.4,0h0.1c0,0,0.1,0,0.1,0.1c0,0,0,0,0.1,0.1v-0.2c-0.2,0.1-0.4,0.2-0.6,0.4s-0.3,0.3-0.5,0.5
		c-0.3,0.1-0.5,0.2-0.6,0.2s-0.3,0.1-0.6,0.2c-0.3,0-0.5,0.1-0.7,0.1c-0.2,0.1-0.4,0.1-0.7,0.1c-0.2,0-0.4,0.1-0.7,0.2
		c-0.1,0-0.1,0-0.1,0.1h-0.1c0,0,0,0.1-0.1,0.1l-0.1,0.1H42l0,0c0,0.1-0.1,0.2-0.1,0.2c0,0.1-0.1,0.1-0.1,0.2c0,0.2-0.1,0.3-0.2,0.4
		s-0.1,0.3-0.2,0.4l0,0l0,0v0.1l-0.1,0.1v0.1c-0.2,0.3-0.3,0.5-0.5,0.8s-0.4,0.5-0.5,0.8l0,0l0,0l0,0l0,0c0,0-0.1,0-0.1,0.1
		c0,0,0,0.1-0.1,0.1l0,0l0,0c0,0.1-0.1,0.1-0.1,0.1l-0.1,0.1h-0.1l0,0C39.3,22.5,39.3,22.6,39.2,22.6z M38.5,19.1
		c-0.3,0-0.5,0.1-0.8,0.2s-0.6,0.1-0.8,0.1c-0.2,0-0.4,0.1-0.5,0.1c-0.2,0-0.3,0.1-0.4,0.2s-0.2,0.1-0.2,0.3
		c-0.1,0.1-0.1,0.2-0.2,0.3c-0.1,0.1-0.1,0.3-0.2,0.4c0,0.2-0.1,0.3-0.2,0.4c0,0.1,0,0.2,0,0.3c0,0.1,0,0.2,0,0.3
		c0.1,0.1,0.2,0.2,0.4,0.2c0.2,0,0.4,0,0.6,0c0.5-0.3,1-0.6,1.3-1.2C37.9,20.2,38.2,19.7,38.5,19.1L38.5,19.1L38.5,19.1z M39.9,16.8
		c0-0.1,0.1-0.2,0.1-0.3s0.1-0.2,0.1-0.3c0.1-0.2,0.1-0.4,0.2-0.6c0-0.2,0.1-0.4,0.2-0.6c0.1-0.3,0.2-0.6,0.3-0.9s0.1-0.6,0-1
		c-0.1,0-0.1,0-0.2,0s-0.1,0-0.2,0h0.1h0.1L40.5,13c-0.1,0-0.1,0-0.1,0.1l0,0l0,0c-0.2,0-0.3,0-0.4,0.1c-0.1,0-0.2,0.1-0.4,0.1
		c0.1,0,0.1-0.1,0.2-0.1s0.2-0.1,0.3-0.1c0,0,0,0,0.1,0l0,0c-0.3,0.1-0.7,0.2-1,0.3s-0.6,0.3-0.9,0.5h-0.1c-0.4,0.3-0.7,0.6-1,1
		s-0.6,0.8-0.8,1.2c0,0.1,0,0.2-0.1,0.2s-0.1,0.1,0,0.3c0,0.1-0.1,0.2,0,0.4c0,0.1,0,0.2,0,0.3c0,0.2-0.1,0.4-0.1,0.6
		c-0.1,0.2-0.1,0.4-0.1,0.6c0.1,0,0.2,0,0.3,0c0.1-0.1,0.2-0.1,0.4,0c0.1,0,0.2,0,0.3,0c0.1,0.1,0.3,0.1,0.4,0.1h0.1c0,0,0,0,0.1,0
		h0.1h0.1c0,0,0,0,0.1,0s0.1,0,0.2,0c0.1,0.1,0.2,0.1,0.2,0.1c0.2,0,0.3-0.1,0.5-0.1s0.3-0.1,0.5-0.1c0.1-0.2,0.2-0.4,0.4-0.7
		C39.6,17.3,39.8,17.1,39.9,16.8z M38.9,22.7C38.9,22.8,38.9,22.8,38.9,22.7C39,22.8,39,22.7,38.9,22.7z M39.4,22.2
		C39.4,22.3,39.3,22.3,39.4,22.2c-0.1,0.1-0.1,0.1-0.1,0.2C39.4,22.4,39.4,22.3,39.4,22.2z"/>
	<path class="st0" d="M46.8,18.7c-0.1-0.1-0.2-0.1-0.3-0.1c0,0-0.1,0-0.1,0.1c0,0-0.1,0-0.2,0l0,0l0,0h-0.1c-0.1,0-0.1,0-0.1,0
		c-0.2,0-0.3,0.2-0.3,0.3c0,0.2-0.1,0.3-0.2,0.4c0,0.2-0.1,0.4-0.2,0.5s-0.1,0.3-0.2,0.5S45,20.7,45,20.7s0,0.1,0,0.3
		c0,0.1,0.1,0.2,0.2,0.2s0.2,0,0.3,0.1c0,0,0.1,0,0.2,0s0.1,0,0.2,0c0.2,0,0.4-0.1,0.6-0.2s0.4-0.1,0.6-0.2c0.5-0.1,0.9-0.3,1.2-0.5
		c0.3-0.2,0.7-0.3,1.2-0.5c0.1,0,0.2-0.1,0.4-0.2c0.2-0.1,0.4-0.2,0.6-0.4c0.2-0.1,0.4-0.3,0.6-0.4s0.3-0.2,0.3-0.3l0.8-0.6
		c0.2-0.1,0.3-0.2,0.5-0.3c0.1-0.1,0.3-0.3,0.5-0.4c0-0.1,0,0,0.1,0v0.1c0.1,0,0.2,0,0.3,0c0.1,0.1,0.1,0.1,0,0.1s-0.1-0.1,0-0.1
		v0.1c0,0,0,0,0,0.1c-0.1,0.1-0.1,0.1,0,0.1l0.1,0.1c-0.2,0.2-0.3,0.4-0.5,0.6s-0.3,0.4-0.5,0.6c-0.1,0.1-0.2,0.2-0.2,0.2
		c-0.1,0-0.1,0.1-0.2,0.1c-0.2,0.3-0.4,0.5-0.5,0.6c-0.2,0.1-0.4,0.3-0.6,0.5c-0.1,0.1-0.2,0.2-0.4,0.3s-0.4,0.3-0.6,0.4
		c-0.2,0.2-0.4,0.3-0.6,0.5c-0.2,0.1-0.3,0.2-0.4,0.3c-0.3,0.1-0.5,0.3-0.8,0.4s-0.5,0.2-0.8,0.3c-0.1,0-0.2,0-0.4,0.1
		s-0.3,0.1-0.4,0.2c-0.1,0-0.2,0-0.2,0h-0.1c0,0-0.1,0.1-0.2,0.1s-0.1,0-0.2,0c-0.2,0-0.4,0-0.5,0.1s-0.3,0.1-0.5,0
		c-0.1,0-0.2,0-0.3-0.1c-0.1-0.1-0.2-0.1-0.4,0v-0.1c0,0,0,0,0-0.1h-0.1h-0.1v-0.1c0,0,0,0,0-0.1c-0.2-0.2-0.4-0.3-0.5-0.6
		c-0.1-0.2-0.2-0.5-0.3-0.7c0-0.2,0-0.3,0-0.4s0-0.1,0-0.2s0-0.1,0-0.2s0-0.2,0-0.5c0-0.4,0.1-0.7,0.2-0.9c0.1-0.3,0.2-0.6,0.3-0.9
		c0.1-0.1,0.1-0.2,0.2-0.4c0-0.1,0.1-0.2,0.2-0.3c0.3-0.8,0.7-1.5,1.1-2.1s0.8-1.3,1.3-1.9c0.1-0.3,0.2-0.6,0.3-0.8
		c0.1-0.2,0.3-0.4,0.4-0.6c0.1-0.1,0.3-0.3,0.4-0.4c0.1-0.1,0.3-0.2,0.4-0.3v-0.1c0.1,0,0.2-0.1,0.3-0.1c0.1,0,0.2-0.1,0.2-0.2
		c0.1-0.1,0.3-0.1,0.4-0.1s0.3,0,0.4,0s0.2,0.1,0.4,0.1c0,0,0,0.1,0.1,0.1s0.1,0,0.1,0.1c0.1,0,0.2,0.1,0.2,0.2
		c0.1,0.1,0.2,0.2,0.3,0.3v0.1c0,0,0,0,0,0.1c0.1,0.1,0.2,0.3,0.3,0.5c0.1,0.2,0.2,0.3,0.3,0.4c0,0.1,0.1,0.3,0.1,0.4
		c0,0.1,0,0.3,0,0.4c0.1,0.2,0.1,0.4,0,0.5c0,0-0.1,0.1,0,0.2c0,0.1,0,0.1,0,0.2c0,0.2-0.1,0.4-0.1,0.5c0,0.2-0.1,0.3-0.1,0.4
		L51,15.6c-0.1,0.1-0.1,0.3-0.2,0.4c0,0.1-0.1,0.2-0.2,0.4s-0.3,0.4-0.5,0.5c-0.2,0.2-0.3,0.3-0.4,0.4c-0.1,0.1-0.1,0.2-0.2,0.2
		c0,0-0.1,0-0.2,0c-0.1,0.1-0.1,0.1-0.2,0.2c-0.1,0-0.1,0.1-0.2,0.1s-0.2,0-0.2,0.2c-0.1,0.1-0.1,0.2-0.2,0.2c0,0-0.1,0-0.1-0.1
		c-0.1,0-0.1,0.1-0.2,0.1c0,0-0.1,0.1-0.2,0.1c0,0,0,0-0.1,0s-0.2,0.1-0.3,0.2c-0.1,0.1-0.2,0.1-0.3,0.2l0,0L46.8,18.7z M49.2,13.6
		L49.2,13.6c-0.1,0.1-0.3,0.2-0.5,0.4c-0.2,0.1-0.3,0.3-0.4,0.4c0,0,0,0.1-0.1,0.1s-0.1,0.1-0.1,0.1c-0.2,0.3-0.4,0.5-0.5,0.8
		S47.3,15.9,47,16c0,0.1-0.1,0.3-0.2,0.4c-0.1,0.1-0.1,0.3-0.2,0.4c-0.2,0.5-0.3,0.8-0.4,0.9C46.1,17.8,46,17.9,46,18
		c0.3-0.3,0.6-0.6,0.9-0.9c0.2-0.1,0.4-0.3,0.5-0.4c0.2-0.2,0.3-0.3,0.5-0.6c0.1,0,0.2-0.1,0.3-0.2c0.1-0.1,0.2-0.2,0.3-0.3l0.1-0.1
		c0-0.1,0.1-0.1,0.1-0.2c0-0.1,0.1-0.2,0.2-0.2S49,15,49,15c0-0.1,0.1-0.2,0.1-0.3c0.1-0.1,0.1-0.2,0.2-0.3c0,0,0,0-0.1-0.1
		c0-0.1-0.1-0.2-0.1-0.3S49,13.8,49,13.7C49.3,13.7,49.2,13.6,49.2,13.6z"/>
	<path class="st0" d="M57.6,23.5c-0.1,0-0.2,0-0.3-0.1s-0.1-0.2-0.2-0.3c0-0.1-0.1-0.1-0.1-0.2s-0.1-0.1-0.1-0.2s-0.1-0.1-0.1-0.1
		l-0.1-0.1l-0.1-0.1l-0.1-0.1c-0.2-0.3-0.3-0.7-0.4-1C56,21.1,56,20.9,56,20.7s0-0.5,0-0.7c0-0.1,0-0.1,0-0.2s0-0.1,0.1-0.2l0.1-0.9
		c0-0.1,0-0.3,0-0.4s0-0.3,0.1-0.4c0-0.1,0.1-0.2,0.1-0.4c0-0.1,0.1-0.3,0.1-0.4c0-0.1,0-0.1,0.1-0.2c0,0,0-0.1,0.1-0.2l0.1-0.2
		v-0.1c0,0,0,0,0-0.1v-0.1c0,0,0-0.1,0.1-0.1c0,0,0-0.1,0-0.2c0-0.1,0.1-0.2,0.1-0.2c0-0.1,0-0.2,0.1-0.2c0-0.1,0.1-0.2,0.1-0.3
		s0.1-0.2,0.1-0.3c0.1-0.1,0.1-0.3,0.2-0.4c0.1-0.1,0.1-0.3,0.2-0.4c0.1-0.1,0.1-0.2,0.1-0.3c-0.5,0.1-0.9,0.3-1.3,0.5
		c-0.4,0.2-0.9,0.3-1.3,0.5c0,0.1-0.1,0.2-0.2,0.3c0,0-0.1,0.1-0.1,0.2c0,0.1-0.1,0.1-0.1,0.2c0,0,0,0.1,0,0.2c0,0.1,0,0.1-0.1,0.1
		v0.1c0,0,0,0,0,0.1c-0.1,0.1-0.1,0.1-0.1,0.1s0,0.1,0,0.2l-0.1,0.1l-0.1,0.1l-0.1,0.1v0.1c-0.1,0.2-0.3,0.5-0.4,0.8
		c0-0.1,0.1-0.1,0.1-0.2c-0.1,0.1-0.1,0.2-0.2,0.2v0.1h-0.1c0,0,0,0.1-0.1,0.1c0,0,0,0,0,0.1c0,0.1,0,0.1,0,0.1
		c0,0.2-0.1,0.3-0.2,0.4l-0.1,0.1c0,0.1-0.1,0.2-0.1,0.2c0,0.1-0.1,0.2-0.2,0.2c-0.1,0.1-0.1,0.1-0.2,0.2c-0.1,0-0.1,0.1-0.2,0.1
		s-0.1,0.1-0.2,0.1c-0.1,0.1-0.2,0.2-0.4,0.2c0,0.1-0.1,0.1-0.1,0.1c-0.1,0-0.2,0-0.3-0.1s-0.1-0.3-0.1-0.4h-0.1l0,0
		c-0.1,0.1-0.1,0.1-0.1,0l0,0c0,0,0-0.1,0.1-0.1c0,0,0.1,0,0.1-0.1v0c0-0.1,0.1-0.2,0.1-0.2s0.1-0.2,0.1-0.3c0-0.1,0.1-0.1,0.1-0.2
		s0.1-0.1,0.1-0.2v-0.1v0c0,0,0-0.1,0.1-0.1s0,0,0.1-0.1c0-0.1,0.1-0.1,0.1-0.2c0-0.1,0.1-0.1,0.1-0.2c0,0,0.1-0.1,0.1-0.2
		c0.1-0.1,0.1-0.2,0.2-0.4c0.1-0.1,0.1-0.3,0.2-0.4c0.1-0.2,0.2-0.4,0.3-0.5c0.1-0.2,0.2-0.4,0.3-0.5c0.1-0.1,0.1-0.2,0.2-0.4
		c-0.5-0.1-0.9-0.2-1.2-0.4c0,0-0.1,0-0.1-0.1l-0.1-0.1c0,0,0-0.1-0.1-0.1L52,14c0-0.1-0.1-0.2-0.1-0.3c0-0.2,0-0.3,0-0.4v-0.1l0,0
		v-0.1V13c0-0.1,0-0.1,0-0.2c0-0.1,0-0.1,0.1-0.2c0-0.1,0.1-0.1,0.1-0.2c0,0,0-0.1,0.1-0.2c0.2-0.4,0.3-0.7,0.6-0.9
		c0.1-0.1,0.1-0.2,0.3-0.2c0.1-0.1,0.2-0.1,0.3-0.1c0,0,0.1,0,0.2,0s0.1,0,0.2,0c0.2,0,0.3-0.1,0.5-0.1s0.3,0,0.5-0.1c0,0,0,0,0-0.1
		c0,0,0,0,0.1-0.1l0,0H55c0.1,0.1,0.1,0.1,0.2,0.2s0.2,0.1,0.3,0.2c0.1,0.1,0.1,0.2,0.2,0.3s0.1,0.2,0,0.4l0.1,0.1
		c0,0.1,0,0.2-0.1,0.2v0.1v0.1c0,0.1-0.1,0.1-0.1,0.2c0,0.1,0,0.1-0.1,0.2v0.2c0,0.1-0.1,0.2-0.1,0.3s0,0.2-0.1,0.3
		c0.1,0,0.2,0,0.3-0.1s0.2-0.1,0.3-0.1c0.4-0.2,0.9-0.4,1.3-0.6c0.4-0.2,0.9-0.4,1.3-0.6c0.1,0,0.2-0.1,0.3-0.1s0.2-0.1,0.3-0.1
		s0.2-0.1,0.3-0.1s0.2,0,0.3,0c0.1,0.1,0.2,0.1,0.2,0.2c0.2,0.2,0.4,0.3,0.5,0.5l0,0l0,0h0.1c0.1,0.1,0.2,0.3,0.2,0.5s0,0.4-0.1,0.6
		v0.1c0,0,0,0,0,0.1v0.1v0.1c0,0.2-0.1,0.3-0.1,0.3s0,0.1-0.1,0.1c0,0,0,0.1-0.1,0.1c0,0.1-0.1,0.1-0.1,0.2c0,0,0,0.1-0.1,0.1
		L60,14.8l0,0l0,0c0,0.1,0,0.2-0.1,0.2c0,0.1-0.1,0.1-0.1,0.2v0.1c0,0,0,0,0,0.1c0,0,0,0.1-0.1,0.1c-0.1,0.2-0.2,0.4-0.3,0.6
		c-0.1,0.2-0.2,0.4-0.3,0.6L59,16.8v0.1V17c0,0.1,0,0.1-0.1,0.2v0.1v0.1v0.1v0.1c0,0,0,0.1-0.1,0.1v0.1l0,0c0,0,0,0,0,0.1V18
		c0,0.2-0.1,0.3-0.1,0.5c0,0.1-0.1,0.3-0.1,0.5v0.2c0,0,0,0,0,0.1v0.1c0,0,0,0,0,0.1l0,0l0,0v0.1c0,0,0,0,0,0.1c0,0.2,0,0.3,0,0.4
		s0,0.2-0.1,0.4v0.1v0.1c0,0,0,0.1-0.1,0.1l0,0c0,0,0,0,0,0.1c0,0,0,0.1,0,0.2s0,0.1,0.1,0.1s0.1,0,0.2-0.1c0.1,0,0.1-0.1,0.2-0.1
		c0.2-0.1,0.4-0.3,0.6-0.4c0.2-0.2,0.4-0.3,0.6-0.4h0.1c0,0,0,0,0.1,0c0,0,0.1,0,0.1-0.1c0,0,0,0,0.1-0.1c0.3-0.2,0.6-0.4,0.8-0.7
		c0.3-0.2,0.5-0.5,0.8-0.7c0.1-0.1,0.2-0.2,0.4-0.4c0.1-0.1,0.3-0.2,0.4-0.4c0.1,0,0.1-0.1,0.2-0.2c0.1-0.1,0.1-0.1,0.2-0.1h0.1h0.1
		c0,0,0.1,0,0.1,0.1s-0.1,0.2-0.1,0.2v0.1c0,0,0,0,0,0.1c0,0,0,0,0.1,0.1c-0.1,0.1-0.1,0.1-0.1,0.2v0.1l0,0c0,0,0,0,0,0.1
		s0,0.1,0,0.2l0,0c0,0,0,0,0,0.1l-0.1,0.1c0,0-0.1,0.1-0.1,0.2s-0.1,0.1-0.1,0.2c-0.1,0-0.1,0.1-0.2,0.2c-0.1,0-0.1,0.1-0.2,0.2
		c0,0,0,0,0,0.1c0,0,0,0,0,0.1s-0.1,0.1-0.2,0.2c-0.1,0.1-0.2,0.1-0.2,0.2c-0.2,0.3-0.5,0.5-0.7,0.7c-0.3,0.2-0.5,0.4-0.7,0.7
		c0,0.1-0.1,0.2-0.2,0.3s-0.2,0.2-0.2,0.3c-0.1,0.1-0.3,0.2-0.3,0.3c-0.1,0.1-0.2,0.2-0.3,0.3L59.9,23c-0.1,0-0.1,0-0.1,0.1
		c-0.1,0.1-0.2,0.1-0.2,0.2c-0.1,0.1-0.2,0.1-0.3,0.1s-0.2,0.1-0.2,0.1c-0.1,0-0.2,0.1-0.3,0.1l0,0l0,0c0,0-0.1,0-0.1,0.1h-1.1V23.5
		z M54,12.1c-0.1,0.2-0.2,0.3-0.2,0.4c0,0.1-0.1,0.1-0.1,0.2c0,0.1-0.1,0.1-0.1,0.2c0,0,0,0-0.1,0.1l0,0l0,0
		c-0.1,0.1-0.1,0.2-0.1,0.2s0,0.1,0.1,0.1c0.1,0.1,0.2,0.1,0.4,0.1c0.3,0,0.5,0,0.8-0.1c0-0.2,0.1-0.3,0.1-0.5s0-0.4,0.1-0.5
		l0.1-0.1c0-0.1,0-0.2-0.1-0.2c-0.1-0.1-0.2-0.1-0.3-0.2c-0.1,0-0.1,0.1-0.2,0.2C54.1,12,54.1,12.1,54,12.1z M56.5,21.6L56.5,21.6
		C56.5,21.5,56.5,21.5,56.5,21.6C56.5,21.5,56.5,21.5,56.5,21.6L56.5,21.6z"/>
	<path class="st0" d="M67.8,3.5L67.8,3.5c0.2,0,0.3,0.1,0.3,0.2l0.1,0.1h0.1c0.1,0,0.1,0.1,0.1,0.1c0,0.1,0,0.1,0.1,0.2
		s0.1,0.1,0.1,0.1l0.1,0.1v0.1c0,0,0,0,0,0.1s0.1,0.1,0.1,0.2v0.1c0,0,0,0,0,0.1c0,0.2-0.1,0.5,0,0.7c0,0.3,0,0.5,0,0.7
		c0,0,0,0,0,0.1c0,0,0,0,0,0.1v0.1c0,0.1,0,0.1,0,0.1c0,0.1,0,0.2,0,0.3c0,0.3-0.1,0.5-0.1,0.8c-0.1,0.2-0.1,0.5-0.2,0.7
		c-0.1,0.2-0.1,0.3-0.2,0.5c-0.1,0.2-0.1,0.3-0.2,0.5C68,9.7,68,9.8,68,10s-0.1,0.3-0.2,0.5l0,0l0,0c0,0-0.1,0.1-0.1,0.2
		c0.4,0,0.9,0,1.3,0s0.9,0,1.3,0l0,0l0,0h0.1h0.1l0,0l0,0h0.1h0.1v0.1h0.1l0,0c-0.1,0-0.2,0.1-0.2,0.1h-0.1c-0.1,0-0.2,0-0.3,0
		s-0.2,0-0.4,0v-0.1h-0.1h-0.1c0,0.1-0.1,0.1-0.2,0.1c-0.1,0-0.2,0-0.2,0.1h0.1l0,0l0,0h0.1c0,0,0,0,0.1,0h0.1c0,0,0,0,0.1,0
		c0,0,0,0,0.1,0s0.2,0,0.4,0c0.1,0,0.3,0,0.4,0c-0.1,0-0.2,0.1-0.3,0.1s-0.2,0-0.3,0c0,0-0.1,0-0.2,0c0,0-0.1,0-0.1,0.1
		c0,0,0,0-0.1,0c0,0.1,0,0.1,0,0.1l0,0l0,0v0.1c-0.1,0-0.2,0-0.2-0.1c0,0.1-0.1,0.1-0.2,0.1s-0.2,0-0.3,0l0,0l0,0l0,0l0,0h-0.2l0,0
		l0,0c-0.1,0-0.2,0.1-0.3,0.1s-0.2,0-0.2,0.1c0,0,0.1,0,0.2,0h0.1c0,0,0,0,0.1,0l0,0l0,0c-0.1,0-0.1,0-0.1,0.1h-0.1l0,0l0,0
		c-0.1,0-0.2,0-0.2,0.1c-0.1,0-0.2,0-0.3,0c-0.1,0.3-0.2,0.7-0.3,1s-0.2,0.6-0.3,0.9c0,0.1,0,0.1,0,0.2c0,0,0,0.1,0,0.2
		s0,0.2-0.1,0.3v0.4v0.1V15v0.1c0,0,0,0,0,0.1v0.1c0,0.1,0,0.3-0.1,0.3c-0.1,0.1-0.1,0.2-0.2,0.3l-0.1,0.4l-0.1,0.2
		c0,0,0,0.1-0.1,0.1c0,0,0,0,0,0.1s-0.1,0.2-0.1,0.3s0,0.2-0.1,0.3c0,0,0,0.1-0.1,0.2c0,0.1-0.1,0.2-0.1,0.3c0,0.1-0.1,0.2-0.1,0.3
		c0,0.2-0.1,0.4-0.1,0.6c-0.1,0.2-0.1,0.4-0.2,0.6c0,0.1-0.1,0.1-0.1,0.1v0.1c0,0.1,0,0.3-0.1,0.4s-0.1,0.2-0.1,0.4
		c-0.1,0.1-0.1,0.2-0.1,0.2c0,0.1,0,0.2-0.1,0.3c0,0.1,0,0.1-0.1,0.2c0,0-0.1,0.1-0.1,0.2v0.1L65,21.4c0,0.1,0,0.1,0,0.2
		c-0.1,0.1-0.1,0.1,0,0.2l-0.1,0.1V22c0,0.1,0,0.1,0,0.2c0,0.2,0,0.3,0,0.3l0,0l0,0c0,0,0,0.1,0.1,0.1s0.2,0,0.3-0.1
		s0.1-0.2,0.2-0.2l-0.6-0.5c0,0,0.1,0,0.1-0.1c0,0,0.1,0,0.1-0.1c0.2-0.1,0.3-0.2,0.5-0.3c0.1-0.1,0.3-0.2,0.4-0.3
		c0.3-0.2,0.6-0.4,0.8-0.6s0.5-0.4,0.8-0.6c0.1-0.1,0.3-0.2,0.4-0.3c0.1-0.1,0.3-0.2,0.4-0.3c0.1-0.1,0.3-0.2,0.4-0.3
		c0.1-0.1,0.2-0.2,0.4-0.3c0.1-0.1,0.2-0.2,0.4-0.3c0.1-0.1,0.2-0.2,0.4-0.3c0.1-0.1,0.2-0.2,0.4-0.3c0.1-0.1,0.3-0.2,0.4-0.3
		c0,0.1,0,0.2,0.2,0.2c0,0.1-0.1,0.1-0.1,0.2c0,0.1,0,0.2,0,0.3H71c0,0,0.1,0,0.2,0l0,0l0,0l0,0l0,0l0,0l0,0
		c-0.1,0.1-0.1,0.2-0.2,0.3c-0.1,0.1-0.2,0.1-0.3,0.2c-0.2,0.2-0.3,0.4-0.5,0.5c-0.2,0.2-0.3,0.3-0.5,0.5c-0.1,0.1-0.1,0.2-0.2,0.3
		s-0.2,0.2-0.3,0.3c-0.1,0.1-0.1,0.1-0.2,0.2c-0.1,0.1-0.1,0.1-0.2,0.2l-0.1,0.1l0,0l0,0c0,0,0,0-0.1,0c0,0,0,0-0.1,0.1
		c-0.3,0.3-0.7,0.6-1.1,0.8c-0.4,0.3-0.7,0.5-1,0.8c0,0,0,0.1-0.1,0.2s-0.1,0.1-0.2,0.1c0,0.1-0.1,0.1-0.1,0.2
		C65.9,23,65.8,23,65.7,23v0.1l0,0l0,0l0,0h-0.1l-0.1,0.1l0,0c0,0,0,0,0,0.1l0,0h-0.1c-0.2,0.1-0.3,0.2-0.5,0.2
		c-0.1,0.1-0.3,0.1-0.4,0.2c-0.1,0.1-0.1,0.1-0.1,0.1h-0.1c-0.1,0-0.2,0-0.2,0.1c-0.1,0-0.1,0-0.2,0.1h0l-0.1,0.1h-0.1
		c-0.1,0-0.1,0-0.3,0.1l0,0c-0.1,0-0.1,0-0.1-0.1c0,0,0-0.1-0.1-0.1c0-0.1-0.1-0.1-0.1-0.1c-0.1,0-0.1-0.1-0.1-0.2
		c-0.1,0.1-0.1,0.1-0.2,0l0,0l0,0c0,0-0.1,0-0.1-0.1l-0.1-0.1v-0.1v-0.1v-0.2L62.5,23v-0.1c0-0.3,0-0.5-0.1-0.6c0,0,0,0-0.1-0.1
		c0,0,0-0.1-0.1-0.2c0-0.2-0.1-0.3-0.1-0.6c0-0.2,0-0.4,0-0.6s0-0.4,0-0.6s0-0.4,0-0.6s0-0.3,0-0.4s0-0.1,0.1-0.3
		c0.1-0.5,0.2-1.1,0.2-1.9v-0.3c0-0.1,0.1-0.2,0.1-0.2c0-0.1,0.1-0.3,0.1-0.4c0-0.1,0-0.3,0.1-0.4c0-0.1,0-0.2,0-0.3
		s0.1-0.2,0.1-0.3c0-0.2,0.1-0.4,0.1-0.7c0-0.2,0.1-0.5,0.1-0.7c0-0.1,0.1-0.2,0.1-0.3s0-0.2,0-0.3c0,0,0-0.1,0.1-0.1
		c0,0,0-0.1,0.1-0.1c0-0.1,0-0.1,0-0.1c0-0.1,0-0.2,0-0.2c0.1-0.2,0.1-0.3,0.2-0.5s0.1-0.3,0.1-0.5h-0.1l0,0h-0.1
		c-0.1,0-0.1,0-0.2,0h-0.1c0,0,0,0-0.1,0h-0.1h-0.1c-0.1,0-0.1,0-0.1,0s0,0.1,0.1,0.1c-0.1,0.1-0.2,0.1-0.3,0.1l0,0l0,0v-0.1
		c0,0,0,0.1-0.1,0.1h-0.1h-0.1l0,0h-0.1c0,0,0,0-0.1,0v0.1c0,0,0,0,0-0.1c0,0-0.1,0-0.1,0.1s0,0.1-0.1,0.1l0,0l0,0h-0.1h-0.1
		c0,0,0,0-0.1,0c0,0,0,0-0.1,0l0,0l0,0c0.2,0,0.3-0.1,0.3-0.2c0,0-0.1,0-0.1,0.1l0,0l0,0c0,0-0.1,0-0.2,0c-0.1,0-0.1,0-0.1,0.1
		c0,0,0,0,0-0.1h-0.1c0,0,0,0-0.1,0c0,0-0.1,0-0.1,0.1c0,0-0.1,0,0-0.1v-0.1l0,0l0,0l0,0l-0.1,0.1c0,0,0-0.1,0.1-0.1s0.1,0,0.1-0.1
		c0,0-0.1,0.1-0.1,0h0.1c0,0-0.1,0-0.1-0.1c0.1-0.1,0.2-0.2,0.3-0.3s0.3-0.2,0.4-0.2h0.1c0,0,0,0,0.1,0V11c0.1,0,0.1,0,0.1,0
		s0.1,0,0.1-0.1c0,0,0.1,0,0.1-0.1c0.1,0,0.1,0,0.1-0.1h0.1c0,0,0.1,0,0.1-0.1c0.2,0,0.4-0.1,0.6-0.2c0.2-0.1,0.4-0.1,0.6-0.1
		c0.1-0.3,0.2-0.6,0.3-0.9c0.1-0.3,0.2-0.6,0.3-0.9c0.1-0.3,0.2-0.6,0.3-0.9c0.1-0.3,0.2-0.6,0.3-0.9c0.2-0.4,0.3-0.8,0.5-1.3
		s0.4-0.8,0.7-1.1c0.1-0.1,0.1-0.2,0.3-0.3c0.1-0.1,0.2-0.2,0.3-0.3h0.1c0,0,0,0,0.1,0s0.2-0.1,0.3-0.1C67.6,3.6,67.7,3.5,67.8,3.5z
		 M62.3,11.7L62.3,11.7L62.3,11.7z M64,23.7L64,23.7L64,23.7C63.9,23.7,63.9,23.7,64,23.7z M64.2,22.5L64.2,22.5
		c0.1,0,0.1,0,0.2-0.1C64.2,22.4,64.2,22.4,64.2,22.5z"/>
	<path class="st0" d="M71.5,10.6L71.5,10.6c0.1,0,0.3,0.1,0.4,0.2c0.1,0.1,0.3,0.1,0.4,0.2c0,0,0.1,0,0.2,0c0.1,0,0.1,0,0.1,0
		s0,0.1,0,0.2c0,0,0,0.1,0.1,0.2l0,0c0,0,0,0,0.1,0s0.1,0,0.1,0c0.1,0,0.1,0,0.2,0c0,0.1,0.1,0.3,0.1,0.4s0.1,0.3,0.1,0.4
		c0,0,0,0.1,0,0.2c0,0.1,0,0.1,0,0.1l0,0l0,0c0,0.2-0.1,0.3-0.1,0.4c-0.1,0.1-0.1,0.2-0.1,0.4L73,13.4v0.1l0,0v0.3
		c0,0.1,0,0.2,0,0.3s0,0.2-0.1,0.2c0,0,0,0.1-0.1,0.1c0,0,0,0.1-0.1,0.1l-0.1,0.1c0,0.1,0,0.1,0,0.2l-0.1,0.1c0,0.1,0,0.1,0,0.2
		c0,0.1,0,0.1,0,0.2l0,0l-0.1,0.1c0,0,0,0.1-0.1,0.1c0,0.1-0.1,0.2-0.1,0.2c0,0.1-0.1,0.2-0.1,0.2L72,16.3c0,0.1-0.1,0.1-0.1,0.2
		s0,0.1,0,0.2v0.1v0.1c0,0.1,0,0.1,0,0.1l0,0l0,0v0.1v0.1l0,0l0,0v0.6V18l0,0l0,0c0,0.1,0,0.1,0,0.3c0,0.1,0,0.2,0,0.3
		c0,0.1,0,0.2-0.1,0.3c0,0,0,0,0,0.1c0,0,0,0,0,0.1s0,0.1,0,0.2s0,0.1,0,0.2c0,0.2,0,0.4,0,0.6s0,0.4,0,0.5l0,0l0,0
		c0.1,0,0.1,0.1,0.1,0.2s0,0.2,0,0.2H72c0,0,0,0,0.1,0v0.1c0,0,0,0.1,0.1,0.1c0,0,0,0,0.1,0c0,0,0,0,0.1-0.1c0.1,0,0.1-0.1,0.2-0.2
		s0.1-0.2,0.1-0.2c0.1-0.1,0.1-0.2,0.2-0.2c0-0.1,0.1-0.1,0.1-0.2v-0.1c0,0,0,0,0-0.1l0.1-0.3c0.1-0.1,0.1-0.2,0.2-0.4
		c0.1-0.1,0.1-0.2,0.2-0.3c0.1-0.3,0.3-0.6,0.5-0.9s0.3-0.6,0.5-0.9c0.1-0.1,0.1-0.2,0.2-0.3c0,0,0-0.1,0.1-0.1c0,0,0-0.1,0.1-0.2
		c0-0.1,0.1-0.2,0.2-0.2c0.2-0.3,0.4-0.7,0.5-1c0.1-0.1,0.1-0.1,0.1-0.2c0.1-0.2,0.2-0.4,0.3-0.6c0.1-0.2,0.2-0.4,0.3-0.6
		c0-0.1,0.1-0.2,0.1-0.2s0.1-0.2,0.1-0.3c0,0,0-0.1,0-0.2s0-0.1,0-0.2c0-0.1,0.1-0.2,0.2-0.4l0.1-0.1c0,0,0-0.1,0-0.2
		c0.1-0.3,0.2-0.5,0.4-0.8l0.1-0.1v-0.1c0,0,0,0,0-0.1c0,0,0.1-0.1,0.2-0.1c0,0,0,0,0,0.1s0,0,0,0.1c0.1-0.1,0.2-0.1,0.3-0.3
		l0.1-0.1H78c0.1,0,0.1,0,0.2,0h0.1h0.1h0.1c0,0,0,0,0.1,0c0,0,0.1,0.1,0.2,0.1v0.1c0,0,0.1,0,0.1,0.1s0,0.1,0,0.1v0.1
		c0,0.2,0,0.4,0,0.5c0,0,0,0.1-0.1,0.1c0,0,0,0.1,0,0.2l0,0l0,0v0.1v0.1v0.1c0,0,0,0,0,0.1l-0.1,0.1c-0.1,0.2-0.2,0.3-0.2,0.5
		s-0.1,0.4-0.1,0.6c0,0.1-0.1,0.2-0.1,0.2v0.1v0.1l-0.1,0.3c-0.1,0.3-0.2,0.6-0.3,0.9c-0.1,0.3-0.2,0.6-0.3,0.9v0.3l0,0l0,0v0.1
		c0,0,0,0,0,0.1s-0.1,0.3-0.1,0.4c0,0.1-0.1,0.3-0.1,0.4c0,0.2-0.1,0.3-0.1,0.4c0,0.3,0,0.5,0,0.8c0,0.2,0,0.5,0,0.7v0.1v0.1
		L77.2,20c0,0.1-0.1,0.2-0.1,0.3c0,0.1-0.1,0.3-0.1,0.4c0,0,0,0,0.1,0s0.1,0,0.1,0s0.1,0,0.1-0.1l0.1-0.1c0,0,0-0.1,0.1-0.1
		c0,0,0,0,0.1,0l0,0c0.1,0,0.1-0.1,0.2-0.1c0.2-0.1,0.3-0.2,0.5-0.3s0.3-0.2,0.5-0.3c0.2-0.1,0.3-0.2,0.5-0.3
		c0.2-0.1,0.3-0.2,0.5-0.3c0.2-0.1,0.4-0.2,0.5-0.3c0.2-0.1,0.4-0.2,0.6-0.3c0.1,0,0.2-0.1,0.3-0.1s0.2-0.1,0.3-0.1s0.2-0.1,0.3-0.1
		s0.2-0.1,0.3-0.1l0,0c0,0,0,0,0,0.1c0,0,0,0,0.1,0h0.1c0.1,0,0.1,0,0.2,0h0.1l0,0c-0.1,0.1-0.2,0.1-0.3,0.2c0,0-0.1,0.1-0.2,0.1
		c-0.1,0-0.1,0-0.2,0.1c-0.1,0.1-0.2,0.2-0.3,0.2c-0.1,0.1-0.2,0.1-0.3,0.2l0,0l0,0c-0.1,0-0.2,0.1-0.3,0.1s-0.2,0.1-0.3,0.1
		c0.2,0,0.3-0.1,0.5-0.2s0.3-0.1,0.6,0c-0.1,0.1-0.2,0.1-0.3,0.2s-0.2,0.1-0.3,0.2c0,0-0.1,0-0.1,0.1H81l0,0l0,0
		c-0.2,0.2-0.4,0.3-0.6,0.4c-0.2,0.1-0.4,0.3-0.6,0.4c0,0-0.1,0-0.1,0.1s-0.1,0-0.1,0.1s0,0.1,0.1,0.1c-0.1,0.1-0.2,0.1-0.3,0.2
		c-0.1,0-0.2,0.1-0.2,0.2l0,0l0,0c-0.1,0.1-0.2,0.1-0.3,0.2c-0.1,0-0.2,0.1-0.3,0.2l-0.1,0.1c0,0-0.1,0.1-0.2,0.1
		c-0.4,0.3-0.8,0.6-1.1,1c-0.1,0.1-0.2,0.2-0.3,0.3c-0.1,0.1-0.2,0.2-0.3,0.3c-0.1,0.1-0.2,0.2-0.3,0.3c-0.1,0.1-0.2,0.2-0.3,0.3
		c0,0.2-0.1,0.3-0.2,0.5c0,0.1-0.1,0.1-0.1,0.2s-0.1,0.1-0.1,0.2s0,0.2,0,0.3s0,0.2,0,0.3c0,0.1,0,0.2,0,0.3c0,0.1,0,0.2-0.1,0.2
		c0,0.1-0.1,0.3-0.1,0.5c0,0.1-0.1,0.2-0.1,0.3c0,0.1,0,0.2,0,0.3c0,0.1,0,0.2,0,0.2c0,0.1,0,0.2,0,0.3c0,0.1-0.1,0.2-0.1,0.3v0.1
		v0.1c0,0.1,0,0.2,0,0.3c0,0.1,0,0.3-0.1,0.5c0,0.1,0,0.2,0,0.2s0,0.1,0,0.2c0,0.2,0,0.3,0,0.5s0,0.3,0,0.5c0,0.1,0,0.2,0,0.3
		c0,0,0,0.1-0.1,0.2v0.1v0.1c0,0.1,0,0.2,0,0.3c0,0.1,0,0.2-0.1,0.2l0,0c0,0,0,0-0.1,0.1c0,0,0,0.1-0.1,0.1c-0.1,0.1-0.1,0.1-0.2,0
		v0.1v0.1c0,0-0.1,0-0.2,0s-0.1,0-0.1,0c-0.1,0.1-0.2,0.1-0.3,0.1s-0.3-0.1-0.4-0.1c0,0-0.1-0.1-0.1-0.2h-0.1h-0.1l0,0l0,0H73v-0.1
		c-0.2,0-0.3-0.1-0.5-0.1c-0.2-0.1-0.3-0.1-0.4-0.2L72,31h-0.1h-0.1c-0.1-0.1-0.2-0.1-0.3-0.2s-0.1-0.1-0.2-0.2
		c-0.1-0.1-0.2-0.2-0.3-0.3c-0.1-0.1-0.2-0.2-0.3-0.3c-0.2-0.2-0.4-0.4-0.5-0.7c-0.1-0.1-0.1-0.2-0.2-0.3c-0.1-0.1-0.1-0.2-0.2-0.2
		l-0.1-0.2c-0.1-0.1-0.1-0.3-0.1-0.5s0-0.3,0-0.5v-0.1c0,0,0-0.1,0.1-0.1c0.1-0.1,0.2-0.3,0.2-0.4v-0.1v-0.1c0,0,0,0,0-0.1
		c0,0,0,0,0-0.1c0.1-0.2,0.2-0.3,0.4-0.5c0.1-0.2,0.2-0.3,0.4-0.4c0.2-0.2,0.3-0.3,0.5-0.5c0.2-0.1,0.3-0.3,0.5-0.5l0.5-0.5
		c0.1-0.1,0.2-0.2,0.2-0.3c0.1-0.1,0.1-0.2,0.2-0.3c0.2-0.2,0.3-0.3,0.5-0.5c0.2-0.1,0.3-0.3,0.5-0.4c0-0.1,0-0.2,0-0.3
		c0-0.1,0.1-0.2,0.1-0.3l0,0h0.1c0-0.1,0.1-0.1,0.1-0.1c0.2-0.5,0.4-1.1,0.5-1.8c0.1-0.4,0.1-0.8,0.2-1.1c0-0.4,0.1-0.7,0.2-1.1
		c-0.2,0.3-0.3,0.6-0.5,0.9s-0.3,0.6-0.5,0.9c0,0.1-0.1,0.2-0.1,0.3l-0.1,0.1l-0.1,0.1v0.1c0,0,0,0.1-0.1,0.1v0.1v0.1l0,0l0,0
		c-0.2,0.2-0.3,0.4-0.5,0.7c-0.1,0.2-0.3,0.4-0.5,0.7c0,0.1-0.1,0.1-0.1,0.2c-0.1,0.1-0.2,0.2-0.3,0.2c-0.1,0.1-0.2,0.2-0.3,0.3
		c-0.1,0-0.2,0.1-0.4,0.1c-0.1,0-0.3,0-0.5,0c-0.2-0.1-0.4-0.3-0.5-0.4s-0.1-0.1-0.1-0.2s-0.1-0.1-0.1-0.2L70,22l-0.1-0.1
		c-0.1-0.1-0.1-0.1-0.2-0.2c-0.2-0.3-0.3-0.7-0.3-1.1c0-0.5-0.1-0.9-0.1-1.4v-0.5c0-0.1,0-0.2,0-0.3c0-0.1,0-0.2,0-0.3
		c0-0.4,0.1-0.8,0.1-1.2s0.1-0.8,0.1-1.1c0-0.1,0-0.1,0.1-0.3c0-0.2,0.1-0.4,0.2-0.6c0.1-0.2,0.1-0.4,0.1-0.6
		c0.1-0.6,0.2-1.1,0.4-1.7c0.1-0.6,0.3-1.1,0.4-1.6v-0.1c0,0,0-0.1,0.1-0.1l0.2-0.3l0.1-0.1c0,0,0,0,0-0.1l0,0c0,0,0.1-0.1,0.2-0.1
		C71.4,10.7,71.5,10.7,71.5,10.6z M73.6,25.1c-0.1,0-0.1,0-0.1,0.1l0,0l0,0c-0.2,0.1-0.3,0.2-0.5,0.3c-0.2,0.1-0.3,0.2-0.5,0.3l0,0
		c-0.1,0.1-0.3,0.2-0.4,0.3c-0.1,0.1-0.3,0.2-0.4,0.3c0,0-0.1,0-0.1,0.1l0,0l0,0l-0.1,0.1l-0.1,0.1l-0.1,0.1l-0.1,0.1
		C71.1,27,71,27,71,27.1c-0.1,0.1-0.1,0.1-0.2,0.2c-0.1,0.1-0.1,0.2-0.1,0.2v0.1v0.1v0.1h-0.1c0,0.1,0,0.1,0,0.2l0,0
		c0,0.1,0,0.2,0,0.2c0,0.1,0,0.1,0.1,0.1s0.1,0.1,0.1,0.1s0,0,0,0.1c0,0,0,0,0,0.1s0,0,0.1,0.1s0.1,0.1,0.1,0.2l0.1,0.1
		c0,0,0,0.1,0.1,0.2l0,0l0,0l0.1,0.1l0.1,0.1c-0.1-0.1-0.1-0.2-0.2-0.3C71.1,29,71,28.9,71,28.8c0,0.1,0.1,0.1,0.1,0.2
		s0.1,0.1,0.1,0.1c0,0.1,0.1,0.1,0.2,0.2c0.1,0,0.1,0.1,0.2,0.1l0.1,0.1c0,0,0,0.1,0.1,0.1c0,0,0,0,0.1,0c0.1,0.1,0.1,0.2,0.2,0.2
		c0.1,0.1,0.1,0.1,0.2,0.2l0,0l0,0c0.1,0.1,0.2,0.1,0.3,0.2s0.2,0.1,0.4,0.1c0.1,0,0.1,0,0.1,0h0.1c0-0.5,0.1-0.9,0.1-1.4
		s0.1-0.9,0.2-1.3c0-0.2,0.1-0.4,0.1-0.7c0-0.2,0-0.4,0.1-0.7c0-0.2,0.1-0.4,0.1-0.6c0.1-0.2,0.1-0.4,0.2-0.6L73.6,25.1L73.6,25.1
		C73.7,25.1,73.7,25.1,73.6,25.1z"/>
	<path class="st0" d="M98.9,14.6c0.1,0,0.1,0,0.2,0c0.1,0,0.1,0,0.2,0c0,0.1-0.1,0.1-0.1,0.1s0,0.1,0.1,0s0.1,0,0.1,0
		c0.1,0,0.3,0,0.4,0c0.2,0,0.3-0.1,0.4-0.1h0.1c0,0,0,0,0,0.1c0,0-0.1,0-0.2,0l0.1,0.1l-0.1,0.1V15c-0.1,0.1-0.2,0.1-0.3,0.1
		s-0.2,0-0.2,0.1c0,0,0.1,0,0.2,0c0.1,0,0.1,0,0.2,0c-0.1,0-0.1,0.1-0.1,0.1l0,0l0,0c0,0,0,0-0.1,0s-0.2,0-0.1,0c0,0,0,0,0.1-0.1
		s0.1,0,0.1,0s0,0-0.2,0.1c-0.1,0-0.2,0.1-0.4,0.1s-0.2,0.1-0.3,0.2c0,0.1,0,0.1,0.1,0.1c0.2,0,0.2-0.1,0.3-0.1l0,0l0,0
		c0,0,0.1,0,0.3-0.1c0.1,0,0.1,0,0,0h-0.1c0,0,0,0-0.1,0c0,0,0,0,0.1,0c0,0,0,0.1-0.1,0.1h-0.1c-0.1,0-0.1,0-0.2,0.1
		c0,0.1-0.2,0.3-0.5,0.5c-0.4,0.3-0.8,0.5-1.3,0.8s-1,0.5-1.5,0.8c-0.5,0.2-0.9,0.4-1.2,0.4c0,0.5,0.1,1.1,0.1,1.7s-0.1,1.2-0.2,1.7
		c0,0,0,0.1,0,0.2s-0.1,0.2-0.1,0.4c0,0.1-0.1,0.3-0.1,0.4s-0.1,0.2-0.2,0.3v-0.1l0,0c0,0-0.1,0.1-0.1,0.2S94,23.1,94,23.1
		c0,0.1,0,0.2,0,0.2c-0.1,0-0.1,0.1-0.1,0.2s-0.1,0.2-0.1,0.3c0,0,0,0,0-0.1l0,0c-0.1,0-0.1,0.1-0.1,0.2s-0.1,0.1-0.1,0
		c0,0.1-0.1,0.1-0.2,0.2c-0.1,0.1-0.1,0.2-0.2,0.2c0,0.1,0,0.1,0,0.2l0,0v-0.1c0-0.1-0.1-0.1-0.1,0S93,24.5,93,24.6c0,0,0,0-0.1,0
		s-0.1,0-0.1,0.1c-0.1,0.1-0.1,0.1-0.2,0.2c0,0.1,0,0.1-0.1,0.2l0,0l0,0c0,0.1-0.1,0.2-0.1,0.2s-0.1,0.1-0.1,0.2c-0.1,0-0.1,0-0.2,0
		S92,25.6,92,25.7h-0.1c0,0,0,0-0.1,0l-0.1,0.1c0,0-0.1,0.1-0.1,0.2c-0.2,0-0.3,0.1-0.3,0.2c-0.1,0-0.1,0-0.2,0.1c0,0,0,0,0-0.1
		s0,0-0.1,0c-0.1,0.1-0.2,0.2-0.4,0.2c0,0-0.1-0.1-0.1-0.2c-0.1,0-0.1,0-0.1,0.1c0,0,0,0-0.1,0c0,0-0.1,0-0.1-0.1s0-0.1-0.1-0.1
		s-0.3,0.1-0.5,0.1c-0.2,0.1-0.3,0.1-0.5,0.1c0,0-0.1-0.1-0.1-0.2s0-0.1-0.1-0.1H89v-0.2c-0.1,0-0.2-0.1-0.3-0.1s-0.2,0-0.3-0.1
		c-0.3-0.1-0.5-0.3-0.7-0.7c-0.1,0-0.1-0.1-0.2-0.1s-0.1-0.1-0.2-0.1c-0.1-0.1-0.2-0.2-0.2-0.3v-0.1c0,0-0.1,0-0.1-0.1v-0.1
		c0,0,0,0,0.1-0.1c0,0-0.1-0.1-0.1-0.2s0-0.1,0-0.2l0,0l0,0c0,0-0.1,0-0.1-0.1s0-0.1,0.1-0.2c0-0.2,0-0.4,0.1-0.6
		c0-0.2,0.1-0.4,0.2-0.6s0.2-0.4,0.2-0.6s0.2-0.2,0.3-0.3v0.6c0.6-0.8,1.3-1.4,2.1-1.9s1.6-1,2.4-1.5c0-0.2,0-0.4-0.1-0.5
		c0-0.1-0.1-0.3-0.1-0.4c0-0.1-0.1-0.2-0.1-0.4c0-0.1-0.1-0.3-0.1-0.5c-0.1,0-0.1,0-0.1,0c0-0.1,0-0.1,0-0.3s0-0.2,0-0.4
		s0-0.2-0.1-0.3c0-0.1-0.1,0-0.1,0c-0.1,0.1-0.1,0.3-0.3,0.5c-0.1,0.2-0.2,0.3-0.3,0.3c0,0-0.1,0.1-0.1,0.2
		c-0.1,0.1-0.2,0.2-0.2,0.3c-0.1,0.1-0.2,0.2-0.3,0.3s-0.1,0.1-0.1,0.2c-0.1,0.1-0.2,0.2-0.3,0.3s-0.2,0.2-0.3,0.4
		c-0.2,0.1-0.3,0.3-0.4,0.3c-0.1,0.1-0.2,0.2-0.3,0.2c-0.1,0.1-0.1,0.1-0.1,0.1c0,0.1,0,0.2-0.2,0.3c-0.2,0.1-0.3,0.1-0.4,0.2
		c0,0-0.1,0-0.1,0.1s-0.1,0.1-0.2,0.2c-0.1,0.1-0.1,0.2-0.2,0.3c0,0-0.1,0-0.1-0.1c-0.1,0,0,0,0,0c0.1,0,0.1,0,0.1,0l0,0l0,0
		c0,0-0.1,0-0.1,0.1c-0.1,0.1-0.1,0.1-0.2,0.2v-0.1c0,0,0.1,0,0-0.1l0,0c0.1,0,0.1,0,0.1-0.1c0.1-0.1,0.1-0.1,0-0.1
		c0,0-0.1,0-0.1-0.1c0,0-0.1,0-0.1,0.1s0,0.1,0,0c-0.1,0-0.2,0-0.3,0s-0.2,0-0.2,0c0.1-0.2,0.2-0.3,0.5-0.5s0.5-0.4,0.6-0.6
		c0.1-0.1,0.2-0.2,0.2-0.3c0.1-0.1,0.2-0.1,0.3-0.2l0.1-0.1c0,0,0.2-0.2,0.3-0.3s0.2-0.2,0.3-0.3s0.1-0.1,0.1-0.1
		c0.1-0.2,0.2-0.3,0.3-0.4c0-0.1,0.1-0.2,0.2-0.3c0.2-0.2,0.3-0.3,0.4-0.4c0.1-0.1,0.1-0.2,0.2-0.3c0-0.1,0.1-0.2,0.2-0.3
		s0.2-0.2,0.3-0.4c0,0,0.1-0.1,0.2-0.2c0.1-0.1,0.2-0.2,0.3-0.3s0.2-0.2,0.3-0.4c0.1-0.1,0.1-0.2,0.2-0.3c0.1-0.1,0.1-0.2,0.1-0.4
		s-0.2-0.4-0.3-0.7c-0.1-0.2-0.2-0.5-0.4-0.7c-0.1-0.2-0.1-0.4-0.1-0.6c0-0.1,0.1-0.1,0.1-0.2c0-0.1,0-0.2,0.1-0.3
		c0-0.1,0.1-0.3,0.3-0.5c0.1,0,0.1-0.1,0.2-0.2c0.1-0.1,0.1-0.2,0.2-0.2c0.1,0,0.2,0,0.2,0s0.1,0,0.2,0.1h0.1l0,0l0.1,0.1l0.1,0.1
		c0.2-0.1,0.4-0.1,0.5,0.1c0,0.2,0,0.4,0,0.5s0.1,0.2,0.2,0.3c0,0.2,0,0.4,0.1,0.5c0,0.1,0,0.3,0,0.4c0,0.1,0,0.2,0,0.3s0,0.2,0,0.3
		s0,0.2,0,0.2s0,0.1,0,0.2c0,0.1,0,0.1,0.1,0.2c0.1,0.4,0.3,0.9,0.4,1.4c0.1,0.5,0.3,1,0.4,1.4c0,0.2,0.1,0.3,0.1,0.5
		s0.1,0.3,0.2,0.5c0.2,0,0.6-0.1,1.1-0.3s0.9-0.4,1.4-0.7s0.9-0.5,1.4-0.8c0.4-0.3,0.7-0.5,0.9-0.8c0,0,0,0.1-0.1,0.1
		C99,14.5,98.9,14.6,98.9,14.6z M86.9,24.7c0,0.1,0,0.1,0.1,0.1C87,24.7,87,24.7,86.9,24.7z M92.2,19.6L92.2,19.6c0-0.1,0-0.2,0-0.2
		c-0.1,0.1-0.2,0.1-0.3,0.2s-0.2,0.1-0.3,0.2l0,0c-0.2,0.1-0.3,0.2-0.4,0.2c-0.1,0.1-0.2,0.2-0.4,0.2c0,0,0,0-0.1,0
		s-0.2,0.1-0.3,0.2s-0.2,0.2-0.3,0.2c-0.2,0.1-0.3,0.3-0.5,0.4s-0.3,0.2-0.4,0.3c0,0,0,0-0.1,0.1H89c-0.1,0.1-0.2,0.2-0.2,0.2
		s-0.1,0.1-0.2,0.2c-0.1,0.1-0.2,0.2-0.2,0.3c-0.1,0.1-0.1,0.2-0.2,0.3c-0.1,0.1-0.1,0.2-0.1,0.2v-0.1c0-0.1,0-0.1,0-0.1
		s0,0.1,0,0.2s0,0.2,0,0.3v-0.1l0,0c0,0.1,0,0.1,0,0.1s0,0,0,0.1s-0.1,0.3,0,0.4c0,0.2,0,0.3-0.1,0.5c0.1,0,0.2,0.1,0.2,0.1
		s0.1,0,0.2,0.1V24c0,0.1,0,0.1,0.1,0.1h0.1V24c0,0-0.1,0-0.1-0.1l0,0c0,0,0,0,0.1,0V24l0,0c0.1,0,0.1,0,0.2,0.1h0.1
		c0.1,0,0.1,0.1,0.3,0c0.1,0,0.2,0,0.3-0.1c0.3-0.1,0.6-0.3,0.8-0.5c0.3-0.2,0.5-0.4,0.7-0.6v-0.1c0.1,0,0.1,0,0.2-0.1
		c0,0,0.1-0.1,0.1-0.2l0.1-0.2c0,0,0,0.1,0,0c0,0,0-0.1,0.1-0.3c0.2-0.4,0.3-0.8,0.4-1.2C92.1,20.6,92.1,20.2,92.2,19.6L92.2,19.6z"
		/>
	<path class="st0" d="M100.5,18.7c-0.1-0.1-0.2-0.1-0.3-0.1c0,0-0.1,0-0.1,0.1s-0.1,0-0.2,0l0,0l0,0c0,0-0.1,0-0.2,0
		c-0.1,0-0.1,0-0.1,0c-0.2,0-0.3,0.2-0.3,0.3s-0.1,0.3-0.2,0.4c0,0.2-0.1,0.4-0.2,0.5c-0.1,0.1-0.1,0.3-0.2,0.5
		c-0.1,0.2-0.1,0.3-0.1,0.3s0,0.1,0,0.3c0,0.1,0.1,0.2,0.2,0.2c0.1,0,0.2,0,0.3,0.1c0,0,0.1,0,0.2,0c0.1,0,0.1,0,0.2,0
		c0.2,0,0.4-0.1,0.6-0.2c0.2-0.1,0.4-0.1,0.6-0.2c0.5-0.1,0.9-0.3,1.2-0.5s0.7-0.3,1.2-0.5c0.1,0,0.2-0.1,0.4-0.2s0.4-0.2,0.6-0.4
		s0.4-0.3,0.6-0.4c0.2-0.1,0.3-0.2,0.3-0.3l0.8-0.6c0.2-0.1,0.3-0.2,0.5-0.3c0.1-0.1,0.3-0.3,0.5-0.4c0-0.1,0,0,0.1,0v0.1
		c0.1,0,0.2,0,0.3,0c0.1,0.1,0.1,0.1,0,0.1s0-0.1,0-0.1v0.1c0,0,0.1,0,0,0.1s-0.1,0.1,0,0.1l0.1,0.1c-0.2,0.2-0.3,0.4-0.5,0.6
		c-0.1,0.2-0.3,0.4-0.5,0.6c-0.1,0.1-0.2,0.2-0.2,0.2s-0.1,0.1-0.2,0.1c-0.2,0.3-0.4,0.5-0.5,0.6c-0.2,0.1-0.4,0.3-0.6,0.5
		c-0.1,0.1-0.2,0.2-0.4,0.3c-0.2,0.1-0.4,0.3-0.6,0.4c-0.2,0.2-0.4,0.3-0.6,0.5s-0.3,0.2-0.4,0.3c-0.3,0.1-0.5,0.3-0.8,0.4
		s-0.5,0.2-0.8,0.3c-0.1,0-0.2,0-0.4,0.1s-0.2,0.1-0.4,0.2c-0.1,0-0.2,0-0.2,0h-0.1c0,0-0.1,0.1-0.2,0.1s-0.1,0-0.2,0
		c-0.2,0-0.4,0-0.5,0.1s-0.3,0.1-0.5,0c-0.1,0-0.2,0-0.3-0.1s-0.2-0.1-0.4,0v-0.1c0,0,0,0,0-0.1h-0.1h-0.1v-0.1c0,0,0,0,0-0.1
		c-0.2-0.2-0.4-0.3-0.5-0.6c-0.1-0.2-0.2-0.5-0.3-0.7c0-0.2,0-0.3,0-0.4s0-0.1,0-0.2s0-0.1,0-0.2s0-0.2,0-0.5c0-0.4,0.1-0.7,0.2-0.9
		c0.1-0.3,0.2-0.6,0.3-0.9c0.1-0.1,0.1-0.2,0.2-0.4c0-0.1,0.1-0.2,0.2-0.3c0.3-0.8,0.7-1.5,1.1-2.1c0.4-0.6,0.8-1.3,1.3-1.9
		c0.1-0.3,0.2-0.6,0.3-0.8s0.3-0.4,0.4-0.6c0.1-0.1,0.3-0.3,0.4-0.4c0.1-0.1,0.3-0.2,0.4-0.3v-0.1c0.1,0,0.2-0.1,0.3-0.1
		s0.2-0.1,0.2-0.2c0.1-0.1,0.3-0.1,0.4-0.1c0.1,0,0.3,0,0.4,0c0.1,0,0.2,0.1,0.4,0.1c0,0,0,0.1,0.1,0.1s0.1,0,0.1,0.1
		c0.1,0,0.2,0.1,0.2,0.2c0.1,0.1,0.2,0.2,0.3,0.3v0.1c0,0,0,0,0,0.1c0.1,0.1,0.2,0.3,0.3,0.5s0.2,0.3,0.3,0.4c0,0.1,0.1,0.3,0.1,0.4
		c0,0.1,0,0.3,0,0.4c0.1,0.2,0.1,0.4,0,0.5c0,0-0.1,0.1,0,0.2s0,0.1,0,0.2c0,0.2-0.1,0.4-0.1,0.5c0,0.2-0.1,0.3-0.1,0.4l-0.1,0.2
		c-0.1,0.1-0.1,0.3-0.2,0.4c0,0.1-0.1,0.2-0.2,0.4c-0.1,0.2-0.3,0.4-0.5,0.5c-0.2,0.2-0.3,0.3-0.4,0.4c-0.1,0.1-0.1,0.2-0.2,0.2
		c0,0-0.1,0-0.2,0c-0.1,0.1-0.1,0.1-0.2,0.2s-0.1,0.1-0.2,0.1c-0.1,0-0.2,0-0.2,0.2c-0.1,0.1-0.1,0.2-0.2,0.2c0,0-0.1,0-0.1-0.1
		c-0.1,0-0.1,0.1-0.2,0.1c0,0-0.1,0.1-0.2,0.1c0,0,0,0-0.1,0s-0.2,0.1-0.3,0.2s-0.2,0.1-0.3,0.2l0,0L100.5,18.7z M102.9,13.6
		L102.9,13.6c-0.1,0.1-0.3,0.2-0.5,0.4c-0.2,0.1-0.3,0.3-0.4,0.4c0,0,0,0.1-0.1,0.1s-0.1,0.1-0.1,0.1c-0.2,0.3-0.4,0.5-0.5,0.8
		s-0.3,0.5-0.6,0.6c0,0.1-0.1,0.3-0.2,0.4c-0.1,0.1-0.1,0.3-0.2,0.4c-0.2,0.5-0.3,0.8-0.4,0.9c-0.1,0.1-0.2,0.2-0.2,0.3
		c0.3-0.3,0.6-0.6,0.9-0.9c0.2-0.1,0.3-0.3,0.5-0.4s0.3-0.3,0.5-0.6c0.1,0,0.2-0.1,0.3-0.2c0.1-0.1,0.2-0.2,0.3-0.3l0.1-0.1
		c0-0.1,0.1-0.1,0.2-0.2c0-0.1,0.1-0.2,0.2-0.2s0.1-0.1,0.1-0.1c0-0.1,0.1-0.2,0.2-0.3c0.1-0.1,0.1-0.2,0.2-0.3c0,0,0,0-0.1-0.1
		c0-0.1-0.1-0.2-0.1-0.3s-0.1-0.2-0.1-0.3C102.9,13.7,102.9,13.6,102.9,13.6z"/>
	<path class="st0" d="M112.3,13.7c0.1-0.1,0.2-0.1,0.2-0.2c0.1,0,0.1-0.1,0.2-0.2c0.1-0.1,0.1-0.2,0.2-0.3c0-0.1,0-0.3,0.1-0.4
		c0.1-0.2,0.2-0.3,0.2-0.5c0.1-0.1,0.1-0.3,0.2-0.4c0.1-0.1,0.2-0.2,0.3-0.2s0.2-0.1,0.3-0.2c0.1,0,0.2,0,0.3,0s0.1,0,0.2,0l0.1,0.1
		h0.1c0,0.1,0.1,0.2,0.2,0.2s0.1,0.1,0.2,0c0.1,0,0.2,0.1,0.2,0.3c0,0.1,0.1,0.3,0.1,0.3c0,0.1,0,0.1,0,0.2c0,0.1,0,0.2,0,0.2
		c0,0.4,0.1,0.8,0,1.2c0,0.4-0.1,0.7-0.2,1c0,0,0,0,0,0.1V15c-0.1,0.1-0.2,0.2-0.2,0.4s-0.1,0.3-0.2,0.4c0,0.2-0.1,0.3-0.1,0.4
		c-0.1,0.1-0.1,0.2-0.2,0.2s-0.1,0.2-0.1,0.2c-0.1,0.1-0.1,0.2-0.2,0.4v0.1c-0.1,0.1-0.1,0.2-0.1,0.3s-0.1,0.2-0.1,0.3v0.1
		c0,0,0,0.1-0.1,0.1c0,0.1,0,0.2,0,0.3c0,0.1,0,0.2,0,0.2c0,0.2-0.1,0.4-0.1,0.5c-0.1,0.2-0.1,0.4-0.2,0.5c0,0,0,0,0,0.1
		c0,0,0,0,0,0.1s-0.1,0.2-0.1,0.3c-0.1,0.1-0.1,0.2-0.1,0.4c0,0.1,0.1,0.2,0.1,0.3c0,0.1,0.1,0.2,0.1,0.3c0.7-0.2,1.4-0.5,2-0.8
		s1.1-0.7,1.6-1.2c0,0,0.1-0.1,0.2-0.2c0.1-0.1,0.1-0.1,0.2-0.2c0,0,0.1,0,0.2-0.1c0.1,0,0.1-0.1,0.2-0.1c0.1-0.1,0.2-0.3,0.4-0.4
		c0.1-0.1,0.3-0.2,0.5-0.2h0.1h0.1v0.1c0,0-0.1,0,0,0.1c0.1,0,0.1,0,0.1,0s0,0,0.1,0l-0.1,0.1c-0.1,0-0.1,0.1-0.1,0.1
		c0.1,0,0.1,0,0.1,0.1s0.1,0,0.1,0s0,0.1-0.1,0.1l-0.1,0.1c-0.1,0.1-0.2,0.2-0.3,0.4c-0.1,0.1-0.2,0.3-0.3,0.4
		c-0.1,0.2-0.2,0.4-0.2,0.4c0,0.1-0.1,0.2-0.3,0.3c-0.1,0.1-0.1,0.1-0.1,0.1s0,0-0.1,0c0,0.1,0,0.2-0.1,0.3
		c-0.1,0.1-0.1,0.1-0.2,0.2c-0.1,0.1-0.2,0.2-0.3,0.3c-0.1,0.1-0.2,0.2-0.3,0.3c0,0.1-0.2,0.2-0.4,0.3c-0.2,0.1-0.4,0.1-0.5,0.1
		c0,0.1-0.1,0.2-0.3,0.3s-0.3,0.2-0.4,0.3l0,0v0.1c-0.1,0.1-0.2,0.1-0.4,0.1c-0.1,0-0.2,0.1-0.3,0.1h-0.1l-0.1,0.1
		c-0.3,0.1-0.6,0.1-0.9,0c-0.2,0-0.3,0-0.5,0s-0.4,0-0.5-0.2c-0.1-0.1-0.1-0.1-0.1-0.2s-0.1-0.2-0.2-0.3c0-0.1-0.1-0.1-0.1-0.2
		c0,0,0-0.1-0.1-0.3c0-0.1-0.1-0.2-0.1-0.3c0-0.1-0.1-0.2-0.1-0.3c0-0.1-0.1-0.2-0.1-0.4s-0.1-0.3-0.1-0.5s-0.1-0.4,0-0.6
		c0-0.1,0-0.3,0-0.4s0-0.3,0.1-0.4c0-0.1,0.1-0.3,0.1-0.6c-0.1,0-0.1,0.1-0.2,0.2c-0.1,0.1-0.1,0.2-0.2,0.2l-0.1,0.1l-0.1,0.1
		c-0.1,0.2-0.2,0.4-0.3,0.5s-0.2,0.3-0.3,0.5c-0.2,0.2-0.4,0.5-0.6,0.7c-0.2,0.3-0.4,0.5-0.5,0.7c0,0-0.1,0,0,0l0,0
		c0,0-0.1,0.1-0.1,0.2s-0.1,0.2-0.1,0.2c-0.1,0-0.1,0.1-0.2,0.1c-0.1,0.1-0.1,0.1-0.2,0.1c0,0-0.1,0-0.2,0.1
		c-0.3,0.2-0.5,0.4-0.8,0.6s-1,0.7-1.3,0.7c-0.1,0-0.1,0-0.2,0c-0.1,0-0.2-0.1-0.3-0.1c0,0-0.1,0-0.1-0.1c-0.1,0-0.2,0-0.3-0.1
		s-0.1-0.2-0.2-0.3c0-0.3-0.1-0.6-0.2-0.9c-0.1-0.3-0.1-0.6-0.1-1c0-0.7,0.1-1.3,0.3-1.9c0.2-0.5,0.3-1.1,0.6-1.6s0.5-1,0.8-1.5
		c0.2-0.5,0.5-1,0.8-1.4c0.2-0.2,0.3-0.4,0.5-0.7c0.2-0.2,0.3-0.4,0.5-0.6c0.1-0.1,0.2-0.1,0.2-0.2c0.1-0.1,0.1-0.1,0.2-0.2
		c0.1,0,0.2-0.1,0.2-0.2c0.1-0.1,0.1-0.1,0.2-0.2l0.1-0.1l0.1-0.1c0.1-0.1,0.2-0.2,0.4-0.3c0.1-0.1,0.2-0.1,0.3,0
		c0.2,0,0.3-0.1,0.4,0s0.2,0,0.3,0.1c0.1,0,0.3,0.1,0.4,0.2c0.1,0.1,0.2,0.1,0.3,0.2c0,0.2,0.1,0.4,0.2,0.6s0.2,0.4,0.3,0.6
		c0,0.1,0,0.1,0,0.2C112.3,13.5,112.3,13.6,112.3,13.7z M106.7,20.3c0.1,0,0.1-0.1,0.2-0.1c0.1,0,0.1-0.1,0.2-0.1
		c0.1-0.1,0.1-0.2,0.2-0.2c0-0.1,0.1-0.1,0.1-0.2c0.4-0.4,0.7-0.8,1-1.2c0.3-0.4,0.6-0.8,0.9-1.2c0.2-0.2,0.4-0.5,0.6-0.8
		s0.4-0.5,0.6-0.8c0.2-0.3,0.4-0.5,0.7-0.8c0.2-0.2,0.4-0.5,0.6-0.7c0-0.3,0-0.6-0.1-0.8s-0.2-0.4-0.2-0.6c-0.2-0.1-0.5-0.1-0.8-0.1
		c-0.2,0-0.4,0.1-0.6,0.2s-0.3,0.3-0.5,0.4c-0.3,0.2-0.5,0.5-0.7,0.7c-0.2,0.3-0.4,0.6-0.6,0.9c-0.2,0.4-0.4,0.7-0.6,1.1
		s-0.3,0.7-0.5,1.1c-0.1,0.2-0.2,0.3-0.2,0.4c0,0.1,0,0.2,0,0.3c0,0.1,0,0.2,0,0.3c0,0.1,0,0.1,0,0.2v0.1c0,0.1,0,0.2,0,0.3
		c0,0.1,0,0.2,0,0.3c0,0.2-0.1,0.4-0.2,0.7C106.6,19.9,106.6,20.1,106.7,20.3L106.7,20.3z"/>
	<path class="st0" d="M122.9,23.5c-0.1,0-0.2,0-0.3-0.1s-0.1-0.2-0.2-0.3c0-0.1-0.1-0.1-0.1-0.2s-0.1-0.1-0.1-0.2s-0.1-0.1-0.1-0.1
		l-0.1-0.1l-0.1-0.1l-0.1-0.1c-0.2-0.3-0.3-0.7-0.4-1c-0.1-0.2-0.1-0.4-0.1-0.6s0-0.5,0-0.7c0-0.1,0-0.1,0-0.2s0-0.1,0.1-0.2
		l0.1-0.9c0-0.1,0-0.3,0-0.4s0-0.3,0.1-0.4c0-0.1,0.1-0.2,0.1-0.4c0-0.1,0.1-0.3,0.1-0.4c0-0.1,0-0.1,0.1-0.2c0,0,0-0.1,0.1-0.2
		l0.1-0.2v-0.1c0,0,0,0,0-0.1v-0.1c0,0,0-0.1,0.1-0.1c0,0,0-0.1,0-0.2c0-0.1,0.1-0.2,0.1-0.2c0-0.1,0-0.2,0.1-0.2
		c0-0.1,0.1-0.2,0.1-0.3s0.1-0.2,0.1-0.3c0.1-0.1,0.1-0.3,0.2-0.4c0.1-0.1,0.1-0.3,0.2-0.4c0.1-0.1,0.1-0.2,0.1-0.3
		c-0.5,0.1-0.9,0.3-1.3,0.5c-0.4,0.2-0.9,0.3-1.3,0.5c0,0.1-0.1,0.2-0.2,0.3c0,0-0.1,0.1-0.1,0.2c0,0.1-0.1,0.1-0.1,0.2
		c0,0,0,0.1,0,0.2c0,0.1,0,0.1-0.1,0.1v0.1c0,0,0,0,0,0.1c-0.1,0.1-0.1,0.1-0.1,0.1s0,0.1,0,0.2c0,0,0,0.1-0.1,0.1s-0.1,0.1-0.1,0.1
		l-0.1,0.1v0.1c-0.1,0.2-0.3,0.5-0.4,0.8c0-0.1,0.1-0.1,0.2-0.2c-0.1,0.1-0.1,0.2-0.2,0.2v0.1h-0.3c0,0,0,0.1-0.1,0.1c0,0,0,0,0,0.1
		c0,0.1,0,0.1,0,0.1c0,0.2-0.1,0.3-0.2,0.4l-0.1,0.1c0,0.1-0.1,0.2-0.1,0.2c0,0.1-0.1,0.2-0.2,0.2c-0.1,0.1-0.1,0.1-0.2,0.2
		c-0.1,0-0.1,0.1-0.2,0.1c-0.1,0-0.1,0.1-0.2,0.1c-0.1,0.1-0.2,0.2-0.4,0.2c0,0.1-0.1,0.1-0.1,0.1c-0.1,0-0.2,0-0.3-0.1
		s-0.1-0.3-0.1-0.4h-0.1l0,0c-0.1,0.1-0.1,0.1-0.1,0l0,0c0,0,0-0.1,0.1-0.1c0,0,0.1,0,0.1-0.1v0c0-0.1,0.1-0.2,0.1-0.2
		c0.1-0.1,0.1-0.2,0.1-0.3c0-0.1,0.1-0.1,0.1-0.2s0.1-0.1,0.1-0.2v-0.1v0c0,0,0-0.1,0.1-0.1c0,0,0,0,0.1-0.1c0-0.1,0.1-0.1,0.1-0.2
		c0-0.1,0.1-0.1,0.1-0.2c0,0,0.1-0.1,0.1-0.2c0.1-0.1,0.1-0.2,0.2-0.4c0.1-0.1,0.1-0.3,0.2-0.4c0.1-0.2,0.2-0.4,0.3-0.5
		c0.1-0.2,0.2-0.4,0.3-0.5s0.2-0.2,0.2-0.4c-0.5-0.1-0.9-0.2-1.2-0.4c0,0-0.1,0-0.1-0.1s-0.1-0.1-0.1-0.1s0-0.1-0.1-0.1l-0.1-0.1
		c0-0.1-0.1-0.2-0.1-0.3c0-0.2,0-0.3,0-0.4v-0.1l0,0v-0.1V13c0-0.1,0-0.1,0-0.2c0-0.1,0-0.1,0.1-0.2c0-0.1,0.1-0.1,0.1-0.2
		c0,0,0-0.1,0.1-0.2c0.2-0.4,0.3-0.7,0.6-0.9c0.1-0.1,0.1-0.2,0.3-0.2c0.1-0.1,0.2-0.1,0.3-0.1c0,0,0.1,0,0.2,0c0.1,0,0.1,0,0.2,0
		c0.2,0,0.3-0.1,0.5-0.1s0.3,0,0.5-0.1c0,0,0,0,0-0.1c0,0,0,0,0.1-0.1l0,0h0.1c0.1,0.1,0.1,0.1,0.2,0.2s0.2,0.1,0.3,0.2
		s0.2,0.2,0.2,0.3c0.1,0.1,0.1,0.2,0,0.4l0.1,0.1c0,0.1,0,0.2-0.1,0.2v0.1v0.1c0,0.1-0.1,0.1-0.1,0.2c0,0.1,0,0.1-0.1,0.2v0.2
		c0,0.1-0.1,0.2-0.1,0.3s0,0.2-0.1,0.3c0.1,0,0.2,0,0.3-0.1s0.2-0.1,0.3-0.1c0.4-0.2,0.9-0.4,1.3-0.6c0.4-0.2,0.9-0.4,1.3-0.6
		c0.1,0,0.2-0.1,0.3-0.1s0.2-0.1,0.3-0.1s0.2-0.1,0.3-0.1s0.2,0,0.3,0c0.1,0.1,0.2,0.1,0.2,0.2c0.2,0.2,0.4,0.3,0.5,0.5l0,0l0,0h0.1
		c0.1,0.1,0.2,0.3,0.2,0.5s0,0.4-0.1,0.6v0.1c0,0,0,0,0,0.1v0.1v0.1c0,0.2-0.1,0.3-0.1,0.3s0,0.1-0.1,0.1c0,0,0,0.1-0.1,0.1
		c0,0.1-0.1,0.1-0.1,0.2s0,0.1-0.1,0.1s-0.1,0.1-0.1,0.1l0,0l0,0c0,0.1,0,0.2-0.1,0.2c0,0.1-0.1,0.1-0.1,0.2v0.1c0,0,0,0,0,0.1
		c0,0,0,0.1-0.1,0.1c-0.1,0.2-0.2,0.4-0.3,0.6c-0.1,0.2-0.2,0.4-0.3,0.6l-0.1,0.1v0.1V17c0,0.1,0,0.1-0.1,0.2v0.1v0.1v0.1v0.1
		c0,0,0,0.1-0.1,0.1v0.1l0,0c0,0,0,0,0,0.1V18c0,0.2-0.1,0.3-0.1,0.5c-0.1,0.1-0.1,0.3-0.1,0.5v0.2c0,0,0,0,0,0.1v0.1c0,0,0,0,0,0.1
		l0,0l0,0v0.1c0,0,0,0,0,0.1c0,0.2,0,0.3,0,0.4s0,0.2-0.1,0.4v0.1v0.1c0,0,0,0.1-0.1,0.1l0,0c0,0,0,0,0,0.1c0,0,0,0.1,0,0.2
		s0,0.1,0.1,0.1s0.1,0,0.2-0.1c0.1,0,0.1-0.1,0.1-0.1c0.2-0.1,0.4-0.3,0.6-0.4c0.2-0.2,0.4-0.3,0.6-0.4h0.1c0,0,0,0,0.1,0
		c0,0,0.1,0,0.1-0.1c0,0,0,0,0.1-0.1c0.3-0.2,0.6-0.4,0.8-0.7c0.3-0.2,0.5-0.5,0.8-0.7c0.1-0.1,0.2-0.2,0.4-0.4
		c0.1-0.1,0.3-0.2,0.4-0.4c0.1,0,0.1-0.1,0.2-0.2c0.1-0.1,0.1-0.1,0.2-0.1h0.1h0.1c0,0,0.1,0,0.1,0.1s-0.1,0.2-0.1,0.2v0.1
		c0,0,0,0,0,0.1c0,0,0,0,0.1,0.1c-0.1,0.1-0.1,0.1-0.1,0.2v0.1l0,0c0,0,0,0,0,0.1s0,0.1,0,0.2l0,0c0,0,0,0,0,0.1l-0.1,0.1
		c0,0-0.1,0.1-0.1,0.2s-0.1,0.1-0.1,0.2c-0.1,0-0.1,0.1-0.2,0.2c-0.1,0-0.1,0.1-0.2,0.2c0,0,0,0,0,0.1c0,0,0,0,0,0.1
		s-0.1,0.1-0.2,0.2c-0.1,0.1-0.2,0.1-0.2,0.2c-0.2,0.3-0.5,0.5-0.7,0.7s-0.5,0.4-0.7,0.7c0,0.1-0.1,0.2-0.2,0.3
		c-0.1,0.1-0.2,0.2-0.2,0.3c-0.1,0.1-0.3,0.2-0.3,0.3c-0.1,0.1-0.2,0.2-0.3,0.3L125,23c0,0-0.1,0-0.1,0.1c-0.1,0.1-0.2,0.1-0.2,0.2
		c-0.1,0.1-0.2,0.1-0.3,0.1s-0.2,0.1-0.2,0.1c-0.1,0-0.2,0.1-0.3,0.1l0,0l0,0c0,0-0.1,0-0.1,0.1h-0.9V23.5z M119.3,12.1
		c-0.1,0.2-0.2,0.3-0.2,0.4c0,0.1-0.1,0.1-0.1,0.2c0,0.1-0.1,0.1-0.1,0.2c0,0,0,0-0.1,0.1l0,0l0,0c-0.1,0.1-0.1,0.2-0.1,0.2
		s0,0.1,0.1,0.1c0.1,0.1,0.2,0.1,0.4,0.1c0.3,0,0.5,0,0.8-0.1c0-0.2,0.1-0.3,0.1-0.5s0-0.4,0.1-0.5l0.1-0.1c0-0.1,0-0.2-0.1-0.2
		c-0.1-0.1-0.2-0.1-0.3-0.2c-0.1,0-0.1,0.1-0.2,0.2S119.4,12.1,119.3,12.1z M121.8,21.6L121.8,21.6
		C121.8,21.5,121.8,21.5,121.8,21.6C121.8,21.5,121.8,21.5,121.8,21.6L121.8,21.6z"/>
	<path class="st0" d="M138.5,16.3C138.5,16.2,138.4,16.3,138.5,16.3c-0.1,0.1-0.1,0.2-0.1,0.2l0,0C138.4,16.3,138.4,16.3,138.5,16.3
		c-0.1,0.1-0.1,0.1-0.1,0.1c-0.1,0-0.2,0.1-0.2,0.2c0,0.2,0,0.2,0.2,0.2v0.1l0,0c0,0,0.1,0.1,0.1,0h0.1c-0.1,0.1-0.2,0.3-0.4,0.4
		c0,0,0,0,0,0.1v0.1l-0.1,0.1l-0.1,0.1c-0.1,0.1-0.1,0.1-0.2,0.1l-0.1,0.1c-0.1,0.1-0.2,0.2-0.4,0.3c0,0,0,0.1,0.1,0.1
		c0,0,0,0,0.1,0c0,0.1-0.1,0.1-0.2,0.2v0.1c-0.1,0-0.1,0.1-0.2,0.2l0,0c0,0,0.1,0,0,0c0,0.1-0.1,0.2-0.3,0.3
		c-0.2,0.1-0.3,0.3-0.5,0.4s-0.4,0.3-0.5,0.4c-0.2,0.1-0.3,0.2-0.3,0.3c-0.4,0.3-0.8,0.6-1.3,0.9c-0.4,0.3-0.8,0.6-1.2,0.9v-0.1l0,0
		c0,0,0,0.1-0.1,0.1l-0.1,0.1c-0.1,0.1-0.3,0.2-0.3,0.2c-0.1,0-0.2,0.1-0.3,0.1c-0.1,0.1-0.2,0.2-0.4,0.3c-0.2,0.1-0.3,0.1-0.4,0.2
		c-0.1,0.1-0.2,0.2-0.3,0.2s-0.2,0-0.3,0c-0.1,0.1-0.1,0.1-0.1,0.1c0.1,0,0.1,0,0.2-0.1c0.1,0,0.2-0.1,0.2-0.1s0,0-0.1,0l0,0l0,0
		c-0.2,0.1-0.5,0.2-0.8,0.2s-0.6,0-0.9,0c-0.1,0-0.1,0-0.2,0s-0.2,0-0.3-0.1c-0.1,0-0.3-0.1-0.4-0.1c-0.1,0-0.3-0.1-0.4-0.2
		c-0.2-0.1-0.3-0.2-0.5-0.4c-0.2-0.1-0.3-0.3-0.4-0.5l0,0c0,0,0,0-0.1,0c-0.2-0.2-0.3-0.5-0.3-0.8c-0.1-0.3-0.1-0.6-0.1-0.9
		c0-0.1,0-0.3,0-0.4s0-0.3,0.1-0.5c0,0,0-0.1,0.1-0.2c0-0.2,0.1-0.3,0.1-0.5s0.1-0.3,0.1-0.5c0-0.1,0.1-0.3,0.2-0.5s0.2-0.3,0.2-0.5
		c0.2-0.3,0.3-0.6,0.5-0.8c0.1-0.3,0.3-0.5,0.5-0.8s0.5-0.6,0.7-0.9c0.2-0.3,0.5-0.6,0.7-0.8c0.1-0.1,0.2-0.2,0.3-0.3
		s0.2-0.2,0.3-0.2c0.1-0.2,0.2-0.3,0.4-0.5c0.1-0.1,0.3-0.3,0.4-0.4c0-0.1,0.1-0.1,0.2-0.2c0.1,0,0.1-0.1,0.2-0.1l0,0c0,0,0,0,0-0.1
		c0.2-0.1,0.4-0.2,0.6-0.4s0.4-0.3,0.6-0.4c0.1,0,0.1,0,0.2,0s0.1,0,0.1,0l0,0l0,0c0.1,0,0.2,0,0.3,0s0.2,0.1,0.2,0.2l0.1,0.1
		c0.1,0.1,0.1,0.1,0.2,0.1c0,0,0.1,0,0.2,0l0,0c0.1,0,0.1,0,0.1,0h0.1c0.1,0,0.1,0,0.2,0c0.3,0.1,0.4,0.2,0.5,0.3s0,0.4,0,0.6
		c0,0.1,0.1,0.2,0.1,0.3s0,0.2,0,0.3l0,0v0.1c0,0.3-0.1,0.7-0.3,1s-0.3,0.6-0.5,0.7l0,0c0,0,0,0,0,0.1c-0.1,0.1-0.2,0.1-0.2,0.2
		c-0.1,0.1-0.1,0.2-0.2,0.2c0-0.1,0-0.1,0-0.1s-0.1,0-0.1,0.1l-0.1,0.1c0,0,0,0,0-0.1h-0.1h-0.1c0,0.1,0,0.1,0,0.1s0-0.1,0.1-0.1
		s0-0.1,0.1-0.1c0,0,0,0-0.1,0c0,0-0.1,0-0.1,0.1c0,0,0,0-0.1,0c0-0.1,0-0.1,0-0.2c0.1-0.1,0.1-0.2,0.1-0.2v-0.1
		c0.2-0.3,0.3-0.6,0.5-1s0.3-0.7,0.4-1.1l0,0l0,0c0,0,0,0,0.1-0.2c0-0.1-0.1-0.2-0.2-0.2c-0.1,0-0.2,0-0.3,0
		c-0.1,0.1-0.2,0.2-0.3,0.3s-0.2,0.2-0.3,0.2c-0.1,0.1-0.2,0.2-0.3,0.3s-0.2,0.2-0.4,0.2c-0.1,0.2-0.3,0.4-0.5,0.6
		c-0.2,0.1-0.4,0.3-0.6,0.5c0,0.1-0.1,0.2-0.2,0.3c-0.1,0.1-0.1,0.1-0.2,0.2c0,0.2-0.1,0.2-0.1,0.2s-0.1,0.1-0.1,0.2
		c-0.1,0.1-0.2,0.3-0.3,0.5s-0.2,0.4-0.2,0.6c0,0.1-0.1,0.2-0.1,0.3s-0.1,0.2-0.1,0.3c0,0,0,0.1-0.1,0.2s-0.1,0.2-0.1,0.4
		c0,0.1-0.1,0.3-0.1,0.4s-0.1,0.2-0.1,0.2c0,0.2,0,0.4-0.1,0.7s-0.1,0.5-0.1,0.8s0.1,0.5,0.2,0.7s0.4,0.2,0.9,0.2
		c0.4-0.1,0.6-0.1,0.6-0.1s0,0,0,0.1l0,0c0,0,0.2-0.1,0.5-0.2c0,0,0.1-0.1,0.3-0.1c0.1-0.1,0.3-0.1,0.4-0.2s0.3-0.1,0.4-0.1
		c0.1,0,0.2-0.1,0.3-0.1c0.1-0.1,0.3-0.2,0.5-0.3c0.3-0.1,0.5-0.2,0.6-0.2c0.3-0.2,0.5-0.3,0.7-0.5s0.5-0.4,0.8-0.7
		c0.1-0.1,0.2-0.2,0.4-0.3c0.1-0.1,0.3-0.2,0.4-0.2c0.1,0,0.2-0.1,0.3-0.3c0.2-0.2,0.3-0.3,0.4-0.3l0.1-0.1c0.1-0.1,0.1-0.1,0.1-0.1
		c0.2,0,0.3-0.1,0.4-0.3c0.1-0.1,0.2-0.3,0.4-0.3c0.1-0.1,0.2-0.1,0.3-0.1C138.5,16,138.5,16.1,138.5,16.3z M134.9,12.8
		C134.8,12.8,134.8,12.8,134.9,12.8C134.8,12.9,134.9,12.9,134.9,12.8L134.9,12.8z M138.2,16.7C138.1,16.7,138.1,16.7,138.2,16.7
		C138.1,16.8,138.1,16.8,138.2,16.7C138.1,16.8,138.2,16.7,138.2,16.7L138.2,16.7z"/>
	<path class="st0" d="M142.9,1.7h0.1h0.1h0.1c0.1,0,0.1,0.1,0.2,0.1c0.1,0,0.1,0.1,0.2,0.2c0,0.1,0.1,0.1,0.1,0.2
		c0.1,0,0.1,0.1,0.2,0.2c0,0.1,0.1,0.1,0.1,0.2c0,0,0,0.1,0.1,0.1c0,0,0,0,0.1,0.1c0.1,0.2,0.2,0.3,0.2,0.3v0.1c0,0,0,0,0,0.1v0.1
		c0,0.1,0,0.1,0,0.2c0,0.1,0.1,0.1,0.1,0.2v0.1c0,0.1,0,0.1,0,0.2c0,0.2,0,0.4,0,0.6s0,0.4,0,0.6c0,0.1,0,0.2,0,0.3s0,0.2-0.1,0.3
		c0,0.1,0,0.2,0,0.3s0,0.2-0.1,0.2c0,0,0,0,0,0.1c0,0,0,0,0,0.1v0.3c0,0,0,0,0,0.1c0,0,0,0,0,0.1l0,0l0,0v0.1c0,0.2,0,0.3-0.1,0.5
		c0,0.1,0,0.3-0.1,0.4c0,0.1,0,0.2-0.1,0.3c0,0.1,0,0.1-0.1,0.2v0.1v0.1c0,0.1-0.1,0.2-0.1,0.2c0,0.1,0,0.2,0,0.2s0,0.2,0,0.3
		s0,0.1-0.1,0.2c0,0.1-0.1,0.1-0.1,0.2c0,0.1,0,0.1,0,0.2v0.1l0,0l0,0l0,0v0.1l0,0c0,0.1,0,0.1-0.1,0.2v0.1v0.1v0.1c0,0,0,0,0,0.1
		l0,0c0,0,0,0,0,0.1s-0.1,0.2-0.1,0.3s-0.1,0.2-0.1,0.3c-0.1,0.2-0.1,0.3-0.2,0.5c0,0.2-0.1,0.4-0.2,0.6v0.1c0,0,0,0,0,0.1
		s-0.1,0.1-0.1,0.2c0,0.1-0.1,0.2-0.1,0.3s0,0.2-0.1,0.3s-0.1,0.1-0.1,0.1c0,0.1-0.1,0.2-0.1,0.3s-0.1,0.2-0.1,0.3s-0.1,0.2-0.1,0.3
		s-0.1,0.2-0.1,0.3c-0.1,0.2-0.2,0.4-0.2,0.6c-0.1,0.2-0.2,0.4-0.2,0.6l0.8-0.8c0.1-0.1,0.2-0.3,0.4-0.4c0.1-0.1,0.3-0.3,0.4-0.4
		c0.3-0.3,0.5-0.5,0.8-0.8c0.2-0.2,0.5-0.5,0.8-0.7c0,0,0-0.1,0.1-0.1c0,0,0.1,0,0.1,0.1c0.1,0,0.1-0.1,0.2-0.2
		c0.1-0.1,0.1-0.1,0.2-0.1c0.1,0,0.1-0.1,0.2-0.1c0.1,0,0.1-0.1,0.2-0.1c0.2-0.1,0.5-0.2,0.9-0.2l0,0l0,0l0,0h0.1l0.1,0.1
		c0,0,0.1,0,0.1,0.1l0.1,0.1c0,0,0,0.1,0.1,0.1c0,0,0,0,0-0.1s0,0,0.1,0s0.1,0,0.1,0.1s0,0.1,0,0.1s0,0,0-0.1l0,0
		c0,0.1,0.1,0.2,0.1,0.3s0.1,0.2,0.1,0.3s0.1,0.1,0.1,0.2c0,0.1,0,0.1-0.1,0.2c-0.1,0-0.1,0.1-0.1,0.2v0.1c0,0,0,0,0,0.1v0.1v0.1
		c0,0.1,0,0.1,0,0.2c0,0.1,0,0.1,0,0.2c0,0.1,0,0.3,0,0.4c0,0.1-0.1,0.2-0.1,0.3c-0.1,0.2-0.1,0.3-0.2,0.5s-0.1,0.3-0.2,0.5v0.1
		c0,0,0,0,0,0.1v0.1c0,0.1,0,0.1-0.1,0.2c0,0,0,0.1,0,0.2c-0.1,0-0.1,0.1-0.2,0.3c0,0.1,0,0.1,0,0.2c0,0,0,0.1,0,0.2
		s-0.1,0.2-0.1,0.3c-0.1,0.1-0.1,0.2-0.1,0.3v0.2v0.1c0,0,0,0,0,0.1c0,0.2-0.1,0.3-0.1,0.4s-0.1,0.3-0.1,0.4v0.1v0.1
		c0,0,0,0-0.1,0.1v0.1v0.1c0,0.1,0,0.2,0,0.2c0,0.1-0.1,0.2-0.1,0.2c0,0.1-0.1,0.1-0.1,0.2S146,21,146,21.1c0,0.1,0,0.2-0.1,0.3
		l-0.1,0.6c0,0.1,0,0.3-0.1,0.5c0,0.2,0,0.3,0,0.5c0,0.1,0,0.1,0,0.2s0.1,0.1,0.1,0.1c0.1,0,0.1-0.1,0.2-0.1
		c0.1-0.1,0.1-0.1,0.2-0.1l0.3-0.3c0,0,0.1-0.1,0.2-0.1c0.1-0.1,0.1-0.1,0.1-0.1c0.3-0.2,0.6-0.4,0.9-0.6c0.2-0.2,0.5-0.4,0.8-0.6
		c0.2-0.2,0.4-0.3,0.6-0.5c0.2-0.2,0.4-0.3,0.6-0.5c0.2-0.2,0.3-0.3,0.5-0.5s0.4-0.3,0.5-0.5c0,0,0.1,0,0.1-0.1c0,0,0,0,0.1,0h0.1
		h0.1l-0.1,0.1l-0.1,0.1c0.2,0,0.3-0.1,0.4-0.1c0.1-0.1,0.2-0.1,0.3-0.2c0,0,0,0.1-0.1,0.1c0,0,0,0,0,0.1h0.1c0,0,0,0,0.1,0l0,0
		c0,0-0.1,0.1-0.1,0.3c0,0,0,0-0.1,0s0,0,0,0.1v0.1c0,0.1,0,0.1,0,0.2l-0.1,0.1l-0.1,0.1c0,0-0.1,0.1-0.1,0.2l-0.1,0.1
		c0,0,0,0.1-0.1,0.1c0,0.1-0.1,0.2-0.1,0.2c-0.1,0.1-0.2,0.2-0.2,0.3c-0.1,0.1-0.2,0.2-0.3,0.3l-0.1,0.1c0,0-0.1,0.1-0.1,0.2
		c-0.2,0.2-0.4,0.3-0.5,0.5c-0.2,0.2-0.3,0.3-0.5,0.5c-0.1,0.1-0.1,0.1-0.2,0.2c0,0.1-0.1,0.1-0.1,0.2c0,0-0.1,0.1-0.2,0.2l-0.1,0.1
		c0,0,0,0-0.1,0.1l-0.1,0.1c0,0-0.1,0-0.1,0.1l0,0h-0.1c0,0-0.1,0-0.1,0.1L148,24l0,0l0,0l0,0c0,0,0,0-0.1,0l-0.1,0.1c0,0,0,0,0,0.1
		h-0.1c-0.1,0.1-0.1,0.2-0.2,0.2c-0.1,0.1-0.2,0.1-0.2,0.2l-0.5,0.4c-0.4,0.2-0.8,0.4-1.2,0.5h-0.1c0,0,0,0,0,0.1l0,0h-0.1h-0.1
		c-0.2,0-0.3,0-0.4-0.2l-0.1-0.1c-0.1,0-0.2,0-0.3-0.1c-0.1,0.1-0.1,0.1-0.2,0.1c-0.3-0.4-0.5-1-0.6-1.5c0-0.1,0-0.2,0-0.3v-0.1
		c0,0,0-0.1-0.1-0.1c-0.1-0.3-0.1-0.6-0.2-0.9c-0.1-0.3-0.1-0.6-0.1-0.9c0-0.2,0-0.4,0-0.5c0-0.2,0.1-0.3,0.1-0.5s0.1-0.3,0.1-0.5
		s0.1-0.3,0.1-0.5c0.1-0.4,0.2-0.8,0.3-1.2c0.1-0.4,0.2-0.8,0.4-1.1c0-0.1,0.1-0.2,0.2-0.4c0-0.1,0.1-0.2,0.1-0.3s0.1-0.2,0.1-0.3
		v-0.1V16l0.1-0.1c0.2-0.2,0.3-0.4,0.4-0.7c-0.3,0.1-0.5,0.2-0.6,0.5l0,0l0,0l-0.1,0.1c-0.1,0.1-0.2,0.2-0.3,0.2
		c-0.2,0.2-0.4,0.3-0.5,0.4s-0.4,0.3-0.5,0.4l-0.1,0.1c0,0-0.1,0-0.1,0.1s-0.1,0.1-0.1,0.1c-0.2,0.2-0.3,0.4-0.5,0.5
		s-0.3,0.3-0.5,0.5s-0.4,0.4-0.6,0.5c-0.2,0.2-0.4,0.4-0.6,0.6l0,0l-0.1,0.1l-0.1,0.1c0,0.1,0,0.1,0,0.1s-0.1,0-0.1,0.1l0,0
		c0,0,0,0,0,0.1l0,0l0,0c-0.2,0.2-0.3,0.5-0.4,0.8c-0.1,0.3-0.2,0.6-0.3,0.9c0,0.1,0,0.2,0,0.2s-0.1,0.1-0.1,0.2l-0.1,0.1h-0.1
		c0,0.1-0.1,0.2-0.1,0.3c0,0.1-0.1,0.2-0.1,0.3c0,0.1,0,0.2,0,0.2l-0.1,0.1v0.1c0,0,0,0.1,0,0.2l-0.1,0.1c0,0,0,0.1,0,0.2
		s0,0.1,0,0.2s-0.1,0.2-0.1,0.3c-0.1-0.1-0.1-0.1-0.1-0.1l0,0l0,0l0,0c0,0.1-0.1,0.1-0.1,0.2s0,0.2,0,0.2l-0.1-0.1
		c-0.1,0.1-0.2,0.2-0.2,0.4c-0.1,0-0.1,0.1-0.1,0.2c-0.1,0-0.1,0-0.2,0c0,0,0-0.1-0.1-0.1s-0.1,0-0.1-0.1h-0.1l0,0l0,0l0,0l0,0
		c0,0-0.1,0-0.2-0.1c-0.1-0.1-0.1-0.2-0.1-0.3c0-0.1,0-0.2-0.1-0.3v-0.1v-0.1c0-0.1,0-0.1,0-0.2s0-0.1,0-0.2s0-0.2,0-0.3v-0.4
		c0-0.6,0.1-1.1,0.2-1.6c0.1-0.5,0.2-1,0.4-1.4c0.1-0.3,0.1-0.5,0.2-0.7c0-0.2,0.1-0.3,0.1-0.4c0-0.3,0.1-0.6,0.1-0.9
		s0.1-0.6,0.1-0.9l0,0l0,0c0,0,0,0,0-0.1s0.1-0.3,0.1-0.4s0-0.3,0.1-0.4c0-0.3,0.1-0.5,0.1-0.8s0.1-0.5,0.2-0.7
		c0-0.1,0.1-0.3,0.1-0.4s0-0.2,0.1-0.4c0.1-0.5,0.2-1,0.3-1.4s0.2-0.9,0.3-1.4c0-0.1,0-0.2,0-0.2l0,0c0.1-0.2,0.2-0.5,0.2-0.7
		s0.1-0.5,0.2-0.7c0.1-0.5,0.2-1,0.4-1.5c0.1-0.5,0.3-1,0.4-1.4c0.1-0.2,0.1-0.3,0.2-0.5s0.1-0.3,0.2-0.5l0.1-0.1c0,0,0-0.1,0.1-0.1
		l0.1-0.1c0,0,0,0,0-0.1s0,0,0-0.1c0.1-0.1,0.1-0.2,0.2-0.4c0.1-0.1,0.1-0.2,0.2-0.3c0.1-0.2,0.3-0.4,0.4-0.6s0.3-0.4,0.6-0.6l0,0
		l0,0c0,0,0,0,0.1,0c0,0,0,0,0.1,0s0.2,0,0.3,0s0.2,0,0.2-0.1C142.6,1.8,142.7,1.7,142.9,1.7z M139.7,16.5c0,0,0-0.1,0.1-0.1
		c0,0,0-0.1,0.1-0.1c0.1-0.2,0.3-0.4,0.4-0.6c0.1-0.2,0.2-0.4,0.3-0.6c0.1-0.3,0.3-0.6,0.4-0.9c0.1-0.3,0.2-0.6,0.3-0.9l0.1-0.1
		c0,0,0,0,0.1-0.1c0-0.1,0.1-0.2,0.1-0.3s0.1-0.2,0.1-0.3c0,0,0-0.1,0.1-0.2c0,0,0-0.1,0.1-0.1c0,0,0-0.1,0.1-0.2l0.3-0.6l0.1-0.4
		v-0.2c0,0,0-0.1,0.1-0.1c0-0.1,0.1-0.2,0.1-0.2c0-0.1,0-0.1,0.1-0.2c0-0.1,0.1-0.1,0.1-0.3c0.1-0.2,0.1-0.3,0.1-0.5
		s0.1-0.3,0.2-0.5c0-0.1,0-0.1,0.1-0.1c0-0.1,0-0.2,0.1-0.3c0-0.1,0-0.2,0.1-0.3c0.1-0.3,0.1-0.7,0.2-1s0.1-0.7,0.1-1.1
		c0-0.1,0-0.2,0-0.4c0-0.1,0-0.3,0-0.4V5.3V4.8l-0.1-0.7c0-0.2,0-0.3-0.2-0.4l-0.1-0.1V3.5c0,0,0,0,0-0.1s0-0.1-0.1-0.2h-0.1
		c-0.1,0-0.1,0.1-0.2,0.2c0,0.1,0,0.2-0.1,0.2c0,0.1-0.1,0.3-0.1,0.4s-0.1,0.2-0.1,0.4c0,0,0,0.1,0,0.2c0,0,0,0.1-0.1,0.2
		c0,0.2-0.1,0.3-0.1,0.3v0.1c0,0,0,0,0,0.1s0,0.1,0,0.2c0,0.1,0,0.1,0,0.1l-0.2,0.5l-0.1,0.3c0,0.1-0.1,0.1-0.1,0.1l-0.1,0.1
		c0,0,0,0.1-0.1,0.1c0,0,0,0.1-0.1,0.1l0,0v0.1l0,0c0,0,0,0,0,0.1v0.1c0,0,0,0,0,0.1l0,0l0,0v0.1v0.1v0.1v0.1c0,0.1,0,0.2-0.1,0.2
		c0,0.1,0,0.1,0,0.2c0,0.1,0,0.2,0,0.3v0.1v0.1c-0.1,0.2-0.2,0.4-0.2,0.7c0,0.1,0,0.2,0,0.3s-0.1,0.2-0.1,0.3s0,0.2-0.1,0.3
		c0,0.1-0.1,0.2-0.1,0.3s0,0.2-0.1,0.3c0,0.1,0,0.2-0.1,0.3s-0.1,0.2-0.1,0.3c0,0.2-0.1,0.5-0.1,0.7c-0.1,0.2-0.1,0.5-0.2,0.7
		c0,0.1,0,0.2,0,0.3s0,0.2-0.1,0.2v0.1v0.1c0,0.1,0,0.2-0.1,0.3c0,0.1,0,0.2-0.1,0.2c0,0,0,0.1,0,0.2c0,0,0,0,0,0.1v0.1
		c-0.1,0.2-0.1,0.4-0.2,0.7c-0.1,0.2-0.1,0.5-0.1,0.7s-0.1,0.3-0.1,0.3l0,0l0,0v0.1c0,0.1,0,0.1,0,0.2S139.8,16.4,139.7,16.5
		C139.6,16.6,139.6,16.6,139.7,16.5C139.6,16.6,139.7,16.5,139.7,16.5z"/>
</g>
</svg>
