<svg id="Layer_1" data-name="Layer 1" xmlns="http://www.w3.org/2000/svg" viewBox="0 0 712.13 237.78"><defs><style>.cls-1{fill:#0a2331;}</style></defs><title>Site-plan_v2</title><path class="cls-1" d="M223.62,280.53a5.17,5.17,0,0,1-1.87,1.52l-2.11,1.05-.7.7a51.69,51.69,0,0,1-10.88,4,49.62,49.62,0,0,0-10.41,3.74,5.44,5.44,0,0,0-3.86,2.57,6.26,6.26,0,0,1-3.86,2.81q-.24-.23-1.05,0a5,5,0,0,1-1.29.23q-3.28,1.4-5.61,2.46a38.69,38.69,0,0,1-5.85,2,66.89,66.89,0,0,0,1.64,8.89,37.6,37.6,0,0,1,1.17,9.12c0,.15-.12.31-.35.47a.78.78,0,0,0-.35.7,3.48,3.48,0,0,1-.23,1.29c-.16.39-.08.66.23.82a12.85,12.85,0,0,0-.7,5.5,28.29,28.29,0,0,1-.23,6.2,4.92,4.92,0,0,1-.94.35,2,2,0,0,0-.94.58.52.52,0,0,0-.12.58,2,2,0,0,1,.12.58,1.64,1.64,0,0,1-.7-.12,1.6,1.6,0,0,0-.7-.12.41.41,0,0,0-.47.47c0,.31-.23.39-.7.23a2.24,2.24,0,0,1,0,2,2.44,2.44,0,0,0-.23,1.75,35.85,35.85,0,0,0-2.11,3.86q-.94,2-2.11,4.33a4.18,4.18,0,0,1-1.17.47,5.27,5.27,0,0,1-2.11,2.22,3.8,3.8,0,0,0-1.64,3.16,7.36,7.36,0,0,0-1.17.94,3.25,3.25,0,0,1-1.64.7,9.52,9.52,0,0,1-1.17,2.92,6.76,6.76,0,0,0-.94,2.92.57.57,0,0,1-.7.35,1.3,1.3,0,0,0-.94.12,3.72,3.72,0,0,1-1.75,1.87,3,3,0,0,0-1.52,2.34.21.21,0,0,0-.23.24,3.11,3.11,0,0,0-2-.82,1.23,1.23,0,0,0-1.52,1.05,6.12,6.12,0,0,0-2.34,1.05,4.41,4.41,0,0,0-1.64,2.69c0,.15-.08.19-.23.12s-.16,0,0,.35a4.5,4.5,0,0,0-3,2,5.4,5.4,0,0,1-2.81,2.22,4.9,4.9,0,0,1-2.69-.35q-1.53-.59-2,1.05a2.48,2.48,0,0,0-2.46.35,12.38,12.38,0,0,1-2,1.29.29.29,0,0,1-.47,0,1,1,0,0,0-.7-.23q-.94,1.17-1.75.94a4.21,4.21,0,0,0-2,0,6.51,6.51,0,0,0-2.46,1.17q-.82.7-1.29.23a11.29,11.29,0,0,0-1.75.58,9.17,9.17,0,0,0-1.52.82,12.59,12.59,0,0,1-2.81.23,8.48,8.48,0,0,0-3.16,1.75,6.91,6.91,0,0,1-3.86,1.52c-.31,0-.39-.16-.23-.47s.15-.47,0-.47a19.86,19.86,0,0,1-3.51.47H101.5a9.5,9.5,0,0,0,1.17.47c.47.15.7.39.7.7a9.65,9.65,0,0,1-4.44.82,16.37,16.37,0,0,0-4.44.35,14.93,14.93,0,0,1-2.81-2.57q-1.17-1.4-2.11-2.57a9.51,9.51,0,0,1-4.21-2.69,11.16,11.16,0,0,1-2.57-4.09,7.41,7.41,0,0,0-.94-1.17,7.91,7.91,0,0,1-.94-1.17q-.93-1.87-1.75-3.39a6.87,6.87,0,0,1-.35-4.33q.47.7-.12-.7c-.39-.94-.43-1.25-.12-.94q.47,2.11.23,1.4c-.15-.47-.31-1-.47-1.64-.31-.31-.47-1.29-.47-2.92a25,25,0,0,1,.23-3.86,4.48,4.48,0,0,1,.23-1.4l.47-1.4a37.48,37.48,0,0,0,.58-4.68,7.22,7.22,0,0,1,1.52-4c-.47-.31-.62-.55-.47-.7s0-.39-.47-.7a1.66,1.66,0,0,0,1.17-1.64,38.32,38.32,0,0,1,5.62-8.19A78.91,78.91,0,0,1,94,326.62a58.38,58.38,0,0,1,6.32-5.5q3.27-2.46,6.78-5a2.34,2.34,0,0,0,1.4-.35,5.84,5.84,0,0,1,.94-.58,156.3,156.3,0,0,1,16.49-8.66q8.77-4,17.66-8.66a4.5,4.5,0,0,0-.58-3.51,16.38,16.38,0,0,1-1.52-3.51q-2.34-5.38-4.56-10.41t-4.09-9.71a74.91,74.91,0,0,1-6.43-11.81,78.83,78.83,0,0,1-4.33-13l-.47-.47a56.81,56.81,0,0,1-2.46-7,30.63,30.63,0,0,0-2.46-6.32,8.35,8.35,0,0,0-.47-3,23.55,23.55,0,0,1-.94-3v-.47q-.47-1.87-.94-3.28a10.28,10.28,0,0,1-.47-3.28v-8.19a32.34,32.34,0,0,0-.58-6.08,22.72,22.72,0,0,1-.35-6.08,17,17,0,0,1,.7-3,22.08,22.08,0,0,0,.7-2.57,12.62,12.62,0,0,0,.7-3,7.55,7.55,0,0,1,1.4-3.51,3.5,3.5,0,0,1,.47-3,10.49,10.49,0,0,0,1.4-3.28,14.46,14.46,0,0,0,.94-3q1.63-2.57,3-4.91a42.16,42.16,0,0,1,3.51-4.91,14.94,14.94,0,0,1,3.16-4.21,31.75,31.75,0,0,0,3.86-4.44,3.85,3.85,0,0,0,2.57-1.87,11.24,11.24,0,0,0,3.16-2.11A7.71,7.71,0,0,1,142,152.8a4.49,4.49,0,0,1,1.4-.23,2.6,2.6,0,0,0,1.17-.23,16.6,16.6,0,0,0,2.69-.82,17.2,17.2,0,0,1,2.69-.82,20.21,20.21,0,0,1,3-1.05,5.83,5.83,0,0,1,3,.12,14.65,14.65,0,0,1,6.67.12,33.93,33.93,0,0,1,5.38,2,42.36,42.36,0,0,1,4.8,2.69,17.23,17.23,0,0,0,4.91,2.22,5.25,5.25,0,0,1,2.81,2.34,21.35,21.35,0,0,0,1.87,2.81c.47.47,1,1,1.52,1.64a4.53,4.53,0,0,1,1.05,2.11,3.86,3.86,0,0,1,2.69,2.46,12.86,12.86,0,0,0,2,3.39,7.52,7.52,0,0,0,2.22,2.57,5.55,5.55,0,0,1,2,2.57,9.47,9.47,0,0,1,.35,3.28c-.08,1.09-.12,2.34-.12,3.74q0,3.28-.23,6a13.86,13.86,0,0,1-1.4,5,10.52,10.52,0,0,1-.94,1.87,5.13,5.13,0,0,0-.7,1.87q-.7,2.58-1.75,5.5a9.06,9.06,0,0,1-2.92,4.33,18.69,18.69,0,0,1-2.57,5.61,27.06,27.06,0,0,0-2.81,5.15,3,3,0,0,0-1.64,1.4,15.83,15.83,0,0,1-.94,1.64,4.16,4.16,0,0,1-1.05,1.4,5.1,5.1,0,0,0-1.05,1.17,2.06,2.06,0,0,0-.23.58,2.08,2.08,0,0,1-.23.58,9.39,9.39,0,0,1-1.4,2.34,7.91,7.91,0,0,1-1.64,1.64,6.13,6.13,0,0,1-3.16.7,4.9,4.9,0,0,1-3.16-.94h-1.4a12.6,12.6,0,0,1-2.34-2.57,17.35,17.35,0,0,1-1.87-3.28,10.56,10.56,0,0,1,1.05-4.56,4.49,4.49,0,0,1,2.92-2.69,15.17,15.17,0,0,0,4.21-4.68,25.16,25.16,0,0,1,4-5.15,13,13,0,0,1,2.57-4.21,42.88,42.88,0,0,0,1.87-4.8,16.91,16.91,0,0,1,2.34-4.56,20.94,20.94,0,0,0,.58-3.63,12.7,12.7,0,0,1,.82-3.63c0-.15.15-.39.47-.7a15.63,15.63,0,0,0,.47-2.46,22.42,22.42,0,0,0,.23-2.46,7.06,7.06,0,0,0-.7-1.75,6.44,6.44,0,0,1-.7-2,20.25,20.25,0,0,1-.58-3.63,4.43,4.43,0,0,0-1.29-2.92,2.86,2.86,0,0,1-1.87-2.11,5.89,5.89,0,0,0-1.4-2.57,19.67,19.67,0,0,0-3-2.81,11.67,11.67,0,0,0-4.21-2.34,7.86,7.86,0,0,0-1.87-.23,3.21,3.21,0,0,1-2.11-1.17q-.94,0-2.11.12a3.73,3.73,0,0,1-2.11-.35,9,9,0,0,1-1.4.35,11.68,11.68,0,0,1-1.87.12q-3,1.4-5.73,2.57a38.47,38.47,0,0,0-5.26,2.81,10.24,10.24,0,0,0-2.46,4.68,36.78,36.78,0,0,1-2,5.62,36.94,36.94,0,0,1-1.29,5,16.47,16.47,0,0,0-.82,5.26,10.68,10.68,0,0,0,.35,2.57,10.67,10.67,0,0,1,.35,2.57q.23,2.58.23,4.68a19.22,19.22,0,0,0,.47,4.21,2.05,2.05,0,0,0,.23.94,2.12,2.12,0,0,1,.23.94,1.34,1.34,0,0,1,.12.94,3.78,3.78,0,0,0-.12.94,18.91,18.91,0,0,0,2.11,6.55,11.1,11.1,0,0,1,1.17,6.78,6,6,0,0,1,.7,2.69,6.5,6.5,0,0,0,.47,2.46,11.48,11.48,0,0,0,1.52,4.8A16.35,16.35,0,0,1,149,230a3.31,3.31,0,0,1,.23,1.4,1.08,1.08,0,0,0,.7,1.17c0,.16,0,.23-.12.23s-.12.16-.12.47A15,15,0,0,1,151,236.2a7.27,7.27,0,0,0,1.75,2.92,19,19,0,0,0,1.52,5,20.75,20.75,0,0,1,1.52,4.33,3.9,3.9,0,0,1,.58,1.05,2,2,0,0,0,.82,1.05,4.2,4.2,0,0,0,.94,2.46,11.76,11.76,0,0,1,1.4,2.46,2.64,2.64,0,0,1,.23,1.17,2.58,2.58,0,0,0,.23,1.17q1.17,2.58,2.34,5.38t2.11,4.91a2.64,2.64,0,0,0,.58,1.05,1.12,1.12,0,0,1,.35.82,4.46,4.46,0,0,1,.94,2.57q.7,1.88,1.4,4.09t1.4,4.56l.23.23-.23.23a6.39,6.39,0,0,1,2.11,3.63,15.15,15.15,0,0,0,1.17,3.63,23.44,23.44,0,0,0,6.67-1.4q3.16-1.17,6.08-2.57t5.73-2.57a39.73,39.73,0,0,1,5.61-1.87q3-1.17,5.85-2.11l5.62-1.87a35.41,35.41,0,0,1,6.55-2.11q3.27-.7,6.55-1.17a2.23,2.23,0,0,0,2.34-.47,2.59,2.59,0,0,1,2.57-.47c.31,0,.58.23.82.7a2,2,0,0,0,.82.94,2.28,2.28,0,0,1-.82.58.54.54,0,0,0-.35.58c-.16.31-.08.39.23.23s.39-.08.23.23c-.31-.15-.47-.15-.47,0a.68.68,0,0,1-.23.47,10.9,10.9,0,0,1-3.63,1.52,9.15,9.15,0,0,0-2.92,1.05c-.31.31-.35.43-.12.35s.27,0,.12.12q-1.88.94-3.63,1.75a19.83,19.83,0,0,1-3.63,1.29c.15-.31.35-.43.58-.35s.43,0,.58-.35a27.27,27.27,0,0,0-11.7,4.68.82.82,0,0,0,.7.12.85.85,0,0,1,.7.12q-.47,1.17,1.17.94l3.28-.47a51.33,51.33,0,0,1,8-3.16A50.77,50.77,0,0,0,223.62,280.53ZM87.46,381.13q.23,0,0-.35c-.16-.24-.16-.35,0-.35a4.75,4.75,0,0,0-1.29-1.87,16.05,16.05,0,0,0-1.52-1.17,4.69,4.69,0,0,0,1.29,1.87A7.57,7.57,0,0,1,87.46,381.13ZM152,336q.47-1.64.82-2.81t.58-2.34a14.15,14.15,0,0,0-.35-4.91q-.59-2.11-1.52-4.68c-.31-1.25-.58-2.3-.82-3.16s-.51-2.07-.82-3.63a3.07,3.07,0,0,1-.47-1.29,15,15,0,0,0-.58-2,8.16,8.16,0,0,0-.82-1.64q-.47-.7-.7-.7a54.24,54.24,0,0,1-5.85,2.22,25.09,25.09,0,0,0-5.85,2.69h-.94q-1.64.7-3.16,1.4a11.24,11.24,0,0,0-3.16,2.34q-2.58,1.17-5.15,2.46t-5.38,2.92a105.75,105.75,0,0,1-9.24,6.08,25.42,25.42,0,0,0-8.07,7.49,72.35,72.35,0,0,0-7.72,9.12q-3.51,4.91-6.78,10.06a7.06,7.06,0,0,0-.82,5.61,13.1,13.1,0,0,1,.35,5.85q.93,0,1.52,2a3.27,3.27,0,0,0,2.22,2.46,7,7,0,0,0,1.87,1.29,14.91,14.91,0,0,1,1.64.58,5,5,0,0,1,1.75.23,12.36,12.36,0,0,0,1.52.47,13.8,13.8,0,0,0,3.28.47,8.74,8.74,0,0,1,2.81.47,11.1,11.1,0,0,0,7.72-.82,33,33,0,0,1,6.55-2.69q4.21-3,8.31-6.08a89.12,89.12,0,0,0,7.6-6.32A64.35,64.35,0,0,0,144,349.31,36.77,36.77,0,0,0,152,336Z" transform="translate(-77.87 -149.43)"/><path class="cls-1" d="M228.3,235.38h1.4q1.17.24,1.87.35a9.79,9.79,0,0,0,1.64.12,5.73,5.73,0,0,1,1.87,1.4,3.45,3.45,0,0,1,1.05,2.11c.08.78.19,1.64.35,2.57a4.49,4.49,0,0,1,.23,1.4,2.59,2.59,0,0,0,.23,1.17c.47.47.7.78.7.94q1.63,1.88,1.64,5.85v1.52a3,3,0,0,1-.23,1.29c-.16.16-.23.27-.23.35s-.08.2-.23.35c-.31.31-.47.55-.47.7V256a.21.21,0,0,0-.23.23v.7c-.16,0-.23.16-.23.47-.31.31-.39.47-.23.47a1,1,0,0,1-.23.7.68.68,0,0,0-.23.47.38.38,0,0,0-.12.47.39.39,0,0,1-.12.47,3.61,3.61,0,0,1-.35,1.64,7.94,7.94,0,0,0-.58,1.64,2.6,2.6,0,0,0-.23,1.17,4.06,4.06,0,0,0-.47,1.17,3.71,3.71,0,0,0-.58,1.64q-.12.94-.35,2.11a3.47,3.47,0,0,1-.23,1.29c-.16.39-.31.74-.47,1.05a4.09,4.09,0,0,0-.35,1.17,4.31,4.31,0,0,1-.35,1.17,25.74,25.74,0,0,1-1.29,4.68q-.82,2.11-1.75,4.21-1.88,4-3.28,6.78a37.4,37.4,0,0,0-2.57,7.49.93.93,0,0,1-.12.58.92.92,0,0,0-.12.58,1.3,1.3,0,0,0-.12.94,1.34,1.34,0,0,1-.12.94,8.19,8.19,0,0,1-2,4.21q-1.52,1.64-.82,4.68h3.28c.15,0,.39-.15.7-.47a9.29,9.29,0,0,0,2.81-1.29q1.17-.82,2.34-1.75A6,6,0,0,0,231,304.4c.39-.47.74-.86,1.05-1.17a27.08,27.08,0,0,0,2.57-2.11,44.77,44.77,0,0,1,4.45-3.28,21.26,21.26,0,0,0,4.21-3.74l1.17-1.17c.62-.47,1.25-1,1.87-1.52a14.41,14.41,0,0,1,2.11-1.52,20.66,20.66,0,0,1,2.46-2.11q1.28-.93,2.69-1.87a6.66,6.66,0,0,1,1.4-1.17,18.76,18.76,0,0,0,3.74-3.28,36.87,36.87,0,0,1,3.51-3.51,7.23,7.23,0,0,0,.82-.47,1.45,1.45,0,0,1,.82-.23h.7a9.22,9.22,0,0,0,2.34-.82,4.72,4.72,0,0,1,2.81-.35,1.89,1.89,0,0,1-.35,1.17c-.23.31-.2.7.12,1.17a24.41,24.41,0,0,0-3,3.74.48.48,0,0,1-.12.35.47.47,0,0,0-.12.35,2.83,2.83,0,0,0,.23,1.05,1.85,1.85,0,0,1,0,1.29c0-.15-.16.08-.47.7-.31.31-.47.55-.47.7a8.7,8.7,0,0,1-.94,1.52,8.57,8.57,0,0,0-.94,1.52,9.86,9.86,0,0,1-.94,1.4,24.81,24.81,0,0,0-2.11,2.92,14.58,14.58,0,0,1-2.11,2.69,6,6,0,0,1-1.17,1.29c-.47.39-.86.74-1.17,1.05a21.22,21.22,0,0,0-3.74,3.74c-.16.16-.23.27-.23.35s-.08.2-.23.35q-.7.7-1.52,1.4a7.07,7.07,0,0,1-2,1.17,5.5,5.5,0,0,1-.94,1.4l-.7.7a3.46,3.46,0,0,1-1.64.94,3.34,3.34,0,0,1-.7.58,3.38,3.38,0,0,0-.7.58,17.32,17.32,0,0,0-1.4,1.05c-.47.39-.94.82-1.4,1.29l-7.49,6.55a66,66,0,0,1-8.19,6.08,6,6,0,0,1-.82.7,3.5,3.5,0,0,0-.58.47h-1.17a8,8,0,0,0-2.34,1.17c-.31,0-.47.08-.47.23-.16,0-.23,0-.23-.12s-.16-.12-.47-.12a14.31,14.31,0,0,1-4.21,1.17h-1.17a5,5,0,0,1-3-1.4l-.82-.82-.82-.82a8.69,8.69,0,0,1-1.64-2.81.67.67,0,0,1-.23-.47,1.83,1.83,0,0,0-.23-.7,7.28,7.28,0,0,0-1.52-2.57,7,7,0,0,1-1.52-2.81,2.87,2.87,0,0,1-.47-1.64,7.79,7.79,0,0,0-.23-1.87,7.66,7.66,0,0,1-.23-1.87,7.85,7.85,0,0,0-.23-1.87v-2.81q.23-2.34.47-4.56t.7-4.56q.47-2.34.7-4.44a40.86,40.86,0,0,0,.23-4.45v-2.34a11.81,11.81,0,0,1,.23-2.34q.7-3.27,1.4-6.2t1.64-5.73a9.1,9.1,0,0,0,.58-2,5.73,5.73,0,0,1,.58-1.75A9.19,9.19,0,0,0,210,266q.23-.93.47-2.11a7.34,7.34,0,0,1,.47-2.11q1.87-4.68,3.63-9.36t3.16-9.83a1.36,1.36,0,0,0,.23-.94l.7-.7a9.19,9.19,0,0,0,1.29-1.64,3.77,3.77,0,0,1,1.52-1.4.68.68,0,0,1,.47-.23.83.83,0,0,0,.7-.7h.94a1,1,0,0,0,.7-.23,15.86,15.86,0,0,0,2-.94A4,4,0,0,1,228.3,235.38Zm-24.1,80.95a.68.68,0,0,0-.23-.47C204,316.33,204,316.48,204.2,316.33Zm32.05-88.43a1.86,1.86,0,0,1-1.52-1.29,1.45,1.45,0,0,0-1.52-1.05,1.79,1.79,0,0,0-.82,1.29c-.08.55-.27.82-.58.82a2.5,2.5,0,0,1-.47-1.4,1.6,1.6,0,0,0-.47-1.17c-.47.16-.74.39-.82.7a2.08,2.08,0,0,1-.58.94h-.94a5.38,5.38,0,0,0-.82-2.22,6,6,0,0,1-.82-2.69,6.43,6.43,0,0,0-.82-2.34,4.32,4.32,0,0,1-.58-2.34,10.83,10.83,0,0,1,1.87-7.49A14.63,14.63,0,0,1,233,204.5c.31,0,.47-.31.47-.94a21.36,21.36,0,0,1,3.28-.58,11.83,11.83,0,0,0,2.81-.58q1.4.7,2.57,1.4a12.43,12.43,0,0,1,2.34,1.87,11.78,11.78,0,0,1,1.29,5.73,17.51,17.51,0,0,1-.82,6.43,15.27,15.27,0,0,1-1.64,4.91,6,6,0,0,1-1.75,1.52,25.16,25.16,0,0,1-2.22,1.29,1.55,1.55,0,0,0-.94.35,4,4,0,0,1-1.4.58c-.31,0-.43.16-.35.47A1,1,0,0,1,236.25,227.9Z" transform="translate(-77.87 -149.43)"/><path class="cls-1" d="M303.86,170.81h.7a2.79,2.79,0,0,1,1.87,1.4l.7.7h.47a1.5,1.5,0,0,1,1.17.94,2.88,2.88,0,0,0,.7,1.17,9.32,9.32,0,0,1,.82.94,8.15,8.15,0,0,0,.82.94,2.44,2.44,0,0,0,.35.58,2.92,2.92,0,0,1,.35.58,4.18,4.18,0,0,1,.47,1.17,1.62,1.62,0,0,1-.12.7,1.61,1.61,0,0,0-.12.7,25.55,25.55,0,0,0-.35,5.62,23.19,23.19,0,0,1-.35,5.38,1,1,0,0,1-.12.47,1,1,0,0,0-.12.47,2.32,2.32,0,0,0-.23,1.05,2.34,2.34,0,0,1-.23,1.05,7.18,7.18,0,0,1-.23,2.11,60.64,60.64,0,0,1-1.17,6.08q-.7,2.81-1.64,5.62-.7,1.87-1.29,3.63T305,215.73a23.5,23.5,0,0,0-1.05,3.63,14.57,14.57,0,0,1-1.29,3.63c0,.16,0,.23.12.23s.12.08.12.23a5,5,0,0,0-.94,1.87q4.91-.23,10.06-.35a81,81,0,0,1,9.83.35c.15,0,.19,0,.12.12s0,.12.12.12a3.78,3.78,0,0,0,.94-.12,1.34,1.34,0,0,1,.94.12.49.49,0,0,1,.35.12.46.46,0,0,0,.35.12,1.57,1.57,0,0,0,1.05.12,1.62,1.62,0,0,1,1.05.12v.47h.7a4.14,4.14,0,0,1-1.87.47h-.94a22.35,22.35,0,0,1-2.57.35c-.94.08-1.87.12-2.81.12v.47a1.45,1.45,0,0,0-.82.23c-.23.16-.51.08-.82-.23a1.45,1.45,0,0,1-1.64.47c-.78-.15-1.25,0-1.4.47h.94a.21.21,0,0,1,.23-.23.54.54,0,0,1,.58.35.54.54,0,0,0,.58.35l.47-.23a1.07,1.07,0,0,1,.47.12,1,1,0,0,0,.47.12,8.08,8.08,0,0,0,3-.12,7.06,7.06,0,0,1,2.81-.12,6.13,6.13,0,0,1-2.22.58c-.86.08-1.75.12-2.69.12a4.07,4.07,0,0,0-1.64-.23c-.31.16-.47.35-.47.58s-.16.27-.47.12c0,.47-.08.7-.23.7s-.2-.08-.12-.23,0-.23-.12-.23v.7c-1.09,0-1.72-.23-1.87-.7a1.65,1.65,0,0,1-1.87,1.05,4.4,4.4,0,0,0-2.34.35c-.16,0-.23,0-.23-.12s-.08-.12-.23-.12-.23,0-.23.12-.08.12-.23.12h-1.64a.38.38,0,0,0-.35.23.38.38,0,0,1-.35.23,4.62,4.62,0,0,1-2.11.47,2.28,2.28,0,0,0-1.64.47,1.84,1.84,0,0,0,1.17.23,1.6,1.6,0,0,0,.7-.12.85.85,0,0,1,.7.12c0,.16-.08.2-.23.12s-.23,0-.23.12a4.14,4.14,0,0,0-1.17.58,1.21,1.21,0,0,1-1.17.12.21.21,0,0,1-.23.23.21.21,0,0,0-.23.23l-1.75.47a7.3,7.3,0,0,1-2,.23,65.43,65.43,0,0,1-2.22,7.49q-1.29,3.51-2.69,7a10.61,10.61,0,0,0-.35,1.29,11.61,11.61,0,0,1-.35,1.29q-.24.7-.7,2.57v3.51a2.6,2.6,0,0,1-.12.82,2.54,2.54,0,0,0-.12.82,1.64,1.64,0,0,1-.12.7,1.6,1.6,0,0,0-.12.7v.7a4.26,4.26,0,0,1-.82,2.69,8.08,8.08,0,0,0-1.29,2.46l-.7,2.81-.47,1.4a2.73,2.73,0,0,1-.47.7.68.68,0,0,0-.23.47,5.94,5.94,0,0,0-.47,2.22,6,6,0,0,1-.47,2.22,4.1,4.1,0,0,1-.47,1.17,12.17,12.17,0,0,0-.7,2.57,12.53,12.53,0,0,1-.7,2.57,39.63,39.63,0,0,1-1.17,4.8q-.7,2.23-1.4,4.33a4.07,4.07,0,0,0-.47,1.17v.7a4.77,4.77,0,0,1-.82,2.81,4.22,4.22,0,0,0-.58,3,4,4,0,0,0-.82,1.87,8.8,8.8,0,0,1-.58,2.11,6.51,6.51,0,0,1-.58,1.29,6.33,6.33,0,0,0-.58,1.29v1.17l-.7.7a.92.92,0,0,1-.12,1.29,1.18,1.18,0,0,0-.35,1.29c-.31.31-.47.54-.47.7a2.59,2.59,0,0,0-.23,1.17v1.17a9.39,9.39,0,0,0,.23,2.57.38.38,0,0,1-.35-.23q-.12-.24-.35,0c0,.31.31.47.94.47a1.92,1.92,0,0,0,2-.82,16.73,16.73,0,0,1,1.29-1.52l1.4-1.4a8.58,8.58,0,0,0,.82-.47,6.89,6.89,0,0,1,.82-.47q1.87-1.17,3.51-2.34t3-2.34q3.27-2.57,6.43-4.8t6.43-4.8q1.63-1.17,3.28-2.46t3-2.46a24.14,24.14,0,0,0,3-2.57,24.19,24.19,0,0,1,3-2.57q1.4-1.4,2.81-2.69t3-2.69l2.92-2.46a29.53,29.53,0,0,1,3.39-2.46c-.16.78.31,1.17,1.4,1.17a5.07,5.07,0,0,0-.7,1.75,2.89,2.89,0,0,0,.23,2A5.25,5.25,0,0,0,329,283a6.66,6.66,0,0,1,1.29-.12c.15.16.27.23.35.23s.19.08.35.23a.46.46,0,0,1-.35-.12.49.49,0,0,0-.35-.12c0,.16.08.2.23.12s.23,0,.23.12a10.2,10.2,0,0,1-1.52,2,5.82,5.82,0,0,1-2,1.29,40.9,40.9,0,0,1-3.86,4.21,27.15,27.15,0,0,0-3.63,4.21,10.83,10.83,0,0,1-1.64,2.11L316,299.25l-1.4,1.4a15.5,15.5,0,0,0-1.4,1.64l-.47.47c-.16.16-.23.27-.23.35s-.08.2-.23.35a1.85,1.85,0,0,1-.47.35,1.26,1.26,0,0,0-.47.58q-4,3.28-8.19,6.32T295,317a1.92,1.92,0,0,1-.7,1.17c-.62.62-1.09.94-1.4.94a3.69,3.69,0,0,1-.94,1.4,3.19,3.19,0,0,1-2.34.94c-.16.31-.12.47.12.47s.35.08.35.23c-.16.15-.27.23-.35.23s-.2.08-.35.23c-.16-.16-.55-.08-1.17.23l-.47.47a.21.21,0,0,0,.23.23c.15,0,.23.15.23.47q0,.23-.35.35a1.43,1.43,0,0,0-.58.35,23.27,23.27,0,0,1-3.63,1.87,16,16,0,0,0-3.39,1.87,1.92,1.92,0,0,1-1.17.7h-.7q-.94.23-1.64.47c-.47.15-1,.31-1.64.47h-1.64c-.31.31-.55.47-.7.47h-.94a7.34,7.34,0,0,0-2.11.47h-.23a1.75,1.75,0,0,1-.94-.58,7.23,7.23,0,0,1-.47-.82,3,3,0,0,0-1.17-1.05,1.31,1.31,0,0,1-.7-1.29q-.94.93-1.4,0v.47a.75.75,0,0,1-.7-.47,1.49,1.49,0,0,0-.94-.7l-.23-.47v-1.64l-.47-.47v-.94a9.57,9.57,0,0,0-.94-4.68c0-.16-.16-.39-.47-.7a9.87,9.87,0,0,0-.47-1.64,28.94,28.94,0,0,1-.7-4.33,26.9,26.9,0,0,1,0-5q.23-2.11.35-4.33t.35-4.33a13.88,13.88,0,0,1,.23-3,7.35,7.35,0,0,1,.47-2.11,111.88,111.88,0,0,0,1.64-14.74v-2.57a7.7,7.7,0,0,0,.47-1.87,16.17,16.17,0,0,0,.58-3.16,15.69,15.69,0,0,1,.58-3.16,10.71,10.71,0,0,1,.35-2.57c.23-.94.43-1.79.58-2.57q.47-2.57,1.05-5.26t1.05-5.5a7.21,7.21,0,0,0,.47-2.69,13.77,13.77,0,0,1,.23-2.69,7.09,7.09,0,0,1,.47-.82,8.18,8.18,0,0,0,.47-.82,1.35,1.35,0,0,1,.23-.94,2.15,2.15,0,0,0,.23-1.64q.7-1.87,1.4-3.86a35.72,35.72,0,0,0,1.17-4.09,1,1,0,0,0-.7.23c-.16-.15-.23-.15-.23,0a1.07,1.07,0,0,0-1.17-.23,2.15,2.15,0,0,1-1.4,0,1.58,1.58,0,0,1-.7-.12,1.66,1.66,0,0,0-.7-.12,2.63,2.63,0,0,0-.82.12,2.52,2.52,0,0,1-.82.12c-.78-.31-1.17-.23-1.17.23a.41.41,0,0,0,.47.47,4.74,4.74,0,0,1-2.57.94c.15-.15.23-.27.23-.35s.08-.19.23-.35v-.7a.41.41,0,0,1-.47.47c-.31,0-.47.08-.47.23h-.47c.15,0,.12.08-.12.23a1.13,1.13,0,0,1-.58.23.66.66,0,0,1-.47-.23l.23.47a.94.94,0,0,1-.23-.7c-.31.16-.47.35-.47.58s-.16.43-.47.58c-.16-.15-.16-.23,0-.23a.21.21,0,0,0,.23-.23,1.8,1.8,0,0,1-.7.23,1.83,1.83,0,0,0-.7.23.68.68,0,0,0-.47.23.29.29,0,0,1-.47,0c0-.15,0-.23.12-.23s.12-.08.12-.23a3.67,3.67,0,0,0,2.57-1.87,1.35,1.35,0,0,0-.94.47c-.16,0-.2,0-.12-.12s0-.12-.12-.12a2.91,2.91,0,0,1-1.29.23c-.55,0-.9.16-1.05.47-.16,0-.23-.15-.23-.47a2.67,2.67,0,0,0-.58.35,2.55,2.55,0,0,1-.58.35c-.31-.15-.7,0-1.17.47-.31-.15-.43-.35-.35-.58s0-.43-.35-.58v.23a.47.47,0,0,1-.35-.12.48.48,0,0,0-.35-.12c-.31.31-.54.47-.7.47a.41.41,0,0,1,.47-.47.41.41,0,0,0,.47-.47.76.76,0,0,1-.94.23c.31-.31.47-.39.47-.23a1.35,1.35,0,0,1-.94-.47,7.14,7.14,0,0,1,2.46-2.57,19.72,19.72,0,0,1,3.39-1.64.92.92,0,0,0,.58-.12c.08-.08.27,0,.58.12,0-.31.08-.47.23-.47a2.6,2.6,0,0,0,1.17-.23c.31-.15.66-.31,1.05-.47s.74-.31,1.05-.47c.62,0,.94-.15.94-.47a.9.9,0,0,0,1.05.23c.39-.15.74-.31,1.05-.47q2.57-.47,5-1.17t5-1.17q1.17-3.27,2.22-6.9t2.22-7.14q1.17-3.27,2.57-6.78t2.57-6.78q1.87-4.91,4-9.83a41.42,41.42,0,0,1,5.15-8.89,5.74,5.74,0,0,1,2.11-2.57,8.25,8.25,0,0,1,2.34-2.34,1.83,1.83,0,0,1,.7-.23,1.79,1.79,0,0,0,.7-.23,18.58,18.58,0,0,0,2-1.17A6.16,6.16,0,0,1,303.86,170.81ZM261,234.91h0Zm12.87,93.81a.21.21,0,0,0,.23-.23h-.47A.21.21,0,0,0,273.92,328.73Zm1.64-10.06q.47.23.7,0a2.56,2.56,0,0,1,.7-.47C276,318.2,275.55,318.35,275.55,318.67Z" transform="translate(-77.87 -149.43)"/><path class="cls-1" d="M343.63,289.66a2.79,2.79,0,0,0-2.11-.47,1.27,1.27,0,0,0-.94.58q-.47.59-1.4-.35c-.16,0-.16,0,0-.12s.15-.19,0-.35a7.43,7.43,0,0,0-1.17.12c-.47.08-.78,0-.94-.12a3.14,3.14,0,0,0-2.34,2.69,5.8,5.8,0,0,1-1.87,3.39,9.86,9.86,0,0,1-1.29,3.74,12.58,12.58,0,0,0-1.52,3.74,8.19,8.19,0,0,1-1.05,2.22q-.35.35-.12,2.22,0,1.64,1.29,1.64a8.55,8.55,0,0,1,2.69.47,1.78,1.78,0,0,0,1.29,0,3.39,3.39,0,0,1,1.75,0,25.34,25.34,0,0,0,4.91-1.4,29.42,29.42,0,0,1,4.44-1.4,42.69,42.69,0,0,0,9.59-3.51,72.84,72.84,0,0,1,9.12-4,11.92,11.92,0,0,0,3-1.64q2.11-1.4,4.56-2.92t4.45-3q2-1.52,2.46-2l6.55-4.91a28.74,28.74,0,0,0,3.63-2.69q1.75-1.52,3.63-3.39c0-.47.31-.39.94.23v.47a8.62,8.62,0,0,0,2.11.23q.7,1.17,0,.7t.23-.94a.46.46,0,0,0,.23.7c.31.16.39.31.23.47q-.7.7-.35,1.05a2.68,2.68,0,0,1,.58,1.05q-2.11,2.58-3.86,4.68t-3.63,4.68a5,5,0,0,1-1.75,1.52,4.83,4.83,0,0,0-1.52,1.05,13.55,13.55,0,0,1-4.09,4.45,21.31,21.31,0,0,0-4.56,4q-.94.7-3.39,2.34t-5,3.51q-2.58,1.88-4.91,3.51t-3,2.11q-3.28,1.63-6.2,2.92t-6.43,2.69a8.75,8.75,0,0,0-2.81.47q-1.4.47-3,1.17-1.17-.24-1.4,0a1.16,1.16,0,0,0-1.17.23,1.92,1.92,0,0,1-1.4.47h-1.4a6.06,6.06,0,0,0-4.09.82,4.77,4.77,0,0,1-4.09.35,3.32,3.32,0,0,1-2.46-.58,3.43,3.43,0,0,0-2.92-.35c0-.31.08-.47.23-.47s.23-.16.23-.47a.84.84,0,0,1-.94-.12.64.64,0,0,0-.94.12c-.31-.31-.35-.51-.12-.58a.54.54,0,0,0,.35-.58,11.24,11.24,0,0,1-3.74-4.45Q317,313,315.79,310a10.66,10.66,0,0,0-.23-2.81,9.85,9.85,0,0,1-.35-1.4c-.08-.47-.15-1.05-.23-1.75s-.12-1.91-.12-3.63a43.26,43.26,0,0,1,1.4-7.37l2.11-7.14a15,15,0,0,0,1.52-2.92,7.61,7.61,0,0,1,1.75-2.69,103.47,103.47,0,0,1,8.54-16.61Q335,256.2,340.36,249a28.24,28.24,0,0,1,2.69-6,48.36,48.36,0,0,1,3.39-4.8q1.63-1.63,3-3.16a15.92,15.92,0,0,1,3.28-2.69,1,1,0,0,0-.23-.7q1.4-.47,2.46-.94a3,3,0,0,0,1.52-1.4,8.8,8.8,0,0,1,3.51-.7,5,5,0,0,1,2.81-.12,19,19,0,0,0,2.81.58c0,.16.15.39.47.7a1.6,1.6,0,0,1,1.17.47,2.8,2.8,0,0,1,1.87,1.4,6.71,6.71,0,0,0,2.11,2.11c0,.31.08.47.23.47s.08.23-.23.7a21,21,0,0,1,2.57,3.86,11,11,0,0,0,2.57,3.39q.47,1.64.82,3.16a7.52,7.52,0,0,1,.12,2.92,4.59,4.59,0,0,1,.23,3.74,1.42,1.42,0,0,0-.35,1.29,2.13,2.13,0,0,1-.35,1.52q-.47,2.11-.7,4a12.64,12.64,0,0,1-.7,3L375,263a19.33,19.33,0,0,0-1.4,2.92,20.93,20.93,0,0,1-5.15,7.37q-2.11,1.88-3.51,3.28c-.63.78-1.05,1.29-1.29,1.52a2.27,2.27,0,0,1-1.52.35l-1.52,1.52a5.8,5.8,0,0,1-1.52,1.05,2.11,2.11,0,0,0-1.87,1.17,3.79,3.79,0,0,1-1.87,1.64,2.56,2.56,0,0,1-.7-.47l-1.4.7c-.31.16-.86.39-1.64.7a1.82,1.82,0,0,0-.7.23,4.6,4.6,0,0,0-2.46,1.52,3.3,3.3,0,0,1-2,1.29c0-.15-.08-.15-.23,0Zm19-40,.7.23a13.9,13.9,0,0,0-4.45,2.57,32.55,32.55,0,0,0-3.28,3.28q0,.24-.7.7c-.47.31-.7.62-.7.94a26.65,26.65,0,0,0-3.63,6.2,10.43,10.43,0,0,1-4.33,5,21.42,21.42,0,0,1-1.4,3.16,17.32,17.32,0,0,0-1.4,3.39q-1.88,6.09-3.16,7.37a7.61,7.61,0,0,0-1.75,2.46q3.74-3.51,7.25-7.25a26.06,26.06,0,0,0,4-3.28q1.87-1.87,4-4.45a9.59,9.59,0,0,0,2.46-1.52q1.28-1.05,2.22-2a7.79,7.79,0,0,0,.94-1.17q.47-.7,1.17-1.64a2.56,2.56,0,0,1,1.29-1.52,1.14,1.14,0,0,0,.82-1.05,23,23,0,0,1,1.17-2.46,16.67,16.67,0,0,0,1.17-2.69c-.16.16-.35-.12-.58-.82s-.47-1.44-.7-2.22-.43-1.52-.58-2.22S362.73,249.65,362.58,249.65Z" transform="translate(-77.87 -149.43)"/><path class="cls-1" d="M499.2,320.07c-.16,0-.23,0-.23-.12s-.08-.12-.23-.12q-.7,2.81-3.28,2.81a4.7,4.7,0,0,1-1.87,3,.77.77,0,0,1-.94-.23c-.31.15-.47.54-.47,1.17a8.3,8.3,0,0,0-1.64,1.05l-1.87,1.52c0-.16-.16-.39-.47-.7a3,3,0,0,0-2,.7,2.66,2.66,0,0,1-1.75.7c-.31,0-.47.08-.47.23a.69.69,0,0,1-.23.47h-.7a14.35,14.35,0,0,1-3.39,2.34,7,7,0,0,1-4.09.94,3.94,3.94,0,0,0-2.11.12,2.78,2.78,0,0,1-2.11-.12,1,1,0,0,0,.47-.94,4.28,4.28,0,0,1-2-.94,4.28,4.28,0,0,0-2-.94,2.25,2.25,0,0,1,.82-.58c.23-.08.43-.35.58-.82.15-.31.19-.43.12-.35s-.12,0-.12-.35c-.31.47-.62.58-.94.35s-.55-.27-.7-.12c-.16,0-.23-.23-.23-.7h-.94c-.47-1.4-.86-2.19-1.17-2.34,0-.31,0-.47-.12-.47s-.12-.16-.12-.47a1,1,0,0,1-.82-.58c-.23-.39-.74-.58-1.52-.58a6.75,6.75,0,0,0-1.29,3,16.76,16.76,0,0,1-1.05,3.51,3.49,3.49,0,0,1-.23,1.29,3.24,3.24,0,0,0,0,1.75,55.35,55.35,0,0,1-2.34,12.75q-1.88,6-3.28,11.81-.47,1.4-1.05,2.81a12.81,12.81,0,0,0-.82,3.51,1.76,1.76,0,0,0-.82.94,2.12,2.12,0,0,1-.58.94v.7c-.31.15-.47.31-.47.47s-.16.23-.47.23a18.08,18.08,0,0,1-.94,3.16,10.32,10.32,0,0,1-1.17,2,23.89,23.89,0,0,0-1.4,2.11,18.82,18.82,0,0,0-1.4,3,1.26,1.26,0,0,0-.58.47,1.85,1.85,0,0,1-.35.47q-1.17,1.4-1.87,1.29a2.8,2.8,0,0,1-1.29-.58c-.39-.32-.82-.63-1.29-.94s-1.09-.23-1.87.24a.94.94,0,0,0-.47.93,2.5,2.5,0,0,1-.47,1.41q-.47.47-.94-.35c-.31-.55-.47-.58-.47-.12-.31.15-.47.12-.47-.12a.78.78,0,0,0-.23-.58,3.41,3.41,0,0,1-.7.58c-.15.08-.31.43-.47,1.05-.15,0-.19-.12-.12-.35s0-.35-.12-.35a.8.8,0,0,0-.23.58,1.28,1.28,0,0,1-.47.82,3.84,3.84,0,0,1-.58-2.22c-.08-1.17-.27-1.83-.58-2a2.35,2.35,0,0,0-.23,1.05,4.08,4.08,0,0,1-.23,1.29c-.31-.31-.39-.58-.23-.82a1.43,1.43,0,0,0,.23-.82q-.7,0-.7-1.41a.68.68,0,0,0-.23.47v-.23c-.15.15-.19-.08-.12-.7s.12-.86.12-.7c-.15,0-.23-.23-.23-.7a1.27,1.27,0,0,0-.35,1.17,1.25,1.25,0,0,1-.35,1.17,1.33,1.33,0,0,0-.47-.94q-.47-3,0-4a15.39,15.39,0,0,0,.94-3.74c.31-1.09.47-1.68.47-1.75a5.8,5.8,0,0,1,.47-1.05q1.64-8.19,3.28-15.79T437.68,335q1.17-4.21,2-8.54t2-8.77q1.4-5.62,2.81-11.58t2.81-11.81q1.87-8.19,4-16.84T455,259.95a86,86,0,0,0,1.64-10.76q.47-5.38,1.17-10.76a38.29,38.29,0,0,0,.7-4.44,36.89,36.89,0,0,1,.7-4.44v-1.29a1.45,1.45,0,0,1,.47-1.05l.47-.94a9.53,9.53,0,0,0,.47-1.17,2.35,2.35,0,0,0,.58-1.4,1.88,1.88,0,0,1,.82-1.4,5.87,5.87,0,0,1,.7-2.34q.47-.7,1.17-1.64h.47v-.23a6.14,6.14,0,0,1,4.91-3.16,20.62,20.62,0,0,1,5.85.12,2.24,2.24,0,0,0,1.17.94,2.27,2.27,0,0,1,1.17.94,5.07,5.07,0,0,1,2.92,1.87q1.05,1.4,2,2.81a6.34,6.34,0,0,1,.94,1.29,4,4,0,0,1,.47,2,3.93,3.93,0,0,1,.23,1.87q.23,2.11.47,4.56a16.53,16.53,0,0,1-.23,4.8q-.94,4.68-2.11,9.36t-2.34,8.89a1,1,0,0,1,.94.47,2.48,2.48,0,0,0,1.52-1.4,19.38,19.38,0,0,1,.82-1.87,40.12,40.12,0,0,1,3-3.16,15,15,0,0,0,2.57-3.16,73.47,73.47,0,0,0,6.55-5.85,21.57,21.57,0,0,1,7.49-4.91,1.3,1.3,0,0,0,.24,1.64,22,22,0,0,1,7.6-1.05,14.82,14.82,0,0,1,6.67,1.52,1.86,1.86,0,0,0,.82.23.8.8,0,0,1,.58.23,8.2,8.2,0,0,0,.94.82,9.45,9.45,0,0,1,.94.82,2.25,2.25,0,0,0,.82.58,1.54,1.54,0,0,1,.58.35.7.7,0,0,1,.23.47.66.66,0,0,0,.23.47c.62.62.94.86.94.7v.7a3.81,3.81,0,0,1,.7.94,4.41,4.41,0,0,1,.47,2,15,15,0,0,0,.23,2.46,6.74,6.74,0,0,0,.47.82.78.78,0,0,1,0,.82v-.23c0,.94-.08,2.26-.24,4s-.31,3.2-.47,4.44c.15,0,.23-.15.23-.47a.91.91,0,0,1,.23,1.05c-.16.39-.31.58-.47.58q-.23.47.12.35c.23-.08.27,0,.12.35a1,1,0,0,0-.12.82c.08.23,0,.27-.35.12,0,.31,0,.47.12.47s.12.16.12.47c-.16,0-.31.23-.47.7h.23c.15,0,.19.16.12.47a3.77,3.77,0,0,0-.12.94c-.16.31-.16.35,0,.12s.23-.19.23.12a32.84,32.84,0,0,1-1.87,7.72,33.16,33.16,0,0,0-1.87,8.19c.31,0,.5-.31.58-.94s.27-.86.58-.7a.93.93,0,0,1-.12.58c-.08.08-.12.35-.12.82q4.91-.93,7.37-1.64t4.45-1.4q2-.7,4.44-1.4t7.6-1.64q1.17-.47,2.46-.94a3.91,3.91,0,0,1,2.92.23c.31,0,.47-.08.47-.23a1.31,1.31,0,0,1,.58.47,1.22,1.22,0,0,0,.58.47v1.4a15,15,0,0,0-4.44,3q-1.88,1.88-4,3.74a38.74,38.74,0,0,1-4.44,1.4q-1.17.24-4.44,1.17-3.28.47-5.15.94-2.58.7-5.15,1.17a32,32,0,0,0-5.15,1.4,1.08,1.08,0,0,0-1.17.7h-.47a3.15,3.15,0,0,1-.58.82,6.93,6.93,0,0,0-.82,1.05c.31.31.5.35.58.12s.12-.27.12-.12a9,9,0,0,0-.7,1.87,3,3,0,0,1-.7,1.4,12.6,12.6,0,0,1-1.29,3.28,21.35,21.35,0,0,0-1.52,3.28c-.16,0-.23,0-.23-.12s-.08-.12-.23-.12a.71.71,0,0,1,0,1.05,13.07,13.07,0,0,1-.94,1.05v.7a70.11,70.11,0,0,1-4,6.2q-2.1,2.93-4.21,6.2l-.23-.23h-.23c-.16.15-.12.23.12.23s.27.08.12.23a.55.55,0,0,0-.58.47,1.06,1.06,0,0,1-.58.7c-.16.31-.12.39.12.23s.19-.08-.12.23a2.57,2.57,0,0,1-.94,1.17,1.48,1.48,0,0,0-.7.94c-.32.15-.47.15-.47,0s-.08-.16-.23,0A12.18,12.18,0,0,0,499.2,320.07Zm-5.38-27.37q-3,.47-6.43,1.17t-6.2,1.17q-2.34.47-4.09.94a6.39,6.39,0,0,0-2.92,1.64,5.11,5.11,0,0,0-1.87,2,6.07,6.07,0,0,1-1.64,2,10.49,10.49,0,0,0-1.4,3.16,10.67,10.67,0,0,1-1.4,3.16,5.94,5.94,0,0,1-.35,2.11,6.73,6.73,0,0,0-.35,2.34,4.54,4.54,0,0,0,3.39,1.87,25,25,0,0,0,4.8,0,26,26,0,0,0,10.41-9.12q4.09-6.08,8.54-12.17v-.23Zm10.53-17.78a6.16,6.16,0,0,1,.82-2.11,13.36,13.36,0,0,0,1.05-2.11q.7-2.11,1.29-4.44a22.62,22.62,0,0,1,1.75-4.68q.93-3.27,2-7a12.91,12.91,0,0,0-.12-7.49,4.12,4.12,0,0,0-1.64-.12,4,4,0,0,1-1.64-.12c.15-.31.43-.39.82-.23s.66.08.82-.23c-.16-.31-.51-.47-1.05-.47s-.9.16-1.05.47c0,.16.08.2.24.12s.23,0,.23.35a8.32,8.32,0,0,0-3,.47,12.09,12.09,0,0,1-2.81.7,7.44,7.44,0,0,1,1.75-.82,14.9,14.9,0,0,0,2-.82.39.39,0,0,1,.47-.12c.15.08.24,0,.24-.35a38,38,0,0,0-7.72,2.22,29.06,29.06,0,0,0-7,4.09H491a29.48,29.48,0,0,0-8,7.6q-3.28,4.56-6.55,9a2.39,2.39,0,0,1-.58,1.75,2.21,2.21,0,0,0-.35,2,6.88,6.88,0,0,0-.35,2.81,5.62,5.62,0,0,1-.35,2.57,37.45,37.45,0,0,1-1.17,4.44,14,14,0,0,0-.7,4.45,3,3,0,0,0,2.69-.35,3.46,3.46,0,0,1,2.92-.35,3.11,3.11,0,0,1,2.57.23,5.4,5.4,0,0,0,3,.47,1,1,0,0,1,.58.12c.08.08.27.12.58.12a1.43,1.43,0,0,0,.82-.23c.23-.15.43-.08.58.23,0,.31.31.31.94,0a1.67,1.67,0,0,1,1.4-.23,10.26,10.26,0,0,1,1.4.94q1.87-.47,4-1.05c1.41-.39,2.73-.74,4-1.05q1.41-2.57,2.81-5.38A60.15,60.15,0,0,1,504.35,274.92Zm-7.49,45.85c-.31.62-.16.94.47.94A.94.94,0,0,0,496.86,320.77Zm3.51-3.74a1.06,1.06,0,0,1-.7.58c-.31.08-.39.35-.23.82Q500.61,318,500.37,317Z" transform="translate(-77.87 -149.43)"/><path class="cls-1" d="M586.23,151.39h1.17a4.48,4.48,0,0,1,1.4.23,3.78,3.78,0,0,1,.94.7,19.15,19.15,0,0,0,2.69,2.22,39.28,39.28,0,0,1,3.16,2.46,1.89,1.89,0,0,0,1.64,1.87v.7a6,6,0,0,1,.7,1.4,2.24,2.24,0,0,0,.94,1.17c0,.47.15.7.47.7a2.13,2.13,0,0,0,.12,2.11,4.42,4.42,0,0,1,.82,1.4,3.22,3.22,0,0,0,.23,1.4,36.88,36.88,0,0,1,.7,7.25,11.65,11.65,0,0,1,0,3.28,35.19,35.19,0,0,1-.7,3.51,2.07,2.07,0,0,0-.23.94,2.09,2.09,0,0,1-.23.94v3c-.31.31-.43.58-.35.82s0,.51-.35.82l-.23.23q.23,0-.23,1.17a6.35,6.35,0,0,1-.47,3,2.82,2.82,0,0,1-.12,1.75,7,7,0,0,0-.35,2.22c0,.31-.08,1.09-.23,2.34s-.35,2.57-.58,4-.43,2.73-.58,4a9.66,9.66,0,0,1-.47,2.34q-.47,1.64-1.05,3.28T594,216q-1.17,4-2.92,8.54t-3.39,9a11.62,11.62,0,0,1-1.17,3.74,18.25,18.25,0,0,0-1.4,3.74,17.58,17.58,0,0,1-1.52,3.74l-1.75,3.51v.7a1.28,1.28,0,0,0-.47.82,1.28,1.28,0,0,1-.47.82,5.94,5.94,0,0,1-.82,3q-.82,1.4-2,3.28a2.71,2.71,0,0,1-.35.58.48.48,0,0,0-.12.35,1.89,1.89,0,0,1-.94,2.11.94.94,0,0,0-.47.94v.7q-.7,1.4-1.29,2.81t-1.29,2.81q-.7,1.4-2.46,4.68t-3.74,6.9q-2,3.63-4,6.67a28.57,28.57,0,0,1-3.16,4.21v.47a3.65,3.65,0,0,1-.58.47,4,4,0,0,0-.58.47c-.31.63-.35,1.09-.12,1.4a.65.65,0,0,1-.12.94,4.46,4.46,0,0,1-1.17.82,2.73,2.73,0,0,0-1.17,1.29,2.27,2.27,0,0,0-.47,1.64,7.19,7.19,0,0,0-.12,2.34,4.4,4.4,0,0,1-.35,2.34,1.52,1.52,0,0,1,0,1.17q-.23.47,0,.7a6.33,6.33,0,0,0,.12,1.29,5.55,5.55,0,0,1,.12,1.05q0,1.17.7,1.4a2.9,2.9,0,0,0,1.87,3l1.4.7h2.11a2.21,2.21,0,0,0,1.75.23,8.26,8.26,0,0,1,1.75-.23,25.16,25.16,0,0,0,4.21-2.34,45.84,45.84,0,0,0,3.74-3,16.25,16.25,0,0,1,1.29-1.17c.39-.31.82-.62,1.29-.94h.47l2.11-1.4a5.29,5.29,0,0,0,1.64-1.4c.31-.31.54-.47.7-.47s.31-.15.47-.47a2.66,2.66,0,0,0,.82-.7,1.85,1.85,0,0,1,.35-.47c0-.31.23-.62.7-.94a2.06,2.06,0,0,1,1.05-.58,2.46,2.46,0,0,0,1.29-1.05q5.38-6.08,7.13-8t2.22-2.34l2.81-2.81A18.59,18.59,0,0,0,600,280.3a1.35,1.35,0,0,0,.94.23c.15,0,.23-.15.23-.47h0a.38.38,0,0,1,.35.23.37.37,0,0,0,.35.23c.15,0,.23,0,.23.12s.08.12.23.12h.23c.62-.62,1.05-.94,1.29-.94s.43.16.58.47a4.5,4.5,0,0,1,.35,1.05c.08.39.35.51.82.35,0,.31-.08.51-.23.58s-.23.27-.23.58a1,1,0,0,1-.12.47,1,1,0,0,0-.12.47,25.32,25.32,0,0,0-2.11,1.87l-2.11,2.11c0,.16,0,.23-.12.23s-.12.08-.12.23l-.23.23v.7c-.31.62-.62.94-.94.94a5.25,5.25,0,0,1-.7,1.87l-.94,1.4a.21.21,0,0,0-.23.23.21.21,0,0,1-.23.23c-.31,0-.39.2-.23.58s.31.74.47,1.05c0,.16,0,.23.12.23s0,.16-.35.47a.78.78,0,0,1-.35.7,3.93,3.93,0,0,0-.58.47,1.92,1.92,0,0,0-.7,1.17,2.88,2.88,0,0,0-1.05,1.29,4,4,0,0,1-.82,1.29q-.47.47,0,.7c-.16-.15-.47.12-.94.82s-1,1.48-1.52,2.34a28.59,28.59,0,0,1-1.75,2.46,29.31,29.31,0,0,0-3.28,3,3,3,0,0,0-1.4,1.64,3.78,3.78,0,0,1-.94.7l-.94.47-1.29,1.29c-.7.7-1.49,1.52-2.34,2.46s-1.68,1.75-2.46,2.46a9.94,9.94,0,0,1-1.64,1.29q-1.17.7-1.29,1.29t-1.29,1.05l-.94.47-.94.47a8.82,8.82,0,0,1-2.11.23,8.17,8.17,0,0,0-2.34.23.66.66,0,0,0-.47.23,1,1,0,0,1-.7.23c0,.15-.55.39-1.64.7a15.42,15.42,0,0,0-1.87.47,17.1,17.1,0,0,1-1.87.47h-.94a3.77,3.77,0,0,0-1.87,0h-.23a8.75,8.75,0,0,0-2.57-.58q-1.41-.12-3-.35a6.68,6.68,0,0,1-1.17-.82,2.19,2.19,0,0,0-1.4-.58c0-1.09-.27-1.6-.82-1.52s-1.13-.51-1.75-1.75a13,13,0,0,1-1.64-2.69q-.7-1.52-1.87-3.86a37.35,37.35,0,0,0-.7-3.86,16.68,16.68,0,0,1-.47-3.86,8.59,8.59,0,0,1-.23-2.11q-.47-4.68-1.05-9.24a36.69,36.69,0,0,1-.12-8.77h-.23a29.29,29.29,0,0,0,1.17-8.31q0-4.33.23-9a7.64,7.64,0,0,1,.47-2.34c-.16-.15-.16-.23,0-.23,0-.15,0-.23.12-.23s.12-.08.12-.23c.31-.31.39-.54.23-.7q.7-4.91,1.29-9.71a68.82,68.82,0,0,1,1.75-9.24c.15-.31.35-.66.58-1.05A2.91,2.91,0,0,0,546,244a2.64,2.64,0,0,0-.12-.82,2.52,2.52,0,0,1-.12-.82,7,7,0,0,0,.23-1.64q.47-3.74.94-6.78t1.17-5.85q1.4-5.38,2.22-9.59t2-8.66a19.54,19.54,0,0,1,.47-3.51,12,12,0,0,1,.12-1.4,3.71,3.71,0,0,1,.58-1.64,1.38,1.38,0,0,1,.7-1.17v-.47l-.47-.94a133.83,133.83,0,0,1,4.68-14.86,111.22,111.22,0,0,1,5.85-12.75,5.26,5.26,0,0,1,.82-1.29,1,1,0,0,0,.12-1.05q2.57-4.21,4.91-8a27.58,27.58,0,0,1,6.08-6.78c.15,0,.31-.12.47-.35a1.75,1.75,0,0,1,.7-.58,1.15,1.15,0,0,1,.82-.23,1.14,1.14,0,0,0,.82-.23,5.17,5.17,0,0,0,2.34-.47,2.1,2.1,0,0,1,.94-.23,1.37,1.37,0,0,0,.23-.94,1.12,1.12,0,0,0,.82-.35l.82-.82A3.84,3.84,0,0,1,586.23,151.39Zm-25,121c0-.15.39-.47,1.17-.94q1.4-2.57,2.34-4.68t2.11-4.21a2.35,2.35,0,0,0,.58-.82,2.27,2.27,0,0,1,.58-.82,3.92,3.92,0,0,0,.47-.58,5.57,5.57,0,0,1,.7-.82q1.4-3.27,2.92-6.67t2.92-6.67a1.35,1.35,0,0,1,.23-.94.68.68,0,0,1,.47-.23c.15,0,.23-.15.23-.47.15,0,.23-.31.23-.94a11.91,11.91,0,0,1,1.4-3.39,6,6,0,0,0,.94-3.16,1.77,1.77,0,0,0,1.05-1.17c.23-.62.43-1.17.58-1.64a9.89,9.89,0,0,0,.58-1.87,2.09,2.09,0,0,1,.58-1.17,57.71,57.71,0,0,1,2.46-8.19q1.52-4,2.69-8.19a33.39,33.39,0,0,0,1.17-5.26q.7-4.09,1.4-9t1.29-9.24q.58-4.33.82-6.2a41.65,41.65,0,0,0,.35-6.9,19.56,19.56,0,0,0-1.05-6,26.4,26.4,0,0,0-.47-5.15,3.37,3.37,0,0,1-.7-1.17c-.16-.31-.39-.74-.7-1.29a1.36,1.36,0,0,0-1.17-.82h-.23a5.55,5.55,0,0,1-.82.7.79.79,0,0,0-.35.7c-.16,0-.23.23-.23.7a15,15,0,0,1-1.4,4.09,15.78,15.78,0,0,0-1.4,3.63,3.31,3.31,0,0,0-.47,1.87,3.84,3.84,0,0,1,0,1.87c-.16.62-.31,1.33-.47,2.11a13,13,0,0,1-.94,3.51q-.7,1.64-1.17,2.81a8.17,8.17,0,0,0-1.17,1.75c-.16.39-.32.74-.47,1.05a9.53,9.53,0,0,0-1.17,3.74,2.28,2.28,0,0,1-.47,1.17,2.87,2.87,0,0,0-.47,1.64,23.92,23.92,0,0,0-1.52,4.8q-1.05,4.1-2.22,9.12t-2.22,9.71q-1.05,4.68-1.52,6.55-.47,3.28-1.05,6t-1.05,6a37.32,37.32,0,0,1-.7,3.86c-.32,1.33-.58,2.57-.82,3.74s-.43,2.11-.58,2.81-.23.9-.23.58v.23a.94.94,0,0,0,.23.7,8.22,8.22,0,0,1-.47,2.57v1.4c0-.15.15.08.47.7a14.81,14.81,0,0,0-2,5.73q-.35,2.93-.82,6.67v.94a1,1,0,0,0-.23.7,1.86,1.86,0,0,0-.23,1.17,4.68,4.68,0,0,0-.7,3.74.68.68,0,0,0,.47-.23A.21.21,0,0,0,561.2,272.35Z" transform="translate(-77.87 -149.43)"/><path class="cls-1" d="M647.53,250.12a17,17,0,0,1,1.75-1.17,3.13,3.13,0,0,0,1.29-1.64,5.61,5.61,0,0,0,1.17-2.69c.15-1,.31-2,.47-2.92q.93-2.11,1.64-3.63t1.4-3.39q1.17-.93,2.22-1.87a7.68,7.68,0,0,1,2.22-1.4,3.16,3.16,0,0,1,2.22-.12,1.55,1.55,0,0,0,1.52-.12,1.44,1.44,0,0,0,1.05.47h1.05a3.5,3.5,0,0,0,1.4,1.75q.93.59,1.4.12a2.66,2.66,0,0,1,1.52,2.11q.35,1.64.58,2.57a3.66,3.66,0,0,0-.12,1.64,3.77,3.77,0,0,1-.12,1.64,73,73,0,0,1,.35,9.12,19.06,19.06,0,0,1-1.52,7.49,1.93,1.93,0,0,1-.12.58,1.76,1.76,0,0,0,.12,1.05,5.27,5.27,0,0,0-1.4,3.28,7.84,7.84,0,0,1-1.17,3.51,10.36,10.36,0,0,1-1.05,3l-1.17,1.87-1.17,1.87a15.27,15.27,0,0,0-1.29,3l.23.47a7.21,7.21,0,0,0-1.17,2.69,12.88,12.88,0,0,1-.7,2.46,2.1,2.1,0,0,1-.23.94l-.47.94q-.24,1.17-.35,2.11a9,9,0,0,1-.35,1.64,16.78,16.78,0,0,1-1.05,4.21q-.82,2.11-1.52,4.21a.66.66,0,0,0,.23.47q.23.24,0,.7a6.42,6.42,0,0,1-.82,2.34,5.37,5.37,0,0,0-.58,2.81q.47,1.17.82,2.34c.23.78.5,1.56.82,2.34a64.35,64.35,0,0,0,15.21-6.08A61.89,61.89,0,0,0,684,291.76l1.29-1.29a10.43,10.43,0,0,1,1.52-1.29c.31-.15.74-.35,1.29-.58s1-.43,1.29-.58a15.33,15.33,0,0,1,2.92-3,9.51,9.51,0,0,1,3.63-1.87,1.65,1.65,0,0,1,.7.12q.23.12,1.17-.35c.15.31,0,.51-.35.58s-.51.27-.35.58c.47.31.78.35.94.12a.78.78,0,0,1,.7-.35,2.06,2.06,0,0,1-.82.82,3.35,3.35,0,0,0-1.05,1.05,2.11,2.11,0,0,1,1.05.7c.23.31.58.31,1.05,0a.75.75,0,0,1-.47.7.94.94,0,0,0-.47.94,7.45,7.45,0,0,0-2.11,2.81,8.45,8.45,0,0,1-2.34,3,29.17,29.17,0,0,0-1.64,3.28,9.71,9.71,0,0,1-2.11,2.57q-1.17,1.17-1.05.7t-1.05.23c.15,1.09,0,1.84-.47,2.22a12.52,12.52,0,0,0-1.64,1.75A26.09,26.09,0,0,0,683,307.2a25.86,25.86,0,0,1-2.69,2.57c-.31.78-1.33,1.44-3,2s-3,.9-3.74,1.05a5.23,5.23,0,0,1-2,2.22,28.13,28.13,0,0,1-3.39,2v.7a13.76,13.76,0,0,1-2.81,1.05,19.58,19.58,0,0,0-2.57.82H662l-.94.94a15.43,15.43,0,0,1-7,.23,10.7,10.7,0,0,0-4.21-.12,3.86,3.86,0,0,1-3.74-1.29A3.1,3.1,0,0,1,645,318a24.86,24.86,0,0,0-1.17-2.57l-.7-1.4a8.45,8.45,0,0,1-.47-2.11,13.89,13.89,0,0,1-.7-2.22,7.65,7.65,0,0,0-.94-2.22q-.47-1.17-1.05-3a14.06,14.06,0,0,1-.58-4.21,20.35,20.35,0,0,1-.35-4.56q.11-1.75.23-3.39a27.15,27.15,0,0,1,.47-3.39,41.9,41.9,0,0,0,.58-4.56q-.7.24-1.4,1.64a4.82,4.82,0,0,1-1.4,1.87l-.94.94-.94.94a23.39,23.39,0,0,1-2.46,4,28.05,28.05,0,0,0-2.46,3.74,44.7,44.7,0,0,0-4.68,5.5q-2.11,2.93-4.21,5.5-.47.24-.35.35c.08.08,0,.2-.12.35a5.07,5.07,0,0,0-.94,1.52,5.24,5.24,0,0,1-.94,1.52,16.18,16.18,0,0,1-1.64.94,3.46,3.46,0,0,1-1.29,1.17,6.82,6.82,0,0,0-1.29.7q-3.28,2.57-5.85,4.8a7.53,7.53,0,0,1-6.55,1.52,1.94,1.94,0,0,1-1.75.12c-.7-.23-1.37-.43-2-.58q-.24,0-.7-.7a1.83,1.83,0,0,1-2.22-.58,22.16,22.16,0,0,1-1.52-2.22,44.4,44.4,0,0,0-1.4-6.67,27.9,27.9,0,0,1-.94-7.84,56.7,56.7,0,0,1,2.11-14.5q1.87-6.32,4.44-12.87,3.27-6.08,6.08-11.7t5.85-11.23q1.87-2.57,3.86-5.15a46.34,46.34,0,0,1,3.86-4.44l1.87-1.4a4.28,4.28,0,0,0,1.4-1.87,6.26,6.26,0,0,0,1.64-1.17,5.5,5.5,0,0,1,1.87-1.17,5.38,5.38,0,0,1,1.05-.82,5.48,5.48,0,0,0,1.05-.82,25.38,25.38,0,0,1,2.92-2.11,2,2,0,0,1,2.69.23,10.75,10.75,0,0,1,3.39-.35,4.63,4.63,0,0,1,2.46.82,17.82,17.82,0,0,1,3,1.17,5,5,0,0,1,2.11,1.87,28.1,28.1,0,0,0,1.4,5,24.44,24.44,0,0,0,2.11,4.33,3.66,3.66,0,0,0-.12,1.64A15.39,15.39,0,0,1,647.53,250.12Zm-43.75,51.47c.47-.31,1-.66,1.52-1.05a10.19,10.19,0,0,0,1.29-1.05,6.83,6.83,0,0,0,1.29-1.64,12.57,12.57,0,0,1,.82-1.4q4.21-4.44,7.84-9.12t7.37-9.59q2.57-2.81,5-5.85t4.56-5.85a55.79,55.79,0,0,1,5.26-5.85,49.67,49.67,0,0,0,5-5.61,13.42,13.42,0,0,0-.47-6.2q-.94-2.69-1.87-4.8a13.2,13.2,0,0,0-6.08-.94,7.7,7.7,0,0,0-4.56,1.4,29.56,29.56,0,0,0-3.86,3.28,25,25,0,0,0-5.73,5.73q-2.23,3.16-4.8,6.9-2.58,4.21-4.8,8.3A46,46,0,0,0,608,277a6.72,6.72,0,0,1-1.64,2.81,2.89,2.89,0,0,0-.23,2,3.75,3.75,0,0,1-.23,2.22,4.92,4.92,0,0,1-.12,1.17,4.71,4.71,0,0,1-.35.94,22.55,22.55,0,0,0,.12,2.34,8,8,0,0,1-.12,2.34q-.47,2.34-1.4,5.61a10.41,10.41,0,0,0-.47,5.15Z" transform="translate(-77.87 -149.43)"/><path class="cls-1" d="M710.69,228.36h1.4a8.62,8.62,0,0,0,2.11.23,2.3,2.3,0,0,0,1.05.23,2.38,2.38,0,0,1,1.05.23c.15,0,.47.23.94.7a4.32,4.32,0,0,1,2.34,2.34,9.18,9.18,0,0,1,.94,2.57,2.12,2.12,0,0,1,.58,1.17,2.07,2.07,0,0,0,.58,1.17,1.64,1.64,0,0,1-.12.7.82.82,0,0,0,.12.7,1.33,1.33,0,0,0,.47.94,4.93,4.93,0,0,1,.23,1.87,21.54,21.54,0,0,1,.23,3.74v4.91c-.16,1.25-.27,2.46-.35,3.63s-.2,2.38-.35,3.63a1.64,1.64,0,0,1-.12.7,1.59,1.59,0,0,0-.12.7,4.48,4.48,0,0,0-.12,1.75,11,11,0,0,1,.12,1.52,10.7,10.7,0,0,0,1.52-1.87q.58-.93,1.29-1.87a10.18,10.18,0,0,1,1.52-1.64q.82-.7,1.75-1.64a14.16,14.16,0,0,0,1.52-1.75c.39-.54.82-1.21,1.29-2a4.25,4.25,0,0,1,2.34-2.34,2.62,2.62,0,0,0,.58-.35,2.69,2.69,0,0,1,.58-.35,3.67,3.67,0,0,0,.7-.94q2.34-2.57,4.56-4.91t4.56-4.68a3.12,3.12,0,0,1,1.05-.7,3.09,3.09,0,0,0,1.05-.7,3.13,3.13,0,0,1,1.05-.7,3.11,3.11,0,0,0,1.05-.7,44,44,0,0,1,4.33-2.34,15.48,15.48,0,0,1,5.5-1.4,9.39,9.39,0,0,1,5.61,1.17,3.15,3.15,0,0,1,2.34,2.81,7.49,7.49,0,0,1-.12,1.17,1.87,1.87,0,0,0,.12,1.17q0,.7.23.7a2.25,2.25,0,0,0,.7.82,1,1,0,0,1,.47.82,4.16,4.16,0,0,1-.47,1.87v2.34a54.87,54.87,0,0,1-1.4,10.29,2.06,2.06,0,0,0-.23.94,2.09,2.09,0,0,1-.23.94l-.47.94a2.06,2.06,0,0,0-.23.94,2.1,2.1,0,0,1-.23.94,2.59,2.59,0,0,0-.23,1.17.48.48,0,0,1-.12.35.47.47,0,0,0-.12.35,2.08,2.08,0,0,0-.23.94,2.1,2.1,0,0,1-.23.94,4.48,4.48,0,0,0-.35.94,4.79,4.79,0,0,1-.35.94q-.47.94-1.4,3.28c-.47,1.09-.9,2.19-1.29,3.28s-.82,2.26-1.29,3.51q-1.4,3.51-2.69,6.9T752.8,288h-.23a5.49,5.49,0,0,0-1.17,2.57,8.44,8.44,0,0,0-.35,1.52,4.41,4.41,0,0,1-.35,1.29,1.35,1.35,0,0,0-.47.94,9.58,9.58,0,0,0-.58,2.92q-.12,1.75-.35,3.63a3.48,3.48,0,0,1-.23,1.29,1.81,1.81,0,0,0,0,1.29,2.37,2.37,0,0,0,1.4,2.46,3.22,3.22,0,0,1,1.87,1.75,16.93,16.93,0,0,0,6.2-1.05q2.69-1.05,5.26-2.22a13.89,13.89,0,0,1,1.75-.94l.94-.35a1.84,1.84,0,0,0,.7-.47c.23-.23.74-.66,1.52-1.29a1.9,1.9,0,0,0,1.52-1.05,2.59,2.59,0,0,1,1.29-1.29c.15,0,.39.16.7.47q1.4-.7,2.81-1.29a7.89,7.89,0,0,0,2.57-1.75c.47-.31.9-.62,1.29-.94s.82-.62,1.29-.94c.15-.31.35-.47.58-.47a1.88,1.88,0,0,0,.82-.23,2.65,2.65,0,0,0,.7-.47,2.76,2.76,0,0,1,.7-.47,1.82,1.82,0,0,1,.7-.23,1.81,1.81,0,0,0,.7-.23,15.92,15.92,0,0,0,1.4-1.05,8.64,8.64,0,0,1,1.64-1.05h.94a1.67,1.67,0,0,1,.7.12c.15.08.39,0,.7-.12,0,.16,0,.23.12.23s.12.08.12.23a2.28,2.28,0,0,1-.47,1.64,2.94,2.94,0,0,0-.7,1.4,7.85,7.85,0,0,0-2.11,1.87l-1.87,2.34c-.16,0-.23,0-.23.12s-.08.12-.23.12c0,.16,0,.23.12.23s.12.08.12.23a27.37,27.37,0,0,1-2.81,2.34,1.83,1.83,0,0,0-.35.47,1.89,1.89,0,0,1-.35.47,3.36,3.36,0,0,1-.7.58,3.36,3.36,0,0,0-.7.58,23.89,23.89,0,0,0-2.11,1.4,10.51,10.51,0,0,0-1.87,1.87,31.16,31.16,0,0,0,6-3.86l5.26-4.33a2.32,2.32,0,0,1-.7.82,1,1,0,0,0-.47.82q-2.34,1.88-4.68,3.51T776.2,307q-.7.47-1.52,1.05c-.55.39-1.05.74-1.52,1.05q-.94.47-.7.94a11.76,11.76,0,0,1-2.57,2.92,33.65,33.65,0,0,0-3.28,2.22,5.46,5.46,0,0,0-1.87,1.17,4.91,4.91,0,0,0-1.17.94.46.46,0,0,0-.35.12.49.49,0,0,1-.35.12.21.21,0,0,0-.23.23.21.21,0,0,1-.23.23h-.7a18.47,18.47,0,0,1-1.87.7q-1.64.47-3,.94c-.94.31-2,.62-3,.94a14.16,14.16,0,0,1-4.91.47,22.83,22.83,0,0,0-2.46-.35,8.39,8.39,0,0,0-2.46.12,39.71,39.71,0,0,1-6.55-4.21q-.24-.47-.47-1.05a2.88,2.88,0,0,1-.23-1.05,4.11,4.11,0,0,1-.35-1.17,4.31,4.31,0,0,0-.35-1.17,12.9,12.9,0,0,1-.7-2.34,7,7,0,0,1,0-2.57,17.87,17.87,0,0,1,1.29-7,33.9,33.9,0,0,0,2-6.55l.7-4.91a33.2,33.2,0,0,1,1.29-4.33,39.77,39.77,0,0,1,1.75-4.09q1.4-4,3.16-8t3.39-8q.7-2.34,1.17-4.56a39,39,0,0,1,1.17-4.33q.7-2.34,1.52-4.33t1.52-4.09l-3,1.29a27.36,27.36,0,0,1-3,1.05,29.76,29.76,0,0,0-2.57,2.92A16.86,16.86,0,0,1,743,255l-1.4,1.4a6.24,6.24,0,0,1-1.64,1.17q-1.41,1.17-2.92,2.57a29.46,29.46,0,0,0-2.69,2.81,17.13,17.13,0,0,1-2.34,3q-1.17,1.64-2.22,3.28t-2.22,3.28a1.4,1.4,0,0,0-.94.94,3,3,0,0,1-.7,1.17h-.23a45.08,45.08,0,0,1-4,5.15,27.46,27.46,0,0,0-3.74,5.38l-.47.47h-.23a10.42,10.42,0,0,1-1.4,3.51L713.73,292l-.23.23a1.86,1.86,0,0,0-.35.47,1.89,1.89,0,0,1-.35.47q-.94,1.64-1.87,3.16a25.12,25.12,0,0,1-2.11,2.92,8.26,8.26,0,0,1-.23,2.34c-.31.31-.47.55-.47.7l-.47.94v1.17c0,.16-.16.39-.47.7a26.33,26.33,0,0,0-2.81,6.08h-.94v1.4l-.47.47v1.4c-.31.62-.47.86-.47.7-.16-.31-.2-.55-.12-.7s0-.31-.35-.47a.52.52,0,0,0-.12.58.54.54,0,0,1-.12.58c0,.15,0,.19-.12.12a.47.47,0,0,1-.12-.35c.15.47.12.78-.12.94a3.5,3.5,0,0,0-.58.47c0,.15.08.19.23.12s.23,0,.23.12l-.7,1.4a2.49,2.49,0,0,1,.12-.82,1.08,1.08,0,0,0-.12-.82.62.62,0,0,0-.7.7l-.23-.23q-.24-.24-.7.7a8.4,8.4,0,0,0-.35,1.64,3.66,3.66,0,0,0,.12,1.64c-.31-.16-.51-.2-.58-.12a.94.94,0,0,1-.58.12.21.21,0,0,1-.23-.23l-.23-.23a4.08,4.08,0,0,0-1.4,1.05,5.28,5.28,0,0,1-1.17,1.05h-.23a2.1,2.1,0,0,1-.94-.23.46.46,0,0,0-.7.23l-1.4-.7c-.16,0-.2.08-.12.23s0,.23-.12.23-.2-.12-.12-.35,0-.35-.12-.35a.66.66,0,0,0-.23.47.69.69,0,0,1-.23.47,1.65,1.65,0,0,1-1.4-1.4,2.42,2.42,0,0,0-.94-1.64,17,17,0,0,1-.7-4.91v-2.57q.23-2.81.7-5.62t.94-5.38q.47-2.57.94-5.15t.94-5.15q.47-1.87.94-3.86a17.87,17.87,0,0,0,.47-4.09,12.71,12.71,0,0,1,.47-2.81q1.63-7.72,3.39-15.21t3.63-15q.23-1.4.47-2.69c.15-.86.31-1.67.47-2.46a8.87,8.87,0,0,0,.47-2.81,6.84,6.84,0,0,1,.47-2.57,4.31,4.31,0,0,0,.35-1.17,2.07,2.07,0,0,1,.58-1.17c.15-.31.31-.66.47-1.05s.31-.74.47-1.05q.47-1.17.94-2.22c.31-.7.62-1.44.94-2.22a5.33,5.33,0,0,0,2.11-.94c.31-.31.54-.47.7-.47a2.63,2.63,0,0,1,1.17-.23A4.39,4.39,0,0,0,710.69,228.36Z" transform="translate(-77.87 -149.43)"/></svg>