<?xml version="1.0" encoding="utf-8"?>
<!-- Generator: Adobe Illustrator 19.2.1, SVG Export Plug-In . SVG Version: 6.00 Build 0)  -->
<svg version="1.1" id="Layer_1" xmlns="http://www.w3.org/2000/svg" xmlns:xlink="http://www.w3.org/1999/xlink" x="0px" y="0px"
	 viewBox="0 0 89.6 31.5" style="enable-background:new 0 0 89.6 31.5;" xml:space="preserve">
<style type="text/css">
	.st0{fill:#082432;}
</style>
<path class="st0" d="M79.2,11.1c-0.1,0-0.1,0-0.2,0c0,0-0.1,0-0.1,0.1c0,0-0.1,0.1-0.3,0.1c0,0.1-0.1,0.2-0.1,0.3
	c0,0.1-0.1,0.2-0.1,0.3c0,0,0,0.1-0.1,0.1c0,0.1,0,0.1-0.1,0.1c0,0-0.1,0.1-0.1,0.1c0,0.1,0,0.1,0,0.1c0,0.1-0.1,0.2-0.1,0.3
	c0,0.1,0,0.2-0.1,0.4c0,0.1,0,0.2-0.1,0.3c0,0.1,0,0.2-0.1,0.3c-0.2,0.6-0.3,1.3-0.5,1.9c-0.1,0.6-0.3,1.3-0.4,1.9
	c0,0.2-0.1,0.3-0.1,0.4c0,0.2,0,0.4-0.1,0.5c0,0.2-0.1,0.3-0.1,0.5c0,0.2-0.1,0.4-0.1,0.7c0,0.2-0.1,0.4-0.1,0.7
	c0,0.2-0.1,0.5-0.1,0.7s-0.1,0.5-0.1,0.7v0.3c0,0.2,0,0.4,0.1,0.6c0.1,0,0.1,0.1,0.1,0.2c0,0.1,0.1,0.2,0.2,0.2c0,0,0,0,0-0.1
	s0,0,0-0.1c0,0,0,0,0,0c0,0,0,0,0,0c0,0,0,0,0,0c0,0,0,0,0,0l0.2,0.1c0,0,0,0,0.1,0c0,0,0.1,0,0.1,0h0c0.1,0,0.1-0.1,0.2-0.1
	c0,0,0.1-0.1,0.2-0.1l0,0c0,0,0,0,0,0c0,0,0.1,0,0.1,0c0,0,0,0,0.1,0c0-0.1,0-0.1,0-0.2c0-0.1,0-0.1,0-0.2c0-0.1,0.1-0.1,0.1-0.1
	l0,0c0-0.1,0-0.1,0.1-0.1c0,0,0,0.1,0,0.1c0,0,0,0.1,0,0.1l0.1-0.2c0,0,0,0,0,0c0,0,0,0,0,0c0,0,0,0,0.1-0.1c0,0,0-0.1,0-0.1
	c0,0,0,0,0,0c0,0,0,0,0,0c0,0,0,0,0-0.1c0,0,0-0.1,0-0.1c0,0,0.1,0,0,0.1c0,0,0,0,0,0.1c0,0,0,0,0.1-0.1v-0.2l0.1-0.1v-0.2h0.1h0.1
	c0.1-0.3,0.2-0.5,0.4-0.8c0,0,0.1-0.1,0.1-0.1v-0.1l0.1-0.1c0,0,0,0,0.1-0.1c0-0.1,0-0.2,0-0.3c0.1-0.1,0.2-0.2,0.3-0.4
	c0.1-0.1,0.2-0.3,0.2-0.4c0,0,0,0,0-0.1c0,0,0,0,0-0.1l0,0l0.3-0.4c0.1-0.1,0.1-0.3,0.2-0.5h0l0.1-0.1c0.1-0.3,0.3-0.5,0.5-0.7
	s0.3-0.4,0.5-0.7h0c0,0,0.1-0.1,0.1-0.1c0-0.1,0.1-0.1,0.1-0.1c0.1-0.1,0.2-0.3,0.3-0.4c0.1-0.1,0.2-0.3,0.3-0.4
	c0.1-0.1,0.2-0.2,0.3-0.4c0.1-0.1,0.2-0.2,0.3-0.4c0.1-0.1,0.3-0.2,0.4-0.3c0.1,0,0.2-0.1,0.2-0.1s0.1-0.1,0.2-0.2
	c0.1-0.1,0.2-0.2,0.3-0.3c0.1-0.1,0.2-0.3,0.3-0.4c0.1,0,0.3-0.1,0.4-0.1c0.1-0.1,0.2-0.1,0.4-0.2c-0.1,0.2-0.1,0.4-0.2,0.5
	c-0.1,0.2-0.1,0.4-0.2,0.6c-0.1,0.2-0.1,0.4-0.1,0.6c0,0.2-0.1,0.4-0.2,0.6c-0.1,0.3-0.3,0.7-0.4,1c-0.1,0.3-0.3,0.7-0.4,1
	c-0.1,0.2-0.2,0.3-0.2,0.5c-0.1,0.2-0.1,0.4-0.2,0.6L83,19.5c-0.1,0.3-0.1,0.6-0.3,0.8c-0.1,0.3-0.2,0.6-0.2,0.9c0,0.1,0,0.2,0,0.3
	c0,0.1,0,0.2,0.1,0.3c0,0,0,0.1,0,0.1c0,0.1,0,0.1,0,0.2c0,0,0,0.1,0,0.1c0,0.1,0,0.1,0.1,0.1c0.2,0.2,0.5,0.4,0.8,0.5
	c0.1,0,0.2,0,0.3,0c0.1,0,0.2,0,0.3,0c0.2,0,0.4,0,0.6-0.1c0.1,0,0.3-0.1,0.4-0.1c0.1,0,0.2-0.1,0.4-0.1c0.1,0,0.2-0.1,0.2-0.1h0.1
	c0,0,0,0,0,0c0,0,0,0,0,0c0,0,0,0,0,0c0,0,0,0,0,0c0.1-0.1,0.1-0.1,0.2-0.1c0.1-0.1,0.1-0.1,0.2-0.2c0.2-0.2,0.4-0.3,0.4-0.3
	c0.1,0,0.2-0.2,0.3-0.4c0,0,0-0.1,0.1-0.1c0.1,0,0.1-0.1,0.2-0.1c0.1,0,0.1-0.1,0.2-0.1c0.2-0.2,0.4-0.3,0.6-0.4
	c0.2-0.1,0.4-0.3,0.6-0.5c0,0,0-0.1,0.1-0.1c0,0,0.1-0.1,0.1-0.1c-0.2,0.2-0.4,0.4-0.7,0.6c-0.2,0.2-0.5,0.4-0.8,0.5
	c0.1-0.1,0.2-0.2,0.2-0.2c0.1-0.1,0.2-0.1,0.3-0.2c0,0,0.1-0.1,0.1-0.1c0,0,0,0,0.1-0.1c0,0,0,0,0-0.1c0,0,0,0,0-0.1
	c0.2-0.1,0.3-0.2,0.4-0.3c0,0,0,0,0,0c0,0,0,0,0,0c0,0,0,0,0,0s0,0,0,0c0.1-0.1,0.2-0.2,0.2-0.3c0.1-0.1,0.2-0.2,0.3-0.2
	c0-0.1,0-0.1,0.1-0.2c0,0,0.1-0.1,0.1-0.2c0,0,0,0,0,0c0,0,0,0,0,0c0,0-0.1,0-0.1,0c0,0,0,0-0.1,0h-0.1c-0.1,0-0.2,0.1-0.2,0.1
	c-0.1,0-0.1,0.1-0.2,0.1c0,0-0.1,0-0.1,0c0,0-0.1,0-0.1,0c0,0-0.1,0-0.1,0.1c0,0-0.1,0-0.1,0.1c0,0-0.1,0-0.1,0c0,0-0.1,0-0.1,0.1
	c-0.1,0-0.1,0.1-0.2,0.1c0,0-0.1,0.1-0.2,0.1c-0.1,0.1-0.2,0.2-0.3,0.2c-0.1,0.1-0.2,0.1-0.4,0.2c0,0-0.1-0.1-0.1-0.1
	c-0.1,0-0.1,0.1-0.2,0.2c0,0.1-0.1,0.1-0.2,0.1c-0.1,0.1-0.2,0.1-0.2,0.2c0,0-0.1,0.1-0.1,0.1c0,0-0.1,0-0.1,0c0,0-0.1,0.1-0.2,0.1
	c-0.2,0.1-0.4,0.2-0.7,0.3c-0.2,0.1-0.5,0.1-0.8,0.1c0-0.1-0.1-0.2-0.2-0.2c-0.1,0-0.2-0.2-0.2-0.3c0-0.1,0-0.1,0-0.2
	c0,0,0-0.1,0-0.2c0-0.2,0-0.3,0-0.5c0-0.2,0-0.3,0.1-0.4c0,0,0-0.1,0.1-0.1c0,0,0-0.1,0-0.2c0-0.1,0-0.1,0-0.2
	c0-0.1,0.1-0.2,0.1-0.3h0c0.1-0.3,0.3-0.6,0.4-0.9c0.1-0.3,0.2-0.6,0.3-0.9c0.1-0.2,0.1-0.3,0.2-0.4c0-0.1,0.1-0.3,0.2-0.4
	c0.1-0.2,0.1-0.3,0.2-0.4c0,0,0-0.1,0-0.1c0,0,0-0.1,0-0.1c0,0,0-0.1,0-0.1c0,0,0-0.1,0-0.1c0,0,0,0,0,0c0,0,0,0,0,0
	c0-0.1,0-0.1,0-0.1c0,0,0-0.1,0-0.1c0,0,0-0.1,0-0.1l0.1-0.1c0,0,0-0.1,0-0.1c0,0,0-0.1,0-0.1c0.1-0.4,0.2-0.9,0.2-1.3v-0.3
	c0-0.1,0.1-0.2,0.1-0.2c0,0,0-0.1-0.1-0.1c0,0-0.1-0.1-0.1-0.1c0,0,0,0,0-0.1c0,0,0-0.1,0-0.1c0-0.1,0-0.1,0-0.1
	c0-0.2-0.1-0.3-0.3-0.4c-0.2-0.1-0.4-0.2-0.7-0.1c-0.3,0-0.5,0.1-0.7,0.2s-0.4,0.2-0.6,0.3c0,0-0.1,0.1-0.1,0.1C84,12,84,12,84,12.1
	c0,0-0.1,0.1-0.1,0.1c-0.1,0-0.1,0-0.1,0.1c-0.2,0.2-0.4,0.4-0.6,0.6c-0.2,0.2-0.4,0.4-0.6,0.6c0,0-0.1,0.1-0.1,0.1c0,0-0.1,0-0.1,0
	c0,0,0,0-0.1,0C82.1,13.8,82,13.9,82,14c-0.1,0.1-0.1,0.2-0.2,0.3c0,0.1-0.1,0.1-0.2,0.2c-0.1,0.1-0.2,0.2-0.2,0.2
	c-0.1,0.1-0.1,0.1-0.2,0.2s-0.1,0.2-0.2,0.2c-0.1,0.1-0.1,0.2-0.2,0.2c0-0.1,0-0.1,0-0.2c0-0.1,0-0.1,0-0.2c0,0,0-0.1,0-0.1
	c0,0,0-0.1,0-0.1c0-0.2,0-0.3,0-0.5c0-0.1,0-0.3,0-0.5v-0.2v-0.4c0-0.2,0-0.4,0-0.5c0-0.1,0-0.2,0-0.2c0,0-0.1-0.1-0.1-0.1
	c0,0,0-0.1,0-0.1c0,0,0-0.1,0-0.1c0,0-0.1-0.1-0.1-0.2c0-0.1,0-0.1-0.1-0.1c0-0.2-0.1-0.3-0.1-0.3c-0.1-0.1-0.2-0.2-0.3-0.3
	c-0.1-0.1-0.1-0.1-0.1-0.1c0,0-0.1,0-0.1,0c-0.1,0-0.1,0-0.1,0c-0.1,0-0.2,0-0.3,0h-0.2C79.4,11.1,79.3,11.1,79.2,11.1 M66.3,20.5
	c0-0.2,0-0.4,0.1-0.7c0.1-0.3,0.1-0.5,0.2-0.7c0-0.1,0-0.2,0-0.3c0-0.1,0-0.2,0-0.3c0,0,0-0.1,0-0.1c0,0,0-0.1,0-0.2
	c0-0.1,0-0.2,0-0.3c0-0.1,0-0.2,0-0.3c0.1,0,0.1-0.2,0.2-0.4c0.1-0.4,0.3-0.8,0.5-1.1c0.2-0.3,0.4-0.7,0.6-1.1
	c0.2-0.3,0.4-0.6,0.6-0.9c0.2-0.3,0.4-0.5,0.7-0.7c0.2-0.2,0.3-0.3,0.5-0.4c0.2-0.1,0.4-0.2,0.6-0.2c0.3,0,0.5,0,0.8,0.1
	c0.1,0.2,0.2,0.4,0.2,0.6c0.1,0.2,0.1,0.5,0.1,0.8c-0.2,0.3-0.4,0.5-0.6,0.7s-0.5,0.5-0.7,0.8c-0.2,0.2-0.4,0.5-0.6,0.7
	s-0.4,0.5-0.6,0.8c-0.3,0.4-0.6,0.8-0.9,1.2c-0.3,0.4-0.6,0.8-1,1.2c0,0.1-0.1,0.1-0.1,0.2s-0.1,0.1-0.2,0.2c0,0-0.1,0.1-0.2,0.1
	C66.5,20.4,66.4,20.4,66.3,20.5L66.3,20.5z M71.9,13.6c0-0.1,0-0.1,0-0.2c-0.1-0.2-0.2-0.3-0.3-0.6c-0.1-0.2-0.1-0.4-0.2-0.6
	c-0.1-0.1-0.2-0.2-0.3-0.2c-0.1-0.1-0.2-0.1-0.4-0.1c-0.1-0.1-0.2-0.1-0.3-0.1c-0.1,0-0.3,0-0.4,0c-0.1-0.1-0.2-0.1-0.3,0
	c-0.1,0.1-0.3,0.2-0.4,0.3c0,0-0.1,0.1-0.1,0.1c-0.1,0-0.1,0.1-0.1,0.1c-0.1,0-0.2,0.1-0.2,0.2c-0.1,0.1-0.1,0.1-0.2,0.1
	c0,0.1-0.1,0.2-0.2,0.2c-0.1,0.1-0.2,0.1-0.2,0.2c-0.2,0.2-0.3,0.3-0.5,0.6c-0.2,0.2-0.3,0.4-0.5,0.7c-0.3,0.5-0.5,1-0.8,1.4
	c-0.2,0.5-0.5,1-0.8,1.5c-0.2,0.6-0.4,1.1-0.6,1.6c-0.2,0.5-0.2,1.2-0.3,1.9c0,0.4,0,0.7,0.1,1s0.1,0.6,0.2,0.9
	c0.1,0.1,0.1,0.2,0.2,0.3s0.2,0.1,0.3,0.1c0,0.1,0.1,0.1,0.1,0.1c0.1,0,0.2,0,0.3,0.1c0.1,0,0.2,0,0.2,0c0.3,0.1,0.6,0,0.8-0.2
	s0.5-0.4,0.8-0.6c0.1,0,0.1-0.1,0.2-0.1c0,0,0.1-0.1,0.2-0.1c0.1,0,0.1-0.1,0.2-0.1c0,0,0.1-0.1,0.1-0.2c0-0.1,0.1-0.2,0.1-0.2
	c0,0,0,0,0,0s0,0,0,0c0.2-0.2,0.4-0.5,0.5-0.7s0.4-0.5,0.6-0.7c0.1-0.2,0.2-0.3,0.3-0.5c0.1-0.1,0.2-0.3,0.3-0.5
	c0,0,0.1-0.1,0.1-0.1c0,0,0.1-0.1,0.1-0.1c0.1,0,0.1-0.1,0.2-0.2c0.1-0.1,0.1-0.2,0.2-0.2c0,0.2,0,0.4-0.1,0.6
	c0,0.1-0.1,0.3-0.1,0.4c0,0.1,0,0.3,0,0.4s0,0.3,0,0.6c0,0.2,0,0.4,0.1,0.5c0,0.2,0.1,0.3,0.1,0.4c0.1,0.1,0.1,0.2,0.1,0.3
	c0,0.1,0.1,0.2,0.1,0.3c0,0.1,0,0.2,0.1,0.3c0,0,0.1,0.1,0.1,0.2c0.1,0.2,0.1,0.3,0.2,0.3c0,0.1,0.1,0.1,0.2,0.2
	c0.1,0.1,0.3,0.2,0.5,0.2c0.2,0,0.4,0,0.5,0c0.3,0.1,0.6,0,0.9,0l0.1-0.1h0.1c0.1,0,0.2-0.1,0.3-0.1c0.1,0,0.2-0.1,0.4-0.1v-0.1v0
	c0.2-0.1,0.3-0.2,0.4-0.3c0.1-0.1,0.2-0.2,0.3-0.3c0.1,0,0.3-0.1,0.5-0.1s0.4-0.2,0.4-0.3c0.1-0.1,0.2-0.2,0.3-0.3
	c0.1-0.1,0.2-0.2,0.3-0.3c0.1-0.1,0.2-0.2,0.2-0.2c0.1,0,0.1-0.1,0.1-0.3c0.1-0.1,0.1-0.1,0.1,0c0,0,0,0,0.1-0.1
	c0.2-0.2,0.2-0.3,0.3-0.3c0-0.1,0.1-0.2,0.2-0.4c0.1-0.1,0.2-0.2,0.3-0.4s0.2-0.3,0.3-0.4c0-0.1,0-0.1,0.1-0.1s0.1-0.1,0.1-0.1
	c-0.1,0-0.1,0-0.1,0c0,0-0.1-0.1-0.1-0.1c0-0.1,0.1-0.1,0.1-0.1c0.1,0,0.1-0.1,0.1-0.1c0,0-0.1,0-0.1,0c0,0-0.1,0-0.1,0
	c0,0,0-0.1,0-0.1c0.1,0,0.1,0,0-0.1c-0.1,0-0.1,0.1-0.1,0c0,0-0.1,0-0.1,0c-0.2,0-0.3,0.1-0.5,0.2c-0.2,0.1-0.3,0.2-0.4,0.4
	c0,0-0.1,0-0.2,0.1S77,18.9,77,18.9c-0.1,0-0.1,0.1-0.2,0.2s-0.1,0.1-0.2,0.2c-0.5,0.5-1,0.8-1.6,1.2c-0.6,0.3-1.2,0.6-2,0.8
	c0-0.1-0.1-0.2-0.1-0.3s-0.1-0.2-0.1-0.3c0-0.2,0-0.3,0.1-0.4c0-0.1,0.1-0.2,0.1-0.3c0,0,0-0.1,0-0.1c0,0,0,0,0-0.1
	c0.1-0.2,0.1-0.4,0.2-0.5c0.1-0.2,0.1-0.4,0.1-0.5c0-0.1,0-0.1,0-0.2s0-0.2,0-0.3c0,0,0-0.1,0.1-0.1c0,0,0-0.1,0-0.1
	c0-0.1,0.1-0.2,0.1-0.3c0-0.1,0.1-0.2,0.2-0.3l0-0.1c0.1-0.2,0.1-0.3,0.2-0.4c0-0.1,0.1-0.2,0.1-0.2c0.1-0.1,0.1-0.2,0.2-0.2
	c0.1-0.1,0.1-0.2,0.1-0.4c0.1-0.1,0.1-0.3,0.2-0.4c0-0.2,0.1-0.3,0.2-0.4c0-0.1,0-0.1,0-0.1c0,0,0-0.1,0-0.1c0.1-0.3,0.2-0.6,0.2-1
	c0-0.4,0-0.8,0-1.2c0-0.1,0-0.1,0-0.2c0-0.1,0-0.1,0-0.2c0-0.1,0-0.2-0.1-0.3s-0.1-0.2-0.2-0.3c0,0-0.1,0-0.2,0
	c-0.1-0.1-0.1-0.1-0.2-0.2h-0.1c-0.1,0-0.1,0-0.1-0.1c-0.1,0-0.1,0-0.2,0c-0.1,0-0.1,0-0.3,0c-0.1,0-0.2,0.1-0.3,0.2
	c-0.1,0.1-0.2,0.2-0.3,0.2c-0.1,0.2-0.1,0.3-0.2,0.4c-0.1,0.1-0.1,0.3-0.2,0.5c0,0.1,0,0.2-0.1,0.4c0,0.1-0.1,0.2-0.2,0.3
	c0,0.1-0.1,0.2-0.2,0.2c-0.1,0-0.1,0.1-0.2,0.2C72,13.8,71.9,13.7,71.9,13.6 M61.4,16.8C61.3,16.8,61.3,16.8,61.4,16.8
	c-0.1-0.1-0.1-0.3,0-0.5c0-0.1,0-0.1,0-0.1c0,0,0-0.1,0-0.1v-0.1c0-0.3,0.1-0.6,0.1-0.9s0.1-0.5,0.3-0.7c0-0.1-0.1-0.1-0.1-0.1v-0.2
	c0-0.1,0.1-0.2,0.1-0.3c0,0,0,0,0-0.1v0c0,0,0,0,0-0.1s0-0.2,0.1-0.4c0-0.1,0.1-0.3,0.1-0.5c0-0.2,0.1-0.3,0.1-0.5
	c0-0.3,0.1-0.5,0.1-0.8s0.1-0.5,0.1-0.8c0-0.2,0.1-0.4,0.2-0.8c0.1-0.4,0.2-0.8,0.3-1.2c0.1-0.4,0.2-0.8,0.3-1.2s0.2-0.6,0.2-0.6
	c0-0.1,0-0.1,0.1-0.2c0-0.1,0.1-0.1,0.1-0.2c0-0.2,0.1-0.3,0.2-0.5c0,0,0-0.1,0.1-0.1c0,0,0.1-0.1,0.2-0.2c0-0.1,0.1-0.2,0.1-0.4
	C64,5.1,64,5,64.1,4.8c0-0.1,0-0.2,0.1-0.3c0-0.1,0-0.2,0-0.2c0-0.1,0-0.2,0.1-0.2c0-0.2,0.1-0.3,0.2-0.5c0.1-0.1,0.1-0.3,0.2-0.5
	c0-0.1,0-0.1,0-0.1c0,0,0-0.1,0-0.1s0.1,0,0.1-0.1h0c0.1,0,0.1,0,0.2,0.1C64.9,3,65,3,65,3.1c0,0,0,0.1,0.1,0.1
	c0,0.2,0.1,0.4,0.1,0.7c0.1,0.2,0.1,0.5,0.1,0.8c0,0.3,0,0.6,0,0.9c0,0.2-0.1,0.4-0.1,0.8C65.1,6.7,65,7.1,65,7.5s-0.1,0.8-0.2,1.2
	c-0.1,0.4-0.1,0.6-0.2,0.7c-0.1,0.4-0.2,0.7-0.3,1c-0.1,0.3-0.2,0.7-0.3,1.1c0,0-0.1,0.1-0.1,0.1s0,0.1-0.1,0.2c0,0.1,0,0.1-0.1,0.2
	c0,0.1-0.1,0.1-0.1,0.2c0,0.1,0,0.3-0.1,0.4c-0.1,0.1-0.1,0.3-0.2,0.4c0,0.1,0,0.1,0,0.1c0,0,0,0.1,0,0.1s0,0-0.1,0c0,0,0,0.1,0,0.1
	c-0.1,0.3-0.2,0.6-0.4,0.9c-0.1,0.3-0.3,0.6-0.4,0.9c0,0-0.1,0.1-0.1,0.1c0,0,0,0.1-0.1,0.1c0,0-0.1,0.1-0.1,0.1c0,0,0,0.1-0.1,0.1
	c-0.1,0.2-0.2,0.4-0.3,0.5c-0.1,0.2-0.2,0.4-0.3,0.6C61.4,16.7,61.4,16.7,61.4,16.8C61.4,16.7,61.4,16.8,61.4,16.8 M64.3,1.3
	c0,0-0.1,0.1-0.1,0.1c0,0-0.1,0-0.1,0c0,0.1,0,0.1,0,0.1c0,0-0.1,0-0.1,0c-0.1,0-0.2,0.1-0.3,0.1c0,0-0.1,0-0.1,0c0,0-0.1,0-0.1,0
	c0,0-0.1,0-0.1,0.1s0,0-0.1,0c-0.3,0.3-0.6,0.6-0.8,0.9c-0.2,0.3-0.4,0.7-0.6,1c0,0.1,0,0.1,0,0.1c0,0-0.1,0.1-0.1,0.2
	c-0.3,0.5-0.5,1.1-0.8,1.6c-0.2,0.6-0.4,1.2-0.6,1.9l0.1,0.1v0.1c-0.1,0-0.1,0.1-0.1,0.1c0,0.1-0.1,0.1-0.1,0.2c0,0.1,0,0.1,0,0.2
	c0,0.2-0.1,0.4-0.1,0.4c-0.1,0.4-0.2,0.8-0.3,1.1s-0.2,0.8-0.3,1.2c-0.1,0.2-0.1,0.5-0.1,0.8c0,0.3-0.1,0.6-0.1,0.9
	c0,0.1,0,0.1,0,0.2c0,0,0,0.1,0,0.1c0,0,0,0.1,0,0.1c0,0.1,0,0.1,0,0.2s-0.1,0.1-0.1,0.1c-0.1,0.4-0.2,0.8-0.2,1.2s-0.1,0.8-0.2,1.2
	c0,0,0,0.1,0,0.1c0,0,0,0,0,0c0,0,0,0,0,0c0,0,0,0,0,0c0,0.1-0.1,0.2-0.1,0.3c0,0.4,0,0.8,0,1.2c0,0.4,0,0.7-0.1,1.1h0
	c0,0.4,0,0.7,0,1.1c0,0.4,0.1,0.8,0.1,1.2c0,0.1,0,0.2,0,0.3c0,0.2,0,0.3,0.1,0.5c0,0.2,0.1,0.3,0.1,0.5c0.1,0.2,0.2,0.4,0.2,0.5
	c0.1,0.1,0.1,0.2,0.2,0.3c0.1,0.2,0.2,0.2,0.2,0.2s0.1,0.1,0.1,0.2c0.1,0,0.1,0,0.2,0.1s0.1,0.1,0.1,0.1c0.1,0,0.3,0,0.4,0
	c0.1,0,0.2,0,0.3,0.1h0c0.1,0,0.2,0,0.2,0h0.1c0.1,0,0.2,0,0.2-0.1c0.1,0,0.1,0,0.2-0.1c0.1,0,0.2-0.1,0.2-0.1c0,0,0.1,0,0.1,0
	c0,0,0,0,0.1,0c0.1,0,0.2,0,0.3,0c0.1,0,0.2,0,0.3,0c0,0,0.1,0,0.1-0.1c0,0,0.1,0,0.1-0.1c0.1,0,0.2-0.1,0.2-0.1
	c0,0,0.1-0.1,0.2-0.2c0,0,0.1-0.1,0.2-0.2c0.1-0.1,0.2-0.2,0.3-0.3c0.1-0.1,0.2-0.2,0.3-0.3c0.1-0.1,0.1-0.1,0.2-0.2
	c0,0,0.1,0,0.1-0.1c0,0,0.1,0,0.1-0.1c0-0.1,0.1-0.2,0.2-0.2c0.1,0,0.2-0.1,0.2-0.2c0.1,0,0.1-0.1,0.2-0.2c0.1-0.1,0.2-0.2,0.2-0.3
	c0.1-0.1,0.1-0.2,0.2-0.3c0.1-0.1,0.1-0.1,0.1-0.1c0,0,0,0,0-0.1c0,0,0.1-0.1,0.1-0.2c0-0.1,0.1-0.1,0.1-0.2c0,0,0-0.1,0.1-0.1
	c0,0,0,0,0.1-0.1c0,0,0-0.1,0-0.1c0,0,0.1-0.1,0-0.1c0,0,0,0,0,0c0,0,0-0.1-0.1-0.1c0,0,0-0.1,0-0.1c0,0,0,0,0,0c0,0,0,0,0,0
	c0-0.1,0.1-0.1,0.1-0.2c0-0.1,0.1-0.1,0.1-0.2c0,0,0.1,0,0.1-0.1v-0.1l0,0c0,0,0,0,0,0s0,0,0,0c0.1-0.1,0.2-0.2,0.3-0.3
	c0.1-0.1,0.2-0.2,0.3-0.2c0,0,0,0,0-0.1c0,0,0,0,0-0.1c0,0,0-0.1,0-0.1c0,0,0,0,0-0.1c-0.1,0-0.1,0-0.1,0c0,0,0-0.1,0-0.1
	c0,0,0-0.1-0.1-0.1s-0.1,0-0.2,0.1h0c0,0,0,0,0,0s0,0,0,0c0,0,0,0,0,0c0,0,0,0,0,0c0,0,0,0,0,0c0,0,0,0.1,0,0.1c-0.1,0-0.1,0-0.1,0
	c-0.1,0.1-0.2,0.2-0.3,0.4c-0.1,0.1-0.2,0.2-0.4,0.4c0,0-0.1,0.1-0.3,0.3c-0.1,0.2-0.5,0.5-0.9,1c-0.1,0.1-0.1,0.1-0.2,0.1
	c-0.1,0-0.1,0-0.1,0.1c-0.1,0-0.1,0.1-0.1,0.1c0,0,0,0,0,0.1s0,0-0.1,0.1c0,0,0,0.1-0.1,0.1s0,0-0.1,0.1c0,0-0.1,0.1-0.2,0.2
	s-0.2,0.1-0.3,0.2h-0.1c-0.1,0-0.1,0.1-0.2,0.1C63.1,20.9,63,21,63,21c-0.2,0.2-0.3,0.3-0.5,0.4s-0.3,0.2-0.5,0.3
	c-0.1,0-0.1,0-0.2,0c-0.1,0-0.2,0-0.2,0h-0.3L61,21.6c-0.2-0.1-0.2-0.2-0.2-0.4c-0.1,0-0.1-0.1-0.1-0.2c0,0,0-0.1,0-0.1
	c0-0.1,0-0.1,0-0.2c0,0,0,0,0-0.1c0,0,0-0.1,0-0.1c0-0.1,0.1-0.2,0-0.3c0-0.1,0-0.2,0-0.3c0-0.1,0-0.2,0.1-0.2
	c0-0.1,0.1-0.1,0.1-0.2c0.1,0,0.1-0.1,0.2-0.1c0,0,0-0.1,0-0.1c0,0,0-0.1,0-0.2c0,0,0,0,0.1-0.1c0,0,0.1,0,0.1-0.1v-0.1
	c0.1-0.1,0.2-0.3,0.4-0.5c0.2-0.3,0.3-0.5,0.5-0.9c0.2-0.3,0.3-0.6,0.5-0.9c0.1-0.3,0.3-0.5,0.3-0.6c0.1-0.1,0.1-0.2,0.2-0.4
	s0.1-0.2,0.2-0.4v-0.1c0-0.1,0-0.1,0.1-0.1c0.1-0.1,0.1-0.1,0.1-0.3c0,0,0,0,0,0c0,0,0,0,0-0.1c0.1-0.2,0.2-0.3,0.3-0.4
	c0.1-0.1,0.1-0.2,0.1-0.4c0,0,0.1-0.1,0.1-0.1c0,0,0-0.1,0.1-0.1v-0.1c0-0.1,0.1-0.2,0.2-0.4c0.1-0.2,0.2-0.4,0.2-0.5
	c0-0.2,0.1-0.3,0.2-0.5s0.1-0.3,0.2-0.5c0.1-0.4,0.3-0.8,0.4-1.2c0.2-0.4,0.3-0.8,0.4-1.1c0-0.1,0.1-0.3,0.1-0.4s0.1-0.3,0.1-0.4
	c0,0,0-0.1,0.1-0.3S66,8,66,7.8c0-0.2,0.1-0.4,0.1-0.5c0-0.2,0-0.3,0-0.3c0-0.1,0-0.2,0-0.3s0-0.2,0-0.2c0-0.1,0.1-0.2,0.1-0.4
	c0-0.1,0-0.1,0-0.1l0,0c0,0,0.1-0.1,0-0.1c0,0,0-0.1,0-0.1V5.4c0,0,0-0.1,0-0.1c0,0,0-0.1,0-0.1c0-0.2,0.1-0.3,0.1-0.5
	c0-0.1,0-0.3,0-0.4c0-0.3,0-0.6-0.1-0.9c0,0,0-0.1,0-0.2c0-0.1-0.1-0.1-0.1-0.2c-0.1-0.1-0.1-0.1,0-0.3c0,0-0.1,0-0.1-0.1
	c-0.1,0-0.1-0.1-0.1-0.1c0-0.1-0.1-0.1-0.1-0.2V2.2c-0.1,0-0.2-0.1-0.2-0.2c-0.1-0.1-0.3-0.2-0.4-0.3c-0.1-0.1-0.2-0.2-0.3-0.3
	c0,0-0.1-0.1-0.1-0.1c-0.1,0-0.1,0-0.2,0h-0.2C64.5,1.2,64.4,1.2,64.3,1.3 M55.7,3.4c0.2-0.1,0.4-0.2,0.5-0.4c0,0,0,0,0.2-0.1
	c0.2,0,0.2-0.1,0.2-0.1c0,0,0,0,0-0.1s0.2,0,0.3-0.1s0.2,0,0.3,0c0.1,0,0.2,0,0.3,0.1c0.1,0.2,0.1,0.3,0.2,0.5c0,0.2,0,0.4,0,0.5
	c0,0.1,0,0.2,0,0.3c0,0.1,0,0.2,0,0.3c-0.1,0.6-0.2,1.2-0.4,1.7S57,7.3,56.9,7.9c0,0.1,0,0.2-0.1,0.4c0,0.1-0.1,0.2-0.1,0.4
	c0,0.2-0.1,0.3-0.1,0.5c0,0.2-0.1,0.3-0.1,0.4c-0.2,0.9-0.4,1.8-0.6,2.7c-0.2,0.9-0.6,1.7-1.1,2.4c-0.1,0-0.2,0.1-0.3,0.1
	s-0.2,0.1-0.3,0.2c-0.1,0.1-0.2,0.1-0.2,0c0-0.1-0.1-0.1-0.2,0c0,0-0.1,0-0.1,0.1c-0.1,0-0.1,0.1-0.2,0.1c-0.1,0-0.2-0.1-0.2-0.2
	c-0.1-0.1-0.1-0.2-0.2-0.3c-0.1-0.1-0.2-0.2-0.3-0.2c-0.1,0-0.2-0.1-0.3-0.2c-0.1-0.3-0.2-0.5-0.4-0.8c-0.1-0.3-0.3-0.5-0.4-0.8
	c0-0.1-0.1-0.2-0.1-0.3c-0.1-0.1-0.1-0.3-0.2-0.4s-0.1-0.2,0-0.4c0-0.1,0-0.3,0-0.4c0-0.1,0.1-0.3,0.1-0.4c0-0.2,0-0.4,0-0.5
	c0-0.2,0-0.3,0-0.5c0-0.1,0.1-0.2,0.1-0.4c0-0.1,0-0.2,0.1-0.4c0-0.1,0-0.2,0-0.3c0-0.1,0-0.2,0-0.3c0-0.1,0-0.3,0-0.4
	c0-0.1,0-0.3,0-0.4c0,0,0.1-0.1,0.1-0.1c0,0,0.1-0.1,0.1-0.1c0,0,0,0,0,0c0,0,0,0,0,0c0.1-0.2,0.3-0.4,0.4-0.6
	c0.2-0.2,0.3-0.4,0.5-0.6c0.3-0.4,0.7-0.8,1-1.2s0.8-0.8,1.2-1C55.3,3.7,55.5,3.5,55.7,3.4 M58.5,2.1c0-0.1-0.1-0.1-0.1-0.2
	c-0.1-0.1-0.1-0.1-0.3-0.1c-0.1,0-0.2-0.1-0.2-0.1L58,1.7c-0.1,0-0.2,0-0.3-0.1c-0.1,0-0.2,0-0.3,0c0,0-0.1,0-0.1,0s-0.1,0-0.1,0
	c0,0-0.1,0-0.1,0s-0.1,0-0.2,0.1c-0.1,0-0.1,0-0.1,0c0,0-0.1,0-0.3,0c0,0-0.1,0-0.1,0c-0.1,0-0.1,0-0.1,0c-0.1,0-0.1,0-0.2,0
	c0,0-0.1,0.1-0.1,0.1c-0.6,0.3-1.1,0.6-1.6,1.1c-0.5,0.4-0.9,0.9-1.3,1.4c-0.2,0.2-0.4,0.4-0.5,0.6c-0.2,0.2-0.3,0.4-0.5,0.6
	c0-0.3,0-0.5,0-0.8s0-0.5,0.1-0.7c0-0.1,0-0.3,0-0.4c0-0.1,0-0.2,0-0.4v-1c0-0.4-0.1-0.7-0.3-0.9c0-0.2-0.2-0.4-0.5-0.5
	c0,0,0-0.1-0.1-0.1c0,0,0,0,0-0.1c-0.2-0.2-0.5-0.3-0.8-0.5C49.9,0,49.5,0,49.2,0c-0.2,0-0.4,0.1-0.6,0.1c-0.2,0.1-0.4,0.1-0.6,0.2
	c-0.1,0.1-0.3,0.2-0.4,0.2c-0.2,0.1-0.3,0.1-0.4,0.2c-0.2,0-0.3,0.1-0.4,0.2c-0.1,0.1-0.2,0.1-0.4,0.2c0,0.1-0.1,0.1-0.2,0.2
	c-0.1,0-0.1,0.1-0.2,0.1c-0.1,0.2-0.1,0.4-0.1,0.7c0,0.2,0.2,0.4,0.4,0.5l0.1,0.1C46.7,3,47,3,47.2,2.9c0.2-0.1,0.5-0.2,0.7-0.3
	c0.1-0.2,0.3-0.4,0.5-0.5c0.2-0.1,0.5-0.2,0.7-0.3c0.1,0,0.2,0.1,0.2,0.1c0.1,0,0.1,0.1,0.2,0.1c0,0.1,0.1,0.1,0.1,0.2
	s0.1,0.1,0.1,0.2c0,0.1,0,0.1,0,0.2c0,0.1,0,0.1,0,0.2c0,0.5-0.1,0.9-0.3,1.3c-0.2,0.4-0.3,0.8-0.4,1.2c-0.1,0.2-0.2,0.4-0.2,0.6
	c-0.1,0.2-0.1,0.4-0.2,0.6c0,0,0,0.1-0.1,0.1c0,0,0,0.1-0.1,0.1c0,0.1,0,0.2,0,0.3c0,0.1-0.1,0.2-0.1,0.3c0,0.1-0.1,0.2-0.1,0.3
	c0,0.2-0.1,0.4-0.2,0.6s-0.1,0.4,0,0.6C48.1,8.8,48.1,9,48,9.2C48,9.4,48,9.6,48,9.8c0,0,0,0.1,0,0.1s0,0.1,0,0.1
	c0,0.2,0,0.4-0.1,0.5c0,0.2-0.1,0.4-0.1,0.5c0,0.1,0,0.2,0,0.4c0,0.1,0,0.2,0,0.4c0,0.3-0.1,0.7-0.2,1.1c-0.1,0.4-0.1,0.7-0.2,1.1
	c-0.1,0.3-0.1,0.7-0.2,1.1c-0.1,0.4-0.1,0.8-0.2,1.1c0,0.2-0.1,0.4-0.1,0.6c0,0.2,0,0.4-0.1,0.6c0,0.3-0.1,0.6-0.2,0.9
	s-0.1,0.6-0.2,0.9c0,0.2-0.1,0.4-0.1,0.7c0,0.2,0,0.4-0.1,0.6c-0.1,0.5-0.2,1-0.3,1.5c-0.1,0.5-0.1,1,0,1.4c0,0,0,0.1,0,0.1
	c0,0,0,0.1,0,0.1c0,0.1,0,0.2,0,0.3c0,0.1,0,0.2,0,0.4c0,0.1,0,0.2,0,0.3c0,0.1,0,0.2,0,0.3c0,0.2,0.1,0.3,0.1,0.4
	c0.1,0.1,0.1,0.3,0.1,0.4c0.1,0,0.2,0.1,0.3,0.1s0.1,0.1,0.1,0.3c0,0,0.1,0,0.1,0.1c0,0,0,0,0.1,0c0,0,0,0,0-0.1c0,0,0,0,0,0
	c0.2,0,0.3,0,0.4,0c0.1,0,0.2,0.1,0.3,0.2c0,0,0.1-0.1,0.1-0.1c0,0,0.1,0,0.1,0c0-0.1,0-0.1,0-0.2c0,0,0-0.1,0.1-0.2
	c0.1,0,0.2-0.1,0.2-0.1c0-0.1,0.1-0.1,0.2-0.1c0-0.2,0.1-0.4,0.1-0.6s0.1-0.4,0.1-0.6c0,0,0,0,0.1,0s0.1,0,0.1,0
	c0-0.1,0.1-0.2,0.1-0.3c0-0.1,0.1-0.1,0.2-0.2c0,0,0-0.1,0-0.1s0.1,0,0.1-0.1c0,0,0-0.1,0-0.1c0,0,0-0.1,0-0.1
	c0.1-0.1,0.2-0.2,0.2-0.3c0-0.1,0.1-0.2,0.2-0.3c0,0,0-0.1,0-0.1c0,0,0,0,0-0.1c0.1-0.1,0.1-0.3,0.1-0.4s0.1-0.3,0.1-0.4
	c0.1-0.2,0.1-0.5,0.2-0.8c0-0.3,0.1-0.5,0.1-0.8c0-0.1,0-0.1,0-0.1c0-0.3,0.1-0.5,0.1-0.7c0-0.2,0.1-0.5,0.1-0.8c0-0.1,0-0.1,0-0.2
	c0,0,0-0.1,0-0.1c0-0.2,0-0.3,0.1-0.5c0-0.2,0-0.3,0.1-0.5c0-0.2,0-0.3,0.1-0.5c0-0.2,0.1-0.3,0.1-0.5c0-0.1,0-0.2,0-0.2
	c0,0,0-0.1,0-0.2c0-0.2,0.1-0.3,0.1-0.5c0.1-0.2,0.1-0.4,0.1-0.6c0,0,0,0,0,0s0,0,0-0.1c0-0.1,0-0.2,0.1-0.3c0-0.1,0-0.2,0.1-0.3
	c0.1,0,0.1,0,0.1,0c0,0,0-0.1,0-0.1c0,0,0-0.1,0-0.1c0,0,0,0,0.1-0.1c0.1,0,0.2-0.1,0.2-0.1c0,0,0-0.1,0-0.1c0,0,0,0,0,0
	c0,0,0,0,0.1,0.1c0.1,0.2,0.2,0.4,0.2,0.6c0,0.1,0.1,0.3,0.1,0.4c0,0.1,0.1,0.2,0.2,0.3c0.1,0.1,0.3,0.2,0.5,0.4c0,0,0,0.1,0.1,0.2
	c0.1,0.1,0.1,0.2,0.2,0.3c0.1,0.1,0.1,0.2,0.2,0.3c0.1,0.1,0.1,0.1,0.1,0.1c0,0.1,0.1,0.1,0.2,0.2c0.1,0.1,0.2,0.1,0.3,0.2
	c0.1,0.1,0.2,0.2,0.4,0.2c0.1,0,0.2,0,0.3,0c0.1,0,0.2-0.1,0.4,0c0,0.1,0.1,0.1,0.1,0.1c0.1,0,0.1,0,0.2,0c0,0,0,0,0,0c0,0,0,0,0,0
	c0.1,0,0.1,0,0.1,0s0.1,0,0.1,0c0.1,0,0.1-0.1,0.2-0.1c0.1,0,0.1,0,0.2-0.1c0.1,0,0.2,0,0.3,0c0.1,0,0.2,0,0.3,0
	c0.1,0,0.1,0,0.2-0.1c0,0,0.1-0.1,0.1-0.1s0.1,0,0.1,0s0,0,0.1,0c0.1,0,0.1-0.1,0.2-0.1s0.1-0.1,0.2-0.1c0,0,0.1,0,0.1-0.1
	c0,0,0,0,0.1-0.1c0.1-0.2,0.2-0.4,0.3-0.5c0,0,0.1,0,0.1,0c0,0,0,0,0.1,0c0-0.1,0.1-0.1,0.1-0.1c0-0.1,0-0.2,0.1-0.2
	c0.1-0.1,0.1-0.1,0.1-0.2c0.1,0,0.2-0.1,0.2-0.2c0-0.1,0.1-0.2,0.2-0.2c0,0,0-0.1,0-0.1s0,0,0-0.1c0.1-0.1,0.2-0.2,0.3-0.3
	c0-0.1,0.1-0.3,0.1-0.4c0,0,0.1-0.1,0.1-0.1c0.1-0.2,0.1-0.4,0.2-0.5s0.1-0.4,0.1-0.5c0-0.2,0.1-0.3,0.1-0.5c0-0.1,0.1-0.3,0.1-0.4
	c0-0.1,0.1-0.2,0.1-0.3s0-0.2,0.1-0.2c0.1-0.4,0.2-0.8,0.2-1.1c0-0.1,0.1-0.2,0.1-0.4c0-0.1,0.1-0.2,0.1-0.4c0-0.1,0-0.1,0-0.2
	c0-0.1,0-0.1,0-0.2c0-0.3,0-0.6,0-0.9c0-0.3,0-0.6,0-0.9c0-0.2,0-0.4,0-0.6c0-0.2,0-0.4,0-0.5c0-0.1-0.1-0.2,0-0.4
	c0-0.1,0-0.2,0-0.3c0,0-0.1-0.1-0.1-0.1c0-0.3,0-0.6-0.1-0.8c-0.1-0.3-0.1-0.6-0.1-0.9c-0.1-0.2-0.1-0.3-0.1-0.4
	c0-0.1-0.1-0.3-0.2-0.4c-0.1,0-0.1-0.1-0.1-0.2c0-0.1-0.1-0.2-0.2-0.2c0,0,0,0,0,0.1s0,0,0,0.1c-0.1-0.1-0.1-0.1-0.2-0.2
	c0-0.1-0.1-0.2-0.2-0.2c0,0,0,0,0,0s0,0,0,0C58.6,2.2,58.6,2.2,58.5,2.1 M35.9,13.9c0,0.1,0,0.2,0.1,0.3c0,0.1,0.1,0.2,0.1,0.3
	c0,0.1,0.1,0.1,0.1,0.1c0,0.1-0.1,0.2-0.2,0.3c-0.1,0.1-0.1,0.2-0.1,0.3c0,0.1,0,0.1-0.1,0.1c-0.1,0-0.1,0.1-0.2,0.2
	c-0.1,0.1-0.1,0.1-0.2,0.2c0,0.1-0.1,0.1-0.1,0.1c-0.1,0.1-0.2,0.2-0.3,0.3s-0.2,0.2-0.3,0.2c-0.2,0.2-0.4,0.4-0.5,0.6
	s-0.3,0.3-0.5,0.4c-0.3,0.3-0.6,0.6-0.9,0.9c0-0.1,0.1-0.2,0.2-0.3c0.1-0.1,0.2-0.4,0.4-0.9c0-0.1,0.1-0.3,0.2-0.4
	c0.1-0.1,0.1-0.3,0.2-0.4c0.3-0.2,0.4-0.4,0.6-0.6c0.1-0.3,0.3-0.5,0.5-0.8c0,0,0-0.1,0.1-0.1c0.1,0,0.1-0.1,0.1-0.1
	c0.1-0.1,0.3-0.3,0.4-0.4s0.3-0.2,0.6-0.3l-0.1,0C35.9,13.8,35.9,13.9,35.9,13.9 M33.7,18.7C33.8,18.7,33.8,18.7,33.7,18.7
	c0.1,0,0.2-0.1,0.3-0.2c0.1-0.1,0.2-0.2,0.3-0.2c0,0,0.1,0,0.1,0c0.1,0,0.2-0.1,0.2-0.1c0,0,0.1,0,0.2-0.1c0,0,0,0,0.1,0.1
	c0.1,0,0.2-0.1,0.2-0.2c0.1-0.1,0.1-0.1,0.2-0.1c0.1,0,0.1-0.1,0.2-0.1c0,0,0.1-0.1,0.2-0.2c0.1,0,0.2,0,0.2,0c0,0,0.1-0.1,0.2-0.2
	c0.1-0.1,0.3-0.3,0.5-0.4s0.3-0.3,0.5-0.5c0.1-0.2,0.2-0.3,0.2-0.4c0-0.1,0.1-0.2,0.2-0.4l0.1-0.1c0-0.1,0.1-0.2,0.1-0.4
	c0-0.2,0.1-0.3,0.1-0.5c0-0.1,0.1-0.1,0-0.2c0-0.1,0-0.1,0-0.2c0.1-0.1,0.1-0.3,0-0.5c0-0.1,0-0.2,0-0.4c0-0.1-0.1-0.3-0.1-0.4
	c-0.1-0.1-0.2-0.2-0.3-0.4c-0.1-0.2-0.2-0.4-0.3-0.5c0-0.1,0-0.1,0-0.1s0,0,0-0.1c-0.1-0.1-0.2-0.2-0.3-0.3
	c-0.1-0.1-0.1-0.2-0.2-0.2c0,0-0.1-0.1-0.1-0.1c0,0-0.1-0.1-0.1-0.1c-0.1,0-0.3,0-0.4-0.1c-0.1,0-0.2,0-0.4,0c-0.2,0-0.3,0-0.4,0.1
	c0,0.1-0.1,0.1-0.2,0.2c-0.1,0-0.2,0.1-0.3,0.1c0,0,0,0,0,0.1c-0.2,0.1-0.3,0.2-0.4,0.3c-0.1,0.1-0.2,0.3-0.4,0.4
	c-0.2,0.2-0.3,0.4-0.4,0.6s-0.2,0.5-0.3,0.8c-0.5,0.6-0.9,1.2-1.3,1.9c-0.4,0.6-0.8,1.4-1.1,2.1c-0.1,0.1-0.2,0.2-0.2,0.3
	c0,0.1-0.1,0.3-0.2,0.4c-0.1,0.3-0.2,0.6-0.3,0.9c-0.1,0.3-0.1,0.6-0.2,0.9c0,0.2,0,0.4,0,0.5c0,0.1,0,0.2,0,0.2c0,0.1,0,0.1,0,0.2
	c0,0.1,0,0.2,0,0.4c0.1,0.3,0.2,0.5,0.3,0.7c0.1,0.2,0.3,0.4,0.5,0.6c0,0,0,0.1,0,0.1c0,0,0,0,0,0.1c0,0,0.1,0,0.1,0
	c0,0,0.1,0,0.1,0c0,0,0,0.1,0,0.1c0,0,0,0,0,0.1c0.1,0,0.3,0,0.4,0c0.1,0.1,0.2,0.1,0.3,0.1c0.2,0.1,0.4,0,0.5,0
	c0.1-0.1,0.3-0.1,0.5-0.1h0.2c0.1,0,0.1,0,0.2-0.1c0.1,0,0.1-0.1,0.2,0c0,0,0.1,0,0.2,0c0.1-0.1,0.3-0.1,0.4-0.1
	c0.1,0,0.2-0.1,0.4-0.1c0.3-0.1,0.6-0.2,0.8-0.3c0.2-0.1,0.5-0.2,0.8-0.4c0.1,0,0.2-0.1,0.4-0.3c0.2-0.1,0.4-0.3,0.6-0.5
	s0.4-0.3,0.6-0.5c0.2-0.1,0.4-0.2,0.4-0.3c0.2-0.2,0.4-0.4,0.6-0.5c0.2-0.1,0.3-0.3,0.5-0.6c0.1-0.1,0.1-0.1,0.2-0.1
	s0.1-0.1,0.2-0.2c0.2-0.2,0.3-0.4,0.5-0.6c0.1-0.2,0.3-0.4,0.5-0.6c0-0.1,0-0.1-0.1-0.1c0,0,0-0.1,0-0.1c0,0,0,0,0-0.1
	c0,0,0,0,0-0.1c-0.1,0-0.1,0.1,0,0.1c0.1,0,0.1,0,0-0.1c-0.1,0-0.2,0-0.3,0v-0.1c-0.1-0.1-0.1-0.1-0.1,0c-0.2,0.2-0.3,0.3-0.5,0.4
	c-0.2,0.1-0.3,0.2-0.5,0.3l-0.8,0.6c0,0-0.1,0.1-0.3,0.3c-0.2,0.1-0.4,0.3-0.6,0.4c-0.2,0.1-0.4,0.3-0.6,0.4
	c-0.2,0.1-0.3,0.2-0.4,0.2c-0.4,0.2-0.8,0.3-1.2,0.5c-0.3,0.2-0.8,0.3-1.2,0.4c-0.2,0-0.4,0.1-0.6,0.2s-0.4,0.1-0.6,0.2
	c-0.1,0-0.2,0-0.2,0s-0.1,0-0.2,0c-0.1,0-0.2-0.1-0.3-0.1c-0.1,0-0.2-0.1-0.2-0.2c0-0.2,0-0.3,0-0.3c0,0,0.1-0.1,0.1-0.3
	c0.1-0.2,0.1-0.4,0.2-0.5s0.1-0.3,0.2-0.5c0.1-0.1,0.2-0.2,0.2-0.4c0-0.2,0.1-0.3,0.3-0.3c0,0,0.1,0,0.1,0c0.1,0,0.1,0,0.2,0
	c0,0,0,0,0,0s0,0,0,0C32.9,19,33,19,33,19c0,0,0.1-0.1,0.1-0.1c0.1,0,0.2,0,0.3,0.1L33.7,18.7z M25.1,23.9L25.1,23.9
	C25.1,23.9,25.1,24,25.1,23.9C25.1,24,25.1,23.9,25.1,23.9 M25.5,22.6C25.4,22.6,25.4,22.6,25.5,22.6c-0.1,0.1-0.1,0.1-0.2,0.1
	C25.3,22.6,25.4,22.6,25.5,22.6 M23.5,11.9L23.5,11.9L23.5,11.9z M28.6,3.8c-0.1,0.1-0.2,0.1-0.3,0.1c0,0-0.1,0-0.1,0
	c0,0-0.1,0-0.1,0c-0.1,0.1-0.2,0.2-0.3,0.3c-0.1,0.1-0.2,0.2-0.3,0.3C27.4,5,27.2,5.4,27,5.8s-0.4,0.8-0.5,1.3
	c-0.1,0.3-0.2,0.6-0.3,0.9c-0.1,0.3-0.2,0.6-0.3,0.9c-0.1,0.3-0.2,0.6-0.3,0.9c-0.1,0.3-0.2,0.6-0.3,0.9c-0.2,0-0.4,0.1-0.6,0.1
	s-0.4,0.1-0.6,0.1c0,0-0.1,0-0.1,0.1c-0.1,0-0.1,0-0.1,0c0,0,0,0.1-0.1,0.1c0,0-0.1,0-0.1,0.1c-0.1,0-0.1,0-0.1,0.1c0,0-0.1,0-0.1,0
	c0,0,0,0,0,0.1c0,0-0.1,0-0.1,0c0,0,0,0-0.1,0c-0.2,0.1-0.3,0.1-0.4,0.2c-0.1,0.1-0.2,0.2-0.3,0.3c0,0,0.1,0.1,0.1,0.1
	c0,0,0,0-0.1,0c0,0,0.1,0,0.1,0c0,0,0,0.1-0.1,0.1c0,0-0.1,0-0.1,0.1c0,0,0.1,0,0.1-0.1c0,0,0,0,0,0s0,0,0,0v0c0,0,0.1,0,0,0.1
	c0,0,0,0.1,0,0.1c0.1-0.1,0.1-0.1,0.1-0.1c0,0,0.1,0,0.1,0c0,0,0,0,0.1,0c0,0,0,0.1,0,0.1c0,0,0.1-0.1,0.1-0.1c0.1,0,0.1,0,0.2,0
	c0,0,0,0,0,0c0,0,0,0,0,0c0,0,0.1-0.1,0.1-0.1C23.3,11.9,23.1,12,23,12c0,0,0,0,0,0c0,0,0,0,0,0c0,0,0,0,0.1,0c0,0,0,0,0.1,0
	c0,0,0.1,0,0.1,0c0,0,0,0,0.1,0c0,0,0,0,0,0c0,0,0,0,0,0c0,0,0.1,0,0.1-0.1c0,0,0-0.1,0.1-0.1c0,0,0,0.1,0,0.1l0-0.1c0,0,0,0,0.1,0
	c0,0,0,0,0.1,0c0,0,0,0,0,0h0.1c0,0,0,0,0.1,0c0,0,0.1,0,0.1-0.1v0.1c0,0,0,0,0,0s0,0,0,0c0.1,0,0.2,0,0.3-0.1c0,0-0.1,0-0.1-0.1
	c0-0.1,0-0.1,0.1,0c0,0,0.1,0,0.1,0c0,0,0.1,0,0.1,0c0,0,0.1,0,0.1,0c0,0,0,0,0.1,0c0.1,0,0.1,0,0.2,0c0.1,0,0.1,0,0.2,0
	c0,0,0,0,0,0c0,0,0,0,0.1,0c0,0.2-0.1,0.4-0.1,0.5s-0.1,0.3-0.2,0.5c0,0.1,0,0.1,0,0.2c0,0,0,0.1,0,0.1c0,0,0,0.1-0.1,0.1
	c0,0,0,0.1-0.1,0.1c0,0.1,0,0.2,0,0.3s0,0.2-0.1,0.3c0,0.2-0.1,0.5-0.1,0.7C24.1,15,24,15.2,24,15.4c0,0.1,0,0.2-0.1,0.3
	s0,0.2,0,0.3c0,0.1-0.1,0.3-0.1,0.4c0,0.1,0,0.3-0.1,0.4c0,0,0,0.1-0.1,0.2v0.3c0,0.7-0.1,1.4-0.2,1.9c0,0.1-0.1,0.2-0.1,0.3
	c0,0.1,0,0.2,0,0.4c0,0.2,0,0.4,0,0.6c0,0.2,0,0.4,0,0.6c0,0.2,0,0.4,0,0.6c0,0.2,0,0.4,0.1,0.6c0,0.1,0.1,0.2,0.1,0.2
	c0,0,0.1,0.1,0.1,0.1c0.1,0.1,0.1,0.3,0.1,0.6v0.1l0.1,0.1v0.1v0.1l0,0.1c0.1,0,0.1,0,0.1,0.1c0,0,0,0.1,0.1,0.1v0v0
	c0,0.1,0.1,0.1,0.2,0c0,0.1,0,0.1,0.1,0.2c0.1,0,0.1,0.1,0.2,0.1c0,0,0,0.1,0.1,0.1c0,0,0.1,0.1,0.1,0.1h0c0.1,0,0.2-0.1,0.3-0.1
	h0.1c0,0,0,0,0.1-0.1h0.2c0.1,0,0.1,0,0.2-0.1c0.1,0,0.1,0,0.2-0.1h0.1c0,0,0.1,0,0.1-0.1c0.1-0.1,0.3-0.2,0.4-0.2s0.3-0.1,0.5-0.2
	c0,0,0,0,0.1,0c0,0,0,0,0,0c0,0,0-0.1,0-0.1c0,0,0,0,0,0l0.1-0.1c0.1,0,0.1-0.1,0.1,0c0,0,0,0,0,0c0,0,0,0,0,0c0,0,0,0,0,0
	s0,0,0-0.1c0.1,0,0.2,0,0.3-0.1c0.1-0.1,0.1-0.1,0.1-0.2c0,0,0.1,0,0.2-0.1c0.1-0.1,0.1-0.1,0.1-0.1c0.3-0.3,0.7-0.6,1.1-0.8
	c0.4-0.3,0.7-0.5,1-0.8c0,0,0-0.1,0.1-0.1c0,0,0,0,0.1,0c0,0,0,0,0,0c0,0,0,0,0,0l0.1-0.1c0.1-0.1,0.1-0.1,0.2-0.2s0.1-0.1,0.2-0.2
	c0.1-0.1,0.2-0.2,0.3-0.3c0.1-0.1,0.1-0.2,0.2-0.3c0.1-0.2,0.3-0.4,0.5-0.5c0.2-0.2,0.3-0.3,0.5-0.5c0.1,0,0.2-0.1,0.3-0.2
	c0.1-0.1,0.1-0.2,0.2-0.3c0,0,0,0,0,0c0,0,0,0,0,0c0,0,0,0,0,0c0,0,0,0,0,0c0,0,0,0,0,0c0,0,0,0,0,0c-0.1,0-0.1,0-0.2,0
	c-0.1,0-0.1,0-0.1,0c0-0.1-0.1-0.2,0-0.3c0-0.1,0-0.2,0.1-0.2c-0.1,0-0.2-0.1-0.2-0.2c-0.2,0.1-0.3,0.2-0.4,0.3
	c-0.1,0.1-0.3,0.2-0.4,0.3c-0.1,0.1-0.3,0.2-0.4,0.3c-0.1,0.1-0.2,0.2-0.4,0.3c-0.1,0.1-0.3,0.2-0.4,0.3c-0.1,0.1-0.3,0.2-0.4,0.3
	c-0.1,0.1-0.3,0.2-0.4,0.3c-0.1,0.1-0.3,0.2-0.4,0.3c-0.3,0.2-0.6,0.4-0.8,0.6s-0.5,0.4-0.8,0.6c-0.1,0.1-0.3,0.2-0.4,0.3
	c-0.1,0.1-0.3,0.2-0.4,0.3c0,0-0.1,0-0.1,0.1c0,0-0.1,0-0.1,0.1l-0.2,0.2c0,0-0.1,0.1-0.2,0.2c-0.1,0.1-0.2,0.1-0.3,0.1
	c-0.1,0-0.1,0-0.1-0.1c0,0,0,0,0,0c0,0,0,0,0,0c0-0.1,0-0.2,0-0.3V22c0-0.1,0-0.1,0-0.1c0,0,0-0.1,0.1-0.1c0-0.1,0-0.1,0-0.2
	c0,0,0.1-0.1,0-0.2l0.1-0.1v-0.1c0-0.1,0-0.1,0.1-0.2c0,0,0.1-0.1,0.1-0.2c0-0.1,0.1-0.2,0.1-0.3c0-0.1,0-0.2,0.1-0.2
	c0-0.2,0-0.3,0.1-0.4c0.1-0.1,0.1-0.2,0.1-0.4v-0.1c0,0,0-0.1,0.1-0.1c0.1-0.2,0.1-0.4,0.2-0.6s0.1-0.4,0.1-0.6
	c0-0.1,0.1-0.2,0.1-0.3c0-0.1,0-0.2,0.1-0.3c0-0.1,0.1-0.1,0.1-0.1c0-0.1,0.1-0.2,0.1-0.3c0-0.1,0-0.2,0.1-0.3c0,0,0,0,0-0.1
	c0,0,0,0,0.1-0.1l0.1-0.2l0.1-0.4c0-0.1,0.1-0.2,0.2-0.3c0.1-0.1,0.1-0.2,0.1-0.3v-0.1c0,0,0-0.1,0-0.1c0,0,0-0.1,0-0.1
	c0,0,0-0.1,0-0.1c0,0,0-0.1,0-0.1v-0.4c0-0.2,0.1-0.3,0.1-0.3c0-0.1,0-0.1,0-0.2c0,0,0-0.1,0-0.2c0.1-0.3,0.2-0.6,0.3-0.9
	c0.1-0.3,0.2-0.6,0.3-1c0.1,0,0.2,0,0.3,0c0.1,0,0.1,0,0.2-0.1c0,0,0,0,0,0c0,0,0,0,0,0c0.1,0,0.1,0,0.1,0c0,0,0.1-0.1,0.1-0.1
	c0,0,0,0,0,0c0,0,0,0,0,0c0,0-0.1,0-0.1,0c0,0-0.1,0-0.1,0c-0.1,0-0.1,0-0.1,0c0,0,0.1-0.1,0.2-0.1c0.1,0,0.2,0,0.3-0.1c0,0,0,0,0,0
	c0,0,0,0,0,0h0.2c0,0,0,0,0,0s0,0,0,0c0,0,0,0,0,0s0,0,0,0c0.1,0,0.2-0.1,0.3,0c0.1,0,0.2,0,0.2-0.1c0,0.1,0.1,0.1,0.2,0.1v-0.1
	c0,0,0,0,0,0c0,0,0,0,0,0c0,0,0,0,0-0.1c0,0,0.1,0,0.1,0c0,0,0-0.1,0.1-0.1c0.1,0,0.2,0,0.2,0c0.1,0,0.2,0,0.3,0
	c0.1,0,0.2,0,0.3-0.1c-0.1,0-0.2,0-0.4,0c-0.1,0-0.3,0-0.4,0c0,0,0,0-0.1,0c0,0,0,0-0.1,0l-0.1,0c0,0-0.1,0-0.1,0c0,0,0,0-0.1,0
	c0,0,0,0,0,0h0h-0.1c0-0.1,0.1-0.1,0.2-0.1c0.1,0,0.2,0,0.2-0.1c0,0,0.1,0,0.1,0c0,0,0.1,0,0.1,0V11c0.1,0,0.2,0,0.4,0
	c0.1,0,0.2,0,0.3,0h0.1c0.1,0,0.2,0,0.2-0.1h0h-0.1v-0.1c0,0-0.1,0-0.1,0c-0.1,0-0.1,0-0.1,0c0,0,0,0,0,0c0,0,0,0,0,0
	c0,0-0.1,0-0.1,0c0,0-0.1,0-0.1,0c0,0,0,0,0,0c0,0,0,0,0,0c-0.4,0-0.8-0.1-1.3,0c-0.4,0-0.9,0-1.3,0c0-0.1,0.1-0.2,0.1-0.2
	c0,0,0,0,0,0c0,0,0,0,0,0c0.1-0.2,0.1-0.3,0.2-0.5s0.1-0.3,0.1-0.5s0.1-0.3,0.2-0.5c0-0.1,0.1-0.3,0.2-0.5c0.1-0.2,0.1-0.5,0.2-0.7
	c0.1-0.2,0.1-0.5,0.2-0.8c0-0.1,0-0.1,0-0.3c0,0,0-0.1,0-0.1c0-0.1,0-0.1,0-0.1c0,0,0,0,0-0.1c0,0,0,0,0-0.1c0-0.2,0.1-0.4,0-0.7
	c0-0.3,0-0.5,0-0.7c0,0,0-0.1,0-0.1c0,0,0,0,0-0.1c0,0,0-0.1-0.1-0.1c0,0,0-0.1,0-0.1c0,0,0,0,0-0.1c0,0-0.1-0.1-0.1-0.1
	c0,0-0.1-0.1-0.1-0.1c0,0-0.1-0.1-0.1-0.1C29.5,4,29.5,4,29.4,4h-0.1l-0.1-0.1c-0.1-0.1-0.1-0.2-0.2-0.2h-0.1
	C28.8,3.7,28.7,3.8,28.6,3.8 M16.7,22.3C16.7,22.3,16.7,22.3,16.7,22.3C16.7,22.4,16.7,22.4,16.7,22.3 M19.5,12
	c-0.1,0-0.2,0.1-0.3,0.1c0,0-0.1,0-0.1,0h-0.1h0c0,0,0,0,0,0.1c0,0,0,0-0.1,0c0,0,0,0-0.1,0c-0.1,0-0.1,0.1-0.2,0.2
	c-0.1,0.1-0.1,0.1-0.2,0.2l-0.1,0.1c0,0.1,0,0.1,0,0.1c-0.1,0.4-0.3,0.9-0.4,1.3c-0.2,0.4-0.3,0.8-0.5,1.2c0,0.1-0.1,0.2-0.1,0.3
	c0,0.1,0,0.2-0.1,0.3c0,0.1-0.1,0.2-0.1,0.2c0,0.1-0.1,0.2-0.1,0.2c0,0.1,0,0.2-0.1,0.3c-0.1,0.2-0.1,0.5-0.2,0.7
	c-0.1,0.2-0.1,0.5-0.2,0.8c0,0.1,0,0.2,0,0.3v0.3c0,0.2,0,0.4,0,0.6c0,0.2-0.1,0.4-0.1,0.6c0,0.2-0.1,0.4-0.1,0.6
	c0,0.2,0,0.4-0.1,0.6v0.4c0,0.1,0,0.2,0,0.2s0,0.2,0,0.2c0,0.1,0,0.2,0,0.2s0,0.1,0.1,0.2c0,0.1,0.1,0.3,0.2,0.4
	c0.1,0.1,0.2,0.2,0.2,0.3c0,0,0,0.1,0,0.1c0,0,0,0,0,0.1c0,0.1,0.1,0.2,0.2,0.4c0,0,0.1,0.1,0.1,0.1c0,0,0.1,0.1,0.1,0.1
	c0.1,0.1,0.2,0.2,0.4,0.2h0.1c0.2,0,0.4-0.1,0.5-0.2c0,0,0.1,0,0.1,0s0,0,0,0c0,0,0,0,0.1,0c0.1-0.1,0.2-0.1,0.3-0.1h0.1
	c0,0,0,0,0.1-0.1c0,0,0.1-0.1,0.1-0.1c0.4-0.2,0.7-0.5,1-0.8c0.3-0.3,0.6-0.6,1-0.8c0.1-0.1,0.1-0.1,0.2-0.2c0.1,0,0.1-0.1,0.2-0.1
	c0,0,0.1-0.1,0.1-0.1c0,0,0,0,0.1-0.1c0.1,0,0.1-0.1,0.2-0.1l0.1-0.1c0,0,0.1-0.1,0.1-0.2c0.1,0,0.2-0.1,0.3-0.2
	c0.1-0.1,0.1-0.1,0.2-0.2c0,0,0,0,0,0c0,0,0,0,0,0c0.1-0.2,0.3-0.3,0.5-0.5c0,0,0.1-0.1,0.1-0.1c0.1-0.1,0.1-0.1,0.2-0.2
	c0.1-0.1,0.2-0.2,0.3-0.3c0.1-0.1,0.2-0.3,0.3-0.4c0,0,0.1-0.1,0.1-0.2c0-0.1,0.1-0.1,0.1-0.2c0-0.1,0.1-0.1,0.1-0.2
	c0,0,0,0,0.1-0.1c0-0.1,0.1-0.1,0.1-0.1c0-0.1,0-0.1,0-0.2c0,0,0-0.1,0-0.1c0,0,0,0,0,0c0,0,0,0,0,0c0.1-0.2,0.2-0.3,0.4-0.5
	c0-0.1,0-0.1,0-0.1c0,0,0-0.1,0-0.1c-0.1,0-0.3,0-0.4,0c-0.1,0-0.2,0.1-0.3,0.1h-0.1c0,0-0.1,0-0.1,0c0,0-0.1,0-0.1,0.1
	c-0.2,0.1-0.3,0.3-0.5,0.4c-0.1,0.2-0.3,0.3-0.5,0.4c0,0-0.1,0.1-0.2,0.2c-0.1,0.1-0.2,0.2-0.3,0.2c-0.1,0.1-0.2,0.2-0.3,0.3
	c-0.1,0.1-0.2,0.1-0.3,0.2c-0.1,0.1-0.2,0.1-0.2,0.2l-0.1,0.1c-0.2,0.2-0.4,0.4-0.5,0.5c-0.2,0.1-0.4,0.2-0.6,0.4
	c-0.1,0.1-0.2,0.1-0.3,0.3c0,0-0.1,0.1-0.1,0.1C20.1,20.9,20,20.9,20,21c-0.1,0.1-0.2,0.2-0.3,0.2c-0.1,0.1-0.2,0.1-0.4,0.2
	c0,0-0.1,0.1-0.1,0.1H19h-0.2c-0.1-0.3,0-0.5,0.1-0.6c0.1-0.1,0.2-0.3,0.3-0.5c0,0,0-0.1,0-0.1c0,0,0-0.1,0-0.1c0,0,0-0.1,0-0.1
	c0,0,0,0,0-0.1c0.1-0.4,0.2-0.7,0.3-1c0.1-0.2,0.3-0.5,0.4-0.9c0.1-0.2,0.2-0.4,0.2-0.5c0.1-0.2,0.1-0.4,0.2-0.6c0,0,0-0.1,0-0.1
	c0-0.1,0-0.1,0-0.1c0,0,0-0.1,0.1-0.1c0-0.1,0-0.1,0-0.2c0-0.1,0-0.2,0-0.3c0-0.1,0-0.1,0.1-0.2c0,0,0-0.1,0.1-0.1
	c0-0.1,0-0.1,0-0.2c0-0.1,0-0.1,0.1-0.2s0-0.1,0-0.2c0,0,0,0,0-0.1c0,0,0,0,0-0.1c0,0,0,0,0-0.1c0,0,0-0.1,0-0.1c0,0,0,0,0-0.1
	c0,0,0-0.1,0-0.1v-0.1c0,0,0,0,0,0v-0.1c0,0,0,0,0.1-0.1c0,0,0,0,0,0c0,0,0,0,0,0c0,0,0-0.1,0-0.2V14c0-0.3-0.1-0.6-0.2-0.8
	c0,0,0-0.1-0.1-0.1c0,0,0-0.1,0-0.1s0-0.1,0-0.2c0-0.1,0-0.2,0-0.3c0-0.1-0.1-0.2-0.1-0.3c-0.1-0.1-0.2-0.2-0.2-0.2
	c-0.1,0-0.1,0-0.2,0s-0.1,0-0.2,0h-0.2C19.7,12,19.6,12,19.5,12 M20.9,10.9C20.9,10.9,20.9,10.8,20.9,10.9c0.1-0.1,0.2-0.1,0.2-0.1
	c0,0,0.1,0,0.1,0c0.1,0,0.2-0.1,0.3-0.2c0.1-0.1,0.2-0.1,0.2-0.2c0.1-0.2,0.2-0.4,0.2-0.6C22,9.5,22,9.2,22,8.9
	c0-0.3-0.1-0.6-0.2-0.7c-0.1-0.1-0.2-0.2-0.3-0.2c-0.1-0.1-0.2-0.1-0.3-0.2c-0.1,0-0.2,0.1-0.4,0.1c-0.1,0-0.3,0-0.4,0.1
	c0,0.1,0,0.1-0.1,0.1c-0.3,0.1-0.5,0.4-0.7,0.7c-0.2,0.3-0.3,0.6-0.2,1c0,0.1,0,0.2,0.1,0.3c0,0.1,0.1,0.2,0.1,0.3
	c0,0.2,0.1,0.3,0.1,0.3c0,0.1,0.1,0.2,0.1,0.3h0.1c0,0,0.1-0.1,0.1-0.1c0,0,0-0.1,0.1-0.1c0,0,0.1,0.1,0.1,0.1c0,0.1,0,0.1,0.1,0.2
	c0,0,0.1,0,0.1-0.1c0-0.1,0-0.1,0.1-0.2c0.1,0,0.2,0,0.2,0.1c0,0.1,0.1,0.1,0.2,0.2C20.9,11,20.9,10.9,20.9,10.9 M1,30.4
	c-0.1-0.1-0.1-0.1-0.2-0.2C0.9,30.2,1,30.3,1,30.4c0.1,0,0.2,0,0.2,0.1c0,0,0,0,0,0c0,0,0,0,0,0C1.2,30.6,1.1,30.5,1,30.4 M8.5,26.6
	c-0.5,0.5-1,0.9-1.5,1.3c-0.3,0.3-0.6,0.5-1,0.8c-0.4,0.3-0.7,0.5-1.1,0.8c-0.3,0.1-0.6,0.2-0.8,0.3c-0.3,0.1-0.6,0.2-1,0.1
	c-0.1,0-0.2-0.1-0.4-0.1s-0.3,0-0.4-0.1c-0.1,0-0.1,0-0.2-0.1c-0.1,0-0.1,0-0.2,0c-0.1,0-0.2-0.1-0.2-0.1s-0.1-0.1-0.2-0.2
	c-0.1,0-0.2-0.1-0.3-0.3c0-0.2-0.1-0.3-0.2-0.3c0-0.3,0-0.5,0-0.8c-0.1-0.2,0-0.5,0.1-0.7c0.3-0.4,0.6-0.9,0.9-1.3
	c0.3-0.4,0.6-0.8,1-1.2c0.3-0.4,0.6-0.7,1-1c0.4-0.2,0.8-0.5,1.2-0.8c0.2-0.1,0.5-0.3,0.7-0.4c0.2-0.1,0.4-0.2,0.7-0.3
	c0.1-0.1,0.3-0.2,0.4-0.3C7,22.2,7.1,22.1,7.3,22h0.1c0.2-0.1,0.5-0.3,0.8-0.3c0.3-0.1,0.5-0.2,0.8-0.3c0,0,0.1,0,0.1,0.1
	s0.1,0.1,0.1,0.2c0,0.1,0.1,0.2,0.1,0.3c0,0.1,0,0.1,0.1,0.2c0,0.2,0.1,0.4,0.1,0.5c0,0.1,0.1,0.2,0.1,0.4c0.1,0.2,0.1,0.4,0.2,0.6
	c0,0.2,0.1,0.4,0,0.6c0,0.1,0,0.2-0.1,0.3c0,0.1-0.1,0.2-0.1,0.4C9.3,25.5,8.9,26.1,8.5,26.6 M17.7,18.2c-0.4,0.1-0.7,0.2-1,0.4
	c-0.1,0-0.3,0-0.4,0.1c-0.1,0-0.2,0-0.1-0.1c0,0-0.1,0-0.1,0c0,0-0.1,0-0.1,0c0.5-0.3,1-0.5,1.5-0.6c0,0,0,0.1-0.1,0
	c0,0-0.1,0-0.1,0c0.2,0,0.3-0.1,0.5-0.2c0.2-0.1,0.3-0.1,0.5-0.2c0,0,0,0,0,0s0,0,0,0c0.1-0.1,0.2-0.1,0.4-0.1
	c0.2,0,0.3-0.1,0.5-0.2c0,0,0,0,0-0.1c0,0,0,0,0.1,0c0,0,0,0,0,0c0,0-0.1,0,0,0c0,0,0-0.1,0-0.1c0,0,0.1,0,0.1-0.1
	c0,0-0.1-0.1-0.1-0.1c0-0.1-0.1-0.1-0.1-0.1c-0.1,0-0.2,0-0.3,0.1c-0.1,0.1-0.2,0.1-0.3,0.1c-0.3,0-0.6,0.1-0.8,0.1
	c-0.3,0.1-0.6,0.1-0.8,0.3c-0.2,0.1-0.5,0.2-0.7,0.2c-0.2,0.1-0.5,0.2-0.8,0.3c-0.2,0.1-0.5,0.1-0.7,0.2s-0.5,0.2-0.7,0.3
	s-0.5,0.2-0.8,0.3c-0.3,0.1-0.6,0.2-0.9,0.2c-0.1-0.1-0.1-0.3-0.1-0.5s-0.1-0.3-0.3-0.5l0,0l0,0c-0.1-0.2-0.1-0.4-0.2-0.6
	c-0.1-0.2-0.1-0.4-0.2-0.5c0-0.2-0.1-0.3-0.1-0.3c0,0,0-0.1,0-0.1c0,0-0.1-0.1-0.1-0.1c-0.1-0.2-0.2-0.4-0.3-0.6
	c-0.1-0.2-0.2-0.5-0.3-0.7c0,0,0-0.1,0-0.1c0-0.1,0-0.1,0-0.2c0-0.1-0.1-0.2-0.2-0.3c-0.1-0.1-0.1-0.2-0.1-0.3c0,0-0.1-0.1-0.1-0.1
	c0-0.1-0.1-0.1-0.1-0.1c0-0.2-0.1-0.4-0.2-0.6s-0.2-0.4-0.2-0.6c-0.1-0.1-0.2-0.2-0.2-0.4c-0.1-0.1-0.1-0.3-0.2-0.4c0,0,0-0.1,0-0.1
	c0,0,0,0,0,0c-0.1,0-0.1-0.1-0.1-0.2s0-0.1,0-0.2c0-0.2-0.1-0.3-0.2-0.5c-0.1-0.2-0.2-0.4-0.2-0.6c0-0.1-0.1-0.2-0.1-0.3
	c0-0.1,0-0.2-0.1-0.3c0-0.3,0-0.6-0.2-0.9C8.3,8.4,8.2,8.1,8.1,7.8c0,0,0-0.1,0-0.1c0,0,0-0.1,0-0.1c0,0,0-0.1,0-0.1
	c0,0,0-0.1,0-0.1C8,7.1,8,6.9,8,6.8s0-0.4,0-0.6c0-0.1,0-0.2,0-0.3c0-0.1,0-0.2,0-0.3c0-0.2,0-0.5,0.1-0.7c0.1-0.2,0.1-0.4,0.2-0.6
	C8.3,4,8.3,3.7,8.4,3.5S8.6,3,8.7,2.9c0.2-0.1,0.4-0.3,0.7-0.4c0.2-0.1,0.5-0.2,0.7-0.3c0.1,0,0.2,0,0.2,0c0.1,0,0.1,0,0.2,0
	c0.1,0,0.2,0.1,0.3,0s0.2,0,0.3,0c0.1,0.1,0.2,0.1,0.3,0.1s0.2,0,0.2,0c0.2,0,0.3,0.1,0.5,0.3s0.3,0.3,0.4,0.4
	c0.1,0.1,0.1,0.2,0.2,0.3s0.1,0.2,0.2,0.3c0.1,0.1,0.2,0.2,0.2,0.4c0,0.1,0,0.3,0.1,0.5c0,0.1,0.1,0.2,0.1,0.3s0.1,0.1,0.1,0.2
	c0,0.1,0,0.2,0,0.3c0,0.1,0,0.3-0.1,0.3c0,0-0.1,0.1-0.1,0.1c-0.1,0.2-0.1,0.3-0.1,0.5c0,0.2,0,0.3-0.1,0.5
	c-0.1,0.2-0.2,0.4-0.3,0.6c-0.1,0.2-0.1,0.4-0.2,0.6c-0.1,0.1-0.2,0.3-0.3,0.5C12,8.5,11.8,8.7,11.7,9c-0.1,0.2-0.3,0.4-0.5,0.6
	c-0.2,0-0.3,0.2-0.4,0.3c-0.1,0.2-0.1,0.4-0.1,0.6c0.1,0.1,0.1,0.3,0.2,0.4c0.1,0.1,0.2,0.2,0.3,0.3h0.2c0.1,0.1,0.2,0.1,0.4,0.1
	s0.3,0,0.4-0.1c0.1,0,0.1-0.1,0.2-0.2c0.1-0.1,0.1-0.2,0.2-0.3c0,0,0-0.1,0-0.1s0,0,0-0.1c0-0.1,0.1-0.1,0.1-0.1
	c0.1,0,0.1-0.1,0.1-0.2c0-0.1,0.1-0.1,0.1-0.2s0.1-0.1,0.2-0.2c0.1-0.2,0.2-0.5,0.4-0.7c0.1-0.2,0.2-0.4,0.3-0.7
	c0.2-0.1,0.3-0.3,0.4-0.6c0.1-0.2,0.2-0.5,0.2-0.7c0-0.1,0.1-0.2,0.1-0.2s0.1-0.1,0.1-0.2c0.1-0.2,0.2-0.4,0.2-0.6
	c0-0.2,0-0.5,0-0.8c0-0.2,0-0.3,0-0.5c0-0.1,0-0.3,0-0.4c0-0.1-0.1-0.2-0.3-0.3c-0.1-0.1-0.2-0.2-0.3-0.3c-0.1-0.1-0.2-0.3-0.3-0.4
	C14,3.2,13.9,3.1,13.7,3c0-0.1-0.1-0.2-0.1-0.3c-0.1-0.1-0.1-0.2-0.2-0.2c-0.1-0.1-0.2-0.2-0.2-0.4C13.1,2.1,13,2,12.8,1.9
	c-0.2-0.1-0.4-0.2-0.6-0.3c-0.2-0.1-0.4-0.2-0.6-0.3c-0.2-0.1-0.4-0.2-0.7-0.3S10.3,0.9,10,1C9.9,1,9.8,1,9.6,1
	C9.5,1,9.4,1.1,9.2,1.1C9.1,1.1,9,1.2,8.9,1.2C8.8,1.3,8.6,1.3,8.6,1.3c0,0-0.1,0-0.2,0c-0.1,0-0.1,0-0.2,0c-0.2,0-0.3,0.1-0.4,0.2
	S7.5,1.8,7.4,1.9c0,0.1-0.1,0.2-0.3,0.2C6.9,2.4,6.7,2.6,6.6,2.7S6.2,3.1,6.1,3.3C6,3.5,5.8,3.7,5.7,3.9C5.6,4.1,5.4,4.3,5.3,4.5
	c0,0.2-0.1,0.3-0.1,0.4c0,0.2-0.1,0.3-0.2,0.4S4.9,5.6,4.9,5.7C4.9,5.9,4.8,6,4.8,6.2c0,0.2-0.1,0.3-0.1,0.4c0,0.1-0.1,0.2-0.1,0.3
	c0,0.1-0.1,0.2-0.1,0.4c0,0.3,0,0.5,0,0.8s0.1,0.5,0.1,0.8v1c0,0.2,0,0.3,0.1,0.4c0,0.1,0.1,0.3,0.1,0.4v0v0c0,0.2,0.1,0.3,0.1,0.4
	S5,11.4,5,11.6c0.1,0.2,0.2,0.5,0.3,0.8c0.1,0.3,0.2,0.6,0.3,0.9l0.1,0.1C5.8,13.9,6,14.5,6.2,15c0.2,0.5,0.5,1,0.8,1.5
	c0.2,0.4,0.3,0.8,0.5,1.2c0.2,0.4,0.4,0.9,0.6,1.3c0,0.1,0.1,0.3,0.2,0.5c0.1,0.2,0.1,0.3,0.1,0.4c-0.8,0.4-1.5,0.8-2.3,1.1
	s-1.5,0.7-2.1,1.1c0,0-0.1,0-0.1,0.1s-0.1,0-0.2,0c-0.3,0.2-0.6,0.4-0.9,0.6c-0.3,0.2-0.6,0.4-0.8,0.7c-0.3,0.3-0.6,0.6-0.9,0.9
	c-0.3,0.3-0.5,0.7-0.7,1c0,0.1,0,0.2-0.1,0.2c0.1,0,0.1,0.1,0.1,0.1c0,0,0,0.1,0.1,0.1c-0.1,0.2-0.2,0.3-0.2,0.5s0,0.4-0.1,0.6
	c0,0.1,0,0.1-0.1,0.2c0,0.1,0,0.1,0,0.2c0,0.1,0,0.3,0,0.5c0,0.2,0,0.3,0.1,0.4c0,0.1,0,0.1,0.1,0.2c0,0.1,0,0,0-0.2c0,0,0,0,0,0.1
	c0.1,0.1,0.1,0.2,0,0.1c0,0.2,0,0.4,0,0.6c0.1,0.1,0.1,0.3,0.2,0.4c0,0.1,0.1,0.1,0.1,0.2c0,0,0.1,0.1,0.1,0.1
	c0.1,0.2,0.2,0.4,0.3,0.5c0.2,0.2,0.3,0.3,0.5,0.3c0.1,0.1,0.2,0.2,0.3,0.3c0.1,0.1,0.2,0.2,0.4,0.3c0.2,0,0.4-0.1,0.6,0
	c0.2,0,0.4,0,0.6-0.1c0,0,0-0.1-0.1-0.1c-0.1,0-0.1,0-0.2-0.1h0.5c0.1,0,0.2,0,0.4-0.1c0,0,0,0,0,0.1c0,0,0,0.1,0,0.1
	c0.2,0,0.4-0.1,0.5-0.2c0.1-0.1,0.3-0.2,0.4-0.2c0.2,0,0.3,0,0.4,0c0.1,0,0.1-0.1,0.2-0.1c0.1,0,0.1-0.1,0.2-0.1c0,0,0.1,0,0.2,0
	c0.1-0.1,0.2-0.1,0.3-0.1c0.1,0,0.2,0,0.3,0c0.1,0,0.1,0,0.2-0.1c0,0,0.1,0,0.1,0c0,0,0,0,0.1,0c0.1,0,0.2-0.1,0.3-0.2
	c0.1-0.1,0.2-0.1,0.3,0c0-0.1,0.1-0.2,0.3-0.1c0.1,0,0.2,0.1,0.3,0c0.2-0.1,0.3-0.2,0.4-0.3c0.1-0.1,0.2-0.2,0.4-0.3c0,0,0-0.1,0,0
	c0,0,0,0,0,0c0-0.2,0.1-0.3,0.2-0.3C9,29,9.1,29,9.2,28.9c0-0.1,0.1-0.1,0.2-0.1c0.1,0,0.2,0,0.3,0.1c0,0,0,0,0,0
	c0-0.1,0.1-0.2,0.2-0.3s0.2-0.1,0.2-0.2c0,0,0.1,0,0.1,0c0,0,0.1,0,0.1,0c0-0.2,0.1-0.3,0.1-0.4c0.1-0.1,0.1-0.2,0.1-0.4
	c0.1,0,0.2-0.1,0.2-0.1c0,0,0.1-0.1,0.1-0.1c0-0.2,0.1-0.3,0.2-0.4c0.1-0.1,0.2-0.2,0.3-0.3c0,0,0.1,0,0.1-0.1
	c0.1-0.2,0.2-0.4,0.3-0.6s0.2-0.3,0.3-0.5c0-0.1,0-0.1,0-0.2c0-0.1,0-0.2,0-0.3c0.1,0,0.1,0,0.1,0c0,0,0-0.1,0.1-0.1s0.1,0,0.1,0
	c0,0,0.1,0,0.1,0c0,0,0,0,0-0.1c0,0,0-0.1,0-0.1c0,0,0.1-0.1,0.1-0.1c0,0,0.1,0,0.1,0c0-0.3,0.1-0.5,0-0.8c0-0.2,0-0.5,0.1-0.7
	c0,0-0.1-0.1,0-0.1c0,0,0-0.1,0-0.2c0,0,0-0.1,0-0.1s0,0,0-0.1c0-0.4-0.1-0.8-0.2-1.2c-0.1-0.4-0.2-0.8-0.2-1.1
	c0.3-0.1,0.6-0.2,0.8-0.3c0.2-0.1,0.4-0.2,0.7-0.3c0,0,0.1,0,0.2,0c0.1,0,0.1,0,0.1,0c0.2-0.1,0.4-0.2,0.5-0.4s0.3-0.3,0.5-0.3
	c0.4-0.2,0.8-0.4,1.3-0.5c0.5-0.1,1-0.3,1.4-0.5l0.1-0.1l0.3-0.1c0.1,0,0.2-0.1,0.2-0.2C18.4,17.9,18,18.1,17.7,18.2"/>
</svg>
