<?xml version="1.0" encoding="utf-8"?>
<!-- Generator: Adobe Illustrator 19.2.1, SVG Export Plug-In . SVG Version: 6.00 Build 0)  -->
<svg version="1.1" id="Layer_1" xmlns="http://www.w3.org/2000/svg" xmlns:xlink="http://www.w3.org/1999/xlink" x="0px" y="0px"
	 viewBox="0 0 135.6 31.8" style="enable-background:new 0 0 135.6 31.8;" xml:space="preserve">
<style type="text/css">
	.st0{fill:#082432;}
</style>
<path class="st0" d="M18.7,16.4L18.7,16.4c-0.1,0.1-0.1,0.1-0.2,0.2s-0.2,0.1-0.3,0.1l-0.1,0.1c-0.4,0.2-0.9,0.4-1.4,0.5
	s-0.9,0.3-1.3,0.5c-0.2,0-0.4,0.2-0.5,0.3c-0.1,0.2-0.3,0.3-0.5,0.4h-0.1c-0.1,0-0.1,0-0.2,0c-0.3,0.1-0.5,0.2-0.7,0.3
	c-0.2,0.1-0.4,0.2-0.8,0.3c0,0.4,0.1,0.7,0.2,1.1C13,20.6,13,21,13,21.4c0,0,0,0,0,0.1c0,0,0,0,0,0.1s0,0.1,0,0.2v0.1
	c-0.1,0.2-0.1,0.5-0.1,0.7s0,0.5,0,0.8h-0.1c0,0-0.1,0-0.1,0.1c0,0,0,0,0,0.1v0.1h-0.1h-0.1c0,0-0.1,0-0.1,0.1c0,0,0,0-0.1,0
	c0,0.1,0,0.2,0,0.3c0,0.1-0.1,0.2,0,0.2c-0.1,0.2-0.2,0.3-0.3,0.5c-0.1,0.2-0.2,0.4-0.3,0.6c-0.1,0-0.1,0.1-0.2,0.1
	c-0.1,0.1-0.1,0.2-0.3,0.3C11.1,25.9,11,26,11,26.2c-0.1,0-0.1,0.1-0.2,0.1c0,0-0.1,0.1-0.2,0.1c0,0.2-0.1,0.3-0.2,0.4
	s-0.1,0.2-0.1,0.4c0,0-0.1,0.1-0.1,0h-0.1c0,0.1-0.1,0.2-0.2,0.2c-0.1,0.1-0.2,0.2-0.2,0.3l0,0c-0.1-0.1-0.1-0.1-0.3-0.1
	c-0.1,0-0.2,0-0.2,0.1c-0.1,0-0.2,0.1-0.3,0.1c-0.1,0.1-0.2,0.2-0.2,0.3l0,0l0,0c-0.2,0-0.3,0.1-0.4,0.3c-0.1,0.1-0.2,0.2-0.4,0.3
	c-0.1,0-0.2,0-0.3,0c-0.1-0.1-0.2,0-0.3,0.1c-0.1,0-0.2,0-0.3,0c-0.1,0.1-0.2,0.1-0.3,0.2c0,0,0,0-0.1,0H6.5c0.1,0,0,0-0.1,0
	s-0.2,0-0.3,0c-0.1,0-0.2,0.1-0.3,0.2c-0.1,0.1-0.1,0.1-0.2,0c-0.1,0-0.2,0-0.2,0.1c-0.1,0-0.1,0.1-0.2,0.1s-0.2,0-0.4,0
	c-0.1,0-0.3,0.1-0.4,0.2s-0.3,0.2-0.5,0.2c0,0-0.1,0,0-0.1v-0.1c-0.2,0-0.4,0.1-0.4,0.1c-0.1,0-0.3,0-0.5,0c0,0,0.1,0,0.1,0.1
	c0.1,0,0.1,0,0.1,0.1C3.1,30,2.9,30,2.7,30c-0.2,0-0.4,0-0.6,0c-0.1-0.1-0.3-0.2-0.4-0.3c-0.1-0.1-0.2-0.2-0.3-0.3
	c-0.2-0.1-0.4-0.2-0.5-0.3c-0.2-0.2-0.3-0.3-0.3-0.5c0-0.1-0.1-0.1-0.1-0.1s-0.1-0.1-0.1-0.2c-0.1-0.2-0.2-0.3-0.2-0.4
	c-0.1-0.1-0.1-0.3,0-0.6c0,0.1,0,0,0-0.1s-0.1-0.2,0-0.1c0,0.2,0.1,0.2,0,0.2c0-0.1,0-0.1-0.1-0.2c0,0-0.1-0.2-0.1-0.4s0-0.4,0-0.5
	s0-0.1,0-0.2s0-0.1,0.1-0.2c0-0.2,0.1-0.4,0.1-0.6s0.1-0.4,0.2-0.5c-0.1,0-0.1-0.1-0.1-0.1s0-0.1-0.1-0.1c0.1,0,0.2-0.1,0.2-0.2
	c0.2-0.4,0.4-0.7,0.7-1.1c0.3-0.3,0.6-0.7,0.9-0.9c0.3-0.3,0.5-0.5,0.8-0.7s0.6-0.4,0.9-0.6c0.1,0,0.1,0,0.2,0L4,20.9
	c0.7-0.4,1.4-0.8,2.1-1.1c0.8-0.3,1.5-0.7,2.3-1.1c0-0.1,0-0.3-0.1-0.5s-0.2-0.3-0.2-0.4c-0.2-0.5-0.4-0.9-0.6-1.3S7.1,15.7,7,15.3
	c-0.3-0.5-0.6-1-0.8-1.5c-0.2-0.5-0.4-1.1-0.6-1.7L5.5,12c-0.1-0.3-0.2-0.6-0.3-0.9c-0.1-0.3-0.2-0.6-0.3-0.8c0-0.2,0-0.3-0.1-0.4
	c0-0.1-0.1-0.2-0.1-0.4l0,0l0,0c0-0.2-0.1-0.3-0.1-0.4c0-0.1-0.1-0.3-0.1-0.4v-1c0-0.3,0-0.5-0.1-0.8s-0.1-0.5,0-0.8
	c0-0.1,0-0.3,0.1-0.4c0-0.1,0.1-0.2,0.1-0.3S4.7,5.2,4.7,5s0.1-0.3,0.2-0.4c0-0.1,0-0.3,0.1-0.4c0.1-0.1,0.1-0.3,0.2-0.4
	c0-0.1,0.1-0.2,0.1-0.4C5.4,3.2,5.6,3,5.7,2.8C5.8,2.6,6,2.4,6.1,2.2C6.2,2,6.3,1.8,6.5,1.7C6.7,1.5,6.8,1.4,7,1.1
	C7.2,1,7.3,1,7.3,0.9c0.1-0.1,0.3-0.1,0.4-0.3C7.8,0.5,8,0.4,8.1,0.4s0.1,0,0.2,0s0.1,0,0.2,0s0.2-0.1,0.3-0.1
	c0.1,0,0.2-0.1,0.3-0.1c0.1-0.1,0.3-0.1,0.4-0.1s0.2,0,0.4,0c0.3-0.1,0.6-0.1,0.9,0c0.2,0.1,0.5,0.2,0.7,0.3s0.4,0.2,0.6,0.3
	s0.4,0.2,0.6,0.3s0.3,0.2,0.4,0.3s0.2,0.3,0.2,0.4c0.1,0.1,0.1,0.1,0.2,0.2c0.1,0.1,0.1,0.2,0.1,0.3c0.2,0,0.3,0.1,0.3,0.3
	c0.1,0.2,0.2,0.3,0.3,0.4c0.1,0.1,0.2,0.2,0.3,0.3c0.1,0.1,0.2,0.2,0.3,0.3c0,0.1,0.1,0.3,0,0.4c0,0.1,0,0.3,0,0.5
	c0,0.3,0,0.5,0,0.8c0,0.2-0.1,0.4-0.2,0.6c0,0.1-0.1,0.2-0.1,0.2c0,0.1-0.1,0.1-0.1,0.2c-0.1,0.2-0.1,0.5-0.2,0.7
	c-0.1,0.3-0.2,0.4-0.4,0.6c-0.1,0.3-0.2,0.5-0.3,0.7c-0.1,0.2-0.3,0.4-0.4,0.7c-0.1,0-0.2,0.1-0.2,0.2c0,0.1-0.1,0.2-0.1,0.2
	c0,0.1-0.1,0.1-0.1,0.2c-0.1,0-0.1,0.1-0.1,0.2v0.1c0,0,0,0,0,0.1s-0.1,0.2-0.2,0.3s-0.2,0.2-0.2,0.2c-0.1,0.1-0.2,0.1-0.4,0.1
	c-0.2,0-0.3,0-0.4-0.1h-0.2c-0.1-0.1-0.2-0.2-0.3-0.3c-0.1-0.1-0.2-0.3-0.2-0.4c0-0.2,0-0.4,0.1-0.6c0.1-0.2,0.2-0.3,0.4-0.3
	c0.2-0.2,0.4-0.4,0.5-0.6C11.8,8,12,7.7,12.2,7.5c0.1-0.2,0.2-0.4,0.3-0.5c0.1-0.2,0.2-0.4,0.2-0.6C12.8,6.2,12.9,6,13,5.8
	c0-0.2,0.1-0.3,0.1-0.5s0-0.3,0.1-0.5c0,0,0,0,0.1-0.1c0-0.1,0-0.2,0.1-0.3c0-0.2,0-0.3,0-0.3c0-0.1-0.1-0.2-0.1-0.2
	c0-0.1-0.1-0.2-0.1-0.3c0-0.2-0.1-0.3-0.1-0.5S13,2.8,12.9,2.7c-0.1,0-0.2-0.1-0.2-0.3c0-0.1-0.1-0.2-0.2-0.3s-0.2-0.2-0.4-0.4
	c-0.2-0.2-0.4-0.3-0.5-0.3s-0.2,0-0.2,0c-0.1,0-0.2,0-0.3-0.1c-0.1,0-0.2,0-0.3,0c-0.1,0-0.2,0-0.3,0c-0.1,0-0.1,0-0.2,0
	s-0.1,0-0.2,0C9.8,1.4,9.6,1.5,9.4,1.6S8.9,1.8,8.7,2C8.6,2.1,8.5,2.3,8.4,2.6C8.3,2.9,8.2,3.1,8.1,3.3c0,0.2-0.1,0.4-0.2,0.6
	C7.8,4.1,7.8,4.3,7.8,4.6c0,0.1,0,0.2,0,0.3s0,0.2,0,0.3c0,0.2,0,0.4,0,0.6s0,0.4,0.1,0.5v0.1v0.1v0.1v0.1C7.9,7,8,7.3,8.2,7.5
	c0.1,0.3,0.2,0.6,0.2,0.9c0.1,0.1,0.1,0.2,0.1,0.3s0,0.2,0.1,0.3c0,0.2,0.1,0.4,0.2,0.6C8.9,9.8,9,10,9,10.1c0,0,0,0.1,0,0.2
	c0,0.1,0,0.1,0.1,0.2l0,0c0,0,0,0,0,0.1c0.1,0.1,0.1,0.2,0.2,0.4c0,0.1,0.1,0.3,0.2,0.4c0,0.2,0.1,0.5,0.2,0.6
	c0.1,0.2,0.2,0.4,0.2,0.6c0,0,0,0.1,0.1,0.1c0,0.1,0.1,0.1,0.1,0.1c0,0.1,0,0.2,0.1,0.3s0.1,0.2,0.2,0.3c0,0,0,0.1,0,0.2
	c0,0.1,0,0.1,0,0.1c0.1,0.2,0.2,0.5,0.3,0.7c0.1,0.2,0.2,0.4,0.3,0.6c0,0.1,0,0.1,0.1,0.1v0.1c0.1,0.1,0.1,0.2,0.1,0.3
	c0.1,0.2,0.1,0.3,0.2,0.5s0.1,0.4,0.2,0.6l0,0l0,0c0.1,0.1,0.2,0.3,0.3,0.5c0,0.2,0.1,0.3,0.2,0.5c0.3,0,0.6-0.1,0.9-0.2
	s0.5-0.2,0.8-0.3c0.2-0.1,0.5-0.2,0.7-0.3c0.2-0.1,0.5-0.2,0.7-0.2c0.3-0.1,0.5-0.2,0.8-0.3c0.2-0.1,0.5-0.2,0.7-0.2
	c0.3-0.1,0.6-0.2,0.8-0.3c0.3-0.1,0.6-0.1,0.8-0.2c0.1,0,0.2,0,0.3-0.1c0.1-0.1,0.2-0.1,0.3-0.1c0,0,0.1,0,0.1,0.1s0.1,0.1,0.1,0.1
	L19,15.7c0,0,0,0,0,0.1c0,0,0,0.1,0,0l0,0h-0.1c0,0,0,0,0,0.1c-0.2,0.1-0.3,0.2-0.5,0.2s-0.3,0.1-0.4,0.1c0,0,0,0.1,0,0l0,0
	c-0.2,0.1-0.3,0.2-0.5,0.2c-0.2,0.1-0.3,0.1-0.5,0.2c0,0,0-0.1,0.1,0h0.1c-0.5,0.1-1,0.3-1.5,0.6h0.1c0,0,0,0,0.1,0
	c0,0.1,0,0.1,0.2,0.1c0.1,0,0.3,0,0.4-0.1c0.3-0.2,0.7-0.3,1-0.4C18.1,16.7,18.4,16.5,18.7,16.4z M1.3,29.3
	C1.3,29.3,1.3,29.2,1.3,29.3C1.3,29.2,1.3,29.2,1.3,29.3c0-0.2-0.1-0.3-0.2-0.3C1,28.9,1,28.9,0.9,28.8C0.9,28.9,1,29,1.1,29
	C1.1,29.1,1.2,29.2,1.3,29.3z M9.6,23.5c0-0.1,0.1-0.3,0.1-0.4s0.1-0.2,0.1-0.3c0-0.2,0-0.4,0-0.6c-0.1-0.2-0.1-0.4-0.2-0.6
	c0-0.2-0.1-0.3-0.1-0.4s-0.1-0.3-0.1-0.5c0,0,0-0.1-0.1-0.2c0-0.1,0-0.2-0.1-0.3c0-0.1-0.1-0.2-0.1-0.2C9,20,9,20,9,20
	c-0.2,0.1-0.5,0.2-0.8,0.3c-0.3,0.1-0.5,0.2-0.8,0.3H7.3c-0.1,0.1-0.3,0.1-0.4,0.2S6.6,21,6.5,21.1c-0.2,0.1-0.4,0.2-0.7,0.3
	c-0.2,0.1-0.4,0.2-0.7,0.4c-0.4,0.3-0.8,0.5-1.2,0.8c-0.4,0.2-0.8,0.6-1,1c-0.4,0.4-0.7,0.8-1,1.2c-0.3,0.4-0.6,0.8-0.9,1.3
	c-0.1,0.3-0.2,0.5-0.1,0.7s0.1,0.5,0,0.8c0.1,0,0.1,0.1,0.2,0.3c0,0.2,0.1,0.3,0.3,0.3c0.1,0.1,0.2,0.2,0.2,0.2s0.1,0,0.2,0.1
	c0.1,0,0.2,0,0.2,0s0.1,0,0.2,0.1c0.2,0,0.3,0.1,0.4,0.1s0.2,0,0.4,0.1c0.4,0.1,0.7,0,1-0.1c0.3-0.2,0.6-0.3,0.8-0.3
	c0.4-0.3,0.7-0.5,1.1-0.8c0.3-0.3,0.7-0.5,1-0.8c0.5-0.3,1-0.8,1.5-1.3C9,24.7,9.3,24.1,9.6,23.5z M23.2,21.2c0,0.1-0.1,0.1-0.1,0.2
	l0,0l0,0l0,0c-0.1,0.2-0.2,0.4-0.4,0.4c0,0.2-0.1,0.3-0.2,0.4h-0.1c0,0-0.1,0.1-0.1,0.2c-0.1,0-0.2,0.1-0.2,0.1
	c-0.1,0-0.1,0.1-0.2,0.2c0,0,0-0.1-0.1-0.1s-0.2,0-0.3,0.1c-0.1,0.1-0.1,0.1-0.2,0.1h-0.1c0,0,0,0,0,0.1H21
	c-0.1,0.1-0.2,0.2-0.4,0.3c-0.2,0.1-0.4,0.1-0.5,0.1s-0.2,0-0.3,0c-0.1,0-0.2,0-0.3,0l0.1-0.1c-0.1,0-0.2-0.1-0.3-0.1
	C19.2,23,19.1,23,19,23l0.1-0.1c0,0,0.1,0,0.1-0.1c0,0,0-0.1,0,0l0,0c0,0.1-0.1,0.1-0.1,0H19c0,0,0,0,0-0.1h-0.1
	c-0.1-0.2-0.1-0.3-0.1-0.3v-0.1c0,0,0,0,0-0.1c0,0-0.1,0-0.1-0.1S18.6,22,18.5,22c-0.1,0.1-0.1,0.2-0.2,0.4c0,0.2-0.1,0.3-0.1,0.5
	c0,0.1,0,0.1,0,0.2c0,0,0,0.1,0,0.2c0,0.6-0.1,1.1-0.3,1.6c-0.2,0.5-0.3,1-0.4,1.5c0,0.1-0.1,0.2-0.1,0.4c-0.1,0.1-0.1,0.3-0.1,0.4
	c-0.1,0-0.1,0.1-0.1,0.1s0,0.1-0.1,0.1v0.1c0,0-0.1,0-0.1,0.1c0,0,0,0-0.1,0c0,0.2-0.1,0.3-0.1,0.4s-0.1,0.2-0.2,0.3
	c-0.1,0.1-0.1,0.2-0.2,0.3c-0.1,0.1-0.1,0.2-0.2,0.4c0,0-0.1,0-0.1,0.1c0,0,0,0,0,0.1c-0.1,0.1-0.2,0.2-0.2,0.2
	c-0.1,0-0.1,0-0.2-0.1c0,0-0.1-0.1-0.2-0.1s-0.1,0-0.2,0l-0.1,0.1c0,0.1,0,0.1-0.1,0.2H15c0-0.1-0.1-0.1-0.1,0h-0.1v-0.1l-0.1,0.1
	c0,0,0,0.1-0.1,0.1l0,0l0,0c0,0,0,0,0,0.1s0,0.1-0.1,0.1c0,0-0.1-0.1-0.1-0.3c0-0.2,0-0.2-0.1-0.3v0.1c0,0,0,0.1,0,0.2v-0.1v-0.1
	c-0.1,0-0.1-0.1-0.1-0.2c0,0,0,0,0,0.1l0,0c0,0,0,0,0-0.1s0-0.1,0-0.1s0,0,0-0.1c0,0-0.1,0.1,0,0.1c0,0.1,0,0.1,0,0.2
	c0,0,0-0.1-0.1-0.1c0-0.3,0-0.4,0-0.5s0.1-0.2,0.1-0.5c0-0.1,0.1-0.2,0.1-0.2s0-0.1,0.1-0.1c0.1-0.7,0.3-1.4,0.4-2
	c0.1-0.7,0.3-1.3,0.5-2c0.1-0.4,0.2-0.7,0.3-1.1c0.1-0.4,0.2-0.7,0.3-1.1c0.1-0.5,0.2-1,0.4-1.5c0.1-0.5,0.2-1,0.4-1.5
	c0.2-0.7,0.3-1.4,0.5-2.2c0.2-0.7,0.3-1.5,0.5-2.3c0.1-0.5,0.2-0.9,0.2-1.4s0.1-0.9,0.1-1.4c0-0.2,0.1-0.4,0.1-0.6
	c0-0.2,0-0.4,0.1-0.6c0-0.1,0-0.1,0-0.2c0,0,0-0.1,0.1-0.1c0,0,0-0.1,0.1-0.1c0,0,0-0.1,0.1-0.2c0,0,0.1-0.1,0.1-0.2
	c0-0.1,0-0.1,0.1-0.2c0-0.1,0-0.2,0.1-0.3c0-0.1,0.1-0.1,0.2-0.2h0.1l0,0c0.1-0.2,0.3-0.4,0.6-0.4c0.3,0,0.5,0,0.8,0
	c0,0.1,0.1,0.1,0.2,0.1s0.1,0.1,0.2,0.1c0.2,0,0.3,0.1,0.4,0.2c0.1,0.1,0.2,0.2,0.3,0.4c0,0,0.1,0.1,0.1,0.2c0,0.1,0.1,0.2,0.1,0.3
	c0,0,0,0.1,0,0.2c0,0.2,0,0.4,0.1,0.6c0,0.2,0,0.4,0,0.6c-0.1,0.4-0.2,0.8-0.3,1.2c-0.1,0.4-0.2,0.8-0.3,1.1c0.1,0,0.1,0,0.1,0.1
	c0.1,0,0.2-0.1,0.2-0.2c0-0.1,0.1-0.2,0.1-0.2c0.1-0.2,0.3-0.3,0.4-0.4c0.1-0.1,0.2-0.2,0.3-0.4c0.3-0.2,0.6-0.5,0.8-0.8
	c0.3-0.3,0.6-0.5,1-0.6c0,0.1,0,0.2,0,0.2c0.3-0.1,0.6-0.1,1-0.1c0.3,0,0.6,0.1,0.9,0.2h0.1h0.1l0.1,0.1l0.1,0.1l0.1,0.1h0.1
	c0,0,0,0,0,0.1c0,0,0,0,0,0.1c0.1,0.1,0.1,0.1,0.1,0.1v0.1l0.1,0.1c0,0.1,0.1,0.2,0.1,0.3s0,0.2,0,0.3c0,0,0,0.1,0.1,0.1v0.1l0,0
	c0,0.1,0,0.3,0,0.5s0,0.4-0.1,0.6c0,0,0,0,0-0.1v0.1c0,0.1,0,0.1-0.1,0.1c0,0,0,0.1,0,0l0,0v0.1l0,0V14c0,0,0,0,0,0.1
	c0,0,0,0-0.1,0.1l0,0c0,0,0,0,0,0.1v0.1l0,0l0,0c0,0.3-0.1,0.7-0.2,1s-0.2,0.7-0.2,1.1c0,0,0.1,0,0.1-0.1s0-0.1,0.1-0.1v0.1
	c0,0,0,0,0,0.1c0.4-0.1,0.7-0.2,0.9-0.2c0.2-0.1,0.4-0.1,0.6-0.2s0.4-0.1,0.6-0.2s0.5-0.1,1-0.2c0.1,0,0.2-0.1,0.3-0.1
	c0.1,0,0.2,0,0.4,0h0.1c0,0,0.1,0,0.1,0.1c0,0,0,0,0.1,0.1V16c-0.2,0.1-0.4,0.2-0.6,0.4c-0.2,0.2-0.3,0.3-0.5,0.5
	c-0.3,0.1-0.5,0.2-0.6,0.2s-0.3,0.1-0.6,0.2c-0.3,0-0.5,0.1-0.7,0.1c-0.2,0.1-0.4,0.1-0.7,0.2c-0.2,0-0.4,0.1-0.7,0.2
	c-0.1,0-0.1,0-0.2,0.1H26c0,0,0,0.1-0.1,0.1s-0.1,0.1-0.1,0.1h0.1l0,0c0,0.1-0.1,0.2-0.1,0.2c0,0.1-0.1,0.1-0.1,0.2
	c0,0.2-0.1,0.3-0.2,0.4s-0.1,0.3-0.2,0.4l0,0l0,0v0.1c0,0.1-0.1,0.1-0.1,0.1v0.1c-0.2,0.3-0.3,0.5-0.5,0.8s-0.4,0.5-0.5,0.8l0,0l0,0
	l0,0l0,0c0,0-0.1,0-0.1,0.1c0,0,0,0.1-0.1,0.1l0,0l0,0c0,0.1-0.1,0.1-0.1,0.2C23.3,21.1,23.3,21.2,23.2,21.2L23.2,21.2L23.2,21.2
	L23.2,21.2z M22.4,17.9c-0.3,0-0.5,0.1-0.8,0.2s-0.6,0.1-0.8,0.2c-0.2,0-0.4,0.1-0.5,0.1c-0.2,0-0.3,0.1-0.4,0.2s-0.2,0.1-0.2,0.3
	c-0.1,0.1-0.1,0.2-0.2,0.3c-0.1,0.1-0.1,0.3-0.2,0.4c0,0.2-0.1,0.3-0.2,0.4c0,0.1,0,0.2,0,0.3c0,0.1,0,0.2,0,0.3
	c0.1,0.1,0.2,0.2,0.4,0.2c0.2,0,0.4,0,0.6,0c0.5-0.3,1-0.6,1.3-1.2C21.7,19,22.1,18.5,22.4,17.9L22.4,17.9L22.4,17.9z M23.8,15.6
	c0-0.1,0.1-0.2,0.1-0.3c0-0.1,0.1-0.2,0.1-0.3c0.1-0.2,0.1-0.4,0.2-0.6c0-0.2,0.1-0.4,0.2-0.6c0.1-0.3,0.2-0.6,0.3-0.9
	c0.1-0.3,0.1-0.6,0-1c-0.1,0-0.2,0-0.2,0c-0.1,0-0.1,0-0.2,0h0.1h0.1l-0.1-0.1c-0.1,0-0.1,0-0.1,0.1l0,0l0,0c-0.2,0-0.3,0-0.4,0.1
	c-0.1,0-0.2,0.1-0.4,0.1c0.1,0,0.1-0.1,0.2-0.1s0.2-0.1,0.3-0.1c0,0,0,0,0.1,0l0,0c-0.3,0.1-0.7,0.2-1,0.3s-0.6,0.3-0.9,0.5h-0.1
	c-0.4,0.3-0.7,0.6-1,1s-0.6,0.8-0.8,1.2c0,0.1,0,0.2-0.1,0.2c-0.1,0.1-0.1,0.1,0,0.3c0,0.1-0.1,0.2,0,0.4c0,0.1,0,0.2,0,0.3
	c0,0.2-0.1,0.4-0.2,0.6s-0.1,0.4-0.1,0.6c0.1,0,0.2,0,0.3,0c0.1-0.1,0.2-0.1,0.4,0c0.1,0,0.2,0,0.3,0c0.1,0.1,0.3,0.1,0.4,0.1h0.1
	c0,0,0,0,0.1,0h0.1h0.1c0,0,0,0,0.1,0s0.1,0,0.2,0c0.1,0.1,0.2,0.1,0.2,0.1c0.2,0,0.3-0.1,0.5-0.1s0.3-0.1,0.5-0.1
	c0.1-0.2,0.2-0.4,0.4-0.7C23.5,16.1,23.6,15.9,23.8,15.6z M22.9,21.6C22.9,21.5,22.9,21.5,22.9,21.6C22.8,21.6,22.8,21.6,22.9,21.6
	L22.9,21.6z M23.1,21.2c0.1,0,0.1-0.1,0.1-0.2L23.1,21.2L23.1,21.2L23.1,21.2z M30.7,17.5c-0.1-0.1-0.2-0.1-0.3-0.1
	c0,0-0.1,0-0.1,0.1s-0.1,0-0.2,0l0,0l0,0c0,0-0.1,0-0.2,0s-0.1,0-0.1,0c-0.2,0-0.3,0.2-0.3,0.3c0,0.2-0.1,0.3-0.2,0.4
	c0,0.2-0.1,0.4-0.2,0.5S29,19,28.9,19.2s-0.1,0.3-0.1,0.3s0,0.1,0,0.3c0,0.1,0.1,0.2,0.2,0.2s0.2,0,0.3,0.1c0,0,0.1,0,0.2,0
	s0.1,0,0.2,0c0.2,0,0.4-0.1,0.6-0.2s0.4-0.1,0.6-0.2c0.5-0.1,0.9-0.3,1.2-0.4c0.3-0.2,0.7-0.3,1.2-0.5c0.1,0,0.2-0.1,0.4-0.2
	s0.4-0.2,0.6-0.4c0.2-0.1,0.4-0.3,0.6-0.4s0.3-0.2,0.3-0.3l0.8-0.6c0.2-0.1,0.3-0.2,0.5-0.3c0.1-0.1,0.3-0.3,0.5-0.4
	c0-0.1,0,0,0.1,0v0.1c0.1,0,0.2,0,0.3,0c0.1,0.1,0.1,0.1,0,0.1s-0.1-0.1,0-0.1v0.1c0,0,0,0,0,0.1c-0.1,0.1-0.1,0.1,0,0.1l0.1,0.1
	c-0.2,0.2-0.3,0.4-0.5,0.6s-0.3,0.4-0.5,0.6c-0.1,0.1-0.2,0.2-0.2,0.2c-0.1,0-0.1,0.1-0.2,0.1c-0.2,0.3-0.4,0.5-0.5,0.6
	c-0.2,0.1-0.4,0.3-0.6,0.5c-0.1,0.1-0.2,0.2-0.4,0.3c-0.2,0.1-0.4,0.3-0.6,0.5s-0.4,0.3-0.6,0.4s-0.3,0.2-0.4,0.3
	c-0.3,0.1-0.5,0.3-0.8,0.4s-0.5,0.2-0.8,0.3c-0.1,0-0.2,0-0.4,0.1c-0.1,0-0.3,0.1-0.4,0.1s-0.2,0-0.2,0s-0.1,0-0.2,0
	c0,0-0.1,0.1-0.2,0.1s-0.1,0-0.2,0c-0.2,0-0.4,0-0.5,0.1s-0.3,0.1-0.5,0c-0.1,0-0.2,0-0.3-0.1c-0.1-0.1-0.2-0.1-0.4,0v-0.1
	c0,0,0,0,0-0.1H28h-0.1v-0.1c0,0,0,0,0-0.1c-0.2-0.2-0.4-0.4-0.5-0.6s-0.2-0.5-0.3-0.7c0-0.2,0-0.3,0-0.4s0-0.1,0-0.2s0-0.1,0-0.2
	s0-0.2,0-0.5c0-0.4,0.1-0.7,0.2-0.9c0.1-0.3,0.2-0.6,0.3-0.9c0.1-0.1,0.1-0.2,0.2-0.4c0-0.1,0.1-0.2,0.2-0.3
	c0.3-0.8,0.7-1.5,1.1-2.1s0.8-1.3,1.3-1.9c0.1-0.3,0.2-0.6,0.3-0.8c0.1-0.2,0.3-0.4,0.4-0.6c0.1-0.1,0.3-0.3,0.4-0.4
	c0.1-0.1,0.3-0.2,0.4-0.3v-0.1c0.1,0,0.2-0.1,0.3-0.1c0.1,0,0.2-0.1,0.2-0.2c0.1-0.1,0.3-0.1,0.4-0.1s0.3,0,0.4,0s0.2,0.1,0.4,0.1
	c0,0,0,0.1,0.1,0.1s0.1,0,0.2,0.1c0.1,0,0.2,0.1,0.2,0.2c0.1,0.1,0.2,0.2,0.3,0.3v0.1c0,0,0,0,0,0.1c0.1,0.1,0.2,0.3,0.3,0.5
	c0.1,0.2,0.2,0.3,0.3,0.4c0,0.1,0.1,0.3,0.1,0.4c0,0.1,0,0.3,0,0.4c0.1,0.2,0.1,0.4,0,0.5c0,0-0.1,0.1,0,0.2c0,0.1,0,0.1,0,0.2
	c0,0.2-0.1,0.4-0.1,0.5c0,0.2-0.1,0.3-0.1,0.4l-0.1,0.1c-0.1,0.1-0.1,0.3-0.2,0.4c0,0.1-0.1,0.2-0.2,0.4s-0.3,0.4-0.4,0.5
	c-0.2,0.2-0.3,0.3-0.5,0.4c-0.1,0.1-0.1,0.2-0.2,0.2c0,0-0.1,0-0.2,0c-0.1,0.1-0.1,0.1-0.2,0.2s-0.1,0.1-0.2,0.1s-0.2,0.1-0.2,0.2
	c-0.1,0.1-0.1,0.2-0.2,0.2c0,0-0.1,0-0.1-0.1c-0.1,0-0.1,0.1-0.2,0.1c0,0-0.1,0.1-0.2,0.1h-0.1c-0.1,0-0.2,0.1-0.3,0.2
	c-0.1,0.1-0.2,0.1-0.3,0.2l0,0L30.7,17.5z M33.1,12.4L33.1,12.4c-0.1,0.1-0.3,0.2-0.5,0.4c-0.2,0.1-0.3,0.3-0.4,0.4
	c0,0,0,0.1-0.1,0.1S32,13.4,32,13.4c-0.2,0.3-0.4,0.5-0.5,0.8s-0.3,0.5-0.6,0.6c0,0.1-0.1,0.3-0.2,0.4c-0.1,0.2-0.1,0.3-0.2,0.4
	c-0.2,0.5-0.3,0.8-0.4,0.9s-0.2,0.2-0.2,0.3c0.3-0.3,0.6-0.6,0.9-0.9c0.2-0.1,0.3-0.3,0.5-0.4c0.2-0.2,0.3-0.3,0.5-0.6
	c0.1,0,0.2-0.1,0.3-0.2c0.1-0.1,0.2-0.2,0.3-0.3l0.1-0.1c0-0.1,0.1-0.1,0.1-0.2c0-0.1,0.1-0.2,0.2-0.2s0.1-0.1,0.1-0.1
	c0-0.1,0.1-0.2,0.2-0.3s0.1-0.2,0.1-0.3c0,0,0,0-0.1-0.1S33,12.9,33,12.8s-0.1-0.2-0.1-0.3C33.1,12.4,33.1,12.4,33.1,12.4z M47,15
	L47,15C46.9,15,46.9,15,47,15c-0.1,0.1-0.1,0.1-0.2,0.1l0,0C46.8,15.1,46.9,15.1,47,15C46.9,15.1,46.9,15.1,47,15
	c-0.2,0.1-0.3,0.2-0.3,0.3c0,0.2,0,0.2,0.2,0.2v0.1l0,0c0,0,0.1,0.1,0.1,0h0.1c-0.1,0.1-0.2,0.3-0.4,0.4c0,0,0,0,0,0.1v0.1l-0.1,0.1
	l-0.1,0.1c-0.1,0.1-0.1,0.1-0.2,0.1l-0.1,0.1c-0.1,0.1-0.2,0.2-0.4,0.3c0,0,0,0.1,0.1,0.1c0,0,0,0,0.1,0c0,0.1-0.1,0.1-0.2,0.2v0.1
	c-0.1,0-0.1,0.1-0.2,0.2l0,0c0,0,0.1,0,0,0c0,0.1-0.1,0.2-0.3,0.3c-0.2,0.1-0.3,0.3-0.5,0.4s-0.4,0.3-0.5,0.4
	c-0.2,0.1-0.3,0.2-0.3,0.3c-0.4,0.3-0.8,0.6-1.3,0.9c-0.4,0.3-0.8,0.6-1.2,0.9v-0.1l0,0c0,0,0,0.1-0.1,0.1s-0.1,0.1-0.1,0.1
	C41.2,20.9,41,21,41,21c-0.1,0-0.2,0.1-0.3,0.1c-0.1,0.1-0.2,0.2-0.4,0.3c-0.1,0.1-0.3,0.1-0.4,0.2s-0.2,0.2-0.3,0.2
	c-0.1,0-0.2,0-0.3,0c-0.1,0.1-0.1,0.1-0.1,0.1c0.1,0,0.1,0,0.2-0.1c0.1,0,0.2-0.1,0.2-0.1s0,0-0.1,0l0,0l0,0
	c-0.2,0.1-0.5,0.2-0.8,0.2s-0.6,0-0.9,0c-0.1,0-0.1,0-0.2,0s-0.2-0.1-0.3-0.1c-0.1,0-0.3-0.1-0.4-0.1s-0.3-0.1-0.4-0.2
	c-0.2-0.1-0.3-0.2-0.5-0.4c-0.2-0.1-0.3-0.3-0.4-0.5l0,0c0,0,0,0-0.1,0c-0.2-0.2-0.3-0.5-0.3-0.8c-0.1-0.3-0.1-0.6-0.2-0.9
	c0-0.1,0.1-0.3,0-0.4c0-0.1,0-0.3,0.1-0.4c0,0,0-0.1,0.1-0.2c0-0.2,0.1-0.3,0.1-0.5s0.1-0.3,0.1-0.5c0-0.1,0.1-0.3,0.2-0.5
	s0.2-0.3,0.2-0.5c0.2-0.3,0.3-0.6,0.5-0.8c0.1-0.3,0.3-0.5,0.5-0.8s0.5-0.6,0.7-0.9c0.2-0.3,0.5-0.6,0.7-0.8
	c0.1-0.1,0.2-0.2,0.3-0.3c0.1-0.1,0.2-0.2,0.3-0.2c0.1-0.2,0.2-0.3,0.4-0.4c0.1-0.1,0.3-0.3,0.4-0.4c0-0.1,0.1-0.1,0.2-0.1
	s0.1-0.1,0.2-0.1l0,0c0,0,0,0,0-0.1c0.2-0.1,0.4-0.2,0.6-0.4c0.2-0.1,0.4-0.3,0.6-0.4c0.1,0,0.1,0,0.2,0c0,0,0.1,0,0.2,0l0,0l0,0
	c0.1,0,0.2,0,0.3,0c0.1,0,0.2,0.1,0.2,0.2l0.1,0.1c0.1,0.1,0.1,0.1,0.2,0.1c0,0,0.1,0,0.2,0l0,0c0.1,0,0.1,0,0.1,0h0.1
	c0.1,0,0.1,0,0.2,0c0.3,0.1,0.4,0.2,0.5,0.3c0,0.2,0,0.4,0,0.6c0,0.1,0.1,0.2,0.1,0.3s0,0.2,0,0.3l0,0v0.1c0,0.3-0.1,0.7-0.3,1
	c-0.2,0.3-0.3,0.6-0.5,0.7l0,0c0,0,0,0,0,0.1c-0.1,0.1-0.2,0.1-0.2,0.2c-0.1,0.1-0.1,0.2-0.2,0.2c0-0.1,0-0.1,0-0.1s-0.1,0-0.1,0.1
	l-0.1,0.1c0,0,0,0,0-0.1h-0.1H42c0,0.1-0.1,0.1,0,0.1c0,0,0-0.1,0.1-0.1c0,0,0-0.1,0.1-0.1c0,0,0,0-0.1,0c0,0-0.1,0-0.1,0.1
	c0,0,0,0-0.1,0c0-0.1,0-0.1,0-0.2C42,14.1,42,14,42,14v-0.1c0.2-0.3,0.3-0.6,0.5-1s0.3-0.7,0.4-1.1l0,0l0,0c0,0,0,0,0.1-0.2
	c0-0.1-0.1-0.2-0.2-0.2s-0.2,0-0.3,0c-0.1,0.1-0.2,0.3-0.3,0.3c-0.1,0.1-0.2,0.2-0.3,0.2c-0.1,0.1-0.2,0.3-0.3,0.3
	c-0.1,0.1-0.2,0.2-0.4,0.2c-0.1,0.2-0.3,0.4-0.5,0.6c-0.2,0.2-0.4,0.3-0.6,0.5c0,0.1-0.1,0.2-0.2,0.3s-0.1,0.1-0.2,0.2
	c0,0.2-0.1,0.2-0.1,0.2s-0.1,0.1-0.2,0.2c-0.1,0.1-0.2,0.3-0.3,0.5c-0.1,0.2-0.2,0.4-0.2,0.6c0,0.1-0.1,0.2-0.1,0.3
	c0,0.1-0.1,0.2-0.1,0.3c0,0,0,0.1-0.1,0.2c0,0.1-0.1,0.3-0.1,0.4s-0.1,0.3-0.1,0.4C38,17,38,17,38,17c0,0.2,0,0.4-0.1,0.7
	c-0.1,0.3-0.1,0.6-0.1,0.8c0,0.3,0.1,0.5,0.2,0.7s0.4,0.2,0.9,0.2c0.4-0.1,0.6-0.1,0.6-0.1s0,0,0,0.1l0,0c0,0,0.2-0.1,0.5-0.2
	c0,0,0.1-0.1,0.3-0.1c0.1-0.1,0.3-0.1,0.4-0.2c0.1,0,0.3-0.1,0.4-0.1s0.2-0.1,0.3-0.1c0.1-0.1,0.3-0.2,0.5-0.3
	c0.3-0.1,0.5-0.2,0.6-0.2c0.3-0.2,0.5-0.3,0.7-0.5s0.5-0.4,0.8-0.7c0.1-0.1,0.2-0.2,0.4-0.3c0.1-0.1,0.3-0.2,0.4-0.2
	s0.2-0.1,0.3-0.3c0.2-0.2,0.3-0.3,0.4-0.3l0.1-0.1c0.1-0.1,0.1-0.1,0.1-0.1c0.2,0,0.3-0.1,0.4-0.3c0.1-0.2,0.2-0.3,0.4-0.3
	c0.1-0.1,0.2-0.1,0.3-0.1C46.9,14.8,47,14.9,47,15z M43.3,11.6L43.3,11.6C43.2,11.7,43.3,11.7,43.3,11.6L43.3,11.6z M48.2,10.6h0.2
	c0.1,0,0.2,0,0.2,0c0.1,0,0.1,0,0.2,0s0.1,0.1,0.2,0.2c0.1,0.1,0.1,0.2,0.1,0.3s0,0.2,0,0.3s0,0.1,0,0.2c0,0.1,0,0.1,0,0.2
	c0.1,0.1,0.1,0.1,0.1,0.1c0.1,0.2,0.2,0.4,0.2,0.8c0,0.1,0,0.1,0,0.2c0,0.1,0,0.1,0,0.2l0,0l0,0l-0.1,0.1v0.1l0,0v0.1c0,0,0,0,0,0.1
	c0,0-0.1,0.1,0,0.1v0.1c0,0,0,0,0,0.1c0,0,0,0,0,0.1c0,0,0,0,0,0.1s0,0.2,0,0.2c0,0.1-0.1,0.1-0.1,0.2v0.1c0,0.1-0.1,0.1-0.1,0.2
	c0,0.1-0.1,0.1-0.1,0.2c0,0.1,0,0.2,0,0.3c0,0.1,0,0.1,0,0.2s0,0.1-0.1,0.1v0.1c0,0.1,0,0.1,0,0.2c0,0.2-0.1,0.4-0.2,0.6
	s-0.1,0.4-0.2,0.5c-0.2,0.3-0.3,0.6-0.4,0.9s-0.2,0.6-0.3,1v0.1c0,0,0,0,0,0.1v0.1v0.1c0,0.2-0.1,0.4-0.3,0.5
	c-0.1,0.1-0.2,0.3-0.1,0.6h0.2h0.2c0,0,0,0,0.1-0.1c0.1,0,0.3-0.1,0.4-0.2s0.2-0.1,0.3-0.2c0.1,0,0.1-0.1,0.2-0.2
	c0-0.1,0.1-0.1,0.1-0.2c0.2-0.1,0.3-0.2,0.3-0.3c0.2-0.2,0.4-0.3,0.6-0.4s0.3-0.3,0.5-0.5l0.2-0.2c0.1-0.1,0.2-0.1,0.2-0.2
	c0.1-0.1,0.2-0.1,0.3-0.2c0.1-0.1,0.2-0.2,0.3-0.3c0.1-0.1,0.2-0.2,0.3-0.2c0.1-0.1,0.1-0.1,0.2-0.1c0.2-0.1,0.3-0.3,0.5-0.4
	c0.1-0.2,0.3-0.3,0.4-0.4c0,0,0.1,0,0.1-0.1h0.1H53c0.1,0,0.2-0.1,0.3-0.1s0.2-0.1,0.4,0c0,0.1,0,0.1,0,0.1s0,0.1,0,0.2
	c-0.1,0.1-0.3,0.3-0.4,0.5l0,0l0,0v0.1c0,0.1,0,0.1,0,0.2c0,0,0,0-0.1,0.1l-0.1,0.1c0,0.1-0.1,0.1-0.1,0.2s-0.1,0.1-0.1,0.2
	c-0.1,0.1-0.1,0.2-0.1,0.2c-0.1,0.1-0.2,0.2-0.3,0.4c-0.1,0.1-0.2,0.2-0.3,0.3c0,0.1-0.1,0.1-0.1,0.2c-0.1,0.1-0.1,0.1-0.2,0.1
	c-0.2,0.1-0.3,0.3-0.5,0.5l0,0l0,0c-0.1,0.1-0.1,0.1-0.2,0.2c-0.1,0.1-0.2,0.1-0.3,0.2c0,0.1-0.1,0.1-0.1,0.2l-0.1,0.1
	c-0.1,0.1-0.1,0.1-0.2,0.1l-0.1,0.1c0,0-0.1,0-0.1,0.1c-0.1,0-0.1,0.1-0.2,0.1s-0.1,0.1-0.2,0.2c-0.3,0.3-0.6,0.6-1,0.8
	c-0.3,0.3-0.7,0.5-1.1,0.8l-0.1,0.1c0,0-0.1,0-0.1,0.1h-0.1c-0.1,0-0.2,0.1-0.3,0.2h-0.1l0,0c0,0,0,0-0.1,0
	c-0.2,0.1-0.4,0.1-0.5,0.2h-0.1c-0.2,0-0.3-0.1-0.4-0.2l-0.1-0.1l-0.1-0.1c-0.1-0.1-0.2-0.2-0.2-0.4c0,0,0,0,0-0.1v-0.1
	c0-0.1-0.1-0.2-0.2-0.3c-0.1-0.1-0.2-0.2-0.2-0.4c0-0.1-0.1-0.1-0.1-0.2s0-0.2,0-0.2c0-0.1,0-0.2,0-0.2c0-0.1,0-0.2,0-0.2V20
	c0-0.2,0-0.4,0.1-0.6c0-0.2,0-0.4,0.1-0.6c0-0.2,0.1-0.4,0.1-0.6s0-0.4,0-0.6c0-0.1,0-0.2,0-0.3c0-0.1,0-0.2,0-0.3
	c0.1-0.3,0.1-0.5,0.2-0.8c0.1-0.2,0.1-0.5,0.2-0.7c0-0.1,0.1-0.2,0.1-0.3c0-0.1,0-0.1,0.1-0.2c0-0.1,0.1-0.2,0.1-0.2
	c0-0.1,0-0.2,0.1-0.3c0-0.1,0-0.2,0.1-0.3c0.2-0.4,0.3-0.8,0.5-1.2s0.3-0.8,0.4-1.3v-0.1l0.1-0.1c0.1-0.1,0.1-0.1,0.2-0.2
	c0-0.1,0.1-0.1,0.2-0.2c0,0,0,0,0.1,0c0,0,0,0,0.1,0c0,0,0,0,0-0.1l0,0H48h0.1c0.1,0,0.2-0.1,0.3-0.1C48,10.6,48.1,10.6,48.2,10.6z
	 M45.1,20.9C45.1,20.9,45.1,21,45.1,20.9L45.1,20.9L45.1,20.9z M46.6,15.5C46.6,15.4,46.6,15.5,46.6,15.5S46.6,15.6,46.6,15.5
	L46.6,15.5L46.6,15.5z M49.2,9.6L49.2,9.6c-0.1,0-0.2-0.1-0.2-0.2c0-0.1-0.1-0.1-0.2-0.1s-0.1,0.1-0.1,0.2c0,0.1,0,0.1-0.1,0.1
	c0-0.1-0.1-0.1-0.1-0.2s0-0.1-0.1-0.2c-0.1,0-0.1,0.1-0.1,0.1s0,0.1-0.1,0.1h-0.1c0-0.1-0.1-0.2-0.1-0.3c-0.1-0.1-0.1-0.2-0.1-0.3
	s-0.1-0.2-0.1-0.3c-0.1-0.1-0.1-0.2-0.1-0.3c0-0.3,0-0.7,0.2-1s0.4-0.5,0.7-0.7c0,0,0.1,0,0.1-0.1c0.2,0,0.3-0.1,0.4-0.1
	s0.2,0,0.4-0.1c0.1,0.1,0.2,0.1,0.3,0.2c0.1,0.1,0.2,0.1,0.3,0.2c0.1,0.2,0.2,0.4,0.2,0.7s0,0.6-0.1,0.8c0,0.2-0.1,0.4-0.2,0.6
	c0,0.1-0.1,0.1-0.2,0.2C49.7,9,49.6,9,49.5,9.1h-0.1c0,0-0.1,0.1-0.2,0.1c0,0-0.1,0,0,0.1C49.2,9.5,49.2,9.6,49.2,9.6z M60.9,0.5
	L60.9,0.5c0.1,0.1,0.2,0.1,0.3,0.1s0.2,0,0.3,0c0.1,0.1,0.2,0.2,0.3,0.3s0.2,0.2,0.3,0.4l0,0l0,0v0.1l0,0l0,0c0,0,0.1,0,0.1,0.1
	s0,0.1,0.1,0.1c0.1,0.2,0.2,0.3,0.2,0.4c0.1,0.1,0.1,0.3,0.2,0.5c0,0.1,0,0.2,0,0.3s0,0.2,0,0.3c0,0.3,0,0.6-0.1,1
	c0,0.1,0,0.2,0,0.3s0,0.1,0,0.2c0,0.1,0,0.2-0.1,0.2c0,0.1,0,0.1-0.1,0.2v0.2l0,0l0,0c0,0.1-0.1,0.2-0.1,0.3s-0.1,0.2-0.1,0.3
	l-0.1,0.1V6v0.1C62,6.4,61.9,6.7,61.8,7c-0.1,0.3-0.2,0.6-0.3,0.9c0,0.1-0.1,0.2-0.1,0.2c-0.1,0.2-0.1,0.4-0.2,0.5
	C61.1,8.8,61,8.9,61,9.1v0.1v0.1l0,0c0,0,0,0,0,0.1l0,0l-0.1,0.1c-0.2,0.2-0.3,0.5-0.4,0.7c-0.1,0.3-0.2,0.5-0.4,0.7L60,11
	c0,0.1,0,0.1,0,0.1c0,0.1-0.1,0.2-0.1,0.3c-0.1,0.1-0.1,0.2-0.1,0.3v0.1l-0.1,0.1c-0.1,0.2-0.1,0.3-0.2,0.4
	c-0.1,0.1-0.1,0.3-0.2,0.4l-0.1,0.1c0,0.1-0.1,0.1-0.1,0.1c-0.2,0.3-0.3,0.5-0.5,0.7S58.2,14,58,14.2c-0.1,0-0.1,0.1-0.2,0.2
	c0,0.1-0.1,0.1-0.1,0.2l-0.1,0.1c-0.1,0.1-0.2,0.2-0.3,0.3c-0.1,0.1-0.2,0.2-0.3,0.3s-0.1,0.2-0.2,0.2l-0.1,0.1l-0.1,0.1
	c-0.1,0.1-0.2,0.2-0.2,0.2c0,0.1-0.1,0.2-0.1,0.4c0,0.1,0,0.3-0.1,0.4l0,0v0.1c0,0.1,0,0.1,0,0.1l0,0c0.1,0,0.2,0,0.3-0.1
	c0,0,0,0,0.1,0c0,0,0,0,0.1,0c0,0,0.1,0,0.2,0c0,0,0.1,0,0.1-0.1c0.1,0,0.2-0.1,0.2-0.1c0.1,0,0.1-0.1,0.2-0.1h0.1c0,0,0,0,0.1,0
	h0.1c0,0,0,0,0.1,0c0.2-0.1,0.4-0.2,0.6-0.3c0.2-0.1,0.4-0.2,0.6-0.3c0,0,0.1,0,0.2-0.1c0.1,0,0.1,0,0.1-0.1
	c0.4-0.1,0.7-0.3,1.1-0.4c0.3-0.2,0.7-0.3,1-0.5l0.1-0.1c0,0,0.1,0,0.1-0.1s0.1-0.3,0.1-0.4c0-0.1,0-0.2,0.1-0.4
	c0-0.1,0.1-0.2,0.1-0.4c0-0.1,0.1-0.2,0.1-0.4s0.1-0.3,0.1-0.5c0.1-0.2,0.1-0.4,0.1-0.6v-0.1c0,0,0,0,0-0.1c0,0,0-0.1,0.1-0.2
	c0.2-0.4,0.3-0.8,0.4-1.2C62.8,9.9,63,9.5,63.1,9V8.9V8.8c0,0,0.1-0.1,0.1-0.2c0-0.1,0.1-0.2,0.2-0.3c0,0,0,0,0.2-0.1l0.1-0.1
	c0.1,0,0.1,0,0.2,0c0,0,0.1-0.1,0.2-0.1c0.1,0,0.2-0.1,0.3-0.1s0.2,0,0.3,0h0.1c0,0,0.1,0,0.1,0.1c0,0,0.1,0,0.1,0.1
	s0.1,0.1,0.1,0.1c0.3,0.3,0.6,0.7,0.7,1.2c0,0.1,0,0.1,0,0.2c0,0.1,0,0.1,0.1,0.1C66,9.9,66,10.1,66,10.4s-0.1,0.5-0.2,0.7
	c0,0,0,0,0,0.1c0,0,0,0,0,0.1v0.1v0.1l-0.1,0.1l-0.1,0.1c0,0.1,0,0.1,0,0.1c0,0.1-0.1,0.2-0.1,0.3c-0.1,0.1-0.1,0.2-0.1,0.3
	c0,0,0,0.1-0.1,0.1c-0.1,0.1-0.1,0.2-0.1,0.3s-0.1,0.2-0.1,0.3v0.1c0,0,0,0,0,0.1S65,13.5,65,13.5c-0.1,0.1-0.1,0.3-0.2,0.4
	c-0.1,0.2-0.2,0.5-0.3,0.7s-0.3,0.5-0.4,0.7c-0.1,0.2-0.2,0.5-0.3,0.7c-0.1,0.3-0.2,0.5-0.3,0.8c0,0.1-0.1,0.2-0.1,0.2v0.3
	c0,0.1,0,0.1,0,0.2s-0.1,0.1-0.1,0.2c-0.1,0.1-0.1,0.2-0.2,0.4c-0.1,0.1-0.1,0.3,0,0.4h0.1h0.1c0.1,0,0.2,0,0.3,0h0.1
	c0,0,0.1,0,0.1-0.1c0.2-0.1,0.3-0.2,0.4-0.3c0.1-0.1,0.3-0.2,0.4-0.3c0.1-0.1,0.2-0.2,0.3-0.3c0.1-0.1,0.2-0.2,0.4-0.3
	c0.1,0,0.1-0.1,0.2-0.1c0.1,0,0.1-0.1,0.2-0.1l0.4-0.3c0.1-0.1,0.2-0.2,0.3-0.3c0.2-0.2,0.3-0.3,0.4-0.5c0.1-0.2,0.3-0.3,0.4-0.5
	c0,0,0.1-0.1,0.2-0.1c0.2-0.2,0.3-0.3,0.5-0.4c0.2-0.1,0.4-0.3,0.6-0.4c0,0,0.1,0,0.1-0.1h0.1h0.1c0.1,0,0.2-0.1,0.3-0.1
	s0.2-0.1,0.4,0l0,0c0,0.1,0,0.1-0.1,0.2c0,0.1,0,0.1,0,0.2c-0.1,0.1-0.1,0.2-0.2,0.3c-0.1,0.1-0.1,0.2-0.1,0.2L69,15.3
	c-0.1,0.1-0.1,0.1-0.2,0.2c-0.1,0.1-0.1,0.1-0.1,0.2l-0.1,0.1c0,0,0,0,0,0.1c0,0,0,0,0,0.1s-0.1,0.2-0.1,0.3c0,0.1-0.1,0.1-0.2,0.2
	c-0.1,0-0.2,0.1-0.2,0.1L68,16.7c0,0-0.1,0-0.1,0.1c0,0,0,0.1-0.1,0.1c0,0,0,0.1-0.1,0.1c0,0.1-0.1,0.2-0.1,0.3
	c0,0.1-0.1,0.2-0.2,0.2c0,0.1,0,0.1-0.1,0.1l-0.1,0.1c0,0-0.1,0-0.1,0.1L67,17.9L66.9,18l-0.1,0.1c-0.4,0.3-0.8,0.6-1.1,0.9
	c-0.4,0.3-0.8,0.6-1.2,0.9c-0.1,0.1-0.3,0.2-0.4,0.3c-0.1,0.1-0.3,0.2-0.4,0.3c0,0-0.1,0-0.1,0.1c0,0,0,0-0.1,0h-0.1c0,0,0,0-0.1,0
	c0,0,0,0-0.1,0S63,20.7,63,20.7l0,0c0,0,0,0-0.1,0l0,0l0,0l-0.4,0.1c-0.1,0-0.2,0-0.3,0s-0.2,0-0.2-0.1c0,0-0.1-0.1-0.2-0.2
	c-0.1-0.1-0.1-0.1-0.2-0.2c-0.1-0.1-0.1-0.2-0.2-0.3c0,0,0-0.1-0.1-0.1c0-0.1,0-0.1-0.1-0.1c0,0,0-0.1-0.1-0.1
	c-0.1-0.2-0.2-0.3-0.3-0.4s-0.1-0.3-0.2-0.5c0,0,0-0.1,0-0.2s0-0.1,0-0.2c0-0.5,0-0.9,0-1.3s0.1-0.8,0.2-1.2
	c-0.6,0.3-1.2,0.7-1.8,1.1s-1.3,0.7-2,1c0.1,0.1,0.1,0.2,0.2,0.2c0.1,0.1,0.1,0.1,0.2,0.2l0.1,0.1c0,0,0,0.1,0.1,0.1l0.1,0.1
	c0,0.1,0.1,0.1,0.1,0.2H58c0.1,0.2,0.2,0.5,0.3,0.7s0.2,0.4,0.3,0.7c0,0.2,0,0.3,0,0.4c0.1,0.1,0.1,0.3,0.2,0.4c0,0,0,0-0.1,0l0,0
	c0,0,0,0,0,0.1v0.1c0,0,0,0,0.1,0.1V22l0,0l0,0v0.1v0.3v0.2c0,0.1,0,0.2,0,0.3c0,0.1,0,0.2-0.1,0.3c0,0,0,0.1-0.1,0.2
	c0,0.1,0,0.1,0,0.2s0,0.1,0,0.1c0,0.1,0,0.1,0,0.2s0,0.1-0.1,0.2l-0.1,0.1c0,0,0,0.1-0.1,0.1c-0.1,0.2-0.2,0.4-0.3,0.7
	c-0.1,0.2-0.2,0.5-0.3,0.7l-0.5,1.1c-0.1,0.2-0.2,0.3-0.3,0.5c0,0.1-0.1,0.2-0.1,0.2c-0.1,0.1-0.1,0.2-0.2,0.2
	c-0.2,0.3-0.4,0.7-0.6,1c0,0.1-0.1,0.2-0.2,0.2c-0.1,0.1-0.1,0.2-0.2,0.3c-0.5,0.8-1.2,1.5-1.9,2.1c0,0.1,0,0.1-0.1,0.1l-0.1,0.1
	c-0.1,0-0.1,0.1-0.2,0.1c-0.1,0-0.1,0.1-0.1,0.1c-0.1,0-0.1,0.1-0.1,0.1s0,0,0.1,0l0,0h-0.1l0,0c-0.1,0-0.2-0.1-0.3-0.1
	c-0.1-0.1-0.2-0.1-0.3-0.2h-0.1l0,0c0,0,0,0,0,0.1h-0.1c0,0,0,0,0,0.1c0,0,0,0,0,0.1c-0.1,0-0.1,0-0.2-0.1c0-0.1-0.1-0.1-0.1-0.2
	v-0.1l0,0c0,0-0.1-0.1-0.1-0.2s0-0.2,0-0.2c0-0.2-0.1-0.3-0.1-0.3l-0.1-0.1c-0.1-0.1-0.2-0.2-0.2-0.4c0-0.2-0.1-0.3-0.2-0.5
	c0,0,0-0.1-0.1-0.2c0-0.1,0-0.1-0.1-0.2c0-0.1,0-0.1,0-0.2s0-0.1,0-0.2c0-0.2,0-0.3,0-0.5s0-0.3-0.1-0.5c0-0.1-0.1-0.1-0.1-0.2
	s0-0.2,0-0.3c0-0.2,0-0.3,0-0.5s0-0.3,0-0.5V25l0,0c0-0.4,0-0.8,0.1-1.1c0-0.4,0.1-0.8,0.1-1.1c0-0.4,0.1-0.8,0.1-1.1
	s0.1-0.7,0.2-1.1c0-0.2,0.1-0.3,0.1-0.5s0.1-0.3,0.1-0.5c0-0.1,0-0.2,0.1-0.2c0-0.1,0-0.1,0.1-0.2c0-0.1,0.1-0.2,0.1-0.3v-0.1v-0.1
	c0-0.3,0.1-0.7,0.2-1c0.1-0.3,0.1-0.6,0.2-0.9c0-0.1,0-0.1,0-0.2l0,0l0,0c0,0,0,0-0.1,0c0,0,0,0-0.1,0c0-0.1,0.1-0.2,0.1-0.3
	c0-0.1,0-0.2,0-0.3c0.1-0.8,0.3-1.5,0.4-2.2c0.2-0.7,0.4-1.4,0.5-2.1c0.1-0.2,0.1-0.4,0.2-0.6c0-0.2,0.1-0.4,0.2-0.6
	c0.2-0.6,0.3-1.1,0.6-1.7c0.2-0.5,0.4-1.1,0.7-1.6c0-0.1,0.1-0.2,0.1-0.3S55,6.7,55,6.7c0.2-0.5,0.3-0.9,0.5-1.4
	c0.1-0.5,0.3-0.9,0.5-1.4c0.1-0.2,0.2-0.3,0.3-0.5s0.2-0.3,0.3-0.5c0.2-0.3,0.4-0.7,0.7-1c0.2-0.3,0.5-0.6,0.8-0.9
	c0.1-0.1,0.1-0.1,0.2-0.1c0.1-0.1,0.2-0.1,0.2-0.2c0.1,0,0.1-0.1,0.2-0.2c0,0,0.1,0,0.1-0.1c0,0,0.1,0,0.1-0.1H59h0.1c0,0,0,0,0.1,0
	s0.1,0,0.2,0c0.1,0,0.1,0,0.2,0h0.1c0,0,0,0,0.1,0l0.1-0.1V0.1c0,0,0.1,0,0.2,0.1c0.1,0,0.1,0,0.2,0V0.1C60.9,0.6,60.9,0.5,60.9,0.5
	z M53,20h-0.1H53C52.9,20,52.9,20,53,20L53,20L53,20z M56,18.9c-0.1,0-0.1,0.1-0.2,0.1h-0.1h-0.1c0,0.1-0.1,0.2-0.1,0.2
	c0,0.1,0,0.2,0,0.2c0,0.1,0,0.2,0,0.3c0,0.1,0,0.1,0,0.2s0,0.2-0.1,0.2c0,0.1,0,0.1,0,0.2v0.3c0,0.1-0.1,0.2-0.1,0.2v0.1V21
	c0,0.3-0.1,0.5-0.2,0.7c0,0.1,0,0.1-0.1,0.2c0,0.1,0,0.1,0,0.2s0,0.1,0,0.2s0,0.1,0,0.2s0,0.2-0.1,0.4c0,0.1-0.1,0.2-0.1,0.4
	c0,0.1-0.1,0.2-0.1,0.3c0,0.1,0,0.2-0.1,0.3c0,0,0,0.1-0.1,0.1c0,0.1,0,0.2,0,0.3c0,0.1,0,0.2,0,0.3c0,0.1,0,0.1,0,0.2
	c0,0,0,0.1,0,0.2s0,0.2,0,0.3c0,0.1,0,0.2,0,0.3c0,0,0,0.1-0.1,0.2V26c0,0,0,0.1,0,0.2s0,0.1,0,0.2s0,0.1-0.1,0.2l-0.1,0.1v0.2
	c0,0.2-0.1,0.4-0.1,0.5s0,0.2,0,0.3c0,0.1,0,0.2,0,0.3c0,0,0,0.1,0,0.2s0,0.1,0,0.1c0,0.2,0,0.3,0,0.5c0,0.1,0,0.3,0,0.4v0.1
	c0,0,0.1,0,0.1-0.1c0.1-0.2,0.2-0.3,0.3-0.4s0.2-0.3,0.3-0.4c0.1-0.2,0.3-0.3,0.4-0.5c0.1-0.2,0.2-0.4,0.3-0.6l0.1-0.1
	c0-0.1,0-0.1,0.1-0.1c0.3-0.4,0.6-0.9,0.8-1.4c0-0.1,0.1-0.2,0.1-0.3c0-0.1,0.1-0.2,0.1-0.3c0.1-0.1,0.2-0.2,0.2-0.3
	c0.1-0.1,0.1-0.2,0.2-0.3c0.1-0.1,0.2-0.2,0.2-0.3c0.1-0.1,0.1-0.2,0.2-0.3c0.1-0.1,0.1-0.2,0.1-0.4c0-0.2,0-0.4,0-0.5
	c0-0.2,0-0.4,0-0.5c0-0.2,0-0.3-0.1-0.5c0-0.1-0.1-0.2-0.1-0.4c-0.1-0.1-0.1-0.3-0.2-0.4c-0.1-0.3-0.2-0.5-0.3-0.7s-0.2-0.4-0.4-0.7
	c-0.1-0.1-0.2-0.2-0.2-0.3C56.2,19,56.1,19,56,18.9L56,18.9z M55.6,17h0.1h0.1C55.7,17,55.7,17,55.6,17L55.6,17z M60.6,4.7
	c-0.1,0.2-0.1,0.3-0.2,0.5c-0.1,0.2-0.1,0.3-0.2,0.4l-0.1,0.1c0,0,0,0.1,0,0.2s0,0.1,0,0.2c-0.1,0-0.1,0-0.1,0s0,0.1-0.1,0.1
	l-0.1,0.1c-0.1,0.4-0.3,0.8-0.5,1.1s-0.4,0.7-0.6,1c-0.1,0.2-0.2,0.3-0.3,0.5C58.3,9,58.3,9,58.3,9.1v0.1c0,0.1,0,0.1,0,0.1
	c-0.3,0.7-0.6,1.4-0.9,2c-0.3,0.6-0.6,1.3-0.8,2.1h0.2c1.9-2.9,3.5-5.9,4.8-9.3c-0.3,0-0.5,0.1-0.6,0.2C60.8,4.3,60.7,4.5,60.6,4.7z
	 M61.2,19.2c0,0.1,0,0.2,0,0.2s0,0,0.1,0h-0.1C61.2,19.3,61.2,19.2,61.2,19.2L61.2,19.2z M65.4,7.7L65.4,7.7c-0.1,0-0.2-0.1-0.2-0.2
	c0-0.1-0.1-0.1-0.2-0.1c-0.1,0-0.1,0-0.1,0.1s0,0.1-0.1,0.2V7.6c0,0,0,0,0-0.1s0-0.2-0.1-0.2s-0.1,0-0.1,0c0,0.1,0,0.1-0.1,0.1h-0.1
	c0-0.1-0.1-0.3-0.1-0.4c-0.1-0.1-0.1-0.2-0.1-0.4c0-0.1,0-0.2-0.1-0.2c0-0.1,0-0.1-0.1-0.2c0-0.2-0.1-0.3-0.1-0.4
	c0-0.3,0.1-0.6,0.2-0.8c0.1-0.2,0.3-0.4,0.5-0.5l0.1-0.1c0,0,0.1,0,0.1-0.1h0.1c0,0,0,0,0-0.1c0.1,0,0.2-0.1,0.3-0.1s0.3,0,0.4,0
	c0.1,0.1,0.2,0.1,0.4,0.2c0.1,0.1,0.2,0.2,0.3,0.3c0,0.1,0.1,0.2,0.1,0.3s0,0.2,0.1,0.3c0,0.2,0,0.4,0,0.7c0,0.1,0,0.2,0,0.3
	s0,0.2-0.1,0.3c0,0,0,0.1-0.1,0.1c0,0.1,0,0.1-0.1,0.1v0.1c0,0,0,0.1-0.1,0.1C66.1,7,66,7,65.9,7.1c-0.1,0-0.1,0.1-0.2,0.1
	c-0.2,0.1-0.3,0.2-0.5,0.2C65.4,7.5,65.4,7.5,65.4,7.7C65.4,7.6,65.4,7.6,65.4,7.7z M78.8,15L78.8,15C78.7,15,78.7,15,78.8,15
	c-0.1,0.1-0.1,0.1-0.1,0.1l0,0C78.6,15.1,78.6,15.1,78.8,15c-0.1,0.1-0.1,0.1-0.1,0.1c-0.1,0-0.2,0.1-0.2,0.2c0,0.2,0,0.2,0.2,0.2
	v0.1l0,0c0,0,0.1,0.1,0.1,0h0.1c-0.1,0.1-0.2,0.3-0.4,0.4c0,0,0,0,0,0.1v0.1l-0.1,0.1l-0.1,0.1c-0.1,0.1-0.1,0.1-0.2,0.1L78,16.6
	c-0.1,0.1-0.2,0.2-0.4,0.3c0,0,0,0.1,0.1,0.1c0,0,0,0,0.1,0c0,0.1-0.1,0.1-0.2,0.2v0.1c-0.1,0-0.1,0.1-0.2,0.2l0,0c0,0,0.1,0,0,0
	c0,0.1-0.1,0.2-0.3,0.3c-0.2,0.1-0.3,0.3-0.5,0.4c-0.2,0.2-0.4,0.3-0.5,0.4c-0.2,0.1-0.3,0.2-0.3,0.3c-0.4,0.3-0.8,0.6-1.3,0.9
	c-0.4,0.3-0.8,0.6-1.2,0.9v-0.1l0,0c0,0,0,0.1-0.1,0.1s-0.1,0.1-0.1,0.1C73,20.9,72.8,21,72.8,21s-0.2,0.1-0.3,0.1
	c-0.1,0.1-0.2,0.2-0.4,0.3c-0.1,0.1-0.3,0.1-0.4,0.2c-0.1,0.1-0.2,0.2-0.3,0.2s-0.2,0-0.3,0C71,21.9,71,21.9,71,21.9
	c0.1,0,0.1,0,0.2-0.1c0.1,0,0.2-0.1,0.2-0.1s0,0-0.1,0l0,0l0,0c-0.2,0.1-0.5,0.2-0.8,0.2s-0.6,0-0.9,0c-0.1,0-0.1,0-0.2,0
	c-0.1,0-0.2-0.1-0.3-0.1s-0.3-0.1-0.4-0.1c-0.1,0-0.3-0.1-0.4-0.2c-0.2-0.1-0.3-0.2-0.5-0.4c-0.2-0.1-0.3-0.3-0.4-0.5l0,0
	c0,0,0,0-0.1,0c-0.2-0.2-0.3-0.5-0.3-0.8c-0.1-0.3-0.1-0.6-0.1-0.9c0-0.1,0.1-0.3,0-0.4c0-0.1,0-0.3,0.1-0.4c0,0,0-0.1,0.1-0.2
	c0-0.2,0.1-0.3,0.1-0.5s0.1-0.3,0.1-0.5c0-0.1,0.1-0.3,0.2-0.5c0.1-0.2,0.2-0.3,0.2-0.5c0.2-0.3,0.3-0.6,0.5-0.8
	c0.1-0.3,0.3-0.5,0.5-0.8s0.4-0.6,0.7-0.9c0.2-0.3,0.5-0.6,0.7-0.8c0.1-0.1,0.2-0.2,0.3-0.3s0.2-0.2,0.3-0.2
	c0.1-0.2,0.2-0.3,0.4-0.4c0.1-0.1,0.3-0.3,0.4-0.4c0-0.1,0.1-0.1,0.2-0.1c0.1,0,0.1-0.1,0.2-0.1l0,0c0,0,0,0,0-0.1
	c0.2-0.1,0.4-0.2,0.6-0.4c0.2-0.1,0.4-0.3,0.6-0.4c0.1,0,0.1,0,0.1,0h0.1l0,0l0,0c0.1,0,0.2,0,0.3,0s0.2,0.1,0.2,0.2l0.1,0.1
	c0.1,0.1,0.1,0.1,0.2,0.1c0,0,0.1,0,0.2,0l0,0c0.1,0,0.1,0,0.1,0s0.1,0,0.2,0s0.1,0,0.1,0c0.3,0.1,0.4,0.2,0.4,0.3
	c0,0.2,0,0.4,0,0.6c0,0.1,0.1,0.2,0.1,0.3s0,0.2,0,0.3l0,0v0.1c0,0.3-0.1,0.7-0.3,1c-0.1,0.3-0.3,0.6-0.5,0.7l0,0c0,0,0,0,0,0.1
	c-0.1,0.1-0.2,0.1-0.2,0.2c-0.1,0.1-0.1,0.2-0.2,0.2c0-0.1,0-0.1,0-0.1s-0.1,0-0.1,0.1l-0.1,0.1c0,0,0,0,0-0.1h-0.1h-0.1
	c0,0.1-0.1,0.1,0,0.1c0,0,0-0.1,0.1-0.1c0,0,0-0.1,0.1-0.1c0,0,0,0-0.1,0c0,0-0.1,0-0.1,0.1c0,0,0,0-0.1,0c0-0.1,0-0.1,0-0.2
	c0.1-0.1,0.1-0.2,0.1-0.2v-0.1c0.2-0.3,0.3-0.6,0.5-1s0.3-0.7,0.4-1.1l0,0l0,0c0,0,0,0,0.1-0.2c0-0.1-0.1-0.2-0.2-0.2
	c-0.1,0-0.2,0-0.3,0c-0.1,0.1-0.2,0.3-0.3,0.3c-0.1,0.1-0.2,0.2-0.3,0.2c-0.1,0.1-0.2,0.3-0.3,0.3c-0.1,0.1-0.2,0.2-0.4,0.2
	c-0.1,0.2-0.3,0.4-0.5,0.6c-0.2,0.2-0.4,0.3-0.6,0.5c0,0.1-0.1,0.2-0.2,0.3c-0.1,0.1-0.1,0.1-0.2,0.2c0,0.2-0.1,0.2-0.1,0.2
	s-0.1,0.1-0.2,0.2c-0.1,0.1-0.2,0.3-0.3,0.5s-0.2,0.4-0.2,0.6c0,0.1-0.1,0.2-0.1,0.3c0,0.1-0.1,0.2-0.1,0.3c0,0,0,0.1-0.1,0.2
	c0,0.1-0.1,0.3-0.1,0.4S70,17,70,17.1c-0.1,0.1-0.1,0.2-0.1,0.2c0,0.2,0,0.4-0.1,0.7c-0.1,0.3-0.1,0.6-0.1,0.8
	c0,0.3,0.1,0.5,0.2,0.7c0.2,0.2,0.4,0.2,0.9,0.2c0.4-0.1,0.6-0.1,0.6-0.1s0,0,0,0.1l0,0c0,0,0.2-0.1,0.5-0.2c0,0,0.1-0.1,0.3-0.1
	c0.1-0.1,0.3-0.1,0.4-0.2c0.1,0,0.3-0.1,0.4-0.1c0.1,0,0.2-0.1,0.3-0.1c0.1-0.1,0.3-0.2,0.5-0.3c0.3-0.1,0.5-0.2,0.6-0.2
	c0.3-0.2,0.5-0.3,0.7-0.5s0.5-0.4,0.8-0.7c0.1-0.1,0.2-0.2,0.4-0.3c0.1-0.1,0.3-0.2,0.4-0.2c0.1,0,0.2-0.1,0.3-0.3
	c0.2-0.2,0.3-0.3,0.4-0.3l0.1-0.1c0.1-0.1,0.1-0.1,0.1-0.1c0.2,0,0.3-0.1,0.4-0.3c0.1-0.2,0.2-0.3,0.4-0.3c0.1-0.1,0.2-0.1,0.3-0.1
	C78.7,14.8,78.8,14.9,78.8,15z M75.1,11.6L75.1,11.6C75,11.7,75.1,11.7,75.1,11.6L75.1,11.6z M83.6,12.5L83.6,12.5
	c0.1-0.1,0.2-0.1,0.2-0.2c0.1,0,0.1-0.1,0.2-0.2c0.1-0.1,0.1-0.2,0.1-0.3s0-0.3,0.1-0.4c0.1-0.2,0.2-0.3,0.2-0.5
	c0.1-0.1,0.1-0.3,0.2-0.4c0.1-0.1,0.2-0.2,0.3-0.2c0.1-0.1,0.2-0.1,0.3-0.2c0.1,0,0.2,0,0.3,0c0,0,0.1,0,0.2,0l0.1,0.1h0.1
	c0,0.1,0.1,0.2,0.2,0.2c0.1,0.1,0.1,0.1,0.2,0c0.1,0,0.2,0.1,0.2,0.3c0,0.1,0.1,0.3,0.1,0.3c0,0.1,0,0.1,0,0.2c0,0.1,0,0.1,0,0.2
	c0,0.4,0.1,0.8,0,1.2c0,0.4-0.1,0.7-0.2,1c0,0,0,0,0,0.1v0.1c-0.1,0.1-0.2,0.2-0.2,0.4s-0.1,0.3-0.2,0.5c0,0.2-0.1,0.3-0.1,0.4
	c-0.1,0.1-0.1,0.2-0.2,0.2c-0.1,0.1-0.1,0.2-0.1,0.2c-0.1,0.1-0.1,0.2-0.2,0.4V16c-0.1,0.1-0.1,0.2-0.2,0.3c0,0.1-0.1,0.2-0.1,0.3
	v0.1c0,0,0,0.1-0.1,0.1c0,0.1,0,0.2,0,0.3c0,0.1,0,0.2,0,0.2c0,0.2-0.1,0.4-0.1,0.5c-0.1,0.2-0.1,0.4-0.2,0.5c0,0,0,0,0,0.1v0.1
	c0,0.1-0.1,0.2-0.1,0.3c-0.1,0.1-0.1,0.2-0.1,0.4c0,0.1,0.1,0.2,0.1,0.3c0,0.1,0.1,0.2,0.1,0.3c0.7-0.2,1.4-0.5,1.9-0.8
	c0.6-0.3,1.1-0.7,1.6-1.2c0,0,0.1-0.1,0.2-0.2c0.1-0.1,0.1-0.1,0.2-0.2c0,0,0.1,0,0.2-0.1c0.1,0,0.1-0.1,0.2-0.1
	c0.1-0.1,0.2-0.3,0.4-0.4c0.1-0.1,0.3-0.2,0.5-0.2H90h0.1v0.1c-0.1,0-0.1,0,0,0.1c0.1,0,0.1,0,0.1,0s0,0,0.1,0l-0.1,0.1
	c-0.1,0-0.1,0.1-0.1,0.1c0.1,0,0.1,0.1,0.1,0.1h0.1c0,0,0,0.1-0.1,0.1l-0.1,0.1c-0.1,0.1-0.2,0.2-0.3,0.4c-0.1,0.1-0.2,0.3-0.3,0.4
	c-0.1,0.2-0.2,0.4-0.2,0.4c0,0.1-0.1,0.2-0.3,0.3c-0.1,0.1-0.1,0.1-0.1,0.1s0,0-0.1,0c0,0.1,0,0.2-0.1,0.3c-0.1,0.1-0.1,0.1-0.2,0.2
	c-0.1,0.1-0.2,0.2-0.3,0.3C88.1,19.8,88,20,87.9,20c0,0.1-0.2,0.2-0.4,0.3c-0.2,0.1-0.4,0.1-0.5,0.1c0,0.1-0.1,0.2-0.3,0.3
	c-0.1,0.1-0.3,0.2-0.4,0.3l0,0v0.1c-0.1,0.1-0.2,0.1-0.4,0.1c-0.1,0-0.2,0.1-0.3,0.1h-0.1l-0.1,0.1c-0.3,0.1-0.6,0.1-0.9,0
	c-0.2,0-0.3,0-0.5,0s-0.4,0-0.5-0.2c-0.1-0.1-0.1-0.1-0.1-0.2s-0.1-0.2-0.2-0.3c0-0.1-0.1-0.1-0.1-0.2c0,0,0-0.1-0.1-0.3
	c0-0.1-0.1-0.2-0.1-0.3c0-0.1-0.1-0.2-0.1-0.3c0-0.1-0.1-0.2-0.1-0.4c-0.1-0.2-0.1-0.3-0.1-0.5s-0.1-0.4,0-0.6c0-0.2,0-0.3,0-0.4
	s0-0.3,0.1-0.4c0-0.1,0.1-0.3,0.1-0.6c-0.1,0-0.1,0.1-0.2,0.2c-0.1,0.1-0.1,0.2-0.2,0.2l-0.1,0.1l-0.1,0.1c-0.1,0.2-0.2,0.4-0.3,0.5
	s-0.2,0.3-0.3,0.5c-0.2,0.2-0.4,0.5-0.6,0.7c-0.2,0.3-0.4,0.5-0.5,0.7c0,0-0.1,0,0,0l0,0c0,0-0.1,0.1-0.1,0.2s-0.1,0.2-0.1,0.2
	c-0.1,0-0.1,0.1-0.2,0.1c-0.1,0.1-0.1,0.1-0.2,0.2c-0.1,0-0.1,0-0.2,0.1c-0.3,0.2-0.5,0.4-0.8,0.6c-0.2,0.2-0.5,0.3-0.8,0.2
	c-0.1,0-0.1,0-0.2,0c-0.1,0-0.2-0.1-0.3-0.1c0,0-0.1,0-0.1-0.1c-0.1,0-0.2,0-0.3-0.1s-0.1-0.2-0.2-0.3c0-0.3-0.1-0.6-0.2-0.9
	c-0.1-0.3-0.1-0.6-0.1-1c0-0.7,0.1-1.3,0.3-1.9c0.2-0.5,0.3-1.1,0.6-1.7c0.3-0.5,0.5-1,0.8-1.5c0.2-0.5,0.5-1,0.8-1.4
	c0.2-0.2,0.3-0.4,0.5-0.7c0.2-0.2,0.3-0.4,0.5-0.6c0.1-0.1,0.2-0.1,0.2-0.2c0.1-0.1,0.1-0.1,0.2-0.2c0.1,0,0.1-0.1,0.2-0.1
	c0.1-0.1,0.1-0.1,0.2-0.2l0.1-0.1l0.1-0.1c0.1-0.1,0.2-0.2,0.4-0.3c0.1-0.1,0.2-0.1,0.3,0c0.2,0,0.3-0.1,0.4,0c0.1,0,0.2,0,0.3,0.1
	c0.1,0,0.3,0.1,0.4,0.2c0.1,0.1,0.2,0.1,0.3,0.2c0,0.2,0.1,0.4,0.2,0.6c0.1,0.2,0.2,0.4,0.3,0.6c0,0.1,0,0.1,0,0.2
	C83.5,12.3,83.6,12.4,83.6,12.5z M77.9,19.1c0.1,0,0.1-0.1,0.2-0.1c0.1,0,0.1-0.1,0.2-0.1c0.1-0.1,0.1-0.2,0.2-0.2
	c0-0.1,0.1-0.1,0.1-0.2c0.4-0.4,0.7-0.8,1-1.2c0.3-0.4,0.6-0.8,0.9-1.2c0.2-0.2,0.4-0.5,0.6-0.8c0.2-0.3,0.4-0.5,0.6-0.8
	c0.2-0.3,0.4-0.5,0.7-0.8c0.2-0.2,0.4-0.5,0.6-0.7c0-0.3,0-0.6-0.1-0.8s-0.2-0.4-0.2-0.6c-0.2-0.1-0.5-0.1-0.8-0.1
	c-0.2,0-0.4,0.1-0.6,0.2c-0.2,0.1-0.3,0.3-0.5,0.4c-0.3,0.2-0.5,0.5-0.7,0.7c-0.2,0.3-0.4,0.6-0.6,0.9c-0.2,0.4-0.4,0.7-0.6,1.1
	c-0.2,0.4-0.3,0.7-0.5,1.1c-0.1,0.2-0.1,0.3-0.2,0.4c0,0.1-0.1,0.2,0,0.3c0,0.1,0,0.2,0,0.3c0,0.1,0,0.1,0,0.2v0.1
	c0,0.1,0,0.2,0,0.3c0,0.1,0,0.2,0,0.3c0,0.2-0.1,0.4-0.2,0.7C77.9,18.7,77.9,18.9,77.9,19.1L77.9,19.1z M78.4,15.5
	C78.4,15.4,78.4,15.5,78.4,15.5S78.4,15.6,78.4,15.5L78.4,15.5L78.4,15.5z M94.3,2.3L94.3,2.3c0.2,0,0.3,0.1,0.3,0.2l0.1,0.1h0.1
	c0.1,0,0.1,0.1,0.1,0.1c0,0.1,0,0.1,0.1,0.1l0.1,0.1L95.2,3v0.1c0,0,0,0,0,0.1s0.1,0.1,0.1,0.2v0.1v0.1c0,0.2-0.1,0.5,0,0.7
	c0,0.3,0,0.5,0,0.7c0,0,0,0,0,0.1c0,0,0,0,0,0.1v0.1c0,0.1,0,0.1,0,0.1c0,0.1,0,0.2,0,0.3c0,0.3-0.1,0.5-0.1,0.8
	C95.1,6.7,95.1,7,95,7.2c-0.1,0.2-0.1,0.3-0.2,0.5c-0.1,0.1-0.1,0.3-0.2,0.5c-0.1,0.2-0.1,0.3-0.1,0.5c0,0.1-0.1,0.3-0.2,0.5l0,0
	l0,0c0,0-0.1,0.1-0.1,0.2c0.4,0,0.8,0,1.3,0c0.4,0,0.9,0,1.3,0l0,0l0,0h0.1H97l0,0l0,0h0.1h0.1v0.1h0.1l0,0c-0.1,0-0.2,0.1-0.2,0.1
	H97c-0.1,0-0.2,0-0.3,0s-0.2,0-0.4,0v0.1h-0.1h-0.1c0,0.1-0.1,0.1-0.2,0.1c-0.1,0-0.2,0-0.2,0.1h0.1l0,0l0,0h0.1c0,0,0,0,0.1,0h0.1
	c0,0,0,0,0.1,0c0,0,0,0,0.1,0s0.2,0,0.4,0c0.1,0,0.3,0,0.4,0c-0.1,0-0.2,0.1-0.3,0.1s-0.2,0-0.3,0c0,0-0.1,0-0.2,0
	c0,0-0.1,0-0.1,0.1c0,0,0,0-0.1,0c0,0.1,0,0.1,0,0.1l0,0l0,0V10c-0.1,0-0.2,0-0.2-0.1c0,0.1-0.1,0.1-0.2,0.1c-0.1,0-0.2,0-0.3,0l0,0
	l0,0l0,0l0,0h-0.2l0,0l0,0c-0.1,0-0.2,0.1-0.3,0.1s-0.2,0-0.2,0.1c0,0,0.1,0,0.2,0H95c0,0,0,0,0.1,0l0,0l0,0c-0.1,0-0.1,0-0.1,0.1
	c0,0-0.1,0-0.2,0l0,0l0,0c-0.1,0-0.2,0-0.2,0.1c-0.1,0-0.2,0-0.3,0c-0.1,0.3-0.2,0.7-0.3,1s-0.2,0.6-0.3,0.9c0,0.1,0,0.1,0,0.2
	c0,0.1,0,0.1,0,0.2c0,0.1-0.1,0.2-0.1,0.3v0.5v0.1v0.1v0.1v0.1V14c0,0.1,0,0.3-0.1,0.3c-0.1,0.1-0.1,0.2-0.2,0.3L93.2,15l-0.1,0.2
	c0,0,0,0.1-0.1,0.1c0,0,0,0,0,0.1s-0.1,0.2-0.1,0.3c0,0.1,0,0.2-0.1,0.3c0,0,0,0.1-0.1,0.1c0,0.1-0.1,0.2-0.1,0.3
	c0,0.1-0.1,0.2-0.1,0.3c0,0.2-0.1,0.4-0.1,0.6c-0.1,0.2-0.1,0.4-0.2,0.6c0,0.1-0.1,0.1-0.1,0.2v0.1c0,0.1,0,0.3-0.1,0.4
	s-0.1,0.2-0.1,0.4c-0.1,0.1-0.1,0.2-0.1,0.2c0,0.1,0,0.2-0.1,0.3c0,0.1,0,0.1-0.1,0.2c0,0.1-0.1,0.1-0.1,0.2v0.2l-0.1,0.1
	c0,0.1,0,0.1,0,0.2c-0.1,0.1-0.1,0.1,0,0.2l-0.1,0.1c0,0,0,0.1,0,0.2s0,0.1,0,0.2c0,0.2,0,0.3,0,0.3l0,0l0,0c0,0,0,0.1,0.1,0.1
	s0.2,0,0.3-0.1s0.1-0.2,0.2-0.2l0.2-0.2c0,0,0.1,0,0.1-0.1c0,0,0.1,0,0.1-0.1c0.2-0.1,0.3-0.2,0.4-0.3c0.1-0.1,0.3-0.2,0.4-0.3
	c0.3-0.2,0.6-0.4,0.8-0.6c0.3-0.2,0.5-0.4,0.8-0.6c0.1-0.1,0.3-0.2,0.4-0.3c0.1-0.1,0.3-0.2,0.4-0.3c0.1-0.1,0.3-0.2,0.4-0.3
	c0.1-0.1,0.2-0.2,0.4-0.3c0.1-0.1,0.2-0.2,0.4-0.3c0.1-0.1,0.2-0.2,0.4-0.3c0.1-0.1,0.2-0.2,0.4-0.3c0.1-0.1,0.3-0.2,0.4-0.3
	c0,0.1,0,0.2,0.2,0.2c0,0.1-0.1,0.1-0.1,0.2s0,0.2,0,0.3h0.1c0,0,0.1,0,0.2,0l0,0l0,0l0,0l0,0l0,0l0,0c-0.1,0.1-0.1,0.2-0.2,0.3
	c-0.1,0.1-0.2,0.1-0.3,0.2c-0.2,0.2-0.3,0.4-0.5,0.5c-0.2,0.2-0.3,0.3-0.5,0.5c-0.1,0.1-0.1,0.2-0.2,0.3c-0.1,0.1-0.2,0.2-0.3,0.3
	c-0.1,0.1-0.1,0.1-0.2,0.2c-0.1,0.1-0.1,0.1-0.2,0.2l-0.1,0.1l0,0l0,0c0,0,0,0-0.1,0c0,0,0,0-0.1,0.1c-0.3,0.3-0.7,0.6-1.1,0.8
	c-0.4,0.3-0.7,0.5-1,0.8c0,0,0,0.1-0.1,0.1c-0.1,0.1-0.1,0.1-0.2,0.1c0,0.1-0.1,0.1-0.1,0.2c-0.1,0.1-0.2,0.1-0.3,0.1v0.1l0,0l0,0
	l0,0c0,0-0.1,0-0.2,0l-0.1,0.1l0,0c0,0,0,0,0,0.1l0,0h-0.1c-0.2,0.1-0.3,0.2-0.5,0.2c-0.2,0.1-0.3,0.1-0.4,0.2
	c-0.1,0.1-0.1,0.1-0.2,0.1H91c-0.1,0-0.1,0-0.2,0.1c-0.1,0-0.1,0-0.2,0.1h-0.2l-0.1,0.1h-0.1c-0.1,0-0.2,0-0.3,0.1l0,0
	c-0.1,0-0.1,0-0.1-0.1c0,0,0-0.1-0.1-0.1c0-0.1-0.1-0.1-0.1-0.1c-0.1,0-0.1-0.1-0.1-0.2c-0.1,0.1-0.1,0.1-0.2,0l0,0l0,0
	c0,0-0.1,0-0.1-0.1l-0.1-0.1v-0.1v-0.1V22L89,21.9v-0.1c0-0.3,0-0.5-0.1-0.6c0,0,0-0.1-0.1-0.1c0,0,0-0.1-0.1-0.2
	c0-0.2-0.1-0.3-0.1-0.6c0-0.2,0-0.4,0-0.6s0-0.4,0-0.6s0-0.4,0-0.6s0-0.3,0-0.4s0-0.2,0.1-0.3c0.1-0.5,0.2-1.1,0.2-1.9v-0.3
	c0-0.1,0.1-0.2,0.1-0.2c0-0.1,0.1-0.3,0.1-0.4s0-0.3,0.1-0.4c0-0.1,0-0.2,0-0.3s0.1-0.2,0.1-0.3c0-0.2,0.1-0.4,0.1-0.7
	c0-0.2,0.1-0.5,0.1-0.7c0-0.1,0.1-0.2,0.1-0.3s0-0.2,0-0.3c0,0,0-0.1,0.1-0.1c0,0,0-0.1,0.1-0.1c0-0.1,0-0.1,0-0.1
	c0-0.1,0-0.2,0-0.2c0.1-0.2,0.1-0.3,0.2-0.5c0.1-0.2,0.1-0.3,0.1-0.5H90l0,0c0,0-0.1,0-0.2,0c-0.1,0-0.1,0-0.2,0h-0.1h-0.1h-0.1
	h-0.1c-0.1,0-0.2,0-0.2,0s0,0.1,0.1,0.1c-0.1,0.1-0.2,0.1-0.3,0.1l0,0l0,0v-0.1c0,0,0,0.1-0.1,0.1h-0.1h-0.1l0,0h-0.1c0,0,0,0-0.1,0
	v0.1c0,0,0,0,0-0.1c0,0-0.1,0-0.1,0.1c0,0,0,0.1-0.1,0.1l0,0l0,0H88h-0.1c0,0,0,0-0.1,0c0,0,0,0-0.1,0l0,0l0,0
	c0.2,0,0.3-0.1,0.3-0.2c0,0-0.1,0-0.1,0.1l0,0l0,0c0,0-0.1,0-0.2,0c-0.1,0-0.1,0-0.1,0.1c0,0,0,0,0-0.1h-0.1c0,0,0,0-0.1,0
	c0,0-0.1,0-0.1,0.1c0,0-0.1,0,0-0.1v-0.1l0,0l0,0l0,0l-0.1,0.1c0,0,0-0.1,0.1-0.1c0,0,0.1,0,0.1-0.1c0,0-0.1,0.1-0.1,0h0.1
	c0,0-0.1,0-0.1-0.1c0.1-0.1,0.2-0.2,0.3-0.3s0.3-0.1,0.4-0.2h0.1c0,0,0,0,0.1,0V9.9c0.1,0,0.1,0,0.2,0c0,0,0.1,0,0.1-0.1
	c0,0,0.1,0,0.1-0.1c0.1,0,0.1,0,0.1-0.1c0,0,0.1,0.1,0.1,0c0,0,0.1,0,0.1-0.1c0.2,0,0.4-0.1,0.6-0.2c0.2-0.1,0.4-0.1,0.6-0.1
	c0.1-0.3,0.2-0.6,0.3-0.9c0.1-0.3,0.2-0.6,0.3-0.9c0.1-0.3,0.2-0.6,0.3-0.9c0.1-0.3,0.2-0.6,0.3-0.9c0.2-0.4,0.3-0.8,0.5-1.3
	c0.2-0.4,0.4-0.8,0.7-1.1c0.1-0.1,0.2-0.2,0.3-0.3s0.2-0.2,0.3-0.3h0.1c0,0,0,0,0.1,0s0.2-0.1,0.3-0.1C94.1,2.3,94.2,2.3,94.3,2.3z
	 M88.8,10.5L88.8,10.5L88.8,10.5z M90.4,22.5L90.4,22.5C90.4,22.5,90.5,22.5,90.4,22.5L90.4,22.5L90.4,22.5z M90.8,21.2
	c-0.1,0-0.2,0-0.2,0.1C90.7,21.3,90.7,21.3,90.8,21.2C90.7,21.2,90.8,21.2,90.8,21.2L90.8,21.2z M98.9,10.6h0.2c0.1,0,0.2,0,0.2,0
	c0.1,0,0.1,0,0.2,0c0.1,0,0.1,0.1,0.2,0.2c0.1,0.1,0.1,0.2,0.1,0.3s0,0.2,0,0.3s0,0.1,0,0.2c0,0.1,0,0.1,0,0.2
	c0.1,0.1,0.1,0.1,0.1,0.1c0.1,0.2,0.2,0.4,0.2,0.8c0,0.1,0,0.1,0,0.2c0,0.1,0,0.1,0,0.2l0,0l0,0l-0.1,0.1v0.1l0,0v0.1c0,0,0,0,0,0.1
	c0,0-0.1,0.1,0,0.1v0.1c0,0,0,0,0,0.1c0,0,0,0,0,0.1c0,0,0,0,0,0.1s0,0.2,0,0.2c0,0.1-0.1,0.1-0.1,0.2v0.1c0,0.1-0.1,0.1-0.1,0.2
	c0,0.1-0.1,0.1-0.1,0.2c0,0.1,0,0.2,0,0.3c0,0.1,0,0.1,0,0.2s0,0.1-0.1,0.1v0.1c0,0.1,0,0.1,0,0.2c0,0.2-0.1,0.4-0.2,0.6
	c-0.1,0.2-0.1,0.4-0.2,0.5c-0.2,0.3-0.3,0.6-0.4,0.9c-0.1,0.2-0.2,0.6-0.3,1v0.1c0,0,0,0,0,0.1v0.1v0.1c0,0.2-0.1,0.4-0.3,0.5
	c-0.1,0.1-0.2,0.3-0.1,0.6h0.2h0.2c0,0,0,0,0.1-0.1c0.1,0,0.3-0.1,0.4-0.2c0.1-0.1,0.2-0.1,0.3-0.2c0.1,0,0.1-0.1,0.2-0.2
	c0-0.1,0.1-0.1,0.1-0.2c0.2-0.1,0.3-0.2,0.3-0.3c0.2-0.2,0.4-0.3,0.6-0.4c0.2-0.1,0.3-0.3,0.5-0.5l0.1-0.2c0.1-0.1,0.2-0.1,0.2-0.2
	c0.1-0.1,0.2-0.1,0.3-0.2s0.2-0.2,0.3-0.3c0.1-0.1,0.2-0.2,0.3-0.2c0.1-0.1,0.1-0.1,0.2-0.1c0.2-0.1,0.3-0.3,0.5-0.4
	c0.1-0.2,0.3-0.3,0.4-0.4c0,0,0.1,0,0.1-0.1h0.1h0.1c0.1,0,0.2-0.1,0.3-0.1s0.2-0.1,0.4,0c0,0.1,0,0.1,0,0.1s0,0.1,0,0.2
	c-0.1,0.1-0.3,0.3-0.4,0.5l0,0l0,0v0.1c0,0.1,0,0.1,0,0.2c0,0,0,0-0.1,0.1l-0.1,0.1c0,0.1-0.1,0.1-0.1,0.2s-0.1,0.1-0.1,0.2
	c-0.1,0.1-0.1,0.2-0.1,0.2c-0.1,0.1-0.2,0.2-0.3,0.4c-0.1,0.1-0.2,0.2-0.3,0.3c0,0.1-0.1,0.1-0.1,0.2c-0.1,0.1-0.1,0.1-0.2,0.1
	c-0.2,0.1-0.3,0.3-0.5,0.5l0,0l0,0c-0.1,0.1-0.1,0.1-0.2,0.2c-0.1,0.1-0.2,0.1-0.3,0.2c0,0.1-0.1,0.1-0.1,0.2l-0.1,0.1
	c-0.1,0.1-0.1,0.1-0.2,0.1l-0.1,0.1c0,0-0.1,0-0.1,0.1c-0.1,0-0.1,0.1-0.2,0.1c-0.1,0-0.1,0.1-0.2,0.2c-0.3,0.3-0.6,0.6-1,0.8
	c-0.3,0.3-0.7,0.5-1.1,0.8l-0.1,0.1c0,0-0.1,0-0.1,0.1h-0.1c-0.1,0-0.2,0.1-0.3,0.2h-0.1l0,0c0,0,0,0-0.1,0
	c-0.2,0.1-0.4,0.1-0.5,0.2H97c-0.2,0-0.3-0.1-0.4-0.2l-0.1-0.1l-0.1-0.1c-0.1-0.1-0.2-0.2-0.2-0.4c0,0,0,0,0-0.1v-0.1
	c0-0.1-0.1-0.2-0.2-0.3c-0.1-0.1-0.2-0.2-0.2-0.4c0-0.1-0.1-0.1-0.1-0.2s0-0.2,0-0.2c0-0.1,0-0.2,0-0.2c0-0.1,0-0.2,0-0.2V20
	c0-0.2,0-0.4,0.1-0.6c0-0.2,0-0.4,0.1-0.6c0-0.2,0.1-0.4,0.1-0.6s0-0.4,0-0.6c0-0.1,0-0.2,0-0.3c0-0.1,0-0.2,0-0.3
	c0.1-0.3,0.1-0.5,0.2-0.8c0.1-0.2,0.1-0.5,0.2-0.7c0-0.1,0.1-0.2,0.1-0.3c0-0.1,0-0.1,0.1-0.2c0-0.1,0.1-0.2,0.1-0.2
	c0-0.1,0-0.2,0.1-0.3c0-0.1,0-0.2,0.1-0.3c0.2-0.4,0.3-0.8,0.5-1.2s0.3-0.8,0.4-1.3v-0.1l0.1-0.1c0.1-0.1,0.1-0.1,0.2-0.2
	c0-0.1,0.1-0.1,0.2-0.2c0,0,0,0,0.1,0c0,0,0,0,0.1,0c0,0,0,0,0-0.1l0,0h0.1h0.1c0.1,0,0.2-0.1,0.3-0.1
	C98.7,10.6,98.8,10.6,98.9,10.6z M95.7,20.9C95.7,20.9,95.8,21,95.7,20.9C95.8,20.9,95.8,20.9,95.7,20.9L95.7,20.9z M99.9,9.6
	L99.9,9.6c-0.1,0-0.2-0.1-0.2-0.2c0-0.1-0.1-0.1-0.2-0.1c-0.1,0-0.1,0.1-0.1,0.2c0,0.1,0,0.1-0.1,0.1c0-0.1-0.1-0.1-0.1-0.2
	s0-0.1-0.1-0.2C99,9.2,99,9.3,99,9.3s0,0.1-0.1,0.1h-0.1c0-0.1-0.1-0.2-0.1-0.3c-0.1-0.1-0.1-0.2-0.1-0.3s-0.1-0.2-0.1-0.3
	c-0.1-0.1-0.1-0.2-0.1-0.3c0-0.3,0-0.7,0.2-1s0.4-0.5,0.7-0.7c0,0,0.1,0,0.1-0.1c0.2,0,0.3-0.1,0.4-0.1c0.1,0,0.2,0,0.4-0.1
	c0.1,0.1,0.2,0.1,0.3,0.2c0.1,0.1,0.2,0.1,0.3,0.2c0.1,0.2,0.2,0.4,0.2,0.7s0,0.6-0.1,0.8c0,0.2-0.1,0.4-0.2,0.6
	c0,0.1-0.1,0.1-0.2,0.2c-0.1,0.1-0.2,0.1-0.3,0.2h-0.1c0,0-0.1,0.1-0.2,0.1c0,0-0.1,0,0,0.1C99.9,9.5,99.9,9.6,99.9,9.6z M115.3,12
	c0.1,0.1,0.1,0.2,0,0.3s-0.2,0.3-0.3,0.4c0,0.1-0.1,0.1-0.1,0.2c-0.1,0-0.1,0.1-0.1,0.1c-0.3,0.2-0.6,0.4-1,0.5s-0.7,0.2-1.1,0.3
	c-0.4,0.1-0.7,0.1-1,0.1s-0.5,0-0.6,0c-0.1,0.5-0.2,0.8-0.2,1.1c-0.1,0.3-0.2,0.6-0.3,1c0-0.1,0-0.2,0.1-0.3c0-0.1,0.1-0.2,0.1-0.3
	c-0.1,0.2-0.1,0.3-0.2,0.5c-0.1,0.2-0.1,0.3-0.2,0.5v0.1c0,0,0,0,0,0.1s-0.1,0.3-0.2,0.5c0,0.1-0.1,0.2-0.1,0.2
	c0,0.1-0.1,0.1-0.1,0.2l0,0v-0.1c-0.1,0.1-0.1,0.3-0.1,0.4s-0.1,0.3-0.1,0.4c-0.1,0.2-0.2,0.3-0.3,0.5c-0.1,0.1-0.2,0.3-0.3,0.5
	c0,0.1-0.1,0.2-0.1,0.3c0,0.1-0.1,0.2-0.1,0.3c0,0.1-0.1,0.1-0.1,0.2s-0.1,0.1-0.1,0.2s-0.1,0.1-0.1,0.2c-0.1,0-0.1,0.1-0.1,0.1
	c-0.1,0-0.2,0.1-0.2,0.3c-0.1,0.1-0.2,0.2-0.4,0.3c-0.1,0.1-0.3,0.2-0.4,0.3c-0.2,0-0.4,0.1-0.7,0.3c-0.2,0.1-0.5,0.2-0.7,0.2l0,0
	l0,0c-0.1,0-0.3,0-0.4,0.1c-0.2,0-0.3,0-0.5,0c-0.3-0.1-0.6-0.2-0.8-0.4c-0.2-0.2-0.4-0.4-0.6-0.6c-0.4-0.2-0.6-0.5-0.7-0.9
	c-0.1-0.4-0.2-0.8-0.4-1.2l-0.1-0.1v-0.2c0-0.2,0-0.3-0.1-0.5c0-0.2-0.1-0.3-0.1-0.5c0-0.1,0.1-0.2,0.1-0.3c0-0.1,0-0.2,0-0.3l0,0
	c0.1-1,0.3-2,0.7-2.9s0.9-1.7,1.4-2.3c0.2-0.2,0.3-0.4,0.4-0.6c0.1-0.2,0.3-0.3,0.5-0.5c0.2-0.1,0.3-0.3,0.5-0.4
	c0.2-0.1,0.3-0.3,0.5-0.4h0.1l0,0c0.2-0.1,0.4-0.1,0.6,0c0.2,0.1,0.4,0.2,0.5,0.3s0.1,0.2,0.2,0.3c0,0.1,0.1,0.3,0,0.4
	c0,0,0.1,0,0.1-0.1s0.1-0.1,0.1-0.2c0.1,0.1,0.3,0.1,0.4,0c0.1-0.1,0.2-0.2,0.3-0.3c0.1,0.1,0.2,0.1,0.3,0c0.1,0,0.2,0,0.3,0.1h0.1
	c0,0,0-0.1,0.1-0.1h0.1h0.1l0.1-0.1c0,0,0-0.1-0.1-0.1h0.1h0.1c0,0,0,0,0,0.1v0.1l0.2,0.1c0,0.1,0,0.2,0.1,0.3
	c0,0.1,0.1,0.2,0.1,0.3s0.1,0.2,0.1,0.3s0.1,0.2,0.2,0.3c0.1,0.1,0.1,0.2,0.1,0.3s0.1,0.3,0.1,0.4c0,0,0,0.1,0,0.2
	c0,0.1,0.1,0.1,0.1,0.1c0-0.1,0-0.2,0-0.3S111,12.1,111,12c0,0,0.1,0.1,0.1,0.2c0,0.1,0,0.1,0,0.1c0,0.1,0.1,0.2,0.1,0.3h0.1
	c0,0,0,0.1,0.1,0.1s0.1,0,0.2,0h0.1c0.1,0,0.3,0,0.4,0c0.2,0,0.3,0,0.5,0s0.3,0,0.5,0s0.3,0,0.4-0.1c0.3-0.1,0.6-0.2,0.8-0.3
	s0.4-0.2,0.5-0.3c0.1,0,0.2,0,0.3,0s0.1-0.1,0.2-0.1h0.1C115.2,11.9,115.3,11.9,115.3,12z M109.7,15.6c0.1-0.1,0.1-0.3,0.1-0.4
	c0-0.2,0-0.3,0.1-0.5s0.1-0.3,0.2-0.4c0-0.1,0.1-0.2,0-0.4c-0.2,0-0.3,0-0.5-0.1s-0.3-0.1-0.4-0.2c-0.1,0-0.2,0-0.3-0.1
	s-0.2-0.2-0.3-0.3c-0.1,0-0.1,0-0.2-0.1c-0.1,0-0.2-0.1-0.3-0.2c-0.1-0.1-0.2-0.2-0.3-0.3s-0.2-0.3-0.3-0.4
	c-0.1,0.1-0.1,0.2-0.1,0.3s-0.1,0.2-0.1,0.3s-0.1,0.1-0.1,0.2c-0.1,0.1-0.1,0.1-0.2,0.2c-0.1,0.2-0.2,0.3-0.3,0.5s-0.2,0.3-0.3,0.3
	c0,0.1,0,0.2-0.1,0.2l-0.1,0.1c-0.1,0.2-0.2,0.4-0.3,0.6s-0.2,0.3-0.3,0.5s-0.2,0.4-0.4,0.6c-0.1,0.2-0.2,0.4-0.3,0.6
	c0,0.1,0,0.3,0,0.4c-0.1,0.1-0.1,0.3-0.1,0.4c0,0.2,0,0.3-0.1,0.5c0,0.1,0,0.2,0,0.3c0,0.1,0,0.2,0,0.2v0.1v0.1c0,0,0,0.1,0.1,0.1
	c0,0.1,0,0.1,0.1,0.2V19c0,0.1,0.1,0.2,0.2,0.4c0.1,0.1,0.2,0.3,0.3,0.3c0.2,0.1,0.4,0.1,0.5,0.1c0.2,0,0.3-0.1,0.5-0.1
	s0.4-0.1,0.6-0.1c0.2,0,0.3-0.1,0.5-0.2c0.1-0.2,0.3-0.3,0.5-0.4s0.3-0.3,0.4-0.4l0,0l0,0c0,0,0,0,0.1,0l0.1-0.1l0.1-0.1
	c0.1-0.1,0.2-0.3,0.2-0.4c0-0.2,0.1-0.3,0.2-0.5c0.1-0.2,0.2-0.3,0.3-0.5c0.1-0.1,0.2-0.3,0.2-0.4c0.1-0.2,0.1-0.3,0.2-0.5
	S109.7,15.7,109.7,15.6z M109,11c-0.2,0-0.3,0.1-0.3,0.3c-0.1,0.1-0.1,0.3,0,0.4c0.1,0.2,0.2,0.3,0.4,0.5c0.1,0.2,0.3,0.3,0.5,0.3
	c0,0,0.1,0,0.2,0.1c0.1,0,0.1,0,0.1,0v-0.1c0-0.1-0.1-0.2-0.1-0.3c-0.1-0.1-0.1-0.1-0.2-0.2c0-0.1-0.1-0.2-0.1-0.2
	c0-0.1,0-0.1-0.1-0.2l-0.2-0.2c0-0.1,0-0.2,0-0.3C109.2,11.1,109.1,11.1,109,11z M111.1,14L111.1,14c-0.1,0-0.1,0-0.1,0
	c0,0.3-0.1,0.6-0.1,0.8c-0.1,0.2-0.1,0.5-0.1,0.7L111.1,14z M115,9.7h0.2c0.1,0,0.2,0,0.3,0h0.1h0.1c0,0,0.1,0,0.1,0.1
	c0.1,0.1,0.2,0.2,0.3,0.3c0,0.1,0.1,0.2,0.1,0.3l0.1,0.1c0,0.1,0,0.1,0.1,0.2v0.1v0.1c0,0,0,0.1,0.1,0.1c0,0,0,0.1,0,0.2
	c0,0.1,0,0.3,0,0.5v0.4v0.2c0,0.2,0,0.3,0,0.5s0,0.3,0,0.5v0.1v0.1c0,0.1,0,0.2,0,0.2c0,0.1,0,0.1,0,0.2c0.1-0.1,0.1-0.2,0.2-0.2
	c0-0.1,0.1-0.2,0.2-0.2c0.1-0.1,0.1-0.2,0.2-0.2c0.1-0.1,0.1-0.1,0.2-0.2c0.1-0.1,0.1-0.2,0.2-0.2c0-0.1,0.1-0.2,0.2-0.3
	c0-0.1,0.1-0.2,0.3-0.3h0.1c0,0,0,0,0.1,0l0.1-0.1c0.2-0.2,0.4-0.4,0.6-0.6c0.2-0.2,0.4-0.4,0.6-0.6l0.1-0.1c0,0,0.1,0,0.1-0.1
	l0.1-0.1c0,0,0.1,0,0.1-0.1c0.2-0.1,0.3-0.2,0.6-0.3c0.2-0.1,0.4-0.2,0.7-0.2s0.5,0,0.7,0.2c0.2,0.1,0.3,0.2,0.3,0.4v0.1
	c0,0.1,0,0.1,0,0.2c0,0.1,0,0.1,0,0.1s0,0.1,0.1,0.1l0.1,0.1c0,0.1,0,0.2-0.1,0.2v0.3c0,0.5-0.1,0.9-0.2,1.3v0.1v0.1l-0.1,0.1v0.1
	v0.1v0.1l0,0l0,0v0.1v0.1V14v0.1c0,0.1-0.1,0.2-0.2,0.4c-0.1,0.1-0.1,0.3-0.2,0.4c-0.1,0.1-0.1,0.3-0.2,0.5
	c-0.1,0.3-0.2,0.6-0.3,0.9s-0.2,0.6-0.4,0.9l0,0c-0.1,0.1-0.1,0.2-0.1,0.3c0,0.1,0,0.1,0,0.2s0,0.1,0,0.2l-0.1,0.1
	c0,0.1-0.1,0.2-0.1,0.4c0,0.2,0,0.3,0,0.5c0,0.1,0,0.1,0,0.2s0,0.1,0,0.2c0,0.2,0.1,0.3,0.2,0.3c0.1,0.1,0.2,0.1,0.2,0.2
	c0.3,0,0.6,0,0.8-0.1s0.5-0.2,0.7-0.3c0.1-0.1,0.2-0.1,0.2-0.1h0.1c0,0,0.1,0,0.1-0.1s0.1-0.1,0.2-0.2c0.1,0,0.2-0.1,0.2-0.1
	c0-0.1,0.1-0.1,0.2-0.2c0,0,0,0,0.1,0.1c0.1-0.1,0.2-0.1,0.4-0.2c0.1,0,0.2-0.1,0.3-0.2c0.1,0,0.1-0.1,0.2-0.1c0,0,0.1-0.1,0.2-0.1
	c0,0,0-0.1,0.1-0.1s0.1,0,0.1,0s0.1,0,0.1-0.1c0,0,0,0,0.1-0.1h0.1c0,0,0,0,0.1,0s0.1-0.1,0.2-0.1c0.1,0,0.1-0.1,0.2-0.1h0.1h0.1
	c0,0,0,0,0.1,0l0,0l0,0c0,0.1,0,0.2-0.1,0.2c0,0-0.1,0.1-0.1,0.2c-0.1,0.1-0.2,0.1-0.3,0.2s-0.2,0.2-0.2,0.3l0,0l0,0l0,0l0,0
	c-0.1,0.1-0.2,0.2-0.4,0.3c0,0,0,0,0,0.1c0,0,0,0,0,0.1l-0.1,0.1c0,0-0.1,0-0.1,0.1c-0.1,0.1-0.2,0.1-0.3,0.2s-0.2,0.1-0.2,0.2
	c0.3-0.1,0.5-0.3,0.8-0.5c0.2-0.2,0.5-0.4,0.7-0.6l-0.1,0.1l-0.1,0.1c-0.2,0.2-0.4,0.3-0.6,0.4c-0.2,0.1-0.4,0.3-0.6,0.5
	c-0.1,0-0.1,0.1-0.2,0.1c-0.1,0.1-0.1,0.1-0.2,0.1c-0.1,0-0.1,0.1-0.1,0.1c-0.2,0.2-0.3,0.3-0.3,0.4s-0.2,0.1-0.4,0.3
	c-0.1,0-0.2,0.1-0.2,0.2l-0.1,0.1l0,0l0,0l0,0l0,0h-0.1c0,0-0.1,0-0.2,0.1c-0.1,0-0.3,0.1-0.4,0.1c-0.1,0-0.3,0.1-0.4,0.1
	c-0.2,0.1-0.4,0.1-0.6,0.1c-0.1,0-0.2,0-0.3,0s-0.2,0-0.3,0c-0.3-0.2-0.6-0.4-0.8-0.5c0,0,0-0.1-0.1-0.1c0-0.1,0-0.1,0-0.1
	s0-0.1,0-0.2s0-0.1,0-0.2s-0.1-0.2-0.1-0.3c0-0.1,0-0.2,0-0.3c0-0.3,0.1-0.6,0.2-0.9c0.1-0.3,0.2-0.5,0.3-0.8l0.1-0.6
	c0-0.2,0.1-0.4,0.2-0.6c0.1-0.2,0.1-0.4,0.2-0.5c0.1-0.3,0.3-0.7,0.4-1c0.1-0.3,0.3-0.7,0.4-1c0.1-0.2,0.1-0.4,0.1-0.6
	c0-0.2,0.1-0.4,0.2-0.6c0.1-0.2,0.1-0.4,0.2-0.6c0.1-0.2,0.1-0.3,0.2-0.5c-0.1,0.1-0.3,0.1-0.4,0.2c-0.1,0.1-0.3,0.1-0.4,0.1
	c-0.1,0.1-0.2,0.2-0.3,0.4c-0.1,0.1-0.2,0.2-0.3,0.3s-0.1,0.1-0.2,0.2c-0.1,0.1-0.1,0.1-0.2,0.2c-0.1,0.1-0.2,0.2-0.4,0.3
	c-0.1,0.1-0.2,0.2-0.3,0.4s-0.2,0.3-0.3,0.4c-0.1,0.1-0.2,0.3-0.3,0.4c-0.1,0.1-0.2,0.3-0.3,0.4c-0.1,0-0.1,0.1-0.1,0.1
	c0,0.1-0.1,0.1-0.1,0.2l0,0c-0.2,0.2-0.3,0.5-0.5,0.7s-0.3,0.4-0.5,0.7l-0.1,0.1l0,0c0,0.2-0.1,0.3-0.2,0.5l-0.3,0.4l0,0
	c0,0,0,0,0,0.1c0,0,0,0,0,0.1c-0.1,0.1-0.2,0.3-0.2,0.4c-0.1,0.1-0.2,0.3-0.3,0.4c0,0.1,0,0.2,0,0.3l-0.1,0.1l-0.1,0.1v0.2
	c0,0,0,0.1-0.1,0.1c-0.2,0.3-0.3,0.5-0.4,0.8h-0.1H114v0.2l-0.1,0.1v0.2c0,0.1-0.1,0.1-0.1,0.1v-0.1c0,0,0,0,0-0.1c0,0,0,0,0,0.1
	v0.1l0,0l0,0c0,0.1,0,0.1,0,0.1s-0.1,0-0.1,0.1l0,0l0,0l-0.1,0.2v-0.1v-0.1c-0.1,0-0.1,0-0.1,0.1l0,0c0,0-0.1,0-0.1,0.1s0,0.1,0,0.2
	s0,0.2,0,0.2h-0.1c0,0,0,0-0.1,0l0,0l0,0c-0.1,0-0.1,0.1-0.2,0.1c0,0-0.1,0.1-0.2,0.1l0,0h-0.1h-0.1l-0.2-0.1l0,0l0,0l0,0l0,0
	c0,0,0,0,0,0.1c0,0,0,0,0,0.1c-0.1,0-0.2-0.1-0.2-0.2s-0.1-0.2-0.1-0.2c-0.1-0.2-0.1-0.4-0.1-0.6V21c0-0.2,0.1-0.5,0.1-0.7
	s0.1-0.5,0.1-0.7s0.1-0.4,0.1-0.7c0-0.2,0.1-0.4,0.1-0.7c0-0.2,0.1-0.3,0.1-0.5s0.1-0.3,0.1-0.5c0-0.1,0-0.2,0.1-0.4
	c0.1-0.7,0.3-1.3,0.4-1.9c0.1-0.6,0.3-1.3,0.5-1.9c0-0.1,0-0.2,0.1-0.3c0-0.1,0-0.2,0.1-0.3c0-0.1,0.1-0.2,0.1-0.4s0-0.2,0.1-0.3
	c0,0,0-0.1,0-0.2c0-0.1,0-0.1,0.1-0.2c0,0,0-0.1,0.1-0.1c0,0,0-0.1,0.1-0.1c0-0.1,0.1-0.2,0.1-0.3s0.1-0.2,0.1-0.3
	c0.1,0,0.2-0.1,0.3-0.1l0.1-0.1h0.1C115,10.3,114.9,9.7,115,9.7z M134.2,13.4L134.2,13.4c0.1,0,0.1,0,0.2,0c0.1,0,0.1,0,0.2,0
	c0,0.1-0.1,0.1-0.1,0.1s0,0.1,0.1,0c0.1,0,0.1,0,0.1,0c0.1,0,0.3,0,0.4,0c0.1,0,0.3-0.1,0.4-0.1h0.1c0,0,0,0,0,0.1c0,0-0.1,0-0.2,0
	l0.1,0.1l-0.1,0.1v0.1c-0.1,0.1-0.2,0.1-0.3,0.1s-0.2,0-0.2,0.1c0,0,0.1,0,0.2,0c0.1,0,0.1,0,0.2,0c-0.1,0-0.1,0.1-0.1,0.1l0,0l0,0
	c0,0,0,0-0.1,0s-0.2,0.1-0.2,0c0,0,0,0,0.1-0.1h0.1c0,0,0,0-0.2,0.1c-0.1,0-0.2,0.1-0.4,0.1c-0.1,0.1-0.2,0.1-0.3,0.2
	c0,0.1,0,0.1,0.1,0.1c0.2,0,0.2-0.1,0.3-0.1l0,0l0,0c0,0,0.1,0,0.3-0.1c0.1,0,0.1,0,0,0s-0.1,0-0.1,0h-0.1c0,0,0,0,0.1,0
	c0,0,0,0.1-0.1,0.1h-0.1c-0.1,0-0.1,0-0.2,0.1c0,0.1-0.1,0.3-0.5,0.5c-0.4,0.3-0.8,0.5-1.3,0.8s-1,0.5-1.5,0.8
	c-0.5,0.2-0.9,0.4-1.2,0.4c0,0.5,0.1,1.1,0.1,1.7s-0.1,1.2-0.2,1.7c0,0,0,0.1,0,0.2s-0.1,0.2-0.1,0.4c0,0.1-0.1,0.3-0.1,0.4
	c-0.1,0.1-0.1,0.2-0.2,0.3v-0.1l0,0c0,0-0.1,0.1-0.1,0.2s-0.1,0.1-0.1,0.1c0,0.1,0,0.2,0,0.2c-0.1,0-0.1,0.1-0.1,0.2
	s-0.1,0.2-0.1,0.3c0,0,0,0,0-0.1l0,0c-0.1,0-0.1,0.1-0.1,0.2s-0.1,0.1-0.1,0c0,0.1-0.1,0.1-0.1,0.2s-0.1,0.2-0.2,0.2
	c0,0.1,0,0.1,0,0.2l0,0v-0.1c0-0.1-0.1-0.1-0.1,0s-0.1,0.1-0.1,0.2h-0.1c0,0-0.1,0-0.1,0.1c-0.1,0.1-0.1,0.1-0.1,0.2
	s-0.1,0.1-0.1,0.2l0,0l0,0c0,0.1-0.1,0.2-0.1,0.2c-0.1,0-0.1,0.1-0.2,0.2c-0.1,0-0.1,0-0.2,0c-0.1,0-0.1,0.1-0.1,0.2h-0.1
	c0,0,0,0-0.1,0l-0.1,0.1c0,0-0.1,0.1-0.1,0.2c-0.2,0-0.3,0.1-0.3,0.2c-0.1,0-0.1,0-0.2,0.1c0,0,0,0,0-0.1s0,0-0.1,0
	c-0.1,0.1-0.2,0.2-0.4,0.2c0,0-0.1-0.1-0.1-0.2c-0.1,0-0.1,0-0.1,0.1h-0.1c0,0-0.1,0-0.1-0.1c0,0,0-0.1-0.1-0.1s-0.3,0.1-0.5,0.1
	c-0.2,0.1-0.4,0.1-0.5,0.1c0,0-0.1-0.1-0.1-0.2s0-0.1-0.1-0.1h0.1v-0.2c-0.1,0-0.2-0.1-0.3-0.1s-0.2-0.1-0.3-0.1
	c-0.3-0.1-0.5-0.3-0.7-0.7c-0.1,0-0.1-0.1-0.2-0.1c0,0-0.1-0.1-0.2-0.1c-0.1-0.1-0.2-0.2-0.2-0.3v-0.1c0,0-0.1,0-0.1-0.1v-0.1
	c0,0,0,0,0.1-0.1c0,0-0.1-0.1-0.1-0.2s0-0.1,0-0.2l0,0l0,0c0,0-0.1,0-0.1-0.1s0-0.1,0.1-0.1c0-0.2,0-0.4,0.1-0.6
	c0-0.2,0.1-0.4,0.2-0.6c0.1-0.2,0.1-0.4,0.2-0.6c0.1-0.2,0.2-0.3,0.3-0.3V20c0.6-0.8,1.3-1.4,2.1-1.9s1.6-1,2.4-1.5
	c0-0.2,0-0.4-0.1-0.5c0-0.1-0.1-0.3-0.1-0.4s-0.1-0.2-0.1-0.4c0-0.1-0.1-0.3-0.1-0.5c-0.1,0-0.1,0-0.1,0c0-0.1,0-0.2,0-0.3
	s0-0.2,0-0.4c0-0.1,0-0.2-0.1-0.3c0-0.1-0.1,0-0.1,0c-0.1,0.1-0.1,0.3-0.3,0.5c-0.1,0.2-0.2,0.3-0.3,0.3c0,0-0.1,0.1-0.1,0.2
	c-0.1,0.1-0.2,0.2-0.2,0.3c-0.1,0.1-0.2,0.2-0.3,0.3c-0.1,0.1-0.1,0.1-0.1,0.2c-0.1,0.1-0.2,0.2-0.3,0.3c-0.1,0.1-0.2,0.2-0.3,0.4
	c-0.2,0.1-0.3,0.3-0.4,0.3c-0.1,0.1-0.2,0.2-0.3,0.2c-0.1,0.1-0.1,0.1-0.1,0.1c0,0.1-0.1,0.2-0.2,0.3c-0.2,0.1-0.3,0.1-0.4,0.2
	c0,0-0.1,0-0.1,0.1c-0.1,0.1-0.1,0.1-0.2,0.2s-0.1,0.2-0.2,0.3c0,0-0.1,0-0.1-0.1c-0.1,0,0,0,0,0c0.1,0,0.1,0,0.1,0l0,0l0,0
	c0,0-0.1,0-0.1,0.1c-0.1,0.1-0.1,0.1-0.2,0.2v-0.1c0,0,0.1,0,0-0.1l0,0c0.1,0,0.1,0,0.1-0.1c0.1-0.1,0.1-0.1,0-0.1
	c0,0-0.1,0-0.1-0.1c0,0-0.1,0-0.1,0.1s0,0.1,0,0c-0.1,0-0.2,0-0.3,0s-0.2,0-0.2,0c0.1-0.2,0.2-0.3,0.5-0.5s0.5-0.4,0.6-0.6
	c0.1-0.1,0.2-0.2,0.2-0.3c0.1-0.1,0.2-0.1,0.3-0.2c0,0,0.1-0.1,0.1-0.2c0.1-0.1,0.2-0.2,0.3-0.3c0.1-0.1,0.2-0.2,0.3-0.3
	c0.1-0.1,0.1-0.1,0.1-0.2c0.1-0.2,0.2-0.3,0.3-0.4c0-0.1,0.1-0.2,0.2-0.3c0.2-0.2,0.3-0.3,0.4-0.4c0.1-0.1,0.1-0.2,0.2-0.3
	c0-0.1,0.1-0.2,0.2-0.3s0.2-0.2,0.3-0.4c0,0,0.1-0.1,0.2-0.2c0.1-0.1,0.2-0.2,0.3-0.3s0.2-0.2,0.3-0.4c0.1-0.1,0.1-0.2,0.2-0.3
	c0.1-0.1,0.1-0.2,0.1-0.4c-0.1-0.2-0.2-0.4-0.3-0.7c-0.1-0.2-0.3-0.5-0.4-0.7c-0.1-0.2-0.1-0.4-0.1-0.6c0-0.1,0.1-0.1,0.1-0.2
	c0-0.1,0-0.2,0.1-0.3c0-0.1,0.1-0.3,0.3-0.5c0.1,0,0.2-0.1,0.2-0.2s0.1-0.2,0.2-0.2c0.1,0,0.1,0,0.2,0c0.1,0,0.1,0.1,0.2,0.1h0.1
	l0,0l0.1,0.1l0.1,0.1c0.2-0.1,0.4-0.1,0.5,0.1c0,0.2,0,0.4,0,0.5s0.1,0.2,0.2,0.3c0,0.2,0,0.4,0.1,0.5c0,0.1,0,0.3,0,0.4
	c0,0.1,0,0.2,0,0.3s0,0.2,0,0.3s0,0.2,0,0.2s0,0.1,0,0.2c0,0.1,0,0.1,0.1,0.2c0.1,0.4,0.3,0.9,0.4,1.4c0.1,0.5,0.3,1,0.4,1.4
	c0,0.2,0.1,0.3,0.1,0.5s0.1,0.3,0.2,0.5c0.2,0,0.6-0.1,1.1-0.3s0.9-0.4,1.4-0.7s0.9-0.5,1.4-0.8c0.4-0.3,0.7-0.5,0.9-0.8
	c0,0,0,0.1-0.1,0.1C134.3,13.3,134.2,13.3,134.2,13.4z M122.3,23.6c0-0.1,0-0.1-0.1-0.1C122.2,23.5,122.2,23.6,122.3,23.6
	L122.3,23.6z M127.5,18.4L127.5,18.4L127.5,18.4c0-0.1,0-0.2,0-0.2c-0.1,0.1-0.2,0.1-0.3,0.2s-0.2,0.1-0.3,0.2v0.1
	c-0.2,0.1-0.3,0.2-0.4,0.2c-0.1,0.1-0.2,0.2-0.4,0.2c0,0,0,0-0.1,0s-0.2,0.1-0.3,0.2s-0.2,0.2-0.3,0.2c-0.2,0.1-0.3,0.3-0.5,0.4
	s-0.3,0.2-0.4,0.3c0,0,0,0-0.1,0.1h-0.1c-0.1,0.1-0.1,0.2-0.2,0.2c-0.1,0.1-0.1,0.1-0.2,0.2c-0.1,0.1-0.2,0.2-0.2,0.3
	c-0.1,0.1-0.1,0.2-0.2,0.3c-0.1,0.1-0.1,0.2-0.1,0.2v-0.1c0-0.1,0-0.1,0-0.1s0,0.1,0,0.2s0,0.2,0,0.3v-0.1l0,0c0,0.1,0,0.1,0,0.1
	s0,0,0,0.1s-0.1,0.3,0,0.4c0,0.2,0,0.3-0.1,0.5c0.1,0,0.2,0.1,0.2,0.1c0.1,0,0.1,0,0.2,0.1v-0.1c0,0.1,0,0.1,0.1,0.1h0.1v-0.1
	c0,0-0.1,0-0.1-0.1l0,0c0,0,0,0,0.1,0v0.1l0,0c0.1,0,0.1,0,0.2,0.1h0.1c0.1,0,0.1,0.1,0.3,0c0.1,0,0.2,0,0.3-0.1
	c0.3-0.1,0.6-0.3,0.8-0.5c0.3-0.2,0.5-0.4,0.7-0.6c0,0,0-0.1,0-0.2c0.1,0,0.1,0,0.2-0.1c0-0.1,0.1-0.1,0.1-0.2l0.1-0.2
	c0,0,0,0.1,0,0c0,0,0-0.1,0.1-0.3c0.2-0.4,0.3-0.8,0.4-1.2C127.3,19.4,127.4,19,127.5,18.4L127.5,18.4z"/>
</svg>
