<?xml version="1.0" encoding="utf-8"?>
<!-- Generator: Adobe Illustrator 19.2.1, SVG Export Plug-In . SVG Version: 6.00 Build 0)  -->
<svg version="1.1" id="Layer_1" xmlns="http://www.w3.org/2000/svg" xmlns:xlink="http://www.w3.org/1999/xlink" x="0px" y="0px"
	 viewBox="0 0 123.8 30.3" style="enable-background:new 0 0 123.8 30.3;" xml:space="preserve">
<style type="text/css">
	.st0{fill:#082432;}
	.st1{fill:none;}
</style>
<path class="st0" d="M116.9,21.2L116.9,21.2L116.9,21.2L116.9,21.2L116.9,21.2z M114.5,11.6c0.1-0.1,0.1-0.1,0.2-0.1
	c0.1,0,0.2,0.1,0.3,0.2c0.1,0.1,0.1,0.2,0.1,0.2s0,0.1-0.1,0.1c0,0.2-0.1,0.3-0.1,0.5s0,0.4-0.1,0.5c-0.2,0.1-0.5,0.1-0.8,0.1
	c-0.1,0-0.2,0-0.4-0.1c-0.1-0.1-0.1-0.1-0.1-0.1c0-0.1,0-0.1,0.1-0.2l0,0l0,0l0.1-0.1c0-0.1,0.1-0.2,0.1-0.2c0-0.1,0.1-0.1,0.1-0.2
	c0-0.1,0.1-0.2,0.2-0.4C114.4,11.7,114.5,11.7,114.5,11.6 M118,23.1h0.2c0.1,0,0.1-0.1,0.1-0.1l0,0l0,0c0.1,0,0.2,0,0.3-0.1
	s0.2-0.1,0.2-0.1c0.1,0,0.2-0.1,0.3-0.1c0.1-0.1,0.1-0.1,0.2-0.2l0.1-0.1c0,0,0.1,0,0.1-0.1c0.1-0.1,0.3-0.2,0.3-0.3
	s0.2-0.2,0.3-0.3c0-0.1,0.1-0.2,0.2-0.3c0.1-0.1,0.2-0.2,0.2-0.3c0.2-0.2,0.5-0.4,0.7-0.7c0.2-0.2,0.5-0.5,0.7-0.7
	c0.1-0.1,0.1-0.1,0.2-0.2c0.1-0.1,0.1-0.1,0.2-0.2c0,0,0,0,0-0.1c0,0,0,0,0-0.1c0.1-0.1,0.1-0.1,0.2-0.2c0.1-0.1,0.2-0.1,0.2-0.2
	s0.1-0.1,0.1-0.2c0.1-0.1,0.1-0.1,0.1-0.2l0.1-0.1v-0.1l0,0V18v-0.1l0,0v-0.1c0-0.1,0.1-0.2,0.1-0.2c-0.1-0.1-0.1-0.1-0.1-0.1
	s0,0,0-0.1v-0.1c0-0.1,0-0.1,0.1-0.2c0,0-0.1,0-0.1-0.1h-0.1h-0.1c-0.1,0-0.1,0-0.2,0.1c-0.1,0.1-0.1,0.1-0.2,0.2
	c-0.1,0.1-0.3,0.2-0.4,0.4c-0.1,0.1-0.3,0.2-0.4,0.4c-0.3,0.2-0.6,0.5-0.8,0.7c-0.3,0.2-0.5,0.5-0.8,0.7c0,0-0.1,0-0.1,0.1
	c0,0,0,0-0.1,0.1h-0.1c0,0,0,0-0.1,0c-0.2,0.1-0.4,0.3-0.6,0.4c-0.2,0.2-0.4,0.3-0.6,0.4c0,0-0.1,0.1-0.2,0.1s-0.1,0.1-0.2,0.1
	c-0.1,0-0.1,0-0.1-0.1s0-0.1,0-0.2v-0.1l0,0l0.1-0.1v-0.1V20c0-0.1,0-0.2,0.1-0.4c0-0.1,0-0.3,0-0.4v-0.1c0,0,0,0,0-0.1l0,0l0,0
	v-0.1c0,0,0,0,0-0.1c0,0,0,0,0-0.1v-0.2c0-0.2,0.1-0.3,0.1-0.5s0.1-0.3,0.1-0.5c0-0.1,0-0.1,0-0.2v-0.1l0,0v-0.1
	c0-0.1,0.1-0.1,0.1-0.2v-0.1v-0.1v-0.1v-0.1c0-0.1,0.1-0.2,0.1-0.2v-0.1v-0.1l0.1-0.1c0.1-0.2,0.2-0.4,0.3-0.6s0.2-0.4,0.3-0.6
	l0.1-0.1v-0.1c0,0,0,0,0-0.1s0.1-0.2,0.1-0.2c0-0.1,0.1-0.1,0.1-0.2l0,0l0,0c0,0,0,0,0.1-0.1l0.1-0.1c0,0,0-0.1,0.1-0.2
	c0,0,0-0.1,0.1-0.1s0,0,0.1-0.1c0-0.1,0.1-0.2,0.1-0.3v-0.1V13c0,0,0,0,0-0.1c0,0,0,0,0-0.1c0.1-0.2,0.1-0.4,0.1-0.6
	c0-0.2-0.1-0.4-0.2-0.5h-0.1l0,0l0,0c-0.2-0.2-0.3-0.4-0.5-0.5c0,0-0.1-0.1-0.2-0.2c-0.1,0-0.2,0-0.3,0s-0.2,0-0.3,0.1
	c-0.1,0-0.2,0.1-0.3,0.1s-0.2,0.1-0.3,0.1c-0.4,0.2-0.9,0.4-1.3,0.6c-0.4,0.2-0.9,0.4-1.3,0.6c-0.1,0-0.2,0.1-0.3,0.1
	s-0.2,0.1-0.3,0.1c0-0.1,0-0.2,0.1-0.3c0-0.1,0-0.2,0.1-0.3v-0.2c0-0.1,0.1-0.1,0.1-0.2c0-0.1,0-0.1,0.1-0.2v-0.1v-0.1
	c0,0,0.1-0.1,0.1-0.2l-0.1-0.1c0.1-0.1,0.1-0.3,0-0.4s-0.1-0.2-0.2-0.3c-0.1-0.1-0.2-0.1-0.3-0.2s-0.2-0.1-0.2-0.2h-0.1l0,0
	c0,0-0.1,0-0.1,0.1s0,0,0,0.1c-0.2,0-0.3,0.1-0.5,0.1s-0.3,0-0.5,0.1c-0.1,0-0.2,0-0.2,0c-0.1,0-0.1,0-0.2,0c-0.1,0-0.2,0.1-0.3,0.2
	s-0.2,0.1-0.3,0.2c-0.2,0.2-0.4,0.5-0.6,0.9c0,0.1-0.1,0.1-0.1,0.2c0,0-0.1,0.1-0.1,0.2c0,0.1,0,0.2-0.1,0.2c0,0.1,0,0.1,0,0.2v0.1
	c0,0.1,0,0.1,0,0.1l0,0c0,0,0,0,0,0.1s0,0.2,0,0.4c0,0.1,0,0.2,0.1,0.3l0.1,0.1l0.1,0.1c0,0,0,0.1,0.1,0.1l0.1,0.1
	c0.3,0.2,0.7,0.4,1.2,0.4c-0.1,0.2-0.1,0.3-0.2,0.4c-0.1,0.2-0.2,0.4-0.3,0.5s-0.2,0.4-0.3,0.5s-0.1,0.2-0.2,0.4
	c-0.1,0.1-0.1,0.3-0.2,0.4c0,0.1-0.1,0.1-0.1,0.2s-0.1,0.1-0.1,0.2c0,0-0.1,0.1-0.1,0.2c0,0,0,0.1-0.1,0.1c0,0,0,0-0.1,0.1v0.1v0.1
	c0,0.1-0.1,0.1-0.1,0.2s-0.1,0.1-0.1,0.2s-0.1,0.2-0.1,0.3s-0.1,0.2-0.1,0.2v0.1c0,0,0,0.1-0.1,0.1c0,0-0.1,0-0.1,0.1l0,0h0.1l0,0
	c0,0,0,0,0.1,0c0,0.1,0,0.2,0.1,0.4c0.1,0.1,0.2,0.2,0.3,0.1c0.1,0,0.1,0,0.1-0.1c0.1,0,0.2-0.1,0.4-0.2c0.1,0,0.1-0.1,0.2-0.1
	s0.1-0.1,0.2-0.1c0.1-0.1,0.2-0.1,0.2-0.2c0.1-0.1,0.1-0.1,0.2-0.2c0-0.1,0.1-0.1,0.1-0.2l0.1-0.1c0.1-0.1,0.1-0.2,0.2-0.4
	c0,0,0,0,0-0.1c0,0,0,0,0-0.1c0,0,0.1,0,0.1-0.1h0.1c0-0.1,0-0.1,0-0.1s0.1-0.1,0.2-0.2c-0.1,0.1-0.1,0.1-0.1,0.2
	c0.1-0.3,0.2-0.5,0.4-0.8v-0.1c0,0,0-0.1,0.1-0.1L114,16l0.1-0.1c0-0.1,0-0.2,0-0.2s0-0.1,0.1-0.1v-0.1c0,0,0,0,0-0.1
	c0,0,0.1-0.1,0.1-0.2s0-0.1,0-0.2s0-0.1,0.1-0.2c0-0.1,0.1-0.1,0.1-0.1c0.1-0.2,0.2-0.3,0.2-0.3c0.5-0.2,0.9-0.3,1.3-0.5
	c0.4-0.2,0.9-0.3,1.3-0.4c0,0.1,0,0.2-0.1,0.3c-0.1,0.2-0.1,0.3-0.2,0.4c-0.1,0.1-0.1,0.3-0.2,0.4c0,0.1-0.1,0.2-0.1,0.3
	c-0.1,0.1-0.1,0.2-0.1,0.3c0,0.1-0.1,0.2-0.1,0.2c0,0.1-0.1,0.2-0.1,0.2c0,0.1,0,0.1,0,0.2l-0.1,0.1V16v0.1v0.1l-0.1,0.2
	c0,0.1-0.1,0.1-0.1,0.2c0,0,0,0.1-0.1,0.2c0,0.1-0.1,0.2-0.1,0.4c0,0.1-0.1,0.3-0.1,0.4s-0.1,0.3-0.1,0.4s0,0.3,0,0.4l-0.1,0.9
	c0,0.1,0,0.1-0.1,0.2s0,0.1,0,0.2c0,0.2-0.1,0.4,0,0.7c0,0.2,0.1,0.4,0.1,0.6c0.1,0.4,0.2,0.7,0.4,1l0.1,0.1c0,0.1,0.1,0.1,0.1,0.1
	l0.1,0.1c0,0,0.1,0,0.1,0.1c0,0,0.1,0.1,0.1,0.2s0.1,0.1,0.1,0.2s0.1,0.2,0.2,0.3C117.7,23.1,117.8,23.1,118,23.1L118,23.1z
	 M109.7,13.4c0,0.1,0,0.2,0.1,0.3c0,0.1,0.1,0.2,0.1,0.3s0.1,0.1,0.1,0.1c0,0.1-0.1,0.2-0.1,0.3c-0.1,0.1-0.1,0.2-0.2,0.3
	c0,0.1,0,0.1-0.1,0.1s-0.1,0.1-0.2,0.2c-0.1,0.1-0.1,0.1-0.1,0.2s-0.1,0.1-0.1,0.2c-0.1,0.1-0.2,0.2-0.3,0.3
	c-0.1,0.1-0.2,0.2-0.3,0.2c-0.2,0.2-0.3,0.4-0.5,0.6s-0.3,0.3-0.5,0.4c-0.3,0.3-0.6,0.6-0.9,0.9c0-0.1,0.1-0.2,0.2-0.3
	c0.1-0.1,0.2-0.4,0.4-0.9c0-0.1,0.1-0.3,0.2-0.4s0.1-0.3,0.2-0.4c0.3-0.2,0.4-0.4,0.6-0.6c0.1-0.3,0.3-0.5,0.5-0.8
	c0,0,0-0.1,0.1-0.1s0.1-0.1,0.1-0.1c0.1-0.1,0.3-0.3,0.4-0.4s0.3-0.2,0.6-0.3h-0.1C109.6,13.3,109.6,13.3,109.7,13.4 M107.5,18.2
	C107.5,18.1,107.5,18.1,107.5,18.2c0.1,0,0.2-0.1,0.3-0.2s0.2-0.2,0.3-0.2h0.1c0.1,0,0.2-0.1,0.2-0.1s0.1-0.1,0.2-0.1
	c0,0,0.1,0,0.1,0.1c0.1,0,0.2-0.1,0.2-0.2s0.1-0.2,0.2-0.2c0.1,0,0.1-0.1,0.2-0.1c0.1-0.1,0.1-0.1,0.2-0.2c0.1,0,0.2,0,0.2,0
	s0.1-0.1,0.2-0.2c0.1-0.1,0.3-0.3,0.4-0.4c0.2-0.2,0.3-0.3,0.4-0.5c0.1-0.2,0.2-0.3,0.2-0.4s0.1-0.2,0.2-0.4l0.1-0.2
	c0-0.1,0.1-0.2,0.1-0.4s0.1-0.3,0.1-0.5c0-0.1,0.1-0.1,0-0.2c0-0.1,0-0.1,0-0.2c0.1-0.1,0.1-0.3,0-0.5c0-0.1,0-0.2,0-0.4
	s-0.1-0.3-0.1-0.4c-0.1-0.1-0.2-0.2-0.3-0.4s-0.2-0.4-0.3-0.5c0-0.1,0.1-0.1,0-0.1s0,0,0-0.1c-0.1-0.1-0.2-0.2-0.3-0.3
	s-0.1-0.2-0.2-0.2c0,0-0.1-0.1-0.2-0.1l-0.1-0.1c-0.1,0-0.3,0-0.4-0.1c-0.1,0-0.2,0-0.4,0s-0.3,0-0.4,0.1c0,0.1-0.1,0.1-0.2,0.2
	c-0.1,0-0.2,0.1-0.3,0.1v0.1c-0.2,0.1-0.3,0.2-0.4,0.3c-0.1,0.1-0.2,0.3-0.4,0.4c-0.2,0.2-0.3,0.4-0.4,0.6c-0.1,0.2-0.2,0.5-0.3,0.8
	c-0.5,0.6-0.9,1.2-1.3,1.9c-0.4,0.6-0.8,1.3-1.1,2.1c-0.1,0.1-0.2,0.2-0.2,0.3c-0.1,0.1-0.1,0.3-0.2,0.4c-0.1,0.3-0.2,0.6-0.3,0.9
	s-0.1,0.6-0.2,0.9c0,0.2,0,0.4,0,0.5s0,0.2,0,0.2c0,0.1,0,0.1,0,0.2s0,0.2,0,0.4c0.1,0.3,0.2,0.5,0.3,0.7s0.3,0.4,0.5,0.6v0.1
	c0,0,0,0,0,0.1h0.1h0.1v0.1c0,0,0,0,0,0.1c0.1,0,0.3,0,0.4,0s0.2,0.1,0.3,0.1c0.2,0.1,0.4,0,0.5,0c0.1-0.1,0.3-0.1,0.5-0.1h0.2
	c0.1,0,0.1,0,0.2-0.1c0.1,0,0.1-0.1,0.2,0c0,0,0.1,0,0.2,0c0.1-0.1,0.3-0.1,0.4-0.2s0.2-0.1,0.4-0.1c0.3-0.1,0.6-0.2,0.8-0.3
	s0.5-0.2,0.8-0.4c0.1,0,0.2-0.1,0.4-0.3c0.2-0.1,0.4-0.3,0.6-0.4c0.2-0.2,0.4-0.3,0.6-0.4c0.2-0.1,0.4-0.2,0.4-0.3
	c0.2-0.2,0.4-0.4,0.6-0.5c0.2-0.1,0.3-0.3,0.5-0.6c0.1-0.1,0.1-0.1,0.2-0.1c0.1,0,0.1-0.1,0.2-0.2c0.2-0.2,0.3-0.4,0.5-0.6
	s0.3-0.4,0.5-0.6c0-0.1,0-0.1-0.1-0.1v-0.1c0,0,0,0,0-0.1c0,0-0.1,0,0-0.1c-0.1,0-0.1,0.1,0,0.1s0.1,0,0-0.1c-0.1,0-0.2,0-0.3,0
	v-0.1c-0.1-0.1-0.1-0.1-0.1,0c-0.2,0.2-0.3,0.3-0.5,0.4c-0.1,0.1-0.3,0.2-0.5,0.3l-0.8,0.6c0,0-0.1,0.1-0.3,0.3
	c-0.2,0.1-0.4,0.3-0.6,0.4c-0.2,0.1-0.4,0.3-0.6,0.4c-0.2,0.1-0.3,0.2-0.4,0.2c-0.4,0.2-0.8,0.3-1.2,0.5c-0.3,0.2-0.8,0.3-1.2,0.5
	c-0.2,0-0.4,0.1-0.6,0.2c-0.2,0.1-0.4,0.1-0.6,0.2c-0.1,0-0.2,0-0.2,0c-0.1,0-0.1,0-0.2,0c-0.1,0-0.2-0.1-0.3-0.1s-0.2-0.1-0.2-0.2
	c0-0.2,0-0.3,0-0.3s0.1-0.1,0.1-0.3c0.1-0.2,0.1-0.4,0.2-0.5c0.1-0.1,0.1-0.3,0.2-0.5c0.1-0.1,0.2-0.2,0.2-0.4
	c0-0.2,0.1-0.3,0.3-0.3h0.1h0.1l0,0l0,0c0.1,0.1,0.1,0.1,0.2,0l0.1-0.1c0.1,0,0.2,0,0.3,0.1L107.5,18.2z M99,18.8L99,18.8
	c-0.4,0.6-0.7,1.1-1.1,1.6c-0.4,0.5-0.8,0.9-1.3,1.2c-0.2,0-0.4,0-0.6,0c-0.2,0-0.3-0.1-0.4-0.2c0-0.1,0-0.2,0-0.3s0-0.2,0-0.3
	c0.1-0.1,0.1-0.3,0.2-0.4c0-0.2,0.1-0.3,0.2-0.4c0.1-0.1,0.1-0.1,0.2-0.3s0.1-0.2,0.2-0.3c0.1-0.1,0.2-0.2,0.4-0.2s0.3-0.1,0.5-0.1
	s0.5-0.1,0.8-0.2C98.4,18.9,98.7,18.8,99,18.8L99,18.8z M99.4,22.5c-0.1,0-0.1,0-0.1-0.1L99.4,22.5 M99.9,17.2
	c-0.1,0.2-0.2,0.5-0.4,0.7c-0.2,0-0.3,0.1-0.5,0.1c-0.2,0.1-0.4,0.1-0.5,0.1c0,0-0.1-0.1-0.2-0.1c0,0-0.1,0-0.2,0C98,18,98,18,98,18
	s0-0.1-0.1,0h-0.1h-0.1c0,0,0,0-0.1,0s-0.2,0-0.4-0.1s-0.2-0.1-0.3,0c-0.1,0-0.3,0-0.4,0c-0.1,0.1-0.2,0.1-0.3,0
	c0-0.2,0-0.4,0.1-0.6s0.1-0.4,0.1-0.6c0-0.1,0.1-0.2,0-0.3c0-0.1,0-0.2,0-0.4c0-0.1,0-0.2,0-0.3c0,0,0.1-0.1,0.1-0.2
	c0.3-0.4,0.6-0.8,0.8-1.2s0.6-0.7,1-1h0.1c0.3-0.2,0.6-0.4,0.9-0.5c0.3-0.1,0.7-0.2,1-0.3c0,0,0,0.1,0,0c0,0,0,0-0.1,0
	s-0.2,0.1-0.3,0.1s-0.2,0.1-0.2,0.1c0.1,0,0.3,0,0.4-0.1c0.1,0,0.2-0.1,0.4-0.1c0,0,0-0.1,0,0l0,0l0.1-0.1c0.1,0,0.1,0,0.1,0.1h-0.1
	h-0.1c0.1,0,0.2,0,0.2,0c0.1,0,0.1,0,0.2,0c0.1,0.3,0.1,0.6,0,1c-0.1,0.3-0.2,0.6-0.3,0.9c-0.1,0.2-0.2,0.4-0.2,0.6
	s-0.1,0.4-0.2,0.6c0,0.1-0.1,0.2-0.1,0.3c-0.1,0.1-0.1,0.2-0.1,0.3C100.1,16.7,100,17,99.9,17.2 M99.6,22.1
	C99.6,22,99.6,22,99.6,22.1c0-0.1,0.1-0.1,0.1-0.2C99.8,22,99.7,22.1,99.6,22.1 M99.7,22.1L99.7,22.1L99.7,22.1
	c0.1-0.1,0.1-0.1,0.2-0.1l0.1-0.1c0,0,0-0.1,0,0l0,0c0,0,0.1,0,0.1-0.1c0,0,0-0.1,0.1-0.1l0,0l0,0l0,0l0,0c0.2-0.3,0.4-0.5,0.5-0.8
	c0.2-0.2,0.4-0.5,0.5-0.8V20l0.1-0.1c0-0.1,0-0.1,0-0.1l0,0l0,0c0.1-0.2,0.1-0.3,0.2-0.4c0.1-0.1,0.1-0.3,0.2-0.4
	c0,0,0.1-0.1,0.1-0.2s0-0.2,0.1-0.2l0,0c0,0,0,0-0.1,0c0-0.1,0.1-0.1,0.1-0.1l0.1-0.1h0.1c0-0.1,0.1-0.1,0.2-0.1
	c0.2-0.1,0.4-0.1,0.7-0.2s0.4-0.1,0.7-0.2c0.2,0,0.4-0.1,0.7-0.1c0.3-0.1,0.5-0.1,0.6-0.2c0.1,0,0.3-0.1,0.6-0.2
	c0.2-0.2,0.3-0.3,0.5-0.5s0.4-0.3,0.6-0.4v-0.2c0,0-0.1,0-0.1-0.1c0,0,0,0-0.1-0.1c0,0,0,0-0.1,0c-0.1-0.1-0.3-0.1-0.4,0
	s-0.2,0.1-0.3,0.1c-0.4,0.1-0.8,0.2-1,0.2c-0.2,0.1-0.4,0.1-0.6,0.2s-0.4,0.1-0.6,0.2c-0.2,0.1-0.5,0.1-0.9,0.2c0-0.1,0-0.1,0-0.1
	s0,0,0-0.1c0,0-0.1,0-0.1,0.1s0,0.1-0.1,0.1c0-0.4,0.1-0.7,0.2-1c0.1-0.3,0.2-0.7,0.2-1l0,0l0,0v-0.1v-0.1l0,0c0-0.1,0-0.1,0.1-0.1
	v-0.1c0,0,0,0,0-0.1c0,0,0.1,0,0,0v-0.1c0,0,0-0.1,0,0l0,0c0,0,0,0,0.1-0.1v-0.1v0.1c0-0.2,0-0.3,0.1-0.6c0-0.2,0-0.4,0-0.5l0,0
	v-0.1c0,0,0-0.1-0.1-0.1c0-0.1,0-0.2,0-0.3s0-0.2-0.1-0.3l-0.1-0.1v-0.1c0,0,0,0-0.1-0.1c0,0,0,0,0-0.1s0,0,0-0.1c0,0,0,0-0.1,0
	c0,0-0.1,0-0.1-0.1l-0.1-0.1l-0.1-0.1c0,0,0,0-0.1,0s-0.1,0-0.1,0c-0.2-0.1-0.5-0.2-0.9-0.2c-0.3,0-0.7,0-1,0.1
	c-0.1-0.1-0.1-0.1,0-0.2c-0.4,0.1-0.7,0.4-1,0.6s-0.6,0.5-0.8,0.8c-0.1,0.2-0.2,0.3-0.3,0.4s-0.2,0.2-0.4,0.4c0,0.1-0.1,0.2-0.1,0.2
	c0,0.1-0.1,0.1-0.2,0.2l-0.1-0.1c0.1-0.4,0.2-0.7,0.3-1.1c0.1-0.4,0.2-0.8,0.3-1.2c0-0.2,0.1-0.4,0-0.6c0-0.2,0-0.4-0.1-0.6
	c0-0.1,0-0.2,0-0.2c0-0.1,0-0.2-0.1-0.3c0-0.1-0.1-0.1-0.1-0.2c-0.1-0.1-0.2-0.2-0.3-0.4S97.1,9,96.9,9c0-0.1-0.1-0.1-0.1-0.1
	s-0.1-0.1-0.2-0.1c-0.2,0-0.5,0-0.8,0S95.3,9,95.2,9.2l0,0h-0.1C95,9.3,95,9.4,95,9.4c0,0.1-0.1,0.2-0.1,0.3c-0.1,0-0.1,0.1-0.1,0.2
	c0,0.1,0,0.1-0.1,0.2c0,0.1,0,0.1-0.1,0.2s0,0.1-0.1,0.1l-0.1,0.1v0.2c0,0.2-0.1,0.4-0.1,0.6c0,0.2-0.1,0.4-0.1,0.6
	c-0.1,0.5-0.1,0.9-0.1,1.4s-0.1,0.9-0.2,1.4c-0.1,0.8-0.3,1.5-0.5,2.2s-0.3,1.5-0.5,2.2c-0.1,0.5-0.2,1-0.4,1.5
	c-0.1,0.5-0.2,1-0.4,1.5c-0.1,0.4-0.2,0.8-0.3,1.1c-0.1,0.4-0.2,0.7-0.3,1.1c-0.2,0.7-0.3,1.4-0.4,2s-0.3,1.3-0.4,2
	c0,0.1-0.1,0.1-0.1,0.1s0,0.1-0.1,0.2c0,0.2-0.1,0.4-0.1,0.5s0,0.2,0,0.5l0.1,0.1c0,0,0.1-0.1,0-0.2c0-0.1,0-0.1,0-0.2
	c0,0.1,0,0.1,0,0.1s0,0,0,0.1s0,0.1,0,0.1l0,0c0,0,0,0,0-0.1c0,0.1,0,0.2,0.1,0.2v0.1v0.1c0-0.1,0-0.1,0-0.2s0-0.1,0-0.1
	s0.1,0.1,0.1,0.3c0,0.2,0,0.2,0.1,0.3l0.1-0.1V30l0,0l0,0c0-0.1,0-0.1,0.1-0.1c0,0,0.1,0,0.1-0.1c0,0,0,0,0,0.1c0,0,0,0,0.1,0
	c0-0.1,0-0.1,0.1,0s0.1,0.1,0.1,0s0.1-0.1,0.1-0.2s0-0.1,0.1-0.1c0.1-0.1,0.2-0.1,0.2,0s0.1,0.1,0.2,0.1s0.1,0.1,0.2,0.1
	c0.1,0,0.1,0,0.2-0.2c0,0,0,0,0-0.1c0,0,0,0,0.1-0.1c0.1-0.2,0.1-0.3,0.2-0.4c0.1-0.1,0.1-0.2,0.2-0.3s0.1-0.2,0.1-0.3
	c0-0.1,0.1-0.2,0.1-0.4h0.1c0,0,0,0,0.1-0.1v-0.1l0.1-0.1c0,0,0-0.1,0.1-0.1c0-0.2,0.1-0.3,0.1-0.4s0.1-0.2,0.1-0.4
	c0.1-0.5,0.3-1,0.4-1.5c0.2-0.5,0.3-1.1,0.3-1.6c0-0.1,0-0.2,0-0.2s0-0.1,0-0.2c0.1-0.1,0.1-0.3,0.1-0.4c0-0.2,0.1-0.3,0.2-0.4
	c0.1,0,0.2,0,0.2,0.1s0.1,0.1,0.1,0.1v0.1c0,0,0,0,0,0.1c0,0,0.1,0.1,0.1,0.3h0.1c0,0.1,0,0.1,0,0.1h0.1h0.1c0,0,0,0.1,0,0l0,0
	c0,0.1,0,0.1-0.1,0.1s-0.1,0-0.1,0.1c0.1,0,0.2,0.1,0.3,0.1c0.1,0.1,0.2,0.1,0.3,0.1c0,0.1,0,0.1-0.1,0.1c0.1,0,0.2,0,0.3,0
	s0.2,0,0.3,0c0.2,0,0.3,0,0.5-0.1s0.3-0.2,0.4-0.3h0.1c0,0,0,0,0-0.1s0,0,0.1,0s0.2,0,0.2-0.1c0.1-0.1,0.2-0.1,0.3-0.1l0.1,0.1
	c0.1-0.1,0.2-0.1,0.2-0.2c0.1,0,0.1-0.1,0.2-0.1c0-0.1,0-0.1,0.1-0.2h0.1c0.1-0.1,0.2-0.2,0.2-0.4c0.2,0,0.4-0.1,0.4-0.4l0,0l0,0
	C99.6,22.2,99.7,22.2,99.7,22.1 M91.5,16.4c0-0.2,0.1-0.4,0.1-0.7c0.1-0.2,0.1-0.5,0.1-0.8c0,0,0,0,0.1,0c0,0,0,0,0.1,0L91.5,16.4z
	 M90.4,16.9c0,0.2-0.1,0.3-0.2,0.5c-0.1,0.2-0.2,0.3-0.2,0.5c-0.1,0.1-0.2,0.3-0.3,0.4c-0.1,0.2-0.1,0.3-0.2,0.5
	c0,0.2-0.1,0.3-0.2,0.4l-0.1,0.1l-0.1,0.1H89l0,0l0,0c-0.1,0.2-0.2,0.3-0.4,0.4s-0.3,0.3-0.4,0.4c-0.2,0.1-0.4,0.2-0.5,0.2
	s-0.4,0.1-0.6,0.1c-0.2,0-0.3,0.1-0.5,0.1c-0.1,0-0.3,0-0.5-0.1c-0.1-0.1-0.2-0.2-0.3-0.3s-0.2-0.3-0.2-0.4v-0.1
	c0-0.1,0-0.1-0.1-0.2c0,0,0-0.1-0.1-0.1v-0.1v-0.1c0-0.1,0-0.2,0-0.2c0-0.1,0-0.2,0-0.3c0.1-0.2,0.1-0.3,0.1-0.5s0-0.3,0.1-0.4
	c0-0.1,0-0.2,0-0.4c0.1-0.2,0.1-0.4,0.3-0.6c0.1-0.2,0.2-0.4,0.4-0.6c0.1-0.1,0.2-0.3,0.3-0.5s0.2-0.4,0.3-0.6L87,15
	c0,0,0.1-0.1,0.1-0.2c0.2,0,0.3-0.1,0.3-0.3c0.1-0.2,0.2-0.3,0.3-0.5c0-0.1,0.1-0.1,0.2-0.2c0.1-0.1,0.1-0.1,0.1-0.2
	c0.1-0.1,0.1-0.2,0.1-0.3s0.1-0.2,0.1-0.3c0.1,0.1,0.2,0.2,0.3,0.4c0.1,0.1,0.2,0.2,0.3,0.3s0.2,0.2,0.3,0.2c0,0,0.1,0.1,0.2,0.1
	c0.1,0.1,0.2,0.2,0.3,0.3s0.2,0.1,0.3,0.1c0.1,0.1,0.2,0.1,0.4,0.2c0.2,0.1,0.3,0.1,0.5,0.1c0,0.2,0,0.3,0,0.4
	c-0.1,0.1-0.1,0.2-0.2,0.4c0,0.2-0.1,0.3-0.1,0.5s-0.1,0.3-0.1,0.4C90.4,16.6,90.4,16.8,90.4,16.9 M89.9,12.1c0,0.1,0,0.2,0,0.3
	l0.2,0.2c0,0,0.1,0.1,0.1,0.2s0,0.1,0.1,0.2c0,0.1,0.1,0.1,0.2,0.2c0.1,0.1,0.1,0.2,0.1,0.3v0.1h-0.1c-0.1,0-0.1,0-0.2-0.1
	c-0.2-0.1-0.3-0.2-0.5-0.3c-0.1-0.1-0.3-0.3-0.4-0.5c0-0.1,0-0.3,0-0.4c0.1-0.2,0.2-0.2,0.3-0.3C89.9,11.9,89.9,12,89.9,12.1
	 M95.9,12.7h-0.1c-0.1,0-0.1,0.1-0.2,0.1c-0.1,0-0.2,0.1-0.3,0c-0.1,0.1-0.3,0.2-0.5,0.3s-0.5,0.2-0.8,0.3c-0.1,0-0.2,0.1-0.4,0.1
	s-0.3,0-0.5,0s-0.4,0-0.5,0c-0.2,0-0.3,0-0.4,0c-0.1,0-0.1,0-0.1,0s-0.1,0-0.2,0l-0.1-0.1c0,0,0,0-0.1,0c0-0.1,0-0.2-0.1-0.3V13
	c0-0.1,0-0.1-0.1-0.2c0,0.1,0,0.2,0.1,0.3c0,0.1,0,0.2,0,0.3c-0.1,0-0.1,0-0.1-0.1s0-0.1,0-0.2c0-0.1-0.1-0.2-0.1-0.4
	c0-0.1-0.1-0.2-0.1-0.3c-0.1,0-0.2-0.1-0.2-0.3c0-0.1-0.1-0.2-0.1-0.3s-0.1-0.2-0.1-0.3s-0.1-0.2-0.1-0.3l-0.2-0.1
	c0,0,0.1-0.1,0-0.1v-0.1c-0.1,0-0.1,0-0.1,0h-0.1l0.1,0.1c0,0,0,0.1-0.1,0.1s-0.1,0-0.1,0h-0.1c0,0-0.1,0-0.1,0.1c0,0,0,0-0.1,0
	c-0.1-0.1-0.2-0.1-0.3-0.1s-0.2,0-0.3,0c-0.1,0.1-0.2,0.1-0.3,0.3c-0.1,0.1-0.2,0.1-0.4,0c0,0-0.1,0.1-0.1,0.2
	c0,0.1-0.1,0.1-0.1,0.1c0-0.2,0-0.3,0-0.4s-0.1-0.2-0.2-0.3c-0.1-0.1-0.3-0.2-0.5-0.3s-0.4-0.1-0.6,0l0,0h-0.1
	c-0.2,0.1-0.4,0.2-0.5,0.4s-0.3,0.3-0.5,0.4c-0.2,0.2-0.3,0.4-0.5,0.5c-0.1,0.2-0.3,0.4-0.4,0.6c-0.5,0.6-1,1.4-1.4,2.3
	s-0.7,1.9-0.7,2.9l0,0c0,0.1,0,0.2,0,0.3c0,0.1,0,0.2-0.1,0.3c0,0.2,0.1,0.3,0.1,0.5s0.1,0.3,0.1,0.5v0.2l0.1,0.1
	c0.1,0.4,0.3,0.7,0.4,1.2c0.1,0.4,0.3,0.7,0.7,0.9c0.2,0.2,0.4,0.4,0.6,0.6c0.2,0.2,0.5,0.3,0.8,0.4c0.2,0.1,0.3,0.1,0.5,0
	s0.3-0.1,0.4-0.1l0,0l0,0c0.3,0,0.5,0,0.7-0.2c0.2-0.1,0.4-0.2,0.7-0.3c0.1-0.1,0.2-0.2,0.4-0.3s0.3-0.2,0.4-0.3
	c0.1-0.2,0.2-0.2,0.2-0.3l0.1-0.1c0.1,0,0.1-0.1,0.1-0.1s0-0.1,0.1-0.2s0.1-0.1,0.1-0.2c0.1-0.1,0.1-0.2,0.1-0.3s0.1-0.2,0.1-0.3
	c0.1-0.2,0.2-0.3,0.3-0.5s0.2-0.3,0.3-0.5c0-0.1,0.1-0.2,0.1-0.4s0.1-0.3,0.1-0.4v0.1l0,0c0.1-0.1,0.1-0.2,0.1-0.2
	c0-0.1,0.1-0.1,0.1-0.2c0.1-0.2,0.2-0.4,0.2-0.5v-0.1c0,0,0,0,0-0.1c0-0.2,0.1-0.3,0.2-0.5c0.1-0.2,0.1-0.3,0.2-0.5
	c0,0.2,0,0.3-0.1,0.3c0,0.1-0.1,0.2-0.1,0.3c0.2-0.4,0.3-0.7,0.3-1s0.1-0.7,0.2-1.1c0.1,0,0.3,0,0.6,0s0.6-0.1,1-0.1
	c0.4-0.1,0.7-0.2,1.1-0.3c0.4-0.1,0.7-0.3,1-0.5c0,0,0-0.1,0.1-0.1s0.1-0.1,0.2-0.2c0.2-0.1,0.3-0.2,0.3-0.4c0-0.1,0-0.2,0-0.3
	C96,12.8,95.9,12.7,95.9,12.7 M79.1,16.2L79.1,16.2c-0.1-0.1-0.1-0.3,0-0.5c0-0.1,0-0.1,0-0.2v-0.1v-0.1c0-0.3,0.1-0.6,0.1-0.9
	s0.1-0.5,0.3-0.7c0-0.1-0.1-0.1-0.1-0.1v-0.2c0-0.1,0.1-0.2,0.1-0.3c0,0,0,0,0-0.1l0,0c0,0,0,0,0-0.1s0-0.2,0.1-0.4
	c0-0.1,0.1-0.3,0.1-0.5s0.1-0.3,0.1-0.5c0-0.3,0.1-0.5,0.1-0.8S80,10.2,80,9.9c0-0.2,0.1-0.4,0.2-0.8c0.1-0.4,0.2-0.8,0.3-1.2
	s0.2-0.8,0.3-1.2S81,6.1,81,6.1c0-0.1,0-0.2,0.1-0.2c0-0.1,0.1-0.1,0.1-0.1c0-0.2,0.1-0.3,0.1-0.5c0,0,0-0.1,0.1-0.1
	c0,0,0.1-0.1,0.1-0.2c0-0.1,0.1-0.2,0.1-0.4c0.1-0.1,0.1-0.3,0.1-0.5c0-0.1,0-0.2,0.1-0.3c0-0.1,0-0.2,0-0.2c0-0.1,0-0.2,0.1-0.2
	c0-0.2,0.1-0.3,0.2-0.5c0.1-0.1,0.1-0.3,0.2-0.5c0-0.1,0-0.1,0-0.1V2.2l0.1-0.1l0,0c0.1,0,0.1,0,0.1,0.1s0.1,0.1,0.1,0.2
	c0,0,0,0.1,0.1,0.1c0,0.2,0.1,0.4,0.1,0.7c0.1,0.2,0.1,0.5,0.1,0.8s0,0.6,0,0.9c0,0.2-0.1,0.4-0.1,0.8c-0.1,0.4-0.1,0.8-0.2,1.2
	c-0.1,0.4-0.1,0.8-0.2,1.2c-0.1,0.4-0.1,0.6-0.2,0.7c-0.1,0.4-0.2,0.7-0.3,1.1c-0.1,0.3-0.2,0.7-0.3,1L81.5,11c0,0.1,0,0.1-0.1,0.2
	c0,0.1,0,0.1-0.1,0.2c0,0.1-0.1,0.1-0.1,0.2c0,0.1,0,0.3-0.1,0.4s-0.1,0.3-0.2,0.4c0,0.1,0,0.1,0,0.1v0.1c0,0,0,0-0.1,0v0.1
	c-0.1,0.3-0.2,0.6-0.4,0.9c-0.1,0.3-0.3,0.6-0.4,0.9l-0.1,0.1c0,0,0,0.1-0.1,0.1l-0.1,0.1c0,0,0,0.1-0.1,0.1
	c-0.1,0.2-0.2,0.4-0.3,0.5S79.1,15.8,79,16C79.2,16.1,79.2,16.2,79.1,16.2C79.2,16.2,79.2,16.2,79.1,16.2 M82.1,0.7L82,0.8h-0.1
	c0,0.1,0,0.1,0,0.1h-0.1c-0.1,0-0.2,0.1-0.3,0.1h-0.1h-0.1c0,0-0.1,0-0.1,0.1c0,0,0,0-0.1,0c-0.3,0.3-0.6,0.5-0.8,0.9
	c-0.2,0.3-0.4,0.7-0.6,1c0,0.1,0,0.1,0,0.1s-0.1,0.1-0.1,0.2c-0.3,0.5-0.5,1.1-0.8,1.6s-0.4,1.2-0.6,1.9l0.1,0.1V7
	c-0.1,0-0.1,0.1-0.1,0.2c0,0.1-0.1,0.1-0.1,0.2c0,0.1,0,0.1,0,0.2c0,0.2-0.1,0.3-0.1,0.5c-0.1,0.4-0.2,0.8-0.3,1.1
	c-0.1,0.4-0.2,0.8-0.3,1.2c-0.1,0.2-0.1,0.5-0.1,0.8s-0.1,0.5-0.1,0.9c0,0.1,0,0.1,0,0.2v0.1v0.1c0,0.1,0,0.1,0,0.2
	c0,0.1-0.1,0.1-0.1,0.1c-0.1,0.4-0.2,0.8-0.2,1.2c-0.1,0.4-0.1,0.8-0.2,1.2c0,0,0,0,0,0.1l0,0l0,0l0,0c0,0.1-0.1,0.2-0.1,0.3
	c0,0.4,0,0.8,0,1.2c0,0.4-0.1,0.7-0.2,1.1l0,0c0,0.4,0,0.7,0,1.1c0.1,0.4,0.1,0.8,0.1,1.2c0,0.1,0,0.2,0,0.3c0,0.2,0,0.3,0.1,0.5
	c0,0.2,0.1,0.3,0.1,0.5c0.1,0.2,0.2,0.4,0.2,0.5s0.1,0.2,0.2,0.3c0.1,0.2,0.2,0.2,0.2,0.2c0.1,0,0.1,0.1,0.1,0.2
	c0.1,0,0.1,0,0.2,0.1c0.1,0.1,0.1,0.1,0.1,0.1c0.1,0,0.3,0,0.4,0c0.1,0,0.2,0,0.3,0.1l0,0c0.1,0,0.2,0,0.2,0h0.1
	c0.1,0,0.2,0,0.2-0.1c0.1,0,0.1,0,0.2-0.1c0.1,0,0.2-0.1,0.2-0.1h0.1c0,0,0,0,0.1,0s0.2,0,0.3,0s0.2,0,0.3,0c0,0,0.1,0,0.1-0.1
	c0,0,0.1,0,0.1-0.1c0.1,0,0.2-0.1,0.2-0.1s0.1-0.1,0.2-0.2c0,0,0.1-0.1,0.2-0.2c0.1-0.1,0.2-0.2,0.3-0.3s0.2-0.2,0.3-0.3
	c0.1-0.1,0.1-0.1,0.2-0.2c0,0,0.1,0,0.1-0.1c0,0,0.1,0,0.1-0.1s0.1-0.2,0.2-0.2c0.1,0,0.2-0.1,0.2-0.2c0.1,0,0.1-0.1,0.2-0.2
	c0.1-0.1,0.2-0.2,0.2-0.3c0.1-0.1,0.1-0.2,0.2-0.3c0.1-0.1,0.1-0.1,0.1-0.1v-0.1c0,0,0.1-0.1,0.1-0.2s0.1-0.1,0.1-0.2
	c0,0,0-0.1,0.1-0.1c0,0,0,0,0.1-0.1c0,0,0,0,0-0.1c0,0,0.1-0.1,0-0.1s0,0,0,0s0-0.1-0.1-0.1c0-0.1,0-0.1,0-0.1l0,0l0,0
	c0-0.1,0.1-0.1,0.1-0.2s0.1-0.1,0.1-0.2c0,0,0.1,0,0.1-0.1V18l0,0l0,0l0,0c0.1-0.1,0.2-0.2,0.3-0.3c0.1-0.1,0.2-0.2,0.3-0.2
	c0,0,0,0,0-0.1c0,0,0,0,0-0.1v-0.1c0,0,0,0,0-0.1c-0.1,0-0.1,0-0.1,0c0-0.1,0-0.1,0-0.1s0-0.1-0.1-0.1s-0.1,0-0.2,0.1l0,0l0,0l0,0
	l0,0l0,0l0,0v0.1c-0.1,0-0.1,0-0.1,0c-0.1,0.1-0.2,0.2-0.3,0.4s-0.2,0.2-0.4,0.4c0,0-0.1,0.1-0.3,0.3c-0.1,0.2-0.5,0.5-0.9,1
	c-0.1,0.1-0.1,0.1-0.2,0.1c-0.1,0-0.1,0-0.1,0.1c-0.1,0-0.1,0.1-0.1,0.1s0,0,0,0.1c0,0,0,0.1-0.1,0.1c0,0,0,0.1-0.1,0.1
	c0,0,0,0-0.1,0.1c0,0-0.1,0.1-0.2,0.2c-0.1,0.1-0.2,0.1-0.3,0.2h-0.1c-0.1,0-0.1,0.1-0.2,0.1c-0.1,0-0.1,0.1-0.2,0.1
	c-0.2,0.2-0.3,0.3-0.5,0.4c-0.1,0.1-0.3,0.2-0.5,0.3c-0.1,0-0.1,0-0.2,0c-0.1,0-0.2,0-0.2,0h-0.3l-0.2-0.1C78,21,78,20.9,78,20.7
	c-0.1,0-0.1-0.1-0.1-0.2v-0.1c0-0.1,0-0.1,0-0.2v-0.1V20c0-0.1,0.1-0.2,0-0.3c0-0.1,0-0.2,0-0.3c0-0.1,0-0.2,0.1-0.2
	c0-0.1,0.1-0.1,0.1-0.2c0.1,0,0.1-0.1,0.2-0.1v-0.1c0,0,0-0.1,0-0.2c0,0,0,0,0.1-0.1s0.1,0,0.1-0.1v-0.1c0.1-0.1,0.2-0.3,0.4-0.5
	c0.2-0.3,0.3-0.5,0.5-0.9s0.3-0.6,0.5-0.9s0.3-0.5,0.3-0.6s0.1-0.2,0.2-0.4c0.1-0.1,0.1-0.2,0.2-0.4v-0.1c0-0.1,0-0.1,0.1-0.1
	c0.1-0.1,0.1-0.2,0.1-0.3l0,0c0,0,0,0,0-0.1c0.1-0.2,0.2-0.3,0.3-0.4c0.1-0.1,0.1-0.2,0.1-0.4l0.1-0.1c0,0,0-0.1,0.1-0.1v-0.1
	c0-0.1,0.1-0.2,0.2-0.5c0.1-0.2,0.2-0.4,0.2-0.5c0-0.2,0.1-0.3,0.2-0.5s0.1-0.3,0.2-0.5c0.1-0.4,0.3-0.8,0.4-1.2
	c0.1-0.4,0.3-0.8,0.4-1.1c0-0.1,0.1-0.3,0.1-0.4c0.1-0.1,0.1-0.3,0.1-0.4c0,0,0-0.1,0.1-0.3c0-0.2,0-0.3,0.1-0.5s0.1-0.3,0.1-0.5
	s0-0.3,0-0.3c0-0.1,0-0.2,0-0.3s0-0.2,0-0.2c0-0.1,0.1-0.2,0.1-0.4c0-0.1,0-0.1,0-0.1l0,0c0,0,0.1-0.1,0-0.1V5V4.8V4.7V4.6
	c0-0.2,0.1-0.3,0.1-0.4c0-0.1,0-0.3,0-0.4c0-0.3,0-0.6-0.1-0.9c0,0,0-0.1,0-0.2c0-0.1-0.1-0.1-0.1-0.2c-0.1-0.1-0.1-0.1,0-0.3
	c0,0-0.1,0-0.1-0.1c-0.1,0-0.1-0.1-0.1-0.1c0-0.1-0.1-0.1-0.1-0.2V1.7c-0.1,0-0.2-0.1-0.2-0.2c-0.1-0.1-0.3-0.2-0.4-0.3
	c-0.1-0.1-0.2-0.2-0.3-0.3l-0.1-0.1c-0.1,0-0.1,0-0.2,0h-0.2C82.3,0.7,82.2,0.7,82.1,0.7 M73.5,13.4c0,0.1,0,0.2,0.1,0.3
	c0,0.1,0.1,0.2,0.1,0.3s0.1,0.1,0.1,0.1c0,0.1-0.1,0.2-0.1,0.3s-0.1,0.2-0.2,0.3c0,0.1,0,0.1-0.1,0.1s-0.1,0.1-0.2,0.2
	c-0.1,0.1-0.1,0.1-0.2,0.2c0,0.1-0.1,0.1-0.1,0.2c-0.1,0.1-0.2,0.2-0.3,0.3c-0.1,0.1-0.2,0.2-0.3,0.2c-0.2,0.2-0.3,0.4-0.5,0.6
	s-0.3,0.3-0.5,0.4c-0.3,0.3-0.6,0.6-0.9,0.9c0-0.1,0.1-0.2,0.2-0.3c0.1-0.1,0.2-0.4,0.4-0.9c0-0.1,0.1-0.3,0.2-0.4s0.1-0.3,0.2-0.4
	c0.3-0.2,0.4-0.4,0.6-0.6c0.1-0.3,0.3-0.5,0.5-0.8c0,0,0-0.1,0.1-0.1s0.1-0.1,0.1-0.1c0.1-0.1,0.3-0.3,0.4-0.4s0.4-0.2,0.6-0.3h-0.1
	C73.5,13.3,73.5,13.3,73.5,13.4 M71.4,18.2C71.4,18.1,71.4,18.1,71.4,18.2c0.1,0,0.2-0.1,0.3-0.2s0.2-0.2,0.3-0.2h0.1
	c0.1,0,0.2-0.1,0.2-0.1s0.1-0.1,0.2-0.1c0,0,0,0,0.1,0.1c0.1,0,0.2-0.1,0.2-0.2c0.1-0.1,0.1-0.2,0.2-0.2c0.1,0,0.1-0.1,0.2-0.1
	c0-0.1,0.1-0.1,0.2-0.2c0.1,0,0.2,0,0.2,0s0.1-0.1,0.2-0.2c0.1-0.1,0.3-0.3,0.4-0.4c0.2-0.2,0.3-0.3,0.4-0.5
	c0.1-0.2,0.2-0.3,0.2-0.4s0.1-0.2,0.2-0.4l0.1-0.2c0-0.1,0.1-0.2,0.1-0.4s0.1-0.3,0.1-0.5c0-0.1,0.1-0.1,0-0.2c0-0.1,0-0.1,0-0.2
	c0.1-0.1,0.1-0.3,0-0.5c0-0.1,0-0.2,0-0.4s-0.1-0.3-0.1-0.4c-0.1-0.1-0.2-0.2-0.3-0.4s-0.2-0.4-0.3-0.5c0-0.1,0.1-0.1,0-0.1
	c0,0,0,0,0-0.1c-0.1-0.1-0.2-0.2-0.3-0.3s-0.1-0.2-0.2-0.2c0,0-0.1-0.1-0.2-0.1l-0.1-0.1c-0.1,0-0.3,0-0.4-0.1c-0.1,0-0.2,0-0.4,0
	s-0.3,0-0.4,0.1c0,0.1-0.1,0.1-0.2,0.2c-0.1,0-0.2,0.1-0.3,0.1v0.1c-0.2,0.1-0.3,0.2-0.4,0.3c-0.1,0.1-0.2,0.3-0.4,0.4
	c-0.2,0.2-0.3,0.4-0.4,0.6c-0.1,0.2-0.2,0.5-0.3,0.8c-0.5,0.6-0.9,1.2-1.3,1.9c-0.4,0.6-0.8,1.3-1.1,2.1c-0.1,0.1-0.2,0.2-0.2,0.3
	c-0.1,0.1-0.1,0.3-0.2,0.4c-0.1,0.3-0.2,0.6-0.3,0.9s-0.1,0.6-0.2,0.9c0,0.2,0,0.4,0,0.5s0,0.2,0,0.2c0,0.1,0,0.1,0,0.2s0,0.2,0,0.4
	c0.1,0.3,0.2,0.5,0.3,0.7s0.3,0.4,0.5,0.6v0.1c0,0,0,0,0,0.1h0.1h0.1v0.1c0,0,0,0,0,0.1c0.1,0,0.3,0,0.4,0s0.2,0.1,0.3,0.1
	c0.2,0.1,0.4,0,0.5,0c0.1-0.1,0.3-0.1,0.5-0.1h0.2c0.1,0,0.1,0,0.2-0.1c0.1,0,0.1-0.1,0.2,0c0,0,0.1,0,0.2,0
	c0.1-0.1,0.3-0.1,0.4-0.2c0.1,0,0.2-0.1,0.4-0.1c0.3-0.1,0.6-0.2,0.8-0.3s0.5-0.2,0.8-0.4c0.1,0,0.2-0.1,0.4-0.3
	c0.2-0.1,0.4-0.3,0.6-0.4c0.2-0.2,0.4-0.3,0.6-0.4s0.4-0.2,0.4-0.3c0.2-0.2,0.4-0.4,0.6-0.5c0.2-0.1,0.3-0.3,0.5-0.6
	c0.1-0.1,0.1-0.1,0.2-0.1c0.1,0,0.1-0.1,0.2-0.2c0.2-0.2,0.3-0.4,0.5-0.6s0.3-0.4,0.5-0.6c0-0.1,0-0.1-0.1-0.1v-0.1c0,0,0,0,0-0.1
	c0,0-0.1,0,0-0.1c-0.1,0-0.1,0.1,0,0.1s0.1,0,0-0.1c-0.1,0-0.2,0-0.3,0v-0.1c-0.1-0.1-0.1-0.1-0.1,0c-0.2,0.2-0.3,0.3-0.5,0.4
	c-0.1,0.1-0.3,0.2-0.5,0.3l-0.8,0.6c0,0-0.1,0.1-0.3,0.3c-0.2,0.1-0.4,0.3-0.6,0.4c-0.2,0.1-0.4,0.3-0.6,0.4
	c-0.2,0.1-0.3,0.2-0.4,0.2c-0.4,0.2-0.8,0.3-1.2,0.5c-0.3,0.2-0.8,0.3-1.2,0.5c-0.2,0-0.4,0.1-0.6,0.2c-0.2,0.1-0.4,0.1-0.6,0.2
	c-0.1,0-0.2,0-0.2,0c-0.1,0-0.1,0-0.2,0c-0.1,0-0.2-0.1-0.3-0.1S69,20.7,69,20.6c0-0.2,0-0.3,0-0.3s0.1-0.1,0.1-0.3
	c0.1-0.2,0.1-0.4,0.2-0.5c0.1-0.1,0.1-0.3,0.2-0.5c0.1-0.1,0.2-0.2,0.2-0.4c0-0.2,0.1-0.3,0.3-0.3h0.1h0.1l0,0l0,0
	c0.1,0.1,0.1,0.1,0.2,0l0.1-0.1c0.1,0,0.2,0,0.3,0.1L71.4,18.2z M62.5,23h-0.1H62.5C62.5,22.9,62.5,22.9,62.5,23c0.1,0,0.1,0,0.1,0
	C62.6,23,62.5,23,62.5,23 M62.3,22.9C62.2,22.9,62.2,22.9,62.3,22.9C62.2,22.8,62.2,22.8,62.3,22.9L62.3,22.9
	C62.4,22.9,62.3,22.9,62.3,22.9 M62.7,20.4c0-0.1-0.1-0.2-0.1-0.3c0-0.2-0.1-0.3-0.1-0.5s0-0.3-0.1-0.5c0.1-0.1,0.2-0.2,0.1-0.3
	c-0.1-0.2-0.1-0.3-0.1-0.4c0-0.3,0-0.7,0-1s0-0.7,0-0.9c0-0.2,0-0.3,0-0.5s0-0.4,0.1-0.6c0-0.2,0-0.3,0.1-0.4s0.1-0.3,0.1-0.4
	c0.1-0.1,0.1-0.2,0.1-0.2c0-0.1-0.1-0.2-0.1-0.3c0,0,0,0,0-0.1c0,0,0,0,0-0.1s0-0.2,0-0.3s0-0.2,0-0.3s0-0.1,0-0.2s0-0.1,0-0.1
	c0.2-0.2,0.3-0.5,0.3-0.8s0-0.6-0.2-0.8c0-0.2-0.1-0.3-0.2-0.4c-0.1-0.1-0.2-0.2-0.2-0.3c-0.1-0.1-0.2-0.2-0.3-0.3s-0.3-0.1-0.5-0.1
	c-0.3,0.2-0.5,0.4-0.6,0.6c0,0,0,0,0,0.1c0,0,0,0,0,0.1s0,0.1-0.1,0.1c0,0.2,0,0.4,0.1,0.5s0.1,0.3,0.1,0.4c0,0.2,0,0.4-0.1,0.5
	s-0.1,0.3-0.1,0.4c-0.1,0.3-0.2,0.7-0.2,1.1c0,0.4,0,0.7-0.1,1.1c0,0.5-0.1,0.9-0.1,1.5c0,0.5,0,1,0,1.5c0,0.6,0,1.2,0,1.8
	c0,0.6,0.1,1.1,0.3,1.6c0.1,0.3,0.3,0.6,0.5,0.8c0.2,0.2,0.4,0.4,0.6,0.7c0.1,0,0.1,0,0.2,0.1c0,0,0.1,0,0.2,0
	c0.1,0.1,0.1,0.1,0.2,0.1c0.2,0.1,0.4,0.1,0.6,0c0.2-0.1,0.3-0.2,0.5-0.2c0.1,0,0.2,0,0.3-0.1c0.1,0,0.1-0.1,0.2-0.2
	c0.1-0.1,0.1-0.2,0.2-0.2l0.1-0.1c0,0,0.1,0,0.1-0.1c0.1-0.1,0.1-0.1,0.2-0.2c0.1-0.1,0.1-0.2,0.2-0.2c0-0.1,0.1-0.1,0.1-0.1
	s0.1-0.1,0.1-0.2c0.4-0.3,0.7-0.7,1-1.2c0.1-0.1,0.1-0.2,0.2-0.3s0.1-0.2,0.2-0.3c0-0.1,0.1-0.2,0.1-0.3c0-0.1,0.1-0.1,0.1-0.2
	c0.1-0.1,0.2-0.3,0.2-0.4c0.1-0.2,0.2-0.3,0.3-0.4c0.1-0.2,0.2-0.3,0.3-0.5s0.2-0.3,0.3-0.5s0.2-0.4,0.3-0.7
	c0.1-0.2,0.2-0.4,0.2-0.7c0-0.1,0.1-0.2,0.1-0.3c0.1-0.1,0.1-0.2,0.1-0.3c0.1-0.2,0.1-0.5,0.1-0.7c0-0.2,0.1-0.4,0.2-0.7
	c0-0.1,0.1-0.2,0.1-0.2c0-0.1,0-0.2,0-0.3s0.1-0.2,0-0.3c0-0.1,0-0.2,0-0.3s-0.1-0.1-0.1-0.2c0-0.1,0-0.1-0.1-0.2c0,0,0-0.1-0.1-0.1
	c0-0.1,0-0.2,0-0.3s0-0.2,0.1-0.3c0-0.1,0-0.1,0-0.2c0-0.1-0.1-0.1,0-0.2l0,0l0,0c0-0.1,0-0.2,0-0.2c0-0.1,0-0.2,0-0.3h-0.1l0,0l0,0
	c0,0,0.1-0.1,0-0.2c0-0.1,0-0.1,0-0.2c0,0-0.1,0-0.1,0.1h-0.1c0,0,0-0.1,0-0.2c0-0.1,0-0.1-0.1-0.1s-0.2,0-0.3,0
	c0,0-0.1,0.1-0.2,0.1c-0.1,0.1-0.1,0.1,0,0.2c-0.1,0.1-0.2,0.3-0.3,0.4c-0.1,0.2-0.2,0.3-0.2,0.5l0,0l0,0c-0.1,0.2-0.2,0.3-0.3,0.5
	c0,0.1-0.1,0.2-0.1,0.3s-0.1,0.2-0.1,0.3c0,0,0,0.1-0.1,0.1s-0.1,0-0.1,0.1l-0.1,0.1v0.1c-0.1,0.2-0.2,0.3-0.2,0.5
	c-0.1,0.2-0.1,0.3-0.2,0.5c-0.1,0.1-0.1,0.3-0.2,0.4c-0.1,0.1-0.1,0.3-0.2,0.4c0,0.2-0.1,0.3-0.2,0.5c-0.1,0.2-0.1,0.3-0.1,0.4
	c0,0.2-0.1,0.4-0.2,0.6c-0.1,0.2-0.1,0.3-0.2,0.5c-0.2,0.4-0.4,0.9-0.6,1.3c-0.2,0.4-0.4,0.8-0.7,1.2c-0.1,0.2-0.2,0.4-0.3,0.6
	s-0.3,0.4-0.5,0.5C62.7,20.6,62.7,20.5,62.7,20.4 M57.7,13.4c0,0.1,0,0.2,0.1,0.3c0,0.1,0.1,0.2,0.1,0.3s0.1,0.1,0.1,0.1
	c0,0.1-0.1,0.2-0.1,0.3c-0.1,0.1-0.1,0.2-0.2,0.3c0,0.1,0,0.1-0.1,0.1s-0.1,0.1-0.2,0.2c-0.1,0.1-0.1,0.1-0.1,0.2s-0.1,0.1-0.1,0.2
	c-0.1,0.1-0.2,0.2-0.3,0.3c-0.1,0.1-0.2,0.2-0.3,0.2c-0.2,0.2-0.4,0.4-0.5,0.6c-0.2,0.2-0.3,0.3-0.5,0.4c-0.3,0.3-0.6,0.6-0.9,0.9
	c0-0.1,0.1-0.2,0.2-0.3c0.1-0.1,0.2-0.4,0.4-0.9c0-0.1,0.1-0.3,0.2-0.4s0.1-0.3,0.2-0.4c0.3-0.2,0.4-0.4,0.6-0.6
	c0.1-0.3,0.3-0.5,0.5-0.8c0,0,0-0.1,0.1-0.1s0.1-0.1,0.1-0.1c0.1-0.1,0.3-0.3,0.4-0.4s0.3-0.2,0.6-0.3h-0.1
	C57.6,13.3,57.6,13.3,57.7,13.4 M55.5,18.2C55.5,18.1,55.5,18.1,55.5,18.2c0.1,0,0.2-0.1,0.3-0.2s0.2-0.2,0.3-0.2h0.1
	c0.1,0,0.2-0.1,0.2-0.1s0.1-0.1,0.2-0.1c0,0,0.1,0,0.1,0.1c0.1,0,0.2-0.1,0.2-0.2s0.1-0.2,0.2-0.2c0.1,0,0.1-0.1,0.2-0.1
	c0.1-0.1,0.1-0.1,0.2-0.2c0.1,0,0.2,0,0.2,0s0.1-0.1,0.2-0.2c0.1-0.1,0.3-0.3,0.4-0.4c0.2-0.2,0.3-0.3,0.4-0.5
	c0.1-0.2,0.2-0.3,0.2-0.4s0.1-0.2,0.2-0.4l0.1-0.2c0-0.1,0.1-0.2,0.1-0.4s0-0.3,0.1-0.5c0-0.1,0.1-0.1,0-0.2s0-0.1,0-0.2
	c0.1-0.1,0.1-0.3,0-0.5c0-0.1,0-0.2,0-0.4s-0.1-0.3-0.1-0.4c-0.1-0.1-0.2-0.2-0.3-0.4s-0.2-0.4-0.3-0.5c0-0.1,0.1-0.1,0-0.1
	s0,0,0-0.1c-0.1-0.1-0.2-0.2-0.3-0.3s-0.1-0.2-0.2-0.2l-0.1-0.1L58,10.5c-0.1,0-0.3,0-0.4-0.1c-0.1,0-0.2,0-0.4,0s-0.3,0-0.4,0.1
	c0,0.1-0.1,0.1-0.2,0.2c-0.1,0-0.2,0.1-0.3,0.1v0.1c-0.2,0.1-0.3,0.2-0.4,0.3c-0.1,0.1-0.2,0.3-0.4,0.4c-0.2,0.2-0.3,0.4-0.4,0.6
	c-0.1,0.2-0.2,0.5-0.3,0.8c-0.5,0.6-0.9,1.2-1.3,1.9c-0.4,0.6-0.8,1.3-1.1,2.1c-0.1,0.1-0.2,0.2-0.2,0.3c-0.1,0.1-0.1,0.3-0.2,0.4
	c-0.1,0.3-0.2,0.6-0.3,0.9s-0.1,0.6-0.2,0.9c0,0.2,0,0.4,0,0.5s0,0.2,0,0.2c0,0.1,0,0.1,0,0.2s0,0.2,0,0.4c0.1,0.3,0.2,0.5,0.3,0.7
	s0.3,0.4,0.5,0.6v0.1c0,0,0,0,0,0.1h0.1h0.1v0.1c0,0,0,0,0,0.1c0.1,0,0.3,0,0.4,0c0.1,0.1,0.2,0.1,0.3,0.1c0.2,0.1,0.4,0,0.5,0
	c0.1-0.1,0.3-0.1,0.5-0.1h0.2c0.1,0,0.1,0,0.2-0.1c0.1,0,0.1-0.1,0.2,0c0,0,0.1,0,0.2,0c0.1-0.1,0.3-0.1,0.4-0.2s0.2-0.1,0.4-0.1
	c0.3-0.1,0.6-0.2,0.8-0.3s0.5-0.2,0.8-0.4c0.1,0,0.2-0.1,0.4-0.3c0.2-0.1,0.4-0.3,0.6-0.4c0.2-0.2,0.4-0.3,0.6-0.4
	c0.2-0.1,0.4-0.2,0.4-0.3c0.2-0.2,0.4-0.4,0.6-0.5c0.2-0.1,0.3-0.3,0.5-0.6c0.1-0.1,0.1-0.1,0.2-0.1c0.1,0,0.1-0.1,0.2-0.2
	c0.2-0.2,0.3-0.4,0.5-0.6s0.3-0.4,0.5-0.6c0-0.1,0-0.1-0.1-0.1v-0.1c0,0,0,0,0-0.1c0,0,0,0,0-0.1c-0.1,0-0.1,0.1,0,0.1s0.1,0,0-0.1
	c-0.1,0-0.2,0-0.3,0v-0.1c-0.1-0.1-0.1-0.1-0.1,0c-0.2,0.2-0.3,0.3-0.5,0.4s-0.3,0.2-0.5,0.3l-0.8,0.6c0,0-0.1,0.1-0.3,0.3
	c-0.2,0.1-0.4,0.3-0.6,0.4c-0.2,0.1-0.4,0.3-0.6,0.4c-0.2,0.1-0.3,0.2-0.4,0.2c-0.4,0.2-0.8,0.3-1.2,0.5s-0.8,0.3-1.2,0.5
	c-0.2,0-0.4,0.1-0.6,0.2c-0.2,0.1-0.4,0.1-0.6,0.2c-0.1,0-0.2,0-0.2,0c-0.1,0-0.1,0-0.2,0c-0.1,0-0.2-0.1-0.3-0.1s-0.2-0.1-0.2-0.2
	c0-0.2,0-0.3,0-0.3s0.1-0.1,0.1-0.3c0.1-0.2,0.1-0.4,0.2-0.5c0.1-0.1,0.1-0.3,0.2-0.5c0.1-0.1,0.2-0.2,0.2-0.4
	c0-0.2,0.1-0.3,0.3-0.3h0.1c0.1,0,0.1,0,0.2,0l0,0l0,0c0.1,0.1,0.1,0.1,0.2,0l0.1-0.1c0.1,0,0.2,0,0.3,0.1L55.5,18.2z M40,20
	c-0.1,0-0.2,0-0.2,0c0-0.1-0.1-0.3,0-0.4c0-0.1,0-0.3,0-0.4c0.1-0.1,0.1-0.2,0-0.2v-0.2l0,0v-0.1c0.1-0.2,0.2-0.3,0.2-0.5
	s0.1-0.4,0.2-0.6c0-0.1,0.1-0.2,0.1-0.3v-0.2h0.1l0,0c0-0.1,0-0.2,0-0.2c0-0.2,0-0.3,0-0.3s0-0.1,0.1-0.1h0.1c0,0,0-0.1,0.1-0.2
	c0-0.1,0.1-0.1,0.2-0.3c0.1-0.1,0.1-0.2,0.1-0.3l0,0c0.1,0,0.1-0.2,0.2-0.4c0.1-0.2,0.2-0.4,0.2-0.5c0.1-0.1,0.2-0.2,0.2-0.2
	s0.1-0.1,0.2-0.2c0-0.1,0.1-0.2,0.2-0.3c0.1-0.1,0.2-0.2,0.3-0.2c0.1-0.1,0.2-0.2,0.2-0.3s0.1-0.2,0.2-0.2c0.1-0.1,0.2-0.1,0.2-0.2
	c0.1-0.1,0.2-0.1,0.3-0.2c0,0,0.1,0,0.2,0c0.1,0,0.2,0,0.3,0c0,0,0.1,0.1,0.2,0.2c0.1,0.1,0.1,0.2,0.2,0.2v0.3c0,0,0,0.1,0,0.3
	c-0.1,0.2-0.1,0.3,0,0.3c-0.2,0.2-0.3,0.4-0.3,0.5c0,0.1-0.1,0.2-0.1,0.3s-0.1,0.2-0.2,0.3c-0.1,0.1-0.2,0.3-0.3,0.5
	c0,0-0.1,0.2-0.2,0.4c-0.2,0.2-0.2,0.3-0.2,0.4c-0.1,0.1-0.2,0.2-0.2,0.3c-0.1,0.1-0.1,0.1-0.2,0.2c-0.1,0.1-0.1,0.1-0.1,0.1
	c-0.1,0.1-0.1,0.2-0.2,0.2S42,17.6,42,17.6s0,0.1-0.1,0.1c0,0.1-0.1,0.1-0.1,0.2c-0.1,0-0.1,0.1-0.2,0.3c-0.1,0.1-0.1,0.2-0.2,0.3
	c0,0-0.1,0.2-0.2,0.4c-0.1,0.2-0.2,0.3-0.2,0.4c-0.1,0.1-0.1,0.2-0.2,0.3c0,0.1-0.1,0.1-0.1,0.1c-0.1,0-0.1,0.1-0.2,0.1
	c-0.1,0-0.1,0.1-0.2,0.2C40.1,20.1,40.1,20.1,40,20 M46.7,13.2c0,0.1,0,0.1-0.1,0.2v-0.1c-0.1-0.2-0.1-0.5-0.1-0.7s0-0.5-0.1-0.7
	v-0.1v-0.1v-0.2v-0.9c0-0.1,0-0.2,0-0.4c0-0.1,0-0.3,0-0.4c0-0.1,0.1-0.2,0.1-0.3l-0.1-0.1c0-0.1,0.1-0.3,0.1-0.5s0-0.3,0-0.4
	c0-0.1,0-0.2,0-0.3c0-0.2,0-0.4,0.1-0.6c0-0.3,0.1-0.4,0.1-0.5V7c0.1-0.2,0.1-0.4,0.1-0.5s0.1-0.3,0.1-0.5c0-0.1,0.1-0.3,0.1-0.4
	c0.1-0.1,0.1-0.3,0.1-0.4c0,0,0,0,0-0.1c0,0,0,0,0.1-0.1c0-0.1,0-0.1,0-0.2l0,0c0,0,0,0,0-0.1c0.1-0.4,0.3-0.9,0.4-1.3
	C47.8,3,48,2.6,48.2,2.2c0.1-0.3,0.3-0.4,0.5-0.6c0-0.1,0.1-0.1,0.2-0.2c0.1,0,0.2,0,0.2,0c0.1,0,0.1,0,0.2,0c0,0,0.1,0,0.2,0v0.1
	v0.1c0,0.2-0.1,0.4-0.1,0.6c0,0.2-0.1,0.4-0.1,0.6v0.1c0,0,0,0,0,0.1s0,0.1,0,0.2c0,0,0,0.1,0,0.2v0.1v0.1c0,0.1,0,0.1,0,0.1
	c-0.1,0.1-0.1,0.2-0.1,0.4c0,0.1,0,0.3-0.1,0.5c0,0.1,0,0.2-0.1,0.3s-0.1,0.2-0.1,0.3v0.1v0.1v0.2c0,0.1,0,0.1,0,0.1v0.1l-0.1,0.1
	c-0.1,0.1-0.1,0.3-0.2,0.7c-0.1,0.3-0.2,0.7-0.3,1.1c-0.1,0.4-0.2,0.8-0.3,1.1s-0.2,0.7-0.2,0.8c-0.1,0.2-0.1,0.2,0,0.2
	c0-0.1,0.1-0.4,0.2-0.9V8.8c0,0.1-0.1,0.1-0.1,0.2c-0.1,0.2-0.2,0.5-0.3,0.7s-0.1,0.4-0.2,0.6l-0.1,0.1v0.1v0.1c0,0-0.1,0-0.1,0.1
	v0.1c0,0.1,0,0.1-0.1,0.2S47,11.1,47,11.2l0,0c0,0,0,0,0,0.1c0,0,0,0.1-0.1,0.1v0.1c-0.1,0.2-0.2,0.4-0.2,0.6s0.2,0.4,0.2,0.7
	c0,0,0,0-0.1,0c0,0,0,0,0,0.1c0,0,0,0,0,0.1s0,0,0,0.1C46.8,13.1,46.8,13.1,46.7,13.2C46.7,13.1,46.7,13.1,46.7,13.2 M49.8,0
	c-0.1,0-0.3,0-0.4,0h-0.1c-0.1,0-0.1,0-0.1,0h-0.1H49h-0.1h-0.1l-0.1,0.1c0,0-0.1,0-0.1,0.1l0,0c0,0,0,0-0.1,0c0,0,0,0-0.1,0l0,0
	c-0.1,0-0.1,0.1-0.1,0.1l-0.1,0.1h-0.1c-0.1,0-0.1,0.1-0.2,0.1c0,0.1-0.1,0.1-0.1,0.2c0,0.1-0.1,0.2-0.2,0.3
	c-0.1,0.1-0.2,0.2-0.3,0.3c0,0.1-0.1,0.1-0.1,0.2c0,0.1-0.1,0.1-0.1,0.2v0.1v0.1C47.1,2,47,2,47,2.1s-0.1,0.1-0.1,0.2v0.1v0.1
	c-0.1,0-0.1,0.1-0.1,0.2c0,0,0,0,0,0.1V3c0,0,0,0,0,0.1c0,0-0.1,0.1-0.1,0.2c0,0.1-0.1,0.1-0.1,0.2v0.1l-0.1,0.1l-0.1,0.1
	c0,0.1-0.1,0.2-0.1,0.3s0,0.2,0,0.3s-0.1,0.2-0.1,0.2s0,0,0,0.1v0.1C46.1,5,46.1,5.2,46,5.4c-0.1,0.2-0.1,0.4-0.1,0.6
	c0,0.1,0,0.2,0,0.2v0.2c0,0.2-0.1,0.3-0.1,0.3s0,0.1,0,0.2c0,0.1,0,0.2,0,0.3s0,0.2,0,0.2c0,0.1,0,0.1,0,0.1v0.1c0,0,0,0,0,0.1
	s0,0.2,0,0.4c0,0-0.1,0.1,0,0.1c0,0.1,0,0.1,0,0.2c0,0.1,0,0.2-0.1,0.3c0,0.1,0,0.2,0,0.4c0,0,0,0,0,0.1v0.1c0,0,0,0,0,0.1
	s-0.1,0.3-0.1,0.4v0.3c0,0.1,0,0.2,0,0.2v0.2c0,0.1,0,0.2,0,0.3v0.1c-0.1,0.3-0.1,0.5,0,0.7v0.2l0,0v0.1c0,0,0,0,0-0.2v-0.6v-0.6
	c0-0.2,0-0.2,0-0.2s0,0.1,0,0.3s0,0.4,0,0.7c0,0.2,0,0.6,0,1v2.1c0-0.1,0-0.2,0-0.4s-0.1-0.5-0.1-0.7s-0.1-0.5-0.2-0.7
	c-0.1-0.2-0.1-0.3-0.2-0.4c0,0-0.1,0-0.1-0.1S44.9,12,44.9,12c0-0.1,0-0.2-0.1-0.2l-0.2-0.1c-0.2,0-0.3-0.1-0.5-0.1s-0.3-0.1-0.5,0
	c-0.1,0-0.2,0-0.3,0.1c-0.1,0-0.2,0.1-0.2,0.1c-0.1,0-0.1,0.1-0.2,0.1c-0.1,0-0.1,0-0.2,0.1c0,0,0,0,0,0.1l0,0l0,0
	c-0.2,0.1-0.3,0.1-0.3,0.2c-0.1,0-0.1,0.1-0.2,0.1c-0.1,0-0.2,0.1-0.2,0.1c-0.1,0.1-0.1,0.1-0.2,0.2c0,0.1-0.1,0.1-0.2,0.2
	c-0.1,0.1-0.2,0.2-0.3,0.3s-0.2,0.2-0.3,0.3s-0.2,0.2-0.2,0.2c-0.1,0.1-0.2,0.2-0.3,0.3s-0.1,0.2-0.1,0.2c0,0.1-0.1,0.1-0.1,0.2
	c-0.1,0.1-0.1,0.2-0.3,0.3c-0.3,0.5-0.6,0.9-0.9,1.4c-0.3,0.5-0.5,1-0.7,1.6c0,0.1,0,0.2-0.1,0.3c0,0.1-0.1,0.2-0.1,0.3
	c0,0.1,0,0.2,0,0.4c0,0.1,0,0.3,0,0.4v0.4c0,0.2-0.1,0.4,0,0.6s0.1,0.4,0.1,0.6c0,0.1,0.1,0.1,0.1,0.2V21c0.1,0.1,0.1,0.2,0.2,0.3
	s0.1,0.2,0.1,0.3l0,0l0,0l0,0c0,0,0,0.1,0.1,0.1l0.1,0.1v0.1c0,0.1,0.1,0.2,0.3,0.2l0.1,0.1l0.1,0.1h0.1c0.1,0,0.1,0.1,0.2,0.1
	c0.1,0,0.1,0,0.2,0.1c0,0,0,0,0.1,0h0.1c0.1,0,0.2,0,0.4-0.1h0.3c0,0,0.1,0,0.2,0c0.1,0,0.2-0.1,0.3-0.1c0,0,0.1-0.1,0.2-0.1
	c0.1,0,0.1-0.1,0.2-0.1c0.1-0.1,0.2-0.1,0.3-0.2s0.1-0.1,0.2-0.2c0.1-0.1,0.1-0.1,0.2-0.1v-0.1l0,0c0,0,0,0,0.1,0
	c0-0.1,0.1-0.1,0.1-0.1c0-0.1,0-0.2,0.1-0.2c0.1-0.1,0.2-0.2,0.3-0.3c0.1-0.1,0.1-0.2,0.2-0.3c0.2-0.3,0.4-0.5,0.6-0.8v0l0,0l0,0
	l0,0c0,0,0.1,0,0.1-0.1v-0.1l0,0l0.1-0.1c0.1-0.1,0.3-0.3,0.3-0.4c0.1-0.2,0.2-0.4,0.3-0.5l0.1-0.1c0,0,0.1-0.1,0.2-0.2
	c0,0,0.1-0.1,0.1-0.3l0,0c0,0,0,0,0.1-0.1c0,0,0.1-0.1,0.1-0.2s0.1-0.1,0.1-0.2c0,0,0,0,0-0.1c0,0,0-0.1,0.1-0.1l0,0v-0.1
	c0,0,0-0.1,0.1-0.1s0.1-0.1,0.1-0.2l0.1,0.3c0.1,0,0.1,0,0,0.2c0,0.1,0,0.1,0,0.1h0.1v0.2c0,0.1,0,0.1,0,0.2s0,0.1,0.1,0.1
	c-0.1,1.2-0.1,2.2,0.1,3.1c0,0.1,0.1,0.2,0.1,0.3c0,0.1,0,0.2,0.1,0.3c0.1,0.1,0.1,0.1,0.2,0.1c0,0.1,0.1,0.1,0.1,0.2
	c0,0,0,0.1,0.1,0.1c0,0,0,0.1,0.1,0.1c0,0,0,0.1,0.1,0.1s0.1,0.1,0.1,0.2s0.1,0.2,0.1,0.3c0,0.1,0.1,0.1,0.1,0.2
	c0.1,0,0.1,0.1,0.2,0.1s0.1,0.1,0.1,0.1c0,0.1,0,0.2,0.1,0.3c0.1,0,0.2,0,0.3,0s0.2,0,0.3,0l0,0c0.2,0,0.4,0,0.5-0.1
	s0.3-0.2,0.4-0.2c0.1-0.1,0.3-0.1,0.4-0.2c0.1,0,0.2-0.1,0.3-0.2h0.1c-0.1,0-0.2,0.1-0.2,0.1s-0.6-0.1-0.7-0.1
	c0.1-0.1,0.2-0.1,0.2-0.2c0.1-0.1,0.1-0.1,0.2-0.2c0-0.1,0.1-0.1,0.1-0.2c0.1,0,0.1-0.1,0.2-0.1l0,0c0,0,0.1-0.1,0.1-0.2l0,0l0,0
	c0-0.1,0.1-0.1,0.2-0.2c0.1,0,0.1-0.1,0.2-0.2c0.1,0,0.2-0.2,0.4-0.3c0.2-0.2,0.4-0.4,0.7-0.6c0.2-0.2,0.5-0.4,0.7-0.7
	c0.2-0.2,0.3-0.3,0.4-0.4h-0.1c0,0,0,0,0-0.1h0.1c0.1-0.1,0.2-0.2,0.3-0.3c0.1-0.1,0.2-0.2,0.3-0.2v-0.1c0,0,0,0,0-0.1l0.1-0.1
	c0.1,0,0.1-0.1,0.1,0s0,0,0,0.1c0,0-0.1,0-0.1,0.1c0,0,0,0,0.1,0c0.1-0.1,0.2-0.3,0.4-0.5s0.3-0.4,0.5-0.6c0.1-0.1,0.1-0.1,0.1-0.1
	s-0.1,0-0.2,0.2c-0.1,0.1-0.2,0.2-0.2,0.2s0,0,0-0.1c-0.1,0-0.2,0.1-0.2,0.2s-0.1,0.1-0.1,0.1h-0.1c0,0-0.1,0-0.1,0.1
	c0,0-0.1,0.1-0.2,0.1c0.1,0,0.2-0.1,0.2-0.2s0.1-0.2,0.2-0.3l0,0c0,0,0-0.1,0.1-0.1v-0.1c0,0,0,0,0-0.1l0,0v-0.1l0.1-0.1l0,0
	c0,0,0,0,0.1,0c0,0,0.1-0.1,0.2-0.3c0.1-0.1,0.2-0.2,0.2-0.2l0.1-0.1c0,0,0.1,0,0.2,0l0.1-0.1c0,0,0.1,0,0.1-0.1l0,0
	c0,0-0.1,0-0.2,0c0-0.1,0-0.2,0-0.2c0-0.1,0-0.1,0-0.2c0,0-0.1,0.1-0.3,0.3c-0.2,0.2-0.2,0.2-0.3,0.3c0,0.1-0.1,0.2-0.2,0.2
	c-0.1,0.1-0.3,0.2-0.4,0.4c-0.1,0.2-0.3,0.3-0.4,0.5c-0.1,0.2-0.3,0.4-0.4,0.5c-0.1,0.2-0.3,0.3-0.4,0.4c-0.1,0.1-0.3,0.2-0.4,0.3
	s-0.3,0.3-0.4,0.4c-0.1,0.2-0.3,0.3-0.3,0.4c-0.1,0.1-0.1,0.2-0.1,0.2c-0.3,0.2-0.5,0.4-0.5,0.4c-0.1,0.1-0.1,0.1-0.1,0.1l-0.1,0.1
	c-0.1,0.1-0.3,0.2-0.6,0.3c0,0,0,0-0.1,0s-0.1,0-0.2,0.1c-0.1,0-0.2,0.1-0.2,0.1c-0.1,0-0.1,0-0.1,0c-0.1,0.1-0.1,0.1-0.1,0
	c0,0-0.1-0.1-0.1-0.2s0-0.2,0-0.3c0-0.1,0.1-0.2,0.1-0.3v-0.1c0,0,0,0,0-0.1c0-0.2,0.1-0.4,0.1-0.6S49,19.2,49,19s0.1-0.5,0.1-0.7
	s0-0.4,0.1-0.6c0-0.2,0.1-0.4,0.1-0.5c0.1-0.1,0.1-0.3,0.2-0.5v-0.2l-0.6,0.3c0-0.1,0-0.2,0.1-0.3c0-0.2,0-0.3,0.1-0.5
	s0.1-0.4,0.1-0.5c0-0.2,0-0.3,0-0.3v-0.1V15c0.1-0.1,0.2-0.3,0.2-0.5c0.1-0.2,0.2-0.6,0.2-0.9c0.1-0.4,0.1-0.7,0.2-0.9
	c0-0.2,0-0.4,0.1-0.5c0,0,0-0.1,0.1-0.2c0.2-0.4,0.3-0.9,0.4-1.3c0.1-0.5,0.3-0.9,0.4-1.4V9.1c0-0.1,0.1-0.3,0.2-0.5
	c0.1-0.3,0.2-0.6,0.3-0.9c0.1-0.3,0.2-0.7,0.3-1.1c0.1-0.4,0.2-0.7,0.3-1.1C52,5.2,52,4.9,52,4.6c0-0.2,0-0.4-0.1-0.5V4
	c0,0,0,0,0-0.1V3.7c0-0.4-0.1-0.8-0.1-1.2c-0.1-0.4-0.2-0.8-0.4-1.1V1.3c0-0.1-0.1-0.1-0.1-0.1s-0.1,0-0.1-0.1S51.1,1,51.1,0.9
	C51,0.9,51,0.8,51,0.7l-0.1-0.1c0,0,0-0.1-0.1-0.1c0-0.1-0.1-0.2-0.2-0.2c-0.1-0.1-0.2-0.1-0.4-0.2h-0.1C50,0,49.9,0,49.8,0
	 M27.4,13.4c0,0.1,0,0.2,0.1,0.3c0,0.1,0.1,0.2,0.1,0.3s0.1,0.1,0.1,0.1c0,0.1-0.1,0.2-0.2,0.3s-0.1,0.2-0.2,0.3
	c0,0.1,0,0.1-0.1,0.1S27.1,14.9,27,15s-0.1,0.1-0.2,0.2c0,0.1-0.1,0.1-0.1,0.2c-0.1,0.1-0.2,0.2-0.3,0.3c-0.1,0.1-0.2,0.2-0.3,0.2
	c-0.2,0.2-0.4,0.4-0.5,0.6c-0.2,0.2-0.3,0.3-0.5,0.4c-0.3,0.3-0.6,0.6-0.9,0.9c0-0.1,0.1-0.2,0.2-0.3c0.1-0.1,0.2-0.4,0.4-0.9
	c0-0.1,0.1-0.3,0.2-0.4c0.1-0.2,0.1-0.3,0.2-0.4c0.3-0.2,0.4-0.4,0.6-0.6c0.1-0.3,0.3-0.5,0.5-0.8c0,0,0-0.1,0.1-0.1
	s0.1-0.1,0.1-0.1c0.1-0.1,0.3-0.3,0.4-0.4C27.1,13.7,27.2,13.6,27.4,13.4L27.4,13.4C27.3,13.3,27.3,13.3,27.4,13.4 M25.2,18.2
	C25.2,18.1,25.2,18.1,25.2,18.2c0.1,0,0.2-0.1,0.3-0.2c0.1-0.1,0.2-0.2,0.3-0.2h0.1c0.1,0,0.2-0.1,0.2-0.1s0.1-0.1,0.2-0.1
	c0,0,0,0,0.1,0.1c0.1,0,0.2-0.1,0.2-0.2c0.1-0.1,0.1-0.2,0.2-0.2s0.1-0.1,0.2-0.1c0-0.1,0.1-0.1,0.2-0.2c0.1,0,0.2,0,0.2,0
	s0.1-0.1,0.2-0.2s0.3-0.3,0.4-0.4c0.2-0.2,0.3-0.3,0.5-0.5c0.1-0.2,0.2-0.3,0.2-0.4s0.1-0.2,0.2-0.4l0.1-0.2c0-0.1,0.1-0.2,0.1-0.4
	s0-0.3,0.1-0.5c0-0.1,0.1-0.1,0-0.2c0-0.1,0-0.1,0-0.2c0.1-0.1,0-0.3,0-0.5c0-0.1,0-0.2,0-0.4c0-0.1-0.1-0.3-0.1-0.4
	c-0.1-0.1-0.2-0.2-0.3-0.4c-0.1-0.2-0.2-0.4-0.3-0.5c0-0.1,0-0.1,0-0.1s0,0,0-0.1c-0.1-0.1-0.2-0.2-0.3-0.3
	c-0.1-0.1-0.1-0.2-0.2-0.2c0,0-0.1-0.1-0.2-0.1l-0.1-0.1c-0.1,0-0.3,0-0.4-0.1c-0.1,0-0.2,0-0.4,0c-0.2,0-0.3,0-0.5,0.1
	c0,0.1-0.1,0.1-0.2,0.2c-0.1,0-0.2,0.1-0.3,0.1v0.1c-0.2,0.1-0.3,0.2-0.4,0.3s-0.3,0.3-0.4,0.4c-0.2,0.2-0.3,0.4-0.4,0.6
	c-0.1,0.2-0.2,0.5-0.3,0.8c-0.5,0.6-0.9,1.2-1.3,1.9c-0.4,0.6-0.8,1.3-1.1,2.1c-0.1,0.1-0.2,0.2-0.2,0.3c-0.1,0.1-0.1,0.3-0.2,0.4
	c-0.1,0.3-0.2,0.6-0.3,0.9c-0.1,0.3-0.1,0.6-0.2,0.9c0,0.2,0,0.4,0,0.5s0,0.2,0,0.2c0,0.1,0,0.1,0,0.2s0,0.2,0,0.4
	c0.1,0.3,0.2,0.5,0.3,0.7c0.1,0.2,0.3,0.4,0.5,0.6v0.1c0,0,0,0,0,0.1H22h0.1v0.1c0,0,0,0,0,0.1c0.1,0,0.3,0,0.4,0
	c0.1,0.1,0.2,0.1,0.3,0.1c0.2,0.1,0.4,0,0.5,0c0.1-0.1,0.3-0.1,0.5-0.1H24c0.1,0,0.1,0,0.2-0.1c0.1,0,0.1-0.1,0.2,0c0,0,0.1,0,0.2,0
	c0.1-0.1,0.3-0.1,0.4-0.2c0.1,0,0.2-0.1,0.4-0.1c0.3-0.1,0.6-0.2,0.8-0.3c0.2-0.1,0.5-0.2,0.8-0.4c0.1,0,0.2-0.1,0.4-0.3
	c0.2-0.1,0.4-0.3,0.6-0.4c0.2-0.2,0.4-0.3,0.6-0.4S29,20.1,29,20c0.2-0.2,0.4-0.4,0.6-0.5s0.3-0.3,0.5-0.6c0.1-0.1,0.1-0.1,0.2-0.1
	s0.1-0.1,0.2-0.2c0.2-0.2,0.3-0.4,0.5-0.6s0.3-0.4,0.5-0.6c0-0.1,0-0.1-0.1-0.1v-0.1c0,0,0,0,0-0.1c0,0-0.1,0,0-0.1
	c-0.1,0-0.1,0.1,0,0.1s0.1,0,0-0.1c-0.1,0-0.2,0-0.3,0v-0.1c-0.1-0.1-0.1-0.1-0.1,0c-0.2,0.2-0.3,0.3-0.5,0.4
	c-0.1,0.1-0.3,0.2-0.5,0.3l-0.8,0.6c0,0-0.1,0.1-0.3,0.3c-0.2,0.1-0.4,0.3-0.6,0.4s-0.4,0.3-0.6,0.4s-0.3,0.2-0.4,0.2
	c-0.4,0.2-0.8,0.3-1.2,0.5c-0.3,0.2-0.8,0.3-1.2,0.5c-0.2,0-0.4,0.1-0.6,0.2s-0.4,0.1-0.6,0.2c-0.1,0-0.2,0-0.2,0
	c-0.1,0-0.1,0-0.2,0s-0.2-0.1-0.3-0.1c-0.1,0-0.2-0.1-0.2-0.2c0-0.2,0-0.3,0-0.3s0.1-0.1,0.1-0.3c0.1-0.2,0.1-0.4,0.2-0.5
	s0.1-0.3,0.2-0.5c0.1-0.1,0.2-0.2,0.2-0.4c0-0.2,0.1-0.3,0.3-0.3h0.1c0.1,0,0.1,0,0.1,0l0,0l0,0c0.1,0.1,0.1,0.1,0.2,0l0.1-0.1
	c0.1,0,0.2,0,0.3,0.1L25.2,18.2z M12.8,16.2C12.8,16.3,12.7,16.3,12.8,16.2C12.7,16.2,12.7,16.1,12.8,16.2c-0.1-0.1-0.1-0.2-0.1-0.3
	v-0.1l0,0l0,0c0,0,0.1-0.1,0.1-0.3c0-0.2,0.1-0.5,0.1-0.7s0.1-0.5,0.2-0.7V14c0,0,0,0,0-0.1s0-0.1,0-0.1c0-0.1,0.1-0.1,0.1-0.2
	c0-0.1,0-0.2,0.1-0.3v-0.1v-0.1c0-0.1,0.1-0.2,0.1-0.2c0-0.1,0-0.2,0-0.3c0-0.2,0.1-0.5,0.2-0.7s0.1-0.5,0.2-0.7
	c0-0.1,0-0.2,0.1-0.3c0-0.1,0.1-0.2,0.1-0.3s0.1-0.2,0.1-0.3s0-0.2,0.1-0.3c0-0.1,0.1-0.2,0.1-0.3s0-0.2,0.1-0.3c0-0.1,0-0.2,0-0.3
	c0.1-0.3,0.1-0.5,0.2-0.7V8.3V8.2c0,0,0-0.1,0-0.3c0-0.1,0-0.1,0-0.2c0-0.1,0-0.1,0.1-0.2V7.4V7.3V7.2V7.1l0,0l0,0V7c0,0,0,0,0-0.1
	V6.8l0,0V6.7l0,0c0,0,0,0,0.1-0.1l0.1-0.1c0,0,0-0.1,0.1-0.1c0,0,0-0.1,0.1-0.2l0.1-0.3l0.2-0.5c0,0,0-0.1,0-0.2s0-0.1,0-0.2
	c0,0,0,0,0-0.1V4.8c0-0.1,0.1-0.2,0.1-0.3s0.1-0.1,0.1-0.2c0-0.1,0-0.1,0-0.2c0-0.1,0.1-0.3,0.1-0.4c0-0.1,0.1-0.2,0.1-0.4
	c0-0.1,0-0.1,0.1-0.2C15.9,3,16,3,16.1,3h0.1l0.1,0.1c0,0,0,0,0,0.1s0,0,0,0.1l0.1,0.1c0.1,0.1,0.2,0.2,0.2,0.4l0.1,0.7v0.3v0.1
	c0,0.1,0,0.3,0,0.4s0,0.3,0,0.4c0,0.4-0.1,0.7-0.1,1.1c0,0.3-0.1,0.7-0.2,1c0,0.1,0,0.2-0.1,0.3c0,0.1,0,0.2-0.1,0.3
	c0,0-0.1,0.1-0.1,0.2C16,8.8,16,8.9,15.9,9.1c0,0.1-0.1,0.3-0.1,0.5c0,0.1-0.1,0.2-0.1,0.3s-0.1,0.2-0.1,0.2c0,0.1-0.1,0.1-0.1,0.2
	l-0.1,0.1v0.2L15.3,11L15,11.6c0,0.1-0.1,0.1-0.1,0.2c0,0,0,0.1-0.1,0.1c0,0.1-0.1,0.2-0.1,0.2c0,0.1-0.1,0.2-0.1,0.3
	s-0.1,0.2-0.1,0.3l-0.1,0.1l-0.1,0.1c-0.1,0.3-0.2,0.6-0.3,0.9c-0.1,0.3-0.3,0.6-0.4,0.9c-0.1,0.2-0.2,0.4-0.3,0.6s-0.2,0.4-0.4,0.6
	c0,0,0,0.1-0.1,0.1C12.9,16.1,12.9,16.1,12.8,16.2L12.8,16.2z M15.7,1.6c-0.1,0.1-0.1,0.1-0.2,0.1s-0.2,0-0.3,0c0,0,0,0-0.1,0
	c0,0,0,0-0.1,0l0,0l0,0c-0.2,0.2-0.4,0.3-0.6,0.6c-0.1,0.2-0.3,0.4-0.4,0.6c-0.1,0.1-0.2,0.2-0.2,0.3s-0.1,0.2-0.2,0.4
	c0,0,0,0,0,0.1s0,0,0,0.1l-0.1,0.1c0,0-0.1,0-0.1,0.1c0,0,0,0.1-0.1,0.1c-0.1,0.2-0.2,0.3-0.2,0.5S13,4.9,12.9,5.1
	c-0.2,0.5-0.3,0.9-0.4,1.4s-0.2,1-0.4,1.5C12,8.2,12,8.5,11.9,8.7s-0.1,0.5-0.2,0.7l0,0c0,0,0,0.1,0,0.2c-0.1,0.5-0.2,0.9-0.3,1.4
	c-0.1,0.5-0.2,0.9-0.3,1.4c0,0.1-0.1,0.2-0.1,0.4c0,0.1,0,0.2-0.1,0.4s-0.1,0.5-0.2,0.7s-0.1,0.5-0.1,0.8c0,0.1-0.1,0.2-0.1,0.4
	c0,0.1,0,0.3-0.1,0.4v0.1l0,0l0,0c0,0.3-0.1,0.6-0.1,0.9s-0.1,0.6-0.1,0.9c0,0.1,0,0.2-0.1,0.4C10,18,9.9,18.2,9.9,18.5
	c-0.1,0.5-0.3,0.9-0.4,1.4s-0.2,1-0.2,1.6v0.4c0,0.2,0,0.3,0,0.3c0,0.1,0,0.1,0,0.2s0,0.1,0,0.2v0.1v0.1c0,0.1,0.1,0.2,0.1,0.3
	s0,0.2,0.1,0.3c0.1,0.1,0.1,0.1,0.2,0.1l0,0l0,0l0,0l0,0c0,0,0,0,0.1,0l0.1,0.1c0.1,0,0.1,0,0.1,0.1c0,0,0.1-0.1,0.2,0
	c0-0.1,0-0.2,0.1-0.2c0-0.2,0.1-0.3,0.2-0.4l0.1,0.1c0-0.1,0-0.2,0-0.2c0-0.1,0-0.1,0.1-0.2l0,0l0,0l0,0c0,0,0.1,0,0.1,0.1
	c0-0.1,0-0.2,0.1-0.3c0,0,0-0.1,0-0.2s0-0.1,0-0.2l0.1-0.1c0-0.1,0-0.1,0-0.2v-0.1l0.1-0.1c0,0,0-0.1,0-0.2s0.1-0.2,0.1-0.3
	c0-0.1,0.1-0.2,0.1-0.3h0.1l0.1-0.1c0,0,0.1-0.1,0.1-0.2s0-0.1,0-0.2c0.1-0.3,0.2-0.6,0.3-0.9c0.1-0.3,0.3-0.6,0.4-0.8l0,0l0,0
	c0,0,0,0,0-0.1l0,0c0,0,0-0.1,0.1-0.1s0,0,0-0.1c0.1,0,0.1-0.1,0.2-0.1s0.1-0.1,0.1-0.1l0,0c0.2-0.2,0.4-0.4,0.6-0.6
	s0.4-0.4,0.6-0.5c0.2-0.2,0.3-0.3,0.5-0.5s0.3-0.3,0.5-0.5c0,0,0.1-0.1,0.1-0.2l0.1-0.1l0.1-0.1c0.2-0.2,0.3-0.3,0.5-0.4
	s0.4-0.3,0.5-0.4s0.2-0.1,0.3-0.2c0,0,0.1,0,0.1-0.1l0,0l0,0c0.2-0.2,0.4-0.4,0.6-0.5c-0.1,0.3-0.3,0.5-0.4,0.7l-0.1,0.1V15v0.1
	c0,0.1-0.1,0.2-0.1,0.3c0,0.1-0.1,0.2-0.1,0.3c-0.1,0.2-0.1,0.3-0.2,0.4c-0.2,0.3-0.3,0.7-0.4,1.1s-0.2,0.8-0.3,1.2
	c0,0.2-0.1,0.3-0.1,0.5s-0.1,0.3-0.1,0.5s-0.1,0.3-0.1,0.5s0,0.3,0,0.5c0,0.3,0,0.7,0.1,0.9c0.1,0.3,0.1,0.6,0.2,0.9
	c0,0,0,0.1,0.1,0.1v0.1c0,0.1,0,0.2,0,0.3c0.1,0.6,0.3,1.1,0.6,1.5c0.1,0,0.2,0,0.2-0.1c0.1,0.1,0.1,0.1,0.3,0.1l0.1,0.1
	c0.1,0.1,0.2,0.2,0.4,0.2h0.1h0.1l0,0c0,0,0,0,0-0.1h0.1c0.4-0.1,0.8-0.3,1.2-0.5l0.5-0.4c0.1-0.1,0.2-0.2,0.2-0.2
	c0.1-0.1,0.2-0.1,0.2-0.2c0,0,0,0,0.1,0c0,0,0,0,0-0.1s0-0.1,0.1-0.1c0,0,0,0,0.1,0l0,0l0,0l0,0l0.1-0.1c0,0,0.1,0,0.1-0.1h0.1l0,0
	c0,0,0-0.1,0.1-0.1l0.1-0.1l0.1-0.1c0,0,0-0.1,0.1-0.1c0.1-0.1,0.1-0.1,0.2-0.2c0-0.1,0.1-0.1,0.1-0.2s0.1-0.1,0.2-0.2
	c0.1-0.2,0.3-0.3,0.5-0.5s0.3-0.3,0.5-0.5c0-0.1,0-0.1,0.1-0.2l0.1-0.1c0.1-0.1,0.2-0.2,0.3-0.3c0.1-0.1,0.2-0.2,0.2-0.3
	c0.1-0.1,0.1-0.2,0.1-0.2l0.1-0.1c0,0,0-0.1,0.1-0.1c0-0.1,0.1-0.1,0.1-0.2l0.1-0.1l0.1-0.1c0,0,0-0.1,0-0.2v-0.1v-0.1h0.1
	c0-0.1,0-0.2,0.1-0.3l0,0c0,0,0,0-0.1,0c0,0,0,0-0.1,0v-0.1c0,0,0,0,0.1-0.1c-0.1,0-0.2,0.1-0.3,0.2s-0.2,0.1-0.4,0.1
	c0-0.1,0.1-0.1,0.1-0.1l0.1-0.1c0,0,0,0-0.1,0h-0.1c0,0,0,0-0.1,0c0,0,0,0.1-0.1,0.1c-0.2,0.2-0.4,0.3-0.5,0.5
	c-0.2,0.2-0.4,0.3-0.5,0.5c-0.2,0.2-0.4,0.4-0.6,0.5c-0.2,0.2-0.4,0.3-0.6,0.5c-0.3,0.2-0.5,0.4-0.8,0.6c-0.2,0.2-0.5,0.4-0.9,0.6
	c0,0-0.1,0.1-0.2,0.1s-0.1,0.1-0.2,0.1L18.1,22L18,22.1c-0.1,0.1-0.1,0.1-0.2,0.1s-0.1,0-0.1-0.1s0-0.1,0-0.2c0-0.2-0.1-0.3,0-0.5
	c0-0.2,0-0.3,0.1-0.5l0.1-0.6c0-0.1,0-0.2,0.1-0.3c0-0.1,0-0.2,0.1-0.3c0-0.1,0-0.2,0.1-0.2c0-0.1,0.1-0.1,0.1-0.2c0,0,0-0.1,0-0.2
	V19v-0.1l0.1-0.1c0,0,0,0,0-0.1s0-0.1,0-0.1c0-0.1,0.1-0.3,0.1-0.4s0.1-0.3,0.1-0.4v-0.1c0,0,0,0,0-0.1v-0.2c0-0.1,0.1-0.2,0.1-0.3
	c0.1-0.1,0.1-0.2,0.1-0.3c0-0.1,0-0.1,0-0.2c0,0,0-0.1,0-0.2c0-0.2,0.1-0.3,0.2-0.3c0-0.1,0-0.1,0-0.2s0-0.1,0.1-0.2v-0.1v-0.1
	c0,0,0,0,0-0.1c0.1-0.2,0.1-0.4,0.2-0.5s0.2-0.3,0.2-0.5c0-0.1,0.1-0.2,0.1-0.3s0-0.2,0-0.4c0-0.1,0-0.1,0-0.2s0-0.1,0-0.2v-0.1
	v-0.1V13c0,0,0,0,0-0.1s0-0.1,0.1-0.2c0,0,0.1-0.1,0.1-0.2c0-0.1,0-0.1-0.1-0.2c0-0.1-0.1-0.2-0.1-0.3s-0.1-0.2-0.1-0.3l0,0v0.1
	v-0.1c0,0,0-0.1-0.1-0.1h-0.1v0.1l-0.1-0.1l-0.1-0.1L19,11.4c-0.1,0-0.1,0-0.1-0.1h-0.1l0,0l0,0l0,0c-0.4,0-0.7,0.1-0.9,0.2
	c-0.1,0-0.2,0.1-0.2,0.1s-0.1,0.1-0.2,0.1s-0.1,0.1-0.2,0.1s-0.1,0.1-0.2,0.2c0-0.1,0-0.1-0.1-0.1s-0.1,0-0.1,0.1
	c-0.3,0.2-0.5,0.5-0.8,0.7s-0.5,0.5-0.8,0.8c-0.1,0.1-0.2,0.3-0.4,0.4c-0.1,0.1-0.3,0.3-0.4,0.4l-0.8,0.8c0.1-0.2,0.2-0.4,0.2-0.6
	c0.1-0.2,0.2-0.4,0.2-0.6c0-0.1,0.1-0.2,0.1-0.3s0.1-0.2,0.1-0.3s0.1-0.2,0.1-0.3s0.1-0.2,0.1-0.3c0,0,0-0.1,0.1-0.1
	c0-0.1,0.1-0.2,0.1-0.3s0-0.2,0.1-0.3c0,0,0.1-0.1,0.1-0.2v-0.1c0,0,0,0,0-0.1c0.1-0.2,0.1-0.4,0.2-0.6s0.1-0.4,0.2-0.5
	c0-0.1,0.1-0.2,0.1-0.3s0.1-0.2,0.1-0.3c0,0,0,0,0-0.1l0,0V9.7c0,0,0,0,0-0.1V9.5V9.4c0-0.1,0.1-0.2,0.1-0.2l0,0c0,0,0,0,0-0.1l0,0
	l0,0l0,0c0,0,0,0,0-0.1V8.9c0-0.1,0-0.1,0.1-0.2c0-0.1,0.1-0.2,0.1-0.2c0-0.1,0-0.2,0-0.3s0-0.2,0-0.2c0-0.1,0-0.1,0.1-0.2V7.7V7.6
	c0-0.1,0-0.2,0.1-0.2c0-0.1,0-0.2,0.1-0.3c0-0.1,0.1-0.3,0.1-0.4c0-0.1,0-0.3,0.1-0.4V6.1l0,0l0,0c0,0,0,0,0-0.1c0,0,0,0,0-0.1V5.6
	c0,0,0,0,0-0.1c0,0,0,0,0-0.1s0.1-0.2,0.1-0.2c0-0.1,0-0.2,0-0.3s0.1-0.2,0.1-0.3s0-0.2,0-0.3c0-0.2,0-0.4,0-0.6s0-0.4,0-0.6
	c0-0.1,0-0.2,0-0.2c0-0.1,0-0.1,0-0.1s0-0.1-0.1-0.2V2.5c0-0.1,0-0.1,0-0.2V2.2c0,0,0,0,0-0.1c-0.1-0.1-0.1-0.2-0.2-0.3
	c0,0,0-0.1-0.1-0.1c0,0,0,0-0.1-0.1c0,0-0.1-0.1-0.1-0.2c0-0.1-0.1-0.1-0.1-0.2c-0.1,0-0.1-0.1-0.2-0.2c-0.1-0.1-0.1-0.1-0.2-0.2
	s-0.1-0.1-0.2-0.1h-0.1H15h-0.2C15.9,1.4,15.8,1.5,15.7,1.6 M3.8,3.6L3.8,3.6C3.9,3.7,3.8,3.7,3.8,3.6L3.8,3.6
	C3.7,3.6,3.7,3.6,3.8,3.6 M4.1,3.6c0.1,0,0.1,0,0.2,0C4.2,3.6,4.2,3.6,4.1,3.6C4.1,3.6,4,3.6,4.1,3.6C4,3.6,4,3.6,4.1,3.6 M0.3,3.8
	L0.3,3.8C0.2,3.8,0.2,3.8,0.3,3.8c0,0,0.2,0,0.3,0s0.2,0,0.3,0c0,0.1-0.1,0.1-0.1,0.1c-0.1,0-0.1,0-0.2,0c0.3,0,0.6,0,0.9,0
	s0.6,0,0.8-0.1H2.2c0,0-0.1,0-0.1,0.1c0.2,0,0.4-0.1,0.6-0.1c0.2,0,0.4,0,0.6,0c0.3,0,0.5-0.1,0.7-0.1c0.2-0.1,0.4-0.1,0.7-0.2
	c0.2-0.1,0.4-0.2,0.6-0.3s0.4-0.1,0.6-0.1c0,0-0.1,0-0.1,0.1s0,0.1-0.1,0c0,0.1,0,0.2,0,0.2c0,0.1-0.1,0.1-0.1,0.2
	C5.5,3.8,5.4,3.9,5.4,4.1S5.3,4.4,5.3,4.6c0,0-0.1,0-0.1,0.1c0,0,0,0.1-0.1,0.1c0,0.1,0,0.1,0,0.2v0.1C5,5.2,5,5.3,4.9,5.6
	c0,0.2,0,0.4-0.1,0.6C4.7,6.4,4.6,6.7,4.5,6.9C4.4,7.2,4.4,7.4,4.4,7.7C4.3,8,4.2,8.3,4.2,8.6C4.1,8.9,4.1,9.2,4,9.6
	c-0.1,0.1-0.2,0.3-0.2,0.5s0,0.4-0.1,0.6c0,0,0,0.2-0.1,0.4c0,0.2-0.1,0.4-0.1,0.7c0,0.2-0.1,0.4-0.2,0.7c-0.1,0.2-0.1,0.4-0.1,0.5
	s0,0.2,0,0.2c0,0.1,0,0.1,0,0.2c0,0.1,0,0.2-0.1,0.4C2.8,14.9,2.7,16,2.6,17c-0.1,0.5-0.1,0.9-0.2,1.4s-0.2,0.9-0.3,1.3
	c0,0.2,0,0.3,0,0.4s0,0.1,0,0.2s0,0.1-0.1,0.2s-0.1,0.2-0.1,0.4c0,0.2,0,0.4,0,0.5c0,0.2-0.1,0.3-0.1,0.6c0,0,0,0.1,0,0.2
	s0,0.1,0,0.2c0.1,0.2,0.1,0.3,0.2,0.4s0.2,0.2,0.2,0.3c0,0,0.1,0.1,0.1,0.2v0.2c0.1,0.2,0.2,0.4,0.2,0.5c0.1,0.2,0.1,0.3,0.2,0.5
	c0.1,0,0.1,0.1,0.2,0.1c0,0.1,0,0.1,0.1,0.2c0.1-0.1,0.2-0.1,0.3,0s0.2,0.2,0.3,0.3c0.1,0,0.2-0.1,0.3-0.1s0.2,0,0.2,0.1
	C4.1,25,4.2,25,4.2,25s0.1,0,0.1-0.1s0-0.1,0-0.2s0-0.2,0-0.3c0,0,0.1,0,0.1,0.1h0.1c0.1,0,0.1-0.1,0.1-0.1s0.1-0.1,0.2-0.1
	c0-0.2,0-0.3,0-0.4s0-0.2,0-0.3c0-0.1,0.1-0.2,0.1-0.3C5,23.2,5,23.1,4.9,23C5,22.8,5,22.6,5,22.4c0-0.3,0-0.5,0.2-0.6
	c0.1-0.4,0.1-0.7,0.2-0.9c0-0.2,0.1-0.5,0.2-0.9c0.1,0,0.1-0.1,0.1-0.1s0-0.1,0.1-0.1c0,0,0-0.1,0.1-0.1c0,0,0-0.1,0.1-0.1
	c0.1-0.2,0.2-0.5,0.2-0.7c0.1-0.2,0.1-0.5,0.2-0.7c0,0,0-0.1,0.1-0.1c0,0,0,0,0-0.1v-0.2c0-0.2,0.1-0.5,0.2-0.7s0.1-0.4,0.1-0.6
	C6.9,16.4,7,16.2,7,16.1s0-0.3,0-0.4c0.1,0,0.1,0,0.1-0.1s0-0.1,0-0.2c0,0,0-0.1,0.1-0.1c0,0,0.1-0.1,0.1-0.2s0.1-0.1,0-0.2
	c0-0.1,0-0.1,0-0.2c0.1-0.2,0.1-0.4,0.1-0.6c0-0.2,0-0.4,0.1-0.7c0-0.1,0-0.2,0-0.2v0.1v0.1c0,0,0,0,0-0.1c0.1,0,0.1-0.1,0.1-0.2
	c0-0.1,0-0.1,0.1-0.2c0-0.2,0-0.4,0.1-0.5s0.1-0.3,0.1-0.5s0.1-0.3,0.2-0.5s0.1-0.4,0.1-0.5c0.1-0.3,0.2-0.6,0.2-0.9
	c0-0.1,0.1-0.2,0.1-0.3s0.1-0.1,0.1-0.2c0.1-0.4,0.2-0.8,0.2-1.2S9,7.5,9.2,7.2C9.3,6.6,9.4,6,9.5,5.4c0.1-0.6,0.1-1.2,0-1.9
	C9.4,3.4,9.4,3.3,9.3,3.2S9.1,3,9,2.8c0.7-0.1,1.5-0.2,2.3-0.2s1.6,0,2.4,0h0.1h0.1h0h-0.1c-0.1,0-0.2,0-0.3,0c-0.1,0-0.2,0-0.3,0
	l0,0l0,0c-0.6,0-1.3,0-1.9,0s-1.2,0.1-1.8,0.1c-0.1,0-0.2,0-0.4,0.1c-0.1,0-0.2,0-0.3-0.1C8.9,2.6,9,2.6,9.2,2.6c0.1,0,0.3,0,0.4,0
	c0.7,0,1.5-0.1,2.2-0.1c0.8-0.1,1.6,0,2.4,0.1c0.1-0.1,0.3-0.1,0.6-0.1s0.5,0,0.7,0c-0.2,0-0.3,0-0.4-0.1c-0.1,0-0.2-0.1-0.3-0.3
	C14.8,2,14.9,2,15,2s0.2,0,0.3,0c0.1,0,0.2,0,0.3,0c0.1,0,0.2,0,0.3,0c-0.2-0.1-0.3-0.1-0.4-0.1s-0.2-0.1-0.3-0.2
	c-0.2,0-0.5-0.1-0.7-0.1s-0.5,0-0.7,0c-0.1-0.1-0.1-0.1-0.2-0.1s-0.1-0.1-0.1-0.1c0-0.1,0-0.1,0.1-0.1h0.1c-0.5-0.1-1-0.1-1.5-0.1
	s-1,0.1-1.5,0.1c-0.6,0.1-1.2,0.1-1.8,0.2c-0.6,0-1.1,0.1-1.6,0.2c-0.2,0-0.4,0.1-0.7,0.1C6.4,1.8,6.2,1.9,6,2.1C6.1,2,6.2,2,6.3,2
	C5.5,2.3,4.7,2.5,4,2.8S2.4,3.3,1.6,3.5c-0.1,0-0.2,0.1-0.3,0.1c-0.1,0-0.2,0.1-0.4,0.1c-0.1,0-0.2,0-0.4,0.1C0.4,3.8,0.3,3.9,0.2,4
	c0,0,0,0.1,0,0.2c0,0.1,0,0.2,0,0.2C0.1,3.7,0.2,3.8,0.3,3.8L0.3,3.8L0.3,3.8z"/>
<rect class="st1" width="123.8" height="30.3"/>
</svg>
