<?xml version="1.0" encoding="utf-8"?>
<!-- Generator: Adobe Illustrator 19.2.1, SVG Export Plug-In . SVG Version: 6.00 Build 0)  -->
<svg version="1.1" id="Layer_1" xmlns="http://www.w3.org/2000/svg" xmlns:xlink="http://www.w3.org/1999/xlink" x="0px" y="0px"
	 viewBox="0 0 92.2 29.4" style="enable-background:new 0 0 92.2 29.4;" xml:space="preserve">
<style type="text/css">
	.st0{fill:#082432;}
</style>
<path class="st0" d="M84.2,22.4L84.2,22.4C84.3,22.4,84.3,22.4,84.2,22.4L84.2,22.4 M84.6,21.1L84.6,21.1c-0.1,0.1-0.1,0.1-0.2,0.1
	C84.5,21.1,84.5,21.1,84.6,21.1 M82.7,10.4L82.7,10.4L82.7,10.4z M87.8,2.3c-0.1,0.1-0.2,0.1-0.3,0.1h-0.1h-0.1
	c-0.1,0.1-0.2,0.2-0.3,0.3S86.8,2.9,86.7,3c-0.3,0.3-0.5,0.7-0.7,1.1c-0.2,0.4-0.3,0.8-0.5,1.3c-0.1,0.3-0.2,0.6-0.3,0.9
	c-0.1,0.3-0.2,0.6-0.3,0.9c-0.1,0.3-0.2,0.6-0.3,0.9c-0.1,0.3-0.2,0.6-0.3,0.9c-0.2,0-0.4,0.1-0.6,0.1c-0.2,0.1-0.4,0.1-0.6,0.2
	c0,0-0.1,0-0.1,0.1s-0.1,0-0.1,0s0,0.1-0.1,0.1c0,0-0.1,0-0.1,0.1c-0.1,0-0.1,0-0.1,0.1c0,0-0.1,0-0.2,0c0,0,0,0,0,0.1h-0.1
	c0,0,0,0-0.1,0C82,9.9,81.9,9.9,81.8,10c-0.1,0.1-0.2,0.2-0.3,0.3l0.1,0.1c0,0,0,0-0.1,0h0.1c0,0,0,0.1-0.1,0.1c0,0-0.1,0-0.1,0.1
	c0,0,0.1,0,0.1-0.1l0,0l0,0l0,0c0,0,0.1,0,0,0.1v0.1c0.1-0.1,0.1-0.1,0.1-0.1h0.1c0,0,0,0,0.1,0v0.1l0.1-0.1c0.1,0,0.1,0,0.2,0l0,0
	l0,0l0.1-0.1c-0.1,0.1-0.2,0.2-0.3,0.2l0,0l0,0c0,0,0,0,0.1,0s0,0,0.1,0h0.1h0.1l0,0l0,0c0,0,0.1,0,0.1-0.1c0,0,0-0.1,0.1-0.1v0.1
	v-0.1c0,0,0,0,0.1,0s0,0,0.1,0s0,0,0,0h0.1c0,0,0,0,0.1,0c0,0,0.1,0,0.1-0.1v0.1l0,0l0,0c0.1,0,0.2,0,0.3-0.1c0,0-0.1,0-0.1-0.1
	s0.1-0.1,0.2,0h0.1h0.1h0.1h0.1c0.1,0,0.1,0,0.2,0c0.1,0,0.1,0,0.2,0l0,0c0,0,0,0,0.1,0c0,0.2-0.1,0.4-0.2,0.5
	C84,11,84,11.1,83.9,11.3c0,0.1,0,0.1,0,0.2v0.1c0,0,0,0.1-0.1,0.1c0,0,0,0.1-0.1,0.1c0,0.1,0,0.2,0,0.3s0,0.2-0.1,0.3
	c0,0.2-0.1,0.5-0.1,0.7s-0.1,0.5-0.1,0.7c0,0.1,0,0.2-0.1,0.3s0,0.2,0,0.3s-0.1,0.3-0.1,0.4c0,0.1,0,0.3-0.1,0.4c0,0,0,0.1-0.1,0.2
	v0.3c0,0.7-0.1,1.4-0.2,1.9c0,0.1-0.1,0.2-0.1,0.3s0,0.2,0,0.4s0,0.4,0,0.6c0,0.2,0,0.4,0,0.6c0,0.2,0,0.4,0,0.6
	c0,0.2,0,0.4,0.1,0.6c0,0.1,0.1,0.2,0.1,0.2L83,21c0.1,0.1,0.1,0.3,0.1,0.6v0.1l0.1,0.1v0.1v0.2v0.1c0.1,0,0.1,0.1,0.1,0.1l0.1,0.1
	l0,0l0,0c0,0.1,0.1,0.1,0.2,0c0,0.1,0,0.1,0.1,0.2c0.1,0,0.1,0.1,0.1,0.1s0,0.1,0.1,0.1l0.1,0.1l0,0c0.1,0,0.2-0.1,0.3-0.1h0.1
	c0,0,0.1,0,0.1-0.1h0.2c0.1,0,0.1,0,0.2-0.1c0.1,0,0.1,0,0.2-0.1h0.1c0,0,0.1,0,0.2-0.1c0.1-0.1,0.3-0.2,0.4-0.2
	c0.1-0.1,0.3-0.1,0.5-0.2c0,0,0,0,0.1,0l0,0v-0.1l0,0l0.1-0.1c0.1,0,0.1-0.1,0.2,0l0,0l0,0l0,0c0,0,0,0,0-0.1c0.1,0,0.2,0,0.3-0.1
	s0.1-0.1,0.1-0.2c0,0,0.1,0,0.2-0.1c0.1-0.1,0.1-0.1,0.1-0.2c0.3-0.3,0.7-0.5,1-0.8c0.4-0.3,0.7-0.5,1.1-0.8c0,0,0-0.1,0.1-0.1
	c0,0,0,0,0.1,0l0,0l0,0l0.1-0.1c0.1-0.1,0.1-0.2,0.2-0.2c0.1-0.1,0.1-0.1,0.2-0.2c0.1-0.1,0.2-0.2,0.3-0.3s0.1-0.2,0.2-0.3
	c0.1-0.2,0.3-0.4,0.5-0.5s0.3-0.3,0.5-0.5c0.1,0,0.2-0.1,0.3-0.2c0.1-0.1,0.1-0.2,0.2-0.3l0,0l0,0l0,0l0,0l0,0l0,0
	c-0.1,0-0.1,0-0.2,0c-0.1,0-0.1,0-0.1,0c0-0.1-0.1-0.2,0-0.3s0.1-0.2,0.1-0.2c-0.1,0-0.2-0.1-0.2-0.2c-0.2,0.1-0.3,0.2-0.4,0.3
	c-0.1,0.1-0.3,0.2-0.4,0.3c-0.1,0.1-0.3,0.2-0.4,0.3c-0.1,0.1-0.2,0.2-0.4,0.3c-0.1,0.1-0.3,0.2-0.4,0.3c-0.1,0.1-0.2,0.2-0.4,0.3
	c-0.1,0.1-0.2,0.2-0.4,0.3c-0.1,0.1-0.3,0.2-0.4,0.3c-0.3,0.2-0.6,0.4-0.8,0.6c-0.3,0.2-0.5,0.4-0.8,0.6c-0.1,0.1-0.2,0.2-0.4,0.3
	s-0.3,0.2-0.4,0.3c0,0-0.1,0-0.1,0.1s-0.1,0-0.1,0.1l-0.2,0.2c0,0-0.1,0.1-0.2,0.2C85.5,21,85.4,21,85.3,21s-0.1,0-0.1-0.1l0,0l0,0
	c0-0.1,0-0.2,0-0.3v-0.2c0-0.1,0-0.1,0-0.1s0-0.1,0.1-0.1c0-0.1,0-0.1,0-0.2c0,0,0.1-0.1,0-0.2l0.1-0.1v-0.1c0-0.1,0-0.1,0.1-0.2
	s0.1-0.1,0.1-0.2c0-0.1,0.1-0.2,0.1-0.3s0-0.2,0.1-0.2c0-0.2,0-0.3,0.1-0.4c0.1-0.1,0.1-0.2,0.1-0.4v-0.1c0,0,0-0.1,0.1-0.2
	c0.1-0.2,0.1-0.4,0.2-0.6c0.1-0.2,0.1-0.4,0.1-0.6c0-0.1,0.1-0.2,0.1-0.3s0.1-0.2,0.1-0.3s0.1-0.1,0.1-0.2c0-0.1,0.1-0.2,0.1-0.3
	s0-0.2,0.1-0.3c0,0,0,0,0-0.1c0,0,0,0,0.1-0.1l0.1-0.2l0.1-0.4c0-0.1,0.1-0.2,0.2-0.3c0.1-0.1,0.1-0.2,0.1-0.3v-0.1v-0.1v-0.1v-0.1
	v-0.1v-0.4c0-0.2,0.1-0.3,0.1-0.3c0-0.1,0-0.1,0-0.2c0,0,0-0.1,0-0.2c0.1-0.3,0.2-0.6,0.3-0.9s0.2-0.6,0.3-1c0.1,0,0.2,0,0.3,0
	s0.1,0,0.2-0.1l0,0l0,0c0.1,0,0.1,0,0.2,0L89,9.9l0,0l0,0h-0.1h-0.1c-0.1,0-0.1,0-0.2,0c0,0,0.1-0.1,0.2-0.1s0.2,0,0.3-0.1l0,0l0,0
	h0.2l0,0l0,0l0,0l0,0c0.1,0,0.2-0.1,0.3,0c0.1,0,0.2,0,0.2-0.1c0,0.1,0.1,0.1,0.2,0.1V9.6l0,0l0,0c0,0,0,0,0-0.1h0.1
	c0,0,0-0.1,0.1-0.1s0.2,0,0.2,0c0.1,0,0.2,0,0.3,0s0.2,0,0.3-0.1c-0.1,0-0.2,0-0.4,0s-0.3,0-0.4,0c0,0,0,0-0.1,0c0,0,0,0-0.1,0h-0.1
	h-0.1c0,0,0,0-0.1,0l0,0l0,0h-0.1c0-0.1,0.1-0.1,0.2-0.1c0.1,0,0.2,0,0.2-0.1h0.1h0.1V9c0.1,0,0.2,0,0.4,0c0.1,0,0.2,0,0.3,0H91
	c0.1,0,0.2,0,0.2-0.1l0,0h-0.1V8.8H91c-0.1,0-0.1,0-0.1,0l0,0l0,0h-0.1h-0.1l0,0l0,0c-0.4,0-0.8-0.1-1.3,0c-0.4,0-0.9,0-1.3,0
	c0-0.1,0.1-0.2,0.1-0.2l0,0l0,0c0.1-0.2,0.1-0.3,0.2-0.5c0-0.2,0.1-0.3,0.1-0.5s0.1-0.3,0.2-0.5c0.1-0.2,0.1-0.3,0.2-0.5
	C89,6.4,89,6.1,89.1,5.9c0.1-0.2,0.1-0.5,0.2-0.8c0-0.1,0-0.2,0-0.3V4.7V4.6c0,0,0,0,0-0.1c0,0,0,0,0-0.1c0-0.2,0.1-0.4,0-0.7
	c0-0.3,0-0.5,0-0.7V2.9c0,0,0,0,0-0.1c0,0,0-0.1-0.1-0.2V2.5c0,0,0,0,0-0.1l-0.1-0.1L89,2.2c0,0-0.1-0.1-0.1-0.2
	c0-0.1-0.1-0.1-0.1-0.1h-0.1l-0.1-0.1c-0.1-0.1-0.1-0.2-0.2-0.2h-0.1C88,2.2,87.9,2.2,87.8,2.3 M76.8,20.2L76.8,20.2
	C76.9,20.2,76.9,20.2,76.8,20.2L76.8,20.2L76.8,20.2z M74.5,10.6c0-0.1,0.1-0.1,0.2-0.1c0.1,0,0.2,0.1,0.3,0.2
	c0.1,0.1,0.1,0.2,0.1,0.2s0,0.1-0.1,0.1c0,0.2-0.1,0.3-0.1,0.5s-0.1,0.4-0.1,0.5c-0.2,0.1-0.5,0.1-0.8,0.1c-0.1,0-0.2,0-0.4-0.1
	c-0.1-0.1-0.1-0.1-0.1-0.1c0-0.1,0-0.1,0.1-0.2l0,0l0,0l0.1-0.1c0-0.1,0.1-0.2,0.1-0.2c0-0.1,0.1-0.1,0.1-0.2c0-0.1,0.1-0.2,0.2-0.4
	C74.4,10.8,74.4,10.7,74.5,10.6 M78,22.2h0.2c0.1,0,0.1-0.1,0.1-0.1l0,0l0,0c0.1,0,0.2,0,0.3-0.1c0.1,0,0.2-0.1,0.2-0.1
	c0.1,0,0.2-0.1,0.3-0.2s0.1-0.1,0.2-0.2l0.1-0.1c0,0,0.1,0,0.1-0.1c0.1-0.1,0.3-0.2,0.3-0.3c0.1-0.1,0.2-0.2,0.3-0.3
	c0-0.1,0.1-0.2,0.2-0.3c0.1-0.1,0.2-0.2,0.2-0.3c0.2-0.2,0.5-0.4,0.7-0.7c0.2-0.2,0.5-0.5,0.7-0.7c0.1-0.1,0.1-0.1,0.2-0.2
	c0.1,0,0.1-0.1,0.2-0.2c0,0,0,0,0-0.1c0,0,0,0,0-0.1c0.1-0.1,0.1-0.1,0.2-0.2c0.1-0.1,0.2-0.1,0.2-0.2c0-0.1,0.1-0.1,0.1-0.2
	c0-0.1,0.1-0.1,0.1-0.1l0.1-0.1v-0.1l0,0c0,0,0-0.1,0-0.2v-0.1l0,0v-0.1c0-0.1,0.1-0.1,0.1-0.2C83,16.5,83,16.5,83,16.5s0,0,0-0.1
	v-0.1c0-0.1,0-0.1,0.1-0.2c0,0-0.1,0-0.1-0.1s-0.1,0-0.1,0h-0.1c-0.1,0-0.2,0-0.2,0.1s-0.1,0.1-0.2,0.2c-0.1,0.1-0.3,0.2-0.4,0.4
	c-0.1,0.1-0.3,0.2-0.4,0.4c-0.3,0.2-0.6,0.5-0.8,0.7c-0.3,0.2-0.5,0.5-0.8,0.7c0,0-0.1,0-0.1,0.1c0,0,0,0-0.1,0.1h-0.1
	c0,0,0,0-0.1,0c-0.2,0.1-0.4,0.3-0.6,0.4c-0.2,0.1-0.4,0.3-0.6,0.4l-0.1,0.1c-0.1,0-0.1,0.1-0.2,0.1c-0.1,0-0.1,0-0.1-0.1
	s0-0.1,0-0.2v-0.1l0,0l0.1-0.1v-0.1c0-0.1,0-0.1,0-0.1c0-0.1,0-0.2,0.1-0.4c0-0.1,0-0.3,0-0.4v-0.1c0,0,0,0,0-0.1l0,0l0,0v-0.1
	c0,0,0,0,0-0.1c0,0,0,0,0-0.1v-0.2c0-0.2,0.1-0.3,0.1-0.5c0-0.1,0.1-0.3,0.1-0.5c0-0.1,0-0.1,0-0.1v-0.1l0,0v-0.1
	c0-0.1,0.1-0.1,0.1-0.2v-0.1v-0.1v-0.1v-0.1c0-0.1,0.1-0.2,0.1-0.2v-0.1v-0.1l0.1-0.1c0.1-0.2,0.2-0.4,0.3-0.6
	c0.1-0.2,0.2-0.4,0.3-0.6l0.1-0.1v-0.1c0,0,0,0,0-0.1s0.1-0.2,0.1-0.2c0-0.1,0.1-0.1,0.1-0.2l0,0l0,0c0,0,0,0,0.1-0.1l0.1-0.1
	c0,0,0-0.1,0.1-0.2c0,0,0-0.1,0.1-0.1c0,0,0,0,0.1-0.1c0-0.1,0.1-0.2,0.1-0.3v-0.1v-0.1c0,0,0,0,0-0.1c0,0,0,0,0-0.1
	c0.1-0.2,0.1-0.4,0.1-0.6c0-0.2-0.1-0.4-0.2-0.5H80l0,0l0,0c-0.2-0.2-0.3-0.4-0.5-0.5c0,0-0.1-0.1-0.2-0.2c-0.1,0-0.2,0-0.3,0
	s-0.2,0-0.3,0.1c-0.1,0-0.2,0.1-0.3,0.1s-0.2,0.1-0.3,0.1c-0.4,0.2-0.9,0.4-1.3,0.6c-0.4,0.2-0.9,0.4-1.3,0.6
	c-0.1,0-0.2,0.1-0.3,0.1s-0.2,0.1-0.3,0.1c0-0.1,0-0.2,0.1-0.3c0-0.1,0-0.2,0.1-0.3V11c0-0.1,0.1-0.1,0.1-0.2c0-0.1,0-0.1,0.1-0.2
	v-0.1v-0.1c0,0,0.1-0.1,0.1-0.2l-0.1-0.1c0.1-0.1,0.1-0.3,0-0.4s-0.1-0.2-0.2-0.3c-0.1-0.1-0.2-0.1-0.3-0.2S74.6,9.1,74.6,9h-0.1
	l0,0c0,0-0.1,0-0.1,0.1s0,0,0,0.1c-0.2,0-0.3,0.1-0.5,0.1s-0.3,0-0.5,0.1c-0.1,0-0.2,0-0.2,0c-0.1,0-0.1,0-0.2,0
	c-0.1,0-0.2,0.1-0.3,0.2c-0.1,0.1-0.2,0.1-0.3,0.2c-0.2,0.2-0.4,0.5-0.6,0.9c0,0.1-0.1,0.1-0.1,0.2c0,0-0.1,0.1-0.1,0.2
	c0,0.1,0,0.2-0.1,0.2c0,0.1,0,0.1,0,0.2v0.1c0,0.1,0,0.1,0,0.1l0,0c0,0,0,0,0,0.1s0,0.2,0,0.4c0,0.1,0,0.2,0.1,0.3l0.1,0.1l0.1,0.1
	c0,0,0,0.1,0.1,0.1l0.1,0.1c0.3,0.2,0.7,0.4,1.2,0.4c-0.1,0.2-0.1,0.3-0.2,0.4c-0.1,0.2-0.2,0.4-0.3,0.5c-0.1,0.2-0.2,0.4-0.3,0.5
	s-0.1,0.2-0.2,0.4c-0.1,0.1-0.1,0.3-0.2,0.4c0,0.1-0.1,0.1-0.1,0.2c0,0-0.1,0.1-0.1,0.2c0,0-0.1,0.1-0.1,0.2c0,0,0,0.1-0.1,0.1
	c0,0,0,0-0.1,0.1v0.1c0,0,0,0,0,0.1s-0.1,0.1-0.1,0.2c0,0.1-0.1,0.1-0.1,0.2c0,0.1-0.1,0.2-0.1,0.3c-0.1,0.1-0.1,0.2-0.1,0.2v0.1
	c0,0,0,0.1-0.1,0.1c0,0-0.1,0-0.1,0.1l0,0H71l0,0c0,0,0,0,0.1,0c0,0.1,0,0.2,0.1,0.4c0.1,0.1,0.2,0.2,0.3,0.1c0.1,0,0.1,0,0.1-0.1
	c0.1,0,0.2-0.1,0.4-0.2c0.1,0,0.1-0.1,0.2-0.1c0.1,0,0.1-0.1,0.2-0.1c0.1-0.1,0.2-0.2,0.2-0.2c0.1-0.1,0.1-0.1,0.2-0.2
	c0-0.1,0-0.1,0.1-0.2c0,0,0-0.1,0.1-0.1c0.1-0.1,0.1-0.2,0.2-0.4c0,0,0,0,0-0.1c0,0,0,0,0-0.1s0.1,0,0.1-0.1h0.1c0-0.1,0-0.1,0-0.1
	s0.1-0.1,0.2-0.2c-0.1,0.1-0.1,0.1-0.1,0.2c0.1-0.3,0.2-0.5,0.4-0.8v-0.1c0,0,0-0.1,0.1-0.1l0.1-0.1l0.1-0.1c0-0.1,0-0.2,0-0.2
	s0-0.1,0.1-0.1v-0.1c0,0,0,0,0-0.1c0,0,0.1-0.1,0.1-0.2c0-0.1,0-0.1,0-0.1c0-0.1,0-0.2,0.1-0.2c0-0.1,0.1-0.1,0.1-0.2
	c0.1-0.2,0.2-0.3,0.2-0.3c0.5-0.2,0.9-0.3,1.3-0.5c0.4-0.2,0.9-0.3,1.3-0.4c0,0.1,0,0.2-0.1,0.3c-0.1,0.2-0.1,0.3-0.2,0.4
	c-0.1,0.1-0.1,0.3-0.2,0.4c0,0.1-0.1,0.2-0.1,0.3c-0.1,0.1-0.1,0.2-0.1,0.3s-0.1,0.2-0.1,0.2c0,0.1-0.1,0.2-0.1,0.2
	c0,0.1,0,0.1,0,0.2L76.4,15v0.1v0.1c0,0,0,0,0,0.1l-0.1,0.2c0,0.1-0.1,0.1-0.1,0.2c0,0.1,0,0.1-0.1,0.2c0,0.1-0.1,0.2-0.1,0.4
	c0,0.1-0.1,0.3-0.1,0.4c0,0.1-0.1,0.3-0.1,0.4c0,0.1,0,0.3,0,0.4l-0.1,0.9c0,0.1,0,0.1-0.1,0.2c0,0.1,0,0.1,0,0.2
	c0,0.2-0.1,0.4,0,0.7c0,0.2,0.1,0.4,0.1,0.6c0.1,0.4,0.2,0.7,0.4,1l0.1,0.1l0.1,0.1l0.1,0.1c0,0,0.1,0,0.1,0.1c0,0,0.1,0.1,0.1,0.2
	s0.1,0.1,0.1,0.2s0.1,0.2,0.2,0.3C77.7,22.1,77.8,22.2,78,22.2L78,22.2z M70.5,15.4c0-0.2,0.1-0.4,0.1-0.7c0.1-0.2,0.1-0.5,0.1-0.8
	c0,0,0,0,0.1,0c0,0,0,0,0.1,0L70.5,15.4z M69.4,15.9c0,0.2-0.1,0.3-0.2,0.5c-0.1,0.2-0.2,0.3-0.2,0.5s-0.2,0.3-0.3,0.5
	s-0.1,0.3-0.1,0.5s-0.1,0.3-0.2,0.4c0,0-0.1,0-0.1,0.1s-0.1,0.1-0.1,0.1h-0.1l0,0l0,0c-0.1,0.2-0.2,0.3-0.4,0.4
	c-0.2,0.1-0.3,0.3-0.4,0.4c-0.2,0.1-0.3,0.2-0.5,0.2s-0.4,0.1-0.6,0.1c-0.2,0-0.3,0.1-0.5,0.1s-0.3,0-0.5-0.1
	c-0.1-0.1-0.2-0.2-0.3-0.3s-0.3-0.2-0.3-0.3v-0.1c0-0.1,0-0.1-0.1-0.2c0-0.1,0-0.1-0.1-0.1v-0.1v-0.1c0-0.1,0-0.2,0-0.2
	c0-0.1,0-0.2,0-0.3c0.1-0.2,0.1-0.3,0.1-0.5s0-0.3,0.1-0.4c0-0.1,0-0.2,0-0.4c0.1-0.2,0.1-0.4,0.3-0.6c0.1-0.2,0.2-0.4,0.4-0.6
	c0.1-0.1,0.2-0.3,0.3-0.5s0.2-0.4,0.3-0.6l0.1-0.1c0,0,0.1-0.1,0.1-0.2c0.2,0,0.3-0.1,0.3-0.3c0.1-0.2,0.2-0.3,0.3-0.5
	c0-0.1,0.1-0.1,0.1-0.2c0.1-0.1,0.1-0.1,0.2-0.2c0.1-0.1,0.1-0.2,0.1-0.3s0.1-0.2,0.1-0.3c0.1,0.1,0.2,0.2,0.3,0.4
	c0.1,0.1,0.2,0.2,0.3,0.3s0.2,0.2,0.3,0.2c0,0,0.1,0.1,0.2,0.1c0.1,0.1,0.2,0.2,0.3,0.3s0.2,0.1,0.3,0.1c0.1,0.1,0.2,0.1,0.4,0.2
	s0.3,0.1,0.5,0.1c0,0.2,0,0.3,0,0.4c0,0.1-0.1,0.2-0.2,0.4c0,0.2-0.1,0.3-0.1,0.5s-0.1,0.3-0.1,0.4C69.4,15.6,69.4,15.8,69.4,15.9
	 M69,11.1c0,0.1,0,0.2,0,0.3l0.1,0.2c0,0,0.1,0.1,0.1,0.2c0,0.1,0,0.1,0.1,0.2c0,0.1,0.1,0.1,0.1,0.2s0.1,0.2,0.2,0.3v0.1
	c0,0-0.1,0-0.2,0s-0.1,0-0.1-0.1c-0.2-0.1-0.3-0.2-0.5-0.3c-0.1-0.1-0.3-0.3-0.4-0.5c0-0.1,0-0.3,0-0.4c0-0.2,0.2-0.2,0.3-0.3
	C68.9,11,68.9,11,69,11.1 M74.9,11.7h-0.1c-0.1,0-0.1,0.1-0.2,0.1c-0.1,0-0.2,0.1-0.3,0c-0.1,0.1-0.3,0.2-0.5,0.3s-0.5,0.2-0.8,0.3
	c-0.1,0-0.2,0.1-0.4,0.1s-0.3,0-0.5,0s-0.4,0-0.5,0c-0.2,0-0.3,0-0.4,0c-0.1,0-0.1,0-0.1,0s-0.1,0-0.2,0l-0.1-0.1c0,0,0,0-0.1,0
	c0-0.1,0-0.2-0.1-0.3V12c0-0.1,0-0.1-0.1-0.2c0,0.1,0,0.2,0.1,0.3c0,0.1,0,0.2,0,0.3c-0.1,0-0.1,0-0.1-0.1s0-0.1,0-0.2
	c0-0.1-0.1-0.2-0.1-0.4s-0.1-0.2-0.1-0.3c-0.1,0-0.2-0.1-0.2-0.3c0-0.1-0.1-0.2-0.1-0.3s-0.1-0.2-0.1-0.3s-0.1-0.2-0.1-0.3l-0.2-0.1
	V10V9.9c-0.1,0-0.1,0-0.2,0h-0.1l0.1,0.1c0,0,0,0.1-0.1,0.1s-0.1,0-0.1,0h-0.1c0,0-0.1,0-0.1,0.1c0,0,0,0-0.1,0
	c-0.1-0.1-0.2-0.1-0.3-0.1s-0.2,0-0.3,0c-0.1,0.1-0.2,0.1-0.3,0.3c-0.1,0.1-0.2,0.1-0.4,0c0,0-0.1,0.1-0.1,0.2
	c0,0.1-0.1,0.1-0.1,0.1c0-0.2,0-0.3,0-0.4s-0.1-0.2-0.2-0.3c-0.1-0.1-0.3-0.2-0.5-0.3s-0.4-0.1-0.6,0l0,0H66
	c-0.2,0.1-0.4,0.2-0.5,0.4s-0.3,0.3-0.5,0.4c-0.2,0.2-0.3,0.4-0.5,0.5c-0.1,0.2-0.3,0.4-0.4,0.6c-0.5,0.6-1,1.4-1.4,2.3
	c-0.4,0.9-0.7,1.9-0.7,2.9l0,0c0,0.1,0,0.2,0,0.3s0,0.2-0.1,0.3c0,0.2,0.1,0.3,0.1,0.5s0.1,0.3,0.1,0.5v0.2l0.1,0.1
	c0.1,0.4,0.3,0.7,0.4,1.2s0.3,0.7,0.7,0.9c0.2,0.2,0.4,0.4,0.6,0.6c0.2,0.2,0.5,0.3,0.8,0.4c0.2,0.1,0.3,0.1,0.5,0
	c0.2,0,0.3-0.1,0.4-0.1l0,0l0,0c0.3,0,0.5,0,0.7-0.2c0.2-0.1,0.4-0.2,0.7-0.3c0.1-0.1,0.2-0.2,0.4-0.3s0.3-0.2,0.4-0.3
	c0.1-0.2,0.2-0.2,0.2-0.3c0,0,0.1-0.1,0.2-0.1s0.1-0.1,0.1-0.2c0,0,0-0.1,0.1-0.1c0-0.1,0.1-0.1,0.1-0.2c0.1-0.1,0.1-0.2,0.1-0.3
	s0.1-0.2,0.1-0.3c0.1-0.2,0.2-0.3,0.3-0.5c0.1-0.1,0.2-0.3,0.3-0.5c0-0.1,0.1-0.2,0.1-0.4s0.1-0.3,0.1-0.4v0.1l0,0
	c0.1-0.1,0.1-0.2,0.1-0.2s0.1-0.1,0.1-0.2c0.1-0.2,0.2-0.4,0.2-0.5v-0.1c0,0,0,0,0-0.1c0-0.2,0.1-0.3,0.2-0.5
	c0.1-0.2,0.2-0.3,0.2-0.5c0,0.2-0.1,0.3-0.1,0.3c0,0.1-0.1,0.2-0.1,0.3c0.2-0.4,0.3-0.7,0.3-1c0.1-0.3,0.1-0.7,0.2-1.1
	c0.1,0,0.3,0,0.6,0s0.6-0.1,1-0.1c0.4-0.1,0.7-0.2,1.1-0.3c0.4-0.1,0.7-0.3,1-0.5c0,0,0-0.1,0.1-0.1s0.1-0.1,0.1-0.2
	c0.2-0.1,0.3-0.2,0.3-0.4c0.1-0.1,0-0.2,0-0.3C75,11.8,75,11.7,74.9,11.7 M56.8,17.8L56.8,17.8c-0.4,0.5-0.7,1.1-1.1,1.6
	c-0.3,0.5-0.8,0.9-1.3,1.2c-0.2,0-0.4,0-0.6,0s-0.3-0.1-0.4-0.2c0-0.1,0-0.2,0-0.3s0-0.2,0-0.3c0.1-0.1,0.1-0.3,0.2-0.4
	c0-0.1,0.1-0.3,0.2-0.4c0.1-0.1,0.2-0.1,0.2-0.3s0.1-0.2,0.2-0.3c0.1-0.1,0.2-0.2,0.4-0.2s0.3-0.1,0.5-0.1s0.5-0.1,0.8-0.2
	C56.2,17.9,56.4,17.8,56.8,17.8L56.8,17.8z M57.2,21.5c-0.1,0-0.1,0-0.1-0.1L57.2,21.5 M57.7,16.2c-0.1,0.2-0.2,0.5-0.4,0.7
	c-0.2,0-0.3,0.1-0.5,0.1s-0.3,0.1-0.5,0.1c0,0-0.1-0.1-0.2-0.1c0,0-0.1,0-0.2,0s-0.1,0-0.1,0s0,0-0.1,0h-0.1h-0.1c0,0,0,0-0.1,0
	s-0.2,0-0.4-0.1c-0.1-0.1-0.2-0.1-0.3,0c-0.1,0-0.3,0-0.4,0s-0.2,0.1-0.3,0c0-0.2,0-0.4,0.1-0.6s0.1-0.4,0.2-0.6
	c0-0.1,0.1-0.2,0-0.3c0-0.1,0-0.2,0-0.4c0-0.1,0-0.2,0-0.3c0.1-0.1,0.1-0.1,0.1-0.2c0.3-0.4,0.6-0.8,0.8-1.2s0.6-0.7,1-1h0.1
	c0.3-0.2,0.6-0.4,0.9-0.5c0.3-0.1,0.6-0.2,1-0.3c0,0,0,0.1,0,0c0,0,0,0-0.1,0s-0.2,0.1-0.3,0.1s-0.2,0.1-0.2,0.1
	c0.1,0,0.3,0,0.4-0.1c0.1,0,0.2-0.1,0.4-0.1c0,0,0-0.1,0,0l0,0l0.1-0.1c0.1,0,0.1,0,0.1,0.1h-0.1h-0.1c0.1,0,0.1,0,0.2,0
	c0.1,0,0.1,0,0.2,0c0.1,0.3,0.1,0.6,0,1s-0.2,0.6-0.3,0.9c-0.1,0.2-0.2,0.4-0.2,0.6s-0.1,0.4-0.2,0.6c0,0.1-0.1,0.2-0.1,0.3
	c-0.1,0.1-0.1,0.2-0.1,0.3C57.9,15.7,57.8,16,57.7,16.2 M57.4,21.1C57.4,21,57.4,21,57.4,21.1c0-0.1,0.1-0.1,0.1-0.2
	C57.6,21,57.5,21.1,57.4,21.1 M57.5,21.1L57.5,21.1L57.5,21.1c0.1-0.1,0.1-0.1,0.2-0.1c0,0,0.1-0.1,0.1-0.2l0,0l0,0
	c0,0,0.1,0,0.1-0.1c0,0,0-0.1,0.1-0.1l0,0l0,0l0,0l0,0c0.2-0.3,0.4-0.5,0.5-0.8c0.2-0.2,0.3-0.5,0.5-0.8v-0.1l0.1-0.1v-0.1l0,0l0,0
	c0.1-0.2,0.1-0.3,0.2-0.4c0.1-0.1,0.1-0.3,0.2-0.4c0,0,0.1-0.1,0.1-0.2c0-0.1,0.1-0.2,0.1-0.2l0,0c0,0,0,0-0.1,0
	c0-0.1,0.1-0.1,0.1-0.1l0.1-0.1h0.1c0-0.1,0.1-0.1,0.1-0.1c0.2-0.1,0.4-0.1,0.7-0.2c0.2,0,0.4-0.1,0.7-0.1c0.2,0,0.4-0.1,0.7-0.1
	c0.3-0.1,0.5-0.1,0.6-0.1s0.3-0.1,0.6-0.2c0.2-0.2,0.4-0.3,0.5-0.5c0.2-0.2,0.3-0.3,0.6-0.4v-0.2c0,0-0.1,0-0.1-0.1s0,0-0.1-0.1
	c0,0,0,0-0.1,0c-0.1-0.1-0.3-0.1-0.4,0c-0.1,0-0.2,0.1-0.3,0.1c-0.4,0.1-0.8,0.1-1,0.2c-0.2,0.1-0.4,0.1-0.6,0.2
	c-0.2,0.1-0.4,0.1-0.6,0.2C61,16,60.7,16,60.3,16.1c0-0.1,0-0.1,0-0.1s0,0,0-0.1c0,0-0.1,0-0.1,0.1s0,0.1-0.1,0.1
	c0-0.4,0.1-0.7,0.2-1s0.2-0.6,0.2-1l0,0l0,0V14v-0.1l0,0c0-0.1,0-0.1,0.1-0.1v-0.1c0,0,0,0,0-0.1c0,0,0.1,0,0,0v-0.1c0,0,0-0.1,0,0
	l0,0c0,0,0,0,0.1-0.1v-0.1v0.1c0-0.2,0-0.3,0.1-0.6c0-0.2,0-0.4,0-0.5l0,0v-0.1c0,0,0-0.1-0.1-0.1c0-0.1,0-0.2,0-0.3s0-0.2-0.1-0.3
	c0,0,0-0.1-0.1-0.1v-0.1c0,0,0,0-0.1-0.1c0,0,0,0,0-0.1s0,0,0-0.1c0,0,0,0-0.1,0c0,0-0.1,0-0.1-0.1l-0.1-0.1L60,10.7c0,0,0,0-0.1,0
	s-0.1,0-0.1,0c-0.2-0.1-0.5-0.2-0.9-0.2s-0.7,0-1,0.1c-0.1-0.1-0.1-0.1,0-0.2c-0.4,0.1-0.7,0.4-1,0.6c-0.3,0.3-0.6,0.5-0.8,0.8
	c-0.1,0.2-0.2,0.3-0.3,0.4c-0.1,0.1-0.2,0.2-0.4,0.4c0,0.1-0.1,0.2-0.1,0.2c0,0.1-0.1,0.1-0.2,0.2L55,12.9c0.1-0.4,0.2-0.7,0.3-1.1
	c0.1-0.4,0.2-0.8,0.3-1.2c0-0.2,0.1-0.4,0-0.6s0-0.4-0.1-0.6c0-0.1,0-0.2,0-0.2c0-0.1,0-0.2-0.1-0.3c0-0.1-0.1-0.1-0.1-0.2
	c-0.1-0.1-0.2-0.2-0.3-0.4c-0.1-0.1-0.2-0.2-0.4-0.2C54.6,8,54.5,8,54.5,8l-0.1-0.1c-0.2,0-0.5,0-0.8,0S53.1,8.1,53,8.3l0,0h-0.1
	c-0.1,0.1-0.1,0.2-0.2,0.2c0,0.1-0.1,0.2-0.1,0.3c-0.1,0-0.1,0.1-0.1,0.2c0,0.1,0,0.1-0.1,0.2c0,0.1,0,0.1-0.1,0.2
	c0,0,0,0.1-0.1,0.1l-0.1,0.1v0.2c0,0.2-0.1,0.4-0.1,0.6c0,0.2-0.1,0.4-0.1,0.6c-0.1,0.5-0.1,0.9-0.2,1.4c0,0.5-0.1,0.9-0.2,1.4
	c-0.1,0.8-0.3,1.5-0.5,2.2s-0.3,1.5-0.5,2.2c-0.1,0.5-0.2,1-0.4,1.5c-0.1,0.5-0.2,1-0.4,1.5c-0.1,0.4-0.2,0.8-0.3,1.1
	c-0.1,0.4-0.2,0.7-0.3,1.1c-0.2,0.7-0.3,1.4-0.4,2c-0.1,0.6-0.3,1.3-0.4,2c0,0.1-0.1,0.1-0.1,0.1s0,0.1-0.1,0.2
	c0,0.2-0.1,0.4-0.1,0.5s0,0.2,0,0.5l0.1,0.1c0,0,0.1-0.1,0-0.2c0-0.1,0-0.1,0-0.1c0,0.1,0,0.1,0,0.1s0,0,0,0.1s0,0.1,0,0.1l0,0
	c0,0,0,0,0-0.1c0,0.1,0,0.2,0.1,0.2V29v0.1c0-0.1,0-0.1,0-0.2v-0.1c0,0,0.1,0.1,0.1,0.3s0,0.2,0.1,0.3l0.1-0.1v-0.1l0,0l0,0
	c0-0.1,0-0.1,0.1-0.1c0,0,0.1,0,0.1-0.1c0,0,0,0,0,0.1s0,0,0.1,0c0-0.1,0-0.1,0.1,0c0,0.1,0.1,0.1,0.1,0s0.1-0.1,0.1-0.2
	s0-0.1,0.1-0.1c0.1-0.1,0.2-0.1,0.2,0c0.1,0,0.1,0.1,0.2,0.1c0.1,0,0.1,0.1,0.2,0.1c0.1,0,0.1,0,0.2-0.2c0,0,0,0,0-0.1
	c0,0,0,0,0.1-0.1c0.1-0.2,0.1-0.3,0.2-0.4s0.1-0.2,0.2-0.3c0.1-0.1,0.1-0.2,0.2-0.3c0-0.1,0.1-0.2,0.1-0.4h0.1c0,0,0,0,0.1-0.1V27
	l0.1-0.1c0,0,0-0.1,0.1-0.1c0-0.2,0.1-0.3,0.1-0.4c0.1-0.1,0.1-0.2,0.1-0.4c0.1-0.5,0.3-1,0.4-1.5c0.2-0.5,0.3-1.1,0.3-1.6
	c0-0.1,0-0.2,0-0.2c0-0.1,0-0.1,0-0.2c0.1-0.1,0.1-0.3,0.1-0.5s0.1-0.3,0.2-0.4c0.1,0,0.2,0,0.2,0.1l0.1,0.1v0.1c0,0,0,0,0,0.1
	c0,0,0.1,0.1,0.2,0.3H53c0,0.1,0,0.1,0,0.1h0.1h0.1c0,0,0,0.1,0,0l0,0c0,0.1,0,0.1-0.1,0.1c0,0-0.1,0-0.1,0.1c0.1,0,0.2,0.1,0.3,0.1
	c0.1,0.1,0.2,0.1,0.3,0.1c0,0.1,0,0.1-0.1,0.1c0.1,0,0.2,0,0.3,0s0.2,0,0.3,0c0.2,0,0.3,0,0.5-0.1s0.3-0.2,0.4-0.3h0.1
	c0,0,0,0,0-0.1c0,0,0,0,0.1,0s0.2,0,0.2-0.1c0.1-0.1,0.2-0.1,0.3-0.1l0.1,0.1c0.1-0.1,0.2-0.1,0.2-0.2c0.1-0.1,0.1-0.1,0.2-0.1
	c0-0.1,0-0.1,0.1-0.2c0,0,0.1,0.1,0.1,0c0.1-0.1,0.2-0.2,0.2-0.4c0.2,0,0.4-0.1,0.4-0.4l0,0l0,0C57.4,21.3,57.4,21.2,57.5,21.1
	 M40.5,23.5c0,0-0.1,0-0.1-0.1C40.5,23.4,40.5,23.4,40.5,23.5 M45.6,18.3c0,0.5-0.1,1-0.2,1.4s-0.3,0.8-0.4,1.2
	c-0.1,0.2-0.1,0.2-0.1,0.3l0,0l-0.1,0.2c-0.1,0.1-0.1,0.1-0.1,0.2l-0.1,0.1c0,0.1-0.1,0.1,0,0.2c-0.2,0.2-0.4,0.4-0.7,0.6
	s-0.5,0.4-0.8,0.5c-0.1,0-0.2,0.1-0.3,0.1s-0.2,0-0.3,0h-0.1c0,0-0.1-0.1-0.2-0.1l0,0c0,0,0,0,0-0.1c0,0-0.1,0.1-0.1,0l0,0
	c0,0,0,0.1,0.1,0.1c0,0,0.1,0,0,0.1h-0.1c0,0-0.1,0-0.1-0.1v0.1c0,0-0.1-0.1-0.2-0.1c-0.1,0-0.1,0-0.2-0.1c0.1-0.2,0.1-0.3,0.1-0.5
	s0-0.3,0-0.4v-0.1c0,0,0,0,0-0.1l0,0v0.1c0-0.1,0-0.2,0-0.3c0-0.1,0-0.2,0-0.2v0.1c0,0.1,0,0.1,0,0.1s0.1,0,0.1-0.2
	c0.1-0.1,0.1-0.2,0.2-0.3c0.1-0.1,0.1-0.2,0.2-0.3c0.1-0.1,0.1-0.2,0.2-0.2s0.1-0.1,0.2-0.2c0,0,0,0,0.1,0s0.1-0.1,0.1-0.1
	c0.1-0.1,0.2-0.2,0.4-0.3c0.1-0.1,0.3-0.3,0.5-0.4c0.1-0.1,0.2-0.1,0.3-0.2s0.2-0.2,0.3-0.2c0,0,0,0,0.1,0c0.2-0.1,0.3-0.2,0.4-0.2
	c0.1-0.1,0.2-0.2,0.4-0.2v-0.1c0.1,0,0.2-0.1,0.3-0.2c0.1-0.1,0.2-0.1,0.3-0.2c0,0,0,0.1,0,0.2C45.7,18.3,45.7,18.3,45.6,18.3
	L45.6,18.3z M52.6,13.2C52.7,13.2,52.7,13.2,52.6,13.2c-0.1,0.2-0.4,0.4-0.8,0.7c-0.4,0.3-0.9,0.6-1.4,0.8c-0.5,0.3-1,0.5-1.4,0.7
	c-0.5,0.2-0.8,0.3-1,0.3c-0.1-0.2-0.1-0.3-0.2-0.5c0-0.2-0.1-0.3-0.1-0.5c-0.1-0.4-0.2-0.9-0.4-1.4s-0.3-1-0.4-1.4
	c0,0-0.1-0.1-0.1-0.2v-0.2c0-0.1-0.1-0.2,0-0.2c0-0.1,0-0.2,0-0.3s0-0.2,0-0.3s0-0.2,0-0.4c-0.1-0.2-0.1-0.4-0.1-0.5
	c-0.1-0.1-0.2-0.2-0.2-0.3s0-0.3,0-0.5c-0.1-0.2-0.3-0.2-0.5-0.1c0,0-0.1,0-0.1-0.1s-0.1-0.1-0.1-0.1c0,0.1,0,0.1,0,0h-0.1
	c-0.1,0-0.1-0.1-0.2-0.1c-0.1,0-0.1,0-0.2,0c-0.1,0-0.2,0.1-0.2,0.2C45,8.9,45,8.9,44.9,9c-0.1,0.2-0.2,0.4-0.3,0.5
	c0,0.1,0,0.2-0.1,0.3c0,0.1-0.1,0.2-0.1,0.2c-0.1,0.2,0,0.4,0.1,0.6c0.1,0.2,0.2,0.5,0.4,0.7s0.2,0.5,0.3,0.7s0.1,0.4-0.1,0.4
	c0,0.1-0.1,0.2-0.2,0.3s-0.2,0.3-0.3,0.4c-0.1,0.1-0.2,0.2-0.3,0.3s-0.2,0.2-0.2,0.2c-0.1,0.2-0.2,0.3-0.3,0.4
	c-0.1,0.1-0.1,0.2-0.2,0.3c-0.1,0.1-0.1,0.2-0.2,0.3c-0.1,0.1-0.2,0.3-0.4,0.4c-0.1,0.2-0.2,0.3-0.2,0.3c0,0.1-0.1,0.2-0.3,0.4
	c0,0,0,0.1-0.1,0.1c-0.1,0.1-0.2,0.2-0.3,0.3s-0.2,0.2-0.3,0.3s-0.1,0.1-0.1,0.2c-0.1,0.1-0.2,0.2-0.3,0.2c-0.1,0.1-0.1,0.2-0.2,0.3
	c-0.1,0.2-0.3,0.4-0.6,0.6c-0.3,0.2-0.4,0.3-0.5,0.5c0,0,0.1,0,0.2,0c0.1,0,0.2,0,0.3,0l0,0l0.1-0.1l0.1,0.1c0.1,0,0,0,0,0.1
	c0,0,0,0.1-0.1,0.1c0,0-0.1,0,0,0v0.1c0,0,0,0,0,0.1c0,0,0.1-0.1,0.2-0.1c0.1-0.1,0.1-0.1,0.1-0.1s0.1,0,0,0l0,0c0,0,0,0-0.1,0
	s-0.1,0,0,0c0,0,0,0,0.1,0.1c0.1-0.1,0.2-0.2,0.2-0.3s0.1-0.1,0.2-0.2c0.1,0,0.1-0.1,0.1-0.1c0.1,0,0.3-0.1,0.4-0.1s0.2-0.2,0.2-0.3
	c0,0,0,0,0.1-0.1s0.2-0.2,0.3-0.2c0.1-0.1,0.2-0.2,0.4-0.3c0.2-0.2,0.3-0.3,0.3-0.4c0.1-0.1,0.2-0.2,0.3-0.3c0,0,0.1-0.1,0.2-0.2
	s0.2-0.2,0.3-0.3s0.2-0.2,0.2-0.3c0.1-0.1,0.1-0.2,0.1-0.2c0.1,0,0.1-0.1,0.3-0.3s0.2-0.4,0.3-0.5c0-0.1,0-0.1,0.1,0
	c0,0.1,0.1,0.1,0.1,0.3c0,0.1,0,0.2,0,0.4c0,0.1,0,0.2,0,0.3h0.1c0,0.2,0.1,0.3,0.1,0.5c0,0.1,0.1,0.3,0.1,0.4
	c0,0.1,0.1,0.2,0.1,0.4s0.1,0.3,0.1,0.5c-0.8,0.5-1.7,1-2.4,1.5c-0.8,0.5-1.5,1.2-2.1,1.9v0.1c-0.1,0-0.2,0.1-0.3,0.3
	s-0.2,0.3-0.2,0.6c-0.1,0.2-0.1,0.4-0.2,0.6c0,0.2-0.1,0.4-0.1,0.6l-0.1,0.1c0,0.1,0,0.1,0.1,0.1l0,0l0,0c0,0,0,0.1,0,0.2
	s0,0.1,0.1,0.2c0,0.1,0,0.1-0.1,0.1c0,0,0,0,0,0.1c0,0,0,0.1,0.1,0.1c0,0,0,0,0,0.1c0.1,0.1,0.1,0.2,0.2,0.3c0.1,0,0.1,0.1,0.2,0.1
	c0,0,0.1,0.1,0.2,0.1c0.1,0.3,0.4,0.5,0.7,0.7c0.1,0,0.2,0.1,0.3,0.1s0.2,0,0.3,0.1v0.2h-0.1c0.1,0,0.1,0,0.1,0.1s0,0.1,0.1,0.2
	c0.2,0,0.3,0,0.5-0.1s0.3-0.1,0.5-0.1c0,0,0.1,0,0.1,0.1s0,0.1,0.1,0.1h0.1l0.1-0.1c0,0.1,0.1,0.2,0.1,0.2c0.1-0.1,0.3-0.1,0.4-0.2
	h0.1v0.1c0,0,0.1-0.1,0.2-0.1c0.1-0.1,0.2-0.2,0.3-0.2c0-0.1,0.1-0.1,0.1-0.2l0.1-0.1h0.1c0,0,0,0,0.1,0c0-0.1,0.1-0.2,0.1-0.2
	c0.1,0,0.1,0,0.2,0c0-0.1,0.1-0.2,0.1-0.2s0.1-0.1,0.1-0.2l0,0l0,0c0,0,0.1-0.1,0.1-0.2s0.1-0.1,0.1-0.2l0.1-0.1h0.1
	c0-0.1,0.1-0.1,0.1-0.2s0.1-0.1,0.1,0s0,0.1,0,0.1l0,0c0,0,0-0.1,0-0.2c0.1,0,0.2-0.1,0.2-0.2c0.1-0.1,0.1-0.2,0.1-0.2
	c0,0.1,0.1,0.1,0.1,0s0.1-0.2,0.1-0.2s0.1,0,0,0s0,0.1,0,0.1c0-0.1,0.1-0.2,0.1-0.3s0.1-0.2,0.1-0.2s0.1-0.1,0-0.2
	c0.1,0,0.1,0,0.1-0.1s0.1-0.1,0.1-0.2l0,0c0,0,0,0,0,0.1c0.1,0,0.1-0.1,0.2-0.3c0.1-0.1,0.1-0.3,0.1-0.4s0.1-0.3,0.1-0.4
	s0-0.2,0-0.2c0.2-0.5,0.2-1.1,0.2-1.7s0-1.2-0.1-1.7c0.3-0.1,0.7-0.2,1.2-0.5c0.5-0.2,1-0.5,1.5-0.8s0.9-0.6,1.3-0.8
	s0.5-0.4,0.5-0.5s0.1-0.1,0.2-0.1c0,0,0,0,0.1,0c0,0,0.1,0,0.1-0.1c-0.1,0-0.1,0-0.1,0s0,0,0.1,0h0.1l0,0c-0.2,0-0.2,0.1-0.3,0.1
	l0,0l0,0c0,0-0.1,0-0.3,0.1c0,0-0.1,0-0.1-0.1c0.1,0,0.2-0.1,0.3-0.2c0.1-0.1,0.2-0.1,0.4-0.1c0.1-0.1,0.2-0.1,0.1-0.1h-0.1
	c0,0-0.1,0-0.1,0.1c0,0,0,0,0.1,0s0.1,0,0.1,0l0,0l0,0c0,0,0,0,0.1-0.1c-0.1,0-0.1,0-0.2,0c-0.1,0-0.1,0-0.2,0
	c0-0.1,0.1-0.1,0.2-0.1c0.1,0,0.2,0,0.3-0.1c0-0.1,0-0.1,0-0.1l0.1-0.1L53.1,14c0.1,0,0.1,0,0.2,0c0-0.1,0-0.1,0-0.1h-0.1
	c-0.1,0-0.3,0-0.4,0.1s-0.3,0-0.4,0c0,0,0-0.1-0.1,0c-0.1,0-0.1,0-0.1,0c0.1,0,0.1,0,0.1-0.1C52.7,13.2,52.7,13.2,52.6,13.2
	c0,0.1-0.1,0.1-0.1,0.1C52.4,13.2,52.5,13.2,52.6,13.2 M33,9.6c-0.1,0-0.1,0-0.1,0s-0.1,0-0.1,0.1c0,0-0.1,0.1-0.3,0.1
	c0,0.1-0.1,0.2-0.1,0.3s-0.1,0.2-0.1,0.3c0,0,0,0.1-0.1,0.1c0,0,0,0.1-0.1,0.1c0,0-0.1,0.1-0.1,0.2c0,0.1,0,0.1,0,0.2
	c0,0.1-0.1,0.2-0.1,0.3s0,0.2-0.1,0.4c0,0.1,0,0.2-0.1,0.3c0,0.1,0,0.2-0.1,0.3c-0.2,0.6-0.3,1.3-0.5,1.9c-0.1,0.6-0.3,1.3-0.4,2
	c0,0.2-0.1,0.3-0.1,0.4c0,0.2,0,0.4-0.1,0.5c0,0.2-0.1,0.3-0.1,0.5s-0.1,0.4-0.1,0.7c0,0.2-0.1,0.4-0.1,0.7c0,0.2-0.1,0.5-0.1,0.7
	S30,20.2,30,20.4v0.3c0,0.2,0,0.4,0.1,0.6c0.1,0,0.1,0.1,0.1,0.2s0.1,0.2,0.2,0.2c0,0,0,0,0-0.1c0,0,0,0,0-0.1l0,0l0,0l0,0l0,0
	l0.2,0.1c0,0,0,0,0.1,0h0.1l0,0c0.1,0,0.1-0.1,0.1-0.1s0.1-0.1,0.2-0.1l0,0l0,0h0.1c0,0,0,0,0.1,0c0-0.1,0-0.1,0-0.2s0-0.2,0-0.2
	c0-0.1,0.1-0.1,0.1-0.1l0,0c0-0.1,0-0.1,0.1-0.1v0.1V21l0.1-0.2l0,0l0,0c0,0,0,0,0.1-0.1v-0.1l0,0l0,0c0,0,0,0,0-0.1v-0.1
	c0,0,0.1,0,0,0.1c0,0,0,0,0,0.1c0,0,0,0,0.1-0.1v-0.2l0.1-0.1V20H32h0.1c0.1-0.3,0.2-0.5,0.4-0.8l0.1-0.1v-0.2l0.1-0.1
	c0,0,0,0,0.1-0.1c0-0.1,0-0.2,0-0.3c0.1-0.1,0.2-0.2,0.3-0.4c0.1-0.1,0.2-0.3,0.2-0.4c0,0,0,0,0-0.1c0,0,0,0,0-0.1l0,0l0.3-0.4
	c0.1-0.1,0.1-0.3,0.2-0.5l0,0l0.1-0.1c0.1-0.3,0.3-0.5,0.5-0.7s0.3-0.4,0.5-0.7l0,0l0.1-0.1c0-0.1,0.1-0.1,0.1-0.1
	c0.1-0.1,0.2-0.3,0.3-0.4s0.2-0.3,0.3-0.4c0.1-0.1,0.2-0.2,0.3-0.4c0.1-0.1,0.2-0.2,0.3-0.4c0.1-0.1,0.3-0.2,0.4-0.3
	c0.1,0,0.2-0.1,0.2-0.2c0.1-0.1,0.1-0.1,0.2-0.2c0.1-0.1,0.2-0.2,0.3-0.3s0.2-0.3,0.3-0.4c0.1,0,0.3-0.1,0.4-0.1
	c0.1,0,0.2-0.1,0.4-0.2c-0.1,0.2-0.1,0.4-0.2,0.5c-0.1,0.2-0.1,0.4-0.2,0.6C38,12.8,38,13,38,13.2c0,0.2-0.1,0.4-0.2,0.6
	c-0.1,0.3-0.3,0.7-0.4,1c-0.1,0.3-0.3,0.7-0.4,1c-0.1,0.2-0.2,0.3-0.2,0.5c-0.1,0.2-0.1,0.4-0.2,0.6l-0.1,0.6
	c-0.1,0.3-0.1,0.6-0.3,0.8c-0.1,0.3-0.2,0.6-0.2,0.9c0,0.1,0,0.2,0,0.3s0,0.2,0.1,0.3c0,0,0,0.1,0,0.2c0,0.1,0,0.1,0,0.2v0.1
	c0,0,0,0.1,0.1,0.1c0.2,0.2,0.5,0.4,0.8,0.5c0.1,0,0.2,0,0.3,0s0.2,0,0.3,0c0.2,0,0.4,0,0.6-0.1c0.1,0,0.3-0.1,0.4-0.1
	s0.2-0.1,0.4-0.1c0.1,0,0.2-0.1,0.2-0.1h0.1l0,0l0,0l0,0l0,0c0.1-0.1,0.1-0.1,0.2-0.1c0.1-0.1,0.1-0.1,0.2-0.2
	c0.2-0.2,0.4-0.3,0.4-0.3c0.1,0,0.2-0.2,0.3-0.4c0,0,0-0.1,0.1-0.1s0.1-0.1,0.2-0.1c0.1,0,0.1-0.1,0.2-0.1c0.2-0.2,0.4-0.3,0.6-0.5
	c0.2-0.1,0.4-0.3,0.6-0.4c0,0,0-0.1,0.1-0.1l0.1-0.1c-0.2,0.2-0.4,0.4-0.7,0.6c-0.2,0.2-0.5,0.4-0.8,0.5C40.9,19.1,41,19,41,19
	c0.1-0.1,0.2-0.1,0.3-0.2l0.1-0.1c0,0,0,0,0.1-0.1c0,0,0,0,0-0.1c0,0,0,0,0-0.1c0.2-0.1,0.3-0.2,0.4-0.3l0,0l0,0l0,0l0,0
	c0.1-0.1,0.2-0.2,0.2-0.3c0.1-0.1,0.2-0.2,0.3-0.2c0-0.1,0-0.1,0.1-0.2c0,0,0.1-0.1,0.1-0.2l0,0l0,0h-0.1h-0.1h-0.1
	c-0.1,0-0.2,0.1-0.2,0.1s-0.1,0.1-0.2,0.1h-0.1h-0.1c0,0-0.1,0-0.1,0.1c0,0-0.1,0-0.1,0.1h-0.1c0,0-0.1,0-0.1,0.1
	c-0.1,0-0.1,0.1-0.2,0.1c-0.1,0-0.1,0.1-0.2,0.1c-0.1,0.1-0.2,0.2-0.3,0.2c-0.1,0.1-0.2,0.1-0.4,0.2l-0.1-0.1
	c-0.1,0-0.1,0.1-0.2,0.2s-0.1,0.1-0.2,0.1c-0.1,0.1-0.2,0.1-0.2,0.2l-0.1,0.1h-0.1c-0.1,0-0.1,0.1-0.2,0.1c-0.2,0.1-0.4,0.2-0.7,0.3
	c-0.2,0.1-0.5,0.1-0.8,0.1c0-0.1-0.1-0.2-0.2-0.2s-0.2-0.2-0.2-0.3s0-0.1,0-0.2c0,0,0-0.1,0-0.2c0-0.2,0-0.3,0-0.5
	c0-0.1,0-0.3,0.1-0.4c0,0,0-0.1,0.1-0.1c0,0,0-0.1,0-0.2c0-0.1,0-0.1,0-0.2c0-0.1,0.1-0.2,0.2-0.3l0,0c0.1-0.3,0.3-0.6,0.4-0.9
	c0.1-0.3,0.2-0.6,0.3-0.9c0.1-0.2,0.1-0.3,0.2-0.5c0-0.1,0.1-0.3,0.2-0.4c0.1-0.2,0.1-0.3,0.2-0.4v-0.1v-0.1v-0.1v-0.1l0,0l0,0
	c0-0.1,0-0.1,0-0.2v-0.1v-0.1l0.1-0.1v-0.1v-0.1c0.1-0.4,0.2-0.9,0.2-1.3v-0.3c0-0.1,0.1-0.2,0.1-0.2s0-0.1-0.1-0.1l-0.1-0.1
	c0,0,0,0,0-0.1c0,0,0-0.1,0-0.2c0-0.1,0-0.1,0-0.1c0-0.2-0.1-0.3-0.3-0.4c-0.2-0.1-0.4-0.2-0.7-0.2s-0.5,0.1-0.7,0.2
	C37.2,9.8,37,9.9,36.8,10l-0.1,0.1c-0.1,0-0.1,0-0.1,0.1l-0.1,0.1c-0.1,0-0.1,0.1-0.1,0.1c-0.2,0.2-0.4,0.4-0.6,0.6
	s-0.4,0.4-0.6,0.6l-0.1,0.1H35c0,0,0,0-0.1,0c-0.2,0.1-0.3,0.2-0.3,0.3c-0.1,0.1-0.1,0.2-0.2,0.3c-0.1,0.1-0.1,0.1-0.2,0.2
	c-0.1,0.1-0.2,0.2-0.2,0.2c-0.1,0.1-0.1,0.1-0.2,0.2c-0.1,0.1-0.1,0.2-0.2,0.2c-0.1,0.1-0.1,0.2-0.2,0.2c0-0.1,0-0.1,0-0.2
	c0-0.1,0-0.1,0-0.2v-0.1c0,0,0,0,0-0.1c0-0.2,0-0.3,0-0.5c0-0.1,0-0.3,0-0.5v0.4v-0.4c0-0.2,0-0.4,0-0.5s0-0.2,0-0.2l-0.1-0.1v-0.1
	c0,0,0,0,0-0.1c0,0-0.1-0.1-0.1-0.2c0-0.1,0-0.1-0.1-0.1c0-0.2-0.1-0.3-0.1-0.3c-0.1-0.1-0.2-0.2-0.3-0.3s-0.1-0.1-0.1-0.1h-0.1
	c-0.1,0-0.1,0-0.1,0c-0.1,0-0.2,0-0.3,0h-0.2C33.1,9.6,33.1,9.6,33,9.6 M20.1,18.9c0-0.2,0-0.4,0.1-0.7s0.1-0.5,0.2-0.7
	c0-0.1,0-0.2,0-0.3s0-0.2,0-0.3v-0.1c0,0,0-0.1,0-0.2c0-0.1,0-0.2,0-0.3s0-0.2,0-0.3c0.1,0,0.1-0.2,0.2-0.4c0.1-0.4,0.3-0.8,0.5-1.1
	s0.4-0.7,0.6-1.1c0.2-0.3,0.4-0.6,0.6-0.9c0.2-0.3,0.4-0.5,0.7-0.7c0.2-0.2,0.3-0.3,0.5-0.4c0.2-0.1,0.4-0.2,0.6-0.2
	c0.3,0,0.5,0,0.8,0.1c0.1,0.2,0.2,0.4,0.2,0.6c0.1,0.2,0.1,0.5,0.1,0.8c-0.2,0.3-0.4,0.5-0.6,0.7s-0.5,0.5-0.7,0.8
	c-0.2,0.2-0.4,0.5-0.6,0.8s-0.4,0.5-0.6,0.8c-0.3,0.4-0.6,0.8-0.9,1.2s-0.6,0.8-1,1.2c0,0.1-0.1,0.1-0.1,0.2s-0.1,0.1-0.2,0.2
	c0,0-0.1,0.1-0.2,0.1C20.2,18.9,20.1,18.9,20.1,18.9L20.1,18.9z M25.7,12.1c0-0.1,0-0.2,0-0.2c-0.1-0.2-0.2-0.3-0.3-0.6
	c-0.1-0.2-0.1-0.4-0.2-0.6c-0.1-0.1-0.2-0.2-0.3-0.2c-0.1-0.1-0.3-0.1-0.4-0.2c-0.1-0.1-0.2-0.1-0.3-0.1c-0.1,0-0.3,0-0.4,0
	c-0.1-0.1-0.2-0.1-0.3,0c-0.1,0.1-0.3,0.2-0.4,0.3L23,10.6c-0.1,0-0.1,0.1-0.1,0.1c-0.1,0-0.2,0.1-0.2,0.2C22.6,11,22.6,11,22.5,11
	c0,0.1-0.1,0.2-0.2,0.2c-0.1,0.1-0.2,0.1-0.2,0.2c-0.2,0.2-0.3,0.3-0.5,0.6c-0.2,0.2-0.3,0.4-0.5,0.7c-0.3,0.5-0.5,1-0.8,1.4
	c-0.2,0.5-0.5,1-0.8,1.5c-0.2,0.6-0.4,1.1-0.6,1.7c-0.2,0.5-0.3,1.2-0.3,1.9c0,0.4,0,0.7,0.1,1s0.1,0.6,0.2,0.9
	c0.1,0.1,0.1,0.2,0.2,0.3c0.1,0.1,0.2,0.1,0.3,0.1c0,0.1,0.1,0.1,0.1,0.1c0.1,0,0.2,0,0.3,0.1c0.1,0,0.2,0,0.2,0
	c0.3,0.1,0.6,0,0.8-0.2c0.2-0.2,0.5-0.4,0.8-0.6c0.1,0,0.1-0.1,0.2-0.1c0,0,0.1-0.1,0.2-0.1s0.2-0.1,0.2-0.1s0.1-0.1,0.1-0.2
	c0-0.1,0.1-0.2,0.1-0.2l0,0l0,0c0.2-0.2,0.4-0.5,0.5-0.7s0.4-0.5,0.6-0.7c0.1-0.2,0.2-0.3,0.3-0.5c0.1-0.1,0.2-0.3,0.3-0.5l0.1-0.1
	l0.1-0.1c0.1,0,0.1-0.1,0.2-0.2c0.1-0.1,0.1-0.2,0.2-0.2c0,0.2,0,0.4-0.1,0.6c0,0.1-0.1,0.3-0.1,0.4c0,0.1,0,0.3,0,0.4
	c0,0.1,0,0.3,0,0.6c0,0.2,0,0.4,0.1,0.5c0,0.2,0.1,0.3,0.1,0.4c0.1,0.1,0.1,0.2,0.1,0.3s0,0.2,0.1,0.3c0,0.1,0,0.2,0.1,0.3
	c0,0,0,0.1,0.1,0.2c0.1,0.2,0.1,0.3,0.2,0.3c0,0.1,0.1,0.1,0.1,0.2c0.1,0.1,0.3,0.2,0.5,0.2s0.4,0,0.5,0c0.3,0.1,0.6,0.1,0.9,0
	l0.1-0.1h0.1c0.1,0,0.2-0.1,0.3-0.1s0.2-0.1,0.4-0.1v-0.1l0,0c0.2-0.1,0.3-0.2,0.4-0.3c0.1-0.1,0.2-0.2,0.3-0.3
	c0.1,0,0.3-0.1,0.5-0.1c0.2-0.1,0.3-0.2,0.4-0.3c0.1-0.1,0.2-0.2,0.3-0.3s0.2-0.2,0.3-0.3s0.1-0.2,0.2-0.2c0.1-0.1,0.1-0.1,0.1-0.3
	c0.1-0.1,0.1-0.1,0.1,0c0,0,0,0,0.1-0.1c0.2-0.2,0.2-0.3,0.3-0.3c0-0.1,0.1-0.2,0.2-0.4c0.1-0.1,0.2-0.2,0.3-0.4s0.2-0.3,0.3-0.4
	c0-0.1,0-0.1,0.1-0.1c0,0,0.1,0,0.1-0.1c-0.1,0-0.1,0-0.1,0L32,17.5c0-0.1,0.1-0.1,0.1-0.1l0.1-0.1h-0.1H32v-0.1c0,0,0.1,0,0-0.1
	c-0.1,0-0.1,0.1-0.1,0h-0.1c-0.2,0-0.3,0.1-0.5,0.2c-0.1,0.1-0.3,0.2-0.4,0.4c0,0-0.1,0-0.2,0.1c-0.1,0-0.1,0.1-0.2,0.1
	c-0.1,0-0.1,0.1-0.2,0.2c-0.1,0.1-0.1,0.1-0.2,0.2c-0.5,0.5-1,0.8-1.6,1.2c-0.6,0.3-1.2,0.6-1.9,0.8c0-0.1-0.1-0.2-0.1-0.3
	s-0.1-0.2-0.1-0.3c0-0.2,0-0.3,0.1-0.4c0-0.1,0.1-0.2,0.1-0.3v-0.1c0,0,0,0,0-0.1c0.1-0.2,0.1-0.4,0.2-0.5c0.1-0.2,0.1-0.4,0.1-0.5
	s0-0.1,0-0.2c0-0.1,0-0.2,0-0.3c0,0,0-0.1,0.1-0.1v-0.1c0-0.1,0.1-0.2,0.1-0.3s0.1-0.2,0.2-0.3v-0.1c0.1-0.2,0.1-0.3,0.2-0.4
	c0-0.1,0.1-0.2,0.1-0.2c0-0.1,0.1-0.2,0.2-0.2c0-0.1,0.1-0.2,0.1-0.4c0.1-0.1,0.1-0.3,0.2-0.5c0-0.2,0.1-0.3,0.2-0.4
	c0-0.1,0-0.1,0-0.1v-0.1c0.1-0.3,0.2-0.6,0.2-1s0-0.8,0-1.2c0-0.1,0-0.1,0-0.2c0-0.1,0-0.2,0-0.2c0-0.1,0-0.2-0.1-0.3
	s-0.1-0.2-0.2-0.3c0,0-0.1,0-0.2,0c-0.1,0-0.1-0.1-0.2-0.2h-0.1c-0.1,0-0.1,0-0.1-0.1c-0.1,0-0.1,0-0.2,0c-0.1,0-0.1,0-0.3,0
	c-0.1,0-0.2,0.1-0.3,0.2S26.6,11,26.5,11c-0.1,0.2-0.1,0.3-0.2,0.4c-0.1,0.1-0.1,0.3-0.2,0.5c0,0.1,0,0.2-0.1,0.4
	c0,0.1-0.1,0.2-0.1,0.3s-0.1,0.2-0.2,0.2s-0.1,0.1-0.2,0.2C25.7,12.3,25.7,12.2,25.7,12.1 M13.5,20.2L13.5,20.2
	C13.6,20.2,13.5,20.2,13.5,20.2L13.5,20.2L13.5,20.2z M11.2,10.6c0.1-0.1,0.1-0.1,0.2-0.1s0.2,0.1,0.3,0.2c0.1,0.1,0.1,0.2,0.1,0.2
	s0,0.1-0.1,0.1c0,0.2-0.1,0.3-0.1,0.5s-0.1,0.4-0.1,0.5c-0.2,0.1-0.5,0.1-0.8,0.1c-0.1,0-0.2,0-0.4-0.1c-0.1-0.1-0.1-0.1-0.1-0.1
	c0-0.1,0-0.1,0.1-0.2l0,0l0,0l0.1-0.1c0-0.1,0.1-0.2,0.1-0.2c0-0.1,0.1-0.1,0.1-0.2c0-0.1,0.1-0.2,0.2-0.4
	C11.1,10.8,11.1,10.7,11.2,10.6 M14.7,22.2h0.2c0.1,0,0.1-0.1,0.1-0.1l0,0l0,0c0.1,0,0.2,0,0.3-0.1c0.1,0,0.2-0.1,0.2-0.1
	c0.1,0,0.2-0.1,0.3-0.2s0.1-0.1,0.2-0.2l0.1-0.1c0,0,0.1,0,0.1-0.1c0.1-0.1,0.3-0.2,0.3-0.3c0.1-0.1,0.2-0.2,0.3-0.3
	c0-0.1,0.1-0.2,0.2-0.3s0.2-0.2,0.2-0.3c0.2-0.2,0.5-0.4,0.7-0.7s0.5-0.5,0.7-0.7c0.1-0.1,0.1-0.1,0.2-0.2c0.1,0,0.1-0.1,0.2-0.2
	c0,0,0,0,0-0.1c0,0,0,0,0-0.1c0.1-0.1,0.2-0.1,0.2-0.2c0.1-0.1,0.1-0.1,0.2-0.2c0-0.1,0.1-0.1,0.1-0.2c0.1-0.1,0.1-0.1,0.1-0.1
	l0.1-0.1v-0.1l0,0c0,0,0-0.1,0-0.2v-0.1l0,0v-0.1c0-0.1,0.1-0.1,0.1-0.2c-0.1-0.1-0.1-0.1-0.1-0.1s0,0,0-0.1v-0.1
	c0-0.1,0-0.1,0.1-0.2c0,0-0.1,0-0.1-0.1s-0.1,0-0.1,0h-0.1c-0.1,0-0.2,0-0.2,0.1c-0.1,0.1-0.1,0.1-0.2,0.2c-0.1,0.1-0.3,0.2-0.4,0.4
	c-0.1,0.1-0.3,0.2-0.4,0.4c-0.3,0.2-0.6,0.5-0.8,0.7c-0.3,0.2-0.5,0.5-0.8,0.7c0,0-0.1,0-0.1,0.1c0,0,0,0-0.1,0.1s-0.1,0-0.1,0
	s0,0-0.1,0c-0.2,0.1-0.4,0.3-0.6,0.4c-0.2,0.1-0.4,0.3-0.6,0.4c0,0-0.1,0.1-0.2,0.1s-0.1,0.1-0.2,0.1s-0.1,0-0.1-0.1s0-0.1,0-0.2
	v-0.1l0,0l0.1-0.1v-0.1c0-0.1,0-0.1,0-0.1c0-0.1,0-0.2,0.1-0.4c0-0.1,0-0.3,0-0.4v-0.1c0,0,0,0,0-0.1l0,0l0,0v-0.1c0,0,0,0,0-0.1
	c0,0,0,0,0-0.1v-0.2c0-0.2,0.1-0.3,0.1-0.5c0.1-0.1,0.1-0.3,0.1-0.5c0-0.1,0-0.1,0-0.1v-0.1l0,0v-0.1c0-0.1,0.1-0.1,0.1-0.2v-0.1
	v-0.1v-0.1v-0.1c0-0.1,0.1-0.2,0.1-0.2v-0.1v-0.1l0.1-0.1c0.1-0.2,0.2-0.4,0.3-0.6c0.1-0.2,0.2-0.4,0.3-0.6l0.1-0.1v-0.1
	c0,0,0,0,0-0.1s0.1-0.2,0.1-0.2c0-0.1,0.1-0.1,0.1-0.2l0,0l0,0c0,0,0,0,0.1-0.1s0.1-0.1,0.1-0.1s0-0.1,0.1-0.2c0,0,0-0.1,0.1-0.1
	s0,0,0.1-0.1c0-0.1,0.1-0.2,0.1-0.3v-0.1v-0.1c0,0,0,0,0-0.1c0,0,0,0,0-0.1c0.1-0.2,0.1-0.4,0.1-0.6c0-0.2-0.1-0.4-0.2-0.5h-0.1l0,0
	l0,0c-0.2-0.2-0.3-0.4-0.5-0.5c0,0-0.1-0.1-0.2-0.2c-0.1,0-0.2,0-0.3,0s-0.2,0-0.3,0.1c-0.1,0-0.2,0.1-0.3,0.1
	c-0.1,0-0.2,0.1-0.3,0.1c-0.4,0.2-0.9,0.4-1.3,0.6c-0.4,0.2-0.9,0.4-1.3,0.6c-0.1,0-0.2,0.1-0.3,0.1c-0.1,0-0.2,0.1-0.3,0.1
	c0-0.1,0-0.2,0.1-0.3s0.1-0.2,0.1-0.3V11c0-0.1,0.1-0.1,0.1-0.2c0-0.1,0-0.1,0.1-0.2v-0.1v-0.1c0,0,0.1-0.1,0.1-0.2l-0.1-0.1
	c0.1-0.1,0.1-0.3,0-0.4c-0.1-0.1-0.1-0.2-0.2-0.3s-0.2-0.1-0.3-0.2S11.2,9.1,11.2,9h-0.1l0,0c0,0-0.1,0-0.1,0.1s0,0,0,0.1
	c-0.2,0-0.3,0.1-0.5,0.1s-0.3,0-0.5,0.1c-0.1,0-0.2,0-0.2,0c-0.1,0-0.1,0-0.2,0S9.4,9.5,9.3,9.6S9.1,9.7,9,9.8
	c-0.2,0.2-0.4,0.5-0.6,0.9c0,0.1-0.1,0.1-0.1,0.2c0,0,0,0.1-0.1,0.2c0,0.1,0,0.2-0.1,0.2c0,0.1,0,0.1,0,0.2v0.1c0,0.1,0,0.1,0,0.1
	l0,0c0,0,0,0,0,0.1s0,0.2,0,0.4c0,0.1,0,0.2,0.1,0.3l0.1,0.1l0.1,0.1c0,0,0,0.1,0.1,0.1l0.1,0.1c0.3,0.2,0.7,0.4,1.2,0.4
	c-0.1,0.2-0.1,0.3-0.2,0.4c-0.1,0.2-0.2,0.4-0.3,0.5S9.1,14.6,9,14.7c-0.1,0.1-0.1,0.2-0.2,0.4c-0.1,0.1-0.1,0.3-0.2,0.4
	c0,0.1-0.1,0.1-0.1,0.2c0,0-0.1,0.1-0.1,0.2c0,0-0.1,0.1-0.1,0.2c0,0,0,0.1-0.1,0.1c0,0,0,0-0.1,0.1v0.1c0,0,0,0,0,0.1
	S8,16.6,8,16.7c0,0.1-0.1,0.1-0.1,0.2c0,0.1-0.1,0.2-0.1,0.3c-0.1,0.1-0.1,0.2-0.1,0.2v0.1c0,0,0,0.1-0.1,0.1c0,0-0.1,0-0.1,0.1l0,0
	h0.1l0,0c0,0,0,0,0.1,0c0,0.1,0,0.2,0.1,0.4c0.1,0.1,0.2,0.2,0.3,0.1c0.1,0,0.1,0,0.1-0.1c0.1,0,0.2-0.1,0.4-0.2
	c0.1,0,0.1-0.1,0.2-0.1s0.1-0.1,0.2-0.1c0.1-0.1,0.2-0.2,0.2-0.2c0.1-0.1,0.1-0.1,0.2-0.2c0-0.1,0.1-0.1,0.1-0.2c0,0,0-0.1,0.1-0.1
	c0.1-0.1,0.1-0.2,0.2-0.4c0,0,0,0,0-0.1c0,0,0,0,0-0.1s0.1,0,0.1-0.1H10c0-0.1,0-0.1,0-0.1s0.1-0.1,0.2-0.2
	c-0.1,0.1-0.1,0.1-0.2,0.2c0.1-0.3,0.2-0.5,0.4-0.8v-0.1c0,0,0-0.1,0.1-0.1s0.1-0.1,0.1-0.1l0.1-0.1c0-0.1,0-0.2,0-0.2
	s0-0.1,0.1-0.1v-0.1c0,0,0,0,0-0.1c0,0,0.1-0.1,0.1-0.2c0-0.1,0-0.1,0-0.1c0-0.1,0.1-0.2,0.1-0.2c0-0.1,0.1-0.1,0.1-0.2
	c0.1-0.2,0.2-0.3,0.2-0.3c0.5-0.2,0.9-0.3,1.3-0.5s0.9-0.3,1.3-0.4c0,0.1,0,0.2-0.1,0.3c-0.1,0.2-0.1,0.3-0.2,0.4
	c-0.1,0.1-0.1,0.3-0.2,0.4c0,0.1-0.1,0.2-0.1,0.3s-0.1,0.2-0.1,0.3s-0.1,0.2-0.1,0.2c0,0.1,0,0.2-0.1,0.2c0,0.1,0,0.1,0,0.2L12.9,15
	v0.1v0.1c0,0,0,0,0,0.1l-0.1,0.2c0,0.1-0.1,0.1-0.1,0.2c0,0.1,0,0.1-0.1,0.2c0,0.1-0.1,0.2-0.1,0.4s-0.1,0.3-0.1,0.4
	c0,0.1-0.1,0.3-0.1,0.4c0,0.1,0,0.3,0,0.4l-0.1,0.9c0,0.1,0,0.1-0.1,0.2c0,0.1,0,0.1,0,0.2c0,0.2-0.1,0.4,0,0.7
	c0,0.2,0.1,0.4,0.1,0.6c0.1,0.4,0.2,0.7,0.4,1l0.1,0.1l0.1,0.1l0.1,0.1c0,0,0.1,0,0.1,0.1c0,0,0.1,0.1,0.1,0.2s0.1,0.1,0.1,0.2
	s0.1,0.2,0.2,0.3C14.4,22.1,14.5,22.2,14.7,22.2L14.7,22.2z M3.8,2.6L3.8,2.6C3.9,2.7,3.9,2.7,3.8,2.6L3.8,2.6
	C3.7,2.6,3.7,2.6,3.8,2.6 M4.1,2.6c0.1,0,0.1,0,0.2,0C4.2,2.6,4.2,2.6,4.1,2.6C4.1,2.6,4,2.6,4.1,2.6C4,2.6,4,2.6,4.1,2.6 M0.3,2.8
	L0.3,2.8c-0.1,0-0.2,0-0.2,0c0.1,0,0.3,0,0.4,0s0.2,0,0.3,0c0,0.1-0.1,0.1-0.2,0.1s-0.1,0-0.2,0c0.3,0,0.6,0,0.9,0s0.6,0,0.8-0.1
	c0,0,0,0-0.1,0c0,0-0.1,0-0.1,0.1c0.2,0,0.4-0.1,0.6-0.1s0.4-0.1,0.6-0.1c0.3,0,0.5-0.1,0.7-0.1C4,2.5,4.2,2.5,4.5,2.4
	c0.2-0.1,0.4-0.2,0.6-0.3S5.5,2,5.7,2c0,0-0.1,0-0.1,0.1s0,0.1-0.1,0c0,0.1,0,0.2,0,0.2S5.4,2.4,5.4,2.5C5.3,2.7,5.2,2.8,5.2,3
	S5.1,3.3,5.1,3.5c0,0-0.1,0-0.1,0.1c0,0,0,0.1-0.1,0.1c0,0.1,0,0.1,0,0.2V4C4.8,4.1,4.8,4.2,4.7,4.5c0,0.2,0,0.4-0.1,0.6
	C4.5,5.3,4.4,5.6,4.3,5.8C4.2,6.1,4.2,6.3,4.2,6.6C4.1,6.9,4,7.2,4,7.5c-0.1,0.3-0.1,0.6-0.2,1C3.7,8.6,3.6,8.8,3.6,9s0,0.4-0.1,0.6
	c0,0,0,0.2-0.1,0.4c0,0.2-0.1,0.4-0.1,0.7c0,0.2-0.1,0.4-0.2,0.7C3,11.6,3,11.8,3,11.9s0,0.2,0,0.2c0,0.1,0,0.1,0,0.2
	c0,0.1,0,0.2-0.1,0.4c-0.3,1.1-0.4,2.2-0.5,3.2c-0.1,0.5-0.1,0.9-0.2,1.4S2,18.2,1.9,18.6c0,0.2,0,0.3,0,0.4s0,0.1,0,0.2
	c0,0.1,0,0.1-0.1,0.2c0,0.1-0.1,0.2-0.1,0.4s0,0.4,0,0.5s-0.1,0.3-0.1,0.6c0,0,0.1,0.1,0,0.1c0,0.1,0,0.1,0,0.2
	c0.1,0.2,0.1,0.3,0.2,0.4S2,21.8,2,21.9c0,0,0.1,0.1,0.1,0.2v0.2c0.1,0.2,0.2,0.4,0.2,0.5s0.1,0.3,0.2,0.5c0.1,0,0.1,0.1,0.2,0.1
	c0,0,0.1,0.1,0.1,0.2c0.1-0.1,0.2-0.1,0.3,0c0.1,0.1,0.2,0.2,0.3,0.3c0.1,0,0.2-0.1,0.3-0.1c0.1,0,0.2,0,0.2,0.1
	c0-0.1,0.1-0.1,0.1-0.1c0.1,0,0.1,0,0.1-0.1s0-0.1,0-0.2s-0.1-0.2,0-0.3c0,0,0.1,0,0.1,0.1s0.1,0,0.1,0c0.1,0,0.1,0,0.1-0.1
	c0,0,0.1-0.1,0.2-0.1c0-0.2,0-0.3,0-0.4s0-0.2,0-0.3c0-0.1,0.1-0.2,0.2-0.3c0.1-0.1,0.1-0.2,0-0.3c0.1-0.2,0.1-0.4,0.1-0.6
	c0-0.3,0-0.5,0.2-0.6c0.1-0.4,0.1-0.7,0.1-0.9s0.1-0.5,0.2-0.9c0.1,0,0.1-0.1,0.1-0.1s0-0.1,0.1-0.1c0,0,0-0.1,0.1-0.1
	c0,0,0-0.1,0.1-0.1C5.9,18.2,6,17.9,6,17.7s0.1-0.5,0.2-0.7c0,0,0-0.1,0.1-0.1c0,0,0,0,0-0.1v-0.2c0-0.2,0.1-0.5,0.2-0.7
	s0.1-0.4,0.1-0.6c0.1-0.1,0.2-0.3,0.2-0.4c0-0.2,0-0.3,0-0.4c0.1,0,0.1,0,0.1-0.1s0-0.1,0-0.2c0,0,0-0.1,0.1-0.1
	c0,0,0.1-0.1,0.1-0.2s0-0.1,0-0.2s0-0.1,0-0.2c0.1-0.2,0.1-0.4,0.1-0.6c0-0.2,0-0.4,0.1-0.7c0-0.1,0-0.2,0-0.2v0.1v0.1
	c0,0,0,0,0-0.1c0.1,0,0.1-0.1,0.1-0.2c0-0.1,0.1-0.1,0.1-0.2c0-0.2,0-0.4,0.1-0.5s0.1-0.3,0.1-0.5s0.1-0.3,0.2-0.5S8,9.8,8.1,9.7
	c0.1-0.3,0.2-0.6,0.2-0.9c0-0.1,0.1-0.2,0.1-0.3s0-0.1,0.1-0.2c0.1-0.4,0.2-0.8,0.2-1.2S8.9,6.3,9.1,6c0.1-0.6,0.2-1.2,0.3-1.8
	c0.1-0.6,0.1-1.2,0-1.9C9.3,2.2,9.3,2.1,9.2,2S9.1,1.8,8.9,1.6c0.7-0.1,1.5-0.2,2.3-0.2s1.6,0,2.4,0h0.1h0.1h-0.1h-0.1
	c-0.1,0-0.2,0-0.3,0c-0.1,0-0.2,0-0.3,0l0,0l0,0c-0.6,0-1.3,0-1.9,0S9.9,1.5,9.3,1.5c-0.1,0-0.2,0-0.4,0.1c-0.1,0-0.2,0-0.3-0.1
	C8.7,1.4,8.8,1.4,9,1.4c0.1,0,0.3,0,0.4,0c0.7,0,1.5-0.1,2.2-0.1c0.8-0.1,1.6,0,2.4,0.1c0.1-0.1,0.3-0.1,0.6-0.1s0.5,0,0.7,0
	c-0.2,0-0.3,0-0.4-0.1s-0.2-0.1-0.3-0.3c0-0.1,0.1-0.1,0.2-0.1s0.2,0,0.3,0s0.2,0,0.3,0c0.1,0,0.2,0,0.3,0c-0.2-0.1-0.3-0.1-0.4-0.1
	S15.1,0.6,15,0.5c-0.2,0-0.5-0.1-0.7-0.1s-0.5,0-0.7,0c-0.1-0.1-0.1-0.1-0.2-0.1s-0.1-0.1-0.1-0.1c0-0.1,0-0.1,0.1-0.1h0.1
	C13,0,12.5,0,12,0s-1,0.1-1.5,0.1C9.9,0.2,9.3,0.2,8.7,0.3c-0.5,0-1.1,0.1-1.6,0.2c-0.2,0-0.4,0.1-0.7,0.1C6.2,0.6,6,0.7,5.8,0.9
	C5.9,0.8,6,0.8,6.1,0.8C5.3,1.1,4.5,1.3,3.8,1.6S2.2,2.1,1.4,2.3c-0.1,0-0.2,0.1-0.3,0.1S0.9,2.5,0.7,2.5c-0.1,0-0.2,0-0.4,0.1
	C0.2,2.6,0.1,2.7,0,2.8c0,0,0,0.1,0,0.2c0,0.1,0,0.2,0,0.2C0.1,2.8,0.2,2.8,0.3,2.8L0.3,2.8L0.3,2.8z"/>
</svg>
