<?xml version="1.0" encoding="utf-8"?>
<!-- Generator: Adobe Illustrator 19.2.1, SVG Export Plug-In . SVG Version: 6.00 Build 0)  -->
<svg version="1.1" id="Layer_1" xmlns="http://www.w3.org/2000/svg" xmlns:xlink="http://www.w3.org/1999/xlink" x="0px" y="0px"
	 viewBox="0 0 1215.4 423" style="enable-background:new 0 0 1215.4 423;" xml:space="preserve">
<style type="text/css">
	.st0{fill:#1E2F54;}
	.st1{fill:#FFFFFF;}
	.st2{fill:#EB690C;}
</style>
<g>
	<rect class="st0" width="1215.4" height="423"/>
	<path class="st1" d="M628.4,253.7h1.9v-2v-1.8v-1.8l-1.8-0.1c-6.3-0.4-9.6-1.8-12.1-5.2c-2.4-3.1-3.2-7.6-3.2-17.6v-28.6h14
		c16,0,19.9-0.5,26-3.4c10.2-4.7,15.5-13.8,15.5-26.1c0-10.3-3.8-18.8-11.4-25.4c-7.2-6.2-13.8-7.8-31.9-7.8h-48.7h-1.9v2v1.9v1.8
		l1.8,0.1c4.6,0.3,6.9,0.9,9.3,2.5c4.2,2.9,6,6.4,6,20.4v62.7c0,10.2-0.8,14.5-3.1,17.6c-2.6,3.4-5.8,4.8-12.2,5.2l-1.8,0.1v1.8v1.9
		v2h1.9h51.7V253.7z M645.4,165.9c0,7.5-2.3,13.7-6.9,18.3c-4.3,4.4-8.8,5.7-19.2,5.7h-6v-49.7h4.9c10.8,0,12.9,0.6,17,3.2
		C641.6,147.8,645.4,156.2,645.4,165.9"/>
	<path class="st1" d="M854.4,256.5c16.2,0,31.6-6.5,43.4-18.3c12.1-12.1,18.7-28.1,18.7-44.8c0-16.3-6.9-32.6-19.1-44.7
		c-11.4-11.5-26-17.8-40.9-17.8c-15.6,0-30.6,6.1-43.1,17.7c-12.7,11.8-19.7,28.1-19.7,46.1c0,16.8,6.4,32.5,18.2,44.3
		C823.4,250.3,838.4,256.5,854.4,256.5 M893.1,195.7c0,15-3.3,26.9-10.6,37.7c-7.6,11.5-15.8,16.4-27.4,16.4
		c-11.5,0-19.9-5-27.2-16.4c-7.2-10.7-10.6-22.8-10.6-38c0-16.2,3.7-30.9,10.8-42.4c6.5-10.4,15.2-15.5,26.4-15.5
		c12.5,0,20.8,4.7,27.6,15.5C889.3,164.2,893.1,178.9,893.1,195.7"/>
	<path class="st1" d="M531.8,133.8h-1.3L530,135l-34.4,86.3l-32-86.2l-0.5-1.3h-1.4h-36.4h-1.9v2v1.9v1.8l1.8,0.1
		c6.3,0.4,9.6,1.8,12.1,5.2c2.3,3.1,3.1,7.5,3.1,17.6v62.7c0,10.2-0.7,14.5-3.1,17.6c-2.5,3.4-5.8,4.8-12.1,5.2l-1.8,0.1v1.8v1.9v2
		h1.9h38.6h2v-2v-1.8v-1.8l-1.8-0.2c-6.3-0.4-9.5-1.8-12-5.2c-2.4-3.2-3.2-7.4-3.2-17.6v-64.5l37.5,92l0.5,1.2h1.3h1.8h1.3l0.5-1.2
		l37.9-93.5v66c0,10.1-0.8,14.5-3.1,17.6c-2.6,3.4-5.9,4.8-12.1,5.2l-1.8,0.1v1.8v1.9v2h1.9h51.7h1.9v-2v-1.8V248l-1.8-0.1
		c-5.7-0.3-9.4-1.9-12.2-5.3c-2.3-2.9-3.1-7.4-3.1-17.6v-62.7c0-10.2,0.8-14.7,3.1-17.6c2.8-3.5,5.9-4.9,12.2-5.2l1.8-0.1v-1.8v-1.9
		v-2h-1.9L531.8,133.8L531.8,133.8z"/>
	<path class="st1" d="M785.6,169.4l1.7-0.2l1.8-0.1l1.8-0.2l-0.1-1.9l-1.4-31.4l-0.1-1.9h-1.9H678.1h-1.9l-0.1,1.9l-1.4,31.4
		l-0.1,1.9l1.9,0.2l1.8,0.1l1.7,0.2l0.3-1.7c4.5-22.3,11.6-27.1,41.3-27.3v84.8c0,10.2-0.7,14.5-3.1,17.6c-2.5,3.4-5.8,4.8-12.1,5.2
		l-1.8,0.1v1.8v1.9v2h1.9h51.7h1.9v-2v-1.9v-1.8l-1.8-0.1c-6.3-0.4-9.6-1.8-12.1-5.2c-2.3-3.1-3.1-7.6-3.1-17.6v-84.8
		c29.6,0.1,38,5.7,42.1,27.3L785.6,169.4z"/>
	<path class="st1" d="M948.6,253.7h1.9v-2v-1.8v-1.8l-1.8-0.1c-6.2-0.4-9.5-1.8-12-5.2c-2.4-3.1-3.2-7.4-3.2-17.6v-68.3l72.7,96.1
		l0.6,0.7h1h5h1.9v-2v-89.3c0-10.1,0.8-14.5,3.2-17.6c2.5-3.4,5.9-4.8,12.1-5.1l1.8-0.1v-1.9v-2.1v-1.9h-2H991h-2v1.9v1.9v1.8
		l1.8,0.1c6.3,0.4,9.5,1.8,12.1,5.2c2.3,3.1,3.1,7.4,3.1,17.6v55.7l-62.2-83.3l-0.6-0.8h-1h-32.5h-1.9v1.9v1.9v1.8l1.8,0.1
		c6.3,0.4,9.6,1.8,12.1,5.2c2.3,3.1,3.1,7.5,3.1,17.5V225c0,10.2-0.8,14.5-3.1,17.6c-2.6,3.4-5.8,4.8-12.1,5.2l-1.8,0.1v1.8v1.8v2
		h1.9h38.9V253.7z"/>
	<path class="st1" d="M1036.7,253.4h1.3l0.5-1.2c1.1-2.9,2.9-2.9,3.5-2.9c1.3,0,1.4,0,7.4,2.8c6.5,2.9,13.9,4.5,20.9,4.5
		c10.5,0,20-3.7,26.8-10.5s10.6-16.4,10.6-27.1c0-16.2-8.2-27.5-26.6-36.8c-16.6-8.2-16.6-8.2-20.7-11.7c-4.4-3.9-7-9.5-7-15.1
		c0-5.1,1.8-9.8,5.1-13.1c3-3.1,7.4-4.8,11.9-4.8c7.4,0,12.7,3.4,17.7,11.5c3,4.9,4.8,9.5,7.8,20.5l0.4,1.4h1.5h1.8h2v-2l-0.5-33.8
		v-1.9h-1.9h-1.8h-1.5l-0.4,1.5c-0.4,1.7-1.1,2.8-1.8,2.8c-1.1,0-1.3,0-7.4-2.6c-7.3-3-11.5-4-16.7-4c-17.8,0-32.2,15.8-32.2,35.1
		c0,7.8,2.2,14.6,6.7,20c3.8,4.5,8.9,8.1,19.5,13.7c10,5.4,14.4,8.4,17.6,12c3.7,3.9,6,10.6,6,17.1c0,12.2-8.2,21.1-19.6,21.1
		c-13.3,0-22.5-11.2-28.3-34.1l-0.4-1.5h-1.5h-1.8h-1.9v2l-0.3,35.1v1.9h2L1036.7,253.4L1036.7,253.4z"/>
	<path class="st1" d="M393.2,224.4L358.1,135l-0.5-1.2h-1.4h-5.9H349l-0.5,1.3L319,215.2c-9,24.9-14.1,32-23.8,32.8l-1.7,0.1v1.8
		v1.8v2h1.9H333h2v-2v-1.8v-1.8l-1.9-0.2c-6.9-0.5-11.2-4.7-11.2-11c0-4.1,1.1-8,5.6-19.4c0,0,2.6-7.5,3.7-10.5H364l7.3,18.9
		c3,7.8,3.5,9.5,3.5,12.3s-1.5,5.5-3.9,7.2c-2,1.3-4,1.9-9.5,2.5l-1.7,0.2v1.8v1.8v2h1.9h53.3h1.9v-2v-1.8v-1.8L415,248
		C403.8,246.8,401.4,245.1,393.2,224.4 M347.1,163.1l14.2,36.5h-27.4L347.1,163.1z"/>
	<path class="st1" d="M766.7,302.6c-2.3-4.9-3-6.4-3.5-7.2c-0.5-0.9-1-1.5-1.7-2c6.5-2,8-6.3,8-9.8c0-4.3-2.3-7.7-6.2-9.3
		c-2.6-1.2-5.1-1.5-12.1-1.5H737h-0.9v0.9v0.9v0.8l0.8,0.1c2.8,0.4,3.5,0.8,4.3,2c0.7,1.2,1,3.4,1,8.8V300c0,4.5-0.1,7-0.7,8.1
		c-0.7,1.6-1.4,2.2-4.6,2.6l-0.8,0.1v0.8v0.9v1h0.9h18.3h0.9v-1v-0.9v-0.7l-0.8-0.1c-4.8-0.9-5.3-1.3-5.1-10.4v-5.7h0.9
		c1.5,0,2.4,0.3,3.2,1.1c1.4,1.4,3.5,5.2,5.7,10.6l1.9,4.5l0.9,2l0.2,0.6h0.6h9.4h0.9v-1v-0.9v-0.9h-0.9
		C771.1,310.7,769.9,309.5,766.7,302.6 M750.2,275.8h0.7c3.2,0,5.1,0.3,6.3,1c2.2,1.3,3.6,4,3.6,7c0,2.4-0.9,4.4-2.6,6.1
		c-1.5,1.5-2.6,1.9-7.4,1.9h-0.6V275.8z"/>
	<path class="st1" d="M955,271.7c-12.3,0-22.2,9.8-22.2,21.8c0,5.6,2.2,11,6.1,14.9c4,4,9.5,6.3,15.4,6.3s11.5-2.3,15.6-6.5
		c4.1-4.1,6.3-9.4,6.3-15.1c0-5.5-2.3-11-6.4-15.1C965.8,274,960.4,271.7,955,271.7 M941.5,293.6c0-5.4,1.3-10.2,3.7-13.9
		c2.2-3.4,5.1-5.1,9.1-5.1c4.3,0,7,1.5,9.4,5.1c2.5,3.7,3.9,8.7,3.9,14c0,5-1.2,9-3.7,12.6s-5.4,5.3-9.3,5.3c-4,0-6.8-1.7-9.3-5.3
		C942.6,302.7,941.5,298.7,941.5,293.6"/>
	<path class="st1" d="M576.3,272.8h-0.9v0.9v0.9v0.8l0.8,0.1c2.8,0.4,3.5,0.8,4.2,2c0.8,1.2,1.1,3.4,1.1,8.8V300
		c0,4.5-0.2,7-0.7,8.1c-0.6,1.7-1.3,2.2-4.5,2.6l-0.8,0.1v0.8v0.9v0.9h0.9h18.2h0.9v-0.9v-0.9v-0.7l-0.7-0.1
		c-4.8-0.9-5.3-1.3-5.1-10.4v-14.3c-0.1-9.2,0.4-9.6,5.1-10.5l0.7-0.1v-0.8v-0.9v-0.9h-0.9L576.3,272.8L576.3,272.8z"/>
	<path class="st1" d="M630.7,272.8h-0.9v0.9v0.9v0.8l0.7,0.1c4.8,0.9,5.3,1.3,5.2,10.5v14.1l-21.4-26.9l-0.3-0.4h-0.4h-11.1h-0.9
		v0.9v0.9v0.8l0.8,0.1c2.8,0.4,3.5,0.8,4.3,2s1,3.4,1,8.8V300c0,4.5-0.2,7-0.7,8.1c-0.7,1.7-1.4,2.2-4.6,2.6l-0.8,0.1v0.8v0.9v0.9
		h0.9h13.4h1v-0.9v-0.9v-0.7l-0.8-0.1c-4.7-0.9-5.3-1.3-5.1-10.4v-18.3l25,31l0.3,0.4h0.4h1.4h0.9v-0.9v-26.2c0-4.6,0.2-7.1,0.7-8.2
		c0.7-1.6,1.4-2.2,4.6-2.7l0.8-0.1v-0.8v-0.9v-0.9h-1L630.7,272.8L630.7,272.8z"/>
	<path class="st1" d="M689.4,273.7v-0.9h-0.9h-38.4h-0.9v0.9l-0.5,10.7v0.9l0.9,0.1l0.9,0.1l0.8,0.1l0.1-0.8
		c1.5-7.2,3.8-8.7,13.8-8.8v24.2c0,3.2-0.1,6.7-0.7,8.1c-0.8,1.7-1.6,2.2-5.1,2.7l-0.8,0.1v0.8v0.9v1h0.9h19.3h0.9v-1v-0.9v-1
		l-0.7-0.1c-5.3-0.9-5.8-1.3-5.7-10.4v-24.5c10.6,0,12.9,2.3,14.2,8.9l0.2,0.8l0.8-0.1l0.8-0.1l0.9-0.1l-0.1-0.8L689.4,273.7z"/>
	<path class="st1" d="M728.4,300.1h-0.7l-0.2,0.7c-1.7,7.5-4.2,9.6-11.7,9.6c-4.6,0-6.2-1.3-7.1-3.1c-0.8-1.5-1-3.1-1-8.3v-5.5h1.1
		c4.5,0,5.9,1.4,6.5,6.7l0.1,0.8h0.9h0.8h0.9v-0.9l0.2-15.5v-0.7h-0.9h-0.9h-0.8l-0.1,0.8c-0.7,5.2-1.5,5.9-6.6,5.9h-1.2v-14.8h6.3
		c3.9,0,5.8,0.5,7.5,1.9c1.6,1.4,2.3,3,2.7,5.8l0.1,0.8h0.8h0.9h1l-0.1-1l-0.4-9.7v-0.9h-0.9h-31.1h-1v0.9v0.9v0.8l0.8,0.1
		c2.8,0.4,3.5,0.8,4.3,2s1,3.4,1,8.8v13.7c0,4.5-0.2,7-0.7,8.1c-0.7,1.7-1.4,2.2-4.6,2.6l-0.8,0.1v0.8v0.9v0.9h1h34.3h0.9l0.1-0.9
		l0.3-11.5V300h-0.9h-0.8V300.1z"/>
	<path class="st1" d="M823.4,275.4v-0.8v-0.9v-0.9h-0.9H809h-0.9v0.9v0.9v0.8l0.7,0.1c4.8,0.9,5.3,1.3,5.1,10.5v14.1l-21.5-26.9
		l-0.2-0.3h-0.5h-11.1h-0.9v0.9v0.9v0.8l0.8,0.1c2.8,0.4,3.6,0.8,4.3,2s1,3.4,1,8.8v13.7c0,4.5-0.2,7-0.7,8.1
		c-0.7,1.6-1.4,2.2-4.6,2.6l-0.8,0.1v0.8v0.9v0.9h0.9h13.5h1v-0.9v-0.9v-0.8l-0.7-0.1c-4.8-0.9-5.3-1.3-5.2-10.4v-18.3l25.1,31
		l0.3,0.4h0.4h1.4h0.9v-0.9v-26.2c0-4.6,0.2-7,0.7-8.2c0.7-1.6,1.4-2.2,4.6-2.6L823.4,275.4z"/>
	<path class="st1" d="M857.3,303.2l-12.4-29.8l-0.3-0.6h-0.5h-1.8h-0.6l-0.2,0.6l-10.6,26.7c-3.2,8.8-4.9,10.5-7.8,10.6h-0.9v0.8
		v0.9v1h0.9h12.5h1v-1v-0.9v-0.8h-0.9c-2.2-0.1-3.5-1.3-3.5-3.3c0-1.2,0.4-2.5,1.9-6.2c0,0,0.8-2.2,1.2-3.2h11.6l2.5,6.1
		c0.9,2,1.2,3,1.2,3.9c0,0.8-0.4,1.5-1.2,2.1c-0.6,0.4-1.2,0.6-3.1,0.7h-0.9v0.8v0.9v1h0.9h18.3h0.9v-1v-0.9v-0.8l-0.9-0.1
		C860.7,310.4,860.1,310,857.3,303.2 M841,283.5l4.4,11.2h-8.8L841,283.5z"/>
	<path class="st1" d="M902.6,273.7l-0.1-0.9h-0.9h-38.4h-0.9v0.9l-0.6,10.7v0.9l0.9,0.1l0.8,0.1l0.9,0.1l0.1-0.8
		c1.5-7.2,3.8-8.7,13.8-8.8v24.2c0,3.2,0,6.7-0.7,8.1c-0.7,1.7-1.5,2.2-5.1,2.7l-0.7,0.1v0.8v0.9v1h0.9h19.3h0.9v-1v-0.9v-1
		l-0.7-0.1c-5.3-0.9-5.9-1.3-5.7-10.4v-24.5c10.6,0,12.9,2.3,14.2,8.9l0.2,0.8l0.8-0.1l0.8-0.1l0.9-0.1v-0.8L902.6,273.7z"/>
	<path class="st1" d="M910,272.8h-0.9v0.9v0.9v0.8l0.8,0.1c2.8,0.4,3.5,0.8,4.3,2s1,3.4,1,8.8V300c0,4.5-0.2,7-0.7,8.1
		c-0.7,1.7-1.4,2.2-4.6,2.6l-0.7,0.1v0.8v0.9v0.9h0.9h18.2h1v-0.9v-0.9v-0.7l-0.8-0.1c-4.8-0.9-5.3-1.3-5.2-10.4v-14.3
		c-0.1-9.2,0.4-9.6,5.2-10.5l0.8-0.1v-0.8v-0.9v-0.9h-1L910,272.8L910,272.8z"/>
	<path class="st1" d="M1021,275v-0.8v-0.9v-0.9h-1h-13.4h-0.9v0.9v0.9v0.8l0.8,0.1c4.8,0.9,5.3,1.3,5.1,10.4v14.1l-21.5-26.9
		l-0.3-0.3h-0.4h-11.1h-0.9v0.9v0.9v0.8l0.9,0.1c2.8,0.3,3.5,0.8,4.3,2c0.7,1.2,1,3.4,1,8.8v13.7c0,4.5-0.2,7-0.7,8.1
		c-0.7,1.7-1.3,2.2-4.6,2.6l-0.8,0.1v0.8v0.9v0.9h0.9h13.4h0.9v-0.9v-0.9v-0.8l-0.8-0.1c-4.8-0.9-5.3-1.3-5.1-10.4v-18.3l25,31.1
		l0.3,0.4h0.4h1.4h1v-0.9v-26.3c0-4.7,0.2-7,0.7-8.2c0.7-1.6,1.3-2.2,4.6-2.6L1021,275z"/>
	<path class="st1" d="M1055,303.2l-12.4-29.8l-0.2-0.6h-0.6h-1.8h-0.6l-0.2,0.6l-10.6,26.7c-3.2,8.8-4.8,10.5-7.8,10.6h-0.8v0.8v0.9
		v1h0.8h12.6h0.9v-1v-0.9v-0.8h-0.9c-2.3-0.1-3.5-1.3-3.5-3.3c0-1.2,0.3-2.5,1.8-6.2c0,0,0.8-2.2,1.2-3.2h11.6l2.5,6.1
		c0.9,2,1.1,3,1.1,3.9c0,0.8-0.4,1.5-1.2,2.1c-0.5,0.4-1.1,0.6-3.1,0.7h-0.9v0.8v0.9v1h0.9h18.3h0.9v-1v-0.9v-0.8l-0.9-0.1
		C1058.4,310.4,1057.7,310,1055,303.2 M1038.7,283.5l4.4,11.2h-8.9L1038.7,283.5z"/>
	<path class="st1" d="M1103.8,299.7h-0.7l-0.1,0.7c-1.7,8-4.1,10-11.7,10c-4.6,0-6.2-1.2-7.1-3.1c-0.7-1.4-1-3.4-1-8v-13.4
		c-0.1-9.1,0.4-9.6,5.1-10.5l0.8-0.1v-0.8v-0.9v-0.9h-1h-18.2h-0.9v0.9v0.9v0.8l0.8,0.1c2.8,0.4,3.5,0.8,4.3,2c0.7,1.2,1,3.4,1,8.8
		v13.7c0,4.5-0.2,7-0.7,8.1c-0.7,1.7-1.4,2.2-4.6,2.6l-0.8,0.1v0.8v0.9v1h0.9h34.4h0.9v-0.9l0.4-11.8v-1h-1L1103.8,299.7
		L1103.8,299.7z"/>
	<path class="st1" d="M128.8,271.1c0,17-1.3,24.1-5.2,29.3c-4.3,5.8-9.7,8.2-20.3,8.9v5.5h85.5v-5.5c-10.6-0.7-16-3.1-20.2-8.8
		c-3.9-5.2-5.3-12.6-5.3-29.4v-65.9h-34.6L128.8,271.1L128.8,271.1z"/>
	<path class="st1" d="M163.4,150.3c0-16.8,1.3-24.2,5.2-29.4c4.3-5.8,9.7-8.2,20.3-8.9v-5.5h-85.5v5.5c10.5,0.7,16,3.1,20.3,8.8
		c3.9,5.3,5.2,12.4,5.2,29.4v17h34.6v-16.9H163.4z"/>
	<rect x="128.8" y="181.3" class="st1" width="34.6" height="9.9"/>
	<path class="st1" d="M272,150.3c0-16.8,1.3-24.2,5.3-29.4c4.2-5.8,9.6-8.2,20.2-8.9v-5.5h-85.6v5.5c10.6,0.7,16,3.1,20.3,8.8
		c3.9,5.3,5.2,12.4,5.2,29.4v17H272V150.3z"/>
	<rect x="237.5" y="181.3" class="st1" width="34.6" height="9.9"/>
	<path class="st1" d="M237.5,271.1c0,17-1.3,24.1-5.2,29.3c-4.3,5.8-9.7,8.2-20.3,8.9v5.5h85.3v-5.5c-10.4-0.7-15.8-3.1-20-8.8
		c-4-5.2-5.3-12.4-5.3-29.4v-65.9h-34.6L237.5,271.1L237.5,271.1z"/>
	<rect x="103.9" y="163.8" class="st2" width="193.1" height="14"/>
	<rect x="103.9" y="187.8" class="st2" width="193.1" height="14"/>
</g>
</svg>
