<?xml version="1.0" encoding="utf-8"?>
<!-- Generator: Adobe Illustrator 19.2.1, SVG Export Plug-In . SVG Version: 6.00 Build 0)  -->
<svg version="1.1" id="HtB_x5F_CMYK_x5F_Drk_x5F_Strap"
	 xmlns="http://www.w3.org/2000/svg" xmlns:xlink="http://www.w3.org/1999/xlink" x="0px" y="0px" viewBox="0 0 283.4 283.4"
	 style="enable-background:new 0 0 283.4 283.4;" xml:space="preserve">
<style type="text/css">
	.st0{fill:#FFFFFF;}
	.st1{fill:#006367;}
	.st2{fill:#009394;}
</style>
<g>
	<path class="st0" d="M280.1,141.7c0,76.5-62,138.4-138.4,138.4c-76.5,0-138.4-62-138.4-138.4c0-76.5,62-138.4,138.4-138.4
		C218.2,3.2,280.1,65.2,280.1,141.7"/>
	<path class="st1" d="M141.7,6.5C67.2,6.5,6.5,67.1,6.5,141.7c0,74.5,60.6,135.2,135.2,135.2c74.5,0,135.2-60.6,135.2-135.2
		C276.9,67.2,216.2,6.5,141.7,6.5 M141.7,283.4C63.6,283.4,0,219.8,0,141.7S63.6,0,141.7,0s141.7,63.6,141.7,141.7
		S219.8,283.4,141.7,283.4"/>
	<g>
		<path class="st1" d="M132.9,54.6h-12.2v6.8l12.2,13.1V54.6z M101.3,110.7v48.1h-2H65.8h-3.4v-5.2v-42.9h-11l-3.5-8.2l49.9-53.3
			l3.5-3.8l3.5,3.8l49.9,53.3l-3.5,8.2h-11.3H101.3z"/>
		<polygon class="st1" points="131.7,158.8 131.7,141.9 117.8,141.9 117.8,158.8 107,158.8 107,116.4 117.8,116.4 117.8,132.4 
			131.7,132.4 131.7,116.4 142.5,116.4 142.5,158.8 		"/>
		<path class="st2" d="M163.7,134c-3.4,0-6.5,2-7.2,5.4h14.4C170.1,136,167.1,134,163.7,134 M180.1,145.8h-23.8c0.6,3.8,3.7,6,7.4,6
			c2.6,0,4.2-1,5.8-3h9.7c-2.8,6.4-8.4,11-15.5,11c-9.3,0-16.8-7.6-16.8-16.8s7.3-17.1,16.7-17.1c9.7,0,16.8,7.8,16.8,17.4
			C180.4,144.2,180.3,145,180.1,145.8"/>
		<rect x="184.5" y="116.4" class="st2" width="9.5" height="42.4"/>
		<path class="st2" d="M216.3,134.8c-4.6,0-8,3.6-8,8.1s3.4,8.1,8,8.1c4.5,0,8-3.6,8-8.1C224.2,138.4,220.8,134.8,216.3,134.8
			 M218.3,159.9c-3.8,0-7-1.1-9.6-4v13.5h-9.5V127h8.9v3.5h0.1h0.1c2.5-3.1,6-4.6,9.9-4.6c9.8,0,15.5,8.1,15.5,17.3
			C233.7,152.1,227.5,159.9,218.3,159.9"/>
		<polygon class="st2" points="76.6,185.6 76.6,210.2 67.1,210.2 67.1,185.6 62.4,185.6 62.4,178.4 67.1,178.4 67.1,167.8 
			76.6,167.8 76.6,178.4 81.2,178.4 81.2,185.6 		"/>
		<path class="st2" d="M99.1,186.2c-4.4,0-7.6,3.7-7.6,8s3.2,8,7.6,8c4.4,0,7.6-3.7,7.6-8C106.7,190,103.5,186.2,99.1,186.2
			 M99.1,211.1c-9.7,0-17.1-7.2-17.1-16.9s7.4-16.9,17.1-16.9s17.1,7.2,17.1,16.9C116.2,204,108.8,211.1,99.1,211.1"/>
		<path class="st2" d="M147.5,192.4h-6.2v8.9h6.2c3.1,0,5.8-1.1,5.8-4.7C153.2,193.1,150.4,192.4,147.5,192.4 M146.2,176.6h-5v7.9h5
			c2.8,0,5.2-0.8,5.2-4.1C151.3,177.3,148.9,176.6,146.2,176.6 M159,206.5c-4.4,3.7-8.4,3.7-13.9,3.7h-13.5v-42.4h13.1
			c5.1,0,9.9,0.1,13.6,4.1c1.8,1.9,2.5,4.4,2.5,7c0,3.6-1.8,6.8-4.9,8.5c4.6,1.6,7,5,7,9.8C162.9,200.7,161.7,204.3,159,206.5"/>
		<path class="st2" d="M186.8,210.2v-3.4h-0.2c-1.7,3.4-4.7,4.4-8.2,4.4s-7-1.2-9.3-4c-2.6-3.2-2.9-5.8-2.9-9.8v-19h9.5V196
			c0,3.6,0.8,6.4,5.1,6.4c3.9,0,5.4-2.8,5.4-6.5v-17.5h9.5v31.8H186.8z"/>
		<polygon class="st2" points="215.1,220.8 205,220.8 210.1,208.6 198.3,178.4 208.4,178.4 214.8,196.8 214.9,196.8 221,178.4 
			231,178.4 		"/>
	</g>
	<path class="st2" d="M141.7,16.4c-69.1,0-125.3,56.2-125.3,125.3S72.6,267,141.7,267S267,210.8,267,141.7S210.8,16.4,141.7,16.4z
		 M141.7,260.4c-65.6,0-118.8-53.2-118.8-118.8S76.1,22.9,141.7,22.9S260.4,76,260.4,141.6S207.3,260.4,141.7,260.4z"/>
</g>
</svg>
