<?xml version="1.0" encoding="utf-8"?>
<!-- Generator: Adobe Illustrator 19.2.1, SVG Export Plug-In . SVG Version: 6.00 Build 0)  -->
<svg version="1.1" id="Layer_1" xmlns="http://www.w3.org/2000/svg" xmlns:xlink="http://www.w3.org/1999/xlink" x="0px" y="0px"
	 viewBox="0 0 469.8 222.3" style="enable-background:new 0 0 469.8 222.3;" xml:space="preserve">
<style type="text/css">
	.st0{fill:#082432;}
	.st1{fill-rule:evenodd;clip-rule:evenodd;fill:#082432;}
</style>
<g>
	<path class="st0" d="M128.3,188.6c0,7.5,0.2,11.8,0.3,12.6c0.2,1.7-0.4,1.9-1,1.9c-0.8,0-2-0.7-2.7-1.3c-1.2-1-2.2-2-2.4-2.3
		c-7-8.7-18.3-22.4-24.7-29.6c-0.3-0.3-0.5,0.1-0.6,0.9c-0.1,0.9-0.1,2.7-0.1,7.1v8.5c0,11.8,1.9,13.1,4,13.9l2.9,1.1
		c0.8,0.3,0.8,1.4-0.5,1.3c-2.4-0.1-5-0.3-7.8-0.3s-5.7,0.3-7.8,0.3c-1.3,0-1.3-0.9-0.4-1.3l2-0.8c1.6-0.6,3.1-1.8,3.6-3.4
		c0.5-1.9,0.9-8.2,0.9-15.6v-10.4c0-4.3-0.4-5.3-1.1-6.6c-1.2-2.1-4-3-6.1-3.6c-0.9-0.2-0.9-1.3,0.2-1.3c2.8,0,5.2,0.4,7.5,0.4
		c0.8,0,1.6,0,2.8-0.1c1.5-0.1,1.8,0,1.9,0.5c0.3,1.1,0.9,2.3,2.6,4.3c2.8,3.9,11.1,13.9,22.6,26.2c0.7,0.7,0.9,0.6,0.9-0.3v-9.8
		c0-6.2-0.3-9.4-0.7-13.1c-0.5-4.7-1.6-5.5-6.5-6.8c-1-0.2-0.8-1.3,0.2-1.3c2.7,0,5.6,0.3,8.6,0.3c2.6,0,5-0.3,7.2-0.3
		c1.2,0,1.2,0.9,0.2,1.3c-2.4,1-4.3,2-5,5.6c-0.5,2.9-1,8.2-1,14.8V188.6z"/>
	<path class="st0" d="M175.4,192.1c0-2.3-0.3-3.6-0.8-4.6c-1.1-2-4.2-2.7-6.3-3.2c-0.8-0.2-0.8-1.3,0.4-1.3c4.1,0,6.1,0.3,9.1,0.3
		c2.6,0,4.7-0.3,6.9-0.3c1.5,0,1.3,1.1,0.4,1.3c-1.6,0.5-2.8,1.7-3.1,2.9c-0.3,0.9-0.3,2.4-0.3,5.5c0,4.6,0.3,6.4,0.8,7.2
		c0.4,0.5,0.2,0.9-0.4,1.1c-4.5,1.3-9.9,3-15.1,3c-15,0-24.3-9-24.3-22.5c0-7.8,3.7-14.6,11.1-18.8c4.2-2.3,9.2-3.9,15.1-3.9
		c4.7,0,8.8,0.7,11,1.9c1.2,0.6,1.6,1.1,1.6,1.9s-0.1,1.5-0.2,2.2c-0.2,1.1-0.3,2.2-0.4,4.6c-0.1,1.5-1.5,1.4-1.5,0.4
		c-0.1-2.1-1.3-3.9-3.6-5.5c-2.2-1.6-5.7-2.7-10.1-2.7c-3.8,0-6.9,1.1-9.1,2.7c-4.1,3-6.4,8.1-6.4,16.1c0,12.6,8.5,20.6,19.8,20.6
		c2.2,0,4.4-0.7,4.7-1.3c0.4-0.5,0.7-2.6,0.7-5V192.1z"/>
	<path class="st0" d="M217.6,160.7c1,0.7,1.1,1.6,1.1,2.1s-0.1,1-0.3,1.8c-0.1,0.8-0.3,2.1-0.3,3.9c0,1.1-1.3,1.1-1.4-0.1
		c-0.1-0.8-0.5-2-1.8-3.5c-1.7-2-4-3-6.8-3c-3.4,0-5.9,2.3-5.9,6.3c0,5.5,4.1,7.6,8.3,9.1c5.9,2.1,11,4.3,11,11.5
		c0,5.6-3.5,9.4-6.2,11.4c-3.1,2.3-6.6,3.4-9.9,3.4c-3.2,0-5.8-0.7-7.7-1.8c-1.8-1.2-2.9-2.4-3.3-3.8c-0.2-0.7,0.3-1.8,0.8-2.5
		c0.5-0.8,1.3-3,1.7-3.9c0.3-0.7,1.2-0.6,1.3,0.3c0,0.6,0,1.5,0.7,3c1.3,2.7,5.6,5.1,9.5,5.1c4.7,0,7.4-2.6,7.4-7.7
		c0-5.3-3.9-7.8-9.2-9.7c-6.8-2.4-10-5.6-10-10.8c0-2.6,0.8-5.7,3.8-8.6c2.4-2.4,6.2-4.4,10.5-4.4
		C214.8,158.8,216.7,160.1,217.6,160.7z"/>
	<path class="st0" d="M255.3,178.3c8,0,9.2-0.2,9.8-0.3c0.9-0.1,1.2-0.3,1.2-2v-3.6c0-3.8-0.2-7.1-0.7-8.2c-0.9-2-2.7-2.6-5.3-3.2
		c-0.8-0.2-0.7-1.3,0.4-1.3c3.3,0,5.3,0.3,7.9,0.3c2.9,0,5.3-0.3,8.9-0.3c1.1,0,1.1,1.1,0.2,1.3c-2.6,0.6-4.1,1.4-4.4,2.7
		c-0.5,1.7-0.8,3.4-0.8,10.7v11.8c0,7.7,0.3,9.2,0.7,11.2c0.4,2.3,2.2,3,5.7,4c0.8,0.2,0.8,1.3-0.4,1.3c-3.5,0-6.5-0.3-9.5-0.3
		c-2.8,0-4.9,0.3-7.6,0.3c-1.2,0-1.2-1-0.4-1.3c2.6-0.8,3.8-1.1,4.6-3.2c0.4-1.3,0.7-3.9,0.7-9.8v-4.9c0-1.3-0.3-1.6-1.1-1.7
		c-0.9-0.1-2.1-0.2-10.3-0.2h-1.3c-7.2,0-8,0.1-8.7,0.2c-1.2,0.2-1.3,0.3-1.3,2.1v3.6c0,5.3,0.2,8.4,0.5,9.8
		c0.6,2.3,2.5,3.4,5.1,4.1c0.9,0.3,0.9,1.3-0.4,1.3c-2.4,0-6-0.3-8.7-0.3c-3.1,0-4.9,0.3-7.7,0.3c-1.1,0-1-0.9-0.2-1.3
		c3.4-1.3,4.4-2.3,4.7-3.7c0.2-1.1,0.5-2.8,0.5-10.2v-13.1c0-3.4-0.1-7.7-0.6-9.7c-0.4-1.6-1.8-2.6-5.6-3.7
		c-0.7-0.2-0.8-1.3,0.2-1.3c3.3,0,5.5,0.3,8.2,0.3c3.3,0,5.1-0.3,8.8-0.3c1.2,0,1.2,1.1,0.3,1.3c-3.3,0.8-4,1.9-4.5,3.4
		c-0.5,1.4-0.6,10.1-0.6,12c0,1.3,0,1.6,0.7,1.7c0.7,0.1,1.5,0.2,8.6,0.2H255.3z"/>
	<path class="st0" d="M294.3,170.9c0-5.5-0.2-6.4-0.6-7.3c-0.7-1.5-2.8-2.1-4.6-2.6c-0.9-0.1-0.9-1.3,0.1-1.3c4,0,5.5,0.3,8,0.3
		c3,0,4.7-0.3,8.3-0.3c1.2,0,1.3,1.1,0.3,1.3c-2.1,0.4-3.1,1.1-3.7,2.1c-1.3,1.7-1.6,6.9-1.6,13.8v7.4c0,5.5,1.4,9.5,3.5,11.3
		c1.8,1.8,5,3.7,9.4,3.7c2.3,0,5.8-0.1,8.3-2.8c2.6-2.4,4.1-7.2,4.1-16.4v-7.4c0-4.6-0.5-6.7-1-8c-0.8-1.9-2.5-2.7-5.5-3.7
		c-0.9-0.3-0.7-1.3,0.2-1.3c2.9,0,5.7,0.3,8.6,0.3c2.4,0,4.6-0.3,6.6-0.3c1.1,0,1.2,1.1,0.2,1.3c-1.7,0.4-3.2,1.3-4,3.4
		c-0.5,1.3-0.8,3.4-1,7.5l-0.5,11.8c-0.5,11.9-7.7,19.9-19.3,19.9c-5.5,0-10.1-1.6-12.9-5c-1.9-2.4-2.9-5.5-2.9-11.2V170.9z"/>
	<path class="st0" d="M417.2,160.7c1,0.7,1.1,1.6,1.1,2.1s-0.1,1-0.3,1.8c-0.1,0.8-0.3,2.1-0.3,3.9c0,1.1-1.3,1.1-1.4-0.1
		c-0.1-0.8-0.5-2-1.8-3.5c-1.7-2-4-3-6.8-3c-3.4,0-5.9,2.3-5.9,6.3c0,5.5,4.1,7.6,8.3,9.1c5.9,2.1,11,4.3,11,11.5
		c0,5.6-3.5,9.4-6.2,11.4c-3.1,2.3-6.6,3.4-9.9,3.4c-3.2,0-5.8-0.7-7.7-1.8c-1.8-1.2-2.9-2.4-3.3-3.8c-0.2-0.7,0.3-1.8,0.8-2.5
		c0.5-0.8,1.3-3,1.7-3.9c0.3-0.7,1.2-0.6,1.3,0.3c0,0.6,0,1.5,0.7,3c1.3,2.7,5.6,5.1,9.5,5.1c4.7,0,7.4-2.6,7.4-7.7
		c0-5.3-3.9-7.8-9.2-9.7c-6.8-2.4-10-5.6-10-10.8c0-2.6,0.8-5.7,3.8-8.6c2.4-2.4,6.2-4.4,10.5-4.4
		C414.4,158.8,416.3,160.1,417.2,160.7z"/>
	<path class="st0" d="M456.5,160c3.7,0,5.8-0.1,7.2-0.1c1.8-0.1,3.7-0.7,5-1.6c0.6-0.4,1.3-0.1,1.1,0.6c-1.1,2.7-1.1,5.3-1.3,9
		c-0.1,0.9-1,1.1-1.4,0.2c-0.7-1.8-1.4-3.5-3.9-4.2c-1.7-0.4-4-0.7-8.7-0.7c-1.3,0-1.4,0.3-1.5,1.1c-0.2,0.9-0.4,4.4-0.4,11v9.5
		c0,6.7,0,9.2,0.3,11.6c0.5,3.3,2.2,3.7,6.1,5c1,0.3,0.9,1.3-0.4,1.3c-3.4,0-6-0.3-9.9-0.3c-3,0-5.2,0.3-9.3,0.3
		c-1.2,0-1.2-1-0.2-1.3c3.5-1,6.3-1.4,6.6-4.1c0.2-1.4,0.6-4.5,0.6-12v-9.9c0-7.1-0.2-9.4-0.2-10.2c0-1.7-0.2-2-1.5-2
		c-2,0-8.5-0.1-10.8,1.1c-1.5,0.9-2.5,2.9-2.9,4.2c-0.3,1-1.4,0.8-1.4-0.3c0-0.9,0.6-4.9,0.6-9.1c0-1.2,0.7-1.3,1.3-0.7
		c0.6,0.6,1.4,0.9,2.5,1.2c1,0.3,3,0.4,8.7,0.4H456.5z"/>
	<path class="st0" d="M424.7,212.9c-1.3,1.6-4.2,4.5-10.8,4.5c-8.9,0-16.3-3.9-24.9-12c-9-8.4-14.6-16.5-18.4-22.5
		c-0.1-0.2-0.2-0.4-0.3-0.6c-0.4-0.9-0.2-1.2,0.3-1.5c0,0,1.9-1.2,3.3-2.4c1.3-1.2,3-4.2,3-7.5c0-2.9-0.7-11.8-15.8-11.4
		c-6.5,0-14.6,1.1-16.1,1.3c-1.2,0.2-1.3,1.2,0,1.3c1.9,0.2,4.1,0.5,4.8,1.2c0.3,0.4,0.6,0.9,0.8,2.2c0.1,1.7,0.4,4.1,0.4,7.8v15.8
		c0,3.9-0.3,6.5-0.4,7.9c-0.4,2.9-1.3,3.7-5.1,4.7c-1.1,0.3-0.9,1.3,0.2,1.3c2.8,0,6-0.3,9-0.3c2.9,0,5.9,0.3,8.6,0.3
		c1.2,0,1.2-1,0.1-1.3c-4.4-1.2-5.1-2.1-5.8-5.4c-0.2-1.2-0.3-2.3-0.3-5.6v-4.2c0-1.9,0.1-2.1,0.6-2.1c1.6,0,3.2-0.2,4.6-0.3
		c0,0,0.1,0,0.1,0c1.4,0,2.2,1,2.8,1.9l15.8,20.9c10.4,10.8,19.2,14.6,28.4,14.6c7.1,0,13.1-3,16-7.7
		C426.4,212.7,425.5,212,424.7,212.9z M362.8,181.3c-2.1,0-3.3,0-4.6-0.1c-0.8-0.1-0.9-0.4-0.9-1.5v-9.8c0-4.6,0.1-6,0.3-6.6
		c0.2-0.7,0.4-1,1.8-1c7.1,0,11.1,5.4,11.1,11.4C370.5,179.5,366.1,181.3,362.8,181.3z"/>
	<path class="st0" d="M89.3,212.7c-1.4,1.7-4.6,4.9-11.7,4.9c-9.6,0-17.2-4.5-26.6-13.2c-0.6-0.6-1.2-1.2-1.8-1.7
		c-6-5.8-10.6-11.3-14.2-16.1c-1.7-2-3.4-3.9-5-5.8c-2.1-2.4-4.1-4.8-6-7.1c-0.9-1-1-1.2-0.2-2c5.4-5,8.1-7.4,12.6-11.4
		c4.2-3.7,5.2-4.8,10.7-6.9c1-0.4,1-1.4-0.4-1.4c-3,0-5.3,0.3-8.7,0.3c-4.2,0-5.6-0.3-8.7-0.3c-1.2,0-1.3,1.1-0.2,1.4l2.2,0.8
		c3.3,1,3,2,1.8,3.9c-2.3,3.4-7.9,9.5-13.4,14.2c-2.2,1.9-3.8,2.9-4.7,3.4c-1,0.5-1.3,0.3-1.3-1V172c0-11.1,0.3-13.3,0.5-14.6
		c0.3-1.7,1.6-3.1,5.2-4.1c1.2-0.3,1.2-1.4-0.2-1.4c-3.1,0-5.8,0.3-8.9,0.3c-3,0-5.3-0.3-9.1-0.3c-1.4,0-1.4,1.2-0.6,1.4
		c4.2,1.3,5.7,2.6,6.2,4.4c0.6,2.5,0.7,8.3,0.7,14.4v16.8c0,4.1-0.2,6.2-0.6,8c-0.5,2.2-3.4,3.6-6,4.5c-0.9,0.3-0.9,1.3,0.5,1.3
		c3.4,0,5.5-0.3,8.6-0.3c3.5,0,6.9,0.3,10.3,0.3c1.3,0,1.3-1,0.4-1.3c-1.9-0.6-3.4-1.1-4.7-2.1c-1.7-1.3-2.3-2.7-2.3-15.5v-3
		c0-1.9,0.1-2.3,0.8-2.8c0.6-0.5,1.3-0.8,2.2-0.8c0.8,0,2,0.3,4.4,2.9c0.7,0.8,1.5,1.7,2.3,2.6c1.3,1.4,2.6,3,4,4.6
		C45.3,212.1,63,222.3,73,222.3c7.7,0,14.2-3.3,17.3-8.3C91.1,212.5,90.2,211.8,89.3,212.7z"/>
	<path class="st1" d="M60.6,158v-3.5l-3.8-3.8l3.8-3.8l3.8,3.8l3.8-3.8l-2.5-2.5l2.5-2.5l2.5,2.5l-2.5,2.5l3.8,3.8l3.8-3.8l3.8,3.8
		l-3.8,3.8v3.5H60.6z M68.2,154.5l-3.8-3.8l-3.8,3.8H68.2z M75.8,154.5l-3.8-3.8l-3.8,3.8H75.8z"/>
	<path class="st0" d="M76.8,201.4c-2.4-0.5-4.5-1.3-5-3.6c-0.6-2.5-0.6-6.1-0.6-12.1v-8.9c0-6,0-9.8,0.5-12.2
		c0.4-2.4,2.7-3.2,4.4-3.6c1-0.2,1-1.3-0.2-1.3c0,0-0.1,0-0.1,0v0H60.3c-1.2,0-1.3,1.1-0.5,1.3c2,0.5,4.2,1.3,4.8,3.9
		c0.4,2.1,0.4,5.9,0.4,11.9v8.9c0,6,0,9.6-0.5,12.6c-0.4,1.8-2.7,2.8-4.7,3.1c-1,0.2-0.9,1.3,0.2,1.3c3.1,0,5.6-0.3,8-0.3
		c2.8,0,5.2,0.3,8.5,0.3C77.7,202.7,77.7,201.6,76.8,201.4z"/>
	<g>
		<path class="st0" d="M290.9,95.5c1.1,0,2-0.5,2.5-1.6l2.1-4c0.2-0.5,0.3-1,0.3-1.5c0.5,0.1,1,0.2,1.5,0.2c1.1,0,2-0.3,2.8-0.8
			c2.7-1.8,3.2-5.9,3.2-6.1c0-0.3-0.1-0.5-0.4-0.6c-0.2-0.1-0.5-0.1-0.7,0.1c0,0-0.7,0.7-2.1,1.8c-0.8,0.7-1.5,0.9-2.2,1.1
			c-0.5,0.1-0.9,0.3-1.4,0.5c-0.7,0.4-1.2,1.2-1.6,1.8c-1.3-1.9-3.2-3.5-5.5-4.7c2.4-1.2,4.5-3,5.4-3.8c0.8-0.5,1.6-1.3,2.4-2.2
			c-0.4,1.9-1.1,4.7-1.8,7.2c-0.1,0.2,0,0.4,0.1,0.6c0.1,0.1,0.3,0.2,0.5,0.2c0,0,0.1,0,0.1,0c0.1,0,2.9-0.5,4-4.4
			c0.1-0.3,0.2-0.7,0.2-1l0.6,2.2c0.1,0.2,0.2,0.4,0.5,0.5c0.2,0.1,0.5,0,0.6-0.2c2.7-2.8,2.7-7.9,1.7-12c0.8,1,1.6,2.2,1.9,3.1
			c0.2,0.5,0.3,1,0.8,1.1c0.2,0,0.5,0,0.7-0.2c0.8-0.8-0.5-6.5-2.2-11.4c-2-6.1-8.2-9.9-11.8-11.6c-1.7-1.2-3.6-2-5.6-1.5
			c-0.1,0-0.1,0-0.2,0c-0.3,0.1-0.6,0.2-0.9,0.4c-0.4-4.3-0.4-10.7,0.2-20.2c0.2-2.6,0.4-4.3,0.9-6.1c0.2-0.9,0.4-1.8,0.7-2.9
			c0.5-1.9,0.5-3.8,0.4-5.3l1,0.8l1.5-1.7l3.5-0.2l-0.2-3.5l-3.5,0.3l-0.2-3.5l2.3-0.2l-0.2-2.4L290.4,4l0.2,2.3L287,6.5L286.8,3
			l-3.5,0.3l0.2,3.5L282,8.5l0.7,0.6c-0.2,0-0.4,0-0.7,0c-2,0.2-3.7,1.8-4.3,2.4l-3.8,0.9l-0.3,0.1c-0.3,0.2-0.6,0.6-0.6,1.1
			c0,0.3,0.1,0.8,0.7,1.1c0.7,0.5,2.4,0.6,3.4,0.7c0.5,0.4,2,1.5,3,2.4c0.2,0.2,0.4,0.4,0.5,0.5c0.5,0.5,0.6,0.5,0.5,1.8
			c-0.8,2.7-1.5,5.2-2.2,7.7c-3.3,11.2-6,20.3-6.9,32.5c-0.1-0.3-0.1-0.5-0.2-0.8c-0.2-0.7-0.6-1.3-1-1.8V16.8l-1.1,0.3
			c-11.6,3.2-23,1.4-34.3-5l-0.4-0.2l-0.4,0.2c-7.7,4.3-15.5,6.5-23.2,6.5c-3.1,0-6.2-0.4-9.3-1.1c0-1.1-1.7-1.9-3-2
			c-1.3-0.1-4.6,0.2-5.4,6.1c-0.3,2.3-0.4,2.3-1,2.4c-1.2,0.2-3.3,0.7-7.5,5.2c-1.2-1.9-3-3.3-5.5-3.8c-2.7-0.5-4.4-1.2-5.6-1.8
			c2-0.1,3.6-1,4.6-1.9c1.1-1,1.9-0.4,2.2-0.2l1,1l0.5-1.3c0.8-2.3,0-5.2-1.3-6.4c-0.7-0.6-1.5-0.8-2.2-0.5c-1,0.4-2.7,1.2-3.7,1.8
			c0-0.1,0-0.3,0.1-0.4c0.4-1.2,2.4-2.2,3.6-2.7c0.6-0.3,1-0.5,1.2-0.7c0.3-0.2,0.5-0.6,0.6-1c0.2-1.4-1.4-3.6-1.8-4.2l-0.2-0.3
			l-0.4,0c-3.5-0.1-5.7,1.1-6.9,2.2L170,6.6l1.4-4.3L167,0.9l-1.4,4.3l-4.3-1.4l0.9-2.9L159.4,0l-0.9,2.9l2.9,0.9l-1.4,4.3l-4.3-1.4
			l-1.4,4.3l4.3,1.4l0.4,0.8c-0.8,0.1-1.3,0.5-1.7,0.9c-1.2,1.3-1.1,3.6-0.7,4.7c0.3,0.8,0.7,1,1.1,1c0.1,0,0.2,0,0.3,0
			c-0.9,3,0.2,6.7,0.2,6.9l0.5,1.7c-0.2-0.4-0.5-0.7-0.8-1.1c-2.5-3.2-4.5-4.6-6.1-4.4c-1.9,0.3-2.7,2.4-3.5,4.3
			c-0.4,1-1,2.4-1.4,2.5c-0.2,0-0.5-0.1-1.1-0.6l-1.6-1.6l0.2,2.3c0,0.6,0.3,3.4,2,4.1c0.5,0.2,1.1,0.2,1.7,0c0,1.2-0.2,2.9-1.8,3.7
			l-2,1l2.1,0.6c0.1,0,1.4,0.4,2.8-0.5c1.1-0.7,2-2,2.6-3.9c0.6,1.1,1.5,2.2,2.8,2.5l1.8,0.4c-0.2,3.9-1.6,9.4-5.3,16.3
			c-5.8,10.7-3.1,14.1-1.6,15.1c0.7,0.5,1.5,0.7,2.4,0.7c1.2,0,2.5-0.4,3.8-1.2c-0.8,3.9,1.3,7,2.6,9c0.3,0.4,0.7,1,0.8,1.4
			c-0.2,0-0.5,0.1-1.1,0c-2.7-0.1-4.4,0.3-5.3,1.3c-1,1.1-0.8,2.5-0.7,3.8c0,0.3,0.1,0.6,0.1,0.9c0.1,1.1-0.4,3.2-0.8,5.2
			c-0.5,2.4-1,4.8-0.9,6.4c0,0.5,0.3,1,0.7,1.4c1.1,0.9,3.6,1.2,6,1.2c2.6,0,5.2-0.3,6.1-0.4c1.4-0.2,2.5-1.5,2.4-3
			c0-0.8-0.5-3.3-5.5-3.6c-1.5-0.1-2.6-0.6-3.2-1.5c-1.3-1.8-0.5-4.7-0.5-4.7l0.1-0.2l-0.1-0.2c0,0-0.2-0.7,0.4-1.4
			c0.7-0.8,2.7-2.2,8.9-2c2.2,0.1,3.8-0.4,4.8-1.5c1.8-1.9,1.5-5,1.1-8.3c-0.1-1.3-0.2-2.6-0.3-3.8c3.6,1,11.3,4.1,10,12.5
			c-3.1,1.5-5.7,3.5-7,6.1c-0.4,0.8-0.4,1.7,0,2.5l2.1,4c0.6,1.1,1.4,1.6,2.6,1.6c2.3,0,5.4-2.2,8.4-4.2c2.6-1.8,5.4-3.7,7.4-4
			c-1.6,2.1-4,3.2-6.6,4.4c-3,1.4-6.2,2.8-7.9,6l0,0.1l0,0.1c0.6,2.3,1.4,4.1,2.8,6c0,0,0.1,0.1,0.1,0.1l0,0
			c0.1,0.1,0.2,0.2,0.3,0.2c2,1.5,3.6,1.5,5.8,1.6c0.7,0,1.5,0,2.3,0.1l0.4,0l-0.2-0.4c0,0-2.3-3.6-3.4-6c0.9-0.5,1.9-0.9,2.9-1.3
			c4.2-1.8,8.5-3.7,7.3-8c-0.3-0.9-0.6-1.9-1-3c3.2,0.8,6.2,2.6,9.6,4.6c6.2,3.7,13.9,8.4,26.7,8.7c0.4,0,0.7,0,1,0
			c0.3,0,0.7,0,1.1,0c12.7-0.3,20.4-4.9,26.5-8.7c3.4-2,6.3-3.8,9.5-4.6c-0.4,0.9-0.7,1.9-1,3c-1.3,4.3,3.1,6.2,7.3,8
			c1,0.4,2,0.9,2.9,1.3c-1.1,2.4-3.3,6-3.4,6l-0.2,0.4l0.4,0c0.9-0.1,1.6-0.1,2.3-0.1c2.2-0.1,3.8-0.1,5.8-1.6
			c0.1-0.1,0.1-0.1,0.2-0.2l0.1-0.1c0-0.1,0.1-0.1,0.1-0.2c1.4-1.9,2.3-3.6,2.8-6l0-0.1l0-0.1c-1.7-3.2-4.8-4.7-7.9-6
			c-2.7-1.2-5.2-2.4-6.8-4.6c2.2,0.3,5.1,2.3,7.9,4.2C285.8,93.4,288.7,95.5,290.9,95.5z M297.2,85.7c0.3-0.2,0.7-0.3,1.1-0.4
			c0.7-0.2,1.7-0.5,2.7-1.3c0.2-0.2,0.5-0.4,0.7-0.5c-0.4,1.1-1,2.5-2.2,3.3c-0.9,0.6-2,0.8-3.4,0.5C296.3,86.6,296.7,86,297.2,85.7
			z M286.7,50.7c0.3-0.2,0.6-0.4,0.9-0.6c0.1,0,0.2-0.1,0.2-0.1c0.3-0.1,0.6-0.1,1-0.1c0.6,0,1.2,0.2,1.7,0.4
			c2.6,1.1,4.8,4.2,5.7,5.9c1.2,2.5,2,5.8,2.2,8.9c0,0.1,0,0.3,0,0.4c-0.3-0.4-0.6-0.8-0.9-1.1c-0.3-0.4-0.6-0.7-1-1
			c-0.8-0.8-1.8-1.5-2.7-2c-0.5-0.3-1-0.5-1.6-0.7c0,0,0,0,0,0c-0.6-0.2-1.8-0.7-3-1.4c-0.6-0.3-1.2-0.7-1.6-1.1c0,0,0,0,0,0
			c-0.3-0.3-0.6-0.7-0.9-1.1c0-0.1-0.1-0.1-0.1-0.2c-0.1-0.2-0.2-0.4-0.3-0.6c0,0,0,0,0,0c-0.6-1.3-0.8-2.8-0.5-4
			c0-0.2,0.1-0.3,0.2-0.5C286.1,51.4,286.4,51,286.7,50.7z M290.8,9.8l0.2,3.5l-3.7-3.3L290.8,9.8z M287,6.6l0.2,3.5l-3.7-3.3
			L287,6.6z M269.9,58.9C269.9,58.9,269.9,58.9,269.9,58.9c0.1,0.2,0.2,0.4,0.3,0.5c0.1,0.2,0.2,0.5,0.3,0.7
			c0.1,0.2,0.1,0.3,0.1,0.5c0.3,1.2,0.3,2.5,0.1,3.3l-0.1,0.5l0.4,0.3c0.2,0.1,0.5,0.3,0.7,0.4c0.3,0.2,0.6,0.3,0.8,0.5
			c0.3,0.2,0.6,0.3,0.9,0.5c1.7,0.9,3.3,1.7,5,2.4c2.1,0.8,4.4,1.5,7.1,1.8c0,0,0,0,0.1,0l0.2-1.3c-2.7-0.3-5-1-7.2-1.9
			c-1.7-0.7-3.4-1.6-5.1-2.5c0.5-14,3.4-23.8,7-36.1c0.7-2.5,1.5-5,2.3-7.8l0-0.2c0.1-2,0-2.3-1-3.3c-0.1-0.1-0.3-0.3-0.5-0.5
			c-1.3-1.3-3.3-2.7-3.4-2.8l-0.2-0.1l-0.2,0c-0.4,0-0.9-0.1-1.3-0.1l2.5-0.6l0.2-0.2c0,0,1.6-1.9,3.4-2.1c1.8-0.2,3.2,0.6,3.2,0.6
			l0,0l0.3,0.3l1,0.8c0.1,0.6,0.6,3.7-0.1,6.7c-0.8,3.2-1.3,5.1-1.6,9.2c-0.7,10.4-0.6,17.2,0,21.8c-0.3,0.5-0.6,1-0.7,1.7
			c-0.6,2.6,0.5,5.9,2.4,7.6c0.3,0.3,0.7,0.6,1.1,0.8c1.4,0.9,3,1.6,4,1.9c0.3,0.1,0.7,0.3,1,0.4c1.4,0.7,2.6,1.6,3.7,2.8
			c0.3,0.4,0.6,0.7,0.9,1.1c0.5,0.6,1,1.2,1.2,1.6c0.2,0.2,0.2,0.3,0.3,0.3c0.2,0.2,0.4,0.3,0.7,0.3c0,0,0,0,0,0c0.1,0,0.2,0,0.2,0
			c0.4-0.1,0.6-0.4,0.6-0.8c0.2-4.2-0.7-9.1-2.5-12.7c-0.3-0.7-0.8-1.4-1.3-2.2c2.9,2,6,4.8,7.2,8.6c1.1,3.3,1.7,5.8,2,7.5
			c-1.3-1.9-3.1-3.7-3.2-3.8c-0.2-0.2-0.6-0.2-0.8-0.1c-0.3,0.2-0.3,0.5-0.2,0.8c1.8,3.9,2.3,9.5,0.4,12.6l-1.1-4.3
			c-0.1-0.3-0.4-0.5-0.7-0.5c-0.3,0-0.6,0.3-0.6,0.6c0,0-0.1,2.7-0.6,4.3c-0.5,1.6-1.2,2.5-1.9,3c2.2-8.6,2.1-9,1.7-9.3c0,0,0,0,0,0
			c-0.2-0.1-0.4-0.2-0.6-0.1c-0.2,0.1-0.4,0.2-0.4,0.4c0,0.2-0.2,0.5-0.5,0.8c-0.7,0.9-1.9,2.3-2.9,3c0-0.1,0-0.2,0-0.4
			c0-0.1,0-0.3,0-0.4c0.1-2.8,0.2-7.4-0.4-9.3c-0.1-0.3-0.4-0.5-0.7-0.5c0,0,0,0-0.1,0c-0.3,0.1-0.5,0.5-0.5,0.8
			c0.5,1.8,0.4,6.9,0.3,9.3c0,0.3,0,0.6,0,0.9c-1.1,0.9-3,2.4-5.2,3.3c-0.1,0-0.2,0.1-0.3,0.1l0,0c-3.1-1.3-6.6-2.1-9.8-2.2l0,0
			c-0.2-0.2-0.3-0.4-0.5-0.5c-0.5-0.6-0.8-1-0.8-1.1c-1.5-1.9-2.4-4.5-2.8-7.5c1.4,1,2.8,2,4.4,2.8c2,1.1,4.2,1.8,6.8,1.8
			c0,0,0,0,0.1,0l0-0.7l0-0.6c0,0,0,0-0.1,0c-2.5,0-4.6-0.8-6.6-1.9c-1.4-0.8-2.7-1.7-4.1-2.7c-0.2-0.1-0.4-0.3-0.6-0.4
			c-0.3-0.2-0.6-0.4-0.9-0.6c0,0,0,0-0.1,0c-0.3-0.2-0.5-0.4-0.8-0.6c-0.2-0.1-0.4-0.3-0.6-0.4l-0.7-0.5l-0.3,0.9
			c-0.1,0.4-0.5,0.9-0.9,1.5c-0.3,0.4-0.6,0.8-1,1.2c0.1-0.2,0.1-0.5,0.2-0.7c0.4-1.2,0.7-2.3,0.9-2.8c0-0.2,0-0.5,0-0.7
			c0-0.2,0-0.3,0-0.5c-0.1-0.7-0.2-1.5-0.3-2c0-0.2-0.1-0.3-0.1-0.4c-0.4-1.3-1-1.9-1.4-2.3c0.4,0,0.7,0.1,1,0.2l0.6,0.3l0.8,0.4
			l0.1,0l0.1,0.1l-0.1-0.3l0-0.1l-0.5-1.3c-0.1-0.2-0.2-0.4-0.3-0.6c-0.1-0.1-0.1-0.3-0.2-0.4c0.1,0,0.1,0.1,0.2,0.1
			C269.4,58.3,269.7,58.6,269.9,58.9z M265.3,76c0.9-1.4,1.7-2.9,2.4-4.3c0.9-1,2.5-2.8,3.3-4.1c0.3,0.2,0.5,0.4,0.8,0.6
			c0.2,4,1.3,7.4,3.2,9.8c0,0,0.2,0.3,0.5,0.7c-5.2,0.1-10.3,1.6-14.8,4.2c-0.5,0.3-0.9,0.5-1.4,0.8C261.6,81.1,263.6,78.6,265.3,76
			z M260.8,77.6c-0.3,0-0.4,0-0.4-0.2c0-0.3,0.5-0.3,1.5-0.5c0.3-0.1,0.6-0.2,0.9-0.3c-0.2,0.3-0.4,0.6-0.7,0.9c-0.1,0-0.3,0-0.5,0
			C261.3,77.6,261,77.6,260.8,77.6z M193,25.7c1.6-0.3,2-0.9,2.4-3.9c0.4-2.6,1.3-4.2,2.6-4.6c0.4-0.1,0.8-0.1,1.1,0v0
			c-1.1,0.7-1.7,1.8-1.7,1.8l-1.2,2.2l2.3-1c0.2-0.1,0.4-0.2,0.6-0.2v1.9c-0.2,0.1-0.3,0.3-0.3,0.3l-1.7,2.3l2-0.7v0.5
			c-1.3,0.1-2.3,0.5-2.9,1.3c-0.6,0.8-0.7,1.8-0.6,2.5c-4.5,0.3-6.8,4.6-7.9,8c-0.3-1.7-0.8-3.6-1.7-5.3
			C190.1,26.3,192,25.9,193,25.7z M197.4,28.8c0,0-0.5-1.3,0.1-2.1c0.3-0.4,0.8-0.6,1.6-0.6V42c-1,0.7-2,1.5-2.6,2.1
			c-1.2-1-2.7-1.1-4-1.2c-2-0.2-3.4-0.3-4.1-2.5c0,0,1-7.2,5-9.6c0.9-0.6,2-0.9,3.2-0.8l1.4,0.1L197.4,28.8z M187.4,40.1L187.4,40.1
			L187.4,40.1L187.4,40.1z M165.7,5.2l4.3,1.4l-5.7,2.9L165.7,5.2z M158.6,12.4l1.4-4.3l4.3,1.4L158.6,12.4z M155.6,36.1
			c-0.8-1.2-1.8-3.2-1.5-4.1c0-0.1,0.1-0.3,0.4-0.3c0,0,0.1,0,0.1,0c0.2,0,0.5,0.3,0.6,0.4c0.7,0.9,1.3,2.7,1.2,5.4L155.6,36.1z
			 M150.5,67.8c-1.7-1.1-2-5.1,2.2-12.8c7.5-13.7,5.8-21.7,3.9-24c-0.6-0.7-1.2-1-1.9-1c-0.2,0-0.4,0-0.6,0.1
			c-0.7,0.2-1.2,0.7-1.5,1.4c0,0.1,0,0.1-0.1,0.2l-1-4.2l-0.6,4.4c-0.2,1.6-0.6,2.8-1,3.6c0.2-1.6-0.1-2.9-0.1-3l-0.3-1.4l-1.1,0.9
			c-0.5,0.4-1,0.6-1.2,0.5c-0.2-0.1-0.4-0.4-0.6-0.8c0.3,0,0.5,0,0.8,0c1.4-0.3,2-1.9,2.7-3.6c0.6-1.4,1.2-3.1,2.1-3.2
			c0.5-0.1,1.9,0.3,4.5,3.7c6.1,7.8,1.1,17.4-2.9,25.1c-2,3.8-3.6,7-3.9,9.7c-0.2,2,0.2,3.2,1.3,3.8c1.4,0.7,3.5-0.1,5.5-1.2
			C154.6,67.9,151.9,68.7,150.5,67.8z M158.8,28.7l0.4-0.7c0,0.5,0,0.9,0,1.3C159.1,29.1,158.9,28.9,158.8,28.7z M161,34.1
			c1.4,2.2,3.3,3.6,3.7,4c-0.7,2.3-0.4,4.8-0.1,7.5c0.2,2.2,0.5,4.5,0.3,7c-0.3,4.2-1.7,5.5-3.5,7.2c-0.5,0.5-1.1,1-1.6,1.6
			c-2.9,2.5-6.7,4.8-7.9,4.1c-0.4-0.2-0.5-1-0.4-2.1c0.3-2.3,2-5.6,3.8-9.1C158.4,48.3,162.2,41,161,34.1z M169.7,67.4L169.7,67.4
			l0,0.1c-0.1,1.7,0.1,3.5,0.2,5.1c0.3,2.9,0.6,5.7-0.7,7c-0.7,0.7-1.8,1-3.5,1c-5.3-0.2-8.8,0.7-10.3,2.7c-0.8,1-0.9,2.1-0.8,2.7
			c-0.2,0.8-0.7,3.8,0.8,6c1,1.3,2.5,2.1,4.5,2.2c2.8,0.2,3.8,1.1,3.9,1.9c0,0.6-0.5,1.2-0.9,1.2c-3.7,0.5-9.5,0.7-10.8-0.4
			c-0.1-0.1-0.1-0.1-0.1-0.2c-0.1-1.4,0.4-3.7,0.9-6c0.5-2.3,0.9-4.4,0.8-5.7c0-0.3-0.1-0.7-0.1-1.1c-0.1-1.2-0.2-1.9,0.2-2.4
			c0.4-0.4,1.4-0.9,4-0.8c1.2,0,2.4,0,2.8-0.9c0.5-0.9-0.1-1.9-1-3.2c-1.4-2.1-3.6-5.3-1.9-9.3c1.5-3.4,3.2-5,4.6-6.3
			c2-1.8,3.7-3.4,4.1-8.3c0.2-2.7-0.1-5.2-0.3-7.4c-0.5-4.6-0.9-7.9,3.1-11l-1.1-1.4c-1.4,1.1-2.3,2.2-3,3.4
			c-1.5-1.1-6.1-5.3-3.9-10.7l0.4-1l-1.1-0.2c-0.1,0-0.6-0.1-1.3,0.3c-0.3-1.9-0.4-4.6,1-5.9l-1.1-1.3c-0.3,0.2-0.9,0.5-1.2,0.6
			c-0.2-0.6-0.2-1.9,0.3-2.7c0.2-0.3,0.6-0.6,1.4-0.5l0,0.1l10.5-5.4c-0.5,0.6-0.7,1-0.7,1.1l1.6,0.7c0.1-0.1,1.5-3,6.2-3
			c0,0,0.1,0,0.1,0c0.7,1,1.2,2.1,1.3,2.5c-0.2,0.1-0.5,0.3-0.8,0.4c-1.5,0.7-3.9,1.8-4.5,3.7c-0.3,0.8-0.2,1.7,0.2,2.6l0.4,0.8
			l0.8-0.4c0,0,3.1-1.6,4.6-2.2c0,0,0.1,0,0.3,0.2c0.6,0.6,1.2,2.1,1.1,3.5c-0.3-0.1-0.6-0.2-0.9-0.2c-0.8,0-1.7,0.3-2.5,1
			c-0.9,0.8-2.5,1.6-4.3,1.5c-1.8-0.1-3.5-1.1-5-2.9l-1.3,1.1c1,1.2,2.2,2.2,3.4,2.8l0,0c0.1,0,0.4,0.3,0.6,0.5
			c1.1,1,3.1,2.9,8.5,3.8c4.8,0.8,6.3,6.4,6.8,10.2c-1.8-1.8-4.7-4-7.8-4v1.7c3.1,0,6.1,3,7.5,4.6c0.4,0.5,0.7,0.8,0.7,0.8
			c0,0,0,0.1,0,0.1c1,3.6,3.6,3.9,5.7,4.1c1.4,0.1,2.7,0.2,3.5,1.3l0.6,0.8l0.7-0.8c0.6-0.6,1.3-1.3,2-1.8c0.3-0.2,0.6-0.4,0.9-0.6
			h0c0.1-0.1,0.2-0.2,0.4-0.2c0.2-0.1,0.3-0.2,0.5-0.3c0.4-0.2,0.8-0.3,1-0.2c0.1,0,0.2,0.1,0.3,0.3c0,0,0,0,0,0
			c0.1,0.2,0.2,0.3,0.3,0.4c-0.4,0.1-3.3,1.8-3.3,1.8v0.9l0.9-0.3h0l0.2-0.1c0.1,0,0.1,0,0.2-0.1c0.2,0,0.3-0.1,0.5-0.1
			c0.9-0.2,1.9-0.2,2.3,0.1c0.1,0.1,0.1,0.2,0.1,0.4c-0.7,0-1.7,0-2.4,0.2c-0.2,0-0.3,0.1-0.5,0.2c-0.1,0-0.3,0.1-0.4,0.2l0,0
			c0,0,0,0-0.1,0l-0.8,0.5v0.5c0,0,3.1,0,3.5,0.1c0,0-0.1,0.4-0.2,0.6c0.1,0,0.1,0,0.2,0c-0.1,0.1-0.2,0.1-0.3,0.2
			c-0.5,0.4-1,0.5-1.5,0.5c-0.2,0-0.3-0.1-0.5-0.1c-0.1,0-0.2,0-0.4-0.1h0c-0.3-0.1-0.6-0.2-0.9-0.3c-0.1,0-0.1,0-0.2-0.1l0,0l0,0
			c0,0-0.1,0-0.1,0c-0.3-0.1-3.9-1-5.5-0.6l-1,0.3l0.4,0.9c0,0.1,0.1,0.2,0.1,0.3c-1.9-1.2-5.2-2.8-8.2-2.2c-1.5,0.3-2-0.4-2.8-1.9
			c-0.4-0.8-1-1.9-2-2.3c-0.5-0.2-1.1-0.3-1.8-0.2l0.3,1.7c1-0.2,1.3,0.3,2,1.6c0.5,0.9,1.1,2,2.2,2.5c0,2.2-0.8,7.7-8.2,11.2
			C170.9,61.5,169.9,64.4,169.7,67.4z M221.6,58.7l0.4-0.6l0.5,0.6l-0.4,0.6c0,0,0,0,0,0l-0.3,0.4c-2.5,3.3-2.5,7.8,0,11.2l0.3,0.4
			l0,0c0,0,0,0,0,0.1l0.6,0.8l0,9.5h-1.3V71.6l-1.2-1.7c-2-2.7-2-6.4,0-9.1L221.6,58.7L221.6,58.7L221.6,58.7z M215.9,86.2
			c-0.2-0.2-0.5-0.4-0.7-0.6h11l0.6,0.6H215.9z M225.7,87.9v2v1.3v2.1c-0.4-0.3-0.9-0.6-1.3-0.9v-1.7v-1.3v-1.7H225.7z M222.7,87.9
			v1.2v1.3v1c-0.4-0.3-0.9-0.6-1.3-0.9v-0.5v-1.4v-0.7H222.7z M219.6,87.9L219.6,87.9v1.3c-0.2-0.1-0.3-0.3-0.5-0.4
			c-0.4-0.3-0.8-0.6-1.1-0.9h1.5H219.6z M226.2,83.9h-12.8c-0.2-0.2-0.4-0.4-0.6-0.6h14L226.2,83.9z M226.7,70.4l-1,1.4v9.9h-1.3
			V71.6l-1-1.3c-2.2-3-2.2-7,0-9.9l1.7-2.3l1.6,2.2C228.9,63.3,228.9,67.4,226.7,70.4z M218.7,59.8c-2.5,3.3-2.5,7.8,0,11.2l0.9,1.2
			v9.5h-1.3V71.6l-1.2-1.7c-2-2.7-2-6.4,0-9.1l2-2.7l0.4,0.6L218.7,59.8z M215.7,59.8c-2.5,3.3-2.5,7.8,0,11.2l0.9,1.2v9.5h-1.3v-10
			l-1.3-1.7c-2-2.7-2-6.4,0-9.1l2-2.7l0.5,0.6L215.7,59.8z M212.6,59.8c-2.5,3.3-2.5,7.8,0,11.2l0.9,1.2v9.5h-1.3v-10l-1.3-1.7
			c-2-2.7-2-6.4,0-9.1l2-2.7l0.5,0.6L212.6,59.8z M178.9,59.1c4.4-3.5,5.2-7.8,5.3-10c0.2,0,0.5,0,0.7-0.1c3.8-0.8,8.5,3,8.5,3.1
			l0.7,0.6l0.5-0.7c0.3-0.5,0.3-1.3,0-2.4c1.3-0.1,2.4,0.3,3.5,0.7c0.3,0.1,0.6,0.2,0.9,0.3v7.4c0,6.2,1.9,12.3,5.5,18
			c1.6,2.6,3.6,5.1,6,7.5c-0.5-0.3-0.9-0.5-1.4-0.8c-4.7-2.8-10-4.3-15.4-4.3c-2.3,0-4.9,0.3-7.4,1c0.8-1.4,1.7-3.8,1.9-6.1
			C188.7,69.2,187.3,63.5,178.9,59.1z M171.4,67c0.2-2.3,1.1-4.3,3.6-5.5c0.8-0.4,1.6-0.8,2.3-1.3c5,2.5,8.1,5.6,9,9.3
			c1.4,5.3-1.9,9.9-1.9,9.9l0.1,0l-0.1,0.6c-0.4,0.1-0.8,0.3-1.2,0.4C183.8,72.9,177.8,68.6,171.4,67z M186.8,90.2
			c-2.3,1.6-4.6,3.1-6.4,3.7c-0.5,0.1-0.9,0.2-1.3,0.1c-0.2,0-0.3-0.1-0.4-0.3c-0.1-0.1-0.1-0.3,0.1-0.6c0,0,0,0,0,0
			c2.8-2.9,8.1-5.5,12.9-6.3c0.1,0,0.1,0,0.2,0C190.3,87.8,188.6,89,186.8,90.2z M189.8,104.5c-0.1,0-0.2,0-0.3,0l-0.1,0
			c-1.9-0.1-3.2-0.1-4.8-1.1c0-0.1,0-0.1,0.1-0.1c-0.2-0.1-0.5-0.2-0.7-0.4c0.2-0.4,1.2-1.2,2.2-1.9c0.2-0.1,0.3-0.2,0.5-0.3
			c0.3-0.2,0.6-0.4,0.8-0.5C188.1,101.6,189.1,103.3,189.8,104.5z M197.6,92.4l-0.1,0.2l-0.4,0.4l-0.4,0.4l-0.4,0.4l-0.5,0.3
			l-0.5,0.3l-0.5,0.3v0l0,0h0l0.5-0.3l0.5-0.3l0.5-0.3l0.5-0.3l0.5-0.4l0,0c-0.2,0.4-0.5,0.8-1,1.2c-1.3,1.1-3.3,1.9-5.4,2.9
			c-0.9,0.4-1.9,0.8-2.8,1.3c-0.1,0-0.1,0.1-0.2,0.1c-0.1,0-0.1,0.1-0.2,0.1c-0.1,0.1-0.2,0.1-0.4,0.2c-0.1,0-0.1,0.1-0.2,0.1
			c-0.1,0-0.1,0.1-0.2,0.1c-0.1,0.1-0.3,0.2-0.4,0.2c-0.1,0.1-0.3,0.2-0.4,0.2c-0.1,0.1-0.2,0.1-0.4,0.2c-0.2,0.2-0.5,0.3-0.7,0.5
			c-0.1,0.1-0.3,0.2-0.4,0.3c-0.1,0.1-0.3,0.2-0.4,0.4c-0.4,0.3-0.7,0.7-1,1c0,0,0,0,0-0.1c0,0,0-0.1,0.1-0.1
			c0.1-0.1,0.1-0.2,0.2-0.3c0.2-0.3,0.6-0.6,0.9-0.9c0.1-0.1,0.3-0.2,0.4-0.4c0,0,0,0,0,0c0.1-0.1,0.3-0.2,0.4-0.3
			c0.3-0.2,0.5-0.4,0.7-0.6c0.1-0.1,0.2-0.2,0.3-0.2c0,0,0.1,0,0.1-0.1c0.2-0.1,0.3-0.2,0.4-0.3c0.1,0,0.1-0.1,0.1-0.1
			c0,0,0.1,0,0.1,0s0,0-0.1,0c0,0-0.1,0-0.1,0.1c-0.1,0-0.2,0.1-0.4,0.2c-0.1,0-0.1,0.1-0.2,0.1c-0.1,0-0.1,0.1-0.2,0.1
			c-0.2,0.1-0.4,0.3-0.7,0.4c-0.1,0.1-0.2,0.2-0.4,0.3c-0.1,0.1-0.2,0.1-0.3,0.2c0,0-0.1,0-0.1,0.1c-0.5,0.4-1,0.8-1.3,1.2
			c-0.1,0.1-0.2,0.2-0.2,0.3c-0.1-0.2-0.2-0.3-0.3-0.5c0-0.1,0.1-0.1,0.1-0.2c0.1-0.1,0.1-0.2,0.2-0.3c0.3-0.4,0.8-0.9,1.3-1.3
			c0.4-0.3,0.8-0.6,1.2-0.9c0.1-0.1,0.2-0.2,0.3-0.2c0.1,0,0.1-0.1,0.2-0.1c0.1-0.1,0.3-0.2,0.4-0.2c0.1-0.1,0.2-0.1,0.2-0.1
			c0,0,0,0,0,0s0,0,0,0c0,0-0.1,0-0.2,0.1c-0.1,0-0.2,0.1-0.3,0.2c-0.1,0-0.1,0.1-0.3,0.1c-0.1,0-0.1,0.1-0.2,0.1
			c-0.4,0.3-0.9,0.6-1.4,0.9c-0.5,0.4-1.1,0.9-1.4,1.3c-0.1,0.1-0.2,0.2-0.2,0.3c-0.1-0.2-0.2-0.4-0.3-0.5c0,0,0-0.1,0.1-0.1
			c0-0.1,0.1-0.2,0.2-0.3c0.3-0.4,0.8-0.9,1.3-1.3c0.5-0.4,1.1-0.9,1.5-1.1c0.2-0.1,0.4-0.3,0.5-0.3c0.1-0.1,0.2-0.1,0.2-0.1
			s-0.1,0-0.2,0.1c-0.1,0.1-0.3,0.2-0.5,0.3c-0.4,0.3-1,0.6-1.6,1.1c-0.5,0.4-1.1,0.9-1.4,1.3c-0.1,0.1-0.1,0.1-0.2,0.2
			c-0.1-0.2-0.2-0.4-0.2-0.6c0.1-0.1,0.1-0.2,0.2-0.3c0.3-0.4,0.8-0.9,1.3-1.3c0.5-0.4,1.1-0.9,1.5-1.1c0.2-0.1,0.4-0.3,0.5-0.3
			c0.1-0.1,0.2-0.1,0.2-0.1s-0.1,0-0.2,0.1c-0.1,0.1-0.3,0.2-0.5,0.3c-0.4,0.3-1,0.6-1.6,1c-0.6,0.4-1.1,0.9-1.4,1.3
			c0,0,0,0.1-0.1,0.1c-0.1-0.2-0.1-0.4-0.2-0.7c0,0,0,0,0-0.1c0.3-0.4,0.8-0.9,1.3-1.3c0.5-0.4,1.1-0.9,1.5-1.1
			c0.2-0.1,0.4-0.3,0.5-0.3c0.1-0.1,0.2-0.1,0.2-0.1s-0.1,0-0.2,0.1c-0.1,0.1-0.3,0.2-0.5,0.3c-0.4,0.3-1,0.6-1.6,1
			c-0.3,0.2-0.5,0.4-0.7,0.6c1.6-2.1,4-3.2,6.5-4.3c2.9-1.3,5.8-2.6,7.6-5.5c0,0,0,0.1,0.1,0.2l0,0l-0.1,0.3l-0.2,0.3l-0.2,0.3
			l-0.2,0.3l-0.2,0.3l-0.2,0.3l-0.2,0.2l-0.2,0.2l-0.3,0.2l-0.3,0.2l-0.3,0.2l-0.3,0.2l-0.3,0.2c-0.2,0.1-0.4,0.2-0.6,0.4v0l0,0l0,0
			l0,0l0,0h0c0.2-0.1,0.4-0.2,0.6-0.3l0.3-0.2l0.3-0.2l0.3-0.2l0.3-0.2l0.3-0.2l0.3-0.2l0.3-0.2l0.2-0.2l0.2-0.3l0.2-0.3l0.2-0.3
			l0.2-0.3l0,0c0.1,0.2,0.2,0.4,0.2,0.7l-0.1,0.1l-0.2,0.3l-0.2,0.3l-0.2,0.3l-0.2,0.3l-0.2,0.3l-0.2,0.2l-0.2,0.2l-0.3,0.2
			l-0.3,0.2l-0.3,0.2l-0.3,0.2l-0.3,0.2c-0.2,0.1-0.4,0.2-0.6,0.4v0l0,0l0,0l0,0c0.2-0.1,0.4-0.2,0.6-0.3l0.3-0.2l0.3-0.2l0.3-0.2
			l0.3-0.2l0.3-0.2l0.3-0.2l0.3-0.2l0.2-0.2l0.2-0.3l0.2-0.3l0.2-0.3L197,89c0.1,0.2,0.2,0.5,0.2,0.7l-0.1,0.2l-0.2,0.3l-0.2,0.3
			l-0.2,0.3l-0.2,0.3l-0.2,0.2l-0.2,0.2l-0.3,0.2l-0.3,0.2l-0.3,0.2l-0.3,0.2l-0.3,0.2c-0.2,0.1-0.4,0.2-0.6,0.4l0,0l0,0l0,0
			c0.2-0.1,0.4-0.2,0.6-0.3l0.3-0.2l0.3-0.2l0.3-0.2l0.3-0.2l0.3-0.2l0.3-0.2l0.3-0.2l0.2-0.2l0.2-0.3l0.2-0.3l0.2-0.3
			c0.1,0.2,0.1,0.4,0.2,0.6c0,0.1,0,0.2,0,0.2l-0.1,0.2l-0.2,0.3l-0.2,0.3l-0.2,0.3l-0.2,0.2l-0.2,0.2l-0.3,0.2l-0.3,0.2l-0.3,0.2
			l-0.3,0.2l-0.3,0.2c-0.2,0.1-0.4,0.2-0.6,0.4v0v0l0,0l0,0l0,0l0,0l0,0c0.2-0.1,0.4-0.2,0.6-0.3l0.3-0.2l0.3-0.2l0.3-0.2l0.3-0.2
			l0.3-0.2l0.3-0.2l0.3-0.2l0.2-0.2l0.2-0.3l0.2-0.3C197.7,91.6,197.6,92,197.6,92.4z M207.9,90.8c-3.7-2.2-7-4.2-10.7-4.9
			c-0.1,0-0.2,0-0.3,0c-0.1,0-0.2,0-0.3,0c-0.1,0-0.2,0-0.3-0.1c0,0-0.1,0-0.1,0c-0.1,0-0.1,0-0.2,0c0,0-0.1,0-0.1,0
			c0,0-0.1,0-0.1,0c-1.3-0.1-2.7-0.1-4.2,0.1c-5.1,0.8-10.7,3.6-13.6,6.6c-0.2,0.2-0.4,0.5-0.5,0.8l-0.4-0.8
			c0.1-0.1,0.1-0.2,0.2-0.4c0.1-0.1,0.2-0.3,0.3-0.4c0.1-0.1,0.1-0.1,0.2-0.2c0.1-0.1,0.1-0.2,0.2-0.2c0.1-0.2,0.3-0.3,0.5-0.5
			c0.2-0.2,0.3-0.3,0.5-0.4c0.7-0.6,1.4-1.1,2-1.5c0.3-0.2,0.5-0.4,0.7-0.5c0.1-0.1,0.1-0.1,0.2-0.2c0,0,0.1-0.1,0.1-0.1
			s0,0-0.1,0.1c0,0-0.1,0.1-0.2,0.1c-0.2,0.1-0.4,0.3-0.7,0.4c-0.6,0.4-1.3,0.8-2.1,1.4c-0.2,0.1-0.4,0.3-0.5,0.4
			c-0.2,0.1-0.3,0.3-0.5,0.4c-0.1,0.1-0.1,0.2-0.2,0.2c-0.1,0.1-0.1,0.2-0.2,0.2c-0.1,0.2-0.2,0.3-0.3,0.5c0,0.1-0.1,0.1-0.1,0.2
			l-0.3-0.5c0,0,0,0,0,0c0.1-0.1,0.1-0.3,0.2-0.4c0.1-0.1,0.2-0.3,0.3-0.4c0.1-0.1,0.1-0.2,0.2-0.2c0.1-0.1,0.1-0.2,0.2-0.2
			c0.1-0.2,0.3-0.3,0.5-0.5c0.2-0.2,0.3-0.3,0.5-0.4c0.7-0.6,1.4-1.1,2-1.5c0.3-0.2,0.5-0.4,0.7-0.5c0.1-0.1,0.1-0.1,0.2-0.2
			c0,0,0.1-0.1,0.1-0.1s0,0-0.1,0.1c0,0-0.1,0.1-0.2,0.1c-0.2,0.1-0.4,0.3-0.7,0.4c-0.6,0.4-1.4,0.8-2.1,1.4
			c-0.2,0.1-0.4,0.3-0.5,0.4c-0.2,0.1-0.3,0.3-0.5,0.4c-0.1,0.1-0.1,0.2-0.2,0.2c-0.1,0.1-0.1,0.2-0.2,0.2c-0.1,0.2-0.2,0.3-0.3,0.5
			c-0.1,0.1-0.1,0.2-0.1,0.3l-0.2-0.5c0,0,0-0.1,0.1-0.1c0.1-0.1,0.1-0.3,0.2-0.4c0.1-0.1,0.2-0.3,0.3-0.4c0.1-0.1,0.1-0.2,0.2-0.2
			c0.1-0.1,0.1-0.2,0.2-0.2c0.1-0.2,0.3-0.3,0.4-0.5c0.2-0.2,0.3-0.3,0.5-0.4c0.7-0.6,1.4-1.1,2-1.5c0.3-0.2,0.5-0.4,0.7-0.5
			c0.1-0.1,0.1-0.1,0.2-0.2c0,0,0.1-0.1,0.1-0.1s0,0-0.1,0.1c0,0-0.1,0.1-0.2,0.1c-0.2,0.1-0.4,0.3-0.7,0.4
			c-0.6,0.4-1.4,0.8-2.1,1.4c-0.2,0.1-0.4,0.3-0.5,0.4c-0.2,0.1-0.3,0.3-0.5,0.4c-0.1,0.1-0.1,0.2-0.2,0.2c-0.1,0.1-0.1,0.2-0.2,0.2
			c-0.1,0.2-0.2,0.3-0.3,0.5c-0.1,0.1-0.1,0.2-0.2,0.3l-0.2-0.4c0,0,0,0,0,0c0-0.1,0-0.1,0.1-0.2c0-0.1,0.1-0.3,0.2-0.4
			c0.1-0.1,0.2-0.3,0.3-0.4c0.1-0.1,0.1-0.2,0.2-0.2c0.1-0.1,0.1-0.2,0.2-0.2c0.1-0.2,0.3-0.3,0.4-0.5c0.2-0.1,0.3-0.3,0.5-0.4
			c0.7-0.6,1.4-1.1,2-1.5c0.3-0.2,0.5-0.4,0.7-0.5c0.1-0.1,0.1-0.1,0.2-0.2c0,0,0.1-0.1,0.1-0.1s0,0-0.1,0.1c0,0-0.1,0.1-0.2,0.1
			c-0.2,0.1-0.4,0.3-0.7,0.4c-0.6,0.4-1.4,0.8-2.1,1.4c-0.2,0.1-0.4,0.3-0.5,0.4c-0.2,0.1-0.3,0.3-0.5,0.4c-0.1,0.1-0.1,0.2-0.2,0.2
			c-0.1,0.1-0.1,0.2-0.2,0.2c-0.1,0.2-0.2,0.3-0.3,0.5c-0.1,0.1-0.2,0.3-0.2,0.4l-0.2-0.3c0,0,0-0.1,0-0.2c0,0,0,0,0-0.1
			c0-0.1,0-0.1,0.1-0.2c0-0.1,0-0.1,0.1-0.2c0-0.1,0.1-0.1,0.1-0.2c0.1-0.1,0.2-0.3,0.3-0.4c0.1-0.2,0.2-0.3,0.3-0.5
			c0.1-0.2,0.3-0.3,0.4-0.5c0.1-0.2,0.3-0.3,0.5-0.5c0.6-0.6,1.4-1.1,1.9-1.4c0.6-0.3,1-0.5,1-0.5s-0.4,0.2-1,0.5
			c-0.6,0.3-1.3,0.8-2,1.3c-0.2,0.1-0.3,0.3-0.5,0.4c-0.2,0.2-0.3,0.3-0.4,0.5c-0.1,0.2-0.3,0.3-0.4,0.5c-0.1,0.2-0.2,0.3-0.3,0.5
			c0,0.1-0.1,0.1-0.1,0.2c0-0.2,0-0.4,0.1-0.6c1.1-2.1,3.5-4.2,6.6-5.7c3.4-1.7,7.6-2.6,11.7-2.6c5.2,0,10.3,1.4,14.8,4.1
			c1.8,1.1,3.6,2,5.4,2.9c1.3,1.2,2.7,2.3,4.1,3.4c5.1,4,10.4,7,14.4,9.1C220.9,98.7,214,94.5,207.9,90.8z M235.8,98.1v-5.7v-1.3V60
			c-0.6-0.3-1.1-0.6-1.7-1v32.2v1.3v5.7c-1.9-1-4.2-2.2-6.7-3.7v-2.8v-1.3v-3.5l1.7,1.7l1.2-1.2l-2.5-2.5l2.5-2.5l-1.2-1.2l-1.7,1.7
			V72.3l0.7-0.9c2.7-3.6,2.7-8.5,0-12.1l-3-4l-1.5,2l-1.5-2l-1.5,2l-1.5-2l-1.5,2.1l-1.5-2.1l-1.5,2l-1.5-2l-3.3,4.5
			c-2.5,3.3-2.5,7.8,0,11.2l0.9,1.2v8.7c-1.7-1.9-3.2-3.8-4.4-5.8c-3.5-5.4-5.2-11.2-5.2-17.1v-3.8h27.1c-0.6-0.6-1.2-1.1-1.8-1.7
			h-25.3v-1.6c0.8,0,1.7-0.2,2.6-0.8c1-0.7,1.3-1.5,1.1-2.2l0.2,0l0.2-0.7c0.4-1.5-0.1-2.3-0.6-2.7c0,0,0,0,0,0l-0.1-0.8
			c-0.3-1.7-1.1-2.3-1.7-2.4c-0.5-0.2-1-0.1-1.6,0V26.1v-0.3v-0.6v-0.6v-0.3v-1v-0.2v-0.6V22v-0.6v-2V19c0.5,0.1,1.1,0.2,1.6,0.4
			c0.3,0.1,0.6,0.1,1,0.2c0.1,0,0.2,0,0.4,0.1c10.2,1.8,20.3,0,30.3-5.4v36.6c0.6,0.5,1.2,1,1.7,1.5V14.2
			c10.7,5.7,21.6,7.6,33.2,4.8v33.5h-1.4v-8.3h1.2l-3-15.1h-2.1l-0.4-0.6l-3.2-5.7l-3.7,6.3h-1.7l0-2.3H251l-0.1,2.3h-2.3l-3.6-6.4
			l-3.7,6.4h-2l-2.8,15.1h0.9v8.3H236c0.5,0.4,1.1,0.8,1.6,1.2c0.1,0,0.1,0.1,0.2,0.1c0.2,0.1,0.4,0.3,0.6,0.4H269v2.6c0,0,0,0,0,0
			l-3-0.8l1.5,2.3c-0.1,0-0.3,0-0.4,0l-2.7,0.3l2,1.8c0.4,0.4,0.9,0.9,1.3,2.2c0.2,0.8,0.4,2.2,0.4,2.7c-0.2,0.7-0.8,2.6-1.3,4.2
			c-0.8,1.9-1.7,3.7-2.9,5.5c-0.1,0.1-0.2,0.3-0.3,0.4c0,0,0,0,0,0c0-0.8-0.4-0.9-0.6-1.1c-0.3-0.3,0.3-0.8,0.3-0.8
			c-0.1,0-0.1,0-0.2,0c-0.7,0-0.9,0.8-0.9,0.8s-0.2,0-0.1-0.3c0,0,0,0,0,0c0,0,0,0,0,0c0,0,0-0.1,0-0.1c-0.4,0.1-0.5,0.6-0.7,0.7
			c-0.7,0.2-1.7,0.4-2.9,0.4c-1.7,0-1.6-0.6-1.6-0.6c-0.4,0.1-0.2,0.5-0.2,0.5v0c-0.8-0.1-0.3-1-0.3-1c-0.9,0.2-0.6,1-0.6,1
			s-0.1,0-0.3,0c-0.4,0-1.2-0.1-1.2-1.1c0-0.9,1.3-1.1,2.2-1.1c0.6,0,1,0.1,1,0.1c0.2,0.3,0.8,0.4,1.1,0.4c0.1,0,0.2,0,0.2,0.1
			c0,0,0,0-0.1-0.1c0.1,0,0.1,0,0.1,0c-0.4-0.3-0.2-0.5-0.2-0.5c0.3,0.3,0.7,0.4,1,0.4c0.3,0,0.6-0.1,0.6-0.1
			c-0.7-0.1-0.7-0.4-0.7-0.4c1.4-0.2,0.7-1.6,0.7-1.6c-0.3,1.1-2.1,0.9-3.9,1.1c-1.5,0.2-2.8,0.3-2.8,1.8c0,1.7,1.9,1.8,4,1.8
			c1.2,0,2.5-0.3,2.8-0.3c0,0,0,0,0,0c0,0,0,0,0.1,0c-0.2,0.4,0.4,0.6,0.4,0.6s0-0.6,0.5-0.8c0.3-0.1,0.7-0.2,1.1-0.2
			c0.3,0,0.6,0.1,0.6,0.5c0,0.6-1,1.1-3,1.1c-0.8,0-1.9-0.1-3-0.3c-1.3-0.2-2.6-0.3-3.6-0.3c-1.2,0-2.1,0.1-2.7,0.2c0,0-0.1,0-0.1,0
			c0,0,0,0-0.1,0c0-0.2,0-0.3-0.1-0.4c0,0,0-0.1,0-0.1c0,0,0,0,0,0c0,0,0-0.1,0-0.1c0,0-0.2,0.4-0.7,0.4c-0.5,0,0-0.7,0.3-0.8
			c0.2-0.1,0.8-0.3,0.9-0.7c0,0-0.3-0.2-0.5-0.2c-0.1,0-0.1,0-0.2,0.1c0,0,0,0,0,0c0.1-0.1,0.5-0.8,0.2-1.4c0-0.2-0.1-0.3-0.3-0.5
			c0,0,0,0.1,0,0.1c0,0,0-0.1-0.1-0.1c0,0,0,0.5-0.4,0.5c-0.1,0-0.1,0-0.2,0c-0.5-0.2-0.4-0.8,0-1c0,0,0,0,0.1,0c0,0,0,0,0,0
			c0,0,0,0-0.1,0c0,0,0.1-0.1,0.1-0.1c0,0-0.2-0.1-0.4-0.1c-0.2,0-0.5,0.1-0.7,0.3c-0.3,0.4-0.4,0.6-0.6,0.6c0,0-0.1,0-0.1,0
			c-0.4-0.2,0.1-0.6,0.1-0.6s-0.1,0-0.2,0c-0.3,0-1.1,0.1-1.1,1.1c0,0.1,0,0.1-0.1,0.2c-0.1-0.1-0.2-0.2-0.6-0.2
			c0,0-0.2,0.7,0.4,1.3c0,0,0,0.7-0.4,0.7c0,0,0,0,0,0c-0.4,0-3.1-1.6-3.1-3.5c0-1.2-0.5-1.4-0.6-1.4c0,0-0.1,0-0.1,0
			c0.3,0.2,0.1,0.6,0.1,0.6c-0.3,0-0.3,0.3-0.1,0.7c0.1,0.2,0.1,0.4,0,0.4c-0.1,0-0.3-0.2-0.5-0.5c-0.2-0.4-0.5-0.6-0.7-0.6
			c-0.2,0-0.3,0.1-0.3,0.1c0.3,0.1,0.3,0.3,0.3,0.3c-0.1,0.1-0.3,0.4,0,0.6c0.3,0.2,0.7,0.4,0.7,0.4s0.1,0-0.8,0.1
			c-0.9,0.1-0.5,1-0.5,1c0-0.4,0.4-0.5,0.4-0.5c0.1,0.2,0.3,0.3,0.4,0.3c0.2,0,0.4-0.2,0.4-0.3c0,0,0,0,0,0c0.1,0.7,0.8,0.8,0.8,0.8
			c0,0.2-0.2,0.3-0.4,0.3c0,0-0.1,0-0.1,0c0,0,0,0,0,0c0,0,0,0,0,0c-0.1,0-0.1,0-0.1,0c0.1,0.5,0.6,0.5,1.1,0.5
			c0.4,0,0.8,0.2,0.6,0.3c-0.1,0-0.1,0.1-0.2,0.1c-0.1,0-0.3-0.1-0.3-0.1c0.2,0.5,0.7,0.7,0.7,0.7c0,0,0,0,0,0c-0.1,0-0.1,0-0.2,0
			c-0.1,0-0.2,0-0.2,0s0.1,0.4,0.4,0.4c0.3,0,0.5,0,0.5,0.5c0,0.2-0.1,0.2-0.2,0.2c-0.1,0-0.3-0.1-0.3-0.1c0.2,1.2,0.7,1.4,1,1.4
			c0,0,0,0,0,0c0,0,0,0,0,0c0,0,0,0,0,0c0,0,0,0,0,0c0,0.4,0,1.3,0.5,1.3c0.1,0,0.2,0,0.3-0.1c-0.2,0.2-0.7,0.6-1.5,0.6
			c-0.2,0-0.3,0-0.5,0c-1.2-0.2-1.4-1.9-1.7-2.6c-0.1-0.4-0.4-0.5-0.6-0.5c-0.1,0-0.3,0.1-0.3,0.1c0.3,0.1,0.3,0.5,0.3,0.5
			c-0.4,0.2-0.2,0.6-0.1,0.9c0,0.1,0.1,0.3,0,0.3c-0.1,0-0.2-0.1-0.4-0.6c-0.2-0.3-0.4-0.4-0.6-0.4c-0.3,0-0.6,0.2-0.6,0.2
			c0,0,0,0,0,0c0.3,0,0.4,0.3,0.4,0.3c0,0.2-0.3,0.6,0.4,0.7c0.7,0.1,0,0.3,0,0.3c-1,0.2-0.7,1-0.7,1c0-0.4,0.4-0.4,0.6-0.4
			c0.1,0,0.1,0,0.1,0c0.1,0.1,0.2,0.1,0.3,0.1c0.2,0,0.5-0.2,0.5-0.2c0,0,0,0,0,0c-0.2,0.7,0.7,0.7,0.8,0.7c0,0,0,0,0,0c0,0,0,0,0,0
			c-0.1,0.4-0.4,0.5-0.6,0.5c0,0,0,0-0.1,0c0,0,0,0,0,0c0,0-0.1,0-0.1,0c0,0,0,0,0,0c0.3,0.2,0.6,0.3,0.9,0.3c0.6,0,1.1-0.3,1.1-0.3
			c0.2,0,0.6-0.1,0.8-0.1c0.1,0,0.2,0,0.1,0.2c-0.3,0.4,0.2,0.6,0.2,0.6c0-0.4,0.9-0.6,1.2-0.7c0.1,0,0.1,0,0.1,0
			c-0.2,0.3,0,0.6,0,0.6s0.2-0.3,0.8-0.3c0.7,0,1-0.3,1-0.3c0.3,0.3,0.8,0.3,0.9,0.3c0,0,0.1,0,0.1,0c-0.2-0.1-0.4-0.3-0.3-0.5
			c0-0.2,0.2-0.3-0.1-0.5c-0.4-0.2-0.2-0.4-0.2-0.4s0.4,0.5,1.5,0.5c1,0,2.6-0.2,3.7-1.1c0.9-0.7,1.6-0.9,1.8-0.9c0,0,0,0,0.1,0
			c-0.2,0.2-0.8,0.7,0.2,1.1c1.2,0.5,1.7,0.3,1.7,0.6c0,0.1,0,0.1-0.1,0.1c-0.4,0-1.6-0.6-2.4-0.6c-1,0-0.7,0.8-0.7,0.8
			c0-0.2,0.3-0.3,0.4-0.3c0.1,0,0.2,0,0.1,0.1c-0.1,0.3,0.1,0.4,0.1,0.4c-1.2,0.5-0.4,1.2-0.4,1.2c-0.1-0.4,0.1-0.5,0.3-0.5
			c0.2,0,0.5,0.1,0.5,0.1c-0.2-0.4,0.2-0.7,0.7-0.7c0.2,0,0.4,0,0.5,0.1c0.3,0.1,0.5,0.1,0.7,0.1c0.4,0,0.6-0.1,0.6-0.1
			c0.2-0.1,0.3-0.2,0.4-0.2c0.3,0,0,0.5-0.1,0.7c0,0,0,0,0,0c0,0,0,0,0,0c0,0-0.1,0.1-0.1,0.1c0,0,0,0,0,0c0.3,0,0.6-0.4,0.6-0.4
			c0.6-0.2,0.3-0.8,0.3-0.8c0.1-0.3,0.7-0.4,1-0.4c0.1,0,0.2,0,0.2,0c-0.3-0.6-1.3-0.4-2.4-0.7c-1-0.3-0.6-1-0.6-1c0,0,0,0,0,0
			c0.2,0.7,1.4,0.8,2.4,0.8c0.7,0,1.3-0.1,1.3-0.1c0.2,0.2-0.1,0.4-0.1,0.4c0.1,0,0.2-0.1,0.4-0.1c-1.4,1.7-2.9,3.3-4.6,5
			c-1.4,0.2-2.6,0.3-2.6,1.8c0,0.2,0,0.4,0.1,0.5c0,0,0,0-0.1,0.1c-0.6,0.5-1.3,1.1-1.9,1.6c-0.4,0-0.8,0.1-1.1,0.1c0,0-0.1,0-0.1,0
			c0,0,0,0-0.1,0c0-0.1,0-0.2,0-0.3c0,0,0-0.1-0.1-0.1c0,0,0-0.1,0-0.1c0,0,0,0,0,0c0,0,0-0.1,0-0.1c0,0-0.2,0.4-0.7,0.4
			c-0.5,0,0-0.7,0.3-0.8c0.2-0.1,0.8-0.3,0.9-0.7c0,0-0.3-0.2-0.5-0.2c-0.1,0-0.1,0-0.2,0.1c0,0,0,0,0,0c0.1-0.1,0.5-0.8,0.2-1.4
			c0-0.2-0.1-0.3-0.3-0.5c0,0,0,0.1,0,0.1c0,0,0-0.1-0.1-0.1c0,0,0,0.5-0.4,0.5c-0.1,0-0.1,0-0.2,0c-0.5-0.2-0.4-0.8,0-1
			c0,0,0,0,0.1,0c0,0,0,0,0,0c0,0,0,0-0.1,0c0,0,0.1-0.1,0.1-0.1c0,0-0.2-0.1-0.4-0.1c-0.2,0-0.5,0.1-0.7,0.3
			c-0.3,0.4-0.4,0.6-0.6,0.6c0,0-0.1,0-0.1,0c-0.4-0.2,0.1-0.6,0.1-0.6s-0.1,0-0.2,0c-0.3,0-1.1,0.1-1.1,1.1c0,0.1,0,0.1-0.1,0.2
			c-0.1-0.1-0.2-0.2-0.6-0.2c0,0-0.2,0.7,0.4,1.3c0,0,0,0.7-0.4,0.7c0,0,0,0,0,0c-0.4,0-3.1-1.6-3.1-3.5c0-1.2-0.5-1.4-0.6-1.4
			c0,0-0.1,0-0.1,0c0.3,0.2,0.1,0.6,0.1,0.6c-0.3,0-0.3,0.3-0.1,0.7c0.1,0.2,0.1,0.4,0,0.4c-0.1,0-0.3-0.2-0.5-0.5
			c-0.2-0.4-0.5-0.6-0.7-0.6c-0.2,0-0.3,0.1-0.3,0.1c0.3,0.1,0.3,0.3,0.3,0.3c-0.1,0.1-0.3,0.4,0,0.6c0.3,0.2,0.7,0.4,0.7,0.4
			s0.1,0-0.8,0.1c-0.9,0.1-0.5,1-0.5,1c0-0.4,0.4-0.5,0.4-0.5c0.1,0.2,0.3,0.3,0.4,0.3c0.2,0,0.4-0.2,0.4-0.3c0,0,0,0,0,0
			c0.1,0.7,0.8,0.8,0.8,0.8c0,0.2-0.2,0.3-0.4,0.3c0,0-0.1,0-0.1,0c0,0,0,0,0,0c0,0,0,0,0,0c-0.1,0-0.1,0-0.1,0
			c0.1,0.5,0.6,0.5,1.1,0.5c0.4,0,0.8,0.2,0.6,0.3c-0.1,0-0.1,0.1-0.2,0.1c-0.1,0-0.3-0.1-0.3-0.1c0.2,0.5,0.7,0.7,0.7,0.7
			c0,0,0,0,0,0c-0.1,0-0.1,0-0.2,0c-0.1,0-0.2,0-0.2,0s0.1,0.4,0.4,0.4c0.3,0,0.5,0,0.5,0.5c0,0.2-0.1,0.2-0.2,0.2
			c-0.1,0-0.3-0.1-0.3-0.1c0.1,0.7,0.4,1,0.6,1.2c0.1,0.1,0.3,0.2,0.4,0.2c0,0,0,0,0,0c0,0,0,0,0,0c0,0,0,0,0,0c0,0,0,0,0,0
			c0,0.3,0,0.7,0.1,1c0.1,0.2,0.2,0.3,0.4,0.3c0.1,0,0.2,0,0.3-0.1c-0.2,0.2-0.7,0.6-1.5,0.6c-0.2,0-0.3,0-0.5,0
			c-0.3,0-0.5-0.2-0.7-0.3c-0.3-0.3-0.5-0.7-0.7-1.2c-0.1-0.4-0.2-0.8-0.4-1.1c-0.1-0.4-0.4-0.5-0.6-0.5c-0.1,0-0.3,0.1-0.3,0.1
			c0.3,0.1,0.3,0.5,0.3,0.5c-0.4,0.2-0.2,0.6-0.1,0.9c0,0.1,0.1,0.3,0,0.3c-0.1,0-0.2-0.1-0.4-0.6c-0.2-0.3-0.4-0.4-0.6-0.4
			c-0.3,0-0.6,0.2-0.6,0.2c0,0,0,0,0,0c0.3,0,0.4,0.3,0.4,0.3c0,0.2-0.2,0.5,0.3,0.7c0,0,0.1,0,0.1,0c0.7,0.1,0,0.3,0,0.3
			c-1,0.2-0.7,1-0.7,1c0-0.4,0.4-0.4,0.6-0.4c0.1,0,0.1,0,0.1,0c0.1,0.1,0.2,0.1,0.3,0.1c0.2,0,0.5-0.2,0.5-0.2c0,0,0,0,0,0
			c0,0.1,0,0.2,0,0.2c0.1,0.4,0.7,0.4,0.8,0.4c0,0,0,0,0,0c0,0,0,0,0,0c-0.1,0.4-0.4,0.5-0.6,0.5c0,0,0,0-0.1,0c0,0,0,0,0,0
			c0,0-0.1,0-0.1,0c0,0,0,0,0,0c0.3,0.2,0.6,0.3,0.9,0.3c0.6,0,1.1-0.3,1.1-0.3c0.2,0,0.6-0.1,0.8-0.1c0.1,0,0.2,0,0.1,0.2
			c-0.2,0.2,0,0.4,0.1,0.5C241,95.4,238.2,96.9,235.8,98.1z M263.9,49.7c0-0.6,0.2-1.4,0.6-2.1c0.4-0.8,1.1-1.3,1.9-1.3v3.5H263.9z
			 M266.4,50.9v1.5h-2.8v-1.5H266.4z M263.7,46.7v-2.5h2.8V45C265.3,45.1,264.3,45.7,263.7,46.7z M256.8,42.9h-8.5h-10.6l1.9-9.5
			h1.3V41h8v-7.6h2.3l-1.9-3.2h2.8l0.1-2.3h1.3l0,2.3h2.3l-1.9,3.2h2.1V41h8v-7.6h1.5l1.9,9.5H256.8z M260.5,48.6v1.2h-0.8v-1.2
			H260.5z M259.8,47.4v-1.2h0.8v1.2H259.8z M259.8,50.9h2.7v1.5h-2.7L259.8,50.9L259.8,50.9z M261.8,49.7v-1.2h0.7v1.2H261.8z
			 M261.8,47.4v-1.2h0.7v1.2H261.8z M259.8,45v-0.9h2.7V45H259.8z M258.6,50.9v1.5h-1.8v-1.5H258.6z M256.8,49.7v-3.3
			c0.5,0.2,0.9,0.6,1.2,1.1c0.4,0.7,0.5,1.6,0.6,2.1H256.8z M256.8,45.2v-1h1.8v2.3C258.1,45.8,257.5,45.4,256.8,45.2z M252.5,44.9
			c-1.2,0-2.2,1-2.2,2.2v5.4h-0.8v-8.3h6.1v8.3h-0.9l0-5.4C254.7,45.8,253.7,44.9,252.5,44.9z M253.4,47l0,5.4h-1.9V47
			c0-0.5,0.4-0.9,0.9-0.9C253,46.1,253.4,46.5,253.4,47z M246.5,49.7c0-0.6,0.2-1.4,0.6-2.1c0.3-0.6,0.7-0.9,1.2-1.2v3.3H246.5z
			 M248.3,50.9v1.5h-2v-1.5H248.3z M246.3,46.7v-2.5h2v1C247.5,45.4,246.8,45.9,246.3,46.7z M243.1,48.6v1.2h-0.8v-1.2H243.1z
			 M242.4,47.4v-1.2h0.8v1.2H242.4z M242.4,50.9h2.7v1.5h-2.7L242.4,50.9L242.4,50.9z M244.4,49.7v-1.2h0.7v1.2H244.4z M244.4,47.4
			v-1.2h0.7v1.2H244.4z M242.4,45v-0.9h2.7V45H242.4z M241.2,50.9v1.5h-2.6v-1.5H241.2z M238.6,49.7v-3.5c0.9,0.1,1.5,0.5,2,1.3
			c0.4,0.7,0.5,1.6,0.6,2.1H238.6z M238.6,45v-0.9h2.6v2.3C240.5,45.6,239.6,45.1,238.6,45z M240,31.3l0.2-1h0.4L240,31.3z
			 M242.3,37.2v2.3h5v-2.3h0.3v2.6H242v-2.6H242.3z M242,36v-2.6h0.3v0.3v0.6V36H242z M245.4,36v-0.6V35h0.7v0.5V36H245.4z
			 M246.1,37.2v1.1h-0.7v-1.1H246.1z M243.6,33.8v-0.3h0.9h1h0.7v0.3H243.6z M244.2,35V36h-0.7V35H244.2z M244.2,37.2v1.1h-0.7v-1.1
			H244.2z M247.3,36v-0.6v-0.8v-0.3v-0.6v-0.3h0.3v1.2v0.8V36H247.3z M245.7,32.2v-0.6c0-1.4,1-2.1,1.6-2.4l0.4,0.6l0.3,0.5h0l1.2,2
			h-0.2H245.7z M244.9,29.8c-0.5-0.9-1.3-1.4-1.8-1.7l1.7-3l1.7,3C246.1,28.4,245.4,28.9,244.9,29.8z M244.2,31.6v0.6h-3.4l1.8-3
			C243.2,29.5,244.2,30.3,244.2,31.6z M257.4,37.2v2.3h5v-2.3h0.3v2.6h-5.6v-2.6H257.4z M257.1,36v-2.6h0.3v0.3v0.6V36H257.1z
			 M260.6,36v-0.6V35h0.7v0.5V36H260.6z M261.2,37.2v1.1h-0.7v-1.1H261.2z M258.7,33.8v-0.3h0.9h1h0.7v0.3H258.7z M259.3,35V36h-0.7
			V35H259.3z M259.3,37.2v1.1h-0.7v-1.1H259.3z M262.4,36v-1.7v-0.6v-0.3h0.3V36H262.4z M260.8,32.2v-0.6c0-1.4,1-2.1,1.6-2.4
			l0.6,1.1h0l1.2,2H264H260.8z M260,29.8c-0.5-0.8-1.2-1.4-1.7-1.6l1.7-2.9l1.7,2.9C261.2,28.4,260.5,28.9,260,29.8z M259.3,31.6
			v0.6H256l1.8-3C258.3,29.5,259.3,30.3,259.3,31.6z M264.4,30.3h0.4l0.2,1L264.4,30.3z M258.6,72.5L258.6,72.5L258.6,72.5
			L258.6,72.5z M255.5,84.8c-0.4,0.4-0.8,0.7-1.2,1.1c0,0,0,0,0,0C254.3,85.2,254.8,85,255.5,84.8z M285.1,103.4
			c-1.5,1-2.8,1.1-4.8,1.1l-0.1,0c-0.1,0-0.2,0-0.3,0c0.8-1.4,1.8-3,2.4-4.4c0.1,0.1,0.2,0.1,0.4,0.2c0.6,0.4,1.2,0.7,1.6,1.1
			c0,0,0,0,0,0.1c0.7,0.5,1.3,1.1,1.4,1.4C285.6,103.2,285.3,103.3,285.1,103.4C285.1,103.4,285.1,103.4,285.1,103.4z M281,92.8
			c2.3,1.1,4.6,2.1,6.1,3.8c-0.1,0-0.1-0.1-0.2-0.1c-0.5-0.4-1.1-0.8-1.6-1c-0.2-0.1-0.4-0.2-0.5-0.3c-0.1-0.1-0.2-0.1-0.2-0.1
			s0.1,0,0.2,0.1c0.1,0.1,0.3,0.2,0.5,0.3c0.4,0.3,1,0.7,1.5,1.1c0.4,0.4,0.8,0.7,1.1,1.1c0,0.1,0.1,0.1,0.1,0.2
			c-0.1,0.2-0.1,0.4-0.2,0.7c-0.4-0.4-0.8-0.8-1.4-1.2c-0.5-0.4-1.1-0.8-1.6-1c-0.2-0.1-0.4-0.2-0.5-0.3c-0.1-0.1-0.2-0.1-0.2-0.1
			s0.1,0,0.2,0.1c0.1,0.1,0.3,0.2,0.5,0.3c0.4,0.3,1,0.7,1.5,1.1c0.5,0.4,1,0.9,1.3,1.3c0,0,0,0.1,0.1,0.1c-0.1,0.2-0.2,0.4-0.2,0.6
			c0,0,0,0-0.1-0.1c-0.4-0.4-0.9-0.8-1.4-1.3c-0.5-0.4-1.1-0.8-1.6-1c-0.2-0.1-0.4-0.2-0.5-0.3c-0.1-0.1-0.2-0.1-0.2-0.1
			s0.1,0,0.2,0.1c0.1,0.1,0.3,0.2,0.5,0.3c0.4,0.3,1,0.7,1.5,1.1c0.5,0.4,1,0.9,1.3,1.3c0.1,0.1,0.1,0.2,0.2,0.2
			c-0.1,0.2-0.2,0.4-0.3,0.6c0,0-0.1-0.1-0.1-0.1c-0.3-0.4-0.9-0.8-1.4-1.3c-0.5-0.4-1.1-0.8-1.6-1c-0.1,0-0.1-0.1-0.2-0.1
			c-0.1-0.1-0.3-0.2-0.4-0.2c0,0-0.1,0-0.1,0c-0.1,0-0.1,0-0.1,0s0.1,0,0.1,0.1c0,0,0,0,0.1,0c0.1,0.1,0.3,0.2,0.4,0.3
			c0,0,0.1,0,0.1,0.1c0.4,0.3,1,0.7,1.5,1.1c0.5,0.4,1,0.9,1.3,1.3c0.1,0.1,0.1,0.2,0.2,0.3c0,0,0,0,0,0c-0.1,0.2-0.2,0.4-0.3,0.5
			c0-0.1-0.1-0.1-0.1-0.2c-0.4-0.4-0.9-0.8-1.4-1.3c-0.1-0.1-0.2-0.1-0.2-0.2c-0.1-0.1-0.3-0.2-0.4-0.3c-0.1-0.1-0.3-0.2-0.4-0.3
			c-0.1-0.1-0.2-0.1-0.3-0.2c-0.1-0.1-0.2-0.1-0.3-0.2c-0.1,0-0.1,0-0.1-0.1c-0.1-0.1-0.3-0.2-0.4-0.2c0,0,0,0,0,0
			c-0.1-0.1-0.2-0.1-0.2-0.1s0.1,0,0.2,0.1c0,0,0,0,0.1,0c0.1,0.1,0.3,0.2,0.4,0.3c0,0,0,0,0,0c0.1,0.1,0.3,0.2,0.4,0.3
			c0.1,0.1,0.2,0.1,0.3,0.2c0.1,0.1,0.3,0.2,0.4,0.3c0.1,0.1,0.2,0.2,0.4,0.3c0,0,0,0,0,0c0.5,0.4,1,0.9,1.3,1.3
			c0.1,0.1,0.1,0.2,0.2,0.3c0,0.1-0.1,0.1-0.1,0.2c-0.3-0.4-0.6-0.7-1-1.1c-0.1-0.1-0.3-0.3-0.4-0.4c-0.1-0.1-0.2-0.2-0.4-0.3
			c-0.1-0.1-0.2-0.1-0.3-0.2c-0.1-0.1-0.3-0.2-0.4-0.3c-0.1-0.1-0.2-0.1-0.4-0.2c-0.1-0.1-0.3-0.2-0.4-0.2c-0.1-0.1-0.2-0.1-0.4-0.2
			c-0.1,0-0.1-0.1-0.2-0.1c-0.1,0-0.1-0.1-0.2-0.1c-0.1,0-0.1-0.1-0.2-0.1c-0.1,0-0.1-0.1-0.2-0.1c-0.1,0-0.1-0.1-0.2-0.1
			c-0.1,0-0.1-0.1-0.2-0.1c-0.9-0.5-1.9-0.9-2.8-1.3c-2.1-0.9-4.1-1.8-5.4-2.9c-0.6-0.5-0.9-1-1.2-1.5l0.4,0.4l0.5,0.4l0.5,0.3
			l0.5,0.3l0.5,0.3l0.5,0.3h0l0,0l0,0v0l0,0v0l-0.5-0.3l-0.5-0.3l-0.5-0.3l-0.4-0.4l-0.4-0.4l-0.4-0.4l-0.3-0.4c0-0.3,0-0.7,0-1
			l0.1,0.2l0.2,0.3l0.2,0.3l0.2,0.2l0.3,0.2l0.3,0.2l0.3,0.2l0.3,0.2l0.3,0.2l0.3,0.2l0.3,0.2c0.2,0.1,0.4,0.2,0.6,0.3l0,0l0,0v0v0
			c-0.2-0.1-0.4-0.2-0.6-0.4l-0.3-0.2l-0.3-0.2l-0.3-0.2l-0.3-0.2l-0.3-0.2l-0.2-0.2l-0.2-0.2l-0.2-0.3l-0.2-0.3l-0.2-0.3l-0.2-0.3
			l-0.1-0.2c0,0,0,0,0,0c0.1-0.3,0.2-0.5,0.2-0.7l0.1,0.2l0.2,0.3l0.2,0.3l0.2,0.3l0.2,0.2l0.3,0.2l0.3,0.2l0.3,0.2l0.3,0.2l0.3,0.2
			l0.3,0.2l0.3,0.2c0.2,0.1,0.4,0.2,0.6,0.3h0l0,0h0c0,0,0,0,0,0c-0.2-0.1-0.4-0.2-0.6-0.4l-0.3-0.2l-0.3-0.2l-0.3-0.2l-0.3-0.2
			l-0.3-0.2l-0.2-0.2l-0.2-0.2l-0.2-0.3l-0.2-0.3l-0.2-0.3l-0.2-0.3l-0.2-0.3l-0.1-0.1c0.1-0.2,0.1-0.5,0.2-0.7l0,0.1l0.2,0.3
			l0.2,0.3l0.2,0.3l0.2,0.3l0.2,0.2l0.3,0.2l0.3,0.2l0.3,0.2l0.3,0.2l0.3,0.2l0.3,0.2l0.3,0.2c0.2,0.1,0.4,0.2,0.6,0.3l0,0l0,0l0,0
			c0,0,0,0,0,0c-0.2-0.1-0.4-0.2-0.6-0.4l-0.3-0.2l-0.3-0.2l-0.3-0.2l-0.3-0.2l-0.3-0.2l-0.2-0.2l-0.2-0.2l-0.2-0.3l-0.2-0.3
			l-0.2-0.3l-0.2-0.3l-0.2-0.3l-0.1-0.3l0,0c0.1-0.2,0.2-0.4,0.2-0.6l0.1,0.2l0.2,0.3l0.2,0.3l0.2,0.3l0.2,0.3l0.2,0.2l0.3,0.2
			l0.3,0.2l0.3,0.2l0.3,0.2l0.3,0.2l0.3,0.2l0.3,0.2c0.2,0.1,0.4,0.2,0.6,0.3h0l0,0l0,0h0c-0.2-0.1-0.4-0.2-0.6-0.4l-0.3-0.2
			l-0.3-0.2l-0.3-0.2l-0.3-0.2l-0.3-0.2l-0.2-0.2l-0.2-0.2l-0.2-0.3l-0.2-0.3l-0.2-0.3l-0.2-0.3l-0.2-0.3l-0.1-0.3
			C275.3,90.2,278.2,91.5,281,92.8z M278.3,85.8C278.2,85.8,278.2,85.8,278.3,85.8c-1.5-0.2-2.9-0.3-4.2-0.1c0,0,0,0,0,0
			c-0.1,0-0.1,0-0.2,0c-0.1,0-0.1,0-0.2,0c0,0,0,0-0.1,0c-0.1,0-0.2,0-0.4,0.1c-0.1,0-0.2,0-0.3,0c-0.1,0-0.2,0-0.3,0
			c-3.7,0.7-7,2.7-10.6,4.9c-6.1,3.7-13,7.8-24.6,8.4c4-2,9.3-5.1,14.4-9c1.4-1.1,2.8-2.3,4.1-3.4c1.8-0.9,3.5-1.8,5.4-2.9
			c4.5-2.7,9.6-4.1,14.8-4.1c3.7,0,7.5,0.8,10.8,2.1c0.3,0.1,0.6,0.3,0.9,0.4c3.1,1.5,5.5,3.6,6.6,5.7c0,0.1,0,0.2,0.1,0.3
			c-0.1-0.1-0.1-0.2-0.2-0.4c-0.1-0.2-0.2-0.3-0.4-0.5c-0.1-0.2-0.3-0.3-0.4-0.5c-0.2-0.2-0.3-0.3-0.5-0.4c-0.7-0.6-1.4-1-2-1.3
			c-0.6-0.3-1-0.5-1-0.5s0.4,0.2,1,0.5c0.6,0.3,1.3,0.8,1.9,1.4c0.2,0.1,0.3,0.3,0.5,0.5c0.1,0.2,0.3,0.3,0.4,0.5
			c0.1,0.2,0.2,0.3,0.3,0.5c0.1,0.2,0.2,0.3,0.3,0.4c0,0.1,0.1,0.1,0.1,0.2c0,0.1,0.1,0.1,0.1,0.2c0,0,0,0,0,0.1
			c0,0.1,0,0.2-0.1,0.3l-0.1,0.3c-0.1-0.1-0.1-0.2-0.2-0.3c-0.1-0.1-0.2-0.3-0.3-0.5c-0.1-0.1-0.1-0.2-0.2-0.2
			c-0.1-0.1-0.1-0.2-0.2-0.2c-0.2-0.1-0.3-0.3-0.5-0.4c-0.2-0.1-0.3-0.3-0.5-0.4c-0.7-0.5-1.5-1-2.1-1.4c-0.3-0.2-0.5-0.3-0.7-0.4
			c-0.1-0.1-0.1-0.1-0.2-0.1c0,0-0.1-0.1-0.1-0.1s0,0,0.1,0.1c0,0,0.1,0.1,0.2,0.2c0.2,0.1,0.4,0.3,0.7,0.5c0.6,0.4,1.3,0.9,2,1.5
			c0.2,0.1,0.3,0.3,0.5,0.4c0.2,0.1,0.3,0.3,0.5,0.5c0.1,0.1,0.1,0.2,0.2,0.2c0.1,0.1,0.1,0.2,0.2,0.2c0.1,0.2,0.2,0.3,0.3,0.4
			c0.1,0.1,0.1,0.3,0.2,0.4c0,0,0,0.1,0,0.1l-0.2,0.5c0-0.1-0.1-0.2-0.1-0.2c-0.1-0.1-0.2-0.3-0.3-0.5c-0.1-0.1-0.1-0.2-0.2-0.2
			c-0.1-0.1-0.1-0.2-0.2-0.2c-0.2-0.1-0.3-0.3-0.5-0.4c-0.2-0.1-0.3-0.3-0.5-0.4c-0.7-0.5-1.5-1-2.1-1.4c-0.3-0.2-0.5-0.3-0.7-0.4
			c-0.1-0.1-0.1-0.1-0.2-0.1c0,0-0.1-0.1-0.1-0.1s0,0,0.1,0.1c0,0,0.1,0.1,0.2,0.2c0.2,0.1,0.4,0.3,0.7,0.5c0.6,0.4,1.3,0.9,2,1.5
			c0.2,0.1,0.3,0.3,0.5,0.4c0.2,0.1,0.3,0.3,0.4,0.5c0.1,0.1,0.1,0.2,0.2,0.2c0.1,0.1,0.1,0.2,0.2,0.2c0.1,0.2,0.2,0.3,0.3,0.4
			c0.1,0.1,0.1,0.3,0.2,0.4c0,0,0,0,0,0l-0.3,0.5c0-0.1-0.1-0.1-0.1-0.2c-0.1-0.1-0.2-0.3-0.3-0.5c-0.1-0.1-0.1-0.2-0.2-0.2
			c-0.1-0.1-0.1-0.2-0.2-0.2c-0.2-0.2-0.3-0.3-0.5-0.4c-0.2-0.1-0.3-0.3-0.5-0.4c-0.7-0.5-1.5-1-2.1-1.4c-0.3-0.2-0.5-0.3-0.7-0.4
			c-0.1-0.1-0.1-0.1-0.2-0.1c0,0-0.1-0.1-0.1-0.1s0,0,0.1,0.1c0,0,0.1,0.1,0.2,0.2c0.2,0.1,0.4,0.3,0.7,0.5c0.6,0.4,1.3,0.9,2,1.5
			c0.2,0.1,0.3,0.3,0.5,0.4c0.2,0.1,0.3,0.3,0.4,0.5c0.1,0.1,0.1,0.2,0.2,0.2c0.1,0.1,0.1,0.2,0.2,0.2c0.1,0.2,0.2,0.3,0.3,0.4
			c0.1,0.1,0.1,0.2,0.2,0.4L293,92c0,0,0-0.1-0.1-0.1c-0.1-0.1-0.2-0.3-0.3-0.5c-0.1-0.1-0.1-0.2-0.2-0.2c-0.1-0.1-0.1-0.2-0.2-0.2
			c-0.2-0.1-0.3-0.3-0.5-0.4c-0.2-0.1-0.3-0.3-0.5-0.4c-0.7-0.5-1.5-1-2.1-1.4c-0.3-0.2-0.5-0.3-0.7-0.4c-0.1-0.1-0.1-0.1-0.2-0.1
			c0,0-0.1-0.1-0.1-0.1s0,0,0.1,0.1c0,0,0.1,0.1,0.2,0.2c0.2,0.1,0.4,0.3,0.7,0.5c0.6,0.4,1.3,0.9,2,1.5c0.2,0.1,0.3,0.3,0.5,0.4
			c0.2,0.1,0.3,0.3,0.4,0.5c0.1,0.1,0.1,0.2,0.2,0.2c0.1,0.1,0.1,0.2,0.2,0.2c0.1,0.2,0.2,0.3,0.3,0.4c0.1,0.1,0.1,0.2,0.1,0.3
			l-0.5,0.9c0,0,0,0,0,0c0-0.3-0.2-0.6-0.4-0.9c-2.9-3-8.4-5.7-13.4-6.6C278.4,85.8,278.3,85.8,278.3,85.8z M278.6,87.1
			c0.3,0.1,0.6,0.1,0.8,0.2c0.5,0.1,1,0.2,1.5,0.4c0.2,0,0.3,0.1,0.5,0.1c3.8,1.2,7.4,3.2,9.6,5.5c0,0,0,0,0,0
			c0.1,0.1,0.1,0.1,0.1,0.2c-0.2,0.4-0.9,0.5-1.4,0.5c-1.8-0.6-4.1-2.2-6.4-3.8c-1.2-0.9-2.4-1.7-3.6-2.4
			C279.4,87.5,279,87.3,278.6,87.1z"/>
		<path class="st0" d="M202.6,48.4c0,0-0.1,0-0.2,0c0,0.1-0.1,0.2-0.1,0.3C202.5,48.6,202.6,48.5,202.6,48.4z"/>
		<path class="st0" d="M202.1,43.1C202.2,43.1,202.2,43.1,202.1,43.1c0-0.1-0.1-0.2-0.3-0.3C201.9,42.8,202,42.9,202.1,43.1z"/>
		<path class="st0" d="M285.1,103.4C285.1,103.4,285.1,103.4,285.1,103.4c-1.4,0.7-3,1.1-4.8,1.1
			C282.3,104.5,283.6,104.4,285.1,103.4z"/>
		<path class="st0" d="M284.3,101.5c-0.5-0.4-1-0.8-1.6-1.1C283.1,100.7,283.8,101.1,284.3,101.5
			C284.4,101.6,284.3,101.6,284.3,101.5z"/>
		<path class="st0" d="M259.9,64.4c-0.8,0-1.9-0.1-3-0.3c-1.3-0.2-2.6-0.3-3.6-0.3c-1.2,0-2.1,0.1-2.7,0.2c0,0-0.1,0-0.1,0
			c0,0,0,0-0.1,0c0-0.2,0-0.3-0.1-0.4c0,0,0-0.1,0-0.1c0,0,0,0,0,0c0,0,0-0.1,0-0.1c0,0-0.2,0.4-0.7,0.4c-0.5,0,0-0.7,0.3-0.8
			c0.2-0.1,0.8-0.3,0.9-0.7c0,0-0.3-0.2-0.5-0.2c-0.1,0-0.1,0-0.2,0.1c0,0,0,0,0,0c0.1-0.1,0.5-0.8,0.2-1.4c0-0.1-0.1-0.3-0.2-0.4
			c0,0,0,0,0,0c0,0,0,0-0.1,0c0,0-0.1,0-0.1,0.1c0,0.1-0.1,0.3-0.3,0.3c0,0-0.1,0-0.1,0c0,0-0.1,0-0.1,0.1c0,0-0.1,0-0.1,0
			c-0.8,0.4-1.6,0.7-2.5,0.9c0,0,0,0-0.1,0c-0.1,0-0.3,0.1-0.4,0.1c0,0-0.1,0-0.1,0c0,0-0.1,0-0.1,0c0.1,0.1,0.1,0.3,0.3,0.4
			c0,0,0,0.7-0.4,0.7c0,0,0,0,0,0c-0.2,0-0.8-0.4-1.5-0.9c0,0-0.1,0-0.1,0c0,0-0.1,0-0.1,0c-0.3,0-0.5,0-0.8,0c-0.3,0-0.7,0-1.1-0.1
			c-0.1,0-0.1,0-0.2,0c0,0-0.1,0-0.1,0c0.2,0.3,0.6,0.3,1,0.3c0.4,0,0.8,0.2,0.6,0.3c-0.1,0-0.1,0.1-0.2,0.1c-0.1,0-0.3-0.1-0.3-0.1
			c0.2,0.5,0.7,0.7,0.7,0.7c0,0,0,0,0,0c-0.1,0-0.1,0-0.2,0c-0.1,0-0.2,0-0.2,0s0.1,0.4,0.4,0.4c0.3,0,0.5,0,0.5,0.5
			c0,0.2-0.1,0.2-0.2,0.2c-0.1,0-0.3-0.1-0.3-0.1c0.2,1.2,0.7,1.4,1,1.4c0,0,0,0,0,0c0,0,0,0,0,0c0,0,0,0,0,0c0,0,0,0,0,0
			c0,0.4,0,1.3,0.5,1.3c0.1,0,0.2,0,0.3-0.1c-0.2,0.2-0.7,0.6-1.5,0.6c-0.2,0-0.3,0-0.5,0c-1.2-0.2-1.4-1.9-1.7-2.6
			c-0.1-0.4-0.4-0.5-0.6-0.5c-0.1,0-0.3,0.1-0.3,0.1c0.3,0.1,0.3,0.5,0.3,0.5c-0.4,0.2-0.2,0.6-0.1,0.9c0,0.1,0.1,0.3,0,0.3
			c-0.1,0-0.2-0.1-0.4-0.6c-0.2-0.3-0.4-0.4-0.6-0.4c-0.3,0-0.6,0.2-0.6,0.2c0,0,0,0,0,0c0.3,0,0.4,0.3,0.4,0.3
			c0,0.2-0.3,0.6,0.4,0.7c0.7,0.1,0,0.3,0,0.3c-1,0.2-0.7,1-0.7,1c0-0.4,0.4-0.4,0.6-0.4c0.1,0,0.1,0,0.1,0c0.1,0.1,0.2,0.1,0.3,0.1
			c0.2,0,0.5-0.2,0.5-0.2c0,0,0,0,0,0c-0.2,0.7,0.7,0.7,0.8,0.7c0,0,0,0,0,0c0,0,0,0,0,0c-0.1,0.4-0.4,0.5-0.6,0.5c0,0,0,0-0.1,0
			c0,0,0,0,0,0c0,0-0.1,0-0.1,0c0,0,0,0,0,0c0.3,0.2,0.6,0.3,0.9,0.3c0.6,0,1.1-0.3,1.1-0.3c0.2,0,0.6-0.1,0.8-0.1
			c0.1,0,0.2,0,0.1,0.2c-0.3,0.4,0.2,0.6,0.2,0.6c0-0.4,0.9-0.6,1.2-0.7c0.1,0,0.1,0,0.1,0c-0.2,0.3,0,0.6,0,0.6s0.2-0.3,0.8-0.3
			c0.7,0,1-0.3,1-0.3c0.3,0.3,0.8,0.3,0.9,0.3c0,0,0.1,0,0.1,0c-0.2-0.1-0.4-0.3-0.3-0.5c0-0.2,0.2-0.3-0.1-0.5
			c-0.4-0.2-0.2-0.4-0.2-0.4s0.4,0.5,1.5,0.5c1,0,2.6-0.2,3.7-1.1c0.9-0.7,1.6-0.9,1.8-0.9c0,0,0,0,0.1,0c-0.2,0.2-0.8,0.7,0.2,1.1
			c1.2,0.5,1.7,0.3,1.7,0.6c0,0.1,0,0.1-0.1,0.1c-0.4,0-1.6-0.6-2.4-0.6c-1,0-0.7,0.8-0.7,0.8c0-0.2,0.3-0.3,0.4-0.3
			c0.1,0,0.2,0,0.1,0.1c-0.1,0.3,0.1,0.4,0.1,0.4c-1.2,0.5-0.4,1.2-0.4,1.2c-0.1-0.4,0.1-0.5,0.3-0.5c0.2,0,0.5,0.1,0.5,0.1
			c-0.2-0.4,0.2-0.7,0.7-0.7c0.2,0,0.4,0,0.5,0.1c0.3,0.1,0.5,0.1,0.7,0.1c0.4,0,0.6-0.1,0.6-0.1c0.2-0.1,0.3-0.2,0.4-0.2
			c0.3,0,0,0.5-0.1,0.7c0,0,0,0,0,0c0,0,0,0,0,0c0,0-0.1,0.1-0.1,0.1c0,0,0,0,0,0c0.3,0,0.6-0.4,0.6-0.4c0.6-0.2,0.3-0.8,0.3-0.8
			c0.1-0.3,0.7-0.4,1-0.4c0.1,0,0.2,0,0.2,0c-0.3-0.6-1.3-0.4-2.4-0.7c-1-0.3-0.6-1-0.6-1c0,0,0,0,0,0c0.2,0.7,1.4,0.8,2.4,0.8
			c0.7,0,1.3-0.1,1.3-0.1c0.2,0.2-0.1,0.4-0.1,0.4c1-0.1,1.7-1.1,2-1.1c0.3,0,0.3,0.4,0.3,0.7c0,0.3-0.3,0.6-1.3,0.8
			c-1,0.2-0.6,1-0.6,1c0-0.2,0.3-0.2,0.4-0.2c0,0,0.1,0,0.1,0c0.1,0.1,0.2,0.2,0.3,0.2c0.1,0,0.3-0.1,0.4-0.2
			c0.1-0.1,0.2-0.1,0.3-0.1c0.1,0,0.1,0.1,0,0.2c-0.2,0.3-0.3,0.4-0.3,0.8c0,0.5,0.3,0.6,0.3,0.6c-0.1-0.3,0-0.4,0.4-0.5
			c0.4-0.1,0.2-0.6,0.2-0.6c0.1-0.1,0.1-0.2,0.1-0.2c0.1,0,0.1,0.2,0.2,0.5c0.1,0.4,0.4,0.5,0.4,0.5c0.1,0.1,0.2,0.2,0.3,0.2
			c0.1,0,0.2-0.1,0.2-0.1c-0.1,0-0.5-0.2-0.2-0.5c0.3-0.3,0.1-0.5,0-0.6c-0.2-0.1-0.2-0.3,0-0.4c0.2-0.2,0.2-0.5,0.1-0.7
			c-0.1-0.3-0.1-0.5,0-0.8c0-0.1,0.1-0.1,0.2-0.1c0.2,0,0.4,0.2,0.4,0.2c0-0.7-0.4-0.7-0.4-0.7c0,0,0,0,0,0c0.6-1.1-0.1-1.5-0.1-1.5
			c0.1,0.4-0.3,0.7-0.4,0.8c0,0,0,0-0.1,0c0-0.2-0.1-0.3-0.1-0.3c-0.3,0.3-1,0.6-1.8,0.6c-0.3,0-0.6,0-0.8,0c-0.3,0-0.4,0-0.4-0.2
			c0-0.3,0.5-0.3,1.5-0.5c1-0.2,1.7-0.8,1.7-1.6c0-0.8-0.4-0.9-0.6-1.1c-0.3-0.3,0.3-0.8,0.3-0.8c-0.1,0-0.1,0-0.2,0
			c-0.7,0-0.9,0.8-0.9,0.8s-0.2,0-0.1-0.3c0,0,0,0,0,0c0,0,0,0,0,0c0,0,0-0.1,0-0.1c-0.4,0.1-0.5,0.6-0.7,0.7
			c-0.7,0.2-1.7,0.4-2.9,0.4c-1.7,0-1.6-0.6-1.6-0.6c-0.4,0.1-0.2,0.5-0.2,0.5l0,0c-0.8-0.1-0.3-1-0.3-1c-0.9,0.2-0.6,1-0.6,1
			s-0.1,0-0.3,0c-0.4,0-1.2-0.1-1.2-1.1c0-0.9,1.3-1.1,2.2-1.1c0.6,0,1,0.1,1,0.1c0.2,0.3,0.8,0.4,1.1,0.4c0.1,0,0.2,0,0.2,0.1
			c0,0,0,0-0.1-0.1c0.1,0,0.1,0,0.1,0c-0.4-0.3-0.2-0.5-0.2-0.5c0.3,0.3,0.7,0.4,1,0.4c0.3,0,0.6-0.1,0.6-0.1
			c-0.7-0.1-0.7-0.4-0.7-0.4c1.4-0.2,0.7-1.6,0.7-1.6c-0.3,1.1-2.1,0.9-3.9,1.1c-1.5,0.2-2.8,0.3-2.8,1.8c0,1.7,1.9,1.8,4,1.8
			c1.2,0,2.5-0.3,2.8-0.3h0c0,0,0,0,0.1,0c-0.2,0.4,0.4,0.6,0.4,0.6s0-0.6,0.5-0.8c0.3-0.1,0.7-0.2,1.1-0.2c0.3,0,0.6,0.1,0.6,0.5
			C263,64,261.9,64.4,259.9,64.4z M258.6,60.4L258.6,60.4L258.6,60.4L258.6,60.4z"/>
		<path class="st0" d="M270.5,96.9v-0.3c0-1.3-1-2.3-2.3-2.3h-0.3l-0.2-0.2c-0.4-0.4-1-0.7-1.6-0.7c-0.6,0-1.2,0.2-1.6,0.7l-0.2,0.2
			h-0.3c-1.3,0-2.3,1-2.3,2.3v0.3l-0.2,0.2c-0.9,0.9-0.9,2.4,0,3.3l0.2,0.2v0.3c0,1.3,1,2.3,2.3,2.3h0.3l0.2,0.2
			c0.4,0.4,1,0.7,1.6,0.7c0.6,0,1.2-0.2,1.6-0.7l0.2-0.2h0.3c1.3,0,2.3-1,2.3-2.3v-0.3l0.2-0.2c0.9-0.9,0.9-2.4,0-3.3L270.5,96.9z
			 M269.8,99.5l-0.6,0.6v0.9c0,0.6-0.4,1-1,1h-0.8l-0.6,0.6c-0.2,0.2-0.4,0.3-0.7,0.3s-0.5-0.1-0.7-0.3l-0.6-0.6h-0.8
			c-0.5,0-1-0.5-1-1v-0.9l-0.6-0.6c-0.4-0.4-0.4-1,0-1.4l0.6-0.6v-0.9c0-0.6,0.4-1,1-1h0.8l0.6-0.6c0.2-0.2,0.4-0.3,0.7-0.3
			s0.5,0.1,0.7,0.3l0.6,0.6h0.8c0.5,0,1,0.5,1,1v0.9l0.6,0.6C270.2,98.4,270.2,99.1,269.8,99.5z"/>
		<path class="st0" d="M266.1,96.9c-1,0-1.9,0.8-1.9,1.9c0,1,0.8,1.9,1.9,1.9c1,0,1.9-0.8,1.9-1.9C267.9,97.7,267.1,96.9,266.1,96.9
			z M266.1,99.3c-0.3,0-0.6-0.3-0.6-0.6c0-0.3,0.3-0.6,0.6-0.6c0.3,0,0.6,0.3,0.6,0.6C266.6,99.1,266.4,99.3,266.1,99.3z"/>
		<path class="st0" d="M260,102.6v-0.2c0-1.2-1-2.1-2.1-2.1h-0.2l-0.1-0.1c-0.4-0.4-0.9-0.6-1.5-0.6c-0.6,0-1.1,0.2-1.5,0.6
			l-0.1,0.1h-0.2c-1.2,0-2.1,1-2.1,2.1v0.2l-0.1,0.1c-0.8,0.8-0.8,2.2,0,3l0.1,0.1v0.2c0,1.2,1,2.1,2.1,2.1h0.2l0.1,0.1
			c0.4,0.4,0.9,0.6,1.5,0.6c0.6,0,1.1-0.2,1.5-0.6l0.1-0.1h0.2c1.2,0,2.1-1,2.1-2.1v-0.2l0.1-0.1c0.8-0.8,0.8-2.2,0-3L260,102.6z
			 M259.2,104.8l-0.5,0.5v0.7c0,0.5-0.4,0.8-0.8,0.8h-0.7l-0.5,0.5c-0.2,0.2-0.4,0.2-0.6,0.2c-0.2,0-0.4-0.1-0.6-0.2l-0.5-0.5h-0.7
			c-0.5,0-0.8-0.4-0.8-0.8v-0.7l-0.5-0.5c-0.3-0.3-0.3-0.9,0-1.2l0.5-0.5v-0.7c0-0.5,0.4-0.8,0.8-0.8h0.7l0.5-0.5
			c0.2-0.2,0.4-0.2,0.6-0.2c0.2,0,0.4,0.1,0.6,0.2l0.5,0.5h0.7c0.5,0,0.8,0.4,0.8,0.8v0.7l0.5,0.5
			C259.6,103.9,259.6,104.5,259.2,104.8z"/>
		<path class="st0" d="M256.1,102.4c-1,0-1.8,0.8-1.8,1.8c0,1,0.8,1.8,1.8,1.8c1,0,1.8-0.8,1.8-1.8
			C257.9,103.2,257.1,102.4,256.1,102.4z M256.1,104.7c-0.3,0-0.5-0.2-0.5-0.5s0.2-0.5,0.5-0.5c0.3,0,0.5,0.2,0.5,0.5
			S256.4,104.7,256.1,104.7z"/>
		<path class="st0" d="M209.8,97.1l-0.2-0.2v-0.3c0-1.3-1-2.3-2.3-2.3H207l-0.2-0.2c-0.4-0.4-1-0.7-1.6-0.7s-1.2,0.2-1.6,0.7
			l-0.2,0.2H203c-1.3,0-2.3,1-2.3,2.3v0.3l-0.2,0.2c-0.9,0.9-0.9,2.4,0,3.3l0.2,0.2v0.3c0,1.3,1,2.3,2.3,2.3h0.3l0.2,0.2
			c0.4,0.4,1,0.7,1.6,0.7s1.2-0.2,1.6-0.7l0.2-0.2h0.3c1.3,0,2.3-1,2.3-2.3v-0.3l0.2-0.2C210.7,99.5,210.7,98,209.8,97.1z
			 M208.8,99.5l-0.6,0.6v0.9c0,0.6-0.4,1-1,1h-0.8l-0.6,0.6c-0.2,0.2-0.4,0.3-0.7,0.3s-0.5-0.1-0.7-0.3l-0.6-0.6H203
			c-0.5,0-1-0.5-1-1v-0.9l-0.6-0.6c-0.4-0.4-0.4-1,0-1.4l0.6-0.6v-0.9c0-0.6,0.4-1,1-1h0.8l0.6-0.6c0.2-0.2,0.4-0.3,0.7-0.3
			s0.5,0.1,0.7,0.3l0.6,0.6h0.8c0.5,0,1,0.5,1,1v0.9l0.6,0.6C209.2,98.4,209.2,99.1,208.8,99.5z"/>
		<path class="st0" d="M205.1,96.9c-1,0-1.9,0.8-1.9,1.9c0,1,0.8,1.9,1.9,1.9c1,0,1.9-0.8,1.9-1.9C207,97.7,206.1,96.9,205.1,96.9z
			 M205.1,99.3c-0.3,0-0.6-0.3-0.6-0.6c0-0.3,0.3-0.6,0.6-0.6c0.3,0,0.6,0.3,0.6,0.6C205.7,99.1,205.4,99.3,205.1,99.3z"/>
		<path class="st0" d="M219,102.6v-0.2c0-1.2-1-2.1-2.1-2.1h-0.2l-0.1-0.1c-0.4-0.4-0.9-0.6-1.5-0.6c-0.6,0-1.1,0.2-1.5,0.6
			l-0.1,0.1h-0.2c-1.2,0-2.1,1-2.1,2.1v0.2l-0.1,0.1c-0.8,0.8-0.8,2.2,0,3l0.1,0.1v0.2c0,1.2,1,2.1,2.1,2.1h0.2l0.1,0.1
			c0.4,0.4,0.9,0.6,1.5,0.6c0.6,0,1.1-0.2,1.5-0.6l0.1-0.1h0.2c1.2,0,2.1-1,2.1-2.1v-0.2l0.1-0.1c0.8-0.8,0.8-2.2,0-3L219,102.6z
			 M218.2,104.8l-0.5,0.5v0.7c0,0.5-0.4,0.8-0.8,0.8h-0.7l-0.5,0.5c-0.2,0.2-0.4,0.2-0.6,0.2c-0.2,0-0.4-0.1-0.6-0.2l-0.5-0.5h-0.7
			c-0.5,0-0.8-0.4-0.8-0.8v-0.7l-0.5-0.5c-0.3-0.3-0.3-0.9,0-1.2l0.5-0.5v-0.7c0-0.5,0.4-0.8,0.8-0.8h0.7l0.5-0.5
			c0.2-0.2,0.4-0.2,0.6-0.2c0.2,0,0.4,0.1,0.6,0.2l0.5,0.5h0.7c0.5,0,0.8,0.4,0.8,0.8v0.7l0.5,0.5
			C218.5,103.9,218.5,104.5,218.2,104.8z"/>
		<path class="st0" d="M215.1,102.4c-1,0-1.8,0.8-1.8,1.8c0,1,0.8,1.8,1.8,1.8c1,0,1.8-0.8,1.8-1.8
			C216.8,103.2,216,102.4,215.1,102.4z M215.1,104.7c-0.3,0-0.5-0.2-0.5-0.5s0.2-0.5,0.5-0.5c0.3,0,0.5,0.2,0.5,0.5
			S215.3,104.7,215.1,104.7z"/>
		<path class="st0" d="M316.9,92.8c-0.2-0.3-0.5-0.4-0.8-0.2c-0.3,0.1-0.4,0.4-0.4,0.7c0.3,1.4,3.7,5.1,5.3,6.4v0
			c1,0.8,2.2,1.2,3.5,1.2c0.9,0,1.8-0.2,2.6-0.6l0.3-0.2c0.2-0.1,0.3-0.3,0.3-0.5c0-0.2-0.1-0.4-0.2-0.6c-0.7-0.6-1.1-1.2-1.5-1.8
			c-0.6-0.9-1.2-1.9-2.8-2.7c-0.4-0.2-1.2-0.4-2.6-0.6C319.5,93.6,317.2,93.2,316.9,92.8z M325.1,97.9c0.3,0.4,0.6,0.9,1,1.4
			c-1.2,0.4-2.8,0.4-4.2-0.6v0c-1.1-0.9-2.8-2.7-3.9-4.1c0.7,0.2,1.6,0.3,2.6,0.5c0.8,0.2,2,0.4,2.2,0.5
			C324,96.3,324.5,97,325.1,97.9z"/>
		<path class="st0" d="M321.8,114.1c-0.3,0.1-0.5,0.3-0.5,0.6s0.2,0.6,0.5,0.6c0.7,0.1,1.5,0.7,2.4,1.7c0.7,0.7,1,1.7,1.4,2.6
			c0.4,1.1,0.9,2.2,1.7,3.1c1.5,1.6,3.2,2,4.4,2c1.1,0,1.9-0.3,2-0.3c0.2-0.1,0.4-0.3,0.4-0.5c0-0.2-0.1-0.5-0.3-0.6
			c-0.6-0.4-0.9-1.2-1.1-2l-0.1-0.3C331.3,116.8,326.9,113,321.8,114.1z M331.5,121.4l0.1,0.3c0.2,0.6,0.4,1.2,0.7,1.8
			c-1,0.1-2.6-0.1-4-1.5c-0.7-0.7-1.1-1.7-1.5-2.7c-0.4-1-0.8-2.1-1.6-3c-0.3-0.3-0.6-0.7-1-1C327.6,115.5,330.5,118.3,331.5,121.4z
			"/>
		<path class="st0" d="M326.2,123.7c0.1-0.3-0.1-0.6-0.3-0.7c-0.4-0.3-0.7-1-1-1.8c-0.5-1.4-1.3-3.3-3.4-4.6
			c-0.4-0.2-0.9-0.5-1.4-0.7c-1.2-0.6-2.5-1.2-3.2-2.4c-0.2-0.3-0.5-0.4-0.8-0.3c-0.3,0.1-0.5,0.4-0.4,0.7c0,0.3,1.2,7.6,5.9,9.9
			c0.8,0.4,1.7,0.5,2.4,0.5c0.7,0,1.3-0.1,1.7-0.2C325.9,124.1,326.1,123.9,326.2,123.7z M322.2,122.7c-2.5-1.3-3.9-4.5-4.6-6.7
			c0.6,0.4,1.3,0.8,2,1.1c0.4,0.2,0.9,0.4,1.3,0.6c0,0,0,0,0,0c1.7,1,2.3,2.6,2.9,3.9c0.2,0.5,0.4,1,0.6,1.4
			C323.7,123.1,322.9,123,322.2,122.7z"/>
		<path class="st0" d="M319,104.1c0.2,0,0.4,0,0.5,0c0.1,0.1,0.2,0.1,0.4,0.1c0.1,0,0.2,0,0.3-0.1c0.3-0.1,0.4-0.4,0.4-0.7l0-0.4
			c-0.2-1.2-0.4-3.4-2.5-5.4c-0.2-0.2-0.4-0.3-0.7-0.6c-1.2-0.9-3.1-2.5-3.7-4.9c-0.1-0.3-0.3-0.5-0.6-0.5c-0.3,0-0.6,0.2-0.6,0.5
			c0,0.2-1.1,4.4,0.2,7.4C314.2,103.6,317.5,103.9,319,104.1z M313.2,94.8c1,1.6,2.3,2.7,3.2,3.4c0.2,0.2,0.4,0.4,0.6,0.5
			c1.5,1.4,1.9,2.9,2,4.1c-1.4-0.1-4-0.4-5.4-3.5C313.1,97.9,313.1,96.2,313.2,94.8z"/>
		<path class="st0" d="M298,103.4c0.1,0.2,0.3,0.3,0.6,0.3c0,0,0.1,0,0.1,0c0.7-0.1,1.8-0.3,2.5-1.2c1.3-1.9,1-3.7,0.6-5.6
			c-0.1-0.6-0.2-1.2-0.3-1.8c-0.2-2.3,0.2-4.3,0.2-4.3c0.1-0.3-0.1-0.6-0.4-0.7c-0.3-0.1-0.6-0.1-0.8,0.2c-0.1,0.1-3,3.6-2.5,9.7
			l0,0.5c0.1,0.5,0.2,2,0,2.3C297.9,102.9,297.8,103.2,298,103.4z M300.1,93.7c0,0.5,0,1,0.1,1.5c0.1,0.7,0.2,1.3,0.3,2
			c0.3,1.7,0.6,3.2-0.4,4.6c-0.1,0.2-0.4,0.3-0.6,0.5c0-0.6,0-1.2-0.1-2l0-0.4C299.1,97.2,299.6,95.2,300.1,93.7z"/>
		<path class="st0" d="M312.5,109.5c0.1,0,0.1,0,0.2,0c0.1,0,0.3-0.1,0.4-0.1c0.2-0.1,0.3-0.3,0.3-0.5c0-0.1,0-0.2,0-0.3
			c0.1-1.1,0.5-3.9-1-7c-0.4-0.7-0.9-1.4-1.4-2c-0.8-1.1-1.7-2.2-2-3.8c-0.1-0.3-0.3-0.5-0.6-0.5c-0.3,0-0.6,0.2-0.6,0.5
			c0,0.3-1.1,6.2,0.2,9.3C308.2,105.9,309.5,108.7,312.5,109.5z M308.6,98.4c0.4,0.7,0.9,1.3,1.3,1.9c0.5,0.6,0.9,1.2,1.2,1.8
			c1.2,2.4,1.1,4.7,0.9,5.9c-1.9-0.9-2.8-2.8-3.1-3.5C308.4,102.9,308.4,100.3,308.6,98.4z"/>
		<path class="st0" d="M317.5,111.4c1.9,1.5,3.7,1.8,5.5,1.8c0.3,0,0.7,0,1,0c0.2,0,0.4-0.1,0.5-0.3c0.1-0.2,0.1-0.4,0-0.6
			c0-0.1-0.2-0.2-0.3-0.3c-1-0.8-1.4-1.6-1.8-2.4c-0.4-0.9-0.9-1.8-2-2.6c-0.8-0.6-1.8-0.8-2.7-1.1c-1.1-0.3-2.2-0.6-2.8-1.3
			c-0.2-0.2-0.5-0.3-0.8-0.2c-0.3,0.1-0.4,0.5-0.3,0.8C313.9,105.3,315,109.5,317.5,111.4z M317.4,107.1c0.9,0.2,1.7,0.4,2.3,0.8
			c0.9,0.6,1.2,1.3,1.6,2.1c0.3,0.6,0.6,1.2,1.1,1.8c-1.4-0.1-2.6-0.4-4.1-1.5c-1.2-0.9-2-2.5-2.6-3.8
			C316.3,106.8,316.8,106.9,317.4,107.1z"/>
		<path class="st0" d="M312.8,122.4c-3.3-1.8-4.5-5-4.7-5.9c-0.1-0.3-0.4-0.4-0.7-0.4c-0.3,0-0.4,0.2-0.5,0.5l0,0c0,0,0,0.1,0,0.1
			c-0.3,6.1,2.6,10,4.5,11.2c1.8,1.1,2.7,1.8,2.7,1.8c0.1,0.1,0.3,0.1,0.4,0.1c0.1,0,0.1,0,0.2,0c0.2,0,0.4-0.2,0.4-0.4
			C316.1,127,315,123.6,312.8,122.4z M314.1,128.1c-0.5-0.3-1.2-0.8-2.1-1.3c-0.9-0.5-3-2.7-3.7-6.8c0.8,1.3,2.1,2.6,3.9,3.6
			C313.6,124.3,314.4,126.4,314.1,128.1z"/>
		<path class="st0" d="M308.3,126.1c-0.1-1-0.2-2-0.7-2.9c-1.8-2.9-1.9-6.2-1.7-7.6c0-0.3-0.1-0.6-0.4-0.7c-0.3-0.1-0.6-0.1-0.8,0.2
			c-0.1,0.1-2.2,2.5-2.5,6.6c-0.2,2.1,0.8,6.2,5.6,7.2c0,0,0.1,0,0.1,0c0.2,0,0.4-0.1,0.5-0.2c0.2-0.2,0.2-0.4,0.1-0.7
			C308.4,127.5,308.3,126.8,308.3,126.1z M303.6,121.9c0.1-1.6,0.6-2.9,1-3.9c0.1,1.7,0.6,3.9,1.9,6c0.4,0.6,0.4,1.4,0.5,2.3
			c0,0.4,0.1,0.8,0.1,1.1C303.2,126,303.5,122,303.6,121.9z"/>
		<path class="st0" d="M302.2,93.6c-0.2,1.5,1.3,4.9,1.4,5.3c0.1,0.2,0.3,0.3,0.5,0.4c0,0,0.1,0,0.1,0c0.2,0,0.3-0.1,0.5-0.2
			c3.2-3.1,2.4-5.4,1.9-7c-0.6-1.9-1.5-4.6-1.5-4.6c-0.1-0.3-0.4-0.4-0.7-0.5c-0.3,0-0.5,0.2-0.6,0.5c-0.1,0.3-0.2,0.8-0.4,1.4
			C302.9,90.3,302.3,92.2,302.2,93.6z M303.5,93.7c0-1.1,0.5-2.6,1-3.9c0.3,0.8,0.6,1.8,0.9,2.7l0.1,0.2c0.4,1.2,0.9,2.7-0.9,4.8
			C304,96.1,303.4,94.4,303.5,93.7C303.5,93.7,303.5,93.7,303.5,93.7z"/>
		<path class="st0" d="M305.3,112.4c0.3,0.6,0.6,1.2,0.9,1.8c0.1,0.2,0.3,0.4,0.6,0.4c0,0,0,0,0,0c0.2,0,0.5-0.1,0.6-0.4
			c1-2,1.7-3.7,1-6.3c-0.2-0.8-0.6-1.5-0.9-2.2c-0.3-0.6-0.6-1.1-0.8-1.7c-0.4-1.3-0.6-3.1-0.3-3.9c0.1-0.3,0-0.6-0.3-0.8
			c-0.3-0.2-0.6-0.1-0.8,0.2c-0.1,0.1-1.5,2-1.7,5.8c-0.1,2.1,0.2,3.8,0.7,5.2C304.6,111.1,304.9,111.8,305.3,112.4z M304.8,105.3
			c0-0.9,0.1-1.6,0.3-2.2c0.1,0.5,0.2,1,0.3,1.3c0.2,0.7,0.5,1.3,0.8,1.9c0.3,0.6,0.6,1.2,0.8,1.9c0.4,1.7,0.2,2.9-0.3,4.2
			c-0.1-0.2-0.2-0.4-0.3-0.6c-0.3-0.6-0.7-1.2-0.9-1.8C305,108.7,304.7,107.2,304.8,105.3z"/>
		<path class="st0" d="M303.5,112c-2-4.2-1.3-7.3-1.3-7.4c0.1-0.3-0.1-0.6-0.3-0.7c-0.2-0.1-0.6-0.1-0.8,0.1
			c-1.4,1.2-1.9,2.9-2.5,4.8c-0.5,1.9-0.6,6.1,2.5,9.4c0.1,0.1,0.3,0.2,0.5,0.2c0.2,0,0.4-0.1,0.5-0.2
			C303.6,116.7,304.5,114,303.5,112z M301.7,116.7c-2.2-2.8-2.1-6.2-1.7-7.6c0.2-0.9,0.5-1.7,0.8-2.5c0.1,1.5,0.4,3.5,1.5,5.9
			C303,113.8,302.5,115.5,301.7,116.7z"/>
		<path class="st0" d="M313.9,90.3c1.1,1.2,2.3,1.8,3.6,1.8c0,0,0.1,0,0.1,0c2-0.1,3.3-1.6,3.4-1.6c0.1-0.2,0.2-0.4,0.1-0.6
			c-0.1-0.2-0.2-0.4-0.5-0.4c-3.7-0.9-7.3-7.8-7.4-7.9c-0.1-0.2-0.4-0.4-0.7-0.3c-0.3,0-0.5,0.3-0.5,0.5
			C311.5,84.6,312.4,88.6,313.9,90.3z M319.2,90.3c-0.4,0.3-1,0.5-1.6,0.5c-0.9,0-1.8-0.4-2.7-1.3c-0.9-1-1.5-3.3-1.6-5.4
			C314.5,86,316.7,89,319.2,90.3z"/>
		<path class="st0" d="M318.8,122.9c-0.4-0.2-0.7-0.3-1.1-0.5l-0.3-0.1c-0.5-0.2-1-0.5-1.5-0.8c0,0,0,0,0.1,0
			c0.2-0.1,0.4-0.3,0.4-0.5c0-0.1,1.1-6.1-3.4-8.6l-0.4-0.2c-1.1-0.6-1.8-1-2.3-2.1c-0.1-0.3-0.4-0.4-0.6-0.4
			c-0.3,0-0.5,0.2-0.6,0.5c-0.1,0.2-1.4,4.8,1.3,7.8c0.8,0.9,1.8,1.5,2.8,1.9c0.8,0.4,1.5,0.8,2.1,1.4c-0.1,0-0.2,0-0.3,0.1
			c-0.2,0.1-0.3,0.4-0.3,0.7c1.2,5.5,4.1,7.5,6.3,8.1c0.2,0.1,0.5,0.1,0.7,0.2c0.3,0.1,0.8,0.1,0.9,0.2c0.1,0.1,0.2,0.1,0.4,0.1
			c0.1,0,0.2,0,0.3-0.1c0.2-0.1,0.4-0.3,0.4-0.5c0-0.1,0.4-3.1-1.7-5.3C321.1,123.9,319.9,123.4,318.8,122.9z M313.7,118.8
			c-0.9-0.5-1.7-0.9-2.4-1.6c-1.4-1.6-1.5-3.7-1.3-5.1c0.6,0.6,1.2,0.9,1.9,1.3l0.4,0.2c2.5,1.4,3,4.3,2.9,6.1
			C314.8,119.3,314.3,119.1,313.7,118.8z M322,129.1c-0.2,0-0.4-0.1-0.6-0.1c-1.7-0.5-3.8-1.9-5-5.7c0.2,0.1,0.4,0.2,0.5,0.3
			l0.3,0.1c0.4,0.2,0.8,0.3,1.2,0.5c1,0.4,2,0.8,2.7,1.6c1.1,1.1,1.3,2.6,1.4,3.4C322.3,129.1,322.1,129.1,322,129.1z"/>
		<path class="st0" d="M337.9,132.7c0-0.2-1.1-4-5.7-5.1l-1-0.2c-2.1-0.4-3.7-0.8-5.5-2c-0.2-0.1-0.5-0.1-0.7,0
			c-0.2,0.2-0.3,0.4-0.3,0.7l0.1,0.2c0.4,1.8,1.3,5.5,5,7c1.1,0.4,2.3,0.6,3.4,0.6c1.4,0,2.9-0.2,4.1-0.4l-0.1-0.6l0.1,0.6
			c0.2,0,0.3-0.1,0.4-0.3C338,133.1,338,132.9,337.9,132.7z M330.3,132.1c-2.4-1-3.4-3.1-3.9-4.8c1.5,0.7,2.9,1,4.6,1.4l0.9,0.2
			c2.8,0.6,4,2.4,4.5,3.4C334.4,132.6,332.1,132.9,330.3,132.1z"/>
		<path class="st0" d="M321.6,86.2c0.3,0,0.5,0,0.6,0c0.2,0,0.3-0.1,0.5-0.3c0.1-0.2,0.1-0.3,0.1-0.5c-0.5-2.1-2-5-3.4-5.9
			c-3.5-2.2-5.7-6.6-5.8-6.6c-0.1-0.3-0.5-0.4-0.8-0.3c-0.3,0.1-0.5,0.4-0.4,0.7c1.1,7,3.5,9.9,3.9,10.2
			C318,85.9,320.5,86.2,321.6,86.2z M318.7,80.6c0.9,0.5,2,2.4,2.6,4.3c-1-0.1-2.7-0.5-4-2.2c0,0,0,0-0.1-0.1c0,0-1.7-1.8-2.9-6.2
			C315.4,77.9,316.9,79.5,318.7,80.6z"/>
		<path class="st0" d="M324.7,103.6c-1-0.8-2.4-1.3-2.5-1.3c-0.3-0.1-0.7,0-0.8,0.3c-0.2,0.3-0.1,0.7,0.2,0.8
			c0.9,0.6,1.6,2.3,1.7,3.6l0,0.6c0.1,1.1,0.2,2,1.1,3.3c0.4,0.5,1,1,1.6,1.4c0.3,0.2,0.5,0.4,0.7,0.5c0.1,0.1,0.3,0.2,0.4,0.2
			c0.1,0,0.1,0,0.2,0c0.2-0.1,0.4-0.3,0.4-0.5C328.4,109.5,328.9,106.7,324.7,103.6z M326.7,111.2c-0.5-0.3-1-0.7-1.2-1.1
			c-0.7-1-0.8-1.6-0.8-2.7l0-0.6c-0.1-0.7-0.2-1.4-0.5-2.1C327,107,327.1,108.9,326.7,111.2z"/>
		<path class="st0" d="M307.3,88.1c-1.2,3.2,0.9,5.7,2.1,6.6c0.1,0.1,0.2,0.1,0.4,0.1c0.1,0,0.2,0,0.3-0.1c0.2-0.1,0.4-0.3,0.4-0.5
			c0.1-0.4,0.2-1.1,0.4-1.8c0.2-0.9,0.5-1.9,0.7-3.1c0,0,0,0,0,0c0.9-5.9-1.6-10-1.7-10.2c-0.2-0.3-0.5-0.4-0.8-0.3
			c-0.3,0.1-0.5,0.4-0.4,0.7c0.5,2.5-0.3,4.9-1.2,7.8L307.3,88.1z M308.5,88.5l0.2-0.5c0.5-1.7,1-3.3,1.3-4.9
			c0.4,1.6,0.7,3.7,0.3,6.2c-0.2,1.1-0.4,2.1-0.7,2.9c-0.1,0.3-0.1,0.5-0.2,0.7C308.7,92.1,307.8,90.6,308.5,88.5z"/>
		<path class="st0" d="M299,106.1c-0.2-0.2-0.5-0.2-0.8-0.1c0,0-3.8,2.3-4.3,6c-0.3,1.7,0.8,4.1,2.2,5c0.1,0.1,0.2,0.1,0.3,0.1
			c0.1,0,0.1,0,0.2,0c0.2-0.1,0.3-0.2,0.4-0.4c0.3-0.7,0.9-2.5,0.9-3.6c-0.1-3.7,1.2-6.2,1.2-6.2C299.2,106.6,299.2,106.3,299,106.1
			z M296.6,113.1c0,0.5-0.2,1.4-0.4,2.2c-0.7-0.8-1.1-2.1-1-3.1c0.2-1.5,1.1-2.7,1.9-3.6C296.8,109.8,296.5,111.3,296.6,113.1z"/>
		<path class="st0" d="M305,86.7c0.1,0.1,0.3,0.2,0.4,0.2c0.1,0,0.2,0,0.3-0.1c3.8-2.3,0.8-12.1,0.4-13.3c-0.1-0.3-0.4-0.5-0.7-0.4
			c-0.3,0.1-0.5,0.3-0.5,0.7c0.1,1.7-0.5,5.4-1.2,8.3C303.1,85.1,304.9,86.6,305,86.7z M305,82.3c0.2-0.8,0.6-2.7,0.9-4.6
			c0.5,2.9,0.8,6.2-0.4,7.6C305.1,84.8,304.7,83.8,305,82.3z"/>
		<path class="st0" d="M294.4,107.1c0,0.2,0.2,0.4,0.4,0.5c0.1,0,0.2,0.1,0.3,0.1c0.1,0,0.3,0,0.4-0.1c1.2-0.8,2.3-2.8,2-4.8
			c-0.4-2.5-0.1-4.8-0.1-4.8c0-0.3-0.1-0.6-0.4-0.7c-0.3-0.1-0.6,0-0.8,0.2c-1,1.2-1.9,2.3-2.3,4.3c-0.3,1.5,0,2.6,0.2,3.7
			C294.2,105.8,294.3,106.4,294.4,107.1z M295.1,101.9c0.2-0.8,0.4-1.4,0.8-2c0,0.9,0.1,1.9,0.3,3c0.2,1-0.1,2-0.7,2.7
			c0-0.2-0.1-0.4-0.2-0.6C295,104,294.8,103.1,295.1,101.9z"/>
		<path class="st0" d="M308.4,73.3c-0.1,3.3,1.4,4.7,1.5,4.8c0.1,0.1,0.3,0.2,0.4,0.2c0,0,0,0,0.1,0c0.2,0,0.3-0.1,0.5-0.3
			c3.6-4.9-2.6-13.5-2.9-13.8c-0.2-0.3-0.6-0.3-0.9-0.2c-0.3,0.2-0.4,0.5-0.2,0.8C308.3,67.8,308.4,70.4,308.4,73.3z M310.2,76.4
			c-0.3-0.6-0.6-1.6-0.6-3.1c0-1.2,0-2.4-0.1-3.7C310.5,71.8,311.1,74.4,310.2,76.4z"/>
		<path class="st0" d="M297.7,94.6c1.2-1.7,1.6-4.1,1.7-4.2c0.1-0.3-0.1-0.6-0.4-0.7c-0.3-0.1-0.6,0-0.8,0.2c-0.4,0.6-1.1,1-1.8,1.4
			c-0.4,0.3-0.9,0.5-1.3,0.8c-1.3,1-2.2,1.9-2.2,3.8c0,0.3,0.2,0.5,0.4,0.6c0.2,0.1,0.7,0.3,1.2,0.3
			C295.4,96.7,296.6,96.3,297.7,94.6z M294.3,95.4c0.1-0.9,0.7-1.5,1.7-2.3c0,0,0,0,0,0c0.3-0.3,0.7-0.5,1.1-0.7
			c0.2-0.1,0.3-0.2,0.5-0.3c-0.2,0.6-0.5,1.2-0.9,1.8C295.7,95.3,294.8,95.5,294.3,95.4z"/>
		<polygon class="st0" points="225.1,63 226.5,64.5 226.6,64.5 227.6,63.5 225.1,61 225.1,60.9 222.5,63.5 223.6,64.5 		"/>
		<polygon class="st0" points="225.1,64.3 225.1,64.2 222.5,66.8 223.6,67.8 225.1,66.3 226.5,67.7 226.6,67.8 227.6,66.8 		"/>
		<path class="st0" d="M240.5,60.5c0.1,0,0.1,0,0.2,0c0.2,0.1,0.4,0.1,0.7,0.2c0.1,0,0.2,0,0.3,0.1c0.4,0.1,0.9,0.1,1.3,0.1
			c0,0,0.1,0,0.1,0c0,0,0.1,0,0.1,0c0,0,0,0,0.1,0c1.2,0,2.4-0.2,3.4-0.5c0,0,0.1,0,0.1,0c0,0,0.1,0,0.1,0c0.2,0,0.3-0.1,0.5-0.1
			c0,0,0.1,0,0.1,0c0,0,0.1,0,0.1-0.1c0.4-0.1,0.7-0.3,1-0.4c0,0,0.1,0,0.1-0.1c1.5-0.8,2.7-1.8,3.6-3.1c0.4-0.6,0.2-1.1-0.1-1.4
			c-0.1-0.1-0.3-0.1-0.4-0.1c-0.2,0-0.5,0.1-0.7,0.4l0,0l0,0c-1.3,1.6-3.1,2.3-5.6,2.3c-3.2,0-6.1-1-9.4-3.5
			c-0.1-0.1-0.2-0.2-0.3-0.2c-0.6-0.4-1.1-0.9-1.7-1.4c0,0-0.1-0.1-0.1-0.1c-0.5-0.4-1-0.9-1.5-1.4l-0.9-0.9
			c-2.7-2.6-5.1-5.3-7.1-8.1c-0.9-1-1.7-2-2.6-3c-1-1.2-2.1-2.4-3-3.6c0.2-0.4,3.1-3.3,6.2-6.1l0.4-0.4c1.7-1.5,2.3-2.1,4.8-3
			c0.5-0.2,0.7-0.6,0.6-0.9c-0.1-0.3-0.3-0.6-1-0.6c-0.7,0-1.4,0-2.1,0.1c-0.7,0-1.4,0.1-2.3,0.1c-1.1,0-1.9,0-2.5-0.1
			c-0.6,0-1.1-0.1-1.9-0.1c-0.6,0-0.9,0.3-0.9,0.7c-0.1,0.4,0.2,0.8,0.7,0.9l1.1,0.4c0.9,0.3,1,0.5,1,0.5c0.1,0.2-0.2,0.6-0.3,0.8
			c-1.1,1.6-3.8,4.6-6.7,7.1c-1,0.9-1.8,1.4-2.3,1.7c0,0,0-0.1,0-0.1v-1.3c0-5.7,0.2-6.7,0.2-7.3c0.1-0.5,0.4-1.2,2.3-1.7
			c0.5-0.1,0.8-0.5,0.8-0.9c0-0.3-0.3-0.7-1-0.7c-0.8,0-1.5,0-2.3,0.1c-0.7,0-1.4,0.1-2.2,0.1c-0.7,0-1.3,0-2-0.1
			c-0.8,0-1.6-0.1-2.6-0.1c-0.6,0-1,0.4-1,0.7c0,0.4,0.2,0.7,0.6,0.8c2.1,0.6,2.6,1.2,2.8,1.9c0.3,1.2,0.3,4.3,0.3,7.1v8.5
			c0,2.2-0.1,3.2-0.3,3.9c-0.2,0.7-1.1,1.4-2.7,1.9c-0.4,0.1-0.7,0.5-0.6,0.9c0.1,0.3,0.3,0.7,1,0.7c0.9,0,1.6,0,2.3-0.1
			c0.7,0,1.3-0.1,2-0.1c0.9,0,1.8,0,2.6,0.1c0.9,0,1.7,0.1,2.6,0.1c0.6,0,0.9-0.3,1-0.6c0.1-0.4-0.2-0.7-0.6-0.9
			c-1-0.3-1.7-0.5-2.2-1c-0.7-0.5-1-1-1-7.5v-1.5c0-0.9,0-0.9,0.2-1.1c0.3-0.2,0.5-0.3,0.9-0.3c0.2,0,0.7,0,1.9,1.3l1.2,1.3
			c0.6,0.7,1.3,1.5,2,2.3c2.8,3.8,5.5,6.9,8,9.3c0.6,0.6,1.3,1.2,1.9,1.7c1.5,1.3,2.9,2.3,4.3,3.2c0.6,0.4,1.2,0.7,1.7,1.1
			c1.7,1,3.3,1.6,4.6,2C240.5,60.5,240.5,60.5,240.5,60.5z"/>
	</g>
</g>
</svg>
