<svg id="Layer_1" data-name="Layer 1" xmlns="http://www.w3.org/2000/svg" viewBox="0 0 220 116.57"><defs><style>.cls-1{fill:#082432;}</style></defs><title>Kinghurst-with-crest-01</title><path class="cls-1" d="M60.06,100.82c0,3.51.09,5.53.14,5.9.09.8-.19.89-.47.89a2.44,2.44,0,0,1-1.26-.61,8.58,8.58,0,0,1-1.12-1.08c-3.28-4.08-8.57-10.49-11.57-13.86-.14-.14-.23,0-.28.42s0,1.27,0,3.33v4c0,5.53.89,6.14,1.87,6.51l1.36.51c.37.14.37.66-.23.61-1.12,0-2.34-.14-3.65-.14s-2.67.14-3.65.14c-.61,0-.61-.42-.19-.61l.94-.37a2.71,2.71,0,0,0,1.69-1.59A43.65,43.65,0,0,0,44,97.54V92.67c0-2-.19-2.48-.52-3.09a4.64,4.64,0,0,0-2.86-1.69c-.42-.09-.42-.61.09-.61,1.31,0,2.43.19,3.51.19.37,0,.75,0,1.31,0s.84,0,.89.23a5.17,5.17,0,0,0,1.22,2,158.5,158.5,0,0,0,10.58,12.27c.33.33.42.28.42-.14V97.21a49.5,49.5,0,0,0-.33-6.14c-.23-2.2-.75-2.58-3-3.19-.47-.09-.37-.61.09-.61,1.27,0,2.62.14,4,.14,1.22,0,2.34-.14,3.37-.14.56,0,.56.42.09.61a3.18,3.18,0,0,0-2.34,2.62,44.47,44.47,0,0,0-.47,6.93Z"/><path class="cls-1" d="M82.11,102.46a4.65,4.65,0,0,0-.37-2.15c-.52-.94-2-1.27-2.95-1.5-.37-.09-.37-.61.19-.61,1.92,0,2.86.14,4.26.14,1.22,0,2.2-.14,3.23-.14.7,0,.61.51.19.61a2.12,2.12,0,0,0-1.45,1.36,10.31,10.31,0,0,0-.14,2.58c0,2.16.14,3,.37,3.37s.09.42-.19.52a26.33,26.33,0,0,1-7.07,1.4c-7,0-11.38-4.21-11.38-10.54a9.79,9.79,0,0,1,5.2-8.8,14.51,14.51,0,0,1,7.07-1.83,12,12,0,0,1,5.15.89c.56.28.75.52.75.89a7.09,7.09,0,0,1-.09,1,15,15,0,0,0-.19,2.15c0,.7-.7.66-.7.19a3.35,3.35,0,0,0-1.69-2.58,8.14,8.14,0,0,0-4.73-1.27,7.19,7.19,0,0,0-4.26,1.27c-1.92,1.4-3,3.79-3,7.54,0,5.9,4,9.65,9.27,9.65a3.31,3.31,0,0,0,2.2-.61,5.66,5.66,0,0,0,.33-2.34Z"/><path class="cls-1" d="M101.88,87.75a1.14,1.14,0,0,1,.52,1,3.52,3.52,0,0,1-.14.84,13.11,13.11,0,0,0-.14,1.83c0,.52-.61.52-.65,0a3.14,3.14,0,0,0-.84-1.64,4,4,0,0,0-3.18-1.4,2.68,2.68,0,0,0-2.76,2.95c0,2.58,1.92,3.56,3.89,4.26,2.76,1,5.15,2,5.15,5.39a6.72,6.72,0,0,1-2.91,5.34,7.81,7.81,0,0,1-4.64,1.59,7.21,7.21,0,0,1-3.61-.84A3.39,3.39,0,0,1,91,105.22a1.67,1.67,0,0,1,.37-1.17c.23-.37.61-1.4.8-1.83s.56-.28.61.14a3,3,0,0,0,.33,1.4,5.33,5.33,0,0,0,4.45,2.39c2.2,0,3.47-1.22,3.47-3.6S99.21,98.9,96.72,98C93.54,96.88,92,95.38,92,92.95a5.42,5.42,0,0,1,1.78-4,7.1,7.1,0,0,1,4.92-2.06,5.11,5.11,0,0,1,3.14.89"/><path class="cls-1" d="M119.53,96a31.32,31.32,0,0,0,4.59-.14c.42,0,.56-.14.56-.94V93.23a13.7,13.7,0,0,0-.33-3.84c-.42-.94-1.26-1.22-2.48-1.5-.37-.09-.33-.61.19-.61,1.55,0,2.48.14,3.7.14s2.48-.14,4.17-.14c.52,0,.52.52.09.61-1.22.28-1.92.65-2.06,1.26-.23.8-.37,1.59-.37,5v5.53a22.4,22.4,0,0,0,.33,5.25c.19,1.08,1,1.4,2.67,1.87.37.09.37.61-.19.61-1.64,0-3-.14-4.45-.14s-2.29.14-3.56.14c-.56,0-.56-.47-.19-.61,1.22-.38,1.78-.52,2.15-1.5a18.31,18.31,0,0,0,.33-4.59V98.43c0-.61-.14-.75-.52-.8s-1-.09-4.82-.09h-.61a32.83,32.83,0,0,0-4.07.09c-.56.09-.61.14-.61,1v1.68a27.45,27.45,0,0,0,.24,4.59c.28,1.08,1.17,1.59,2.39,1.92.42.14.42.61-.19.61-1.12,0-2.81-.14-4.07-.14-1.45,0-2.29.14-3.61.14-.52,0-.47-.42-.09-.61,1.59-.61,2.06-1.08,2.2-1.73a25.39,25.39,0,0,0,.23-4.78V94.17a25,25,0,0,0-.28-4.54c-.19-.75-.84-1.22-2.62-1.73a.31.31,0,0,1,.09-.61c1.55,0,2.58.14,3.84.14,1.55,0,2.39-.14,4.12-.14.56,0,.56.52.14.61-1.55.37-1.87.89-2.11,1.59a43,43,0,0,0-.28,5.62c0,.61,0,.75.33.8a31.55,31.55,0,0,0,4,.09Z"/><path class="cls-1" d="M137.79,92.53c0-2.58-.09-3-.28-3.42-.33-.7-1.31-1-2.15-1.22a.31.31,0,1,1,0-.61c1.87,0,2.58.14,3.75.14,1.41,0,2.2-.14,3.89-.14.56,0,.61.52.14.61a2.28,2.28,0,0,0-1.73,1c-.61.8-.75,3.23-.75,6.46V98.8c0,2.58.65,4.45,1.64,5.29a6.19,6.19,0,0,0,4.4,1.73,5,5,0,0,0,3.89-1.31c1.22-1.12,1.92-3.37,1.92-7.68V93.37a10.31,10.31,0,0,0-.47-3.75c-.37-.89-1.17-1.27-2.58-1.73-.42-.14-.33-.61.09-.61,1.36,0,2.67.14,4,.14,1.12,0,2.15-.14,3.09-.14.52,0,.56.52.09.61a2.45,2.45,0,0,0-1.87,1.59,12.44,12.44,0,0,0-.47,3.51l-.23,5.53c-.23,5.57-3.61,9.32-9,9.32-2.58,0-4.73-.75-6-2.34-.89-1.12-1.36-2.58-1.36-5.25Z"/><path class="cls-1" d="M195.35,87.75a1.14,1.14,0,0,1,.52,1,3.52,3.52,0,0,1-.14.84,13.11,13.11,0,0,0-.14,1.83c0,.52-.61.52-.65,0a3.14,3.14,0,0,0-.84-1.64,4,4,0,0,0-3.18-1.4,2.68,2.68,0,0,0-2.76,2.95c0,2.58,1.92,3.56,3.89,4.26,2.76,1,5.15,2,5.15,5.39a6.72,6.72,0,0,1-2.91,5.34,7.81,7.81,0,0,1-4.64,1.59A7.21,7.21,0,0,1,186,107a3.39,3.39,0,0,1-1.55-1.78,1.67,1.67,0,0,1,.37-1.17c.23-.37.61-1.4.8-1.83s.56-.28.61.14a3,3,0,0,0,.33,1.4,5.33,5.33,0,0,0,4.45,2.39c2.2,0,3.47-1.22,3.47-3.6S192.68,98.9,190.2,98c-3.18-1.12-4.68-2.62-4.68-5.06a5.43,5.43,0,0,1,1.78-4,7.1,7.1,0,0,1,4.92-2.06,5.11,5.11,0,0,1,3.14.89"/><path class="cls-1" d="M213.75,87.42c1.73,0,2.72,0,3.37,0a4.8,4.8,0,0,0,2.34-.75c.28-.19.61,0,.52.28a12.53,12.53,0,0,0-.61,4.21c0,.42-.47.52-.65.09a2.66,2.66,0,0,0-1.83-2,17.57,17.57,0,0,0-4.07-.33c-.61,0-.65.14-.7.51a39.73,39.73,0,0,0-.19,5.15V99a47.09,47.09,0,0,0,.14,5.43c.23,1.55,1,1.73,2.86,2.34.47.14.42.61-.19.61-1.59,0-2.81-.14-4.64-.14-1.4,0-2.44.14-4.36.14-.56,0-.56-.47-.09-.61,1.64-.47,3-.65,3.09-1.92a38.48,38.48,0,0,0,.28-5.62V94.64c0-3.33-.09-4.4-.09-4.78,0-.8-.09-.94-.7-.94-.94,0-4,0-5.06.51a3.7,3.7,0,0,0-1.36,2c-.14.47-.65.37-.65-.14s.28-2.29.28-4.26c0-.56.33-.61.61-.33a2.5,2.5,0,0,0,1.17.56,19.25,19.25,0,0,0,4.07.19Z"/><path class="cls-1" d="M169.89,97.38c-1,0-1.56,0-2.18,0-.38,0-.42-.19-.42-.71V92a13.73,13.73,0,0,1,.14-3.07c.09-.33.19-.47.85-.47a5.07,5.07,0,0,1,5.2,5.34,3.36,3.36,0,0,1-3.59,3.55m29,14.8a6,6,0,0,1-5.06,2.13c-4.16,0-7.61-1.84-11.68-5.63a51.31,51.31,0,0,1-8.6-10.53l-.14-.29c-.19-.42-.09-.57.14-.71a14.26,14.26,0,0,0,1.54-1.1,5.13,5.13,0,0,0,1.39-3.53c0-1.37-.33-5.53-7.42-5.34a62.68,62.68,0,0,0-7.52.61c-.57.09-.61.57,0,.62a5,5,0,0,1,2.27.57,2.08,2.08,0,0,1,.38,1c0,.8.19,1.94.19,3.64v7.42c0,1.84-.14,3-.19,3.69-.19,1.37-.62,1.75-2.41,2.22-.52.14-.42.62.09.62,1.32,0,2.79-.14,4.21-.14s2.74.14,4,.14c.57,0,.57-.47,0-.62-2.08-.57-2.41-1-2.69-2.51a14.37,14.37,0,0,1-.14-2.6v-2c0-.9,0-1,.28-1,.76,0,1.51-.1,2.17-.14h0a1.65,1.65,0,0,1,1.33.9l7.42,9.79c4.87,5.06,9,6.85,13.28,6.85,3.31,0,6.15-1.42,7.47-3.59.38-.61,0-.95-.43-.52"/><path class="cls-1" d="M41.8,112.11c-.66.82-2.15,2.3-5.48,2.3-4.51,0-8-2.1-12.45-6.2L23,107.4a60.31,60.31,0,0,1-6.66-7.55c-.8-.92-1.59-1.83-2.36-2.73-1-1.13-1.91-2.25-2.8-3.33-.42-.47-.47-.56-.09-.94,2.53-2.34,3.79-3.47,5.9-5.34a12.52,12.52,0,0,1,5-3.23c.47-.19.47-.65-.19-.65-1.41,0-2.48.14-4.07.14-2,0-2.62-.14-4.08-.14-.56,0-.61.51-.09.65l1,.37c1.55.47,1.4.94.84,1.83A40.88,40.88,0,0,1,9.2,93.14,13.44,13.44,0,0,1,7,94.73c-.47.23-.61.14-.61-.47V93a46.79,46.79,0,0,1,.23-6.84c.14-.8.75-1.45,2.44-1.92.56-.14.56-.65-.09-.65-1.45,0-2.72.14-4.17.14s-2.48-.14-4.26-.14c-.65,0-.65.56-.28.65,2,.61,2.67,1.22,2.9,2.06a40.61,40.61,0,0,1,.33,6.74V101a16.86,16.86,0,0,1-.28,3.75c-.23,1-1.59,1.68-2.81,2.11-.42.14-.42.61.23.61,1.59,0,2.58-.14,4-.14,1.64,0,3.23.14,4.82.14.61,0,.61-.47.19-.61a6.8,6.8,0,0,1-2.2-1c-.8-.61-1.08-1.26-1.08-7.26v-1.4c0-.89,0-1.08.37-1.31a1.54,1.54,0,0,1,1-.37c.37,0,.94.14,2.06,1.36l1.09,1.22c.59.66,1.21,1.38,1.88,2.18,8.39,11.57,16.69,16.33,21.35,16.33,3.58,0,6.66-1.54,8.09-3.89.41-.66-.05-1-.46-.56"/><path class="cls-1" d="M35.49,84.83l-1.76-1.76L32,84.83Zm-3.56,0-1.76-1.76-1.76,1.76Zm-3.55,1.64V84.83l-1.77-1.77,1.78-1.79L30.17,83l1.76-1.77-1.18-1.18,1.19-1.19,1.19,1.19L32,81.28,33.72,83l1.77-1.78,1.79,1.79-1.77,1.77v1.63Z"/><path class="cls-1" d="M35.94,106.81c-1.12-.23-2.11-.61-2.34-1.69a28.27,28.27,0,0,1-.28-5.67V95.29a34.12,34.12,0,0,1,.24-5.71c.19-1.12,1.26-1.5,2.06-1.69.47-.09.47-.61-.09-.61H28.21c-.56,0-.61.52-.24.61a2.59,2.59,0,0,1,2.25,1.83,39.28,39.28,0,0,1,.19,5.57v4.17a39,39,0,0,1-.23,5.9c-.19.84-1.27,1.31-2.2,1.45-.47.09-.42.61.09.61,1.45,0,2.62-.14,3.75-.14,1.31,0,2.44.14,4,.14.56,0,.56-.51.14-.61"/><path class="cls-1" d="M129.24,55.72l-.33.34v.48a.56.56,0,0,1-.56.57h-.47l-.33.34a.55.55,0,0,1-.79,0l-.33-.34h-.47a.56.56,0,0,1-.56-.57v-.48l-.33-.34a.57.57,0,0,1,0-.8l.33-.34v-.48a.56.56,0,0,1,.56-.57h.47l.33-.34a.55.55,0,0,1,.79,0l.33.34h.47a.56.56,0,0,1,.56.57v.48l.33.34a.57.57,0,0,1,0,.8m.3-1.4v-.22a1.19,1.19,0,0,0-1.19-1.2h-.21l-.15-.15a1.19,1.19,0,0,0-1.69,0l-.15.15h-.21a1.19,1.19,0,0,0-1.19,1.2v.22l-.15.15a1.2,1.2,0,0,0,0,1.68l.15.15v.22a1.19,1.19,0,0,0,1.19,1.2h.21l.15.15a1.19,1.19,0,0,0,1.69,0l.15-.15h.21a1.19,1.19,0,0,0,1.19-1.2v-.22l.15-.15a1.2,1.2,0,0,0,0-1.69Z"/><path class="cls-1" d="M127.15,55.64a.32.32,0,1,1,.32-.32.32.32,0,0,1-.32.32m0-1.27a.95.95,0,1,0,.95.95.95.95,0,0,0-.95-.95"/><path class="cls-1" d="M123.32,58.72,123,59v.4a.47.47,0,0,1-.47.47h-.39l-.28.28a.47.47,0,0,1-.66,0l-.28-.28h-.4a.47.47,0,0,1-.47-.47V59l-.28-.28a.48.48,0,0,1,0-.67l.28-.28v-.4a.47.47,0,0,1,.47-.47h.4l.28-.28a.46.46,0,0,1,.66,0l.28.28h.39a.47.47,0,0,1,.47.47v.4l.28.28a.48.48,0,0,1,0,.67m.35-1.21v-.14a1.1,1.1,0,0,0-1.1-1.1h-.13l-.09-.1a1.1,1.1,0,0,0-1.56,0l-.09.1h-.13a1.1,1.1,0,0,0-1.1,1.1v.14l-.1.1a1.11,1.11,0,0,0,0,1.56l.1.1v.14a1.1,1.1,0,0,0,1.1,1.1h.13l.09.09a1.09,1.09,0,0,0,1.56,0l.09-.09h.13a1.1,1.1,0,0,0,1.1-1.1v-.14l.1-.1a1.11,1.11,0,0,0,0-1.56Z"/><path class="cls-1" d="M121.57,58.65a.27.27,0,1,1,.26-.27.27.27,0,0,1-.26.27m0-1.16a.9.9,0,1,0,.89.9.9.9,0,0,0-.89-.9"/><path class="cls-1" d="M95.08,55.72l-.33.34v.48a.57.57,0,0,1-.56.57h-.47l-.33.34a.55.55,0,0,1-.79,0l-.33-.34h-.47a.56.56,0,0,1-.56-.57v-.48l-.33-.34a.57.57,0,0,1,0-.8l.33-.34v-.48a.56.56,0,0,1,.56-.57h.47l.33-.34a.55.55,0,0,1,.79,0l.33.34h.47a.57.57,0,0,1,.56.57v.48l.33.34a.57.57,0,0,1,0,.8m.3-1.4v-.22a1.19,1.19,0,0,0-1.19-1.2H94l-.15-.15a1.19,1.19,0,0,0-1.69,0l-.15.15h-.21a1.19,1.19,0,0,0-1.19,1.2v.22l-.15.15a1.2,1.2,0,0,0,0,1.68l.15.15v.22a1.19,1.19,0,0,0,1.19,1.2H92l.15.15a1.19,1.19,0,0,0,1.69,0l.15-.15h.21a1.19,1.19,0,0,0,1.19-1.2v-.22l.15-.15a1.2,1.2,0,0,0,0-1.69Z"/><path class="cls-1" d="M93,55.64a.32.32,0,1,1,.32-.32.32.32,0,0,1-.32.32m0-1.27a.95.95,0,1,0,.95.95.95.95,0,0,0-.95-.95"/><path class="cls-1" d="M100.32,58.72,100,59v.4a.47.47,0,0,1-.47.47h-.39l-.28.28a.47.47,0,0,1-.66,0L98,59.88h-.4a.47.47,0,0,1-.47-.47V59l-.28-.28a.48.48,0,0,1,0-.67l.28-.28v-.4a.47.47,0,0,1,.47-.47H98l.28-.28a.46.46,0,0,1,.66,0l.28.28h.39a.47.47,0,0,1,.47.47v.4l.28.28a.48.48,0,0,1,0,.67m.35-1.21v-.14a1.1,1.1,0,0,0-1.1-1.1h-.13l-.09-.1a1.1,1.1,0,0,0-1.56,0l-.09.1h-.13a1.1,1.1,0,0,0-1.1,1.1v.14l-.1.1a1.11,1.11,0,0,0,0,1.56l.1.1v.14a1.1,1.1,0,0,0,1.1,1.1h.13l.09.09a1.09,1.09,0,0,0,1.56,0l.09-.09h.13a1.1,1.1,0,0,0,1.1-1.1v-.14l.1-.1a1.11,1.11,0,0,0,0-1.56Z"/><path class="cls-1" d="M98.56,58.65a.27.27,0,1,1,.26-.27.27.27,0,0,1-.26.27m0-1.16a.9.9,0,1,0,.89.9.9.9,0,0,0-.89-.9"/><path class="cls-1" d="M158.18,54.34h0a14.65,14.65,0,0,1-2.46-2.2c.42.07,1,.13,1.58.19a8,8,0,0,1,1.27.17A3.45,3.45,0,0,1,160,53.69a6.19,6.19,0,0,0,.7.78,2.55,2.55,0,0,1-2.5-.13m2.3-1a4.05,4.05,0,0,0-1.65-1.37,6,6,0,0,0-1.47-.23,7.69,7.69,0,0,1-2.24-.4.32.32,0,0,0-.55.29,11.92,11.92,0,0,0,3.26,3.28,3.16,3.16,0,0,0,1.7.5,3.28,3.28,0,0,0,1.69-.48l.17-.12a.31.31,0,0,0,.14-.25.32.32,0,0,0-.13-.26,4.75,4.75,0,0,1-.93-1"/><path class="cls-1" d="M165.43,69.08l0,.14a3.79,3.79,0,0,0,.45,1.06,2.72,2.72,0,0,1-2.36-.87,4.4,4.4,0,0,1-.82-1.51,5.37,5.37,0,0,0-.91-1.68,5.45,5.45,0,0,0-.67-.65,5,5,0,0,1,4.25,3.51M160,65a.32.32,0,0,0,0,.62,2.7,2.7,0,0,1,1.35,1,4.79,4.79,0,0,1,.79,1.49,5,5,0,0,0,1,1.72,3.34,3.34,0,0,0,2.46,1.08,3.14,3.14,0,0,0,1.08-.18.31.31,0,0,0,.06-.55,2.08,2.08,0,0,1-.65-1.17l0-.14c-.75-2.37-3.22-4.45-6-3.85"/><path class="cls-1" d="M159.38,69.5c-1.49-.74-2.28-2.66-2.64-3.9a7.47,7.47,0,0,0,1.23.67c.25.12.49.23.71.36a3.84,3.84,0,0,1,1.62,2.23,5.42,5.42,0,0,0,.38.86,2.43,2.43,0,0,1-1.3-.21m2.24.5a.31.31,0,0,0-.15-.34,2.11,2.11,0,0,1-.59-1A4.44,4.44,0,0,0,159,66.08c-.23-.14-.49-.26-.76-.38a3.67,3.67,0,0,1-1.81-1.35.32.32,0,0,0-.59.2c0,.17.69,4.23,3.26,5.51a2.93,2.93,0,0,0,1.31.29,4.86,4.86,0,0,0,.94-.1.32.32,0,0,0,.28-.25"/><path class="cls-1" d="M153.85,53.71a7.18,7.18,0,0,0,1.86,2L156,56a3.79,3.79,0,0,1,1.17,2.36h0a3.28,3.28,0,0,1-3.09-2,5.52,5.52,0,0,1-.26-2.63M157.14,59l.27,0a.32.32,0,0,0,.18.05l.12,0a.31.31,0,0,0,.19-.34l0-.2a4.56,4.56,0,0,0-1.39-3l-.37-.31A5.22,5.22,0,0,1,154,52.48a.31.31,0,0,0-.3-.25.3.3,0,0,0-.31.24,7.42,7.42,0,0,0,.11,4.13,3.93,3.93,0,0,0,3.61,2.4"/><path class="cls-1" d="M145.25,52.46a10.86,10.86,0,0,0,0,1.12c0,.38.1.74.16,1.1a3.17,3.17,0,0,1-.24,2.6.88.88,0,0,1-.45.3,7.07,7.07,0,0,0-.05-1.16c0-.1,0-.19,0-.25a8,8,0,0,1,.58-3.71m-.95,5.86h.06a2,2,0,0,0,1.36-.68,3.75,3.75,0,0,0,.34-3.07,10.4,10.4,0,0,1-.15-1,10.61,10.61,0,0,1,.1-2.44.31.31,0,0,0-.55-.26A7.81,7.81,0,0,0,144,56.21c0,.07,0,.16,0,.27a3.89,3.89,0,0,1,0,1.31.32.32,0,0,0,.23.53"/><path class="cls-1" d="M151.29,55.7a8.49,8.49,0,0,0,.81,1.19,6.62,6.62,0,0,1,.7,1,5.73,5.73,0,0,1,.52,3.39,3.81,3.81,0,0,1-1.8-2,8.79,8.79,0,0,1-.23-3.62m2.21,6.35h.08a.33.33,0,0,0,.2-.07.33.33,0,0,0,.13-.26s0-.1,0-.19a6.49,6.49,0,0,0-.56-3.9,7.12,7.12,0,0,0-.76-1.14,5.25,5.25,0,0,1-1.15-2.17.3.3,0,0,0-.31-.25.31.31,0,0,0-.31.26c0,.14-.61,3.46.1,5.21a4.27,4.27,0,0,0,2.57,2.5"/><path class="cls-1" d="M156.67,60.91a3.72,3.72,0,0,1,1.29.48,2.84,2.84,0,0,1,.9,1.21,4.56,4.56,0,0,0,.67,1.09,3.81,3.81,0,0,1-2.41-.85,5.6,5.6,0,0,1-1.49-2.24,7.13,7.13,0,0,0,1,.32m.06,2.42a4.55,4.55,0,0,0,3,1h.55a.32.32,0,0,0,.26-.16.31.31,0,0,0,0-.31.7.7,0,0,0-.13-.15,3.32,3.32,0,0,1-1-1.37,3.44,3.44,0,0,0-1.09-1.44,4.2,4.2,0,0,0-1.51-.58,2.73,2.73,0,0,1-1.57-.73.32.32,0,0,0-.56.27,7.65,7.65,0,0,0,2,3.5"/><path class="cls-1" d="M155.1,67.87a7.45,7.45,0,0,0-.93-.53,4.26,4.26,0,0,1-1.36-.93,3.9,3.9,0,0,1-.74-3,4.15,4.15,0,0,0,1.15.8l.22.12a3.75,3.75,0,0,1,1.65,3.56m.34.92a.32.32,0,0,0,.22-.24s.62-3.39-1.91-4.78l-.23-.12a2.45,2.45,0,0,1-1.32-1.2.33.33,0,0,0-.31-.19.32.32,0,0,0-.28.23c0,.11-.77,2.64.73,4.35a4.82,4.82,0,0,0,1.54,1.08,4.64,4.64,0,0,1,1.24.8.31.31,0,0,0,.22.09h.09"/><path class="cls-1" d="M154.12,72.86c-.26-.19-.66-.47-1.22-.81a5.79,5.79,0,0,1-2.07-4.1,6,6,0,0,0,2.27,2.23,2.57,2.57,0,0,1,1,2.67m-.72-3.22a5.72,5.72,0,0,1-2.62-3.3.32.32,0,0,0-.63,0h0c-.2,3.39,1.34,5.6,2.42,6.26a14.54,14.54,0,0,1,1.51,1,.31.31,0,0,0,.2.07h.07a.31.31,0,0,0,.22-.18,3.21,3.21,0,0,0-1.16-3.87"/><path class="cls-1" d="M147.22,69.41a6.54,6.54,0,0,1,.66-2.37A7.68,7.68,0,0,0,149,70.55a3.18,3.18,0,0,1,.29,1.32c0,.24,0,.48.08.71a3.06,3.06,0,0,1-2.1-3.17m2.65,2.4a3.64,3.64,0,0,0-.38-1.59,7.08,7.08,0,0,1-.94-4.27.32.32,0,0,0-.55-.26,6.62,6.62,0,0,0-1.41,3.66,3.68,3.68,0,0,0,3.11,4h.06a.32.32,0,0,0,.29-.43,4.11,4.11,0,0,1-.19-1.09"/><path class="cls-1" d="M147.69,53a.13.13,0,0,1,0,0,9.63,9.63,0,0,1,.58-2.33l.52,1.63,0,.09a2.46,2.46,0,0,1-.58,2.82,7,7,0,0,1-.56-2.17m.39,3.06h.06a.32.32,0,0,0,.22-.09c1.76-1.72,1.34-3,1.07-3.82l0-.08c-.34-1-.82-2.57-.82-2.57a.34.34,0,0,0-.32-.22.32.32,0,0,0-.29.25c0,.16-.13.43-.24.77a10.71,10.71,0,0,0-.66,2.63,9.33,9.33,0,0,0,.79,2.93.32.32,0,0,0,.23.19"/><path class="cls-1" d="M148.24,59.55a7.11,7.11,0,0,1,.32-1.48,7.23,7.23,0,0,0,.15,1,6.1,6.1,0,0,0,.4,1.1,5.28,5.28,0,0,1,.39,1.09,3.42,3.42,0,0,1-.39,2.46l-.21-.45a11.28,11.28,0,0,1-.45-1.06,6,6,0,0,1-.2-2.63m.08,4c.16.35.32.68.44,1a.31.31,0,0,0,.27.21h0a.32.32,0,0,0,.27-.16,4.48,4.48,0,0,0,.78-3.47,5.66,5.66,0,0,0-.43-1.23,5.65,5.65,0,0,1-.36-1,4.64,4.64,0,0,1,0-2.22.32.32,0,0,0-.12-.39.32.32,0,0,0-.4.05,5.81,5.81,0,0,0-1.14,3.14,6.61,6.61,0,0,0,.23,2.9,11.54,11.54,0,0,0,.48,1.12"/><path class="cls-1" d="M145.81,65.9a5.22,5.22,0,0,1-1-4.37,7.2,7.2,0,0,1,.56-1.57,8.47,8.47,0,0,0,.87,3.5,2.59,2.59,0,0,1-.42,2.45m1-2.72a6.94,6.94,0,0,1-.74-4.16.31.31,0,0,0-.15-.34.31.31,0,0,0-.37,0,5,5,0,0,0-1.36,2.65,5.78,5.78,0,0,0,1.4,5.24.32.32,0,0,0,.23.1h0a.32.32,0,0,0,.23-.1,3.32,3.32,0,0,0,.75-3.42"/><path class="cls-1" d="M157.58,49.51a1.89,1.89,0,0,1-1,.36A2.06,2.06,0,0,1,155,49.1a6,6,0,0,1-.94-3.25,10,10,0,0,0,3.5,3.66m-3,0a2.72,2.72,0,0,0,2,1h.06a2.73,2.73,0,0,0,1.84-.9.31.31,0,0,0-.16-.51c-2.09-.53-4.14-4.41-4.16-4.45a.32.32,0,0,0-.59.1,7,7,0,0,0,1,4.79"/><path class="cls-1" d="M159.37,74.14l-.36-.08c-1-.28-2.22-1.08-2.88-3.31l.4.19.16.07c.22.1.44.19.66.28a4.14,4.14,0,0,1,1.52.88,3,3,0,0,1,.79,2l-.29-.06m-1.77-3.42-.63-.27-.16-.07a6.57,6.57,0,0,1-1-.52.32.32,0,0,0-.49.32c.65,3.08,2.26,4.15,3.5,4.5l.41.09a2.2,2.2,0,0,1,.53.14A.32.32,0,0,0,160,75l.12,0a.32.32,0,0,0,.19-.24,3.74,3.74,0,0,0-.94-2.94,4.68,4.68,0,0,0-1.74-1"/><path class="cls-1" d="M163.45,74.82A4,4,0,0,1,161.22,72a10.21,10.21,0,0,0,2.65.82l.53.11a3.59,3.59,0,0,1,2.58,2,7,7,0,0,1-3.53-.11m4.26.28a4.15,4.15,0,0,0-3.18-2.8l-.53-.11a8,8,0,0,1-3.1-1.12.32.32,0,0,0-.48.34l0,.14c.24,1,.74,3.06,2.76,3.87a5.11,5.11,0,0,0,1.91.33,15,15,0,0,0,2.32-.24l0-.32,0,.31a.32.32,0,0,0,.26-.39"/><path class="cls-1" d="M158.47,45.53a5.38,5.38,0,0,1,2,2.11,3,3,0,0,1-2.54-.7l0,0a8.85,8.85,0,0,1-2.45-3.27,9.65,9.65,0,0,0,3,1.89m-.95,1.9a3.56,3.56,0,0,0,2.38.89,3.61,3.61,0,0,0,1.14-.17.31.31,0,0,0,.19-.18.32.32,0,0,0,0-.26,6.16,6.16,0,0,0-2.54-2.78,10.93,10.93,0,0,1-4-2.94.31.31,0,0,0-.54.32c1.44,3.7,3.14,5,3.36,5.11"/><path class="cls-1" d="M161.5,62.16a3.89,3.89,0,0,1-.76-.65,2.48,2.48,0,0,1-.48-1.54l0-.33a4.44,4.44,0,0,0-.35-1.33l0,0c1.8,1.34,1.81,2.43,1.57,3.82m-1.2-4.33a6.78,6.78,0,0,0-1.38-.74.31.31,0,0,0-.29.55,3.08,3.08,0,0,1,1,2.06l0,.32a3.08,3.08,0,0,0,.6,1.86,4.08,4.08,0,0,0,.91.8c.15.11.28.2.37.28a.31.31,0,0,0,.21.08l.1,0a.32.32,0,0,0,.21-.24c.31-1.65.61-3.22-1.72-4.95"/><path class="cls-1" d="M151.21,50.32l.09-.3a16.06,16.06,0,0,0,.74-3,8.42,8.42,0,0,1,.25,3.72,16.93,16.93,0,0,1-.38,1.66l-.13.5a2.49,2.49,0,0,1-.58-2.6m.59,3.47a.32.32,0,0,0,.18.06l.12,0a.32.32,0,0,0,.19-.25,9.64,9.64,0,0,1,.23-1,17.47,17.47,0,0,0,.39-1.72h0a8.65,8.65,0,0,0-1-5.66.32.32,0,0,0-.58.23,9,9,0,0,1-.67,4.39l-.09.29a3.3,3.3,0,0,0,1.19,3.67"/><path class="cls-1" d="M142.43,63.62a4.55,4.55,0,0,1-.27,1.32,2.59,2.59,0,0,1-.62-1.84,4,4,0,0,1,1.22-2.19,8.6,8.6,0,0,0-.33,2.7m.89-4a5.4,5.4,0,0,0-2.4,3.35,3.07,3.07,0,0,0,1.21,2.73.31.31,0,0,0,.16,0h.09a.31.31,0,0,0,.19-.18,5.83,5.83,0,0,0,.48-2,7.4,7.4,0,0,1,.7-3.51.32.32,0,0,0-.44-.42"/><path class="cls-1" d="M143.87,49.28a2,2,0,0,1,.68-.9,2.79,2.79,0,0,1,.63-.23,3.78,3.78,0,0,0,1.48-.72l.49-.42a3.59,3.59,0,0,1-1.29,2,2.45,2.45,0,0,1-2,.26M143,50l0,.09c0,.1-.07.22-.12.34l-.07.17a9.52,9.52,0,0,1-1,1.68h0a.84.84,0,0,0-.24-.51,14.71,14.71,0,0,0-7.52-3.69l-.1,0h0A8.62,8.62,0,0,0,131.6,48h-.13l-.12,0h0l-.2,0-.14,0-.15,0a16.75,16.75,0,0,0-5.14,2.26l-.76.45-.06,0c-3.56,2.15-7.6,4.59-14.54,4.75h-.55a54.18,54.18,0,0,0,6.07-3.45l.8-.54.11-.07.75-.52c.42-.3.84-.62,1.26-.94l.16-.13.57-.45.43-.19h0l.7-.32.75-.38.12-.06.14-.07q.77-.39,1.56-.83h0l.16-.09c.36-.2.72-.4,1.09-.62a16.22,16.22,0,0,1,8.29-2.29,15.64,15.64,0,0,1,6,1.2l.53.24A8.11,8.11,0,0,1,143,49.2h0s.16.19.06.77m-2.62,2.68a16.48,16.48,0,0,1-3.57-2.12c-.69-.48-1.36-1-2-1.36l-.66-.39.47.1.84.22.28.08a13.26,13.26,0,0,1,5.36,3.06h0a.15.15,0,0,1,0,.13c-.13.22-.49.28-.76.26M135.54,52a10.64,10.64,0,0,1,3.18,1.91,5.56,5.56,0,0,1,.78.94,6.37,6.37,0,0,1-.61,1.62h0l0,.05c-.17.32-.31.53-.31.53a4.35,4.35,0,0,0-.57-.61l-.23-.21-.21-.15-.16-.12-.21-.15-.2-.12-.22-.13-.2-.11-.1-.06-.11-.06-.11-.06-.09,0-.11-.05-.11-.05c-.52-.25-1.06-.49-1.59-.72a12.94,12.94,0,0,1-3-1.61,2.18,2.18,0,0,1-.65-.84,2,2,0,0,1,0-1.19c.06-.2.51-1.52.55-1.62l.16-.1a9,9,0,0,0,4.19,3m-.39,6.59h-.2a26.19,26.19,0,0,0,1.33-2.47,7.16,7.16,0,0,1,1.12.76c.15.34.29.69.43,1.06a4.39,4.39,0,0,1-2.67.64m-40.61-7.7a19.06,19.06,0,0,0-6-2.76l-.14,0-.15,0-.16,0H88l-.12,0h-.13a8.76,8.76,0,0,0-2.33.06,14.76,14.76,0,0,0-7.62,3.72,1,1,0,0,0-.25.44v0l-.23-.44-.1-.19-.14-.27h0l-.1-.19-.14-.26h0l-.11-.2-.13-.25h0l-.11-.21-.1-.19h0l-.05-.1a.76.76,0,0,1,0-.65,8,8,0,0,1,3.7-3.18,15.47,15.47,0,0,1,6.56-1.43A16.22,16.22,0,0,1,94.92,47c1.25.75,2.47,1.39,3.65,2,.47.4,1,.8,1.46,1.19a52.14,52.14,0,0,0,9,5.51c-6.89-.18-10.91-2.61-14.46-4.75m-5.79.87-.16.38a2.35,2.35,0,0,1-.55.66,12.83,12.83,0,0,1-3,1.61c-.53.23-1.06.47-1.58.72l-.11.05-.11.05-.2.11-.11.06-.11.06-.24.13-.22.13-.2.12-.37.27-.21.16-.23.2a4.24,4.24,0,0,0-.55.59,6.6,6.6,0,0,1-.92-2.13,3.45,3.45,0,0,1,.62-.86A10,10,0,0,1,83.82,52c1.61-.72,3.27-1.47,4.26-3.06,0,0,.42,1.19.47,1.33l.07.21.1.31s0,.09,0,.13l0,.22a1.65,1.65,0,0,1,0,.62m-4.34,6.81H84.2a4.48,4.48,0,0,1-2.67-.64c.13-.35.27-.68.41-1a7,7,0,0,1,1.15-.79,27.45,27.45,0,0,0,1.32,2.44m-1.72-8a17.52,17.52,0,0,1-3.56,2.1,2.48,2.48,0,0,1-.71.08.27.27,0,0,1-.15-.47h0a14,14,0,0,1,7.24-3.52h.09a26.63,26.63,0,0,0-2.92,1.83M73.93,37.64A3.66,3.66,0,0,1,76,34.28a11.23,11.23,0,0,0,1.33-.75c2.93,1.41,4.7,3.22,5.25,5.38a7.64,7.64,0,0,1-1.13,5.7l0,0,0,.17c-.33.11-.66.23-1,.36.39-4.24-3-6.64-6.59-7.52M73,44.74a2.61,2.61,0,0,1-2.07.6c-2.92-.1-4.8.39-5.62,1.43a1.8,1.8,0,0,0-.39,1.4,4.28,4.28,0,0,0,.43,3.24,3,3,0,0,0,2.39,1.15c1.43.08,2.3.55,2.32,1.25a.86.86,0,0,1-.66.86c-1.42.18-5.3.49-6.18-.26a.28.28,0,0,1-.12-.21,17.16,17.16,0,0,1,.51-3.38,15.06,15.06,0,0,0,.47-3.14c0-.19,0-.39-.06-.58-.07-.59-.14-1.14.17-1.48s1.14-.52,2.36-.48c.84,0,1.26-.08,1.44-.4s-.09-.9-.57-1.62c-.82-1.22-2.05-3.06-1.06-5.38A9.43,9.43,0,0,1,69,34.11a5.72,5.72,0,0,0,2.23-4.55,21.72,21.72,0,0,0-.17-4.09c-.29-2.63-.49-4.54,1.8-6.33l-.39-.5a5.7,5.7,0,0,0-1.7,2c-.54-.4-3.75-2.94-2.43-6.3l.15-.37-.39-.06a1.08,1.08,0,0,0-.79.27c-.19-.95-.41-2.81.55-3.72l-.4-.49a2.06,2.06,0,0,1-.9.37,2.26,2.26,0,0,1,.1-1.74.86.86,0,0,1,.85-.44l.12.23,6.3-3.21a3.25,3.25,0,0,0-.65.88l.58.26c0-.08.88-1.84,3.77-1.8.55.76.88,1.53.78,1.68a4.94,4.94,0,0,1-.56.29c-.84.4-2.1,1-2.45,2a1.68,1.68,0,0,0,.1,1.33l.14.29.29-.15s1.75-.9,2.57-1.25c.12,0,.26,0,.36.14a2.94,2.94,0,0,1,.64,2.34,1.51,1.51,0,0,0-.65-.18,1.79,1.79,0,0,0-1.27.54,3.48,3.48,0,0,1-2.53.88,4.12,4.12,0,0,1-2.9-1.69l-.49.4a5.56,5.56,0,0,0,1.82,1.48v0a1.5,1.5,0,0,1,.4.31,8.09,8.09,0,0,0,4.67,2.08c3,.53,3.77,4.27,4.05,6.39-.94-1-2.71-2.59-4.6-2.59v.63c2.27,0,4.51,2.8,4.77,3.13.52,2,1.88,2.1,3.08,2.21a2.66,2.66,0,0,1,2.06.77l.23.3.26-.28a9.81,9.81,0,0,1,1.09-1,6.78,6.78,0,0,1,.63-.44,1.59,1.59,0,0,1,1.11-.35c.21.06.34.31.41.73l0,.25.25,0a.34.34,0,0,1,.25.14c.07.1.15.37-.07,1l-.08.19.16.14c.08.09.11.47-.65,1.15a1.34,1.34,0,0,1-1.41.24c-.19-.05-.4-.12-.63-.21l-.08,0a4.69,4.69,0,0,0-3-.35l-.35.1.15.33a5.21,5.21,0,0,1,.23.63c-1-.66-3-1.87-4.91-1.48-1,.2-1.29-.3-1.73-1.12s-.82-1.53-2-1.33l.11.62c.67-.11.92.28,1.31,1a2.66,2.66,0,0,0,1.26,1.38c0,1.15-.33,4.47-4.71,6.52a4.32,4.32,0,0,0-2.49,4.1l0,0,0,0a20.42,20.42,0,0,0,.14,2.84c.16,1.68.32,3.26-.42,4M62.28,38.1c-1-.68-1.22-3,1.18-7.4,3.84-7.07,3.41-11.8,2.19-13.27A1.16,1.16,0,0,0,64.38,17a1.08,1.08,0,0,0-.72.69A2.19,2.19,0,0,0,63.74,19a5.94,5.94,0,0,1-.42-1.15l-.38-1.57-.24,1.6a4.78,4.78,0,0,1-1.27,3.06,4.09,4.09,0,0,0,.34-2.74l-.11-.49-.39.32c-.25.2-.6.41-.86.3a1.36,1.36,0,0,1-.54-.89,1,1,0,0,0,.65.09c.68-.14,1-1,1.38-1.91s.71-1.8,1.31-1.89c.42-.06,1.23.26,2.69,2.14,3.48,4.46.66,9.89-1.6,14.26a18.05,18.05,0,0,0-2.19,5.37c-.11,1,.1,1.68.64,2,.88.46,2.41-.33,3.62-1.14-.08.14-.15.27-.23.41-1.18,1.41-2.91,2-3.88,1.38M66.89,6.94l.78-2.39,2.39.78Zm4-4,2.4.77L70.09,5.31Zm11.24,14.3c2.33-2.62,3.45-2.86,4-3,.82-.17,1-.44,1.2-2S88.16,9.66,89,9.47a1.55,1.55,0,0,1,.45,0,1.87,1.87,0,0,1,.64.16,2,2,0,0,0-.64.34,2.89,2.89,0,0,0-.69.8l-.43.81.84-.37.28-.1v1.6l-.5.68.5-.18v.63a2,2,0,0,0-1.38.66A1.91,1.91,0,0,0,87.82,16c-2.88.06-4.14,3.17-4.64,5.09a12.9,12.9,0,0,0-1.13-3.88Zm1.31,5.36h.09c0-.06.77-6.3,4.7-6l.5,0-.18-.47a1.59,1.59,0,0,1,.08-1.32,1.31,1.31,0,0,1,.88-.41v9.38a10.32,10.32,0,0,0-1.31,1.11,3.59,3.59,0,0,0-2.26-.75c-1.11-.1-2.06-.21-2.49-1.61M96.16,10.92A26.91,26.91,0,0,0,109.08,7.4V29.33l-.79-.7-.51-.49a36.16,36.16,0,0,1-4-4.53l-1.43-1.66-1.69-2a35.66,35.66,0,0,1,3.48-3.44l.24-.21a6.8,6.8,0,0,1,2.7-1.69.49.49,0,0,0,.35-.52c0-.17-.2-.35-.55-.35s-.78,0-1.17,0-.8,0-1.3,0-1,0-1.41,0-.64,0-1,0a.47.47,0,0,0-.52.38.48.48,0,0,0,.4.5l.6.22c.49.15.57.26.58.29s-.13.35-.19.44a24.32,24.32,0,0,1-3.74,4,8,8,0,0,1-1.29.93s0,0,0-.06v-.74A27.71,27.71,0,0,1,98,15.56c.05-.29.24-.67,1.29-1a.5.5,0,0,0,.43-.5c0-.18-.18-.38-.55-.38s-.86,0-1.27,0-.81,0-1.25,0-.74,0-1.12,0-.88,0-1.45,0a.51.51,0,0,0-.57.41.43.43,0,0,0,.34.47c1.16.36,1.47.69,1.57,1.07a25.09,25.09,0,0,1,.19,4v4.75a9.84,9.84,0,0,1-.16,2.21c-.09.4-.61.77-1.54,1.09a.45.45,0,0,0-.34.48c0,.18.19.37.56.37s.9,0,1.29,0,.72,0,1.14,0,1,0,1.47,0,1,0,1.45,0,.51-.2.54-.36a.46.46,0,0,0-.34-.49,4,4,0,0,1-1.26-.56c-.37-.29-.55-.58-.55-4.19v-.85c0-.5,0-.52.12-.59a.7.7,0,0,1,.48-.18c.1,0,.38,0,1.06.74l.65.73,1.13,1.31a38.14,38.14,0,0,0,4.68,5.4H90.11V28.29a1.9,1.9,0,0,0,1.83-.41,2.18,2.18,0,0,0,.91-1.48.88.88,0,0,0-.1-.42,1.59,1.59,0,0,0-.06-1.4.94.94,0,0,0-.48-.36,1.24,1.24,0,0,0-.81-1,1.81,1.81,0,0,0-1.29.23V10.14l.26.06h.05l1.06.24a24,24,0,0,0,4.67.47m32.52-.78V29.55h-.88V24.7h.64l-1.68-8.39h-1.21l-2-3.5-2.06,3.5h-1V15h-2l0,1.29H117.1l-2-3.55L113,16.3h-1.1l-1.68,8.39h.64v4.86h-1.15V7.4a26.9,26.9,0,0,0,12.92,3.52,24.46,24.46,0,0,0,6-.78m1,23.53a4.31,4.31,0,0,1,.1,2.15l-.06.24.21.12.55.32c0,.11,0,.22,0,.34s0,.38,0,.57l-.56-.39-.36-.25-.12.42a7.06,7.06,0,0,1-1.22,1.74c.27-.83.57-1.79.68-2.2a4.83,4.83,0,0,0,0-.66,8.21,8.21,0,0,0-.19-1.14,3.77,3.77,0,0,0-.16-.48,2.8,2.8,0,0,0-.75-1.1h0a1.13,1.13,0,0,0,.86-.46.46.46,0,0,0,0-.17s0,0,0-.06a.45.45,0,0,0-.06-.19h0l.06,0a1.32,1.32,0,0,1,.62.43,2.34,2.34,0,0,1,.41.77m-5.39,9.81h-.63a.08.08,0,0,1-.06-.08c0-.15.29-.17.84-.26a1.31,1.31,0,0,0,.6-.26l-.44.59-.31,0M112.86,26.79H111.5V24.69h1.36Zm14.31,0h-1.5V24.69h1.5Zm-12.1,2.68h-1.58v-2h1.58ZM117,26.79H115.7V24.69H117Zm4.07,2.6h-.57v-3a1.19,1.19,0,1,0-2.37,0v3h-.5V24.7h3.44Zm1.92-2.6h-1.29V24.69H123Zm2,0h-1.4V24.69H125Zm.63.63h1.5v2h-1.5Zm-2,0H125v2h-1.4Zm-3.75,2h-1.11V26.41a.56.56,0,1,1,1.11,0Zm1.83-2H123v2h-1.29Zm-6,0H117v2H115.7Zm-2.21-2.72h1.58v2.09h-1.58Zm-2,2.72h1.36v2h-1.32l0,0Zm14.42-10.49h.33l.17.83Zm-2.35-.23a2.45,2.45,0,0,0-1-.95l1-1.7,1,1.71a2.44,2.44,0,0,0-1,.93m2.3,1.37h-1.93v-.36a1.58,1.58,0,0,1,.88-1.38Zm-4,.63h3.2v3.61h-3.2Zm.37-2.39a1.59,1.59,0,0,1,.91,1.39v.36h-2Zm-10,1.35.15-.74h.3Zm-.21,1h.75V23h4.46V18.71h1.27l-1.06-1.77h1.58l0-1.29h.75l0,1.29h1.29l-1.06,1.77h1.16V23h4.46V18.71H126l.58,0,1.07,5.34H111Zm3-2a2.45,2.45,0,0,0-1-1l1-1.72,1,1.75a2.42,2.42,0,0,0-1,.94m-1.66,2h3.2v3.61h-3.2Zm.37-2.39a1.59,1.59,0,0,1,.91,1.39v.36h-2Zm3.61,1.75h-2v-.36a1.59,1.59,0,0,1,.91-1.39l.18.3.18.31h0ZM115.85,34l0,.06a1.07,1.07,0,0,0,0,.26s-.07-.13-.34-.13a.89.89,0,0,0,.23.73s0,.37-.25.4l-.07,0-.06,0-.11-.06-.11-.06-.14-.09L114.8,35l-.16-.13-.14-.12-.16-.16-.14-.14a2.12,2.12,0,0,1-.15-.19l-.11-.14h0l.39,0a7.41,7.41,0,0,0,1.53-.16v0m.9-.25-.06.08a.19.19,0,0,1-.12.09.11.11,0,0,1-.07,0,.12.12,0,0,1-.07-.09l.37-.12,0,.06m-7,18.07V32.48a12.61,12.61,0,0,0,2.85,1.32c-.38.12-.21.53-.21.53a.3.3,0,0,1,.22-.29.34.34,0,0,0,.1.11l0,0,.07,0h0l.09,0,.07,0h0l0,0h0v0a.52.52,0,0,0,.46.45.15.15,0,0,1,0,.1l0,0-.07,0h-.16c.05.28.36.3.6.3s.45.11.36.17a.2.2,0,0,1-.11,0h-.17a.83.83,0,0,0,.39.41.23.23,0,0,1-.12,0h-.07s.07.21.22.23.3,0,.3.25a.13.13,0,0,1,0,.11h-.21l0,0c.13.65.39.77.55.79,0,0,0,0,0,0h0c0,.23,0,.72.31.72a.55.55,0,0,0,.15,0l-.12.11-.06,0-.15.08-.1,0-.2,0h-.13a1.59,1.59,0,0,1-.37,0c-.69-.11-.81-1.08-1-1.46a.41.41,0,0,0-.13-.18h0a.29.29,0,0,0-.14-.05h-.14l0,0c.14,0,.19.26.19.26-.23.09-.09.31,0,.49a.48.48,0,0,1,0,.11h0s0,0,0,0h0a.22.22,0,0,1-.08-.07h0l-.15-.22a.48.48,0,0,0-.16-.16l0,0a.36.36,0,0,0-.16,0h-.16l-.06,0h0l0,0h.09l0,0,0,0,0,0h0v0c0,.12-.15.33.25.41s0,.18,0,.18A.42.42,0,0,0,112,38a.21.21,0,0,1,.06-.14l0,0,.09,0h.2a.2.2,0,0,0,.12.07h.09l.13,0,0,0,.06,0a.31.31,0,0,0,0,.12.12.12,0,0,0,0,0,.18.18,0,0,0,0,.06l0,0,0,0,0,0,.05,0h.29a.47.47,0,0,1-.11.18l0,0-.09.06-.05,0h-.15a.76.76,0,0,0,.22.12l.07,0,.16,0h.07l.19,0h0l.18-.06,0,0,.09,0h0l0,0,.25,0,.16,0h.1s0,0,0,.09c-.15.21.12.36.12.36,0-.3.77-.39.77-.39a.29.29,0,0,0,0,.36s.09-.2.47-.2a.73.73,0,0,0,.53-.16.51.51,0,0,0,.16.11l.06,0,.11,0h.22c-.11,0-.22-.19-.2-.28s.13-.2-.08-.29-.13-.23-.13-.23a1.1,1.1,0,0,0,.82.28,3.45,3.45,0,0,0,2.09-.62,2.24,2.24,0,0,1,1.08-.52s-.56.39.1.65.93.16.93.36c0,0,0,0-.07,0h0l-.21,0-.06,0-.3-.09-.33-.09h-.07a1.65,1.65,0,0,0-.33,0c-.54,0-.41.44-.41.44a.18.18,0,0,1,.09-.1l0,0,.08,0H120a0,0,0,0,1,0,.06.2.2,0,0,0,.08.23c-.68.29-.25.69-.25.69a.38.38,0,0,1,0-.14.14.14,0,0,1,0-.09.2.2,0,0,1,.14-.05h0a.94.94,0,0,1,.27,0h0a.25.25,0,0,1,0-.15v0a.24.24,0,0,1,.07-.11h0a.39.39,0,0,1,.13-.07h0l.16,0h0a.79.79,0,0,1,.3.06,1.08,1.08,0,0,0,.26.07h.21l.16,0h.05l.08,0,.15-.07H122a.06.06,0,0,1,.06.06v0a.39.39,0,0,1,0,.12v0l-.06.13v0l0,0h0l.07,0h.05l.08-.05,0,0,.06-.06,0,0,0,0a.35.35,0,0,0,.2-.45.21.21,0,0,1,.08-.1l0,0,.11,0h0l.16,0h.3c-.16-.32-.75-.21-1.32-.38s-.33-.58-.33-.58a.44.44,0,0,0,.17.22l.1.05.21.09.15,0,.24,0h1.23c.1.11,0,.23,0,.23.58,0,.94-.6,1.12-.6s.18.22.18.37-.16.31-.72.43-.33.54-.33.54a.14.14,0,0,1,.08-.1h0l.1,0h0a.24.24,0,0,0,.09.08h.08l.07,0,0,0,.09-.08a.24.24,0,0,1,.13-.07h0l0,0h0a.11.11,0,0,1,0,.08.66.66,0,0,0-.17.47.29.29,0,0,0,.19.32c0-.16,0-.21.22-.27s.09-.34.09-.34a.29.29,0,0,1,.05-.09h0a.1.1,0,0,1,0,.06v0l0,.18a.36.36,0,0,0,.22.29.27.27,0,0,0,.1.08h.08l.06,0h0l0,0c-.07,0-.26-.12-.11-.28a.22.22,0,0,0,0-.35c-.09-.07-.12-.14,0-.25a.36.36,0,0,0,0-.41.46.46,0,0,1,0-.43.1.1,0,0,1,.09,0h0a.36.36,0,0,1,.14,0l0,0,.06,0a.62.62,0,0,0,0-.23l0,0-.05-.07,0,0,0,0h0c.36-.63-.07-.83-.07-.83.09.29-.24.48-.24.48a.22.22,0,0,0,0-.18,1.46,1.46,0,0,1-1,.31h-.63a.08.08,0,0,1-.06-.08c0-.15.29-.17.84-.26a1,1,0,0,0,1-.89.64.64,0,0,0-.34-.6c-.17-.16.16-.45.16-.45h-.12a.48.48,0,0,0-.21.06l0,0a.57.57,0,0,0-.14.13l0,0a.72.72,0,0,0-.07.13v0l0,.05s-.13,0-.07-.22c-.25.08-.26.34-.41.38a6.36,6.36,0,0,1-1.6.25c-1,0-.89-.35-.89-.35a.17.17,0,0,0-.1.28c-.42-.08-.19-.55-.19-.55-.53.13-.34.55-.34.55h-.37a.67.67,0,0,1-.19-.08l0,0a.5.5,0,0,1-.13-.14l0-.06a.69.69,0,0,1-.06-.3.46.46,0,0,1,.07-.24l0,0a.59.59,0,0,1,.18-.16l0,0a1.2,1.2,0,0,1,.23-.09h0l.29,0H122a.47.47,0,0,0,.19.14l.07,0,.16,0h.33c-.25-.18-.11-.26-.11-.26a.81.81,0,0,0,.3.16l.11,0,.16,0h0l.18,0h.05l.09,0c-.4-.05-.38-.24-.38-.24.79-.13.37-.88.37-.88-.19.61-1.19.52-2.21.63-.84.09-1.56.15-1.56,1s1.08,1,2.25,1a8.65,8.65,0,0,0,1.62-.2c-.11.21.22.35.22.35s0-.36.26-.42l.27-.07h0a1.48,1.48,0,0,1,.3,0h.13l.07,0,0,0a.22.22,0,0,1,0,.06l0,0a.35.35,0,0,1,0,.15.33.33,0,0,1-.1.21l-.06.05a.91.91,0,0,1-.23.14l-.07,0a2.46,2.46,0,0,1-.47.11H124l-.53,0h-.22l-.49,0h-.25c-.27,0-.55-.06-.86-.11s-.68-.09-1-.11h-.12c-.3,0-.57,0-.83,0h-.65l-.26,0h-.16l-.24,0h-.11l-.27,0a.39.39,0,0,0-.08-.33.49.49,0,0,1-.41.22c-.28,0,0-.41.15-.46s.43-.14.51-.39l0,0h0l-.09,0h0l-.12,0h0a.18.18,0,0,0-.14.06.84.84,0,0,0-.06-1.12v.08a.42.42,0,0,1,0,.08l0,0-.05.06,0,0a.19.19,0,0,1-.14,0c-.29-.12-.2-.51.09-.64h0a4.83,4.83,0,0,0,2-1.76c.22-.35.14-.64,0-.77a.48.48,0,0,0-.65.13h0a3.74,3.74,0,0,1-3.12,1.3,8.7,8.7,0,0,1-5.5-2.12h18.55v1.63l-1.48-.4.77,1.22a1,1,0,0,1-.27.07l-1.39.15,1,.95a2.27,2.27,0,0,1,.74,1.28,7.61,7.61,0,0,1,.16.92,18.86,18.86,0,0,1-2.51,5.86c-.11.18-.24.35-.36.53a.67.67,0,0,0,0-.16.64.64,0,0,0-.34-.6c-.17-.16.16-.45.16-.45h-.12a.44.44,0,0,0-.21.06l0,0a.56.56,0,0,0-.14.13l0,0a.72.72,0,0,0-.07.13h0l0,.05s-.13,0-.07-.22c-.25.07-.26.33-.41.37a6.36,6.36,0,0,1-1.6.25c-1,0-.89-.35-.89-.35a.17.17,0,0,0-.1.28c-.42-.07-.19-.55-.19-.55-.53.13-.34.55-.34.55h-.37a.62.62,0,0,1-.19-.08l0,0a.48.48,0,0,1-.13-.14l0-.06a.7.7,0,0,1-.06-.3.46.46,0,0,1,.07-.24l0,0a.59.59,0,0,1,.18-.16l0,0,.23-.09h0l.29,0H122a.48.48,0,0,0,.19.14l.07,0,.16,0h.33c-.25-.18-.11-.25-.11-.25a.81.81,0,0,0,.3.16l.11,0,.16,0h0l.18,0h.05l.09,0c-.4-.05-.38-.23-.38-.23.79-.13.37-.88.37-.88-.19.61-1.19.52-2.21.63-.84.09-1.56.15-1.56,1s1.08,1,2.25,1a8.72,8.72,0,0,0,1.62-.19c-.11.21.22.34.22.34s0-.36.26-.42l.27-.07h0a1.48,1.48,0,0,1,.3,0h.13l.07,0,0,0a.2.2,0,0,1,0,.06l0,0a.35.35,0,0,1,0,.15.33.33,0,0,1-.1.21l-.06.05a.91.91,0,0,1-.23.14l-.07,0a2.58,2.58,0,0,1-.47.11H124l-.53,0h-.22l-.49,0-.25,0c-.27,0-.55-.06-.86-.11s-.68-.09-1-.12h-.11l-.83,0h-1.06l-.24,0h-.1l-.27,0a.39.39,0,0,0-.08-.33.49.49,0,0,1-.41.22c-.28,0,0-.41.15-.46s.43-.14.51-.39l0,0h0l-.09,0h0l-.12,0h0a.17.17,0,0,0-.14.06.84.84,0,0,0-.06-1.12v.08a.42.42,0,0,1,0,.08l0,0-.05.06,0,0a.19.19,0,0,1-.14,0c-.29-.12-.2-.51.09-.64h-.21l-.12,0h-.07a.42.42,0,0,0-.18.14l-.14.19-.06.08c0,.05-.08.08-.12.09a.1.1,0,0,1-.07,0c-.2-.11.06-.32.06-.32h-.26l-.09,0h0l-.13.07,0,0-.09.1,0,0a.68.68,0,0,0-.05.13l0,.06a1.07,1.07,0,0,0,0,.26s-.07-.13-.34-.13a.89.89,0,0,0,.23.73s0,.37-.25.4l-.07,0-.06,0-.11-.06-.11-.06-.14-.09-.14-.09-.16-.13-.14-.12-.16-.16-.14-.14c-.05-.06-.1-.13-.15-.19l-.11-.14a1.92,1.92,0,0,1-.12-.25,1.18,1.18,0,0,1-.06-.12,1.25,1.25,0,0,1-.07-.4,1.94,1.94,0,0,0,0-.26v-.07a1.06,1.06,0,0,0,0-.13l0-.05,0-.08,0,0-.05-.06h0l-.07,0h-.13c.16.09.06.36.06.36s-.18.16-.06.4a.33.33,0,0,1,0,.15s0,0,0,0,0,0,0,0l-.07,0,0,0a.92.92,0,0,1-.14-.23.86.86,0,0,0-.09-.15l0,0-.06-.06,0,0-.06,0h-.1a.35.35,0,0,0-.13,0h0l-.05,0c.2,0,.18.16.18.16s-.14.22,0,.33a2.23,2.23,0,0,0,.4.25l-.43.07c-.51.08-.3.56-.3.56a.3.3,0,0,1,.22-.29.32.32,0,0,0,.1.11l0,0,.07,0h0l.09,0,.07,0,0,0,0,0h0v0a.52.52,0,0,0,.46.45.15.15,0,0,1,0,.1l0,0-.07,0h-.16c.05.28.36.3.6.3s.45.11.36.17a.21.21,0,0,1-.11,0h-.17a.82.82,0,0,0,.39.41.22.22,0,0,1-.12,0h-.07s.07.21.22.23.3,0,.3.25a.13.13,0,0,1,0,.11h-.21l0,0c.13.65.39.78.55.79,0,0,0,0,0,0h0c0,.23,0,.72.31.72a.55.55,0,0,0,.15,0l-.12.11-.06,0-.15.08-.1,0-.19,0-.14,0a1.68,1.68,0,0,1-.37,0c-.69-.11-.81-1.08-1-1.46a.45.45,0,0,0-.13-.18h0a.29.29,0,0,0-.14-.05h-.14l0,0c.14,0,.19.26.19.26-.23.09-.09.31,0,.49a.45.45,0,0,1,0,.1h0s0,0,0,0h0a.23.23,0,0,1-.08-.07h0a2.07,2.07,0,0,1-.15-.22.45.45,0,0,0-.16-.16l0,0a.39.39,0,0,0-.16,0h-.16l-.06,0h0l0,0h.09l0,0,0,0,0,0h0v0c0,.12-.15.33.25.41s0,.18,0,.18a.42.42,0,0,0-.39.55.21.21,0,0,1,.06-.14l0,0,.09,0h.2a.2.2,0,0,0,.12.07h.09l.13,0,0,0,.06,0a.31.31,0,0,0,0,.13.13.13,0,0,0,0,0,.17.17,0,0,0,0,.06l0,0,0,0,0,0,.05,0h.29a.47.47,0,0,1-.11.18l0,0-.09.06-.05,0h-.15a.76.76,0,0,0,.22.12l.07,0,.16,0h.07l.19,0h0l.18-.06,0,0,.09,0h0l0,0,.25,0,.16,0h.1s0,0,0,.09c-.15.21.12.36.12.36,0-.3.77-.39.77-.39a.29.29,0,0,0,0,.36s.09-.19.47-.19a.73.73,0,0,0,.53-.16.54.54,0,0,0,.16.11l.06,0,.11,0h.22c-.11,0-.22-.19-.2-.28s.13-.19-.08-.29-.13-.23-.13-.23a1.09,1.09,0,0,0,.82.28,3.45,3.45,0,0,0,2.09-.62,2.22,2.22,0,0,1,1.08-.52s-.56.39.1.65.93.16.93.36c0,0,0,0-.07,0h0l-.21,0-.06,0-.3-.09-.33-.09h-.07a1.65,1.65,0,0,0-.33,0c-.54,0-.41.44-.41.44a.18.18,0,0,1,.09-.1l0,0,.08,0H120a0,0,0,0,1,0,.07.2.2,0,0,0,.08.23c-.68.29-.25.69-.25.69a.38.38,0,0,1,0-.14.14.14,0,0,1,0-.09.2.2,0,0,1,.14-.05h0a.94.94,0,0,1,.27,0h0a.25.25,0,0,1,0-.15v0a.24.24,0,0,1,.07-.11h0a.42.42,0,0,1,.13-.07h0l.16,0h0a.83.83,0,0,1,.3.06,1,1,0,0,0,.26.07h.42l.08,0,.15-.07H122a.06.06,0,0,1,.06.06v0a.38.38,0,0,1,0,.12v0l-.06.13v0l0,0h0l.07,0,.05,0,.08-.05,0,0,.07-.06,0,0,0,0a.35.35,0,0,0,.2-.45.22.22,0,0,1,.08-.1l0,0,.11,0h0l.16,0h.3c-.16-.32-.75-.2-1.32-.38s-.33-.58-.33-.58a.44.44,0,0,0,.17.23l.1.05a1.13,1.13,0,0,0,.21.09l.15,0,.24,0,.16,0h1.07c.1.11,0,.23,0,.23a.87.87,0,0,0,.25-.07,31,31,0,0,1-2.63,2.8l-.39.37h0l-.66.59v0l-.36.31-.43.37-.72.58h0l-.24,0h-.11l-.27,0s0,0,0-.08a.37.37,0,0,0-.08-.26.49.49,0,0,1-.41.22c-.28,0,0-.41.15-.46s.43-.14.51-.39l0,0h0l-.09,0h0l-.12,0h0a.18.18,0,0,0-.14.06.84.84,0,0,0-.06-1.12v.08a.46.46,0,0,1,0,.08l0,0-.05.06,0,0a.19.19,0,0,1-.14,0c-.29-.12-.2-.51.09-.64h-.21l-.12,0h-.07a.42.42,0,0,0-.18.14l-.14.19-.06.08a.2.2,0,0,1-.12.09.12.12,0,0,1-.07,0c-.2-.11.06-.32.06-.32h-.26l-.09,0h0l-.13.07,0,0-.09.1,0,0a.68.68,0,0,0-.05.13l0,.06a1.09,1.09,0,0,0,0,.26s-.07-.13-.34-.13a.89.89,0,0,0,.23.73s0,.37-.25.4l-.07,0-.06,0-.11-.06-.11-.06-.14-.09-.14-.09-.16-.13-.14-.11-.16-.16L114.2,48a2.42,2.42,0,0,1-.15-.2l-.11-.14a1.83,1.83,0,0,1-.12-.25s0-.08-.06-.12a1.25,1.25,0,0,1-.07-.4,2,2,0,0,0,0-.26v-.07a1.13,1.13,0,0,0,0-.13l0-.05,0-.08,0,0-.05-.06h0l-.07,0h-.13c.16.09.06.36.06.36s-.18.16-.06.4a.33.33,0,0,1,0,.15s0,0,0,0,0,0,0,0,0,0-.07,0l0,0a.92.92,0,0,1-.14-.23.84.84,0,0,0-.09-.15l0,0-.06-.06,0,0-.06,0h-.1l-.13,0h0l-.05,0c.2,0,.18.16.18.16s-.14.22,0,.33a2.12,2.12,0,0,0,.4.25l-.43.07c-.51.08-.3.56-.3.56a.3.3,0,0,1,.22-.29.35.35,0,0,0,.1.11l0,0,.07,0h0l.09,0,.07,0h0l0,0h0v0a.52.52,0,0,0,.46.45.15.15,0,0,1,0,.1l0,0-.07,0h-.16c.05.28.36.3.6.3s.45.11.36.17a.2.2,0,0,1-.11,0h-.17a.82.82,0,0,0,.39.41.22.22,0,0,1-.12,0h-.07s.07.21.22.23.3,0,.3.25a.14.14,0,0,1,0,.11h-.21l0,0c.09.48.26.67.41.75l.14,0a1.08,1.08,0,0,0,.12.63.23.23,0,0,0,.18.09.55.55,0,0,0,.15,0l-.12.11-.06,0-.15.08-.1,0-.19,0h-.14a1.58,1.58,0,0,1-.37,0,.69.69,0,0,1-.31-.13,1.35,1.35,0,0,1-.43-.64c-.1-.26-.16-.53-.22-.69a.44.44,0,0,0-.13-.18h0a.31.31,0,0,0-.14-.05h-.19c.14,0,.19.26.19.26-.23.09-.09.32,0,.49a.45.45,0,0,1,0,.1h0s0,0,0,0h0a.19.19,0,0,1-.08-.07h0l-.15-.22a.47.47,0,0,0-.16-.16l0,0a.36.36,0,0,0-.16,0h-.16l-.06,0h0l0,0h.09l0,0,0,0,0,0h0v0c0,.12-.15.33.25.41h0c.36.07,0,.18,0,.18a.42.42,0,0,0-.39.55.21.21,0,0,1,.06-.14l0,0,.09,0h.2a.2.2,0,0,0,.12.07h.09l.13,0,0,0,.06,0a.3.3,0,0,0,0,.12.11.11,0,0,0,0,0v.06l0,0,0,0,0,0,.05,0h.29a.47.47,0,0,1-.11.18l0,0-.09.06L113,52l-.08,0h-.07a.76.76,0,0,0,.22.12l.07,0,.16,0h.07l.19,0h0l.18-.06,0,0,.09,0h0l0,0,.25,0,.16,0h.1s0,0,0,.09a.19.19,0,0,0,0,.26A54.12,54.12,0,0,1,109.71,55ZM102.86,40a4.84,4.84,0,0,1-1-2.72c0-.14,0-.26,0-.39a4.84,4.84,0,0,1,1-2.73l1.08-1.36L105,34.12A4.88,4.88,0,0,1,105,40l-.53.71v5.68h-1.09V40.68Zm-1.14-.82,0,.07,0,.07a5.13,5.13,0,0,1-.42.68l-.53.71v5.68H99.67V40.68L99.14,40a4.84,4.84,0,0,1-1-2.72c0-.14,0-.26,0-.39h0a4.88,4.88,0,0,1,.53-2,4.94,4.94,0,0,1,.42-.68l1.08-1.36,1.07,1.36a5,5,0,0,1,.42.68l0,.07,0,.07a5.43,5.43,0,0,0,0,4.2M95.43,40a4.88,4.88,0,0,1,0-5.85l1.07-1.35,1.07,1.35a5,5,0,0,1,.42.68l0,.07,0,.07a5.43,5.43,0,0,0,0,4.2l0,.07,0,.07a5,5,0,0,1-.42.68l-.53.71v6c-.38-.37-.74-.75-1.09-1.13V40.68ZM78,33.12A7.47,7.47,0,0,0,81.1,27.3a2.63,2.63,0,0,0,.53-.05c2.2-.45,4.89,1.73,4.92,1.76l.25.21L87,29c.21-.29.09-.85-.1-1.36a4.46,4.46,0,0,1,2.27.4l.3.11v4.08a18.45,18.45,0,0,0,3.06,10,28.22,28.22,0,0,0,4,4.85c-.41-.23-.82-.45-1.23-.7a16.55,16.55,0,0,0-13-1.78,9,9,0,0,0,1.15-3.52c.21-2.29-.6-5.48-5.44-7.94M105.1,51.25V49h-2.33v2.36c-.46-.31-.92-.64-1.39-1V49H99.59l-.85-.72h6.32v-.63H98l-.37-.34V40.88l.41-.55.08-.13.07-.11.14-.21.14.21.07.11.08.13.41.55v6.06h2.32V40.88l.41-.55.08-.13.07-.11.14-.22.14.22.07.11.08.13.41.55v6.06h2.32V40.88l.41-.55a5.49,5.49,0,0,0,0-6.56l-1.57-2.12-1.57,2.12-.08.13-.07.12-.14.21-.14-.21-.07-.12-.08-.13-1.57-2.12-1.57,2.12-.08.13L98.5,34l-.14.22L98.21,34l-.07-.11-.08-.13-1.56-2.1h0l-1.56,2.1a5.49,5.49,0,0,0,0,6.57l.41.55v4a25.82,25.82,0,0,1-2.28-3,17.84,17.84,0,0,1-3-9.68v-2h16.53a22.9,22.9,0,0,0,2.44,1.89V55c-1.14-.56-2.5-1.28-4-2.17Zm-1.72-.45V49.52h1.11v2.91l-1.11-.71Zm22.13-5.19-.17.08c-.42.2-.83.42-1.23.66l-.5.28-.23.13-.31.17-1,.58h0l-.55.28.33-.31h0l.43-.41q1-1,1.89-2h0l.42-.51.37-.46c.28-.36.54-.72.79-1.08s.37-.53.54-.8.34-.56.5-.85l0,.06,1-1a17.29,17.29,0,0,0,2.18-2.69l.5.35.13.09a9.52,9.52,0,0,0,1.77,5.32s.12.2.33.46a16.89,16.89,0,0,0-7.1,1.65m9.57-29.72c.41-1.38.84-2.82,1.29-4.42.05-1.06,0-1.2-.52-1.7l-.29-.28A15.88,15.88,0,0,0,133.67,8l-.08-.05h-.09A6.51,6.51,0,0,1,132,7.7l2.09-.51.07-.08a3.71,3.71,0,0,1,2-1.21,3.36,3.36,0,0,1,1.43.18l1.3,1.13a9.61,9.61,0,0,1-.11,3.59,23,23,0,0,0-.88,5.14,70.44,70.44,0,0,0,0,12.23,2.61,2.61,0,0,0-.42.93,4.56,4.56,0,0,0,1.3,4.1,10.36,10.36,0,0,0,2.81,1.52,6.65,6.65,0,0,1,2.66,1.87c.18.21.37.43.54.65a4.9,4.9,0,0,1,.25,1.55,5.71,5.71,0,0,1-2.09,4.11s0-.05,0-.08a27.08,27.08,0,0,0-.19-5.43.31.31,0,0,0-.39-.22.31.31,0,0,0-.22.39,27.59,27.59,0,0,1,.17,5.25c0,.29,0,.51,0,.67a12.76,12.76,0,0,1-3,1.87A17,17,0,0,0,133.45,44a5.91,5.91,0,0,1-.65-.83,8.64,8.64,0,0,1-1.63-4.49l0,0c1.86,1.34,3.78,2.73,6.42,2.73h0v-.63h0c-2.44,0-4.2-1.27-6.05-2.61l-.46-.33c0-.33,0-.66,0-1h0a18.13,18.13,0,0,0,7,2.47l.08-.63a18,18,0,0,1-7.06-2.56c.28-7.87,1.9-13.35,3.95-20.24m3.8-12.24.14,2-2.1-1.82ZM141,5.49l.14,2L139,5.63Zm-3,23.85c.64,3.38,1.89,3.68,3.13,4a2.58,2.58,0,0,1,1.28.55,10.18,10.18,0,0,1,1.23,1.36,7.16,7.16,0,0,0-1.9-1.1,10,10,0,0,1-2.62-1.41A3.94,3.94,0,0,1,138,29.34m1.28-1.5a2.12,2.12,0,0,1,.58-.08,2.59,2.59,0,0,1,.84.16l.33.14a8,8,0,0,1,3.15,3.35,14.27,14.27,0,0,1,1.31,5.8l-.21-.27a8.87,8.87,0,0,0-2.44-3.54,3.15,3.15,0,0,0-1.57-.7c-1.09-.25-2.28-.54-2.8-4.35a1.66,1.66,0,0,1,.8-.5m9,6.77a30.42,30.42,0,0,1,1.18,4.46,15.38,15.38,0,0,0-1.91-2.32.32.32,0,0,0-.51.35c1,2.23,1.29,5.44.15,7.2l-.66-2.5a.33.33,0,0,0-.34-.23.32.32,0,0,0-.28.3,13.55,13.55,0,0,1-.32,2.4,2.93,2.93,0,0,1-1.17,1.78c1.32-5.06,1.17-5.17,1-5.31a.32.32,0,0,0-.13,0,5.33,5.33,0,0,0,.38-1.9c0-.15,0-.3,0-.44a.32.32,0,0,0,.21.09h.09a.31.31,0,0,0,.23-.28,14.91,14.91,0,0,0-1.36-7,9.26,9.26,0,0,0-1.1-1.7,10.6,10.6,0,0,1,4.6,5.18M146.2,49.55a5,5,0,0,0,1.76-3.4.31.31,0,0,0-.54-.25s-.38.38-1.17,1a3.18,3.18,0,0,1-1.26.61,3.26,3.26,0,0,0-.76.29,2.18,2.18,0,0,0-.75.82,8.3,8.3,0,0,0-3.43-3,14.55,14.55,0,0,0,2.69-1.79,6,6,0,0,0,2-1.6c-.24,1.08-.64,2.7-1,4.22a.32.32,0,0,0,.07.29.31.31,0,0,0,.24.1h0a3,3,0,0,0,2.2-2.45,6.91,6.91,0,0,0,.17-.79l.38,1.42a.31.31,0,0,0,.23.22.32.32,0,0,0,.31-.08c1.57-1.61,1.5-4.58.87-6.87a6.63,6.63,0,0,1,1.21,1.94c.1.33.2.53.41.58a.37.37,0,0,0,.33-.11c.36-.4-.18-3.25-1.22-6.34-1.33-4-5.83-6.2-7.43-6.88l-.27-.11-.3-.12h0a2.89,2.89,0,0,0-1.71-.07,2.4,2.4,0,0,0-.72.35A74.88,74.88,0,0,1,138.52,16a22.84,22.84,0,0,1,.88-5.1,9.26,9.26,0,0,0,.19-3.06l.72.62.84-1,2-.14-.14-2-2,.14-.14-2,1.31-.09-.09-1.32-1.32.09.09,1.31-2,.14-.14-2-2,.14.14,2-.85,1,.58.5a3.68,3.68,0,0,0-.55,0,4.16,4.16,0,0,0-2.34,1.35l-2.17.53-.11.05a.62.62,0,0,0-.25.48.62.62,0,0,0,.32.5,5.16,5.16,0,0,0,1.86.35,15,15,0,0,1,1.73,1.41l.3.29c.37.35.37.35.33,1.14-.44,1.53-.87,3-1.28,4.35-2,6.83-3.65,12.29-4,20.07l-.06,0a5.13,5.13,0,0,0-.16-2.27,2.51,2.51,0,0,0-1-1.4V9.32l-.4.11a24,24,0,0,1-6.28.86,26.46,26.46,0,0,1-13.08-3.69l-.16-.09-.16.09a26.47,26.47,0,0,1-13.08,3.69,23.63,23.63,0,0,1-5.08-.58c-.05-.43-.81-.83-1.5-.9s-2.4.12-2.85,3.3c-.2,1.4-.27,1.42-.71,1.51-.66.14-1.87.4-4.26,3a4.51,4.51,0,0,0-3.11-2.23A8.53,8.53,0,0,1,75,13.08h.27A4.14,4.14,0,0,0,78,12a1,1,0,0,1,1.45-.09l.35.38.18-.49a3.52,3.52,0,0,0-.68-3.42.94.94,0,0,0-1-.27c-.63.26-1.74.82-2.29,1.1a1,1,0,0,1,0-.53c.26-.75,1.39-1.28,2.13-1.63a4.46,4.46,0,0,0,.67-.35A.65.65,0,0,0,79,6.28c.1-.73-.81-2-1-2.24L78,3.93H77.8A5,5,0,0,0,74,5.12l-.73-1.43.78-2.41L71.64.49,70.86,2.9l-2.4-.78L69,.53,67.37,0l-.52,1.62,1.6.52-.78,2.4-2.42-.79-.78,2.43L66.87,7l.32.63a1.46,1.46,0,0,0-.9.47,2.76,2.76,0,0,0-.37,2.47c.13.36.33.46.47.48a1.22,1.22,0,0,0,.39,0,7.09,7.09,0,0,0,0,4l.21.68.37-.61.11-.17c-.87,3.72,2.94,6.35,3,6.38l.08-.12a10,10,0,0,0-.14,4.39,20.7,20.7,0,0,1,.17,4,5.09,5.09,0,0,1-2,4.14c-.3.27-.61.56-.92.9-1.33,1.14-3.76,2.79-4.6,2.34-.36-.19-.36-.83-.31-1.34a17.73,17.73,0,0,1,2.12-5.15c2.35-4.53,5.27-10.16,1.54-14.93C65,13.72,64,13,63.12,13.09s-1.41,1.28-1.81,2.28c-.27.68-.57,1.45-.92,1.52s-.53-.2-.74-.41l-.59-.58.06.83c0,.18.15,1.77,1,2.16a1.19,1.19,0,0,0,1.06-.09,2.4,2.4,0,0,1-1.08,2.47l-.73.35.78.23a1.8,1.8,0,0,0,1.4-.26,4,4,0,0,0,1.51-2.5,2.81,2.81,0,0,0,1.67,1.72l.77.17-.44-.65c-.43-.64-1-1.88-.83-2.45a.46.46,0,0,1,.32-.3c.23-.08.46.14.58.27,1.07,1.28,1.41,5.82-2.26,12.56-3.19,5.86-1.74,7.7-1,8.22A2.26,2.26,0,0,0,63.2,39a4.17,4.17,0,0,0,2.37-.87c-.67,2.33.57,4.18,1.34,5.33a3.92,3.92,0,0,1,.55,1s-.14.11-.87.09c-1.47-.06-2.37.16-2.85.68a2.36,2.36,0,0,0-.33,2c0,.18,0,.36.06.54a15.26,15.26,0,0,1-.46,3,17.4,17.4,0,0,0-.52,3.54.92.92,0,0,0,.35.67,5.92,5.92,0,0,0,3.27.63,29.48,29.48,0,0,0,3.4-.22,1.48,1.48,0,0,0,1.21-1.51c0-.39-.26-1.7-2.91-1.85A2.39,2.39,0,0,1,65.87,51a3.8,3.8,0,0,1-.32-2.78l0-.08,0-.08a1.14,1.14,0,0,1,.27-1c.48-.6,1.75-1.27,5.09-1.17a3.17,3.17,0,0,0,2.55-.8c.93-1,.76-2.71.59-4.53a23.09,23.09,0,0,1-.15-2.36c2,.5,6.64,2.24,5.94,7.17A8.4,8.4,0,0,0,75.73,49a1.52,1.52,0,0,0,0,1.4l1.18,2.24a1.56,1.56,0,0,0,1.45.91c1.27,0,3-1.21,4.72-2.37a13.19,13.19,0,0,1,4.14-2.26,8.93,8.93,0,0,1-3.71,2.45c-1.7.76-3.46,1.55-4.4,3.37l0,0v0a8.44,8.44,0,0,0,1.59,3.34l0,.07h0l.18.13a5,5,0,0,0,3.24.91c.38,0,.82,0,1.3.07l.25,0-.13-.21a35.82,35.82,0,0,1-1.88-3.35c.52-.26,1.06-.5,1.6-.73,2.35-1,4.79-2.09,4.08-4.48-.15-.5-.33-1.07-.58-1.71a20.22,20.22,0,0,1,5.37,2.6c3.47,2.09,7.78,4.7,15,4.85h1.19a27,27,0,0,0,14.34-4.53.1.1,0,0,1,0,0,.1.1,0,0,0,0-.05l.54-.32.36-.22a19.12,19.12,0,0,1,5-2.37c-.2.53-.38,1.08-.57,1.7-.71,2.4,1.73,3.46,4.08,4.48.55.24,1.09.48,1.62.74a36.14,36.14,0,0,1-1.89,3.38l-.13.21.24,0c.48,0,.92-.06,1.3-.07a5,5,0,0,0,3.25-.92l.12-.08,0,0,.07-.09a8.36,8.36,0,0,0,1.6-3.35v0l0,0c-.94-1.82-2.7-2.61-4.4-3.37A8.56,8.56,0,0,1,132,48.74c1.22.15,2.84,1.28,4.42,2.38,1.75,1.22,3.4,2.37,4.64,2.37a1.52,1.52,0,0,0,1.41-.89l1.18-2.24a1.47,1.47,0,0,0,.15-.47,3.93,3.93,0,0,0,.83.11,2.78,2.78,0,0,0,1.57-.46"/><path class="cls-1" d="M149.57,48.6a2,2,0,0,1-.28-1.65c.1-.46.34-1.58.5-2.67.32,1.61.5,3.56-.22,4.32m.35-6.36a.32.32,0,0,0-.62.11,21.56,21.56,0,0,1-.63,4.46,2.53,2.53,0,0,0,.65,2.46.32.32,0,0,0,.21.08.33.33,0,0,0,.17,0c2-1.24.42-6.47.23-7.06"/><path class="cls-1" d="M142.3,58.41c0-.16-.07-.32-.11-.47a3.6,3.6,0,0,1-.12-1.76,3.69,3.69,0,0,1,.52-1.28,10,10,0,0,0,.14,1.86,2.17,2.17,0,0,1-.44,1.65m.8-4.83a.31.31,0,0,0-.37.09,5.21,5.21,0,0,0-1.28,2.38,4.22,4.22,0,0,0,.13,2,7.35,7.35,0,0,1,.19,1,.31.31,0,0,0,.18.25l.13,0a.31.31,0,0,0,.18-.05,2.8,2.8,0,0,0,1.09-2.66,10,10,0,0,1-.07-2.73.32.32,0,0,0-.19-.33"/><path class="cls-1" d="M152.55,43.15a3.35,3.35,0,0,1-.37-1.85,15.9,15.9,0,0,0-.12-2.37c.62,1.35,1.09,3,.5,4.22m-1-1.86a3.35,3.35,0,0,0,.83,2.66.32.32,0,0,0,.21.08h0a.32.32,0,0,0,.22-.13c2-2.69-1.48-7.49-1.63-7.7a.32.32,0,0,0-.54.33,9.7,9.7,0,0,1,.88,4.76"/></svg>