<?xml version="1.0" encoding="utf-8"?>
<!-- Generator: Adobe Illustrator 19.2.1, SVG Export Plug-In . SVG Version: 6.00 Build 0)  -->
<svg version="1.1" id="Layer_1" xmlns="http://www.w3.org/2000/svg" xmlns:xlink="http://www.w3.org/1999/xlink" x="0px" y="0px"
	 viewBox="0 0 145.6 63" style="enable-background:new 0 0 145.6 63;" xml:space="preserve">
<style type="text/css">
	.st0{fill:#690E3A;}
	.st1{fill:#FFFFFF;}
	.st2{fill:#DCC9E2;}
</style>
<g>
	<path d="M39.7,37.1c0.3,0.3,1.2,1.3,2.1,2.2c0.9,0.9,2,2,2.1,2.1c0.4,0.4,0.5,0.5,0.6,0.5s0.1,0,0.1-0.5v-4.5c0-0.5,0-0.6,0.3-0.7
		c0.1,0,0.2,0,0.2,0c0.1,0,0.1,0,0.1-0.1L45.1,36c-0.3,0-0.6,0-0.7,0c-0.1,0-0.5,0-0.8,0c-0.1,0-0.2,0-0.2,0.1c0,0,0,0.1,0.1,0.1
		s0.3,0,0.4,0c0.3,0.1,0.3,0.2,0.3,0.7l0.1,3.9c-0.3-0.3-1.1-1.2-1.9-2c-1.2-1.3-2.5-2.5-2.6-2.7c-0.1-0.1-0.2-0.2-0.3-0.2
		s-0.1,0.1-0.1,0.4v4.4c0,0.7,0,0.9-0.2,1c-0.1,0-0.3,0-0.3,0h-0.1c0,0.1,0,0.1,0.1,0.1c0.4,0,0.7,0,0.8,0s0.4,0,0.9,0
		c0.1,0,0.1,0,0.1-0.1c0,0,0,0-0.1,0s-0.3,0-0.4,0c-0.2-0.1-0.3-0.3-0.3-0.9L39.7,37.1z"/>
	<path d="M49.3,39.6c0,0.7,0,1.4,0,1.7c0,0.2-0.1,0.4-0.2,0.4c-0.1,0-0.2,0-0.2,0h-0.1c0,0,0,0.1,0.1,0.1c0.2,0,0.8,0,0.8,0
		c0.2,0,0.8,0,2,0c0.3,0,0.4,0,0.4-0.2s0.1-0.7,0.1-0.8c0-0.1,0-0.1,0-0.1s-0.1,0-0.1,0.1c-0.1,0.3-0.2,0.5-0.4,0.6
		s-0.6,0.1-0.8,0.1c-0.8,0-0.9-0.1-0.9-0.6c0-0.2,0-1.1,0-1.3v-0.7c0,0,0-0.1,0.1-0.1s0.9,0,1.2,0s0.4,0.2,0.4,0.3
		c0,0.1,0,0.2,0,0.3c0,0,0,0.1,0.1,0.1s0.1-0.1,0.1-0.1c0-0.1,0-0.3,0-0.5c0-0.3,0.1-0.4,0.1-0.4v-0.1c0,0-0.1,0-0.1,0.1
		c-0.1,0.1-0.2,0.1-0.4,0.1s-1.2,0-1.3,0c0,0,0,0,0-0.1v-2.1c0-0.1,0-0.1,0-0.1c0.1,0,1,0,1.1,0c0.4,0,0.5,0.1,0.6,0.3
		c0,0.1,0,0.2,0,0.3c0,0.1,0,0.1,0.1,0.1c0,0,0,0,0.1-0.1c0-0.1,0-0.4,0-0.5c0-0.2,0.1-0.3,0.1-0.4v-0.1h-0.1c-0.1,0-0.2,0-0.4,0
		s-1.8,0-1.9,0c0,0-0.6,0-0.9,0c-0.1,0-0.1,0-0.1,0.1c0,0,0,0,0.1,0s0.2,0,0.3,0c0.3,0.1,0.3,0.2,0.3,0.4c0,0.2,0,0.5,0,1.7v1.5
		H49.3z"/>
	<path d="M59.8,36.4c-0.1-0.3-0.1-0.4-0.2-0.4c0,0-0.1,0-0.2,0.4l-1.7,4.4l0,0c-0.1-0.4-1-3.3-1.1-3.8c-0.1-0.3-0.2-0.6-0.2-0.7
		s0.1-0.2,0.1-0.2c0.1,0,0.3,0,0.3,0s0.1,0,0.1-0.1c0,0,0-0.1-0.1-0.1c-0.4,0-0.8,0-0.8,0c-0.1,0-0.5,0-1,0c-0.1,0-0.1,0-0.1,0.1
		c0,0,0,0.1,0.1,0.1s0.3,0,0.4,0c0.2,0.1,0.3,0.2,0.4,0.6l1.4,4.6c0.2,0.5,0.2,0.6,0.3,0.6s0.1-0.1,0.3-0.4c0.3-0.7,1.4-3.6,1.7-4.3
		l0,0l1.6,4.3c0.1,0.3,0.2,0.4,0.2,0.4c0.1,0,0.1-0.1,0.3-0.7c0.3-0.9,1.1-3.3,1.5-4.3c0.2-0.4,0.3-0.8,0.5-0.8c0.1,0,0.2,0,0.3,0
		c0,0,0.1,0,0.1-0.1c0,0,0,0-0.1,0c-0.3,0-0.6,0-0.7,0c-0.1,0-0.4,0-0.8,0c-0.1,0-0.1,0-0.1,0.1c0,0,0,0.1,0.1,0.1
		c0.4,0,0.5,0.1,0.5,0.2s0,0.2-0.1,0.5c-0.3,1-1,3.2-1.3,4l0,0L59.8,36.4z"/>
	<path d="M74.5,38.2c0-1.2,0-1.4,0-1.7c0-0.3,0.1-0.4,0.3-0.4c0.1,0,0.1,0,0.2,0h0.1c0,0,0-0.1-0.1-0.1c-0.2,0-0.8,0-0.8,0
		s-0.6,0-0.9,0c-0.1,0-0.1,0-0.1,0.1c0,0,0,0,0.1,0s0.2,0,0.3,0c0.3,0.1,0.3,0.2,0.4,0.4c0,0.2,0,0.5,0,1.7v0.2l0,0h-3.4l0,0v-0.2
		c0-1.2,0-1.4,0-1.7c0-0.3,0.1-0.4,0.3-0.4c0.1,0,0.1,0,0.2,0h0.1c0,0,0-0.1-0.1-0.1c-0.2,0-0.8,0-0.8,0s-0.6,0-0.9,0
		c-0.1,0-0.1,0-0.1,0.1c0,0,0,0,0.1,0s0.2,0,0.3,0c0.3,0.1,0.3,0.2,0.3,0.4c0,0.2,0,0.5,0,1.7v1.4c0,0.7,0,1.4,0,1.7
		c0,0.2-0.1,0.4-0.2,0.4c-0.1,0-0.2,0-0.2,0h-0.1c0,0,0,0.1,0.1,0.1c0.2,0,0.8,0,0.8,0s0.6,0,1,0c0.1,0,0.1,0,0.1-0.1c0,0,0,0-0.1,0
		s-0.3,0-0.4,0c-0.2,0-0.3-0.2-0.3-0.4c0-0.3,0-0.9,0-1.7v-0.8l0,0h3.4l0,0v0.8c0,0.7,0,1.4,0,1.7c0,0.2-0.1,0.4-0.2,0.4
		c-0.1,0-0.2,0-0.2,0h-0.1c0,0,0,0.1,0.1,0.1c0.2,0,0.8,0,0.8,0s0.6,0,1,0c0.1,0,0.1,0,0.1-0.1c0,0,0,0-0.1,0s-0.3,0-0.4,0
		c-0.2,0-0.3-0.2-0.3-0.4c0-0.3,0-0.9,0-1.7v-1.4H74.5z"/>
	<path d="M78.6,38.9c0,1.4,0.9,3,3.2,3c2,0,3.2-1.4,3.2-3.2c0-1.8-1.4-2.9-3.2-2.9C79.5,35.9,78.6,37.7,78.6,38.9 M79.3,38.7
		c0-1.7,1-2.6,2.4-2.6c1.3,0,2.5,1,2.5,2.9c0,2.3-1.5,2.7-2.2,2.7C80.5,41.7,79.3,40.5,79.3,38.7"/>
	<path d="M94.2,36.1c0-0.1,0-0.2-0.1-0.2S94,36,94,36l-2.4,4.9L89.1,36c0-0.1-0.1-0.1-0.1-0.1L88.9,36l-0.6,5.1
		c0,0.3-0.1,0.6-0.3,0.6c-0.1,0-0.2,0-0.2,0h-0.1c0,0.1,0.1,0.1,0.1,0.1c0.2,0,0.6,0,0.7,0c0.1,0,0.5,0,0.8,0c0.1,0,0.1,0,0.1-0.1
		c0,0,0,0-0.1,0c0,0-0.2,0-0.3,0s-0.2-0.1-0.2-0.2s0-0.3,0-0.4l0.3-3.6l0,0c0.1,0.2,1,2.1,1.1,2.2c0,0.1,0.7,1.4,1,1.8
		c0.2,0.3,0.2,0.4,0.2,0.4c0.1,0,0.1-0.1,0.3-0.4l2-4l0,0l0.4,4c0,0.1,0,0.3,0,0.3s-0.1,0-0.1,0.1c0,0,0,0.1,0.2,0.1
		c0.3,0,1.2,0,1.4,0c0.1,0,0.2,0,0.2-0.1c0,0,0,0-0.1,0s-0.3,0-0.5-0.1c-0.4-0.1-0.4-0.5-0.4-0.8L94.2,36.1z"/>
	<path d="M99.4,39.6c0,0.7,0,1.4,0,1.7c0,0.2-0.1,0.4-0.2,0.4c-0.1,0-0.2,0-0.2,0h-0.1c0,0,0,0.1,0.1,0.1c0.2,0,0.8,0,0.8,0
		c0.2,0,0.8,0,2,0c0.3,0,0.4,0,0.4-0.2s0.1-0.7,0.1-0.8c0-0.1,0-0.1,0-0.1s-0.1,0-0.1,0.1c-0.1,0.3-0.2,0.5-0.4,0.6
		s-0.6,0.1-0.8,0.1c-0.8,0-0.9-0.1-0.9-0.6c0-0.2,0-1.1,0-1.3v-0.7c0,0,0-0.1,0.1-0.1s0.9,0,1.2,0s0.4,0.2,0.4,0.3
		c0,0.1,0,0.2,0,0.3c0,0,0,0.1,0.1,0.1s0.1-0.1,0.1-0.1c0-0.1,0-0.3,0-0.5c0-0.3,0.1-0.4,0.1-0.4v-0.1c0,0-0.1,0-0.1,0.1
		c-0.1,0.1-0.2,0.1-0.4,0.1s-1.2,0-1.3,0c0,0,0,0,0-0.1v-2.1c0-0.1,0-0.1,0-0.1c0.1,0,1,0,1.1,0c0.4,0,0.5,0.1,0.6,0.3
		c0,0.1,0,0.2,0,0.3c0,0.1,0,0.1,0.1,0.1c0,0,0,0,0.1-0.1c0-0.1,0-0.4,0-0.5c0-0.2,0.1-0.3,0.1-0.4v-0.1h-0.1c-0.1,0-0.2,0-0.4,0
		s-1.8,0-1.9,0c0,0-0.6,0-0.9,0c-0.1,0-0.1,0-0.1,0.1c0,0,0,0,0.1,0s0.2,0,0.3,0c0.3,0.1,0.3,0.2,0.4,0.4c0,0.2,0,0.5,0,1.7v1.5
		H99.4z"/>
	<path d="M106.9,42c0.4,0,0.9-0.1,1.2-0.3c0.6-0.4,0.7-1,0.7-1.3c0-0.6-0.2-1.1-1.2-1.8l-0.2-0.2c-0.8-0.6-1-0.9-1-1.3
		c0-0.6,0.4-0.9,1-0.9c0.7,0,1,0.3,1,0.4s0.1,0.3,0.1,0.4s0,0.1,0.1,0.1c0,0,0.1-0.1,0.1-0.2c0-0.5,0-0.8,0-0.8s0-0.1-0.1-0.1
		s-0.1,0-0.3,0s-0.4-0.1-0.8-0.1c-1,0-1.7,0.6-1.7,1.4c0,0.5,0.2,1,1.1,1.7l0.4,0.3c0.7,0.5,0.9,0.9,0.9,1.4s-0.4,1-1.2,1
		c-0.5,0-1.1-0.2-1.2-0.8c0-0.1,0-0.2,0-0.3c0-0.1,0-0.1-0.1-0.1c0,0-0.1,0-0.1,0.1s0,0.4,0,0.8c0,0.2,0,0.2,0.1,0.3
		C106.2,41.9,106.5,42,106.9,42"/>
	<path class="st0" d="M143,38.9h-30.4v-1.2H143V38.9z M34.3,38.9H3.9v-1.2h30.4V38.9z"/>
	<rect x="0.2" y="0.2" class="st1" width="145.2" height="32.2"/>
</g>
<g>
	<path class="st0" d="M145.6,32.6H0V0h145.6V32.6z M0.4,32.2h144.8V0.4H0.4V32.2z"/>
</g>
<g>
	<rect x="3.7" y="3.8" class="st2" width="138.2" height="25"/>
	<path class="st0" d="M11.7,16.7c0,1.4,0,2.5-0.1,3.1c-0.1,0.4-0.1,0.7-0.4,0.8c-0.1,0-0.3,0.1-0.4,0.1s-0.1,0-0.1,0.1
		s0.1,0.1,0.2,0.1c0.4,0,1.4,0,1.4,0c0.1,0,1,0,1.8,0c0.2,0,0.2,0,0.2-0.1c0,0,0-0.1-0.1-0.1s-0.5,0-0.7-0.1
		c-0.4-0.1-0.5-0.4-0.6-0.8c-0.1-0.6-0.1-1.7-0.1-3.1v-5.9c0-0.1,0-0.2,0.1-0.3s0.4-0.1,0.6-0.1c0.3,0,1.3-0.1,2,0.7
		c0.8,0.8,0.8,1.7,0.8,2.2c0,1.3-1.1,2.3-2.6,2.3c-0.3,0-0.4,0-0.4,0.1s0.1,0.1,0.2,0.1s0.2,0,0.3,0c2.1,0,3.7-1.4,3.7-3.4
		c0-0.8-0.4-1.4-0.7-1.7c-0.2-0.2-0.9-0.8-2.8-0.8c-0.7,0-1.6,0-1.9,0c-0.1,0-1,0-1.7,0c-0.2,0-0.2,0-0.2,0.1s0.1,0.1,0.1,0.1
		c0.1,0,0.4,0,0.5,0c0.5,0.1,0.6,0.3,0.6,0.8s0,0.9,0,3.1v2.7H11.7z"/>
	<path class="st0" d="M19.5,19.3c-0.3,0.7-0.6,1.3-1.3,1.3c-0.1,0-0.3,0-0.4,0s-0.1,0-0.1,0.1s0.1,0.1,0.3,0.1c0.7,0,1.5,0,1.7,0
		s0.8,0,1.2,0c0.1,0,0.2,0,0.2-0.1s0-0.1-0.2-0.1h-0.2c-0.3,0-0.6-0.1-0.6-0.4c0-0.3,0.1-0.6,0.2-1l0.9-2.5c0-0.1,0.1-0.1,0.1-0.1
		h3.2c0.1,0,0.1,0,0.1,0.1l1.4,3.5c0.1,0.2,0,0.4-0.1,0.4s-0.1,0-0.1,0.1s0.2,0.1,0.5,0.1c1,0,2.1,0,2.3,0c0.2,0,0.3,0,0.3-0.1
		s-0.1-0.1-0.2-0.1s-0.4,0-0.6-0.1c-0.3-0.1-0.7-0.3-1.3-1.6c-0.9-2.2-3.3-8-3.5-8.6c-0.2-0.4-0.2-0.5-0.3-0.5
		c-0.1,0-0.1,0.1-0.3,0.6L19.5,19.3z M21.6,16.1C21.6,16.1,21.5,16.1,21.6,16.1l1.3-3.9c0.1-0.2,0.2-0.2,0.2,0l1.4,3.8
		c0,0.1,0,0.1-0.1,0.1C24.4,16.1,21.6,16.1,21.6,16.1z"/>
	<path class="st0" d="M30.9,16.3c0,2.1,0.6,3.1,1.3,3.7c1.1,1,2.6,1,3.1,1c0.9,0,2-0.1,3.1-1.1c1.2-1,1.4-2.7,1.4-4.3v-1.4
		c0-2.2,0-2.6,0-3.1s0.2-0.7,0.6-0.8c0.2,0,0.3,0,0.4,0c0.1,0,0.1,0,0.1-0.1s-0.1-0.1-0.2-0.1c-0.4,0-1.1,0-1.3,0
		c-0.1,0-0.9,0-1.6,0c-0.2,0-0.2,0-0.2,0.1s0.1,0.1,0.1,0.1c0.1,0,0.4,0,0.5,0c0.5,0.1,0.6,0.3,0.6,0.8s0,0.9,0,3.1V16
		c0,1.5-0.2,2.7-0.9,3.5c-0.5,0.6-1.4,1-2.3,1s-1.5-0.1-2.3-0.8c-0.6-0.6-1.1-1.5-1.1-3.5v-2c0-2.2,0-2.6,0-3.1s0.2-0.8,0.6-0.8
		c0.2,0,0.3,0,0.4,0s0.1,0,0.1-0.1s-0.1-0.1-0.2-0.1c-0.4,0-1.3,0-1.5,0c-0.1,0-1,0-1.7,0c-0.2,0-0.2,0-0.2,0.1s0.1,0.1,0.1,0.1
		c0.1,0,0.4,0,0.5,0c0.5,0.1,0.6,0.3,0.6,0.8s0,0.9,0,3.1L30.9,16.3L30.9,16.3z"/>
	<path class="st0" d="M45.9,14.2c0-2.2,0-2.6,0-3.1s0.2-0.7,0.6-0.8c0.2,0,0.4,0,0.5,0s0.1,0,0.1-0.1s-0.1-0.1-0.2-0.1
		c-0.4,0-1.5,0-1.6,0s-1,0-1.7,0c-0.2,0-0.2,0-0.2,0.1s0.1,0.1,0.1,0.1c0.1,0,0.4,0,0.5,0c0.5,0.1,0.6,0.3,0.6,0.8s0,0.9,0,3.1v2.5
		c0,1.4,0,2.5-0.1,3.1c-0.1,0.4-0.1,0.7-0.4,0.8c-0.1,0-0.3,0.1-0.4,0.1c-0.1,0-0.1,0-0.1,0.1s0.1,0.1,0.2,0.1c0.4,0,1.3,0,1.5,0
		c0.9,0,1.9,0.1,4,0.1c0.8,0,0.8-0.1,0.9-0.4c0.1-0.4,0.2-1.3,0.2-1.4c0-0.2,0-0.2-0.1-0.2s-0.1,0.1-0.1,0.2c0,0.3-0.2,0.6-0.4,0.9
		c-0.4,0.4-1,0.4-1.8,0.4c-1.2,0-1.6-0.1-1.8-0.3c-0.3-0.3-0.3-1.2-0.3-3.3V14.2z"/>
	<path class="st0" d="M58.5,12.1c0.5,0.5,2.2,2.3,3.9,4.1c1.6,1.6,3.7,3.7,3.9,3.9c0.8,0.8,1,0.9,1.1,0.9s0.1-0.1,0.1-1v-8.3
		c0-0.9,0.1-1.2,0.6-1.3c0.2,0,0.3,0,0.4,0c0.1,0,0.2,0,0.2-0.1s-0.1-0.1-0.3-0.1c-0.6,0-1.1,0-1.3,0s-0.9,0-1.6,0
		c-0.2,0-0.3,0-0.3,0.1s0,0.1,0.1,0.1s0.5,0,0.7,0.1c0.5,0.1,0.6,0.4,0.6,1.4l0.2,7.2c-0.5-0.5-2.1-2.2-3.6-3.7
		c-2.3-2.3-4.5-4.6-4.7-4.9C58.3,10.4,58.1,10,58,10s-0.2,0.2-0.2,0.7v8.2c0,1.3-0.1,1.7-0.5,1.8c-0.2,0.1-0.5,0.1-0.6,0.1
		s-0.1,0-0.1,0.1s0.1,0.1,0.2,0.1c0.7,0,1.3,0,1.4,0c0.1,0,0.7,0,1.6,0c0.2,0,0.3,0,0.3-0.1s0-0.1-0.1-0.1s-0.5,0-0.7-0.1
		c-0.4-0.1-0.6-0.5-0.6-1.7L58.5,12.1z"/>
	<path class="st0" d="M72.7,16.7c0,1.4,0,2.5-0.1,3.1c-0.1,0.4-0.1,0.7-0.4,0.8c-0.1,0-0.3,0.1-0.4,0.1c-0.1,0-0.1,0-0.1,0.1
		s0.1,0.1,0.2,0.1c0.4,0,1.4,0,1.5,0c0.4,0,1.4,0.1,3.7,0.1c0.6,0,0.7,0,0.8-0.4c0.1-0.3,0.2-1.3,0.2-1.4c0-0.1,0-0.2-0.1-0.2
		s-0.1,0.1-0.1,0.2c-0.1,0.6-0.3,0.9-0.7,1c-0.4,0.2-1,0.2-1.4,0.2c-1.5,0-1.7-0.2-1.7-1.2c0-0.3,0-2,0-2.4v-1.3
		c0-0.1,0-0.1,0.1-0.1c0.3,0,1.7,0,2.1,0.1c0.6,0.1,0.7,0.3,0.8,0.5s0.1,0.3,0.1,0.5c0,0.1,0,0.1,0.1,0.1s0.1-0.2,0.1-0.3
		s0-0.6,0.1-0.9c0-0.5,0.1-0.7,0.1-0.8s0-0.1-0.1-0.1s-0.1,0.1-0.2,0.2c-0.1,0.1-0.3,0.2-0.7,0.2c-0.3,0-2.2,0-2.4,0
		c-0.1,0-0.1,0-0.1-0.1v-3.9c0-0.1,0-0.1,0.1-0.1c0.2,0,1.8,0,2,0c0.8,0.1,1,0.3,1.1,0.5s0.1,0.4,0.1,0.5s0,0.2,0.1,0.2
		s0.1-0.1,0.1-0.2c0-0.2,0.1-0.8,0.1-0.9c0-0.4,0.1-0.6,0.1-0.7c0-0.1,0-0.1-0.1-0.1s-0.1,0.1-0.2,0.1c-0.1,0-0.4,0.1-0.6,0.1
		c-0.3,0-3.3,0-3.4,0c-0.1,0-1,0-1.7,0c-0.2,0-0.2,0-0.2,0.1s0.1,0.1,0.1,0.1c0.1,0,0.4,0,0.5,0c0.5,0.1,0.6,0.3,0.6,0.8
		s0,0.9,0,3.1v2.3H72.7z"/>
	<path class="st0" d="M88.9,10.8c-0.2-0.5-0.3-0.7-0.4-0.7c-0.1,0-0.2,0.1-0.4,0.7l-3.2,8.1l0,0c-0.2-0.8-1.8-6-2-6.9
		c-0.1-0.6-0.3-1.1-0.3-1.3s0.1-0.3,0.2-0.3c0.2-0.1,0.5-0.1,0.6-0.1s0.2,0,0.2-0.1s-0.1-0.1-0.3-0.1c-0.7,0-1.4,0-1.5,0
		c-0.2,0-1,0-1.8,0c-0.2,0-0.2,0-0.2,0.1s0.1,0.1,0.1,0.1c0.1,0,0.5,0,0.7,0.1c0.4,0.1,0.6,0.4,0.8,1.1l2.7,8.4
		c0.3,1,0.4,1.1,0.5,1.1c0.2,0,0.3-0.2,0.5-0.8c0.5-1.3,2.6-6.5,3.1-7.9l0,0l2.9,7.9c0.2,0.6,0.3,0.7,0.4,0.7c0.2,0,0.2-0.2,0.6-1.2
		c0.6-1.6,2.1-6.1,2.7-7.9c0.3-0.8,0.5-1.4,1-1.5c0.2-0.1,0.4-0.1,0.5-0.1s0.1,0,0.1-0.1S96.3,10,96.2,10c-0.5,0-1.1,0-1.2,0
		c-0.1,0-0.8,0-1.5,0c-0.2,0-0.3,0-0.3,0.1s0.1,0.1,0.1,0.1c0.7,0,0.9,0.2,0.9,0.4s0,0.4-0.2,0.9c-0.5,1.8-1.9,6-2.3,7.3h-0.1
		L88.9,10.8z"/>
	<path class="st0" d="M108.6,10.2c0-0.3-0.1-0.4-0.2-0.4c-0.1,0-0.2,0.1-0.2,0.2l-4.4,8.9l-4.6-9c-0.1-0.2-0.1-0.2-0.2-0.2
		c-0.1,0-0.1,0.1-0.2,0.3l-1.1,9.3c-0.1,0.5-0.1,1.1-0.6,1.2c-0.2,0-0.3,0-0.4,0c-0.1,0-0.2,0-0.2,0.1s0.1,0.1,0.3,0.1
		c0.4,0,1.1,0,1.3,0c0.1,0,0.8,0,1.4,0c0.2,0,0.3,0,0.3-0.1l-0.1-0.1c-0.1,0-0.3,0-0.6-0.1c-0.2,0-0.4-0.2-0.4-0.4s0-0.5,0-0.7
		l0.6-6.6h0.1c0.2,0.4,1.8,3.8,2,4.1c0.1,0.1,1.4,2.6,1.7,3.3c0.3,0.5,0.4,0.7,0.5,0.7s0.2-0.1,0.5-0.8l3.7-7.4l0,0l0.7,7.3
		c0,0.3,0,0.5-0.1,0.5s-0.1,0-0.1,0.1s0.1,0.1,0.4,0.1c0.6,0,2.2,0.1,2.5,0.1c0.2,0,0.3,0,0.3-0.1s0-0.1-0.1-0.1s-0.5,0-1-0.1
		c-0.6-0.2-0.7-1-0.8-1.5L108.6,10.2z"/>
	<path class="st0" d="M113.5,19.3c-0.3,0.7-0.6,1.3-1.3,1.3c-0.1,0-0.3,0-0.4,0c-0.1,0-0.1,0-0.1,0.1s0.1,0.1,0.3,0.1
		c0.7,0,1.5,0,1.7,0s0.8,0,1.2,0c0.1,0,0.2,0,0.2-0.1s0-0.1-0.1-0.1h-0.2c-0.3,0-0.6-0.1-0.6-0.4c0-0.3,0.1-0.6,0.2-1l0.9-2.5
		c0-0.1,0.1-0.1,0.2-0.1h3.2c0.1,0,0.1,0,0.1,0.1l1.4,3.5c0.1,0.2,0,0.4-0.1,0.4s-0.1,0-0.1,0.1s0.2,0.1,0.4,0.1c1,0,2.1,0,2.3,0
		s0.3,0,0.3-0.1s-0.1-0.1-0.1-0.1c-0.2,0-0.4,0-0.6-0.1c-0.3-0.1-0.7-0.3-1.3-1.6c-0.9-2.2-3.3-8-3.5-8.6c-0.2-0.4-0.2-0.5-0.3-0.5
		s-0.1,0.1-0.3,0.6L113.5,19.3z M115.6,16.1C115.6,16.1,115.5,16.1,115.6,16.1l1.3-3.9c0.1-0.2,0.1-0.2,0.2,0l1.4,3.8
		c0,0.1,0,0.1-0.1,0.1C118.4,16.1,115.6,16.1,115.6,16.1z"/>
	<path class="st0" d="M125.3,12.1c0.5,0.5,2.2,2.3,3.9,4.1c1.6,1.6,3.7,3.7,3.9,3.9c0.8,0.8,1,0.9,1.1,0.9s0.1-0.1,0.1-1v-8.3
		c0-0.9,0.1-1.2,0.6-1.3c0.2,0,0.3,0,0.4,0c0.1,0,0.2,0,0.2-0.1s-0.1-0.1-0.3-0.1c-0.6,0-1.1,0-1.3,0s-0.9,0-1.6,0
		c-0.2,0-0.3,0-0.3,0.1s0,0.1,0.1,0.1s0.5,0,0.7,0.1c0.5,0.1,0.6,0.4,0.6,1.4l0.2,7.2c-0.5-0.5-2.1-2.2-3.6-3.7
		c-2.3-2.3-4.5-4.6-4.7-4.9c-0.1-0.1-0.4-0.5-0.5-0.5s-0.2,0.2-0.2,0.7v8.2c0,1.3-0.1,1.7-0.4,1.8c-0.2,0.1-0.5,0.1-0.6,0.1
		s-0.1,0-0.1,0.1s0.1,0.1,0.2,0.1c0.7,0,1.3,0,1.4,0c0.1,0,0.7,0,1.6,0c0.2,0,0.3,0,0.3-0.1s0-0.1-0.1-0.1s-0.5,0-0.7-0.1
		c-0.4-0.1-0.6-0.5-0.6-1.7L125.3,12.1z"/>
	<path class="st0" d="M30.9,49c-2.7,3.1-5.1,6.5-5.1,8.9c0,0.5,0.2,0.6,0.4,0.6c0.5,0,1.4-0.6,2.3-1.5c0.6-0.6,1.3-1.5,1.6-1.9
		l0.1,0.1c-0.4,0.5-0.9,1.2-1.7,2c-0.9,0.9-1.8,1.6-2.7,1.6c-0.9,0-1.1-0.6-1.1-1.3c0-1.1,0.4-2.1,0.9-3h-1.9
		c-1.5,1.7-3.6,4.2-6.1,4.2c-1.1,0-2.1-0.5-2.1-1.6c0-0.5,0.3-1,0.9-1c0.3,0,0.6,0.3,0.6,0.6c0,0.5-0.3,0.7-0.8,0.7
		c0,0.8,0.8,1.2,1.4,1.2c2.4,0,4.7-2.7,6.1-4.4C25.7,52.1,28,49.8,30.9,49L30.9,49z M25.7,54.4c1-1.8,2.3-3.4,3.8-4.7l0,0
		c-2.1,1.1-3.8,2.8-5.5,4.8h1.7V54.4z"/>
	<path class="st0" d="M38.3,49.5C34.4,55.4,33,57,33,58.2c0,0.3,0.2,0.7,0.6,0.7c1.5,0,2.9-2.8,2.9-3.7c0-0.2-0.1-0.2-0.1-0.6
		c0-0.3,0.2-0.7,0.6-0.7c0.6,0,0.8,0.6,0.8,1.1c0,0.2,0,0.4-0.1,0.6c0.2,0.2,0.6,0.4,1,0.4c0.6,0,1.1-0.3,1.4-0.8l0.1,0.1
		c-0.3,0.5-0.9,0.9-1.5,0.9c-0.4,0-0.8-0.2-1.1-0.4c-0.5,1.8-2.2,3.2-4.1,3.2c-1,0-1.5-0.6-1.5-1.4c0-0.9,0.7-1.9,4.8-8L38.3,49.5z"
		/>
	<path class="st0" d="M45.7,55.3c-0.5,0.7-1.2,1.5-2,2.3c-1.2,1.1-2.4,1.5-3.4,1.5s-1.6-0.7-1.6-1.6c0-1.7,2.3-3.5,4-3.5
		c0.8,0,1.2,0.3,1.2,0.8c0,1.3-2.9,1.9-3.8,2.1c0,0.2-0.1,0.3-0.1,0.5c0,0.8,0.5,1.3,1.2,1.3s1.7-0.5,2.6-1.3
		C44.5,56.5,45.1,55.8,45.7,55.3L45.7,55.3z M42.4,54c-0.9,0-2.2,1.7-2.4,2.6c1.5-0.3,2.8-1.4,2.8-2.3C42.8,54.1,42.7,54,42.4,54"/>
	<path class="st0" d="M46.3,58.7c1.8-0.4,3-2,4.2-3.5l0.1,0.1c-1.4,1.9-2.8,3.6-5.4,3.6c-0.9,0-1.9-0.3-1.9-1.4c0-0.6,0.3-1.2,1-1.2
		c0.4,0,0.6,0.3,0.6,0.6c0,0.4-0.3,0.6-0.5,0.6c-0.1,0-0.2,0-0.3-0.1c-0.1,0.2-0.2,0.3-0.2,0.5c0,0.5,0.4,0.9,1,0.9
		c0.7,0,1.4-0.5,1.4-1.1c0-0.5-0.3-0.8-0.5-1.2c-0.3-0.4-0.5-0.7-0.5-1.1c0-1,1-1.5,2-1.5c0.9,0,1.5,0.4,1.5,1.1
		c0,0.5-0.4,0.9-0.9,0.9c-0.2,0-0.3,0-0.4-0.1c0.2-0.3,0.3-0.7,0.3-1c0-0.4-0.2-0.7-0.6-0.7c-0.5,0-0.8,0.3-0.8,0.8s0.3,0.9,0.5,1.2
		c0.3,0.3,0.5,0.7,0.5,1.3C47.3,58,46.8,58.6,46.3,58.7L46.3,58.7z"/>
	<path class="st0" d="M53.9,51.4l-3.1,4.7l0,0c0.7-0.9,1.7-2.3,3-2.3c0.6,0,1.1,0.5,1.1,1.1c0,0.9-0.4,1.7-1,2.3l0,0
		c1.2-0.2,2.4-1.2,3.1-2.1l0.1,0.1c-0.7,0.9-1.8,2-3.4,2.2c-0.7,0.6-1.8,1.5-2.8,1.5c-0.4,0-0.7-0.1-0.7-0.5c0-0.7,1.7-0.9,2.4-1
		c0.3-0.4,0.9-1.4,0.9-2.4c0-0.4-0.1-0.8-0.6-0.8c-1.6,0-5.1,6.9-6.3,8.7L45.2,63c2.4-3.8,4.8-7.8,7.1-11.6L53.9,51.4z M51.1,58.7
		c0.5,0,1.1-0.7,1.5-1.1c-0.5,0.1-1.8,0.2-1.8,0.8C50.7,58.6,50.8,58.7,51.1,58.7"/>
	<path class="st0" d="M63.5,55.3c-0.4,0.5-0.9,0.9-1.4,0.9c-0.4,0-0.7-0.2-1-0.5C60.7,57.5,59,59,57.2,59c-1,0-1.6-0.6-1.6-1.6
		c0-1.9,2.2-3.6,3.9-3.6c0.9,0,1.5,0.6,1.6,1.3c0.1,0.5,0.4,0.9,0.9,0.9s0.9-0.3,1.4-0.9L63.5,55.3z M60,54.7c0-0.4-0.2-0.7-0.6-0.7
		c-1.3,0-2.7,3-2.7,4.1c0,0.4,0.2,0.7,0.6,0.7C58.6,58.8,60,55.8,60,54.7"/>
	<path class="st0" d="M66.5,49.5l1.5-0.1c-1.5,2.4-3,4.8-4.5,7.1l0,0c0.8-0.9,2.2-2.7,3.6-2.7c0.5,0,0.9,0.3,0.9,0.8
		c0,0.9-0.9,1.2-2.3,1.6l0,0c0.3,0.1,0.6,0.4,0.6,0.7c0,0.5-0.3,1-0.3,1.4c0,0.1,0.1,0.2,0.2,0.2c0.9,0,2.7-2.1,3.7-3.4l0.1,0.1
		c-1.1,1.4-2.8,3.6-4.4,3.6c-0.6,0-0.8-0.3-0.8-0.8c0-0.4,0.3-1,0.7-1.9c-0.3,0.1-0.7,0.2-0.9,0.2s-0.2-0.1-0.2-0.2s0.1-0.2,0.5-0.2
		c0.2,0,0.6,0.1,0.8,0.1c0.3,0,1.2-0.4,1.2-1.3c0-0.3-0.2-0.5-0.4-0.5c-1.1,0-3.5,3.3-4.1,4.4h-1.3L66.5,49.5z"/>
	<path class="st0" d="M75.4,55.3c-0.5,0.7-1.1,1.5-2,2.3c-1.2,1.1-2.4,1.5-3.4,1.5s-1.6-0.7-1.6-1.6c0-1.7,2.3-3.5,4-3.5
		c0.8,0,1.2,0.3,1.2,0.8c0,1.3-2.9,1.9-3.8,2.1c0,0.2-0.1,0.3-0.1,0.5c0,0.8,0.5,1.3,1.2,1.3s1.7-0.5,2.6-1.3
		C74.1,56.5,74.8,55.8,75.4,55.3L75.4,55.3z M72.1,54c-0.9,0-2.2,1.7-2.4,2.6c1.5-0.3,2.8-1.4,2.8-2.3C72.5,54.1,72.3,54,72.1,54"/>
	<path class="st0" d="M85.5,49.5l1.5-0.1c-1.8,2.9-5.4,7.9-5.4,9c0,0.2,0.1,0.3,0.3,0.3c0.4,0,1.1-0.4,1.9-1.2
		c0.7-0.7,1.2-1.4,1.9-2.3l0.1,0.1c-0.4,0.5-1.1,1.5-1.8,2.2c-0.9,0.9-1.6,1.5-2.5,1.5c-0.8,0-1-0.6-0.9-1.1l0,0c-0.5,0.6-1.2,1-2,1
		c-0.9,0-1.2-0.7-1.2-1.4c0-1.8,2-3.7,3.8-3.7c0.6,0,1,0.3,1.2,0.9L85.5,49.5z M81.9,54.7c0-0.5-0.3-0.7-0.7-0.7
		c-1.1,0-2.5,2.3-2.5,3.6c0,0.4,0.2,0.8,0.7,0.8C80.5,58.4,81.9,55.9,81.9,54.7"/>
	<path class="st0" d="M91.3,55.3c-0.5,0.7-1.2,1.5-2,2.3c-1.2,1.1-2.4,1.5-3.4,1.5s-1.6-0.7-1.6-1.6c0-1.7,2.3-3.5,4-3.5
		c0.8,0,1.2,0.3,1.2,0.8c0,1.3-2.9,1.9-3.8,2.1c0,0.2-0.1,0.3-0.1,0.5c0,0.8,0.5,1.3,1.2,1.3s1.7-0.5,2.6-1.3
		C90.1,56.5,90.7,55.8,91.3,55.3L91.3,55.3z M88.1,54c-0.9,0-2.2,1.7-2.4,2.6c1.5-0.3,2.8-1.4,2.8-2.3C88.4,54.1,88.3,54,88.1,54"/>
	<path class="st0" d="M93,54c-0.6,0.9-2.3,3-2.3,4.1c0,0.4,0.2,0.6,0.6,0.6c1.3,0,2.8-2.3,2.8-3.8C94,54.8,94,54.6,94,54.4
		c0-0.3,0.2-0.6,0.6-0.6c0.4,0,0.7,0.4,0.7,1.2c0,0.2,0,0.5-0.1,0.6c0.4,0.3,0.7,0.4,1.1,0.4c0.6,0,1-0.4,1.3-0.8l0.1,0.1
		c-0.3,0.5-0.9,0.9-1.5,0.9c-0.4,0-0.7-0.1-1.1-0.4c-0.4,1.7-2.1,3.1-4,3.1c-0.9,0-1.5-0.3-1.5-1.3c0-0.9,0.6-1.7,1.8-3.5L93,54z"/>
	<path class="st0" d="M103.2,55.3c-0.5,0.7-1.1,1.5-2,2.3c-1.2,1.1-2.4,1.5-3.4,1.5s-1.6-0.7-1.6-1.6c0-1.7,2.3-3.5,4-3.5
		c0.8,0,1.2,0.3,1.2,0.8c0,1.3-2.9,1.9-3.8,2.1c0,0.2-0.1,0.3-0.1,0.5c0,0.8,0.5,1.3,1.2,1.3s1.7-0.5,2.6-1.3
		C101.9,56.5,102.6,55.8,103.2,55.3L103.2,55.3z M99.9,54c-0.9,0-2.2,1.7-2.4,2.6c1.5-0.3,2.8-1.4,2.8-2.3
		C100.3,54.1,100.1,54,99.9,54"/>
	<path class="st0" d="M107.7,49.4l-4.1,6.6c-0.7,1.1-1.1,1.8-1.1,2.3c0,0.2,0.1,0.4,0.3,0.4c0.4,0,1.1-0.4,1.8-1.2
		c0.7-0.7,1.3-1.5,2-2.3h0.1c-0.4,0.6-1.1,1.5-1.7,2.1c-1,1.1-1.8,1.6-2.6,1.6c-0.6,0-0.9-0.3-0.9-0.8s0.4-1.2,1.1-2.5l3.7-6.1
		L107.7,49.4z"/>
	<path class="st0" d="M113,55.3c-0.4,0.5-0.9,0.9-1.4,0.9c-0.4,0-0.7-0.2-0.9-0.5c-0.4,1.8-2.1,3.3-3.9,3.3c-1,0-1.6-0.6-1.6-1.6
		c0-1.9,2.1-3.6,3.9-3.6c1,0,1.5,0.6,1.6,1.3c0.1,0.5,0.4,0.9,0.9,0.9s0.9-0.3,1.4-0.9V55.3z M109.6,54.7c0-0.4-0.2-0.7-0.6-0.7
		c-1.3,0-2.7,3-2.7,4.1c0,0.4,0.2,0.7,0.6,0.7C108.2,58.8,109.6,55.8,109.6,54.7"/>
	<path class="st0" d="M116.3,51.4l-3.1,4.7l0,0c0.7-0.9,1.7-2.3,3-2.3c0.6,0,1.1,0.5,1.1,1.1c0,0.9-0.4,1.7-1,2.3l0,0
		c1.2-0.2,2.4-1.2,3.1-2.1l0.1,0.1c-0.7,0.9-1.8,2-3.4,2.2c-0.7,0.6-1.8,1.5-2.8,1.5c-0.4,0-0.7-0.1-0.7-0.5c0-0.7,1.7-0.9,2.4-1
		c0.3-0.4,0.9-1.4,0.9-2.4c0-0.4-0.1-0.8-0.5-0.8c-1.6,0-5.1,6.9-6.3,8.7l-1.4,0.1c2.4-3.8,4.8-7.8,7.1-11.6L116.3,51.4z
		 M113.5,58.7c0.5,0,1.1-0.7,1.5-1.1c-0.5,0.1-1.8,0.2-1.8,0.8C113.2,58.6,113.3,58.7,113.5,58.7"/>
	<path class="st0" d="M124.9,55.3c-0.5,0.7-1.1,1.5-2,2.3c-1.2,1.1-2.4,1.5-3.4,1.5s-1.6-0.7-1.6-1.6c0-1.7,2.3-3.5,4-3.5
		c0.8,0,1.2,0.3,1.2,0.8c0,1.3-2.9,1.9-3.8,2.1c0,0.2-0.1,0.3-0.1,0.5c0,0.8,0.5,1.3,1.2,1.3s1.7-0.5,2.6-1.3
		C123.7,56.5,124.4,55.8,124.9,55.3L124.9,55.3z M121.7,54c-0.9,0-2.2,1.7-2.4,2.6c1.5-0.3,2.8-1.4,2.8-2.3
		C122,54.1,121.9,54,121.7,54"/>
	<path class="st0" d="M122.3,58.8c0.9-1.6,1.9-3.1,2.8-4.7l1.5-0.1l-1.8,2.5l0,0c1.3-1.7,2.1-2,2.4-2.2c0.4-0.4,0.6-0.4,1.6-0.5
		c-0.3,0.5-0.7,1-0.7,1.6c0,0.4,0.2,0.6,0.6,0.6c0.5,0,1-0.5,1.3-0.8l0.1,0.1c-0.5,0.6-1.2,1.1-2,1.1c-0.7,0-1.2-0.4-1.2-1.1
		c0-0.2,0.1-0.5,0.2-0.7l0,0c-1.5,1-2.7,2.7-3.5,4.2H122.3z"/>
</g>
</svg>
