<?xml version="1.0" encoding="utf-8"?>
<!-- Generator: Adobe Illustrator 19.2.1, SVG Export Plug-In . SVG Version: 6.00 Build 0)  -->
<svg version="1.1" id="Layer_1" xmlns="http://www.w3.org/2000/svg" xmlns:xlink="http://www.w3.org/1999/xlink" x="0px" y="0px"
	 viewBox="0 0 403 120.6" style="enable-background:new 0 0 403 120.6;" xml:space="preserve">
<style type="text/css">
	.st0{clip-path:url(#SVGID_2_);fill:#00533D;}
	.st1{fill:#E23432;}
	.st2{fill:#FFFFFF;}
</style>
<g>
	<defs>
		<rect id="SVGID_1_" x="0" y="0" width="403" height="120.5"/>
	</defs>
	<clipPath id="SVGID_2_">
		<use xlink:href="#SVGID_1_"  style="overflow:visible;"/>
	</clipPath>
	<rect x="0" y="0" class="st0" width="403" height="120.5"/>
</g>
<rect x="13.6" y="81.2" class="st1" width="375.8" height="1.6"/>
<path class="st2" d="M155,43c9.5,1.4,16.9,5.7,16.9,15.3c0,6.5-3.5,11.5-9.1,14.5c-4.9,2.7-11.3,3.9-18.9,3.9h-21.3V74
	c8.3-0.6,8.9-1.2,8.9-9.1V26c0-8-0.4-8.6-8.1-9.1v-2.7h24.7c7.2,0,11.5,1.1,14.4,3.3c3.4,2.3,5.4,6.5,5.4,11c0,9.1-7.7,12.9-13,14.4
	V43 M144.2,41.9c10.5,0,14.9-4.2,14.9-12.3c0-6.5-3.7-12.3-12.8-12.3c-2.3,0-4.5,0.4-5.4,1c-1,0.6-1.2,1.6-1.2,4.8v18.9H144.2z
	 M139.7,64.7c0,6.9,1.7,8.8,8,8.8c7.8-0.1,14.8-4,14.8-14.1c0-9.8-6.7-14.1-18.5-14.1h-4.3V64.7z"/>
<path class="st2" d="M73.8,77.2c-1.2,0-5.9,0.1-6.9,0c-7.3-0.4-11.3-2.5-15.6-8.8c-3.4-4.7-6.8-10.7-9.7-15.4
	c-0.9-1.5-1.8-2.5-3.3-3.2c-1.2-0.5-2.7-0.7-4.8-0.7h-3.1v15.3c0,8.2,0.9,8.8,8.5,9.3v2.7H13.6v-2.7c7.9-0.6,8.7-1.2,8.7-9.3V25.8
	c0-8.2-0.8-8.5-8.3-9.1V14h23.9c7,0,11.7,0.9,15.3,3.3c4,2.5,6.5,6.8,6.5,12.6c0,8.3-5.2,13.4-12.2,16.6C49,49.5,53.1,56,56,60.3
	c3.5,5,5.4,7.5,7.8,10c2.5,2.9,6.7,4.7,10.2,5L73.8,77.2 M35,46.1c4.8,0,8-0.8,10.4-2.8c3.8-2.9,5.3-6.7,5.3-11.9
	c0-10.4-6.8-14.2-14.1-14.2c-2.8,0-4.4,0.4-5.2,1c-0.8,0.5-1.1,1.5-1.1,4.2v23.8H35z"/>
<path class="st2" d="M63.8,66.3c1-2.5,20.6-52.8,20.6-52.8l3-0.9c6,16.5,12.4,34.8,18.6,51.6c3,8.3,4.3,9.1,10.6,9.7v2.7H93V74
	c6.1-0.8,6.9-1.5,5.7-5.3c-1.3-3.8-3.2-9-5.3-14.8H72.8C71.3,58.2,68.5,66,67.3,70C67.3,70,64.6,67.7,63.8,66.3 M83.5,25.2h-0.2
	c-3.1,8.2-6.1,16.7-9,24.5H92L83.5,25.2z"/>
<path class="st2" d="M208.6,68.5c-6.1,7.5-12.7,9.2-15.7,9.2c-11.8,0-18.8-9.6-18.8-20.5c0-6.5,2.4-12.5,6.4-16.8
	c3.9-4.3,9.1-7,14.1-7h0.1c8,0,14.4,7.2,14.4,14.6c0,1.9-0.4,2.7-2.2,3.1c-1.5,0.3-13.7,1.3-25.2,1.6c0.1,13.1,7.7,18.5,14.4,18.5
	c3.9,0,7.5-1.5,11.1-4.8L208.6,68.5 M182.2,48.7c5.4,0,10.8-0.1,16.4-0.3c1.7,0,2.3-0.5,2.3-1.9c0.1-5-3.2-9.6-8.6-9.6
	C187.9,36.9,183.6,40.9,182.2,48.7z"/>
<path class="st2" d="M240.6,76.7v-2.5c5.7-0.6,6.4-1.3,6.4-8V50.1c0-6.6-2.3-11-8.8-11c-3.8,0-7.6,2.4-10.5,4.9v22.6
	c0,6.5,0.6,6.9,6.3,7.5v2.5h-20.9v-2.5c6.5-0.7,7-1.2,7-7.5V46.8c0-6.2-0.6-6.5-5.8-7.5v-2.2c4.6-0.9,9.1-2,13.4-3.8v7.6
	c1.9-1.4,4-2.9,6.4-4.5c2.7-1.7,5.2-2.9,8-2.9c7.7,0,12.4,5.4,12.4,14.6v18.6c0,6.5,0.6,6.9,6.2,7.5v2.5H240.6"/>
<path class="st2" d="M286,76.7v-2.5c5.7-0.6,6.4-1.3,6.4-8V50.1c0-6.6-2.3-11-8.8-11c-3.9,0-7.6,2.4-10.5,4.9v22.6
	c0,6.5,0.6,6.9,6.3,7.5v2.5h-20.9v-2.5c6.5-0.7,7-1.2,7-7.5V46.8c0-6.2-0.6-6.5-5.8-7.5v-2.2c4.6-0.9,9.1-2,13.4-3.8v7.6
	c1.9-1.4,4-2.9,6.5-4.5c2.7-1.7,5.2-2.9,8-2.9c7.7,0,12.4,5.4,12.4,14.6v18.6c0,6.5,0.6,6.9,6.2,7.5v2.5H286"/>
<path class="st2" d="M338.8,68.6c-6.1,7.5-12.7,9.2-15.7,9.2c-11.8,0-18.8-9.6-18.8-20.5c0-6.5,2.4-12.5,6.4-16.8
	c3.9-4.3,9.1-7,14.1-7h0.1c8,0,14.4,7.2,14.4,14.6c0,1.9-0.4,2.7-2.2,3.1c-1.5,0.3-13.7,1.3-25.2,1.6c0.1,13.1,7.7,18.5,14.4,18.5
	c3.9,0,7.5-1.5,11.1-4.8L338.8,68.6 M312.3,48.8c5.4,0,10.8-0.1,16.4-0.3c1.7,0,2.3-0.5,2.3-1.9c0.1-5-3.2-9.6-8.6-9.6
	C318.1,37,313.8,41.1,312.3,48.8z"/>
<path class="st2" d="M360.2,76.6c-1.6,0.9-3.1,1.2-4,1.2c-6.1,0-9.4-3.8-9.4-11.5V38.5h-6.6l-0.4-1.1l2.7-2.8h4.3v-6.9l6.3-6.5
	l1.3,0.2v13.2h10.9c1,1.1,0.7,3.1-0.6,3.8h-10.3v24.6c0,7.8,3.2,9.2,5.7,9.2c2.4,0,4.6-1,5.9-1.6l0.9,2.5L360.2,76.6"/>
<path class="st2" d="M382.8,76.6c-1.6,0.9-3.1,1.2-4,1.2c-6.1,0-9.4-3.8-9.4-11.5V38.5h-6.6l-0.4-1.1l2.7-2.8h4.3v-6.9l6.3-6.5
	l1.3,0.2v13.2h10.9c1,1.1,0.7,3.1-0.6,3.8H377v24.6c0,7.8,3.2,9.2,5.7,9.2c2.4,0,4.6-1,5.9-1.6l0.9,2.5L382.8,76.6"/>
<path class="st2" d="M284,95c-2.1,0.2-2.5,0.8-3.4,2.2c-0.8,1.1-1.5,2.4-2.6,3.9c1.2,1.2,3.9,4.2,4.8,5.9l-0.2,0.3
	c-1.6-0.1-3.2-0.8-3.6-1.2c-0.4-0.4-1.6-1.8-2.6-2.8c-2.1,2.8-4.1,3.9-6.2,3.9c-3.7,0-5.8-2.8-5.8-5.3c0-2.7,1.9-3.9,4.4-5.7
	c-1.3-1.2-2.1-2.5-2.1-4.1c0-2.7,2.2-4.7,4.8-4.7c2.4,0,4.4,1.7,4.4,4.1c0,1.2-0.6,2.1-1.2,2.6c-0.6,0.5-1.2,1-2.4,1.8
	c1,0.8,3.1,2.6,5,4.6c0.7-1.1,1.2-2.1,1.8-3.4c0.6-1.4,0.3-1.7-1.8-2v-0.8h6.8V95 M275.7,102.5c-1.6-1.7-3.5-3.5-6.1-5.7
	c-2,1.4-2.7,2.8-2.7,4.2c0,2.8,2.2,4.2,4.1,4.2C273,105.2,274.8,103.8,275.7,102.5z M268.8,91.3c0,1.5,0.9,2.6,2.7,3.9
	c1.4-1,2.2-2.2,2.2-3.8c0-1.7-1-3.1-2.5-3.1C269.8,88.3,268.8,89.5,268.8,91.3z"/>
<path class="st2" d="M299.1,87.6c2.1,0,3.8,0.4,5,1.2c1.2,0.9,1.9,2.2,1.9,4.2c0,3.8-2.9,5.7-5.8,6c-0.4,0.1-1,0.1-1.3,0l-2.2-0.6
	v4.6c0,2.5,0.3,2.7,2.9,2.8v0.8h-8v-0.8c2.4-0.2,2.6-0.4,2.6-2.9V91.3c0-2.6-0.2-2.7-2.4-2.9v-0.8H299.1 M296.8,97.5
	c0.4,0.1,1.2,0.4,2.2,0.4c1.9,0,4.3-1,4.3-4.8c0-3.2-2-4.5-4.5-4.5c-0.8,0-1.4,0.1-1.7,0.4c-0.2,0.2-0.3,0.5-0.3,1.4V97.5z"/>
<path class="st2" d="M316.8,107.1c-0.4,0-1.1-0.3-1.4-0.6c-0.4-0.4-0.6-0.8-0.7-1.3c-1.2,0.8-2.6,1.9-3.5,1.9
	c-2.1,0-3.5-1.7-3.5-3.6c0-1.4,0.8-2.4,2.4-2.9c1.8-0.6,3.9-1.4,4.6-1.9v-0.5c0-2.2-1-3.3-2.5-3.3c-0.6,0-1,0.2-1.3,0.6
	c-0.4,0.4-0.6,1.1-0.9,1.9c-0.1,0.5-0.4,0.7-0.9,0.7c-0.5,0-1.3-0.6-1.3-1.3c0-0.4,0.4-0.8,0.9-1.2c0.8-0.6,2.7-1.7,4.4-2.1
	c0.9,0,1.8,0.3,2.4,0.8c1,0.9,1.3,2.1,1.3,3.6v5.5c0,1.3,0.5,1.8,1,1.8c0.4,0,0.8-0.1,1.1-0.3l0.3,0.8L316.8,107.1 M314.6,99.7
	c-0.6,0.3-2,0.9-2.7,1.2c-1.2,0.5-1.8,1.1-1.8,2.2c0,1.5,1.2,2.2,2.1,2.2c0.8,0,1.8-0.5,2.4-1.1V99.7z"/>
<path class="st2" d="M324.6,96.7c0.9-1.5,2.2-3.2,3.6-3.2c1,0,1.7,0.8,1.7,1.5c0,0.6-0.4,1.2-0.9,1.4c-0.4,0.1-0.6,0.1-0.8-0.1
	c-0.4-0.4-0.8-0.6-1.3-0.6c-0.8,0-1.7,0.9-2.4,2.5v5.4c0,1.9,0.1,2.1,2.4,2.3v0.8h-6.8V106c1.8-0.2,2-0.4,2-2.3v-6.1
	c0-1.9-0.1-2.1-1.8-2.3v-0.7c1.4-0.2,2.7-0.6,4.2-1.2L324.6,96.7L324.6,96.7"/>
<path class="st2" d="M337.2,106.7c-0.5,0.3-0.9,0.4-1.2,0.4c-1.9,0-2.9-1.2-2.9-3.5V95h-2l-0.1-0.3l0.8-0.9h1.3v-2.1l1.9-2l0.4,0.1
	v4h3.3c0.3,0.3,0.2,0.9-0.2,1.2h-3.2v7.6c0,2.4,1,2.8,1.7,2.8c0.7,0,1.4-0.3,1.8-0.5l0.3,0.8L337.2,106.7"/>
<path class="st2" d="M348.9,106.7V106c1.7-0.2,1.9-0.4,1.9-2.4v-4.9c0-2-0.7-3.4-2.7-3.4c-1.2,0-2.3,0.7-3.2,1.5v6.9
	c0,2,0.2,2.1,1.9,2.3v0.8h-6.4V106c2-0.2,2.2-0.4,2.2-2.3v-6.1c0-1.9-0.2-2-1.8-2.3v-0.7c1.4-0.3,2.8-0.6,4.1-1.2v2.3
	c0.6-0.4,1.2-0.9,2-1.4c0.8-0.5,1.6-0.9,2.5-0.9c2.4,0,3.8,1.7,3.8,4.5v5.7c0,2,0.2,2.1,1.9,2.3v0.8H348.9"/>
<path class="st2" d="M367.3,104.3c-1.9,2.3-3.9,2.8-4.8,2.8c-3.6,0-5.8-2.9-5.8-6.3c0-2,0.7-3.8,2-5.2c1.2-1.3,2.8-2.2,4.3-2.2h0
	c2.5,0,4.4,2.2,4.4,4.5c0,0.6-0.1,0.8-0.7,0.9c-0.5,0.1-4.2,0.4-7.7,0.5c0,4,2.4,5.7,4.4,5.7c1.2,0,2.3-0.5,3.4-1.5L367.3,104.3
	 M359.2,98.2c1.7,0,3.3,0,5-0.1c0.5,0,0.7-0.1,0.7-0.6c0-1.5-1-2.9-2.6-2.9C360.9,94.6,359.6,95.8,359.2,98.2z"/>
<path class="st2" d="M373.6,96.7c0.9-1.5,2.2-3.2,3.6-3.2c1,0,1.7,0.8,1.7,1.5c0,0.6-0.4,1.2-0.9,1.4c-0.4,0.1-0.6,0.1-0.8-0.1
	c-0.4-0.4-0.8-0.6-1.3-0.6c-0.8,0-1.7,0.9-2.4,2.5v5.4c0,1.9,0.1,2.1,2.4,2.3v0.8h-6.8V106c1.8-0.2,2-0.4,2-2.3v-6.1
	c0-1.9-0.1-2.1-1.8-2.3v-0.7c1.4-0.2,2.7-0.6,4.2-1.2L373.6,96.7L373.6,96.7"/>
<path class="st2" d="M387.6,97.4c-0.6-1.8-1.6-2.9-3-2.9c-1.2,0-1.9,0.9-1.9,2c0,1.3,1.2,2,2.5,2.5c2.2,0.9,3.8,2,3.8,4
	c0,2.7-2.5,4.1-4.9,4.1c-1.5,0-2.9-0.6-3.4-1c-0.2-0.4-0.5-2.4-0.5-3.5l0.8-0.1c0.5,1.9,1.8,3.7,3.6,3.7c1.1,0,2.1-0.8,2.1-2.1
	c0-1.3-0.9-2-2.3-2.7c-1.8-0.8-3.7-1.8-3.7-4c0-2.1,1.8-3.8,4.5-3.8c1.2,0,2,0.3,2.6,0.5c0.3,0.6,0.6,2.4,0.6,3.1L387.6,97.4"/>
</svg>
